<?xml version="1.0" encoding="utf-8"?>
<!-- Generator: Adobe Illustrator 16.0.0, SVG Export Plug-In . SVG Version: 6.00 Build 0)  -->
<!DOCTYPE svg PUBLIC "-//W3C//DTD SVG 1.1//EN" "http://www.w3.org/Graphics/SVG/1.1/DTD/svg11.dtd">
<svg version="1.1" id="Layer_1" xmlns="http://www.w3.org/2000/svg" xmlns:xlink="http://www.w3.org/1999/xlink" x="0px" y="0px"
	 width="100px" height="100px" viewBox="0 0 100 100" enable-background="new 0 0 100 100" xml:space="preserve">
<path opacity="0.28" fill="#1A1A1A" enable-background="new    " d="M73.41,29.391h-7.457v-2.655c0-1.255-1.018-2.274-2.273-2.274
	c-0.924,0-1.717,0.55-2.072,1.34c-0.791,0.356-1.342,1.149-1.342,2.072v1.517h-5.56v-2.655c0-1.255-1.019-2.274-2.274-2.274
	c-0.923,0-1.716,0.55-2.071,1.34c-0.79,0.356-1.341,1.149-1.341,2.072v1.517h-2.006H43.46v-2.655c0-1.255-1.019-2.274-2.274-2.274
	c-0.922,0-1.716,0.55-2.072,1.34c-0.79,0.356-1.34,1.149-1.34,2.072v1.517h-5.56v-0.562v-2.093c0-1.255-1.02-2.274-2.275-2.274
	c-0.922,0-1.715,0.55-2.072,1.34c-0.79,0.356-1.339,1.149-1.339,2.072v1.517h-6.32c-4.053,0-7.063,3.752-6.183,7.708l1.109,4.992
	l0.506,2.275l7.156,32.192c0.645,2.898,3.214,4.959,6.183,4.959h35.664c2.969,0,5.539-2.061,6.183-4.959l7.155-32.192l0.506-2.275
	l1.111-4.992C80.473,33.143,77.464,29.391,73.41,29.391z"/>
<path fill="#F2F2F2" d="M20.187,39.816l7.156,32.193c0.645,2.898,3.215,4.96,6.184,4.96h35.663c2.969,0,5.539-2.062,6.184-4.96
	l7.154-32.193l0.508-2.274H19.681L20.187,39.816z"/>
<path fill="#E6E6E6" d="M19.681,37.352l0.506,2.275l7.156,32.193c0.645,2.896,3.215,4.959,6.184,4.959h20.25
	c-3.692-13.434-7.835-26.456-12.189-39.427H19.681z"/>
<path fill="#F2F2F2" d="M53.139,37.542l17.797,2.692c3.385,0.511,5.791,3.559,5.506,6.968l-2.271,27.149
	c0.569-0.728,0.99-1.582,1.201-2.531l7.155-32.193l0.507-2.275H53.328L53.139,37.542z"/>
<path fill="#F9BF30" d="M77.96,24.841H24.755c-4.052,0-7.062,3.753-6.183,7.708l1.109,4.992h63.353l1.108-4.992
	C85.021,28.594,82.014,24.841,77.96,24.841z"/>
<path opacity="0.37" fill="#F9BF30" enable-background="new    " d="M24.755,24.841c-4.052,0-7.062,3.753-6.183,7.708l1.109,4.992
	h31.879c-1.941-4.213-3.676-8.506-5.585-12.7H24.755z"/>
<path fill="#F9BF30" d="M81.129,37.542h1.905l1.108-4.992c0.879-3.955-2.131-7.708-6.184-7.708H51.563l24.815,3.225
	c2.521,0.327,4.44,2.419,4.554,4.958L81.129,37.542z"/>
<g opacity="0.29">
	<path fill="#77360A" d="M33.677,33.75h-0.654c-1.076,0-1.948-0.872-1.948-1.947v-8.805c0-1.076,0.872-1.947,1.948-1.947h0.654
		c1.076,0,1.947,0.872,1.947,1.947v8.805C35.625,32.878,34.753,33.75,33.677,33.75z"/>
	<path fill="#77360A" d="M44.924,33.75H44.27c-1.076,0-1.948-0.872-1.948-1.947v-8.805c0-1.076,0.872-1.947,1.948-1.947h0.655
		c1.075,0,1.947,0.872,1.947,1.947v8.805C46.871,32.878,46,33.75,44.924,33.75z"/>
	<path fill="#77360A" d="M56.171,33.75h-0.655c-1.074,0-1.947-0.872-1.947-1.947v-8.805c0-1.076,0.873-1.947,1.947-1.947h0.655
		c1.075,0,1.947,0.872,1.947,1.947v8.805C58.118,32.878,57.246,33.75,56.171,33.75z"/>
	<path fill="#77360A" d="M67.417,33.75h-0.653c-1.076,0-1.947-0.872-1.947-1.947v-8.805c0-1.076,0.871-1.947,1.947-1.947h0.653
		c1.076,0,1.948,0.872,1.948,1.947v8.805C69.365,32.878,68.493,33.75,67.417,33.75z"/>
</g>
<g>
	<path fill="#4885ED" d="M34.814,32.613H34.16c-1.075,0-1.947-0.872-1.947-1.948V21.86c0-1.076,0.872-1.948,1.947-1.948h0.655
		c1.075,0,1.947,0.872,1.947,1.948v8.805C36.761,31.741,35.89,32.613,34.814,32.613z"/>
	<path fill="#4885ED" d="M46.062,32.613h-0.655c-1.075,0-1.947-0.872-1.947-1.948V21.86c0-1.076,0.872-1.948,1.947-1.948h0.655
		c1.075,0,1.947,0.872,1.947,1.948v8.805C48.009,31.741,47.137,32.613,46.062,32.613z"/>
	<path fill="#4885ED" d="M57.309,32.613h-0.654c-1.075,0-1.947-0.872-1.947-1.948V21.86c0-1.076,0.872-1.948,1.947-1.948h0.654
		c1.074,0,1.946,0.872,1.946,1.948v8.805C59.255,31.741,58.383,32.613,57.309,32.613z"/>
	<path fill="#4885ED" d="M68.555,32.613h-0.652c-1.077,0-1.948-0.872-1.948-1.948V21.86c0-1.076,0.871-1.948,1.948-1.948h0.652
		c1.075,0,1.948,0.872,1.948,1.948v8.805C70.503,31.741,69.63,32.613,68.555,32.613z"/>
</g>
<g opacity="0.24">
	<path fill="#911EAD" d="M32.213,30.338c0,1.257,1.018,2.275,2.274,2.275c1.256,0,2.274-1.018,2.274-2.275V24.28
		c-1.518-0.379-3.034-0.766-4.548-1.161V30.338z"/>
	<path fill="#911EAD" d="M43.459,30.338c0,1.257,1.019,2.275,2.275,2.275c1.256,0,2.274-1.018,2.274-2.275V26.91
		c-1.518-0.33-3.035-0.669-4.549-1.019V30.338z"/>
	<path fill="#911EAD" d="M54.706,30.338c0,1.257,1.021,2.275,2.274,2.275c1.258,0,2.273-1.018,2.273-2.275v-1.22
		c-1.52-0.265-3.033-0.544-4.549-0.836L54.706,30.338L54.706,30.338z"/>
	<path fill="#911EAD" d="M65.953,30.338c0,1.257,1.02,2.275,2.273,2.275c1.101,0,2.017-0.78,2.229-1.816
		c-1.502-0.185-3.003-0.389-4.503-0.606V30.338z"/>
</g>
<g opacity="0.43">
	<path fill="#808080" d="M62.688,41.332v2.154l-13.505,29.5h-8.956l11.542-24.28H39.794v-7.374H62.688z"/>
</g>
<g>
	<path fill="#596CDE" d="M64.583,40.194v2.156L51.077,71.852h-8.956l11.542-24.283H41.69v-7.375H64.583z"/>
</g>
<g display="none" opacity="0.53">
	<path display="inline" fill="#4D4D4D" d="M42.122,71.852h8.956l5.761-12.586c-1.312-3.4-2.579-6.836-3.85-10.276L42.122,71.852z"/>
	<path display="inline" fill="#4D4D4D" d="M41.69,40.194v7.375h10.774c-0.911-2.462-1.829-4.924-2.771-7.375H41.69z"/>
</g>
</svg>
