<?xml version="1.0" encoding="utf-8"?>
<!-- Generator: Adobe Illustrator 16.0.0, SVG Export Plug-In . SVG Version: 6.00 Build 0)  -->
<!DOCTYPE svg PUBLIC "-//W3C//DTD SVG 1.1//EN" "http://www.w3.org/Graphics/SVG/1.1/DTD/svg11.dtd">
<svg version="1.1"
	 id="Layer_1" xmlns:rdf="http://www.w3.org/1999/02/22-rdf-syntax-ns#" xmlns:dc="http://purl.org/dc/elements/1.1/" xmlns:cc="http://creativecommons.org/ns#" xmlns:svg="http://www.w3.org/2000/svg" xmlns:sodipodi="http://sodipodi.sourceforge.net/DTD/sodipodi-0.dtd" xmlns:inkscape="http://www.inkscape.org/namespaces/inkscape"
	 xmlns="http://www.w3.org/2000/svg" xmlns:xlink="http://www.w3.org/1999/xlink" x="0px" y="0px" width="100px" height="100px"
	 viewBox="0 0 100 100" enable-background="new 0 0 100 100" xml:space="preserve">
<path display="none" fill="#FCBA16" d="M72.727,26.247c0.356-0.854,3.205-2.164,4.732-2.861c1.532-0.697-1.164-5.455-2.846-4.935
	s-11.426,3.384-11.993,5.092c-0.568,1.708,13.764,43.696-11.696,45.409c0,0.002-0.002,0.005-0.002,0.005s0-0.003,0-0.005
	c-25.459-1.714-11.126-43.702-11.696-45.41c-0.569-1.708-10.312-4.572-11.993-5.092c-1.682-0.52-4.378,4.238-2.847,4.935
	c1.53,0.697,4.377,2.007,4.733,2.861s-10.628,15.517-6.263,34.688C27.222,80.102,42.665,82.9,50.923,82.9
	c8.257,0,23.7-2.799,28.065-21.967C83.354,41.764,72.371,27.101,72.727,26.247z M26.771,44.907c0-1.16,0.94-2.1,2.1-2.1
	s2.1,0.94,2.1,2.1c0,1.159-0.94,2.1-2.1,2.1C27.711,47.006,26.771,46.066,26.771,44.907z M29.725,62.145
	c-1.159,0-2.1-0.941-2.1-2.102c0-1.158,0.94-2.1,2.1-2.1c1.16,0,2.1,0.94,2.1,2.1S30.884,62.145,29.725,62.145z M32.239,33.649
	c-1.16,0-2.1-0.94-2.1-2.099c0-1.16,0.94-2.1,2.1-2.1c1.16,0,2.1,0.94,2.1,2.1C34.338,32.708,33.398,33.649,32.239,33.649z
	 M38.288,73.662c-1.16,0-2.1-0.939-2.1-2.1s0.94-2.101,2.1-2.101c1.159,0,2.1,0.94,2.1,2.101S39.447,73.662,38.288,73.662z
	 M50.924,78.633c0,0.01-0.002,0.018-0.002,0.028c0-0.011,0-0.021,0-0.028c-1.158,0-2.099-0.941-2.099-2.1
	c0-1.159,0.941-2.102,2.099-2.102c0-0.002,0-0.002,0-0.004c0,0.002,0.002,0.002,0.002,0.004c1.159,0,2.1,0.941,2.1,2.102
	C53.023,77.691,52.083,78.633,50.924,78.633z M63.559,73.662c-1.158,0-2.1-0.939-2.1-2.1s0.939-2.101,2.1-2.101s2.1,0.94,2.1,2.101
	S64.718,73.662,63.559,73.662z M67.508,31.55c0-1.16,0.94-2.1,2.102-2.1c1.158,0,2.1,0.94,2.1,2.1c0,1.159-0.941,2.099-2.1,2.099
	C68.448,33.649,67.508,32.708,67.508,31.55z M72.121,62.145c-1.159,0-2.1-0.941-2.1-2.102c0-1.158,0.939-2.1,2.1-2.1
	s2.1,0.94,2.1,2.1S73.281,62.145,72.121,62.145z M72.977,47.006c-1.16,0-2.1-0.94-2.1-2.1c0-1.16,0.939-2.1,2.1-2.1
	c1.159,0,2.1,0.94,2.1,2.1C75.075,46.066,74.137,47.006,72.977,47.006z"/>
<circle fill="#70AF1A" cx="50.28" cy="50.01" r="33.646"/>
<circle fill="#579601" cx="50.28" cy="50.01" r="26.937"/>
<g>
	<path fill="#FFFFFF" d="M47.569,73.303c-0.085,0-0.17-0.011-0.257-0.034c-0.538-0.141-0.859-0.691-0.718-1.229
		c2.757-10.499,2.919-23.258,2.921-23.386c0.006-0.556,0.475-0.988,1.017-0.997c0.557,0.007,1.003,0.462,0.998,1.019
		c-0.003,0.129-0.169,13.137-2.988,23.876C48.424,73.004,48.015,73.303,47.569,73.303z"/>
	<path fill="#FFFFFF" d="M72.857,46.871c0.171-3.66-3.219-6.793-7.568-6.996c-0.23-0.011-0.459-0.011-0.686-0.005v-0.001
		c0,0-1.873,0.155-4.359,0.581c0.523-1.177,0.873-2.037,1.001-2.299c0.083-0.161,0.609-1.444,0.734-1.921
		c1.093-4.215-0.895-8.379-4.44-9.301c-2.598-0.674-5.31,0.58-7.007,2.955c-1.682-2.383-4.389-3.651-6.989-2.991
		c-3.552,0.902-5.562,5.055-4.489,9.277c0.057,0.224,0.124,0.443,0.195,0.659h-0.001c0,0,0.477,1.373,1.285,3.31
		c-2.428-0.533-4.256-0.772-4.256-0.772v0.001c-0.227-0.017-0.456-0.027-0.686-0.027c-4.356-0.005-7.889,2.963-7.892,6.627
		c-0.003,2.684,1.891,4.996,4.614,6.042c-1.887,2.227-2.438,5.164-1.146,7.517c1.762,3.211,6.287,4.119,10.105,2.024
		c0.433-0.239,1.548-1.064,1.683-1.183c0.627-0.53,4.595-3.685,7.225-7.274c2.458,3.641,6.159,6.884,6.753,7.436
		c0.128,0.126,1.203,1.003,1.623,1.26c3.714,2.275,8.277,1.586,10.19-1.538c1.401-2.29,0.99-5.249-0.787-7.563
		C70.729,51.771,72.731,49.552,72.857,46.871z"/>
</g>
</svg>
