<?xml version="1.0" encoding="utf-8"?>
<!-- Generator: Adobe Illustrator 16.0.0, SVG Export Plug-In . SVG Version: 6.00 Build 0)  -->
<!DOCTYPE svg PUBLIC "-//W3C//DTD SVG 1.1//EN" "http://www.w3.org/Graphics/SVG/1.1/DTD/svg11.dtd">
<svg version="1.1" id="Layer_1" xmlns="http://www.w3.org/2000/svg" xmlns:xlink="http://www.w3.org/1999/xlink" x="0px" y="0px"
	 width="100px" height="100px" viewBox="0 0 100 100" enable-background="new 0 0 100 100" xml:space="preserve">
<g transform="translate(50 50) scale(0.69 0.69) rotate(0) translate(-50 -50)">
	<title>all</title>
	<path fill="#DB3236" d="M0,49.88C-0.091,22.09,23.239-0.74,51.38,0C77.381,0.699,100.11,22.169,100,50.249
		c-0.102,27.615-22.571,49.918-50.184,49.816C22.201,99.963-0.102,77.494,0,49.88z M73.879,50.76c-0.65-0.903-1.412-1.72-2.269-2.43
		C61.61,42.397,51.577,36.509,41.511,30.67c-2.511-1.469-4.512-0.439-4.512,2.43c-0.099,11.828-0.099,23.654,0,35.48
		c0,2.89,2.001,4,4.501,2.531c10.148-5.868,20.253-11.801,30.32-17.802c0.74-0.47,1.18-1.489,2.071-2.549H73.879z"/>
</g>
</svg>
