<?xml version="1.0" encoding="utf-8"?>
<!-- Generator: Adobe Illustrator 16.0.0, SVG Export Plug-In . SVG Version: 6.00 Build 0)  -->
<!DOCTYPE svg PUBLIC "-//W3C//DTD SVG 1.1//EN" "http://www.w3.org/Graphics/SVG/1.1/DTD/svg11.dtd">
<svg version="1.1"
	 id="Layer_1" xmlns:rdf="http://www.w3.org/1999/02/22-rdf-syntax-ns#" xmlns:dc="http://purl.org/dc/elements/1.1/" xmlns:cc="http://creativecommons.org/ns#" xmlns:svg="http://www.w3.org/2000/svg" xmlns:sodipodi="http://sodipodi.sourceforge.net/DTD/sodipodi-0.dtd" xmlns:inkscape="http://www.inkscape.org/namespaces/inkscape"
	 xmlns="http://www.w3.org/2000/svg" xmlns:xlink="http://www.w3.org/1999/xlink" x="0px" y="0px" width="100px" height="100px"
	 viewBox="0 0 100 100" enable-background="new 0 0 100 100" xml:space="preserve">
<g transform="translate(50 50) scale(0.69 0.69) rotate(0) translate(-50 -50)">
	<g transform="translate(0,-952.36218)">
		<path fill="#4D4D4D" d="M50.427,958.887c-0.963,0.127-1.754,0.821-2.009,1.758c-0.662,2.42-1.538,4.836-2.582,6.598
			c-1.044,1.764-2.182,2.762-3.156,3.014c-0.972,0.251-2.398-0.039-4.162-1.077c-1.763-1.037-3.696-2.724-5.452-4.519
			c-0.754-0.767-1.923-0.943-2.869-0.429c-4.136,2.217-7.912,5.001-11.155,8.356c-0.744,0.771-0.889,1.94-0.359,2.87
			c1.245,2.175,2.32,4.553,2.833,6.529c0.514,1.974,0.4,3.372-0.108,4.231c-0.507,0.863-1.683,1.704-3.658,2.224
			c-1.976,0.52-4.528,0.705-7.031,0.681c-1.087-0.025-2.056,0.681-2.367,1.722c-1.253,4.131-1.936,8.507-1.936,13.056
			c0,0.437,0.034,0.696,0.034,0.788c0.016,1.083,0.751,2.02,1.793,2.296c2.417,0.66,4.773,1.516,6.529,2.547
			c1.756,1.03,2.763,2.12,3.013,3.084c0.25,0.965-0.039,2.396-1.075,4.161c-1.04,1.762-2.726,3.731-4.519,5.487
			c-0.768,0.754-0.944,1.925-0.432,2.87c2.219,4.147,5.002,7.907,8.357,11.154c0.778,0.732,1.948,0.863,2.871,0.323
			c2.18-1.245,4.537-2.283,6.527-2.797c1.991-0.515,3.481-0.434,4.341,0.071c0.861,0.508,1.637,1.749,2.151,3.729
			c0.513,1.98,0.679,4.52,0.646,7.031c-0.021,1.095,0.702,2.071,1.758,2.366c4.131,1.251,8.506,1.936,13.056,1.936
			c0.454,0,0.641-0.035,0.609-0.035c1.095,0.001,2.052-0.735,2.332-1.793c0.668-2.417,1.568-4.835,2.618-6.598
			c1.05-1.765,2.147-2.726,3.119-2.978c0.971-0.252,2.399,0.068,4.162,1.112c1.761,1.043,3.729,2.716,5.487,4.519
			c0.753,0.767,1.923,0.943,2.869,0.429c4.165-2.223,7.937-5.064,11.192-8.427c0.715-0.774,0.845-1.921,0.321-2.833
			c-1.254-2.182-2.313-4.54-2.833-6.529c-0.519-1.988-0.435-3.476,0.072-4.339c0.514-0.873,1.737-1.705,3.729-2.225
			c1.993-0.517,4.545-0.677,7.067-0.645c1.087,0.027,2.056-0.681,2.366-1.721c1.238-4.114,1.901-8.469,1.901-12.984
			c0-0.444,0.001-0.647,0-0.684c0.001-1.093-0.736-2.049-1.793-2.329c-2.415-0.665-4.771-1.54-6.529-2.583
			c-1.755-1.042-2.758-2.144-3.012-3.122c-0.253-0.973,0.045-2.433,1.076-4.196c1.03-1.761,2.693-3.695,4.484-5.452
			c0.766-0.752,0.944-1.925,0.43-2.87c-2.218-4.142-5-7.907-8.357-11.153c-0.77-0.744-1.94-0.89-2.869-0.359
			c-2.181,1.245-4.549,2.354-6.527,2.87c-1.981,0.513-3.438,0.403-4.305-0.109c-0.876-0.517-1.669-1.747-2.188-3.729
			c-0.518-1.985-0.747-4.55-0.716-7.067c0.013-1.064-0.672-2.011-1.686-2.331c-3.993-1.205-8.223-1.822-12.589-1.865
			c-0.075-0.001-0.142-0.036-0.217-0.036c-0.071-0.003-0.143-0.003-0.214,0h-0.79c-0.083-0.004-0.168-0.004-0.252,0H50.427z
			 M51.469,985.07c10.387,0,18.831,8.444,18.831,18.831c0,10.385-8.444,18.866-18.831,18.866c-10.388,0-18.904-8.481-18.904-18.866
			C32.566,993.514,41.081,985.07,51.469,985.07z M51.469,989.876c-7.785,0-14.061,6.243-14.061,14.024s6.276,14.061,14.061,14.061
			c7.781,0,14.021-6.28,14.021-14.061S59.25,989.876,51.469,989.876z"/>
	</g>
</g>
</svg>
