<?xml version="1.0" encoding="utf-8"?>
<!-- Generator: Adobe Illustrator 16.0.0, SVG Export Plug-In . SVG Version: 6.00 Build 0)  -->
<!DOCTYPE svg PUBLIC "-//W3C//DTD SVG 1.1//EN" "http://www.w3.org/Graphics/SVG/1.1/DTD/svg11.dtd">
<svg version="1.1" id="Layer_1" xmlns="http://www.w3.org/2000/svg" xmlns:xlink="http://www.w3.org/1999/xlink" x="0px" y="0px"
	 width="100px" height="100px" viewBox="0 0 100 100" enable-background="new 0 0 100 100" xml:space="preserve">
<g>
	<path fill="#C0B399" d="M34.454,42.841c-1.892,2.267-3.785,4.532-5.677,6.798c-1.379-0.41-2.781-0.759-4.174-0.809
		c-3.754-0.134-6.758,2.201-9.124,4.866c-3.054,3.442-2.48,7.9,1.173,10.627c0.713,0.532,1.437,1.052,2.16,1.571
		c-0.3,2.584,0.346,5.031,2.6,7.026c1.845,1.633,3.977,2.004,6.144,1.723c0.514,0.716,1.026,1.432,1.553,2.137
		c2.708,3.629,7.12,4.25,10.566,1.231c2.687-2.353,5.093-5.418,4.927-9.184c-0.062-1.396-0.407-2.794-0.814-4.17
		c2.15-1.796,4.3-3.593,6.449-5.388c3.229,4.965,6.449,9.939,9.757,14.852c3.677,5.458,9.32,5.499,13.708,0.706
		c3.242-3.543,2.363-7.427,1.193-11.411c2.139-2.336,3.795-4.938,2.848-8.459c-0.612-2.277-1.98-3.834-3.674-4.73
		c0.883-1.615,1.283-3.421,0.703-5.575c-0.564-2.099-1.805-3.602-3.355-4.534c2.063-2.261,3.99-4.635,5.596-7.274
		c3.169-5.209,5.869-10.872,3.044-16.268c-0.219-0.749-0.627-1.428-1.265-1.936c-0.508-0.638-1.197-1.048-1.959-1.268
		c-7.977-4.112-17.635,3.133-24.177,9.238c-0.614-2.457-2.369-4.583-5.297-5.418c-2.232-0.637-4.073-0.251-5.714,0.644
		c-0.947-1.769-2.613-3.179-5.021-3.75c-3.431-0.815-5.927,0.834-8.176,2.922c-4.302-1.218-8.219-1.979-12.012,1.814
		c-2.928,2.927-4.338,7.175-1.486,10.734c0.969,1.208,2.272,1.983,3.549,2.82C23.817,35.864,29.136,39.353,34.454,42.841z
		 M38.525,72.016c0.017-0.021,0.036-0.039,0.052-0.061C38.959,72.07,38.814,72.089,38.525,72.016z"/>
	<path fill="#FFFFFF" d="M37.804,39.492c-1.892,2.266-3.785,4.532-5.677,6.798c-1.379-0.41-2.782-0.759-4.174-0.81
		c-3.754-0.134-6.758,2.201-9.124,4.866c-3.054,3.442-2.48,7.9,1.173,10.627c0.713,0.533,1.437,1.052,2.16,1.571
		c-0.3,2.584,0.346,5.03,2.6,7.026c1.845,1.633,3.977,2.004,6.144,1.723c0.514,0.716,1.026,1.432,1.553,2.137
		c2.708,3.629,7.12,4.25,10.566,1.231c2.687-2.353,5.092-5.418,4.926-9.184c-0.062-1.396-0.407-2.794-0.814-4.17
		c2.15-1.796,4.3-3.593,6.449-5.388c3.229,4.965,6.449,9.939,9.757,14.852c3.677,5.459,9.32,5.499,13.708,0.706
		c3.242-3.543,2.363-7.427,1.193-11.411c2.139-2.336,3.795-4.938,2.848-8.459c-0.612-2.277-1.98-3.834-3.674-4.73
		c0.883-1.615,1.283-3.421,0.703-5.575c-0.564-2.099-1.805-3.602-3.355-4.534c2.063-2.261,3.99-4.635,5.596-7.274
		c3.168-5.209,5.869-10.872,3.044-16.268c-0.219-0.749-0.627-1.428-1.265-1.936c-0.508-0.638-1.197-1.048-1.959-1.268
		c-7.977-4.112-17.635,3.133-24.177,9.238c-0.614-2.457-2.369-4.583-5.298-5.418c-2.231-0.637-4.072-0.251-5.713,0.644
		c-0.947-1.769-2.613-3.179-5.022-3.75c-3.431-0.814-5.926,0.834-8.175,2.922c-4.302-1.218-8.219-1.979-12.013,1.814
		c-2.927,2.927-4.337,7.175-1.486,10.734c0.97,1.208,2.273,1.983,3.55,2.82C27.167,32.515,32.485,36.003,37.804,39.492z
		 M41.875,68.666c0.017-0.021,0.036-0.039,0.052-0.061C42.309,68.721,42.164,68.739,41.875,68.666z"/>
	<g>
		<g>
			<g>
				<g>
					<g>
						<path fill="#F6D436" d="M63.122,47.931l2.8,2.802l5.936-5.936c0.773-0.773,0.773-2.027,0-2.8l0,0
							c-0.773-0.773-2.027-0.773-2.801,0L63.122,47.931z"/>
						<path fill="#462B17" d="M61.795,47.931l6.599-6.598c1.138-1.138,2.989-1.138,4.127,0c0.552,0.552,0.855,1.285,0.855,2.064
							c0,0.78-0.304,1.513-0.855,2.064l-6.599,6.599L61.795,47.931z M69.721,42.66l-5.271,5.271l1.473,1.473l5.271-5.271
							c0.197-0.196,0.305-0.458,0.305-0.736s-0.107-0.54-0.305-0.737c-0.203-0.203-0.469-0.304-0.736-0.304
							S69.924,42.457,69.721,42.66z"/>
					</g>
					<g>
						<path fill="#F6D436" d="M66.092,58.236l2.801,2.801l5.936-5.936c0.773-0.773,0.773-2.026,0-2.8l0,0
							c-0.773-0.773-2.027-0.773-2.801,0L66.092,58.236z"/>
						<path fill="#462B17" d="M64.766,58.236l6.598-6.598c0.552-0.553,1.285-0.855,2.064-0.855s1.512,0.303,2.063,0.854
							c0.552,0.553,0.854,1.285,0.854,2.064c0,0.78-0.303,1.514-0.854,2.064l-6.599,6.6L64.766,58.236z M72.691,52.965l-5.271,5.271
							l1.473,1.473l5.271-5.271c0.196-0.198,0.305-0.46,0.305-0.737s-0.108-0.539-0.305-0.736c-0.197-0.195-0.459-0.305-0.736-0.305
							S72.889,52.77,72.691,52.965z"/>
					</g>
					<g>
						<path fill="#FFFDFB" d="M53.266,44.545l15.782,24.063c0.498,0.759,1.568,0.869,2.21,0.228l1.891-1.891
							c0.363-0.363,0.504-0.895,0.368-1.393l-8.82-32.135c-0.063-0.226-0.346-0.301-0.513-0.135L53.307,44.161
							C53.203,44.263,53.187,44.424,53.266,44.545z"/>
						<path fill="#462B17" d="M70.004,70.182c-0.714-0.074-1.348-0.459-1.74-1.059L52.482,45.06l-0.002,0
							c-0.321-0.491-0.254-1.147,0.162-1.563l10.879-10.879c0.312-0.312,0.771-0.436,1.197-0.322
							c0.428,0.113,0.766,0.448,0.883,0.874l8.82,32.135c0.225,0.82-0.008,1.703-0.609,2.305L71.922,69.5
							c-0.448,0.448-1.047,0.694-1.673,0.694C70.167,70.194,70.085,70.189,70.004,70.182z M54.333,44.461l15.499,23.633
							c0.113,0.171,0.275,0.211,0.363,0.221c0.088,0.008,0.254,0.002,0.399-0.143l1.89-1.89c0.125-0.126,0.174-0.309,0.127-0.48
							l-8.532-31.086L54.333,44.461z M54.051,44.03l0.001,0.002C54.052,44.032,54.052,44.031,54.051,44.03L54.051,44.03z"/>
					</g>
				</g>
				<g>
					<g>
						<path fill="#F6D436" d="M43.96,28.77l-2.8-2.8l5.935-5.935c0.773-0.774,2.027-0.774,2.8,0l0,0c0.773,0.773,0.773,2.027,0,2.8
							L43.96,28.77z"/>
						<path fill="#462B17" d="M39.832,25.969l6.6-6.599c1.137-1.138,2.99-1.138,4.127,0c1.139,1.138,1.139,2.99,0,4.127
							l-6.599,6.599L39.832,25.969z M47.758,20.698l-5.27,5.271l1.472,1.473l5.272-5.271c0.405-0.406,0.405-1.067,0-1.472
							c-0.203-0.203-0.47-0.305-0.737-0.305S47.961,20.495,47.758,20.698z"/>
					</g>
					<g>
						<path fill="#F6D436" d="M33.655,25.799l-2.8-2.8l5.935-5.935c0.773-0.773,2.026-0.773,2.8,0l0,0
							c0.773,0.773,0.773,2.027,0,2.8L33.655,25.799z"/>
						<path fill="#462B17" d="M29.527,22.999l6.598-6.599c1.139-1.138,2.99-1.138,4.128,0c1.139,1.139,1.139,2.99,0,4.128
							l-6.598,6.599L29.527,22.999z M37.453,17.728l-5.271,5.271l1.474,1.473l5.271-5.271c0.405-0.406,0.405-1.066,0-1.473
							c-0.203-0.203-0.471-0.304-0.736-0.304C37.923,17.423,37.656,17.524,37.453,17.728z"/>
					</g>
					<g>
						<path fill="#FFFDFB" d="M47.347,38.625L23.283,22.844c-0.76-0.498-0.87-1.568-0.228-2.21l1.891-1.89
							c0.363-0.364,0.895-0.505,1.391-0.369l32.137,8.82c0.228,0.063,0.302,0.346,0.136,0.512L47.731,38.586
							C47.627,38.688,47.468,38.705,47.347,38.625z"/>
						<path fill="#462B17" d="M46.832,39.412L22.77,23.628c-0.6-0.393-0.985-1.027-1.059-1.74s0.175-1.413,0.682-1.919l1.889-1.89
							c0.601-0.602,1.485-0.835,2.306-0.61l32.135,8.82c0.427,0.117,0.761,0.455,0.874,0.882c0.113,0.427-0.011,0.887-0.322,1.199
							L48.396,39.249c-0.239,0.24-0.56,0.364-0.883,0.364C47.277,39.613,47.04,39.547,46.832,39.412z M47.859,37.839
							C47.859,37.839,47.859,37.839,47.859,37.839L47.859,37.839z M26.09,19.281c-0.171-0.047-0.354,0.001-0.48,0.126l-1.891,1.89
							c-0.144,0.145-0.15,0.313-0.141,0.399c0.009,0.087,0.05,0.25,0.22,0.362l23.632,15.5l9.746-9.746L26.09,19.281z"/>
					</g>
				</g>
			</g>
			<g>
				<path fill="#B0E2F1" d="M74.247,14.73c2.79-1.077,5.53,1.664,4.454,4.454c-2.233,5.785-4.607,9.979-10.029,15.401l-6.027,6.026
					L36.964,62.061c-1.938,1.621-4.216,2.783-6.665,3.404l0,0c-1.41,0.357-2.689-0.923-2.333-2.334l0,0
					c0.622-2.447,1.783-4.725,3.403-6.664l21.45-25.681l6.026-6.027C64.268,19.336,68.462,16.963,74.247,14.73z"/>
				<path fill="#462B17" d="M27.807,65.625c-0.72-0.719-1.001-1.738-0.751-2.725c0.651-2.567,1.895-5.001,3.593-7.035l21.45-25.682
					l6.083-6.088c5.682-5.681,10.068-8.057,15.728-10.241l0,0c1.642-0.635,3.436-0.256,4.679,0.988
					c1.244,1.244,1.623,3.037,0.988,4.679c-2.184,5.659-4.559,10.046-10.24,15.727l-6.026,6.027L37.566,62.782
					c-2.034,1.698-4.468,2.941-7.036,3.593c-0.238,0.061-0.476,0.089-0.713,0.089C29.071,66.464,28.353,66.171,27.807,65.625z
					 M68.008,33.921c5.446-5.445,7.724-9.651,9.816-15.075c0.369-0.954,0.158-1.954-0.564-2.675
					c-0.721-0.722-1.721-0.933-2.675-0.565c-5.424,2.094-9.63,4.371-15.075,9.816l-5.997,5.998L32.09,57.068
					c-1.52,1.82-2.631,3.996-3.213,6.293c-0.124,0.488,0.139,0.816,0.256,0.936c0.119,0.119,0.446,0.383,0.936,0.258
					c2.299-0.583,4.476-1.693,6.294-3.213l25.649-21.424L68.008,33.921z"/>
			</g>
			<g>
				<path fill="#F6D436" d="M23.017,55.824l8.237,5.935c0.161,0.116,0.301,0.258,0.418,0.419l5.936,8.236
					c0.27,0.376,0.813,0.419,1.14,0.092l2.19-2.19c0.927-0.927,1.28-2.282,0.923-3.543l-2.653-9.362
					c-0.163-0.574-0.612-1.023-1.188-1.186l-9.361-2.652c-1.26-0.357-2.615-0.006-3.543,0.922l-2.19,2.19
					C22.598,55.012,22.643,55.553,23.017,55.824z"/>
				<path fill="#462B17" d="M38.08,71.658c-0.494-0.039-0.944-0.293-1.233-0.696l-5.936-8.235c-0.058-0.079-0.127-0.148-0.206-0.206
					l-8.237-5.935c-0.402-0.291-0.656-0.74-0.695-1.235c-0.041-0.495,0.139-0.979,0.489-1.331l2.19-2.189
					c1.165-1.166,2.875-1.61,4.463-1.162l9.361,2.652c0.895,0.254,1.581,0.939,1.834,1.835l2.652,9.36
					c0.45,1.588,0.006,3.297-1.162,4.463l-2.189,2.19c-0.318,0.319-0.747,0.495-1.193,0.495
					C38.172,71.664,38.126,71.662,38.08,71.658z M25.779,53.158l-2.034,2.033l8.058,5.807c0.243,0.175,0.455,0.387,0.63,0.631
					l5.808,8.057l2.033-2.035c0.686-0.684,0.947-1.689,0.683-2.623l-2.652-9.36c-0.074-0.263-0.277-0.466-0.54-0.54l-9.36-2.652
					c-0.241-0.068-0.485-0.101-0.729-0.101C26.973,52.374,26.289,52.648,25.779,53.158z"/>
			</g>
		</g>
		<path fill="#FDFAF3" d="M60.337,28.754L60.337,28.754c-0.386-0.347-0.979-0.317-1.326,0.067L48.44,40.525
			c-0.347,0.385-0.316,0.979,0.068,1.326l0,0c0.385,0.347,0.979,0.317,1.325-0.067l10.571-11.703
			C60.752,29.695,60.722,29.102,60.337,28.754z"/>
		<path fill="#FDFAF3" d="M65.844,22.657L65.844,22.657c-0.385-0.347-0.979-0.317-1.326,0.067l-2.875,3.184
			c-0.348,0.385-0.317,0.979,0.067,1.326l0,0c0.386,0.348,0.979,0.317,1.326-0.067l2.875-3.184
			C66.259,23.598,66.229,23.004,65.844,22.657z"/>
	</g>
</g>
</svg>
