<?xml version="1.0" encoding="utf-8"?>
<!-- Generator: Adobe Illustrator 16.0.0, SVG Export Plug-In . SVG Version: 6.00 Build 0)  -->
<!DOCTYPE svg PUBLIC "-//W3C//DTD SVG 1.1//EN" "http://www.w3.org/Graphics/SVG/1.1/DTD/svg11.dtd">
<svg version="1.1"
	 id="Layer_1" xmlns:rdf="http://www.w3.org/1999/02/22-rdf-syntax-ns#" xmlns:dc="http://purl.org/dc/elements/1.1/" xmlns:cc="http://creativecommons.org/ns#" xmlns:svg="http://www.w3.org/2000/svg" xmlns:sodipodi="http://sodipodi.sourceforge.net/DTD/sodipodi-0.dtd" xmlns:inkscape="http://www.inkscape.org/namespaces/inkscape"
	 xmlns="http://www.w3.org/2000/svg" xmlns:xlink="http://www.w3.org/1999/xlink" x="0px" y="0px" width="100px" height="100px"
	 viewBox="0 0 100 100" enable-background="new 0 0 100 100" xml:space="preserve">
<path display="none" fill="#FCBA16" d="M72.727,26.247c0.356-0.854,3.205-2.164,4.732-2.861c1.532-0.697-1.164-5.455-2.846-4.935
	s-11.426,3.384-11.993,5.092c-0.568,1.708,13.764,43.696-11.696,45.409c0,0.002-0.002,0.005-0.002,0.005s0-0.003,0-0.005
	c-25.459-1.714-11.126-43.702-11.696-45.41c-0.569-1.708-10.312-4.572-11.993-5.092c-1.682-0.52-4.378,4.238-2.847,4.935
	c1.53,0.697,4.377,2.007,4.733,2.861s-10.628,15.517-6.263,34.688C27.222,80.102,42.665,82.9,50.923,82.9
	c8.257,0,23.7-2.799,28.065-21.967C83.354,41.764,72.371,27.101,72.727,26.247z M26.771,44.907c0-1.16,0.94-2.1,2.1-2.1
	s2.1,0.94,2.1,2.1c0,1.159-0.94,2.1-2.1,2.1C27.711,47.006,26.771,46.066,26.771,44.907z M29.725,62.145
	c-1.159,0-2.1-0.94-2.1-2.102c0-1.158,0.94-2.1,2.1-2.1c1.16,0,2.1,0.939,2.1,2.1S30.884,62.145,29.725,62.145z M32.239,33.649
	c-1.16,0-2.1-0.94-2.1-2.099c0-1.16,0.94-2.1,2.1-2.1c1.16,0,2.1,0.94,2.1,2.1C34.338,32.708,33.398,33.649,32.239,33.649z
	 M38.288,73.662c-1.16,0-2.1-0.939-2.1-2.1c0-1.162,0.94-2.102,2.1-2.102c1.159,0,2.1,0.939,2.1,2.102
	C40.388,72.723,39.447,73.662,38.288,73.662z M50.924,78.633c0,0.01-0.002,0.018-0.002,0.028c0-0.011,0-0.021,0-0.028
	c-1.158,0-2.099-0.941-2.099-2.1c0-1.159,0.941-2.102,2.099-2.102c0-0.002,0-0.002,0-0.005c0,0.003,0.002,0.003,0.002,0.005
	c1.159,0,2.1,0.94,2.1,2.102C53.023,77.691,52.083,78.633,50.924,78.633z M63.559,73.662c-1.158,0-2.1-0.939-2.1-2.1
	c0-1.162,0.939-2.102,2.1-2.102c1.162,0,2.101,0.939,2.101,2.102C65.659,72.723,64.718,73.662,63.559,73.662z M67.508,31.55
	c0-1.16,0.94-2.1,2.102-2.1c1.158,0,2.101,0.94,2.101,2.1c0,1.159-0.94,2.099-2.101,2.099C68.448,33.649,67.508,32.708,67.508,31.55
	z M72.121,62.145c-1.159,0-2.1-0.94-2.1-2.102c0-1.158,0.938-2.1,2.1-2.1s2.1,0.939,2.1,2.1S73.281,62.145,72.121,62.145z
	 M72.977,47.006c-1.16,0-2.1-0.94-2.1-2.1c0-1.16,0.939-2.1,2.1-2.1c1.159,0,2.101,0.94,2.101,2.1
	C75.075,46.066,74.137,47.006,72.977,47.006z"/>
<g>
	<g>
		<g>
			<g>
				<path fill="#0062A6" d="M58.437,24.519c0.001,0.027,0.001,0.051-0.001,0.079l-4.395,60.996l-0.222,3.08
					c-0.021,0.271-0.217,0.496-0.483,0.554l-0.571,0.121c-0.399,0.086-0.767-0.236-0.738-0.642l0.202-2.726l4.433-60.1
					L58.437,24.519z"/>
				<path fill="#365E7E" d="M52.229,85.981l1.813-0.388l-0.222,3.08c-0.021,0.271-0.217,0.496-0.483,0.554l-0.571,0.121
					c-0.399,0.086-0.767-0.236-0.738-0.642L52.229,85.981z"/>
				<path fill="#B7EAFF" d="M82.474,23.654c-0.636,0.367-1.289,0.675-1.949,0.923L82.474,23.654z"/>
				<path fill="#B7EAFF" d="M86.04,20.629c-0.247,0.303-0.513,0.598-0.792,0.882c-0.761,0.775-1.641,1.471-2.631,2.057
					c-0.307-2.403-1.729-5.402-4.13-9.008c-2.692-4.049-6.022-7.586-8.218-8.524c0.457-0.356,0.947-0.684,1.464-0.983
					c0.885-0.512,1.803-0.907,2.731-1.191c4.651-1.416,9.602-0.034,12.302,3.604c0.225,0.299,0.433,0.617,0.624,0.947
					C89.619,12.273,88.931,17.085,86.04,20.629z"/>
				<path fill="#0072BF" d="M79.276,15.779L29.303,45.406c-0.315-0.307-0.603-0.617-0.828-0.917
					c-0.658-0.877-1.33-3.289-1.454-4.285L69.942,6.292c0.107-0.086,0.217-0.172,0.327-0.256c2.195,0.938,5.525,4.475,8.218,8.524
					C78.762,14.974,79.025,15.38,79.276,15.779z"/>
				<path fill="#EB9F2C" d="M64.652,35.483l-2.722,1.294l-1.512,0.717l-5.764,2.736l-2.021,0.962l-0.259,0.122
					c-0.693,0.33-1.523,0.034-1.851-0.66l-0.728-1.528l14.797-7.004l0.715,1.508C65.64,34.323,65.346,35.153,64.652,35.483z"/>
				<path fill="#365E7E" d="M85.78,23.583c-0.336,0.689-2.13,1.426-3.153,0.05c-0.002-0.021-0.005-0.042-0.01-0.064
					c-0.27-2.126-1.416-4.721-3.341-7.79c-0.251-0.399-0.515-0.805-0.789-1.219c-2.692-4.049-6.022-7.586-8.218-8.524
					c-0.031-0.015-0.063-0.029-0.094-0.041c-0.586-2.471,1.902-2.722,2.125-2.719c0.607,0.002,1.341,0.191,2.164,0.586
					c2.121,1.017,4.843,3.394,7.545,7.452c0.474,0.71,0.901,1.407,1.284,2.083c1.014,1.772,1.734,3.415,2.192,4.867
					c0.276,0.861,0.457,1.652,0.554,2.365C86.212,21.897,86.113,22.908,85.78,23.583z"/>
				<path fill="#365E7E" d="M31.295,48.735c-0.655-0.003-2.052-0.235-3.355-1.203c-0.304-0.225-0.601-0.488-0.88-0.796
					c-0.232-0.253-0.455-0.535-0.658-0.852c-0.373-0.578-0.646-1.174-0.834-1.752c-0.515-1.558-0.438-2.985-0.142-3.568
					c0.146-0.285,1.155-0.928,1.595-0.359c0.125,0.997,0.796,3.408,1.454,4.285c0.225,0.3,0.512,0.61,0.828,0.917
					c0.93,0.896,2.128,1.735,2.841,2.03c0.019,0.007,0.038,0.014,0.057,0.021C32.455,48.479,31.39,48.735,31.295,48.735z"/>
				<path fill="#FFB523" d="M27.06,46.735l-3.174,1.882c-0.045-0.05-0.086-0.105-0.125-0.163l-0.598-0.904
					c-0.466-0.706-0.272-1.655,0.435-2.121l1.969-1.298c0.188,0.578,0.461,1.174,0.834,1.752
					C26.605,46.2,26.828,46.482,27.06,46.735z"/>
				<path fill="#0062A6" d="M91.817,102.441h-0.5c-0.236,0-0.451-0.137-0.555-0.352l-1.435-3.055L60.419,37.494l1.512-0.717
					l29.248,62.258l1.191,2.536C92.559,101.976,92.265,102.441,91.817,102.441z"/>
				<path fill="#0062A6" d="M54.655,40.23c-0.004,0.027-0.01,0.05-0.017,0.077L37.587,99.035l-0.861,2.966
					c-0.077,0.262-0.316,0.44-0.588,0.44h-0.583c-0.409,0-0.701-0.393-0.588-0.782l0.768-2.624l16.901-57.843L54.655,40.23z"/>
				<path fill="#365E7E" d="M35.734,99.035h1.853l-0.861,2.966c-0.077,0.262-0.316,0.44-0.588,0.44h-0.583
					c-0.409,0-0.701-0.393-0.588-0.782L35.734,99.035z"/>
				<path fill="#365E7E" d="M91.817,102.441h-0.5c-0.236,0-0.451-0.137-0.555-0.352l-1.435-3.055h1.851l1.191,2.536
					C92.559,101.976,92.265,102.441,91.817,102.441z"/>
				<path fill="#E8F7FF" d="M84.976,10.698c-0.259,0.617-2.652-2.954-3.797-3.677c-1.136-0.717-3.756-1.865-3.497-2.481
					c0.257-0.617,3.146-0.473,4.783,0.538C84.497,6.334,85.233,10.082,84.976,10.698z"/>
				<path fill="#A7D5E8" d="M86.04,20.629c-0.097-0.713-2.471-6.371-2.746-7.232c1.73,2.503,3.918,1.971,4.307,0.445
					c0.574-2.255-0.174-4.569-0.834-6.376c0.225,0.299,0.433,0.617,0.624,0.947C89.619,12.273,88.931,17.085,86.04,20.629z"/>
				<path fill="#0062A6" d="M82.617,23.568c-0.047,0.031-0.096,0.058-0.144,0.086l-1.949,0.923c-0.003,0-15.93,7.543-15.93,7.543
					l-14.797,7.004l-17.597,8.332c-0.019-0.007-0.038-0.014-0.057-0.021c-0.713-0.294-1.911-1.133-2.841-2.03l49.974-29.627
					C81.201,18.847,82.348,21.442,82.617,23.568z"/>
				<path fill="#EB9F2C" d="M27.939,47.532l-2.057,1.356c-0.648,0.427-1.502,0.298-1.997-0.271l3.174-1.882
					C27.339,47.044,27.636,47.307,27.939,47.532z"/>
				<path fill="#19537E" d="M31.295,48.735c-0.655-0.003-2.052-0.235-3.355-1.203c-0.304-0.225-0.601-0.488-0.88-0.796l0.002-0.008
					c0.318-0.907,1.232-1.463,2.183-1.33l0.058,0.009c0.93,0.896,2.128,1.735,2.841,2.03c0.019,0.007,0.038,0.014,0.057,0.021
					C32.455,48.479,31.39,48.735,31.295,48.735z"/>
				<path fill="#19537E" d="M85.78,23.583c-0.336,0.689-2.13,1.426-3.153,0.05c-0.001-0.001-0.002-0.003-0.002-0.005
					c-0.256-2.137-1.405-4.751-3.349-7.849l0.139-0.318c0.651-1.496,2.242-2.351,3.849-2.069l0.03,0.005
					c1.014,1.772,1.734,3.415,2.192,4.867c0.276,0.861,0.457,1.652,0.554,2.365C86.212,21.897,86.113,22.908,85.78,23.583z"/>
			</g>
			<g>
				<path fill="#517F88" d="M32.337,94.022c-0.279,0.239-6.406,0.602-7.297,0.242c-0.284-0.115-0.404-0.389-0.437-0.708
					c-0.069-0.687,0.266-1.585,0.266-1.585s1.838-0.021,3.172,0c0.465,0.007,2.815,0.675,3.799,0.924
					c0.568,0.145,0.738,0.417,0.728,0.668C32.562,93.748,32.456,93.921,32.337,94.022z"/>
				<path fill="#0072BF" d="M22.756,65.675c0,0,3.81,8.046,4.59,12.221c0.646,3.462,1.241,13.544,1.067,13.939
					c-0.208,0.475-3.651,0.571-3.729,0.039c-0.208-1.416-1.994-9.08-2.819-11.572c-0.432-1.305-6.061-11.081-6.061-11.081
					C16.269,69.078,22.756,65.675,22.756,65.675z"/>
				<path fill="#2D5354" d="M20.407,50.044c-0.023-0.11-0.325-0.131-1.002-0.175c-2.394-0.158-2.238,0.193-2.238,0.193
					s1.131,0.29,1.132,0.29c0.003,0.001,0.006,0.001,0.009,0.001c0.124,0.023,1.271,0.223,1.851-0.072
					C20.331,50.194,20.421,50.112,20.407,50.044z"/>
				<path fill="#517F88" d="M18.152,96.423c-0.286,0.23-6.42,0.419-7.301,0.034c-0.28-0.122-0.393-0.399-0.416-0.72
					c-0.049-0.688,0.311-1.576,0.311-1.576s1.838,0.031,3.171,0.09c0.465,0.021,2.794,0.755,3.771,1.032
					c0.563,0.159,0.726,0.438,0.708,0.688C18.384,96.155,18.273,96.325,18.152,96.423z"/>
				<path fill="#89B1B9" d="M18.152,96.423c-0.286,0.23-6.42,0.419-7.301,0.034c-0.28-0.122-0.393-0.399-0.416-0.72
					c0.397,0.139,1.764,0.465,3.806,0.438c2.138-0.026,3.513-0.06,4.155-0.205C18.384,96.155,18.273,96.325,18.152,96.423z"/>
				
					<ellipse transform="matrix(0.8952 0.4456 -0.4456 0.8952 43.7961 3.5376)" fill="#89B1B9" cx="14.376" cy="94.896" rx="0.186" ry="0.196"/>
				
					<ellipse transform="matrix(0.8952 0.4456 -0.4456 0.8952 43.9737 3.1828)" fill="#89B1B9" cx="15.219" cy="95.097" rx="0.186" ry="0.195"/>
				
					<ellipse transform="matrix(0.8963 0.4435 -0.4435 0.8963 43.9241 2.7739)" fill="#89B1B9" cx="16.032" cy="95.282" rx="0.186" ry="0.196"/>
				<path fill="#F0CAAE" d="M17.472,44.207l0.002,6.637l2.466-0.109l-0.011-0.905c1.154-0.315,2.477-1.452,2.59-2.701
					c0.171-1.896-0.154-2.931-0.154-2.931L17.472,44.207z"/>
				<path fill="#0072BF" d="M23.816,64.925c0,0-8.813,28.792-9.071,29.407c-0.169,0.404-4.139,0.318-4.225-0.098
					c-0.181-0.878,4.389-29.499,4.389-29.499L23.816,64.925z"/>
				<path fill="#3A6D6E" d="M33.334,50.067c0.053,0.194-3.324,4.656-4.33,5.204c-1.375,0.747-4.991,1.488-5.071,1.205
					c-0.08-0.281-3.832-4.428-3.832-4.428s5.55,1.177,6.612,0.603c2.409-1.303,5.187-3.237,5.252-3.239
					C32.128,49.406,33.2,49.582,33.334,50.067z"/>
				<path fill="#356263" d="M24.032,60.112c0-4.091-0.577-8.565-2.911-8.801c-1.261-0.127-5.332-0.16-6.259,2.031
					c-0.643,1.521,0.297,6.425,0.078,8.085c-0.242,1.832-0.794,4.472-0.293,5.448c0.217,0.424,5.282,3.176,8.735-0.007
					C24.481,65.856,24.032,63.223,24.032,60.112z"/>
				<path fill="#491B02" d="M16.491,43.484c0.581-1.011,1.48-2.025,4.03-1.857c2.177,0.143,2.438,2.099,2.387,2.445
					c-0.107,0.732-0.632,1.241-1.311,1.309c-1.531,0.154-2.033,2.118-2.159,1.199c-0.08-0.586-1.295-1.087-1.045,0.501
					c0.111,0.703,0.151,0.734,0.714,0.654c0.292-0.042-0.467,1.133-0.841,1.121c-0.701-0.023-1.011-0.076-1.21-0.563
					C16.298,46.436,15.748,44.777,16.491,43.484z"/>
				<path fill="#3A6D6E" d="M20.533,51.141c0.079,0.197,0.136,0.579,0.071,0.758c-0.194,0.532-3.117,0.525-3.555-0.04
					c-0.196-0.253-0.121-1.45,0.117-1.835c0.108-0.175,0.547,0.43,1.758,0.43c1.25,0,1.497-0.341,1.482-0.409
					c0-0.001,0.137,0.25,0.137,0.542C20.544,50.866,20.455,50.945,20.533,51.141z"/>
				<g>
					<g>
						<path fill="#509091" d="M13.126,93.152l-0.258-0.052l0.17-0.839l0.258,0.052L13.126,93.152z M13.466,91.475l-0.258-0.052
							l0.17-0.838l0.258,0.051L13.466,91.475z M13.806,89.797l-0.258-0.051l0.17-0.839l0.258,0.051L13.806,89.797z M14.146,88.119
							l-0.258-0.051l0.17-0.838l0.258,0.05L14.146,88.119z M14.487,86.441l-0.258-0.05l0.17-0.839l0.258,0.051L14.487,86.441z
							 M14.827,84.765l-0.258-0.051l0.17-0.839l0.258,0.051L14.827,84.765z M15.167,83.087l-0.258-0.051l0.17-0.839l0.258,0.051
							L15.167,83.087z M15.507,81.41l-0.258-0.053l0.17-0.839l0.258,0.053L15.507,81.41z M15.848,79.732l-0.258-0.052l0.17-0.839
							l0.258,0.051L15.848,79.732z M16.188,78.054l-0.258-0.051l0.17-0.839l0.258,0.051L16.188,78.054z M16.528,76.376l-0.258-0.051
							l0.17-0.838l0.258,0.05L16.528,76.376z M16.868,74.698l-0.258-0.05l0.17-0.839l0.258,0.051L16.868,74.698z M17.208,73.021
							l-0.258-0.051l0.17-0.839l0.258,0.051L17.208,73.021z M17.549,71.344l-0.258-0.051l0.17-0.839l0.258,0.051L17.549,71.344z
							 M17.889,69.667l-0.258-0.052l0.17-0.839l0.258,0.052L17.889,69.667z"/>
					</g>
					<g>
						
							<rect x="12.653" y="93.961" transform="matrix(0.9812 0.1929 -0.1929 0.9812 18.4075 -0.6972)" fill="#509091" width="0.263" height="0.434"/>
					</g>
				</g>
				<path fill="#F0CAAE" d="M27.851,50.961c0,0-0.48-2.052,0.048-2.365c0,0,0.251,1.019,0.438,1.026
					c0.273,0.012,0.849-1.646,1.165-1.634c0.765,0.029,0.764,1.873,0.149,3.088c-0.35,0.692-0.774,1.195-0.806,1.145
					C28.813,52.17,27.851,50.961,27.851,50.961z"/>
				<path fill="#F0CAAE" d="M33.35,49.002c-0.093-0.416-0.18-0.814-0.806-0.978c-0.486-0.126-1.94,0.49-1.994,0.72
					c-0.071,0.299,0.227,1.008,0.488,1.135c0.125,0.06,1.926,0.685,2.321,0.217C33.434,50.008,33.409,49.269,33.35,49.002z"/>
				<path fill="#89B1B9" d="M32.337,94.022c-0.279,0.239-6.406,0.602-7.297,0.242c-0.284-0.115-0.404-0.389-0.437-0.708
					c0.401,0.127,1.776,0.414,3.817,0.33c2.137-0.087,3.51-0.159,4.148-0.323C32.562,93.748,32.456,93.921,32.337,94.022z"/>
				
					<ellipse transform="matrix(0.9086 0.4176 -0.4176 0.9086 41.2728 -3.449)" fill="#89B1B9" cx="28.519" cy="92.604" rx="0.186" ry="0.195"/>
				<path fill="#447E80" d="M27.676,50.678c-0.081,0.021-4.267,7.297-5.007,6.962c-0.726-0.328-1.016-0.979-2.047-2.013
					c-1.366-1.369-3.167-3.021-4.328-1.936c-1.368,1.278,0.446,3.107,2.31,5.101c1.358,1.453,3.672,4.057,5.472,3.416
					c0.885-0.315,4.966-9.34,5.002-9.883C29.101,51.974,28.175,50.546,27.676,50.678z"/>
				
					<ellipse transform="matrix(0.9089 0.4171 -0.4171 0.9089 41.3709 -3.794)" fill="#89B1B9" cx="29.368" cy="92.78" rx="0.186" ry="0.196"/>
				
					<ellipse transform="matrix(0.9079 0.4192 -0.4192 0.9079 41.7444 -4.0932)" fill="#89B1B9" cx="30.186" cy="92.942" rx="0.186" ry="0.195"/>
			</g>
		</g>
	</g>
</g>
</svg>
