<?xml version="1.0" encoding="utf-8"?>
<!-- Generator: Adobe Illustrator 16.0.0, SVG Export Plug-In . SVG Version: 6.00 Build 0)  -->
<!DOCTYPE svg PUBLIC "-//W3C//DTD SVG 1.1//EN" "http://www.w3.org/Graphics/SVG/1.1/DTD/svg11.dtd">
<svg version="1.1" id="Layer_1" xmlns="http://www.w3.org/2000/svg" xmlns:xlink="http://www.w3.org/1999/xlink" x="0px" y="0px"
	 width="153.016px" height="105.956px" viewBox="0 0 153.016 105.956" enable-background="new 0 0 153.016 105.956"
	 xml:space="preserve">
<g>
	<g opacity="0.5">
		<g>
			<defs>
				<rect id="SVGID_1_" x="0.001" y="94.172" width="153.014" height="11.783"/>
			</defs>
			<clipPath id="SVGID_2_">
				<use xlink:href="#SVGID_1_"  overflow="visible"/>
			</clipPath>
			<path clip-path="url(#SVGID_2_)" fill="#EED5D5" d="M150.792,97.84c-11.539-6.342-51.93-2.536-51.93-2.536
				c-2.883,0.388-5.369,0.771-7.496,1.15c0,0-11.69,1.861-17.315,1.068c-4.503-0.634-16.856-1.471-23.386,0.17
				c-2.177-0.516-5.192-1.048-9.213-1.589c0,0-30.915-2.913-39.749,1.941c-8.833,4.854,19.212,5.824,27.273,6.188
				c3.855,0.174,14.705-0.624,21.234-2.008c5.089,0.975,14.369,0.822,19.369,0.211c7.788-0.951,11.698,0.051,20.485,1.373
				c8.565,1.492,20.555,2.32,25.1,2.115C125.692,105.45,162.333,104.181,150.792,97.84"/>
		</g>
	</g>
	<polygon fill="#DEDBE8" points="126.036,28.37 117.829,34.556 110.885,35.818 110.885,38.343 121.071,37.533 130.454,32.663 
		128.687,27.411 	"/>
	<path fill="#D77087" d="M94.02,3.971c-8.496-0.738-19.176,4.212-21.712,12.105C69.743,8.191,56.703,3.359,48.209,4.126
		C25.796,6.151,18.255,33.355,27.792,51.622c5.132,9.832,12.498,18.424,20.531,26.136c6.728,6.458,24.074,20.15,24.127,20.104
		c0.053,0.047,17.35-13.705,24.055-20.188c8.007-7.74,15.343-16.356,20.441-26.207C126.419,33.167,116.439,5.917,94.02,3.971"/>
	<path fill="#5E67AF" d="M18.737,9.917c0,0-1.099,0.107-1.742,0.912c-0.643,0.804-2.679,4.452-2.656,7.283s-0.414,6.349,5.185,8.802
		c2.789,0.91,2.852-1.588,5.083-1.74c2.23-0.15,4.157,0.628,3.852-2.84c-0.306-3.467-2.494-4.25-3.708-8.12
		C23.537,10.343,21.626,8.779,18.737,9.917"/>
	<polygon fill="#5E67AF" points="17.933,10.14 12.971,11.818 9.227,12.362 9.282,13.987 12.937,14.5 16.865,13.727 	"/>
	<polygon fill="#5E67AF" points="22.564,9.702 26.183,11.013 29.219,9.939 29.689,10.956 26.827,13.032 23.961,13.227 	"/>
	<path fill="#343B86" d="M21.644,2.729c0,0,2.266,1.493,2.06,3.748c0,0,1.485-1.191,0.848-2.85
		c-0.636-1.659-1.061-2.312-2.631-1.962C20.35,2.016,21.644,2.729,21.644,2.729"/>
	<path fill="#EACEB1" d="M23.68,5.221c-0.275-3.36-4.444-3.224-5.904-0.682c-0.831,1.446-0.987,4.427,0.847,5.123
		c-0.002,0.294-0.022,0.845,0.18,1.063c0.219,0.237,0.999,0.116,1.304,0.078c0.085-0.01,0.173-0.025,0.239-0.078
		c0.083-0.068,0.117-0.267,0.142-0.49c0.22,0.008,0.448-0.011,0.684-0.062c0.989-0.213,1.775-1.026,2.163-1.962
		C23.723,7.276,23.763,6.231,23.68,5.221"/>
	<path fill="#343B86" d="M22.174,3.614c-1.168,1.225-3.02,1.304-4.132,2.494c0,0-0.727,0.778-0.54,2.632
		c0,0-1.942,0.082-2.793-1.853c-0.852-1.935,1.108-5.749,1.108-5.749s2.298-1.671,5.312-0.963c1.023,0.241,1.944,1.011,1.721,2.176
		C22.753,2.849,22.507,3.265,22.174,3.614"/>
	<path fill="#DEDBE8" d="M17.892,10.182c0,0-0.229,1.699,0.671,1.891c0.9,0.192,2.975-0.186,3.333-0.498
		c0.495-0.431,0.001-1.681,0.001-1.681l0.668-0.192c0,0,3.088,6.306,0.601,7.253c-2.488,0.947-5.637,1.215-6.152-0.777
		s0.221-5.724,0.221-5.724L17.892,10.182z"/>
	<polygon fill="#EACEB1" points="9.232,12.538 7.399,12.106 7.316,12.492 8.566,13.565 8.254,13.768 8.483,13.952 9.274,13.749 	"/>
	<polygon fill="#EACEB1" points="29.263,10.07 29.735,9.486 30.662,9.55 30.911,10.275 30.489,10.993 29.687,10.905 	"/>
	<polygon fill="#BABCBE" points="36.613,52.087 37.071,71.622 33.688,96.858 30.857,96.891 28.793,73.667 24.644,50.468 	"/>
	<polygon fill="#2A2A49" points="30.87,96.554 30.888,98.085 33.967,99.58 35.479,98.03 33.931,96.518 	"/>
	<polygon fill="#2A2A49" points="21.235,97.292 23.669,99.361 23.062,100.578 18.558,99.605 18.558,97.292 	"/>
	<polygon fill="#BABCBE" points="26.796,59.772 24.773,78.707 22.103,97.582 18.295,97.401 18.434,77.821 16.142,59.66 
		21.525,57.152 	"/>
	<path fill="#343B86" d="M29.041,24.96c0,0,4.702,3.11,7.691,13.193c3.043,10.27,2.594,23.854,2.594,23.854
		s-26.747,4.527-26.193,0.072c0,0-0.884-35.983,10.984-36.867C24.657,25.172,28.75,24.736,29.041,24.96"/>
	<path fill="#FFFFFF" d="M27.668,24.875c2.018,4.92,3.767,10.655,5.84,15.552c1.229,2.902,1.242,5.934,1.417,9.023
		c0.174,3.072,0.348,6.146,0.523,9.218c0.073,1.298,0.147,2.597,0.221,3.895L24.49,63.737c0.644-3.723,1.38-7.429,1.955-11.163
		c0.53-3.442,1.343-7.309,0.71-10.78c-0.308-1.69-0.642-3.378-0.958-5.068c-0.581-3.099-0.841-6.271-1.449-9.366
		c-0.042-0.216,0.194-2.031,0.263-2.248L27.668,24.875z"/>
	<polygon fill="#343B86" points="29.003,24.875 31.309,25.482 41.016,33.976 39.56,38.587 34.827,38.587 	"/>
	<polygon fill="#2A2A49" points="137.052,96.386 137.175,97.598 134.976,99.11 133.692,98.047 134.731,96.685 136.929,95.174 	"/>
	<polygon fill="#E0C0A4" points="136.997,59.325 137.369,63.005 134.071,75.655 137.134,95.98 134.88,96.757 128.937,76.914 
		127.994,71.142 128.028,58.92 	"/>
	<polygon fill="#E0C0A4" points="119.663,63.427 124.403,97.486 126.558,97.486 126.946,75.655 130.868,60.332 	"/>
	<polygon fill="#2A2A49" points="126.546,97.216 126.546,98.439 124.216,99.664 123.052,98.439 124.216,97.216 	"/>
	<path fill="#5E67AF" d="M136.878,55.232c-1.84-12.094-1.184-20.901-1.279-23.319c-0.095-2.419-1.792-3.674-1.793-3.674
		c-0.744-0.166-1.393-0.646-2.145-0.835c-5.09-1.28-7.864,2.605-9.77,6.796c-2.347,5.163-4.318,10.498-5.912,15.94
		c-1.398,4.776-2.801,9.597-3.388,14.554c-0.241,2.046-0.444,3.984,1.795,4.888c3.569,1.438,7.579,1.406,11.349,1.867
		c4.33,0.53,8.664,0.917,13.023,1.098C141.034,72.642,138.718,67.326,136.878,55.232"/>
	<path fill="#EACEB1" d="M24.768,25.763l0.007,0.581l-3.048,7.157l-1.348-0.446l0.789-6.966l2.097-1.189
		C23.931,24.521,24.759,24.998,24.768,25.763"/>
	<polygon fill="#2A2A49" points="21.904,33.419 22.632,34.729 22.063,35.058 20.283,33.871 20.401,32.921 	"/>
	<path fill="#E0C5A9" d="M30.573,23.5l0.35,0.464l1.794,7.569l-1.348,0.44l-3.5-6.074l0.982-2.203
		C29.162,22.998,30.111,22.888,30.573,23.5"/>
	<polygon fill="#2A2A49" points="32.812,31.488 34.175,32.11 33.913,32.712 31.775,32.814 31.307,31.98 	"/>
	<path fill="#EACEB1" d="M27.858,26.158c-0.871-0.141-1.742-0.28-2.614-0.421c0.034-0.703,0.125-1.403,0.27-2.091
		c-0.714-0.303-1.535-0.738-1.616-1.51c-0.026-0.244,0.031-0.486,0.087-0.725c0.232-0.982,0.464-1.966,0.696-2.949
		c0.081-0.341,0.165-0.69,0.37-0.974c0.36-0.496,1.01-0.684,1.619-0.752c1.555-0.173,3.211,0.262,4.343,1.342
		c0.301,0.288,0.569,0.628,0.685,1.028c0.179,0.615-0.023,1.271-0.223,1.882c-0.185,0.563-0.37,1.126-0.555,1.688
		c-0.213,0.647-0.508,1.381-1.157,1.588c-0.344,0.111-0.74,0.049-1.056,0.225C28.149,24.798,28.172,25.603,27.858,26.158"/>
	<path fill="#2A2A49" d="M37.04,16.757c0.059-0.68,0.006-1.375-0.091-2.005c-0.168-1.082-1.397-1.64-2.483-1.784
		c-2.344-0.31-4.55-1.518-6.901-0.837c-1.344,0.389-3.116,0.392-4.347,0.983c-0.514,0.246-0.937,0.654-1.275,1.113
		c-1.172,1.589-1.316,3.87-0.354,5.594c0.215,0.388,0.48,0.746,0.76,1.089c0.579,0.711,1.271,1.587,2.109,1.888
		c0.067-0.762-0.482-3.212,0.142-3.802c0.991-0.937,3.074-0.464,4.214-0.148c1.243,0.343,2.311,1.304,3.548,1.57
		c0.89,0.19,2.063-0.179,2.855-0.597C36.458,19.167,36.933,17.986,37.04,16.757"/>
	<polygon fill="#343B86" points="21.213,26.097 7.325,34.681 10.229,39.354 18.814,35.314 	"/>
	<polygon fill="#343B86" points="16.755,22.496 7.305,34.685 10.229,39.384 13.512,37.839 18.862,24.024 	"/>
	<polygon fill="#EACEB1" points="17.172,22.798 18.436,21.172 21.466,20.667 21.971,21.93 20.456,23.193 18.538,23.79 	"/>
	<path fill="#D77087" d="M15.391,80.614c0,0,0.896,0.755,1.519-0.712s1.273-1.257,1.633-0.739c0.361,0.519-0.412,0.483-0.825,1.634
		c-0.657,1.836-1.535,3.242-1.851,3.436c-0.316,0.192-1.277,0.659-1.297,1.384c-0.019,0.725-0.934-2.191-0.846-2.331
		C13.812,83.144,15.391,80.614,15.391,80.614"/>
	<path fill="#EED5D5" d="M15.818,82.75c0,0,0.599,1.007,1.669-0.175c1.069-1.183,1.614-0.771,1.785-0.163
		c0.17,0.608-0.548,0.321-1.315,1.273c-1.223,1.52-2.513,2.56-2.875,2.639c-0.362,0.079-1.423,0.204-1.679,0.883
		c-0.256,0.678-0.164-2.376-0.035-2.48C13.496,84.624,15.818,82.75,15.818,82.75"/>
	<path fill="#D77087" d="M8.475,89.324c0,0,1.208,3.352,0.617,4.267c-0.591,0.914-2.223,3.943-1.976,4.457
		c0.248,0.513,0.12,0.745-0.318,0.58s-1.045-0.573-0.794-1.719c0.251-1.146,0.755-2.479,0.377-3.441
		c-0.378-0.962,0.466-3.797,0.466-3.797L8.475,89.324z"/>
	<path fill="#EED5D5" d="M9.696,77.429c0,0-1.247-0.193-1.159,1.229c0.089,1.423-1.262,3.9-3.483,5.737
		c-2.171,1.795-4.202,4.578-1.686,7.725c2.517,3.147,7.293-0.122,8.32-1.923c1.026-1.801,3.889-2.945,4.476-5.605
		c0.587-2.661-0.898-3.882-0.969-4.707C15.125,79.06,9.696,77.429,9.696,77.429"/>
	<path fill="#EED5D5" d="M8.518,91.921c0,0,0.643,1.716-0.649,2.936c-1.291,1.221-2.48,1.773-2.945,2.662
		c-0.465,0.887,0.553,1.188-0.222,1.187s-1.295-0.12-1.226-1.082c0.069-0.961,1.643-1.797,1.429-3.144
		c-0.213-1.347-1.25-1.622-1.371-2.615s2.945-2.661,2.945-2.661l2.226,2.786L8.518,91.921z"/>
	<path fill="#D77087" d="M2.7,90.587c-0.191,0.087-1.192,0.566-2.049-0.355c-0.856-0.921-0.902-2.235,0.064-3.043
		c0.967-0.809,1.697,0.067,1.609,0.365c-0.087,0.3-1.128,1.448-0.052,2.347C2.792,90.232,2.7,90.587,2.7,90.587"/>
	<path fill="#3B3487" d="M15.481,79.356l-0.34,0.435c0,0-1.923,1.188-4.952-0.905c-1.282-1.19-1.042-1.502-1.042-1.502l0.56-0.013
		C9.708,77.371,11.449,80.222,15.481,79.356"/>
	<path fill="#D77087" d="M11.695,72.533c0,0,0.131-0.37,0.72-0.528c0.59-0.159,1.729,0.59,1.966,0.616
		c0.238,0.024,0.796,0.024,0.315,0.354C14.216,73.304,12.101,73.071,11.695,72.533"/>
	<path fill="#EED5D5" d="M9.969,74.329c0,0,0.624-1.521,2.01-1.873c0.819-0.207,1.639-0.044,2.384,0.329
		c0.379,0.19,0.706,0.452,1.069,0.663c0.242,0.141,0.506,0.166,0.747,0.324c0.569,0.375,0.999,1.197,0.982,1.878
		c-0.018,0.682,1.168,2.378-0.858,3.363c-2.026,0.983-5.176,0.39-6.052-0.572C9.374,77.479,8.557,76.487,9.969,74.329"/>
	<path fill="#D77087" d="M10.355,74.401c0,0-0.73-0.229-1.197,0.165c-0.466,0.393-0.911,0.401-0.752,0.991
		c0.159,0.589,0.423,2.095,1.243,2.376c0.819,0.282,0.354-0.896,0.611-1.403C10.518,76.022,10.786,74.487,10.355,74.401"/>
	<polygon fill="#BABCBE" points="108.892,83.99 108.892,98.06 111.016,98.06 112.343,89.565 113.538,83.061 	"/>
	<polygon fill="#BABCBE" points="113.537,82.53 114.333,88.636 115.396,98.458 117.519,98.325 117.519,90.76 118.581,83.061 	"/>
	<path fill="#3B3487" d="M112.542,62.022c0,0-2.258-0.397-3.187,3.054s-3.45,13.539-3.583,18.848
		c-0.133,5.311,3.318,1.859,7.434,2.522c4.113,0.664,7.498,0.729,7.498-1.659C120.704,82.397,122.165,62.088,112.542,62.022"/>
	<path fill="#EACEB1" d="M111.246,55.164c1.88-3.314,6.091-1.195,6.38,2.107c0.163,1.878-1.094,5.009-3.306,4.85
		c-0.138,0.304-0.379,0.878-0.69,1.006c-0.336,0.139-1.08-0.356-1.373-0.541c-0.082-0.05-0.166-0.107-0.209-0.193
		c-0.053-0.108,0.008-0.33,0.088-0.57c-0.229-0.096-0.455-0.224-0.672-0.388c-0.912-0.689-1.332-1.897-1.285-3.041
		S110.681,56.159,111.246,55.164"/>
	<path fill="#343B86" d="M113.87,54.302c0,0,3.006,0.752,3.006,2.004c0,1.885,0.127,3.148,0,4.269l2.131-1.261l1.254-3.508
		c0,0-0.252-2.883-1.756-3.385c-1.502-0.501-4.635-1.002-4.635-1.002l-2.382,0.752l-1.754-0.125l0.606,5.262
		C110.341,57.308,111.112,53.55,113.87,54.302"/>
	<polygon fill="#2A2A49" points="108.892,98.06 107.696,99.255 108.228,100.051 110.617,99.255 110.617,98.06 	"/>
	<polygon fill="#2A2A49" points="115.749,98.436 116.191,100.184 117.652,100.715 118.448,100.316 117.212,98.345 	"/>
	<polygon fill="#3B3487" points="114.515,62.36 116.733,63.098 120.981,68.438 125.228,71.107 124.378,72.806 118.554,71.107 	"/>
	<polygon fill="#3B3487" points="112.122,62.006 109.696,62.371 104.6,65.889 100.11,63.583 98.896,65.162 104.356,69.529 
		110.667,67.224 	"/>
	<polygon fill="#DEDBE8" points="135.632,34.789 123.89,43.52 110.657,42.789 110.733,40.116 122.052,38.85 130.988,31.186 
		135.772,29.714 	"/>
	<polygon fill="#EACEB1" points="110.751,40.18 107.772,40.099 106.331,41.57 106.736,42.369 108.421,42.681 110.679,42.042 	"/>
	<path fill="#2A2A49" d="M129.269,18.082c0,0-1.34,0.635-1.648,4.119c-0.31,3.484-1.172,5.607-1.172,5.607s1.023,0.812,1.992,0.496
		c0.969-0.316,1.309-0.344,1.333-1.785c0.024-1.44,1.011-8.096,1.011-8.096L129.269,18.082z"/>
	<path fill="#2A2A49" d="M131.749,19.902c-1.359,0.033-2.655,0.964-3.121,2.244c-0.535-0.822-0.643-1.908-0.279-2.82
		c0.361-0.912,1.186-1.626,2.139-1.856c0.684,0.615,1.112,1.511,1.162,2.431L131.749,19.902z"/>
	<path fill="#EACEB1" d="M128.735,20.966c1.521-3.315,5.713-1.636,6.258,1.49c0.31,1.778-0.633,4.869-2.756,4.898
		c-0.107,0.3-0.291,0.867-0.578,1.015c-0.309,0.16-1.059-0.252-1.354-0.403c-0.082-0.041-0.167-0.088-0.215-0.168
		c-0.06-0.1-0.021-0.315,0.037-0.551c-0.226-0.074-0.451-0.177-0.672-0.316c-0.927-0.582-1.427-1.699-1.476-2.795
		S128.278,21.962,128.735,20.966"/>
	<path fill="#2A2A49" d="M130.573,17.481c0,0-0.889,1.782,1.393,2.905s3.378,3.399,2.467,5.287c-0.911,1.89-3.059,2.914-2.244,3.672
		c0.813,0.759,4.402,1.095,4.402,1.095s3.842-6.503,1.767-10.246S132.22,15.33,130.573,17.481"/>
	<path fill="#EED5D5" d="M120.146,65.3c-2.277-0.979-5.675-0.589-7.096,1.357c0.013-2.41-3.145-4.935-5.559-5.498
		c-6.367-1.488-10.933,5.329-9.97,11.24c0.519,3.181,1.765,6.224,3.276,9.086c1.268,2.396,4.803,7.758,4.822,7.75
		c0.01,0.017,6.038-2.197,8.48-3.373c2.915-1.404,5.727-3.112,8.033-5.364C126.419,76.315,126.153,67.885,120.146,65.3"/>
	<polygon fill="#EACEB1" points="100.31,63.377 99.261,63.341 98.653,64.918 98.896,65.258 99.261,64.756 100.596,64.918 
		101.081,63.827 	"/>
	<polygon fill="#EACEB1" points="125.592,72.563 125.045,73.21 125.026,72.664 123.771,71.956 123.893,70.622 125.592,70.986 	"/>
</g>
</svg>
