<?xml version="1.0" encoding="utf-8"?>
<!-- Generator: Adobe Illustrator 16.0.0, SVG Export Plug-In . SVG Version: 6.00 Build 0)  -->
<!DOCTYPE svg PUBLIC "-//W3C//DTD SVG 1.1//EN" "http://www.w3.org/Graphics/SVG/1.1/DTD/svg11.dtd">
<svg version="1.1" id="Layer_1" xmlns="http://www.w3.org/2000/svg" xmlns:xlink="http://www.w3.org/1999/xlink" x="0px" y="0px"
	 width="144.438px" height="102.838px" viewBox="0 0 144.438 102.838" enable-background="new 0 0 144.438 102.838"
	 xml:space="preserve">
<g opacity="0.12">
	<g>
		<defs>
			<rect id="SVGID_1_" x="0.719" y="95.007" width="139.722" height="7.831"/>
		</defs>
		<clipPath id="SVGID_2_">
			<use xlink:href="#SVGID_1_"  overflow="visible"/>
		</clipPath>
		<path clip-path="url(#SVGID_2_)" fill="#010101" d="M116.524,96.085c6.87,0.061,13.735,0.084,20.588,0.052
			c0.737-0.003,1.497-0.002,2.179,0.353c1.882,0.983,1.271,3.037-0.507,3.695c-3.709,1.371-8.797,1.23-12.729,1.56
			c-4.794,0.402-9.603,0.622-14.412,0.743c-9.484,0.24-18.975,0.092-28.462,0.187c-10.99,0.109-21.979,0.182-32.971,0.098
			c-10.701-0.081-22.074,0.616-32.642-1.201c-2.648-0.456-5.266-1.099-7.935-1.427c-2.522-0.31-5.065-0.167-7.587-0.499
			c-1.377-0.182-1.837-1.438-0.643-2.296c1.347-0.967,3.707-0.424,5.261-0.444c2.665-0.035,5.337-0.23,7.999-0.346
			c11.807-0.512,23.54-1.734,35.342-1.529c12.244,0.212,24.488,0.424,36.732,0.637C96.665,95.838,106.6,96,116.524,96.085"/>
	</g>
</g>
<path fill="#EAC5B1" d="M68.162,81.71l0.097,5.82c-0.039,1.615,0.105,3.224,0.204,4.834c0.092,1.495-0.21,3.036,0.499,4.421
	c0.223,0.436,0.695,0.737,1.056,0.235c0.278-0.386,0.149-1.056,0.219-1.504c0.515-3.374,1.474-6.665,1.952-10.045
	C72.689,81.931,71.319,82.025,68.162,81.71"/>
<polygon fill="#2A2A49" points="68.493,95.792 68.119,96.762 69.959,98.383 71.647,98.452 72.192,97.562 69.923,95.59 "/>
<path fill="#EAC5B1" d="M64.04,81.767l-1.063,5.724c-0.368,2.561-1.204,5.054-1.572,7.613c-0.084,0.59-0.042,1.233-0.287,1.788
	c-0.242,0.544-0.713,0.565-1.129,0.196c-0.557-0.493-0.3-1.376-0.289-2.05c0.068-4.493-0.285-8.923-0.371-13.423
	c0-0.06,0.002-0.127,0.047-0.164c0.039-0.031,0.09-0.03,0.139-0.027C59.952,81.454,64.016,81.891,64.04,81.767"/>
<polygon fill="#2A2A49" points="59.686,96.03 59.102,96.891 60.531,98.886 62.159,99.334 62.891,98.59 61.125,96.157 "/>
<polygon fill="#2A2A49" points="74.161,85.414 73.367,77.093 72.983,71.687 71.697,67.272 64.745,66.193 56.149,67.666 
	55.737,69.335 57.39,84.792 65.68,85.414 65.567,75.793 66.846,81.757 66.792,85.414 "/>
<path fill="#FFFFFF" d="M57.973,51.014c-0.012,0.281-0.019,0.562-0.023,0.843c-0.102,5.707,0.214,11.487,0.25,17.241
	c2.947-0.461,5.927-0.715,8.91-0.76c0.689-0.011,3.829,0.474,4.266,0.062c0.594-0.56-0.059-0.453-0.016-1.183
	c0.057-0.943-0.397-1.715-0.226-2.833c0.201-1.313,0.602-2.612,0.831-3.925c0.463-2.634,0.741-5.298,0.831-7.97
	c0.08-2.369-0.006-4.827-1.024-6.969c-2.514-5.279-10.615-5.184-12.838,0.328C58.276,47.482,58.047,49.25,57.973,51.014"/>
<path fill="#2A2A49" d="M67.104,34.273c0.347,0.607,0.514,1.306,0.545,2.005c0.008,0.185,0.021,0.399,0.171,0.509
	c0.161,0.118,0.02,0.375,0.142,0.219c0.122-0.158,0.537-0.703,0.556-0.9c0.044-0.465,0.043-0.932-0.002-1.396
	c-0.039-0.404-0.122-0.826-0.386-1.133c-0.156-0.184-0.365-0.311-0.571-0.436c-0.298-0.18-0.605-0.361-0.948-0.426
	c-0.59-0.109-0.953,0.103-0.432,0.514C66.551,33.523,66.868,33.857,67.104,34.273"/>
<path fill="#EAC5B1" d="M63.415,42.194c0.004,0.286-0.056,0.582,0.197,0.804c0.121,0.106,0.285,0.149,0.444,0.174
	c0.411,0.066,0.839,0.035,1.237-0.086c0.164-0.052,0.328-0.121,0.451-0.238c0.146-0.142,0.153-0.274,0.16-0.459
	c0.01-0.215,0.053-0.434,0.08-0.652c0.063-0.477,0.09-0.959,0.104-1.439c0.708-0.123,1.541-0.352,1.782-1.093
	c0.076-0.233,0.079-0.487,0.08-0.735c0.009-1.027,0.016-2.055,0.023-3.082c0.002-0.355,0.003-0.722-0.118-1.051
	c-0.214-0.578-0.756-0.924-1.288-1.141c-1.356-0.553-2.938-0.531-4.192,0.256c-0.334,0.21-0.647,0.479-0.84,0.846
	c-0.296,0.564-0.259,1.26-0.213,1.911c0.042,0.601,0.085,1.202,0.127,1.804c0.049,0.69,0.153,1.486,0.69,1.852
	c0.284,0.193,0.653,0.229,0.897,0.48c0.43,0.438,0.226,1.092,0.353,1.623C63.407,42.04,63.413,42.117,63.415,42.194"/>
<path fill="#2A2A49" d="M68.201,38.058c-0.012-0.19-0.095-0.748-0.381-0.397c-0.075,0.092-0.095,0.221-0.099,0.343
	c-0.005,0.123,0.001,0.248-0.038,0.363c-0.088,0.264-0.38,0.384-0.641,0.38c-0.103-0.002-0.208-0.019-0.3-0.071
	c-0.089-0.051-0.159-0.131-0.229-0.21c-0.167-0.192-0.334-0.383-0.5-0.575c-0.287-0.33-0.857-0.187-1.244-0.137
	c-0.445,0.059-0.892,0.193-1.256,0.486c-0.037,0.029-0.072,0.061-0.108,0.092c-0.089,0.076-0.177,0.15-0.278,0.201
	c-0.344,0.167-0.771-0.008-1.012-0.321c-0.111-0.144-0.215-0.329-0.385-0.353c-0.135-0.02-0.267,0.078-0.336,0.203
	c-0.068,0.125-0.086,0.275-0.096,0.422c-0.033,0.529,0.039,1.076,0.27,1.548c0.498,1.021,1.463,1.146,2.431,1.123
	c0.383-0.009,0.767-0.019,1.149-0.027c0.701-0.017,1.44-0.046,2.03-0.453c0.521-0.358,0.829-0.97,0.956-1.608
	C68.201,38.736,68.22,38.394,68.201,38.058 M65.639,39.504c-0.369,0.248-0.775,0.261-1.187,0.138
	c-0.175-0.053-0.101-0.346,0.073-0.293c0.342,0.103,0.662,0.1,0.97-0.106C65.651,39.138,65.792,39.402,65.639,39.504"/>
<path fill="#2A2A49" d="M68.346,32.493c0.068-0.249,0.118-0.503,0.149-0.759c-0.237,0.084-0.495,0.105-0.742,0.064
	c-0.001-0.148-0.001-0.296-0.002-0.443c-0.001-0.123-1.663-0.209-1.798-0.221c-1.264-0.104-2.42-0.201-3.563,0.477
	c-0.977,0.58-1.603,1.445-1.752,2.572c-0.144,1.076,0.209,2.48,0.83,3.373c-0.003-0.285-0.168-0.961-0.101-1.233
	c0.042-0.272,0.136-0.536,0.266-0.779c0.261-0.485,0.662-0.893,1.128-1.185c0.74-0.465,1.602-0.709,2.461-0.829
	c0.789-0.11,1.749-0.211,2.528-0.003c0.374,0.101,0.437,0.195,0.663-0.184c0.04-0.066,0.357-0.845,0.326-0.845
	C68.61,32.497,68.477,32.495,68.346,32.493"/>
<path fill="#FACD46" d="M48.124,18.311c-1.235-8.79,4.889-16.917,13.678-18.152c8.79-1.236,16.917,4.888,18.152,13.678
	c1.236,8.789-4.888,16.916-13.678,18.152C57.487,33.224,49.36,27.101,48.124,18.311"/>
<g opacity="0.08">
	<g>
		<defs>
			<rect id="SVGID_3_" x="51.831" y="1.319" width="28.279" height="30.81"/>
		</defs>
		<clipPath id="SVGID_4_">
			<use xlink:href="#SVGID_3_"  overflow="visible"/>
		</clipPath>
		<path clip-path="url(#SVGID_4_)" fill="#010101" d="M70.457,1.319c1.933,2.252,3.265,5.064,3.709,8.221
			c1.234,8.789-4.889,16.916-13.679,18.152c-3.053,0.429-6.024-0.03-8.656-1.181c3.449,4.019,8.81,6.249,14.442,5.457
			c8.79-1.235,14.914-9.362,13.679-18.152C79.145,8.081,75.402,3.48,70.457,1.319"/>
	</g>
</g>
<g opacity="0.2">
	<g>
		<defs>
			<rect id="SVGID_5_" x="49.045" y="1.197" width="26.7" height="25.577"/>
		</defs>
		<clipPath id="SVGID_6_">
			<use xlink:href="#SVGID_5_"  overflow="visible"/>
		</clipPath>
		<path clip-path="url(#SVGID_6_)" fill="#FFFFFF" d="M50.523,19.685c-1.147-8.161,4.538-15.706,12.699-16.853
			c4.771-0.671,9.329,0.994,12.524,4.122c-3.175-4.071-8.376-6.381-13.855-5.61c-8.16,1.147-13.846,8.692-12.699,16.853
			c0.478,3.39,2.059,6.353,4.33,8.577C51.968,24.782,50.9,22.368,50.523,19.685"/>
	</g>
</g>
<path fill="#2A2A49" d="M57.733,20.281c0.861,3.344,4.113,5.578,7.613,5.088c3.499-0.492,6.01-3.539,5.915-6.989L57.733,20.281z"/>
<path fill="#D77087" d="M60.412,24.166c1.382,0.98,3.124,1.457,4.935,1.203c1.731-0.244,3.221-1.113,4.271-2.348l-0.083-0.138
	C64.68,21.307,60.469,24.126,60.412,24.166"/>
<path fill="#2A2A49" d="M67.624,12.894c0.292-1.189,1.266-2.068,2.478-2.238c1.187-0.167,2.352,0.389,2.968,1.417
	c0.118,0.197,0.082,0.443-0.088,0.598c-0.17,0.156-0.419,0.17-0.604,0.034c-1.003-0.732-2.496-1.223-3.909,0.597
	c-0.079,0.103-0.191,0.166-0.312,0.183c-0.092,0.012-0.187-0.002-0.276-0.045C67.673,13.341,67.569,13.116,67.624,12.894"/>
<path fill="#2A2A49" d="M53.951,14.816c0.292-1.188,1.265-2.068,2.477-2.238c1.187-0.167,2.353,0.39,2.968,1.417
	c0.119,0.197,0.082,0.443-0.088,0.598c-0.17,0.156-0.418,0.17-0.604,0.034c-1.004-0.732-2.496-1.223-3.909,0.597
	c-0.08,0.103-0.192,0.166-0.312,0.183c-0.092,0.012-0.188-0.002-0.276-0.045C54,15.263,53.895,15.038,53.951,14.816"/>
<path fill="#D77087" d="M58.374,19.462c0.215,1.535-0.854,2.953-2.389,3.169s-2.953-0.853-3.169-2.388
	c-0.216-1.535,0.853-2.954,2.388-3.169C56.738,16.858,58.157,17.927,58.374,19.462"/>
<path fill="#D77087" d="M77.756,16.59c0.216,1.535-0.854,2.953-2.389,3.169c-1.534,0.216-2.952-0.853-3.169-2.388
	c-0.216-1.534,0.854-2.953,2.389-3.169C76.122,13.986,77.541,15.055,77.756,16.59"/>
<path fill="#EAC5B1" d="M53.235,25.431c0.024,0.039,0.049,0.08,0.059,0.123c0.105,0.399-0.078,0.672-0.088,1.082
	c-0.004,0.185,0.389,0.449,0.062,0.651c-0.12,0.074-0.44,0.216-0.699,0.371c-0.377,0.228-0.716,0.745-0.909,1.205
	c-0.348,0.829-0.592,1.694-0.77,2.576c-0.157,0.782-0.531,1.983-0.391,2.774c0.127,0.715,1.08,1.612,1.508,2.222
	c0.537,0.767,1.064,1.542,1.58,2.323c0.363,0.552,0.727,1.121,0.875,1.764c0.09,0.389,0.087,0.832-0.156,1.148
	c-0.158,0.205-0.395,0.33-0.623,0.448c-0.404,0.21-0.841,0.427-1.294,0.372c-0.558-0.068-0.978-0.525-1.331-0.962
	c-0.797-0.983-1.535-2.022-2.117-3.149c-0.41-0.797-1.185-2.205-1.003-3.113c0.414-2.07,1.009-4.092,1.647-6.113
	c0.177-0.555,0.621-0.948,0.779-1.463c0.101-0.329-0.057-0.659-0.031-0.99c0.026-0.328,0.145-0.751,0.289-1.046
	c0.287-0.581,0.944-0.698,1.51-0.856c0.141-0.041,0.236-0.067,0.369-0.039c0.219,0.047,0.358,0.211,0.504,0.369
	C53.09,25.222,53.168,25.324,53.235,25.431"/>
<path fill="#EAC5B1" d="M75.866,24.708c-0.023,0.039-0.048,0.08-0.059,0.123c-0.105,0.399,0.079,0.671,0.088,1.082
	c0.004,0.184-0.388,0.449-0.062,0.651c0.12,0.073,0.441,0.215,0.699,0.37c0.377,0.229,0.716,0.746,0.91,1.205
	c0.347,0.83,0.591,1.695,0.769,2.576c0.157,0.782,0.531,1.984,0.391,2.774c-0.127,0.715-1.079,1.612-1.507,2.222
	c-0.538,0.768-1.065,1.543-1.58,2.324c-0.363,0.551-0.728,1.12-0.875,1.764c-0.09,0.389-0.087,0.832,0.156,1.147
	c0.157,0.205,0.394,0.33,0.622,0.448c0.405,0.211,0.843,0.428,1.295,0.373c0.558-0.069,0.977-0.525,1.33-0.963
	c0.798-0.982,1.535-2.022,2.117-3.149c0.411-0.796,1.186-2.204,1.003-3.112c-0.414-2.07-1.009-4.093-1.647-6.113
	c-0.176-0.556-0.621-0.948-0.779-1.463c-0.1-0.33,0.057-0.66,0.031-0.99c-0.026-0.328-0.145-0.752-0.289-1.045
	c-0.286-0.582-0.944-0.699-1.509-0.858c-0.142-0.04-0.236-0.067-0.37-0.038c-0.218,0.047-0.358,0.211-0.503,0.369
	C76.011,24.5,75.932,24.601,75.866,24.708"/>
<path fill="#5E67AF" d="M63.764,42.277l-0.058-0.721c-0.833,0.194-1.865,0.288-2.763,0.518c-1.148-0.402-2.436-0.428-3.49-1.036
	c-0.743-0.429-1.301-1.11-1.842-1.776c-0.688-0.848-1.002-1.736-2.008-1.4c-0.752,0.25-1.748,1.59-2.349,2.132
	c-0.291,0.264-0.582,0.526-0.873,0.79c-0.067,0.062-0.14,0.131-0.151,0.222c-0.01,0.067,0.017,0.132,0.041,0.194
	c0.795,1.889,1.975,3.789,3.555,5.117c0.986,0.828,1.742,1.761,2.461,2.768c-0.362,2.595-0.004,5.363-0.001,7.943
	c0.001,1.064-0.718,12.465-0.173,12.491c1.895,0.097,3.883-0.226,5.771-0.396c0.863-0.077,1.877,0.112,2.068-0.85
	c0.137-0.69,0.043-1.512,0.063-2.214c0.071-2.522,0.144-5.046,0.215-7.568c0.02-0.664,0.252-10.494,0.299-10.494l-2.201-4.01
	L63.764,42.277z"/>
<path fill="#5E67AF" d="M78.871,40.282c-0.012-0.091-0.084-0.16-0.152-0.222c-0.291-0.264-0.582-0.527-0.873-0.791
	c-0.6-0.541-1.596-1.881-2.348-2.133c-1.007-0.334-1.32,0.555-2.008,1.401c-0.541,0.666-1.1,1.347-1.842,1.776
	c-1.132,0.652-2.529,0.635-3.737,1.129c-0.071,0.029-0.14,0.063-0.208,0.1c-0.223-0.046-0.462-0.097-0.722-0.16
	c-0.506-0.125-1.592-0.519-1.319,0.481c0.155,0.571,1.068,1.286,1.454,1.745l-2.2,4.01c0.115,4.051,0.229,8.102,0.345,12.153
	c0.053,1.867,0.106,3.732,0.159,5.6c0.019,0.649,0.034,1.297,0.056,1.945c0.008,0.291-0.071,0.781,0.095,1.018
	c0.36,0.517,1.677,0.355,2.252,0.4c0.895,0.071,1.804,0.144,2.647,0.453c0.563,0.206,1.095,0.516,1.688,0.599
	c0.133,0.02,0.282,0.022,0.386-0.063c0.117-0.095,0.137-0.263,0.148-0.412c0.206-2.781,0.21-5.648,0.364-8.459
	c0.126-2.301,0.448-4.731,0.248-7.034c-0.003-0.038-0.007-0.077-0.014-0.115c-0.382-2.071-0.132-3.88-0.258-5.644
	c0.655-0.893,1.355-1.723,2.243-2.467c1.58-1.328,2.761-3.229,3.554-5.117C78.855,40.414,78.879,40.347,78.871,40.282"/>
<path fill="#EAC5B1" d="M106.782,36.617c0.048,0.002,0.098,0.005,0.142,0.021c0.412,0.144,0.541,0.465,0.896,0.716
	c0.158,0.112,0.621-0.075,0.604,0.329c-0.005,0.149-0.071,0.515-0.087,0.832c-0.022,0.465,0.229,1.066,0.517,1.508
	c1.134,1.732,2.705,3.109,4.304,4.424c0.092,0.075,0.188,0.15,0.303,0.176c0.207,0.045,0.405-0.089,0.577-0.212
	c0.797-0.567,1.647-1.062,2.536-1.473c0.793-0.367,1.64-0.673,2.514-0.662c0.873,0.011,1.783,0.389,2.242,1.132
	c0.343,0.557,0.395,1.283,0.134,1.883c-0.646,1.489-3.017,1.461-4.386,1.706c-1.295,0.233-2.606,0.374-3.921,0.423
	c-0.163,0.006-0.33,0.01-0.482-0.048c-0.161-0.062-0.289-0.188-0.41-0.312c-1.567-1.584-2.987-3.299-4.379-5.051
	c-0.383-0.482-0.464-1.104-0.82-1.545c-0.229-0.283-0.611-0.34-0.886-0.559c-0.271-0.216-0.571-0.568-0.745-0.87
	c-0.34-0.593-0.054-1.239,0.142-1.827c0.048-0.146,0.08-0.246,0.184-0.346c0.17-0.163,0.397-0.189,0.621-0.223
	C106.513,36.62,106.649,36.611,106.782,36.617"/>
<path fill="#3B3487" d="M117.719,48.021c-1.421,0.214-2.88,0.293-4.198,0.188c-0.334-0.027-0.678-0.07-0.971-0.233
	c-0.241-0.136-0.434-0.345-0.621-0.55c-1.088-1.195-2.176-2.391-3.265-3.586c-0.155-0.17-0.322-0.391-0.248-0.608
	c0.045-0.132,0.166-0.22,0.281-0.3c0.524-0.36,1.05-0.721,1.575-1.084c0.095-0.064,0.199-0.133,0.314-0.129
	c0.107,0.006,0.201,0.072,0.282,0.143c0.512,0.445,0.782,1.137,1.335,1.531c0.507,0.361,1.183,0.414,1.791,0.283
	c2.55-0.549,4.842-2.621,7.056-3.914c1.172-0.684,2.393-1.383,3.743-1.517c2.884-0.282,4.673,3.087,2.561,5.216
	c-1.793,1.805-4.103,3.11-6.526,3.858C119.867,47.617,118.803,47.858,117.719,48.021"/>
<polygon fill="#EDCFB0" points="124.247,91.453 124.701,94.714 122.767,94.983 122.264,91.366 "/>
<path fill="#2A2A49" d="M122.875,94.449l1.754,0.347l0.569,0.479l0.075,1.291l-4.51,0.921c-0.455-0.512-0.299-1.303,0.315-1.604
	l0.203-0.099L122.875,94.449z"/>
<path fill="#EDCFB0" d="M138.25,78.57c0.817-0.271,1.61-0.806,2.433-0.997c0.042,0.64,0.104,1.279,0.156,1.918
	c-0.993,0.467-2.019,0.837-3.103,1.033C137.909,79.876,138.129,79.229,138.25,78.57"/>
<path fill="#2A2A49" d="M140.897,79.455c-0.059-0.081-0.064-0.084-0.112-0.273c-0.121-0.47-0.435-1.771,0.008-2.172
	c0.072-0.064,0.106,0,0.171,0.03c1.081,0.514,1.862,1.105,2.725,1.976c0.367,0.373,0.724,0.84,0.749,1.382
	c0.01,0.238-0.089,0.422-0.179,0.611c-0.132,0.279-0.288,0.521-0.463,0.762c-0.063,0.088-0.117,0.187-0.242,0.178
	c-0.251-0.017-0.371-0.305-0.42-0.54c-0.049-0.237-0.068-0.524-0.226-0.724c-0.07-0.089-0.174-0.144-0.259-0.192
	C142.017,80.128,141.348,80.092,140.897,79.455"/>
<path fill="#2A2A49" d="M124.189,76.851c1.577,2.803,3.898,4.024,6.691,4.892c3.196,0.991,5.949,0.449,8.796-1.143
	c0.049-0.95-0.042-1.895,0.029-2.787c-3.167,0.503-4.696,0.393-6.833-2.437c-3.089-4.089-0.022-10.108-0.868-15.047
	c-0.097-0.567-0.252-1.133-0.541-1.631c-3.354-5.793-9.391-1.922-10.137,3.382C120.66,66.827,121.836,72.671,124.189,76.851"/>
<path fill="#2A2A49" d="M130.038,59.878c-0.216-1.764-0.642-3.437-1.134-4.69c-2.736,0.192-5.771,0.877-8.393,1.757
	c-2.563,0.861-4.13,1.637-3.794,4.49c0.619,5.248-0.874,9.971-1.131,15.122c-0.15,2.993,1.065,5.503,2.388,8.093
	c1.514,2.964,2.868,6.01,4.054,9.119c0.91-0.119,1.821-0.238,2.731-0.356c0.394-4.156-0.5-8.311-0.94-12.463
	c-0.305-2.885-0.378-5.868,0.345-8.7c0.793-3.113,2.613-2.141,4.321-4.102C130.144,66.242,130.408,62.924,130.038,59.878"/>
<path fill="#3B3487" d="M126.383,39.574c0.313,0.221,0.593,0.49,0.868,0.758c0.247,0.239,0.494,0.479,0.741,0.719
	c0.855,0.83,1.318,2.098,1.719,3.19c2.113,5.755,3.151,13.736,2.246,19.896c-4.507,0.604-9.798-0.29-14.343-0.694
	c-0.442-0.04-0.943-0.115-1.188-0.484c-0.149-0.224-0.168-0.507-0.18-0.775c-0.182-3.874,0.44-8.076,1.028-11.931
	c0.249-1.627,0.573-3.244,1.011-4.832c0.464-1.68,0.991-3.494,2.2-4.806c1.294-1.403,3.861-2.187,5.609-1.221
	C126.195,39.448,126.291,39.509,126.383,39.574"/>
<path fill="#FDE0D4" d="M125.928,40.412c0.058-0.531,0.114-1.061,0.171-1.592c0.107-0.059,0.209-0.121,0.304-0.188
	c1.83-1.294,4.69-7.914-0.408-9.125c-4.629-1.1-4.096,5.173-3.081,7.751c0.174,0.44,0.398,0.854,0.717,1.208
	c0.218,0.242,0.263,0.191,0.246,0.484c-0.015,0.283-0.281,0.615-0.331,0.916c-0.053,0.32-0.011,0.67,0.187,0.929
	c0.12,0.158,0.291,0.272,0.471,0.356c0.286,0.135,0.614,0.201,0.921,0.127C125.49,41.193,125.887,40.792,125.928,40.412"/>
<path fill="#1A3151" d="M121.729,34.935c0.319,0.823,0.748,1.604,1.271,2.313c-0.099-1.545,0.017-3.104,0.34-4.619
	c0.024-0.115,0.048-0.245-0.019-0.344c-0.063-0.091-0.182-0.119-0.291-0.138C121.088,31.822,121.173,33.501,121.729,34.935"/>
<path fill="#1A3151" d="M126.893,37.027c0.328,0.42,1,0.271,1.464,0.01c1.909-1.075,2.948-3.495,2.414-5.619
	c-0.448-1.777-2.773-3.018-3.126-0.771c-0.125,0.795,0.406,1.865,0.338,2.744C127.884,34.648,127.358,35.872,126.893,37.027"/>
<path fill="#1A3151" d="M121.426,28.071c-0.215,0.097-0.435,0.198-0.664,0.302c-0.478,0.213-0.827,0.293-1.341,0.032
	c-0.147-0.075-1.151-0.937-0.93-1.138c-1.473,1.322-0.127,3.089,0.509,4.353c0.429,0.853,0.566,2.078,1.464,2.606
	c0.986,0.58,1.606-0.242,2.46-0.637c0.752-0.35,1.572-0.559,2.34-0.873c1.272-0.523,3.162-1.426,2.651-3.125
	c-0.596-1.986-2.654-2.392-4.477-2.151C122.661,27.542,122.06,27.785,121.426,28.071"/>
<path fill="#EAC5B1" d="M120.792,42.204c0.047-0.01,0.096-0.019,0.143-0.015c0.435,0.039,0.638,0.318,1.044,0.475
	c0.182,0.069,0.584-0.225,0.668,0.172c0.031,0.146,0.057,0.516,0.119,0.828c0.092,0.455,0.483,0.977,0.871,1.334
	c0.732,0.676,3.457,1.668,3.246,2.936c-0.493,2.975-4.435-1.739-4.874-2.069c-0.291-0.217-0.675-0.179-0.994-0.324
	c-0.317-0.143-0.695-0.411-0.936-0.659c-0.476-0.492-0.356-1.188-0.313-1.808c0.011-0.153,0.019-0.258,0.095-0.38
	c0.124-0.2,0.338-0.281,0.547-0.368C120.533,42.273,120.661,42.231,120.792,42.204"/>
<path fill="#3B3487" d="M132.586,51.585c-0.384,1.229-2.781,0.426-3.622,0.059c-1.766-0.773-3.434-1.711-4.957-2.896
	c-0.096-0.072-0.197-0.16-0.213-0.279c-0.017-0.117,0.056-0.227,0.125-0.323c0.429-0.603,0.857-1.207,1.286-1.812
	c0.093-0.129,0.191-0.265,0.336-0.332c0.546-0.253,1.294,0.463,1.849,0.52c0.154-1.361-0.662-2.518-1.064-3.756
	c-0.551-1.695,1.388-2.147,2.435-1.277c1.283,1.066,2.146,2.654,2.697,4.201c0.597,1.677,0.877,3.447,1.153,5.205
	C132.655,51.175,132.643,51.403,132.586,51.585"/>
<path fill="#EAC5B1" d="M84.035,36.468c-0.243-0.248-0.478-0.504-0.709-0.718c-0.039-0.332-0.078-0.665-0.117-0.997
	c-0.006-0.052-0.011-0.107,0.015-0.152c0.022-0.039,0.064-0.063,0.104-0.084c0.178-0.097,0.354-0.192,0.531-0.289
	c0.035-0.019,0.072-0.039,0.112-0.041c0.087-0.004,0.156,0.07,0.21,0.139c0.188,0.236,0.858,1.032,0.876,0.389
	c0.003-0.1,0.092-0.179,0.187-0.205c0.096-0.024,0.196-0.009,0.294,0.008c0.07,0.012,0.152,0.033,0.177,0.101
	c0.01,0.03,0.006,0.063,0.001,0.095c-0.052,0.342-0.118,0.627-0.05,0.973l0.201,1.139c0.004,0.02-0.498,0.275-0.543,0.303
	c-0.265,0.164-0.155,0.236-0.453,0.053C84.578,36.999,84.302,36.739,84.035,36.468"/>
<polygon fill="#D77087" points="96.589,43.207 90.023,44.028 86.704,36.715 84.97,37.744 86.749,48.507 89.044,50.916 
	93.563,50.544 "/>
<polygon fill="#EAC5B1" points="101.475,65.85 99.066,81.366 99.92,92.574 98.167,93.122 96.595,82.764 93.244,63.839 "/>
<polygon fill="#2A2A49" points="98.169,93.437 97.976,94.598 98.416,96.805 99.865,96.682 100.138,93.414 99.924,92.889 "/>
<polygon fill="#EAC5B1" points="87.278,65.389 88.053,78.548 91.329,96.944 93.104,96.923 92.315,79.867 94.618,64.142 "/>
<polygon fill="#2A2A49" points="91.358,96.629 89.087,98.119 89.372,99.232 93.527,98.344 93.189,96.738 "/>
<polygon fill="#2A2A49" points="86.886,67.362 86.96,82.635 89.048,92.934 93.805,92.246 93.667,80.342 94.655,67.268 
	94.166,65.289 87.285,65.988 "/>
<polygon fill="#2A2A49" points="95.327,80.568 96.8,91.401 100.936,90.824 99.988,80.511 101.523,67.325 100.622,63.753 
	93.671,64.801 "/>
<path fill="#D77087" d="M103.517,48.16c-0.457-1.532-1.262-4.143-2.613-4.881c-0.027-0.016-0.057-0.03-0.085-0.045
	c-0.268-0.142-0.556-0.268-0.855-0.375c-0.539-0.34-1.314-0.485-2.079-0.436c-0.702-0.046-1.4,0.01-2.03,0.195
	c-0.296,0.087-0.575,0.232-0.853,0.377c-0.81,0.422-1.432,0.604-1.935,1.433c-0.437,0.72-0.697,1.56-1.029,2.337
	c-2.771,6.492-5.021,15.158-6.817,22.021c0.849-0.081,1.7-0.22,2.548-0.355c3.899,0.44,8.35,1.617,11.789,2.785
	c1.03,0.613,2.045,1.258,3.052,1.914c-0.258-0.168,0.97-5.598,1.066-6.21c0.35-2.215,0.657-4.438,0.865-6.671
	C104.928,56.103,104.697,52.115,103.517,48.16"/>
<path fill="#EAC5B1" d="M101.87,37.521c-0.717-2.723-4.495-3.881-5.564-0.83c-0.321,0.918-0.539,1.897-0.412,2.861
	c0.128,0.965,0.647,1.914,1.501,2.357c0.004,0.003,0.009,0.004,0.014,0.007c0.147,0.075-0.676,1.64-0.734,1.765
	c-0.091,0.196-0.183,0.395-0.227,0.605c-0.101,0.471,0.042,0.955,0.209,1.406c0.152,0.412,0.328,0.815,0.524,1.209
	c0.017,0.035,0.035,0.069,0.066,0.092c0.075,0.052,0.178,0.002,0.253-0.051c0.609-0.414,1.147-0.934,1.584-1.526
	c0.101-0.136,0.195-0.278,0.251-0.437c0.063-0.182,0.07-0.377,0.071-0.57c0-0.534-0.454-1.855-0.185-2.274
	c0.103-0.159,0.605-0.276,0.779-0.383c0.288-0.177,0.547-0.401,0.778-0.647C101.642,40.185,102.202,38.781,101.87,37.521"/>
<path fill="#2A2A49" d="M96.348,37.531c-0.428,0.69-0.403,1.535-0.295,2.314c0.105,0.762,0.021,1.506,0.199,2.26
	c-0.081,0.116-0.262,0.039-0.374-0.048c-0.662-0.507-1.316-1.024-1.964-1.55c-0.065-0.053-0.133-0.107-0.17-0.184
	c-0.049-0.096-0.043-0.209-0.035-0.315c0.152-2.114,0.979-3.66,2.165-5.329c0.574-0.811,2.112-1.706,2.984-0.738
	c0.198,0.219,0.271,0.525,0.322,0.819c0.031,0.177,0.057,0.358,0.017,0.532c-0.158,0.691-0.807,0.654-1.314,0.876
	C97.256,36.441,96.71,36.947,96.348,37.531"/>
<path fill="#2A2A49" d="M101.17,38.924c0,0.61-0.143,1.302-0.325,1.878c-0.063,0.2-0.446,0.664-0.458,0.799
	c-0.035,0.391,0.77,1.311,0.979,1.653c1.26-0.699,2.519-1.397,3.778-2.097c0.096-0.053,0.197-0.11,0.253-0.207
	c0.051-0.088,0.058-0.193,0.062-0.295c0.07-1.992-0.442-3.783-1.201-5.586c-0.759-1.802-2.462-3.267-4.467-3.142
	c-1.621,0.101-2.754,1.296-2.162,2.966c0.446,1.26,2.015,1.528,2.869,2.389C101.033,37.824,101.187,38.361,101.17,38.924"/>
<path fill="#EAC5B1" d="M24.387,30.242c-0.023,0.036-0.049,0.072-0.063,0.111c-0.119,0.371,0.041,0.636,0.027,1.023
	c-0.007,0.174-0.388,0.402-0.092,0.608c0.109,0.077,0.404,0.226,0.639,0.386c0.342,0.234,0.635,0.738,0.793,1.182
	c0.623,1.737,0.754,3.598,0.826,5.441c0.004,0.105,0.008,0.215-0.037,0.311c-0.08,0.17-0.283,0.239-0.461,0.297
	c-0.834,0.26-1.645,0.599-2.416,1.008c-0.688,0.367-1.361,0.804-1.824,1.431s-0.685,1.478-0.403,2.204
	c0.211,0.545,0.698,0.973,1.267,1.111c1.406,0.342,2.663-1.358,3.576-2.199c0.863-0.797,1.67-1.652,2.414-2.561
	c0.091-0.113,0.184-0.229,0.225-0.369c0.043-0.147,0.022-0.307,0-0.459c-0.281-1.969-0.736-3.901-1.231-5.836
	c-0.136-0.531-0.535-0.924-0.656-1.416c-0.078-0.313,0.087-0.617,0.08-0.93c-0.008-0.309-0.096-0.713-0.217-0.998
	c-0.239-0.561-0.853-0.706-1.375-0.885c-0.13-0.044-0.218-0.075-0.347-0.055c-0.207,0.033-0.348,0.18-0.491,0.32
	C24.534,30.052,24.455,30.144,24.387,30.242"/>
<path fill="#D77087" d="M25.661,43.204c-0.494-1.062-0.986-2.123-1.479-3.185c0.032,0.067-4.954,1.941-5.247,2.063
	c-1.118,0.464-2.273,0.954-3.095,1.843c-1.755,1.898-0.324,4.986,2.327,4.631c2.877-0.387,5.85-1.904,7.904-3.945
	c0.045-0.045,0.09-0.092,0.107-0.153c0.023-0.083-0.016-0.17-0.051-0.248C25.971,43.875,25.816,43.539,25.661,43.204"/>
<path fill="#2A2A49" d="M0.463,73.677c-0.065,0.401-0.109,0.803-0.143,1.173c-0.057,0.634,0.044,1.357-0.117,1.975
	c-0.063,0.245-0.148,0.482-0.186,0.734c-0.038,0.251-0.02,0.528,0.107,0.734c0.155,0.253,0.436,0.342,0.694,0.399
	c0.24,0.055,0.489,0.097,0.728,0.037c0.482-0.12,0.839-0.64,0.985-1.199c0.177-0.669,0.087-1.326,0.063-2.005
	c0-1.067-0.286-1.978-0.241-3.054c0.007-0.182,0.011-0.377-0.091-0.528c-0.107-0.157-0.313-0.228-0.503-0.223
	c-0.382,0.011-0.751,0.117-0.904,0.482C0.672,72.642,0.549,73.158,0.463,73.677"/>
<path fill="#EAC5B1" d="M1.461,72.832c-0.208,0.161-0.355,0.387-0.499,0.606c-0.097,0.149-0.194,0.345-0.097,0.493
	c0.037,0.056,0.097,0.093,0.154,0.128c0.242,0.148,0.485,0.295,0.728,0.442c0.049,0.029,0.104,0.061,0.161,0.053
	c0.047-0.006,0.087-0.038,0.123-0.069c0.234-0.197,0.455-0.408,0.666-0.632C3.643,72.844,2.311,72.169,1.461,72.832"/>
<path fill="#343B86" d="M18.172,63.852c-0.063-0.234-0.262-0.401-0.473-0.544c-2.158-1.464-4.514-2.463-7.061-3.029
	c-0.215-0.048-1.582,4.201-1.713,4.613c-0.512,1.6-0.945,3.224-1.318,4.861c-0.408,1.795-0.831,3.586-1.263,5.374
	c-0.831-0.815-1.724-1.568-2.667-2.25c-0.162-0.118-0.338-0.237-0.537-0.25c-0.244-0.016-0.465,0.131-0.658,0.278
	c-0.337,0.258-0.652,0.545-0.941,0.856c-0.096,0.103-0.193,0.218-0.217,0.357c-0.021,0.141,0.033,0.279,0.088,0.409
	c0.938,2.236,2.422,5.831,3.613,7.946c0.576,1.022,1.68,1.373,2.801,1.286c0.286-0.023,0.484-0.104,0.734-0.191
	c0.295-0.104,0.616-0.103,0.914-0.206c0.195-0.067,0.35-0.219,0.486-0.373c1.201-1.335,2.019-3.208,2.742-4.834
	c0.785-1.765,1.426-3.592,2.004-5.435c0.043-0.136,0.086-0.271,0.129-0.405c0.91-2.755,2.136-5.127,3.233-7.832
	C18.153,64.28,18.234,64.086,18.172,63.852"/>
<path fill="#EAC5B1" d="M14.776,95.307c0.391,0.151,0.8,0.124,1.201,0.202c0.408-1.374,0.668-2.73,0.794-4.174
	c-0.81,0.481-1.196-0.065-1.567,1.197C15.084,92.942,15.047,94.713,14.776,95.307"/>
<path fill="#2A2A49" d="M16.387,95.095c0,0.777,0.611,1.613,0.95,2.312c0.039,0.083,0.08,0.168,0.082,0.259
	c0.002,0.136-0.081,0.256-0.159,0.366c-0.111,0.152-0.23,0.313-0.406,0.382c-0.172,0.068-0.366,0.034-0.547-0.006
	c-0.303-0.066-0.602-0.147-0.896-0.24c-0.074-0.024-0.148-0.049-0.209-0.097c-0.071-0.059-0.113-0.143-0.154-0.225
	c-0.209-0.42-0.386-0.718-0.375-1.186c0.012-0.483,0.073-0.984-0.015-1.463c-0.044-0.232-0.103-0.529,0.097-0.657
	c0.154-0.098,0.436,0.038,0.604,0.065c0.296,0.048,0.568,0.029,0.841,0.185c0.055,0.032,0.108,0.07,0.143,0.124
	C16.376,94.968,16.387,95.031,16.387,95.095"/>
<path fill="#343B86" d="M14.374,70.46c0.172,3.448,0.541,6.884,0.279,10.356c-0.322,4.29-0.048,8.656-0.533,12.905
	c0.489,0.17,0.991,0.303,1.5,0.398c0.584,0.108,1.524,0.235,1.92-0.316c0.201-0.282,0.25-0.827,0.336-1.158
	c0.274-1.061,0.525-2.128,0.773-3.194c0.702-3.021,1.484-6.056,1.848-9.136c0.383-3.239,0.793-6.481,1.243-9.7
	c0.233-1.664,0.403-3.336,0.494-5.013c0.022-0.432,0.253-4.889,0.036-4.921c-2.583-0.374-5.139-0.277-7.678,0.327
	c-0.245,0.058-0.492,0.143-0.633,0.34c-0.142,0.197-0.135,0.407-0.129,0.628c0.047,2.103,0.344,4.153,0.437,6.261
	C14.299,68.971,14.334,69.707,14.374,70.46"/>
<path fill="#D77087" d="M12.922,42.785c-0.041,0.014-0.084,0.029-0.125,0.045c-0.693,0.264-1.283,0.736-1.859,1.202
	c-0.866,0.7-1.293,1.007-1.629,2.043c-0.312,0.968-0.506,1.988-0.697,2.984c-0.98,5.114-1.171,10.206-1.875,15.358
	c-0.191,1.402-0.34,3.052,0.697,4.015c1.841-1.433,4.154-1.516,6.386-1.518c1.567-0.001,3.101-0.509,4.671-0.334
	c1.502,0.168,2.814-0.208,4.337-0.108c0.368,0.023,0.836,0.02,0.981-0.318c-0.527-1.581-0.519-3.281-0.639-4.943
	c-0.309-4.3-1.732-8.426-2.308-12.695c-0.194-1.451-0.299-3.861-1.423-4.959c-1.223-1.194-4.008-1.219-5.578-0.985
	C13.543,42.618,13.227,42.681,12.922,42.785"/>
<path fill="#EAC5B1" d="M14.088,42.712c0.025,0.051,0.061,0.098,0.107,0.145c0.182,0.18,0.435,0.281,0.686,0.318
	c0.33,0.047,0.666-0.009,0.995-0.07c0.442-0.086,0.427-0.344,0.491-0.747c0.035-0.22,0.057-0.441,0.074-0.663
	c0.009-0.122-0.039-0.559,0.039-0.643c0.053-0.059,0.267-0.039,0.36-0.088c0.149-0.078,0.272-0.221,0.363-0.359
	c0.144-0.225,0.223-0.483,0.301-0.738c0.136-0.443,0.271-0.887,0.406-1.331c0.138-0.453,0.276-0.91,0.321-1.382
	c0.066-0.711-0.049-1.715-0.586-2.234c-0.488-0.474-1.203-0.641-1.858-0.724c-0.867-0.111-1.767,0.048-2.515,0.508
	c-0.304,0.187-0.59,0.427-0.769,0.759c-0.276,0.512-0.255,1.149-0.226,1.745c0.027,0.552,0.056,1.101,0.082,1.652
	c0.031,0.633,0.111,1.362,0.586,1.706c0.252,0.182,0.58,0.221,0.797,0.455c0.27,0.293,0.252,0.731,0.263,1.104
	C14.014,42.336,13.999,42.538,14.088,42.712"/>
<path fill="#2A2A49" d="M16.834,35.595c0.029,0.053,0.055,0.105,0.074,0.161c0.101,0.292,0.032,0.621,0.131,0.914
	c0.156,0.464,0.698,0.743,0.779,1.226c0.067,0.396-0.203,0.771-0.226,1.17c-0.024,0.438,0.255,0.852,0.212,1.282
	c-0.038,0.374-0.275,0.901-0.499,1.201c0.069-0.093,0.696-0.06,0.858-0.159c0.25-0.152,0.278-0.248,0.353-0.508
	c0.073-0.258,0.017-0.512,0.131-0.775c0.142-0.324,0.431-0.563,0.531-0.908c0.139-0.472-0.112-0.97-0.093-1.461
	c0.029-0.742,0.672-1.443,0.438-2.149c-0.137-0.414-0.539-0.679-0.765-1.052c-0.172-0.284-0.236-0.618-0.355-0.928
	c-0.119-0.309-0.324-0.617-0.642-0.711c-0.177-0.053-0.366-0.031-0.548-0.065c-0.313-0.058-0.572-0.274-0.873-0.376
	c-0.432-0.146-1.192,0.289-1.444,0.656c-0.25,0.362-0.124,0.67,0.132,0.991C15.456,34.638,16.483,34.988,16.834,35.595"/>
<path fill="#2A2A49" d="M11.027,33.4c-0.259,0.189-0.578,0.327-0.813,0.548c-0.461,0.433-0.548,1.123-0.564,1.754
	c-0.014,0.562-0.26,1.062-0.199,1.646c0.041,0.394,0.208,0.791,0.528,1.023c0.397,0.289,1.024,0.336,1.2,0.797
	c0.193,0.498-0.322,1.125-0.01,1.559c0.174,0.238,0.512,0.273,0.76,0.435c0.276,0.179,0.418,0.499,0.588,0.782
	c0.168,0.282,0.422,0.566,0.75,0.573c0.014-0.501,0.029-0.897-0.186-1.355c-0.125-0.267-0.49-0.759-0.21-1.048
	c0.179-0.24,0.597-0.318,0.608-0.615c0.005-0.141-0.094-0.26-0.17-0.378c-0.299-0.452-0.329-1.057-0.127-1.56
	c0.203-0.504,0.619-0.906,1.108-1.143c0.572-0.277,0.48-0.416,0.646-0.965c0.153-0.505,0.44-0.623,0.894-0.807
	c0.407-0.165,0.538-0.268,0.689-0.648c0.109-0.281,0.244-0.615,0.086-0.927c-0.127-0.247-0.356-0.424-0.577-0.593
	c-0.462-0.352-0.981-0.723-1.562-0.682c-0.321,0.023-0.625,0.174-0.946,0.193c-0.216,0.012-0.429-0.036-0.644-0.043
	c-0.367-0.012-0.755,0.1-1.052,0.318c-0.3,0.22-0.291,0.451-0.458,0.763C11.287,33.181,11.166,33.298,11.027,33.4"/>
<path fill="#2A2A49" d="M12.325,31.341c0.057-0.348,0.02-0.803-0.313-0.92c-0.183-0.064-0.387,0.006-0.576-0.032
	c-0.405-0.083-0.542-0.572-0.754-0.927c-0.032-0.053-0.07-0.105-0.127-0.131c-0.08-0.037-0.172-0.004-0.26,0.006
	c-0.402,0.05-0.709-0.348-1.088-0.491C8.74,28.667,8.15,28.96,8.008,29.443c-0.059,0.197-0.049,0.41-0.103,0.609
	c-0.221,0.805-1.399,1.146-1.43,1.982c-0.021,0.563,0.532,1.104,0.317,1.625c-0.138,0.334-0.566,0.562-0.518,0.918
	c0.032,0.23,0.277,0.387,0.509,0.385c0.232-0.004,0.445-0.131,0.62-0.284c0.277-0.242,0.486-0.554,0.751-0.81
	c0.265-0.257,0.617-0.465,0.981-0.42c0.354,0.045,0.676,0.32,1.027,0.262c0.281-0.047,0.49-0.299,0.768-0.369
	c0.258-0.066,0.527,0.035,0.794,0.052c0.266,0.017,0.594-0.123,0.601-0.39c0.002-0.065-0.017-0.131,0.004-0.193
	c0.057-0.172,0.352-0.162,0.406-0.335c-0.139-0.214-0.335-0.138-0.436-0.417C12.225,31.841,12.29,31.561,12.325,31.341"/>
<path fill="#EAC5B1" d="M12.453,62.915c0.009-0.042,0.019-0.086,0.015-0.128c-0.029-0.388-0.277-0.571-0.412-0.936
	c-0.062-0.162,0.205-0.519-0.147-0.598c-0.13-0.028-0.459-0.055-0.737-0.113c-0.406-0.087-0.867-0.442-1.182-0.791
	c-1.236-1.372-2.064-3.043-2.832-4.721c-0.044-0.097-0.088-0.196-0.083-0.302c0.01-0.188,0.169-0.329,0.313-0.448
	c0.674-0.559,1.293-1.18,1.852-1.852c0.497-0.6,0.954-1.261,1.145-2.016c0.189-0.756,0.071-1.627-0.465-2.192
	c-0.402-0.424-1.017-0.634-1.594-0.547c-1.432,0.218-1.948,2.269-2.473,3.394c-0.495,1.063-0.918,2.162-1.26,3.284
	c-0.043,0.14-0.084,0.283-0.068,0.427c0.017,0.153,0.096,0.293,0.175,0.426c1.009,1.714,2.163,3.33,3.356,4.93
	c0.328,0.44,0.846,0.651,1.145,1.061c0.191,0.262,0.152,0.604,0.279,0.891c0.123,0.283,0.359,0.624,0.58,0.841
	c0.434,0.428,1.056,0.329,1.607,0.296c0.139-0.008,0.23-0.013,0.342-0.08c0.178-0.108,0.252-0.299,0.332-0.483
	C12.389,63.146,12.428,63.031,12.453,62.915"/>
<path fill="#D77087" d="M6.351,51.408l2.578,2.385c-0.056-0.051,3.845-3.678,4.069-3.902c0.859-0.854,1.74-1.746,2.164-2.881
	c0.901-2.424-1.596-4.735-3.912-3.398c-2.516,1.449-4.689,3.982-5.813,6.652c-0.024,0.059-0.049,0.119-0.041,0.182
	c0.011,0.086,0.078,0.151,0.142,0.211C5.808,50.906,6.081,51.158,6.351,51.408"/>
<path fill="#FACD46" d="M5.174,17.99c2.014-7.136,9.431-11.289,16.566-9.275c7.137,2.014,11.289,9.431,9.275,16.567
	c-2.014,7.136-9.432,11.289-16.566,9.274C7.313,32.543,3.161,25.126,5.174,17.99"/>
<g opacity="0.08">
	<g>
		<defs>
			<rect id="SVGID_7_" x="5.248" y="12.516" width="26.281" height="22.534"/>
		</defs>
		<clipPath id="SVGID_8_">
			<use xlink:href="#SVGID_7_"  overflow="visible"/>
		</clipPath>
		<path clip-path="url(#SVGID_8_)" fill="#010101" d="M27.967,12.516c0.72,2.372,0.791,4.971,0.068,7.532
			c-2.014,7.137-9.431,11.289-16.566,9.275c-2.479-0.699-4.596-2.05-6.223-3.814c1.285,4.232,4.633,7.742,9.207,9.033
			c7.135,2.014,14.553-2.14,16.566-9.275C32.334,20.61,31.021,15.833,27.967,12.516"/>
	</g>
</g>
<g opacity="0.2">
	<g>
		<defs>
			<rect id="SVGID_9_" x="5.557" y="9.18" width="24.558" height="17.098"/>
		</defs>
		<clipPath id="SVGID_10_">
			<use xlink:href="#SVGID_9_"  overflow="visible"/>
		</clipPath>
		<path clip-path="url(#SVGID_10_)" fill="#FFFFFF" d="M6.545,19.849c1.87-6.625,8.756-10.481,15.381-8.611
			c3.873,1.093,6.799,3.9,8.188,7.367c-1.058-4.181-4.257-7.698-8.704-8.953c-6.626-1.869-13.512,1.986-15.382,8.611
			c-0.776,2.753-0.564,5.55,0.424,8.016C5.936,24.232,5.932,22.026,6.545,19.849"/>
	</g>
</g>
<path fill="#2A2A49" d="M15.171,17.427c-0.25,0.886-0.879,1.484-1.405,1.336c-0.525-0.148-0.748-0.987-0.498-1.873
	c0.25-0.887,0.879-1.485,1.404-1.336C15.198,15.702,15.421,16.541,15.171,17.427"/>
<path fill="#2A2A49" d="M24.692,20.113c-0.25,0.887-0.879,1.484-1.405,1.337c-0.526-0.148-0.749-0.987-0.499-1.873
	c0.25-0.887,0.879-1.485,1.405-1.336C24.719,18.389,24.942,19.228,24.692,20.113"/>
<path fill="#2A2A49" d="M9.068,20.409c-0.737,4.499,2.004,8.932,6.496,10.198c4.491,1.269,9.146-1.077,10.869-5.299L9.068,20.409z"
	/>
<path fill="#D77087" d="M10.24,26.529c1.147,1.92,3.001,3.424,5.323,4.079c2.224,0.627,4.486,0.368,6.414-0.563l-0.028-0.211
	C16.92,25.346,10.33,26.513,10.24,26.529"/>
<path fill="#FACD46" d="M57.992,69.348c0-13.214,10.712-23.927,23.927-23.927c13.214,0,23.926,10.713,23.926,23.927
	S95.132,93.275,81.918,93.275C68.704,93.275,57.992,82.562,57.992,69.348"/>
<g opacity="0.08">
	<g>
		<defs>
			<rect id="SVGID_11_" x="61.756" y="48.926" width="44.088" height="44.319"/>
		</defs>
		<clipPath id="SVGID_12_">
			<use xlink:href="#SVGID_11_"  overflow="visible"/>
		</clipPath>
		<path clip-path="url(#SVGID_12_)" fill="#010101" d="M94.436,48.926c2.384,3.72,3.765,8.144,3.765,12.888
			c0,13.215-10.712,23.928-23.927,23.928c-4.59,0-8.877-1.294-12.518-3.534c4.252,6.639,11.693,11.039,20.162,11.039
			c13.214,0,23.927-10.713,23.927-23.927C105.845,60.695,101.281,53.136,94.436,48.926"/>
	</g>
</g>
<g opacity="0.2">
	<g>
		<defs>
			<rect id="SVGID_13_" x="59.59" y="47.188" width="41.478" height="35.756"/>
		</defs>
		<clipPath id="SVGID_14_">
			<use xlink:href="#SVGID_13_"  overflow="visible"/>
		</clipPath>
		<path clip-path="url(#SVGID_14_)" fill="#FFFFFF" d="M61.244,71.872c0-12.269,9.946-22.214,22.214-22.214
			c7.172,0,13.548,3.399,17.609,8.672c-3.835-6.658-11.025-11.142-19.262-11.142c-12.27,0-22.215,9.946-22.215,22.214
			c0,5.099,1.719,9.793,4.605,13.542C62.318,79.684,61.244,75.904,61.244,71.872"/>
	</g>
</g>
<path fill="#2A2A49" d="M72.111,71.814c-0.615-0.599-1.604,0.063-1.284,0.861c1.768,4.417,6.087,7.537,11.135,7.537
	c4.965,0,9.223-3.017,11.045-7.317c0.332-0.784-0.663-1.463-1.275-0.87C88.229,75.419,80.796,80.25,72.111,71.814"/>
<path fill="#2A2A49" d="M74.867,63.367c0,1.641-0.789,2.972-1.764,2.972c-0.974,0-1.763-1.331-1.763-2.972s0.789-2.972,1.763-2.972
	C74.078,60.395,74.867,61.726,74.867,63.367"/>
<path fill="#2A2A49" d="M92.497,63.367c0,1.641-0.789,2.972-1.764,2.972c-0.974,0-1.763-1.331-1.763-2.972s0.789-2.972,1.763-2.972
	C91.708,60.395,92.497,61.726,92.497,63.367"/>
<path fill="#FACD46" d="M107.176,30.113c-0.367-7.78,5.644-14.385,13.426-14.752c7.781-0.367,14.386,5.644,14.753,13.426
	c0.366,7.781-5.646,14.386-13.426,14.753C114.148,43.906,107.542,37.894,107.176,30.113"/>
<g opacity="0.08">
	<g>
		<defs>
			<rect id="SVGID_15_" x="109.75" y="17.077" width="25.62" height="26.461"/>
		</defs>
		<clipPath id="SVGID_16_">
			<use xlink:href="#SVGID_15_"  overflow="visible"/>
		</clipPath>
		<path clip-path="url(#SVGID_16_)" fill="#010101" d="M128.07,17.077c1.507,2.124,2.443,4.69,2.574,7.485
			c0.367,7.781-5.644,14.387-13.426,14.754c-2.702,0.127-5.262-0.517-7.469-1.734c2.688,3.792,7.191,6.176,12.179,5.941
			c7.781-0.367,13.792-6.972,13.426-14.754C135.114,23.691,132.217,19.367,128.07,17.077"/>
	</g>
</g>
<g opacity="0.2">
	<g>
		<defs>
			<rect id="SVGID_17_" x="108.104" y="16.389" width="24.132" height="21.56"/>
		</defs>
		<clipPath id="SVGID_18_">
			<use xlink:href="#SVGID_17_"  overflow="visible"/>
		</clipPath>
		<path clip-path="url(#SVGID_18_)" fill="#FFFFFF" d="M109.161,31.509c-0.34-7.224,5.24-13.356,12.465-13.696
			c4.224-0.199,8.072,1.626,10.61,4.618c-2.444-3.815-6.802-6.255-11.652-6.027c-7.225,0.341-12.806,6.473-12.465,13.698
			c0.142,3.001,1.283,5.719,3.087,7.846C110.01,36.081,109.273,33.884,109.161,31.509"/>
	</g>
</g>
<path fill="#2A2A49" d="M117.489,26.673c-0.445-0.979-1.427-1.577-2.501-1.526c-1.05,0.049-1.965,0.72-2.329,1.705
	c-0.068,0.188,0.003,0.396,0.175,0.502s0.389,0.078,0.526-0.069c0.746-0.795,1.953-1.462,3.469-0.121
	c0.086,0.074,0.192,0.11,0.299,0.105c0.081-0.004,0.161-0.031,0.229-0.083C117.518,27.067,117.572,26.856,117.489,26.673"/>
<path fill="#2A2A49" d="M129.594,26.103c-0.446-0.979-1.428-1.577-2.501-1.526c-1.05,0.049-1.964,0.72-2.329,1.705
	c-0.069,0.188,0.002,0.396,0.174,0.502s0.389,0.078,0.527-0.069c0.746-0.795,1.953-1.461,3.468-0.121
	c0.086,0.074,0.192,0.11,0.299,0.105c0.081-0.004,0.161-0.031,0.23-0.083C129.623,26.497,129.677,26.286,129.594,26.103"/>
<path fill="#D77087" d="M115.091,32.403c0-0.009,0-0.015,0-0.022c-0.067-1.406-1.145-2.646-2.673-2.574
	c-1.215,0.058-1.878,0.965-2.08,1.793c-0.279-0.807-1.024-1.646-2.239-1.588c-1.529,0.071-2.485,1.406-2.419,2.813
	c0,0.007,0.001,0.016,0.001,0.021c0.007,0.307,0.161,3.42,4.984,5.734v0.001l0.001-0.001l0.001,0.001V38.58h0.001
	C115.253,35.821,115.114,32.708,115.091,32.403"/>
<path fill="#2A2A49" d="M121.634,37.286c-1.281,0.06-2.372-0.933-2.432-2.214c-0.027-0.557,0.145-1.094,0.479-1.527
	c-0.374-0.398-0.596-0.918-0.622-1.475c-0.06-1.281,0.934-2.372,2.214-2.432c0.78-0.037,1.522,0.317,1.985,0.947
	c0.13,0.178,0.092,0.428-0.085,0.557c-0.178,0.131-0.427,0.092-0.557-0.084c-0.306-0.416-0.793-0.648-1.307-0.625
	c-0.842,0.041-1.493,0.758-1.453,1.599c0.021,0.465,0.251,0.889,0.629,1.163c0.097,0.072,0.156,0.184,0.162,0.305
	c0.007,0.121-0.044,0.236-0.134,0.316c-0.351,0.311-0.539,0.754-0.517,1.219c0.04,0.842,0.757,1.494,1.598,1.455
	c0.508-0.024,0.971-0.299,1.235-0.733c0.114-0.188,0.36-0.248,0.548-0.133c0.188,0.114,0.247,0.36,0.133,0.548
	C123.11,36.833,122.408,37.25,121.634,37.286"/>
<path fill="#EAC5B1" d="M99.34,65.935c-0.073,0.216-0.17,0.423-0.289,0.615c-0.063,0.1-0.131,0.196-0.225,0.267
	c-0.065,0.049-0.142,0.082-0.217,0.115c-0.177,0.078-0.354,0.157-0.532,0.235c-0.06,0.027-0.125,0.054-0.188,0.041
	c-0.047-0.009-0.087-0.039-0.125-0.068c-0.201-0.15-0.396-0.31-0.585-0.475c-0.031-0.027-0.063-0.056-0.078-0.094
	c-0.03-0.078,0.021-0.163,0.073-0.229c0.263-0.326,0.168-0.448,0.252-0.802c0.057-0.238,0.227-0.355,0.406-0.515
	c0.301-0.268,0.603-0.532,0.904-0.799c0.034-0.029,0.732,0.463,0.816,0.516c-0.11,0.265-0.062,0.596-0.125,0.881
	C99.404,65.729,99.375,65.833,99.34,65.935"/>
<path fill="#D77087" d="M99.74,45.285c-0.126,0.118-0.242,0.264-0.344,0.436c-0.423,0.721-0.485,1.611-0.341,2.436
	c0.228,1.305,0.867,2.547,1.241,3.816c0.429,1.453,0.855,2.906,1.283,4.359l-3.454,8.153l1.671,0.939l6.048-9.044
	c-0.662-1.9-1.315-3.756-1.854-5.685c-0.481-1.729-0.646-3.69-1.866-5.092C101.436,44.813,100.433,44.638,99.74,45.285"/>
<path fill="#2A2A49" d="M34.051,86.967c-0.309,1.672-0.561,3.575,0.524,4.904c1.045,1.281,2.917,1.512,4.592,1.646
	c2.798,0.223,5.819,0.396,8.196-1.059c1.646-1.007,2.787-2.762,3.018-4.641c0.016-0.119,0.026-0.242-0.008-0.357
	c-0.048-0.164-0.178-0.29-0.304-0.409c-1.009-0.957-2.019-1.912-3.028-2.869c-0.246-0.233-0.497-0.47-0.8-0.628
	c-0.255-0.133-0.539-0.204-0.821-0.272c-2.662-0.64-6.132-1.487-8.885-1.067C34.149,82.58,34.414,84.996,34.051,86.967"/>
<path fill="#B97363" d="M35.706,74.54c0.376-0.733,0.245-1.622-0.326-2.219c-1.046-1.091-2.091-2.181-3.136-3.272
	c-0.587-0.611-1.479-1.258-1.819-2.015c-0.603-1.338-0.787-3.072-1.082-4.503c-0.149-0.727-0.508-1.691-0.414-2.43
	c0.018-0.14,0.56-1.325,0.528-1.348c-0.003-0.002-0.253-0.207-0.253-0.207l-0.206,0.252l-0.229,0.023l0.371-0.891L28.1,57.567
	l-1,0.797c0.174,0.783,0.553,1.539,0.535,2.351c-0.008,0.344-0.071,0.684-0.108,1.025c-0.063,0.586-0.047,1.177-0.056,1.766
	c-0.008,0.57-0.127,1.141-0.127,1.701c0,1.251,0.01,2.503,0.015,3.754l5.094,5.957C33.362,75.98,35.07,75.782,35.706,74.54"/>
<path fill="#4E55A5" d="M31.211,68.127c0.034-0.163,0.07-0.326,0.107-0.488c0.685-0.03,1.375,0.059,2.066,0.009
	c0.85-0.062,1.686-0.255,2.534-0.338c0.381-0.037,0.765-0.052,1.147-0.067c1.692-0.064,0.537,2.48,0.313,3.369
	c-0.335,1.326-0.744,2.636-1.255,3.904c-0.269,0.667-0.567,1.323-0.91,1.955c-0.175,0.32-0.521,1.352-0.883,1.448
	c-0.293,0.076-0.533-0.226-0.694-0.481c-0.805-1.268-1.882-2.362-3.136-3.188c-0.086-0.056-0.178-0.118-0.211-0.215
	c-0.024-0.069-0.015-0.146-0.004-0.219C30.563,71.913,30.817,69.994,31.211,68.127"/>
<path fill="#B97363" d="M45.28,73.979c-0.376-0.733-0.244-1.622,0.327-2.219c1.045-1.091,2.091-2.181,3.136-3.272
	c0.586-0.611,1.479-1.258,1.819-2.015c0.603-1.338,0.787-3.072,1.081-4.503c0.15-0.727,0.508-1.691,0.414-2.43
	c-0.018-0.139-0.559-1.325-0.528-1.348c0.003-0.002,0.253-0.207,0.253-0.207l0.206,0.252l0.229,0.023l-0.371-0.891l1.04-0.364
	l0.999,0.797c-0.174,0.784-0.553,1.539-0.534,2.351c0.007,0.344,0.071,0.684,0.108,1.025c0.063,0.586,0.047,1.177,0.055,1.766
	c0.008,0.57,0.127,1.141,0.127,1.701c0,1.251-0.009,2.503-0.014,3.754l-5.094,5.957C47.624,75.419,45.917,75.221,45.28,73.979"/>
<path fill="#4E55A5" d="M49.774,67.567c-0.033-0.163-0.07-0.326-0.106-0.488c-0.685-0.03-1.376,0.059-2.067,0.009
	c-0.85-0.062-1.685-0.255-2.533-0.338c-0.382-0.037-0.766-0.052-1.148-0.067c-1.692-0.064-0.537,2.48-0.313,3.369
	c0.336,1.326,0.744,2.636,1.256,3.904c0.269,0.667,0.566,1.323,0.909,1.955c0.175,0.32,0.521,1.352,0.884,1.448
	c0.293,0.076,0.532-0.227,0.694-0.481c0.804-1.268,1.882-2.362,3.136-3.187c0.086-0.058,0.178-0.119,0.211-0.217
	c0.024-0.068,0.014-0.145,0.004-0.218C50.422,71.352,50.168,69.433,49.774,67.567"/>
<path fill="#4E55A5" d="M39.037,66.514c-1.375,0.261-2.562,0.797-3.354,2.158c-0.566,0.977-0.804,2.119-1.043,3.211
	c-0.625,2.854-0.904,5.763-1.217,8.661c-0.298,2.775-1.093,5.702-0.21,8.439c0.118,0.366,0.455,0.806,0.791,0.616
	c0.174-0.604,0.349-1.211,0.522-1.815c0.074-0.26,0.153-0.529,0.328-0.737c0.151-0.179,0.362-0.298,0.571-0.403
	c1.163-0.594,2.444-0.951,3.745-1.051c1.446-0.108,2.893,0.104,4.293,0.459c1.379,0.351,2.71,0.973,4.1,1.23
	c0.91,0.17,1.813,0.383,2.703,0.64c0.029,0.009,0.062,0.018,0.09,0.008c0.056-0.018,0.072-0.086,0.08-0.143
	c0.078-0.612,0.028-1.239-0.141-1.832c-0.171-0.599-0.16-1.254-0.22-1.878c-0.13-1.342-0.302-2.682-0.578-4.003
	c-0.603-2.869-1.646-5.629-2.152-8.521c-0.219-1.248-0.354-3.318-1.532-4.274c-1.281-1.039-4.172-1.091-5.799-0.908
	C39.679,66.41,39.354,66.455,39.037,66.514"/>
<path fill="#746153" d="M41.147,66.877c-0.27,0.179-0.94,0.316-1.684,0.13c-0.148-0.038-0.263-0.163-0.279-0.316
	c-0.051-0.43-0.07-0.864-0.062-1.296c0.003-0.112-1.526-0.599-1.698-0.723c-0.958-0.693-1.124-1.936-1.177-3.031
	c-0.024-0.504-0.036-1.039,0.219-1.475c0.291-0.495,0.865-0.749,1.417-0.909c0.909-0.265,1.865-0.365,2.809-0.297
	c0.863,0.063,1.799,0.324,2.268,1.05c0.675,1.041,0.504,3.086-0.07,4.128c-0.332,0.602-0.865,0.793-1.287,1.264
	C41.21,65.835,41.326,66.351,41.147,66.877"/>
<path fill="#1A1A1A" d="M43.723,58.779c0.133-0.238,0.265-0.471,0.178-0.717c-0.059-0.168-0.209-0.289-0.293-0.446
	c-0.203-0.388,0.043-0.88-0.1-1.294c-0.186-0.543-0.972-0.768-1.025-1.34c-0.207-0.186-0.452,0.17-0.684,0.322
	c-0.527,0.346-1.156-0.461-1.779-0.367c-0.474,0.07-0.785,0.648-1.265,0.627c-0.358-0.017-0.708-0.375-1.024-0.207
	c-0.14,0.074-0.213,0.231-0.336,0.332c-0.393,0.32-1.164,0-1.383,0.457c-0.129,0.268-0.074,0.504-0.35,0.684
	c-0.242,0.158-0.721-0.102-0.868,0.244c-0.032,0.074-0.028,0.16-0.022,0.242c0.058,0.832,0.115,1.664,0.172,2.495
	c0.015,0.228,0.035,0.469,0.169,0.652c0.094,0.13,0.239,0.224,0.303,0.372c0.079,0.183,0.01,0.397,0.058,0.59
	c0.076,0.313,1.092,1.918,1.396,1.385c0.109-0.19,0.07-0.429,0.034-0.646c-0.054-0.318-0.093-0.666,0.069-0.944
	c0.258-0.439,0.861-0.484,1.369-0.516c0.475-0.03,0.958-0.096,1.379-0.318c0.291-0.153,0.678-0.369,0.9-0.126
	c0.059,0.063,0.09,0.149,0.157,0.202c0.12,0.094,0.298,0.042,0.429-0.036c0.131-0.079,0.258-0.184,0.411-0.189
	c0.153-0.008,0.313,0.162,0.231,0.29c0.051,0.153,0.272-0.049,0.434-0.037c0.135,0.008,0.195,0.169,0.223,0.3
	c0.084,0.396,0.169,0.791,0.254,1.186c0.324,0.047,0.643-0.188,0.774-0.487c0.345-0.778-0.188-1.524-0.011-2.269
	C43.561,59.068,43.643,58.922,43.723,58.779"/>
<path fill="#FACD46" d="M26.706,55.095c-0.359-7.241,5.221-13.402,12.463-13.76c7.24-0.359,13.401,5.221,13.76,12.463
	c0.357,7.24-5.223,13.401-12.463,13.76C33.224,67.916,27.063,62.335,26.706,55.095"/>
<g opacity="0.08">
	<g>
		<defs>
			<rect id="SVGID_19_" x="29.117" y="42.916" width="23.827" height="24.643"/>
		</defs>
		<clipPath id="SVGID_20_">
			<use xlink:href="#SVGID_19_"  overflow="visible"/>
		</clipPath>
		<path clip-path="url(#SVGID_20_)" fill="#010101" d="M46.123,42.916c1.407,1.975,2.284,4.36,2.411,6.961
			c0.358,7.242-5.221,13.401-12.463,13.76c-2.514,0.125-4.898-0.468-6.955-1.596c2.511,3.521,6.707,5.731,11.349,5.502
			c7.241-0.358,12.821-6.52,12.463-13.76C52.694,49.056,49.987,45.039,46.123,42.916"/>
	</g>
</g>
<g opacity="0.2">
	<g>
		<defs>
			<rect id="SVGID_21_" x="27.567" y="42.291" width="22.443" height="20.087"/>
		</defs>
		<clipPath id="SVGID_22_">
			<use xlink:href="#SVGID_21_"  overflow="visible"/>
		</clipPath>
		<path clip-path="url(#SVGID_22_)" fill="#FFFFFF" d="M28.555,56.39c-0.333-6.723,4.848-12.443,11.571-12.775
			c3.93-0.195,7.516,1.495,9.885,4.275c-2.282-3.545-6.344-5.807-10.858-5.584c-6.723,0.332-11.903,6.052-11.57,12.775
			c0.138,2.793,1.207,5.319,2.891,7.295C29.356,60.642,28.665,58.599,28.555,56.39"/>
	</g>
</g>
<path fill="#2A2A49" d="M34.508,56.064c-0.354-0.312-0.877,0.077-0.68,0.506c1.088,2.373,3.539,3.966,6.307,3.828
	c2.72-0.134,4.972-1.902,5.853-4.309c0.161-0.439-0.403-0.784-0.722-0.441C43.439,57.602,39.497,60.452,34.508,56.064"/>
<path fill="#2A2A49" d="M43.03,50.82c0.325-0.946,1.182-1.59,2.18-1.639c0.978-0.049,1.885,0.49,2.311,1.371
	c0.082,0.17,0.033,0.366-0.116,0.48c-0.149,0.113-0.353,0.107-0.494-0.018c-0.762-0.668-1.94-1.178-3.224,0.198
	c-0.072,0.078-0.168,0.121-0.268,0.125c-0.074,0.004-0.151-0.014-0.221-0.056C43.038,51.187,42.969,50.997,43.03,50.82"/>
<path fill="#2A2A49" d="M31.765,51.376c0.325-0.945,1.181-1.589,2.181-1.638c0.977-0.049,1.883,0.49,2.31,1.371
	c0.082,0.169,0.034,0.366-0.116,0.479c-0.148,0.114-0.354,0.107-0.494-0.017c-0.762-0.669-1.939-1.179-3.224,0.198
	c-0.072,0.078-0.168,0.121-0.267,0.126c-0.076,0.003-0.152-0.015-0.222-0.058C31.774,51.744,31.704,51.554,31.765,51.376"/>
<path fill="#D77087" d="M32.556,56.634c0.062,1.265-0.912,2.34-2.177,2.402c-1.264,0.063-2.34-0.91-2.401-2.175
	c-0.063-1.265,0.911-2.34,2.176-2.403C31.418,54.397,32.493,55.371,32.556,56.634"/>
<path fill="#D77087" d="M51.835,55.681c0.063,1.264-0.912,2.34-2.176,2.402c-1.265,0.063-2.341-0.912-2.402-2.176
	c-0.063-1.265,0.911-2.34,2.177-2.402C50.698,53.443,51.772,54.417,51.835,55.681"/>
<path fill="#B97363" d="M38.707,95.601c-0.379,0.082-0.748,0-1.125,0.014c-0.177-1.312-0.223-2.588-0.133-3.922
	c0.671,0.554,1.101,0.11,1.261,1.314C38.76,93.397,38.543,95.02,38.707,95.601"/>
<path fill="#2A2A49" d="M37.401,94.976c-0.458-0.091-0.4,0.962-0.367,1.207c0.02,0.147,0.059,0.294,0.043,0.441
	c-0.019,0.162-0.102,0.309-0.184,0.449c-0.171,0.297-0.342,0.593-0.514,0.889c-0.076,0.133-0.154,0.269-0.184,0.42
	c-0.072,0.374,0.197,0.764,0.559,0.884c1.256,0.416,2.108-1.17,2.221-2.15c0.018-0.149,0.023-0.302,0.029-0.452
	c0.014-0.313,0.145-1.01-0.02-1.288c-0.193-0.325-0.581-0.011-0.88-0.1C37.829,95.193,37.586,95.013,37.401,94.976"/>
<path fill="#2A2A49" d="M40.513,76.86c0.112,0.125,0.215,0.256,0.309,0.392c0.75,1.088,1.017,2.452,0.986,3.774
	c-0.029,1.32-0.333,2.618-0.636,3.905c-0.364,1.554-0.834,3.103-0.912,4.684c-0.04,0.84-0.182,1.684-0.274,2.519
	c-0.083,0.745-0.174,1.491-0.229,2.239c-0.019,0.264-0.063,0.279-0.342,0.322c-0.345,0.053-0.692,0.076-1.041,0.07
	c-0.683-0.012-1.362-0.138-2.004-0.375c-0.455-0.168-0.318-1.045-0.358-1.44c-0.114-1.151-0.203-2.306-0.289-3.459
	c-0.173-2.306-0.384-4.609-0.451-6.92c-0.06-2-0.378-3.97,1.024-5.604c0.528-0.615,1.258-1.112,2.066-1.146
	C39.187,75.785,39.956,76.236,40.513,76.86"/>
<path fill="#B97363" d="M44.1,94.971c0.392,0.066,0.767-0.036,1.151-0.041c0.118-1.35,0.101-2.658-0.056-4.019
	c-0.659,0.6-1.121,0.166-1.226,1.406C43.936,92.719,44.239,94.37,44.1,94.971"/>
<path fill="#2A2A49" d="M45.405,94.268c0.465-0.115,0.459,0.965,0.437,1.216c-0.013,0.152-0.047,0.304-0.022,0.454
	c0.025,0.165,0.119,0.312,0.209,0.452c0.189,0.294,0.379,0.589,0.568,0.883c0.085,0.132,0.172,0.269,0.209,0.421
	c0.094,0.379-0.164,0.791-0.529,0.932c-1.263,0.486-2.213-1.095-2.375-2.092c-0.025-0.152-0.039-0.307-0.054-0.461
	c-0.028-0.318-0.196-1.024-0.042-1.318c0.18-0.343,0.594-0.039,0.896-0.146C44.979,94.511,45.217,94.315,45.405,94.268"/>
<path fill="#2A2A49" d="M41.71,76.882c-0.103,0.126-0.197,0.259-0.281,0.396c-0.678,1.091-0.872,2.428-0.782,3.709
	s0.445,2.526,0.799,3.762c0.426,1.491,0.955,2.973,1.104,4.504c0.039,0.4,0.811,4.889,0.727,4.894
	c0.543-0.026,1.084,0.122,1.631,0.063c0.592-0.065,1.184-0.104,1.772-0.191c-0.015-0.319,0.095-0.533,0.132-0.836
	c0.035-0.296,0.002-0.594,0.018-0.89c0.058-1.123,0.091-2.247,0.121-3.371c0.059-2.245,0.156-4.491,0.115-6.738
	c-0.037-1.943,0.182-3.87-1.257-5.393c-0.541-0.572-1.271-1.02-2.06-1.017C42.948,75.777,42.223,76.251,41.71,76.882"/>
</svg>
