<?xml version="1.0" encoding="utf-8"?>
<!-- Generator: Adobe Illustrator 16.0.0, SVG Export Plug-In . SVG Version: 6.00 Build 0)  -->
<!DOCTYPE svg PUBLIC "-//W3C//DTD SVG 1.1//EN" "http://www.w3.org/Graphics/SVG/1.1/DTD/svg11.dtd">
<svg version="1.1" xmlns="http://www.w3.org/2000/svg" xmlns:xlink="http://www.w3.org/1999/xlink" x="0px" y="0px"
	 width="562.129px" height="364.127px" viewBox="0 0 562.129 364.127" enable-background="new 0 0 562.129 364.127"
	 xml:space="preserve">
<g id="BACKGROUND" display="none">
	<linearGradient id="SVGID_1_" gradientUnits="userSpaceOnUse" x1="-111" y1="193.8452" x2="639" y2="193.8452">
		<stop  offset="0" style="stop-color:#F84E49"/>
		<stop  offset="1" style="stop-color:#EF3598"/>
	</linearGradient>
	<rect x="-111" y="-56.155" display="inline" fill="url(#SVGID_1_)" width="750" height="500"/>
	<g display="inline">
		<defs>
			<rect id="SVGID_2_" x="-111" y="-56.155" width="750" height="500"/>
		</defs>
		<clipPath id="SVGID_3_">
			<use xlink:href="#SVGID_2_"  overflow="visible"/>
		</clipPath>
		<g clip-path="url(#SVGID_3_)">
			<g opacity="0.49">
				<linearGradient id="SVGID_4_" gradientUnits="userSpaceOnUse" x1="186.5776" y1="139.3677" x2="686.3164" y2="139.3677">
					<stop  offset="0" style="stop-color:#F84E49"/>
					<stop  offset="1" style="stop-color:#EF3598"/>
				</linearGradient>
				<path fill="url(#SVGID_4_)" d="M513.984-56.333c-68.962,15.868-90.303,73.968-97.065,102.032
					c-5.238,21.736-17.652,42.065-36.553,55.55c-22.081,15.753-50.879,19.201-76.158,27.374
					c-22.483,7.269-47.329,19.942-55.584,43.705c-5.765,16.592-6.736,51.098-33.127,66.792
					c-8.885,5.284-24.749,10.271-27.929,21.731c-3.346,12.057,1.59,22.793,17.859,27.85c15.211,4.729,38.085-2.181,68.381,0
					c25.536,1.839,27.931,26.646,46.228,39.563c22.393,15.808,53.64,4.189,78.883,11.413c18.291,5.234,34.535,15.887,53.12,19.923
					c26.945,5.853,55.103,3.974,82.05-0.844c32.293-5.772,89.749-29.643,117.025-83.521c19.014-20.045,68.679-262.392,0-327.307
					c-19.841-18.754-87.297-38.57-113.422-30.64"/>
			</g>
			<g opacity="0.34">
				<linearGradient id="SVGID_5_" gradientUnits="userSpaceOnUse" x1="-200.7695" y1="384.9985" x2="138.8877" y2="384.9985">
					<stop  offset="0" style="stop-color:#F84E49"/>
					<stop  offset="1" style="stop-color:#EF3598"/>
				</linearGradient>
				<path fill="url(#SVGID_5_)" d="M-141.311,224.159c83.152,0.346,70.603,133.197,147.674,135.366
					c19.762,0.556,38.216-10.054,57.906-11.827c27.592-2.484,53.497,13.979,65.964,38.19c18.786,36.483,4.722,82.625-20.458,112.605
					c-52.678,62.722-155.286,57.461-219.722,17.172c-48.798-30.512-82.99-83.358-90.822-140.375"/>
			</g>
		</g>
	</g>
</g>
<g id="OBJECTS">
	<ellipse opacity="0.55" fill="#D9E8FF" cx="140.73" cy="266.576" rx="56.807" ry="5.231"/>
	<ellipse opacity="0.55" fill="#D9E8FF" cx="287.74" cy="275.371" rx="104.165" ry="5.232"/>
	<ellipse opacity="0.55" fill="#D9E8FF" cx="410.844" cy="296.252" rx="66.189" ry="5.231"/>
	<ellipse opacity="0.55" fill="#D9E8FF" cx="331.415" cy="291.073" rx="13.24" ry="2.769"/>
	<path opacity="0.5" fill="#B3C9FF" d="M363.156,139.268c0.217-1.749,0.256-3.546,0.09-5.373c-0.166-1.827-0.528-3.587-1.056-5.268
		l-6.452,1.551c-0.621-1.819-1.514-3.498-2.626-5l4.939-4.427c-2.215-2.839-5.018-5.174-8.208-6.841l-3.465,5.658
		c-1.678-0.825-3.49-1.399-5.392-1.682l0.362-6.626c-1.748-0.216-3.545-0.255-5.371-0.09c-1.826,0.166-3.589,0.529-5.27,1.057
		l1.551,6.452c-1.818,0.622-3.497,1.512-4.998,2.626l-4.429-4.94c-2.839,2.214-5.174,5.016-6.841,8.207l5.657,3.465
		c-0.824,1.679-1.398,3.49-1.682,5.391l-6.626-0.363c-0.216,1.75-0.254,3.546-0.088,5.373c0.166,1.827,0.528,3.587,1.055,5.269
		l6.453-1.551c0.62,1.819,1.513,3.498,2.626,5l-4.94,4.427c2.214,2.839,5.017,5.174,8.207,6.84l3.465-5.656
		c1.679,0.824,3.491,1.398,5.392,1.682l-0.362,6.625c1.748,0.217,3.545,0.257,5.371,0.091c1.827-0.166,3.589-0.529,5.27-1.058
		l-1.551-6.451c1.818-0.622,3.497-1.514,5.001-2.627l4.426,4.939c2.84-2.213,5.175-5.016,6.842-8.207l-5.657-3.465
		c0.824-1.678,1.398-3.49,1.682-5.392L363.156,139.268z M339.177,146.372c-5.637,0.512-10.621-3.642-11.133-9.278
		s3.643-10.621,9.278-11.134c5.637-0.512,10.621,3.643,11.133,9.279C348.968,140.875,344.813,145.859,339.177,146.372z"/>
	<path opacity="0.5" fill="#B3C9FF" d="M321.939,97.057c0.13-1.038,0.152-2.104,0.054-3.189c-0.098-1.084-0.314-2.129-0.627-3.128
		l-3.83,0.92c-0.368-1.079-0.897-2.075-1.56-2.968l2.934-2.628c-1.314-1.685-2.978-3.071-4.873-4.061l-2.057,3.359
		c-0.996-0.49-2.071-0.831-3.2-0.999l0.216-3.933c-1.039-0.128-2.104-0.151-3.189-0.053s-2.129,0.313-3.129,0.627l0.922,3.83
		c-1.079,0.369-2.076,0.898-2.968,1.559l-2.628-2.932c-1.686,1.314-3.071,2.978-4.061,4.872l3.358,2.056
		c-0.489,0.997-0.83,2.073-0.998,3.201l-3.934-0.215c-0.129,1.038-0.151,2.105-0.053,3.189c0.098,1.084,0.313,2.129,0.627,3.128
		l3.83-0.921c0.368,1.08,0.897,2.077,1.559,2.969l-2.932,2.628c1.313,1.685,2.977,3.071,4.871,4.06l2.057-3.358
		c0.997,0.489,2.071,0.831,3.2,0.999l-0.216,3.933c1.038,0.128,2.105,0.151,3.189,0.053c1.085-0.098,2.129-0.314,3.127-0.627
		l-0.92-3.829c1.08-0.369,2.077-0.898,2.969-1.56l2.628,2.933c1.686-1.314,3.07-2.978,4.061-4.872l-3.358-2.057
		c0.488-0.997,0.83-2.072,0.998-3.201L321.939,97.057z M307.704,101.274c-3.345,0.304-6.303-2.162-6.607-5.508
		c-0.304-3.346,2.162-6.304,5.507-6.608c3.347-0.304,6.306,2.162,6.61,5.507C313.518,98.011,311.052,100.97,307.704,101.274z"/>
	<g>
		<g>
			<path fill="#ACC9F9" d="M367.858,224.935c3.136-3.932,6.368-8.062,7.388-12.985c0.942-4.563,2.29-9.564,2.127-14.22
				c-0.162-4.66,0.699-9.314,2.238-13.716c4.828-13.796,10.595-11.53,12.63-10.194c2.001,1.313,2.728,3.756,2.392,7.512
				c-0.27,3.021-4.09,16.844,0.751,15.324c5.604-1.761,7.238-16.485,8.677-21.281c2.152-7.173,6.118-14.631,12.353-19.029
				c3.074-2.167,7.365-3.504,10.513-1.445c1.884,1.232,2.924,3.438,3.383,5.642c1.383,6.639-1.646,12.986-4.876,18.592
				c-1.353,2.344-11.273,12.729-4.112,12.488c1.709-0.058,17.057-9.281,17.017,2.245c-0.015,4.058-4.995,7.606-12.732,11.856
				c-4.831,2.654-22.276,8.983-21.999,13.51c0.276,4.525,10.246-1.412,8.147,6.691c-1.176,4.54-7.648,7.109-11.975,8.341
				c-2.059,0.586-4.228,0.76-6.243,1.478c-2.391,0.852-5.483,3.25-4.098,6.133c0.604,1.258,1.984,2.021,2.548,3.299
				c0.572,1.298,0.144,2.873-0.747,3.976c-0.892,1.104-2.174,1.816-3.465,2.404c-8.278,3.764-18.012,3.333-26.646,0.478
				c-8.637-2.854-16.344-7.951-23.642-13.38"/>
		</g>
		<g opacity="0.25">
			<path fill="none" stroke="#FFFFFF" stroke-linecap="round" stroke-linejoin="round" stroke-miterlimit="10" d="M421.604,162.056
				c0,0-15.293,47.054-48.283,73.475"/>
			<path fill="none" stroke="#FFFFFF" stroke-linecap="round" stroke-linejoin="round" stroke-miterlimit="10" d="M431.001,195.494
				c0,0-17.927,10.724-31.598,10.89"/>
			<path fill="none" stroke="#FFFFFF" stroke-linecap="round" stroke-linejoin="round" stroke-miterlimit="10" d="M389.021,179.523
				c-1.799,7.474-5.099,28.55,0.808,39.65"/>
			<path fill="none" stroke="#FFFFFF" stroke-linecap="round" stroke-linejoin="round" stroke-miterlimit="10" d="M405.53,226.755
				c0,0-7.108,4.751-27.25,4.533"/>
			<path fill="none" stroke="#FFFFFF" stroke-linecap="round" stroke-linejoin="round" stroke-miterlimit="10" d="M387.923,246.021
				c0,0-10.479,0.53-18.934-5.967"/>
		</g>
	</g>
	<g>
		<g>
			<path fill="#BDD0FF" d="M432.5,254.733c-3.641-12.542-0.936-26.064,3.364-38.395c1.035-2.965,2.218-5.99,4.433-8.216
				c1.132-1.137,2.7-2.07,4.273-1.751c2.309,0.468,3.278,3.219,3.54,5.56c1.644,14.783-8.099,28.334-10.563,43.002"/>
		</g>
		<g>
			<path fill="#BDD0FF" d="M422.131,248.437c-0.712-3.724-1.706-7.431-3.474-10.784c-1.767-3.354-4.362-6.351-7.715-8.117
				c-1.487-0.786-3.474-1.256-4.732-0.141c-1.382,1.227-0.938,3.488-0.12,5.147c4.475,9.08,15.906,13.148,20.254,22.289"/>
		</g>
		<g>
			<path fill="#BDD0FF" d="M427.407,255.844c-2.836-5.296-5.574-10.703-7.14-16.502c-1.566-5.801-1.899-12.076,0.059-17.757
				c0.604-1.752,2.106-3.756,3.858-3.151c0.646,0.222,1.121,0.766,1.534,1.311c3.263,4.295,4.516,9.781,5.106,15.143
				s0.607,10.806,1.786,16.07c0.176,0.784,0.396,1.6,0.947,2.185c0.553,0.583,1.537,0.835,2.17,0.339
				c0.354-0.278,0.528-0.724,0.665-1.154c0.749-2.346,12.382-26.495,22.919-28.193c0.853-0.137,1.725-0.23,2.579-0.088
				c13.214,2.194-16.555,29.808-16.778,33.919c10.771-9.233,13.054-10.934,17.957-11.817c3.778-0.683,10.362,2.669,8.195,7.288
				c-1.498,3.196-5.237,4.623-8.698,5.314c-3.78,0.753-7.667,0.995-11.374,2.05c-3.709,1.052-7.357,3.082-9.244,6.442"/>
		</g>
	</g>
	<g>
		<g>
			<path fill="#ACC9F9" d="M200.838,199.457c-10.637-5.596-4.368-15.936-5.942-22.679c-2.594-11.1-5.536-13.327-11.614-11.158
				c-2.972,1.061-4.631,5.384-5.291,8.174c-1.048,4.438-0.252,9.051,0.349,13.49c0.521,3.839,2.811,12.141-1.772,13.604
				c-4.582,1.462-5.286-4.609-10.841-9.017c-2.497-1.982-9.235-2.812-10.728,2.105c-2.651,8.735,1.466,12.89,22.13,24.46
				c3.521,1.973,11.137,4.044,10.695,6.021c-0.438,1.959-5.817-0.394-9.79,0.961c-6.42,2.19-3.525,6.229-1.267,7.535
				c17.964,10.378,32.563,5.812,39.582,9.061c3.056,1.413,5.081,4.338,7.473,6.709c5.287,5.243,7.284,4.319,14.727,4.129
				c4.351-0.113,8.814-1.347,12.062-4.241c1.327-1.181,2.492-2.966,1.9-4.642c-0.375-1.063-1.362-1.772-2.32-2.364
				c-6.699-4.145-14.606-5.947-21.465-9.824c-10.372-5.862-17.856-16.584-19.786-28.341"/>
		</g>
		<g opacity="0.25">
			<path fill="none" stroke="#FFFFFF" stroke-linecap="round" stroke-linejoin="round" stroke-miterlimit="10" d="M185.601,173.082
				c-0.041,2.918,0.624,5.794,1.284,8.638c2.242,9.653,4.521,19.41,8.973,28.266c5.827,11.587,15.083,21.047,24.467,30.001
				c3.303,3.152,6.734,6.329,10.93,8.129"/>
			<path fill="none" stroke="#FFFFFF" stroke-linecap="round" stroke-linejoin="round" stroke-miterlimit="10" d="M160.407,199.468
				c10.524,10.381,25.259,15.253,39.74,18.229"/>
			<path fill="none" stroke="#FFFFFF" stroke-linecap="round" stroke-linejoin="round" stroke-miterlimit="10" d="M183.575,230.804
				c8.104,1.64,24.258,5.313,31.335,3.91"/>
		</g>
	</g>
	<path fill="#B3C9FF" d="M419.661,89.553l5.268-3.923c-2.572-4.048-6.006-7.481-10.053-10.053l-3.924,5.267
		c-2.245-1.368-4.708-2.402-7.332-3.041l0.952-6.506c-2.292-0.511-4.665-0.803-7.111-0.803c-2.444,0-4.818,0.292-7.111,0.803
		l0.953,6.506c-2.623,0.639-5.087,1.673-7.332,3.041l-3.924-5.267c-4.046,2.572-7.48,6.005-10.053,10.053l5.269,3.923
		c-1.369,2.245-2.403,4.708-3.041,7.333l-6.508-0.952c-0.511,2.292-0.802,4.665-0.802,7.11c0,2.446,0.291,4.819,0.802,7.111
		l6.508-0.952c0.638,2.625,1.672,5.088,3.041,7.332l-5.269,3.923c2.572,4.048,6.007,7.481,10.053,10.053l3.924-5.267
		c2.245,1.368,4.707,2.401,7.332,3.041l-0.953,6.506c2.293,0.511,4.667,0.803,7.111,0.803c2.446,0,4.819-0.292,7.111-0.803
		l-0.952-6.506c2.624-0.639,5.087-1.673,7.332-3.041l3.924,5.267c4.047-2.572,7.48-6.005,10.053-10.053l-5.268-3.923
		c1.368-2.244,2.401-4.708,3.041-7.332l6.505,0.952c0.513-2.292,0.804-4.665,0.804-7.111c0-2.445-0.291-4.819-0.804-7.11
		l-6.505,0.952C422.063,94.262,421.029,91.798,419.661,89.553z M397.461,120.32c-9.542,0-17.275-7.735-17.275-17.276
		s7.733-17.276,17.275-17.276s17.277,7.735,17.277,17.276S407.003,120.32,397.461,120.32z"/>
	<path fill="#B3C9FF" d="M213.315,125.336l2.21-3.177c-2.195-1.781-4.755-3.056-7.498-3.736l-1.207,3.677
		c-1.51-0.345-3.079-0.461-4.664-0.328l-0.686-3.813c-1.375,0.143-2.756,0.424-4.123,0.881c-1.366,0.457-2.638,1.064-3.821,1.778
		l1.748,3.458c-1.346,0.847-2.53,1.886-3.527,3.07l-3.178-2.21c-1.781,2.194-3.056,4.755-3.736,7.498l3.676,1.206
		c-0.344,1.51-0.46,3.08-0.327,4.666l-3.813,0.685c0.143,1.376,0.424,2.756,0.881,4.123c0.458,1.366,1.064,2.638,1.778,3.823
		l3.458-1.749c0.847,1.347,1.885,2.53,3.069,3.528l-2.208,3.177c2.194,1.781,4.755,3.057,7.498,3.737l1.206-3.677
		c1.51,0.344,3.08,0.461,4.665,0.328l0.686,3.813c1.375-0.143,2.755-0.423,4.122-0.881c1.368-0.457,2.638-1.063,3.823-1.778
		l-1.748-3.457c1.347-0.848,2.529-1.886,3.527-3.07l3.178,2.209c1.78-2.194,3.056-4.754,3.736-7.497l-3.677-1.207
		c0.344-1.51,0.462-3.079,0.328-4.665l3.813-0.686c-0.143-1.375-0.423-2.756-0.881-4.123c-0.458-1.366-1.065-2.638-1.779-3.823
		l-3.457,1.749C215.538,127.518,214.5,126.334,213.315,125.336z M206.532,146.279c-5.11,1.71-10.64-1.046-12.351-6.156
		s1.046-10.64,6.156-12.351c5.11-1.71,10.639,1.046,12.35,6.156C214.399,139.039,211.642,144.568,206.532,146.279z"/>
	<g>
		<path fill="#FFFFFF" d="M373.751,275.383H198.525V141.973c0-5.583,4.526-10.108,10.109-10.108h155.007
			c5.583,0,10.109,4.526,10.109,10.108V275.383z"/>
		<path opacity="0.55" fill="#DBE0FE" d="M267.343,264.545h-53.776c-1.282,0-2.32-1.039-2.32-2.32V237.85
			c0-1.281,1.038-2.319,2.32-2.319h53.776c1.281,0,2.32,1.038,2.32,2.319v24.375C269.663,263.506,268.624,264.545,267.343,264.545z"
			/>
		<path opacity="0.55" fill="#DBE0FE" d="M314.389,159.071h-101.83c-0.724,0-1.312-0.587-1.312-1.313v-2.569
			c0-0.724,0.588-1.313,1.312-1.313h101.83c0.725,0,1.312,0.588,1.312,1.313v2.569C315.7,158.484,315.113,159.071,314.389,159.071z"
			/>
		<path opacity="0.55" fill="#DBE0FE" d="M314.389,169.807h-101.83c-0.724,0-1.312-0.587-1.312-1.313v-2.569
			c0-0.725,0.588-1.313,1.312-1.313h101.83c0.725,0,1.312,0.587,1.312,1.313v2.569C315.7,169.219,315.113,169.807,314.389,169.807z"
			/>
		<path opacity="0.55" fill="#DBE0FE" d="M314.389,180.542h-101.83c-0.724,0-1.312-0.587-1.312-1.313v-2.569
			c0-0.725,0.588-1.313,1.312-1.313h101.83c0.725,0,1.312,0.588,1.312,1.313v2.569C315.7,179.955,315.113,180.542,314.389,180.542z"
			/>
		<path opacity="0.55" fill="#DBE0FE" d="M314.389,191.277h-101.83c-0.724,0-1.312-0.587-1.312-1.312v-2.569
			c0-0.726,0.588-1.313,1.312-1.313h101.83c0.725,0,1.312,0.587,1.312,1.313v2.569C315.7,190.689,315.113,191.277,314.389,191.277z"
			/>
		<path opacity="0.55" fill="#DBE0FE" d="M314.389,202.013h-101.83c-0.724,0-1.312-0.588-1.312-1.313v-2.568
			c0-0.726,0.588-1.313,1.312-1.313h101.83c0.725,0,1.312,0.587,1.312,1.313v2.568C315.7,201.425,315.113,202.013,314.389,202.013z"
			/>
		<path opacity="0.55" fill="#DBE0FE" d="M314.389,212.748h-101.83c-0.724,0-1.312-0.586-1.312-1.312v-2.57
			c0-0.726,0.588-1.312,1.312-1.312h101.83c0.725,0,1.312,0.586,1.312,1.312v2.57C315.7,212.162,315.113,212.748,314.389,212.748z"
			/>
		<g>
			<polygon fill="#DBE0FE" points="316.354,258.143 317.393,260.25 319.719,260.588 318.036,262.229 318.433,264.545 
				316.354,263.451 314.274,264.545 314.67,262.229 312.988,260.588 315.313,260.25 			"/>
			<polygon fill="#DBE0FE" points="326.67,258.143 327.71,260.25 330.036,260.588 328.353,262.229 328.749,264.545 326.67,263.451 
				324.589,264.545 324.985,262.229 323.304,260.588 325.629,260.25 			"/>
			<polygon fill="#DBE0FE" points="336.985,258.143 338.025,260.25 340.352,260.588 338.667,262.229 339.064,264.545 
				336.985,263.451 334.905,264.545 335.302,262.229 333.62,260.588 335.945,260.25 			"/>
			<polygon fill="#DBE0FE" points="347.301,258.143 348.34,260.25 350.666,260.588 348.983,262.229 349.381,264.545 
				347.301,263.451 345.221,264.545 345.618,262.229 343.935,260.588 346.261,260.25 			"/>
			<polygon fill="#DBE0FE" points="357.616,258.143 358.656,260.25 360.982,260.588 359.3,262.229 359.697,264.545 357.616,263.451 
				355.536,264.545 355.934,262.229 354.251,260.588 356.576,260.25 			"/>
		</g>
		<g>
			<linearGradient id="SVGID_6_" gradientUnits="userSpaceOnUse" x1="245.5039" y1="208.9546" x2="329.5713" y2="208.9546">
				<stop  offset="0" style="stop-color:#F84E49"/>
				<stop  offset="1" style="stop-color:#EF3598"/>
			</linearGradient>
			<path fill="url(#SVGID_6_)" d="M306.601,175.947c-12.38-4.111-19.063-11.708-19.063-11.708s-6.684,7.597-19.063,11.708
				c-11.084,3.681-22.972,3.239-22.972,3.239s0,40.307,13.822,56.547c12.98,15.251,28.212,17.938,28.212,17.938
				s15.231-2.688,28.212-17.938c13.821-16.24,13.821-56.547,13.821-56.547S317.684,179.628,306.601,175.947z"/>
			<path opacity="0.75" fill="#D62984" d="M286.139,247.25c-3.435-0.943-14.131-4.611-23.456-15.566
				c-8.547-10.042-11.456-33.143-12.151-46.408c4.902-0.315,11.798-1.169,18.513-3.399c7.662-2.545,13.423-6.308,17.094-9.219
				c3.668,2.911,9.43,6.674,17.09,9.219c6.717,2.229,13.613,3.083,18.516,3.399c-0.694,13.263-3.604,36.365-12.152,46.408
				C300.268,242.638,289.572,246.306,286.139,247.25z"/>
			<linearGradient id="SVGID_7_" gradientUnits="userSpaceOnUse" x1="252.6416" y1="210.1968" x2="319.6348" y2="210.1968">
				<stop  offset="0" style="stop-color:#F84E49"/>
				<stop  offset="1" style="stop-color:#EF3598"/>
			</linearGradient>
			<path fill="url(#SVGID_7_)" d="M286.141,245.181c-3.649-1.051-13.271-4.623-21.928-14.796
				c-7.833-9.204-10.739-30.071-11.571-43.261c4.818-0.416,10.994-1.339,17.038-3.347c7.147-2.373,12.657-5.718,16.461-8.564
				c3.805,2.846,9.314,6.191,16.462,8.564c6.043,2.006,12.215,2.93,17.032,3.347c-0.842,13.199-3.757,34.086-11.566,43.261
				C299.411,240.558,289.791,244.13,286.141,245.181z"/>
			<g>
				<g>
					<circle fill="#FFFFFF" cx="286.138" cy="201.732" r="7.059"/>
					<path fill="#FFFFFF" d="M286.139,223.683L286.139,223.683c-1.643,0-2.974-1.33-2.974-2.973v-16.272
						c0-1.642,1.331-2.973,2.974-2.973l0,0c1.643,0,2.973,1.331,2.973,2.973v16.272
						C289.111,222.353,287.781,223.683,286.139,223.683z"/>
				</g>
			</g>
			<path opacity="0.25" fill="#5890F4" d="M305.2,175.947c-12.379-4.111-19.062-11.708-19.062-11.708v89.433
				c0,0,15.231-2.688,28.211-17.938c13.822-16.24,13.822-56.547,13.822-56.547S316.284,179.628,305.2,175.947z"/>
		</g>
		<linearGradient id="SVGID_8_" gradientUnits="userSpaceOnUse" x1="198.5254" y1="139.3257" x2="373.751" y2="139.3257">
			<stop  offset="0" style="stop-color:#F84E49"/>
			<stop  offset="1" style="stop-color:#EF3598"/>
		</linearGradient>
		<path fill="url(#SVGID_8_)" d="M363.642,131.864H208.634c-5.583,0-10.109,4.526-10.109,10.108v4.814h175.226v-4.814
			C373.751,136.39,369.225,131.864,363.642,131.864z"/>
		<g>
			<circle fill="#FFFFFF" cx="346.129" cy="139.326" r="1.619"/>
			<circle fill="#FFFFFF" cx="354.174" cy="139.326" r="1.62"/>
			<circle fill="#FFFFFF" cx="362.22" cy="139.326" r="1.62"/>
		</g>
	</g>
	<g>
		<path fill="#ACC9F9" d="M124.46,263.943c0,0-33.145,0-41.18,0s-6.731-9.53,15.623-5.29c-5.484-2.507-5.517-5.864-5.051-6.76
			c0.428-0.822,1.994-1.352,2.917-1.271c2.843,0.243,5.002,1.986,7.493,3.378c-4.507-2.931-7.308-8.311-7.126-13.683
			c0.05-1.479,0.37-3.063,1.456-4.065c1.221-1.126,3.216-1.878,4.845-1.553c3.016,0.598,8.562,5.634,10.772,7.772
			c-11.263-10.359-15.552-26.685-8.34-30.41c12.139-6.27,21.309,29.247,21.309,29.247s-6.038-26.688,4.09-26.845
			c10.128-0.156,1.893,31.005,1.893,31.005"/>
	</g>
	<path fill="#FFFFFF" stroke="#ACC9F9" stroke-miterlimit="10" d="M457.15,260.367c-2.016,0-3.947,0.346-5.759,0.955
		c-0.436-15.049-12.763-27.115-27.915-27.115c-15.429,0-27.938,12.508-27.938,27.937c0,0.707,0.035,1.405,0.086,2.097
		c-2.694-4.548-7.639-7.605-13.308-7.605c-8.548,0-15.477,6.929-15.477,15.477c0,1.212,0.153,2.386,0.417,3.519
		c-1.597-0.89-3.433-1.4-5.389-1.4c-6.127,0-11.097,4.967-11.097,11.097c0,6.128,4.97,11.096,11.097,11.096
		c6.128,0,87.479,0,95.282,0c9.955,0,18.027-8.071,18.027-18.027C475.178,268.437,467.105,260.367,457.15,260.367z"/>
	<path fill="#FFFFFF" stroke="#ACC9F9" stroke-miterlimit="10" d="M120.823,244.707c1.326,0,2.595,0.227,3.786,0.628
		c0.286-9.895,8.391-17.828,18.354-17.828c10.145,0,18.369,8.225,18.369,18.369c0,0.464-0.023,0.923-0.057,1.379
		c1.772-2.991,5.022-5.002,8.75-5.002c5.62,0,10.175,4.556,10.175,10.176c0,0.797-0.101,1.569-0.274,2.313
		c1.049-0.584,2.257-0.919,3.543-0.919c4.029,0,7.295,3.266,7.295,7.294c0,4.029-3.266,7.297-7.295,7.297
		c-4.029,0-57.515,0-62.646,0c-6.546,0-11.853-5.307-11.853-11.854S114.277,244.707,120.823,244.707z"/>
	<path fill="#DBE0FE" d="M373.238,181.994l4.131-1.48c-0.855-3.09-2.381-5.953-4.467-8.386l-3.534,2.603
		c-1.17-1.312-2.542-2.453-4.096-3.373l1.876-3.974c-1.363-0.773-2.825-1.423-4.389-1.899c-1.563-0.477-3.137-0.753-4.701-0.872
		l-0.659,4.345c-1.803-0.104-3.578,0.077-5.281,0.514l-1.481-4.132c-3.088,0.855-5.952,2.381-8.385,4.468l2.603,3.534
		c-1.313,1.169-2.453,2.541-3.373,4.095l-3.974-1.877c-0.773,1.365-1.423,2.826-1.899,4.39c-0.477,1.563-0.753,3.137-0.872,4.702
		l4.346,0.659c-0.104,1.803,0.076,3.578,0.514,5.28l-4.132,1.48c0.855,3.089,2.382,5.954,4.469,8.388l3.533-2.604
		c1.169,1.312,2.542,2.453,4.095,3.373l-1.877,3.973c1.365,0.773,2.827,1.423,4.39,1.898c1.564,0.478,3.139,0.755,4.702,0.873
		l0.659-4.345c1.803,0.104,3.578-0.078,5.28-0.515l1.479,4.132c3.091-0.854,5.955-2.381,8.388-4.468l-2.604-3.532
		c1.313-1.17,2.454-2.542,3.373-4.097l3.975,1.877c0.773-1.365,1.422-2.826,1.899-4.389c0.476-1.563,0.752-3.138,0.872-4.702
		l-4.346-0.66C373.855,185.472,373.675,183.696,373.238,181.994z M353.61,195.5c-5.085-1.55-7.95-6.929-6.401-12.014
		c1.551-5.085,6.93-7.951,12.014-6.401c5.086,1.551,7.951,6.929,6.402,12.014C364.073,194.184,358.695,197.048,353.61,195.5z"/>
	<g>
		<g>
			<ellipse fill="#ACC9F9" cx="362.821" cy="311.724" rx="21.939" ry="2.848"/>
		</g>
		<g>
			<path fill="#FFCCB0" d="M373.827,304.397c0,0,0.278,3.031,0.388,3.801c0.108,0.77,2.578,0.661,2.838,0.24
				c0.26-0.419,0.164-3.982,0.164-3.982"/>
			<path fill="#7C3327" d="M377.749,309.078c0.055,0.807-0.082,2.136-0.082,2.136l-2.839,0.191l-0.173-0.466
				c0,0-0.888,0.536-1.612,0.585l-2.396,0.161c-1.754,0.118-2.766-0.039-2.83-0.345c-0.273-1.277,1.827-1.36,2.372-1.397
				c1.568-0.104,3.216-0.952,3.531-1.773c0.229-0.594,0.103-0.733,0.433-0.647c0,0,0.297,0.044,0.516,0.388
				c0.337,0.528,0.928,0.858,1.535,0.709c0.348-0.086,0.691-0.243,0.93-0.527C377.133,308.091,377.695,308.271,377.749,309.078z"/>
		</g>
		<g>
			<path fill="#FFCCB0" d="M354.471,305.38c0,0-0.02,2.149,0.132,2.912c0.152,0.763,2.611,0.518,2.846,0.083
				c0.236-0.435-0.057-3.987-0.057-3.987"/>
			<path fill="#7C3327" d="M358.161,309.109c0.066,0.805,0.063,2.327,0.063,2.327l-2.521,0.607l-0.32-0.429
				c0,0-0.703,0.602-1.479,0.808c-0.578,0.151-1.783,0.27-2.378,0.23c-2.083-0.14-3.519-0.79-3.591-1.094
				c-0.299-1.273,2.47-1.114,3.032-1.161c1.616-0.134,2.706-1.295,3.022-2.12c0.229-0.601,0.094-0.736,0.438-0.656
				c0,0,0.307,0.037,0.537,0.379c0.354,0.521,0.97,0.839,1.595,0.678c0.357-0.091,0.711-0.256,0.951-0.545
				C357.509,308.133,358.093,308.303,358.161,309.109z"/>
		</g>
		<path fill="#F4713D" d="M369.608,219.815c0.247-0.29,0.396,3.122,3.839,4.855c3.467,1.745,9.02,0.798,10.795,0.09
			c2.79-1.111,1.873-19.106-1.392-24.899c-0.763-1.354-3.731-2.023-5.549-2.401c-0.516,4.881,1.362,16.803,4.124,21.827
			C381.271,220.208,369.608,219.815,369.608,219.815z"/>
		<g>
			<path fill="#E25833" d="M383.086,220.609c0.813-1.117-0.406-13.645-0.334-15.573l-3.842,6.991
				c0.687,2.867-2.177,7.897-5.608,7.864l-0.493,0.691C374.831,221.054,382.27,221.726,383.086,220.609z"/>
		</g>
		<path fill="#30334C" d="M367.861,267.116c0.223,4.399,0.601,8.941,1.22,12.104c0.525,2.684,6.602,1.069,6.449-1.31
			c-0.215-3.38,1.281-9.551,2.623-25.61c0.193-2.432,1.286-2.711,2.012-7.711c0.717-5.008-2.059-10.224-2.059-10.224l-10.376-0.668
			l-0.151,14.587l-0.044,4.933C367.535,253.217,367.508,259.983,367.861,267.116z"/>
		<path fill="#30334C" d="M375.512,277.347c0,0,1.963,3.691,2.25,7.203c0.422,5.141-0.099,22.06-0.099,22.06
			s-2.655,0.576-4.071,0.157c0,0-4.802-28.234-5.03-31.462C368.335,272.078,375.512,277.347,375.512,277.347z"/>
		<path fill="#262A3F" d="M367.861,267.116c0.739-2.372,2.198-6.905,3.401-9.466c1.68-3.582,2.664-5.729,2.664-5.729
			c5.941-6.234,0.638-13.711,0.638-13.711s-2.964,4.009-3.302,4.425c-0.319,0.387-2.256,3.791-3.684,5.65l-0.044,4.933
			C367.535,253.217,367.508,259.983,367.861,267.116z"/>
		<path fill="#30334C" d="M359.283,279.002c-0.239-3.777,2.493-8.404,2.493-8.404s-7.917-6.069-8.041-7.477
			c0,0-1.128,8.889-1.532,11.63c-0.702,4.762,1.673,31.927,1.673,31.927s1.724,0.478,4.014,0.055c0,0,0.427-10.492,2.143-17.6
			C360.846,285.763,359.566,279.935,359.283,279.002z"/>
		<path fill="#30334C" d="M359.944,234.347c-3.092,6.899-6.448,29.162-7.254,36.848c-0.342,3.26,2.374,8.196,5.533,5.249
			c3.772-3.516,9.081-20.75,10.977-23.596c1.896-2.844,8.993-5.452,4.146-19.885"/>
		<path fill="#FFCCB0" d="M374.866,195.617c0,0-0.843-2.855-0.474-4.963s1.634-5.899,1.159-8.744
			c-0.474-2.845-4.056-5.215-7.849-4.847c-3.792,0.369-4.899,4.004-5.53,6.111c-0.633,2.106-0.528,5.32-0.369,7.058
			c0.158,1.738,1.105,3.109,1.738,3.477c0.632,0.369,3.01-0.117,3.427,0.336c0.418,0.455,0.734,3.14,0.734,3.14"/>
		<path fill="#E25833" d="M376.552,198.014c0,0-0.072-1.675-0.609-2.305c-0.538-0.631-4.408-0.913-5.582-0.841
			c-1.171,0.073-4.141,1.314-4.542,1.594c-0.4,0.278,0.23,1.927,0.23,1.927L376.552,198.014z"/>
		<path fill="#7C3327" d="M374.709,192.023c0,0-5.182,0.142-6.269,0c-1.493-0.193-3.312-1.361-3.444-3.153
			c1.269-0.033,1.368-2.672,0.684-3.673c-0.685-1.001-1.559-0.391-1.664,0.557c-0.104,0.948-0.007,0.65-0.255,0.776
			c-0.335,0.169-0.805,0.146-0.677-1.684c0.112-1.587,0.221-1.989,0.695-3.043c0.474-1.054,0.729-0.994,1.157-1.185
			c-0.46-0.224-0.958-0.251-1.869-1.673c-1.054-1.647-0.919-3.393,1.056-5.015c0.029,0.47,0.595,1.299,1.773,1.623
			c2.285,0.627,6.435,0.104,8.45,1.283c0.859,0.502,1.623,1.623,1.205,2.491c0,0,1.665-0.263,1.766,3.029
			c0.199,6.667-2.055,7.269-2.214,8.296C374.946,191.682,375.235,191.786,374.709,192.023z"/>
		<g>
			<path fill="#F4713D" d="M359.944,234.347c0.493,0.18,0.929,0.472,1.438,0.625c1.217,0.363,2.497,0.158,3.735,0.049
				c1.283-0.115,2.565-0.234,3.851-0.332c6.698-0.286,8.996,1.323,10.081-0.306c0.209-0.312,0.332-0.773,0.232-1.372
				c-0.232-1.475-0.716-1.98-0.523-3.464c0.166-1.244,0.396-2.727,0.72-4.423c1.105-5.869,3.295-14.832,3.594-20.224
				c0.425-7.716-7.415-7.647-7.415-7.647c-11.518-0.717-15.807,2.598-16.433,7.548c-0.047,0.348-0.074,0.727-0.102,1.122
				c-0.295,5.105,1.154,15.657,1.891,21.811C361.217,229.43,358.96,233.987,359.944,234.347z"/>
			<path fill="#E25833" d="M359.519,234.8c0.483,0.42,1.904,0.533,3.876,0.367c-1.777,0.129-3.62-0.981-3.225-1.895
				c0.397-0.921,1.5-2.89,1.627-4.574c0.468-6.202,0.345-23.78,0.588-23.493c-0.277,0.552-1.069,1.327-3.299,1.842
				c-0.045,5.133,0.902,14.218,1.256,19.968C360.693,232.717,357.688,233.215,359.519,234.8z"/>
		</g>
		<path fill="#FFCCB0" d="M335.765,190.672c0.03-0.299,0.415-0.157,0.518,0.09c0.013,0.033,0.032,0.109,0.056,0.212
			c-0.038-0.492-0.064-0.894-0.055-0.992c0.029-0.284,0.386-0.18,0.508,0.042c-0.009-0.199-0.011-0.348-0.006-0.412
			c0.029-0.364,0.42-0.215,0.521,0.084c0.022,0.067,0.054,0.256,0.09,0.503c-0.005-0.131-0.009-0.231-0.003-0.277
			c0.029-0.299,0.374-0.223,0.475,0.022c0.033,0.081,0.052,0.227,0.107,0.579c0.048,0.3,0.135,0.621,0.178,0.924
			c0.038,0.272,0.375,1.561,1.019,1.689c0.984,0.198,0.339-1.503,1.026-1.896c0.216-0.122,0.465,1.199,0.491,1.948
			s0.036,1.125-0.028,1.567c-0.056,0.442-0.29,1.07-0.254,1.336c0.038,0.268,0.341,0.977,0.341,0.977l-2.267,0.941
			c0,0-0.303-1.355-0.608-1.669c-0.763-0.741-1.52-1.609-1.811-2.649c-0.183-0.652-0.251-1.333-0.311-2.005
			C335.751,191.687,335.754,190.769,335.765,190.672z"/>
		<path fill="#F4713D" d="M338.085,197.5c0,0,0.765,4.433,1.521,7.979c0.599,2.737,1.345,5.594,2.644,8.172
			c0.01,0.02,0.01,0.048,0.018,0.065c0.748,1.622,2.596,4.021,3.477,4.428c4.318,1.988,14.135-9.584,16.405-8.856
			c4.654,1.244,8.116-12.06,8.116-12.06s-5.495,0.079-8.785,0.78c-3.525,0.747-12.928,12.506-13.403,12.535
			c-0.475,0.029-1.261-1.734-2.308-3.734c-2.352-4.485-4.957-10.138-4.957-10.138s-2.138,0.635-2.173,0.654L338.085,197.5z"/>
		<path fill="#FFCCB0" d="M361.858,184.675c0,0-1.642,2.458-1.443,2.983c0.196,0.526,1.772,0.492,1.772,0.492"/>
	</g>
	<g>
		<g>
			<path fill="#DB856E" d="M156.955,213.535c2.102,2.514,3.817,8.451,5.964,10.927c1.055,1.218,8.64,7.793,13.742,10.606
				c0.236-1.529,3.468-0.578,2.319-1.613c-3.572-3.218-9.751-6.498-11.854-12.397c-1.383-3.883-6.506-12.508-6.506-12.508"/>
		</g>
		<g>
			<path fill="#3377FF" d="M200.4,230.69h-37.875v-23.136c0-1.813,1.468-3.281,3.281-3.281h14.277c0.36,0,0.71,0.126,0.986,0.36
				l3.468,2.924c0.293,0.247,0.664,0.383,1.047,0.383h11.536c1.811,0,3.281,1.469,3.281,3.281V230.69z"/>
			<path fill="#FFFFFF" d="M196.503,227.452h-29.592c-1.073,0-1.944-0.87-1.944-1.944v-14.369c0-1.072,0.871-1.942,1.944-1.942
				h29.592c1.073,0,1.943,0.87,1.943,1.942v14.369C198.447,226.582,197.576,227.452,196.503,227.452z"/>
			<path fill="#6490FF" d="M196.74,236.862h-30.555c-2.021,0-3.66-1.638-3.66-3.658v-16.651c0-2.02,1.639-3.658,3.66-3.658h30.555
				c2.021,0,3.66,1.639,3.66,3.658v16.651C200.4,235.224,198.761,236.862,196.74,236.862z"/>
			<g>
				<path fill="#2660EF" d="M186.932,221.424h-0.741v-1.573c0-2.608-2.121-4.728-4.728-4.728c-2.608,0-4.729,2.119-4.729,4.728
					v1.573h-0.741c-0.508,0-0.92,0.412-0.92,0.92v7.382c0,1.511,1.226,2.738,2.739,2.738h7.301c1.513,0,2.738-1.228,2.738-2.738
					v-7.382C187.851,221.836,187.439,221.424,186.932,221.424z M178.469,219.851c0-1.65,1.343-2.994,2.994-2.994
					c1.649,0,2.994,1.344,2.994,2.994v1.573h-5.988V219.851z"/>
				<path fill="#FFFFFF" d="M183.121,225.194c0-0.915-0.743-1.658-1.658-1.658c-0.917,0-1.659,0.743-1.659,1.658
					c0,0.664,0.396,1.229,0.959,1.493v2.968c0,0.386,0.313,0.699,0.7,0.699c0.385,0,0.698-0.313,0.698-0.699v-2.968
					C182.725,226.422,183.121,225.858,183.121,225.194z"/>
			</g>
		</g>
		<g>
			<ellipse fill="#ACC9F9" cx="153.221" cy="308.058" rx="24.269" ry="3.148"/>
		</g>
		<g>
			<path fill="#ED9C80" d="M152.613,235.085l-9.619-7.892c0,0-4.342,6.062-2.596,11.83c0.859,2.835,1.907,4.232,2.373,5.577
				c0.435,1.256,3.543,19.083,3.347,20.392c-0.195,1.31-1.682,4.984-2.216,8.836c-0.642,4.633-0.314,19.691-0.807,23.691
				c-0.492,4.001,3.205,4.625,3.389,3.271c1.574-11.57,5.905-29.626,6.466-35.407S153.106,249.035,152.613,235.085z"/>
			<g>
				<path fill="#DB856E" d="M152.796,246.461l-4.004,9.546c1.784,2.921,2.84,6.384,3.021,9.905c0.095,1.831-0.042,3.667,0.035,5.497
					c0.004,0.13,0.025,0.27,0.061,0.397c0.517-2.723,0.898-4.965,1.041-6.424c0.396-4.085,0.309-10.566,0.051-18.935
					C152.933,246.454,152.865,246.45,152.796,246.461z"/>
			</g>
			<path fill="#ED9C80" d="M147.074,297.074c0,0-0.828,4.201-0.582,4.732c0.245,0.531,1.124,2.071,2.008,2.621
				c0.929,0.575,2.977,1.247,3.144,1.5c0.167,0.254,0.182,0.625-0.105,0.857c-0.743,0.601-2.042,0.905-2.896,0.776
				c-2.771-0.418-3.073-1.637-4.686-1.811c-0.279-0.029-0.788,0.389-1.562,0.006c-0.775-0.383-1.158-1.089-1.102-1.759
				c0.099-1.155,0.733-2.116,1.184-2.975c0.449-0.861,0.72-4.771,0.72-4.771"/>
			<path fill="#222B70" d="M151.757,306.983c0.197-0.347,0.24-0.869,0.051-0.994c-0.263-0.173-1.195-0.772-1.735-1.012
				c-0.539-0.24-1.393-0.445-1.09-0.288c0.301,0.158-0.241,0.77-0.744,0.747c-1.734-0.083-3.027-1.217-4.017-1.451
				c-1.43-0.335-2.049-2.008-2.116-2.279c-0.267,0.174-0.875,1.537-0.995,1.964c-0.11,0.387-0.306,1.093-0.191,1.492
				c0.079,0.275,0.254,0.832,0.178,1.418c0,0,0.283,0.212,1.029,0.354c0.471,0.092,1.102,0.002,1.102,0.002l0.11-0.896
				c0,0,0.387-0.02,0.882,0.075c0.494,0.096,1.306,0.554,1.354,0.609c0.201,0.234,0.366,0.662,0.629,0.791
				c0.697,0.339,1.397,0.495,2.28,0.535C150.343,308.132,151.42,307.577,151.757,306.983z"/>
		</g>
		<g>
			<path fill="#ED9C80" d="M165.842,306.234c-0.204-0.226-2.406-0.584-3.44-1.016c-0.984-0.411-2.176-1.733-2.409-2.295
				c-0.231-0.56-0.179-3.403-0.148-4.598c0.206-8.222,1.726-28.315,1.945-33.127c0.382-8.364-0.704-16.998-3.921-30.424
				l-11.983-9.197c0,0-3.355,6.238-2.232,12.205c0.652,3.459,3.522,3.992,4.007,5.338c0.485,1.344,7.736,23.029,7.736,23.029
				s-1.411,4.688-1.493,9.825c-0.069,4.383,1.919,17.609,2.288,22.648c0.043,0.985,0.213,3.342-0.078,4.092
				c-0.356,0.919-1.261,1.999-1.216,3.159c0.026,0.672,0.512,1.314,1.362,1.577c0.849,0.263,1.323-0.228,1.615-0.239
				c1.689-0.07,2.156,1.092,5.073,1.091c0.899,0,2.205-0.498,2.896-1.204C166.109,306.826,166.046,306.46,165.842,306.234z"/>
			<path fill="#222B70" d="M166.093,307.263c0.16-0.373,0.138-0.896-0.073-0.993c-0.293-0.132-1.334-0.587-1.922-0.742
				c-0.589-0.156-1.497-0.232-1.165-0.122c0.332,0.111-0.151,0.8-0.673,0.851c-1.803,0.18-3.284-0.751-4.337-0.832
				c-1.52-0.119-2.078-1.685-2.181-1.944c-0.254,0.213-1.004,1.654-1.075,2.097c-0.064,0.398-0.177,1.128-0.007,1.507
				c0.117,0.261,0.369,0.784,0.363,1.378c0,0,0.32,0.168,1.109,0.198c0.5,0.019,1.14-0.165,1.14-0.165v-0.904
				c0,0,0.397-0.079,0.92-0.06c0.524,0.021,1.171,0.289,1.486,0.527c0.248,0.186,0.508,0.5,0.8,0.572
				c0.844,0.213,1.45,0.272,2.367,0.18C164.779,308.613,165.821,307.903,166.093,307.263z"/>
		</g>
		<g>
			<path fill="#30334C" d="M143.423,226.546c-3.075,3.15-5.037,7.69-3.931,12.707c0.292,1.328,1.967,4.901,2.291,6.227
				c0.739,3.012,2.104,7.424,2.347,10.912c4.735,2.849,13.761,1.786,17.65-0.979c0.093-4.249-0.28-7.587-1.105-13.395
				c-1.244-8.76-2.711-10.73-4.014-14.237c-0.151-0.616-0.154-1.864-0.297-2.591"/>
		</g>
		<g>
			<path fill="#F4713D" d="M156.242,197.863c0.752,0.25,0.472,2.041,1.223,2.29c0.545,0.182,1.613-0.058,2.113,0.224
				c2.65,1.495,1.971,4.477,2.291,8.173c1.121,2.835,1.421,5.404,0.526,6.988c-1.11,1.967-2.283,2.521-3.646,4.15
				c-1.019,1.219-1.353,3.723-1.561,6.414c-0.036,0.462,0.349,1.275,0.237,1.726c-0.214,0.865-1.528,1.132-2.994,1.161
				c-3.371,0.063-8.482-1.162-9.986-1.106c-1.417,0.053-2.752-0.635-2.614-1.471c0.097-0.582,0.681-0.824,0.913-1.952
				c0.509-2.487,0.899-8.703,1.295-10.811c1.015-5.398,1.757-9.411,3.969-14.385"/>
		</g>
		<g>
			<path fill="#E25833" d="M163.901,210.803c-0.825-1.441-1.954-2.75-3.059-4.006l-2.879,1.297c1.354,2.597,1.601,5.656,2.222,8.496
				c0.65,0.064,1.662-0.164,1.662-0.164c0.281-0.458,0.175-0.228,0.548-0.889C162.993,214.477,163.776,212.707,163.901,210.803z"/>
		</g>
		<path fill="#ED9C80" d="M165.867,190.572c0.308-1.263,0.534-2.61,0.491-3.727c-0.083-2.141-0.354-5.242-3.913-6.516
			c-3.558-1.273-7.483-0.509-8.65,2.057c-1.165,2.566-0.894,6.451-1.064,8.527c-0.17,2.077-1.693,4.563-1.693,4.563l7.662,3.299
			c0,0,1.252-2.723,1.768-3.049c0.515-0.324,0.694,0.971,2.401,0.828c0.726-0.063,1.498-1.363,2.084-2.964
			c0.018-0.047,0.037-0.107,0.055-0.157c0.379-0.021,0.813-0.05,0.911-0.079c0.529-0.157,0.488-0.391,0.368-0.726
			C166.031,191.904,165.918,191.137,165.867,190.572z"/>
		<g>
			<path fill="#ED9C80" d="M176.469,234.46c0,0.623,1.2,2.317,2.117,2.577c0.295,0.082,0.616,0.095,0.899-0.023
				c0.416,0.187,1.74,0.333,1.246-0.445c0.841,0.705,1.794,0.668,2.86,0.616c0.355-0.018,0.344-0.434-0.435-0.645
				c-1.084-0.295-1.863-1.015-2.431-2.046c0.162-0.124,0.292,0.103,0.732,0.174c0.489,0.076,0.75-0.143,0.766-0.355
				c0.012-0.161-0.574-0.35-0.704-0.434c-0.487-0.322-0.975-0.645-1.463-0.968c-0.536-0.354-0.893-0.518-1.538-0.563
				c-0.107-0.006-1.159,0.057-0.898,0.438"/>
		</g>
		<path fill="#ED9C80" d="M159.199,209.913c1.269,2.624,4.605,11.321,5.123,12.325c2.038,3.95,12.484,12.522,12.484,12.522
			s1.772-0.295,1.772-2.063c-2.991-2.076-8.605-10.984-9.769-12.05c-0.753-0.69-4.144-14.44-4.144-14.44"/>
		<path fill="#F4713D" d="M162.056,200.223c-2.912-1.112-5.696-1.119-7.926-3.349c-2.262,1.739,2.733,11.805,3.967,12.076
			c1.262,0.276,2.907,5.832,3.217,6.587c4.031-0.106,5.505-2.305,5.505-2.305C165.174,208.175,164.879,201.301,162.056,200.223z"/>
		<g>
			<path fill="#7C3327" d="M159.721,200.497c-0.2-0.758-0.773-1.359-0.901-2.132c-0.121-0.73,0.022-1.667,0.428-2.295
				c0.251-0.387,0.638-0.656,0.998-0.94c1.602-1.263,2.16-2.307,1.623-4.196c-0.176-0.618-0.336-1.257-0.273-1.897
				c0.058-0.579,0.176-1.183,0.799-1.256c0.434-0.051,0.712,0.054,0.864,0.42c0.107,0.255-0.103,2.086,0.504,1.049
				c0.581-0.994,1.098-1.069,1.07-3.358c-0.003-0.271-0.096-1.377,0.073-1.54c1.063,0.776,1.371,2.107,1.496,3.081
				c0.8-0.339,1.025-1.491,1.027-1.93c0-0.9-0.095-1.592-0.421-2.294c-1.391-2.985-2.869-3.533-4.113-4.062
				c-1.21-0.513-2.465-1.037-3.776-1.001s-2.935,0.425-3.314,1.407c-1.817-0.468-2.855,1.118-3.284,1.689
				c-0.612,0.813-1.087,1.731-1.402,2.704c-0.464,1.435-0.572,2.961-0.939,4.426c-0.298,1.19-0.809,2.423-1.73,3.256
				c-0.885,0.8-2.128,0.874-3.089,1.608c-1.221,0.932-1.903,2.478-1.836,4.021c0.066,1.536,0.857,3.194-0.071,4.604
				c-0.301,0.458-0.725,0.824-1.022,1.285c-0.685,1.063-0.586,2.529,0.069,3.61c0.655,1.082,1.932,2.319,3.131,2.676
				c1.199,0.355,2.137,0.534,3.385,0.466c2.208-0.122,4.065,0.005,6.399-1.991c1.323-1.13,0.477-1.775,1.747-2.975
				c0.712-0.672,1.721-1.029,2.243-1.903c0.431-0.72,0.52-1.629,0.339-2.443C159.736,200.556,159.729,200.526,159.721,200.497z"/>
		</g>
	</g>
	<g>
		<g>
			<path fill="#FFFFFF" d="M462.581,379.598c-0.621,0-1.241,0-1.862,0c-1.363,0-2.5,1.138-2.5,2.5s1.137,2.5,2.5,2.5
				c0.621,0,1.241,0,1.862,0c1.362,0,2.5-1.138,2.5-2.5S463.943,379.598,462.581,379.598L462.581,379.598z"/>
		</g>
	</g>
	<g>
		<g>
			<path fill="#FFFFFF" d="M407.524,93.622c-9.285,0-15.366,9.408-15.366,9.408s6.08,9.409,15.366,9.409s15.367-9.409,15.367-9.409
				S416.811,93.622,407.524,93.622z"/>
			<linearGradient id="SVGID_9_" gradientUnits="userSpaceOnUse" x1="390.9795" y1="103.0303" x2="424.0684" y2="103.0303">
				<stop  offset="0" style="stop-color:#F84E49"/>
				<stop  offset="1" style="stop-color:#EF3598"/>
			</linearGradient>
			<path fill="url(#SVGID_9_)" d="M407.524,113.427c-9.713,0-15.938-9.457-16.197-9.86l-0.348-0.538l0.348-0.536
				c0.259-0.403,6.484-9.86,16.197-9.86c9.712,0,15.938,9.457,16.198,9.86l0.346,0.536l-0.346,0.538
				C423.463,103.97,417.236,113.427,407.524,113.427z M393.369,103.03c1.431,1.935,6.78,8.419,14.155,8.419
				c7.376,0,12.726-6.484,14.156-8.419c-1.431-1.934-6.78-8.419-14.156-8.419C400.149,94.611,394.8,101.096,393.369,103.03z"/>
		</g>
		<linearGradient id="SVGID_10_" gradientUnits="userSpaceOnUse" x1="401.6416" y1="103.0298" x2="413.4072" y2="103.0298">
			<stop  offset="0" style="stop-color:#F84E49"/>
			<stop  offset="1" style="stop-color:#EF3598"/>
		</linearGradient>
		<circle fill="url(#SVGID_10_)" cx="407.524" cy="103.03" r="5.883"/>
		<circle fill="#FFFFFF" cx="405.572" cy="101.254" r="2.359"/>
	</g>
	<g>
		<linearGradient id="SVGID_11_" gradientUnits="userSpaceOnUse" x1="118.272" y1="146.7861" x2="148.0503" y2="146.7861">
			<stop  offset="0" style="stop-color:#F84E49"/>
			<stop  offset="1" style="stop-color:#EF3598"/>
		</linearGradient>
		<path fill="url(#SVGID_11_)" d="M146.208,134.501h-26.093c-1.018,0-1.842,0.825-1.842,1.843v17.001
			c0,1.018,0.825,1.843,1.842,1.843h2.374l5.916,3.883l-0.752-3.883h18.556c1.018,0,1.843-0.825,1.843-1.843v-17.001
			C148.05,135.326,147.225,134.501,146.208,134.501z"/>
		<g>
			<circle fill="#FFFFFF" cx="133.161" cy="150.507" r="2.18"/>
			<g>
				<defs>
					<polyline id="SVGID_12_" points="133.161,150.507 116.393,134.563 133.161,134.563 149.929,134.563 133.161,150.507 					"/>
				</defs>
				<clipPath id="SVGID_13_">
					<use xlink:href="#SVGID_12_"  overflow="visible"/>
				</clipPath>
				<g clip-path="url(#SVGID_13_)">
					<g>
						<path fill="#FFFFFF" d="M133.16,157.936c-4.096,0-7.428-3.333-7.428-7.429c0-4.097,3.332-7.429,7.428-7.429
							c4.097,0,7.43,3.333,7.43,7.429C140.59,154.604,137.257,157.936,133.16,157.936z M133.16,145.146
							c-2.956,0-5.361,2.404-5.361,5.361c0,2.955,2.405,5.361,5.361,5.361c2.958,0,5.363-2.406,5.363-5.361
							C138.523,147.551,136.118,145.146,133.16,145.146z"/>
					</g>
					<g>
						<path fill="#FFFFFF" d="M133.16,162.84c-6.8,0-12.333-5.533-12.333-12.333c0-6.801,5.533-12.333,12.333-12.333
							c6.801,0,12.333,5.532,12.333,12.333C145.493,157.307,139.961,162.84,133.16,162.84z M133.16,140.242
							c-5.659,0-10.265,4.604-10.265,10.266c0,5.66,4.606,10.265,10.265,10.265c5.66,0,10.265-4.604,10.265-10.265
							C143.425,144.846,138.82,140.242,133.16,140.242z"/>
					</g>
				</g>
			</g>
		</g>
	</g>
	<g>
		<g>
			<path fill="#BDD5FF" d="M267.291,107.049h-31.647c-1.235,0-2.235-1-2.235-2.235V84.194c0-1.234,1-2.235,2.235-2.235h31.647
				c1.235,0,2.234,1,2.234,2.235v20.621C269.525,106.049,268.526,107.049,267.291,107.049z"/>
			<polyline fill="#BDD5FF" points="258.261,106.473 257.237,111.759 265.289,106.473 			"/>
		</g>
		<g>
			<g>
				<path fill="#FFFFFF" d="M251.888,103.044c-4.547,0-8.247-3.7-8.247-8.248s3.699-8.248,8.247-8.248
					c4.548,0,8.248,3.7,8.248,8.248S256.436,103.044,251.888,103.044z M251.888,87.388c-4.084,0-7.408,3.323-7.408,7.409
					c0,4.085,3.324,7.409,7.408,7.409c4.085,0,7.41-3.324,7.41-7.409C259.297,90.711,255.973,87.388,251.888,87.388z"/>
			</g>
			<g>
				<path fill="#FFFFFF" d="M251.888,103.044c-2.069,0-3.69-3.623-3.69-8.248c0-4.625,1.622-8.248,3.69-8.248
					c2.069,0,3.69,3.623,3.69,8.248C255.578,99.421,253.957,103.044,251.888,103.044z M251.888,87.388
					c-1.349,0-2.852,3.042-2.852,7.409c0,4.367,1.503,7.409,2.852,7.409s2.853-3.042,2.853-7.409
					C254.74,90.43,253.236,87.388,251.888,87.388z"/>
			</g>
			<g>
				<rect x="244.06" y="94.377" fill="#FFFFFF" width="15.657" height="0.838"/>
			</g>
			<g>
				<g>
					<path fill="#FFFFFF" d="M251.888,91.73c-4.541,0-6.138-1.594-6.205-1.662l0.603-0.583l-0.301,0.292l0.298-0.295
						c0.015,0.014,1.466,1.411,5.605,1.411s5.592-1.396,5.607-1.411l0.6,0.587C258.028,90.136,256.429,91.73,251.888,91.73z"/>
				</g>
				<g>
					<path fill="#FFFFFF" d="M246.282,100.111l-0.6-0.587c0.067-0.068,1.664-1.662,6.205-1.662s6.14,1.594,6.207,1.662l-0.603,0.584
						c-0.012-0.011-1.464-1.407-5.604-1.407S246.297,100.097,246.282,100.111z"/>
				</g>
			</g>
		</g>
	</g>
	<g>
		<g>
			<linearGradient id="SVGID_14_" gradientUnits="userSpaceOnUse" x1="328.7344" y1="61.8091" x2="386.3467" y2="61.8091">
				<stop  offset="0" style="stop-color:#F84E49"/>
				<stop  offset="1" style="stop-color:#EF3598"/>
			</linearGradient>
			<path fill="url(#SVGID_14_)" d="M382.783,81.821h-50.484c-1.969,0-3.564-1.596-3.564-3.564V45.362
				c0-1.968,1.596-3.564,3.564-3.564h50.484c1.969,0,3.563,1.596,3.563,3.564v32.895C386.347,80.225,384.752,81.821,382.783,81.821z
				"/>
			<linearGradient id="SVGID_15_" gradientUnits="userSpaceOnUse" x1="366.7441" y1="85.1187" x2="379.5889" y2="85.1187">
				<stop  offset="0" style="stop-color:#F84E49"/>
				<stop  offset="1" style="stop-color:#EF3598"/>
			</linearGradient>
			<polyline fill="url(#SVGID_15_)" points="368.378,80.902 366.744,89.335 379.589,80.902 			"/>
		</g>
		<g>
			<g>
				<path fill="#FFFFFF" d="M366.722,71.316c-5.65,0-10.246-4.598-10.246-10.247c0-5.65,4.596-10.247,10.246-10.247
					s10.25,4.597,10.25,10.247C376.972,66.718,372.372,71.316,366.722,71.316z M366.722,55.215c-3.229,0-5.854,2.627-5.854,5.854
					c0,3.228,2.624,5.854,5.854,5.854s5.857-2.627,5.857-5.854C372.579,57.842,369.951,55.215,366.722,55.215z"/>
			</g>
			<g>
				<polygon fill="#FFFFFF" points="342.504,67.854 338.111,67.854 338.111,58.873 358.671,58.873 358.671,63.266 342.504,63.266 
									"/>
			</g>
			<g>
				<rect x="344.924" y="61.069" fill="#FFFFFF" width="4.393" height="5.121"/>
			</g>
		</g>
	</g>
</g>
<g id="DESIGNED_BY_FREEPIK">
</g>
</svg>
