<?xml version="1.0" encoding="utf-8"?>
<!-- Generator: Adobe Illustrator 16.0.0, SVG Export Plug-In . SVG Version: 6.00 Build 0)  -->
<!DOCTYPE svg PUBLIC "-//W3C//DTD SVG 1.1//EN" "http://www.w3.org/Graphics/SVG/1.1/DTD/svg11.dtd">
<svg version="1.1" id="Layer_1" xmlns="http://www.w3.org/2000/svg" xmlns:xlink="http://www.w3.org/1999/xlink" x="0px" y="0px"
	 width="31.375px" height="20.375px" viewBox="0 0 31.375 20.375" enable-background="new 0 0 31.375 20.375" xml:space="preserve">
<path fill="#FFFFFF" d="M286,321h90c2.762,0,5,2.236,5,5v90c0,2.762-2.238,5-5,5h-90c-2.764,0-5-2.238-5-5v-90
	C281,323.238,283.236,321,286,321z"/>
<g transform="translate(50 50) scale(0.69 0.69) rotate(0) translate(-50 -50)">
	<g transform="matrix( 1, 0, 0, 1, 0,0) ">
		<g>
			<g id="a">
				<path fill="#4D4D4D" d="M-20.968-19.99c-0.115-0.113-0.195-0.215-0.242-0.313l-0.143-0.12h-0.025l-0.312-0.243
					c-0.257,0.451-0.385,1.02-0.385,1.71V3.558c0,0.593,0.089,1.095,0.266,1.514c0.014-0.031,0.04-0.057,0.07-0.071L-4.781-7.699
					L-20.946-19.99H-20.968 M19.564,6.612c0.576,0,1.074-0.088,1.493-0.26l-0.508-0.34V5.964L3.827-6.546L0.271-3.852l-3.537-2.692
					L-19.983,5.964h0.022l-0.528,0.389c0.401,0.173,0.89,0.259,1.467,0.259H19.564 M20.812-21.82
					c-0.351-0.127-0.773-0.191-1.248-0.191h-38.586c-0.449,0-0.844,0.056-1.179,0.168L0.271-6.134L20.812-21.82 M22.615-18.953
					c0-0.674-0.119-1.237-0.359-1.684l-0.024,0.022l-0.357,0.146c-0.017,0-0.025,0.006-0.025,0.022l0.359-0.118l-0.457,0.336
					c-0.044,0.095-0.122,0.177-0.215,0.24L5.323-7.699l16.286,12.17l0.044,0.048l0.577,0.46c0.048,0.017,0.091,0.045,0.122,0.093
					c0.174-0.416,0.266-0.92,0.266-1.514v-22.512L22.615-18.953L22.615-18.953z"/>
			</g>
		</g>
	</g>
</g>
</svg>
