<?xml version="1.0" encoding="utf-8"?>
<!-- Generator: Adobe Illustrator 16.0.0, SVG Export Plug-In . SVG Version: 6.00 Build 0)  -->
<!DOCTYPE svg PUBLIC "-//W3C//DTD SVG 1.1//EN" "http://www.w3.org/Graphics/SVG/1.1/DTD/svg11.dtd">
<svg version="1.1" id="Layer_1" xmlns="http://www.w3.org/2000/svg" xmlns:xlink="http://www.w3.org/1999/xlink" x="0px" y="0px"
	 width="288px" height="288px" viewBox="0 0 288 288" enable-background="new 0 0 288 288" xml:space="preserve">
<g>
	<g>
		<g>
			<g>
				<g>
					<g>
						<g>
							<defs>
								<rect id="SVGID_1_" width="288" height="288"/>
							</defs>
							<clipPath id="SVGID_2_">
								<use xlink:href="#SVGID_1_"  overflow="visible"/>
							</clipPath>
							<path clip-path="url(#SVGID_2_)" fill="#4285F4" d="M19.682,44.114c0.616-6.63,5.982-11.748,12.625-11.828
								c7.713-0.093,15.429-0.082,23.142,0.017c1.857,0.024,2.536-0.366,2.467-2.374c-0.161-4.623-0.075-9.256-0.045-13.884
								c0.033-5.237,3.436-8.89,8.24-8.905c4.794-0.015,8.206,3.625,8.24,8.85c0.03,4.714,0.078,9.43-0.031,14.142
								c-0.04,1.697,0.465,2.186,2.16,2.167c7.457-0.087,14.914-0.038,22.371-0.038c36.857,0,73.713-0.026,110.57,0.06
								c2.427,0.006,3.013-0.686,2.92-2.988c-0.178-4.364-0.081-8.741-0.043-13.112c0.046-5.439,3.448-9.114,8.341-9.081
								c4.899,0.033,8.203,3.7,8.234,9.188c0.023,4.285,0.208,8.584-0.068,12.852c-0.178,2.757,0.826,3.195,3.285,3.139
								c7.11-0.162,14.229-0.071,21.342-0.055c7.838,0.017,13.438,5.339,13.873,13.167c0.038,0.684,0.024,1.371,0.024,2.057
								c0.001,71.742-0.009,143.485,0.022,215.225c0.004,4.289-0.902,8.145-3.979,11.295c-2.872,2.941-6.415,4.059-10.455,4.055
								c-23.742-0.021-47.485-0.014-71.228-0.014c-49.204,0.002-98.398,0.006-147.604,0c-7.928,0-13.653-4.685-14.368-11.724
								c0.137-1.623,0.029-3.248,0.029-4.872c0.008-71.077,0.007-142.155,0.004-213.232C19.756,46.853,19.816,45.481,19.682,44.114
								 M31.587,106.725c-2.417-0.005-3.129,0.493-3.124,3.038c0.085,47.657,0.062,95.314,0.063,142.971
								c0,10.383,5.691,16.104,16.013,16.104c65.828,0.001,131.656,0.001,197.484,0c10.524,0,16.183-5.652,16.184-16.207
								c0.003-47.654-0.018-95.313,0.057-142.972c0.004-2.381-0.629-2.94-2.964-2.935c-37.37,0.076-74.741,0.054-112.114,0.054
								C105.986,106.782,68.786,106.806,31.587,106.725 M29.087,106.172h228.608c-0.002-0.081-0.002-0.162-0.002-0.243H29.186
								C29.153,106.01,29.12,106.091,29.087,106.172"/>
						</g>
					</g>
				</g>
			</g>
		</g>
	</g>
	<g>
		<g>
			<g>
				<g>
					<g>
						<g>
							<defs>
								<rect id="SVGID_3_" width="288" height="288"/>
							</defs>
							<clipPath id="SVGID_4_">
								<use xlink:href="#SVGID_3_"  overflow="visible"/>
							</clipPath>
							<path clip-path="url(#SVGID_4_)" fill="#F7F7F7" d="M58.254,52.468c0.943,4.126,4.446,6.68,8.632,6.293
								c4.066-0.375,7.236-3.497,7.421-7.492c0.121-2.613,0.023-5.237,0.023-8.025c4.127,3.298,3.322,10.267,0.383,13.706
								c-4.007,4.688-10.823,5.418-15.603,1.525c-4.593-3.74-5.327-10.347-1.493-15.36c0.707,3.222-0.306,6.372,0.635,9.346
								L58.254,52.468z"/>
						</g>
					</g>
				</g>
			</g>
		</g>
	</g>
	<g>
		<g>
			<g>
				<g>
					<g>
						<g>
							<defs>
								<rect id="SVGID_5_" width="288" height="288"/>
							</defs>
							<clipPath id="SVGID_6_">
								<use xlink:href="#SVGID_5_"  overflow="visible"/>
							</clipPath>
							<path clip-path="url(#SVGID_6_)" fill="#FAFAF9" d="M212.26,43.123c0,2.383-0.021,4.477,0.004,6.571
								c0.067,5.429,3.424,9.113,8.291,9.129c4.866,0.017,8.291-3.704,8.34-9.078c0.021-2.119,0.002-4.238,0.002-6.533
								c3.797,3.82,3.551,10.372-0.354,14.4c-4.21,4.341-11.014,4.522-15.466,0.412C208.777,54.064,208.298,47.566,212.26,43.123"/>
						</g>
					</g>
				</g>
			</g>
		</g>
	</g>
	<g>
		<g>
			<g>
				<g>
					<g>
						<g>
							<defs>
								<rect id="SVGID_7_" width="288" height="288"/>
							</defs>
							<clipPath id="SVGID_8_">
								<use xlink:href="#SVGID_7_"  overflow="visible"/>
							</clipPath>
							<path clip-path="url(#SVGID_8_)" fill="#4285F4" d="M232.648,156.253c-0.135,2.763-1.896,3.987-4.354,4.021
								c-7.604,0.104-15.21,0.084-22.813,0.02c-2.863-0.021-4.614-1.8-4.646-4.702c-0.064-7.348-0.063-14.697,0-22.045
								c0.021-2.31,0.915-4.16,3.555-4.532c2.176,0.557,4.394,0.254,6.582,0.232c6.195-0.06,12.4,0.298,18.603-0.19
								c1.927,0.408,2.935,1.607,3.063,3.563c-0.531,5.849-0.139,11.71-0.205,17.563
								C232.409,152.198,232.116,154.246,232.648,156.253"/>
						</g>
					</g>
				</g>
			</g>
		</g>
	</g>
	<g>
		<g>
			<g>
				<g>
					<g>
						<g>
							<defs>
								<rect id="SVGID_9_" width="288" height="288"/>
							</defs>
							<clipPath id="SVGID_10_">
								<use xlink:href="#SVGID_9_"  overflow="visible"/>
							</clipPath>
							<path clip-path="url(#SVGID_10_)" fill="#4285F4" d="M154.518,203.033c-1.718-0.581-2.477-1.834-2.521-3.588
								c0.334-7.877,0.304-15.752,0.021-23.627c0.403-2.655,2.063-3.744,4.627-3.741c7.438,0.009,14.877-0.019,22.313,0.012
								c3.153,0.013,4.841,1.572,4.868,4.649c0.064,7.353,0.055,14.705,0.004,22.058c-0.02,2.884-1.619,4.707-4.296,4.733
								c-7.865,0.076-15.729,0.021-23.597,0.008c-0.508-0.001-1.031-0.046-1.396-0.494c3.473-0.51,6.964-0.167,10.445-0.216
								c4.811-0.067,9.623-0.019,12.414-0.017C171.119,202.998,162.816,202.466,154.518,203.033"/>
						</g>
					</g>
				</g>
			</g>
		</g>
	</g>
	<g>
		<g>
			<g>
				<g>
					<g>
						<g>
							<defs>
								<rect id="SVGID_11_" width="288" height="288"/>
							</defs>
							<clipPath id="SVGID_12_">
								<use xlink:href="#SVGID_11_"  overflow="visible"/>
							</clipPath>
							<path clip-path="url(#SVGID_12_)" fill="#4285F4" d="M180.71,129.077c2.291,0.569,3.11,2.247,3.122,4.383
								c0.037,7.359,0.057,14.72-0.005,22.079c-0.024,3.039-1.771,4.738-4.839,4.759c-7.445,0.05-14.891,0.05-22.336-0.002
								c-2.781-0.019-4.03-1.2-4.65-4.053c0.321-7.876,0.311-15.751,0.01-23.627c0.195-1.874,1.121-3.127,3.025-3.544
								c5.59,0.438,11.189,0.135,16.785,0.171C174.783,129.263,177.755,129.5,180.71,129.077"/>
						</g>
					</g>
				</g>
			</g>
		</g>
	</g>
	<g>
		<g>
			<g>
				<g>
					<g>
						<g>
							<defs>
								<rect id="SVGID_13_" width="288" height="288"/>
							</defs>
							<clipPath id="SVGID_14_">
								<use xlink:href="#SVGID_13_"  overflow="visible"/>
							</clipPath>
							<path clip-path="url(#SVGID_14_)" fill="#4285F4" d="M103.141,132.104c0.318-1.706,1.292-2.761,3.033-3.056
								c6.023,0.491,12.057,0.14,18.085,0.193c2.361,0.02,4.746,0.328,7.094-0.228c2.538,0.331,3.467,2.134,3.495,4.327
								c0.093,7.456,0.097,14.914,0.005,22.37c-0.036,2.901-1.835,4.563-4.783,4.585c-7.456,0.057-14.913,0.053-22.37,0
								c-2.336-0.016-4.153-0.934-4.579-3.536c0.481-4.567,0.173-9.149,0.188-13.726C103.321,139.392,103.59,135.74,103.141,132.104
								"/>
						</g>
					</g>
				</g>
			</g>
		</g>
	</g>
	<g>
		<g>
			<g>
				<g>
					<g>
						<g>
							<defs>
								<rect id="SVGID_15_" width="288" height="288"/>
							</defs>
							<clipPath id="SVGID_16_">
								<use xlink:href="#SVGID_15_"  overflow="visible"/>
							</clipPath>
							<path clip-path="url(#SVGID_16_)" fill="#4285F4" d="M106.689,246.691c-2.093-0.27-3.339-1.387-3.582-3.528
								c0.501-3.714,0.199-7.446,0.205-11.168c0.006-4.494,0.234-8.993-0.139-13.483c0.461-1.837,1.605-2.884,3.519-3.037
								c8.047,0.313,16.093,0.346,24.14-0.019c2.726,0.188,3.971,1.938,4.007,4.381c0.109,7.496,0.108,14.995,0.002,22.491
								c-0.035,2.453-1.304,4.178-4.015,4.378C122.78,246.367,114.735,246.4,106.689,246.691"/>
						</g>
					</g>
				</g>
			</g>
		</g>
	</g>
	<g>
		<g>
			<g>
				<g>
					<g>
						<g>
							<defs>
								<rect id="SVGID_17_" width="288" height="288"/>
							</defs>
							<clipPath id="SVGID_18_">
								<use xlink:href="#SVGID_17_"  overflow="visible"/>
							</clipPath>
							<path clip-path="url(#SVGID_18_)" fill="#4285F4" d="M232.613,199.96c-0.184,1.563-0.928,2.675-2.51,3.108
								c-8.765,0.045-17.521-0.146-26.277,0.103c-2.186-0.579-2.969-2.248-2.985-4.248c-0.062-7.454-0.077-14.909,0.009-22.362
								c0.032-2.795,1.793-4.449,4.564-4.465c7.625-0.047,15.251-0.033,22.877-0.004c2.453,0.01,4.057,1.129,4.342,3.723
								c-0.505,4.063-0.191,8.139-0.195,12.197C232.432,191.993,232.143,195.982,232.613,199.96"/>
						</g>
					</g>
				</g>
			</g>
		</g>
	</g>
	<g>
		<g>
			<g>
				<g>
					<g>
						<g>
							<defs>
								<rect id="SVGID_19_" width="288" height="288"/>
							</defs>
							<clipPath id="SVGID_20_">
								<use xlink:href="#SVGID_19_"  overflow="visible"/>
							</clipPath>
							<path clip-path="url(#SVGID_20_)" fill="#4285F4" d="M82.491,129.033c2.339,0.416,3.285,2.005,3.297,4.182
								c0.043,7.52,0.062,15.041-0.004,22.561c-0.025,2.793-1.705,4.486-4.503,4.518c-7.605,0.066-15.211,0.063-22.816-0.001
								c-1.997-0.021-3.645-0.829-4.195-3.019c-0.055-8.56-0.138-17.113,0.043-25.672c0.444-1.504,1.417-2.391,2.996-2.573
								c2.863,0.555,5.757,0.24,8.631,0.215C71.457,129.188,76.981,129.577,82.491,129.033"/>
						</g>
					</g>
				</g>
			</g>
		</g>
	</g>
	<g>
		<g>
			<g>
				<g>
					<g>
						<g>
							<defs>
								<rect id="SVGID_21_" width="288" height="288"/>
							</defs>
							<clipPath id="SVGID_22_">
								<use xlink:href="#SVGID_21_"  overflow="visible"/>
							</clipPath>
							<path clip-path="url(#SVGID_22_)" fill="#4285F4" d="M103.155,175.307c0.55-2.229,2.033-3.228,4.275-3.227
								c7.618,0.004,15.236-0.028,22.854,0.02c2.785,0.021,4.53,1.633,4.564,4.449c0.092,7.531,0.082,15.064-0.01,22.598
								c-0.023,1.867-0.82,3.498-2.923,4.016c-8.759-0.221-17.518-0.063-26.277-0.081c-1.628-0.396-2.323-1.562-2.528-3.112
								c0.504-3.887,0.193-7.787,0.199-11.688C103.316,183.956,103.566,179.626,103.155,175.307"/>
						</g>
					</g>
				</g>
			</g>
		</g>
	</g>
	<g>
		<g>
			<g>
				<g>
					<g>
						<g>
							<defs>
								<rect id="SVGID_23_" width="288" height="288"/>
							</defs>
							<clipPath id="SVGID_24_">
								<use xlink:href="#SVGID_23_"  overflow="visible"/>
							</clipPath>
							<path clip-path="url(#SVGID_24_)" fill="#4285F4" d="M54.231,218.493c0.408-1.95,1.681-2.873,3.599-3.033
								c5.249,0.461,10.51,0.144,15.765,0.183c2.79,0.021,5.593,0.272,8.376-0.176c2.567,0.256,3.784,1.848,3.805,4.252
								c0.067,7.575,0.065,15.151-0.001,22.727c-0.021,2.412-1.253,3.988-3.81,4.258c-8.045-0.309-16.091-0.321-24.136,0.006
								c-1.913-0.157-3.174-1.089-3.595-3.021C54.207,235.286,54.213,226.889,54.231,218.493"/>
						</g>
					</g>
				</g>
			</g>
		</g>
	</g>
	<g>
		<g>
			<g>
				<g>
					<g>
						<g>
							<defs>
								<rect id="SVGID_25_" width="288" height="288"/>
							</defs>
							<clipPath id="SVGID_26_">
								<use xlink:href="#SVGID_25_"  overflow="visible"/>
							</clipPath>
							<path clip-path="url(#SVGID_26_)" fill="#4285F4" d="M54.219,175.29c0.428-2.197,1.898-3.181,3.999-3.188
								c7.8-0.037,15.601-0.056,23.4,0.012c2.434,0.021,4.098,1.584,4.127,4.02c0.093,7.803,0.074,15.604,0.004,23.396
								c-0.016,1.729-0.859,3.105-2.717,3.578c-8.757-0.062-17.515-0.104-26.272,0.021c-1.429-0.317-2.244-1.226-2.506-2.646
								C54.178,192.081,54.238,183.688,54.219,175.29"/>
						</g>
					</g>
				</g>
			</g>
		</g>
	</g>
	<g>
		<g>
			<g>
				<g>
					<g>
						<g>
							<defs>
								<rect id="SVGID_27_" width="288" height="288"/>
							</defs>
							<clipPath id="SVGID_28_">
								<use xlink:href="#SVGID_27_"  overflow="visible"/>
							</clipPath>
							<path clip-path="url(#SVGID_28_)" fill="#C2C2C0" d="M105.639,203.075c0.492-0.657,1.212-0.525,1.881-0.526
								c7.433-0.005,14.866-0.007,22.299,0.003c0.745,0.001,1.569-0.188,2.096,0.604c-0.57,0.506-1.277,0.393-1.941,0.394
								c-7.39,0.011-14.78,0.013-22.17-0.003C107.062,203.546,106.258,203.695,105.639,203.075"/>
						</g>
					</g>
				</g>
			</g>
		</g>
	</g>
	<g>
		<g>
			<g>
				<g>
					<g>
						<g>
							<defs>
								<rect id="SVGID_29_" width="288" height="288"/>
							</defs>
							<clipPath id="SVGID_30_">
								<use xlink:href="#SVGID_29_"  overflow="visible"/>
							</clipPath>
							<path clip-path="url(#SVGID_30_)" fill="#C2C2C0" d="M203.826,203.17c0.441-0.706,1.156-0.622,1.833-0.622
								c7.604-0.003,15.211-0.002,22.817-0.002c0.598,0,1.211-0.04,1.627,0.524c-0.447,0.517-1.072,0.469-1.652,0.47
								c-7.729,0.013-15.459,0.017-23.188-0.008C204.784,203.529,204.307,203.296,203.826,203.17"/>
						</g>
					</g>
				</g>
			</g>
		</g>
	</g>
	<g>
		<g>
			<g>
				<g>
					<g>
						<g>
							<defs>
								<rect id="SVGID_31_" width="288" height="288"/>
							</defs>
							<clipPath id="SVGID_32_">
								<use xlink:href="#SVGID_31_"  overflow="visible"/>
							</clipPath>
							<path clip-path="url(#SVGID_32_)" fill="#C2C2C0" d="M56.76,203.125c0.465-0.686,1.183-0.576,1.855-0.576
								c7.517-0.005,15.034-0.005,22.55,0c0.671,0,1.39-0.119,1.867,0.555c-0.46,0.5-1.084,0.441-1.664,0.441
								c-7.646,0.012-15.292,0.012-22.939,0.003C57.849,203.547,57.226,203.621,56.76,203.125"/>
						</g>
					</g>
				</g>
			</g>
		</g>
	</g>
	<g>
		<g>
			<g>
				<g>
					<g>
						<g>
							<defs>
								<rect id="SVGID_33_" width="288" height="288"/>
							</defs>
							<clipPath id="SVGID_34_">
								<use xlink:href="#SVGID_33_"  overflow="visible"/>
							</clipPath>
							<path clip-path="url(#SVGID_34_)" fill="#C2C2C0" d="M103.155,175.307c0.142,0.389,0.406,0.777,0.407,1.168
								c0.024,7.447,0.024,14.896-0.003,22.346c-0.002,0.387-0.293,0.767-0.449,1.146
								C102.899,191.743,102.812,183.523,103.155,175.307"/>
						</g>
					</g>
				</g>
			</g>
		</g>
	</g>
	<g>
		<g>
			<g>
				<g>
					<g>
						<g>
							<defs>
								<rect id="SVGID_35_" width="288" height="288"/>
							</defs>
							<clipPath id="SVGID_36_">
								<use xlink:href="#SVGID_35_"  overflow="visible"/>
							</clipPath>
							<path clip-path="url(#SVGID_36_)" fill="#C2C2C0" d="M103.141,132.104c0.724,8.219,0.761,16.438-0.02,24.655
								C102.877,148.541,102.839,140.322,103.141,132.104"/>
						</g>
					</g>
				</g>
			</g>
		</g>
	</g>
	<g>
		<g>
			<g>
				<g>
					<g>
						<g>
							<defs>
								<rect id="SVGID_37_" width="288" height="288"/>
							</defs>
							<clipPath id="SVGID_38_">
								<use xlink:href="#SVGID_37_"  overflow="visible"/>
							</clipPath>
							<path clip-path="url(#SVGID_38_)" fill="#C2C2C0" d="M103.172,218.512c0.136,0.391,0.391,0.782,0.392,1.174
								c0.024,7.36,0.017,14.727,0.018,22.082c0,0.521-0.024,1.03-0.475,1.396C102.914,234.945,102.792,226.729,103.172,218.512"/>
						</g>
					</g>
				</g>
			</g>
		</g>
	</g>
	<g>
		<g>
			<g>
				<g>
					<g>
						<g>
							<defs>
								<rect id="SVGID_39_" width="288" height="288"/>
							</defs>
							<clipPath id="SVGID_40_">
								<use xlink:href="#SVGID_39_"  overflow="visible"/>
							</clipPath>
							<path clip-path="url(#SVGID_40_)" fill="#C2C2C0" d="M232.613,199.96c-0.736-8.049-0.771-16.097,0.02-24.146
								C232.825,183.863,232.863,191.912,232.613,199.96"/>
						</g>
					</g>
				</g>
			</g>
		</g>
	</g>
	<g>
		<g>
			<g>
				<g>
					<g>
						<g>
							<defs>
								<rect id="SVGID_41_" width="288" height="288"/>
							</defs>
							<clipPath id="SVGID_42_">
								<use xlink:href="#SVGID_41_"  overflow="visible"/>
							</clipPath>
							<path clip-path="url(#SVGID_42_)" fill="#C2C2C0" d="M81.972,215.467c-0.135,0.104-0.268,0.29-0.406,0.295
								c-7.778,0.246-15.556,0.252-23.333-0.003c-0.138-0.005-0.269-0.194-0.403-0.299
								C65.877,215.463,73.925,215.465,81.972,215.467"/>
						</g>
					</g>
				</g>
			</g>
		</g>
	</g>
	<g>
		<g>
			<g>
				<g>
					<g>
						<g>
							<defs>
								<rect id="SVGID_43_" width="288" height="288"/>
							</defs>
							<clipPath id="SVGID_44_">
								<use xlink:href="#SVGID_43_"  overflow="visible"/>
							</clipPath>
							<path clip-path="url(#SVGID_44_)" fill="#C2C2C0" d="M130.832,215.457c-8.046,0.764-16.093,0.734-24.14,0.016
								C114.739,215.468,122.785,215.462,130.832,215.457"/>
						</g>
					</g>
				</g>
			</g>
		</g>
	</g>
	<g>
		<g>
			<g>
				<g>
					<g>
						<g>
							<defs>
								<rect id="SVGID_45_" width="288" height="288"/>
							</defs>
							<clipPath id="SVGID_46_">
								<use xlink:href="#SVGID_45_"  overflow="visible"/>
							</clipPath>
							<path clip-path="url(#SVGID_46_)" fill="#C2C2C0" d="M232.648,156.253c-0.543-0.431-0.486-1.042-0.486-1.633
								c-0.001-6.79-0.001-13.579,0-20.369c0-0.59-0.061-1.202,0.477-1.638C232.643,140.493,232.646,148.373,232.648,156.253"/>
						</g>
					</g>
				</g>
			</g>
		</g>
	</g>
	<g>
		<g>
			<g>
				<g>
					<g>
						<g>
							<defs>
								<rect id="SVGID_47_" width="288" height="288"/>
							</defs>
							<clipPath id="SVGID_48_">
								<use xlink:href="#SVGID_47_"  overflow="visible"/>
							</clipPath>
							<path clip-path="url(#SVGID_48_)" fill="#C2C2C0" d="M152.018,175.816c0.494,0.473,0.424,1.088,0.424,1.683
								c0.002,6.758,0.002,13.517,0,20.274c0,0.596,0.068,1.211-0.438,1.67C152.004,191.568,152.012,183.693,152.018,175.816"/>
						</g>
					</g>
				</g>
			</g>
		</g>
	</g>
	<g>
		<g>
			<g>
				<g>
					<g>
						<g>
							<defs>
								<rect id="SVGID_49_" width="288" height="288"/>
							</defs>
							<clipPath id="SVGID_50_">
								<use xlink:href="#SVGID_49_"  overflow="visible"/>
							</clipPath>
							<path clip-path="url(#SVGID_50_)" fill="#C2C2C0" d="M152.01,132.616c0.42,0.39,0.434,0.902,0.434,1.421
								c-0.002,6.93-0.002,13.859-0.002,20.789c0.002,0.52-0.014,1.031-0.438,1.417C152.005,148.367,152.007,140.492,152.01,132.616
								"/>
						</g>
					</g>
				</g>
			</g>
		</g>
	</g>
	<g>
		<g>
			<g>
				<g>
					<g>
						<g>
							<defs>
								<rect id="SVGID_51_" width="288" height="288"/>
							</defs>
							<clipPath id="SVGID_52_">
								<use xlink:href="#SVGID_51_"  overflow="visible"/>
							</clipPath>
							<path clip-path="url(#SVGID_52_)" fill="#C2C2C0" d="M154.518,203.033c0.438-0.547,1.053-0.486,1.647-0.486
								c7.708-0.001,15.415-0.002,23.122,0.008c0.3,0,0.6,0.1,0.882,0.488h-25.628L154.518,203.033z"/>
						</g>
					</g>
				</g>
			</g>
		</g>
	</g>
</g>
<g transform="translate(50 50) scale(0.69 0.69) rotate(0) translate(-50 -50)" display="none">
	<path display="inline" fill="#331CBF" d="M329.472,16.528V1.491c0-7.607-6.193-13.792-13.802-13.792h-11.413
		c-7.606,0-13.795,6.185-13.795,13.792v14.741h-88.915V1.491c0-7.607-6.192-13.792-13.798-13.792h-11.412
		c-7.609,0-13.807,6.185-13.807,13.792v14.741H73.624V1.491c0-7.607-6.183-13.792-13.791-13.792H48.414
		c-7.608,0-13.8,6.185-13.8,13.792v15.304C15.447,19.91,1.061,36.378,1.061,56.332v283.601c0,22.118,17.989,40.107,40.101,40.107
		h283.6c22.118,0,40.107-17.989,40.107-40.107V56.332C364.869,35.821,349.373,18.872,329.472,16.528z M300.938,1.491
		c0-1.825,1.49-3.322,3.319-3.322h11.413c1.831,0,3.323,1.497,3.323,3.322v39.952c0,1.838-1.492,3.322-3.323,3.322h-11.413
		c-1.829,0-3.319-1.483-3.319-3.322V1.491z M173.014,1.491c0-1.825,1.49-3.322,3.322-3.322h11.419c1.831,0,3.323,1.497,3.323,3.322
		v39.952c0,1.838-1.492,3.322-3.323,3.322h-11.419c-1.831,0-3.322-1.483-3.322-3.322V1.491z M45.099,1.491
		c0-1.825,1.49-3.322,3.322-3.322h11.412c1.831,0,3.322,1.497,3.322,3.322v39.952c0,1.838-1.491,3.322-3.322,3.322H48.421
		c-1.832,0-3.322-1.483-3.322-3.322V1.491z M34.621,27.458v13.985c0,7.607,6.192,13.791,13.8,13.791h11.412
		c7.608,0,13.799-6.183,13.799-13.791V26.701h88.913v14.742c0,7.607,6.191,13.791,13.799,13.791h11.412
		c7.607,0,13.806-6.183,13.806-13.791V26.701h88.904v14.742c0,7.607,6.199,13.791,13.808,13.791h11.406
		c7.606,0,13.806-6.183,13.806-13.791V27.117c14.102,2.269,24.918,14.489,24.918,29.215v50.985H11.532V56.332
		C11.532,42.192,21.319,30.432,34.621,27.458z M324.762,369.571H41.169c-16.335,0-29.623-13.295-29.623-29.628V117.802H354.4
		v222.131C354.4,356.267,341.105,369.571,324.762,369.571z"/>
	<path display="inline" fill="#331CBF" d="M41.162,339.48h283.609V149.916H41.162V339.48z M51.646,279.782h57.8v49.212h-57.8
		V279.782z M246.006,269.305h-57.804v-49.22h57.804V269.305L246.006,269.305z M256.485,220.086h57.798v49.219h-57.798V220.086z
		 M188.202,279.782h57.804v49.212h-57.804V279.782L188.202,279.782z M177.731,328.994h-57.808v-49.212h57.808V328.994z
		 M188.202,209.614v-49.22h57.804v49.22H188.202z M177.731,209.614h-57.808v-49.22h57.808V209.614z M177.731,220.086v49.219h-57.808
		v-49.22h57.808V220.086z M109.446,269.305h-57.8v-49.22h57.8V269.305z M256.485,328.994v-49.212h57.798v49.212H256.485z
		 M314.285,209.614h-57.797v-49.22h57.797V209.614z M109.446,160.394v49.22h-57.8v-49.22H109.446z"/>
</g>
</svg>
