<?xml version="1.0" encoding="utf-8"?>
<!-- Generator: Adobe Illustrator 16.0.0, SVG Export Plug-In . SVG Version: 6.00 Build 0)  -->
<!DOCTYPE svg PUBLIC "-//W3C//DTD SVG 1.1//EN" "http://www.w3.org/Graphics/SVG/1.1/DTD/svg11.dtd">
<svg version="1.1" id="Layer_1" xmlns="http://www.w3.org/2000/svg" xmlns:xlink="http://www.w3.org/1999/xlink" x="0px" y="0px"
	 width="18.678px" height="18.676px" viewBox="10.762 11.764 18.678 18.676" enable-background="new 10.762 11.764 18.678 18.676"
	 xml:space="preserve">
<path fill="#FFFFFF" d="M288.534,331.105h90c2.762,0,5,2.237,5,5v90c0,2.762-2.238,5-5,5h-90c-2.762,0-5-2.238-5-5v-90
	C283.534,333.344,285.772,331.105,288.534,331.105z"/>
<g>
	<path fill="#4D4D4D" d="M20.1,11.764c-5.156,0-9.338,4.18-9.338,9.338s4.182,9.338,9.338,9.338c1.267,0,2.471-0.256,3.572-0.711
		c0.189-0.078,0.361-0.194,0.506-0.338c0.606-0.607,0.606-1.594,0-2.201l-1.097-1.096c-0.281-0.283-0.456-0.672-0.456-1.103
		c0-0.858,0.698-1.556,1.557-1.556l3.699-0.002c0.859,0,1.559-0.696,1.559-1.555V21.1C29.438,15.943,25.258,11.764,20.1,11.764z
		 M27.881,21.879h-3.699c-1.717,0-3.113,1.396-3.113,3.112c0,0.832,0.324,1.613,0.912,2.201l1.096,1.096
		c-0.948,0.396-1.95,0.595-2.977,0.595c-4.291,0-7.781-3.49-7.781-7.781s3.49-7.783,7.781-7.783s7.781,3.49,7.781,7.781V21.879
		L27.881,21.879z"/>
	<circle fill="#DB4437" cx="20.1" cy="16.433" r="1.556"/>
	<path fill="#0F9D58" d="M15.277,22.088c0.744-0.431,1.697-0.175,2.125,0.569c0.432,0.744,0.176,1.696-0.567,2.126
		c-0.745,0.43-1.698,0.173-2.127-0.568C14.277,23.469,14.534,22.518,15.277,22.088z"/>
	<circle fill="#4285F4" cx="24.145" cy="18.768" r="1.557"/>
	<path fill="#F4B400" d="M15.277,20.115c-0.744-0.432-1-1.383-0.568-2.127c0.428-0.745,1.381-1,2.125-0.57s1,1.381,0.568,2.127
		C16.975,20.288,16.021,20.545,15.277,20.115z"/>
</g>
</svg>
