<?xml version="1.0" encoding="utf-8"?>
<!-- Generator: Adobe Illustrator 16.0.0, SVG Export Plug-In . SVG Version: 6.00 Build 0)  -->
<!DOCTYPE svg PUBLIC "-//W3C//DTD SVG 1.1//EN" "http://www.w3.org/Graphics/SVG/1.1/DTD/svg11.dtd">
<svg version="1.1" id="Layer_1" xmlns="http://www.w3.org/2000/svg" xmlns:xlink="http://www.w3.org/1999/xlink" x="0px" y="0px"
	 width="67.138px" height="54.993px" viewBox="20.209 25.069 67.138 54.993" enable-background="new 20.209 25.069 67.138 54.993"
	 xml:space="preserve">
<g transform="translate(50 50) scale(0.69 0.69) rotate(0) translate(-50 -50)">
	<path fill="#2B80C3" d="M88.025,13.869h-67.7c-7.401,0-13.501,6.7-13.501,14.899v41.201c0,8.199,5.999,14.899,13.501,14.899h52.6
		c-0.401-1.398-0.6-2.899-0.6-4.399c0-0.3,0-0.6,0-0.9h-52c-4.501,0-8.2-4.3-8.2-9.6v-33.4h84.1v26.8
		c1.899,0.699,3.7,1.599,5.299,2.899v-37.5C101.524,20.569,95.424,13.869,88.025,13.869z M96.225,31.268h-84.1v-2.501
		c0-5.299,3.7-9.599,8.2-9.599h67.799c4.501,0,8.2,4.3,8.2,9.599v2.501H96.225z"/>
	<rect x="61.825" y="57.569" fill="#2B80C3" width="18.9" height="4.9"/>
	<rect x="61.825" y="48.568" fill="#2B80C3" width="22.501" height="4.9"/>
	<rect x="61.825" y="66.168" fill="#2B80C3" width="9.4" height="4.9"/>
	<circle fill="#2B80C3" cx="64.024" cy="25.069" r="3.3"/>
	<circle fill="#2B80C3" cx="74.226" cy="25.069" r="3.3"/>
	<circle fill="#2B80C3" cx="84.926" cy="25.069" r="3.3"/>
	<path fill="#2B80C3" d="M103.125,77.468h-2.201c-0.3-1.4-0.8-2.499-1.599-3.7l1.8-1.8c0.099-0.099,0.2-0.3,0.2-0.5
		s-0.1-0.3-0.2-0.5l-2.301-2.301c-0.198-0.2-0.699-0.2-0.999,0l-1.8,1.8c-0.999-0.699-2.199-1.2-3.3-1.5v-2.4
		c0-0.3-0.3-0.699-0.699-0.699h-3.601c-0.3,0-0.699,0.3-0.699,0.699v2.301c-1.299,0.2-2.4,0.8-3.5,1.4l-2-2
		c-0.201-0.201-0.701-0.201-1.001,0l-2.399,2.4c-0.1,0.099-0.201,0.3-0.201,0.5c0,0.1,0.1,0.3,0.201,0.5l1.998,2
		c-0.699,1.2-1.299,2.4-1.599,3.8h-2.199c-0.3,0-0.701,0.3-0.701,0.699v3.501c0,0.3,0.3,0.699,0.701,0.699h2.199
		c0.201,1.301,0.801,2.4,1.401,3.5l-1.701,1.7c-0.099,0.1-0.2,0.3-0.2,0.501c0,0.099,0.1,0.3,0.2,0.5l2.4,2.399
		c0.099,0.102,0.3,0.201,0.5,0.201s0.3-0.099,0.5-0.201l1.701-1.698c1.2,0.8,2.4,1.299,3.799,1.599v2c0,0.3,0.3,0.701,0.701,0.701
		h3.5c0.3,0,0.699-0.3,0.699-0.701v-2.099c1.401-0.3,2.501-0.801,3.701-1.601l1.5,1.499c0.1,0.102,0.3,0.201,0.5,0.201
		c0.201,0,0.3-0.099,0.501-0.201l2.399-2.399c0.1-0.1,0.2-0.3,0.2-0.5c0-0.201-0.099-0.3-0.2-0.501l-1.499-1.5
		c0.699-0.999,1.199-2.199,1.398-3.499h2.201c0.3,0,0.701-0.3,0.701-0.701v-3.5C103.826,77.869,103.625,77.468,103.125,77.468z
		 M90.025,86.869c-3.8,0-6.9-3.1-6.9-6.901c0-3.799,3.1-6.9,6.9-6.9s6.9,3.101,6.9,6.9C96.925,83.868,93.825,86.869,90.025,86.869z"
		/>
	<path fill="#2B80C3" d="M37.925,43.768c-3.899,0-7.101,3.2-7.101,7.101c0,3.899,3.201,7.099,7.101,7.099
		c3.901,0,7.101-3.2,7.101-7.099C45.025,46.968,41.825,43.768,37.925,43.768z"/>
	<path fill="#2B80C3" d="M44.524,60.669H31.325c-3.4,0-6.2,2.7-6.2,6.199v5.8h25.6v-5.8C50.725,63.369,47.925,60.669,44.524,60.669z
		"/>
</g>
</svg>
