<?xml version="1.0" encoding="utf-8"?>
<!-- Generator: Adobe Illustrator 16.0.0, SVG Export Plug-In . SVG Version: 6.00 Build 0)  -->
<!DOCTYPE svg PUBLIC "-//W3C//DTD SVG 1.1//EN" "http://www.w3.org/Graphics/SVG/1.1/DTD/svg11.dtd">
<svg version="1.1" id="Layer_1" xmlns="http://www.w3.org/2000/svg" xmlns:xlink="http://www.w3.org/1999/xlink" x="0px" y="0px"
	 width="100px" height="100px" viewBox="0 0 100 100" enable-background="new 0 0 100 100" xml:space="preserve">
<g transform="translate(50 50) scale(0.69 0.69) rotate(0) translate(-50 -50)">
	<g>
		<path fill="#4D4D4D" stroke="#4D4D4D" stroke-width="3" stroke-miterlimit="10" d="M52.965-10.87
			c-32.314,0-58.486,26.172-58.486,58.486s26.172,58.486,58.486,58.486s58.486-26.172,58.486-58.486S85.279-10.87,52.965-10.87z
			 M52.965,100.153c-28.944,0-52.538-23.59-52.538-52.536c0-28.944,23.594-52.538,52.538-52.538
			c28.946,0,52.536,23.593,52.536,52.538C105.501,76.562,81.911,100.153,52.965,100.153z"/>
		<path fill="#4D4D4D" stroke="#4D4D4D" stroke-width="3" stroke-miterlimit="10" d="M76.955,55.745
			c-5.354,7.931-14.276,12.69-23.793,12.69c-9.911,0-18.833-4.958-24.186-13.283c-0.792-1.391-2.774-1.785-4.162-0.992
			c-1.391,0.793-1.785,2.777-0.991,4.165c6.341,9.909,17.247,15.86,29.143,15.86c11.498,0,22.206-5.75,28.746-15.264
			c0.992-1.393,0.596-3.176-0.793-4.165C79.727,53.96,77.942,54.356,76.955,55.745z"/>
		<path fill="#4D4D4D" stroke="#4D4D4D" stroke-width="3" stroke-miterlimit="10" d="M33.139,34.333c0-3.567-2.976-6.542-6.54-6.542
			c-3.569,0-6.545,2.975-6.545,6.542c0,3.57,2.976,6.544,6.545,6.544C30.163,40.877,33.139,38.099,33.139,34.333z"/>
		<path fill="#4D4D4D" stroke="#4D4D4D" stroke-width="3" stroke-miterlimit="10" d="M79.334,27.79c-3.568,0-6.54,2.975-6.54,6.542
			c0,3.57,2.972,6.544,6.54,6.544s6.543-2.974,6.543-6.544C85.877,30.765,83.103,27.79,79.334,27.79z"/>
	</g>
</g>
</svg>
