<?xml version="1.0" encoding="utf-8"?>
<!-- Generator: Adobe Illustrator 16.0.0, SVG Export Plug-In . SVG Version: 6.00 Build 0)  -->
<!DOCTYPE svg PUBLIC "-//W3C//DTD SVG 1.1//EN" "http://www.w3.org/Graphics/SVG/1.1/DTD/svg11.dtd">
<svg version="1.1" id="Layer_1" xmlns="http://www.w3.org/2000/svg" xmlns:xlink="http://www.w3.org/1999/xlink" x="0px" y="0px"
	 width="36px" height="23.625px" viewBox="6.875 13.125 36 23.625" enable-background="new 6.875 13.125 36 23.625"
	 xml:space="preserve">
<path fill="#F9F9F9" d="M39.988,36.182H10.012c-1.253,0-2.269-1.016-2.269-2.269V16.087c0-1.253,1.016-2.269,2.269-2.269h29.976
	c1.252,0,2.268,1.016,2.268,2.269v17.826C42.256,35.166,41.24,36.182,39.988,36.182z"/>
<path fill="none" stroke="#000000" stroke-width="0.8" stroke-linecap="round" stroke-linejoin="round" stroke-miterlimit="10" d="
	M39.988,36.182H10.012c-1.253,0-2.269-1.016-2.269-2.269V16.087c0-1.253,1.016-2.269,2.269-2.269h29.976
	c1.252,0,2.268,1.016,2.268,2.269v17.826C42.256,35.166,41.24,36.182,39.988,36.182z"/>
<g>
	<path fill="#128CF9" d="M24.092,21.572l-2.042,4.664l-2.138-4.664h-2.75v6.448l-2.83-6.448h-2.428l-2.959,6.849l1.801,0.007
		l0.563-1.469h3.505l0.643,1.469h3.377v-5.361l2.38,5.354c0,0,1.446,0.017,1.559,0c0.112-0.017,2.347-5.306,2.347-5.306v5.306h1.625
		v-6.849H24.092L24.092,21.572z M11.968,25.506l1.123-2.676l1.125,2.676H11.968z"/>
	<path fill="#128CF9" d="M41.054,21.572h-1.966l-2.092,2.266l-2.021-2.266h-6.706v6.856h6.623l2.076-2.22l2.036,2.22h1.995
		L38.028,25L41.054,21.572z M33.972,27.073h-4.059v-1.395c0,0,3.556,0,3.64,0s0-1.422,0-1.422h-3.64v-1.282h4.142l1.882,2.049
		L33.972,27.073z"/>
</g>
</svg>
