<?xml version="1.0" encoding="utf-8"?>
<!-- Generator: Adobe Illustrator 16.0.0, SVG Export Plug-In . SVG Version: 6.00 Build 0)  -->
<!DOCTYPE svg PUBLIC "-//W3C//DTD SVG 1.1//EN" "http://www.w3.org/Graphics/SVG/1.1/DTD/svg11.dtd">
<svg version="1.1" id="Layer_1" xmlns="http://www.w3.org/2000/svg" xmlns:xlink="http://www.w3.org/1999/xlink" x="0px" y="0px"
	 width="100px" height="100px" viewBox="0 0 100 100" enable-background="new 0 0 100 100" xml:space="preserve">
<g display="none">
	<polygon display="inline" fill="#4587F7" points="85.192,13.806 85.192,0 77.36,0 77.36,13.806 63.556,13.806 63.556,21.637 
		77.36,21.637 77.36,35.44 85.192,35.44 85.192,21.637 99,21.637 99,13.806 	"/>
	<path display="inline" fill="#4587F7" d="M35.088,66.432c-17.809,0-33.429,8.527-33.429,32.677v0.695h66.862v-0.695
		C68.521,74.959,52.898,66.432,35.088,66.432z"/>
	<path display="inline" fill="#4587F7" d="M35.088,62.459c12.524,0,22.713-10.189,22.713-22.717
		c0-12.525-10.189-22.715-22.713-22.715c-12.528,0-22.718,10.19-22.718,22.715C12.37,52.27,22.56,62.459,35.088,62.459z"/>
</g>
<path fill="#4587F7" d="M41.96,8.935c12.221,0,22.124,9.901,22.124,22.126c0,12.221-9.902,22.123-22.124,22.123
	c-12.146,0-22.047-9.901-22.047-22.123C19.913,18.836,29.815,8.935,41.96,8.935z M83.965,92.404
	c0.308,1.394-0.696,2.784-2.166,2.784H2.198c-1.393,0-2.396-1.237-2.165-2.63C3.824,72.756,22.312,59.837,41.96,59.837
	S80.021,72.679,83.965,92.404z"/>
<g>
	<rect x="83.256" y="4.25" fill="#4587F7" width="5.199" height="28.643"/>
	
		<rect x="83.256" y="4.668" transform="matrix(0.0056 -1 1 0.0056 66.3835 104.7366)" fill="#4587F7" width="5.199" height="28.642"/>
</g>
</svg>
