<?xml version="1.0" encoding="utf-8"?>
<!-- Generator: Adobe Illustrator 16.0.0, SVG Export Plug-In . SVG Version: 6.00 Build 0)  -->
<!DOCTYPE svg PUBLIC "-//W3C//DTD SVG 1.1//EN" "http://www.w3.org/Graphics/SVG/1.1/DTD/svg11.dtd">
<svg version="1.1" id="Layer_1" xmlns="http://www.w3.org/2000/svg" xmlns:xlink="http://www.w3.org/1999/xlink" x="0px" y="0px"
	 width="53.818px" height="46.92px" viewBox="0 0 53.818 46.92" enable-background="new 0 0 53.818 46.92" xml:space="preserve">
<g transform="translate(50 50) scale(0.69 0.69) rotate(0) translate(-50 -50)">
	<g>
		<path fill="#4D4D4D" d="M-11.486-17.364v8.2c0,0.999,0.801,1.8,1.8,1.8h52.499c1.001,0,1.8-0.801,1.8-1.8v-8.2
			c0-2.799-2.499-5.099-5.5-5.099h-45.1C-8.987-22.363-11.486-20.164-11.486-17.364z"/>
		<path fill="#4D4D4D" d="M24.814,45.536c0.501,0,0.801-0.401,0.801-0.8V25.436c0-0.5-0.401-0.8-0.801-0.8H8.215
			c-0.501,0-0.801,0.399-0.801,0.8v19.2c0,0.5,0.401,0.8,0.801,0.8h16.599V45.536z"/>
		<path fill="#4D4D4D" d="M39.015,45.536c3,0,5.5-2.3,5.5-5.2V17.435c0-0.999-0.801-1.799-1.8-1.799h-52.4
			c-0.999,0-1.8,0.8-1.8,1.799v22.901c0,2.799,2.499,5.2,5.5,5.2H4.215c0.699,0,1.299-0.6,1.299-1.301V23.637
			c0-0.6,0.399-1.002,0.999-1.002h20.201c0.6,0,1.001,0.402,1.001,1.002v20.598c0,0.701,0.6,1.301,1.299,1.301H39.015z"/>
		<path fill="#4D4D4D" d="M44.715-4.464c-0.401-0.5-1.001-0.9-1.7-0.9h-52.9c-0.701,0-1.301,0.3-1.7,0.9l-10.4,13.7
			c-0.6,0.8-0.6,1.901-0.201,2.799c0.501,0.9,1.5,1.5,2.499,1.5h5.2h3h56.001h7.999h0.201c1.098,0,1.998-0.6,2.499-1.5
			c0.501-0.899,0.399-2-0.201-2.799L44.715-4.464z M-3.185-0.364l-6.1,10.001c-0.2,0.2-0.5,0.399-0.8,0.399
			c-0.201,0-0.401-0.099-0.6-0.2c-0.401-0.3-0.501-1.001-0.1-1.4l6.1-10.001c0.3-0.399,1.001-0.501,1.4-0.099
			C-2.887-1.465-2.785-0.865-3.185-0.364z M8.115-0.565L3.513,9.436c-0.198,0.3-0.498,0.501-0.899,0.501c-0.2,0-0.3,0-0.5-0.1
			c-0.501-0.3-0.701-0.9-0.401-1.4l4.6-10.001c0.3-0.501,0.9-0.699,1.4-0.399C8.215-1.663,8.314-1.064,8.115-0.565z M17.514,8.936
			c0,0.6-0.399,1.001-0.999,1.001c-0.6,0-0.999-0.401-0.999-1.001V-1.064c0-0.599,0.399-1.001,0.999-1.001
			c0.6,0,0.999,0.402,0.999,1.001V8.936z M30.914,9.836c-0.2,0.1-0.3,0.1-0.5,0.1c-0.401,0-0.701-0.201-0.899-0.501L24.914-0.565
			c-0.3-0.5-0.1-1.098,0.401-1.398c0.5-0.3,1.1-0.102,1.4,0.399l4.6,10.001C31.514,8.936,31.415,9.536,30.914,9.836z M43.714,9.736
			c-0.2,0.201-0.399,0.201-0.6,0.201c-0.3,0-0.6-0.1-0.8-0.401l-6.1-10.001c-0.3-0.401-0.3-1.1,0.1-1.4c0.399-0.3,1.1-0.3,1.4,0.099
			l6.1,10.001C44.215,8.737,44.114,9.337,43.714,9.736z"/>
	</g>
</g>
</svg>
