<?xml version="1.0" encoding="utf-8"?>
<!-- Generator: Adobe Illustrator 16.0.0, SVG Export Plug-In . SVG Version: 6.00 Build 0)  -->
<!DOCTYPE svg PUBLIC "-//W3C//DTD SVG 1.1//EN" "http://www.w3.org/Graphics/SVG/1.1/DTD/svg11.dtd">
<svg version="1.1" id="Layer_1" xmlns="http://www.w3.org/2000/svg" xmlns:xlink="http://www.w3.org/1999/xlink" x="0px" y="0px"
	 width="100px" height="100px" viewBox="0 0 100 100" enable-background="new 0 0 100 100" xml:space="preserve">
<g display="none">
	<g display="inline">
		<circle fill="#C7C7C7" cx="26.738" cy="33.118" r="0.049"/>
		<circle fill="#C7C7C7" cx="29.701" cy="33.117" r="0.099"/>
		<circle fill="#C7C7C7" cx="32.665" cy="33.117" r="0.148"/>
		<circle fill="#C7C7C7" cx="35.627" cy="33.116" r="0.173"/>
		<circle fill="#C7C7C7" cx="38.589" cy="33.117" r="0.181"/>
		<circle fill="#C7C7C7" cx="41.553" cy="33.116" r="0.173"/>
		<circle fill="#C7C7C7" cx="44.516" cy="33.117" r="0.148"/>
		<circle fill="#C7C7C7" cx="47.479" cy="33.117" r="0.107"/>
		<circle fill="#C7C7C7" cx="50.441" cy="33.117" r="0.057"/>
		<circle fill="#C7C7C7" cx="19.331" cy="36.08" r="0.057"/>
		<circle fill="#C7C7C7" cx="22.294" cy="36.08" r="0.148"/>
		<circle fill="#C7C7C7" cx="25.257" cy="36.08" r="0.23"/>
		<circle fill="#C7C7C7" cx="28.221" cy="36.081" r="0.312"/>
		<circle fill="#C7C7C7" cx="31.183" cy="36.08" r="0.386"/>
		<circle fill="#C7C7C7" cx="34.145" cy="36.08" r="0.436"/>
		<circle fill="#C7C7C7" cx="37.109" cy="36.081" r="0.452"/>
		<circle fill="#C7C7C7" cx="40.072" cy="36.08" r="0.436"/>
		<circle fill="#C7C7C7" cx="43.035" cy="36.08" r="0.386"/>
		<circle fill="#C7C7C7" cx="45.997" cy="36.08" r="0.321"/>
		<circle fill="#C7C7C7" cx="48.961" cy="36.08" r="0.238"/>
		<circle fill="#C7C7C7" cx="51.922" cy="36.08" r="0.148"/>
		<circle fill="#C7C7C7" cx="54.887" cy="36.08" r="0.066"/>
		<circle fill="#C7C7C7" cx="17.849" cy="39.043" r="0.099"/>
		<circle fill="#C7C7C7" cx="20.813" cy="39.043" r="0.222"/>
		<circle fill="#C7C7C7" cx="23.775" cy="39.043" r="0.353"/>
		<circle fill="#C7C7C7" cx="26.738" cy="39.043" r="0.493"/>
		<circle fill="#C7C7C7" cx="29.701" cy="39.043" r="0.641"/>
		<circle fill="#C7C7C7" cx="32.665" cy="39.043" r="0.764"/>
		<circle fill="#C7C7C7" cx="35.627" cy="39.043" r="0.854"/>
		<circle fill="#C7C7C7" cx="38.589" cy="39.042" r="0.879"/>
		<circle fill="#C7C7C7" cx="41.553" cy="39.043" r="0.854"/>
		<circle fill="#C7C7C7" cx="44.516" cy="39.043" r="0.764"/>
		<circle fill="#C7C7C7" cx="47.479" cy="39.043" r="0.649"/>
		<circle fill="#C7C7C7" cx="50.441" cy="39.042" r="0.509"/>
		<circle fill="#C7C7C7" cx="53.406" cy="39.043" r="0.361"/>
		<path fill="#C7C7C7" d="M56.366,39.273c0.129,0,0.229-0.103,0.229-0.23c0-0.126-0.102-0.229-0.229-0.229
			c-0.124,0-0.229,0.103-0.229,0.229C56.137,39.17,56.242,39.273,56.366,39.273z"/>
		<circle fill="#C7C7C7" cx="59.33" cy="39.043" r="0.106"/>
		<circle fill="#C7C7C7" cx="13.405" cy="42.006" r="0.115"/>
		<circle fill="#C7C7C7" cx="16.369" cy="42.006" r="0.262"/>
		<circle fill="#C7C7C7" cx="19.331" cy="42.006" r="0.436"/>
		<circle fill="#C7C7C7" cx="22.294" cy="42.006" r="0.657"/>
		<circle fill="#C7C7C7" cx="25.257" cy="42.006" r="0.904"/>
		<circle fill="#C7C7C7" cx="28.221" cy="42.006" r="1.019"/>
		<circle fill="#C7C7C7" cx="31.183" cy="42.006" r="1.019"/>
		<circle fill="#C7C7C7" cx="34.145" cy="42.006" r="1.019"/>
		<circle fill="#C7C7C7" cx="37.109" cy="42.006" r="1.019"/>
		<circle fill="#C7C7C7" cx="40.072" cy="42.006" r="1.019"/>
		<circle fill="#C7C7C7" cx="43.035" cy="42.006" r="1.019"/>
		<circle fill="#C7C7C7" cx="45.997" cy="42.006" r="1.019"/>
		<circle fill="#C7C7C7" cx="48.961" cy="42.006" r="0.92"/>
		<circle fill="#C7C7C7" cx="51.922" cy="42.005" r="0.682"/>
		<circle fill="#C7C7C7" cx="54.887" cy="42.006" r="0.46"/>
		<circle fill="#C7C7C7" cx="57.85" cy="42.006" r="0.272"/>
		<path fill="#C7C7C7" d="M60.811,42.129c0.07,0,0.125-0.056,0.125-0.124c0-0.068-0.055-0.124-0.125-0.124
			c-0.064,0-0.121,0.056-0.121,0.124C60.689,42.074,60.745,42.129,60.811,42.129z"/>
		<circle fill="#C7C7C7" cx="11.924" cy="44.969" r="0.099"/>
		<circle fill="#C7C7C7" cx="14.887" cy="44.969" r="0.263"/>
		<circle fill="#C7C7C7" cx="17.849" cy="44.969" r="0.476"/>
		<circle fill="#C7C7C7" cx="20.813" cy="44.969" r="0.756"/>
		<circle fill="#C7C7C7" cx="23.775" cy="44.969" r="1.019"/>
		<circle fill="#C7C7C7" cx="26.738" cy="44.969" r="1.019"/>
		<circle fill="#C7C7C7" cx="29.701" cy="44.969" r="1.019"/>
		<circle fill="#C7C7C7" cx="32.665" cy="44.969" r="1.019"/>
		<circle fill="#C7C7C7" cx="35.627" cy="44.969" r="1.019"/>
		<circle fill="#C7C7C7" cx="38.589" cy="44.969" r="1.019"/>
		<circle fill="#C7C7C7" cx="41.553" cy="44.969" r="1.019"/>
		<circle fill="#C7C7C7" cx="44.516" cy="44.969" r="1.019"/>
		<circle fill="#C7C7C7" cx="47.479" cy="44.969" r="1.019"/>
		<circle fill="#C7C7C7" cx="50.441" cy="44.969" r="1.019"/>
		<circle fill="#C7C7C7" cx="53.406" cy="44.969" r="1.019"/>
		<circle fill="#C7C7C7" cx="56.366" cy="44.969" r="0.789"/>
		<circle fill="#C7C7C7" cx="59.33" cy="44.969" r="0.493"/>
		<circle fill="#C7C7C7" cx="62.293" cy="44.969" r="0.279"/>
		<path fill="#C7C7C7" d="M65.254,45.083c0.064,0,0.118-0.052,0.118-0.114c0-0.064-0.054-0.116-0.118-0.116
			c-0.061,0-0.113,0.051-0.113,0.116C65.141,45.032,65.193,45.083,65.254,45.083z"/>
		<circle fill="#C7C7C7" cx="7.479" cy="47.932" r="0.057"/>
		<circle fill="#C7C7C7" cx="10.443" cy="47.931" r="0.222"/>
		<circle fill="#C7C7C7" cx="13.405" cy="47.931" r="0.435"/>
		<circle fill="#C7C7C7" cx="16.369" cy="47.932" r="0.755"/>
		<circle fill="#C7C7C7" cx="19.331" cy="47.932" r="1.019"/>
		<circle fill="#C7C7C7" cx="22.294" cy="47.932" r="1.019"/>
		<circle fill="#C7C7C7" cx="25.257" cy="47.932" r="1.019"/>
		<circle fill="#C7C7C7" cx="28.221" cy="47.932" r="1.019"/>
		<circle fill="#C7C7C7" cx="31.183" cy="47.932" r="1.019"/>
		<circle fill="#C7C7C7" cx="34.145" cy="47.932" r="1.019"/>
		<circle fill="#C7C7C7" cx="37.109" cy="47.932" r="1.019"/>
		<circle fill="#C7C7C7" cx="40.072" cy="47.932" r="1.019"/>
		<circle fill="#C7C7C7" cx="43.035" cy="47.932" r="1.019"/>
		<circle fill="#C7C7C7" cx="45.997" cy="47.932" r="1.019"/>
		<circle fill="#C7C7C7" cx="48.961" cy="47.932" r="1.019"/>
		<path fill="#C7C7C7" d="M51.922,48.951c0.563,0,1.021-0.456,1.021-1.02c0-0.563-0.457-1.019-1.021-1.019
			c-0.561,0-1.018,0.456-1.018,1.019C50.904,48.495,51.361,48.951,51.922,48.951z"/>
		<circle fill="#C7C7C7" cx="54.887" cy="47.932" r="1.019"/>
		<circle fill="#C7C7C7" cx="57.85" cy="47.932" r="0.788"/>
		<path fill="#C7C7C7" d="M60.811,48.4c0.26,0,0.469-0.211,0.469-0.469c0-0.259-0.209-0.469-0.469-0.469
			c-0.256,0-0.465,0.21-0.465,0.469C60.346,48.189,60.555,48.4,60.811,48.4z"/>
		<path fill="#C7C7C7" d="M63.775,48.17c0.132,0,0.236-0.107,0.236-0.238c0-0.132-0.104-0.238-0.236-0.238
			c-0.133,0-0.239,0.106-0.239,0.238C63.536,48.063,63.643,48.17,63.775,48.17z"/>
		<circle fill="#C7C7C7" cx="66.736" cy="47.932" r="0.066"/>
		<circle fill="#C7C7C7" cx="8.961" cy="50.895" r="0.147"/>
		<circle fill="#C7C7C7" cx="11.924" cy="50.895" r="0.354"/>
		<circle fill="#C7C7C7" cx="14.887" cy="50.895" r="0.657"/>
		<circle fill="#C7C7C7" cx="17.849" cy="50.894" r="1.018"/>
		<circle fill="#C7C7C7" cx="20.813" cy="50.894" r="1.018"/>
		<circle fill="#C7C7C7" cx="23.775" cy="50.894" r="1.018"/>
		<circle fill="#C7C7C7" cx="26.738" cy="50.894" r="1.018"/>
		<circle fill="#C7C7C7" cx="29.701" cy="50.894" r="1.018"/>
		<circle fill="#C7C7C7" cx="32.665" cy="50.894" r="1.018"/>
		<circle fill="#C7C7C7" cx="35.627" cy="50.894" r="1.018"/>
		<circle fill="#C7C7C7" cx="38.589" cy="50.894" r="1.018"/>
		<circle fill="#C7C7C7" cx="41.553" cy="50.894" r="1.018"/>
		<circle fill="#C7C7C7" cx="44.516" cy="50.894" r="1.018"/>
		<circle fill="#C7C7C7" cx="47.479" cy="50.894" r="1.018"/>
		<circle fill="#C7C7C7" cx="50.441" cy="50.894" r="1.018"/>
		<circle fill="#C7C7C7" cx="53.406" cy="50.894" r="1.018"/>
		<circle fill="#C7C7C7" cx="56.366" cy="50.894" r="1.018"/>
		<circle fill="#C7C7C7" cx="59.33" cy="50.894" r="1.018"/>
		<circle fill="#C7C7C7" cx="62.293" cy="50.894" r="0.691"/>
		<path fill="#C7C7C7" d="M65.254,51.273c0.213,0,0.38-0.17,0.38-0.379s-0.167-0.379-0.38-0.379c-0.207,0-0.376,0.17-0.376,0.379
			S65.047,51.273,65.254,51.273z"/>
		<circle fill="#C7C7C7" cx="68.219" cy="50.895" r="0.157"/>
		<circle fill="#C7C7C7" cx="4.517" cy="53.857" r="0.049"/>
		<circle fill="#C7C7C7" cx="7.479" cy="53.856" r="0.23"/>
		<circle fill="#C7C7C7" cx="10.443" cy="53.857" r="0.493"/>
		<circle fill="#C7C7C7" cx="13.405" cy="53.857" r="0.904"/>
		<circle fill="#C7C7C7" cx="16.369" cy="53.858" r="1.019"/>
		<circle fill="#C7C7C7" cx="19.331" cy="53.858" r="1.019"/>
		<circle fill="#C7C7C7" cx="22.294" cy="53.858" r="1.019"/>
		<circle fill="#C7C7C7" cx="25.257" cy="53.858" r="1.019"/>
		<circle fill="#C7C7C7" cx="28.221" cy="53.858" r="1.019"/>
		<circle fill="#C7C7C7" cx="31.183" cy="53.858" r="1.019"/>
		<circle fill="#C7C7C7" cx="34.145" cy="53.858" r="1.019"/>
		<circle fill="#C7C7C7" cx="37.109" cy="53.858" r="1.019"/>
		<circle fill="#C7C7C7" cx="40.072" cy="53.858" r="1.019"/>
		<circle fill="#C7C7C7" cx="43.035" cy="53.858" r="1.019"/>
		<circle fill="#C7C7C7" cx="45.997" cy="53.858" r="1.019"/>
		<circle fill="#C7C7C7" cx="48.961" cy="53.858" r="1.019"/>
		<path fill="#C7C7C7" d="M51.922,54.877c0.563,0,1.021-0.457,1.021-1.018c0-0.564-0.457-1.021-1.021-1.021
			c-0.561,0-1.018,0.456-1.018,1.021C50.904,54.42,51.361,54.877,51.922,54.877z"/>
		<circle fill="#C7C7C7" cx="54.887" cy="53.858" r="1.019"/>
		<circle fill="#C7C7C7" cx="57.85" cy="53.858" r="1.019"/>
		<path fill="#C7C7C7" d="M60.811,54.802c0.522,0,0.945-0.423,0.945-0.942c0-0.522-0.423-0.945-0.945-0.945
			c-0.52,0-0.943,0.423-0.943,0.945C59.866,54.379,60.291,54.802,60.811,54.802z"/>
		<path fill="#C7C7C7" d="M63.775,54.384c0.287,0,0.523-0.237,0.523-0.524c0-0.289-0.236-0.526-0.523-0.526
			c-0.289,0-0.526,0.237-0.526,0.526C63.249,54.146,63.486,54.384,63.775,54.384z"/>
		<path fill="#C7C7C7" d="M66.736,54.104c0.137,0,0.248-0.11,0.248-0.244c0-0.137-0.111-0.248-0.248-0.248s-0.244,0.111-0.244,0.248
			C66.492,53.992,66.602,54.104,66.736,54.104z"/>
		<path fill="#C7C7C7" d="M69.7,53.924c0.036,0,0.063-0.029,0.063-0.064c0-0.037-0.027-0.068-0.063-0.068
			c-0.035,0-0.065,0.031-0.065,0.068C69.635,53.895,69.665,53.924,69.7,53.924z"/>
		<circle fill="#C7C7C7" cx="5.999" cy="56.82" r="0.099"/>
		<circle fill="#C7C7C7" cx="8.961" cy="56.82" r="0.313"/>
		<circle fill="#C7C7C7" cx="11.924" cy="56.82" r="0.641"/>
		<circle fill="#C7C7C7" cx="14.887" cy="56.819" r="1.019"/>
		<circle fill="#C7C7C7" cx="17.849" cy="56.819" r="1.019"/>
		<circle fill="#C7C7C7" cx="20.813" cy="56.819" r="1.019"/>
		<circle fill="#C7C7C7" cx="23.775" cy="56.819" r="1.019"/>
		<circle fill="#C7C7C7" cx="26.738" cy="56.819" r="1.019"/>
		<circle fill="#C7C7C7" cx="29.701" cy="56.819" r="1.019"/>
		<circle fill="#C7C7C7" cx="32.665" cy="56.819" r="1.019"/>
		<circle fill="#C7C7C7" cx="35.627" cy="56.819" r="1.019"/>
		<circle fill="#C7C7C7" cx="38.589" cy="56.819" r="1.019"/>
		<circle fill="#C7C7C7" cx="41.553" cy="56.819" r="1.019"/>
		<circle fill="#C7C7C7" cx="44.516" cy="56.819" r="1.019"/>
		<circle fill="#C7C7C7" cx="47.479" cy="56.819" r="1.019"/>
		<circle fill="#C7C7C7" cx="50.441" cy="56.819" r="1.019"/>
		<circle fill="#C7C7C7" cx="53.406" cy="56.819" r="1.019"/>
		<circle fill="#C7C7C7" cx="56.366" cy="56.819" r="1.019"/>
		<circle fill="#C7C7C7" cx="59.33" cy="56.819" r="1.019"/>
		<circle fill="#C7C7C7" cx="62.293" cy="56.819" r="1.019"/>
		<path fill="#C7C7C7" d="M65.254,57.494c0.375,0,0.676-0.303,0.676-0.676c0-0.37-0.301-0.672-0.676-0.672
			c-0.37,0-0.67,0.302-0.67,0.672C64.584,57.191,64.884,57.494,65.254,57.494z"/>
		<circle fill="#C7C7C7" cx="68.219" cy="56.821" r="0.337"/>
		<circle fill="#C7C7C7" cx="71.184" cy="56.82" r="0.114"/>
		<circle fill="#C7C7C7" cx="4.517" cy="59.783" r="0.148"/>
		<circle fill="#C7C7C7" cx="7.479" cy="59.784" r="0.385"/>
		<circle fill="#C7C7C7" cx="10.443" cy="59.783" r="0.764"/>
		<circle fill="#C7C7C7" cx="13.405" cy="59.783" r="1.019"/>
		<circle fill="#C7C7C7" cx="16.369" cy="59.783" r="1.019"/>
		<circle fill="#C7C7C7" cx="19.331" cy="59.783" r="1.019"/>
		<circle fill="#C7C7C7" cx="22.294" cy="59.783" r="1.019"/>
		<circle fill="#C7C7C7" cx="25.257" cy="59.783" r="1.019"/>
		<circle fill="#C7C7C7" cx="28.221" cy="59.783" r="1.019"/>
		<circle fill="#C7C7C7" cx="31.183" cy="59.783" r="1.019"/>
		<circle fill="#C7C7C7" cx="34.145" cy="59.783" r="1.019"/>
		<circle fill="#C7C7C7" cx="37.109" cy="59.783" r="1.019"/>
		<circle fill="#C7C7C7" cx="40.072" cy="59.783" r="1.019"/>
		<circle fill="#C7C7C7" cx="43.035" cy="59.783" r="1.019"/>
		<circle fill="#C7C7C7" cx="45.997" cy="59.783" r="1.019"/>
		<circle fill="#C7C7C7" cx="48.961" cy="59.783" r="1.019"/>
		<path fill="#C7C7C7" d="M51.922,60.802c0.563,0,1.021-0.456,1.021-1.018c0-0.565-0.457-1.021-1.021-1.021
			c-0.561,0-1.018,0.454-1.018,1.021C50.904,60.346,51.361,60.802,51.922,60.802z"/>
		<circle fill="#C7C7C7" cx="54.887" cy="59.783" r="1.019"/>
		<circle fill="#C7C7C7" cx="57.85" cy="59.783" r="1.019"/>
		<path fill="#C7C7C7" d="M60.811,60.802c0.563,0,1.021-0.456,1.021-1.018c0-0.565-0.458-1.021-1.021-1.021
			c-0.561,0-1.018,0.454-1.018,1.021C59.793,60.346,60.25,60.802,60.811,60.802z"/>
		<path fill="#C7C7C7" d="M63.775,60.589c0.445,0,0.805-0.36,0.805-0.805c0-0.446-0.359-0.808-0.805-0.808
			c-0.446,0-0.808,0.36-0.808,0.808C62.969,60.229,63.329,60.589,63.775,60.589z"/>
		<path fill="#C7C7C7" d="M66.736,60.193c0.229,0,0.41-0.185,0.41-0.409c0-0.229-0.182-0.41-0.41-0.41
			c-0.225,0-0.41,0.181-0.41,0.41C66.326,60.01,66.512,60.193,66.736,60.193z"/>
		<circle fill="#C7C7C7" cx="69.7" cy="59.783" r="0.165"/>
		<circle fill="#C7C7C7" cx="5.999" cy="62.746" r="0.174"/>
		<circle fill="#C7C7C7" cx="8.961" cy="62.747" r="0.437"/>
		<circle fill="#C7C7C7" cx="11.924" cy="62.745" r="0.854"/>
		<circle fill="#C7C7C7" cx="14.887" cy="62.747" r="1.019"/>
		<circle fill="#C7C7C7" cx="17.849" cy="62.747" r="1.019"/>
		<circle fill="#C7C7C7" cx="20.813" cy="62.747" r="1.019"/>
		<circle fill="#C7C7C7" cx="23.775" cy="62.747" r="1.019"/>
		<circle fill="#C7C7C7" cx="26.738" cy="62.747" r="1.019"/>
		<circle fill="#C7C7C7" cx="29.701" cy="62.747" r="1.019"/>
		<circle fill="#C7C7C7" cx="32.665" cy="62.747" r="1.019"/>
		<circle fill="#C7C7C7" cx="35.627" cy="62.747" r="1.019"/>
		<circle fill="#C7C7C7" cx="38.589" cy="62.747" r="1.019"/>
		<circle fill="#C7C7C7" cx="41.553" cy="62.747" r="1.019"/>
		<circle fill="#C7C7C7" cx="44.516" cy="62.747" r="1.019"/>
		<circle fill="#C7C7C7" cx="47.479" cy="62.747" r="1.019"/>
		<circle fill="#C7C7C7" cx="50.441" cy="62.747" r="1.019"/>
		<circle fill="#C7C7C7" cx="53.406" cy="62.747" r="1.019"/>
		<circle fill="#C7C7C7" cx="56.366" cy="62.747" r="1.019"/>
		<circle fill="#C7C7C7" cx="59.33" cy="62.747" r="1.019"/>
		<circle fill="#C7C7C7" cx="62.293" cy="62.747" r="1.019"/>
		<path fill="#C7C7C7" d="M65.254,63.633c0.491,0,0.891-0.396,0.891-0.888c0-0.489-0.398-0.888-0.891-0.888
			c-0.488,0-0.885,0.397-0.885,0.888C64.369,63.234,64.766,63.633,65.254,63.633z"/>
		<circle fill="#C7C7C7" cx="68.219" cy="62.747" r="0.46"/>
		<path fill="#C7C7C7" d="M71.184,62.936c0.104,0,0.188-0.086,0.188-0.189s-0.083-0.188-0.188-0.188
			c-0.106,0-0.188,0.086-0.188,0.188C70.994,62.85,71.076,62.936,71.184,62.936z"/>
		<circle fill="#C7C7C7" cx="4.517" cy="65.708" r="0.181"/>
		<circle fill="#C7C7C7" cx="7.479" cy="65.709" r="0.452"/>
		<circle fill="#C7C7C7" cx="10.443" cy="65.71" r="0.879"/>
		<circle fill="#C7C7C7" cx="13.405" cy="65.709" r="1.02"/>
		<circle fill="#C7C7C7" cx="16.369" cy="65.709" r="1.02"/>
		<circle fill="#C7C7C7" cx="19.331" cy="65.709" r="1.02"/>
		<circle fill="#C7C7C7" cx="22.294" cy="65.709" r="1.02"/>
		<circle fill="#C7C7C7" cx="25.257" cy="65.709" r="1.02"/>
		<circle fill="#C7C7C7" cx="28.221" cy="65.709" r="1.02"/>
		<circle fill="#C7C7C7" cx="31.183" cy="65.709" r="1.02"/>
		<circle fill="#C7C7C7" cx="34.145" cy="65.709" r="1.02"/>
		<circle fill="#C7C7C7" cx="37.109" cy="65.709" r="1.02"/>
		<circle fill="#C7C7C7" cx="40.072" cy="65.709" r="1.02"/>
		<circle fill="#C7C7C7" cx="43.035" cy="65.709" r="1.02"/>
		<circle fill="#C7C7C7" cx="45.997" cy="65.709" r="1.02"/>
		<circle fill="#C7C7C7" cx="48.961" cy="65.709" r="1.02"/>
		<path fill="#C7C7C7" d="M51.922,66.729c0.563,0,1.021-0.457,1.021-1.02s-0.457-1.02-1.021-1.02c-0.561,0-1.018,0.457-1.018,1.02
			S51.361,66.729,51.922,66.729z"/>
		<circle fill="#C7C7C7" cx="54.887" cy="65.709" r="1.02"/>
		<circle fill="#C7C7C7" cx="57.85" cy="65.709" r="1.02"/>
		<path fill="#C7C7C7" d="M60.811,66.729c0.563,0,1.021-0.457,1.021-1.02s-0.458-1.02-1.021-1.02c-0.561,0-1.018,0.457-1.018,1.02
			S60.25,66.729,60.811,66.729z"/>
		<circle fill="#C7C7C7" cx="63.775" cy="65.709" r="0.92"/>
		<circle fill="#C7C7C7" cx="66.736" cy="65.71" r="0.476"/>
		<circle fill="#C7C7C7" cx="69.7" cy="65.708" r="0.206"/>
		<circle fill="#C7C7C7" cx="5.999" cy="68.672" r="0.173"/>
		<circle fill="#C7C7C7" cx="8.961" cy="68.672" r="0.436"/>
		<circle fill="#C7C7C7" cx="11.924" cy="68.672" r="0.854"/>
		<circle fill="#C7C7C7" cx="14.887" cy="68.673" r="1.019"/>
		<circle fill="#C7C7C7" cx="17.849" cy="68.673" r="1.019"/>
		<circle fill="#C7C7C7" cx="20.813" cy="68.673" r="1.019"/>
		<circle fill="#C7C7C7" cx="23.775" cy="68.673" r="1.019"/>
		<circle fill="#C7C7C7" cx="26.738" cy="68.673" r="1.019"/>
		<circle fill="#C7C7C7" cx="29.701" cy="68.673" r="1.019"/>
		<circle fill="#C7C7C7" cx="32.665" cy="68.673" r="1.019"/>
		<circle fill="#C7C7C7" cx="35.627" cy="68.673" r="1.019"/>
		<circle fill="#C7C7C7" cx="38.589" cy="68.673" r="1.019"/>
		<circle fill="#C7C7C7" cx="41.553" cy="68.673" r="1.019"/>
		<circle fill="#C7C7C7" cx="44.516" cy="68.673" r="1.019"/>
		<circle fill="#C7C7C7" cx="47.479" cy="68.673" r="1.019"/>
		<circle fill="#C7C7C7" cx="50.441" cy="68.673" r="1.019"/>
		<circle fill="#C7C7C7" cx="53.406" cy="68.673" r="1.019"/>
		<circle fill="#C7C7C7" cx="56.366" cy="68.673" r="1.019"/>
		<circle fill="#C7C7C7" cx="59.33" cy="68.673" r="1.019"/>
		<circle fill="#C7C7C7" cx="62.293" cy="68.673" r="1.019"/>
		<path fill="#C7C7C7" d="M65.254,69.561c0.491,0,0.891-0.399,0.891-0.889c0-0.49-0.398-0.888-0.891-0.888
			c-0.488,0-0.885,0.396-0.885,0.888C64.369,69.16,64.766,69.561,65.254,69.561z"/>
		<circle fill="#C7C7C7" cx="68.219" cy="68.671" r="0.459"/>
		<path fill="#C7C7C7" d="M71.184,68.861c0.104,0,0.188-0.086,0.188-0.189s-0.083-0.189-0.188-0.189
			c-0.106,0-0.188,0.086-0.188,0.189S71.076,68.861,71.184,68.861z"/>
		<circle fill="#C7C7C7" cx="13.405" cy="71.634" r="1.019"/>
		<circle fill="#C7C7C7" cx="16.369" cy="71.634" r="1.019"/>
		<circle fill="#C7C7C7" cx="19.331" cy="71.634" r="1.019"/>
		<circle fill="#C7C7C7" cx="22.294" cy="71.634" r="1.019"/>
		<circle fill="#C7C7C7" cx="25.257" cy="71.634" r="1.019"/>
		<circle fill="#C7C7C7" cx="28.221" cy="71.634" r="1.019"/>
		<circle fill="#C7C7C7" cx="31.183" cy="71.634" r="1.019"/>
		<circle fill="#C7C7C7" cx="34.145" cy="71.634" r="1.019"/>
		<circle fill="#C7C7C7" cx="37.109" cy="71.634" r="1.019"/>
		<circle fill="#C7C7C7" cx="40.072" cy="71.634" r="1.019"/>
		<circle fill="#C7C7C7" cx="43.035" cy="71.634" r="1.019"/>
		<circle fill="#C7C7C7" cx="45.997" cy="71.634" r="1.019"/>
		<circle fill="#C7C7C7" cx="48.961" cy="71.634" r="1.019"/>
		<path fill="#C7C7C7" d="M51.922,72.652c0.563,0,1.021-0.455,1.021-1.018s-0.457-1.021-1.021-1.021
			c-0.561,0-1.018,0.456-1.018,1.021C50.904,72.197,51.361,72.652,51.922,72.652z"/>
		<circle fill="#C7C7C7" cx="54.887" cy="71.634" r="1.019"/>
		<circle fill="#C7C7C7" cx="57.85" cy="71.634" r="1.019"/>
		<path fill="#C7C7C7" d="M60.811,72.652c0.563,0,1.021-0.455,1.021-1.018s-0.458-1.021-1.021-1.021
			c-0.561,0-1.018,0.456-1.018,1.021C59.793,72.197,60.25,72.652,60.811,72.652z"/>
		<path fill="#C7C7C7" d="M63.775,72.448c0.447,0,0.812-0.365,0.812-0.813c0-0.451-0.364-0.814-0.812-0.814
			c-0.451,0-0.814,0.363-0.814,0.814C62.961,72.083,63.324,72.448,63.775,72.448z"/>
		<circle fill="#C7C7C7" cx="66.736" cy="71.636" r="0.418"/>
		<circle fill="#C7C7C7" cx="69.7" cy="71.635" r="0.164"/>
		<circle fill="#C7C7C7" cx="20.813" cy="74.598" r="1.019"/>
		<circle fill="#C7C7C7" cx="23.775" cy="74.598" r="1.019"/>
		<circle fill="#C7C7C7" cx="26.738" cy="74.598" r="1.019"/>
		<circle fill="#C7C7C7" cx="29.701" cy="74.598" r="1.019"/>
		<circle fill="#C7C7C7" cx="32.665" cy="74.598" r="1.019"/>
		<circle fill="#C7C7C7" cx="35.627" cy="74.598" r="1.019"/>
		<circle fill="#C7C7C7" cx="38.589" cy="74.598" r="1.019"/>
		<circle fill="#C7C7C7" cx="41.553" cy="74.598" r="1.019"/>
		<circle fill="#C7C7C7" cx="44.516" cy="74.598" r="1.019"/>
		<circle fill="#C7C7C7" cx="47.479" cy="74.598" r="1.019"/>
		<circle fill="#C7C7C7" cx="50.441" cy="74.598" r="1.019"/>
		<circle fill="#C7C7C7" cx="53.406" cy="74.598" r="1.019"/>
		<circle fill="#C7C7C7" cx="56.366" cy="74.598" r="1.019"/>
		<circle fill="#C7C7C7" cx="59.33" cy="74.598" r="1.019"/>
		<circle fill="#C7C7C7" cx="62.293" cy="74.598" r="1.019"/>
		<path fill="#C7C7C7" d="M65.254,75.287c0.383,0,0.691-0.307,0.691-0.689c0-0.382-0.309-0.689-0.691-0.689
			c-0.379,0-0.689,0.309-0.689,0.689C64.564,74.98,64.875,75.287,65.254,75.287z"/>
		<circle fill="#C7C7C7" cx="68.219" cy="74.6" r="0.336"/>
		<circle fill="#C7C7C7" cx="71.184" cy="74.599" r="0.124"/>
		<circle fill="#C7C7C7" cx="25.257" cy="77.56" r="1.021"/>
		<circle fill="#C7C7C7" cx="28.221" cy="77.56" r="1.021"/>
		<circle fill="#C7C7C7" cx="31.183" cy="77.56" r="1.021"/>
		<circle fill="#C7C7C7" cx="34.145" cy="77.56" r="1.021"/>
		<circle fill="#C7C7C7" cx="37.109" cy="77.56" r="1.021"/>
		<circle fill="#C7C7C7" cx="40.072" cy="77.56" r="1.021"/>
		<circle fill="#C7C7C7" cx="43.035" cy="77.56" r="1.021"/>
		<circle fill="#C7C7C7" cx="45.997" cy="77.56" r="1.021"/>
		<circle fill="#C7C7C7" cx="48.961" cy="77.56" r="1.021"/>
		<path fill="#C7C7C7" d="M51.922,78.581c0.563,0,1.021-0.458,1.021-1.021c0-0.563-0.457-1.021-1.021-1.021
			c-0.561,0-1.018,0.459-1.018,1.021C50.904,78.122,51.361,78.581,51.922,78.581z"/>
		<circle fill="#C7C7C7" cx="54.887" cy="77.56" r="1.021"/>
		<circle fill="#C7C7C7" cx="57.85" cy="77.56" r="1.021"/>
		<path fill="#C7C7C7" d="M60.811,78.521c0.535,0,0.963-0.431,0.963-0.961c0-0.531-0.428-0.963-0.963-0.963
			c-0.527,0-0.959,0.432-0.959,0.963C59.852,78.091,60.282,78.521,60.811,78.521z"/>
		<path fill="#C7C7C7" d="M63.775,78.096c0.293,0,0.533-0.24,0.533-0.535c0-0.293-0.24-0.533-0.533-0.533
			c-0.297,0-0.535,0.24-0.535,0.533C63.24,77.855,63.479,78.096,63.775,78.096z"/>
		<circle fill="#C7C7C7" cx="66.736" cy="77.562" r="0.255"/>
		<circle fill="#C7C7C7" cx="69.7" cy="77.561" r="0.066"/>
		<circle fill="#C7C7C7" cx="29.701" cy="80.523" r="1.019"/>
		<circle fill="#C7C7C7" cx="32.665" cy="80.523" r="1.019"/>
		<circle fill="#C7C7C7" cx="35.627" cy="80.523" r="1.019"/>
		<circle fill="#C7C7C7" cx="38.589" cy="80.523" r="1.019"/>
		<circle fill="#C7C7C7" cx="41.553" cy="80.523" r="1.019"/>
		<circle fill="#C7C7C7" cx="44.516" cy="80.523" r="1.019"/>
		<circle fill="#C7C7C7" cx="47.479" cy="80.523" r="1.019"/>
		<circle fill="#C7C7C7" cx="50.441" cy="80.523" r="1.019"/>
		<circle fill="#C7C7C7" cx="53.406" cy="80.523" r="1.019"/>
		<circle fill="#C7C7C7" cx="56.366" cy="80.523" r="1.019"/>
		<circle fill="#C7C7C7" cx="59.33" cy="80.523" r="1.019"/>
		<circle fill="#C7C7C7" cx="62.293" cy="80.524" r="0.716"/>
		<circle fill="#C7C7C7" cx="65.254" cy="80.523" r="0.387"/>
		<path fill="#C7C7C7" d="M68.219,80.688c0.092,0,0.165-0.072,0.165-0.162c0-0.092-0.073-0.166-0.165-0.166
			c-0.088,0-0.162,0.074-0.162,0.166C68.057,80.614,68.131,80.688,68.219,80.688z"/>
		<path fill="#C7C7C7" d="M25.257,82.467"/>
		<circle fill="#C7C7C7" cx="37.109" cy="83.486" r="1.02"/>
		<circle fill="#C7C7C7" cx="40.072" cy="83.486" r="1.02"/>
		<circle fill="#C7C7C7" cx="43.035" cy="83.486" r="1.02"/>
		<circle fill="#C7C7C7" cx="45.997" cy="83.486" r="1.02"/>
		<circle fill="#C7C7C7" cx="48.961" cy="83.486" r="1.02"/>
		<path fill="#C7C7C7" d="M51.922,84.506c0.563,0,1.021-0.456,1.021-1.02s-0.457-1.021-1.021-1.021
			c-0.561,0-1.018,0.456-1.018,1.021C50.904,84.05,51.361,84.506,51.922,84.506z"/>
		<circle fill="#C7C7C7" cx="54.887" cy="83.486" r="1.02"/>
		<circle fill="#C7C7C7" cx="57.85" cy="83.488" r="0.814"/>
		<path fill="#C7C7C7" d="M60.811,83.971c0.271,0,0.486-0.218,0.486-0.482c0-0.268-0.216-0.485-0.486-0.485
			c-0.266,0-0.482,0.218-0.482,0.485C60.327,83.753,60.545,83.971,60.811,83.971z"/>
		<path fill="#C7C7C7" d="M63.775,83.73c0.136,0,0.244-0.108,0.244-0.244c0-0.137-0.108-0.246-0.244-0.246
			c-0.137,0-0.248,0.109-0.248,0.246C63.527,83.622,63.639,83.73,63.775,83.73z"/>
		<path fill="#C7C7C7" d="M66.736,83.563c0.043,0,0.074-0.035,0.074-0.074c0-0.043-0.031-0.074-0.074-0.074
			c-0.038,0-0.074,0.031-0.074,0.074C66.662,83.527,66.698,83.563,66.736,83.563z"/>
		<path fill="#C7C7C7" d="M65.254,86.572c0.07,0,0.124-0.057,0.124-0.122c0-0.069-0.054-0.124-0.124-0.124
			c-0.064,0-0.121,0.055-0.121,0.124C65.133,86.518,65.189,86.572,65.254,86.572z"/>
	</g>
	
		<linearGradient id="SVGID_1_" gradientUnits="userSpaceOnUse" x1="314.7012" y1="-335.9165" x2="314.8886" y2="-345.8498" gradientTransform="matrix(1 0 0 -1 -281 -270)">
		<stop  offset="0" style="stop-color:#37005C"/>
		<stop  offset="0.5899" style="stop-color:#6B23BB"/>
		<stop  offset="1" style="stop-color:#903DFF"/>
	</linearGradient>
	<polygon display="inline" fill="url(#SVGID_1_)" points="1.784,67.589 30.717,81.568 65.527,59.555 	"/>
	<ellipse display="inline" fill="#FFD909" cx="48.972" cy="53.218" rx="38.45" ry="33.4"/>
	<path display="inline" d="M10.522,53.218c0,6.05,1.618,11.72,4.431,16.614l55.479,3.693c4.317-5.627,6.894-12.666,6.894-20.309
		c0-6.918-2.104-13.346-5.709-18.677l-58.059,4.772C11.614,43.547,10.522,48.254,10.522,53.218z"/>
	
		<linearGradient id="SVGID_2_" gradientUnits="userSpaceOnUse" x1="263.8623" y1="-374.3247" x2="324.8387" y2="-321.8929" gradientTransform="matrix(1 0 0 -1 -281 -270)">
		<stop  offset="0" style="stop-color:#37005C"/>
		<stop  offset="0.5899" style="stop-color:#6B23BB"/>
		<stop  offset="1" style="stop-color:#903DFF"/>
	</linearGradient>
	<polygon display="inline" fill="url(#SVGID_2_)" points="80.624,66.813 1.784,67.589 5.66,38.173 79.266,26.42 	"/>
	<path display="inline" opacity="0.2" enable-background="new    " d="M10.612,37.383l-4.952,0.79L1.784,67.589l78.84-0.776
		l-0.194-5.813C60.539,65.261,31.098,60.314,10.612,37.383z"/>
	<g display="inline">
		<path fill="#903DFE" d="M2.399,45.262c-0.009,0-0.02,0-0.03-0.002c-0.127-0.016-0.217-0.132-0.201-0.262l1.166-8.834
			c0.014-0.102,0.091-0.183,0.194-0.199l16.311-2.622c0.135-0.019,0.247,0.065,0.268,0.193c0.019,0.126-0.067,0.246-0.193,0.266
			L3.773,36.396L2.63,45.061C2.614,45.176,2.515,45.262,2.399,45.262z"/>
	</g>
	<g display="inline">
		<path fill="#FFFFFF" d="M24.881,61.943c-3.984,0-6.074-2.301-6.274-6.901l3.588-0.752c0.089,2.994,0.945,4.489,2.564,4.489
			c0.628,0,1.093-0.19,1.399-0.572c0.303-0.382,0.457-0.896,0.457-1.543c0-0.627-0.115-1.202-0.342-1.725
			c-0.227-0.523-0.493-0.951-0.79-1.285c-0.301-0.329-0.728-0.741-1.283-1.233l-2.976-2.577c-0.874-0.765-1.523-1.559-1.951-2.381
			c-0.428-0.823-0.641-1.853-0.641-3.09c0-1.755,0.516-3.12,1.548-4.094c1.031-0.972,2.449-1.468,4.25-1.486
			c0.827-0.009,1.56,0.093,2.197,0.308c0.637,0.213,1.161,0.5,1.576,0.859c0.414,0.359,0.759,0.808,1.037,1.345
			c0.276,0.536,0.485,1.094,0.621,1.67c0.137,0.579,0.231,1.221,0.287,1.931l-3.52,0.697c-0.019-0.455-0.049-0.851-0.088-1.189
			c-0.042-0.335-0.112-0.676-0.212-1.022c-0.1-0.346-0.23-0.626-0.389-0.839c-0.16-0.214-0.373-0.385-0.642-0.512
			s-0.579-0.177-0.934-0.15c-0.609,0.036-1.076,0.239-1.398,0.607c-0.323,0.368-0.484,0.862-0.484,1.48
			c0,0.729,0.143,1.326,0.428,1.794c0.287,0.469,0.736,0.971,1.344,1.508l2.946,2.565c0.493,0.445,0.92,0.879,1.284,1.295
			c0.364,0.42,0.711,0.896,1.044,1.433c0.332,0.536,0.584,1.128,0.756,1.774c0.174,0.646,0.26,1.327,0.26,2.047
			c0,1.646-0.522,2.982-1.563,4.01C27.939,61.43,26.572,61.943,24.881,61.943z"/>
		<path fill="#FFFFFF" d="M31.786,61.672l4.598-22.62h4.297l4.584,22.62h-3.834l-0.914-5.253h-3.916l-0.929,5.253H31.786z
			 M37.039,53.73h3.028l-1.515-9.292L37.039,53.73z"/>
		<path fill="#FFFFFF" d="M47.49,61.672v-22.62h4.121V58.82h5.414v2.852H47.49z"/>
		<path fill="#FFFFFF" d="M59.208,61.672v-22.62h9.47v2.906h-5.349v6.494h4.229v2.905h-4.229v7.463h5.416v2.853L59.208,61.672
			L59.208,61.672z"/>
	</g>
	<g display="inline">
		<polygon fill="#903DFE" points="97.38,25.231 81.035,29.167 93.713,22.526 		"/>
		<polygon fill="#903DFE" points="84.197,24.204 95.025,15.847 92.322,14.905 		"/>
		<polygon fill="#903DFE" points="83.734,13.339 79.439,25.043 86.124,15.242 		"/>
	</g>
	<g display="inline">
		<path fill="#903DFE" d="M60.883,69.828c-0.128,0-0.23-0.104-0.232-0.23c-0.002-0.129,0.1-0.234,0.229-0.236l22.225-0.317
			l-1.285-34.328c-0.006-0.13,0.095-0.237,0.223-0.242c0.109-0.015,0.236,0.095,0.241,0.223l1.293,34.565
			c0.004,0.063-0.019,0.125-0.062,0.172c-0.043,0.043-0.104,0.07-0.166,0.07L60.883,69.828L60.883,69.828z"/>
	</g>
	
		<linearGradient id="SVGID_3_" gradientUnits="userSpaceOnUse" x1="166.6436" y1="-433.4902" x2="228.7881" y2="-503.0143" gradientTransform="matrix(0.9978 -0.0657 -0.0657 -0.9978 -180.38 -384.0171)">
		<stop  offset="0" style="stop-color:#37005C"/>
		<stop  offset="0.5899" style="stop-color:#6B23BB"/>
		<stop  offset="1" style="stop-color:#903DFF"/>
	</linearGradient>
	<polygon display="inline" fill="url(#SVGID_3_)" points="30.4,72.837 78.605,71.997 74.156,84.162 29.787,81.244 	"/>
	<g display="inline">
		<path fill="#FFFFFF" d="M36.64,76.671c-0.059,0.052-0.09,0.117-0.09,0.197c0,0.084,0.036,0.149,0.111,0.198
			c0.075,0.047,0.246,0.105,0.514,0.172c0.269,0.066,0.479,0.164,0.626,0.298c0.148,0.134,0.223,0.327,0.223,0.579
			c0,0.253-0.096,0.462-0.287,0.617c-0.189,0.158-0.439,0.238-0.75,0.238c-0.449,0-0.853-0.166-1.213-0.498l0.377-0.464
			c0.306,0.269,0.588,0.402,0.847,0.402c0.118,0,0.208-0.024,0.273-0.074c0.068-0.052,0.1-0.119,0.1-0.203
			c0-0.085-0.036-0.151-0.106-0.202c-0.07-0.052-0.209-0.103-0.417-0.154c-0.329-0.075-0.572-0.178-0.724-0.305
			c-0.152-0.125-0.229-0.322-0.229-0.593c0-0.269,0.097-0.476,0.29-0.622c0.194-0.146,0.435-0.218,0.722-0.218
			c0.19,0,0.38,0.03,0.568,0.097c0.19,0.064,0.355,0.157,0.496,0.277l-0.32,0.46c-0.245-0.187-0.5-0.278-0.763-0.278
			C36.784,76.598,36.702,76.621,36.64,76.671z"/>
		<path fill="#FFFFFF" d="M41.541,76.104h0.632v2.836h-0.632v-1.116h-1.127v1.116h-0.632v-2.836h0.632v1.186h1.127V76.104z"/>
		<path fill="#FFFFFF" d="M46.469,78.548c-0.288,0.28-0.64,0.419-1.057,0.419c-0.419,0-0.772-0.139-1.059-0.419
			c-0.286-0.278-0.43-0.629-0.43-1.043c0-0.418,0.144-0.765,0.43-1.044c0.287-0.281,0.64-0.42,1.059-0.42
			c0.417,0,0.77,0.139,1.057,0.42c0.287,0.279,0.43,0.626,0.43,1.044C46.899,77.919,46.756,78.27,46.469,78.548z M46.254,77.506
			c0-0.253-0.08-0.469-0.243-0.646c-0.163-0.178-0.361-0.269-0.598-0.269c-0.237,0-0.436,0.091-0.598,0.269
			c-0.164,0.179-0.245,0.395-0.245,0.646s0.081,0.467,0.245,0.645c0.162,0.178,0.36,0.268,0.598,0.268
			c0.236,0,0.435-0.09,0.598-0.268C46.174,77.973,46.254,77.759,46.254,77.506z"/>
		<path fill="#FFFFFF" d="M50.604,76.359c0.196,0.168,0.297,0.429,0.297,0.776c0,0.351-0.103,0.607-0.307,0.769
			c-0.204,0.162-0.515,0.244-0.934,0.244h-0.377v0.791H48.65v-2.836h1C50.088,76.104,50.404,76.189,50.604,76.359z M50.139,77.473
			c0.076-0.084,0.113-0.207,0.113-0.373c0-0.16-0.05-0.279-0.148-0.349c-0.099-0.067-0.252-0.103-0.461-0.103h-0.359v0.953h0.425
			C49.918,77.602,50.063,77.559,50.139,77.473z"/>
		<path fill="#FFFFFF" d="M56.881,76.104h0.633v2.836h-0.633l-1.35-1.776v1.776h-0.633v-2.836h0.59l1.393,1.826V76.104z"/>
		<path fill="#FFFFFF" d="M61.811,78.548c-0.285,0.28-0.639,0.419-1.062,0.419c-0.418,0-0.769-0.139-1.054-0.419
			c-0.287-0.278-0.43-0.629-0.43-1.043c0-0.418,0.143-0.765,0.43-1.044c0.285-0.281,0.636-0.42,1.054-0.42
			c0.423,0,0.774,0.139,1.062,0.42c0.287,0.279,0.431,0.626,0.431,1.044C62.24,77.919,62.098,78.27,61.811,78.548z M61.594,77.506
			c0-0.253-0.078-0.469-0.24-0.646s-0.363-0.269-0.601-0.269s-0.435,0.091-0.597,0.269c-0.163,0.179-0.244,0.395-0.244,0.646
			s0.081,0.467,0.244,0.645c0.162,0.178,0.359,0.268,0.597,0.268c0.235,0,0.438-0.09,0.601-0.268S61.594,77.759,61.594,77.506z"/>
		<path fill="#FFFFFF" d="M64.831,77.736l0.501-1.633h0.66l0.501,1.633l0.563-1.633h0.684l-0.986,2.836h-0.475l-0.618-1.972
			l-0.617,1.972h-0.471l-0.988-2.836h0.687L64.831,77.736z"/>
		<path fill="#FFFFFF" d="M71.216,77.061v0.558l-1.971,0.929v-0.6l1.3-0.617l-1.3-0.6v-0.598L71.216,77.061z"/>
	</g>
	<polygon display="inline" fill="#903DFE" points="54.814,30.324 77.725,28.088 80.262,56.079 79.266,26.42 	"/>
</g>
<title>Artboard 4</title>
<path fill="#F4C20D" d="M20.252,80.963h29.997c0.787,0.01,1.435-0.619,1.445-1.407c0.001-0.068-0.004-0.136-0.012-0.204
	c0-0.162-0.02-0.325-0.06-0.487c-0.148-1.881,0.461-3.741,1.691-5.171l0.952-1.152c0.416-0.492,0.354-1.229-0.139-1.644
	c-0.083-0.071-0.175-0.129-0.274-0.174c-6.239-2.706-9.103-9.957-6.396-16.196c2.706-6.239,9.957-9.104,16.195-6.396
	c2.154,0.934,3.994,2.463,5.308,4.407c0.369,0.532,1.102,0.664,1.635,0.294c0.363-0.253,0.554-0.69,0.492-1.129L68.96,35.091
	c-0.331-2.628-2.566-4.6-5.215-4.602h-3.421v-3.294c0-8.523-6.626-15.823-15.186-16.147c-8.713-0.314-16.031,6.494-16.345,15.206
	c-0.006,0.181-0.01,0.361-0.01,0.542v3.693h-3.42c-2.644,0.001-4.877,1.965-5.215,4.587l-5.104,39.962
	c-0.371,2.876,1.66,5.51,4.537,5.881C19.803,80.948,20.027,80.963,20.252,80.963z M34.796,26.796c0-5.386,4.366-9.75,9.75-9.75
	c5.385,0,9.75,4.365,9.75,9.75v3.693h-19.5V26.796z M66.56,59.4c0-4.309-3.493-7.8-7.802-7.8c-4.307,0-7.8,3.491-7.8,7.8
	c0,4.302,3.483,7.792,7.785,7.8c4.309,0.009,7.808-3.477,7.816-7.785C66.56,59.41,66.56,59.405,66.56,59.4z M55.479,59.4
	c0-1.782,1.445-3.228,3.228-3.228s3.228,1.445,3.228,3.228s-1.445,3.228-3.228,3.228S55.479,61.183,55.479,59.4L55.479,59.4z
	 M71.494,72.526c0,4.309,3.491,7.801,7.8,7.801c4.308,0,7.8-3.492,7.8-7.801c0-4.308-3.492-7.8-7.8-7.8
	C74.985,64.727,71.494,68.219,71.494,72.526L71.494,72.526z M82.529,72.526c0,1.783-1.445,3.228-3.229,3.228
	s-3.229-1.444-3.229-3.228c0-1.782,1.445-3.228,3.229-3.228c1.779,0.004,3.22,1.447,3.22,3.228H82.529z M56.749,76.611l20.461-24.62
	c0.945-1.118,2.618-1.261,3.737-0.316c0.534,0.451,0.87,1.097,0.932,1.795c0.056,0.689-0.167,1.374-0.621,1.897L60.805,79.979
	c-0.506,0.603-1.252,0.951-2.038,0.953c-0.621-0.001-1.222-0.223-1.691-0.629c-0.54-0.453-0.879-1.1-0.946-1.802
	C56.075,77.813,56.299,77.134,56.749,76.611z"/>
<g transform="translate(50 50) scale(0.69 0.69) rotate(0) translate(-50 -50)">
	<title>Artboard 4</title>
	<path fill="#6D3C1B" d="M69.92,21.723h-4.958v-4.775c0-12.353-9.603-22.932-22.008-23.401C30.327-6.909,19.721,2.958,19.265,15.585
		c-0.008,0.263-0.014,0.523-0.014,0.786v5.352h-4.956 M27.966,16.371c0-7.805,6.326-14.131,14.13-14.131s14.13,6.326,14.13,14.131
		v5.352H27.966V16.371z"/>
</g>
<path fill="#6D3C1B" d="M66.648,59.65c0-4.309-3.493-7.8-7.802-7.8c-4.307,0-7.8,3.491-7.8,7.8c0,4.302,3.483,7.792,7.785,7.8
	c4.309,0.009,7.808-3.477,7.816-7.785C66.648,59.66,66.648,59.655,66.648,59.65z M55.568,59.65c0-1.782,1.445-3.228,3.228-3.228
	s3.228,1.445,3.228,3.228s-1.445,3.228-3.228,3.228S55.568,61.433,55.568,59.65L55.568,59.65z M71.583,72.776
	c0,4.309,3.491,7.801,7.8,7.801c4.308,0,7.8-3.492,7.8-7.801c0-4.308-3.492-7.8-7.8-7.8C75.074,64.977,71.583,68.469,71.583,72.776
	L71.583,72.776z M82.618,72.776c0,1.783-1.445,3.228-3.229,3.228s-3.229-1.444-3.229-3.228c0-1.782,1.445-3.228,3.229-3.228
	c1.779,0.004,3.22,1.447,3.22,3.228H82.618z M56.838,76.861l20.461-24.62c0.945-1.118,2.618-1.261,3.737-0.316
	c0.534,0.451,0.87,1.097,0.932,1.795c0.056,0.689-0.167,1.374-0.621,1.897L60.894,80.229c-0.506,0.603-1.252,0.951-2.038,0.953
	c-0.621-0.001-1.222-0.223-1.691-0.629c-0.54-0.453-0.879-1.1-0.946-1.802C56.164,78.063,56.388,77.384,56.838,76.861z"/>
</svg>
