<?xml version="1.0" encoding="utf-8"?>
<!-- Generator: Adobe Illustrator 16.0.0, SVG Export Plug-In . SVG Version: 6.00 Build 0)  -->
<!DOCTYPE svg PUBLIC "-//W3C//DTD SVG 1.1//EN" "http://www.w3.org/Graphics/SVG/1.1/DTD/svg11.dtd">
<svg version="1.1" id="Layer_1" xmlns="http://www.w3.org/2000/svg" xmlns:xlink="http://www.w3.org/1999/xlink" x="0px" y="0px"
	 width="100px" height="100px" viewBox="0 0 100 100" enable-background="new 0 0 100 100" xml:space="preserve">
<g transform="translate(50 50) scale(0.69 0.69) rotate(0) translate(-50 -50)">
	<path fill="#4D4D4D" d="M101.667,44.091H89.569c-5.116,0-5.116,0-1.476-3.636l6.001-6.005c5.215-5.213,5.115-5.213,0.392-9.935
		c-4.721-4.723-4.622-4.723-9.835,0.493L69.203,40.455c-4.131,4.128-7.967,3.636-11.903,3.636c0-4.723-0.296-7.967,3.643-11.901
		l15.342-15.447c5.217-5.213,5.217-5.213,0.493-9.936c-4.719-4.72-4.621-4.72-9.838,0.493L60.943,13.3
		C57.3,16.94,57.3,16.94,57.3,11.824V-0.275c0-7.282,0-7.282-7.279-7.282h-0.396c-7.28,0-7.28,0-7.28,7.282v12.099
		c0,5.116,0,5.116-3.637,1.476l-6.004-6.001c-5.213-5.213-5.116-5.213-9.835-0.493c-4.723,4.723-4.723,4.723,0.49,9.936
		L38.708,32.19c3.932,3.935,3.637,7.178,3.637,11.901c-3.932,0-7.769,0.493-11.901-3.636L14.996,25.008
		c-5.212-5.216-5.115-5.216-9.838-0.493c-4.723,4.723-4.818,4.723,0.395,9.935l5.999,6.005c3.642,3.636,3.642,3.636-1.473,3.636
		h-12.1c-7.282,0-7.282,0-7.282,7.28c0,7.28,0,7.28,7.282,7.28h12.1c5.115,0,5.115,0,1.473,3.642l-5.999,6.001
		C0.34,73.51,0.435,73.51,5.158,78.23c4.723,4.723,4.626,4.723,9.838-0.494l15.448-15.442c4.132-4.134,7.97-3.642,11.901-3.642
		c0,4.721,0.295,7.968-3.637,11.907L23.359,86.001c-5.213,5.214-5.213,5.214-0.49,9.935c4.719,4.724,4.622,4.724,9.835-0.488
		l6.004-6.005c3.637-3.637,3.637-3.637,3.637,1.476v12.104c0,7.279,0,7.279,7.28,7.279h0.396c7.279,0,7.279,0,7.279-7.279V90.919
		c0-5.114,0-5.114,3.643-1.476l5.997,6.005c5.217,5.213,5.119,5.213,9.838,0.488c4.724-4.721,4.724-4.721-0.493-9.935L60.943,70.559
		C57.004,66.62,57.3,63.373,57.3,58.652c3.936,0,7.771-0.493,11.903,3.642l15.448,15.442c5.213,5.217,5.114,5.217,9.835,0.494
		c4.723-4.72,4.823-4.72-0.392-9.935l-6.001-6.001c-3.64-3.642-3.64-3.642,1.476-3.642h12.098c7.283,0,7.283,0,7.283-7.28
		C108.95,44.091,108.95,44.091,101.667,44.091z"/>
</g>
</svg>
