<?xml version="1.0" encoding="utf-8"?>
<!-- Generator: Adobe Illustrator 16.0.0, SVG Export Plug-In . SVG Version: 6.00 Build 0)  -->
<!DOCTYPE svg PUBLIC "-//W3C//DTD SVG 1.1//EN" "http://www.w3.org/Graphics/SVG/1.1/DTD/svg11.dtd">
<svg version="1.1" id="Layer_1" xmlns="http://www.w3.org/2000/svg" xmlns:xlink="http://www.w3.org/1999/xlink" x="0px" y="0px"
	 width="1500px" height="1062px" viewBox="0 0 1500 1062" enable-background="new 0 0 1500 1062" xml:space="preserve">
<g>
	<g>
		<g>
			<g>
				<path fill="#509CBA" d="M774.803,162.75c-51.523-0.923-94.192,40.243-95.115,91.767c-0.923,51.524,40.243,94.192,91.766,95.115
					c51.524,0.923,94.192-40.243,95.115-91.767C867.492,206.341,826.326,163.673,774.803,162.75z M783.071,193.973
					c35.431,5.72,59.185,38.142,53.571,73.122c-5.646,35.192-38.535,59.368-73.186,53.797c-35.166-5.652-59.496-38.67-53.901-73.146
					C715.363,211.961,747.751,188.271,783.071,193.973z"/>
			</g>
		</g>
		<g>
			<g>
				<path fill="#509CBA" d="M724.649,90.591c-8.187,6.569-18.041,10.809-28.506,11.617c-10.486,0.81-12.146,3.172-10.456,8.507
					c3.642,11.492,6.935,23.1,10.003,34.758c0.446,1.695-0.471,4.536-1.775,5.778c-9.111,8.678-18.491,17.074-28.531,26.241
					c-11.686-3.827-24.654-7.971-37.536-12.368c-2.989-1.021-4.747-0.729-6.161,2.243c-3.643,7.65-7.674,15.121-11.147,22.844
					c-2.409,5.358-4.149,11.018-6.188,16.543l-0.895,5.869c11.498,6.542,22.912,13.237,34.545,19.529
					c3.433,1.857,3.741,3.904,3.57,7.497c-0.533,11.196-0.66,22.432-0.331,33.634c0.099,3.383-0.64,4.794-3.565,6.23
					c-10.818,5.311-21.433,11.034-32.225,16.399c-3.659,1.819-4.449,3.945-1.686,8.661c6.555,11.186,11.73,23.17,14.379,35.862
					c1.263,6.052,3.614,6.222,7.335,5.094c11.526-3.493,23.144-6.685,34.675-10.163c3.264-0.984,5.079-0.131,7.527,2.692
					c6.699,7.724,13.862,15.019,21.519,21.795c3.009,2.664,3.541,4.644,2.42,8.049c-3.643,11.069-6.705,22.338-10.616,33.307
					c-1.575,4.417-0.583,6.438,3.336,8.21c12.355,5.585,24.638,11.331,36.719,16.909l5.837,2.711
					c6.9-12.481,14.447-25.798,20.634-37.678c1.741-3.343,3.596-3.578,6.938-3.418c10.216,0.49,20.479,0.803,30.687,0.354
					c4.795-0.21,7.358,0.597,9.511,5.253c5.458,11.809,11.632,23.286,17.549,34.955c17.637-4.314,33.979-10.246,48.899-20.215
					c-3.762-13.152-7.282-25.911-11.121-38.573c-1.001-3.301-0.463-5.172,2.146-7.583c7.664-7.085,14.794-14.746,22.385-21.914
					c1.298-1.226,4.101-2.014,5.762-1.516c11.732,3.52,23.404,7.27,34.972,11.303c3.777,1.317,5.905,0.499,7.558-2.924
					c4.037-8.363,8.487-16.545,12.145-25.069c2.617-6.099,4.219-12.632,6.328-19.14c-12.363-6.915-24.046-13.54-35.835-19.972
					c-2.797-1.525-3.629-3.058-3.243-6.793c1.016-9.823,1.617-19.711,0.777-29.551c-0.461-5.413,0.719-7.637,4.785-9.652
					c10.455-5.182,20.779-10.639,30.996-16.276c1.638-0.904,3.777-3.613,3.454-4.946c-3.923-16.185-9.927-31.55-19.049-45.741
					c-13.311,3.856-26.185,7.688-39.143,11.214c-1.619,0.441-4.296-0.107-5.428-1.245c-7.64-7.683-14.846-15.799-22.529-23.434
					c-2.452-2.437-3.129-4.226-1.985-7.608c3.922-11.611,7.24-23.425,11.144-35.043c1.577-4.692-0.397-6.186-8.157-7.741
					c-11.1-2.224-21.567-6.876-30.582-13.722c-5.657-4.295-8.127-4.122-10.227-0.151c-5.543,10.481-11.483,20.754-16.937,31.281
					c-2.122,4.098-4.306,4.309-10.248,3.601c-9.742-1.16-19.579-1.101-29.35-0.216c-4.748,0.43-6.346-0.578-8-3.944
					c-5.319-10.827-10.945-21.502-16.388-32.269C733.638,87.288,732.158,84.565,724.649,90.591z M774.937,155.304
					c55.628,0.997,100.075,47.065,99.078,102.694c-0.997,55.628-47.064,100.075-102.693,99.078s-100.075-47.064-99.079-102.693
					S719.308,154.308,774.937,155.304z"/>
			</g>
		</g>
	</g>
</g>
<g>
	<circle fill="#FFFFFF" cx="497.536" cy="250.424" r="82.194"/>
	<g>
		<g>
			<path fill="#34B2E4" d="M440.855,253.705c2.587,31.052,29.954,54.21,61.005,51.623c31.052-2.587,54.21-29.954,51.624-61.006
				s-29.954-54.21-61.006-51.623C461.426,195.286,438.269,222.653,440.855,253.705z M454.581,246.271
				c1.017-22.427,21.519-42.471,44.425-39.893c23.071,1.093,41.156,20.955,39.999,43.929c-1.185,23.525-20.922,41.491-44.288,40.312
				C471.116,289.427,453.514,269.792,454.581,246.271z"/>
			<path fill="#34B2E4" d="M385.849,260.988c6.681,0.762,13.315,1.945,20.001,2.647c3.672,0.385,5.343,1.961,6.395,5.6
				c1.901,6.576,4.746,12.874,6.852,19.399c0.476,1.475,0.12,3.899-0.848,5.043c-4.776,5.644-10.006,10.903-14.778,16.55
				c-0.961,1.138-1.5,4.076-0.76,4.984c6.622,8.129,13.573,15.991,20.56,24.083c7.898-5.943,14.679-10.896,21.271-16.091
				c2.253-1.776,3.795-2.18,6.587-0.629c5.538,3.076,11.433,5.555,17.32,7.936c2.671,1.08,3.921,2.311,4.005,5.391
				c0.233,8.527,0.888,17.042,1.397,25.93c11.057,0.555,21.553,1.207,32.059,1.422c1.072,0.022,2.895-2.443,3.179-3.974
				c1.316-7.104,2.47-14.261,3.148-21.45c0.34-3.603,2.037-4.568,5.155-5.485c5.93-1.743,11.819-3.823,17.41-6.438
				c3.062-1.432,4.732-0.972,6.975,1.208c5.181,5.039,10.689,9.738,15.938,14.708c1.988,1.881,3.799,2.726,6.058,0.651
				c7.614-6.991,15.221-13.99,22.848-21.001c-5.93-7.825-11.031-14.719-16.331-21.455c-1.66-2.109-1.964-3.532-0.519-6.139
				c3.08-5.555,5.313-11.573,8.16-17.269c0.664-1.329,2.322-2.93,3.635-3.039c7.366-0.605,14.768-0.792,22.157-1.121
				c0.608-12.104,1.216-24.209,1.824-36.313c-7.317-1-14.66-1.86-21.93-3.128c-1.28-0.224-2.779-1.955-3.294-3.323
				c-2.356-6.259-4.202-12.715-6.649-18.935c-1.002-2.548-0.968-4.109,0.983-6.172c5.879-6.216,11.495-12.681,18.146-20.087
				c-7.309-7.675-14.459-15.367-21.914-22.753c-0.816-0.808-3.796-0.474-5.054,0.383c-6.103,4.16-12.078,8.533-17.851,13.141
				c-2.428,1.938-4.097,1.644-6.644,0.266c-5.727-3.098-11.79-5.574-17.55-8.616c-1.243-0.656-2.424-2.579-2.547-4.011
				c-0.747-8.699-1.18-17.425-1.717-26.142c-11.432-0.574-22.864-1.149-34.295-1.723c-1.479,9.577-2.958,19.152-4.255,27.558
				c-8.243,3.119-15.686,5.67-22.881,8.791c-2.781,1.206-4.386,1.054-6.531-1.021c-5.317-5.141-10.797-10.127-16.45-14.894
				c-1.163-0.981-4.102-1.632-4.964-0.917c-7.967,6.602-15.658,13.537-23.694,20.609c5.919,7.936,11.132,14.722,16.057,21.711
				c0.918,1.304,1.438,3.754,0.845,5.11c-2.813,6.434-6.294,12.577-9.068,19.025c-1.123,2.61-2.422,3.46-5.131,3.547
				c-7.222,0.229-14.43,0.925-21.652,1.134c-3.386,0.099-4.927,1.567-5.028,4.758c-0.277,8.716-0.466,17.435-0.767,26.15
				C381.607,259.57,383.007,260.665,385.849,260.988z M478.297,179.318c-15.661,4.199-29.695,13.679-39.518,26.692l-1.167-0.882
				c10.017-13.272,24.331-22.941,40.306-27.225L478.297,179.318z M525.257,182.269l0.557-1.354
				c25.65,10.537,43.32,34.205,46.115,61.77l-1.457,0.147C567.732,215.806,550.407,192.601,525.257,182.269z M557.971,243.949
				c2.793,33.526-22.21,63.074-55.736,65.867c-33.526,2.793-63.074-22.21-65.867-55.737c-2.793-33.526,22.21-63.073,55.736-65.866
				C525.631,185.419,555.178,210.422,557.971,243.949z M422.887,257.793l1.457-0.147c4.084,40.289,40.184,69.743,80.471,65.659
				c23.357-2.368,44.346-15.92,56.146-36.253l1.266,0.735c-12.035,20.737-33.442,34.559-57.265,36.974
				C463.871,328.927,427.052,298.885,422.887,257.793z"/>
		</g>
	</g>
</g>
<g>
	<g>
		<g>
			<path fill="#FFC60C" d="M336.06,380.904c1.921-0.18,3.85-0.271,5.779-0.271c38.537,0,69.776,36.199,69.776,67.267
				c0,12.683-6.403,22.57-11.795,33.612c-6.031,12.352-11.551,24.923-17.276,37.414c-2.651,5.796-7.019,12.29-7.963,18.55
				c-0.147,0.978-0.186,1.966-0.196,2.956h-64.829c-0.33-2.583-0.92-5.044-1.931-7.262c-9.6-21.056-19.016-42.111-29.514-62.703
				C257.961,430.942,295.546,384.712,336.06,380.904z"/>
			<path fill="#FE912A" d="M308.572,484.978c4.58,3.799,10.35,3.739,15.783,2.163c0.837,4.084,1.183,8.513,1.493,12.482
				c0.184,2.367,0.359,4.603,0.618,6.57l4.729,35.882l3.17-0.416l-4.729-35.883c-0.249-1.884-0.419-4.078-0.601-6.401
				c-0.329-4.208-0.694-8.894-1.633-13.28c4.806-1.89,9.088-4.669,11.681-6.537l-0.003-0.004c1.052-0.626,2.078-1.307,3.058-2.057
				c0.234,0.183,0.467,0.36,0.698,0.535c3.729,2.835,8.729,6.251,14.441,8.192c-0.076,0.433-0.149,0.864-0.22,1.291
				c-0.719,4.372-1.306,8.827-1.874,13.134l-5.406,41.01l3.171,0.416l5.405-41.01c0.564-4.282,1.148-8.708,1.859-13.03
				c0.051-0.312,0.103-0.623,0.156-0.933c2.184,0.498,4.455,0.754,6.774,0.644c3.435-0.15,6.258-1.072,8.392-2.74
				c2.728-2.132,4.105-5.594,3.427-8.615c-0.897-3.989-5.375-6.797-9.793-6.139c-3.585,0.537-6.968,3.112-9.05,6.895
				c-1.029,1.872-1.7,3.882-2.194,5.917c-5.142-1.822-9.718-4.965-13.155-7.576c-0.045-0.036-0.09-0.069-0.136-0.104
				c1.645-1.539,3.14-3.25,4.443-5.097c1.049-1.486,2.476-3.768,2.763-6.422c0.445-4.139-2.172-8.325-6.09-9.736
				c-3.92-1.408-8.604,0.146-10.898,3.62c-2.152,3.256-2.124,7.963,0.072,11.993c1.218,2.234,2.901,4.074,4.675,5.661
				c-0.817,0.591-1.663,1.139-2.531,1.638l0.011,0.019c-1.971,1.411-5.951,4.048-10.475,5.881c-1.117-3.743-2.794-7.095-5.413-9.5
				c-2.885-2.646-6.744-3.514-10.331-2.323c-3.046,1.014-5.256,3.333-5.769,6.054C304.793,478.762,304.849,481.887,308.572,484.978z
				 M360.997,483.966c0.441-1.861,1.026-3.641,1.927-5.277c1.603-2.913,4.116-4.884,6.721-5.271c0.279-0.044,0.56-0.063,0.839-0.063
				c2.491,0,4.882,1.603,5.36,3.737c0.414,1.84-0.501,4.009-2.276,5.396c-1.599,1.249-3.807,1.944-6.562,2.065
				C364.954,484.643,362.947,484.416,360.997,483.966z M337.732,468.213c-1.636-3.004-1.719-6.418-0.211-8.7
				c1.119-1.694,3.185-2.702,5.216-2.702c0.659,0,1.313,0.106,1.932,0.329c2.526,0.91,4.281,3.714,3.994,6.385
				c-0.206,1.913-1.352,3.724-2.196,4.919c-1.266,1.794-2.73,3.445-4.349,4.913C340.424,471.89,338.82,470.208,337.732,468.213z
				 M308.235,477.765c0.292-1.555,1.719-2.973,3.635-3.61c2.474-0.825,5.147-0.206,7.16,1.645c2.165,1.986,3.587,4.892,4.556,8.205
				c-4.588,1.355-9.377,1.497-12.971-1.486C308.763,480.979,307.939,479.336,308.235,477.765z"/>
			<path fill="#34B2E4" d="M309.223,539.18h65.092c-0.055,1.004-0.071,2.012-0.06,3.018c0.101,8.978,2.323,20.396-1.8,28.612
				c-4.257,8.486-13.034,24.778-24.24,24.778c0,0-13.002,0-13.003,0c-11.004-0.002-24.065-19.187-25.809-28.935
				c-0.235-1.313-0.232-2.654-0.229-3.987C309.192,555.522,310.477,546.72,309.223,539.18z"/>
		</g>
		<g>
			<path fill="#FE912A" d="M463.215,511.028c0.871,0,1.689-0.537,2.004-1.405c0.401-1.105-0.17-2.33-1.277-2.731l-36.24-13.146
				c-1.104-0.392-2.33,0.17-2.73,1.278c-0.402,1.105,0.17,2.33,1.277,2.731l36.24,13.146
				C462.728,510.986,462.973,511.028,463.215,511.028z"/>
			<path fill="#FE912A" d="M434.79,438.901c0.179,0,0.361-0.023,0.543-0.071l40.504-10.659c1.139-0.3,1.818-1.465,1.52-2.604
				c-0.298-1.137-1.459-1.818-2.604-1.518l-40.504,10.659c-1.139,0.3-1.818,1.465-1.52,2.604
				C432.98,438.268,433.845,438.901,434.79,438.901z"/>
			<path fill="#FE912A" d="M406.011,380.989c0.598,0,1.191-0.25,1.612-0.737l25.227-29.135c0.771-0.889,0.674-2.236-0.216-3.006
				c-0.892-0.772-2.237-0.672-3.007,0.217L404.4,377.462c-0.771,0.889-0.674,2.236,0.215,3.006
				C405.02,380.818,405.516,380.989,406.011,380.989z"/>
			<path fill="#FE912A" d="M346.677,361.447c1.177,0,2.132-0.954,2.132-2.132v-39.082c0-1.178-0.955-2.132-2.132-2.132
				s-2.132,0.954-2.132,2.132v39.082C344.545,360.494,345.5,361.447,346.677,361.447z"/>
			<path fill="#FE912A" d="M280.237,384.896c0.492,0,0.986-0.168,1.388-0.514c0.893-0.768,0.996-2.113,0.229-3.006l-25.936-30.201
				c-0.766-0.893-2.113-0.997-3.006-0.229s-0.996,2.113-0.229,3.006l25.937,30.201C279.041,384.645,279.637,384.896,280.237,384.896
				z"/>
			<path fill="#FE912A" d="M246.842,425.756c1.038,0,1.947-0.76,2.104-1.817c0.175-1.164-0.627-2.248-1.792-2.423l-38.017-5.685
				c-1.159-0.161-2.25,0.628-2.423,1.794c-0.175,1.164,0.628,2.249,1.792,2.423l38.017,5.685
				C246.631,425.748,246.737,425.756,246.842,425.756z"/>
			<path fill="#FE912A" d="M219.482,508.184c0.269,0,0.542-0.05,0.807-0.158l37.306-15.276c1.09-0.448,1.611-1.692,1.165-2.781
				c-0.445-1.087-1.688-1.611-2.78-1.166l-37.306,15.276c-1.09,0.448-1.611,1.693-1.165,2.781
				C217.846,507.685,218.642,508.184,219.482,508.184z"/>
		</g>
	</g>
	<g>
		<path fill="#F2F2F2" d="M328.833,546.465h41.214c0.589,0,1.066-0.477,1.066-1.065s-0.477-1.066-1.066-1.066h-41.214
			c-0.589,0-1.066,0.478-1.066,1.066S328.244,546.465,328.833,546.465z"/>
		<path fill="#F2F2F2" d="M315.88,551.795h45.117c0.589,0,1.066-0.478,1.066-1.066s-0.477-1.065-1.066-1.065H315.88
			c-0.589,0-1.066,0.477-1.066,1.065S315.291,551.795,315.88,551.795z"/>
		<path fill="#F2F2F2" d="M346.241,558.902h23.806c0.589,0,1.066-0.478,1.066-1.066s-0.477-1.065-1.066-1.065h-23.806
			c-0.589,0-1.066,0.477-1.066,1.065S345.652,558.902,346.241,558.902z"/>
		<path fill="#F2F2F2" d="M327.411,568.449h39.082c0.589,0,1.066-0.477,1.066-1.066c0-0.589-0.477-1.065-1.066-1.065h-39.082
			c-0.589,0-1.066,0.477-1.066,1.065C326.345,567.973,326.822,568.449,327.411,568.449z"/>
	</g>
</g>
<linearGradient id="SVGID_1_" gradientUnits="userSpaceOnUse" x1="1240.8516" y1="219.6479" x2="1240.8516" y2="177.6206" gradientTransform="matrix(-1 0 0 1 1474.291 0)">
	<stop  offset="0" style="stop-color:#85D0EE"/>
	<stop  offset="0.1897" style="stop-color:#9BD9F1"/>
	<stop  offset="0.5319" style="stop-color:#BDE6F6"/>
	<stop  offset="0.8144" style="stop-color:#D2EEF9"/>
	<stop  offset="1" style="stop-color:#DAF1FA"/>
</linearGradient>
<path fill="url(#SVGID_1_)" d="M270.065,218.913l26.252-0.07c0,0,6.373-0.882-3.75-1.741c-10.38-0.881-10.38-0.881-10.38-0.881
	s1.957-2.985-1.389-6.22c-3.83-2.653-5.696,1.52-7.785-3.427c-1.736-4.113-6.519-15.793-18.847-16.402
	c-12.695-0.626-19.106,5.977-19.106,5.977s1.596-3.592,3.789-4.816c0,0-4.531-1.659-8.514-5.556
	c-4.02-3.934-11.986-9.871-25.258-7.686c-13.671,2.25-28.877,16.926-27.187,31.455c0,0-1.854-0.265-1.872-5.521
	c0,0-7.425,1.917-7.438,8.854c-0.014,6.935,13.541,6.641,15.86,6.758C186.75,219.753,270.065,218.913,270.065,218.913z"/>
<linearGradient id="SVGID_2_" gradientUnits="userSpaceOnUse" x1="1024.5547" y1="914.7344" x2="1024.5547" y2="629.8857" gradientTransform="matrix(-1 0 0 1 1474.291 0)">
	<stop  offset="0" style="stop-color:#85D0EE"/>
	<stop  offset="0.1897" style="stop-color:#9BD9F1"/>
	<stop  offset="0.5319" style="stop-color:#BDE6F6"/>
	<stop  offset="0.8144" style="stop-color:#D2EEF9"/>
	<stop  offset="1" style="stop-color:#DAF1FA"/>
</linearGradient>
<path fill="url(#SVGID_2_)" d="M697.979,909.75l177.931-0.475c0,0,43.189-5.977-25.415-11.802
	c-70.352-5.975-70.352-5.975-70.352-5.975s13.264-20.232-9.413-42.158c-25.959-17.984-38.604,10.301-52.761-23.225
	c-11.77-27.875-44.181-107.045-127.741-111.168c-86.043-4.246-129.497,40.508-129.497,40.508s10.818-24.346,25.676-32.643
	c0,0-30.71-11.24-57.702-37.657c-27.244-26.664-81.241-66.899-171.191-52.091C164.856,648.321,61.791,747.784,73.249,846.259
	c0,0-12.563-1.792-12.688-37.416c0,0-50.323,12.997-50.414,60.012c-0.091,47.002,91.775,45.012,107.495,45.804
	C133.284,915.445,697.979,909.75,697.979,909.75z"/>
<linearGradient id="SVGID_3_" gradientUnits="userSpaceOnUse" x1="115.5361" y1="237.5435" x2="352.9355" y2="237.5435" gradientTransform="matrix(-1 0 0 1 1474.291 0)">
	<stop  offset="0" style="stop-color:#85D0EE"/>
	<stop  offset="0.1897" style="stop-color:#9BD9F1"/>
	<stop  offset="0.5319" style="stop-color:#BDE6F6"/>
	<stop  offset="0.8144" style="stop-color:#D2EEF9"/>
	<stop  offset="1" style="stop-color:#DAF1FA"/>
</linearGradient>
<path fill="url(#SVGID_3_)" d="M1126.702,244.202h31.952c0.914-13.273,12.056-24.14,28.438-24.14
	c12.297,0,23.135,6.271,29.282,15.194c6.301-16.113,16.073-29.963,35.358-29.963c19.609,0,35.955,13.802,36.403,29.983
	c3.83-1.958,9.683-3.89,17.569-3.5c14.821,0.731,20.569,14.773,22.657,19.717c2.511,5.946,4.754,0.929,9.357,4.119
	c4.022,3.889,1.67,7.478,1.67,7.478s0,0,12.478,1.06c12.169,1.033,4.508,2.093,4.508,2.093l-31.559,0.084
	c0,0-59.446,0.6-88.01,0.811c-2.469,1.65-5.361,2.656-8.015,2.656h-3.911h-11.357h-42.408h-14.411c-4.896,0-11.322-3.407-14.6-8.022
	c-0.675-0.95-1.173-1.887-1.499-2.785h-7.23c-4.227,0-9.232-3.113-11.205-7.079C1120.103,247.752,1122.102,244.202,1126.702,244.202
	z"/>
<linearGradient id="SVGID_4_" gradientUnits="userSpaceOnUse" x1="1218.6709" y1="300.2676" x2="1456.0713" y2="300.2676" gradientTransform="matrix(-1 0 0 1 1474.291 0)">
	<stop  offset="0" style="stop-color:#85D0EE"/>
	<stop  offset="0.1897" style="stop-color:#9BD9F1"/>
	<stop  offset="0.5319" style="stop-color:#BDE6F6"/>
	<stop  offset="0.8144" style="stop-color:#D2EEF9"/>
	<stop  offset="1" style="stop-color:#DAF1FA"/>
</linearGradient>
<path fill="url(#SVGID_4_)" d="M23.567,306.926H55.52c0.914-13.273,12.055-24.14,28.437-24.14c12.296,0,23.135,6.271,29.282,15.194
	c6.3-16.113,16.073-29.963,35.358-29.963c19.61,0,35.956,13.802,36.403,29.983c3.831-1.958,9.683-3.89,17.57-3.5
	c14.821,0.731,20.569,14.773,22.657,19.717c2.511,5.946,4.753,0.929,9.358,4.119c4.022,3.889,1.669,7.478,1.669,7.478
	s0,0,12.478,1.06c12.168,1.033,4.508,2.093,4.508,2.093l-31.559,0.084c0,0-59.447,0.6-88.01,0.811
	c-2.469,1.65-5.362,2.656-8.015,2.656h-3.912h-11.357H67.98H53.569c-4.897,0-11.323-3.407-14.6-8.022
	c-0.675-0.95-1.173-1.887-1.499-2.785h-7.23c-4.227,0-9.233-3.113-11.206-7.079C16.967,310.477,18.966,306.926,23.567,306.926z"/>
<path fill="#1F4A6F" d="M1074.422,947.903c0.246-0.559,0.81-0.899,1.348-1.186c6.547-3.487,14.127-4.35,21.502-5.151
	c23.478-2.55,47.473-3.161,71.016-0.729c2.267,0.233,5.29,1.633,4.522,3.778c-0.627,2.12-9.341,1.051-14.012,1.577
	c-1.229,0.138-2.832,1.477-1.807,2.169c7.606-0.122,15.213-0.244,22.821-0.366c2.29-0.037,5.912,0.408,6.148,3.333
	c0.018,0.211,0.58,2.823-12.358,2.087c-3.793-0.216-8.941,0.105-12.624,0.946c0.664-0.151,1.708,0.122,2.385,0.19
	c0.924,0.093,1.849,0.219,2.75,0.443c1.748,0.436,3.43,1.257,4.105,3.036c0.119,0.314,0.172,0.672,0.049,0.985
	c-0.149,0.386-0.533,0.633-0.924,0.767c-1.956,0.673-4.053,0.488-6.084,0.567c-2.187,0.086-4.373,0.168-6.561,0.247
	c-4.373,0.158-8.748,0.304-13.122,0.435c-7.481,0.225-14.963,0.409-22.446,0.553c-5.141,0.099-10.548,0.116-15.061-2.35
	c-0.575-0.314-1.178-0.731-1.324-1.37c-0.575-2.505,5.237-1.671,5.572-4.219c-10.779-0.921-21.558-1.841-32.336-2.762
	C1076.164,950.73,1073.687,949.573,1074.422,947.903z"/>
<g>
	<path fill="#509CBA" d="M1223.984,744.026c8.19-2.176,18.135-3.26,30.281-3.75l-31.668,43.357
		C1222.304,777.149,1221.855,760.339,1223.984,744.026z"/>
	<path fill="#509CBA" d="M1208.956,806.076c15.914-1.515,37.521-11.032,51.666-18.058c-3.448,12.104-12.662,21.452-29.508,31.301
		c-33.618,19.653-8.383,29.322-2.206,29.535s27.863-7.96,34.704,7.497c0.352,0.794,0.607,1.61,0.808,2.438
		c-31.259,21.191-105.541,35.119-121.688,37.956L1208.956,806.076z"/>
	<path fill="#509CBA" d="M1154.828,876.418c-3.723-6.732-19.889-40.649-10.805-106.501c15.722,2.404,15.016,24.676,17.147,30.332
		c2.179,5.783,19.42,26.593,27.273-11.548c5.339-25.928,14.344-38.259,33.173-44.004c-2.492,19.841-1.224,39.869-1.094,41.775
		L1154.828,876.418z"/>
	<path fill="#509CBA" d="M1210.734,803.642l45.24-61.939c5.418,18.484,7.642,32.187,5.335,43.454
		C1247.909,791.88,1226.595,801.517,1210.734,803.642z"/>
	<path fill="#509CBA" d="M1264.795,861.215c1.009,15.022-20.467,34.706-55.854,52.953c-10.843,5.592-22.241,10.091-33.744,14.121
		c-11.319,3.967-22.808,7.447-34.376,10.611c-8.628,2.36-17.307,4.627-26.046,6.544c-1.777,0.39-4.382-0.577-6.22-1.907
		l32.291-44.211C1150.787,897.671,1230.496,883.855,1264.795,861.215z"/>
	<path fill="#509CBA" d="M1141.795,769.73c-9.58,69.628,8.908,104.093,11.598,108.652l-46.458,63.607
		c-0.042-0.058-0.089-0.114-0.126-0.171c-0.752-1.149-0.914-2.583-0.931-3.956c-0.036-3.035-0.379-6.02-0.634-9.047
		c-0.421-4.992-0.786-9.988-1.092-14.988c-0.737-12.058-1.146-24.141-1.044-36.221c0.105-12.36,0.693-24.773,2.505-37.012
		c0.026-0.172,0.052-0.344,0.078-0.516C1112.158,797.318,1125.488,769.563,1141.795,769.73z"/>
	<path fill="#F2F2F2" d="M1141.795,769.73c0.386,0.004,0.771,0.007,1.16,0.043c0.368,0.033,0.717,0.09,1.068,0.144
		c-9.084,65.852,7.082,99.769,10.805,106.501l65.695-89.945c-0.13-1.906-1.398-21.935,1.094-41.775
		c0.771-0.235,1.563-0.457,2.367-0.671c-2.129,16.313-1.681,33.123-1.387,39.607l31.668-43.357c0.263-0.011,0.514-0.024,0.779-0.034
		c0.363,0.003,0.509,0.123,0.643,0.468c0.1,0.337,0.189,0.658,0.287,0.992l-45.24,61.939c15.86-2.125,37.175-11.762,50.575-18.485
		c-0.198,0.97-0.421,1.927-0.688,2.862c-14.145,7.025-35.752,16.543-51.666,18.058l-66.225,90.669
		c16.147-2.837,90.43-16.765,121.688-37.956c0.191,0.795,0.319,1.603,0.375,2.426c-34.299,22.641-114.008,36.456-123.949,38.111
		l-32.291,44.211c-0.669-0.484-1.232-1.015-1.62-1.547l46.458-63.607C1150.703,873.823,1132.215,839.358,1141.795,769.73z"/>
</g>
<g>
	<path fill="#1F4A6F" d="M151.254,919.336c-0.246-0.559-0.81-0.898-1.348-1.186c-6.547-3.487-14.127-4.35-21.501-5.15
		c-23.478-2.551-47.473-3.162-71.016-0.729c-2.267,0.234-5.29,1.633-4.522,3.778c0.627,2.12,9.341,1.052,14.012,1.577
		c1.229,0.139,2.832,1.477,1.807,2.169c-7.606-0.122-15.213-0.244-22.821-0.366c-2.29-0.036-5.912,0.408-6.149,3.333
		c-0.017,0.211-0.58,2.823,12.359,2.087c3.793-0.216,8.941,0.105,12.623,0.946c-0.663-0.151-1.708,0.122-2.384,0.19
		c-0.924,0.093-1.849,0.219-2.75,0.444c-1.748,0.435-3.429,1.256-4.105,3.035c-0.12,0.315-0.172,0.672-0.049,0.986
		c0.15,0.385,0.533,0.632,0.924,0.766c1.957,0.674,4.053,0.488,6.084,0.567c2.187,0.086,4.374,0.168,6.561,0.247
		c4.374,0.158,8.748,0.304,13.123,0.435c7.481,0.225,14.963,0.41,22.446,0.553c5.141,0.099,10.548,0.116,15.061-2.35
		c0.575-0.314,1.178-0.731,1.325-1.37c0.575-2.505-5.237-1.671-5.572-4.219c10.778-0.92,21.557-1.841,32.336-2.762
		C149.512,922.163,151.989,921.006,151.254,919.336z"/>
	<g>
		<path fill="#509CBA" d="M128.108,792.225c-2.56-3.958-6.25-8.122-11.069-12.864l-3.166,29.694
			C116.418,806.494,122.887,799.738,128.108,792.225z"/>
		<path fill="#509CBA" d="M111.101,823.397c-5.987-6.573-11.328-18.57-14.527-26.752c-3.104,6.274-2.805,13.568,0.451,23.922
			c6.498,20.662-7.509,15.21-10.133,12.988c-2.623-2.221-8.5-13.694-17.095-9.886c-0.441,0.195-0.852,0.436-1.244,0.702
			c4.952,20.413,30.337,53.918,35.927,61.123L111.101,823.397z"/>
		<path fill="#509CBA" d="M107.097,872.602c4.05-1.381,23.387-9.307,44.263-39.822c-7.374-4.887-15.409,4.549-18.401,6.082
			c-3.06,1.566-17.939,3.691-6.916-14.952c7.494-12.674,8.395-21.118,2.789-30.523c-6.391,9.103-14.401,16.877-15.167,17.613
			L107.097,872.602z"/>
		<path fill="#509CBA" d="M111.279,821.729l4.523-42.421c-9.142,5.587-15.179,10.398-18.442,15.901
			C100.366,802.989,105.542,814.926,111.279,821.729z"/>
		<path fill="#509CBA" d="M67.492,825.23c-6.031,5.811-4.545,21.945,3.207,42.688c2.375,6.356,5.387,12.471,8.618,18.431
			c3.179,5.865,6.609,11.594,10.19,17.221c2.671,4.197,5.398,8.376,8.28,12.432c0.586,0.825,2.021,1.4,3.275,1.54l3.229-30.279
			C100.816,882.865,73.154,847.377,67.492,825.23z"/>
		<path fill="#509CBA" d="M152.348,833.535c-22.083,32.258-42.582,39.539-45.394,40.412l-4.645,43.563
			c0.038-0.008,0.079-0.014,0.115-0.023c0.74-0.192,1.342-0.722,1.862-1.281c1.149-1.237,2.407-2.338,3.644-3.489
			c2.039-1.898,4.057-3.819,6.052-5.765c4.811-4.689,9.497-9.513,13.971-14.526c4.577-5.13,8.976-10.462,12.804-16.18
			c0.054-0.08,0.107-0.16,0.161-0.241C154.24,855.977,159.126,839.563,152.348,833.535z"/>
		<path fill="#F2F2F2" d="M152.348,833.535c-0.16-0.142-0.32-0.285-0.493-0.416c-0.165-0.123-0.329-0.23-0.494-0.34
			c-20.876,30.516-40.213,38.441-44.263,39.822l6.568-61.603c0.766-0.736,8.776-8.511,15.167-17.613
			c-0.23-0.385-0.473-0.772-0.724-1.161c-5.221,7.514-11.69,14.27-14.235,16.83l3.166-29.694c-0.104-0.103-0.203-0.202-0.308-0.306
			c-0.15-0.135-0.255-0.14-0.439-0.048c-0.167,0.102-0.325,0.2-0.49,0.302l-4.523,42.421c-5.738-6.804-10.914-18.74-13.919-26.52
			c-0.281,0.474-0.547,0.951-0.787,1.436c3.199,8.182,8.54,20.179,14.527,26.752l-6.621,62.098
			c-5.59-7.205-30.975-40.71-35.927-61.123c-0.376,0.255-0.731,0.54-1.061,0.858c5.662,22.146,33.324,57.635,36.799,62.032
			l-3.229,30.279c0.456,0.051,0.887,0.043,1.246-0.031l4.645-43.563C109.766,873.074,130.264,865.793,152.348,833.535z"/>
	</g>
	<g>
		<path fill="#34B2E4" d="M65.398,803.774c-3.882-2.202-8.804-4.084-14.926-5.956l10.339,26.319
			C61.828,820.873,64.302,812.369,65.398,803.774z"/>
		<path fill="#34B2E4" d="M64.762,837.394c-7.905-2.898-17.641-10.634-23.908-16.104c0.14,6.628,3.584,12.621,10.851,19.89
			c14.5,14.504,0.352,16.058-2.823,15.341c-3.175-0.717-13.131-7.778-18.682-0.817c-0.285,0.357-0.524,0.738-0.737,1.134
			c13.093,14.973,49.074,31.993,56.921,35.597L64.762,837.394z"/>
		<path fill="#34B2E4" d="M82.938,880.462c2.796-2.933,15.563-18.052,19.735-52.813c-8.331-0.876-10.947,10.563-12.789,13.161
			c-1.883,2.654-13.447,10.952-12.352-9.527c0.745-13.923-2.195-21.408-11.02-26.851c-1.382,10.44-4.704,20.475-5.025,21.429
			L82.938,880.462z"/>
		<path fill="#34B2E4" d="M64.182,835.916l-14.771-37.6c-5.23,8.692-8.193,15.375-8.524,21.424
			C46.815,824.957,56.386,832.714,64.182,835.916z"/>
		<path fill="#34B2E4" d="M28.948,858.022c-2.521,7.518,5.79,20.415,21.379,34.439c4.777,4.298,9.982,8.113,15.304,11.703
			c5.237,3.533,10.624,6.842,16.095,10c4.08,2.354,8.199,4.669,12.395,6.813c0.853,0.437,2.309,0.291,3.423-0.141L87,894
			C82.157,891.829,43.396,874.14,28.948,858.022z"/>
		<path fill="#34B2E4" d="M103.833,827.852c-4.423,36.752-18.447,51.839-20.427,53.803l15.168,38.612
			c0.029-0.023,0.06-0.046,0.087-0.07c0.537-0.485,0.811-1.193,1.002-1.892c0.424-1.541,0.998-3.016,1.532-4.523
			c0.881-2.487,1.735-4.983,2.559-7.49c1.987-6.044,3.81-12.145,5.372-18.313c1.598-6.312,2.957-12.713,3.669-19.19
			c0.01-0.091,0.02-0.182,0.03-0.272C115.245,845.866,112.163,829.945,103.833,827.852z"/>
		<path fill="#F2F2F2" d="M103.833,827.852c-0.197-0.049-0.394-0.099-0.597-0.133c-0.192-0.032-0.377-0.05-0.563-0.069
			c-4.172,34.761-16.939,49.88-19.735,52.813l-21.45-54.601c0.321-0.954,3.643-10.988,5.025-21.429
			c-0.361-0.223-0.735-0.441-1.116-0.658c-1.096,8.595-3.57,17.099-4.586,20.363l-10.339-26.319
			c-0.132-0.041-0.259-0.081-0.393-0.122c-0.186-0.047-0.275-0.005-0.39,0.152c-0.096,0.158-0.185,0.311-0.279,0.468l14.771,37.6
			c-7.796-3.202-17.367-10.959-23.295-16.176c-0.028,0.521-0.043,1.038-0.032,1.55c6.268,5.47,16.003,13.205,23.908,16.104
			l21.622,55.04c-7.847-3.604-43.829-20.624-56.921-35.597c-0.204,0.379-0.377,0.773-0.515,1.186
			C43.396,874.14,82.157,891.829,87,894l10.543,26.838c0.405-0.157,0.764-0.352,1.032-0.571l-15.168-38.612
			C85.386,879.69,99.41,864.604,103.833,827.852z"/>
	</g>
</g>
<g>
	<path fill="#1F4A6F" d="M1069.633,565.103c16.797-40.784,39.941-86.265,64.241-130.142c6.591,0.896,56.063,6.285,106.657-24.218
		c-4.224,22.682-10.171,45.03-18.507,66.59c-6.305,16.31-14.221,32.112-23.596,46.972
		C1160.949,557.049,1085.879,563.97,1069.633,565.103z"/>
	<path fill="#1F4A6F" d="M1135.911,431.29c46.434-83.455,96.523-160.427,114.259-187.22c2.943,17.332,0.334,38.091,0.054,55.501
		c-0.326,20.091-1.125,40.227-2.882,60.315c-1.337,15.282-3.237,30.561-5.879,45.707
		C1193.754,435.705,1146.382,432.473,1135.911,431.29z"/>
	<path fill="#1F4A6F" d="M1162.451,377.18c-26.356,44.751-54.021,94.623-76.411,141.63c-5.287-14.399-26.671-77.09-16.967-123.978
		c22.06-39.297,52.361-74.02,87.272-101.364c-3.801,38.022,5.777,83.289,5.879,83.76L1162.451,377.18z"/>
	<path fill="#1F4A6F" d="M1160.635,290.164c5.213-3.95,10.516-7.747,15.911-11.36c20.768-13.912,46.124-31.082,70.782-37.496
		c-13.36,20.17-46.28,70.621-82.076,131.126C1162.96,360.188,1156.642,321.849,1160.635,290.164z"/>
	<path fill="#1F4A6F" d="M1083.568,523.291l0.43-0.171c-16.064,34.095-29.209,66.528-36.923,94.242
		c-3.854-4.623-6.581-12.504-9.412-24.742c-15.232-65.833-3.196-130.951,25.864-187.469
		C1057.823,457.834,1083.29,522.593,1083.568,523.291z"/>
	<path fill="#1F4A6F" d="M1191.684,534.437c-13.717,19.648-30.102,37.348-48.907,51.903c-17.784,13.767-37.728,24.788-59.261,31.288
		c-16.817,5.076-26.575,7.093-33.209,2.679c4.254-15.681,10.299-32.929,17.687-51.188
		C1078.978,568.514,1149.23,563.557,1191.684,534.437z"/>
	<path fill="#509CBA" d="M1083.998,523.12l-0.43,0.171c-0.278-0.698-25.745-65.457-20.041-118.141
		c1.785-3.472,3.634-6.912,5.546-10.317c-9.704,46.887,11.68,109.579,16.967,123.978c22.391-47.008,50.055-96.879,76.411-141.63
		l-0.227,0.048c-0.102-0.471-9.68-45.738-5.879-83.76c1.423-1.114,2.853-2.215,4.289-3.305c-3.993,31.685,2.325,70.024,4.617,82.27
		c35.796-60.505,68.716-110.957,82.076-131.126c0.732-0.19,1.466-0.405,2.196-0.576c0.24,1.097,0.454,2.21,0.646,3.338
		c-17.735,26.792-67.825,103.765-114.259,187.22c10.471,1.183,57.843,4.416,105.552-25.696c-0.3,1.718-0.612,3.434-0.932,5.149
		c-50.594,30.503-100.066,25.114-106.657,24.218c-24.3,43.877-47.444,89.358-64.241,130.142
		c16.246-1.133,91.316-8.054,128.796-40.798c-2.166,3.434-4.423,6.807-6.745,10.132c-42.453,29.12-112.706,34.077-123.69,34.683
		c-7.388,18.259-13.433,35.507-17.687,51.188c-1.167-0.775-2.237-1.752-3.231-2.945
		C1054.789,589.647,1067.934,557.215,1083.998,523.12z"/>
</g>
<g>
	<path fill="#34B2E4" d="M1077.609,513.396c0.285-36.156-2.73-77.879-7.129-118.759c-5.265-1.42-44.355-13.088-72.874-52.229
		c-4.025,18.48-6.642,37.255-7.204,56.196c-0.426,14.328,0.527,28.784,2.883,42.994
		C1011.183,478.259,1065.695,507.372,1077.609,513.396z"/>
	<path fill="#34B2E4" d="M1070.108,391.216c-8.528-77.822-21.883-151.91-26.757-177.794c-7.738,12.157-12.372,28.671-17.698,41.914
		c-6.146,15.282-11.948,30.749-17.012,46.484c-3.853,11.97-7.278,24.118-10.101,36.402
		C1025.005,376.149,1061.822,388.778,1070.108,391.216z"/>
	<path fill="#34B2E4" d="M1067.273,341.893c5.674,42.195,10.707,88.673,12.668,131.311c8.575-9.196,44.676-49.755,52.262-88.266
		c-4.163-36.706-16.01-72.58-33.685-104.346c-9.225,29.935-30.863,61.086-31.09,61.41L1067.273,341.893z"/>
	<path fill="#34B2E4" d="M1096.329,276.731c-2.681-4.643-5.479-9.198-8.406-13.645c-11.264-17.118-24.958-38.157-41.546-50.848
		c3.677,19.489,12.496,68.078,20.29,125.177C1072.295,328.894,1089.266,301.939,1096.329,276.731z"/>
	<path fill="#34B2E4" d="M1080.384,477.375l-0.271-0.267c1.289,30.869,0.901,59.555-2.089,82.946
		c4.384-2.267,8.95-7.354,14.983-15.698c32.452-44.89,44.076-97.916,40.103-149.859
		C1120.658,436.114,1080.815,476.936,1080.384,477.375z"/>
	<path fill="#34B2E4" d="M995.157,451.398c4.111,19.208,10.859,37.792,20.436,54.772c9.056,16.058,20.616,30.729,34.816,42.491
		c11.091,9.186,17.821,13.813,24.237,12.59c1.775-13.2,2.695-28.154,2.924-44.299C1069.464,513,1017.966,486.905,995.157,451.398z"
		/>
	<path fill="#F2F2F2" d="M1080.113,477.108l0.271,0.267c0.432-0.439,40.274-41.261,52.727-82.878
		c-0.244-3.191-0.546-6.378-0.907-9.56c-7.586,38.511-43.687,79.07-52.262,88.266c-1.961-42.638-6.994-89.116-12.668-131.311
		l0.155,0.108c0.227-0.323,21.865-31.475,31.09-61.41c-0.721-1.294-1.45-2.581-2.189-3.861
		c-7.063,25.208-24.034,52.163-29.662,60.685c-7.794-57.1-16.613-105.688-20.29-125.177c-0.492-0.377-0.979-0.772-1.476-1.133
		c-0.53,0.751-1.047,1.525-1.55,2.316c4.874,25.884,18.229,99.972,26.757,177.794c-8.286-2.438-45.104-15.067-71.567-52.994
		c-0.32,1.394-0.63,2.789-0.935,4.186c28.519,39.141,67.609,50.81,72.874,52.229c4.398,40.88,7.414,82.604,7.129,118.759
		c-11.914-6.024-66.427-35.137-84.324-71.799c0.544,3.283,1.176,6.549,1.872,9.801c22.809,35.506,74.307,61.602,82.413,65.554
		c-0.229,16.145-1.148,31.099-2.924,44.299c1.128-0.215,2.248-0.613,3.378-1.197
		C1081.015,536.663,1081.402,507.978,1080.113,477.108z"/>
</g>
<g>
	<path fill="#509CBA" d="M1099.535,593.854c27.109-19.096,60.722-37.752,94.658-54.572c4.735,4.58,40.748,38.005,90.155,46.458
		c-11.157,13.68-23.519,26.089-37.433,36.51c-10.525,7.883-22.107,14.439-34.479,19.451
		C1172.293,642.688,1112.374,602.756,1099.535,593.854z"/>
	<path fill="#509CBA" d="M1197.036,537.877c64.714-31.864,129.964-56.911,152.905-65.45c-3.798,14.142-13.047,27.413-19.343,39.683
		c-7.267,14.159-14.91,28.066-23.272,41.367c-6.361,10.118-13.152,19.898-20.467,29.14
		C1239.8,575.609,1204.644,544.98,1197.036,537.877z"/>
	<path fill="#509CBA" d="M1236.263,515.085c-35.817,16.216-74.425,35.307-107.993,55.505c0.979-13.447,6.494-71.018,30.304-98.714
		c30.621-14.887,65.959-21.579,102.25-20.245c-16.191,24.891-24.664,62.957-24.751,63.354L1236.263,515.085z"/>
	<path fill="#509CBA" d="M1265.263,451.834c5.372,0.294,10.76,0.752,16.154,1.396c20.767,2.476,46.186,5.368,67.313,15.526
		c-17.279,6.422-60.114,22.787-108.664,44.614C1242.587,503.25,1251.138,472.083,1265.263,451.834z"/>
	<path fill="#509CBA" d="M1124.812,572.313l0.389,0.134c-24.212,14.756-45.608,30.067-61.195,45.257
		c-1.338-5.608-0.674-12.868,1.432-23.304c11.325-56.138,43.286-95.464,85.285-118.469
		C1127.953,510.16,1124.842,571.648,1124.812,572.313z"/>
	<path fill="#509CBA" d="M1203.732,644.907c-17.369,5.837-36.102,8.687-55.59,7.844c-18.43-0.797-37.555-4.845-56.318-13.073
		c-14.655-6.427-22.834-10.82-26.374-17.938c8.735-8.66,19.39-17.368,31.426-25.997
		C1105.501,601.877,1161.044,640.332,1203.732,644.907z"/>
	<path fill="#1F4A6F" d="M1125.2,572.447l-0.389-0.134c0.03-0.665,3.142-62.154,25.91-96.382c2.58-1.414,5.197-2.766,7.852-4.056
		c-23.81,27.696-29.324,85.267-30.304,98.714c33.568-20.198,72.176-39.289,107.993-55.505l-0.19-0.101
		c0.087-0.397,8.56-38.462,24.751-63.354c1.479,0.055,2.958,0.122,4.439,0.203c-14.125,20.249-22.676,51.416-25.196,61.535
		c48.55-21.827,91.385-38.191,108.664-44.614c0.627,0.301,1.264,0.587,1.883,0.901c-0.199,0.927-0.425,1.851-0.672,2.771
		c-22.941,8.539-88.191,33.585-152.905,65.45c7.607,7.104,42.764,37.732,89.823,44.74c-0.829,1.048-1.668,2.088-2.511,3.122
		c-49.407-8.453-85.42-41.878-90.155-46.458c-33.937,16.82-67.549,35.477-94.658,54.572c12.839,8.902,72.758,48.835,112.902,47.847
		c-2.858,1.158-5.766,2.219-8.705,3.207c-42.688-4.575-98.231-43.03-106.856-49.165c-12.036,8.629-22.69,17.337-31.426,25.997
		c-0.622-1.252-1.101-2.59-1.445-4.035C1079.592,602.515,1100.988,587.203,1125.2,572.447z"/>
</g>
<g>
	<g>
		<circle fill="#FFFFFF" cx="910.177" cy="612.441" r="226.526"/>
		<path d="M910.177,839.468c-60.641,0-117.652-23.615-160.532-66.494c-42.88-42.88-66.495-99.892-66.495-160.532
			s23.615-117.652,66.495-160.532c42.88-42.879,99.891-66.494,160.532-66.494c60.641,0,117.651,23.615,160.531,66.494
			c42.879,42.88,66.494,99.891,66.494,160.532s-23.615,117.652-66.494,160.532C1027.828,815.853,970.817,839.468,910.177,839.468z
			 M910.177,386.416c-124.632,0-226.027,101.395-226.027,226.026c0,124.632,101.395,226.026,226.027,226.026
			c124.631,0,226.025-101.395,226.025-226.026C1136.202,487.811,1034.808,386.416,910.177,386.416z"/>
	</g>
	<path fill="#FFC60C" d="M948.725,280.118c-9.433,21.978-19.239,43.797-28.421,65.877c-2.854,6.865-5.891,9.057-15.338,8.795
		c-19.44-0.54-38.91,0.565-58.04,4.068c-11.67,2.137-16.016,1.991-20.723-5.853c-12.095-20.149-25.122-39.738-37.389-59.788
		c-4.647-7.594-9.556-7.63-20.215,1.569c-16.987,14.662-37.12,25.167-58.805,30.943c-15.159,4.039-18.88,7.24-15.179,16.327
		c9.164,22.501,17.195,45.463,26.396,67.949c2.681,6.551,1.564,10.174-2.984,15.299c-14.256,16.06-27.505,33.011-41.667,49.159
		c-2.099,2.393-7.327,3.809-10.584,3.137c-26.074-5.37-52.022-11.352-78.834-17.332c-16.288,29.21-26.259,60.355-32.013,92.861
		c-0.474,2.679,4.095,7.771,7.448,9.357c20.912,9.886,42.016,19.4,63.343,28.355c8.295,3.483,10.906,7.737,10.665,18.504
		c-0.439,19.571,1.978,39.061,5.205,58.369c1.228,7.344-0.229,10.478-5.573,13.844c-22.526,14.188-44.82,28.745-68.422,43.96
		c4.98,12.614,8.961,25.342,14.895,37.082c8.294,16.411,18.114,32.046,27.139,48.093c3.693,6.566,8.004,7.921,15.315,4.846
		c22.385-9.415,45.012-18.282,67.788-26.701c3.225-1.192,8.867,0.019,11.588,2.283c15.908,13.24,30.965,27.513,47.007,40.58
		c5.46,4.446,6.756,8.081,5.186,14.736c-6.023,25.528-11.406,51.209-17.218,77.696c30.757,17.873,63.826,27.581,99.256,33.929
		c10.258-23.821,21.049-47.295,30.382-71.335c3.681-9.481,8.653-11.396,18.166-11.573c20.251-0.379,40.517-2.272,60.669-4.509
		c6.592-0.731,10.289-0.496,14.149,5.902c13.714,22.736,30.297,48.148,45.499,71.985l11.21-6.087
		c23.21-12.534,46.799-25.427,70.55-38.01c7.537-3.992,9.247-8.115,5.583-16.658c-9.098-21.216-16.554-43.131-25.135-64.58
		c-2.64-6.598-1.835-10.581,3.789-16.225c14.31-14.356,27.575-29.677,39.871-45.79c4.495-5.89,7.979-7.802,14.56-6.26
		c23.245,5.45,46.626,10.324,69.864,15.804c7.502,1.77,12.133,1.142,13.881-10.988c3.666-25.44,12.417-49.791,23.998-72.736
		c4.882-9.671,3.055-13.78-4.41-16.925c-22.018-9.276-43.729-19.283-65.791-28.448c-5.968-2.479-7.604-5.18-7.827-11.884
		c-0.739-22.205-2.385-44.42-4.828-66.505c-0.783-7.085-0.428-11.174,6.134-15.273c22.234-13.893,43.986-28.556,65.924-42.925
		l-2.498-11.5c-4.72-10.679-8.863-21.66-14.295-31.963c-7.829-14.85-16.732-29.13-24.889-43.813
		c-3.167-5.703-6.681-6.063-12.468-3.673c-24.94,10.299-50.083,20.106-72.729,29.127c-21-16.892-40.6-32.339-59.704-48.378
		c-2.734-2.295-4.901-7.802-4.229-11.211c4.624-23.446,9.7-46.822,15.479-70.009c2.684-10.765-0.894-15.232-21.742-15.533
		c-20.805-0.3-40.827-7.466-57.84-19.447C954.271,267.654,951.683,273.224,948.725,280.118z M1093.883,596.202
		c8.873,109.937-73.348,206.596-183.285,215.469c-109.937,8.874-206.596-73.347-215.47-183.283
		c-8.873-109.938,73.348-206.597,183.284-215.47S1085.009,486.265,1093.883,596.202z"/>
	<path fill="#FFC60C" d="M711.399,626.676c8.242,102.121,98.029,178.496,200.15,170.253
		c102.121-8.242,178.496-98.029,170.253-200.15c-8.242-102.121-98.029-178.496-200.15-170.253
		C779.531,434.768,703.156,524.555,711.399,626.676z M1021.695,587.062c15.392,67.712-28.778,136.255-97.852,151.847
		c-68.063,15.364-136.33-28.514-151.915-97.641c-15.49-68.71,27.609-136.001,97.201-151.758
		C938.506,473.801,1005.719,516.777,1021.695,587.062z"/>
	<g>
		<path fill="#F2F2F2" d="M895.597,778.63c53.786,0,104.761-26.041,136.354-69.658l-2.662-1.93
			c-30.979,42.768-80.956,68.299-133.691,68.299c-90.962,0-164.965-74.004-164.965-164.968h-3.288
			C727.344,703.149,802.822,778.63,895.597,778.63z"/>
		<path fill="#F2F2F2" d="M774.593,498.246c24.9-26.856,58.413-44.863,94.364-50.699l-0.526-3.247
			c-36.673,5.954-70.853,24.318-96.247,51.711L774.593,498.246z"/>
		<path fill="#F2F2F2" d="M1060.563,610.373h3.289c0-62.234-34.129-119.134-89.066-148.492l-1.551,2.9
			C1027.102,493.567,1060.563,549.354,1060.563,610.373z"/>
	</g>
	<g>
		<path fill="#F2F2F2" d="M681.865,527.143c-27.198,68.79-19.669,147.151,20.139,209.614l3.815-2.429
			c-39.033-61.247-46.415-138.076-19.749-205.522c45.998-116.336,178.066-173.561,294.405-127.563l1.663-4.206
			C863.481,350.123,728.778,408.488,681.865,527.143z"/>
		<path fill="#F2F2F2" d="M1101.65,514.166c21.757,45.428,27.84,97.394,17.125,146.325l4.419,0.968
			c10.93-49.912,4.727-102.914-17.467-149.243L1101.65,514.166z"/>
	</g>
</g>
<g>
	<g>
		
			<rect x="280.734" y="679.771" transform="matrix(-0.1599 0.9871 -0.9871 -0.1599 1331.6776 232.5616)" fill="#509CBA" width="572.292" height="6.313"/>
		
			<rect x="191.972" y="679.771" transform="matrix(-0.1972 0.9804 -0.9804 -0.1972 1244.2712 346.9139)" fill="#509CBA" width="576.238" height="6.313"/>
		<rect x="513.981" y="511.258" fill="#509CBA" width="80.201" height="6.312"/>
		<rect x="438.662" y="891.795" fill="#509CBA" width="95.081" height="6.313"/>
		<rect x="513.981" y="393.246" fill="#509CBA" width="82.925" height="14.991"/>
		<g>
			
				<rect x="621.057" y="391.459" transform="matrix(-0.9879 0.1553 -0.1553 -0.9879 1346.4646 1255.1663)" fill="#1F4A6F" width="6.315" height="577.415"/>
		</g>
		<g>
			
				<rect x="698.382" y="391.377" transform="matrix(-0.9877 0.1563 -0.1563 -0.9877 1500.7681 1242.313)" fill="#1F4A6F" width="6.31" height="577.579"/>
		</g>
		<g>
			<rect x="590.098" y="459.366" fill="#1F4A6F" width="76.921" height="6.312"/>
		</g>
		<g>
			<rect x="601.671" y="526.705" fill="#1F4A6F" width="76.922" height="6.313"/>
		</g>
		<g>
			<rect x="610.942" y="603.501" fill="#1F4A6F" width="76.918" height="6.312"/>
		</g>
		<g>
			<rect x="628.559" y="685.557" fill="#1F4A6F" width="76.922" height="6.313"/>
		</g>
		<g>
			<rect x="640.132" y="762.355" fill="#1F4A6F" width="76.918" height="6.312"/>
		</g>
		<g>
			<rect x="649.399" y="839.15" fill="#1F4A6F" width="76.922" height="6.313"/>
		</g>
		<g>
			<rect x="663.078" y="917" fill="#1F4A6F" width="76.921" height="6.312"/>
		</g>
		<g>
			<rect x="563.664" y="393.246" fill="#1F4A6F" width="110.521" height="14.991"/>
		</g>
	</g>
</g>
<g>
	<g>
		<path fill="#F2C777" d="M688.786,272.676c0,0-1.637,4.253-5.407,10.159c-3.77,5.905-13.166,20.601-2.622,25.851
			c10.544,5.25,16.089,6.475,19.669,4.796s19.896-14.249,18.895-24.722C718.318,278.289,705.083,256.748,688.786,272.676z"/>
		<path fill="#F2C777" d="M694.455,321.876c-0.195,0.42-0.4,0.848-0.726,1.178c-0.493,0.498-1.206,0.713-1.9,0.809
			c-2.221,0.305-4.439-0.423-6.563-1.142c-1.287-0.435-2.815-1.183-2.834-2.541c-0.006-0.43,0.154-0.842,0.311-1.242
			c1.393-3.536,2.785-7.072,4.177-10.608c0.23-0.586,0.478-1.196,0.954-1.608c0.534-0.463,1.271-0.603,1.976-0.665
			c3.402-0.297,8.167,0.857,8.564,4.999C698.728,314.326,695.789,319.006,694.455,321.876z"/>
		<path fill="#092140" d="M720.969,310.174c2.01-1.389,3.883-3.154,4.731-5.445c0.849-2.291,0.418-5.184-1.518-6.675
			c2.839-2.725,4.769-6.562,4.581-10.493c-0.188-3.93-2.779-7.809-6.558-8.91c1.03-0.783,0.85-2.364,0.494-3.608
			c-1.213-4.239-3.424-8.41-7.131-10.797c-0.988-0.637-2.115-1.145-3.29-1.107c-1.175,0.037-2.387,0.741-2.72,1.868
			c-0.085-0.8-0.474-1.533-0.897-2.217c-1.253-2.021-2.997-3.892-5.282-4.551s-5.136,0.286-5.995,2.504
			c-1.836-1.573-4.629-1.92-6.795-0.845c-2.109,1.047-2.71,2.801-3.405,4.857c-0.687,2.033-2.889,2.804-3.906,4.799
			c-0.907,1.78-0.918,4.103,0.338,5.656c1.257,1.552,3.879,1.932,5.288,0.516c0.092,1.514,0.975,2.959,2.28,3.731
			s2.997,0.852,4.369,0.203c-0.326,3.831,1.564,7.771,4.755,9.915c-1.174,0.725-1.512,2.372-1.075,3.681
			c0.071,0.214,0.182,0.41,0.284,0.609c-0.171,0.283-0.336,0.563-0.489,0.839c-0.747,1.343-2.334,3.362-1.183,4.91
			c0.247,0.332,0.576,0.532,0.945,0.672c0.676-0.28,1.415-0.423,2.081-0.336c0.341,0.044,0.634,0.155,0.899,0.296
			c0.06,0.027,0.118,0.057,0.176,0.088c0.009,0.006,0.019,0.01,0.027,0.016c0.087,0.05,0.149,0.14,0.229,0.202
			c-0.398,0.291-0.78,0.603-1.113,0.971c-1.075,1.186-1.656,2.966-0.994,4.423c-1.629,1.407-2.925,3.279-3.319,5.395
			c-0.395,2.116,0.222,4.472,1.839,5.892c2.478,2.174,6.387,1.585,9.272-0.008c1.817-1.004,3.609-2.697,3.454-4.768
			C714.594,313.521,718.155,312.118,720.969,310.174z"/>
	</g>
	<path fill="#F2C777" d="M546.326,332.879c0.279-0.104,0.59-0.078,0.883-0.024c1.086,0.2,1.578,0.748,2.319,1.566
		c0.408,0.45,1.086,1.528,1.55,1.92c0.591,0.501,1.575,1.321,2.313,1.554c3.999,1.264,7.948,1.418,11.946,2.683
		c1.226,0.388,2.473,0.786,3.53,1.518c0.859,0.596,1.117,1.627,1.068,2.808c0.273,0.87,1.875,2.037,2.01,2.303
		c-0.232,0.162-5.434,4.071-5.442,4.06c-0.933-1.24-1.617-2.841-2.609-4.073c-0.163-0.142-0.327-0.282-0.513-0.403
		c-3.739-1.164-7.707-3.089-8.847-3.547c-3.813-1.533-7.609-4.091-8.808-8.022C545.467,334.369,545.491,333.191,546.326,332.879z"/>
	<path fill="#092140" d="M670.167,331.624c-12.733,12.315-26.217,23.914-41.134,33.468c-3.929,2.517-8.111,4.977-12.755,5.419
		c-3.758,0.357-7.524-0.648-11.02-2.071c-6.86-2.793-12.941-7.167-18.949-11.5c-5.215-3.762-10.431-7.523-15.646-11.285
		c-1.665,1.716-3.33,3.433-4.995,5.149c7.883,7.518,15.767,15.036,23.649,22.553c8.708,8.304,18.525,17.104,30.545,17.658
		c12.375,0.57,23.173-7.766,32.721-15.658c7.116-5.882,14.231-11.764,21.347-17.646c5.229-4.323,10.761-9.113,12.347-15.71
		c1.586-6.597-3.264-14.987-9.995-14.139C676.282,327.862,674.085,327.834,670.167,331.624z"/>
	<path fill="#092140" d="M643.208,678.841c-2.92-0.659-6.436-1.935-6.823-4.903c10.741-3.133,22.148,0.062,33.244,1.498
		c0.533,0.069,1.116,0.124,1.571-0.162c0.437-0.273,0.644-0.792,0.808-1.28c0.636-1.889,1.034-3.856,1.183-5.844
		c0.08-1.062,6.925-0.584,7.792-0.262c2.405,0.894,3.785,2.869,4.547,5.271c1.216,3.832-0.126,9.676-4.357,10.872
		c-5.286,1.495-13.159-0.43-18.47-1.252C656.149,681.765,649.674,680.301,643.208,678.841z"/>
	<path fill="#092140" d="M666.097,678.841c-2.92-0.659-6.436-1.935-6.823-4.903c10.741-3.133,22.148,0.062,33.244,1.498
		c0.533,0.069,1.115,0.124,1.571-0.162c0.437-0.273,0.644-0.792,0.808-1.28c0.636-1.889,1.034-3.856,1.183-5.844
		c0.08-1.062,6.925-0.584,7.793-0.262c2.405,0.894,3.785,2.869,4.547,5.271c1.216,3.832-0.126,9.676-4.357,10.872
		c-5.285,1.495-13.159-0.43-18.47-1.252C679.038,681.765,672.563,680.301,666.097,678.841z"/>
	<path fill="#092140" d="M707.442,441.119c0.247,3.295,0.686,6.531,1.332,9.73c-7.48,35.233-6.332,76.713-2.883,111.86
		c3.809,38.803,8.866,78.321,3.765,116.751c-3.181,0.632-6.825,0.828-10.378,0.394c-1.979-0.908-3.824-2.022-5.491-3.389
		c-0.065-37.113-1.162-74.771-10.089-110.126c-1.894-7.5-4.13-14.854-6.315-22.227c-9.875-33.324-18.767-67.645-21.154-102.994
		H707.442z"/>
	<path fill="#1F4A6F" d="M686.98,437.258c-8.849,36.954-7.765,81.687-4.134,119.289c3.809,39.44,8.865,79.609,3.765,118.671
		c-3.181,0.643-6.826,0.842-10.378,0.4c-1.979-0.924-3.825-2.056-5.491-3.445c-0.065-37.724-1.162-76-10.09-111.937
		c-1.894-7.624-4.13-15.098-6.315-22.592c-9.48-32.521-18.074-65.971-20.858-100.387H686.98z"/>
	<path fill="#BD0006" d="M701.17,322.592c-2.799,20.762-2.009,55.672,7.213,122.682c0.485,3.528-1.04,6.75-3.437,6.969
		c-19.894,1.824-40.815,3.384-59.806-4.01c-4.168-1.623-8.377-3.602-10.693-7.984c-2.646-5.008-1.762-16.332-1.25-22.437
		c4.031-48.05,10.978-78.547,28.586-94.241c2.168-1.933,4.617-3.723,7.845-4.648c4.213-1.208,9.266-0.813,13.993-0.394
		c3.387,0.3,6.769,0.6,10.147,0.899l4.776,0.382C700.095,319.933,701.352,321.246,701.17,322.592z"/>
	<path fill="#092140" d="M679.172,326.52c-17.414-3.25-34.678-7.527-51.105-14.155c-4.326-1.746-8.754-3.731-11.804-7.261
		c-2.468-2.856-3.829-6.51-4.693-10.184c-1.696-7.21-1.651-14.701-1.597-22.108c0.046-6.43,0.093-12.86,0.14-19.291
		c-2.363-0.363-4.727-0.727-7.09-1.09c-1.564,10.78-3.128,21.561-4.692,32.341c-1.728,11.907-3.217,25.008,3.292,35.127
		c6.701,10.419,19.75,14.396,31.713,17.609c8.916,2.396,17.832,4.79,26.749,7.186c6.552,1.76,13.661,3.496,19.958,0.969
		s10.328-11.339,5.739-16.336C685.78,329.327,684.531,327.52,679.172,326.52z"/>
	<path fill="#F2C777" d="M599.448,250.06c-2.042-1.44-0.253-3.066-0.003-2.814c-1.752-0.857-0.918-2.714,0.158-2.507
		c-1.102-0.406-1.433-3.229,0.699-3.553c-0.665-2.752,4.646-1.996,5.892-1.193c0.126-1.932-1.474-3.815-3.401-4.002
		c-0.478-0.046-0.996-0.011-1.395-0.279c-0.575-0.387-0.621-1.258-0.307-1.876c0.562-1.105,1.969-1.568,3.194-1.377
		c1.225,0.191,2.301,0.901,3.292,1.645c2.27,1.703,4.447,3.879,4.958,6.67c0.343,1.872-0.109,3.79-0.612,5.625
		c-0.419,1.534-0.887,3.054-1.379,4.565c-0.337,1.033-0.789,2.041-1.852,2.502c-1.914,0.832-3.581-0.324-5.243-1.139
		c-0.911-0.446-1.892-0.755-2.768-1.27C600.221,250.787,599.87,250.358,599.448,250.06z"/>
</g>
<g>
	<g>
		<path fill="#FED4C6" d="M865.249,938.121c-0.259-4.521-0.436-8.881-0.317-11.397c4.468,0.592,7.925,0.983,12.253,0.066
			c-0.051,2.933,0.06,7.207,0.195,10.994C873.759,938.682,869.179,938.731,865.249,938.121z"/>
		<path fill="#092140" d="M865.078,933.268c4.034,1.361,8.666,0.522,12.572,0.499c0.321,2.158,0.574,9.974,0.574,9.974
			s12.144,2.461,24.253,7.819s20.729,11.835-4.724,7.479c-25.453-4.354-32.351-6.054-32.135-10.722
			C865.837,943.603,864.94,933.684,865.078,933.268z"/>
	</g>
	<g>
		<path fill="#FED4C6" d="M832.619,926.717c-0.824,6.651-1.206,13.313-1.07,20.396c0,0,16.031,6.322,18.077,9.266
			c2.045,2.944,0.082,4.308-7.851,5.454s-18.153-2.108-18.153-2.108c-2.131-5.026-3.067-21.135-3.279-34.316
			C824.402,926.436,828.58,927.01,832.619,926.717z"/>
		<path fill="#1F4A6F" d="M831.672,938.242c-0.125,2.905-0.181,5.845-0.123,8.87c0,0,16.031,6.322,18.077,9.266
			c2.045,2.944,0.082,4.308-7.851,5.454s-18.153-2.108-18.153-2.108c-1.453-3.429-2.351-12.015-2.842-21.309
			C824.346,938.882,827.973,938.878,831.672,938.242z"/>
	</g>
	<path fill="#092140" d="M891.959,723.427c0,0-4.815,76.048-7.126,96.312c-2.312,20.264-6.44,107.515-6.44,107.515l-14.926,1.111
		c0,0-4.286-57.146-6.463-73.386c-2.178-16.241-8.586-111.959-9.191-128.296C847.208,710.346,878.58,669.205,891.959,723.427z"/>
	<path fill="#1F4A6F" d="M861.318,710.529c0,0-11.333,90.454-14.835,110.546c-3.501,20.093-12.768,106.948-12.768,106.948
		l-14.965,0.229c0,0-0.909-57.299-2.126-73.64c-1.216-16.34,0.301-113.455,0.66-129.8
		C817.644,708.47,842.44,699.055,861.318,710.529z"/>
	<path fill="#092140" d="M813.889,658.311c-0.348-40.791-5.112-57.929,3.617-66.033c4.017-2.486,9.225-4.811,11.815-6.23
		c2.677-1.468,11.806-0.181,14.58-0.139c4.058,0.061,8.726,0.495,16.01,2.74c2.953,0.717,9.595,4.721,12.129,6.652
		c11.329,8.636,5.985,24.907,6.301,38.552c0.52,22.443,11.838,70.401,11.838,70.401c-18.234,25.492-68.533,10.591-68.533,10.591
		S814.337,711.089,813.889,658.311z"/>
	<path fill="#BD0006" d="M829.202,585.931c0,0-24.41,17.216-26.063,27.467c-1.654,10.251,11.774,18.939,13.293,68.14
		c0.21,6.81,7.6-4.02,18.298-20.271l0.312-63.393c0,0-14.852-5.746-4.551-11.192c0.403-0.213,3.13-1.316,2.606-1.403
		C831.521,585.014,830.271,585.629,829.202,585.931z"/>
	<path fill="#BD0006" d="M845.398,585.537c7.122,0.055,15.505,2.674,21.312,5.614c5.575,2.759,7.068,4.666,7.068,4.666
		c4.193,10.151,8.608,51.477,16.712,94.73l9.345,33.331c0,0-3.114,31.151-20.248,20.56c-5.707-3.528-20.97-144.328-20.71-148.964
		C858.877,595.475,864.057,590.854,845.398,585.537z"/>
	<path fill="#BD0006" d="M830.692,604.423c0,0,10.417,142.682,9.437,144.896c-0.979,2.215-18.08,1.189-25.751-6.646
		c-7.672-7.835-12.663-12.392-11.111-23.468c1.552-11.075,15.255-91.504,14.128-103.92
		C816.269,602.869,822.048,585.408,830.692,604.423z"/>
	<path fill="#F2C777" d="M834.073,648.833c1.977-0.357,7.744,3.729,9.365,4.514c1.621,0.785,37.585,0.096,41.167-4.637
		c3.581-4.731-8.188-29.531-14.149-38.015c-1.713-2.438-3.285-4.835-4.766-7.219c6.148-16.521,20.252,5.302,22.902,10.482
		c13.57,26.521,21.753,42.339,17.099,49.159c-4.653,6.82-69.427-3.938-69.427-3.938s-1.611,2.272-3.771,1.48
		c-2.161-0.791-3.07-3.86-5.224-2.359c-2.152,1.502-3.767,3.01-3.767,3.01l-1.087-2.688
		C822.416,658.622,832.096,649.19,834.073,648.833z"/>
	<path fill="#BD0006" d="M882.309,641.772c-4.17-11.226-11.719-25.044-16.461-31.405c-2.245-3.013-4.308-5.979-6.249-8.931
		c7.967-20.753,26.465,6.248,29.945,12.671c4.929,9.095,9.288,17.137,12.929,24.249
		C895.904,640.235,889.114,641.449,882.309,641.772z"/>
	<path fill="#092140" d="M847.582,584.704c0,0,9.057,1.071,13.418,5.226c2.695,2.566,5.607,6.853,5.607,6.853l-7.73-1.308
		c0,0-3.993-8.037-10.732-8.635c-6.739-0.597-17.521,0.222-18.757,1.213c-1.237,0.99-1.933,1.287-2.088,2.562
		c-0.155,1.275,5.372,5.879,7.741,7.259l-7.283,3.148c0,0-3.564-6.777-3.486-8.67c0.079-1.894,3.159-6.567,7.371-7.195
		C835.854,584.527,847.582,584.704,847.582,584.704z"/>
	<path fill="#F2C777" d="M858.312,547.849c0,0-0.344,4.343,0.47,10.99s2.85,23.196-8.408,23.371
		c-11.258,0.176-16.545-1.057-18.938-3.981c-2.394-2.924-11.273-20.497-6.088-29.113
		C830.531,540.499,850.833,527.389,858.312,547.849z"/>
	<path fill="#F2C777" d="M831.212,589.417c0.974-1.124,1.627-2.522,2.23-3.765c0.755-1.555,0.218-3.355,0.029-4.975
		c-0.18-1.543-0.708-5.534,0.789-6.556c0.249-0.171,0.553-0.239,0.848-0.304c4.483-0.991,16.487-4.891,17.395,2.399
		c-0.016,3.349-4.373,8.188-1.396,11.201c1.175,1.189,3.598,1.753,3.543,3.337c-0.04,1.155-1.464,1.926-2.73,2.397
		C845.92,595.383,827.014,595.198,831.212,589.417z"/>
	<path fill="#092140" d="M817.814,548.811c-1.303-2.378-0.931-5.403,0.347-7.795s3.342-4.258,5.457-5.955
		c1.083-0.869,2.22-1.724,3.544-2.146c3.895-1.242,8.176,1.548,12.126,0.49c1.12-0.3,2.135-0.894,3.21-1.326
		c1.771-0.712,3.69-0.979,5.597-1.1c1.845-0.117,3.766-0.079,5.505,0.481c0.217,0.02,0.434,0.03,0.649,0.066
		c1.532,0.256,3.053,0.999,3.899,2.303c0.235,0.362,0.427,0.774,0.778,1.026s0.938,0.246,1.131-0.141
		c0.275-0.554-0.468-1.076-0.588-1.682c-0.114-0.574,0.403-1.127,0.978-1.239c0.574-0.111,1.161,0.11,1.673,0.393
		c3.236,1.79,4.453,6.455,2.504,9.598c-0.563,0.907-1.335,1.676-2.201,2.3c-1.668,1.2-3.61,1.755-5.581,1.799
		c-2.497,3.231-6.582,5.103-10.663,5.792c-2.458,0.416-5.348,0.76-7.074,2.309c-0.886,0.184-1.725,0.57-2.41,1.185
		c-0.023,0.02-0.039,0.043-0.062,0.063c0.503,1.59,0.112,3.714,0.157,5.385c0.031,1.169,0.049,2.399-0.503,3.431
		c-0.222,0.414-0.604,0.815-1.072,0.79c-0.348-0.021-0.639-0.273-0.848-0.552c-1.037-1.38-0.67-3.379-1.286-4.971
		c-0.01,0.018-0.025,0.032-0.035,0.051c-0.058-0.015-0.11-0.043-0.168-0.056c-1.121-0.245-2.382,0.104-3.094,1.036
		c-0.839,1.1-0.668,2.503-0.194,3.712c0.048,0.124,0.11,0.236,0.179,0.344c0.387,2.533,4.712,4.043,5.257,6.675
		c0.298,1.438-0.209,3.197-1.183,4.336c-0.202,2.53-1.852,4.92-4.193,5.922c-0.237,0.102-0.498,0.192-0.751,0.137
		c-0.587-0.13-0.734-0.951-0.475-1.493c0.773-1.623,1.66-2.254,1.504-3.907c-0.015-0.009-0.028-0.013-0.042-0.022
		c-1.323-0.859-1.966-3.407-2.919-4.684c-1.22-1.633-2.786-2.932-3.91-4.654c-2.015-3.087-3.093-6.782-3.017-10.47
		c0.03-1.448,0.223-2.952-0.295-4.305C819.307,550.79,818.404,549.887,817.814,548.811z"/>
	<path fill="#F2C777" d="M827.033,637.947c0.694,5.505,1.219,9.354,1.45,10.406c1.509,6.869,10.88,6.276,19.767,3.414
		c6.248-2.012,18.8-2.484,25.7-8.228c3.339-2.778,6.752-2.712,6.752-2.712s4.253-0.199,6.545,3.843
		c0.439,1.396-0.726,2.959-3.74,4.771c-2.712,1.631-4.845,0.569-7.654,0.654c0,0-39.132,27.834-49.712,26.979
		c-6.111-0.493-12.807-16.78-18.86-35.733C813.871,640.249,820.458,639.134,827.033,637.947z"/>
	<path fill="#BD0006" d="M799.979,614.904c1.308-7.056,12.934-21.162,20.396-9.775c0.153,0.234,0.342,0.409,0.547,0.547
		c5.105,20.021,11.529,43.778,13.589,47.738c-4.772,4.333-12.58,8.574-18.963,10.331c-3.979-6.299-8.05-14.098-11.94-22.113
		C801.354,632.949,798.408,623.386,799.979,614.904z"/>
</g>
<g>
	<g>
		<g>
			<g>
				<path fill="#092140" d="M954.258,952.368c11.174-3.524,18.85-4.274,19.232-4.304c3.715,2.799,9.389,2.396,13.124,0
					c1.094,2.188,1.261,5.775,0.781,7.344c-1.371,4.482-6.813,4.359-29.904,5.06C934.401,961.168,942.855,955.964,954.258,952.368z"
					/>
			</g>
		</g>
		<g>
			<g>
				<path fill="#092140" d="M1003.965,952.229c11.174-3.524,18.85-4.274,19.232-4.304c3.715,2.799,9.389,2.396,13.124,0
					c1.094,2.188,1.261,5.775,0.781,7.344c-1.371,4.481-6.813,4.359-29.904,5.06C984.108,961.029,992.563,955.825,1003.965,952.229z
					"/>
			</g>
		</g>
		<path fill="#FED4C6" d="M1036.27,941.78l0.241,6.561c0,0-7.585,3.907-18.053,5.157c0,0,3.489-4.036-1.198-4.661
			c0,0,12.916-3.463,13.541-7.525C1031.426,937.25,1036.27,941.78,1036.27,941.78z"/>
		<path fill="#FED4C6" d="M986.849,942.075l0.04,6.618c0,0-7.383,3.851-17.852,5.101c0,0,3.567-4.263-1.119-4.888
			c0,0,11.642-0.979,11.919-7.779C980.005,937.021,986.849,942.075,986.849,942.075z"/>
		<path fill="#34B2E4" d="M1046.633,808.977c0,0-8.683,130.111-10.35,135.111c-2.221,2.498-7.565-0.12-7.565-0.12l-3.333-152.907
			l13.332-4.583L1046.633,808.977z"/>
		<path fill="#34B2E4" d="M979.004,943.209c0,0,8.47-104.059,5.106-151.971l4.464-19.139l19.531,13.244
			c0,0-2.637,87.955-21.051,158.559C987.055,943.902,981.78,946.077,979.004,943.209z"/>
	</g>
	<path fill="#FED4C6" d="M972.228,732.876c-0.034-0.047,1.014-0.109,1.888-2.404c0.782-2.053,4.723,1.563,6.586,2.342
		c-2.118,3.631-1.347,6.433-1.563,7.442c-0.656,3.048-2.971,8.67-5.599,12.516c-0.713,1.042-1.545,2.093-2.997,2.399
		c-1.451,0.308-3.694-0.446-4.578-1.892c-0.554-0.907-0.44-1.805-0.31-2.624l0.972-6.054c-0.552,0.014-2.115,1.224-3.931-0.407
		C967,742.007,969.201,734.679,972.228,732.876z"/>
	<path fill="#FED4C6" d="M945.526,659.188c0.038-0.044,0.341,0.961,2.775,1.282c2.178,0.286-0.431,4.955-0.758,6.948
		c-4.022-1.223-6.57,0.175-7.603,0.196c-3.117,0.065-9.121-0.889-13.471-2.558c-1.178-0.453-2.392-1.021-3.026-2.362
		c-0.635-1.341-0.418-3.697,0.784-4.891c0.755-0.749,1.654-0.846,2.481-0.907l6.114-0.452c-0.14-0.534-1.679-1.775-0.511-3.918
		C935.436,656.209,943.074,656.659,945.526,659.188z"/>
	<path fill="#34B2E4" d="M1009.25,669.446c0.123-0.403,1.067-1.813,1.18-5.177c0.035,0.008,0.068,0.013,0.104,0.021
		c0.373-5.4,2.257-19.372,4.444-32.579l0,0c0.004-0.025,0.009-0.049,0.013-0.074c0.196-1.185,0.395-2.359,0.595-3.524
		c2.104-11.398,5.313-18.783,5.013-24.956c-0.572-11.83-6.791-12.731-10.781-11.411c-1.357,0.116-5.748,3.991-6.249,5.046
		c-5.542,13.473-4.636,17.039-6.786,32.334c0.001,0,0.001,0.001,0.001,0.001c-1.825,13.551-3.55,28.027-3.574,33.886
		c-2.341,7.045-3.078,15.844-4.876,22.787c-2.056,7.943-13.096,43.021-14.676,45.675c2.609,1.797,3.015,2.353,6.205,3.205
		c1.669-2.027,8.631-19.574,9.883-21.774C998.693,697.181,1004.595,684.763,1009.25,669.446z"/>
	<path fill="#1F4A6F" d="M1047.653,812.413c-0.129,1.067-0.296,2.21-1.024,3c-0.973,1.055-2.586,1.126-4.021,1.123
		c-20.966-0.042-41.932-0.085-62.897-0.127c4.131-39.667,8.262-79.335,12.393-119.002c0.474-4.551,0.962-9.163,2.605-13.434
		c5.063-13.154,21.615-20.539,34.918-15.454c10.845,4.145,13.373,15.851,15.398,26.141
		C1052.557,732.938,1052.317,773.816,1047.653,812.413z"/>
	<path fill="#092140" d="M996.012,671.068c-1.041-11.884,0.043-19.551,0.328-28.408c-2.407-4.045-8.897-15.803-6.604-21.442
		c1.461-3.591,4.044-7.751,6.183-10.915c5.817-14.316,3.913-16.226,13.178-19.328c10.253-3.433,16.81-3.025,25.143,3.282
		c9.939,7.524,11.822,23.56,7.762,30.854c-3.425,6.152-4.353,13.339-5.218,20.326c-0.573,4.626-1.146,9.275-0.967,13.932
		c0.267,6.886,8.271,22.325,9.734,38.034c0.049,0.531-9.541,5.539-16.221-3.627c-2.486,10.208-31.315,19.374-38.083,7.291
		C990.084,698.993,996.219,673.436,996.012,671.068z"/>
	<path fill="#34B2E4" d="M1036.113,601.78c-11.673-1.228-24.655,28.678-27.574,34.286c-5.948,11.428-13.463,22.947-17.997,26.832
		c-10.306,8.83-31.924,1.165-44.492-4.345c-1.087,2.149-1.144,4.553-1.337,8.479c1.739,1.287,4.779,2.679,6.563,3.906
		c4.343,2.989,8.931,4.808,13.661,7.146c4.97,2.456,10.235,4.467,15.721,5.386c5.287,0.887,10.793,0.672,15.819-1.308
		c2.38-0.937,4.603-2.243,6.605-3.832c7.883-6.252,30.359-44.726,32.719-49.029C1044.153,614.066,1043.74,602.583,1036.113,601.78z"
		/>
	<g>
		<path fill="#FED4C6" d="M1009.867,583.415c-1.235-0.022-2.499-0.119-3.63-0.617c-1.421-0.628-2.502-1.834-3.409-3.097
			c-3.206-4.462-4.743-9.972-5.068-15.457s0.502-10.979,1.673-16.347c0.191-0.876,0.397-1.766,0.846-2.542
			c0.608-1.052,1.616-1.816,2.684-2.397c4.564-2.483,10.176-1.922,15.195-0.578c2.513,0.672,5.031,1.551,7.071,3.163
			c1.675,1.323,2.947,3.078,4.147,4.842c1.237,1.819,2.438,3.707,3.059,5.818c0.541,1.837,0.622,3.775,0.616,5.69
			c-0.011,3.541-0.31,7.095-1.13,10.54c-0.381,1.599-0.892,3.207-1.89,4.513c-1.818,2.378-5.941,3.816-8.679,4.721
			C1017.658,582.888,1013.757,583.486,1009.867,583.415z"/>
		<path fill="#FED4C6" d="M1024.401,592.072c0.202,1.809-11.764,1.595-11.845,1.082c-1.233-7.81-1.754-13.851-4.171-20.755
			c3.199-0.779,11.188-2.782,16.962-1.335C1026.236,571.288,1024.135,589.679,1024.401,592.072z"/>
		<path fill="#FED4C6" d="M1028.037,591.896c-0.159,1.12-1.431,1.654-2.506,2.006c-5.049,1.652-13.857,3.889-18.396,6.65
			c-1.011-1.545-0.445-6.927,0.067-8.04c0.347-0.754,6.156-2.144,8.585-2.688C1019.25,589.047,1028.191,590.82,1028.037,591.896z"/>
		<path fill="#BD0006" d="M999.894,539.523c5.651-3.835,12.174-6.612,18.993-6.991c6.818-0.378,13.938,1.85,18.666,6.779
			c4.483,4.675,6.409,11.892,4.229,17.947c0.848-0.132,1.718-0.169,2.565-0.139c2.248,0.08,4.515,0.56,6.475,1.665
			c4.914,2.771,5.919,10.245,3.187,15.195c0.012,0.048,0.021,0.096,0.033,0.143c2.153,0.853,3.838,2.764,4.359,6.066
			c0.553,3.495-1.199,7.368-4.414,8.848c-2.095,0.963-4.58,0.828-6.692-0.115c-0.799,3.418-4.078,5.873-7.507,6.762
			c-5.555,1.438-11.86-0.626-15.489-5.072c-3.629-4.445-4.388-11.037-1.865-16.19c1.125-2.3,2.815-4.277,4.05-6.521
			c2.912-5.299,1.18-8.26-2.675-9.819c-0.024,0.017-0.053,0.024-0.076,0.043c-0.557,0.446-3.54,5.894-3.187,6.217
			c-0.798-0.73-0.847-1.939-1.063-2.999c-0.397-1.954-1.476-3.589-2.81-5.084c-3.477-1.014-6.08-2.511-9.819-5.366
			C1003.142,548.055,999.207,544.145,999.894,539.523z"/>
	</g>
</g>
<g>
	<path fill="#092140" d="M226.792,601.942c0,0-12.25,5.648-25.5,2.947s-9.75-34.134-3-41.256c6.75-7.121,21.517-9.954,24.75-10.478
		C234.042,551.377,219.042,594.33,226.792,601.942z"/>
	<path fill="#FED4C6" d="M299.953,677.034c13.756-0.116,28.569-0.587,28.569-0.587s-4.854,3.869-7.345,4.285
		c-3.672,0.611-13.465,0.306-13.465,0.306l-8.025,0.454C299.795,680.008,299.888,678.521,299.953,677.034z"/>
	<path fill="#092140" d="M212.539,624.729c3.367-3.672,11.323-6.427,18.974,8.568c7.651,14.995,17.443,37.642,21.728,39.478
		c4.285,1.836,26.012,4.284,41.007,4.284c2.665,0,5.465-0.02,8.268-0.052c0.002,1.441,0.011,2.883,0.026,4.323l-11.047,0.625
		c0,0-26.625,4.896-33.969,5.509c-7.345,0.611-9.487,2.448-23.258-16.22C220.496,652.578,209.173,628.401,212.539,624.729z"/>
	<path fill="#FED4C6" d="M180.818,816.713c0,0-4.825,127.938-3.73,132.981c1.096,5.044,6.94,0.341,6.94,0.341l19.367-148.525
		l-12.498-5.868L180.818,816.713z"/>
	<path fill="#FED4C6" d="M214.545,792.259c0,0-7.636,96.002,8.083,157.911l6.101,0.114c0,0,1.217-103.732,8.703-150.17l-2.674-19.06
		L214.545,792.259z"/>
	<g>
		<g>
			<path fill="#092140" d="M252.963,959.813c-10.589-4.418-18.01-5.823-18.381-5.886c-3.869,2.403-9.368,1.514-12.801-1.151
				c-1.259,2.037-1.736,5.522-1.406,7.094c0.944,4.492,6.264,4.851,28.724,7.561C271.56,970.14,263.771,964.321,252.963,959.813z"/>
		</g>
	</g>
	<g>
		<g>
			<path fill="#092140" d="M207.257,960.689c-10.507-4.609-17.901-6.149-18.271-6.218c-3.912,2.333-9.394,1.343-12.778-1.384
				c-1.295,2.014-1.836,5.49-1.535,7.067c0.862,4.509,6.174,4.964,28.583,8.079C225.663,971.351,217.981,965.393,207.257,960.689z"
				/>
		</g>
	</g>
	<path fill="#FED4C6" d="M176.906,947.109l-0.927,6.362c0,0,6.973,4.604,17.033,6.925c0,0-2.972-4.298,1.658-4.412
		c0,0-12.21-4.733-12.391-8.755C182.1,943.209,176.906,947.109,176.906,947.109z"/>
	<path fill="#FED4C6" d="M222.078,946.914l-0.619,6.451c0,0,6.863,4.403,16.964,6.541c0,0-3.106-4.47,1.521-4.668
		c0,0-12.238-4.285-12.491-8.302C227.2,942.919,222.078,946.914,222.078,946.914z"/>
	<path fill="#092140" d="M177.765,820.113c0.126,1.045,0.29,2.164,1.003,2.938c0.953,1.032,2.532,1.103,3.938,1.1
		c20.533-0.042,34.945-0.083,55.477-0.125c-0.243-45.061-1.97-77.695-6.015-116.543c-0.464-4.457-0.942-8.975-2.552-13.156
		c-4.959-12.883-21.168-20.114-34.196-15.135c-10.621,4.06-17.926,14.413-19.909,24.491
		C168.135,741.17,173.197,782.313,177.765,820.113z"/>
	<path fill="#BD0006" d="M183.302,636.681c3.354,6.025,4.263,13.063,5.11,19.906c0.561,4.529,1.123,9.083,0.946,13.644
		c-0.261,6.743-13.945,21.74-15.377,37.125c-0.049,0.521,15.188,5.548,21.73-3.429c2.435,9.997,30.668,18.974,37.296,7.141
		c1.137-2.031-4.871-27.061-4.667-29.379c1.582-18.063-1.86-26.158,0.417-44.148c0.517-4.082,2.603-8.51,0.966-12.286
		c-7.299-16.847-4.498-18.757-14.197-22.004c-10.041-3.362-28.272-5.24-31.14-1.314
		C176.813,612.303,180.946,632.448,183.302,636.681z"/>
	<g>
		<g>
			<path fill="#FED4C6" d="M298.505,661.339c-0.435-0.513-1.01-0.883-1.577-1.245c-1.909-1.219-4.521-4.145-6.759-4.272
				c-2.357-0.136-4.82,1.453-7.085,1.932c-2.872,0.606-6.354,2.188-8.652,3.985c-0.665,0.521-0.567,1.347-0.663,2.128
				c-0.125,1.022-0.25,2.045-0.375,3.067c-0.009,0.073-0.016,0.154,0.027,0.214c0.043,0.061,0.123,0.079,0.196,0.094
				c1.782,0.354,3.321,0.143,5.137,0.167c0.702,0.01,1.623,0.104,2.321,0.17c0.659,0.062,1.341,0.649,1.989,0.785
				c2.044,0.429,4.128,0.666,6.216,0.707c1.132,0.023,2.298-0.019,3.336-0.471c0.396-0.172,4.297-2.941,4.432-3.027
				c0.403-0.255,1.954-2.081,2.012-2.27C299.276,662.61,298.954,661.866,298.505,661.339z"/>
			<path fill="#FED4C6" d="M297.077,656.667c0,0,2.704,0.763,3.222,0.952c0.519,0.188,4.04,10.829,4.04,10.829
				s-1.586,2.51-6.531-7.755l-6.066-0.058l-2.1-4.812L297.077,656.667z"/>
		</g>
		<path fill="#34B2E4" d="M189.067,604.039c11.432-1.202,24.145,28.086,27.004,33.578c5.826,11.191,13.185,22.473,17.626,26.278
			c10.093,8.646,31.264,1.141,43.573-4.256c1.064,2.105,1.12,4.459,1.309,8.304c-1.703,1.26-4.681,2.623-6.426,3.825
			c-4.253,2.928-8.747,4.708-13.379,6.997c-4.868,2.406-10.024,4.375-15.397,5.275c-5.177,0.868-10.569,0.658-15.492-1.28
			c-2.331-0.918-4.508-2.197-6.469-3.753c-7.719-6.123-29.732-43.802-32.043-48.018
			C181.193,616.071,181.598,604.825,189.067,604.039z"/>
	</g>
	<g>
		<path fill="#FED4C6" d="M214.771,595.847c1.21-0.022,2.447-0.117,3.555-0.605c1.392-0.614,2.451-1.796,3.339-3.032
			c3.14-4.37,4.646-9.766,4.964-15.138s-0.491-10.751-1.639-16.009c-0.188-0.858-0.389-1.729-0.829-2.489
			c-0.595-1.03-1.583-1.779-2.627-2.349c-4.47-2.432-9.966-1.882-14.881-0.566c-2.46,0.658-4.927,1.52-6.926,3.099
			c-1.639,1.296-2.886,3.014-4.062,4.741c-1.212,1.782-2.387,3.631-2.995,5.698c-0.529,1.799-0.609,3.698-0.604,5.573
			c0.011,3.468,0.303,6.948,1.106,10.322c0.373,1.565,0.873,3.141,1.851,4.419c1.781,2.329,5.819,3.737,8.5,4.623
			C207.14,595.329,210.961,595.916,214.771,595.847z"/>
		<path fill="#FED4C6" d="M200.537,604.325c-0.198,1.771,11.521,1.561,11.6,1.059c1.208-7.647,1.718-13.564,4.085-20.325
			c-3.133-0.764-10.958-2.726-16.612-1.308C198.739,583.969,200.798,601.98,200.537,604.325z"/>
		<path fill="#FED4C6" d="M196.976,604.152c0.157,1.097,1.402,1.619,2.455,1.964c4.944,1.619,13.571,3.809,18.015,6.513
			c0.99-1.512,0.436-6.783-0.065-7.873c-0.34-0.738-6.03-2.1-8.408-2.633C205.581,601.361,196.825,603.099,196.976,604.152z"/>
	</g>
	<path fill="#BD0006" d="M224.963,617.323c0,0,6.785,8.813,9.522,15.545s-7.311,22.378-7.311,22.378L216.72,638.07L224.963,617.323z
		"/>
	<g>
		<polygon fill="#34B2E4" points="274.551,677.05 335.663,677.05 361.266,626.222 357.985,624.569 333.401,673.378 274.551,673.378 
					"/>
		<polygon fill="#509CBA" points="274.551,677.05 335.663,677.05 333.401,673.378 274.551,673.378 		"/>
	</g>
	<path fill="#092140" d="M225.357,556.043c0,0-24.554,27.333-20.96,54.333c0,0-11.379-1.333-16.17-5c0,0,0.599-5.333,0.898-6.666
		c0,0-3.069,5.166-3.294,7.541c0,0-8.421-2.375-10.218-4.875c-0.969-1.349-0.435-4.614-0.333-6.146
		c0.271-4.064,0.921-8.111,1.773-12.072c3.044-14.136,10.405-29.557,23.809-33.883c7.042-2.273,13.834-0.653,20.591,1.917
		C222.845,551.722,227.571,553.624,225.357,556.043z"/>
</g>
<g>
	<path fill="#F2C777" d="M375.099,673.11c0.038-0.045,0.341,0.961,2.775,1.281c2.178,0.287-0.431,4.956-0.758,6.948
		c-4.022-1.223-6.57,0.176-7.603,0.197c-3.117,0.065-9.121-0.889-13.47-2.559c-1.179-0.452-2.392-1.021-3.026-2.361
		c-0.635-1.342-0.418-3.698,0.784-4.892c0.754-0.749,1.654-0.846,2.481-0.907l6.114-0.452c-0.141-0.533-1.679-1.775-0.511-3.918
		C365.008,670.131,372.646,670.582,375.099,673.11z"/>
	<path fill="#092140" d="M453.662,605.731c-8.409-0.174-19.165,13.14-20.647,25.874c-0.129,1.113-1.125,5.936-2.36,10.677
		c-3.283,12.182-9.286,24.343-13.036,28.829c-8.523,10.196-29.944,5.236-42.201,1.406c-0.701,2.252-0.65,5.159-0.201,8.981
		c1.888,0.962,3.788,1.9,5.708,2.797c4.679,2.184,9.478,4.137,14.424,5.628c5.198,1.567,10.609,2.656,16.056,2.656
		c5.249-0.001,10.532-1.1,15.066-3.825c2.146-1.291,4.082-2.913,5.758-4.771c6.896-7.643,13.208-20.908,17.36-33.485
		c3.527-7.207,7.324-14.104,8.906-18.643C464.094,615.79,461.17,605.887,453.662,605.731z"/>
	<path fill="#092140" d="M503.908,960.779c-1.615-1.311-4.265-1.731-5.771-3.214c-1.357-1.335-3.332-2.218-2.679-7.751
		c-3.675,0.437-6.853-0.127-10.212-1.56c0.009,0.995,0.013,1.987,0.005,2.943c-0.478,2.223-0.699,4.563-0.954,6.78
		c-0.295,2.57-0.73,5.784,1.216,7.854c1.445,1.539,3.774,1.687,5.885,1.673c2.354-0.016,8.74,0.333,9.493,0.26
		C503.18,967.543,510.79,966.363,503.908,960.779z"/>
	<path fill="#092140" d="M436.86,956.218c-0.917,0.247-1.819,0.434-2.642,0.563c-3.383,0.532-7.148-0.074-10-2
		c-0.064,0.457-0.102,0.729-0.102,0.729s-12.427,1.19-25.125,5.287c-12.697,4.097-22.014,9.682,3.949,7.991
		c25.962-1.689,33.053-2.667,33.327-7.367C436.35,960.011,436.581,958.148,436.86,956.218z"/>
	<path fill="#092140" d="M433.93,728.748c0,0-3.388,80.447-3.201,100.995s-6.18,123.341-6.18,123.341l6.396,2.98l6.298-1.947
		c0,0,12.094-74.11,15.982-90.155c3.888-16.045,17.989-102.486,20.312-118.793S453.033,675.82,433.93,728.748z"/>
	<path fill="#1F4A6F" d="M466.164,726.277c0,0,6.354,76.514,9.082,96.88c2.729,20.367,10.087,126.237,10.087,126.237l4.896,3.562
		l5.104-1.456c0,0,4.765-84.293,6.637-100.696s7.361-103.748,4.792-130.774C505.203,703.632,478.57,671.393,466.164,726.277z"/>
	<path fill="#F2C777" d="M466.809,597.046c2.095,0.391,4.235,0.443,6.237,0.765c1.991,0.32,3.984,0.646,5.963,0.497
		c0.001-2.773,0.215-5.808,0.128-8.36c-4.039,2.347-8.271,1.059-12.377-0.548C466.842,591.894,466.923,594.537,466.809,597.046z"/>
	<path fill="#34B2E4" d="M439.298,697.431c5.383-15.387,3.331-35.508,3.331-47.748c0-30.722,1.29-40.55,13.959-46.637
		c2.343-1.126,4.928-2.1,7.695-2.788c0.254-0.518,0.502-1.038,0.708-1.575c0.546-1.423,0.922-2.901,1.103-4.374
		c0.092-0.747,2.012,0.122,2.569,0.246c1.039,0.229,2.089,0.402,3.146,0.523c2.745,0.315,5.363-0.039,7.974-0.537
		c0.037,1.828,0.18,3.607,0.857,5.531c0.01,0.029,0.023,0.057,0.034,0.086c4.979,1.224,10.161,3.703,15.356,7.952
		c12.726,13.762,7.495,40.055,9.153,72.85c1.609,31.821,2.747,54.755,2.747,54.755s-52.54,7.573-76.034-5.712
		C431.896,730.003,434.335,711.615,439.298,697.431z"/>
	<path fill="#F2C777" d="M456.926,552.338c0,0,0.168,8.34-0.981,14.989c-1.149,6.648-4.022,23.2,7.298,23.938
		c11.321,0.737,16.701-0.24,19.256-3.064c2.555-2.823,12.365-20.065,7.576-28.994C485.286,550.277,464.982,538.109,456.926,552.338z
		"/>
	<path fill="#092140" d="M487.361,551.052c-1.043-0.326-3.666-5.186-4.861-6.212c-2.138-1.837-4.639-3.195-7.337-4.001
		c-3.818-1.14-9.972-2.115-13.918-0.894c-3.639,1.127-6.321,4.451-6.797,8.312c-0.861,6.984,5.585,7.996,11.042,7.961
		c3.287-0.021,6.64,0.146,9.718,1.298s5.879,3.433,6.95,6.541c0.986,2.862,0.412,5.92-0.157,8.946
		c-0.164,0.462-0.333,0.923-0.506,1.382c0.813,0.322,1.637,0.579,2.538,0.601c0.042-0.307,0.079-0.615,0.113-0.923
		c0.042-0.375,0.084-0.75,0.126-1.125c0.077-0.286,0.14-0.572,0.169-0.848c0.174-1.656,0.384-3.737,1.959-4.279
		c1.676,2.813,0.69,6.42-0.584,9.437c-0.138,0.327-0.28,0.656-0.421,0.987c-0.264,0.098-0.533,0.247-0.807,0.522
		c-0.471,0.473-0.782,1.076-1.076,1.675c-1.323,2.701-2.427,5.525-3.037,8.471c-0.064,0.313-0.11,0.678,0.104,0.915
		c0.36,0.397,1.008,0.05,1.413-0.303c1.374-1.197,2.768-2.437,3.875-3.867c0.097-0.107,0.19-0.217,0.277-0.325
		c4.949-6.178,7.726-14.061,7.742-21.977C493.896,558.37,492.111,552.535,487.361,551.052z"/>
	<path fill="#1F4A6F" d="M424.556,952.455c-0.204,1.379-0.364,2.514-0.417,2.898c2.688,4.328,8.213,3.108,12.683,1.13
		c0.07-0.488,0.369-1.909,0.539-3.02C432.955,954.371,428.263,955.289,424.556,952.455z"/>
	<path fill="#1F4A6F" d="M485.244,948.53c-0.003,0.257,0.078,1.673,0.073,1.931c0,0,4.554,3.457,8.424,2.422
		c0.547-0.146,1.082-0.342,1.619-0.528c0.078-0.741,0.029-1.76,0.099-2.54C492,950.858,488.38,950.012,485.244,948.53z"/>
	<path fill="#F2C777" d="M519.217,756.656c-0.503,1.228-1.294,2.299-2.519,3.066c-0.589,0.37-1.343,0.508-1.886,0.917
		c-0.543,0.409-0.672,1.142-0.861,1.753c-0.217,0.701-0.379,1.419-0.487,2.145c-0.207,1.4-0.49,2.907-0.277,4.307
		c0.152,0.997,0.738,2.351,1.644,2.793c1.487,0.726,2.722-0.908,2.765-0.806c0.168,0.405,1.122,0.579,1.362,0.548
		c1.156-0.152,1.48-0.488,1.747-1.152c0.745,0.436,2.216,0.296,2.874-1.116c0.647,0.333,1.348,0.226,1.958-0.521
		c0.461-0.563,0.69-1.274,0.872-1.979c0.39-1.518,0.753-3.68,0.768-5.246c0.02-2.148-1.133-2.511-0.887-4.547
		C523.272,756.755,522.207,756.067,519.217,756.656z"/>
	<path fill="#1F4A6F" d="M524.61,666.169c-1.769-5.672-7.838-21.554-11.11-35.756c-2.854-8.028-8.45-23.781-19.166-23.459
		c-4.085,0.123-7.965,2.675-9.851,6.301c-3.687,7.087,3.634,20.915,6.536,27.669c7.356,17.126,20.026,39.154,20.895,43.63
		c1.236,6.37,9.406,62.389,6.584,73.463c2.706-1.373,5.427-1.491,7.771-0.744c5.992-14.344,3.164-54.461,2.833-63.07
		C528.497,678.447,526.984,673.78,524.61,666.169z"/>
</g>
</svg>
