<?xml version="1.0" encoding="utf-8"?>
<!-- Generator: Adobe Illustrator 16.0.0, SVG Export Plug-In . SVG Version: 6.00 Build 0)  -->
<!DOCTYPE svg PUBLIC "-//W3C//DTD SVG 1.1//EN" "http://www.w3.org/Graphics/SVG/1.1/DTD/svg11.dtd">
<svg version="1.1" id="Layer_1" xmlns:sketch="http://www.bohemiancoding.com/sketch/ns"
	 xmlns="http://www.w3.org/2000/svg" xmlns:xlink="http://www.w3.org/1999/xlink" x="0px" y="0px" width="100px" height="100px"
	 viewBox="0 0 100 100" enable-background="new 0 0 100 100" xml:space="preserve">
<g transform="translate(50 50) scale(0.69 0.69) rotate(0) translate(-50 -50)">
	<title>299 - Users (Solid)</title>
	<desc>Created with Sketch.</desc>
	<g sketch:type="MSPage">
		<g sketch:type="MSLayerGroup">
			<path sketch:type="MSShapeGroup" fill="#FFFFFF" d="M69.806,72.75l-15.922-7.963c-1.5-0.749-2.434-2.259-2.434-3.939v-5.634
				c0.382-0.467,0.784-0.998,1.197-1.585c2.066-2.918,3.721-6.165,4.925-9.667c2.351-1.078,3.878-3.402,3.878-6.028v-6.666
				c0-1.605-0.6-3.16-1.667-4.375v-8.865c0.093-0.917,0.46-6.375-3.487-10.877c-3.422-3.905-8.979-5.883-16.512-5.883
				c-7.535,0-13.09,1.979-16.514,5.883c-3.947,4.502-3.579,9.96-3.486,10.877v8.865c-1.067,1.214-1.667,2.77-1.667,4.375v6.666
				c0,2.028,0.921,3.92,2.495,5.181c1.527,6.046,4.723,10.602,5.838,12.064v5.514c0,1.612-0.88,3.094-2.296,3.867L9.284,72.672
				c-4.833,2.637-7.835,7.692-7.835,13.201v7.062h76.667v-6.738C78.117,80.463,74.931,75.313,69.806,72.75"/>
			<path sketch:type="MSShapeGroup" fill="#FFFFFF" d="M93.894,74.645l-16.205-7.016c-0.382-0.192-0.808-0.661-1.173-1.285
				l10.875-0.009c0,0,0.63,0.061,1.604,0.061c1.789,0,4.396-0.202,6.666-1.179c1.362-0.585,2.375-1.744,2.782-3.177
				c0.41-1.448,0.151-2.979-0.71-4.208c-3.108-4.423-10.363-15.979-10.589-27.703c-0.004-0.202-0.662-20.14-20.349-20.298
				c-1.979,0.014-3.85,0.258-5.619,0.688c1.319,3.49,1.196,6.612,1.107,7.626v7.889c1.081,1.537,1.667,3.361,1.667,5.235v6.666
				c0,3.179-1.673,6.121-4.345,7.77c-1.247,3.373-2.899,6.519-4.917,9.368c-0.249,0.357-0.497,0.691-0.739,1.009v4.767
				c0,0.737,0.393,1.374,1.053,1.703l15.922,7.963c5.977,2.989,9.692,8.999,9.692,15.683v6.738h20.833v-6.162
				C101.449,81.621,98.586,76.99,93.894,74.645"/>
		</g>
	</g>
</g>
</svg>
