<?xml version="1.0" encoding="utf-8"?>
<!-- Generator: Adobe Illustrator 16.0.0, SVG Export Plug-In . SVG Version: 6.00 Build 0)  -->
<!DOCTYPE svg PUBLIC "-//W3C//DTD SVG 1.1//EN" "http://www.w3.org/Graphics/SVG/1.1/DTD/svg11.dtd">
<svg version="1.1" id="Layer_1" xmlns="http://www.w3.org/2000/svg" xmlns:xlink="http://www.w3.org/1999/xlink" x="0px" y="0px"
	 width="100px" height="64.333px" viewBox="0 17.167 100 64.333" enable-background="new 0 17.167 100 64.333" xml:space="preserve"
	>
<path fill="#4D4D4D" d="M89.534,19.476h-79.07c-5.319,0-9.63,4.312-9.63,9.632v40.451c0,5.318,4.312,9.633,9.63,9.633h79.07
	c5.32,0,9.632-4.314,9.632-9.633V29.108C99.166,23.787,94.854,19.476,89.534,19.476z M47.208,36.352h14.418
	c1.492,0,2.703,1.208,2.703,2.701c0,1.494-1.211,2.703-2.703,2.703H47.208c-1.493,0-2.703-1.209-2.703-2.703
	C44.505,37.56,45.716,36.352,47.208,36.352z M31.701,63.318H7.733v-2.575c0-1.289,0.8-2.475,2.088-3.091l5.091-2.438
	c0.852-0.406,1.38-1.191,1.38-2.044v-2.014l-0.132-0.141c-0.013-0.013-1.413-1.5-1.945-3.541l-0.052-0.198l-0.195-0.11
	c-0.332-0.188-0.529-0.503-0.529-0.842v-2.004c0-0.282,0.136-0.543,0.383-0.739l0.187-0.149v-3.122l-0.005-0.066
	c-0.002-0.013-0.196-1.403,0.915-2.517c0.947-0.949,2.56-1.429,4.797-1.429c2.228,0,3.838,0.477,4.785,1.418
	c0.471,0.467,0.708,0.99,0.826,1.437c0.009,0.036,0.017,0.071,0.025,0.104c0.008,0.036,0.017,0.072,0.023,0.105
	c0.007,0.04,0.013,0.078,0.02,0.114c0.005,0.026,0.01,0.053,0.013,0.079c0.008,0.062,0.015,0.122,0.018,0.178
	c0.001,0.005,0.001,0.009,0.001,0.012c0.004,0.054,0.007,0.106,0.008,0.152c0,0.009,0,0.017,0.001,0.026
	c0.001,0.041,0.001,0.082,0,0.116v0.015c-0.002,0.118-0.013,0.188-0.013,0.189l-0.002,3.188l0.187,0.15
	c0.247,0.196,0.382,0.457,0.382,0.739v2.006c0,0.438-0.326,0.82-0.812,0.952l-0.284,0.076l-0.092,0.249
	c-0.382,1.043-0.925,2.006-1.616,2.864c-0.17,0.211-0.335,0.398-0.478,0.541l-0.142,0.144v2.068c0,0.126,0.014,0.25,0.036,0.373
	c0.003,0.024,0.012,0.051,0.018,0.076c0.022,0.102,0.053,0.199,0.089,0.296c0.008,0.021,0.018,0.045,0.027,0.067
	c0.044,0.104,0.097,0.207,0.157,0.303c0.006,0.01,0.012,0.022,0.02,0.032c0.083,0.13,0.178,0.252,0.287,0.363l0.13,0.143h0.023
	c0.195,0.168,0.419,0.317,0.676,0.427l5.452,2.396c1.368,0.601,2.216,1.808,2.217,3.146V63.318z M39.687,63.319h-6.848v-2.478
	c0-1.724-1.091-3.273-2.845-4.044l-3.913-1.719c0.097-0.193,0.108-0.416,0.024-0.629c-0.139-0.355-0.506-0.583-0.929-0.583H23.91
	c-0.026-0.041-0.044-0.084-0.064-0.127c-0.028-0.057-0.061-0.115-0.081-0.176c-0.036-0.112-0.056-0.228-0.056-0.348v-1.695
	c0.13-0.139,0.269-0.3,0.409-0.476c0.707-0.877,1.274-1.855,1.686-2.908c0.805-0.323,1.328-1.024,1.328-1.814v-2.004
	c0-0.483-0.204-0.952-0.571-1.316v-2.667c0.015-0.125,0.048-0.536-0.048-1.073c0.735-0.253,1.558-0.385,2.449-0.391
	c5.616,0.041,5.82,4.92,5.826,5.125c0.083,3.802,2.707,7.484,3.832,8.891c0.096,0.119,0.126,0.271,0.079,0.413
	c-0.024,0.082-0.101,0.233-0.304,0.309c-0.96,0.363-2.259,0.259-2.326,0.257h-3.927c-0.368,0-0.701,0.164-0.895,0.438
	c-0.192,0.273-0.211,0.606-0.049,0.895c0.179,0.315,0.495,0.739,1.013,0.964l5.563,2.12c1.18,0.523,1.914,1.568,1.913,2.731V63.319z
	 M88.781,63.652H47.208c-1.493,0-2.703-1.208-2.703-2.7c0-1.495,1.209-2.703,2.703-2.703h41.573c1.492,0,2.701,1.208,2.701,2.703
	C91.483,62.444,90.273,63.652,88.781,63.652z M88.781,52.591H47.208c-1.493,0-2.703-1.208-2.703-2.702
	c0-1.493,1.209-2.703,2.703-2.703h41.573c1.492,0,2.701,1.209,2.701,2.703C91.483,51.383,90.273,52.591,88.781,52.591z"/>
</svg>
