<?xml version="1.0" encoding="utf-8"?>
<!-- Generator: Adobe Illustrator 16.0.0, SVG Export Plug-In . SVG Version: 6.00 Build 0)  -->
<!DOCTYPE svg PUBLIC "-//W3C//DTD SVG 1.1//EN" "http://www.w3.org/Graphics/SVG/1.1/DTD/svg11.dtd">
<svg version="1.1" id="Layer_1" xmlns="http://www.w3.org/2000/svg" xmlns:xlink="http://www.w3.org/1999/xlink" x="0px" y="0px"
	 width="1265.577px" height="580.925px" viewBox="0 0 1265.577 580.925" enable-background="new 0 0 1265.577 580.925"
	 xml:space="preserve">
<rect x="57.197" y="-70" fill="#FFFFFF" width="1024" height="768"/>
<g opacity="0.65">
	
		<linearGradient id="SVGID_1_" gradientUnits="userSpaceOnUse" x1="598.8198" y1="314.8706" x2="811.5081" y2="102.1823" gradientTransform="matrix(0.5763 0.8904 -1.0325 0.2426 510.1338 -478.7115)">
		<stop  offset="0" style="stop-color:#93DAD3"/>
		<stop  offset="0.8547" style="stop-color:#F2F2F2"/>
	</linearGradient>
	<path opacity="0.65" fill="url(#SVGID_1_)" d="M785.781,352.913c-83.678,23.047-189.373-26.841-236.076-111.427
		s-16.729-171.84,66.949-194.887C700.332,23.552,806.027,73.44,852.73,158.027C899.433,242.613,869.459,329.867,785.781,352.913z"/>
	<linearGradient id="SVGID_2_" gradientUnits="userSpaceOnUse" x1="634.3433" y1="617.7847" x2="634.3433" y2="140.3481">
		<stop  offset="0.1453" style="stop-color:#F2F2F2"/>
		<stop  offset="1" style="stop-color:#5ACABF"/>
	</linearGradient>
	<path opacity="0.5" fill="url(#SVGID_2_)" d="M788.667,581.392c0,0-40.364,24.227-76.111,32.429
		c-35.748,8.201-66.862,4.088-91.104-16.209c-24.242-20.297-54.65-96.413-79.214-111.262
		c-24.563-14.85-76.914-28.048-107.368-39.346s-92.652-50.078-83.784-160.054c8.868-109.976,68.971-147.856,123.784-128.262
		c54.813,19.594,84.265,39.813,180.864,5.1c96.599-34.713,199.057-42.423,243.827,58.96
		C944.333,324.132,910.4,497.815,788.667,581.392z"/>
	
		<linearGradient id="SVGID_3_" gradientUnits="userSpaceOnUse" x1="145.7515" y1="347.3364" x2="716.8765" y2="347.3364" gradientTransform="matrix(-0.7544 0.1024 -0.172 -0.5241 935.7108 616.0525)">
		<stop  offset="0.1453" style="stop-color:#F2F2F2"/>
		<stop  offset="1" style="stop-color:#5ACABF"/>
	</linearGradient>
	<path opacity="0.5" fill="url(#SVGID_3_)" d="M404.053,388.646c0,0,26.748-17.351,52.463-25.771
		c25.715-8.419,49.818-9.851,71.208-2.008c21.392,7.843,55.968,44.229,76.769,49.18c20.802,4.95,62.314,5.832,87.016,8.242
		c24.702,2.41,77.555,15.564,87.676,74.225s-29.432,85.441-73.779,81.491c-44.348-3.949-69.658-11.151-137.229,18.179
		c-67.571,29.329-143.689,45.182-192.963-2.791C325.939,541.419,324.99,446.482,404.053,388.646z"/>
	<path opacity="0.35" fill="#F2F2F2" d="M411.681,147.242c0,0,36.598-33.966,71.265-51.628
		c34.667-17.662,66.753-22.491,94.658-10.238s71.519,75.088,98.821,82.146c27.304,7.059,82.356,4.815,114.997,6.902
		c32.642,2.087,101.977,21.067,111.728,126.591c9.751,105.524-44.439,157.793-103.063,154.73
		c-58.623-3.062-91.771-13.787-183.315,45.699s-193.588,95.307-255.987,12.803C298.384,431.744,303.088,259.53,411.681,147.242z"/>
	
		<linearGradient id="SVGID_4_" gradientUnits="userSpaceOnUse" x1="239.6802" y1="490.5991" x2="549.6998" y2="180.5795" gradientTransform="matrix(0.9292 -0.0708 -0.0708 0.9292 55.0916 55.0901)">
		<stop  offset="0.1453" style="stop-color:#F2F2F2"/>
		<stop  offset="1" style="stop-color:#93DAD3"/>
	</linearGradient>
	<path opacity="0.65" fill="url(#SVGID_4_)" d="M572.427,321.434c-7.338,127.133-91.345,238.047-187.635,247.734
		s-168.401-85.52-161.063-212.652c7.337-127.132,91.344-238.047,187.635-247.735C507.654,99.094,579.764,194.301,572.427,321.434z"
		/>
	
		<linearGradient id="SVGID_5_" gradientUnits="userSpaceOnUse" x1="278.9619" y1="299.9185" x2="919.1128" y2="299.9185" gradientTransform="matrix(1.0355 -0.0411 0.0397 0.9992 -45.863 24.6921)">
		<stop  offset="0.1369" style="stop-color:#BDE4E0"/>
		<stop  offset="0.3575" style="stop-color:#5ACABF"/>
		<stop  offset="0.8547" style="stop-color:#F2F2F2"/>
	</linearGradient>
	<path opacity="0.5" fill="url(#SVGID_5_)" d="M480.16,49.887c0,0,41.383-30.96,94.085-24.356
		c52.701,6.604,68.149,37.266,81.095,50.125c12.946,12.858,23.523,47.097,124.87,51.529c101.346,4.432,120.274,62.931,123.806,74.53
		c3.532,11.599,13.624,49.779-11.663,76.661c-25.286,26.883-41.889,34.343-6.76,56.289c35.128,21.944,40.598,53.053,33.902,75.746
		s-28.876,66.792-77.698,63.935c-48.822-2.858-45.979-10.823-65.168,11.868c-19.188,22.691-28.942,47.2-68.035,54.545
		s-69.331-17.618-97.802-10.188c-28.471,7.431-48.847,31.854-62.312,39.733c-13.464,7.88-77.988,20.279-109.106-11.923
		c-31.118-32.201-35.812-23.594-45.494-14.764s-45.867,27.802-85.309-10.187c-39.442-37.988-42.207-80.974,1.841-124.931
		c44.048-43.956,33.518-59.162,10.456-75.488c-23.063-16.325-65.911-44.644-69.11-99.927s28.238-102.595,91.181-124.441
		C405.881,86.796,390.514,111.556,480.16,49.887z"/>
</g>
<rect x="245.659" y="554.144" fill="#FFFFFF" width="644.893" height="119.702"/>
<g opacity="0.42">
	<g opacity="0.5">
		<linearGradient id="SVGID_6_" gradientUnits="userSpaceOnUse" x1="953.8687" y1="454.1333" x2="1001.7554" y2="454.1333">
			<stop  offset="0" style="stop-color:#005679"/>
			<stop  offset="0.3712" style="stop-color:#007C9C"/>
			<stop  offset="0.7807" style="stop-color:#009FBE"/>
			<stop  offset="1" style="stop-color:#00ADCB"/>
		</linearGradient>
		<path fill="url(#SVGID_6_)" d="M954.163,447.19c-1.345,9.924,1.983,20.382,8.817,27.702c1.384,1.483,2.946,2.912,3.637,4.818
			c0.467,1.289,0.494,2.7,0.921,4.003c1.25,3.808,5.782,5.783,9.756,5.256c3.973-0.528,7.418-2.989,10.367-5.703
			c5.009-4.612,9.291-10.645,9.56-17.448c0.117-2.961-0.533-5.91-0.437-8.872c0.271-8.323,6.37-16.137,4.675-24.291
			c-0.9-4.328-3.998-8.008-7.819-10.232c-3.82-2.225-8.305-3.107-12.726-3.204C966.929,418.914,955.875,434.564,954.163,447.19z"/>
		<g>
			<g>
				<polygon fill="#56B89F" points="966.741,548.061 965.611,547.883 982.766,436.572 983.897,436.749 				"/>
				
					<rect x="957.61" y="452.102" transform="matrix(0.4059 0.9139 -0.9139 0.4059 991.5612 -619.9365)" fill="#B9CAD2" width="29.968" height="1.145"/>
				
					<rect x="983.833" y="447.947" transform="matrix(0.7322 0.681 -0.681 0.7322 573.3734 -548.6222)" fill="#B9CAD2" width="1.144" height="13.876"/>
				
					<rect x="966.809" y="447.521" transform="matrix(0.6038 0.7971 -0.7971 0.6038 743.6189 -599.9374)" fill="#B9CAD2" width="17.042" height="1.143"/>
				
					<rect x="976.227" y="438.03" transform="matrix(0.9254 0.379 -0.379 0.9254 240.7874 -337.1846)" fill="#B9CAD2" width="1.144" height="9.893"/>
				
					<rect x="977.044" y="489.338" transform="matrix(0.7767 0.6299 -0.6299 0.7767 531.097 -504.8956)" fill="#B9CAD2" width="1.144" height="14.469"/>
			</g>
		</g>
		<path fill="#56B89F" d="M989.417,450.196l-0.838-0.779l-8.178,8.789l3.362-21.457l-1.13-0.177l-2.648,16.896l-4.544-5.999
			l3.63-8.852l-1.058-0.434l-3.373,8.227l-4.133-5.455l-0.911,0.69l10.143,13.391l-1.462,9.327l-11.375-25.615l-1.046,0.465
			l12.095,27.234l-3.523,22.48c0.379,0.058,0.76,0.095,1.142,0.11l4.515-28.812L989.417,450.196z"/>
	</g>
	<path fill="#8DD0BF" d="M975.08,521.915c0.114,1.705-0.106,3.412-0.281,5.111c-0.037,0.352-0.067,0.725,0.09,1.04
		c0.16,0.324,0.489,0.527,0.815,0.685c2.627,1.269,6.11,0.359,7.782-2.03c0.712-1.018,1.101-2.22,1.479-3.401
		c1.935-6.029,5.644-14.539-3.816-15.712C972.338,506.514,974.731,516.716,975.08,521.915z"/>
	<path fill="#56B89F" d="M1007.354,531.416c1.815-0.516,2.998-2.249,3.798-3.959c2.452-5.247,6.042-23.229-5.247-16.685
		C999.809,514.306,997.754,534.138,1007.354,531.416z"/>
	<path fill="#8DD0BF" d="M994.871,499.079c3.47-0.908,7.315-0.26,10.297,1.734c1.244,0.831,2.365,1.922,2.945,3.301
		c3.517,8.348-7.676,26.449-17.889,22.681C979.137,522.703,985.174,501.615,994.871,499.079z"/>
	<g opacity="0.5">
		<g>
			
				<rect x="977.649" y="527.41" transform="matrix(0.9971 0.076 -0.076 0.9971 43.6158 -72.748)" fill="#56B89F" width="0.72" height="19.007"/>
			
				<rect x="979.218" y="531.451" transform="matrix(0.5774 0.8165 -0.8165 0.5774 849.2612 -574.501)" fill="#B9CAD2" width="0.719" height="3.308"/>
		</g>
	</g>
	<g opacity="0.5">
		<g>
			
				<rect x="989.779" y="524.627" transform="matrix(0.992 0.1264 -0.1264 0.992 75.9046 -120.8665)" fill="#56B89F" width="0.857" height="25.92"/>
			
				<rect x="985.648" y="533.767" transform="matrix(0.5476 0.8368 -0.8368 0.5476 894.2757 -585.5881)" fill="#F1D1B6" width="6.035" height="0.858"/>
		</g>
	</g>
	<rect x="1004.757" y="529.387" fill="#56B89F" width="0.858" height="20.283"/>
	<path fill="#56B89F" d="M1027.188,552.833c-0.877-0.481-1.916-0.816-2.942-0.9c-2.887-0.234-5.846,0.537-8.678,0.031
		c-3.663-0.654-6.196-3.238-9.311-4.911c-10.823-5.814-25.236,0.234-38.276-0.128c-14.285-0.396-26.773-8.675-41.051-9.232
		c-14.396-0.562-28.462,6.837-42.547,4.395c-5.657-0.98-10.741-3.492-16.365-4.586c-8.653-1.683-17.91,0.167-25.718,3.587
		c-4.706,2.061-15.661,6.563-16.957,11.745H1027.188z"/>
</g>
<g opacity="0.55">
	
		<linearGradient id="SVGID_7_" gradientUnits="userSpaceOnUse" x1="1732.7388" y1="236.3042" x2="1837.7056" y2="236.3042" gradientTransform="matrix(1 0 0 1 -1458.3701 0)">
		<stop  offset="0" style="stop-color:#005679"/>
		<stop  offset="0.3712" style="stop-color:#007C9C"/>
		<stop  offset="0.7807" style="stop-color:#009FBE"/>
		<stop  offset="1" style="stop-color:#00ADCB"/>
	</linearGradient>
	<path fill="url(#SVGID_7_)" d="M274.369,263.75c0,0,5.136-0.963,7.062-4.494c1.926-3.531,3.21-20.544,8.988-21.186
		c5.778-0.643,6.099,8.025,6.099,8.025s0.642-37.557,18.939-37.557c18.297,0,18.618,33.384,18.618,33.384s-1.284-10.272,6.42-10.914
		c7.704-0.643,7.062,16.692,7.062,16.692s0.642-8.346,6.741-8.346c6.099,0,6.535,9.942,6.741,13.161
		c0.535,8.346,18.297,11.556,18.297,11.556L274.369,263.75z"/>
	<path fill="#FBB549" d="M310,250.47c0,0,2.23-0.418,3.066-1.952c0.836-1.533,1.394-8.921,3.903-9.2
		c2.509-0.279,2.648,3.485,2.648,3.485s0.279-16.309,8.225-16.309c7.946,0,8.085,14.497,8.085,14.497s-0.558-4.46,2.788-4.739
		c3.346-0.279,3.067,7.249,3.067,7.249s0.279-3.624,2.927-3.624s2.838,4.317,2.927,5.715c0.232,3.625,7.946,5.018,7.946,5.018
		L310,250.47z"/>
	<path fill="#EE3F3A" d="M272.571,256.783c0,0,3.622-0.679,4.98-3.169c1.358-2.49,2.264-14.487,6.338-14.94
		c4.075-0.453,4.301,5.659,4.301,5.659s0.453-26.485,13.356-26.485c12.903,0,13.129,23.542,13.129,23.542s-0.906-7.244,4.527-7.697
		s4.98,11.771,4.98,11.771s0.453-5.886,4.754-5.886s4.843,7.008,4.754,9.281c-0.258,6.544,12.903,8.149,12.903,8.149
		L272.571,256.783z"/>
</g>
<g opacity="0.75">
	<path fill="#00B5A3" d="M768.337,104.815c0,0,2.448-0.459,3.367-2.143c0.918-1.683,1.53-9.794,4.284-10.1
		c2.755-0.306,2.908,3.826,2.908,3.826s0.306-17.905,9.029-17.905c8.723,0,8.875,15.916,8.875,15.916s-0.611-4.897,3.061-5.203
		c3.673-0.306,3.367,7.958,3.367,7.958s0.306-3.979,3.214-3.979c2.907,0,3.061,4.744,3.214,6.274
		c0.152,1.531,8.723,5.509,8.723,5.509L768.337,104.815z"/>
	<path fill="#FBB549" d="M776.005,106.204c0,0,2.167-0.324,2.979-1.513c0.813-1.189,1.354-6.919,3.792-7.136
		c2.438-0.216,2.573,2.703,2.573,2.703s0.271-12.649,7.991-12.649c7.719,0,7.854,11.244,7.854,11.244s-0.542-3.459,2.709-3.676
		c3.25-0.216,2.979,5.622,2.979,5.622s0.271-2.811,2.845-2.811s2.708,3.352,2.844,4.433s7.72,3.892,7.72,3.892L776.005,106.204z"/>
	<linearGradient id="SVGID_8_" gradientUnits="userSpaceOnUse" x1="779.4409" y1="98.27" x2="829.4829" y2="98.27">
		<stop  offset="0" style="stop-color:#005679"/>
		<stop  offset="0.2469" style="stop-color:#007495"/>
		<stop  offset="0.5559" style="stop-color:#0093B3"/>
		<stop  offset="0.818" style="stop-color:#00A6C5"/>
		<stop  offset="1" style="stop-color:#00ADCB"/>
	</linearGradient>
	<path fill="url(#SVGID_8_)" d="M829.483,111.354c0,0-2.448-0.459-3.366-2.142c-0.918-1.684-1.53-9.794-4.285-10.1
		c-2.755-0.306-2.907,3.826-2.907,3.826s-0.307-17.905-9.029-17.905s-8.876,15.916-8.876,15.916s0.612-4.897-3.061-5.203
		s-3.367,7.958-3.367,7.958s-0.306-3.979-3.213-3.979c-2.908,0-3.035,4.747-3.214,6.274c-0.609,5.199-8.724,5.509-8.724,5.509
		L829.483,111.354z"/>
</g>
<g>
	<g>
		<g>
			<path fill="#E85D5A" d="M534.968,194.901c-4.851-6.028-9.792-13.553-14.35-21.17c0.845-1.131,6.973-9.721,7.38-21.136
				c3.241,2.424,6.245,5.136,8.867,8.224c1.984,2.336,3.714,4.928,5.136,7.715C543.35,177.732,536.508,191.869,534.968,194.901z"/>
		</g>
		<g>
			<path fill="#E85D5A" d="M520.237,173.093c-8.646-14.527-15.85-29.244-18.326-34.421c3.131,0.731,6.231,2.721,9.033,4.043
				c3.233,1.527,6.424,3.142,9.504,4.929c2.344,1.359,4.628,2.82,6.811,4.406C527.094,162.913,521.541,171.278,520.237,173.093z"/>
		</g>
		<g>
			<path fill="#E85D5A" d="M514.253,164.322c4.481,8.054,9.657,16.72,14.927,24.219c-2.903-0.091-15.37-0.787-21.967-5.974
				c-4.05-6.875-6.482-14.914-7.225-23.25c5.781,3.467,14.16,5.034,14.248,5.05L514.253,164.322z"/>
		</g>
		<g>
			<path fill="#E85D5A" d="M499.906,158.297c-0.089-1.235-0.144-2.476-0.159-3.719c-0.059-4.788-0.161-10.646,1.414-15.592
				c1.862,3.899,6.575,13.562,12.618,24.48C511.543,162.989,504.636,161.336,499.906,158.297z"/>
		</g>
		<g>
			<path fill="#E85D5A" d="M529.646,189.317l0.018-0.091c3.84,5.408,7.721,10.163,11.41,13.588
				c-1.162,0.362-2.732,0.282-5.024-0.098c-12.325-2.042-21.639-8.984-27.748-18.389
				C516.267,189.211,529.503,189.317,529.646,189.317z"/>
		</g>
		<g>
			<path fill="#E85D5A" d="M542.934,170.5c1.74,3.926,2.88,8.193,3.252,12.671c0.352,4.235,0.027,8.661-1.201,13.046
				c-0.959,3.425-1.667,5.344-3.089,6.226c-2.099-1.918-4.263-4.275-6.449-6.95C536.515,193.454,543.165,180.335,542.934,170.5z"/>
		</g>
		<g>
			<path fill="#E5E5E2" d="M529.665,189.227l-0.018,0.091c-0.143,0-13.379-0.106-21.343-4.99c-0.375-0.578-0.739-1.165-1.09-1.76
				c6.597,5.187,19.063,5.882,21.967,5.974c-5.27-7.499-10.446-16.165-14.927-24.219l-0.016,0.044
				c-0.088-0.016-8.467-1.583-14.248-5.05c-0.03-0.34-0.058-0.68-0.083-1.02c4.73,3.039,11.637,4.692,13.872,5.17
				c-6.043-10.919-10.755-20.581-12.618-24.48c0.046-0.147,0.089-0.296,0.139-0.441c0.204,0.037,0.408,0.079,0.612,0.127
				c2.476,5.177,9.679,19.894,18.326,34.421c1.304-1.815,6.857-10.181,7.023-21.043c0.248,0.18,0.494,0.362,0.738,0.545
				c-0.408,11.415-6.535,20.005-7.38,21.136c4.558,7.617,9.499,15.142,14.35,21.17c1.54-3.033,8.382-17.169,7.034-26.367
				c0.328,0.644,0.638,1.3,0.932,1.965c0.23,9.835-6.419,22.954-7.486,24.993c2.186,2.675,4.35,5.032,6.449,6.95
				c-0.25,0.155-0.522,0.278-0.822,0.372C537.385,199.39,533.505,194.634,529.665,189.227z"/>
		</g>
	</g>
</g>
<g>
	<g>
		<g>
			<path fill="#42B093" d="M538.618,174.153c-2.263-8.722-4.127-18.829-5.631-28.747c1.089-0.406,9.107-3.692,13.094-13.481
				c2.023,4.412,3.75,8.912,5.027,13.477c0.966,3.453,1.633,6.953,1.971,10.411C551.312,164.875,540.912,172.556,538.618,174.153z"
				/>
		</g>
		<g>
			<path fill="#42B093" d="M532.862,144.575c-2.829-18.885-4.354-36.926-4.839-43.231c2.467,2.841,4.506,6.771,6.5,9.903
				c2.302,3.615,4.539,7.278,6.626,11.015c1.588,2.843,3.092,5.733,4.469,8.664C542.016,140.397,534.563,143.887,532.862,144.575z"
				/>
		</g>
		<g>
			<path fill="#42B093" d="M530.495,132.637c1.3,10.251,3.002,21.53,5.158,31.844c-2.474-2.117-13.001-11.472-17.037-20.675
				c-1.303-8.909-0.84-17.709,1.175-25.588c3.88,7.114,10.606,14.373,10.676,14.448L530.495,132.637z"/>
		</g>
		<g>
			<path fill="#42B093" d="M520.044,117.259c0.316-1.152,0.664-2.286,1.047-3.394c1.474-4.266,3.252-9.508,6.184-12.771
				c0.364,4.748,1.351,16.58,3.083,30.455C528.583,129.56,523.155,123.258,520.044,117.259z"/>
		</g>
		<g>
			<path fill="#42B093" d="M535.808,165.493l0.044-0.067c1.589,7.466,3.42,14.384,5.511,19.994c-1.117-0.495-2.446-1.667-4.3-3.609
				c-9.976-10.444-15.796-23.102-18.068-35.687C524.306,156.018,535.685,165.392,535.808,165.493z"/>
		</g>
		<g>
			<path fill="#42B093" d="M553.257,158.2c0.25,4.685-0.126,9.251-1.231,13.464c-1.045,3.984-2.734,7.664-5.189,10.673
				c-1.917,2.35-3.139,3.548-4.646,3.33c-1.199-3.165-2.314-6.763-3.347-10.657C540.413,173.96,550.324,167.043,553.257,158.2z"/>
		</g>
		<g>
			<path fill="#E5E5E2" d="M535.852,165.425l-0.044,0.067c-0.123-0.101-11.501-9.475-16.813-19.369
				c-0.14-0.773-0.266-1.546-0.379-2.318c4.036,9.203,14.563,18.559,17.037,20.675c-2.156-10.314-3.858-21.592-5.158-31.844
				l-0.028,0.028c-0.07-0.076-6.796-7.334-10.676-14.448c0.082-0.321,0.167-0.64,0.254-0.958c3.11,5.999,8.539,12.301,10.313,14.29
				c-1.732-13.875-2.719-25.707-3.083-30.455c0.087-0.097,0.171-0.198,0.261-0.292c0.164,0.175,0.326,0.356,0.487,0.541
				c0.486,6.306,2.01,24.347,4.839,43.231c1.702-0.688,9.154-4.178,12.756-13.649c0.156,0.333,0.311,0.666,0.463,0.999
				c-3.986,9.789-12.005,13.075-13.094,13.481c1.504,9.918,3.369,20.025,5.631,28.747c2.293-1.597,12.694-9.277,14.46-18.34
				c0.079,0.799,0.136,1.595,0.178,2.388c-2.933,8.843-12.844,15.76-14.414,16.811c1.033,3.894,2.148,7.492,3.347,10.657
				c-0.265-0.039-0.539-0.121-0.827-0.249C539.272,179.809,537.441,172.891,535.852,165.425z"/>
		</g>
	</g>
</g>
<g>
	<path fill="#869FA5" d="M426.754,290.397l167.055,56.707c6.071,2.062,12.665-1.189,14.726-7.262l32.478-95.675
		c2.062-6.072-1.19-12.665-7.262-14.726l-167.055-56.708c-6.072-2.061-12.665,1.19-14.726,7.262l-32.478,95.676
		C417.432,281.744,420.683,288.336,426.754,290.397z"/>
	<path fill="#527480" d="M447.795,192.296c-2.662,7.842-5.285,15.568-7.936,23.377c63.065,21.408,125.97,42.761,189.042,64.171
		c2.639-7.771,5.261-15.495,7.937-23.377C573.911,235.106,510.946,213.733,447.795,192.296z"/>
	<path fill="#E5E5E2" d="M444.83,227.437c-2.662,7.843-5.285,15.568-7.936,23.378c57.087,19.378,114.028,38.707,171.12,58.087
		c2.638-7.771,5.26-15.495,7.936-23.377C558.989,266.189,501.994,246.842,444.83,227.437z"/>
	<g>
		<path fill="#509CBA" d="M464.417,250.64l2.571-7.574c0.261-0.769,1.09-1.148,1.842-0.893l3.483,1.182
			c0.753,0.256,1.179,1.062,0.918,1.83l-2.571,7.574c-0.261,0.769-0.984,1.148-1.737,0.893l-3.671-1.246
			C464.499,252.149,464.157,251.408,464.417,250.64z M466.681,250.515l2.26,0.767l2.104-6.197l-2.26-0.768L466.681,250.515z"/>
		<path fill="#509CBA" d="M456.509,247.955l2.571-7.575c0.261-0.768,1.09-1.148,1.842-0.893l3.483,1.183
			c0.753,0.256,1.179,1.062,0.918,1.83l-2.571,7.574c-0.261,0.769-0.984,1.148-1.737,0.893l-3.671-1.246
			C456.59,249.465,456.248,248.724,456.509,247.955z M458.772,247.831l2.26,0.767l2.104-6.196l-2.26-0.768L458.772,247.831z"/>
		<path fill="#509CBA" d="M448.6,245.271l2.571-7.575c0.261-0.768,1.09-1.148,1.842-0.893l3.483,1.183
			c0.753,0.255,1.179,1.062,0.918,1.83l-2.571,7.574c-0.261,0.769-0.984,1.148-1.737,0.893l-3.671-1.247
			C448.681,246.78,448.339,246.039,448.6,245.271z M450.863,245.146l2.26,0.767l2.104-6.197l-2.26-0.767L450.863,245.146z"/>
	</g>
</g>
<g>
	<g>
		<linearGradient id="SVGID_9_" gradientUnits="userSpaceOnUse" x1="755.2173" y1="294.9282" x2="755.2173" y2="149.3823">
			<stop  offset="0" style="stop-color:#496A72"/>
			<stop  offset="1" style="stop-color:#1F4C5B"/>
		</linearGradient>
		<path fill="url(#SVGID_9_)" d="M739.325,294.928h20.703c6.121,0,11.083-4.962,11.083-11.083v-123.38
			c0-6.121-4.962-11.083-11.083-11.083h-20.703V294.928z"/>
		<path fill="#0C232B" d="M739.325,149.382h20.703c6.121,0,11.083,4.962,11.083,11.083v123.38c0,6.121-4.962,11.083-11.083,11.083
			h-20.703V149.382 M737.675,147.732v1.65v145.546v1.65h1.649h20.703c7.021,0,12.732-5.712,12.732-12.733v-123.38
			c0-7.021-5.712-12.733-12.732-12.733h-20.703H737.675L737.675,147.732z"/>
	</g>
	<circle fill="#54B89E" cx="760.531" cy="162.726" r="4.706"/>
</g>
<g>
	<g>
		<path fill="#E95F5C" d="M575.38,412.277l-157.864-0.084c-5.738-0.003-10.387-4.656-10.384-10.394l0.048-90.413
			c0.003-5.738,4.657-10.387,10.395-10.383l157.864,0.084c5.737,0.003,10.386,4.657,10.383,10.395l-0.048,90.412
			C585.772,407.631,581.118,412.281,575.38,412.277z"/>
		<path fill="#EF8784" d="M493.13,301.043l-75.555-0.04c-5.738-0.003-10.392,4.646-10.395,10.383l-0.041,75.646
			C435.804,358.37,464.467,329.707,493.13,301.043z"/>
		<polygon fill="#EF8784" points="539.078,301.068 533.917,301.065 422.787,412.196 427.947,412.199 		"/>
		<path fill="#C61C1C" d="M575.166,301.79c-15.287,15.286-30.574,30.573-45.861,45.86l-64.571,64.57l106.646,0.057
			c5.737,0.004,10.392-4.646,10.395-10.383l0.048-90.412C581.826,307.059,579.059,303.291,575.166,301.79z"/>
		<g>
			<path fill="#FED8A7" d="M454.007,349.606l-20.414-0.011c-2.21-0.001-4.001-1.794-4-4.005l0.009-16.72
				c0.001-2.21,1.794-4.001,4.004-4l20.415,0.011c2.21,0.001,4.001,1.794,4,4.005l-0.009,16.72
				C458.011,347.816,456.218,349.607,454.007,349.606z"/>
			<g>
				<polygon fill="#C61C1C" points="438.732,324.94 438.73,328.391 429.682,328.386 429.682,328.667 438.73,328.671 
					438.727,335.878 429.678,335.874 429.678,336.155 438.727,336.16 438.723,343.553 429.673,343.548 429.673,343.83 
					438.722,343.833 438.72,349.437 439,349.438 439.013,324.94 				"/>
				<rect x="449.03" y="336.449" fill="#C61C1C" width="8.888" height="0.28"/>
				<polygon fill="#C61C1C" points="457.915,343.844 457.915,343.563 448.959,343.559 448.967,328.865 457.922,328.87 
					457.923,328.588 448.687,328.583 448.679,343.558 448.612,343.558 448.612,343.839 448.679,343.839 448.676,349.443 
					448.957,349.443 448.959,343.839 				"/>
			</g>
		</g>
	</g>
	<g>
		<path opacity="0.5" fill="#527480" d="M452.45,364.459l-28.898,0.009c-1.463,0.001-2.649-1.185-2.649-2.647v-0.519
			c0-1.463,1.185-2.648,2.647-2.649l28.898-0.009c1.463-0.001,2.649,1.185,2.649,2.647l0,0.519
			C455.098,363.273,453.913,364.458,452.45,364.459z"/>
		<path opacity="0.5" fill="#527480" d="M491.064,364.447l-28.898,0.01c-1.463,0-2.649-1.186-2.649-2.647v-0.52
			c0-1.462,1.185-2.648,2.647-2.648l28.898-0.01c1.463,0,2.649,1.185,2.649,2.647v0.519
			C493.713,363.26,492.527,364.447,491.064,364.447z"/>
		<path opacity="0.5" fill="#527480" d="M529.679,364.434l-28.898,0.01c-1.463,0-2.649-1.185-2.649-2.647v-0.519
			c0-1.463,1.185-2.649,2.647-2.649l28.898-0.01c1.463,0,2.649,1.186,2.649,2.647l0,0.519
			C532.328,363.248,531.142,364.434,529.679,364.434z"/>
		<path fill="#4B6F7B" d="M567.829,364.422l-28.898,0.009c-1.463,0.001-2.649-1.185-2.649-2.647v-0.519
			c0-1.463,1.185-2.648,2.647-2.649l28.898-0.009c1.462-0.001,2.649,1.185,2.649,2.647v0.519
			C570.477,363.236,569.292,364.421,567.829,364.422z"/>
	</g>
</g>
<g>
	<path fill="#F6A9A9" d="M865.261,334.99c0,0-0.576-0.963-0.373-1.359c0.202-0.396,0.962-2.14,0.962-2.14l0.088-0.74
		c0,0,0.973-1.16,1.136-1.383c0.162-0.224,0.361-0.598-0.196-0.624c-0.559-0.025-1.419,0.404-1.795,0.871s-0.781,0.671-0.901,0.694
		c0,0-0.864-1.38-1.176-1.695c0,0-0.766-2.411-1.174-3.378s-0.635-1.487-0.925-1.434c-0.291,0.054-0.373,0.713-0.099,1.8
		c0.207,0.817,0.517,2.012,0.641,2.567c0.017,0.074-0.081,0.117-0.125,0.056c-0.465-0.653-1.706-2.396-2.016-2.817
		c-0.383-0.521-1.003-1.336-1.333-1.123s0.597,2.063,1.016,2.896c0.275,0.549,0.626,1.168,0.833,1.527
		c0.028,0.049-0.035,0.099-0.076,0.06c-0.568-0.544-1.937-1.842-2.375-2.163c-0.559-0.41-0.879-0.462-1.004-0.319
		c-0.124,0.142,0.166,0.883,0.599,1.462c0.342,0.458,1.462,1.763,1.916,2.289c0.038,0.044-0.014,0.108-0.065,0.079
		c-0.466-0.261-1.435-0.807-1.852-1.064c-0.558-0.345-1.005-0.514-1.171-0.25s0.953,1.278,1.379,1.651
		c0.427,0.373,1.458,1.11,1.458,1.11s0.996,2.147,1.503,2.749c0.506,0.601,0.853,1.098,2.321,1.787
		c0.185,0.42,0.479,1.459,0.479,1.459l3.005-1.32L865.261,334.99z"/>
	<path fill="#399590" d="M862.046,336.618l3.164-1.761c1.074-0.598,2.428-0.2,3.003,0.888c1.479,2.802,4.101,7.432,7.255,11.839
		c1.645,2.299,5.092,7.102,10.518,12.48c11.356,3.809,33.266,7.205,33.266,7.205c5.892,1.457,9.737,5.854,8.534,10.418l-0.402,1.53
		c-1.203,4.564-6.955,7.083-12.847,5.626l-5.084-1.258c-0.028-0.007-0.055-0.016-0.082-0.023
		c-9.684-2.292-19.251-6.138-25.552-10.246l-0.006,0.002c-5.218-2.767-11.249-9.341-14.516-15.828l-2.173-4.317
		c-0.011-0.021-0.02-0.043-0.03-0.064c-2.729-5.327-5.036-10.855-6.041-14.009C860.75,338.143,861.169,337.106,862.046,336.618z"/>
	<g>
		<path fill="#F6A9A9" d="M922.355,362.999c0,0,4.116,6.871,9.568,3.631l0.178-5.71l1.107-3.723l-10.415,0.006
			C922.793,357.203,923.969,359.101,922.355,362.999z"/>
		<path fill="#CC7F7F" d="M928.963,360.429c-1.106,0.988-2.771,2.883-4.326,3.014c-0.783,0.065-1.558-0.101-2.159-0.65
			c0.479-2.882,0.315-5.59,0.315-5.59l9.378-0.244C931.289,358.273,930.151,359.369,928.963,360.429z"/>
		<path fill="#023149" d="M922.299,348.823c0,0-1.195-1.539-1.359-2.978c-0.163-1.438,0.769-2.527,0.769-2.527
			s-1.507-1.723,0.009-2.806s7.844,1.074,7.844,1.074L922.299,348.823z"/>
		<path fill="#F6A9A9" d="M924.967,343.457c-6.121,8.809-4.157,14.513-2.714,15.429c3.037,1.926,10.358,0.025,13.181-3.672
			c2.823-3.698,2.64-8.583-0.41-10.912C931.974,341.973,927.622,339.636,924.967,343.457z"/>
		<path fill="#023149" d="M922.486,336.509c1.282-0.885,3.03-2.09,5.854,1.586c0.683,0.888,2.141-0.324,4.862,0.329
			c4.206,1.008,3.573,3.381,5.92,4.722c1.598,0.912,1.077,2.295,2.173,5.226c0.707,1.89-1.493,2.788-1.032,4.557
			c0.539,2.068-3.036,1.801-3.354,3.121c-0.756,3.155-3.765,3.784-4.886,4.803c-0.333,0.303-0.146-1.352-0.119-1.8
			c0.12-2.01,1.756-3.613,1.756-3.7c0.883,0.045,3.083-0.26,3.085-3.576c0.003-3.572-2.929-0.22-2.929-0.22
			s-0.157-1.739,0.349-2.758c1.024-2.063-1.094-3.374-4.229-3.651c-1.356-0.12-1.411-1.872-2.532-1.854
			c-1.848,0.028-3.235-1.316-4.542-0.773c-0.697,0.29-1.314-0.882-1.884-1.31C918.993,339.718,920.333,337.997,922.486,336.509z"/>
		<path fill="#023149" d="M920.893,352.596c0,0,1.401-0.718,2.389-0.517c0.988,0.201,3.771,0.279,4.811,2.135
			s1.74,1.496,2.438,0.785c0.696-0.711,3.009-5.347,3.815-5.672s-1.085,4.096-1.085,4.096s-0.818,0.905-1.197,1.719
			c-0.38,0.814-0.866,1.418-1.051,2.353s-0.84,2.244-1.471,2.567s-2.35,0.939-4.646,0.082c-2.298-0.857-3.039-1.097-3.601-2.622
			C920.734,355.996,920.313,354.398,920.893,352.596z"/>
	</g>
	<g>
		<g>
			<path fill="#023149" d="M959.86,531.247l3.734,8.088c0,0-1.23,3.441-4.526,3.744l-3.167-8.072
				C955.901,535.006,959.846,530.971,959.86,531.247z"/>
			<path fill="#023149" d="M957.153,537.842c0,0,1.653,2.656,1.048,4.34c-0.606,1.683-2.03,2.426-4.269,3.604
				c-2.896,1.524-4.325,8.115,0.598,4.12c0.729-0.592,4.693-3.954,5.506-6.992c0.396-1.479-1.099-3.258-1.766-3.582L957.153,537.842
				z"/>
		</g>
	</g>
	<g>
		<g>
			<path fill="#023149" d="M902.85,539.65l-1.064,8.844c0,0-2.853,2.285-5.817,0.814l1.537-8.534
				C897.505,540.774,902.982,539.408,902.85,539.65z"/>
			<path fill="#023149" d="M897.084,543.845c0,0,0.015,3.129-1.384,4.244c-1.399,1.115-3.001,1.001-5.525,0.829
				c-3.265-0.221-7.938,4.641-1.651,3.821c0.931-0.121,6.069-0.904,8.354-3.064c1.112-1.052,0.773-3.35,0.376-3.977L897.084,543.845
				z"/>
		</g>
	</g>
	<path fill="#255060" d="M955.202,539.383c-6.179-5.048-30.287-35.255-30.287-35.255c-4.602-5.714-4.913-10.335-2.092-12.604
		l0.945-0.761c2.82-2.27,11.283-2.404,11.305-2.377c16.491,20.261,23.743,35.663,27.512,43.267c0.408,0.825,0.366,1.804-0.127,2.582
		C961.218,536.192,958.557,539.614,955.202,539.383z"/>
	<path fill="#2E4247" d="M894.721,443.086c2.307-9.016,3.564-16.196,8.597-20.128c0,0,27.878,4.273,27.878,4.274
		c2.681,11.521-8.17,20.746-15.927,41.294c-1.335,3.535-4.928,18.136-6.919,26.208c-1.945,7.881-8.862,10.18-12.161,8.911
		c-5.451-2.097-5.654-7.986-5.766-9.121C889.27,482.784,892.708,450.955,894.721,443.086z"/>
	<path fill="#2E4247" d="M895.933,542.843c-5.052-11.309-6.401-44.806-5.458-51.253c0,0,17.845-1.188,17.844-1.157
		c0.033,11.07-1.653,40.017-3.47,49.569c-0.206,1.083-1.004,1.954-2.068,2.244C900.682,542.821,897.223,543.588,895.933,542.843z"/>
	<path fill="#255060" d="M914.22,428.69c1.796-9.178,33.337-18.469,28.216,20.543c-1.177,8.96-5.754,42.71-9.625,48.752
		c-1.531,2.39-8.697,5.127-9.339,4.193c-0.577-0.839-1.864-2.408-2.962-4.927c-3.43-7.873-2.785-21.565-4.14-30.61
		C915.247,459.132,912.154,439.25,914.22,428.69z"/>
	<path fill="#C080B1" d="M915.14,367.564c1.726-0.324,3.376-1.303,4.874-2.638l-0.109,1.553l-3.415,6.587l-2.98-5.388
		C914.037,367.697,914.577,367.67,915.14,367.564z"/>
	<path fill="#42B093" d="M905.058,378.73c3.43-11.884,15.447-14.334,16.992-14.343c0,0,6.6,0.338,8.055,0.889
		c0,0,3.949,1.692,5.769,3.297c5.3,6.619,0,17.95,0,26.073s-0.572,12.145,2.234,18.225c2.049,4.44,2.868,12.434,2.806,12.472
		c-4.639,2.835-19.228,2.509-23.124,1.895c-5.093-0.802-16.889-2.694-16.784-6.104C901.464,406.06,902.639,387.112,905.058,378.73z"
		/>
	<g>
		<g>
			<path fill="#FCC14B" d="M867.959,335.441l-135.444-81.09c-4.923-2.948-6.524-9.328-3.577-14.25l46.442-77.572
				c2.947-4.923,9.327-6.524,14.25-3.577l135.445,81.091c4.923,2.947,6.524,9.327,3.577,14.25l-46.442,77.572
				C879.262,336.787,872.882,338.388,867.959,335.441z"/>
			<polygon opacity="0.2" fill="#F7CF89" points="827.409,181.569 825.077,180.172 825.077,309.767 827.409,311.164 			"/>
			<polygon opacity="0.2" fill="#F7CF89" points="853.099,196.95 841.211,189.832 841.211,319.426 853.099,326.544 			"/>
			<path opacity="0.2" fill="#F7CF89" d="M875.663,212.606c0-0.724,0.1-1.382,0.268-1.988l-9.029-5.406v129.594l1.059,0.634
				c2.41,1.443,5.168,1.789,7.703,1.196V212.606z"/>
			<path opacity="0.2" fill="#F7CF89" d="M925.076,240.042l-35.611-21.32v101.026l39.188-65.456
				C931.6,249.369,929.999,242.989,925.076,240.042z"/>
			<g>
				<path fill="#CCA77A" d="M795.955,219.362l-17.516-10.486c-1.896-1.136-2.513-3.594-1.378-5.49l8.589-14.345
					c1.136-1.896,3.593-2.513,5.49-1.378l17.515,10.486c1.896,1.135,2.514,3.593,1.378,5.49l-8.588,14.345
					C800.309,219.881,797.851,220.498,795.955,219.362z"/>
				<g>
					<polygon fill="#4B6F7B" points="795.503,190.353 793.731,193.314 785.967,188.666 785.823,188.906 793.586,193.555 
						789.884,199.738 782.121,195.09 781.977,195.331 789.741,199.979 785.943,206.323 778.178,201.675 778.035,201.916 
						785.798,206.563 782.92,211.372 783.161,211.516 795.745,190.497 					"/>
					
						<rect x="797.734" y="207.776" transform="matrix(-0.858 -0.5137 0.5137 -0.858 1383.6184 798.3779)" fill="#4B6F7B" width="8.888" height="0.281"/>
					<polygon fill="#4B6F7B" points="802.265,216.422 802.41,216.181 794.726,211.582 802.274,198.974 809.958,203.574 
						810.101,203.333 802.177,198.589 794.485,211.437 794.427,211.403 794.284,211.644 794.34,211.678 791.462,216.486 
						791.704,216.63 794.582,211.822 					"/>
				</g>
			</g>
			<circle fill="#FFD22E" cx="783.646" cy="257.071" r="11.164"/>
			<circle fill="#EE3F3A" cx="757.918" cy="241.686" r="11.164"/>
			<circle fill="#F48154" cx="771.054" cy="249.541" r="11.164"/>
		</g>
		<g opacity="0.5">
			<path fill="#4B6F7B" d="M786.995,231.311l-24.807-14.823c-1.256-0.75-1.665-2.376-0.915-3.632l0.267-0.445
				c0.75-1.256,2.376-1.666,3.632-0.915l24.807,14.823c1.255,0.75,1.665,2.376,0.915,3.632l-0.267,0.445
				C789.876,231.651,788.25,232.061,786.995,231.311z"/>
			<path fill="#4B6F7B" d="M820.143,251.118l-24.808-14.823c-1.255-0.75-1.665-2.376-0.915-3.632l0.267-0.445
				c0.75-1.256,2.376-1.666,3.632-0.915l24.807,14.823c1.256,0.75,1.665,2.376,0.915,3.632l-0.266,0.445
				C823.024,251.458,821.398,251.868,820.143,251.118z"/>
			<path fill="#4B6F7B" d="M853.291,270.925l-24.807-14.823c-1.256-0.75-1.666-2.376-0.915-3.632l0.266-0.445
				c0.75-1.255,2.377-1.665,3.632-0.915l24.808,14.823c1.255,0.75,1.665,2.376,0.914,3.632l-0.266,0.445
				C856.172,271.266,854.546,271.675,853.291,270.925z"/>
			<path fill="#4B6F7B" d="M886.039,290.494l-24.807-14.823c-1.256-0.75-1.665-2.376-0.915-3.632l0.266-0.445
				c0.751-1.256,2.377-1.666,3.633-0.915l24.807,14.823c1.256,0.75,1.665,2.376,0.915,3.632l-0.267,0.445
				C888.92,290.834,887.294,291.244,886.039,290.494z"/>
		</g>
	</g>
	<path fill="#F6A9A9" d="M885.387,323.963c0,0-0.288-1.085,0.017-1.41c0.305-0.324,1.516-1.791,1.516-1.791l0.289-0.687
		c0,0,1.255-0.847,1.473-1.017c0.219-0.169,0.513-0.475-0.017-0.653s-1.475-0.003-1.965,0.342s-0.937,0.43-1.059,0.419
		c0,0-0.449-1.565-0.662-1.954c0,0-0.069-2.529-0.195-3.571c-0.125-1.042-0.199-1.604-0.493-1.633
		c-0.295-0.028-0.556,0.583-0.591,1.703c-0.027,0.842-0.06,2.076-0.094,2.644c-0.004,0.076-0.11,0.091-0.135,0.019
		c-0.267-0.755-0.979-2.773-1.16-3.264c-0.224-0.606-0.595-1.561-0.971-1.447s0.004,2.147,0.176,3.063
		c0.114,0.603,0.279,1.296,0.38,1.699c0.013,0.055-0.062,0.085-0.09,0.036c-0.396-0.681-1.353-2.305-1.686-2.735
		c-0.424-0.548-0.718-0.687-0.876-0.584c-0.159,0.102-0.085,0.895,0.171,1.571c0.202,0.535,0.918,2.097,1.21,2.728
		c0.024,0.054-0.044,0.101-0.085,0.059c-0.376-0.379-1.157-1.171-1.486-1.534c-0.44-0.485-0.824-0.771-1.057-0.563
		c-0.231,0.207,0.563,1.491,0.87,1.968s1.095,1.471,1.095,1.471s0.364,2.338,0.686,3.056c0.32,0.718,0.517,1.291,1.737,2.359
		c0.062,0.454,0.059,1.534,0.059,1.534l3.252-0.439L885.387,323.963z"/>
	<path fill="#42B093" d="M880.691,326.504c-0.076-1.001,0.571-1.914,1.537-2.187l3.484-0.985c1.184-0.334,2.409,0.365,2.718,1.556
		c0.795,3.067,2.279,8.177,4.334,13.192c1.07,2.615,3.314,8.08,7.355,14.563c10.173,6.321,30.717,14.675,30.717,14.675
		c5.398,2.775,8.128,7.939,5.906,12.104l-0.745,1.396c-2.222,4.164-8.398,5.291-13.797,2.516l-4.657-2.395
		c-0.025-0.013-0.049-0.028-0.074-0.042c-8.896-4.461-17.32-10.406-22.506-15.855l-0.006,0.002
		c-4.44-3.895-8.795-11.682-10.479-18.747l-1.121-4.701c-0.005-0.023-0.009-0.046-0.015-0.069
		C881.914,335.715,880.942,329.804,880.691,326.504z"/>
</g>
<g>
	<g>
		<g>
			<g>
				<g>
					<g>
						<linearGradient id="SVGID_10_" gradientUnits="userSpaceOnUse" x1="752.563" y1="343.0435" x2="546.0161" y2="343.0435">
							<stop  offset="0" style="stop-color:#171733"/>
							<stop  offset="0.0396" style="stop-color:#1D1D38"/>
							<stop  offset="0.224" style="stop-color:#33344C"/>
							<stop  offset="0.4228" style="stop-color:#43445B"/>
							<stop  offset="0.644" style="stop-color:#4D4E63"/>
							<stop  offset="0.933" style="stop-color:#505166"/>
						</linearGradient>
						<path fill="url(#SVGID_10_)" d="M568.542,552.829l161.484,0.005c12.39,0,22.527-11.064,22.527-24.588l0.009-370.397
							c0.001-13.524-10.136-24.589-22.525-24.589l-161.485-0.005c-12.39,0-22.527,11.064-22.527,24.588l-0.009,370.398
							C546.016,541.763,556.153,552.828,568.542,552.829z"/>
						<linearGradient id="SVGID_11_" gradientUnits="userSpaceOnUse" x1="545.0161" y1="343.0435" x2="753.563" y2="343.0435">
							<stop  offset="0" style="stop-color:#171733"/>
							<stop  offset="0.0396" style="stop-color:#1D1D38"/>
							<stop  offset="0.224" style="stop-color:#33344C"/>
							<stop  offset="0.4228" style="stop-color:#43445B"/>
							<stop  offset="0.644" style="stop-color:#4D4E63"/>
							<stop  offset="0.933" style="stop-color:#505166"/>
						</linearGradient>
						<path fill="url(#SVGID_11_)" d="M730.03,553.833c-0.002,0-0.002,0-0.002,0l-161.485-0.004
							c-12.973-0.001-23.527-11.48-23.526-25.589l0.009-370.398c0-14.109,10.555-25.588,23.527-25.588l161.485,0.005
							c12.973,0,23.525,11.479,23.525,25.589l-0.01,370.398c0,6.791-2.442,13.198-6.879,18.041
							C742.215,551.153,736.303,553.833,730.03,553.833z M568.542,551.829l161.485,0.004c0,0,0,0,0.002,0
							c5.707,0,11.094-2.449,15.17-6.897c4.098-4.473,6.354-10.399,6.354-16.689l0.01-370.398c0-13.006-9.655-23.588-21.525-23.589
							l-161.485-0.005c-11.87,0-21.527,10.582-21.527,23.588l-0.009,370.398C547.016,541.246,556.672,551.828,568.542,551.829
							L568.542,551.829z"/>
					</g>
					
						<rect x="557.117" y="157.846" transform="matrix(-1 -3.186067e-005 3.186067e-005 -1 1298.5686 659.3791)" fill="#C1E3EC" width="184.346" height="343.666"/>
				</g>
			</g>
		</g>
		<g>
			<g>
				<g>
					<g>
						<path fill="#0DC3D8" d="M661.784,520.22l-25.047,0.168c-3.199,0.021-5.786,2.88-5.767,6.371l0.009,1.509
							c0.02,3.492,2.638,6.315,5.837,6.294l25.047-0.168c3.199-0.021,5.786-2.879,5.767-6.371l-0.009-1.509
							C667.601,523.023,664.983,520.199,661.784,520.22L661.784,520.22z"/>
					</g>
				</g>
			</g>
		</g>
	</g>
</g>
<g>
	<path fill="#CC7F7F" d="M276.168,401.062c-0.69,0.108-1.327,0.787-1.664,0.783c-0.242-0.003-0.519-0.052-0.773-0.11
		c-0.04,0.004-0.077,0.018-0.117,0.02c-1.182,0.077-2.405,0.146-3.438,0.371c-0.066,0.039-0.133,0.078-0.2,0.115
		c-0.796,0.901-1.501,2.4-1.501,2.4l-1.244,0.292l1.564,2.242c0,0,0.601-0.325,1.586-0.73c1.183-0.485,3.288-1.977,3.288-1.977
		l2.349-1.421c0.179-0.108,0.325-0.264,0.421-0.449l0.684-1.315c0.046-0.089,0.074-0.186,0.081-0.285l0.163-2.108
		C276.183,398.77,276.168,401.062,276.168,401.062z"/>
	<path fill="#CC7F7F" d="M268.881,404.528c-2.063-0.318-7.023-0.744-12.795-0.314c-0.02,0.001-0.039,0.002-0.058,0.003l-3.949,0.271
		c-1.371,0.094-2.75,0.31-4.056,0.619c-1.097,0.26-2.216-0.3-2.689-1.323c-0.418-0.901-0.896-1.888-1.425-2.938
		c-1.914,2.854-4.341,5.302-6.881,7.65c1.353,1.114,2.561,2.048,3.544,2.757l0.001,0.01c0.377,2.781,6.917,3.186,12.692,1.464
		l3.843-1.145c0.019-0.006,0.037-0.013,0.056-0.019c5.789-1.688,10.312-3.837,12.088-4.846L268.881,404.528z"/>
	<g>
		<path fill="#023149" d="M227.711,539.051l-2.797,10.401c0,0,3.088,2.123,6.01,0.396l1.979-9.281
			C232.903,540.568,227.557,538.814,227.711,539.051z"/>
		<path fill="#023149" d="M230.581,544.66c0,0-0.989,2.889,0.525,3.924s3.144,0.798,5.711,0.434c3.322-0.471,8.465,4.15,1.975,3.784
			c-0.96-0.055-6.274-0.471-8.772-2.508c-1.216-0.992-1.042-3.368-0.682-4.038L230.581,544.66z"/>
	</g>
	<path fill="#B8495A" d="M237.639,434.669c-6.687-6.553-14.105-10.01-20.94-4.49c0,0-1.938,1.565-1.94,1.566
		c-9.935,8.022,17.406,49.033,22.834,56.168c6.906,9.077,19.377,21.111,23.284,14.997c4.539-7.104,3.947-13.743,3.947-14.997
		c0-10.063-4.495-19.133-9.01-27.285C252.061,453.851,245.334,442.209,237.639,434.669z"/>
	<path fill="#B8495A" d="M232.331,545.566c5.21-5.69,15.475-18.607,21.573-30.088c0.016-0.029,0.034-0.057,0.05-0.086l7.992-14.216
		c2.918-7.026,0.502-10.593-3.136-12.525c0,0-14.491,5.745-14.506,5.774c-6.306,11.448-16.907,42.74-18.78,50.142
		C225.522,544.567,229.49,547.874,232.331,545.566z"/>
	<g>
		<path fill="#023149" d="M204.029,539.655l-4.103,9.958c0,0,2.792,2.501,5.91,1.162l3.149-8.953
			C208.985,541.822,203.907,539.4,204.029,539.655z"/>
		<path fill="#023149" d="M205.528,545.182c0,0-0.82,2.94,0.752,3.887c1.571,0.945,3.185,0.614,5.727,0.102
			c3.289-0.663,8.692,3.652,2.19,3.663c-0.962,0.001-6.291-0.106-8.903-1.995c-1.271-0.919-1.235-3.301-0.915-3.991L205.528,545.182
			z"/>
	</g>
	<path fill="#E85D5A" d="M207.288,548.539c6.019-6.389,18.109-20.863,25.809-33.673c0.021-0.032,0.042-0.063,0.062-0.096
		l3.625-5.945c4.202-6.891,4.852-14.157,1.45-16.229l-1.14-0.695c-3.401-2.072-12.651-1.01-12.671-0.977
		c-15.983,25.898-19.761,45.204-22.653,53.426C201.769,544.349,204.844,548.644,207.288,548.539z"/>
	<path fill="#E85D5A" d="M232.66,429.506c-4.291-8.321-14.54-6.359-22.763-3.266c0,0-2.332,0.878-2.334,0.879
		c-11.951,4.497-7.458,19.465-2.825,30.496c3.51,8.355,17.737,42.117,23.383,46.676c2.233,1.804,8.496,1.822,9.669,1.381
		c1.173-0.441,2.469-4.867,2.959-7.695c1.534-8.839,0.557-21.512-0.395-30.782C239.566,459.5,237.598,439.082,232.66,429.506z"/>
	<path fill="#F6A9A9" d="M225.5,355.288c3.338,3.383,5.072,10.878,3.727,11.992c-2.83,2.344-10.495,1.362-13.833-2.021
		c-3.338-3.383-3.782-8.357-0.992-11.111C217.193,351.394,222.162,351.905,225.5,355.288z"/>
	<path fill="#F6A9A9" d="M226.344,374.022l-6.203,1.618l-2.458-9.422l7.264-1.469C224.947,364.75,224.403,370.174,226.344,374.022z"
		/>
	<path fill="#F6A9A9" d="M224.633,356.115c0,0,3.177,0.65,4.164,0.503c0.945-0.14,1.48,0.1,0.92,1.341
		c-0.56,1.242-1.887,2.013-1.887,2.013L224.633,356.115z"/>
	<path fill="#E5AC48" d="M241.751,407.145c-1.114,0.842-2.262,1.636-3.434,2.394c-4.501-3.571-11.216-9.659-16.215-15.902
		c2.106-5.59,4.261-11.159,6.534-16.681c0.289,0.32,0.57,0.652,0.834,1.012l2.733,3.71c0.015,0.021,0.028,0.042,0.043,0.063
		c5.265,7.009,10.462,16.354,13.133,22.145C244.233,405.039,243.055,406.16,241.751,407.145z"/>
	<path fill="#255060" d="M217.372,371.621c1.013-0.52,0.214-1.382,1.04-1.317l6.835,1.347c2.155,0.12,0.99,1.176,1.316,1.509
		c8.727,8.92,7.835,33.438,9.581,54.399c0.034,0.401,0.044,0.793,0.029,1.171c0.248,0.681,0.313,1.384,0.163,2.099
		c-0.9,4.3-9.343,7.607-19.515,7.365c-9.077-0.216-16.598-3.156-18.319-7.009c-0.005-0.011-0.011-0.022-0.016-0.034
		c-0.039-0.087-0.074-0.176-0.106-0.264c-0.373-0.972-0.481-2.166-0.355-3.416c0.809-8.046,1.085-15.747,2.74-22.455
		C206.534,374.154,217.024,371.53,217.372,371.621z"/>
	<path fill="#2E4247" d="M236.144,427.558c-0.828-9.942-1.064-20.682-2.013-30.18c-1.758-0.41-3.515-0.823-5.269-1.241
		c-4.97-1.184-6.643-12.772-11.706-13.684c-4.013,15.206,4.324,33.637,13.005,41.878c1.901,1.805,3.958,3.387,6.126,4.79
		c-0.034-0.132-0.068-0.264-0.115-0.393C236.188,428.351,236.178,427.959,236.144,427.558z"/>
	<path fill="#023149" d="M217.188,365.832c0,0,0.893-0.386,0.428-2.023c-0.344-1.208,0.345-2.588,0.88-2.881
		c0.536-0.292,2.023-1.037,1.76-3.416c-0.095-0.859-0.736-2.022-0.309-2.87c0.128-0.255,0.362-0.44,0.601-0.598
		c1.671-1.104,3.953-1.173,5.329-2.739c1.337-1.521,0.378-4.024-1.538-4.136c-1.916-0.112-3.302,3.563-5.024,3.604
		c-0.877,0.021-1.496-0.579-2.269-0.864c-0.923-0.34-2.033-0.238-2.958,0.031c-2.018,0.59-3.722,1.883-4.217,3.994
		c-0.29,1.237-0.488,2.576-1.657,3.311c-0.617,0.388-1.306,0.646-1.934,1.015c-1.105,0.649-2.022,1.673-2.382,2.903
		c-0.826,2.831,1.77,5.109,4.325,5.63c2.167,0.442,2.228,1.794,2.435,2.883c0.376,1.979,3.486,3.985,6.203,1.06
		c0.855,0.541,1.964-0.092,1.964-0.092l0.212-2.362C219.037,368.281,217.567,366.995,217.188,365.832z"/>
	
		<ellipse transform="matrix(-0.9661 0.2582 -0.2582 -0.9661 520.8053 655.269)" fill="#F6A9A9" cx="217.372" cy="361.835" rx="1.411" ry="2.517"/>
	<g>
		<g>
			<circle fill="#FED8A7" cx="262.048" cy="389.968" r="26.434"/>
			<path fill="#FED8A7" d="M283.262,374.197c-0.93,2.346-2.052,4.623-3.293,6.819c-5.479,9.694-13.296,19.006-22.553,25.28
				c-3.229,2.189-6.664,3.991-10.218,5.54c4.233,2.88,9.344,4.565,14.85,4.565c14.599,0,26.434-11.835,26.434-26.434
				C288.482,384.057,286.541,378.599,283.262,374.197z"/>
			<path fill="#FED8A7" d="M282.016,389.346c-2.212,5.508-5.057,10.511-9.056,14.932c-4.506,4.98-10.062,8.6-15.957,11.635
				c1.633,0.317,3.319,0.489,5.045,0.489c14.599,0,26.434-11.835,26.434-26.434c0-4-0.894-7.788-2.485-11.186
				C284.544,382.247,283.42,385.848,282.016,389.346z"/>
			<circle fill="#F8C22E" cx="262.048" cy="389.968" r="20.718"/>
			<circle fill="#E3F5FF" cx="262.048" cy="389.968" r="19.302"/>
		</g>
		<g>
			<path fill="#0D1D7D" d="M261.272,401.875v-2.614c-3.447-0.287-5.458-2.327-5.745-5.085h2.528
				c0.374,1.781,1.609,2.815,3.217,3.074v-6.952c-3.821-1.149-5.314-2.586-5.314-5.257c0-2.901,2.241-4.826,5.314-5.027v-1.953
				h1.638v1.981c3.82,0.374,5.056,2.845,5.228,4.625h-2.47c-0.316-1.178-1.006-2.327-2.758-2.643v6.263
				c4.395,1.264,5.659,3.103,5.659,5.659c0,3.188-2.126,5.056-5.659,5.314v2.614H261.272z M261.272,387.799v-5.832
				c-2.068,0.173-2.815,1.408-2.815,2.787C258.458,386.162,259.118,387.052,261.272,387.799z M262.91,390.787v6.492
				c1.982-0.201,3.045-1.206,3.045-3.073C265.955,392.683,265.294,391.62,262.91,390.787z"/>
		</g>
	</g>
	<path fill="#255060" d="M229.364,409.568c-3.938-5.207-8.148-11.497-10.999-17.409c-0.013-0.025-0.028-0.05-0.041-0.076
		l-2.332-4.725c-2.702-5.478-1.758-11.475,2.109-13.396l1.296-0.644c3.867-1.922,9.193,0.96,11.895,6.437l2.332,4.726
		c0.013,0.026,0.023,0.053,0.036,0.079c2.383,4.721,4.425,10.296,6.04,15.581C235.845,402.729,232.44,406.056,229.364,409.568z"/>
	<path fill="#CC7F7F" d="M272.786,412.719c0,0,1.297-2.369,2.35-2.826c0.354-0.154,0.634-0.294,0.851-0.381
		c0.315-0.127,0.586-0.337,0.792-0.607l1.047-1.371c0,0,0.772,0.223,0.564,0.986c-0.104,0.384-0.554,0.93-0.789,1.196
		c-0.07,0.079-0.042,0.202,0.058,0.241c0.298,0.114,0.87,0.313,1.318,0.347c0.336,0.024,1.015-0.613,1.71-0.678
		c0,0,0.157-2.287,1.333-2.094l-0.294,2.094c-0.014,0.1-0.047,0.194-0.099,0.279l-0.764,1.271c-0.108,0.18-0.263,0.326-0.448,0.423
		l-2.433,1.271c0,0-2.194,1.356-3.405,1.769c-1.009,0.342-1.628,0.63-1.628,0.63l-1.422-2.336L272.786,412.719z"/>
	<path fill="#255060" d="M273.188,412.514c-3.95,0.428-17.006-0.806-17.006-0.806c-2.498-0.32-5.208-0.388-7.773-0.198
		c-3.192,0.235-6.104-1.8-6.896-4.9c-1.756-6.877-4.459-15.329-7.853-22.051c-0.012-0.026-0.022-0.053-0.036-0.079l-2.332-4.726
		c-2.702-5.477-8.028-8.358-11.895-6.437l-1.296,0.644c-3.867,1.922-4.812,7.919-2.109,13.396l2.332,4.725
		c0.013,0.026,0.028,0.051,0.041,0.076c5.225,10.837,15.016,22.942,19.325,27.315c1.419,4.207,12.53,4.767,20.305,2.596l4.481-1.252
		c0.021-0.006,0.041-0.013,0.061-0.019c5.653-1.537,9.765-4.923,11.044-5.691L273.188,412.514z"/>
</g>
<g>
	<g>
		<path fill="#F0A5A6" d="M790.743,464.538c-0.313,6.141-0.754,13.823-0.006,20.495c-0.137,1.247-0.203,2.56-0.185,3.916
			c0,0,3.913,45.089,5.694,53.77c1.884,1.378,4.409-0.648,4.409-0.648c1.548-8.614,4.753-30.771,4.461-45.953
			c0-0.039,0.002-0.077,0.001-0.116l-0.095-7.037c-0.016-1.169-0.094-2.306-0.224-3.397
			C806.801,481.875,790.948,460.516,790.743,464.538z"/>
		<path fill="#1B6886" d="M799.691,372.86c0,0-12.503,13.124-13.743,18.703c-1.012,4.552,0.93,10.747,1.859,16.946
			c0.931,6.2-9.196,22.424-11.676,28.003c-2.48,5.58-4.96,13.33-5.271,18.91c-0.31,5.58,24.18,2.79,24.18,2.79
			s11.78,0.62,13.33-4.65c1.55-5.27-6.02-81.451-6.02-81.451S800.414,371.982,799.691,372.86z"/>
		<path fill="#255060" d="M790.329,423.123c-1.55,4.185-1.487,9.36-1.705,13.64c-0.333,6.532,0.496,37.025,1.292,44.123
			c-0.146,1.327,2.394,49.405,4.288,58.641c2.479,2.17,8.835-0.155,8.835-0.155c3.41-9.094,2.928-56.498,2.79-57.659
			c2.13-3.927,3.366-32.367,5.58-40.713c0.183-0.689,0.238-14.99,0.413-15.706C802.743,423.316,799.211,425.791,790.329,423.123z"/>
		<path fill="#B8495A" d="M808.704,347.44c11.344,3.928,9.879,18.71,14.369,22.152c4.49,3.443,16.408,21.646,2.313,26.681
			c-12.507,4.467-16.493-19.626-22.904-20.209c-13.64-1.24-9.027-6.273-6.82-20.253C796.59,349.92,802.067,344.238,808.704,347.44z"
			/>
		<g>
			<polygon fill="#F0A5A6" points="800.658,540.94 800.938,545.839 791.69,549.573 796.316,541.358 			"/>
			<path fill="#221F1F" d="M786.079,552.833l8.573-0.236c0.753-0.021,1.468-0.337,1.988-0.881l3.396-3.539l0.118,4.269l1.286-0.036
				l1.039-4.852c0.23-1.075,0.016-2.197-0.594-3.112l-0.681-1.021c-0.17-0.254-0.523-0.304-0.757-0.105l-4.828,4.104
				c-0.93,0.79-2.063,1.302-3.271,1.479l-1.017,0.147c-0.729,0.106-1.443,0.3-2.128,0.574l-1.296,0.521
				c-0.133,0.063-0.365,0.234-0.597,0.426c-0.378,0.311-0.702,0.682-0.965,1.094l-0.492,0.776
				C785.745,552.612,785.873,552.838,786.079,552.833z"/>
		</g>
		<path fill="#F0A5A6" d="M829.31,483.755c0.644,1.478,1.214,3.094,1.673,4.816l1.889,7.093c0.011,0.039,0.021,0.077,0.028,0.117
			c3.092,15.368,6.675,35.704,7.563,45.199c0,0-3.128,1.587-5.311,0.658c-3.947-8.338-18.238-49.514-18.238-49.514
			c-0.797-2.994-1.152-5.872-1.114-8.37H829.31z"/>
		<g>
			<path fill="#F0A5A6" d="M839.741,537.914l1.076,5.968l-5.889,6.835l-6.835,0.103l4.273-3.445
				c0.479-0.387,0.802-0.935,0.905-1.542l1.145-6.712L839.741,537.914z"/>
			<path fill="#221F1F" d="M836.987,552.534l0.933-0.402c0.729-0.314,1.305-0.903,1.604-1.639l1.943-4.792l1.781,4.134l1.246-0.537
				l-0.877-5.157c-0.194-1.143-0.842-2.158-1.797-2.816l-1.064-0.734c-0.266-0.183-0.632-0.093-0.782,0.192l-1.051,3.578
				c-0.603,1.137-1.651,3.555-2.765,4.198l-2.381,0.998c-1.101,0.282-2.253-0.665-2.97-0.589l-2.509,1.383
				c-1.382,0.922-1.689,1.792-1.741,2.483L836.987,552.534z"/>
		</g>
		<path fill="#255060" d="M827.177,424.113c0.316,0.727,6.989,10.488,3.068,25.988c-0.419,16.43,0.347,32.186,0.609,33.171
			c0,0,9.771,39.213,9.874,53.007c0,0-5.426,4.341-8.525,2.17c-6.045-9.558-16.688-50.942-16.688-50.942
			c-0.848-3.186-11.819-62.854-11.779-65.512L827.177,424.113z"/>
		<path fill="#E5E5E2" d="M824.8,427.503c0,0-22.575,7.182-35.949,0.982c0,0,3.578-23.265,3.021-26.814
			c-0.558-3.551-4.677-4.134-4.579-7.957c0.142-5.571,8.064-14.422,12.204-20.054c0.311-0.387,0.517-0.567,0.685-0.774
			c3.062-0.853,6.988-2.441,9.158-2.286c6.045,0.775,9.591,5.059,12.18,7.634c2.484,6.664-1.249,21.577-0.031,34.597
			C821.882,417.046,824.8,427.503,824.8,427.503z"/>
		<path fill="#F0A5A6" d="M799.049,355.223c0,0,0.854-3.241,4.367-3.138c4.959,0.146,3.293,5.823,5.987,6.722
			c0,0,1.545-1.039,2.593-0.516c1.047,0.524,1.047,3.742-1.722,4.49c0,0-0.674,1.646-0.823,2.62
			c-0.149,0.973,0.36,3.665,0.585,5.237c0,0-4.477,5.539-6.348,6.362s-7.109,2.994-2.245-5.688c0.823-1.646,0.779-3.893,0.779-3.893
			s-2.211,0.501-3.488-3.758C797.34,359.014,799.049,355.223,799.049,355.223z"/>
		<path fill="#D88E92" d="M807.773,365.393c0,0-2.387,4.714-6.329,5.921c0,0,0.758-2.132,0.779-3.893
			C802.223,367.421,804.686,367.357,807.773,365.393z"/>
		<path fill="#46ACC3" d="M811.238,370.91l-4.929,7.566c-0.419,1.54-1.813,6.5-2.278,8.747c0,0-2.17,7.828,1.286,21.544
			c0.857,3.403,2.762,11.097,5.844,14.416c4.03,4.34,5.27,8.989,5.27,16.739s-0.465,12.09-0.465,14.415s-2.325,5.89,5.27,6.045
			c7.596,0.155,14.726,0.62,17.825-2.17s-2.79-20.46-12.71-39.989c-4.34-8.061-4.649-7.75-4.649-16.12s5.27-20.046,0-26.866
			c-1.809-1.653-5.735-3.396-5.735-3.396C814.519,371.272,811.6,370.032,811.238,370.91z"/>
		<path fill="#46ACC3" d="M820.249,423.506c-2.49,1.255-7.595-0.363-10.199-1.641c-2.479-3.333-5.347-10.54-5.425-17.515
			c3.255,0.465,6.562,3.048,5.709-0.595c-0.93-3.771-0.826-17.772,4.237-23.146c1.833-2.224,5.218,2.635,5.993,5.063
			c0.445,0.475,1.25,10.601,1.653,11.16c0.31,3.875-2.054,7.892,0.581,14.453C822.835,411.361,823.836,421.698,820.249,423.506z"/>
		<linearGradient id="SVGID_12_" gradientUnits="userSpaceOnUse" x1="780.4458" y1="404.1948" x2="780.4458" y2="380.9468">
			<stop  offset="0" style="stop-color:#171733"/>
			<stop  offset="0.5817" style="stop-color:#3E3E56"/>
			<stop  offset="0.933" style="stop-color:#505166"/>
		</linearGradient>
		<path fill="url(#SVGID_12_)" d="M776.281,403.664l11.132,0.53c0.499,0.023,0.896-0.41,0.829-0.905l-2.879-21.121
			c-0.052-0.381-0.369-0.671-0.753-0.689l-11.132-0.53c-0.499-0.023-0.896,0.411-0.829,0.905l2.879,21.121
			C775.58,403.355,775.896,403.645,776.281,403.664z"/>
		<path fill="#1B6886" d="M789.644,397.842c1.314,2.076,4.729,5.96,10.083,11.313c0.018,0.018,3.589,3.628,3.589,3.628
			c5.317,5.372,10.074,8.838,13.934,7.696c0,0,2.621-0.762,3.452-4.717c1.592-5.371,4.666-23.435,3.892-33.396
			c-0.826-10.643-6.097-10.333-8.506-7.97c0,0-1.215,1.922-2.408,6.397c0,0-1.475,16.108-0.149,26.611
			c0.622,6.625-16.484-9.58-20.27-12.037C793.26,395.369,789.189,396.638,789.644,397.842z"/>
		<path fill="#F0A5A6" d="M790.58,397.339l-0.919-0.776c-0.513-0.482-1.169-0.643-1.743-0.472c-0.003,0.001-0.006,0.002-0.009,0.002
			c-0.301,0.087-0.993,0.188-1.678,0.085c-0.684-0.103-0.933-0.142-1.147-0.241c-0.004-0.002-0.008-0.005-0.011-0.008
			c-1.041-0.177-2.219-0.737-2.438-0.851c-0.102-0.047-0.515-0.289-0.498-0.497c0.014-0.167,0.224-0.192,0.396-0.196
			c-0.347-0.124-0.604-0.231-0.702-0.275c-0.121-0.046-0.617-0.3-0.609-0.543c0.007-0.243,0.383-0.25,0.583-0.264
			c0.019-0.001,0.043,0,0.072,0.002c-0.313-0.087-0.566-0.172-0.717-0.247c-0.154-0.052-0.546-0.316-0.549-0.626
			c-0.002-0.31,0.329-0.368,0.58-0.397c0.091-0.011,0.301,0.016,0.555,0.058c-0.207-0.091-0.465-0.245-0.467-0.463
			c-0.003-0.31,0.492-0.357,0.743-0.386c0.252-0.029,1.427,0.034,1.909,0.108c0.352,0.055,1.628,0.251,2.293,0.354
			c-0.3-0.222-0.496-0.368-0.496-0.368l-0.491-0.508c-0.37-0.304-0.646-0.979-0.333-0.9l1.504,0.461
			c0.238,0.072,0.472,0.182,0.692,0.323l2.57,1.649c0.064,0.053,0.168,0.138,0.231,0.19l0.269,0.275
			c0.273,0.261,0.601,0.579,0.649,0.633l0.839,0.898l1.588,1.634C793.246,395.994,792.914,396.823,790.58,397.339z"/>
		<path fill="#F0A5A6" d="M772.684,391.491c0.044-0.646,0.312-0.912,0.734-1.068c0.423-0.155,0.827-0.28,0.827-0.28
			s0.978-0.271,1.137,0.026c0.206,0.388-0.294,0.705-0.294,0.705s0.883-0.372,1.172,0.096s-0.727,1.19-0.727,1.19
			s0.604-0.282,0.808,0.133c0.207,0.422-0.16,0.591-0.385,0.824c-0.019,0.02,0.179-0.04,0.254-0.015
			c0.292,0.103,0.264,0.26,0.147,0.561c-0.113,0.289-1.219,1.315-1.915,1.187l0.087,0.68c0,0-0.258,0.275-1.46-0.904
			S772.639,392.137,772.684,391.491z"/>
	</g>
	<circle fill="#0DC3D8" cx="779.543" cy="387.572" r="1.778"/>
</g>
<g>
	<g>
		<g>
			<polygon fill="#8DD0BF" points="703.071,421.793 669.881,421.793 677.467,414.156 710.657,414.156 			"/>
			<polygon fill="#489C9E" points="703.019,421.742 703.019,454.931 710.657,447.344 710.657,414.156 			"/>
			<rect x="669.881" y="421.793" fill="#56B89F" width="33.138" height="33.138"/>
		</g>
		<g>
			<rect x="677.062" y="444.803" fill="#8DD0BF" width="18.621" height="0.752"/>
			<rect x="677.062" y="446.747" fill="#8DD0BF" width="18.621" height="0.753"/>
		</g>
		<g>
			<rect x="677.062" y="440.101" fill="#8DD0BF" width="18.621" height="0.752"/>
			<rect x="677.062" y="442.044" fill="#8DD0BF" width="18.621" height="0.753"/>
		</g>
		<path fill="#8DD0BF" d="M693.458,437.447h-14.671c-0.935,0-1.692-0.758-1.692-1.692v-6.207c0-0.935,0.758-1.693,1.692-1.693
			h14.671c0.935,0,1.692,0.759,1.692,1.693v6.207C695.15,436.689,694.392,437.447,693.458,437.447z"/>
	</g>
	<g>
		<g>
			<polygon fill="#F2C8D6" points="656.093,428.494 614.777,428.494 620.829,422.4 662.145,422.4 			"/>
			<polygon fill="#D29BC3" points="656.051,428.453 656.051,454.931 662.145,448.878 662.145,422.4 			"/>
			<rect x="614.777" y="428.494" fill="#ECACC4" width="41.274" height="26.438"/>
		</g>
		<g>
			<rect x="620.505" y="446.851" fill="#F2C8D6" width="29.694" height="0.6"/>
			<rect x="620.505" y="448.402" fill="#F2C8D6" width="29.694" height="0.6"/>
		</g>
		<g>
			<rect x="620.505" y="443.099" fill="#F2C8D6" width="29.694" height="0.601"/>
			<rect x="620.505" y="444.65" fill="#F2C8D6" width="29.694" height="0.601"/>
		</g>
		<path fill="#F2C8D6" d="M648.423,440.982h-26.542c-0.746,0-1.351-0.604-1.351-1.351v-4.952c0-0.745,0.604-1.35,1.351-1.35h26.542
			c0.746,0,1.351,0.604,1.351,1.35v4.952C649.774,440.377,649.169,440.982,648.423,440.982z"/>
	</g>
	<path fill="#45565D" d="M643.19,467.702h-17.535c-1.038,0-1.879-0.842-1.879-1.879v-2.192c0-1.037,0.841-1.879,1.879-1.879h17.535
		c1.037,0,1.879,0.842,1.879,1.879v2.192C645.069,466.86,644.227,467.702,643.19,467.702z"/>
	<path fill="#45565D" d="M693.646,467.702H676.11c-1.037,0-1.879-0.842-1.879-1.879v-2.192c0-1.037,0.842-1.879,1.879-1.879h17.536
		c1.037,0,1.879,0.842,1.879,1.879v2.192C695.525,466.86,694.683,467.702,693.646,467.702z"/>
</g>
<g>
	<path fill="#42B093" d="M680.684,343.169h-65.915c-6.44,0-11.662-5.221-11.662-11.661v-11.155c0-6.441,5.222-11.662,11.662-11.662
		h65.915c6.441,0,11.662,5.221,11.662,11.662v11.155C692.346,337.949,687.125,343.169,680.684,343.169z"/>
	<path fill="#E5E5E2" d="M656.583,322.162c-0.227-0.354-0.596-0.587-1.013-0.64L637.11,319.2l-0.221-0.027
		c-0.171-0.953-0.313-1.72-0.409-2.192c-0.332-1.644-1.164-2.331-1.803-2.619c-0.213-0.096-0.42-0.154-0.604-0.189
		c-0.06-0.079-0.152-0.131-0.259-0.131h-2.548c-0.179,0-0.324,0.146-0.324,0.325v0.23c0,0.179,0.146,0.325,0.324,0.325h2.548
		c0.072,0,0.139-0.024,0.192-0.064c0.594,0.133,1.469,0.615,1.802,2.26c0.341,1.684,1.279,7.133,2.034,11.512
		c0.558,3.236,0.711,3.977,0.782,4.273l0.011,0.049c0.088,0.369,0.234,0.988,0.659,1.526c0.521,0.658,1.304,1.008,2.329,1.038
		c0.149,0.004,0.336,0.008,0.55,0.012c-0.596,0.042-1.066,0.538-1.066,1.145c0,0.635,0.515,1.149,1.149,1.149
		s1.149-0.515,1.149-1.149c0-0.592-0.448-1.079-1.024-1.142c0.827,0.01,2.007,0.014,3.293,0.014c1.935,0,4.105-0.008,5.667-0.017
		c-0.589,0.051-1.051,0.543-1.051,1.145c0,0.635,0.515,1.149,1.149,1.149s1.149-0.515,1.149-1.149c0-0.607-0.472-1.104-1.069-1.145
		c1.154-0.007,1.936-0.012,1.963-0.012l-0.005-0.686c-0.097,0.001-9.679,0.064-11.834,0c-1.873-0.056-2.178-1.345-2.341-2.036
		l-0.013-0.05c-0.037-0.159-0.11-0.509-0.267-1.361h13.451c1.032,0,1.934-0.66,2.245-1.645l2.021-6.389
		C656.867,322.948,656.81,322.515,656.583,322.162z"/>
</g>
<g opacity="0.5">
	<g>
		<path fill="#C2D3E8" d="M682.821,374.943h-59.545c-0.489,0-0.89-0.4-0.89-0.89v-0.485c0-0.489,0.4-0.89,0.89-0.89h59.545
			c0.489,0,0.89,0.4,0.89,0.89v0.485C683.71,374.542,683.31,374.943,682.821,374.943z"/>
		<path fill="#C2D3E8" d="M682.821,381.535h-70.188c-0.489,0-0.89-0.4-0.89-0.89v-0.486c0-0.488,0.4-0.889,0.89-0.889h70.188
			c0.489,0,0.89,0.4,0.89,0.889v0.486C683.71,381.134,683.31,381.535,682.821,381.535z"/>
		<path fill="#C2D3E8" d="M675.725,388.126h-63.093c-0.489,0-0.89-0.4-0.89-0.89v-0.486c0-0.489,0.4-0.889,0.89-0.889h63.093
			c0.489,0,0.89,0.399,0.89,0.889v0.486C676.615,387.726,676.214,388.126,675.725,388.126z"/>
	</g>
	<g>
		<path fill="#C2D3E8" d="M682.821,394.887h-59.545c-0.489,0-0.89-0.4-0.89-0.89v-0.485c0-0.489,0.4-0.89,0.89-0.89h59.545
			c0.489,0,0.89,0.4,0.89,0.89v0.485C683.71,394.487,683.31,394.887,682.821,394.887z"/>
		<path fill="#C2D3E8" d="M682.821,401.479h-70.188c-0.489,0-0.89-0.4-0.89-0.89v-0.485c0-0.489,0.4-0.89,0.89-0.89h70.188
			c0.489,0,0.89,0.4,0.89,0.89v0.485C683.71,401.079,683.31,401.479,682.821,401.479z"/>
		<path fill="#C2D3E8" d="M675.725,408.071h-63.093c-0.489,0-0.89-0.4-0.89-0.89v-0.485c0-0.489,0.4-0.89,0.89-0.89h63.093
			c0.489,0,0.89,0.4,0.89,0.89v0.485C676.615,407.67,676.214,408.071,675.725,408.071z"/>
	</g>
</g>
<g>
	<g>
		<linearGradient id="SVGID_13_" gradientUnits="userSpaceOnUse" x1="437.3198" y1="552.8325" x2="437.3198" y2="417.2358">
			<stop  offset="0" style="stop-color:#1F4C5B"/>
			<stop  offset="1" style="stop-color:#496A72"/>
		</linearGradient>
		<path fill="url(#SVGID_13_)" d="M607.137,417.619c-29.142,0-58.283,0.011-87.425-0.001c-13.89-0.006-27.791-0.789-41.676-0.096
			c-13.951,0.697-26.48,3.963-39.652,8.462c-7.903,2.699-15.802,5.411-23.694,8.141c-14.905,5.154-29.827,10.289-44.597,15.818
			c-20.591,7.708-40.061,19.428-58.765,30.839c-7.669,4.68-15.175,9.627-22.521,14.799c-6.515,4.586-14.507,8.979-18.146,16.387
			c-2.22,4.521-3.16,9.602-3.16,14.615c0,14.498,8.105,26.25,18.104,26.25h140.521v-13.749c22.7,2.954,55.957-47.818,56.281-55.423
			L607.137,417.619z"/>
		<path fill="#0DC3D8" d="M391.271,534.834H281.786c-2.237,0-4.05-1.813-4.05-4.05v-0.37c0-2.237,1.813-4.05,4.05-4.05h109.486
			c2.237,0,4.05,1.813,4.05,4.05v0.37C395.321,533.021,393.508,534.834,391.271,534.834z"/>
		<path fill="#0C232B" d="M390.476,533.324H284.14c-1.534,0-2.777-1.243-2.777-2.777l0,0c0-1.534,1.244-2.778,2.777-2.778h106.336
			c1.534,0,2.778,1.244,2.778,2.778l0,0C393.254,532.081,392.01,533.324,390.476,533.324z"/>
		<path fill="#527480" d="M621.47,432.36c-1.346-11.19-11.349-17.909-20.31-13.734c0,0-63.976,21.599-89.938,31.317
			c-24.36,9.119-76.893,40.465-91.399,53.112c-5.969,4.292-10.074,13.212-10.074,23.527c0,14.498,8.105,26.251,18.104,26.251
			c6.217,0,11.701-4.546,14.96-11.469c45.793-7.978,86.537-5.12,114.521-0.737c6.96,7.652,15.647,12.206,25.076,12.206
			c4.874,0,9.549-1.225,13.892-3.455c0,0.001,0.007,0.003,0.007,0.003s0.063-0.032,0.155-0.082
			c13.817-7.189,24.21-24.676,26.74-46.034c0.014-0.101,0.03-0.196,0.043-0.297C625.283,486.778,625.06,462.216,621.47,432.36z"/>
		<path fill="#29ABE2" d="M497.402,446.879h-98.399c-0.662,0-0.804-0.932-0.172-1.129l65.332-20.421h99.145
			c0.531,0,0.646,0.749,0.138,0.907L497.402,446.879z"/>
		<g>
			<path fill="#54B89E" d="M332.368,499.169H313.83c-1.229,0-1.663-1.627-0.597-2.238l9.567-5.495
				c0.182-0.104,0.388-0.159,0.597-0.159h18.539c1.228,0,1.662,1.627,0.597,2.238l-9.567,5.495
				C332.784,499.115,332.578,499.169,332.368,499.169z"/>
			<path fill="#FCC14B" d="M361.438,499.169h-18.539c-1.229,0-1.663-1.627-0.597-2.238l9.567-5.495
				c0.182-0.104,0.388-0.159,0.597-0.159h18.539c1.228,0,1.662,1.627,0.597,2.238l-9.567,5.495
				C361.854,499.115,361.647,499.169,361.438,499.169z"/>
			<path fill="#E95F5C" d="M390.172,499.169h-18.538c-1.229,0-1.663-1.627-0.598-2.238l9.567-5.495
				c0.182-0.104,0.388-0.159,0.597-0.159h18.539c1.229,0,1.663,1.627,0.598,2.238l-9.567,5.495
				C390.587,499.115,390.382,499.169,390.172,499.169z"/>
			<path fill="#93CEDC" d="M351.446,488.212h-18.539c-1.229,0-1.662-1.628-0.597-2.239l9.567-5.495
				c0.182-0.104,0.388-0.159,0.597-0.159h18.539c1.228,0,1.662,1.627,0.597,2.239l-9.567,5.495
				C351.861,488.157,351.655,488.212,351.446,488.212z"/>
			<path fill="#93CEDC" d="M380.516,488.212h-18.539c-1.228,0-1.662-1.628-0.597-2.239l9.567-5.495
				c0.182-0.104,0.388-0.159,0.597-0.159h18.539c1.229,0,1.662,1.627,0.597,2.239l-9.567,5.495
				C380.931,488.157,380.725,488.212,380.516,488.212z"/>
			<path fill="#93CEDC" d="M409.25,488.212h-18.539c-1.229,0-1.663-1.628-0.598-2.239l9.567-5.495
				c0.182-0.104,0.388-0.159,0.598-0.159h18.538c1.229,0,1.663,1.627,0.598,2.239l-9.567,5.495
				C409.666,488.157,409.459,488.212,409.25,488.212z"/>
			<path fill="#93CEDC" d="M369.068,478.09H350.53c-1.229,0-1.662-1.628-0.597-2.239l9.567-5.495
				c0.182-0.104,0.388-0.159,0.597-0.159h18.539c1.228,0,1.662,1.627,0.597,2.239l-9.567,5.495
				C369.484,478.035,369.278,478.09,369.068,478.09z"/>
			<path fill="#93CEDC" d="M398.138,478.09H379.6c-1.228,0-1.662-1.628-0.597-2.239l9.567-5.495
				c0.182-0.104,0.388-0.159,0.597-0.159h18.539c1.229,0,1.662,1.627,0.597,2.239l-9.567,5.495
				C398.554,478.035,398.348,478.09,398.138,478.09z"/>
			<path fill="#93CEDC" d="M426.873,478.09h-18.539c-1.229,0-1.663-1.628-0.597-2.239l9.566-5.495
				c0.182-0.104,0.388-0.159,0.598-0.159h18.538c1.229,0,1.663,1.627,0.598,2.239l-9.567,5.495
				C427.288,478.035,427.082,478.09,426.873,478.09z"/>
			<path fill="#93CEDC" d="M388.146,467.132h-18.539c-1.228,0-1.662-1.627-0.597-2.239l9.567-5.494
				c0.182-0.104,0.388-0.16,0.597-0.16h18.539c1.229,0,1.663,1.628,0.597,2.239l-9.567,5.495
				C388.562,467.078,388.355,467.132,388.146,467.132z"/>
			<path fill="#93CEDC" d="M417.216,467.132h-18.539c-1.228,0-1.662-1.627-0.597-2.239l9.567-5.494
				c0.182-0.104,0.388-0.16,0.597-0.16h18.539c1.229,0,1.663,1.628,0.597,2.239l-9.567,5.495
				C417.631,467.078,417.425,467.132,417.216,467.132z"/>
			<path fill="#93CEDC" d="M445.95,467.132h-18.539c-1.229,0-1.663-1.627-0.597-2.239l9.567-5.494
				c0.182-0.104,0.388-0.16,0.597-0.16h18.539c1.228,0,1.662,1.628,0.597,2.239l-9.567,5.495
				C446.366,467.078,446.16,467.132,445.95,467.132z"/>
		</g>
	</g>
	<g>
		<path fill="#FFFFFF" d="M485.604,418.946c0,0-6.795-30.09,38.826-56.783h106.772c0,0-49.989,13.589-46.106,56.783
			C585.096,418.946,485.604,418.461,485.604,418.946z"/>
		<g>
			<path fill="#C2D3E8" d="M583.824,379.917h-63.932c-2.118,0-2.225-1.659-0.236-3.688l0,0c1.988-2.027,5.348-3.687,7.466-3.687
				h63.932c2.118,0,2.225,1.659,0.236,3.687l0,0C589.302,378.257,585.942,379.917,583.824,379.917z"/>
			<path fill="#C2D3E8" d="M576.838,387.187h-59.27c-0.487,0-0.515-0.377-0.062-0.838l0.451-0.458
				c0.453-0.461,1.222-0.838,1.709-0.838h59.27c0.486,0,0.515,0.377,0.061,0.838l-0.45,0.458
				C578.094,386.81,577.325,387.187,576.838,387.187z"/>
			<path fill="#C2D3E8" d="M573.52,393.396h-69.864c-0.487,0-0.515-0.377-0.062-0.838l0.45-0.458
				c0.454-0.461,1.223-0.838,1.709-0.838h69.864c0.486,0,0.515,0.377,0.062,0.838l-0.451,0.458
				C574.776,393.019,574.006,393.396,573.52,393.396z"/>
			<path fill="#C2D3E8" d="M571.238,399.988h-69.863c-0.487,0-0.515-0.377-0.062-0.838l0.45-0.458
				c0.454-0.461,1.223-0.838,1.71-0.838h69.863c0.487,0,0.515,0.377,0.062,0.838l-0.45,0.458
				C572.495,399.611,571.725,399.988,571.238,399.988z"/>
			<path fill="#C2D3E8" d="M570.224,406.579H500.36c-0.487,0-0.515-0.377-0.061-0.838l0.45-0.457
				c0.453-0.461,1.222-0.838,1.709-0.838h69.864c0.486,0,0.515,0.377,0.062,0.838l-0.45,0.457
				C571.48,406.202,570.711,406.579,570.224,406.579z"/>
		</g>
	</g>
</g>
<g>
	<g>
		<g>
			<path fill="#E95F5C" d="M589.151,493.351c1.17-1.702,2.789-3.44,4.874-5.389l-0.042,13.927
				C593.1,500.57,590.866,497.104,589.151,493.351z"/>
		</g>
		<g>
			<path fill="#E95F5C" d="M594.447,508.68c2.62-2.737,5.221-8.021,6.822-11.647c0.941,3.069,0.51,6.435-1.206,11.064
				c-3.426,9.239,2.275,7.438,3.396,6.544c1.119-0.894,3.906-5.906,7.097-3.696c0.164,0.113,0.314,0.246,0.456,0.39
				c-2.812,9.204-14.162,23.419-16.653,26.469L594.447,508.68z"/>
		</g>
		<g>
			<path fill="#E95F5C" d="M593.891,531.692c-1.521-0.85-8.727-5.524-15.561-20.748c3.088-1.884,5.817,2.905,6.92,3.771
				c1.126,0.884,6.843,2.64,3.343-6.572c-2.38-6.262-2.368-10.223,0.226-14.291c2.103,4.55,4.894,8.567,5.161,8.948L593.891,531.692
				z"/>
		</g>
		<g>
			<path fill="#E95F5C" d="M594.45,507.898l0.061-19.896c3.327,3.063,5.477,5.606,6.513,8.325
				C599.515,499.777,596.981,505.042,594.45,507.898z"/>
		</g>
		<g>
			<path fill="#E95F5C" d="M611.388,511.788c2.104,3.005,0.829,10.406-3.09,19.618c-1.2,2.823-2.64,5.501-4.156,8.097
				c-1.494,2.554-3.079,5.03-4.719,7.453c-1.224,1.808-2.468,3.603-3.768,5.333c-0.264,0.353-0.849,0.545-1.344,0.545l0.043-14.201
				C595.901,536.774,608.225,521.758,611.388,511.788z"/>
		</g>
		<g>
			<path fill="#E95F5C" d="M577.913,511.243c7.23,16.094,14.917,20.53,15.978,21.08l-0.063,20.432
				c-0.015-0.006-0.029-0.011-0.044-0.018c-0.28-0.127-0.492-0.403-0.672-0.689c-0.395-0.633-0.838-1.208-1.271-1.806
				c-0.714-0.986-1.419-1.98-2.114-2.985c-1.676-2.423-3.297-4.901-4.826-7.456c-1.566-2.615-3.054-5.313-4.302-8.162
				c-0.018-0.04-0.034-0.08-0.052-0.12C576.208,521.545,575.007,513.685,577.913,511.243z"/>
		</g>
		<path fill="#527480" d="M577.913,511.243c0.068-0.058,0.137-0.115,0.211-0.167c0.068-0.049,0.138-0.09,0.207-0.132
			c6.834,15.224,14.04,19.898,15.561,20.748l0.089-28.892c-0.268-0.381-3.059-4.398-5.161-8.948
			c0.105-0.167,0.218-0.334,0.332-0.501c1.715,3.753,3.949,7.219,4.832,8.538l0.042-13.927c0.046-0.042,0.088-0.083,0.134-0.126
			c0.064-0.055,0.105-0.052,0.174,0.001c0.061,0.056,0.117,0.109,0.178,0.164l-0.061,19.896c2.531-2.856,5.065-8.121,6.573-11.571
			c0.09,0.234,0.173,0.47,0.246,0.706c-1.602,3.627-4.202,8.91-6.822,11.647l-0.089,29.123c2.491-3.05,13.842-17.265,16.653-26.469
			c0.136,0.138,0.262,0.288,0.377,0.453c-3.163,9.971-15.487,24.986-17.033,26.845l-0.043,14.201c-0.181,0-0.348-0.026-0.485-0.079
			l0.063-20.432C592.83,531.773,585.143,527.336,577.913,511.243z"/>
	</g>
</g>
<g>
	<g>
		<g>
			<path fill="#84CE9D" d="M577.8,514.974c0.758-1.072,1.802-2.164,3.145-3.385l-0.145,8.853
				C580.25,519.597,578.859,517.375,577.8,514.974z"/>
		</g>
		<g>
			<path fill="#84CE9D" d="M581.038,524.764c1.689-1.719,3.387-5.056,4.436-7.348c0.572,1.959,0.271,4.095-0.86,7.024
				c-2.255,5.845,1.385,4.748,2.104,4.188c0.72-0.559,2.534-3.722,4.544-2.29c0.104,0.073,0.197,0.159,0.286,0.252
				c-1.865,5.828-9.2,14.769-10.811,16.687L581.038,524.764z"/>
		</g>
		<g>
			<path fill="#84CE9D" d="M580.491,539.389c-0.96-0.554-5.501-3.586-9.718-13.322c1.979-1.171,3.674,1.896,4.367,2.456
				c0.709,0.572,4.328,1.736,2.181-4.149c-1.46-4.001-1.419-6.52,0.264-9.084c1.299,2.91,3.039,5.488,3.206,5.732L580.491,539.389z"
				/>
		</g>
		<g>
			<path fill="#84CE9D" d="M581.046,524.266l0.206-12.647c2.09,1.975,3.435,3.609,4.07,5.348
				C584.335,519.146,582.68,522.471,581.046,524.266z"/>
		</g>
		<path fill="#84CE9D" d="M591.782,526.882c1.313,1.928,0.439,6.622-2.129,12.446c-0.787,1.785-1.725,3.475-2.711,5.112
			c-0.971,1.61-2,3.172-3.063,4.698c-0.793,1.139-1.6,2.27-2.44,3.359c-0.171,0.222-0.544,0.339-0.859,0.334l0.147-9.027
			C581.725,542.637,589.687,533.195,591.782,526.882z"/>
		<g>
			<path fill="#84CE9D" d="M570.504,526.253c4.461,10.293,9.311,13.178,9.979,13.536l-0.212,12.989
				c-0.009-0.004-0.019-0.007-0.027-0.012c-0.177-0.083-0.31-0.261-0.421-0.444c-0.246-0.405-0.523-0.774-0.794-1.158
				c-0.445-0.633-0.885-1.271-1.318-1.916c-1.045-1.555-2.055-3.144-3.006-4.78c-0.974-1.676-1.896-3.404-2.666-5.226
				c-0.011-0.025-0.021-0.051-0.032-0.076C569.334,532.79,568.637,527.782,570.504,526.253z"/>
		</g>
		<path fill="#527480" d="M570.504,526.253c0.044-0.036,0.089-0.072,0.136-0.104c0.044-0.03,0.089-0.056,0.133-0.082
			c4.217,9.736,8.758,12.769,9.718,13.322l0.3-18.367c-0.167-0.244-1.907-2.822-3.206-5.732c0.069-0.105,0.142-0.21,0.216-0.315
			c1.059,2.4,2.449,4.623,3,5.468l0.145-8.853c0.028-0.026,0.057-0.053,0.086-0.079c0.041-0.034,0.067-0.032,0.109,0.002
			c0.039,0.036,0.074,0.07,0.112,0.106l-0.206,12.647c1.634-1.795,3.289-5.12,4.276-7.3c0.055,0.149,0.105,0.299,0.15,0.45
			c-1.049,2.292-2.746,5.629-4.436,7.348l-0.302,18.514c1.61-1.918,8.945-10.858,10.811-16.687c0.085,0.089,0.164,0.186,0.235,0.291
			c-2.095,6.313-10.057,15.755-11.055,16.923l-0.147,9.027c-0.114-0.001-0.221-0.02-0.308-0.054l0.212-12.989
			C579.815,539.431,574.965,536.546,570.504,526.253z"/>
	</g>
</g>
<g>
	<g>
		<g>
			<circle fill="#FED8A7" cx="415.786" cy="398.721" r="18.656"/>
			<path fill="#FED8A7" d="M430.758,387.59c-0.656,1.656-1.448,3.264-2.324,4.813c-3.866,6.842-9.383,13.413-15.917,17.842
				c-2.279,1.545-4.703,2.817-7.211,3.91c2.987,2.032,6.595,3.222,10.48,3.222c10.303,0,18.656-8.353,18.656-18.656
				C434.442,394.549,433.072,390.698,430.758,387.59z"/>
			<path fill="#FED8A7" d="M429.878,398.283c-1.561,3.888-3.568,7.418-6.391,10.538c-3.18,3.515-7.102,6.069-11.262,8.212
				c1.153,0.224,2.342,0.345,3.561,0.345c10.303,0,18.656-8.353,18.656-18.656c0-2.822-0.631-5.496-1.754-7.894
				C431.663,393.272,430.87,395.814,429.878,398.283z"/>
			<circle fill="#F8C22E" cx="415.786" cy="398.721" r="14.622"/>
			<circle fill="#E3F5FF" cx="415.786" cy="398.721" r="13.623"/>
		</g>
		<g>
			<path fill="#0D1D7D" d="M415.239,407.125v-1.845c-2.433-0.203-3.852-1.643-4.055-3.589h1.784
				c0.264,1.257,1.135,1.986,2.271,2.169v-4.906c-2.696-0.811-3.75-1.824-3.75-3.71c0-2.048,1.582-3.406,3.75-3.548v-1.379h1.156
				v1.399c2.697,0.263,3.568,2.007,3.69,3.264h-1.744c-0.223-0.831-0.709-1.643-1.946-1.865v4.42
				c3.102,0.892,3.994,2.189,3.994,3.994c0,2.25-1.5,3.568-3.994,3.751v1.845H415.239z M415.239,397.191v-4.115
				c-1.46,0.121-1.987,0.993-1.987,1.966C413.252,396.036,413.718,396.664,415.239,397.191z M416.395,399.299v4.582
				c1.399-0.142,2.149-0.852,2.149-2.169C418.543,400.637,418.077,399.887,416.395,399.299z"/>
		</g>
	</g>
	<g>
		<g>
			<circle fill="#FED8A7" cx="330.169" cy="409.128" r="25.562"/>
			<path fill="#FED8A7" d="M350.683,393.877c-0.899,2.269-1.984,4.472-3.184,6.595c-5.298,9.375-12.857,18.379-21.81,24.447
				c-3.123,2.116-6.444,3.859-9.881,5.357c4.094,2.784,9.037,4.414,14.361,4.414c14.117,0,25.562-11.444,25.562-25.563
				C355.731,403.413,353.854,398.135,350.683,393.877z"/>
			<path fill="#FED8A7" d="M349.478,408.527c-2.139,5.327-4.89,10.165-8.758,14.439c-4.357,4.816-9.73,8.316-15.43,11.252
				c1.58,0.307,3.209,0.473,4.879,0.473c14.117,0,25.562-11.444,25.562-25.563c0-3.867-0.865-7.531-2.403-10.816
				C351.923,401.663,350.836,405.145,349.478,408.527z"/>
			<circle fill="#F8C22E" cx="330.169" cy="409.128" r="20.035"/>
			<circle fill="#E3F5FF" cx="330.169" cy="409.128" r="18.665"/>
		</g>
		<g>
			<path fill="#0D1D7D" d="M329.419,420.643v-2.527c-3.333-0.278-5.278-2.25-5.556-4.917h2.445c0.361,1.723,1.556,2.723,3.111,2.973
				v-6.723c-3.695-1.111-5.139-2.501-5.139-5.084c0-2.806,2.167-4.667,5.139-4.861v-1.89h1.583v1.917
				c3.694,0.361,4.889,2.75,5.056,4.473h-2.389c-0.306-1.139-0.973-2.25-2.667-2.556v6.056c4.25,1.223,5.473,3,5.473,5.473
				c0,3.084-2.056,4.89-5.473,5.14v2.527H329.419z M329.419,407.032v-5.64c-2,0.167-2.723,1.361-2.723,2.694
				C326.696,405.448,327.335,406.309,329.419,407.032z M331.002,409.92v6.278c1.917-0.194,2.944-1.167,2.944-2.973
				C333.947,411.754,333.308,410.726,331.002,409.92z"/>
		</g>
	</g>
	<g>
		<g>
			<circle fill="#FED8A7" cx="369.62" cy="431.844" r="30.564"/>
			<path fill="#FED8A7" d="M394.149,413.609c-1.075,2.713-2.372,5.346-3.807,7.885c-6.334,11.209-15.374,21.976-26.078,29.231
				c-3.733,2.53-7.705,4.614-11.815,6.405c4.895,3.33,10.805,5.278,17.171,5.278c16.88,0,30.564-13.684,30.564-30.564
				C400.185,425.009,397.94,418.7,394.149,413.609z"/>
			<path fill="#FED8A7" d="M392.708,431.125c-2.557,6.369-5.847,12.153-10.471,17.265c-5.21,5.759-11.634,9.944-18.45,13.453
				c1.889,0.366,3.837,0.565,5.833,0.565c16.88,0,30.564-13.684,30.564-30.564c0-4.624-1.034-9.005-2.874-12.933
				C395.631,422.917,394.332,427.082,392.708,431.125z"/>
			<circle fill="#F8C22E" cx="369.62" cy="431.844" r="23.956"/>
			<circle fill="#E3F5FF" cx="369.62" cy="431.844" r="22.318"/>
		</g>
		<g>
			<path fill="#0D1D7D" d="M368.724,445.613v-3.023c-3.986-0.332-6.311-2.69-6.644-5.879h2.923c0.432,2.06,1.86,3.255,3.72,3.554
				v-8.038c-4.418-1.328-6.145-2.989-6.145-6.078c0-3.354,2.591-5.581,6.145-5.813v-2.259h1.893v2.291
				c4.418,0.433,5.846,3.289,6.045,5.349h-2.856c-0.366-1.362-1.163-2.691-3.189-3.057v7.241c5.082,1.462,6.544,3.588,6.544,6.544
				c0,3.687-2.458,5.846-6.544,6.145v3.023H368.724z M368.724,429.336v-6.743c-2.392,0.2-3.255,1.628-3.255,3.223
				C365.468,427.443,366.232,428.473,368.724,429.336z M370.617,432.792v7.506c2.292-0.232,3.521-1.395,3.521-3.554
				C374.138,434.983,373.374,433.754,370.617,432.792z"/>
		</g>
	</g>
</g>
<rect x="567.944" y="207.282" opacity="0.17" fill="#0488B2" width="162.254" height="54.761"/>
<g>
	<g>
		<polygon fill="#93CEDC" points="681.536,199.201 593.883,199.201 613.918,179.029 701.57,179.029 		"/>
		<polygon fill="#4C98C9" points="681.398,199.063 681.398,286.715 701.57,266.681 701.57,179.029 		"/>
		<rect x="593.883" y="199.201" fill="#59B4C9" width="87.515" height="87.515"/>
	</g>
	<g>
		<rect x="612.848" y="259.969" fill="#93CEDC" width="49.177" height="1.987"/>
		<rect x="612.848" y="265.102" fill="#93CEDC" width="49.177" height="1.987"/>
	</g>
	<g>
		<rect x="612.848" y="247.55" fill="#93CEDC" width="49.177" height="1.987"/>
		<rect x="612.848" y="252.683" fill="#93CEDC" width="49.177" height="1.987"/>
	</g>
	<path fill="#93CEDC" d="M656.147,240.541h-38.745c-2.47,0-4.471-2.001-4.471-4.471v-16.392c0-2.469,2.001-4.471,4.471-4.471h38.745
		c2.469,0,4.471,2.001,4.471,4.471v16.392C660.618,238.54,658.616,240.541,656.147,240.541z"/>
</g>
<path fill="#4C98C9" d="M994.839,558.924H152.945c-1.646,0-2.993-1.347-2.993-2.992l0,0c0-1.646,1.347-2.992,2.993-2.992h841.894
	c1.646,0,2.993,1.347,2.993,2.992l0,0C997.833,557.578,996.486,558.924,994.839,558.924z"/>
</svg>
