<?xml version="1.0" encoding="utf-8"?>
<!-- Generator: Adobe Illustrator 16.0.0, SVG Export Plug-In . SVG Version: 6.00 Build 0)  -->
<!DOCTYPE svg PUBLIC "-//W3C//DTD SVG 1.1//EN" "http://www.w3.org/Graphics/SVG/1.1/DTD/svg11.dtd">
<svg version="1.1" id="Layer_1" xmlns="http://www.w3.org/2000/svg" xmlns:xlink="http://www.w3.org/1999/xlink" x="0px" y="0px"
	 width="100px" height="100px" viewBox="0 0 100 100" enable-background="new 0 0 100 100" xml:space="preserve">
<path fill="#FFFFFF" d="M542,667h90c2.762,0,5,2.238,5,5v90c0,2.762-2.238,5-5,5h-90c-2.762,0-5-2.238-5-5v-90
	C537,669.238,539.238,667,542,667z"/>
<g transform="translate(50 50) scale(0.69 0.69) rotate(0) translate(-50 -50)">
	<path fill="#FFFFFF" d="M-3.616-8.7h-14.146c-2.444,0-4.484,2.022-4.484,4.515c0,2.512,2.007,4.516,4.484,4.516h14.146
		C-1.612,8.12,5.46,13.877,13.877,13.877c8.415,0,15.489-5.757,17.493-13.546h86.392c2.443,0,4.484-2.022,4.484-4.516
		c0-2.511-2.005-4.515-4.484-4.515H31.37c-2.004-7.789-9.078-13.546-17.493-13.546C5.46-22.246-1.612-16.489-3.616-8.7z
		 M68.631,45.485h-86.393c-2.444,0-4.484,2.02-4.484,4.515c0,2.511,2.007,4.515,4.484,4.515h86.393
		c2.004,7.791,9.075,13.547,17.492,13.547c8.418,0,15.488-5.756,17.492-13.547h14.15c2.44,0,4.481-2.02,4.481-4.515
		c0-2.51-2.004-4.515-4.481-4.515h-14.15c-2.004-7.791-9.074-13.547-17.492-13.547C77.706,31.938,70.635,37.695,68.631,45.485z
		 M32.507,99.669h-50.269c-2.444,0-4.484,2.021-4.484,4.516c0,2.511,2.007,4.515,4.484,4.515h50.269
		c2.007,7.788,9.078,13.546,17.493,13.546c8.415,0,15.486-5.757,17.492-13.546h50.273c2.44,0,4.481-2.021,4.481-4.515
		c0-2.512-2.004-4.516-4.481-4.516H67.492C65.486,91.879,58.415,86.123,50,86.123C41.585,86.123,34.514,91.879,32.507,99.669z"/>
</g>
</svg>
