<?xml version="1.0" encoding="utf-8"?>
<!-- Generator: Adobe Illustrator 16.0.0, SVG Export Plug-In . SVG Version: 6.00 Build 0)  -->
<!DOCTYPE svg PUBLIC "-//W3C//DTD SVG 1.1//EN" "http://www.w3.org/Graphics/SVG/1.1/DTD/svg11.dtd">
<svg version="1.1" id="Layer_1" xmlns="http://www.w3.org/2000/svg" xmlns:xlink="http://www.w3.org/1999/xlink" x="0px" y="0px"
	 width="53.383px" height="34.273px" viewBox="0 0 53.383 34.273" enable-background="new 0 0 53.383 34.273" xml:space="preserve">
<g opacity="0.74">
	<g>
		<defs>
			<rect id="SVGID_1_" x="13.864" y="4.209" width="25.654" height="25.658"/>
		</defs>
		<clipPath id="SVGID_2_">
			<use xlink:href="#SVGID_1_"  overflow="visible"/>
		</clipPath>
		<path clip-path="url(#SVGID_2_)" fill="#557EBF" d="M37.187,4.211h-20.99c-1.286,0-2.332,1.045-2.332,2.332v20.991
			c0,1.285,1.046,2.332,2.332,2.332h20.99c1.286,0,2.332-1.047,2.332-2.332V6.543C39.519,5.257,38.473,4.211,37.187,4.211
			 M38.353,27.534c0,0.643-0.524,1.166-1.166,1.166h-20.99c-0.643,0-1.167-0.523-1.167-1.166V10.042h23.323V27.534z M38.353,8.876
			H15.03V6.543c0-0.643,0.523-1.166,1.167-1.166h20.989c0.643,0,1.167,0.523,1.167,1.166V8.876z"/>
		<path clip-path="url(#SVGID_2_)" fill="#557EBF" d="M16.779,6.543c0.322,0,0.583,0.261,0.583,0.583S17.101,7.71,16.779,7.71
			s-0.583-0.261-0.583-0.583S16.458,6.543,16.779,6.543"/>
		<path clip-path="url(#SVGID_2_)" fill="#557EBF" d="M19.111,6.543c0.322,0,0.583,0.261,0.583,0.583S19.434,7.71,19.111,7.71
			c-0.322,0-0.583-0.261-0.583-0.583S18.79,6.543,19.111,6.543"/>
		<path clip-path="url(#SVGID_2_)" fill="#557EBF" d="M21.443,6.543c0.322,0,0.583,0.261,0.583,0.583S21.766,7.71,21.443,7.71
			c-0.322,0-0.583-0.261-0.583-0.583S21.122,6.543,21.443,6.543"/>
		<path clip-path="url(#SVGID_2_)" fill="#557EBF" d="M17.945,22.868h11.662c0.322,0,0.583-0.26,0.583-0.582v-9.329
			c0-0.322-0.261-0.583-0.583-0.583H17.945c-0.322,0-0.583,0.261-0.583,0.583v9.329C17.362,22.608,17.623,22.868,17.945,22.868
			 M18.529,13.54h10.495v8.162H18.529V13.54z"/>
		<path clip-path="url(#SVGID_2_)" fill="#557EBF" d="M21.443,14.707c-0.964,0-1.749,0.784-1.749,1.749v3.499
			c0,0.321,0.261,0.583,0.583,0.583c0.322,0,0.583-0.262,0.583-0.583V19.37h1.166v0.584c0,0.321,0.261,0.583,0.583,0.583
			c0.322,0,0.583-0.262,0.583-0.583v-3.499C23.193,15.491,22.408,14.707,21.443,14.707 M22.026,18.205H20.86v-1.75
			c0-0.321,0.261-0.583,0.583-0.583s0.583,0.261,0.583,0.583V18.205z"/>
		<path clip-path="url(#SVGID_2_)" fill="#557EBF" d="M26.108,14.707h-1.166c-0.322,0-0.583,0.261-0.583,0.583v4.664
			c0,0.321,0.261,0.583,0.583,0.583h1.166c0.965,0,1.749-0.785,1.749-1.749v-2.332C27.857,15.491,27.073,14.707,26.108,14.707
			 M26.691,18.788c0,0.321-0.262,0.582-0.583,0.582h-0.583v-3.497h0.583c0.321,0,0.583,0.261,0.583,0.583V18.788z"/>
		<path clip-path="url(#SVGID_2_)" fill="#557EBF" d="M17.945,26.368h17.491c0.323,0,0.584-0.261,0.584-0.583
			c0-0.323-0.261-0.584-0.584-0.584H17.945c-0.322,0-0.583,0.261-0.583,0.584C17.363,26.107,17.623,26.368,17.945,26.368"/>
		<path clip-path="url(#SVGID_2_)" fill="#557EBF" d="M31.938,15.873h3.498c0.322,0,0.584-0.261,0.584-0.583
			s-0.262-0.583-0.584-0.583h-3.498c-0.322,0-0.583,0.261-0.583,0.583S31.616,15.873,31.938,15.873"/>
		<path clip-path="url(#SVGID_2_)" fill="#557EBF" d="M31.938,19.371h3.498c0.322,0,0.584-0.261,0.584-0.583
			c0-0.323-0.262-0.583-0.584-0.583h-3.498c-0.322,0-0.583,0.26-0.583,0.583C31.355,19.11,31.616,19.371,31.938,19.371"/>
		<path clip-path="url(#SVGID_2_)" fill="#557EBF" d="M31.938,22.869h3.498c0.322,0,0.584-0.261,0.584-0.582
			c0-0.324-0.262-0.585-0.584-0.585h-3.498c-0.322,0-0.583,0.261-0.583,0.585C31.355,22.608,31.616,22.869,31.938,22.869"/>
	</g>
</g>
</svg>
