<?xml version="1.0" encoding="utf-8"?>
<!-- Generator: Adobe Illustrator 16.0.0, SVG Export Plug-In . SVG Version: 6.00 Build 0)  -->
<!DOCTYPE svg PUBLIC "-//W3C//DTD SVG 1.1//EN" "http://www.w3.org/Graphics/SVG/1.1/DTD/svg11.dtd">
<svg version="1.1" id="Layer_1" xmlns="http://www.w3.org/2000/svg" xmlns:xlink="http://www.w3.org/1999/xlink" x="0px" y="0px"
	 width="100px" height="100px" viewBox="0 0 100 100" enable-background="new 0 0 100 100" xml:space="preserve">
<path fill="#FFFFFF" d="M542,667h90c2.762,0,5,2.238,5,5v90c0,2.762-2.238,5-5,5h-90c-2.762,0-5-2.238-5-5v-90
	C537,669.238,539.238,667,542,667z"/>
<g transform="translate(50 50) scale(0.69 0.69) rotate(0) translate(-50 -50)">
	<g>
		<path fill="#4D4D4D" d="M-12.518,99.413c-1.545,0-2.819-1.224-2.869-2.78c-0.052-1.584,1.195-2.914,2.778-2.964
			c53.301-1.724,90.188-15.999,109.64-42.43c23.044-31.312,12.94-69.192,12.835-69.572c-0.422-1.529,0.476-3.109,2.004-3.533
			c1.526-0.425,3.109,0.472,3.534,2.004c0.459,1.656,10.936,40.973-13.748,74.507C81.108,82.566,42.729,97.628-12.424,99.413
			C-12.455,99.413-12.488,99.413-12.518,99.413z"/>
	</g>
	<g>
		<path fill="#4D4D4D" d="M12.881,122.133c-0.618,0-1.242-0.2-1.769-0.613l-29.058-22.716c-0.618-0.483-1.011-1.199-1.089-1.98
			c-0.078-0.777,0.163-1.554,0.672-2.153L5.07,67.25c1.032-1.203,2.841-1.346,4.053-0.316c1.204,1.032,1.347,2.843,0.316,4.049
			l-21.482,25.139l26.693,20.872c1.249,0.978,1.471,2.782,0.494,4.032C14.582,121.752,13.737,122.133,12.881,122.133z"/>
	</g>
</g>
</svg>
