<?xml version="1.0" encoding="utf-8"?>
<!-- Generator: Adobe Illustrator 16.0.0, SVG Export Plug-In . SVG Version: 6.00 Build 0)  -->
<!DOCTYPE svg PUBLIC "-//W3C//DTD SVG 1.1//EN" "http://www.w3.org/Graphics/SVG/1.1/DTD/svg11.dtd">
<svg version="1.1" id="Layer_5" xmlns="http://www.w3.org/2000/svg" xmlns:xlink="http://www.w3.org/1999/xlink" x="0px" y="0px"
	 width="622px" height="446.994px" viewBox="120.946 93.456 622 446.994" enable-background="new 120.946 93.456 622 446.994"
	 xml:space="preserve">
<path fill="#FFF2E0" d="M462.311,93.456c28.131,0,50.189,10.26,76.053,18.926c44.168,14.801,108.477,24.396,111.404,78.327
	c1.273,23.438-10.756,47.727-11.178,71.569c-0.492,27.755,8.199,52.253,16.604,78.585c14.318,44.859,8.102,86.431-14.006,128.331
	c-30.186,57.213-82.789,79.688-151.094,68.452c-27.396-4.508-50.881-10.595-79.297-7.914c-27.186,2.563-52.615,13.137-80.316,9.832
	c-32.455-3.872-66.061-23.933-77.383-52.261c-12.252-30.647,5.754-66.732,4.217-98.911c-2.182-45.639-26.025-86.9-20.631-133.257
	c7.287-62.612,39.865-100.842,107.061-116.501C386.69,128.626,417.881,93.456,462.311,93.456z"/>
<path fill="#E53B34" d="M305.057,313.408c-0.891-27.271-23.105-49.563-50.377-50.516c-17.188-0.6-32.621,7.118-42.568,19.416
	l-0.016,0.016c-1.721,2.137-3.289,4.412-4.658,6.826c-1.891,3.29-3.428,6.794-4.58,10.484v0.015
	c-0.415,1.384-0.801,2.752-1.093,4.167v0.015c-0.737,3.274-1.151,6.672-1.229,10.146v0.015c-0.017,0.384-0.017,0.769-0.017,1.153
	c0,1.291,0.048,2.583,0.154,3.875v0.016c0.169,2.475,0.538,4.936,1.061,7.316v0.017c0.953,4.351,2.445,8.501,4.412,12.358v0.017
	c0.508,0.999,1.047,1.983,1.631,2.95c0.123,0.23,0.26,0.463,0.414,0.692c0.631,1.062,1.291,2.105,1.938,3.166
	c2.875,4.658,5.766,9.316,8.518,14.052l6.811,11.791l2.229,3.891l20.479,35.449l1.014,1.782c1.613,2.799,5.643,2.799,7.24,0
	l0.631-1.075l27.148-47.041l0.016-0.03l2.322-4.028c0.199-0.322,0.396-0.66,0.584-0.999c0-0.016,0.016-0.016,0.016-0.03
	c2.182-3.752,4.35-7.486,6.625-11.16c0-0.017,0.016-0.017,0.016-0.031c0.906-1.46,1.814-2.905,2.768-4.335
	c1.799-2.752,3.352-5.673,4.627-8.747c2.521-6.118,3.92-12.852,3.92-19.893C305.088,314.562,305.073,313.977,305.057,313.408z
	 M227.592,326.368v-0.017c-1.029-2.291-1.768-4.75-2.105-7.316v-0.016c-0.199-1.276-0.275-2.567-0.275-3.875
	c0-0.4,0.014-0.769,0.029-1.153v-0.015c0.139-3.597,0.969-7.025,2.383-10.146v-0.015c0.662-1.461,1.445-2.844,2.338-4.167
	c0.016,0,0.016-0.015,0.016-0.015c3.26-4.796,7.992-8.501,13.559-10.484c2.906-1.045,6.025-1.599,9.271-1.599
	c3.242,0,6.379,0.554,9.27,1.599c10.346,3.674,17.832,13.359,18.293,24.827v0.015c0.016,0.384,0.031,0.753,0.031,1.153
	c0,9.977-5.303,18.725-13.268,23.582c-0.016,0-0.016,0.017-0.029,0.017c-4.166,2.521-9.055,3.981-14.297,3.981
	c-5.227,0-10.131-1.461-14.313-3.981c-0.018,0-0.018-0.017-0.031-0.017C233.696,335.807,229.868,331.518,227.592,326.368z"/>
<g>
	<path fill="#8AC249" d="M422.049,199.299h-163.25c0.07-1.87,1.141-3.71,3.189-4.55l174.471-72.66c4.979-2.08,10.5,1.58,10.5,7
		L422.049,199.299z"/>
	<path fill="#ACD480" d="M447.139,269.509c0,5.41-5.49,9.08-10.49,7.01l-174.65-72.21c-2.219-0.92-3.289-2.99-3.199-5.01h163.25
		L447.139,269.509z"/>
</g>
<g>
	<g>
		<polygon fill="#AC8E60" points="343.573,328.618 343.573,362.375 358.167,362.375 358.167,331.904 		"/>
		<polygon fill="#D3B07A" points="305.088,362.563 343.573,362.374 343.573,328.616 305.088,329.955 		"/>
		<rect x="306.792" y="358.754" fill="#434343" width="8.527" height="2.29"/>
		<rect x="316.379" y="360.348" fill="#434343" width="8.527" height="0.696"/>
	</g>
	<polygon fill="#AC8E60" points="429.043,251.796 429.043,339.294 464.184,339.294 464.184,261.593 451.215,257.974 
		442.002,255.405 	"/>
	<polygon fill="#EADFA0" points="442.002,255.405 442.002,271.027 451.215,272.846 451.215,257.974 	"/>
	<polygon fill="#AC8E60" points="340.42,362.377 340.42,420.068 365.52,420.068 365.52,362.376 356.256,362.375 349.676,362.375 	
		"/>
	<polygon fill="#EADFA0" points="349.676,362.375 349.676,371.311 356.256,372.609 356.256,362.375 	"/>
	<polygon fill="#D3B07A" points="294.694,420.067 340.42,420.067 340.42,362.374 294.694,362.619 	"/>
	<rect x="296.967" y="413.88" fill="#434343" width="11.379" height="3.913"/>
	<rect x="296.967" y="411.36" fill="#434343" width="11.379" height="1.188"/>
	<polygon fill="#D3B07A" points="365.022,339.292 429.043,339.292 429.043,251.792 365.022,258.859 	"/>
	<g>
		<rect x="404.102" y="339.299" fill="#AC8E60" width="49.469" height="80.772"/>
		<rect x="354.407" y="339.294" fill="#D3B07A" width="49.693" height="80.774"/>
		<rect x="357.592" y="411.406" fill="#434343" width="15.93" height="5.479"/>
		<rect x="375.502" y="415.219" fill="#434343" width="15.93" height="1.666"/>
	</g>
	<rect x="368.206" y="330.63" fill="#434343" width="15.93" height="5.479"/>
	<rect x="368.206" y="327.104" fill="#434343" width="15.93" height="1.664"/>
</g>
<path fill="#FCBF12" d="M616.598,160.279c-0.232-7.142-6.051-12.98-13.193-13.229c-4.502-0.157-8.543,1.864-11.148,5.085
	l-0.004,0.004c-0.451,0.56-0.861,1.156-1.221,1.788c-0.494,0.862-0.896,1.779-1.199,2.746v0.004
	c-0.109,0.362-0.209,0.721-0.285,1.091v0.004c-0.193,0.857-0.303,1.747-0.322,2.657v0.004c-0.004,0.101-0.004,0.201-0.004,0.302
	c0,0.338,0.014,0.676,0.039,1.015v0.004c0.045,0.648,0.143,1.292,0.277,1.917v0.004c0.25,1.14,0.641,2.227,1.156,3.237v0.004
	c0.133,0.262,0.273,0.52,0.428,0.773c0.031,0.061,0.066,0.121,0.107,0.181c0.166,0.278,0.338,0.552,0.508,0.83
	c0.754,1.22,1.51,2.439,2.23,3.68l1.783,3.088l0.584,1.019l5.363,9.284l0.266,0.467c0.422,0.732,1.477,0.732,1.895,0l0.166-0.282
	l7.109-12.32l0.004-0.008l0.609-1.055c0.053-0.084,0.104-0.173,0.15-0.262c0-0.004,0.004-0.004,0.004-0.008
	c0.572-0.982,1.141-1.96,1.736-2.923c0-0.004,0.004-0.004,0.004-0.008c0.238-0.383,0.477-0.761,0.727-1.136
	c0.471-0.721,0.877-1.485,1.211-2.291c0.66-1.603,1.025-3.366,1.025-5.21C616.606,160.581,616.602,160.428,616.598,160.279z
	 M596.311,163.673v-0.004c-0.271-0.6-0.463-1.244-0.553-1.917v-0.004c-0.053-0.334-0.072-0.672-0.072-1.015
	c0-0.104,0.006-0.201,0.01-0.302v-0.004c0.035-0.942,0.252-1.84,0.623-2.657v-0.004c0.174-0.382,0.379-0.745,0.611-1.091
	c0.004,0,0.004-0.004,0.004-0.004c0.854-1.256,2.094-2.226,3.551-2.746c0.762-0.274,1.578-0.418,2.428-0.418
	s1.672,0.145,2.428,0.418c2.711,0.962,4.672,3.499,4.791,6.502v0.004c0.004,0.101,0.01,0.197,0.01,0.302
	c0,2.613-1.391,4.904-3.475,6.176c-0.004,0-0.004,0.004-0.008,0.004c-1.092,0.66-2.373,1.043-3.746,1.043
	c-1.367,0-2.652-0.383-3.748-1.043c-0.004,0-0.004-0.004-0.008-0.004C597.909,166.145,596.907,165.022,596.311,163.673z"/>
<g>
	<g>
		<g>
			<g>
				<g>
					<path fill="#616363" d="M629.118,131.673v240.091l-0.91,0.76h0.91v87.681c0,18.649-15.119,33.77-33.771,33.77h-151.68
						c-18.65,0-33.77-15.118-33.77-33.77v-81.101h9.219v74.449c0,17.091,13.852,30.94,30.932,30.94h138.92
						c17.08,0,30.93-13.851,30.93-30.94v-315.24c0-17.08-13.85-30.93-30.93-30.93h-138.92c-17.078,0-30.93,13.85-30.93,30.93v115.06
						c-3.271,0.31-6.42,1.34-9.219,2.98v-124.68c0-18.66,15.117-33.78,33.77-33.78h151.68
						C613.999,97.893,629.118,113.013,629.118,131.673z"/>
					<path fill="#616363" d="M619.899,138.313v315.24c0,17.091-13.852,30.94-30.932,30.94h-138.92
						c-17.078,0-30.93-13.851-30.93-30.94v-74.449h-9.219v-122.75c2.799-1.64,5.947-2.67,9.219-2.98v-115.06
						c0-17.08,13.852-30.93,30.93-30.93h138.922C606.047,107.383,619.899,121.233,619.899,138.313z"/>
					<polygon fill="#616363" points="629.118,371.764 629.118,372.523 628.208,372.523 					"/>
					<g>
						<path fill="#FFFFFF" d="M619.899,138.313v315.24c0,17.091-13.852,30.94-30.932,30.94h-138.92
							c-17.078,0-30.93-13.851-30.93-30.94v-315.24c0-17.08,13.852-30.93,30.93-30.93h138.922
							C606.047,107.383,619.899,121.233,619.899,138.313z"/>
						<g>
							<path fill="#616363" d="M543.717,127.771h-43.58c-1.602,0-2.9-1.299-2.9-2.901l0,0c0-1.603,1.299-2.901,2.9-2.901h43.58
								c1.602,0,2.9,1.299,2.9,2.901l0,0C546.618,126.473,545.319,127.771,543.717,127.771z"/>
							<circle fill="#616363" cx="486.235" cy="124.871" r="2.901"/>
						</g>
					</g>
				</g>
				<g>
					<rect x="422.411" y="151.803" fill="#E8E7E7" width="194.195" height="278.357"/>
					<polygon fill="#BEDDA8" points="526.668,292.159 514.551,239.193 486.665,247.635 488.428,255.332 488.428,255.348 
						491.729,269.748 498.014,297.24 522.811,295.8 527.438,295.535 					"/>
					<g>
						<path fill="#43B2E5" d="M465.778,215.664c-9.48,0-17.094-1.535-22.934-3.476c-15.342-5.099-20.15-13.918-20.436-14.292
							l0.018-5.01l1.979,1.994c0.057,0.074,6.352,8.119,20.369,12.679c13.033,4.24,35.609,6.255,69.133-8.219
							c35.207-15.203,61.682-11.712,77.689-6.106c13.109,4.59,24.957,14.391,24.957,14.391l0.053,7.258
							c0,0-10.572-11.363-26.93-17.024c-15.129-5.234-40.207-8.43-73.789,6.071C495.485,212.741,478.856,215.664,465.778,215.664z"
							/>
					</g>
					<path fill="#FFFFFF" d="M422.426,404.809l59.258-17.916l9.881,43.229l-0.107,0.022h22.924l15.047-4.537l9.645-2.906
						l1.697,7.443h6.633l-2.152-9.313l34.375-10.399l4.498,19.713h6.65l-4.949-21.579l30.779-9.289v-6.926l-32.244,9.715
						l-17.092-74.713v-0.023l-3.422-14.914l20.578-1.182l32.18-1.891v-6.736l-4.455,0.26l-3.338-14.56L590.6,208.725l-2.043-8.935
						l20.557-6.216h0.02l1.1-0.331l-1.1-4.893l-0.02-0.094l-0.346-1.513l-21.695,6.571l-7.533-32.972v-0.023l-1.939-8.509h-6.629
						l1.938,8.509v0.023l7.965,34.839l-41.006,12.385l-10.783-47.225v-0.023l-1.939-8.509h-6.648l1.959,8.509v0.023l11.063,48.383
						l0.172,0.709l-34.375,10.376l-2.541-11.085l-11.063-48.383v-0.023l-1.959-8.509h-6.607l1.938,8.509v0.023l11.064,48.383
						l2.971,12.952l-39.822,12.054l-1.979-8.651l-0.346-1.512v-0.047l-3.4-14.796l-11.084-48.383v-0.023l-1.939-8.509h-6.605
						l1.959,8.532v0.048l11.041,48.335l0.754,3.214l4.412,19.358l0.988,4.302l-2.453,0.732h-0.02l-3.66,1.111l-18.533,5.602v6.925
						l10.764-3.262h0.021l15.346-4.632l3.811,16.663l12.055,52.708l-20.686,1.04h-0.021l-21.287,1.111v6.736l15.391-0.779
						l22.623-1.183l5.51-0.283l14.25,62.327l-57.773,17.467v6.928H422.426z M526.133,419.675l-28.369,8.58l-9.9-43.229l16.811-5.082
						l23.031-6.948l9.9,43.229L526.133,419.675z M578.159,403.957l-34.375,10.4l-4.197-18.39l34.375-10.377L578.159,403.957z
						 M568.258,360.729l4.219,18.364l-34.396,10.399l-4.197-18.365L568.258,360.729z M566.793,354.229l-34.375,10.398l-5.402-23.659
						l5.166-1.56h0.021l29.188-8.793l0.432,1.844v0.023L566.793,354.229z M521.053,314.897l36.248-2.104l2.584,11.321l-32.373,9.786
						l-2.004,0.591l-0.902-4.019L521.053,314.897z M603.366,293.436l2.236,9.809l-13.539,0.804l-29.727,1.725l-13.754-60.129
						l-1.205-5.2l46.688,12.361L603.366,293.436z M582.379,201.635l1.613,7.091l8.373,36.612l-46.689-12.409l-4.305-18.885
						l17.607-5.318L582.379,201.635z M535.153,215.911l3.465,15.15l-28.541-7.563L535.153,215.911z M540.34,238.554l15.455,67.599
						l-36.27,2.104l-18.299-80.078L540.34,238.554z M461.989,271.81l-4.713-20.563v-0.023l-2.52-10.991l39.82-12.054l17.307,75.635
						l1.1,4.822l-6.609,0.378l-35.408,2.057L461.989,271.81z M472.881,319.459l-0.387-1.725l39.324-2.293h0.021l2.668-0.165
						l1.033,4.514v0.022l10.676,46.705l-24.666,7.444l-15.152,4.586L472.881,319.459z"/>
					<circle fill="#FFFFFF" cx="537.815" cy="211.321" r="9.525"/>
				</g>
			</g>
			<g>
				<path fill="#43B2E5" d="M619.899,263.771v102.11c-3.643-1.63-7.682-2.529-11.932-2.529c-4.068,0-7.951,0.83-11.479,2.311
					c-1.32,0.561-2.59,1.21-3.803,1.949c0,0,0,0-0.01,0c-0.799,0.49-1.59,1.021-2.34,1.591h-0.01c-0.75,0.569-1.48,1.159-2.18,1.79
					c-0.342,0.33-0.689,0.65-1.02,0.979c-2,2-3.711,4.28-5.082,6.791c-1.59,2.92-2.699,6.141-3.229,9.551
					c-0.07,0.489-0.131,0.979-0.189,1.479c-0.102,0.99-0.16,1.99-0.16,3.011h-119.82v0.039h-27.01c0-0.38-0.01-0.76-0.021-1.14
					c-0.02-0.381-0.039-0.75-0.068-1.131c0-0.189-0.021-0.369-0.041-0.549c-0.02-0.19-0.039-0.381-0.059-0.562
					c-0.111-1.04-0.281-2.06-0.512-3.05c-0.029-0.131-0.061-0.26-0.09-0.381c-0.27-1.189-0.619-2.34-1.041-3.459
					c-0.109-0.312-0.229-0.61-0.357-0.92c-0.021-0.041-0.031-0.09-0.061-0.131c-0.07-0.17-0.141-0.34-0.221-0.511
					c-0.07-0.188-0.16-0.38-0.25-0.569c-0.1-0.221-0.211-0.439-0.32-0.66c-0.1-0.229-0.221-0.449-0.35-0.68
					c-0.141-0.271-0.279-0.529-0.43-0.779c-0.32-0.59-0.67-1.16-1.053-1.721c-0.119-0.189-0.25-0.359-0.369-0.539
					c-0.328-0.49-0.67-0.961-1.051-1.42c-0.18-0.24-0.369-0.472-0.559-0.69c-0.381-0.45-0.771-0.899-1.172-1.32
					c-0.109-0.13-0.229-0.26-0.359-0.38c-0.08-0.09-0.17-0.18-0.26-0.26c-0.279-0.29-0.561-0.561-0.85-0.83
					c-0.23-0.2-0.451-0.4-0.68-0.59c-0.182-0.18-0.371-0.33-0.561-0.48c-0.271-0.238-0.553-0.46-0.842-0.658
					c-0.02-0.031-0.041-0.052-0.068-0.062c-0.291-0.22-0.58-0.431-0.881-0.64c-0.398-0.301-0.82-0.58-1.24-0.83
					c-0.248-0.16-0.5-0.312-0.748-0.461c-0.021-0.021-0.041-0.029-0.063-0.039c-0.1-0.07-0.211-0.121-0.311-0.17
					c-0.02-0.03-0.039-0.041-0.061-0.041c-0.01-0.021-0.029-0.029-0.049-0.029h-0.012c-0.209-0.12-0.418-0.24-0.629-0.35
					c-0.379-0.211-0.77-0.41-1.17-0.602c-0.301-0.141-0.609-0.279-0.92-0.409c-0.16-0.081-0.33-0.149-0.5-0.221
					c-0.43-0.181-0.871-0.351-1.313-0.5c-0.277-0.11-0.568-0.2-0.857-0.29c-0.041-0.02-0.08-0.04-0.119-0.04
					c-0.4-0.13-0.811-0.25-1.23-0.359c-0.301-0.079-0.602-0.159-0.9-0.229c-0.689-0.18-1.381-0.311-2.09-0.42
					c-0.131-0.021-0.25-0.041-0.381-0.061c-0.359-0.061-0.709-0.109-1.078-0.141c-0.23-0.03-0.471-0.061-0.711-0.07
					c-0.301-0.029-0.609-0.061-0.92-0.068c-0.08-0.011-0.16-0.011-0.23-0.011c-0.471-0.03-0.949-0.04-1.43-0.04
					c-0.49,0-0.98,0.01-1.471,0.04c-0.08,0-0.16,0-0.238,0.011c-0.371,0.02-0.752,0.049-1.121,0.09c-0.1,0-0.199,0.01-0.289,0.02
					c-0.371,0.041-0.73,0.092-1.102,0.141c-0.141,0.021-0.279,0.041-0.41,0.061c-0.41,0.07-0.818,0.141-1.221,0.221
					c-0.029,0.01-0.059,0.01-0.088,0.02c-0.48,0.102-0.961,0.211-1.432,0.33c-0.029,0.011-0.061,0.011-0.09,0.021
					c-0.439,0.119-0.879,0.239-1.311,0.38c-0.35,0.109-0.689,0.22-1.029,0.341c-1.021,0.358-2.021,0.77-2.99,1.238
					c-0.479,0.24-0.949,0.48-1.42,0.74c-0.449,0.24-0.891,0.5-1.33,0.779c-0.061,0.031-0.119,0.07-0.182,0.11
					c-0.357,0.229-0.719,0.46-1.068,0.71c-0.119,0.08-0.238,0.159-0.359,0.26c-0.279,0.19-0.551,0.391-0.818,0.609
					c-0.172,0.12-0.342,0.25-0.512,0.4c-0.18,0.13-0.359,0.279-0.529,0.439c-0.221,0.17-0.43,0.35-0.641,0.551
					c-0.211,0.18-0.41,0.369-0.609,0.569c-0.17,0.14-0.33,0.3-0.49,0.46c-0.711,0.689-1.381,1.43-2,2.189
					c-0.311,0.369-0.602,0.74-0.881,1.119c-0.318,0.42-0.629,0.852-0.92,1.301c-0.219,0.32-0.43,0.65-0.619,0.98
					c-0.039,0.049-0.07,0.1-0.1,0.159c-0.16,0.25-0.301,0.5-0.439,0.75c-0.102,0.181-0.201,0.351-0.291,0.529
					c-0.01,0.021-0.021,0.03-0.029,0.05c-0.148,0.271-0.301,0.561-0.432,0.841c-0.008,0.021-0.02,0.04-0.029,0.06
					c-0.08,0.15-0.148,0.312-0.209,0.461c-0.051,0.07-0.08,0.14-0.102,0.209c-0.119,0.24-0.229,0.5-0.34,0.75
					c-0.029,0.062-0.049,0.111-0.068,0.171c-0.15,0.341-0.281,0.681-0.41,1.03c-0.051,0.129-0.102,0.27-0.148,0.41
					c-0.143,0.39-0.271,0.77-0.393,1.17c-0.119,0.39-0.24,0.789-0.34,1.188c-0.041,0.142-0.07,0.291-0.109,0.431
					c-0.121,0.45-0.221,0.899-0.311,1.37c-0.08,0.341-0.131,0.681-0.18,1.029c-0.012,0.03-0.021,0.062-0.021,0.101
					c-0.029,0.141-0.049,0.279-0.059,0.42c-0.021,0.041-0.021,0.09-0.021,0.141c-0.061,0.34-0.102,0.689-0.141,1.051v0.029
					c-0.041,0.41-0.07,0.851-0.09,1.271c-0.01,0.04-0.01,0.069-0.01,0.109c-0.012,0.08-0.012,0.159-0.012,0.239
					c-0.029,0.461-0.039,0.92-0.039,1.391H346.6c-4.141,0-7.789-1.539-10.539-4.01c-3.211-2.87-5.191-7-5.313-11.399
					c-0.027-0.95,0.031-1.909,0.191-2.88c0.107-0.75,0.289-1.5,0.52-2.25c0.17-0.529,0.369-1.07,0.602-1.602l0.277-1.148l0.541-2.24
					l2.949-12.26l1.893-7.841c0.479-1.63,2.318-3.33,4.828-4.909c2.74-1.74,6.279-3.359,9.721-4.65l32.59-11.439
					c4.75,0,14.42-9.391,25.031-20.729c3.027-3.24,6.129-6.63,9.219-10.01c7.82-8.56,15.551-17.03,21.689-22.6
					c1.172-1.06,2.449-1.99,3.801-2.78c2.801-1.64,5.949-2.67,9.221-2.98c0.561-0.06,1.129-0.09,1.699-0.1L619.899,263.771z"/>
				<path opacity="0.51" fill="#434343" enable-background="new    " d="M485.823,278.405l-1.789,40.563
					c-0.121,2.632-2.283,4.706-4.926,4.706h-68.594c-1.977,0-3.297-2.042-2.479-3.843c0,0,30.125-35.214,41.535-41.896
					c1.201-0.71,2.184-1.092,2.916-1.092l12.578-0.611l17.732-0.852C484.469,275.38,485.823,276.734,485.823,278.405z"/>
				<g>
					<path fill="#434343" d="M619.899,368.23v49.221c-3.541,1.68-7.49,2.62-11.66,2.62c-15.041,0-27.23-12.19-27.23-27.23
						c0-15.039,12.189-27.229,27.23-27.229C612.409,365.611,616.358,366.552,619.899,368.23z"/>
					<path fill="#FFFFFF" d="M619.899,384.82v16.03c-2.553,3.7-6.82,6.131-11.66,6.131c-7.813,0-14.143-6.33-14.143-14.142
						c0-7.818,6.33-14.148,14.143-14.148C613.079,378.691,617.348,381.121,619.899,384.82z"/>
					<g>
						<circle fill="#434343" cx="607.963" cy="392.839" r="2.479"/>
						<g>
							<g>
								<circle fill="#AFBDC4" cx="615.737" cy="392.839" r="3.315"/>
								<circle fill="#AFBDC4" cx="600.192" cy="392.839" r="3.315"/>
							</g>
							<g>
								<circle fill="#AFBDC4" cx="607.963" cy="385.066" r="3.315"/>
								<circle fill="#AFBDC4" cx="607.963" cy="400.611" r="3.315"/>
							</g>
						</g>
					</g>
				</g>
				<path fill="#434343" d="M346.862,388.834h-19.967c-3.613,0-6.545-2.932-6.545-6.545v-0.25c0-2.545,2.064-4.607,4.609-4.607
					h21.311c1.5,0,2.717,1.215,2.717,2.715v6.563C348.987,387.883,348.036,388.834,346.862,388.834z"/>
				<path fill="#434343" d="M326.604,380.52L326.604,380.52c-1.002,0-1.813-0.813-1.813-1.813V366.74
					c0-1.001,0.811-1.813,1.813-1.813l0,0c1.002,0,1.813,0.812,1.813,1.813v11.966C328.417,379.707,327.606,380.52,326.604,380.52z"
					/>
				<path fill="#434343" d="M327.563,368.536v-0.211c0-0.562,0.455-1.017,1.018-1.017h8.471c0.563,0,1.018,0.455,1.018,1.017v0.211
					c0,0.562-0.455,1.017-1.018,1.017h-8.471C328.018,369.553,327.563,369.098,327.563,368.536z"/>
				<path fill="#434343" d="M326.604,373.426L326.604,373.426c0-0.619,0.504-1.121,1.123-1.121h15.137
					c0.619,0,1.121,0.502,1.121,1.121l0,0c0,0.62-0.502,1.122-1.121,1.122h-15.137C327.106,374.548,326.604,374.046,326.604,373.426
					z"/>
				<path fill="#FFFFFF" d="M358.44,342.297v12.752H335.5c-0.424,0-0.734-0.396-0.637-0.807l1.697-7.028
					c0.471-1.598,2.236-3.255,4.664-4.812c0.107-0.068,0.234-0.105,0.361-0.105H358.44L358.44,342.297z"/>
				<path fill="#F8A722" d="M366.805,355.048h-8.363v-12.755h3.83c4.773,0,8.645,3.87,8.645,8.645l0,0
					C370.915,353.207,369.075,355.048,366.805,355.048z"/>
				<path fill="#434343" d="M439.946,392.839h-8.303c0-16.284-13.203-29.487-29.486-29.487c-16.285,0-29.488,13.203-29.488,29.487
					h-8.303c0-20.866,16.916-37.79,37.791-37.79C423.024,355.049,439.946,371.973,439.946,392.839z"/>
				<path fill="#434343" d="M619.899,356.98v8.899c-3.643-1.63-7.682-2.528-11.932-2.528c-4.068,0-7.951,0.83-11.479,2.31
					c-1.32,0.56-2.59,1.21-3.803,1.95c0,0,0,0-0.01,0c-0.799,0.49-1.59,1.02-2.34,1.59h-0.01c-0.75,0.57-1.48,1.16-2.18,1.79
					c-0.342,0.329-0.689,0.649-1.02,0.979c-2,2-3.711,4.279-5.082,6.789c-1.59,2.922-2.699,6.141-3.229,9.551
					c-0.07,0.49-0.131,0.979-0.189,1.479c-0.102,0.989-0.15,1.989-0.15,3.011v0.039h-8.301v-0.039
					c0.021-20.851,16.93-37.75,37.791-37.75C612.137,355.052,616.149,355.73,619.899,356.98z"/>
				<g>
					<path fill="#434343" d="M421.409,412.091c-0.73,0.73-1.5,1.42-2.291,2.04c-2.799,2.25-5.939,3.852-9.219,4.82
						c-9.262,2.74-19.691,0.45-27-6.86c-10.643-10.63-10.643-27.87,0-38.51c7.309-7.31,17.738-9.59,27-6.851
						c3.277,0.961,6.42,2.57,9.219,4.811c0.791,0.62,1.561,1.311,2.291,2.04C432.038,384.221,432.038,401.461,421.409,412.091z"/>
					<circle fill="#FFFFFF" cx="402.153" cy="392.839" r="14.147"/>
					<g>
						<circle fill="#434343" cx="401.958" cy="392.644" r="2.48"/>
						<g>
							<g>
								<circle fill="#AFBDC4" cx="409.729" cy="392.644" r="3.316"/>
								<circle fill="#AFBDC4" cx="394.184" cy="392.644" r="3.316"/>
							</g>
							<g>
								<circle fill="#AFBDC4" cx="401.958" cy="384.871" r="3.316"/>
								<circle fill="#AFBDC4" cx="401.958" cy="400.416" r="3.316"/>
							</g>
						</g>
					</g>
				</g>
				<path opacity="0.54" fill="#FFFFFF" enable-background="new    " d="M465.067,276.232c-3.223,14.708-5.723,33.63-7.295,47.442
					h-32.287c5.645-14.205,15.418-31.534,24.088-45.739c1.201-0.71,2.184-1.092,2.916-1.092L465.067,276.232z"/>
				<path fill="#434343" d="M408.547,328.307c0.107,3.879,0.082,7.758,0.125,11.639c-0.043,3.879-0.018,7.758-0.125,11.638
					c-0.107-3.88-0.08-7.759-0.125-11.638C408.467,336.064,408.44,332.186,408.547,328.307z"/>
				<path fill="#434343" d="M496.588,277.005l-0.973,26.491l-0.508,13.245l-0.254,6.622c-0.064,2.207-0.227,4.412-0.188,6.623
					l-0.117,53.017l-0.117-53.021c-0.043-2.211,0.1-4.416,0.18-6.625l0.275-6.621l0.555-13.244L496.588,277.005z"/>
				<polygon fill="#434343" points="447.522,383.003 505.065,382.879 562.606,383.003 505.065,383.128 				"/>
				<path fill="#434343" d="M478.86,334.948h-7.07c-0.799,0-1.447-0.647-1.447-1.447l0,0c0-0.799,0.648-1.446,1.447-1.446h7.07
					c0.799,0,1.445,0.647,1.445,1.446l0,0C480.307,334.301,479.659,334.948,478.86,334.948z"/>
				<path fill="#434343" d="M420.381,326.574l-2.033,0.363c-4.004,0.717-7.828-1.947-8.545-5.951l0,0
					c-0.717-4.002,1.947-7.827,5.951-8.543l2.033-0.364L420.381,326.574z"/>
			</g>
		</g>
		<g>
			<g>
				<rect x="543.065" y="361.537" fill="#AC8E60" width="35.848" height="58.534"/>
				<rect x="507.051" y="361.534" fill="#D3B07A" width="36.014" height="58.535"/>
				<rect x="509.358" y="413.792" fill="#434343" width="11.545" height="3.97"/>
				<rect x="522.338" y="416.555" fill="#434343" width="11.543" height="1.207"/>
			</g>
			<g>
				<polygon fill="#AC8E60" points="494.551,385.818 494.551,420.071 509.358,420.071 509.358,389.154 				"/>
				<polygon fill="#D3B07A" points="455.504,420.07 494.551,420.07 494.551,385.818 455.504,387.177 				"/>
				<rect x="457.233" y="416.396" fill="#434343" width="8.648" height="2.322"/>
				<rect x="466.959" y="418.014" fill="#434343" width="8.652" height="0.706"/>
			</g>
			<g>
				<polygon fill="#AC8E60" points="561.137,298.126 561.137,361.534 586.604,361.534 586.604,305.226 577.206,302.603 
					570.53,300.741 				"/>
				<polygon fill="#EADFA0" points="570.53,300.741 570.53,312.062 577.206,313.38 577.206,302.603 				"/>
				<polygon fill="#D3B07A" points="514.743,361.532 561.137,361.532 561.137,298.123 514.743,303.244 				"/>
				<rect x="517.049" y="355.255" fill="#434343" width="11.545" height="3.97"/>
				<rect x="517.049" y="352.699" fill="#434343" width="11.545" height="1.207"/>
			</g>
		</g>
	</g>
	<path fill="#434343" d="M231.135,429.13h388.764v-9.059H231.135c-2.502,0-4.529,2.026-4.529,4.528l0,0
		C226.606,427.103,228.633,429.13,231.135,429.13z"/>
</g>
</svg>
