<?xml version="1.0" encoding="utf-8"?>
<!-- Generator: Adobe Illustrator 16.0.0, SVG Export Plug-In . SVG Version: 6.00 Build 0)  -->
<!DOCTYPE svg PUBLIC "-//W3C//DTD SVG 1.1//EN" "http://www.w3.org/Graphics/SVG/1.1/DTD/svg11.dtd">
<svg version="1.1" id="Layer_1" xmlns="http://www.w3.org/2000/svg" xmlns:xlink="http://www.w3.org/1999/xlink" x="0px" y="0px"
	 width="1159.369px" height="864.359px" viewBox="0 0 1159.369 864.359" enable-background="new 0 0 1159.369 864.359"
	 xml:space="preserve">
<rect x="-127.761" y="-93.133" fill="#FFFFFF" width="1500" height="1062"/>
<linearGradient id="SVGID_1_" gradientUnits="userSpaceOnUse" x1="719.2563" y1="86.8672" x2="719.2563" y2="-4.882813e-004" gradientTransform="matrix(1 0 0 1 193.7275 0)">
	<stop  offset="0" style="stop-color:#85D0EE"/>
	<stop  offset="0.1897" style="stop-color:#9BD9F1"/>
	<stop  offset="0.5319" style="stop-color:#BDE6F6"/>
	<stop  offset="0.8144" style="stop-color:#D2EEF9"/>
	<stop  offset="1" style="stop-color:#DAF1FA"/>
</linearGradient>
<path opacity="0.5" fill="url(#SVGID_1_)" d="M837.279,85.348l-54.262-0.145c0,0-13.171-1.822,7.751-3.599
	c21.454-1.821,21.454-1.821,21.454-1.821s-4.045-6.171,2.87-12.857c7.917-5.484,11.773,3.142,16.091-7.083
	c3.589-8.5,13.473-32.645,38.956-33.902c26.239-1.295,39.491,12.354,39.491,12.354s-3.299-7.424-7.83-9.955
	c0,0,9.365-3.428,17.597-11.484c8.309-8.131,24.775-20.401,52.207-15.885c28.258,4.652,59.688,34.984,56.193,65.016
	c0,0,3.832-0.546,3.869-11.411c0,0,15.347,3.964,15.375,18.301c0.027,14.334-27.988,13.727-32.782,13.968
	C1009.49,87.084,837.279,85.348,837.279,85.348z"/>
<linearGradient id="SVGID_2_" gradientUnits="userSpaceOnUse" x1="460.8267" y1="29.9927" x2="635.2695" y2="29.9927" gradientTransform="matrix(1 0 0 1 193.7275 0)">
	<stop  offset="0" style="stop-color:#DAF1FA"/>
	<stop  offset="0.1856" style="stop-color:#D2EEF9"/>
	<stop  offset="0.4681" style="stop-color:#BDE6F6"/>
	<stop  offset="0.8103" style="stop-color:#9BD9F1"/>
	<stop  offset="1" style="stop-color:#85D0EE"/>
</linearGradient>
<path opacity="0.5" fill="url(#SVGID_2_)" d="M825.069,34.886h-23.479c-0.672-9.753-8.858-17.738-20.896-17.738
	c-9.036,0-17,4.608-21.517,11.165c-4.63-11.84-11.812-22.017-25.982-22.017c-14.409,0-26.42,10.142-26.749,22.032
	c-2.815-1.439-7.115-2.858-12.91-2.572c-10.891,0.537-15.115,10.855-16.649,14.488c-1.845,4.37-3.492,0.683-6.876,3.027
	c-2.955,2.857-1.227,5.495-1.227,5.495s0,0-9.169,0.779c-8.941,0.759-3.313,1.538-3.313,1.538l23.189,0.062
	c0,0,43.683,0.441,64.671,0.596c1.814,1.212,3.939,1.951,5.889,1.951h2.875h8.345h31.162h10.589c3.599,0,8.32-2.503,10.729-5.895
	c0.496-0.698,0.862-1.387,1.102-2.046h5.313c3.105,0,6.785-2.287,8.234-5.202C829.917,37.495,828.45,34.886,825.069,34.886z"/>
<g>
	<g>
		<g>
			<path fill="#FFD22E" d="M988.633,280.357c10.431-31.09,19.514-67.934,27.138-104.448c-4.249-2.742-35.486-24.075-49.652-66.046
				c-8.758,14.772-16.354,30.206-22.184,46.374c-4.409,12.231-7.638,24.97-9.558,37.9
				C939.862,230.908,979.808,271.728,988.633,280.357z"/>
		</g>
		<g>
			<path fill="#FFD22E" d="M1016.407,172.853c14.376-69.557,23.44-137.285,26.423-161.007c-10.256,8.25-18.997,21.152-27.43,31.034
				c-9.729,11.404-19.208,23.065-28.11,35.172c-6.771,9.21-13.217,18.696-19.167,28.472
				C980.815,146.856,1009.775,168.361,1016.407,172.853z"/>
		</g>
		<g>
			<path fill="#FFD22E" d="M1027.788,129.51c-6.867,38.016-15.507,79.54-25.779,116.867c10.162-5.456,53.462-30.016,71.003-61.031
				c6.657-32.848,6.294-67.194-0.372-99.678c-16.574,23.149-44.453,43.768-44.744,43.981L1027.788,129.51z"/>
		</g>
		<g>
			<path fill="#FFD22E" d="M1071.792,81.707c-1.061-4.776-2.25-9.511-3.582-14.188c-5.129-18.006-11.299-40.095-22.376-55.82
				c-2.239,17.864-8.13,62.299-17.322,113.777C1035.882,119.75,1058.458,101.403,1071.792,81.707z"/>
		</g>
		<g>
			<path fill="#FFD22E" d="M1001.225,250.1l-0.164-0.308c-7.553,26.987-15.97,51.607-25.196,70.913
				c4.51-0.69,9.975-3.759,17.651-9.214c41.297-29.345,66.491-71.711,77.605-117.642
				C1048.409,226.139,1001.729,249.847,1001.225,250.1z"/>
		</g>
		<g>
			<path fill="#FFD22E" d="M933.271,203.128c-1.775,17.746-1.048,35.715,2.629,53.117c3.477,16.456,9.555,32.439,18.784,46.675
				c7.209,11.118,11.851,17.049,17.86,17.844c5.284-10.869,10.307-23.497,15.054-37.351
				C981.551,277.667,943.418,240.318,933.271,203.128z"/>
		</g>
		<g>
			<path fill="#A7C4E4" d="M1001.061,249.792l0.164,0.308c0.504-0.253,47.184-23.961,69.896-56.251
				c0.683-2.822,1.313-5.657,1.89-8.503c-17.541,31.016-60.841,55.575-71.003,61.031c10.272-37.327,18.912-78.851,25.779-116.867
				l0.107,0.138c0.291-0.213,28.17-20.832,44.744-43.981c-0.271-1.324-0.554-2.644-0.847-3.96
				c-13.334,19.697-35.91,38.043-43.28,43.769c9.192-51.478,15.083-95.914,17.322-113.777c-0.329-0.466-0.646-0.947-0.984-1.402
				c-0.68,0.495-1.354,1.014-2.021,1.55c-2.982,23.722-12.047,91.45-26.423,161.007c-6.632-4.491-35.592-25.997-48.284-66.329
				c-0.676,1.109-1.342,2.223-2.004,3.34c14.166,41.971,45.403,63.304,49.652,66.046c-7.624,36.514-16.707,73.357-27.138,104.448
				c-8.825-8.629-48.771-49.45-54.256-86.22c-0.444,2.987-0.806,5.986-1.106,8.99c10.147,37.19,48.28,74.54,54.327,80.284
				c-4.747,13.854-9.77,26.482-15.054,37.351c1.057,0.14,2.157,0.12,3.32-0.058C985.091,301.399,993.508,276.779,1001.061,249.792z"
				/>
		</g>
	</g>
</g>
<g>
	<g>
		<g>
			<path fill="#F0A32F" d="M1059.351,385.268c11.814-27.979,22.183-61.608,30.931-95.136c-4.686-3.213-39.121-27.947-54.471-69.792
				c-9.826,12.746-18.37,26.287-24.962,40.779c-4.986,10.962-8.668,22.577-10.903,34.562
				C1005.72,331.342,1049.644,375.812,1059.351,385.268z"/>
		</g>
		<g>
			<path fill="#F0A32F" d="M1091.01,287.325c16.504-63.888,27.105-126.809,30.605-148.875c-11.432,6.345-21.224,17.32-30.647,25.475
				c-10.876,9.412-21.474,19.103-31.437,29.301c-7.58,7.758-14.799,15.824-21.474,24.237
				C1051.79,257.54,1083.7,282.109,1091.01,287.325z"/>
		</g>
		<g>
			<path fill="#F0A32F" d="M1103.979,247.863c-7.923,35.061-17.838,73.192-29.527,107.109c11.304-3.709,59.483-20.755,79.174-47.639
				c7.647-30.19,7.529-62.813,0.41-94.58c-18.555,19.563-49.615,35.096-49.939,35.256L1103.979,247.863z"/>
		</g>
		<g>
			<path fill="#F0A32F" d="M1153.131,208.876c-1.137-4.682-2.415-9.343-3.853-13.971c-5.534-17.815-12.188-39.652-24.333-56.161
				c-2.628,16.617-9.521,57.907-20.131,105.398C1113.028,239.775,1138.194,225.632,1153.131,208.876z"/>
		</g>
		<g>
			<path fill="#F0A32F" d="M1073.552,358.391l-0.18-0.315c-8.59,24.502-18.12,46.636-28.502,63.614
				c5.002-0.005,11.083-2.126,19.634-6.193c46-21.874,74.265-58.417,86.957-100.372
				C1126.03,342.471,1074.114,358.223,1073.552,358.391z"/>
		</g>
		<g>
			<path fill="#F0A32F" d="M998.647,304.048c-2.114,16.573-1.457,33.718,2.474,50.75c3.717,16.107,10.32,32.141,20.429,46.971
				c7.896,11.583,12.989,17.876,19.643,19.498c5.944-9.546,11.612-20.797,16.986-33.25
				C1051.527,381.696,1009.583,340.779,998.647,304.048z"/>
		</g>
		<g>
			<path fill="#FFFFFF" d="M1073.373,358.075l0.18,0.315c0.562-0.168,52.478-15.919,77.909-43.266
				c0.78-2.578,1.502-5.175,2.164-7.792c-19.69,26.883-67.87,43.93-79.174,47.639c11.689-33.917,21.604-72.048,29.527-107.109
				l0.117,0.146c0.324-0.16,31.385-15.693,49.939-35.256c-0.29-1.294-0.592-2.586-0.904-3.878
				c-14.938,16.756-40.104,30.899-48.316,35.266c10.61-47.491,17.503-88.781,20.131-105.398c-0.359-0.49-0.708-0.992-1.078-1.473
				c-0.758,0.372-1.508,0.767-2.252,1.179c-3.5,22.066-14.102,84.986-30.605,148.875c-7.311-5.215-39.221-29.785-52.952-69.862
				c-0.757,0.955-1.505,1.915-2.247,2.878c15.35,41.844,49.785,66.578,54.471,69.792c-8.748,33.527-19.116,67.157-30.931,95.136
				c-9.707-9.456-53.631-53.926-59.405-89.586c-0.516,2.769-0.941,5.561-1.299,8.366c10.937,36.731,52.88,77.648,59.531,83.968
				c-5.374,12.454-11.042,23.705-16.986,33.25c1.17,0.285,2.389,0.424,3.679,0.423
				C1055.252,404.711,1064.783,382.578,1073.373,358.075z"/>
		</g>
	</g>
</g>
<g>
	<g>
		<g>
			<linearGradient id="SVGID_3_" gradientUnits="userSpaceOnUse" x1="1060.3198" y1="437.4448" x2="1100.8687" y2="437.4448">
				<stop  offset="0" style="stop-color:#3DDEED"/>
				<stop  offset="1" style="stop-color:#3DDEED"/>
			</linearGradient>
			<path fill="url(#SVGID_3_)" d="M1069.487,481.417c10.385-14.483,21.237-31.997,31.382-49.501
				c-1.376-1.83-11.273-15.871-9.778-38.442c-6.619,6.476-12.847,13.407-18.427,20.896c-4.221,5.665-8.012,11.711-11.259,17.993
				C1057.024,451.396,1067.172,476.144,1069.487,481.417z"/>
		</g>
		<g>
			<linearGradient id="SVGID_4_" gradientUnits="userSpaceOnUse" x1="1092.3462" y1="391.4722" x2="1143.2603" y2="391.4722">
				<stop  offset="0" style="stop-color:#3DDEED"/>
				<stop  offset="1" style="stop-color:#3DDEED"/>
			</linearGradient>
			<path fill="url(#SVGID_4_)" d="M1101.716,430.449c19.261-33.36,35.827-66.371,41.544-77.954
				c-6.076,3.043-12.342,8.582-17.91,12.639c-6.428,4.681-12.79,9.519-18.979,14.642c-4.709,3.897-9.324,7.967-13.773,12.236
				C1090.753,413.603,1099.608,427.487,1101.716,430.449z"/>
		</g>
		<g>
			<linearGradient id="SVGID_5_" gradientUnits="userSpaceOnUse" x1="1081.7124" y1="429.2573" x2="1142.8003" y2="429.2573">
				<stop  offset="0" style="stop-color:#3DDEED"/>
				<stop  offset="1" style="stop-color:#3DDEED"/>
			</linearGradient>
			<path fill="url(#SVGID_5_)" d="M1114.792,409.92c-10.088,18.339-21.611,38.248-33.08,55.877
				c5.516-1.651,29.264-9.345,42.786-23.031c9.037-15.769,15.239-33.039,18.302-50.048c-11.637,9.843-27.817,17.208-27.986,17.284
				L1114.792,409.92z"/>
		</g>
		<g>
			<linearGradient id="SVGID_6_" gradientUnits="userSpaceOnUse" x1="1115.8618" y1="380.3579" x2="1145.644" y2="380.3579">
				<stop  offset="0" style="stop-color:#3DDEED"/>
				<stop  offset="1" style="stop-color:#3DDEED"/>
			</linearGradient>
			<path fill="url(#SVGID_6_)" d="M1143.159,390.64c0.414-2.509,0.764-5.012,1.04-7.501c1.063-9.582,2.419-21.323,0.421-30.396
				c-4.303,8.723-15.146,30.387-28.758,55.231C1120.189,405.889,1133.598,399.097,1143.159,390.64z"/>
		</g>
		<g>
			<linearGradient id="SVGID_7_" gradientUnits="userSpaceOnUse" x1="1056.3511" y1="473.5688" x2="1122.0854" y2="473.5688">
				<stop  offset="0" style="stop-color:#3DDEED"/>
				<stop  offset="1" style="stop-color:#3DDEED"/>
			</linearGradient>
			<path fill="url(#SVGID_7_)" d="M1080.674,467.583l-0.016-0.172c-8.348,12.731-16.641,24.185-24.308,32.884
				c2.127,0.136,5.118-0.819,9.532-2.736c23.746-10.31,42.766-28.871,56.202-50.728
				C1106.033,460.603,1080.946,467.509,1080.674,467.583z"/>
		</g>
		<g>
			<path fill="#FFD22E" d="M1059.249,436.754c-4.074,8.713-7.081,17.806-8.675,26.929c-1.507,8.628-1.773,17.297-0.318,25.425
				c1.136,6.349,2.095,9.819,4.612,10.861c4.356-4.889,8.923-10.688,13.594-17.131
				C1066.845,479.31,1056.858,456.497,1059.249,436.754z"/>
		</g>
		<g>
			<path fill="#A7C4E4" d="M1080.659,467.411l0.016,0.172c0.271-0.073,25.358-6.979,41.411-20.752
				c0.825-1.343,1.63-2.698,2.413-4.064c-13.522,13.687-37.271,21.38-42.786,23.031c11.469-17.629,22.992-37.538,33.08-55.877
				l0.021,0.081c0.169-0.076,16.35-7.441,27.986-17.284c0.125-0.693,0.244-1.386,0.358-2.078
				c-9.561,8.457-22.97,15.249-27.297,17.333c13.612-24.844,24.455-46.508,28.758-55.231c-0.06-0.269-0.111-0.544-0.177-0.809
				c-0.394,0.176-0.788,0.364-1.183,0.562c-5.717,11.583-22.283,44.593-41.544,77.954c-2.108-2.962-10.963-16.846-9.119-38.437
				c-0.505,0.484-1.007,0.972-1.507,1.461c-1.495,22.571,8.402,36.612,9.778,38.442c-10.145,17.504-20.997,35.018-31.382,49.501
				c-2.314-5.272-12.463-30.021-8.082-49.055c-0.75,1.451-1.466,2.917-2.156,4.392c-2.391,19.743,7.597,42.556,9.213,46.084
				c-4.671,6.443-9.237,12.242-13.594,17.131c0.443,0.183,0.935,0.29,1.483,0.325
				C1064.018,491.595,1072.311,480.142,1080.659,467.411z"/>
		</g>
	</g>
</g>
<linearGradient id="SVGID_8_" gradientUnits="userSpaceOnUse" x1="218.7192" y1="792.5835" x2="218.7192" y2="615.1987" gradientTransform="matrix(-2.9557 0.0302 0.0522 -0.5164 1201.5474 1173.5343)">
	<stop  offset="0" style="stop-color:#85D0EE"/>
	<stop  offset="0.1897" style="stop-color:#9BD9F1"/>
	<stop  offset="0.5319" style="stop-color:#BDE6F6"/>
	<stop  offset="0.8144" style="stop-color:#D2EEF9"/>
	<stop  offset="1" style="stop-color:#DAF1FA"/>
</linearGradient>
<path opacity="0.4" fill="url(#SVGID_8_)" d="M1110.648,777.89c0,0,10.05,0.356,28.415,0.603c3.564-2.045,48.471-6.646,52.056-8.64
	l-198.353,2.068c0,0-812.373,2.912-834.754,3.418c-22.493,0.509-156.94,0.054-158.002,14.056
	c-1.062,14.006,79.859,25.61,79.859,25.61c0.216-2.123,1.109-3.852,2.4-5.259c4.755-5.184,12.901-3.559,15.904,3.014
	c11.848,25.931,140.437,48.564,258.793,51.196c128.213,2.851,206.426-10.074,246.048-18.491
	c39.257-8.339,83.444-12.221,83.444-12.221c-21.03-2.214-35.878-9.279-35.878-9.279s60.984,12.579,184.095,9.821
	c119.56-2.68,204.669-11.867,222.201-20.376c21.086-10.234,17.181-13.094,54.746-18.902
	C1144.597,787.583,1110.648,777.89,1110.648,777.89z"/>
<g opacity="0.25">
	<linearGradient id="SVGID_9_" gradientUnits="userSpaceOnUse" x1="55.2388" y1="302.8735" x2="714.3286" y2="302.8735">
		<stop  offset="0" style="stop-color:#3DDEED"/>
		<stop  offset="1" style="stop-color:#3DDEED"/>
	</linearGradient>
	<path fill="url(#SVGID_9_)" d="M55.602,311.824h261.914c21.661,0,21.625-32.379,0-32.379H59.671
		c1.933-8.663,4.618-16.981,8.382-24.719c9.809-20.163,25.737-34.071,42.33-44.324c18.178-11.232,37.463-18.678,57.17-24.19
		c3.09-26.997,14.945-53.696,29.776-73.877c7.754-10.551,16.261-20.007,25.34-28.451h244.191c15.791,0,15.765-23.604,0-23.604
		H253.456c13.448-8.432,27.602-15.161,42.056-20.393h248.031c26.266,11.859,50.832,29.999,71.777,53.756
		c8.988,10.193,17.441,21.936,24.401,34.785h-40.795c-21.661,0-21.625,32.378,0,32.378h50.604c1.178,0,2.279-0.112,3.329-0.293
		c3.813,13.651,5.576,28.002,4.432,42.683c-0.88,11.285-3.497,22.069-7.364,32.142c11.134,8.7,21.483,18.933,30.616,31.055
		c27.007,35.848,41.606,90.178,29.467,137.766c-1.483,5.816-3.342,11.397-5.475,16.789H537.213c-21.661,0-21.625,32.379,0,32.379
		h149.763c-8.494,12.22-18.267,23.194-28.314,33.156c-35.522,35.219-75.933,61.406-118.507,79.374H198.809
		c-16.606-7.184-32.559-16.444-47.273-28.819c-5.84-4.912-11.419-10.289-16.844-15.932h72.975c21.661,0,21.625-32.379,0-32.379
		H106.489c-0.5-0.606-1.002-1.211-1.501-1.817c-14.216-17.237-28.734-34.991-37.38-57.607c-9.4-24.588-11.052-52.805-11.965-80.226
		C55.234,336.8,55.006,324.214,55.602,311.824z"/>
</g>
<g>
	<path fill="#52517B" d="M978.323,158.107H505.229c-54.67,0-98.99,44.319-98.99,98.989v74.993v364.676
		c0,54.67,44.319,98.989,98.99,98.989h473.094c54.67,0,98.989-44.319,98.989-98.989V332.089v-74.993
		C1077.312,202.426,1032.993,158.107,978.323,158.107z"/>
	<path fill="#81C0F8" d="M963.94,145.227H489.364c-54.842,0-99.3,44.458-99.3,99.299v75.228v365.817c0,54.842,44.458,99.3,99.3,99.3
		H963.94c54.841,0,99.299-44.458,99.299-99.3V319.753v-75.228C1063.239,189.684,1018.781,145.227,963.94,145.227z"/>
	<g>
		<path fill="#F44444" d="M1054.498,249.657c0-53.462-43.34-96.803-96.803-96.803H495.053c-53.463,0-96.803,43.34-96.803,96.803
			v73.336h656.247V249.657z"/>
		<path fill="#F2F2F2" d="M495.053,776.415h462.642c53.463,0,96.803-43.34,96.803-96.803V322.993H398.25v356.619
			C398.25,733.075,441.59,776.415,495.053,776.415z"/>
		<g>
			<g>
				<circle fill="#2E3192" cx="904.064" cy="236.324" r="28.661"/>
				<circle fill="#1B1464" cx="904.064" cy="231.593" r="26.713"/>
				<path fill="#CCCCCC" d="M904.064,249.521L904.064,249.521c-11.986,0-21.703-9.717-21.703-21.703v-93.49
					c0-11.986,9.717-21.703,21.703-21.703l0,0c11.986,0,21.703,9.717,21.703,21.703v93.49
					C925.767,239.804,916.05,249.521,904.064,249.521z"/>
				<path fill="#B3B3B3" d="M882.362,201.583v26.234c0,11.986,9.716,21.703,21.702,21.703s21.703-9.717,21.703-21.703v-60.373
					C913.378,181.452,898.955,195.577,882.362,201.583z"/>
			</g>
			<g>
				<circle fill="#2E3192" cx="548.684" cy="236.324" r="28.661"/>
				<circle fill="#1B1464" cx="548.684" cy="231.593" r="26.713"/>
				<path fill="#CCCCCC" d="M548.684,249.521L548.684,249.521c-11.986,0-21.703-9.717-21.703-21.703v-93.49
					c0-11.986,9.717-21.703,21.703-21.703l0,0c11.986,0,21.703,9.717,21.703,21.703v93.49
					C570.387,239.804,560.67,249.521,548.684,249.521z"/>
				<path fill="#B3B3B3" d="M526.981,201.583v26.234c0,11.986,9.717,21.703,21.703,21.703s21.703-9.717,21.703-21.703v-60.373
					C557.998,181.452,543.574,195.577,526.981,201.583z"/>
			</g>
		</g>
	</g>
</g>
<ellipse fill="#D1E7F4" cx="1083.419" cy="801.274" rx="59.381" ry="6.599"/>
<ellipse fill="#D1E7F4" cx="1060.32" cy="801.683" rx="63.702" ry="7.08"/>
<g>
	<g>
		<g>
			<path fill="#60C0FD" d="M1101.616,776.708c-0.842-18.865,0.269-40.71,2.255-62.144c3.251-0.856,27.371-7.804,44.404-28.859
				c2.846,9.558,4.819,19.301,5.517,29.175c0.529,7.469,0.201,15.036-1.004,22.504
				C1142.321,756.913,1108.921,773.303,1101.616,776.708z"/>
		</g>
		<g>
			<path fill="#60C0FD" d="M1104.04,712.771c3.879-40.807,10.83-79.771,13.389-93.388c5.04,6.176,8.228,14.693,11.787,21.489
				c4.106,7.842,8.003,15.788,11.444,23.89c2.618,6.164,4.974,12.43,6.956,18.779
				C1131.839,703.918,1109.153,711.317,1104.04,712.771z"/>
		</g>
		<g>
			<path fill="#60C0FD" d="M1104.898,686.964c-2.757,22.148-5.036,46.519-5.473,68.816c-5.507-4.612-28.726-24.991-34.155-44.926
				c1.917-19.25,8.632-38.234,19.051-55.202c6.293,15.422,20.335,31.208,20.482,31.372L1104.898,686.964z"/>
		</g>
		<g>
			<path fill="#60C0FD" d="M1085.613,653.589c1.584-2.482,3.242-4.922,4.982-7.307c6.697-9.182,14.835-20.463,24.928-27.451
				c-1.931,10.254-6.528,35.809-10.33,65.783C1101.533,680.29,1090.473,666.592,1085.613,653.589z"/>
		</g>
		<g>
			<path fill="#60C0FD" d="M1099.227,757.967l0.163-0.145c-0.235,16.141,0.533,31.104,2.824,43.249
				c-2.77-1.087-5.706-3.642-9.615-7.865c-21.026-22.72-29.237-50.143-27.718-77.342
				C1073.397,737.314,1098.95,757.749,1099.227,757.967z"/>
		</g>
		<g>
			<path fill="#60C0FD" d="M1151.802,742.542c-2.206,10.115-6.065,19.964-11.715,29.036c-5.342,8.58-12.269,16.492-20.892,22.942
				c-6.735,5.038-10.84,7.601-14.856,7.103c-1.348-6.852-2.195-14.637-2.634-23.059
				C1106.678,776.324,1138.256,761.574,1151.802,742.542z"/>
		</g>
		<g>
			<path fill="#D1E7F4" d="M1099.39,757.823l-0.163,0.145c-0.277-0.219-25.83-20.653-34.346-42.103
				c0.093-1.671,0.223-3.342,0.389-5.01c5.43,19.935,28.648,40.313,34.155,44.926c0.437-22.298,2.716-46.668,5.473-68.816
				l-0.095,0.061c-0.147-0.164-14.189-15.95-20.482-31.372c0.425-0.691,0.855-1.38,1.292-2.063c4.86,13.003,15.92,26.7,19.58,31.025
				c3.802-29.975,8.399-55.529,10.33-65.783c0.3-0.207,0.595-0.424,0.897-0.624c0.345,0.381,0.68,0.774,1.008,1.176
				c-2.559,13.617-9.51,52.581-13.389,93.388c5.113-1.454,27.8-8.853,43.576-29.229c0.225,0.721,0.443,1.442,0.659,2.164
				c-17.033,21.056-41.153,28.003-44.404,28.859c-1.986,21.434-3.097,43.278-2.255,62.144c7.306-3.405,40.705-19.796,51.172-39.324
				c-0.278,1.726-0.611,3.444-0.985,5.157c-13.546,19.032-45.124,33.782-50.097,36.022c0.438,8.422,1.286,16.207,2.634,23.059
				c-0.706-0.088-1.41-0.271-2.125-0.551C1099.923,788.927,1099.155,773.963,1099.39,757.823z"/>
		</g>
	</g>
</g>
<g>
	<g>
		<g>
			<path fill="#FF7FAF" d="M1061.306,774.648c-1.493-20.112-1.355-43.445-0.417-66.359c2.878-0.984,24.203-8.922,38.63-31.759
				c2.923,10.137,5.072,20.489,6.084,31.011c0.767,7.958,0.77,16.039-0.017,24.034
				C1096.979,752.64,1067.714,770.855,1061.306,774.648z"/>
		</g>
		<g>
			<path fill="#FF7FAF" d="M1060.97,706.371c1.873-43.627,6.57-85.354,8.327-99.939c4.756,6.48,7.944,15.5,11.397,22.674
				c3.984,8.278,7.785,16.672,11.185,25.243c2.586,6.52,4.94,13.154,6.965,19.887C1085.516,696.32,1065.492,704.708,1060.97,706.371
				z"/>
		</g>
		<g>
			<path fill="#FF7FAF" d="M1060.727,678.816c-1.601,23.692-2.686,49.746-2.203,73.549c-5.111-4.802-26.701-26.042-32.345-47.195
				c0.962-20.583,6.23-40.985,14.896-59.317c6.238,16.319,19.432,32.857,19.569,33.029L1060.727,678.816z"/>
		</g>
		<g>
			<path fill="#FF7FAF" d="M1042.15,643.622c1.32-2.683,2.71-5.321,4.175-7.904c5.637-9.942,12.481-22.157,21.245-29.833
				c-1.327,10.982-4.441,38.351-6.671,70.417C1057.452,671.766,1047.012,657.391,1042.15,643.622z"/>
		</g>
		<g>
			<path fill="#FF7FAF" d="M1058.432,754.703l0.141-0.158c0.423,17.228,1.697,33.178,4.226,46.087
				c-2.523-1.101-5.253-3.763-8.919-8.185c-19.719-23.785-28.146-52.867-27.853-81.924
				C1034.494,733.225,1058.176,754.474,1058.432,754.703z"/>
		</g>
		<g>
			<path fill="#FF7FAF" d="M1104.907,737.099c-1.58,10.841-4.649,21.434-9.352,31.238c-4.447,9.271-10.34,17.863-17.809,24.934
				c-5.834,5.521-9.409,8.346-13.024,7.901c-1.476-7.281-2.539-15.569-3.263-24.547
				C1065.825,774.127,1093.523,757.702,1104.907,737.099z"/>
		</g>
		<g>
			<path fill="#A7C4E4" d="M1058.573,754.544l-0.141,0.158c-0.256-0.229-23.938-21.478-32.405-44.18
				c0.019-1.785,0.069-3.57,0.152-5.354c5.644,21.153,27.233,42.394,32.345,47.195c-0.482-23.803,0.603-49.856,2.203-73.549
				l-0.083,0.065c-0.138-0.172-13.331-16.71-19.569-33.029c0.353-0.747,0.711-1.49,1.075-2.23
				c4.862,13.77,15.302,28.145,18.749,32.68c2.229-32.066,5.344-59.435,6.671-70.417c0.26-0.228,0.516-0.466,0.779-0.686
				c0.323,0.399,0.639,0.811,0.948,1.232c-1.757,14.586-6.454,56.313-8.327,99.939c4.521-1.662,24.546-10.051,37.874-32.136
				c0.229,0.764,0.454,1.528,0.675,2.295c-14.427,22.837-35.752,30.774-38.63,31.759c-0.938,22.914-1.076,46.247,0.417,66.359
				c6.408-3.793,35.673-22.008,44.28-43.073c-0.182,1.847-0.412,3.688-0.68,5.524c-11.384,20.603-39.082,37.028-43.447,39.526
				c0.724,8.978,1.787,17.266,3.263,24.547c-0.636-0.078-1.273-0.258-1.924-0.541
				C1060.27,787.722,1058.996,771.772,1058.573,754.544z"/>
		</g>
	</g>
</g>
<g>
	<g>
		<path fill="#006837" d="M1011.031,687.556c2.2-3.268,5.259-6.613,9.2-10.368l0.171,26.566
			C1018.694,701.255,1014.37,694.684,1011.031,687.556z"/>
		<path fill="#006837" d="M1021.411,716.701c4.948-5.268,9.814-15.395,12.802-22.341c1.853,5.837,1.091,12.264-2.1,21.127
			c-6.367,17.688,4.477,14.148,6.596,12.423s7.346-11.339,13.473-7.181c0.314,0.214,0.603,0.464,0.875,0.735
			c-5.196,17.609-26.589,44.93-31.287,50.793L1021.411,716.701z"/>
		<path fill="#006837" d="M1020.768,760.608c-2.917-1.594-16.747-10.38-30.06-39.297c5.856-3.648,11.151,5.438,13.269,7.068
			c2.165,1.668,13.101,4.912,6.257-12.596c-4.651-11.902-4.7-19.458,0.172-27.266c4.093,8.641,9.49,16.255,10.008,16.977
			L1020.768,760.608z"/>
		<path fill="#006837" d="M1021.401,715.208l-0.244-37.953c6.402,5.782,10.549,10.594,12.575,15.763
			C1030.918,699.625,1026.18,709.713,1021.401,715.208z"/>
		<path fill="#006837" d="M1053.784,722.322c4.068,5.693,1.771,19.835-5.537,37.48c-2.24,5.406-4.936,10.541-7.783,15.519
			c-2.803,4.898-5.781,9.653-8.866,14.304c-2.301,3.47-4.642,6.917-7.089,10.242c-0.498,0.676-1.609,1.054-2.555,1.063l-0.175-27.09
			C1024.694,770.266,1047.931,741.4,1053.784,722.322z"/>
		<path fill="#006837" d="M989.917,721.89c14.084,30.568,28.828,38.892,30.859,39.922l0.251,38.975
			c-0.027-0.011-0.058-0.02-0.084-0.031c-0.537-0.238-0.947-0.762-1.294-1.305c-0.766-1.2-1.621-2.289-2.458-3.421
			c-1.381-1.867-2.743-3.753-4.087-5.656c-3.241-4.592-6.378-9.289-9.344-14.136c-3.034-4.959-5.919-10.08-8.352-15.491
			c-0.034-0.076-0.068-0.151-0.103-0.228C986.852,741.574,984.419,726.601,989.917,721.89z"/>
		<g>
			<path fill="#FFFFFF" d="M989.917,721.89c0.13-0.111,0.26-0.224,0.398-0.323c0.132-0.095,0.263-0.175,0.394-0.256
				c13.313,28.917,27.143,37.703,30.06,39.297l-0.354-55.113c-0.518-0.722-5.915-8.336-10.008-16.977
				c0.2-0.32,0.409-0.641,0.625-0.962c3.339,7.128,7.663,13.699,9.371,16.198l-0.171-26.566c0.086-0.081,0.166-0.16,0.252-0.242
				c0.123-0.105,0.201-0.1,0.331-0.002c0.117,0.105,0.228,0.207,0.343,0.312l0.244,37.953c4.779-5.495,9.518-15.583,12.331-22.19
				c0.175,0.444,0.338,0.892,0.48,1.342c-2.987,6.946-7.854,17.073-12.802,22.341l0.358,55.557
				c4.698-5.863,26.091-33.184,31.287-50.793c0.262,0.261,0.505,0.545,0.728,0.857c-5.853,19.078-29.09,47.944-32.005,51.518
				l0.175,27.09c-0.344,0.003-0.664-0.044-0.927-0.143l-0.251-38.975C1018.745,760.782,1004,752.458,989.917,721.89z"/>
		</g>
	</g>
</g>
<g>
	<g>
		<g>
			<g>
				<path fill="#2C2B57" d="M249.59,779.64c-1.866-13.435-5.501-31.089-10.937-32.236c-2.417-4.732-6.492-1.143-8.019,0.262
					c-4.365,4.018-3.165,9.468,8.071,33.42C248.353,801.653,251.495,793.349,249.59,779.64z"/>
			</g>
		</g>
	</g>
	<path fill="#FFC2B0" d="M141.558,463.652c0,0-7.129,4.002-11.529,6.898c-2.167,1.427-2.495,2.531-0.304,2.652
		s5.87-1.089,6.47-0.584c0.6,0.504,1.349,3.999-0.312,5.635c-1.66,1.635-5.65,5.653-6.502,9.688
		c-0.851,4.035-0.32,8.617,0.454,8.817c0.774,0.199,1.565,0.086,3.199-3.905c1.634-3.992,10.266-18.115,16.603-24.83
		s8.763-7.993,8.763-7.993l-6.158-5.052C152.243,454.979,144.914,462.582,141.558,463.652z"/>
	<path fill="#915151" d="M306.562,281.969c2.47,2.548,4.718,5.503,5.305,8.995c0.606,3.604-0.614,7.476,0.487,10.951
		c2.243,7.077,12.882,9.315,14.252,16.627c0.379,2.021-0.052,4.134,0.137,6.187c0.777,8.43,11.498,13.707,11.018,22.206
		c-0.237,4.203-3.285,7.883-6.66,10.665c-21.383,17.625-60.046,19.546-77.167-2.781c-8.75-11.411-6.111-27.479-6.906-41.9
		c-0.491-8.89-2.448-17.646-5.778-25.839c-0.355-0.875-0.744-1.771-1.443-2.416c-1.011-0.934-2.493-1.196-3.88-1.469
		c-8.948-1.756-17.379-5.552-24.427-10.999c-0.707-0.546-1.425-1.143-1.748-1.965c-0.333-0.847-0.197-1.808-0.014-2.716
		c2.246-11.111,11.127-20.715,21.967-25.236s23.308-4.23,34.056-0.333c4.957,1.797,9.934,4.722,12.927,9.006
		c3.348,4.792,0.838,9.796,3.011,14.5c1.878,4.068,7.925,4.925,11.691,6.841C298.304,274.793,302.778,278.066,306.562,281.969z"/>
	<path fill="#915151" d="M202.384,310.48c-0.45,3.508-0.501,7.22,1.025,10.411c1.575,3.293,4.699,5.75,5.821,9.224
		c2.285,7.074-4.598,15.049-1.511,21.813c0.853,1.869,2.378,3.346,3.395,5.131c4.173,7.333-1.053,17.836,4.122,24.5
		c2.559,3.295,6.975,4.54,11.134,4.861c26.347,2.038,57.047-18.731,57.531-46.854c0.248-14.374-10.863-25.971-18.411-38.206
		c-4.653-7.542-8.106-15.824-10.191-24.438c-0.223-0.92-0.431-1.875-0.261-2.807c0.247-1.347,1.232-2.417,2.141-3.441
		c5.861-6.604,10.171-14.575,12.488-23.095c0.232-0.854,0.446-1.756,0.228-2.614c-0.224-0.884-0.872-1.59-1.526-2.226
		c-8.005-7.775-20.24-10.487-31.1-7.916c-10.86,2.571-20.245,10.013-26.273,19.405c-2.78,4.331-4.938,9.594-4.807,14.822
		c0.147,5.848,4.899,8.484,5.896,13.581c0.862,4.407-3.285,8.601-5.084,12.341C204.649,299.85,203.074,305.108,202.384,310.48z"/>
	<path fill="#FFC2B0" d="M248.353,747.377c0,0-5.408,8.411-5.708,10.815c-0.3,2.403,4.01,12.038,1.202,12.617
		c-6.309,1.302-11.215-12.617-11.215-16.523c0-3.905,3.405-12.316,5.808-14.72S249.554,741.669,248.353,747.377z"/>
	<path fill="#2C2B57" d="M319.481,425.261c0,0,16.793,22.928,19.998,49.746c2.869,24.006-3.25,119.846-4.564,139.679
		c-0.157,2.362-0.899,4.645-2.163,6.646l-84.4,126.046c0,0-9.012,3.404-11.215-5.908c-1.075-4.541,65.491-128.544,65.491-128.544
		s-19.227-140.983-20.829-160.139C280.197,433.631,289.87,403.099,319.481,425.261z"/>
	<path fill="#202044" d="M298.506,620.626c-14.488,27.117-62.281,116.988-61.369,120.843c2.203,9.313,11.215,5.908,11.215,5.908
		l56.234-83.981C303.35,649.004,301.916,634.645,298.506,620.626z"/>
	<path fill="#FFC2B0" d="M294.617,773.814v7.41c0,0-0.601,7.211-1.603,8.612c-1.001,1.402-2.403,3.806-4.606,3.806
		c-2.203,0-24.434-0.4-24.434-0.4s-1.402-3.605,2.804-5.608c4.206-2.003,15.021-2.203,15.622-14.02l6.81-5.007L294.617,773.814z"/>
	<path fill="#2C2B57" d="M266.543,787.353c3.064-1.459,9.463-2.025,13.291-6.393c0.25-0.285,0.656-0.295,0.912-0.015
		c1.686,1.85,4.135,3.081,7.388,3.081c2.621,0,4.709-0.809,6.312-2.079c0.354,0.12,0.565,0.469,0.792,1.299
		c-0.244,2.271-0.49,5.37-1.234,6.413c-1.048,1.467-2.516,3.982-4.821,3.982s-25.573-0.419-25.573-0.419
		S262.141,789.45,266.543,787.353z"/>
	<path fill="#2C2B57" d="M258.895,441.047c0,0-12.545,50.573-9.34,91.431S282.4,773.614,282.4,773.614l12.217,0.2
		c-0.37,2.461-0.572-171.249,3.605-234.326c3.176-47.962-11.416-106.348-11.416-106.348L258.895,441.047z"/>
	<path fill="#81C0F8" d="M258.895,441.047l63.389-11.433c0.031-0.056,0.05-0.087,0.057-0.097c0.05-0.106,0.102-0.213,0.146-0.324
		c0.162-0.379,0.38-0.684,0.631-0.926l-1.991-21.281c-0.957-13.844-2.631-10.438-1.614-24.278c0.365-4.979,2.96-24.995,1.542-29.782
		c-0.78-2.636-26.757-34.79-29.48-36.691c0,0-5.051-1.905-32.273-0.482c-5.391,2.765-16.509,6.377-19.99,9.393
		c-18.006,15.603-9.332,34.081-7.384,41.121C231.927,366.269,251.263,406.74,258.895,441.047z"/>
	<path fill="#81C0F8" d="M213.304,409.819c0.295-0.378,1.916-1.432,3.346-5.063c0.037,0.026,0.072,0.049,0.11,0.075
		c2.515-5.728,10.067-20.07,17.668-33.415c0,0,0,0,0,0c0.014-0.026,0.028-0.05,0.042-0.076c0.682-1.196,1.363-2.382,2.042-3.556
		c6.805-11.405,13.315-17.832,15.365-24.759c3.927-13.274-2.8-17.503-7.852-18.135c-1.59-0.581-8.086,1.38-9.064,2.276
		c-11.521,11.889-11.871,16.273-20.238,31.928c0,0,0,0,0,0c-7.323,13.911-14.888,28.891-17.184,35.303
		c-5.391,6.506-9.635,15.773-14.369,22.452c-5.415,7.64-32.669,39.988-35.589,42.648c1.411,2.506,2.62,3.768,5.92,6.365
		c2.685-1.354,18.507-16.789,20.784-18.549C190.555,434.735,202.078,424.191,213.304,409.819z"/>
	<path fill="#FFC2B0" d="M449.754,282.884c0,0,6.377-5.116,10.708-8.114c2.134-1.477,3.28-1.368,2.574,0.709
		c-0.707,2.078-3.204,5.037-2.96,5.782c0.243,0.745,3.205,2.747,5.343,1.818c2.137-0.929,7.356-3.127,11.417-2.409
		c4.061,0.719,8.112,2.926,8.008,3.718s-0.505,1.484-4.818,1.507s-20.64,2.748-29.237,6.116c-8.597,3.367-10.69,5.139-10.69,5.139
		l-2.382-7.6C437.716,289.552,447.507,285.597,449.754,282.884z"/>
	<path fill="#81C0F8" d="M373.45,328.186c-0.461,0.133-2.043,1.241-5.946,1.211c0.011,0.044,0.019,0.085,0.029,0.13
		c-6.254,0.191-22.379,1.833-37.598,3.894c0,0,0,0,0,0c-0.03,0.003-0.057,0.008-0.086,0.011c-1.365,0.185-2.719,0.374-4.061,0.564
		c-13.123,2.047-21.518,5.682-28.708,4.994c-13.779-1.32-15.188-9.141-13.884-14.062c0.056-1.692,4.304-6.983,5.5-7.556
		c15.334-6.241,19.531-4.926,37.179-6.833c0,0,0,0,0,0c15.64-1.59,32.361-3.007,39.167-2.739c8.05-2.567,18.232-3.04,26.196-4.933
		c9.111-2.166,49.302-15.35,52.861-17.063c1.797,2.246,2.515,3.838,3.69,7.871c-2.259,1.983-22.49,10.888-24.974,12.341
		C405.065,316.402,390.978,323.147,373.45,328.186z"/>
	<path fill="#3840AD" d="M274.474,314.31c3.348,4.353,10.115,11.319,9.393,13.969c-5.54,0.241-16.859-1.927-16.859-1.927
		s-2.77,4.215-7.828,3.011c-2.408,4.094-5.66,12.644-7.827,10.958c-2.167-1.686-7.707-16.136-7.466-18.786s2.649-5.058,10.838-6.744
		C262.914,313.105,269.657,308.048,274.474,314.31z"/>
	<path fill="#FFC2B0" d="M262.021,302.062l5.158,18.921c0,0-0.412,9.342-13.297,5.489c-5.419-2.529-9.134-23.915-9.134-23.915
		L262.021,302.062z"/>
	<path fill="#F2AE9E" d="M262.791,314.651c-1.555,1.829-5.471,3.191-7.788,2.857c-1.916-0.277-7.263-2.281-7.896-4.57
		c-1.498-5.423-2.36-10.38-2.36-10.38l17.274-0.496l2.026,7.435c-0.182,1.39-0.29,3.78-1.105,4.957
		C262.897,314.521,262.846,314.586,262.791,314.651z"/>
	<path fill="#FFC2B0" d="M232.954,257.419c-6.762,6.098-9.441,16.038-7.651,24.966c1.791,8.927,7.673,16.748,15.194,21.878
		c4.916,3.353,11.543,5.619,16.7,2.65c1.993-1.147,3.52-2.958,4.824-4.852c6.497-9.429,8.259-21.955,4.616-32.81
		c-1.567-4.669-4.14-9.094-7.922-12.248C251.5,250.989,239.932,251.125,232.954,257.419z"/>
	<path fill="#915151" d="M244.72,261.092c-3.657-3.02-7.354-6.388-8.864-10.884c-0.346-1.031-0.516-2.31,0.247-3.086
		c0.427-0.435,1.052-0.601,1.649-0.718c7.059-1.381,14.279,1.687,20.165,5.821c3.707,2.604,7.147,5.715,9.483,9.597
		c1.602,2.662,3.221,6.489,2.836,9.682c-0.578,4.799-2.505,3.448-6.534,1.795C256.704,270.428,250.517,265.88,244.72,261.092z"/>
	<path fill="#915151" d="M232.718,271.36c-0.832,2.521-1.685,5.06-3.052,7.335c-1,1.665-2.303,3.197-3.991,4.158
		s-3.802,1.288-5.604,0.563c-1.887-0.758-3.204-2.562-3.83-4.497c-0.626-1.935-0.651-4.008-0.599-6.041
		c0.187-7.277,1.741-15.324,7.591-19.656c3.336-2.471,12.365-6.872,13.902-1.114C238.585,257.546,234.395,266.276,232.718,271.36z"
		/>
</g>
<g opacity="0.5">
	<rect x="419.619" y="612.391" fill="#D9BBEA" width="80.86" height="80.86"/>
	<rect x="508.565" y="612.391" fill="#92CDFA" width="80.86" height="80.86"/>
	<rect x="597.511" y="612.391" fill="#92CDFA" width="80.86" height="80.86"/>
	<rect x="686.457" y="612.391" fill="#92CDFA" width="80.86" height="80.86"/>
	<rect x="419.619" y="523.445" fill="#D9BBEA" width="80.86" height="80.86"/>
	<rect x="508.565" y="523.445" fill="#92CDFA" width="80.86" height="80.86"/>
	<rect x="597.511" y="523.445" fill="#92CDFA" width="80.86" height="80.86"/>
	<rect x="686.457" y="523.445" fill="#92CDFA" width="80.86" height="80.86"/>
	<rect x="775.403" y="523.445" fill="#92CDFA" width="80.859" height="80.86"/>
	<rect x="864.349" y="523.445" fill="#92CDFA" width="80.859" height="80.86"/>
	<rect x="953.294" y="523.445" fill="#ED7651" width="80.86" height="80.86"/>
	<rect x="419.619" y="434.5" fill="#D9BBEA" width="80.86" height="80.859"/>
	<rect x="508.565" y="434.5" fill="#92CDFA" width="80.86" height="80.859"/>
	<rect x="597.511" y="434.5" fill="#92CDFA" width="80.86" height="80.859"/>
	<rect x="686.457" y="434.5" fill="#92CDFA" width="80.86" height="80.859"/>
	<rect x="775.403" y="434.5" fill="#92CDFA" width="80.859" height="80.859"/>
	<rect x="864.349" y="434.5" fill="#92CDFA" width="80.859" height="80.859"/>
	<rect x="953.294" y="434.5" fill="#ED7651" width="80.86" height="80.859"/>
	<rect x="597.511" y="345.554" fill="#92CDFA" width="80.86" height="80.86"/>
	<rect x="686.457" y="345.554" fill="#92CDFA" width="80.86" height="80.86"/>
	<rect x="775.403" y="345.554" fill="#92CDFA" width="80.859" height="80.86"/>
	<rect x="864.349" y="345.554" fill="#92CDFA" width="80.859" height="80.86"/>
	<rect x="953.294" y="345.554" fill="#ED7651" width="80.86" height="80.86"/>
</g>
<g>
	<path fill="#FFFFFF" d="M678.389,276.819c0.373,0,0.667,0.111,0.877,0.333s0.316,0.508,0.316,0.859v1.964h-32.016v-1.192
		c0-0.257,0.064-0.52,0.193-0.789c0.128-0.269,0.298-0.496,0.509-0.684l16.937-17.147c1.402-1.425,2.7-2.805,3.893-4.137
		c1.191-1.333,2.227-2.677,3.103-4.033c0.877-1.355,1.561-2.746,2.052-4.172c0.49-1.425,0.736-2.945,0.736-4.559
		c0-1.823-0.304-3.407-0.912-4.751s-1.415-2.449-2.419-3.314c-1.006-0.864-2.174-1.508-3.507-1.929
		c-1.332-0.42-2.713-0.631-4.139-0.631c-1.565,0-3.009,0.24-4.329,0.719c-1.322,0.479-2.49,1.146-3.507,1.999
		c-1.018,0.854-1.858,1.871-2.525,3.051c-0.666,1.181-1.128,2.472-1.385,3.875c-0.164,0.515-0.381,0.854-0.649,1.017
		s-0.637,0.223-1.104,0.175l-1.719-0.28c0.304-2.127,0.889-4.021,1.754-5.681c0.864-1.66,1.964-3.062,3.296-4.208
		c1.333-1.145,2.876-2.016,4.629-2.612c1.753-0.596,3.646-0.894,5.681-0.894c1.893,0,3.698,0.275,5.417,0.824
		c1.718,0.549,3.238,1.379,4.559,2.489c1.32,1.111,2.367,2.502,3.138,4.173c0.772,1.671,1.157,3.629,1.157,5.874
		c0,1.87-0.285,3.606-0.859,5.207c-0.572,1.602-1.35,3.139-2.332,4.611c-0.98,1.473-2.12,2.905-3.419,4.295
		c-1.297,1.392-2.659,2.812-4.085,4.261l-15.533,15.849c0.748-0.187,1.525-0.327,2.332-0.42c0.806-0.093,1.618-0.141,2.437-0.141
		H678.389z"/>
	<path fill="#FFFFFF" d="M722.325,255.149c0,4.348-0.468,8.112-1.402,11.291c-0.936,3.179-2.209,5.809-3.822,7.89
		c-1.612,2.081-3.501,3.629-5.663,4.646s-4.47,1.525-6.925,1.525s-4.758-0.508-6.908-1.525c-2.151-1.017-4.032-2.565-5.646-4.646
		c-1.613-2.081-2.881-4.71-3.805-7.89c-0.924-3.179-1.385-6.943-1.385-11.291s0.461-8.112,1.385-11.291
		c0.924-3.179,2.191-5.809,3.805-7.89c1.613-2.081,3.494-3.629,5.646-4.646c2.15-1.017,4.453-1.525,6.908-1.525
		s4.763,0.508,6.925,1.525s4.051,2.565,5.663,4.646c1.613,2.081,2.887,4.711,3.822,7.89
		C721.857,247.037,722.325,250.801,722.325,255.149z M718.819,255.149c0-4.021-0.386-7.457-1.157-10.309s-1.806-5.184-3.104-6.996
		c-1.298-1.811-2.817-3.138-4.559-3.98c-1.741-0.841-3.571-1.262-5.487-1.262c-1.917,0-3.74,0.421-5.471,1.262
		c-1.73,0.842-3.249,2.169-4.558,3.98c-1.31,1.812-2.35,4.144-3.121,6.996s-1.157,6.289-1.157,10.309
		c0,4.044,0.386,7.486,1.157,10.327s1.812,5.167,3.121,6.978c1.309,1.812,2.827,3.133,4.558,3.962
		c1.73,0.831,3.554,1.245,5.471,1.245c1.916,0,3.746-0.415,5.487-1.245c1.741-0.829,3.261-2.15,4.559-3.962
		c1.298-1.811,2.332-4.137,3.104-6.978S718.819,259.193,718.819,255.149z"/>
	<path fill="#FFFFFF" d="M759.844,277.38v2.595h-25.598v-2.595h11.396v-40.254c0-0.794,0.035-1.636,0.106-2.524l-10.941,9.713
		c-0.327,0.28-0.654,0.386-0.981,0.315c-0.328-0.07-0.585-0.21-0.771-0.421l-1.017-1.403l14.342-12.658h2.63v47.232H759.844z"/>
	<path fill="#FFFFFF" d="M791.788,259.497c0.701-1.005,1.355-1.946,1.964-2.823c0.607-0.877,1.156-1.736,1.647-2.578
		c-1.355,1.52-3.004,2.695-4.943,3.524c-1.941,0.83-4.011,1.245-6.207,1.245c-2.033,0-3.909-0.333-5.628-0.999
		c-1.718-0.667-3.209-1.619-4.471-2.858c-1.263-1.238-2.244-2.729-2.946-4.471c-0.7-1.741-1.052-3.687-1.052-5.838
		c0-2.127,0.397-4.097,1.192-5.909c0.795-1.811,1.894-3.384,3.296-4.716c1.402-1.332,3.069-2.378,4.997-3.138
		c1.929-0.759,4.038-1.14,6.33-1.14c2.196,0,4.213,0.374,6.049,1.122c1.834,0.749,3.412,1.806,4.732,3.173
		c1.321,1.368,2.35,3.004,3.086,4.909c0.737,1.905,1.104,4.027,1.104,6.364c0,1.286-0.135,2.513-0.402,3.682
		c-0.27,1.169-0.667,2.338-1.192,3.507c-0.526,1.169-1.163,2.367-1.911,3.594c-0.749,1.227-1.602,2.542-2.561,3.944l-13.009,19.076
		c-0.351,0.538-0.923,0.807-1.718,0.807h-3.051L791.788,259.497z M785.161,256.271c1.986,0,3.763-0.339,5.33-1.017
		c1.565-0.678,2.88-1.566,3.944-2.665c1.063-1.099,1.876-2.332,2.437-3.7c0.562-1.367,0.842-2.752,0.842-4.155
		c0-1.8-0.292-3.448-0.876-4.944c-0.585-1.496-1.403-2.776-2.455-3.84c-1.053-1.063-2.297-1.894-3.734-2.49s-3.01-0.894-4.716-0.894
		c-1.848,0-3.53,0.293-5.05,0.877s-2.823,1.402-3.91,2.454c-1.087,1.052-1.935,2.309-2.542,3.77
		c-0.608,1.461-0.911,3.068-0.911,4.822c0,1.823,0.273,3.466,0.823,4.926c0.55,1.461,1.333,2.7,2.35,3.717
		c1.018,1.017,2.244,1.794,3.682,2.332S783.407,256.271,785.161,256.271z"/>
</g>
<g>
	<path fill="#FFFFFF" d="M705.675,200.749c0,1.371-0.168,2.607-0.505,3.708c-0.337,1.102-0.84,2.04-1.509,2.816
		c-0.669,0.775-1.504,1.372-2.503,1.787c-1.001,0.416-2.165,0.624-3.49,0.624c-0.606,0-1.202-0.037-1.786-0.11
		c-0.586-0.073-1.197-0.188-1.839-0.345c0.034-0.45,0.073-0.899,0.119-1.349c0.044-0.449,0.084-0.899,0.118-1.349
		c0.032-0.247,0.131-0.447,0.294-0.598c0.162-0.152,0.396-0.228,0.699-0.228c0.191,0,0.441,0.04,0.751,0.118
		c0.309,0.079,0.698,0.118,1.171,0.118c0.642,0,1.209-0.092,1.703-0.278c0.494-0.186,0.908-0.48,1.24-0.885
		c0.33-0.404,0.581-0.93,0.749-1.576c0.169-0.646,0.254-1.43,0.254-2.352v-15.813h4.533V200.749z"/>
	<path fill="#FFFFFF" d="M731.384,209.414h-3.506c-0.395,0-0.714-0.099-0.962-0.295c-0.247-0.197-0.433-0.44-0.557-0.733
		l-1.819-4.973h-10.099l-1.821,4.973c-0.09,0.259-0.264,0.495-0.522,0.708c-0.258,0.213-0.579,0.32-0.96,0.32h-3.541l9.593-24.377
		h4.618L731.384,209.414z M723.377,200.209l-2.968-8.109c-0.146-0.359-0.298-0.786-0.455-1.281s-0.315-1.028-0.473-1.602
		c-0.146,0.574-0.298,1.11-0.455,1.61c-0.157,0.5-0.309,0.936-0.455,1.307l-2.949,8.075H723.377z"/>
	<path fill="#FFFFFF" d="M754.463,185.037v24.377h-2.328c-0.358,0-0.659-0.06-0.901-0.177c-0.242-0.118-0.475-0.317-0.7-0.599
		l-12.727-16.251c0.067,0.742,0.1,1.427,0.1,2.057v14.97h-3.994v-24.377h2.376c0.191,0,0.358,0.008,0.499,0.025
		c0.14,0.017,0.264,0.05,0.37,0.101c0.106,0.051,0.211,0.125,0.313,0.219c0.101,0.096,0.213,0.223,0.337,0.379l12.777,16.319
		c-0.033-0.393-0.061-0.781-0.084-1.163c-0.022-0.382-0.033-0.736-0.033-1.062v-14.818H754.463z"/>
</g>
</svg>
