<?xml version="1.0" encoding="utf-8"?>
<!-- Generator: Adobe Illustrator 16.0.0, SVG Export Plug-In . SVG Version: 6.00 Build 0)  -->
<!DOCTYPE svg PUBLIC "-//W3C//DTD SVG 1.1//EN" "http://www.w3.org/Graphics/SVG/1.1/DTD/svg11.dtd">
<svg version="1.1" id="Layer_1" xmlns="http://www.w3.org/2000/svg" xmlns:xlink="http://www.w3.org/1999/xlink" x="0px" y="0px"
	 width="184px" height="164.707px" viewBox="25.011 22.91 184 164.707" enable-background="new 25.011 22.91 184 164.707"
	 xml:space="preserve">
<g>
	<g>
		<g>
			<g>
				<path fill="#2B2BB2" d="M82.956,93.206c-1.721,0.954-3.291,3.185-3.496,4.975l-0.663,5.787l0.219-0.121l0.663-5.787
					c0.19-1.664,1.652-3.741,3.25-4.626c1.604-0.889,2.75-0.259,2.56,1.405l-0.663,5.787l0.225-0.125l0.663-5.787
					C85.919,92.924,84.681,92.25,82.956,93.206L82.956,93.206z"/>
			</g>
		</g>
		<polygon fill="#C42355" points="87.962,109.399 94.897,113.429 78.44,122.93 71.507,118.9 		"/>
		<polygon fill="#D83A6C" points="76.238,104.023 76.238,118.624 78.44,122.93 		"/>
		<polygon fill="#B21D52" points="74.066,104.227 71.507,118.9 76.238,118.624 76.238,104.023 		"/>
		<polygon fill="#66072A" points="74.066,104.227 90.522,94.727 90.162,95.984 92.337,95.782 75.882,105.283 76.238,104.023 		"/>
		<polygon fill="#E5416C" points="92.337,95.782 94.897,113.429 78.44,122.93 75.882,105.283 		"/>
		<g>
			<g>
				<path fill="#2B2BB2" d="M83.322,93.267c-1.688,0.975-2.893,3.43-2.685,5.474l0.671,6.602l0.219-0.126l-0.671-6.603
					c-0.193-1.897,0.924-4.175,2.493-5.081c1.569-0.906,2.999-0.099,3.192,1.798l0.671,6.603l0.22-0.127l-0.671-6.602
					C86.553,93.161,85.01,92.292,83.322,93.267L83.322,93.267z"/>
			</g>
		</g>
		<g>
			<g>
				<path fill="#192356" d="M87.317,101.488c-0.135,0.079-0.222,0.278-0.193,0.452c0.027,0.167,0.161,0.247,0.296,0.169
					c0.14-0.08,0.226-0.287,0.198-0.455C87.59,101.481,87.457,101.407,87.317,101.488L87.317,101.488z"/>
			</g>
		</g>
		<g>
			<g>
				<path fill="#192356" d="M81.344,104.972c-0.14,0.082-0.228,0.281-0.199,0.455c0.028,0.174,0.16,0.247,0.301,0.166
					c0.135-0.077,0.228-0.28,0.2-0.455C81.617,104.965,81.48,104.894,81.344,104.972L81.344,104.972z"/>
			</g>
		</g>
	</g>
	<path fill="#FFC2C2" d="M93.55,73.981c-0.542,4.158-7.797,13.636-8.988,15.605c-0.18,0.299-0.53,0.474-0.914,0.525
		c-0.895,0.121-1.974-0.432-1.536-1.649c1.025-2.837,5.657-11.945,6.383-14.099c0.975-2.896,0.68-9.584,0.82-12.608
		c0.118-2.569,0.986-11.914,2.581-13.726c0.599-0.677,2.417-2.091,3.098-0.723c0.188,0.377-0.529,0.359-0.43,0.981
		C95.413,53.648,94.064,70.037,93.55,73.981z"/>
	<path fill="#FC9DA4" d="M93.55,73.981c-0.542,4.158-7.797,13.636-8.988,15.605c-0.18,0.299-0.53,0.474-0.914,0.525
		c0.248-0.557,5.547-10.659,7.461-14.045c0.85-1.503-0.502-9.197-0.096-14.066c0.528-6.318,1.821-12.862,1.821-12.862l1.729-0.851
		C95.413,53.648,94.064,70.037,93.55,73.981z"/>
	<path fill="#FFC2C2" d="M82.012,88.97c0.094,1.215-1.71,3.74-0.794,4.825c0.667,0.792,2.241,0.822,2.792-0.146
		c-0.004-0.066-0.007-0.066-0.011,0.001c0.119,0.099,0.198,0.02,0.342,0.081c0.127-1.282,0.752-3.23-0.004-4.426
		C83.684,88.274,82.779,88.621,82.012,88.97z"/>
	<path fill="#2B2BB2" d="M96.533,57.671c-0.789,4.061-1.808,8.362-2.542,11.504c-0.005,0-0.011-0.001-0.015-0.002
		c-0.084-0.019-0.169-0.037-0.253-0.057c-0.202-0.047-0.401-0.101-0.599-0.16c-0.386-0.115-0.767-0.25-1.14-0.403
		c-0.102-0.042-0.203-0.085-0.302-0.129v0c-0.081-0.035-0.159-0.07-0.239-0.107c-0.036-0.017-0.071-0.034-0.106-0.051
		c-0.014-0.006-0.024-0.011-0.034-0.015c-0.057-0.03-0.113-0.06-0.167-0.09c-0.701-0.375-1.368-0.81-1.993-1.3
		c-0.074-0.058-1.015-0.627-1.087-0.686c0.321-2.346,0.46-22.202,7.247-20.21c0.404,0.119,0.275,0.908,0.337,1.534
		C95.857,49.659,97.336,53.54,96.533,57.671z"/>
	<path fill="#20209E" d="M96.533,57.671c-0.789,4.061-1.347,8.52-2.081,11.664c-0.006-0.001-0.645-0.199-0.729-0.219
		c-0.202-0.047-0.401-0.101-0.599-0.16c-0.386-0.115-0.767-0.25-1.14-0.403c-0.102-0.042-0.203-0.085-0.302-0.129v0
		c-0.164-2.452,0.318-4.769,0.496-6.895c0.527-6.318,1.167-13.413,1.167-13.413l1.729-0.851
		C95.42,49.441,97.11,53.432,96.533,57.671z"/>
	<g>
		<g>
			<path fill="#E1E5F4" d="M112.958,150.595c-6.048-3.492-15.817-3.492-21.822-0.003c-6.011,3.492-5.979,9.15,0.071,12.643
				c6.044,3.489,15.813,3.489,21.822-0.003C119.034,159.741,119.002,154.084,112.958,150.595L112.958,150.595z"/>
		</g>
	</g>
	<path fill="#FFFFFF" d="M91.7,154.073c0,0-0.455,1.367,0.803,1.792c1.256,0.425,3.993,0.512,6.191-0.701
		c2.197-1.214,5.172-2.481,5.172-2.481s0.686-0.701,0.263-1.285C103.707,150.813,91.7,154.073,91.7,154.073z"/>
	<path fill="#FFFFFF" d="M96.664,161.186c0,0-0.165,1.43,1.154,1.588c1.317,0.159,4.013-0.316,5.915-1.955
		c1.903-1.639,4.554-3.488,4.554-3.488s0.528-0.827-0.004-1.312C107.749,155.534,96.664,161.186,96.664,161.186z"/>
	<path fill="#192356" d="M96.309,150.792c-1.256,0.563-2.747,1.042-3.335,1.951c-0.533,0.822-0.124,1.927,0.813,2.21
		c2.313,0.701,4.587-0.359,6.838-1.525c1.047-0.543,3.412-0.75,4.216-1.606c0.886-0.942-0.056-1.874-0.238-3.193
		C104.315,146.539,97.461,150.277,96.309,150.792z"/>
	<path fill="#FFC2C2" d="M101.883,143.697c-0.417-0.096-1.729,0.331-1.539,0.973c0.1,0.335,0.261,4.129,0.323,4.259
		c0.707,1.048,2.565,0.863,3.644,0.697C104.073,149.338,102.647,143.869,101.883,143.697z"/>
	<path fill="#B9B9FC" d="M103.059,144.05c0.009,0.222-0.602,2.374-0.905,2.854c-0.011,0.018-0.021,0.034-0.032,0.051
		c-0.252,0.385-0.541,0.666-0.847,0.866c-0.069,0.046-0.141,0.087-0.212,0.124v0.001c-0.366,0.191-0.855,0.066-1.224,0.087
		c-2.45-6.533-9.753-19.746-12.417-27.46c-0.997-3.916,6.038-36.736,7.143-36.666c1.162,0.073,2.692,0.857,3.479,1.653
		c1.676,1.694,3.267,2.912,4.03,5.225c1.123,3.393,0.074,6.43-1.371,9.546c-0.086,0.187-0.172,0.386-0.255,0.594
		c-1.086,2.719-1.881,7.119-2.665,9.681c-0.913,2.988-1.121,4.107-2.867,8.395c0.836,1.804,1.672,5.005,2.625,6.801
		c1.097,2.063,3.526,9.385,4.764,14.303C102.738,141.823,103.024,143.245,103.059,144.05z"/>
	<path fill="#9999E0" d="M102.305,140.105c-0.049,2.284,0.188,4.513,0.165,6.797c-0.251,0.386-1.336,1.006-1.407,1.043
		c-0.03-0.066,0.012-3.263-0.271-6.602c-0.232-2.768-0.619-5.519-1.714-8.071c-2.455-5.717-5.753-13.431-5.916-13.708
		c2.404-7.049,5.627-19.47,5.627-19.47l1.657,0.83c-1.085,2.719-1.881,7.119-2.664,9.682c-0.913,2.987-1.121,4.106-2.867,8.394
		c0.542,1.337,1.183,2.852,1.423,3.444C98.714,128.272,100.766,133.983,102.305,140.105z"/>
	<path fill="#192356" d="M99.501,157.293c-1.051,0.89-2.506,2.07-2.819,3.106c-0.283,0.938,0.416,1.886,1.395,1.898
		c2.417,0.032,4.586-1.252,6.426-2.997c0.854-0.812,3.07-1.667,3.604-2.712c0.59-1.152-0.415-1.785-0.957-3.002
		C106.294,151.659,100.465,156.478,99.501,157.293z"/>
	<path fill="#D9D9FC" d="M104.924,145.401c-0.483,1.158-2.174,2.155-3.612,2.591c-0.472,0.144-0.915,0.227-1.28,0.234
		c-1.182,0.027-2.355-2.549-2.781-3.595c-0.086-0.213,0.055-0.447,0.284-0.47c1.408-0.141,2.526-0.493,3.389-0.9h0
		c1.035-0.488,1.704-1.055,2.071-1.427c0.18-0.183,0.488-0.128,0.595,0.105C103.907,142.623,104.473,143.925,104.924,145.401z"/>
	<path fill="#192356" d="M104.318,153.359c-1.114,1.018-4.241,3.511-5.274,4.646c-0.821,0.902-0.421,2.134,2.022,1.5
		c1.515-0.392,3.956-1.993,5.48-3.397c0.6-0.553,0.877-1.371,0.742-2.175C106.625,149.995,104.64,152.014,104.318,153.359z"/>
	<path fill="#B9B9FC" d="M104.924,145.401c-0.483,1.158-2.174,2.155-3.612,2.591l-0.388-4.729h0.001
		c1.035-0.488,1.704-1.056,2.071-1.427c0.18-0.183,0.487-0.128,0.594,0.104C103.907,142.623,104.473,143.925,104.924,145.401z"/>
	<path fill="#B9B9FC" d="M112.067,99.505c-0.56,1.039-1.173,1.758-1.285,2.965c-0.081,0.87-0.12,1.747-0.17,2.619
		c-0.09,1.579,0.067,3.196-0.152,4.765c-1.012,7.193-1.609,9.154-1.945,12.605c1.508,7.299,0.614,16.522,0.611,18.56
		c-0.004,3.185-0.51,6.449-0.568,9.63c-0.027,1.555-0.595,2.59-1.37,3.219c-1.421,1.156-3.546,0.788-4.319-0.066
		c-0.476-0.523-0.262-2.853-0.298-3.577c-0.063-1.25-0.587-22.918-1.058-27.972c-0.569-6.129-1.436-12.181-1.809-18.327
		c-0.085-1.401-0.63-16.28,0.436-16.179c1.437,0.136,2.88,0.213,4.319,0.326c1.192,0.092,3.205,0.156,4.55,0.139
		c0.814-0.011,1.385-0.051,1.376-0.135c0.581,1.194,1.088,2.331,1.457,3.61c0.087,0.302,0.165,0.607,0.234,0.915
		C112.556,94.746,113.145,97.508,112.067,99.505z"/>
	<path fill="#9999E0" d="M112.067,100.528c-0.392,1.112-1.173,2.268-1.285,3.475c-0.081,0.871-1.653,34.979-1.656,37.016
		c-0.004,3.185-0.51,6.449-0.568,9.63c-0.027,1.555-0.595,2.59-1.37,3.219c-0.084-0.425-0.133-0.867-0.175-1.292
		c-0.325-3.327,0.484-6.497,0.33-9.808c-0.314-6.778,0.681-13.581,0.374-20.309c-0.111-2.449,0.03-14.519,0.344-18.177
		c0.181-2.11,0.125-4.268,0.326-6.324c0.209-2.143,0.778-5.717-0.158-7.688c-0.403-1.087,0.088-1.718,0.782-2.059
		c0.814-0.011,1.385-0.051,1.376-0.135c0.581,1.194,1.088,2.331,1.457,3.61c0.087,0.302,0.165,0.607,0.234,0.915
		C112.556,94.746,113.212,97.278,112.067,100.528z"/>
	<g>
		<path fill="#5050D3" d="M108.042,86.101c-0.074,0-0.14-0.053-0.15-0.13c-0.031-0.195-0.051-0.287-0.051-0.29
			c-0.018-0.082,0.034-0.164,0.117-0.182c0.08-0.016,0.165,0.034,0.182,0.116c0,0,0.021,0.096,0.054,0.308
			c0.013,0.083-0.044,0.162-0.128,0.175C108.059,86.1,108.051,86.101,108.042,86.101z"/>
		<path fill="#5050D3" d="M107.207,153.084c-0.001,0-0.002,0-0.003,0c-0.084-0.002-0.152-0.072-0.15-0.157l0.012-0.62
			c0.003-0.083,0.071-0.149,0.154-0.149c0,0,0.002,0,0.003,0c0.085,0.001,0.152,0.07,0.15,0.155l-0.013,0.621
			C107.358,153.018,107.29,153.084,107.207,153.084z M107.233,151.791c-0.001,0-0.002,0-0.004,0
			c-0.084-0.002-0.151-0.071-0.15-0.156l0.012-0.619c0.002-0.084,0.07-0.15,0.154-0.15c0,0,0.002,0,0.003,0
			c0.085,0.001,0.152,0.071,0.15,0.156l-0.013,0.62C107.385,151.725,107.316,151.791,107.233,151.791z M107.258,150.5
			c0,0-0.002,0-0.003,0c-0.083-0.002-0.151-0.072-0.149-0.157l0.012-0.618c0.001-0.084,0.07-0.15,0.153-0.15
			c0.001,0,0.001,0,0.003,0c0.083,0.001,0.152,0.071,0.15,0.155l-0.012,0.62C107.41,150.435,107.343,150.5,107.258,150.5z
			 M107.283,149.209c0,0-0.002,0-0.004,0c-0.084-0.001-0.151-0.071-0.149-0.156l0.013-0.618c0.001-0.083,0.07-0.149,0.154-0.149
			c0,0,0.001,0,0.003,0c0.083,0.001,0.151,0.071,0.15,0.155l-0.012,0.62C107.435,149.143,107.367,149.209,107.283,149.209z
			 M107.309,147.92c0,0-0.002,0-0.004,0c-0.084-0.002-0.151-0.073-0.149-0.157l0.013-0.618c0.002-0.084,0.07-0.15,0.153-0.15
			c0.001,0,0.001,0,0.003,0c0.084,0.001,0.152,0.07,0.15,0.155l-0.012,0.62C107.461,147.855,107.392,147.92,107.309,147.92z
			 M107.334,146.63c0,0-0.002,0-0.003,0c-0.084-0.001-0.151-0.071-0.15-0.156l0.012-0.618c0.001-0.083,0.071-0.149,0.153-0.149
			c0.001,0,0.002,0,0.003,0c0.084,0.001,0.152,0.07,0.15,0.155l-0.013,0.62C107.485,146.564,107.417,146.63,107.334,146.63z
			 M107.358,145.341c0,0-0.002,0-0.003,0c-0.084-0.002-0.151-0.072-0.15-0.156l0.013-0.619c0.001-0.084,0.07-0.15,0.153-0.15
			c0.001,0,0.001,0,0.003,0c0.085,0.002,0.152,0.071,0.151,0.156l-0.013,0.619C107.51,145.274,107.443,145.341,107.358,145.341z
			 M107.384,144.051c0,0-0.002,0-0.003,0c-0.084-0.002-0.152-0.072-0.15-0.156l0.012-0.618c0.001-0.084,0.07-0.15,0.154-0.15
			c0,0,0.001,0,0.003,0c0.084,0.002,0.151,0.071,0.15,0.155l-0.012,0.62C107.535,143.986,107.467,144.051,107.384,144.051z
			 M107.409,142.761c-0.001,0-0.001,0-0.003,0c-0.084-0.001-0.152-0.07-0.15-0.154l0.012-0.62c0.001-0.084,0.07-0.15,0.153-0.15
			c0.001,0,0.001,0,0.003,0c0.085,0.001,0.152,0.071,0.151,0.155l-0.012,0.62C107.561,142.695,107.492,142.761,107.409,142.761z
			 M107.432,141.472c0,0-0.001,0-0.003,0c-0.085-0.001-0.152-0.07-0.15-0.155l0.011-0.619c0.001-0.083,0.071-0.15,0.154-0.15
			c0,0,0.001,0,0.003,0c0.085,0.002,0.152,0.072,0.15,0.156l-0.012,0.618C107.584,141.406,107.516,141.472,107.432,141.472z
			 M107.456,140.184c-0.001,0-0.001,0-0.003,0c-0.084-0.002-0.151-0.071-0.149-0.155l0.011-0.62c0.001-0.084,0.07-0.15,0.154-0.15
			c0,0,0.001,0,0.003,0c0.084,0.002,0.152,0.071,0.15,0.156l-0.012,0.619C107.609,140.117,107.54,140.184,107.456,140.184z
			 M107.481,138.895c-0.001,0-0.001,0-0.003,0c-0.085-0.002-0.152-0.071-0.151-0.156l0.012-0.618
			c0.001-0.085,0.07-0.151,0.154-0.151c0,0,0.001,0,0.003,0c0.084,0.002,0.151,0.072,0.15,0.156l-0.012,0.619
			C107.633,138.828,107.564,138.895,107.481,138.895z M107.504,137.604c0,0-0.001,0-0.003,0c-0.085-0.001-0.152-0.07-0.15-0.155
			l0.012-0.619c0.001-0.083,0.07-0.149,0.153-0.149c0,0,0.001,0,0.003,0c0.085,0.001,0.152,0.071,0.15,0.155l-0.011,0.619
			C107.656,137.537,107.587,137.604,107.504,137.604z M107.529,136.317c0,0-0.001,0-0.002,0c-0.085-0.001-0.152-0.07-0.151-0.155
			l0.011-0.62c0.001-0.084,0.07-0.15,0.153-0.15c0.001,0,0.001,0,0.003,0c0.084,0.002,0.152,0.071,0.15,0.156l-0.012,0.618
			C107.68,136.249,107.613,136.317,107.529,136.317z M107.55,135.028c0,0-0.001,0-0.001,0c-0.085-0.001-0.152-0.07-0.151-0.156
			l0.011-0.62c0.001-0.083,0.07-0.149,0.154-0.149c0,0,0.001,0,0.003,0c0.084,0.002,0.151,0.071,0.15,0.156l-0.011,0.618
			C107.703,134.96,107.635,135.028,107.55,135.028z M107.574,133.738c-0.001,0-0.001,0-0.002,0
			c-0.085-0.001-0.152-0.071-0.151-0.156l0.012-0.619c0.001-0.084,0.07-0.15,0.153-0.15c0,0,0.001,0,0.003,0
			c0.085,0.001,0.152,0.07,0.15,0.155l-0.011,0.619C107.726,133.671,107.658,133.738,107.574,133.738z M107.596,132.448
			c-0.001,0-0.001,0-0.002,0c-0.084-0.001-0.152-0.07-0.151-0.156l0.01-0.619c0.002-0.083,0.071-0.149,0.154-0.149
			c0.001,0,0.001,0,0.003,0c0.085,0.001,0.152,0.07,0.15,0.154l-0.011,0.619C107.747,132.381,107.679,132.448,107.596,132.448z
			 M107.617,131.158c-0.001,0-0.001,0-0.003,0c-0.083-0.002-0.151-0.071-0.15-0.155l0.01-0.591l0.154-0.025l0.152,0.03l-0.009,0.591
			C107.77,131.092,107.701,131.158,107.617,131.158z M107.639,129.868c-0.001,0-0.001,0-0.003,0
			c-0.084-0.001-0.152-0.071-0.15-0.156l0.011-0.582l0.153-0.034l0.153,0.039l-0.009,0.583
			C107.791,129.802,107.722,129.868,107.639,129.868z M107.66,128.578c0,0-0.001,0-0.002,0c-0.085,0-0.152-0.07-0.151-0.154
			l0.009-0.62c0.001-0.084,0.07-0.151,0.153-0.151c0.001,0,0.001,0,0.002,0c0.085,0.001,0.152,0.07,0.151,0.156l-0.01,0.619
			C107.811,128.512,107.744,128.578,107.66,128.578z M107.678,127.29c-0.001,0-0.001,0-0.002,0c-0.084-0.001-0.151-0.07-0.15-0.156
			l0.009-0.619c0.001-0.086,0.069-0.148,0.156-0.151c0.084,0,0.151,0.07,0.15,0.155l-0.009,0.62
			C107.83,127.223,107.762,127.29,107.678,127.29z M107.698,125.998c0,0-0.001,0-0.002,0c-0.084,0-0.152-0.07-0.151-0.155
			l0.007-0.62c0.001-0.083,0.07-0.15,0.154-0.15c0,0,0.001,0,0.001,0c0.085,0.001,0.153,0.07,0.152,0.155l-0.007,0.62
			C107.849,125.932,107.781,125.998,107.698,125.998z M107.711,124.706c0,0,0,0-0.001,0c-0.084,0-0.152-0.069-0.151-0.154
			l0.006-0.62c0-0.085,0.069-0.152,0.153-0.152c0.092,0,0.154,0.069,0.153,0.155l-0.006,0.62
			C107.865,124.639,107.796,124.706,107.711,124.706z M107.723,123.413c-0.001,0-0.001,0-0.001,0c-0.084,0-0.153-0.069-0.152-0.154
			l0.001-0.266c0-0.141,0-0.258-0.001-0.351c-0.001-0.084,0.066-0.154,0.151-0.155c0,0,0.001,0,0.002,0
			c0.083,0,0.151,0.067,0.153,0.15c0.001,0.095,0.002,0.215,0.001,0.356l0,0.267C107.875,123.346,107.807,123.413,107.723,123.413z
			 M107.7,122.124c-0.083,0-0.15-0.064-0.154-0.147c-0.006-0.181-0.011-0.387-0.016-0.619c-0.001-0.085,0.066-0.155,0.149-0.157
			c0.001,0,0.003,0,0.003,0c0.083,0,0.151,0.066,0.154,0.15c0.005,0.231,0.011,0.437,0.017,0.615
			c0.002,0.085-0.063,0.156-0.148,0.159C107.703,122.124,107.701,122.124,107.7,122.124z M107.67,120.837
			c-0.083,0-0.152-0.066-0.154-0.151l-0.007-0.619c-0.001-0.084,0.082-0.146,0.153-0.155c0.083,0,0.152,0.068,0.153,0.152
			l0.008,0.617c0.001,0.085-0.066,0.154-0.151,0.156C107.672,120.837,107.671,120.837,107.67,120.837z M107.658,119.549
			c-0.084,0-0.153-0.068-0.153-0.152l-0.001-0.595c0-0.084,0.069-0.165,0.153-0.165s0.153,0.056,0.153,0.141h-0.153l0.153,0.012
			l0.002,0.606C107.811,119.48,107.744,119.549,107.658,119.549L107.658,119.549z M107.659,118.262
			c-0.085,0-0.154-0.068-0.154-0.154c0-0.192,0.002-0.391,0.003-0.597c0-0.085,0.069-0.162,0.153-0.162h0.001
			c0.084,0,0.152,0.059,0.152,0.144l0,0.021c-0.001,0.205-0.002,0.403-0.002,0.595C107.812,118.194,107.744,118.262,107.659,118.262
			z M107.668,116.973c0,0-0.001,0-0.002,0c-0.084,0-0.152-0.07-0.151-0.154l0.008-0.618c0.002-0.084,0.07-0.151,0.153-0.151
			c0.001,0,0.001,0,0.002,0c0.085,0.001,0.152,0.07,0.151,0.155l-0.008,0.618C107.82,116.906,107.75,116.973,107.668,116.973z
			 M107.685,115.687c0,0-0.002,0-0.003,0c-0.084-0.002-0.151-0.071-0.15-0.156l0.012-0.618c0.001-0.084,0.07-0.15,0.153-0.15
			c0.001,0,0.001,0,0.003,0c0.083,0.002,0.152,0.071,0.151,0.155l-0.012,0.619C107.838,115.62,107.769,115.687,107.685,115.687z
			 M107.711,114.399c0,0-0.002,0-0.004,0c-0.083-0.002-0.15-0.072-0.149-0.156l0.015-0.618c0.002-0.085,0.062-0.153,0.157-0.15
			c0.084,0.002,0.151,0.073,0.149,0.157l-0.015,0.618C107.864,114.333,107.795,114.399,107.711,114.399z M107.743,113.112
			c-0.001,0-0.003,0-0.004,0c-0.084-0.002-0.152-0.072-0.149-0.157l0.016-0.618c0.003-0.084,0.07-0.142,0.158-0.147
			c0.084,0.002,0.151,0.072,0.148,0.157l-0.016,0.617C107.895,113.046,107.826,113.112,107.743,113.112z M107.779,111.823
			c-0.001,0-0.003,0-0.004,0c-0.084-0.002-0.151-0.073-0.148-0.158l0.019-0.617c0.003-0.083,0.071-0.147,0.153-0.147
			c0.001,0,0.003,0,0.005,0c0.084,0.002,0.15,0.073,0.148,0.157l-0.019,0.618C107.93,111.759,107.862,111.823,107.779,111.823z
			 M107.82,110.537c-0.002,0-0.004,0-0.006,0c-0.084-0.002-0.15-0.073-0.147-0.159l0.021-0.618c0.003-0.084,0.073-0.15,0.158-0.146
			c0.084,0.003,0.151,0.074,0.148,0.158l-0.021,0.617C107.97,110.472,107.903,110.537,107.82,110.537z M107.865,109.25
			c-0.001,0-0.003,0-0.006,0c-0.084-0.003-0.15-0.074-0.147-0.158l0.023-0.618c0.003-0.084,0.068-0.146,0.159-0.147
			c0.084,0.003,0.151,0.074,0.147,0.159l-0.022,0.617C108.015,109.185,107.947,109.25,107.865,109.25z M107.914,107.963
			c-0.002,0-0.004,0-0.006,0c-0.084-0.003-0.149-0.075-0.146-0.159l0.025-0.618c0.003-0.084,0.075-0.158,0.159-0.146
			c0.085,0.003,0.15,0.075,0.147,0.159l-0.025,0.618C108.064,107.899,107.996,107.963,107.914,107.963z M107.967,106.677
			c-0.002,0-0.003,0-0.006,0c-0.085-0.003-0.15-0.075-0.147-0.159l0.027-0.618c0.003-0.085,0.062-0.146,0.16-0.146
			c0.085,0.003,0.15,0.074,0.147,0.16l-0.026,0.617C108.117,106.613,108.049,106.677,107.967,106.677z M108.023,105.39
			c-0.002,0-0.005,0-0.007,0c-0.085-0.003-0.15-0.076-0.147-0.16l0.028-0.618c0.004-0.082,0.071-0.146,0.153-0.146
			c0.002,0,0.004,0,0.008,0c0.083,0.004,0.149,0.076,0.145,0.161l-0.028,0.616C108.172,105.326,108.104,105.39,108.023,105.39z
			 M108.084,104.104c-0.002,0-0.004,0-0.008,0c-0.084-0.004-0.149-0.077-0.146-0.161l0.029-0.618
			c0.004-0.083,0.071-0.147,0.153-0.147c0.002,0,0.004,0,0.007,0c0.083,0.004,0.149,0.076,0.146,0.161l-0.029,0.617
			C108.233,104.04,108.166,104.104,108.084,104.104z M108.146,102.817c-0.002,0-0.005,0-0.009,0
			c-0.083-0.003-0.149-0.075-0.145-0.161l0.031-0.618c0.004-0.084,0.064-0.152,0.16-0.145c0.084,0.005,0.149,0.077,0.146,0.161
			l-0.031,0.618C108.295,102.754,108.228,102.817,108.146,102.817z M108.21,101.532c-0.003,0-0.006,0-0.008,0
			c-0.084-0.005-0.149-0.077-0.145-0.162l0.03-0.617c0.004-0.082,0.072-0.146,0.152-0.146c0.003,0,0.005,0,0.008,0
			c0.084,0.004,0.149,0.077,0.145,0.161l-0.031,0.618C108.359,101.469,108.291,101.532,108.21,101.532z M108.271,100.245
			c-0.002,0-0.004,0-0.007,0c-0.084-0.004-0.149-0.075-0.146-0.161l0.026-0.617c0.003-0.084,0.066-0.158,0.159-0.147
			c0.085,0.003,0.15,0.075,0.147,0.16l-0.027,0.618C108.422,100.181,108.354,100.245,108.271,100.245z M108.324,98.959
			c-0.001,0-0.004,0-0.005,0c-0.084-0.003-0.151-0.075-0.148-0.159l0.022-0.617c0.003-0.083,0.071-0.148,0.154-0.148
			c0.001,0,0.003,0,0.005,0c0.084,0.002,0.15,0.074,0.147,0.159l-0.021,0.617C108.474,98.894,108.406,98.959,108.324,98.959z
			 M108.367,97.671c-0.001,0-0.003,0-0.005,0c-0.084-0.002-0.15-0.073-0.148-0.158l0.017-0.618c0.002-0.084,0.077-0.144,0.158-0.148
			c0.084,0.002,0.152,0.073,0.149,0.158l-0.018,0.619C108.518,97.605,108.45,97.671,108.367,97.671z M108.401,96.384
			c-0.001,0-0.002,0-0.003,0c-0.084-0.002-0.151-0.073-0.149-0.157l0.012-0.618c0.001-0.084,0.07-0.15,0.153-0.15
			c0.001,0,0.002,0,0.003,0c0.084,0.001,0.152,0.072,0.149,0.156l-0.012,0.619C108.552,96.317,108.485,96.384,108.401,96.384z
			 M108.424,95.095c0,0,0,0-0.001,0c-0.085,0-0.153-0.07-0.152-0.155l0.007-0.618c0-0.084,0.069-0.151,0.153-0.151c0,0,0,0,0.001,0
			c0.084,0,0.153,0.07,0.152,0.154l-0.006,0.619C108.576,95.029,108.508,95.095,108.424,95.095z M108.432,93.808
			c-0.084,0-0.153-0.068-0.153-0.154l0-0.617c0-0.085,0.068-0.153,0.152-0.154h0.001c0.084,0,0.153,0.068,0.153,0.153l0.001,0.619
			C108.587,93.74,108.518,93.808,108.432,93.808z M108.429,92.52c-0.083,0-0.151-0.067-0.153-0.151l-0.009-0.617
			c-0.001-0.085,0.066-0.154,0.151-0.156c0,0,0.001,0,0.002,0c0.083,0,0.152,0.066,0.154,0.15l0.008,0.619
			c0.001,0.085-0.067,0.154-0.152,0.155C108.429,92.52,108.429,92.52,108.429,92.52z M108.407,91.232
			c-0.083,0-0.151-0.066-0.154-0.15l-0.018-0.617c-0.002-0.084,0.064-0.155,0.149-0.158c0.086-0.01,0.155,0.063,0.158,0.149
			l0.017,0.619c0.001,0.084-0.065,0.155-0.149,0.158C108.409,91.232,108.409,91.232,108.407,91.232z M108.364,89.946
			c-0.081,0-0.149-0.064-0.153-0.147c-0.009-0.214-0.018-0.42-0.028-0.616c-0.004-0.085,0.061-0.157,0.146-0.162
			c0.082,0.002,0.156,0.062,0.16,0.146c0.01,0.196,0.019,0.403,0.028,0.619c0.004,0.085-0.062,0.157-0.146,0.16
			C108.368,89.946,108.366,89.946,108.364,89.946z M108.298,88.659c-0.08,0-0.146-0.062-0.152-0.144
			c-0.016-0.218-0.029-0.424-0.044-0.616c-0.006-0.084,0.057-0.157,0.142-0.164c0.083-0.01,0.157,0.057,0.164,0.142
			c0.015,0.192,0.029,0.398,0.044,0.618c0.006,0.084-0.058,0.158-0.143,0.163C108.304,88.659,108.301,88.659,108.298,88.659z
			 M108.198,87.375c-0.079,0-0.145-0.059-0.152-0.138c-0.022-0.231-0.044-0.435-0.064-0.612c-0.011-0.083,0.05-0.161,0.135-0.17
			c0.095-0.012,0.16,0.051,0.169,0.135c0.021,0.179,0.043,0.384,0.066,0.618c0.007,0.085-0.055,0.16-0.139,0.167
			C108.207,87.375,108.202,87.375,108.198,87.375z"/>
		<path fill="#5050D3" d="M107.189,154.021c0,0-0.001,0-0.002,0c-0.084-0.001-0.151-0.07-0.15-0.156l0.006-0.305
			c0.002-0.084,0.07-0.149,0.153-0.149c0,0,0.002,0,0.004,0c0.083,0.001,0.15,0.071,0.149,0.156l-0.006,0.303
			C107.341,153.953,107.273,154.021,107.189,154.021z"/>
	</g>
	<path fill="#5050D3" d="M102.027,141.234c-0.061,0-0.118-0.037-0.142-0.096l-0.235-0.571c-0.032-0.078,0.005-0.168,0.084-0.2
		c0.08-0.032,0.168,0.006,0.2,0.084l0.234,0.572c0.032,0.077-0.006,0.167-0.083,0.199
		C102.066,141.23,102.045,141.234,102.027,141.234z M101.538,140.043c-0.06,0-0.118-0.035-0.142-0.095l-0.234-0.569
		c-0.032-0.079,0.006-0.169,0.084-0.201c0.077-0.033,0.167,0.006,0.2,0.083l0.234,0.571c0.032,0.078-0.005,0.167-0.083,0.199
		C101.577,140.04,101.556,140.043,101.538,140.043z M101.051,138.857c-0.06,0-0.118-0.035-0.142-0.095l-0.234-0.569
		c-0.032-0.078,0.006-0.168,0.084-0.2c0.076-0.033,0.167,0.004,0.2,0.083l0.234,0.569c0.032,0.079-0.005,0.167-0.083,0.199
		C101.09,138.854,101.07,138.857,101.051,138.857z M100.564,137.671c-0.06,0-0.117-0.035-0.141-0.095l-0.235-0.569
		c-0.032-0.078,0.006-0.167,0.084-0.199c0.082-0.032,0.168,0.006,0.2,0.083l0.233,0.569c0.033,0.077-0.004,0.168-0.082,0.2
		C100.604,137.667,100.584,137.671,100.564,137.671z M100.076,136.487c-0.06,0-0.118-0.035-0.142-0.096l-0.234-0.567
		c-0.032-0.079,0.005-0.168,0.083-0.201c0.077-0.033,0.168,0.005,0.201,0.083l0.234,0.568c0.032,0.079-0.005,0.168-0.083,0.2
		C100.115,136.483,100.095,136.487,100.076,136.487z M99.59,135.302c-0.06,0-0.117-0.036-0.142-0.095l-0.233-0.569
		c-0.032-0.077,0.005-0.168,0.083-0.2c0.082-0.032,0.168,0.006,0.2,0.084l0.234,0.568c0.032,0.077-0.005,0.168-0.083,0.2
		C99.628,135.297,99.61,135.302,99.59,135.302z M99.103,134.118c-0.061,0-0.117-0.035-0.142-0.096l-0.233-0.568
		c-0.033-0.077,0.005-0.167,0.082-0.2c0.076-0.032,0.168,0.005,0.201,0.083l0.235,0.569c0.032,0.078-0.006,0.167-0.084,0.199
		C99.141,134.115,99.122,134.118,99.103,134.118z M98.616,132.934c-0.061,0-0.116-0.035-0.141-0.095l-0.235-0.568
		c-0.032-0.079,0.005-0.168,0.083-0.2c0.081-0.032,0.169,0.007,0.2,0.084l0.233,0.567c0.033,0.079-0.005,0.168-0.083,0.201
		C98.656,132.93,98.636,132.934,98.616,132.934z M98.128,131.75c-0.06,0-0.117-0.035-0.141-0.095l-0.235-0.569
		c-0.032-0.078,0.005-0.167,0.083-0.199c0.08-0.033,0.168,0.005,0.2,0.084l0.234,0.567c0.033,0.079-0.005,0.168-0.083,0.2
		C98.169,131.747,98.149,131.75,98.128,131.75z M97.641,130.566c-0.06,0-0.117-0.035-0.142-0.095l-0.233-0.569
		c-0.032-0.077,0.005-0.168,0.083-0.199c0.077-0.033,0.168,0.004,0.201,0.082l0.233,0.57c0.032,0.077-0.005,0.167-0.084,0.199
		C97.681,130.563,97.661,130.566,97.641,130.566z M97.154,129.382c-0.06,0-0.117-0.035-0.142-0.096l-0.233-0.567
		c-0.033-0.079,0.004-0.168,0.082-0.201c0.078-0.033,0.169,0.005,0.201,0.083l0.234,0.568c0.032,0.079-0.005,0.168-0.084,0.2
		C97.194,129.379,97.174,129.382,97.154,129.382z M96.667,128.198c-0.06,0-0.116-0.035-0.142-0.095l-0.234-0.569
		c-0.032-0.078,0.005-0.167,0.083-0.199c0.082-0.033,0.168,0.006,0.201,0.084l0.233,0.567c0.033,0.079-0.004,0.167-0.083,0.2
		C96.707,128.196,96.687,128.198,96.667,128.198z M96.181,127.014c-0.061,0-0.118-0.035-0.143-0.095l-0.234-0.567
		c-0.032-0.078,0.005-0.168,0.084-0.2c0.077-0.033,0.168,0.005,0.2,0.082l0.234,0.568c0.032,0.078-0.005,0.169-0.084,0.2
		C96.22,127.011,96.2,127.014,96.181,127.014z M95.693,125.831c-0.061,0-0.118-0.036-0.143-0.096l-0.233-0.567
		c-0.033-0.079,0.004-0.167,0.083-0.2c0.077-0.033,0.168,0.004,0.2,0.083l0.234,0.568c0.032,0.078-0.005,0.168-0.084,0.2
		C95.732,125.827,95.712,125.831,95.693,125.831z M95.204,124.647c-0.061,0-0.118-0.035-0.143-0.095l-0.233-0.568
		c-0.032-0.078,0.005-0.169,0.084-0.2c0.077-0.032,0.167,0.004,0.2,0.083l0.233,0.567c0.032,0.079-0.005,0.168-0.084,0.2
		C95.243,124.644,95.224,124.647,95.204,124.647z M94.717,123.463c-0.06,0-0.117-0.035-0.142-0.094l-0.236-0.569
		c-0.032-0.078,0.005-0.168,0.084-0.2c0.077-0.033,0.167,0.004,0.2,0.082l0.235,0.568c0.033,0.078-0.004,0.168-0.082,0.2
		C94.757,123.459,94.737,123.463,94.717,123.463z M94.228,122.278c-0.06,0-0.117-0.035-0.142-0.095l-0.236-0.568
		c-0.032-0.079,0.005-0.169,0.084-0.2c0.077-0.033,0.167,0.004,0.2,0.082l0.234,0.57c0.033,0.077-0.004,0.167-0.083,0.2
		C94.268,122.275,94.248,122.278,94.228,122.278z M93.737,121.092c-0.06,0-0.118-0.035-0.143-0.095l-0.235-0.569
		c-0.033-0.078,0.004-0.169,0.082-0.2c0.077-0.034,0.169,0.003,0.201,0.083l0.237,0.569c0.032,0.079-0.005,0.169-0.084,0.2
		C93.776,121.088,93.757,121.092,93.737,121.092z M93.242,119.905c-0.06,0-0.116-0.035-0.142-0.095
		c-0.04-0.096-0.066-0.158-0.078-0.181c-0.017-0.034-0.019-0.075-0.008-0.111l0.123-0.395c0.025-0.081,0.115-0.128,0.192-0.101
		c0.082,0.025,0.126,0.111,0.102,0.191l-0.107,0.34c0.015,0.034,0.034,0.08,0.058,0.139c0.033,0.078-0.004,0.167-0.083,0.2
		C93.283,119.901,93.263,119.905,93.242,119.905z M93.485,118.687c-0.015,0-0.03-0.002-0.045-0.007
		c-0.081-0.024-0.126-0.11-0.103-0.191l0.18-0.588c0.023-0.081,0.11-0.127,0.191-0.102c0.081,0.024,0.126,0.11,0.102,0.192
		l-0.179,0.587C93.612,118.644,93.55,118.687,93.485,118.687z M93.857,117.461c-0.015,0-0.03-0.002-0.045-0.007
		c-0.082-0.024-0.126-0.109-0.102-0.191l0.177-0.588c0.025-0.081,0.112-0.127,0.19-0.103c0.082,0.024,0.127,0.109,0.103,0.19
		l-0.177,0.59C93.984,117.419,93.922,117.461,93.857,117.461z M94.224,116.237c-0.015,0-0.029-0.002-0.045-0.008
		c-0.081-0.023-0.127-0.109-0.103-0.189l0.175-0.589c0.023-0.081,0.111-0.127,0.19-0.104c0.082,0.024,0.128,0.109,0.104,0.19
		l-0.175,0.59C94.35,116.193,94.29,116.237,94.224,116.237z M94.587,115.008c-0.016,0-0.029-0.001-0.044-0.006
		c-0.081-0.023-0.127-0.11-0.104-0.19l0.173-0.589c0.024-0.082,0.111-0.128,0.191-0.104c0.082,0.022,0.127,0.108,0.104,0.189
		l-0.173,0.59C94.715,114.965,94.654,115.008,94.587,115.008z M94.947,113.78c-0.016,0-0.029-0.001-0.044-0.006
		c-0.081-0.024-0.127-0.109-0.103-0.191c0.058-0.195,0.114-0.391,0.172-0.588c0.023-0.081,0.106-0.13,0.19-0.104
		c0.082,0.023,0.128,0.108,0.105,0.189c-0.057,0.198-0.115,0.396-0.173,0.59C95.073,113.738,95.013,113.78,94.947,113.78z
		 M95.306,112.552c-0.015,0-0.028-0.002-0.043-0.006c-0.081-0.023-0.128-0.108-0.104-0.189l0.171-0.59
		c0.024-0.082,0.105-0.131,0.19-0.104c0.082,0.023,0.128,0.108,0.104,0.189l-0.171,0.59
		C95.434,112.508,95.372,112.552,95.306,112.552z M95.661,111.322c-0.015,0-0.028-0.001-0.043-0.006
		c-0.081-0.023-0.128-0.109-0.105-0.19l0.17-0.589c0.023-0.082,0.104-0.129,0.19-0.104c0.082,0.022,0.128,0.108,0.104,0.189
		l-0.17,0.591C95.789,111.28,95.728,111.322,95.661,111.322z M96.014,110.094c-0.014,0-0.028-0.001-0.042-0.005
		c-0.081-0.024-0.128-0.108-0.105-0.189l0.169-0.591c0.023-0.081,0.105-0.129,0.19-0.104c0.081,0.023,0.128,0.108,0.104,0.19
		l-0.169,0.589C96.142,110.051,96.081,110.094,96.014,110.094z M96.367,108.865c-0.014,0-0.028-0.001-0.042-0.006
		c-0.082-0.022-0.128-0.107-0.105-0.188l0.168-0.592c0.023-0.081,0.108-0.129,0.189-0.105c0.081,0.024,0.128,0.108,0.105,0.189
		l-0.169,0.591C96.496,108.821,96.434,108.865,96.367,108.865z M96.719,107.633c-0.014,0-0.028-0.001-0.043-0.005
		c-0.082-0.024-0.128-0.109-0.104-0.19l0.168-0.59c0.022-0.082,0.103-0.131,0.189-0.106c0.082,0.023,0.128,0.108,0.106,0.189
		l-0.168,0.592C96.848,107.59,96.786,107.633,96.719,107.633z M97.069,106.403c-0.014,0-0.027-0.002-0.042-0.006
		c-0.081-0.022-0.127-0.107-0.105-0.189l0.167-0.591c0.023-0.082,0.107-0.132,0.189-0.105c0.082,0.022,0.128,0.107,0.105,0.188
		l-0.167,0.592C97.198,106.359,97.136,106.403,97.069,106.403z M97.417,105.172c-0.014,0-0.026-0.001-0.042-0.005
		c-0.081-0.023-0.128-0.108-0.105-0.189l0.167-0.591c0.023-0.081,0.103-0.131,0.189-0.105c0.081,0.023,0.128,0.107,0.105,0.189
		l-0.167,0.591C97.545,105.127,97.485,105.172,97.417,105.172z M97.766,103.938c-0.014,0-0.027-0.001-0.042-0.005
		c-0.082-0.022-0.128-0.107-0.105-0.189l0.167-0.591c0.022-0.081,0.103-0.13,0.189-0.105c0.081,0.023,0.128,0.108,0.105,0.189
		l-0.167,0.592C97.894,103.895,97.833,103.938,97.766,103.938z M98.114,102.707c-0.014,0-0.027-0.001-0.041-0.006
		c-0.082-0.022-0.129-0.107-0.107-0.189l0.166-0.592c0.022-0.082,0.107-0.131,0.189-0.107c0.082,0.023,0.129,0.108,0.106,0.189
		l-0.166,0.592C98.243,102.662,98.181,102.707,98.114,102.707z M98.459,101.471c-0.014,0-0.027-0.001-0.042-0.005
		c-0.081-0.023-0.129-0.108-0.106-0.189l0.167-0.595c0.023-0.082,0.105-0.133,0.188-0.107c0.081,0.023,0.129,0.108,0.106,0.188
		l-0.167,0.595C98.588,101.427,98.527,101.471,98.459,101.471z"/>
	<path fill="#B9B9FC" d="M105.371,110.027c-0.01,0-0.02,0-0.029-0.002l-3.216-0.634c-0.083-0.018-0.137-0.098-0.121-0.181
		c0.017-0.083,0.097-0.139,0.18-0.121l3.215,0.635c0.083,0.017,0.137,0.098,0.121,0.18
		C105.508,109.977,105.444,110.027,105.371,110.027z"/>
	<path fill="#B9B9FC" d="M105.824,110.344c-0.01,0-0.019-0.001-0.03-0.002l-3.214-0.636c-0.083-0.016-0.137-0.097-0.121-0.179
		c0.017-0.084,0.099-0.138,0.181-0.121l3.214,0.635c0.083,0.017,0.137,0.098,0.121,0.18
		C105.961,110.293,105.897,110.344,105.824,110.344z"/>
	<path fill="#B9B9FC" d="M105.055,110.661c-0.011,0-0.02-0.001-0.03-0.003l-3.216-0.635c-0.083-0.016-0.137-0.097-0.12-0.18
		c0.016-0.083,0.1-0.138,0.18-0.12l3.216,0.634c0.083,0.017,0.137,0.097,0.12,0.181
		C105.191,110.611,105.127,110.661,105.055,110.661z"/>
	<path fill="#B9B9FC" d="M105.664,111.295c-0.01,0-0.019-0.001-0.029-0.002l-3.216-0.635c-0.083-0.017-0.137-0.097-0.121-0.18
		c0.017-0.083,0.099-0.137,0.18-0.121l3.215,0.635c0.083,0.017,0.138,0.098,0.121,0.18
		C105.802,111.245,105.737,111.295,105.664,111.295z"/>
	<path fill="#FFFFFF" d="M101.074,161.667c0,0,0.538-3.184-2.418-3.654c-2.038,1.384-2.229,2.705-2.038,3.654
		C96.81,162.615,99.843,162.886,101.074,161.667z"/>
	<path fill="#FFFFFF" d="M95.916,155.448c0,0,1.181-3.006-1.617-4.072c-2.278,0.937-2.736,2.191-2.743,3.159
		C91.549,155.503,94.462,156.388,95.916,155.448z"/>
	<path fill="#010C2B" d="M99.386,158.14c-0.043,0-0.086-0.018-0.116-0.053c-0.054-0.063-0.048-0.161,0.017-0.217l3.978-3.441
		c0.063-0.056,0.161-0.049,0.215,0.016c0.055,0.064,0.049,0.161-0.016,0.217l-3.978,3.441
		C99.457,158.127,99.422,158.14,99.386,158.14z"/>
	<path fill="#010C2B" d="M100.944,159.249c-0.042,0-0.083-0.016-0.114-0.049c-0.057-0.063-0.052-0.159,0.009-0.217l4.58-4.195
		c0.064-0.057,0.159-0.052,0.217,0.01c0.057,0.063,0.052,0.16-0.01,0.217l-4.579,4.195
		C101.018,159.237,100.98,159.249,100.944,159.249z"/>
	<path fill="#010C2B" d="M94.795,151.525c-0.059,0-0.115-0.034-0.141-0.093c-0.033-0.077,0.002-0.167,0.08-0.201l5.739-2.502
		c0.077-0.035,0.167,0.002,0.202,0.08c0.034,0.077-0.001,0.168-0.079,0.202l-5.74,2.501
		C94.835,151.521,94.816,151.525,94.795,151.525z"/>
	<path fill="#010C2B" d="M96.269,152.944c-0.057,0-0.112-0.033-0.139-0.088c-0.036-0.076-0.003-0.168,0.074-0.204l5.62-2.642
		c0.074-0.035,0.167-0.003,0.204,0.073c0.036,0.077,0.003,0.169-0.074,0.204l-5.62,2.642
		C96.314,152.939,96.292,152.944,96.269,152.944z"/>
	<path fill="#FFFFFF" d="M96.48,152.749c-0.031,0-0.061-0.015-0.081-0.039l-1.174-1.498c-0.03-0.038-0.029-0.091,0.001-0.128
		s0.082-0.049,0.125-0.027l1.116,0.548l0.091-1.055c0.002-0.034,0.022-0.063,0.051-0.08c0.028-0.018,0.065-0.019,0.095-0.004
		l0.849,0.41l0.136-0.828c0.005-0.032,0.026-0.061,0.055-0.074c0.028-0.016,0.063-0.015,0.093,0.001l0.801,0.429l-0.014-0.745
		c0-0.034,0.016-0.065,0.043-0.086c0.028-0.019,0.064-0.022,0.094-0.013l0.911,0.328l0.02-0.784
		c0.001-0.042,0.027-0.079,0.066-0.094c0.041-0.014,0.083-0.004,0.112,0.027l1.258,1.39c0.031,0.034,0.035,0.086,0.01,0.125
		c-0.025,0.04-0.079,0.055-0.119,0.04l-1.15-0.415l-0.023,0.937c-0.001,0.035-0.021,0.068-0.051,0.085
		c-0.031,0.018-0.069,0.019-0.1,0.001l-0.847-0.453l0.015,0.824c0.001,0.035-0.018,0.068-0.048,0.087
		c-0.029,0.02-0.068,0.022-0.1,0.006l-1.007-0.485l-0.169,1.032c-0.005,0.032-0.025,0.06-0.054,0.074
		c-0.027,0.016-0.061,0.016-0.092,0.001l-0.75-0.368l-0.063,0.735c-0.003,0.042-0.032,0.077-0.073,0.09
		C96.499,152.748,96.49,152.749,96.48,152.749z M95.662,151.439l0.738,0.94l0.048-0.556L95.662,151.439z M96.664,151.701
		l0.697,0.343l0.158-0.957l-0.77-0.372L96.664,151.701z M97.745,150.97l0.911,0.44l-0.013-0.771l-0.775-0.415L97.745,150.97z
		 M98.845,150.515l0.802,0.429l0.021-0.838l-0.836-0.302L98.845,150.515z M99.876,149.963l0.828,0.298l-0.812-0.896L99.876,149.963z
		"/>
	<path fill="#FFFFFF" d="M101.375,158.805c-0.021,0-0.041-0.007-0.058-0.019l-1.567-1.081c-0.039-0.027-0.054-0.078-0.037-0.122
		c0.017-0.044,0.062-0.073,0.111-0.063l1.228,0.191l-0.228-1.034c-0.007-0.032,0.002-0.067,0.025-0.093
		c0.023-0.024,0.054-0.036,0.089-0.03l0.934,0.14l-0.115-0.832c-0.005-0.032,0.007-0.064,0.031-0.088
		c0.022-0.023,0.056-0.031,0.088-0.026l0.893,0.17l-0.235-0.708c-0.011-0.032-0.005-0.066,0.016-0.094
		c0.021-0.026,0.051-0.045,0.086-0.04l0.967,0.042l-0.214-0.755c-0.012-0.04,0.003-0.083,0.036-0.108
		c0.034-0.025,0.078-0.028,0.114-0.008l1.615,0.952c0.041,0.024,0.06,0.071,0.046,0.116c-0.013,0.046-0.046,0.081-0.103,0.073
		l-1.22-0.053l0.255,0.901c0.01,0.033,0,0.07-0.022,0.097c-0.023,0.026-0.061,0.038-0.095,0.031l-0.943-0.181l0.259,0.782
		c0.012,0.033,0.004,0.07-0.019,0.098c-0.021,0.027-0.056,0.04-0.093,0.035l-1.106-0.164l0.146,1.036
		c0.005,0.032-0.006,0.064-0.029,0.088c-0.023,0.021-0.057,0.035-0.088,0.027l-0.824-0.128l0.159,0.721
		c0.008,0.041-0.008,0.083-0.042,0.106C101.414,158.798,101.394,158.805,101.375,158.805z M100.234,157.79l0.985,0.68l-0.12-0.544
		L100.234,157.79z M101.268,157.744l0.767,0.119l-0.135-0.96l-0.846-0.126L101.268,157.744z M102.083,156.725l1.001,0.147
		l-0.243-0.731l-0.864-0.165L102.083,156.725z M102.997,155.962l0.893,0.172l-0.229-0.808l-0.888-0.039L102.997,155.962z
		 M103.818,155.128l0.877,0.038l-1.041-0.613L103.818,155.128z"/>
	<path fill="#D9D9FC" d="M102.581,149.417c-0.213-0.082-0.446,0.063-0.465,0.29c-0.092,1.125-0.214,3.954,0.851,4.464
		c1.336,0.641,4.374,0.777,5.642-0.304c0.267-1.52,0.353-2.937,0.378-3.689c0.011-0.256-0.239-0.443-0.481-0.361
		C107.595,150.117,105.482,150.545,102.581,149.417z"/>
	<path fill="#5050D3" d="M107.042,153.919c-0.003,0-0.006,0-0.01,0c-0.083-0.005-0.148-0.078-0.144-0.162l0.035-0.612
		c0.004-0.082,0.072-0.146,0.153-0.146c0.003,0,0.006,0,0.008,0c0.085,0.005,0.15,0.078,0.145,0.162l-0.035,0.612
		C107.19,153.856,107.123,153.919,107.042,153.919z M107.115,152.643c-0.003,0-0.005,0-0.008,0c-0.085-0.005-0.15-0.077-0.145-0.162
		l0.034-0.612c0.005-0.085,0.07-0.146,0.161-0.146c0.085,0.005,0.15,0.078,0.146,0.162l-0.035,0.613
		C107.262,152.579,107.195,152.643,107.115,152.643z M107.187,151.366c-0.003,0-0.005,0-0.008,0
		c-0.085-0.005-0.15-0.077-0.146-0.162l0.035-0.612c0.005-0.084,0.07-0.15,0.161-0.145c0.085,0.005,0.15,0.078,0.145,0.162
		l-0.034,0.612C107.335,151.304,107.268,151.366,107.187,151.366z"/>
	<path fill="#B9B9FC" d="M91.802,105.915c-0.01,0-0.019,0-0.03-0.002l-2.439-0.481c-0.083-0.016-0.137-0.097-0.12-0.179
		c0.016-0.083,0.097-0.135,0.18-0.121l2.439,0.481c0.083,0.016,0.137,0.097,0.121,0.179
		C91.937,105.865,91.872,105.915,91.802,105.915z"/>
	<path fill="#B9B9FC" d="M92.255,106.233c-0.01,0-0.019-0.001-0.03-0.002l-2.893-0.571c-0.083-0.016-0.137-0.097-0.12-0.18
		c0.016-0.083,0.097-0.137,0.18-0.121l2.893,0.57c0.083,0.017,0.137,0.098,0.121,0.18C92.39,106.182,92.326,106.233,92.255,106.233z
		"/>
	<path fill="#B9B9FC" d="M91.484,106.55c-0.01,0-0.019-0.001-0.029-0.003l-2.206-0.435c-0.083-0.017-0.137-0.098-0.121-0.18
		c0.017-0.084,0.098-0.138,0.181-0.121l2.205,0.435c0.083,0.017,0.138,0.098,0.121,0.181
		C91.621,106.499,91.557,106.55,91.484,106.55z"/>
	<path fill="#B9B9FC" d="M92.095,107.184c-0.01,0-0.019-0.001-0.03-0.002l-2.905-0.573c-0.083-0.016-0.137-0.097-0.121-0.18
		c0.017-0.083,0.1-0.136,0.181-0.12l2.905,0.572c0.083,0.017,0.137,0.098,0.121,0.18C92.231,107.133,92.167,107.184,92.095,107.184z
		"/>
	<path fill="#262F6D" d="M93.939,33.115c-1.526-0.819-1.807-2.96-1.496-4.492c0.395-1.952,1.783-3.098,2.777-4.69
		c-0.072,0.374,0.399,0.627,0.653,0.799c-0.038-0.623,0.458-1.187,0.971-1.477c-0.011,0.296,0.087,0.635,0.304,0.81
		c0.541-0.789,1.601-0.886,2.379-1.154c-0.141,0.087-0.238,0.46,0.041,0.638c0.791,0.063,1.652-0.162,2.38,0.209
		c0.198,0.1,0.833,0.492,0.884,0.75c0.125,0.656-1.38,2.124-1.683,2.552c-1.393,1.967-2.921,4.888-5.427,5.5
		C95.297,32.661,94.036,32.86,93.939,33.115z"/>
	<path fill="#5050D3" d="M98.944,100.537c-0.073,0-0.138-0.053-0.15-0.127c-0.747-4.401,0.376-11.527,0.895-14.387
		c0.016-0.083,0.098-0.137,0.179-0.124c0.083,0.016,0.139,0.095,0.123,0.179c-0.514,2.843-1.632,9.927-0.893,14.281
		c0.014,0.083-0.042,0.163-0.125,0.177C98.962,100.537,98.953,100.537,98.944,100.537z"/>
	<path fill="#5050D3" d="M99.044,96.287c-0.006,0-0.012,0-0.018-0.001c-0.038-0.004-0.939-0.119-1.56-0.75
		c-0.613-0.622,0.538-8.439,0.775-10c0.013-0.083,0.092-0.138,0.174-0.129c0.084,0.013,0.141,0.092,0.128,0.175
		c-0.683,4.5-1.191,9.375-0.859,9.739c0.545,0.554,1.37,0.659,1.378,0.659c0.084,0.011,0.144,0.087,0.134,0.171
		C99.188,96.229,99.121,96.287,99.044,96.287z"/>
	<path fill="#5050D3" d="M108.394,96.074c-0.121,0-0.299-0.008-0.563-0.02c-0.039-0.001-0.073-0.018-0.099-0.042
		c-0.111-0.008-0.238-0.016-0.385-0.027c-2.358-0.157-2.784-6.571-2.801-6.845c-0.005-0.084,0.059-0.157,0.145-0.163
		c0.085,0,0.157,0.06,0.162,0.145c0.111,1.785,0.781,6.442,2.515,6.558c0.606,0.04,0.928,0.062,1.098,0.09c0.008,0,0.012,0,0.016,0
		v0.003c0.178,0.032,0.176,0.072,0.171,0.157C108.647,96.039,108.644,96.074,108.394,96.074z"/>
	<path fill="#5050D3" d="M93.448,89.058c-0.16,0-0.326-0.052-0.497-0.155c-0.073-0.043-0.095-0.137-0.051-0.21
		c0.044-0.072,0.138-0.095,0.211-0.052c0.191,0.118,0.362,0.141,0.512,0.072c0.601-0.265,0.897-1.779,1.04-2.508
		c0.027-0.139,0.05-0.255,0.07-0.338c0.13-0.555,0.254-1.114,0.369-1.674c0.018-0.083,0.103-0.138,0.181-0.119
		c0.083,0.017,0.137,0.098,0.12,0.181c-0.116,0.562-0.241,1.123-0.373,1.682c-0.018,0.081-0.041,0.193-0.067,0.327
		c-0.165,0.839-0.471,2.399-1.216,2.729C93.65,89.036,93.55,89.058,93.448,89.058z"/>
	<path fill="#262F6D" d="M104.823,43.294c0.181-0.794,0.6-1.536,1.09-2.179c0.542-0.71,1.144-1.353,1.781-1.977
		c1.433-1.402,1.954-2.966,2.204-5.004c0.308-2.617-0.008-5.348-1.713-7.355c-1.855-2.184-5.374-4.117-8.254-3.018
		c-1.063,0.405-1.988,1.103-2.846,1.85c-1.03,0.898-2.028,1.958-2.327,3.292c-0.134,2.202-0.237,4.407-0.237,6.615
		c-0.001,0.349-0.128,0.658-0.336,0.896c0.104,0.684,0.198,1.369,0.305,2.053c0.14,0.102,0.275,0.208,0.406,0.314
		c1.131,0.909,2.021,2.133,2.86,3.302c0.354,0.494,0.691,1,1.029,1.504c0.021-0.04,0.042-0.079,0.062-0.12
		c0.021-0.043,0.042-0.086,0.063-0.131c0.091-0.186-0.049,0.133-0.053,0.135c0.067-0.013,0.183-0.518,0.204-0.591
		c0.047-0.167,0.083-0.335,0.116-0.506c0.005-0.046,0.019-0.108,0.021-0.134c0.009-0.097,0.015-0.193,0.018-0.291
		c0.007-0.202,0-0.406-0.017-0.608c-0.064-0.782,0.694-1.369,1.399-1.4c0.799-0.036,1.339,0.671,1.4,1.4
		c0.014,0.168,0.02,0.34,0.02,0.513c0.803,0.072,1.711,0.344,2.304,0.363c0.016,0.537-0.107,1.187-0.188,1.656
		c0.024-0.145,0.296-0.334,0.679-0.542C104.817,43.319,104.82,43.306,104.823,43.294z"/>
	<path fill="#2B2BB2" d="M116.087,60.929c-0.176,1.502-0.487,2.998-0.795,4.479c-0.619,2.978-2.893,5.42-3.405,8.419
		c-0.462,2.714-1.51,7.123-1.321,9.879c0.168,2.463,0.879,3.178,1.01,5.625c0.002,0.028,0.003,0.056,0.004,0.083
		c0.001,0.028,0.002,0.055,0.003,0.082c0.04,1.443,0.574,2.343-0.088,2.905c-0.611,0.517-1.372,0.745-2.002,0.841
		c-0.707,0.109-1.254,0.051-1.254,0.051s-9.856-1.37-14.304-7.037c-0.329-0.418-0.453-0.964-0.332-1.482
		c1.271-5.392,0.827-16.316,0.039-24.009c-0.403-3.928-2.088-7.88-1.758-11.799c0.019-0.226,0.038-0.452,0.093-0.671
		c0.219-0.872,1.651-2.678,2.679-2.585c0.898,0.082,3.899,0.622,4.712,0.984c1.618,0.721,11.05,6.146,12.833,7.235
		c0.749,0.457,1.832,1.042,2.703,1.742c0.57,0.456,1.051,0.96,1.289,1.509C116.669,58.28,116.221,59.784,116.087,60.929z"/>
	<path fill="#FFC2C2" d="M104.491,50.667c-0.111,1.899-1.979,2.886-3.731,2.792c-1.927-0.103-1.905-1.824-1.837-3.38
		c0.027-0.639,0.048-1.276,0.064-1.915c0.022-0.928,0.034-1.854,0.032-2.787c-0.002-1.016-0.169-2.842,0.476-3.707
		c1.255-1.678,3.662-1.652,4.834-0.967c0,1.057,0.037,2.118,0.08,3.179l0,0C104.501,46.146,104.622,48.413,104.491,50.667z"/>
	<path fill="#FC9DA4" d="M104.408,43.883L104.408,43.883c-0.348,0.685-0.811,1.398-1.426,2.097
		c-1.672,1.895-3.129,2.216-3.995,2.184c0.022-0.927,0.034-1.854,0.032-2.787c-0.002-1.015-0.169-2.842,0.476-3.706
		c1.255-1.679,3.662-1.653,4.834-0.967C104.33,41.76,104.365,42.821,104.408,43.883z"/>
	<path fill="#725E3E" d="M108.995,94.023c0.008,0.018,0.017,0.033,0.025,0.052C108.818,94.16,108.857,94.114,108.995,94.023z"/>
	<path fill="#20209E" d="M116.192,57.18c-0.239-0.548-0.719-1.053-1.289-1.509c-1.288,0.316-2.42,2.33-2.853,3.499
		c-1.318,3.571-2.366,11.91-2.429,12.633c-0.184,2.087-0.51,8.219-0.51,9.362c0,3.791,0.766,7.166,0.774,11.774
		c0.548-0.083,1.125-0.216,1.608-0.541c0.272-0.183,0.465-0.207,0.435-0.599c-0.106-1.368-0.242-2.68-0.562-4.018
		c-0.322-1.353-0.686-2.688-0.801-4.078c-0.188-2.755,0.86-7.165,1.322-9.879c0.512-2.999,2.787-5.441,3.405-8.419
		c0.308-1.48,0.619-2.976,0.795-4.479C116.221,59.784,116.669,58.28,116.192,57.18z"/>
	<path fill="#FFC2C2" d="M94.033,29.116c-1.128,1.703,0.017,4.609-0.244,6.443c-0.371,2.607-0.31,4.451,1.17,6.813
		c2.949,4.701,6.806,2.435,9.657-0.524c1.21,0.146,3.051-1.809,2.584-2.947c-0.408-0.989-2.02-0.718-2.772-0.147
		c0.971-0.737,0.899-3.894,0.639-4.993c-0.681-2.89-0.591-2.783-6.212-4.838c-1.288-0.472-2.828-1.256-3.968-0.598
		C94.514,28.54,94.237,28.809,94.033,29.116z"/>
	<ellipse fill="#192356" cx="99.741" cy="37.125" rx="0.466" ry="0.809"/>
	<ellipse fill="#192356" cx="94.651" cy="35.653" rx="0.467" ry="0.809"/>
	<path fill="#FFC2C2" d="M116.638,57.969c2.651,2.757,3.268,17.592,3.991,21.711c0.683,3.894-2.976,18.835-3.492,20.942
		c-0.261,1.066-2.594,1.419-2.52-0.322c0.124-2.841,1.066-16.566,1.112-18.708c0.062-2.88-1.808-9.499-2.534-12.258
		c-0.616-2.345,0.472-0.702,0.304-3.121c-0.153-2.228-0.369-4.642,0.556-6.72C114.401,58.715,115.639,56.931,116.638,57.969z"/>
	<path fill="#FC9DA4" d="M96.906,36.351c-0.009,0.578-0.194,1.117-0.475,1.621c-0.225,0.403-0.59,0.764-0.275,1.202
		c0.353,0.49,1.104,0.56,1.488,0.138L96.906,36.351z"/>
	<path fill="#FC9DA4" d="M104.49,40.834c-0.025-0.208,0.088-0.42,0.317-0.455c0.324-0.051,0.331,0.21,0.349,0.447
		c0.148-0.313,0.561-0.545,0.784-0.827c0.247-0.313,0.258-0.815-0.17-0.948C104.996,38.811,104.172,39.969,104.49,40.834z"/>
	<path fill="#192356" d="M97.666,41.804c-0.452,0-0.805-0.155-1.062-0.337c-0.047-0.033-0.058-0.096-0.025-0.142
		c0.033-0.046,0.098-0.057,0.143-0.025c0.45,0.316,1.225,0.54,2.366-0.186c0.046-0.03,0.11-0.017,0.142,0.032
		c0.03,0.048,0.017,0.111-0.031,0.142C98.599,41.669,98.089,41.804,97.666,41.804z"/>
	<path fill="#262F6D" d="M99.075,34.45c0.323,0.511,2.657,1.415,3.259,1.667c0.166,0.069,0.357-0.009,0.427-0.174
		c0.068-0.161-0.003-0.346-0.16-0.421c-0.962-0.459-1.927-0.919-2.887-1.384c-0.124-0.061-0.255-0.122-0.393-0.111
		C98.951,34.055,98.944,34.241,99.075,34.45z"/>
	<path fill="#262F6D" d="M96.169,33.356c-0.504-0.058-2.783-0.49-2.892-0.184c-0.024,0.073-0.023,0.153-0.021,0.232
		c0.004,0.121,0.019,0.262,0.115,0.327c0.042,0.029,0.091,0.037,0.141,0.044c0.433,0.068,2.185,0.189,2.621,0.229
		c0.166,0.01,0.306-0.127,0.313-0.307C96.45,33.525,96.329,33.374,96.169,33.356z"/>
	<path fill="#192356" d="M100.893,36.879c-0.021,0-0.041-0.006-0.059-0.019c-0.864-0.606-1.552-0.617-1.56-0.617
		c-0.056,0-0.102-0.046-0.102-0.102c0-0.057,0.046-0.102,0.102-0.102c0.031,0,0.756,0.007,1.679,0.653
		c0.046,0.033,0.057,0.097,0.025,0.142C100.957,36.865,100.926,36.879,100.893,36.879z"/>
	<path fill="#192356" d="M95.268,35.186c-0.025,0-0.05-0.008-0.07-0.027c-0.019-0.018-0.476-0.437-1.151-0.217
		c-0.055,0.014-0.112-0.013-0.128-0.066c-0.017-0.054,0.013-0.112,0.066-0.129c0.79-0.253,1.331,0.242,1.353,0.263
		c0.041,0.038,0.043,0.102,0.005,0.144C95.322,35.175,95.295,35.186,95.268,35.186z"/>
	<path fill="#2B2BB2" d="M113.761,74.92c0.216-0.009,0.658-0.02,0.875-0.036c2.655-0.197,4.808-1.627,5.429-4.25
		c-1.273-7.513-2.2-12.346-4.117-14.057c-1.224-1.094-2.476,1.038-2.802,1.952c-0.872,2.441-1.355,6.36-0.988,8.878
		C112.557,70.14,113.588,74.521,113.761,74.92z"/>
	<g>
		<g>
			<g>
				<path fill="#2B2BB2" d="M115.701,104.014c-1.725,0.957-3.296,3.192-3.5,4.978l-0.664,5.793l0.225-0.124l0.664-5.793
					c0.19-1.659,1.646-3.737,3.25-4.625c1.604-0.89,2.75-0.254,2.559,1.405l-0.663,5.793l0.219-0.122l0.664-5.793
					C118.66,103.738,117.427,103.057,115.701,104.014L115.701,104.014z"/>
			</g>
		</g>
		<polygon fill="#192356" points="120.707,127.252 127.642,131.281 111.187,140.782 104.252,136.752 		"/>
		<polygon fill="#0F1738" points="108.983,114.835 108.983,136.477 111.187,140.782 		"/>
		<polygon fill="#233068" points="106.812,115.039 104.252,136.752 108.983,136.477 108.983,114.835 		"/>
		<polygon fill="#0F1738" points="106.812,115.039 123.267,105.539 122.906,106.796 125.082,106.593 108.626,116.094 
			108.983,114.835 		"/>
		<polygon fill="#192356" points="125.082,106.593 127.642,131.281 111.187,140.782 108.626,116.094 		"/>
		<g>
			<g>
				<path fill="#2B2BB2" d="M116.07,104.081c-1.688,0.975-2.893,3.425-2.686,5.468l0.671,6.603l0.22-0.127l-0.672-6.603
					c-0.193-1.898,0.923-4.175,2.492-5.081c1.563-0.903,2.994-0.096,3.188,1.803l0.672,6.602l0.22-0.127l-0.672-6.603
					C119.295,103.972,117.752,103.11,116.07,104.081L116.07,104.081z"/>
			</g>
		</g>
		<g>
			<g>
				<path fill="#192356" d="M120.325,112.299c-0.143-0.079-0.273-0.006-0.297,0.165c-0.022,0.171,0.071,0.369,0.215,0.448
					c0.138,0.076,0.272,0.007,0.296-0.165C120.562,112.575,120.462,112.375,120.325,112.299L120.325,112.299z"/>
			</g>
		</g>
		<g>
			<g>
				<path fill="#192356" d="M114.347,115.784c-0.144-0.08-0.275,0-0.296,0.165c-0.023,0.172,0.071,0.369,0.213,0.448
					c0.144,0.08,0.274,0.007,0.296-0.165C114.584,116.068,114.49,115.864,114.347,115.784L114.347,115.784z"/>
			</g>
		</g>
	</g>
	<path fill="#FFC2C2" d="M114.496,100.611c0.251,1.193-1.206,3.932-0.157,4.888c0.765,0.698,2.33,0.522,2.75-0.51
		c-0.013-0.066-0.017-0.065-0.011,0.003c0.131,0.082,0.198-0.005,0.351,0.036c-0.043-1.288,0.322-3.301-0.585-4.388
		C116.062,99.703,115.212,100.166,114.496,100.611z"/>
</g>
<g>
	<path fill="#E5416C" d="M130.56,74.507c-5.618-0.004-5.871,9.869-6.266,13.875c-0.217,2.201,0.252,4.676-0.271,6.778
		c-0.405,1.627-1.254,3.229-1.54,4.943c-0.247,1.483-0.374,3.452,0.619,4.726c1.173,1.109,1.034-2,1.886-2.673
		c1.303-1.031,1.798-2.108,2.201-3.708c1.19-4.737,2.187-10.032,2.858-14.968C130.117,82.966,130.923,74.832,130.56,74.507z"/>
	<g>
		<g>
			<path fill="#E1E5F4" d="M142.199,172.358c-6.044-3.489-15.813-3.489-21.822,0.003c-6.004,3.489-5.972,9.147,0.072,12.638
				c6.048,3.492,15.817,3.492,21.821,0.003C148.281,181.509,148.249,175.85,142.199,172.358L142.199,172.358z"/>
		</g>
	</g>
	<path fill="#192356" d="M123.886,171.32c-1.018,0.861-2.425,2.003-2.727,3.005c-0.274,0.906,0.402,1.823,1.35,1.836
		c2.337,0.03,4.435-1.21,6.214-2.898c0.826-0.785,2.969-1.612,3.486-2.622c0.569-1.115-0.403-1.727-0.927-2.903
		C130.454,165.872,124.817,170.531,123.886,171.32z"/>
	<path fill="#192356" d="M128.543,167.516c-1.077,0.983-4.101,3.396-5.101,4.493c-0.796,0.871-0.408,2.063,1.956,1.45
		c1.464-0.38,3.825-1.928,5.298-3.286c0.58-0.534,0.85-1.325,0.719-2.103C130.775,164.263,128.855,166.215,128.543,167.516z"/>
	<path fill="#2B2BB2" d="M135.584,124.222c-0.002,0.039-0.003,0.077-0.005,0.116c-0.105,2.583-0.422,5.176-1.147,7.656
		c-0.235,0.807-0.514,1.601-0.842,2.38c-0.354,0.839-1.016,2.062-1.346,3.209c-0.176,0.604-0.258,1.188-0.154,1.684
		c0.03,0.143,0.06,0.285,0.088,0.428c2.387,12.066-0.896,25.949-0.665,28.777c-0.05,0.041-0.101,0.08-0.149,0.116
		c-1.313,0.98-2.465,0.681-3.185-0.116c0.092-6.773-1.698-25.687-2.152-30.575c-0.551-5.927,1.596-30.115,2.896-30.132
		c0.787-0.01,4.149-2.832,4.149-2.918c0.562,1.155,1.053,2.254,1.411,3.49c0.083,0.292,0.158,0.587,0.225,0.885
		c0.195,0.875,0.409,1.857,0.513,2.845c0.106,1.007,0.099,2.019-0.161,2.931c-0.22,0.771,0.469,3.196,0.502,4.132
		c0.005,0.149,0.01,0.298,0.014,0.446C135.625,121.122,135.645,122.674,135.584,124.222z"/>
	<path fill="#1C1C93" d="M131.514,168.472c-0.05,0.041-0.101,0.08-0.149,0.116c0.017-0.169,0.034-0.341,0.052-0.518
		c1.776-17.505-0.612-30.185-0.612-30.185l1.44-0.305c-0.176,0.605-0.257,1.189-0.153,1.685
		C134.643,151.431,131.281,165.61,131.514,168.472z"/>
	<path fill="#1C1C93" d="M135.584,124.222c-0.002,0.039-0.003,0.077-0.005,0.116c-0.105,2.583-0.422,5.176-1.147,7.656
		c-0.235,0.807-0.514,1.601-0.842,2.38c-0.354,0.839-1.016,2.062-1.346,3.209c-0.176,0.604-0.258,1.188-0.154,1.684
		c0.03,0.143,0.06,0.285,0.088,0.428l-1.375-1.809l3.056-10.255L135.584,124.222z"/>
	<path fill="#192356" d="M135.196,179.241c-1.017,0.862-2.425,2.003-2.727,3.005c-0.274,0.906,0.402,1.824,1.35,1.836
		c2.337,0.031,4.436-1.21,6.214-2.898c0.826-0.785,2.969-1.612,3.486-2.622c0.569-1.115-0.402-1.727-0.926-2.903
		C141.765,173.795,136.127,178.454,135.196,179.241z"/>
	<path fill="#192356" d="M139.854,175.438c-1.078,0.983-4.103,3.396-5.102,4.493c-0.795,0.872-0.408,2.063,1.957,1.45
		c1.464-0.38,3.824-1.928,5.298-3.286c0.579-0.533,0.85-1.325,0.718-2.103C142.084,172.186,140.164,174.137,139.854,175.438z"/>
	<path fill="#FFD983" d="M138.029,50.178c-0.525-0.698-2.147-1.046-2.965-1.226c-1.534-0.339-3.37,0.307-4.651,1.061
		c-2.355,1.386-3.542,4.154-3.629,6.803c-0.054,1.679-0.138,3.155,0.006,4.827c0.064,0.76,0.4,1.613,0.203,2.386
		c-0.192,0.757-0.833,1.213-1.337,1.792c-1.653,1.899-2.015,3.267-1.566,5.715c0.175,0.959,0.383,2.16,0.345,3.166
		c-0.033,0.833-0.535,1.268-0.744,2.051c-1.408,5.281,8.602,4.948,10.71,2.311c4.216-5.271,4.037-11.318,4.037-17.802
		c0-2.659,0.29-5.288,0.307-7.905C138.75,52.316,138.875,51.138,138.029,50.178z"/>
	<path fill="#FFD983" d="M137.576,69.589c2.433,0.632,5.945-2.482,7.203-4.279c4.224-6.022,0.946-16.659-7.446-15.761
		c-1.215,0.13-2.246,1-3.059,1.907c-0.426,0.475-1.63,1.885-1.459,2.607c0.385,1.621,2.017,2.837,2.665,3.79
		C137.997,61.546,137.296,65.426,137.576,69.589z"/>
	<path fill="#2B2BB2" d="M145.815,123.357c-0.541,1.005-1.135,1.7-1.242,2.867c-0.078,0.842-0.116,1.688-0.165,2.533
		c-0.087,1.527,0.065,3.091-0.147,4.608c-0.229,1.62-0.403,2.966-0.543,4.119c-0.166,1.376-0.281,2.479-0.372,3.445
		c-0.159,1.704-0.244,2.992-0.403,4.625c3.038,12.409-0.552,27.422-0.313,30.375c-0.056,0.047-0.113,0.091-0.17,0.132
		c-1.306,0.961-2.448,0.662-3.164-0.132c0.092-6.773-1.697-25.687-2.152-30.575c-0.415-4.471-1.867-8.9-2.71-13.359v-0.001
		c-0.274-1.45-0.484-2.903-0.573-4.363c-0.081-1.355-0.607-15.744,0.421-15.646c0.313,0.029,0.628,0.057,0.941,0.081
		c1.078,0.085,2.158,0.149,3.236,0.233c1.154,0.09,3.101,0.152,4.4,0.135c0.164-0.002,0.317-0.006,0.458-0.01
		c0.536-0.019,0.88-0.057,0.873-0.12c0.562,1.154,1.052,2.254,1.408,3.49c0.085,0.293,0.161,0.588,0.228,0.885
		C146.286,118.753,146.857,121.424,145.815,123.357z"/>
	<path fill="#E5416C" d="M147.056,84.696c-0.17,1.454-0.472,2.899-0.769,4.332c-0.599,2.878-1.314,5.735-1.81,8.635
		c-0.448,2.625-0.725,5.297-0.541,7.961c0.162,2.383,1.101,4.667,1.228,7.034c0.002,0.027,0.002,0.054,0.003,0.081
		c0.002,0.026,0.002,0.053,0.003,0.08c0.039,1.395-0.434,2.265-1.074,2.808c-0.591,0.5-1.325,0.721-1.937,0.814
		c-0.683,0.104-1.212,0.05-1.212,0.05s-8.05-1.326-12.351-6.805c-0.318-0.405-0.314-0.928-0.218-1.434
		c0.981-5.203,1.349-10.416,1.334-13.662c0-0.368-0.006-0.71-0.012-1.025c-0.02-1.022-0.061-1.75-0.082-2.086
		c-0.009-0.138-0.015-0.211-0.015-0.211s-3.46-1.329-2.774-6.235c0.56-4.006,0.967-6.709,1.303-10.738
		c0.025-0.327,0.054-0.659,0.148-0.974c0.014-0.041,0.027-0.083,0.043-0.124c0.336-0.906,1.514-1.408,2.428-1.325
		c0.87,0.079,1.794,0.602,2.58,0.952c1.565,0.696,3.105,1.45,4.63,2.232c1.796,0.923,3.609,1.816,5.334,2.87
		c0.725,0.441,1.771,1.007,2.615,1.683c0.551,0.441,1.016,0.929,1.246,1.459C147.618,82.135,147.187,83.59,147.056,84.696z"/>
	<path fill="#FFC2C2" d="M131.345,71.99c0,0-2.187,9.161,2.826,12.125c5.014,2.965,9.553-5.931,9.553-5.931
		S137.56,74.327,131.345,71.99z"/>
	<path fill="#FFFFFF" d="M136.281,84.873c-0.751,0-1.482-0.209-2.188-0.626c-2.098-1.24-3.262-3.765-3.369-7.302
		c-0.08-2.65,0.467-4.969,0.472-4.992c0.02-0.081,0.097-0.135,0.185-0.113c0.081,0.019,0.133,0.102,0.113,0.184
		c-0.021,0.091-2.103,9.085,2.755,11.958c1.004,0.593,2.064,0.736,3.155,0.418c3.451-1.002,6.156-6.234,6.183-6.287
		c0.039-0.076,0.133-0.105,0.206-0.067c0.076,0.039,0.105,0.131,0.067,0.206c-0.112,0.221-2.791,5.404-6.37,6.442
		C137.083,84.814,136.68,84.873,136.281,84.873z"/>
	<path fill="#FFD983" d="M123.609,77.778c0.007,0.764,1.216,7.066,3.171,6.63c0.917-0.204,1.862-3.393,2.124-4.183
		c0.448-1.349,0.803-2.995,1.528-4.218c0.878-1.481,2.995-2.093,3.647-3.68c0.409-0.998,0.078-2.017-0.536-2.984
		c-0.735-1.158-3.174-2.81-4.508-2.214c-2.425,1.083-3.265,5.501-3.873,7.818C124.832,76.194,124.515,76.629,123.609,77.778z"/>
	<path fill="#FFC2C2" d="M139.111,76.221c-0.107,1.836-1.913,2.791-3.608,2.7c-1.864-0.1-1.843-1.764-1.777-3.269
		c0.026-0.618,0.048-1.235,0.063-1.852c0.022-0.897,0.033-1.794,0.031-2.695c-0.002-0.982-0.163-2.748,0.461-3.584
		c1.215-1.625,3.54-1.598,4.676-0.936c0,1.022,0.034,2.048,0.076,3.075l0,0C139.119,71.849,139.238,74.042,139.111,76.221z"/>
	<path fill="#FC9DA4" d="M139.031,69.661L139.031,69.661c-0.336,0.662-0.783,1.352-1.38,2.027c-1.616,1.833-3.026,2.143-3.863,2.113
		c0.022-0.897,0.033-1.794,0.031-2.695c-0.002-0.982-0.163-2.748,0.461-3.584c1.215-1.625,3.54-1.598,4.676-0.936
		C138.954,67.608,138.989,68.633,139.031,69.661z"/>
	<path fill="#1C1C93" d="M145.824,116.679c-0.066-0.296-0.143-0.592-0.227-0.885c-0.357-1.236-0.847-2.336-1.409-3.49
		c0.007,0.063-0.338,0.101-0.872,0.12l-0.688,3.928c0,0-0.622,13.394-1.132,21.602l0,0c-0.003,0.011-0.336,1.303,0.063,7.39
		c0.375,5.737,1.524,16.013,0.598,25.148c-0.357,3.514,0.415,5.484,0.472,5.438c-0.24-2.954,3.35-17.966,0.312-30.375
		c0.159-1.633,0.244-2.921,0.403-4.626l0,0c0.046-0.482,0.097-0.998,0.158-1.565c0-0.002,0-0.005,0-0.008
		c0.016-0.141,0.031-0.283,0.048-0.429c0-0.002,0.001-0.005,0.001-0.007c0.007-0.07,0.015-0.141,0.021-0.211
		c0.001-0.005,0.002-0.01,0.003-0.016c0.008-0.072,0.017-0.146,0.024-0.219c0.001-0.008,0.002-0.018,0.003-0.025
		c0.008-0.063,0.016-0.125,0.021-0.188c0.002-0.018,0.004-0.037,0.006-0.055c0.008-0.064,0.016-0.13,0.023-0.195
		c0.003-0.032,0.007-0.064,0.011-0.098c0.005-0.036,0.01-0.073,0.014-0.11c0.006-0.044,0.011-0.088,0.017-0.133
		c0.001-0.011,0.003-0.021,0.004-0.032c0.006-0.051,0.013-0.102,0.018-0.154l0,0l0,0c0.141-1.153,0.314-2.499,0.543-4.119
		c0.213-1.517,0.061-3.081,0.148-4.608c0.048-0.845,0.086-1.691,0.164-2.533c0.107-1.167,0.701-1.862,1.242-2.867
		C146.857,121.424,146.286,118.753,145.824,116.679z"/>
	<path fill="#FFC2C2" d="M128.931,55.38c-1.092,1.647,0.017,4.458-0.235,6.23c-0.359,2.521-0.3,4.305,1.132,6.588
		c2.851,4.547,6.581,2.354,9.339-0.507c1.17,0.142,2.951-1.75,2.498-2.851c-0.395-0.957-1.953-0.694-2.681-0.142
		c0.938-0.713,0.869-3.766,0.619-4.829c-0.659-2.795-0.572-2.69-6.01-4.679c-1.246-0.456-2.734-1.215-3.836-0.578
		C129.396,54.823,129.127,55.083,128.931,55.38z"/>
	<path fill="#725E3E" d="M142.843,118.055c0.009,0.017,0.017,0.032,0.026,0.05C142.672,118.188,142.711,118.142,142.843,118.055z"/>
	<path fill="#FC9DA4" d="M131.774,62.377c-0.008,0.559-0.186,1.08-0.458,1.568c-0.216,0.39-0.57,0.738-0.267,1.161
		c0.342,0.475,1.069,0.542,1.441,0.133L131.774,62.377z"/>
	<ellipse fill="#192356" cx="134.45" cy="63.125" rx="0.451" ry="0.782"/>
	<ellipse fill="#192356" cx="129.529" cy="61.702" rx="0.451" ry="0.782"/>
	<path fill="#192356" d="M133.704,62.315c0.427,0.052,0.827,0.08,1.197,0.302c0.191,0.114,0.403,0.241,0.573,0.394
		c0.101,0.09,0.171,0.23,0.294,0.276C135.58,62.317,134.475,61.966,133.704,62.315z"/>
	<path fill="#192356" d="M128.716,60.862c0.428,0.047,0.828,0.068,1.201,0.286c0.193,0.111,0.407,0.235,0.579,0.386
		c0.102,0.088,0.176,0.228,0.298,0.272C130.592,60.838,129.483,60.504,128.716,60.862z"/>
	<path fill="#FC9DA4" d="M139.109,66.712c-0.024-0.2,0.085-0.406,0.308-0.44c0.313-0.05,0.319,0.203,0.337,0.433
		c0.144-0.303,0.542-0.527,0.758-0.8c0.24-0.304,0.25-0.79-0.165-0.917C139.598,64.755,138.802,65.876,139.109,66.712z"/>
	<path fill="#192356" d="M133.599,61.242c0.038,0.027,0.082,0.046,0.126,0.063c0.779,0.304,1.631,0.23,2.399,0.526
		c0.32,0.122,0.596,0.308,0.828,0.524c-0.243-0.794-1.269-1.135-1.982-1.375c-0.262-0.089-0.566-0.12-0.841-0.127
		c-0.136-0.004-0.876,0.045-0.562,0.362C133.578,61.224,133.588,61.233,133.599,61.242z"/>
	<path fill="#192356" d="M130.465,60.183c-0.041-0.001-0.089-0.013-0.146-0.036c-0.528-0.216-0.914-0.695-1.441-0.877
		c-0.236-0.081-0.495-0.095-0.756-0.064c0.672-0.432,1.391-0.136,1.893,0.069c0.195,0.08,0.419,0.253,0.545,0.421
		C130.703,59.885,130.703,60.192,130.465,60.183z"/>
	<path fill="#FFFFFF" d="M132.036,54.598l-0.202-0.033c0.009-0.049,0.841-4.822,5.493-5.118l0.014,0.204
		C132.853,49.937,132.044,54.552,132.036,54.598z"/>
	<path fill="#192356" d="M132.368,68.153c-0.05,0-0.1-0.002-0.148-0.008c-1.02-0.107-1.648-1.269-1.675-1.318
		c-0.027-0.051-0.009-0.112,0.042-0.139c0.05-0.026,0.111-0.007,0.138,0.042c0.007,0.011,0.606,1.116,1.517,1.211
		c0.536,0.053,1.077-0.243,1.616-0.888c0.036-0.042,0.102-0.049,0.146-0.012c0.043,0.036,0.049,0.101,0.013,0.144
		C133.477,67.828,132.923,68.153,132.368,68.153z"/>
	<path fill="#C42355" d="M140.316,68.067c0,0.39-0.314,0.704-0.703,0.704c-0.183,0-0.348-0.068-0.474-0.183l0,0
		c-0.142-0.129-0.23-0.314-0.23-0.521c0-0.389,0.314-0.705,0.704-0.705c0.053,0,0.105,0.007,0.154,0.018
		C140.081,67.451,140.316,67.732,140.316,68.067z"/>
	<path fill="#E5416C" d="M139.998,67.902c0,0.389-0.315,0.704-0.705,0.704c-0.053,0-0.104-0.006-0.154-0.018l0,0
		c-0.142-0.129-0.23-0.314-0.23-0.521c0-0.389,0.314-0.705,0.704-0.705c0.053,0,0.105,0.007,0.154,0.018
		C139.908,67.509,139.998,67.696,139.998,67.902z"/>
	<path fill="#192356" d="M135.758,64.898c-0.003,1.006-0.715,1.412-1.591,0.907c-0.095-0.055-0.188-0.119-0.278-0.189
		c-0.064-0.05-0.127-0.104-0.188-0.163c-0.086-0.08-0.169-0.165-0.247-0.257c-0.251-0.291-0.463-0.636-0.614-0.992
		c-0.161-0.378-0.254-0.773-0.253-1.14c0.002-1.007,0.715-1.413,1.591-0.907c0.125,0.072,0.246,0.159,0.362,0.257
		c0.304,0.257,0.572,0.594,0.78,0.963c0.048,0.083,0.091,0.169,0.131,0.255c0.045,0.094,0.084,0.188,0.119,0.284
		C135.692,64.248,135.759,64.583,135.758,64.898z"/>
	<path fill="#192356" d="M132.95,63.653c-0.054,0-0.108-0.029-0.136-0.082c-0.367-0.687-0.78-1.094-1.192-1.18
		c-0.351-0.071-0.593,0.112-0.596,0.114c-0.066,0.054-0.162,0.042-0.215-0.023c-0.053-0.066-0.042-0.163,0.024-0.216
		c0.013-0.011,0.348-0.28,0.848-0.175c0.512,0.104,0.984,0.554,1.402,1.335c0.039,0.074,0.011,0.167-0.063,0.207
		C133,63.646,132.975,63.653,132.95,63.653z"/>
	<path fill="#192356" d="M130.985,62.707c-0.003,1.006-0.715,1.413-1.591,0.906c-0.289-0.167-0.562-0.413-0.795-0.704
		c-0.052-0.065-0.103-0.131-0.15-0.201c-0.017-0.025-0.034-0.05-0.051-0.077c-0.05-0.075-0.097-0.152-0.143-0.231
		c-0.164-0.291-0.29-0.602-0.365-0.912c-0.023-0.098-0.043-0.195-0.055-0.291c-0.016-0.11-0.022-0.217-0.022-0.324
		c0.003-0.898,0.571-1.319,1.317-1.038c0.081,0.03,0.162,0.068,0.246,0.115c0.01,0.005,0.018,0.01,0.028,0.017
		c0.26,0.149,0.503,0.362,0.72,0.613c0.053,0.063,0.106,0.13,0.156,0.197c0.004,0.005,0.008,0.01,0.012,0.015
		c0.057,0.078,0.112,0.159,0.163,0.242C130.781,61.557,130.987,62.164,130.985,62.707z"/>
	<path fill="#192356" d="M135.77,65.045c-0.07,0-0.134-0.048-0.149-0.119c-0.018-0.083,0.033-0.164,0.116-0.183l4.089-0.912
		c0.086-0.016,0.165,0.034,0.184,0.117c0.018,0.082-0.034,0.165-0.116,0.183l-4.089,0.912
		C135.792,65.044,135.78,65.045,135.77,65.045z"/>
	<path fill="#2A3B82" d="M135.32,63.38l-1.866,1.818c-0.251-0.292-0.463-0.635-0.614-0.993l1.701-1.789
		C134.842,62.673,135.113,63.01,135.32,63.38z"/>
	<path fill="#2A3B82" d="M130.28,60.778l-1.883,1.853c-0.049-0.075-0.097-0.152-0.143-0.231c-0.163-0.291-0.289-0.602-0.365-0.912
		l1.486-1.537c0.009,0.005,0.018,0.01,0.028,0.017c0.259,0.149,0.503,0.362,0.719,0.613C130.177,60.645,130.23,60.71,130.28,60.778z
		"/>
	<path fill="#E5416C" d="M142.628,116.352c-2.97,4.243-20.572,4.146-20.145-7.398c0.068-1.85,0.402-3.404,0.901-4.777
		c0.258-0.705,0.558-1.362,0.89-1.989c1.591-3.009,3.89-5.294,5.428-8.621C134.274,99.208,145.6,112.108,142.628,116.352z"/>
	<path fill="#C42355" d="M147.056,84.696c-0.17,1.454-0.472,2.899-0.769,4.332c-0.599,2.878-1.314,5.735-1.81,8.635
		c-0.448,2.625-0.725,5.297-0.541,7.961c0.162,2.383,1.101,4.667,1.228,7.034c0.002,0.027,0.002,0.054,0.003,0.081
		c0.002,0.026,0.002,0.053,0.003,0.08c0.052,1.56-0.418,2.367-1.074,2.808c-0.466,0.314-0.936,0.644-1.467,0.725
		c-0.009-4.456-0.836-7.922-0.836-11.588c0-1.9-0.354-3.453-1.229-5.106c-0.851-1.608-3.774-3.193-5.568-3.787
		c-1.601-0.529-3.906-1.395-5.294-2.303c-0.021-1.022-0.076-1.96-0.098-2.296c-0.006-0.105,2.675,0.273,2.955,0.356
		c1.202,0.354,2.156,1.212,3.136,1.954c1.122,0.848,2.521,1.566,3.924,1.785c0.517,0.081,1.064,0.051,1.534-0.178
		c0.609-0.297,1.024-0.902,1.241-1.544c1.169-3.461-0.521-7.181,0.76-10.646c0.416-1.131,1.513-3.078,2.758-3.384
		c0.551,0.441,1.016,0.929,1.246,1.459C147.618,82.135,147.187,83.59,147.056,84.696z"/>
	<path fill="#B9B9FC" d="M141.97,176.404c-0.002,0-0.003,0-0.005,0c-0.085-0.003-0.151-0.073-0.148-0.157l0.019-0.614
		c0.003-0.085,0.068-0.154,0.157-0.149c0.085,0.002,0.151,0.072,0.148,0.158l-0.018,0.615
		C142.12,176.338,142.052,176.404,141.97,176.404z M142.007,175.124c-0.002,0-0.003,0-0.004,0c-0.084-0.001-0.15-0.071-0.149-0.157
		l0.016-0.613c0.002-0.084,0.07-0.15,0.153-0.15c0.002,0,0.002,0,0.004,0c0.085,0.002,0.151,0.072,0.149,0.158l-0.016,0.614
		C142.158,175.059,142.091,175.124,142.007,175.124z M142.037,173.846c-0.002,0-0.003,0-0.004,0
		c-0.084-0.001-0.15-0.071-0.149-0.156l0.014-0.614c0.003-0.084,0.079-0.15,0.157-0.149c0.084,0.002,0.151,0.072,0.149,0.157
		l-0.014,0.613C142.19,173.781,142.121,173.846,142.037,173.846z M142.067,172.569c-0.001,0-0.003,0-0.004,0
		c-0.084-0.001-0.151-0.071-0.15-0.156l0.014-0.613c0.001-0.083,0.07-0.149,0.153-0.149c0.001,0,0.001,0,0.003,0
		c0.083,0.002,0.151,0.071,0.149,0.155l-0.012,0.614C142.217,172.502,142.15,172.569,142.067,172.569z M142.09,171.289
		c-0.001,0-0.002,0-0.003,0c-0.084-0.001-0.151-0.07-0.15-0.155l0.011-0.614c0.002-0.084,0.07-0.15,0.153-0.15c0,0,0.001,0,0.003,0
		c0.084,0.001,0.152,0.07,0.15,0.155l-0.011,0.614C142.241,171.223,142.172,171.289,142.09,171.289z M142.113,170.011
		c-0.001,0-0.003,0-0.003,0c-0.084-0.001-0.152-0.07-0.151-0.154l0.009-0.577c0.001-0.085,0.069-0.17,0.153-0.17
		c0.001,0,0.002,0,0.002,0c0.084,0.002,0.152,0.053,0.151,0.137l-0.009,0.614C142.264,169.944,142.197,170.011,142.113,170.011z
		 M142.129,168.734C142.129,168.734,142.129,168.734,142.129,168.734c-0.086-0.001-0.154-0.07-0.153-0.155l0.008-0.613
		c0.002-0.084,0.069-0.151,0.153-0.151c0,0,0,0,0.001,0c0.085,0.001,0.153,0.07,0.152,0.155l-0.007,0.613
		C142.281,168.666,142.214,168.734,142.129,168.734z M142.144,167.455c0,0-0.001,0-0.002,0c-0.083,0-0.152-0.069-0.151-0.154
		l0.006-0.614c0-0.084,0.069-0.151,0.153-0.151h0.001c0.084,0,0.151,0.069,0.151,0.153l-0.005,0.614
		C142.297,167.387,142.228,167.455,142.144,167.455z M142.155,166.177c0,0-0.001,0-0.002,0c-0.084,0-0.153-0.069-0.152-0.154
		l0.005-0.614c0.001-0.084,0.069-0.152,0.153-0.152h0.001c0.085,0,0.152,0.07,0.152,0.154l-0.004,0.614
		C142.307,166.109,142.238,166.177,142.155,166.177z M142.161,164.898L142.161,164.898c-0.085,0-0.153-0.069-0.153-0.154
		l0.002-0.613c0.001-0.085,0.07-0.152,0.154-0.152l0,0c0.085,0,0.153,0.068,0.153,0.153l-0.002,0.614
		C142.315,164.829,142.245,164.898,142.161,164.898z M142.165,163.619L142.165,163.619c-0.085,0-0.153-0.068-0.153-0.153
		l0.002-0.611c0-0.085,0.068-0.154,0.152-0.154c0.085,0,0.153,0.067,0.153,0.152v0.615
		C142.319,163.552,142.249,163.619,142.165,163.619z M142.165,162.342c-0.084,0-0.153-0.068-0.153-0.154l-0.002-0.61l0.309-0.004
		h-0.154l0.154,0.003l0.001,0.611C142.32,162.274,142.25,162.342,142.165,162.342z M142.161,161.064
		c-0.085,0-0.154-0.068-0.154-0.154c0-0.202-0.001-0.405-0.003-0.61l0.308-0.004h-0.153l0.153,0.001
		c0.002,0.206,0.004,0.409,0.004,0.613C142.315,160.995,142.245,161.064,142.161,161.064z M142.153,159.785
		c-0.085,0-0.153-0.068-0.153-0.153c-0.001-0.204-0.003-0.407-0.006-0.611l0.308-0.005l-0.153,0.001h0.153
		c0.002,0.205,0.004,0.41,0.006,0.615C142.305,159.715,142.238,159.785,142.153,159.785L142.153,159.785z M142.139,158.505
		c-0.083,0-0.151-0.067-0.153-0.151l-0.009-0.614c-0.001-0.084,0.066-0.154,0.151-0.155c0.001,0,0.001,0,0.002,0
		c0.084,0,0.152,0.066,0.154,0.151l0.008,0.614C142.293,158.435,142.225,158.504,142.139,158.505
		C142.14,158.505,142.14,158.505,142.139,158.505z M142.121,157.227c-0.083,0-0.152-0.066-0.153-0.15l-0.011-0.613
		c-0.002-0.085,0.065-0.155,0.149-0.156c0.002,0,0.002,0,0.003,0c0.083,0,0.152,0.066,0.153,0.15l0.012,0.613
		c0.001,0.085-0.067,0.154-0.151,0.156C142.122,157.227,142.122,157.227,142.121,157.227z M142.097,155.949
		c-0.083,0-0.151-0.066-0.153-0.15l-0.014-0.611c-0.002-0.085,0.065-0.155,0.149-0.157c0.001,0,0.003,0,0.004,0
		c0.082,0,0.15,0.065,0.152,0.149l0.015,0.612c0.002,0.085-0.065,0.155-0.149,0.157
		C142.099,155.949,142.098,155.949,142.097,155.949z M142.067,154.672c-0.082,0-0.151-0.065-0.154-0.149l-0.016-0.611
		c-0.002-0.084,0.064-0.155,0.148-0.157c0.002,0,0.004,0,0.005,0c0.082,0,0.149,0.064,0.153,0.148l0.017,0.612
		c0.002,0.085-0.065,0.155-0.15,0.157C142.069,154.672,142.068,154.672,142.067,154.672z M142.029,153.397
		c-0.082,0-0.15-0.064-0.153-0.147l-0.02-0.613c-0.003-0.084,0.063-0.155,0.147-0.158c0.002,0,0.004,0,0.005,0
		c0.083,0,0.15,0.064,0.153,0.147l0.021,0.614c0.003,0.084-0.063,0.155-0.147,0.157
		C142.031,153.397,142.031,153.397,142.029,153.397z M141.984,152.118c-0.082,0-0.15-0.065-0.153-0.146l-0.024-0.613
		c-0.003-0.084,0.063-0.156,0.147-0.159c0.071-0.007,0.155,0.062,0.159,0.147l0.024,0.614c0.003,0.084-0.063,0.154-0.147,0.158
		C141.988,152.118,141.986,152.118,141.984,152.118z M141.93,150.842c-0.081,0-0.148-0.064-0.152-0.146l-0.03-0.612
		c-0.004-0.085,0.061-0.157,0.146-0.161c0.003,0,0.005,0,0.008,0c0.081,0,0.148,0.063,0.152,0.146l0.03,0.612
		c0.004,0.085-0.062,0.157-0.146,0.161C141.935,150.842,141.933,150.842,141.93,150.842z M141.866,149.566
		c-0.081,0-0.149-0.063-0.153-0.146c-0.011-0.206-0.021-0.409-0.034-0.611c-0.006-0.085,0.059-0.158,0.145-0.163
		c0.085,0,0.157,0.06,0.162,0.144c0.012,0.203,0.022,0.408,0.034,0.614c0.005,0.085-0.061,0.157-0.146,0.161
		C141.871,149.566,141.868,149.566,141.866,149.566z M141.791,148.289c-0.081,0-0.148-0.063-0.153-0.144
		c-0.013-0.206-0.026-0.409-0.041-0.611c-0.006-0.084,0.057-0.157,0.143-0.163c0.084-0.005,0.158,0.059,0.163,0.142
		c0.016,0.202,0.028,0.408,0.041,0.614c0.007,0.085-0.058,0.157-0.143,0.162C141.797,148.289,141.794,148.289,141.791,148.289z
		 M141.701,147.015c-0.081,0-0.147-0.062-0.153-0.142l-0.049-0.611c-0.007-0.084,0.055-0.159,0.14-0.165
		c0.097-0.006,0.159,0.056,0.166,0.14l0.05,0.613c0.007,0.084-0.057,0.158-0.142,0.164
		C141.708,147.015,141.705,147.015,141.701,147.015z M141.594,145.741c-0.079,0-0.146-0.061-0.152-0.14
		c-0.019-0.195-0.037-0.388-0.057-0.578c-0.008-0.083,0.05-0.175,0.133-0.184c0.08-0.009,0.157,0.031,0.17,0.114
		c0,0.004,0.004,0.039,0.004,0.042c0.019,0.188,0.038,0.381,0.056,0.577c0.008,0.083-0.054,0.159-0.139,0.167
		C141.603,145.741,141.599,145.741,141.594,145.741z M141.474,144.469c-0.08,0-0.147-0.062-0.152-0.144
		c-0.014-0.191-0.023-0.397-0.034-0.617c-0.004-0.084,0.063-0.155,0.147-0.158c0.001,0,0.003,0,0.006,0
		c0.081,0,0.149,0.063,0.153,0.146c0.009,0.216,0.02,0.419,0.033,0.608c0.006,0.085-0.059,0.158-0.144,0.163
		C141.481,144.469,141.477,144.469,141.474,144.469z M141.417,143.193c-0.082,0-0.15-0.065-0.152-0.149
		c-0.006-0.197-0.01-0.402-0.013-0.615c0-0.084,0.066-0.154,0.151-0.155c0.093,0.016,0.154,0.066,0.156,0.151
		c0.003,0.212,0.007,0.416,0.012,0.612c0.001,0.084-0.066,0.155-0.15,0.156C141.42,143.193,141.418,143.193,141.417,143.193z
		 M141.402,141.914c-0.085,0-0.153-0.068-0.153-0.153v-0.614c0.001-0.085,0.07-0.152,0.154-0.152l0,0
		c0.085,0,0.152,0.069,0.152,0.154l-0.001,0.612C141.554,141.846,141.486,141.914,141.402,141.914z M141.407,140.637
		C141.406,140.637,141.406,140.637,141.407,140.637c-0.086-0.001-0.154-0.07-0.153-0.155l0.009-0.614
		c0.002-0.084,0.07-0.151,0.153-0.151h0.001c0.086,0.001,0.153,0.07,0.152,0.155l-0.009,0.614
		C141.56,140.57,141.491,140.637,141.407,140.637z M141.428,139.357c0,0-0.003,0-0.004,0c-0.084-0.001-0.151-0.071-0.149-0.156
		c0.004-0.202,0.009-0.406,0.014-0.615c0.002-0.085,0.079-0.16,0.157-0.149c0.085,0.002,0.151,0.073,0.15,0.158
		c-0.006,0.207-0.011,0.41-0.015,0.612C141.58,139.29,141.512,139.357,141.428,139.357z M141.459,138.077c-0.002,0-0.004,0-0.005,0
		c-0.084-0.002-0.15-0.073-0.148-0.157l0.018-0.614c0.003-0.085,0.076-0.151,0.158-0.148c0.085,0.003,0.151,0.073,0.149,0.158
		l-0.019,0.613C141.61,138.013,141.542,138.077,141.459,138.077z M141.499,136.8c-0.002,0-0.004,0-0.006,0
		c-0.084-0.004-0.15-0.075-0.147-0.159l0.021-0.614c0.004-0.084,0.074-0.153,0.159-0.147c0.084,0.003,0.15,0.075,0.147,0.159
		l-0.021,0.614C141.649,136.735,141.581,136.8,141.499,136.8z M141.546,135.521c-0.002,0-0.004,0-0.006,0
		c-0.085-0.003-0.151-0.074-0.147-0.159l0.023-0.577c0.003-0.084,0.072-0.165,0.155-0.165c0.001,0,0.003,0,0.004,0
		c0.085,0.003,0.151,0.056,0.148,0.141l-0.024,0.613C141.696,135.455,141.627,135.521,141.546,135.521z M141.6,134.242
		c-0.003,0-0.004,0-0.007,0c-0.085-0.003-0.15-0.075-0.147-0.159l0.026-0.587c0.004-0.083,0.072-0.161,0.155-0.161
		c0.001,0,0.004,0,0.005,0c0.084,0.004,0.15,0.063,0.146,0.147l-0.024,0.614C141.748,134.178,141.68,134.242,141.6,134.242z
		 M141.656,132.965c-0.003,0-0.005,0-0.007,0c-0.084-0.004-0.149-0.075-0.146-0.16l0.028-0.599c0.004-0.085,0.076-0.174,0.16-0.153
		c0.084,0.004,0.15,0.067,0.146,0.152v0.015l-0.029,0.598C141.806,132.901,141.738,132.965,141.656,132.965z M141.717,131.686
		c-0.002,0-0.005,0-0.007,0c-0.084-0.005-0.149-0.077-0.146-0.161c0.009-0.205,0.019-0.41,0.03-0.615
		c0.004-0.084,0.067-0.154,0.16-0.146c0.084,0.005,0.149,0.077,0.146,0.161c-0.011,0.205-0.021,0.409-0.031,0.614
		C141.867,131.621,141.8,131.686,141.717,131.686z M141.782,130.406c-0.004,0-0.006,0-0.009,0c-0.084-0.005-0.149-0.077-0.145-0.162
		l0.031-0.595l0.153-0.008l0.152,0.024l-0.032,0.596C141.931,130.344,141.864,130.406,141.782,130.406z M141.851,129.131
		c-0.004,0-0.006,0-0.009,0c-0.085-0.005-0.149-0.077-0.145-0.162l0.034-0.614c0.005-0.084,0.074-0.152,0.161-0.145
		c0.084,0.005,0.149,0.077,0.145,0.162l-0.034,0.613C141.999,129.068,141.932,129.131,141.851,129.131z M141.923,127.854
		c-0.003,0-0.006,0-0.01,0c-0.084-0.005-0.148-0.078-0.144-0.163l0.035-0.612c0.005-0.084,0.074-0.146,0.161-0.145
		c0.085,0.005,0.149,0.077,0.146,0.162l-0.036,0.613C142.071,127.791,142.004,127.854,141.923,127.854z M141.997,126.576
		c-0.003,0-0.006,0-0.009,0c-0.085-0.006-0.149-0.079-0.145-0.163l0.036-0.612c0.006-0.084,0.074-0.152,0.162-0.144
		c0.085,0.005,0.149,0.078,0.145,0.162l-0.036,0.612C142.146,126.514,142.078,126.576,141.997,126.576z M142.073,125.3
		c-0.003,0-0.006,0-0.01,0c-0.083-0.006-0.147-0.079-0.143-0.163l0.037-0.613c0.005-0.084,0.082-0.146,0.162-0.144
		c0.084,0.006,0.148,0.078,0.144,0.163l-0.037,0.613C142.223,125.237,142.155,125.3,142.073,125.3z M142.155,124.023
		c-0.003,0-0.006,0-0.009,0c-0.084-0.005-0.149-0.078-0.145-0.162l0.038-0.614c0.006-0.084,0.085-0.137,0.163-0.144
		c0.085,0.007,0.148,0.08,0.144,0.163l-0.038,0.612C142.302,123.96,142.235,124.023,142.155,124.023z M142.235,122.744
		c-0.003,0-0.007,0-0.011,0c-0.085-0.005-0.148-0.078-0.143-0.163l0.041-0.611c0.005-0.084,0.085-0.142,0.162-0.144
		c0.084,0.005,0.147,0.079,0.144,0.163l-0.041,0.613C142.382,122.684,142.316,122.744,142.235,122.744z M142.32,121.469
		c-0.004,0-0.008,0-0.011,0c-0.084-0.006-0.147-0.079-0.144-0.163l0.041-0.613c0.006-0.083,0.085-0.144,0.162-0.143
		c0.085,0.005,0.148,0.078,0.144,0.162l-0.04,0.614C142.466,121.406,142.399,121.469,142.32,121.469z M142.405,120.191
		c-0.004,0-0.008,0-0.012,0c-0.083-0.006-0.147-0.079-0.142-0.163l0.042-0.613c0.005-0.084,0.083-0.152,0.163-0.142
		c0.085,0.005,0.148,0.078,0.143,0.163l-0.042,0.612C142.552,120.129,142.485,120.191,142.405,120.191z M142.492,118.913
		c-0.004,0-0.008,0-0.011,0c-0.085-0.006-0.148-0.08-0.142-0.164l0.043-0.613c0.006-0.084,0.065-0.147,0.164-0.142
		c0.083,0.005,0.147,0.078,0.142,0.163l-0.043,0.613C142.64,118.852,142.572,118.913,142.492,118.913z M142.584,117.634
		c-0.004,0-0.008,0-0.012,0c-0.084-0.007-0.147-0.08-0.142-0.163l0.046-0.618c0.006-0.085,0.075-0.155,0.164-0.143
		c0.083,0.007,0.146,0.08,0.142,0.164l-0.046,0.618C142.731,117.573,142.663,117.634,142.584,117.634z"/>
	<path fill="#B9B9FC" d="M133.653,128.48c-0.073,0-0.138-0.052-0.151-0.128c-0.685-4-0.603-9.468-0.602-9.522
		c0.001-0.084,0.085-0.153,0.155-0.15c0.085,0.001,0.152,0.071,0.151,0.155c-0.002,0.055-0.083,5.493,0.598,9.467
		c0.015,0.083-0.043,0.162-0.125,0.177C133.669,128.48,133.66,128.48,133.653,128.48z"/>
	<path fill="#B9B9FC" d="M133.049,123.734c-0.004,0-0.007,0-0.011,0c-1.959-0.126-1.721-4.926-1.71-5.131
		c0.004-0.081,0.072-0.145,0.152-0.145c0.003,0,0.006,0,0.009,0c0.084,0.005,0.148,0.077,0.145,0.162
		c-0.07,1.308,0.049,4.72,1.425,4.807c0.083,0.006,0.147,0.079,0.143,0.163C133.197,123.671,133.129,123.734,133.049,123.734z"/>
	<path fill="#B9B9FC" d="M142.016,122.547c-0.013,0-0.023-0.001-0.034-0.004c-3.047-0.704-3.642-3.874-3.647-3.906
		c-0.016-0.082,0.041-0.162,0.123-0.177c0.092-0.013,0.163,0.041,0.18,0.124c0.005,0.03,0.568,3.002,3.413,3.66
		c0.082,0.02,0.135,0.101,0.114,0.184C142.149,122.499,142.085,122.547,142.016,122.547z"/>
	<path fill="#B9B9FC" d="M131.047,168.741c-0.007,0-0.013,0-0.018-0.001c-0.084-0.01-0.146-0.087-0.135-0.171l0.008-0.057
		c0.01-0.082,0.092-0.141,0.17-0.133c0.084,0.011,0.145,0.087,0.134,0.172l-0.007,0.056
		C131.189,168.685,131.122,168.741,131.047,168.741z M131.125,168.025c-0.006,0-0.012,0-0.017-0.001
		c-0.084-0.009-0.146-0.084-0.135-0.169c0.021-0.202,0.042-0.405,0.063-0.609c0.009-0.084,0.083-0.147,0.168-0.137
		c0.085,0.009,0.146,0.084,0.138,0.167c-0.021,0.205-0.042,0.408-0.063,0.612C131.269,167.967,131.202,168.025,131.125,168.025z
		 M131.252,166.753c-0.005,0-0.009,0-0.014,0c-0.084-0.008-0.147-0.082-0.139-0.167l0.053-0.609
		c0.008-0.085,0.082-0.149,0.166-0.141c0.085,0.007,0.147,0.082,0.141,0.166l-0.054,0.611
		C131.399,166.695,131.331,166.753,131.252,166.753z M131.363,165.48c-0.004,0-0.008,0-0.014,0c-0.083-0.007-0.146-0.08-0.14-0.165
		l0.047-0.611c0.006-0.084,0.079-0.153,0.164-0.142c0.084,0.006,0.146,0.08,0.142,0.164l-0.048,0.613
		C131.508,165.418,131.442,165.48,131.363,165.48z M131.456,164.205c-0.003,0-0.008,0-0.012,0c-0.083-0.006-0.147-0.079-0.142-0.163
		l0.039-0.611c0.005-0.084,0.061-0.139,0.163-0.144c0.084,0.006,0.148,0.078,0.144,0.163l-0.04,0.612
		C131.604,164.143,131.536,164.205,131.456,164.205z M131.534,162.93c-0.003,0-0.006,0-0.009,0
		c-0.085-0.005-0.149-0.077-0.145-0.162l0.032-0.612c0.004-0.081,0.072-0.145,0.153-0.145c0.002,0,0.005,0,0.008,0
		c0.084,0.004,0.149,0.076,0.146,0.161l-0.033,0.612C131.683,162.866,131.615,162.93,131.534,162.93z M131.599,161.654
		c-0.002,0-0.004,0-0.007,0c-0.085-0.004-0.149-0.075-0.146-0.16l0.025-0.6l0.153-0.007l0.153,0.019l-0.026,0.601
		C131.749,161.59,131.681,161.654,131.599,161.654z M131.651,160.378c-0.001,0-0.003,0-0.006,0
		c-0.084-0.002-0.149-0.073-0.147-0.159l0.021-0.612c0.003-0.084,0.09-0.16,0.157-0.147c0.085,0.002,0.151,0.072,0.148,0.157
		l-0.02,0.613C131.802,160.313,131.734,160.378,131.651,160.378z M131.689,159.102c-0.002,0-0.003,0-0.004,0
		c-0.085-0.002-0.152-0.073-0.149-0.157l0.015-0.599l0.153-0.01l0.152,0.018l-0.015,0.599
		C131.839,159.035,131.771,159.102,131.689,159.102z M131.715,157.823c-0.001,0-0.001,0-0.003,0c-0.085-0.001-0.152-0.07-0.15-0.154
		c0.004-0.205,0.007-0.409,0.009-0.612c0.002-0.086,0.079-0.15,0.155-0.151c0.085,0.001,0.153,0.07,0.152,0.155
		c-0.002,0.204-0.006,0.408-0.01,0.613C131.866,157.757,131.798,157.823,131.715,157.823z M131.731,156.547
		c-0.098,0.002-0.153-0.068-0.153-0.154c0.002-0.205,0.003-0.408,0.004-0.611h0.153l0.153,0.002
		c-0.001,0.203-0.002,0.407-0.004,0.612C131.883,156.481,131.815,156.547,131.731,156.547z M131.735,155.272
		c-0.084,0-0.153-0.067-0.153-0.153l-0.002-0.612c0-0.084,0.068-0.154,0.152-0.154c0.001,0,0.001,0,0.001,0
		c0.085,0,0.153,0.068,0.153,0.153l0.002,0.613C131.888,155.203,131.82,155.272,131.735,155.272z M131.729,153.994
		c-0.085,0-0.152-0.067-0.154-0.152l-0.007-0.613c-0.001-0.085,0.07-0.147,0.153-0.154c0.084,0,0.151,0.066,0.153,0.15l0.008,0.614
		C131.883,153.924,131.815,153.993,131.729,153.994C131.729,153.994,131.729,153.994,131.729,153.994z M131.712,152.716
		c-0.083,0-0.152-0.066-0.153-0.15l-0.013-0.612c-0.002-0.084,0.065-0.154,0.149-0.156c0.001,0,0.003,0,0.004,0
		c0.083,0,0.151,0.066,0.153,0.149l0.013,0.614c0.001,0.085-0.066,0.154-0.15,0.155
		C131.714,152.716,131.713,152.716,131.712,152.716z M131.686,151.439c-0.084,0-0.151-0.066-0.154-0.15l-0.017-0.612
		c-0.002-0.084,0.064-0.156,0.149-0.158c0.065-0.005,0.155,0.064,0.158,0.148l0.016,0.614c0.002,0.084-0.064,0.155-0.148,0.158
		C131.688,151.439,131.687,151.439,131.686,151.439z M131.649,150.16c-0.082,0-0.15-0.065-0.153-0.147l-0.021-0.614
		c-0.003-0.084,0.063-0.155,0.148-0.158c0.002,0,0.003,0,0.005,0c0.082,0,0.15,0.064,0.153,0.147l0.021,0.614
		c0.002,0.085-0.064,0.155-0.147,0.158C131.652,150.16,131.651,150.16,131.649,150.16z M131.603,148.883
		c-0.081,0-0.148-0.064-0.153-0.146l-0.024-0.612c-0.003-0.085,0.063-0.157,0.146-0.16c0.075-0.007,0.156,0.063,0.16,0.147
		l0.024,0.613c0.004,0.084-0.063,0.155-0.147,0.159C131.606,148.883,131.606,148.883,131.603,148.883z M131.546,147.606
		c-0.081,0-0.147-0.063-0.151-0.146l-0.03-0.613c-0.005-0.084,0.061-0.156,0.146-0.161c0.08-0.007,0.156,0.063,0.16,0.146
		l0.03,0.613c0.004,0.085-0.062,0.157-0.146,0.16C131.552,147.606,131.549,147.606,131.546,147.606z M131.483,146.329
		c-0.081,0-0.148-0.063-0.152-0.146l-0.034-0.61c-0.005-0.085,0.061-0.158,0.145-0.162c0.069,0.008,0.157,0.06,0.161,0.145
		l0.034,0.613c0.005,0.084-0.061,0.156-0.146,0.161C131.489,146.329,131.486,146.329,131.483,146.329z M131.409,145.054
		c-0.08,0-0.147-0.063-0.151-0.145l-0.04-0.611c-0.006-0.085,0.058-0.158,0.144-0.163c0.086,0.005,0.157,0.059,0.163,0.143
		l0.039,0.614c0.005,0.084-0.06,0.157-0.145,0.162C131.415,145.054,131.412,145.054,131.409,145.054z M131.327,143.779
		c-0.081,0-0.147-0.063-0.153-0.144l-0.043-0.611c-0.007-0.084,0.057-0.157,0.141-0.164c0.082-0.011,0.158,0.058,0.165,0.143
		l0.043,0.612c0.007,0.084-0.057,0.157-0.142,0.164C131.334,143.779,131.33,143.779,131.327,143.779z M131.235,142.501
		c-0.08,0-0.147-0.06-0.152-0.141l-0.049-0.611c-0.007-0.084,0.056-0.158,0.141-0.165c0.08-0.01,0.158,0.057,0.165,0.141
		l0.049,0.611c0.007,0.085-0.057,0.158-0.142,0.165C131.242,142.501,131.239,142.501,131.235,142.501z M131.132,141.227
		c-0.079,0-0.146-0.06-0.152-0.139l-0.055-0.611c-0.008-0.084,0.056-0.159,0.14-0.166c0.081-0.01,0.158,0.055,0.167,0.139
		l0.054,0.611c0.008,0.085-0.055,0.159-0.14,0.166C131.142,141.227,131.137,141.227,131.132,141.227z M131.016,139.954
		c-0.077,0-0.145-0.059-0.152-0.138l-0.061-0.611c-0.009-0.084,0.052-0.159,0.137-0.168c0.081-0.014,0.16,0.053,0.169,0.137
		l0.062,0.612c0.008,0.085-0.054,0.159-0.138,0.167C131.026,139.954,131.02,139.954,131.016,139.954z M130.884,138.682
		c-0.077,0-0.144-0.059-0.152-0.137c-0.033-0.296-0.059-0.502-0.074-0.604c-0.013-0.084,0.046-0.162,0.13-0.175
		c0.09-0.011,0.161,0.047,0.175,0.129c0.015,0.104,0.041,0.313,0.074,0.615c0.011,0.085-0.05,0.16-0.135,0.17
		C130.895,138.682,130.889,138.682,130.884,138.682z M130.865,137.41c-0.011,0-0.02,0-0.029-0.002
		c-0.083-0.016-0.138-0.097-0.121-0.18c0.035-0.178,0.081-0.382,0.138-0.607c0.021-0.081,0.1-0.134,0.187-0.111
		c0.081,0.02,0.132,0.104,0.111,0.185c-0.054,0.221-0.101,0.42-0.135,0.593C131.001,137.362,130.938,137.41,130.865,137.41z
		 M131.173,136.168c-0.014,0-0.027-0.002-0.042-0.006c-0.081-0.022-0.129-0.106-0.106-0.189c0.053-0.19,0.11-0.389,0.171-0.593
		c0.022-0.082,0.109-0.128,0.19-0.104s0.127,0.109,0.104,0.191c-0.06,0.203-0.116,0.4-0.17,0.588
		C131.302,136.123,131.24,136.168,131.173,136.168z M131.534,134.939c-0.015,0-0.03-0.002-0.045-0.006
		c-0.082-0.025-0.126-0.11-0.102-0.192c0.058-0.193,0.119-0.391,0.183-0.588c0.024-0.08,0.108-0.124,0.192-0.101
		c0.081,0.026,0.125,0.112,0.099,0.192c-0.062,0.197-0.123,0.394-0.181,0.586C131.661,134.897,131.6,134.939,131.534,134.939z
		 M131.919,133.718c-0.016,0-0.031-0.003-0.047-0.007c-0.081-0.026-0.125-0.112-0.1-0.193c0.063-0.196,0.126-0.392,0.189-0.586
		c0.026-0.081,0.113-0.125,0.194-0.098s0.123,0.112,0.098,0.193c-0.063,0.193-0.127,0.389-0.189,0.584
		C132.044,133.677,131.985,133.718,131.919,133.718z M132.318,132.501c-0.016,0-0.031-0.002-0.049-0.009
		c-0.081-0.026-0.123-0.113-0.096-0.193l0.195-0.583c0.026-0.08,0.114-0.124,0.194-0.098c0.08,0.027,0.123,0.114,0.096,0.195
		l-0.195,0.582C132.442,132.46,132.382,132.501,132.318,132.501z M132.728,131.286c-0.017,0-0.033-0.002-0.05-0.008
		c-0.079-0.027-0.123-0.113-0.096-0.194l0.199-0.583c0.028-0.08,0.117-0.121,0.195-0.096c0.081,0.028,0.123,0.115,0.096,0.195
		l-0.2,0.582C132.851,131.246,132.792,131.286,132.728,131.286z M133.145,130.075c-0.016,0-0.033-0.002-0.05-0.009
		c-0.081-0.027-0.122-0.115-0.094-0.195l0.205-0.584c0.028-0.079,0.115-0.123,0.196-0.093c0.081,0.028,0.121,0.116,0.093,0.195
		l-0.205,0.583C133.268,130.035,133.208,130.075,133.145,130.075z"/>
	<path fill="#C42355" d="M127.668,97.05c0.123-0.275,0.235-0.564,0.335-0.873c0.459-1.431,0.746-3.074,0.819-4.548
		c0.015-0.284,0.004-0.55-0.037-0.813c-0.371-0.255-0.687-0.563-0.946-0.916c-0.026,0.737-0.081,1.477-0.278,2.168
		c-0.309,1.081-0.467,2.195-0.707,3.292c-0.142,0.643-0.251,1.276-0.527,1.883c-0.316,0.701-0.773,1.387-1.12,2.091
		c-0.288,0.584-0.604,1.432-0.528,2.131L127.668,97.05z"/>
	<path fill="#FFC2C2" d="M125.206,102.41c0.613,0.444,1.579,1.271,1.822,2.002c-0.124,0.061-0.371,0.096-0.506,0.087
		c-0.257-0.313-0.668-0.546-1.014-0.793c0.064,1.195,1.426,2.332,1.911,3.357c-0.408,0.168-0.807-0.074-1.126-0.303
		c0.193,0.157,0.376,0.38,0.472,0.576c-0.335,0.143-0.767,0.041-0.97-0.117c0.145,0.147,0.147,0.271,0.239,0.403
		c-1.178,0.149-2.584-2.067-2.929-3.014C122.69,103.469,123.629,101.954,125.206,102.41z"/>
	
		<rect x="127.195" y="169.705" transform="matrix(-0.9291 -0.3699 0.3699 -0.9291 184.3174 375.064)" fill="#E5416C" width="1.853" height="0.307"/>
	
		<rect x="126.524" y="170.159" transform="matrix(-0.9291 -0.3698 0.3698 -0.9291 182.8962 375.6811)" fill="#E5416C" width="1.854" height="0.307"/>
	
		<rect x="125.847" y="170.613" transform="matrix(-0.9291 -0.3699 0.3699 -0.9291 181.38 376.3161)" fill="#E5416C" width="1.853" height="0.306"/>
	
		<rect x="125.157" y="171.064" transform="matrix(-0.9291 -0.3698 0.3698 -0.9291 179.9243 376.9201)" fill="#E5416C" width="1.854" height="0.307"/>
	
		<rect x="124.474" y="171.516" transform="matrix(-0.9293 -0.3693 0.3693 -0.9293 178.5399 377.5147)" fill="#E5416C" width="1.854" height="0.306"/>
	
		<rect x="123.777" y="171.968" transform="matrix(-0.9291 -0.3698 0.3698 -0.9291 176.9282 378.1534)" fill="#E5416C" width="1.854" height="0.306"/>
	
		<rect x="138.838" y="177.41" transform="matrix(-0.9291 -0.3698 0.3698 -0.9291 203.9694 394.2222)" fill="#E5416C" width="1.854" height="0.307"/>
	
		<rect x="138.162" y="177.865" transform="matrix(-0.9291 -0.3698 0.3698 -0.9291 202.4969 394.8481)" fill="#E5416C" width="1.854" height="0.306"/>
	
		<rect x="137.478" y="178.318" transform="matrix(-0.9291 -0.3698 0.3698 -0.9291 201.0096 395.4693)" fill="#E5416C" width="1.854" height="0.307"/>
	
		<rect x="136.794" y="178.77" transform="matrix(-0.9292 -0.3696 0.3696 -0.9292 199.5669 396.077)" fill="#E5416C" width="1.855" height="0.307"/>
	
		<rect x="136.111" y="179.222" transform="matrix(-0.9291 -0.3698 0.3698 -0.9291 198.0387 396.7085)" fill="#E5416C" width="1.854" height="0.306"/>
	
		<rect x="135.427" y="179.673" transform="matrix(-0.9293 -0.3693 0.3693 -0.9293 196.6595 397.2975)" fill="#E5416C" width="1.854" height="0.307"/>
	<g>
		<g>
			<g>
				<path fill="#2B2BB2" d="M149.796,123.238c-1.94,1.076-3.7,3.585-3.93,5.594l-0.747,6.529l0.219-0.121l0.747-6.53
					c0.215-1.881,1.867-4.23,3.684-5.238c1.813-1.004,3.113-0.291,2.897,1.59l-0.747,6.53l0.225-0.124l0.747-6.529
					C153.12,122.929,151.731,122.165,149.796,123.238L149.796,123.238z"/>
			</g>
		</g>
		<polygon fill="#9E9EE8" points="155.439,149.43 163.259,153.974 144.702,164.689 136.881,160.144 		"/>
		<polygon fill="#B9B9FC" points="142.217,135.426 142.217,159.834 144.702,164.689 		"/>
		<polygon fill="#8E8EDD" points="139.769,135.656 136.881,160.144 142.217,159.834 142.217,135.426 		"/>
		<polygon fill="#0F1738" points="139.769,135.656 158.326,124.943 157.919,126.36 160.373,126.132 141.815,136.847 
			142.217,135.426 		"/>
		<polygon fill="#E1E5F4" points="160.373,126.132 163.259,153.974 144.702,164.689 141.815,136.847 		"/>
		<g>
			<g>
				<path fill="#2B2BB2" d="M150.207,123.318c-1.893,1.093-3.246,3.853-3.014,6.144l0.759,7.449l0.214-0.124l-0.758-7.449
					c-0.219-2.146,1.052-4.736,2.825-5.76c1.772-1.022,3.396-0.104,3.613,2.043l0.759,7.448l0.219-0.127l-0.759-7.448
					C153.834,123.2,152.101,122.225,150.207,123.318L150.207,123.318z"/>
			</g>
		</g>
		<g>
			<g>
				<path fill="#192356" d="M155.006,132.567c-0.158-0.088-0.306-0.004-0.333,0.192c-0.025,0.189,0.081,0.414,0.24,0.502
					s0.307,0.004,0.332-0.186C155.272,132.879,155.164,132.655,155.006,132.567L155.006,132.567z"/>
			</g>
		</g>
		<g>
			<g>
				<path fill="#192356" d="M148.266,136.501c-0.157-0.087-0.306-0.004-0.331,0.187c-0.025,0.189,0.082,0.414,0.24,0.502
					c0.157,0.088,0.307,0.005,0.332-0.186S148.425,136.589,148.266,136.501L148.266,136.501z"/>
			</g>
		</g>
	</g>
	<path fill="#FFC2C2" d="M151.681,118.832c-0.064,0.911,0.525,3.65-0.108,4.47c-0.305,0.392-0.901,0.706-1.305,1.006
		c-0.395,0.294-0.777,0.591-1.3,0.512c-0.041-0.339,0.408-0.796,0.243-1.104c-0.212-0.396-0.5,0.235-0.86,0.205
		c-0.004-1.043-0.219-2.339,0.348-3.232c0.166-0.262,0.42-0.695,0.706-0.73c0.371-0.045,0.981,0.291,1.414,0.316
		C151.046,120.288,151.422,118.951,151.681,118.832z"/>
	<path fill="#E5416C" d="M146.696,80.308c2.614,2.336,5.646,16.216,6.593,19.931c0.896,3.512-1.411,17.424-1.737,19.387
		c-0.165,0.992-2.274,1.479-2.326-0.12c-0.085-2.605-0.176-15.219-0.282-17.18c-0.144-2.637-2.113-5.323-2.969-7.795
		c-0.727-2.101-1.254-4.27-1.575-6.47c-0.296-2.026-0.661-4.218,0.041-6.182C144.702,81.144,145.71,79.428,146.696,80.308z"/>
</g>
</svg>
