<?xml version="1.0" encoding="utf-8"?>
<!-- Generator: Adobe Illustrator 16.0.0, SVG Export Plug-In . SVG Version: 6.00 Build 0)  -->
<!DOCTYPE svg PUBLIC "-//W3C//DTD SVG 1.1//EN" "http://www.w3.org/Graphics/SVG/1.1/DTD/svg11.dtd">
<svg version="1.1" id="Layer_1" xmlns="http://www.w3.org/2000/svg" xmlns:xlink="http://www.w3.org/1999/xlink" x="0px" y="0px"
	 width="100px" height="48.216px" viewBox="0 8.08 100 48.216" enable-background="new 0 8.08 100 48.216" xml:space="preserve">
<path fill="#FFFFFF" d="M542,667h90c2.762,0,5,2.238,5,5v90c0,2.762-2.238,5-5,5h-90c-2.762,0-5-2.238-5-5v-90
	C537,669.239,539.238,667,542,667z"/>
<path fill="#4285F4" d="M99.859,47.409v-30.44c0-4.87-3.896-8.889-8.889-8.889H9.027c-4.869,0-8.887,3.896-8.887,8.889v30.439
	c0,4.87,3.896,8.888,8.887,8.888h81.944C95.842,56.297,99.859,52.279,99.859,47.409z"/>
<path fill="#4285F4" d="M120.953,47.417v-30.44"/>
<path fill="#FFFFFF" d="M50.002,15.625c0.382,0,0.669,0.287,0.861,0.575l6.129,12.35c0.096,0.097,0.096,0.193,0.096,0.384l0,0
	c0,0.575-0.383,0.958-0.959,0.958c-0.189,0-0.382-0.096-0.572-0.19l-4.596-2.202v20.297c0,0.574-0.382,0.958-0.958,0.958
	c-0.575,0-0.958-0.383-0.958-0.958V27.498l-4.788,2.104c-0.288,0.192-0.767,0.098-1.054-0.19c-0.286-0.287-0.382-0.67-0.192-1.055
	l6.128-12.158C49.332,15.911,49.62,15.625,50.002,15.625z"/>
</svg>
