<?xml version="1.0" encoding="utf-8"?>
<!-- Generator: Adobe Illustrator 16.0.0, SVG Export Plug-In . SVG Version: 6.00 Build 0)  -->
<!DOCTYPE svg PUBLIC "-//W3C//DTD SVG 1.1//EN" "http://www.w3.org/Graphics/SVG/1.1/DTD/svg11.dtd">
<svg version="1.1" id="Layer_1" xmlns="http://www.w3.org/2000/svg" xmlns:xlink="http://www.w3.org/1999/xlink" x="0px" y="0px"
	 width="100px" height="48.216px" viewBox="0 7.088 100 48.216" enable-background="new 0 7.088 100 48.216" xml:space="preserve">
<path fill="#FFFFFF" d="M542,667h90c2.762,0,5,2.238,5,5v90c0,2.762-2.238,5-5,5h-90c-2.762,0-5-2.238-5-5v-90
	C537,669.239,539.238,667,542,667z"/>
<path fill="#4285F4" d="M9.123,55.304h81.943c4.99,0,8.887-4.017,8.887-8.887v-30.44c0-4.993-4.018-8.889-8.887-8.889H9.123
	c-4.993,0-8.889,4.019-8.889,8.889v30.439C0.234,51.287,4.252,55.304,9.123,55.304z M8.757,29.979l15.463-7.793
	c0.488-0.243,0.975-0.121,1.34,0.243c0.365,0.366,0.486,0.974,0.243,1.34l-2.678,6.088h25.813c0.731,0,1.217,0.486,1.217,1.218
	s-0.486,1.219-1.217,1.219H23.125l2.801,5.845c0.121,0.242,0.243,0.486,0.243,0.729c0,0.731-0.488,1.219-1.217,1.219l0,0
	c-0.244,0-0.366,0-0.488-0.122L8.757,32.169c-0.366-0.243-0.731-0.609-0.731-1.096C8.026,30.586,8.392,30.223,8.757,29.979z"/>
<g>
	<path fill="#FFFFFF" d="M88.748,20.696c0,0.86-0.697,1.558-1.557,1.558H61.637c-0.859,0-1.557-0.696-1.557-1.558l0,0
		c0-0.859,0.697-1.557,1.557-1.557h25.555C88.051,19.139,88.748,19.836,88.748,20.696L88.748,20.696z"/>
	<path fill="#FFFFFF" d="M88.748,27.696c0,0.86-0.697,1.558-1.557,1.558H61.637c-0.859,0-1.557-0.696-1.557-1.558l0,0
		c0-0.859,0.697-1.557,1.557-1.557h25.555C88.051,26.139,88.748,26.836,88.748,27.696L88.748,27.696z"/>
	<path fill="#FFFFFF" d="M88.748,34.696c0,0.86-0.697,1.558-1.557,1.558H61.637c-0.859,0-1.557-0.696-1.557-1.558l0,0
		c0-0.859,0.697-1.557,1.557-1.557h25.555C88.051,33.14,88.748,33.836,88.748,34.696L88.748,34.696z"/>
	<path fill="#FFFFFF" d="M88.748,41.696c0,0.86-0.697,1.558-1.557,1.558H61.637c-0.859,0-1.557-0.696-1.557-1.558l0,0
		c0-0.859,0.697-1.557,1.557-1.557h25.555C88.051,40.14,88.748,40.836,88.748,41.696L88.748,41.696z"/>
</g>
</svg>
