<?xml version="1.0" encoding="utf-8"?>
<!-- Generator: Adobe Illustrator 16.0.0, SVG Export Plug-In . SVG Version: 6.00 Build 0)  -->
<!DOCTYPE svg PUBLIC "-//W3C//DTD SVG 1.1//EN" "http://www.w3.org/Graphics/SVG/1.1/DTD/svg11.dtd">
<svg version="1.1" id="Layer_1" xmlns="http://www.w3.org/2000/svg" xmlns:xlink="http://www.w3.org/1999/xlink" x="0px" y="0px"
	 width="100px" height="48.215px" viewBox="0 7.088 100 48.215" enable-background="new 0 7.088 100 48.215" xml:space="preserve">
<path fill="#FFFFFF" d="M542,667h90c2.762,0,5,2.238,5,5v90c0,2.762-2.238,5-5,5h-90c-2.762,0-5-2.238-5-5v-90
	C537,669.239,539.238,667,542,667z"/>
<g>
	<path fill="#4285F4" d="M99.953,46.417v-30.44c0-4.87-3.896-8.889-8.889-8.889H9.121c-4.87,0-8.887,3.896-8.887,8.889v30.439
		c0,4.871,3.896,8.887,8.887,8.887h81.943C95.936,55.304,99.953,51.287,99.953,46.417z M92.161,31.074
		c0,0.485-0.365,0.853-0.731,1.096l-15.705,7.793c-0.123,0.122-0.244,0.122-0.488,0.122l0,0c-0.729,0-1.217-0.486-1.217-1.219
		c0-0.242,0.121-0.486,0.242-0.729l2.801-5.845H51.25c-0.73,0-1.217-0.486-1.217-1.219c0-0.73,0.486-1.218,1.217-1.218h25.813
		l-2.678-6.088c-0.244-0.366-0.123-0.975,0.242-1.34c0.365-0.364,0.854-0.486,1.34-0.243l15.463,7.793
		C91.796,30.223,92.161,30.587,92.161,31.074z"/>
	<g>
		<path fill="#FFFFFF" d="M11.439,20.696c0,0.86,0.697,1.558,1.557,1.558h25.555c0.859,0,1.557-0.696,1.557-1.558l0,0
			c0-0.859-0.697-1.557-1.557-1.557H12.996C12.137,19.139,11.439,19.836,11.439,20.696L11.439,20.696z"/>
		<path fill="#FFFFFF" d="M11.439,27.696c0,0.86,0.697,1.558,1.557,1.558h25.555c0.859,0,1.557-0.696,1.557-1.558l0,0
			c0-0.859-0.697-1.557-1.557-1.557H12.996C12.137,26.139,11.439,26.836,11.439,27.696L11.439,27.696z"/>
		<path fill="#FFFFFF" d="M11.439,34.696c0,0.86,0.697,1.558,1.557,1.558h25.555c0.859,0,1.557-0.696,1.557-1.558l0,0
			c0-0.859-0.697-1.557-1.557-1.557H12.996C12.137,33.14,11.439,33.836,11.439,34.696L11.439,34.696z"/>
		<path fill="#FFFFFF" d="M11.439,41.696c0,0.86,0.697,1.558,1.557,1.558h25.555c0.859,0,1.557-0.696,1.557-1.558l0,0
			c0-0.859-0.697-1.557-1.557-1.557H12.996C12.137,40.14,11.439,40.836,11.439,41.696L11.439,41.696z"/>
	</g>
</g>
</svg>
