<?xml version="1.0" encoding="utf-8"?>
<!-- Generator: Adobe Illustrator 16.0.0, SVG Export Plug-In . SVG Version: 6.00 Build 0)  -->
<!DOCTYPE svg PUBLIC "-//W3C//DTD SVG 1.1//EN" "http://www.w3.org/Graphics/SVG/1.1/DTD/svg11.dtd">
<svg version="1.1" id="Layer_1" xmlns="http://www.w3.org/2000/svg" xmlns:xlink="http://www.w3.org/1999/xlink" x="0px" y="0px"
	 width="100px" height="48.216px" viewBox="0 7.088 100 48.216" enable-background="new 0 7.088 100 48.216" xml:space="preserve">
<path fill="#FFFFFF" d="M542,667h90c2.762,0,5,2.238,5,5v90c0,2.762-2.238,5-5,5h-90c-2.762,0-5-2.238-5-5v-90
	C537,669.239,539.238,667,542,667z"/>
<path fill="#4285F4" d="M99.953,46.417V15.977c0-4.87-3.896-8.89-8.889-8.89H9.121c-4.87,0-8.887,3.896-8.887,8.89v30.438
	c0,4.871,3.896,8.888,8.887,8.888h81.943C95.936,55.304,99.953,51.287,99.953,46.417z"/>
<g>
	<path fill="#FFFFFF" d="M35.759,20.695c0,0.86,0.697,1.558,1.558,1.558h25.555c0.858,0,1.558-0.695,1.558-1.558l0,0
		c0-0.859-0.697-1.557-1.558-1.557H37.316C36.457,19.138,35.759,19.836,35.759,20.695L35.759,20.695z"/>
	<path fill="#FFFFFF" d="M35.759,27.695c0,0.86,0.697,1.558,1.558,1.558h25.555c0.858,0,1.558-0.695,1.558-1.558l0,0
		c0-0.859-0.697-1.557-1.558-1.557H37.316C36.457,26.138,35.759,26.836,35.759,27.695L35.759,27.695z"/>
	<path fill="#FFFFFF" d="M35.759,34.695c0,0.861,0.697,1.559,1.558,1.559h25.555c0.858,0,1.558-0.696,1.558-1.559l0,0
		c0-0.859-0.697-1.556-1.558-1.556H37.316C36.457,33.139,35.759,33.835,35.759,34.695L35.759,34.695z"/>
	<path fill="#FFFFFF" d="M35.759,41.695c0,0.861,0.697,1.559,1.558,1.559h25.555c0.858,0,1.558-0.696,1.558-1.559l0,0
		c0-0.859-0.697-1.557-1.558-1.557H37.316C36.457,40.14,35.759,40.835,35.759,41.695L35.759,41.695z"/>
</g>
</svg>
