<?xml version="1.0" encoding="utf-8"?>
<!-- Generator: Adobe Illustrator 16.0.0, SVG Export Plug-In . SVG Version: 6.00 Build 0)  -->
<!DOCTYPE svg PUBLIC "-//W3C//DTD SVG 1.1//EN" "http://www.w3.org/Graphics/SVG/1.1/DTD/svg11.dtd">
<svg version="1.1" id="Layer_1" xmlns="http://www.w3.org/2000/svg" xmlns:xlink="http://www.w3.org/1999/xlink" x="0px" y="0px"
	 width="100px" height="48.216px" viewBox="0 8.08 100 48.216" enable-background="new 0 8.08 100 48.216" xml:space="preserve">
<path fill="#FFFFFF" d="M542,667h90c2.762,0,5,2.238,5,5v90c0,2.762-2.238,5-5,5h-90c-2.762,0-5-2.238-5-5v-90
	C537,669.239,539.238,667,542,667z"/>
<path fill="#4285F4" d="M90.971,8.08H9.027c-4.99,0-8.887,4.018-8.887,8.888v30.439c0,4.992,4.018,8.889,8.887,8.889h81.944
	c4.991,0,8.889-4.021,8.889-8.889V16.968C99.859,12.098,95.842,8.08,90.971,8.08z"/>
<path fill="#4285F4" d="M120.953,47.417v-30.44"/>
<path fill="#FFFFFF" d="M49.14,48.178l-6.128-12.159c-0.19-0.384-0.094-0.767,0.192-1.054c0.287-0.288,0.766-0.383,1.054-0.191
	l4.788,2.105V16.582c0-0.574,0.382-0.958,0.958-0.958c0.577,0,0.958,0.383,0.958,0.958v20.297l4.597-2.202
	c0.189-0.095,0.381-0.191,0.571-0.191c0.576,0,0.959,0.384,0.959,0.958l0,0c0,0.191,0,0.287-0.096,0.385l-6.13,12.35
	c-0.19,0.288-0.479,0.575-0.86,0.575S49.332,48.466,49.14,48.178z"/>
</svg>
