<?xml version="1.0" encoding="utf-8"?>
<!-- Generator: Adobe Illustrator 16.0.0, SVG Export Plug-In . SVG Version: 6.00 Build 0)  -->
<!DOCTYPE svg PUBLIC "-//W3C//DTD SVG 1.1//EN" "http://www.w3.org/Graphics/SVG/1.1/DTD/svg11.dtd">
<svg version="1.1" id="Layer_1" xmlns="http://www.w3.org/2000/svg" xmlns:xlink="http://www.w3.org/1999/xlink" x="0px" y="0px"
	 width="100px" height="66.358px" viewBox="0 0 100 66.358" enable-background="new 0 0 100 66.358" xml:space="preserve">
<path fill="#FFFFFF" d="M542,667h90c2.762,0,5,2.238,5,5v90c0,2.762-2.238,5-5,5h-90c-2.762,0-5-2.238-5-5v-90
	C537,669.238,539.238,667,542,667z"/>
<g transform="translate(50 50) scale(0.69 0.69) rotate(0) translate(-50 -50)">
	<path fill="#4D4D4D" d="M-9.242,59.651h118.759c7.232,0,12.879-5.821,12.879-12.879V2.657c0-7.236-5.821-12.882-12.879-12.882
		H-9.242c-7.236,0-12.882,5.824-12.882,12.882v44.115C-22.124,53.83-16.301,59.651-9.242,59.651z M86.399,0.185
		c13.411,0,24.353,10.94,24.353,24.351c0,13.413-10.942,24.353-24.353,24.353c-13.413,0-24.352-10.94-24.352-24.353
		C62.047,11.125,72.986,0.185,86.399,0.185z M-9.772,22.949l22.41-11.295c0.707-0.352,1.412-0.175,1.943,0.352
		c0.529,0.53,0.704,1.412,0.352,1.943l-3.881,8.823H48.46c1.059,0,1.764,0.705,1.764,1.763c0,1.061-0.705,1.766-1.764,1.766H11.051
		l4.059,8.471c0.175,0.351,0.352,0.705,0.352,1.056c0,1.061-0.707,1.766-1.764,1.766l0,0c-0.353,0-0.53,0-0.708-0.177L-9.772,26.124
		c-0.53-0.352-1.059-0.883-1.059-1.588C-10.831,23.831-10.302,23.303-9.772,22.949z"/>
</g>
</svg>
