<?xml version="1.0" encoding="utf-8"?>
<!-- Generator: Adobe Illustrator 16.0.0, SVG Export Plug-In . SVG Version: 6.00 Build 0)  -->
<!DOCTYPE svg PUBLIC "-//W3C//DTD SVG 1.1//EN" "http://www.w3.org/Graphics/SVG/1.1/DTD/svg11.dtd">
<svg version="1.1" id="Layer_1" xmlns="http://www.w3.org/2000/svg" xmlns:xlink="http://www.w3.org/1999/xlink" x="0px" y="0px"
	 width="100px" height="100px" viewBox="0 0 100 100" enable-background="new 0 0 100 100" xml:space="preserve">
<path fill="#FFFFFF" d="M542,667h90c2.762,0,5,2.238,5,5v90c0,2.762-2.238,5-5,5h-90c-2.762,0-5-2.238-5-5v-90
	C537,669.238,539.238,667,542,667z"/>
<g transform="translate(50 50) scale(0.69 0.69) rotate(0) translate(-50 -50)">
	<title>UI Set</title>
	<path fill="#4D4D4D" d="M118.457-1.977H-17.974c-2.195,0-3.976,1.781-3.976,3.978v96.642c0,2.195,1.781,3.977,3.976,3.977h136.431
		c2.197,0,3.977-1.782,3.977-3.977V2.002C122.434-0.195,120.654-1.977,118.457-1.977z M114.48,94.666H-13.996V5.978H114.48V94.666z"
		/>
	<polygon fill="#4D4D4D" points="-2.255,17.114 12.061,17.114 12.061,10.751 -8.617,10.751 -8.617,31.431 -2.255,31.431 	"/>
	<polygon fill="#4D4D4D" points="109.1,68.416 102.737,68.416 102.737,82.736 88.423,82.736 88.423,89.099 109.1,89.099 	"/>
</g>
</svg>
