<?xml version="1.0" encoding="utf-8"?>
<!-- Generator: Adobe Illustrator 16.0.0, SVG Export Plug-In . SVG Version: 6.00 Build 0)  -->
<!DOCTYPE svg PUBLIC "-//W3C//DTD SVG 1.1//EN" "http://www.w3.org/Graphics/SVG/1.1/DTD/svg11.dtd">
<svg version="1.1" id="Layer_1" xmlns="http://www.w3.org/2000/svg" xmlns:xlink="http://www.w3.org/1999/xlink" x="0px" y="0px"
	 width="14.129px" height="18.477px" viewBox="0 0 14.129 18.477" enable-background="new 0 0 14.129 18.477" xml:space="preserve">
<g>
	<path fill="#557EBF" d="M10.186,0.376c1.194,1.198,2.363,2.372,3.536,3.547c-0.024,0.024-0.059,0.011-0.088,0.011
		c-0.881,0.002-1.761,0.002-2.64,0c-0.485,0-0.808-0.325-0.808-0.809c0-0.873,0-1.746,0-2.618V0.376z"/>
	<path fill="#557EBF" d="M0,9.24c0-2.691,0-5.38,0-8.071c0-0.581,0.371-1.035,0.937-1.154c0.058-0.012,0.118-0.014,0.177-0.014
		c2.729,0,5.458,0,8.188-0.001c0.096,0,0.121,0.022,0.121,0.118C9.418,1.257,9.42,2.394,9.42,3.532c0,0.661,0.51,1.167,1.172,1.167
		c1.134,0,2.269,0.002,3.402-0.002c0.102,0,0.135,0.017,0.135,0.131c-0.004,4.161,0,8.325-0.004,12.485
		c0,0.667-0.496,1.163-1.159,1.163H1.158c-0.654,0-1.156-0.498-1.158-1.155C0,14.626,0,11.934,0,9.24 M0.773,17.279
		c0,0.273,0.16,0.435,0.433,0.435c3.905,0,7.81,0,11.715,0c0.274,0,0.436-0.158,0.436-0.433c0-3.895,0-7.789,0.001-11.684
		c0-0.105-0.033-0.125-0.131-0.125c-0.889,0.003-1.773,0.002-2.661,0.002c-0.119,0-0.233-0.012-0.348-0.034
		C9.294,5.266,8.644,4.479,8.644,3.54c0-0.88-0.002-1.761,0.003-2.641c0-0.107-0.024-0.136-0.135-0.136
		C6.083,0.766,3.654,0.766,1.225,0.766c-0.301,0-0.452,0.153-0.452,0.456V9.24C0.773,11.919,0.773,14.597,0.773,17.279"/>
	<path fill="#557EBF" d="M4.494,8.894c0.022-0.233,0.026-0.47,0.072-0.7C4.624,7.915,4.519,7.676,4.431,7.43
		c-0.041-0.11-0.039-0.11,0.08-0.112c0.256,0,0.515,0.004,0.771,0c0.092-0.002,0.101,0.023,0.067,0.1
		C5.299,7.542,5.263,7.672,5.21,7.794C5.172,7.885,5.195,7.975,5.203,8.065c0.025,0.275,0.049,0.551,0.077,0.829
		c0.052,0.002,0.058-0.037,0.074-0.06C5.638,8.355,5.923,7.88,6.206,7.4c0.038-0.063,0.077-0.083,0.15-0.074
		c0.766,0.11,1.304,0.728,1.307,1.501c0,0.405,0,0.81,0,1.213c-0.003,0.384-0.255,0.636-0.636,0.636c-1.426,0-2.851,0-4.279,0
		c-0.385,0-0.634-0.25-0.634-0.634c0-0.416,0-0.83,0-1.246c0-0.751,0.588-1.399,1.333-1.475c0.061-0.005,0.088,0.02,0.117,0.066
		C3.848,7.87,4.136,8.351,4.422,8.83c0.013,0.022,0.032,0.044,0.046,0.068C4.477,8.896,4.486,8.896,4.494,8.894"/>
	<path fill="#557EBF" d="M7.075,14.952c1.603,0,3.204,0,4.808-0.001c0.105,0,0.14,0.023,0.134,0.133
		c-0.008,0.225-0.009,0.45,0,0.675c0.006,0.111-0.032,0.145-0.138,0.129c-0.047-0.006-0.098,0-0.146,0c-3.154,0-6.31,0-9.464,0
		c-0.169,0-0.153,0.021-0.154-0.15c0-0.22,0.007-0.438-0.002-0.656c-0.007-0.112,0.031-0.13,0.136-0.13
		C3.856,14.952,5.466,14.952,7.075,14.952"/>
	<path fill="#557EBF" d="M7.064,13.086c-1.608,0-3.217,0-4.827,0.003c-0.101,0-0.128-0.03-0.126-0.13
		c0.007-0.235,0.005-0.471,0.002-0.707c-0.002-0.083,0.025-0.106,0.102-0.1c0.071,0.006,0.14,0.002,0.211,0.002h9.441
		c0.146,0,0.146,0,0.146,0.149c0,0.221-0.005,0.443,0.003,0.664c0.004,0.1-0.028,0.122-0.121,0.122
		C10.283,13.086,8.673,13.086,7.064,13.086"/>
	<path fill="#557EBF" d="M4.884,3.993c0.825,0,1.402,0.748,1.211,1.57C6,5.968,5.821,6.329,5.509,6.614
		C5.122,6.97,4.651,6.98,4.27,6.616C3.824,6.189,3.583,5.662,3.663,5.033C3.743,4.428,4.27,3.993,4.884,3.993"/>
</g>
</svg>
