<?xml version="1.0" encoding="utf-8"?>
<!-- Generator: Adobe Illustrator 16.0.0, SVG Export Plug-In . SVG Version: 6.00 Build 0)  -->
<!DOCTYPE svg PUBLIC "-//W3C//DTD SVG 1.1//EN" "http://www.w3.org/Graphics/SVG/1.1/DTD/svg11.dtd">
<svg version="1.1" id="Layer_1" xmlns="http://www.w3.org/2000/svg" xmlns:xlink="http://www.w3.org/1999/xlink" x="0px" y="0px"
	 width="15.633px" height="15.601px" viewBox="0 0 15.633 15.601" enable-background="new 0 0 15.633 15.601" xml:space="preserve">
<path fill="#2075BC" d="M7.801,0C3.511,0,0,3.51,0,7.799c0,4.292,3.51,7.801,7.8,7.801c4.292,0,7.802-3.509,7.802-7.801
	C15.603,3.51,12.093,0,7.801,0 M1.561,7.799c0-3.431,2.808-6.239,6.24-6.239c1.406,0,2.73,0.468,3.823,1.326l-8.737,8.738
	C2.029,10.531,1.561,9.205,1.561,7.799 M7.801,14.04c-1.405,0-2.73-0.468-3.823-1.323l8.738-8.738
	c0.857,1.092,1.326,2.418,1.326,3.821C14.042,11.232,11.234,14.04,7.801,14.04"/>
</svg>
