<?xml version="1.0" encoding="utf-8"?>
<!-- Generator: Adobe Illustrator 16.0.0, SVG Export Plug-In . SVG Version: 6.00 Build 0)  -->
<!DOCTYPE svg PUBLIC "-//W3C//DTD SVG 1.1//EN" "http://www.w3.org/Graphics/SVG/1.1/DTD/svg11.dtd">
<svg version="1.1"
	 id="Layer_1" xmlns:cc="http://creativecommons.org/ns#" xmlns:sodipodi="http://sodipodi.sourceforge.net/DTD/sodipodi-0.dtd" xmlns:inkscape="http://www.inkscape.org/namespaces/inkscape" xmlns:svg="http://www.w3.org/2000/svg" xmlns:dc="http://purl.org/dc/elements/1.1/" xmlns:rdf="http://www.w3.org/1999/02/22-rdf-syntax-ns#"
	 xmlns="http://www.w3.org/2000/svg" xmlns:xlink="http://www.w3.org/1999/xlink" x="0px" y="0px" width="77.008px"
	 height="66.627px" viewBox="0 -8.627 77.008 66.627" enable-background="new 0 -8.627 77.008 66.627" xml:space="preserve">
<g transform="translate(50 50) scale(0.69 0.69) rotate(0) translate(-50 -50)">
	<g transform="translate(0,-952.36218)">
		<path fill="#2B80C3" d="M23.939,921.151c-25.598,0-46.403,20.808-46.403,46.404c0,25.592,20.805,46.401,46.403,46.401
			c9.857,0,19.042-3.056,26.57-8.314c4.005,5.044,10.182,8.314,17.101,8.314c12.03,0,21.838-9.811,21.838-21.837
			c0-11.13-8.41-20.347-19.192-21.666c0.064-0.963,0.084-1.923,0.084-2.9C70.34,941.959,49.534,921.151,23.939,921.151
			L23.939,921.151z M23.939,926.611c22.644,0,40.943,18.299,40.943,40.945c0,0.99-0.047,1.969-0.127,2.945
			c-5.184,0.681-9.798,3.189-13.175,6.863c-1.628-1.86-3.671-3.497-6.019-4.82c-5.714-3.217-13.283-4.988-21.621-4.988
			c-8.339,0-15.91,1.771-21.624,4.988c-5.714,3.221-9.769,8.178-9.769,14.117v7.203c-5.964-7.105-9.549-16.283-9.549-26.311
			C-17.006,944.908,1.29,926.611,23.939,926.611z M23.939,932.071c-9.016,0-16.378,7.361-16.378,16.376
			c0,9.013,7.362,16.378,16.378,16.378c9.009,0,16.377-7.365,16.377-16.378C40.316,939.433,32.948,932.071,23.939,932.071z
			 M23.939,937.528c6.058,0,10.918,4.857,10.918,10.919c0,6.06-4.86,10.918-10.918,10.918c-6.065,0-10.92-4.857-10.92-10.918
			C13.019,942.384,17.874,937.528,23.939,937.528z M23.939,973.012c7.539,0,14.287,1.689,18.939,4.307
			c2.48,1.403,4.259,2.992,5.416,4.692c-1.594,3.029-2.516,6.467-2.516,10.108c0,3.119,0.643,6.097,1.83,8.786
			c-6.683,4.754-14.824,7.595-23.669,7.595c-9.851,0-18.872-3.479-25.927-9.255v-12.585c0-3.469,2.342-6.721,6.992-9.341
			C9.646,974.701,16.397,973.012,23.939,973.012L23.939,973.012z M67.61,975.745c3.558,0,6.83,1.118,9.514,3.026l-22.86,22.903
			c-1.923-2.686-3.026-5.983-3.026-9.56C51.235,983.042,58.533,975.745,67.61,975.745z M80.965,982.565
			c1.915,2.688,3.022,5.985,3.022,9.555c0,9.081-7.296,16.378-16.377,16.378c-3.552,0-6.835-1.117-9.507-3.03L80.965,982.565
			L80.965,982.565z"/>
	</g>
</g>
</svg>
