<?xml version="1.0" encoding="utf-8"?>
<!-- Generator: Adobe Illustrator 16.0.0, SVG Export Plug-In . SVG Version: 6.00 Build 0)  -->
<!DOCTYPE svg PUBLIC "-//W3C//DTD SVG 1.1//EN" "http://www.w3.org/Graphics/SVG/1.1/DTD/svg11.dtd">
<svg version="1.1" id="Layer_1" xmlns="http://www.w3.org/2000/svg" xmlns:xlink="http://www.w3.org/1999/xlink" x="0px" y="0px"
	 width="100px" height="87.667px" viewBox="0 0 100 87.667" enable-background="new 0 0 100 87.667" xml:space="preserve">
<g transform="translate(50 50) scale(0.69 0.69) rotate(0) translate(-50 -50)">
	<title>cup</title>
	<desc>Created with Sketch.</desc>
	<g>
		<g>
			<path fill="none" stroke="#4D4D4D" stroke-width="4.2857" d="M5.268-6.946h89.388c0,0-3.193,80.119-28.734,80.119
				c-25.539,0-6.386,0-31.923,0C8.46,73.174,5.268-6.946,5.268-6.946z"/>
			<path fill="none" stroke="#4D4D4D" stroke-width="4.2857" d="M-14.596,78.388h129.114l-12.885,11.621
				c-3.579,3.225-10.394,5.844-15.207,5.844H13.499c-4.821,0-11.627-2.615-15.211-5.844L-14.596,78.388z"/>
			<path fill="none" stroke="#4D4D4D" stroke-width="4.286" d="M92.83,12.119c0,0,12.562-8.877,18.617,0.214
				c6.474,8.072,3.015,24.58-4.509,32.542c-7.96,9.02-21.991,6.06-21.991,6.06"/>
			<path fill="#4D4D4D" stroke="#4D4D4D" stroke-width="4.2857" d="M17.683,55.46c-7.309-14.708-7.522-31.947-7.522-31.947h80.687
				c0,0-2.426,9.36-6.457,23.339c-2.958,10.269-7.654,26.322-18.467,26.322c-25.541,0-6.387,0-31.925,0
				C25.669,73.174,21.22,62.581,17.683,55.46z"/>
		</g>
	</g>
</g>
</svg>
