<?xml version="1.0" ?><!DOCTYPE svg  PUBLIC '-//W3C//DTD SVG 1.1//EN'  'http://www.w3.org/Graphics/SVG/1.1/DTD/svg11.dtd'><svg enable-background="new 0 0 800 800" height="800px" id="Layer_1" version="1.1" viewBox="0 0 800 800" width="800px" xml:space="preserve" xmlns="http://www.w3.org/2000/svg" xmlns:xlink="http://www.w3.org/1999/xlink"><symbol id="flowerpot_2" viewBox="-44.622 -30.941 89.244 61.883"><g id="New_Symbol_1_1_"><path d="M27.986,15.054    c-1.33,2.298-0.143,7.319-2.441,8.648c-2.228,1.289-5.952-2.211-8.711-2.211c-2.092,0-4.738,2.009-6.867,2.419    c-0.103,1.989-0.165,4.031-1.455,4.778c-2.1,1.214-5.675-2.329-8.275-2.329c-2.6,0-6.175,3.543-8.275,2.329    c-1.394-0.808-1.354-3.13-1.482-5.26c-1.788-0.734-3.741-1.938-5.361-1.938c-2.759,0-6.484,3.5-8.711,2.211    c-2.299-1.329-1.111-6.352-2.441-8.647c-1.29-2.229-6.265-3.678-6.265-6.438c0-2.759,4.976-4.208,6.265-6.436    c1.33-2.299,0.142-7.319,2.441-8.648c2.228-1.289,5.952,2.211,8.711,2.211c2.759,0,6.483-3.5,8.711-2.211    c1.872,1.082,1.432,4.613,1.923,7.129c1.529,0.747,3.138,1.696,4.485,1.696c1.826,0,4.131-1.742,6.07-2.361    C6.633-2.44,6.412-5.477,8.123-6.467c2.228-1.289,5.952,2.211,8.711,2.211s6.483-3.5,8.711-2.211    c2.298,1.329,1.111,6.352,2.441,8.647c1.29,2.229,6.265,3.678,6.265,6.437C34.251,11.377,29.275,12.826,27.986,15.054z" fill="#9EBD2E" stroke="#000000" stroke-miterlimit="10" stroke-width="4"/><polygon fill="#EC7E33" points="27.583,-28.941 -27.583,-28.941     -41.583,3.559 41.583,3.559   " stroke="#000000" stroke-miterlimit="10" stroke-width="4"/></g></symbol><g><g><g id="XMLID_16_"><g><path d="M469.805,207.458v22.393c0,1.449-1.186,2.634-2.635,2.634h-14.489c-1.436,0-2.634-1.186-2.634-2.634      v-22.393h1.316c0,0,6.15,2.305,9.221,0C463.666,205.153,469.805,207.458,469.805,207.458z" fill="#96CACC"/><path d="M469.805,196.921v10.538c0,0-6.139-2.305-9.221,0c-3.069,2.305-9.221,0-9.221,0h-1.316v-10.538H469.805z      " fill="#E4F3F4"/></g><g><path d="M469.805,207.458v22.393      c0,1.449-1.186,2.634-2.635,2.634h-14.489c-1.436,0-2.634-1.186-2.634-2.634v-22.393V196.92h19.758V207.458L469.805,207.458z" fill="none" stroke="#000000" stroke-miterlimit="10" stroke-width="4"/><path d="M469.805,207.458      c0,0-6.139-2.305-9.221,0c-3.069,2.305-9.221,0-9.221,0" fill="none" stroke="#000000" stroke-linecap="round" stroke-linejoin="round" stroke-width="4"/></g></g><line fill="none" stroke="#000000" stroke-miterlimit="10" stroke-width="4" x1="457.957" x2="457.957" y1="182.454" y2="210.116"/><line fill="none" stroke="#000000" stroke-miterlimit="10" stroke-width="4" x1="446.233" x2="458.287" y1="172.023" y2="184.074"/></g><g><circle cx="527.33" cy="196.917" fill="#E9B71E" r="15.367" stroke="#000000" stroke-miterlimit="10" stroke-width="4"/><g id="XMLID_14_"><g><path d="M571.969,198.237l-7.902,7.903c0,0-7.707,2.305-11.554,0c-3.872-2.305-11.578,0-11.578,0l-1.027,1.027      l-8.917-8.931L571.969,198.237L571.969,198.237z" fill="#FFFFFF"/><path d="M564.065,206.14l-7.324,7.324v22.972h-10.538v-22.972l-6.297-6.296l1.027-1.027      c0,0,7.706-2.305,11.578,0C556.358,208.445,564.065,206.14,564.065,206.14z" fill="#E0634F"/></g><g><polygon fill="none" points="564.065,206.14 571.969,198.237       530.989,198.237 539.906,207.167 546.203,213.464 546.203,236.436 556.741,236.436 556.741,213.464     " stroke="#000000" stroke-miterlimit="10" stroke-width="4"/><path d="M540.935,206.14c0,0,7.706-2.305,11.578,0      c3.847,2.305,11.554,0,11.554,0" fill="none" stroke="#000000" stroke-miterlimit="10" stroke-width="4"/></g></g><line fill="none" stroke="#000000" stroke-miterlimit="10" stroke-width="4" x1="547.749" x2="578.262" y1="205.113" y2="185.062"/><path d="M538.994,206.273    c1.896-2.216,3.171-5.378,3.56-8.013h-11.569L538.994,206.273z" fill="#E9B71E" stroke="#000000" stroke-miterlimit="10" stroke-width="4"/><circle cx="526.836" cy="190.166" r="1.811"/><circle cx="520.25" cy="195.435" r="1.811"/><circle cx="526.836" cy="203.338" r="1.811"/></g><g><rect fill="#FFFFFF" height="154.114" stroke="#000000" stroke-miterlimit="10" stroke-width="4" width="10.538" x="497.474" y="156.11"/><rect fill="#B75833" height="64.544" stroke="#000000" stroke-miterlimit="10" stroke-width="4" width="10.538" x="519.866" y="245.68"/><rect fill="#B75833" height="64.544" stroke="#000000" stroke-miterlimit="10" stroke-width="4" width="10.537" x="471.13" y="245.68"/><rect fill="#B75833" height="15.807" stroke="#000000" stroke-miterlimit="10" stroke-width="4" width="127.77" x="438.199" y="232.508"/><rect enable-background="new    " height="6.586" opacity="0.4" width="11.854" x="519.866" y="249.632"/><rect enable-background="new    " height="6.586" opacity="0.4" width="11.854" x="496.156" y="157.427"/><rect enable-background="new    " height="6.586" opacity="0.4" width="11.854" x="469.813" y="249.632"/><g><polygon fill="#E9B71E" points="629.808,189.795 621.583,188.643      610.857,266.756 554.114,266.756 554.114,273.563 554.114,277.293 619.234,277.293 619.236,266.965    " stroke="#000000" stroke-miterlimit="10" stroke-width="4"/><rect fill="#E9B71E" height="32.931" stroke="#000000" stroke-miterlimit="10" stroke-width="4" width="10.537" x="556.749" y="277.293"/><rect enable-background="new    " height="6.586" opacity="0.4" width="11.854" x="556.749" y="278.611"/><rect fill="#E9B71E" height="32.931" stroke="#000000" stroke-miterlimit="10" stroke-width="4" width="10.538" x="608.12" y="277.293"/><rect enable-background="new    " height="6.586" opacity="0.4" width="11.854" x="608.12" y="278.611"/></g><g><polygon fill="#E9B71E" points="382.876,189.795 391.101,188.643      401.826,266.756 457.957,266.756 457.957,273.563 457.957,277.293 393.45,277.293 393.447,266.965    " stroke="#000000" stroke-miterlimit="10" stroke-width="4"/><rect fill="#E9B71E" height="32.931" stroke="#000000" stroke-miterlimit="10" stroke-width="4" width="10.538" x="444.785" y="277.293"/><rect enable-background="new    " height="6.586" opacity="0.4" width="11.855" x="443.468" y="278.611"/><rect fill="#E9B71E" height="32.931" stroke="#000000" stroke-miterlimit="10" stroke-width="4" width="10.537" x="393.414" y="277.293"/><rect enable-background="new    " height="6.586" opacity="0.4" width="11.854" x="392.097" y="278.611"/></g><g id="XMLID_12_"><g><path d="M535.115,152.132H501.42V82.319v-0.092C520.06,82.662,535.115,114.196,535.115,152.132z" fill="#E4F3F4"/><path d="M502.079,82.214c38.605,0,69.918,31.719,69.918,69.918h-36.882c0-37.936-15.06-69.47-33.695-69.904      C501.645,82.214,501.855,82.214,502.079,82.214z" fill="#9EBD2E"/><path d="M466.949,152.132c0-37.527,14.713-68.785,33.072-69.878c0.082-0.014,0.175-0.014,0.252-0.014      c0.368-0.013,0.724-0.013,1.093-0.013c0.013-0.014,0.04-0.014,0.053,0v0.092v69.813H466.949z" fill="#9EBD2E"/><path d="M501.367,82.228c-0.369,0-0.725,0-1.093,0.013c0.251-0.026,0.5-0.026,0.751-0.026      C501.145,82.214,501.249,82.214,501.367,82.228z" fill="#9EBD2E"/><path d="M500.023,82.254c-18.36,1.093-33.073,32.351-33.073,69.878h-34.788      C432.161,114.618,462.352,83.347,500.023,82.254z" fill="#E4F3F4"/></g><g><path d="M500.023,82.254      c-37.673,1.093-67.862,32.364-67.862,69.878h34.788" fill="none" stroke="#000000" stroke-miterlimit="10" stroke-width="4"/><path d="M535.115,152.132h36.882      c0-38.199-31.313-69.918-69.918-69.918c-0.224,0-0.435,0-0.659,0.014" fill="none" stroke="#000000" stroke-miterlimit="10" stroke-width="4"/><path d="M501.367,82.228      c-0.118-0.014-0.225-0.014-0.342-0.014c-0.251,0-0.5,0-0.751,0.026c-0.078,0-0.171,0-0.251,0.014      c-18.36,1.093-33.073,32.351-33.073,69.878h34.472h33.694c0-37.936-15.058-69.47-33.694-69.904" fill="none" stroke="#000000" stroke-miterlimit="10" stroke-width="4"/><line fill="none" stroke="#000000" stroke-miterlimit="10" stroke-width="4" x1="501.42" x2="501.42" y1="82.319" y2="152.132"/></g></g></g><g><g><g><defs><rect height="68.495" id="SVGID_1_" width="430.729" x="243.251" y="239.094"/></defs><clipPath id="SVGID_2_"><use overflow="visible" xlink:href="#SVGID_1_"/></clipPath><path clip-path="url(#SVGID_2_)" d="M722.594,326.008l3.712-4.571l-35.262-53.225l16.599-25.054l-3.711-4.572      l-16.257,24.538l-4.997-7.542l8.23-12.424l-3.709-4.572l-7.894,11.909l-7.889-11.909l-0.478,0.59l-0.479-0.59l-7.889,11.909      l-7.89-11.909l-0.479,0.591l-0.481-0.591l-7.888,11.906l-7.887-11.906l-0.479,0.59l-0.479-0.59l-7.89,11.909l-7.891-11.909      l-0.479,0.59l-0.479-0.59l-7.887,11.909l-7.892-11.909l-0.479,0.59l-0.478-0.59l-7.888,11.909l-7.891-11.909l-0.909,1.121      l-0.908-1.121l-7.459,11.256l-7.458-11.256l-0.907,1.121l-0.91-1.121l-7.891,11.909l-7.887-11.909l-0.479,0.59l-0.479-0.59      l-7.888,11.909l-7.89-11.909l-0.48,0.59l-0.479-0.59l-7.884,11.908l-7.892-11.908l-0.479,0.59l-0.479-0.59l-7.89,11.909      l-7.89-11.909l-0.479,0.59l-0.478-0.59l-7.889,11.909l-7.891-11.909l-0.478,0.59l-0.479-0.59l-7.888,11.909l-7.892-11.909      l-0.905,1.121l-0.911-1.121l-7.458,11.256l-7.458-11.256l-0.91,1.121l-0.907-1.121l-7.887,11.909l-7.891-11.909l-0.479,0.59      l-0.479-0.59l-7.891,11.909l-7.888-11.909l-0.48,0.59l-0.479-0.59l-7.887,11.908l-7.889-11.908l-0.479,0.59l-0.479-0.59      l-7.892,11.909l-7.888-11.909l-0.479,0.59l-0.477-0.59l-7.89,11.909l-7.891-11.909l-0.479,0.59l-0.476-0.59l-7.887,11.908      l-7.892-11.908l-0.908,1.122l-0.911-1.122l-7.458,11.256l-7.457-11.256l-0.911,1.121l-0.908-1.121l-7.889,11.909l-7.889-11.909      l-0.479,0.59l-0.479-0.59l-7.888,11.909l-7.888-11.909l-0.479,0.59l-0.479-0.59l-7.889,11.909l-7.888-11.909l-0.479,0.59      l-0.479-0.59l-7.892,11.909l-7.887-11.909l-0.477,0.589l-0.477-0.589l-7.891,11.909l-7.889-11.909L250,239.173l-0.479-0.589      l-7.886,11.909l-7.89-11.909l-3.711,4.572l8.23,12.424l-4.999,7.542l-16.256-24.539l-3.712,4.572l16.599,25.053l-35.263,53.225      l3.71,4.572l34.922-52.71l4.999,7.544l-26.896,40.592l3.713,4.572l26.553-40.077l4.996,7.542l-18.528,27.963l3.714,4.572      l18.186-27.447l4.996,7.542l-10.16,15.334l3.711,4.572l9.818-14.819l5,7.544l-1.792,2.703l3.712,4.572l1.45-2.188l1.451,2.188      l3.708-4.572l-1.788-2.703l4.995-7.542l5.001,7.543l-1.791,2.702l3.712,4.572l1.448-2.187l1.451,2.187l3.709-4.572l-1.788-2.702      l4.995-7.542l4.996,7.542l-1.791,2.703l3.712,4.572l1.45-2.188l1.45,2.188l3.711-4.572l-1.788-2.703l4.995-7.542l5.431,8.196      l-1.358,2.049l3.711,4.572l1.016-1.535l1.015,1.535l3.715-4.572l-1.357-2.049l4.995-7.544l4.997,7.542l-1.357,2.051l3.711,4.572      l1.018-1.536l1.017,1.536l3.711-4.572l-1.357-2.051l4.998-7.543l4.996,7.543l-1.358,2.053l3.712,4.571l1.016-1.537l1.02,1.537      l3.711-4.571l-1.36-2.053l4.998-7.543l4.998,7.543l-1.36,2.053l3.713,4.571l1.016-1.537l1.018,1.537l3.712-4.571l-1.357-2.053      l5.428-8.194l4.998,7.542l-1.792,2.705l3.712,4.571l1.45-2.189l1.453,2.189l3.709-4.571l-1.789-2.705l4.996-7.542l4.999,7.542      l-1.792,2.703l3.712,4.572l1.45-2.188l1.449,2.188l3.711-4.572l-1.789-2.703l4.996-7.542l4.995,7.542l-1.789,2.703l3.712,4.572      l1.447-2.188l1.453,2.188l3.711-4.572l-1.789-2.703l4.996-7.542l5.427,8.196l-1.356,2.049l3.711,4.572l1.017-1.535l1.016,1.535      l3.713-4.572l-1.358-2.049l4.998-7.544l4.996,7.544l-1.355,2.049l3.711,4.572l1.017-1.535l1.018,1.535l3.71-4.572l-1.355-2.049      l4.996-7.544l4.996,7.542l-1.358,2.053l3.71,4.571l1.02-1.537l1.018,1.537l3.713-4.571l-1.357-2.053l4.996-7.543l4.995,7.543      l-1.357,2.053l3.71,4.571l1.019-1.537l1.019,1.537l3.712-4.571l-1.358-2.053l5.43-8.194l4.996,7.542l-1.791,2.705l3.713,4.571      l1.45-2.189l1.449,2.189l3.711-4.571l-1.789-2.705l4.996-7.542l4.999,7.542l-1.793,2.703l3.712,4.572l1.451-2.188l1.45,2.188      l3.711-4.572l-1.79-2.702l4.999-7.543l4.996,7.542l-1.793,2.703l3.713,4.572l1.448-2.188l1.452,2.188l3.711-4.572l-1.792-2.703      l4.999-7.542l5.429,8.194l-1.359,2.051l3.712,4.572l1.017-1.536l1.019,1.536l3.709-4.572l-1.357-2.051l4.999-7.542l5,7.544      l-1.358,2.049l3.708,4.572l1.018-1.535l1.018,1.535l3.712-4.572l-1.36-2.049l4.998-7.544l4.999,7.542l-1.36,2.053l3.71,4.571      l1.02-1.537l1.018,1.537l3.713-4.571l-1.361-2.053l4.999-7.543l4.999,7.542l-1.361,2.054l3.71,4.571l1.021-1.537l1.019,1.537      l3.712-4.571l-1.359-2.054l5.428-8.195l4.999,7.544l-1.793,2.703l3.715,4.572l1.448-2.188l1.45,2.188l3.711-4.572l-1.789-2.703      l4.996-7.542l4.998,7.542l-1.793,2.705l3.715,4.571l1.448-2.188l1.448,2.188l3.716-4.571l-1.795-2.705l4.998-7.542l4.996,7.542      l-1.788,2.704l3.71,4.571l1.451-2.188l1.448,2.188l3.712-4.571l-1.79-2.704l4.996-7.542l9.817,14.817l3.712-4.571      l-10.159-15.333l4.999-7.543l18.186,27.448l3.71-4.571l-18.524-27.963l4.996-7.542l26.553,40.079l3.712-4.572l-26.896-40.594      l4.999-7.544L722.594,326.008z M670.939,248.04l4.995,7.544l-4.995,7.542l-4.996-7.542L670.939,248.04z M266.698,273.299      l4.995,7.542l-4.995,7.542l-4.996-7.542L266.698,273.299z M258.329,275.754l-4.999-7.542l4.999-7.542l4.998,7.542      L258.329,275.754z M270.068,268.211l4.995-7.542l4.999,7.542l-4.999,7.542L270.068,268.211z M275.063,285.929l5,7.544      l-4.997,7.542l-4.998-7.543L275.063,285.929z M278.434,280.842l4.999-7.543l4.996,7.543l-4.996,7.544L278.434,280.842z       M286.802,268.211l4.999-7.544l4.999,7.544l-5,7.543L286.802,268.211z M291.799,285.931l5,7.544l-4.999,7.543l-4.999-7.543      L291.799,285.931z M295.171,280.842l4.999-7.543l4.998,7.545l-4.998,7.542L295.171,280.842z M303.54,268.211l4.997-7.544      l4.999,7.544l-4.996,7.543L303.54,268.211z M308.536,285.932l4.997,7.541l-5,7.543l-4.995-7.542L308.536,285.932z       M311.907,280.843l4.998-7.544l4.998,7.542l-4.999,7.544L311.907,280.843z M320.275,268.211l4.998-7.544l4.997,7.544      l-4.999,7.542L320.275,268.211z M325.271,285.929l5.429,8.194l-4.997,7.543l-5.43-8.194L325.271,285.929z M328.643,280.842      l4.998-7.543l5.429,8.196l-4.999,7.542L328.643,280.842z M337.01,268.211l5.43-8.193l5.428,8.194l-5.428,8.195L337.01,268.211z       M342.439,286.581l4.996,7.542l-4.996,7.542l-4.998-7.542L342.439,286.581z M345.81,281.494l5.43-8.196l4.996,7.543      l-5.431,8.195L345.81,281.494z M354.607,268.211l4.999-7.544l4.996,7.542l-4.996,7.544L354.607,268.211z M359.606,285.929      l4.996,7.542l-5.43,8.194l-4.997-7.542L359.606,285.929z M362.977,280.842l4.996-7.545l5,7.545l-5,7.544L362.977,280.842z       M371.346,268.21l4.996-7.542l4.997,7.544l-4.997,7.542L371.346,268.21z M376.342,285.929l4.997,7.542l-4.997,7.543      l-4.998-7.543L376.342,285.929z M379.712,280.842l4.998-7.543l4.997,7.543l-4.997,7.542L379.712,280.842z M388.081,268.211      l4.995-7.542l4.999,7.542l-4.999,7.542L388.081,268.211z M393.076,285.929l4.999,7.544l-4.997,7.542l-4.997-7.543      L393.076,285.929z M396.447,280.842l4.996-7.542l4.999,7.544l-4.996,7.542L396.447,280.842z M404.816,268.211l4.996-7.544      l4.995,7.544l-4.995,7.545L404.816,268.211z M409.813,285.932l4.996,7.542l-4.996,7.542l-4.995-7.542L409.813,285.932z       M413.183,280.843l4.999-7.545l4.996,7.543l-4.999,7.544L413.183,280.843z M421.552,268.211l4.996-7.542l4.996,7.542      l-4.996,7.543L421.552,268.211z M426.548,285.931l4.996,7.544l-4.996,7.542l-4.999-7.542L426.548,285.931z M429.918,280.842      l4.998-7.542l4.997,7.542l-4.999,7.544L429.918,280.842z M438.287,268.211l4.998-7.544l4.996,7.544l-4.998,7.543      L438.287,268.211z M443.283,285.931l5.428,8.194l-4.996,7.544l-5.428-8.194L443.283,285.931z M446.655,280.842l4.997-7.543      l5.431,8.196l-5.002,7.542L446.655,280.842z M455.021,268.211l5.428-8.193l5.429,8.194l-5.429,8.195L455.021,268.211z       M460.45,286.581l4.996,7.542l-4.996,7.543l-4.996-7.543L460.45,286.581z M463.82,281.494l5.429-8.196l4.999,7.543l-5.429,8.195      L463.82,281.494z M472.619,268.211l4.999-7.544l4.996,7.544l-4.996,7.543L472.619,268.211z M477.618,285.931l4.996,7.542      l-5.429,8.194l-4.996-7.542L477.618,285.931z M480.988,280.842l4.996-7.543l4.999,7.543l-4.999,7.544L480.988,280.842z       M489.357,268.211l4.996-7.544l4.995,7.544l-4.995,7.542L489.357,268.211z M494.354,285.929l4.996,7.542l-4.996,7.543      l-4.995-7.543L494.354,285.929z M497.724,280.842l4.996-7.543l4.999,7.543l-4.999,7.542L497.724,280.842z M506.093,268.211      l4.996-7.542l4.996,7.542l-4.996,7.542L506.093,268.211z M511.089,285.929l4.996,7.544l-4.996,7.542l-4.996-7.543      L511.089,285.929z M514.459,280.842l4.996-7.543l5,7.543l-4.996,7.544L514.459,280.842z M522.828,268.211l4.998-7.544      l4.996,7.544l-4.996,7.545L522.828,268.211z M527.826,285.931l4.996,7.544l-4.996,7.542l-4.998-7.542L527.826,285.931z       M531.194,280.842l4.995-7.543l5,7.543l-5,7.544L531.194,280.842z M539.563,268.211l4.998-7.544l4.996,7.544l-4.996,7.543      L539.563,268.211z M544.563,285.931l4.995,7.544l-4.998,7.542l-4.995-7.542L544.563,285.931z M547.932,280.842l4.996-7.542      l4.996,7.542l-4.998,7.544L547.932,280.842z M556.299,268.211l4.996-7.542l4.998,7.542l-4.998,7.542L556.299,268.211z       M561.295,285.929l5.431,8.194l-4.999,7.543l-5.428-8.194L561.295,285.929z M564.665,280.842l4.998-7.543l5.429,8.194      l-4.999,7.544L564.665,280.842z M573.033,268.211l5.429-8.195l5.427,8.195l-5.427,8.194L573.033,268.211z M578.462,286.58      l4.999,7.544l-4.999,7.543l-4.999-7.543L578.462,286.58z M581.832,281.493l5.429-8.194l4.999,7.543l-5.429,8.195      L581.832,281.493z M590.631,268.211l4.999-7.544l4.996,7.544l-4.996,7.542L590.631,268.211z M595.63,285.929l4.996,7.542      l-5.428,8.194l-4.996-7.542L595.63,285.929z M599,280.842l4.996-7.543l4.999,7.543l-4.999,7.542L599,280.842z M607.369,268.211      l4.996-7.544l4.998,7.544l-4.998,7.542L607.369,268.211z M612.365,285.929l4.998,7.542l-4.998,7.542l-4.996-7.542      L612.365,285.929z M615.735,280.842l4.995-7.543l4.996,7.543l-4.996,7.542L615.735,280.842z M624.104,268.211l4.996-7.542      l4.996,7.542l-4.996,7.542L624.104,268.211z M629.101,285.929l4.996,7.545l-4.996,7.542l-4.995-7.544L629.101,285.929z       M632.471,280.842l4.996-7.543l4.998,7.545l-4.996,7.542L632.471,280.842z M640.837,268.211l4.999-7.544l4.998,7.544      l-4.998,7.545L640.837,268.211z M645.836,285.932l4.998,7.542l-4.998,7.542l-4.996-7.542L645.836,285.932z M649.206,280.843      l4.998-7.545l4.997,7.543l-4.997,7.544L649.206,280.843z M657.574,268.211l4.999-7.544l4.996,7.544l-4.996,7.543      L657.574,268.211z M654.204,248.037l4.997,7.545l-4.997,7.542l-4.998-7.544L654.204,248.037z M637.469,248.038l4.996,7.542      l-4.998,7.544l-4.996-7.542L637.469,248.038z M620.731,248.04l4.999,7.544l-4.999,7.542l-4.996-7.542L620.731,248.04z       M603.996,248.04l4.999,7.544l-4.999,7.542L599,255.583L603.996,248.04z M586.828,247.386l5.432,8.196l-4.999,7.542      l-5.429-8.195L586.828,247.386z M570.096,247.389l4.996,7.541l-5.429,8.195l-4.996-7.542L570.096,247.389z M552.928,248.04      l4.996,7.544l-4.996,7.542l-4.996-7.542L552.928,248.04z M536.19,248.038l4.999,7.544l-4.999,7.542l-4.994-7.544L536.19,248.038      z M519.457,248.038l4.997,7.542l-4.999,7.544l-4.998-7.542L519.457,248.038z M502.72,248.04l4.999,7.544l-4.999,7.542      l-4.999-7.542L502.72,248.04z M485.984,248.04l4.999,7.544l-4.999,7.542l-4.996-7.542L485.984,248.04z M468.819,247.386      l5.429,8.196l-4.999,7.542l-5.429-8.195L468.819,247.386z M452.081,247.389l5.002,7.542l-5.431,8.193l-4.997-7.542      L452.081,247.389z M434.916,248.04l4.997,7.544l-4.997,7.542l-4.998-7.542L434.916,248.04z M418.179,248.04l4.999,7.544      l-4.996,7.542l-4.999-7.544L418.179,248.04z M401.446,248.038l4.996,7.542l-4.999,7.544l-4.996-7.542L401.446,248.038z       M384.709,248.04l4.997,7.544l-4.997,7.542l-4.998-7.542L384.709,248.04z M367.973,248.04l4.996,7.544l-4.996,7.541      l-4.995-7.542L367.973,248.04z M350.808,247.386l5.43,8.194l-4.998,7.544l-5.43-8.195L350.808,247.386z M334.07,247.389      l4.999,7.542l-5.429,8.193l-4.998-7.542L334.07,247.389z M316.903,248.038l5,7.544l-4.999,7.542l-4.998-7.542L316.903,248.038z       M300.169,248.04l4.994,7.544l-4.994,7.542l-4.999-7.542L300.169,248.04z M283.434,248.04l4.995,7.544l-4.996,7.542      l-4.998-7.542L283.434,248.04z M266.699,248.041l4.995,7.542l-4.996,7.542l-4.996-7.542L266.699,248.041z M249.963,248.041      l4.998,7.542l-4.998,7.542l-4.998-7.542L249.963,248.041z M236.595,268.211l5-7.544l4.995,7.544l-4.996,7.543L236.595,268.211z       M244.965,280.842l4.998-7.543l4.998,7.543l-4.998,7.544L244.965,280.842z M253.331,293.473l5-7.544l4.997,7.542l-4.999,7.543      L253.331,293.473z M266.698,313.645l-4.998-7.542l4.998-7.544l4.996,7.544L266.698,313.645z M283.434,313.646l-4.999-7.544      l4.998-7.542l4.997,7.543L283.434,313.646z M300.168,313.645l-4.998-7.542l4.999-7.543l4.994,7.542L300.168,313.645z       M317.334,314.298l-5.428-8.195l4.997-7.542l5.427,8.195L317.334,314.298z M334.07,314.296l-4.996-7.542l4.996-7.544      l4.999,7.542L334.07,314.296z M350.805,314.296l-4.995-7.543l4.995-7.542l4.999,7.542L350.805,314.296z M367.542,314.296      l-4.998-7.543l5.427-8.195l4.997,7.544L367.542,314.296z M384.709,313.645l-4.998-7.542l4.998-7.544l4.997,7.544      L384.709,313.645z M401.446,313.645l-4.999-7.542l4.999-7.542l4.996,7.542L401.446,313.645z M418.179,313.645l-4.996-7.542      l4.996-7.542l4.999,7.542L418.179,313.645z M435.346,314.298l-5.428-8.195l4.996-7.542l5.431,8.195L435.346,314.298z       M452.081,314.298l-4.996-7.543l4.996-7.544l5.002,7.544L452.081,314.298z M468.816,314.296l-4.996-7.542l4.999-7.544      l4.996,7.542L468.816,314.296z M485.552,314.296l-4.996-7.543l5.43-8.195l4.999,7.544L485.552,314.296z M502.723,313.645      l-5.002-7.542l4.999-7.544l4.999,7.544L502.723,313.645z M519.457,313.646l-5-7.544l5-7.542l4.997,7.542L519.457,313.646z       M536.19,313.645l-4.994-7.542l4.994-7.542l4.999,7.542L536.19,313.645z M553.357,314.296l-5.427-8.194l4.994-7.542l5.432,8.195      L553.357,314.296z M570.093,314.298l-4.996-7.543l4.996-7.544l4.999,7.544L570.093,314.298z M586.828,314.296l-4.996-7.542      l4.999-7.544l4.996,7.541L586.828,314.296z M603.566,314.295l-4.999-7.542l5.429-8.193l4.996,7.542L603.566,314.295z       M620.734,313.645l-4.999-7.544l4.995-7.542l5,7.545L620.734,313.645z M637.469,313.645l-4.996-7.542l4.996-7.542l4.996,7.542      L637.469,313.645z M654.204,313.645l-4.998-7.542l4.998-7.542l4.997,7.542L654.204,313.645z M662.571,301.015l-4.997-7.542      l4.999-7.544l4.996,7.542L662.571,301.015z M670.939,288.384l-4.996-7.542l4.996-7.542l4.995,7.542L670.939,288.384z       M679.307,275.754l-4.994-7.542l4.994-7.542l4.998,7.542L679.307,275.754z" fill="#96CACC"/></g></g></g><rect fill="#FFFFFF" height="194.948" stroke="#000000" stroke-miterlimit="10" stroke-width="4" width="461.025" x="224.811" y="403.746"/><g><rect fill="#BAE1E5" height="152.798" stroke="#000000" stroke-miterlimit="10" stroke-width="4" width="85.619" x="568.604" y="426.139"/></g><rect fill="#BAE1E5" height="151.479" stroke="#000000" stroke-miterlimit="10" stroke-width="4" width="233.147" x="273.547" y="427.456"/><g><path d="M298.352,520.171c-0.496-1.014-0.995-2.03-1.491-3.044c0.879-0.646,1.764-1.287,2.654-1.922    c-2.876-6.104-5.754-12.211-8.63-18.314c-1.149,0.326-2.297,0.661-3.445,1.011c-0.499-1.021-1-2.044-1.5-3.064    c1.077-0.527,2.159-1.047,3.242-1.558c2.042-0.961,4.092-1.895,6.156-2.794c1.1-0.479,2.202-0.952,3.309-1.414    c0.44,1.047,0.879,2.097,1.317,3.145c-1.015,0.635-2.024,1.278-3.028,1.929c2.651,6.072,5.304,12.146,7.955,18.219    c2.608-1.141,5.234-2.227,7.876-3.255c-0.339-1.138-0.677-2.275-1.012-3.411c1.458-0.567,2.92-1.118,4.386-1.649    c0.898,2.47,1.796,4.942,2.694,7.412C311.896,513.981,305.058,516.885,298.352,520.171z" fill="#FFFFFF"/><path d="M340.143,492.221c-3.4,0.79-6.786,1.662-10.157,2.614c0.732,2.585,1.462,5.171,2.193,7.757    c3.097-0.875,6.206-1.681,9.328-2.411c-0.17-1.113-0.338-2.227-0.506-3.345c1.499-0.35,3-0.682,4.505-0.998    c0.53,2.514,1.061,5.029,1.591,7.546c-7.528,1.587-14.989,3.597-22.349,6.022c-0.356-1.071-0.708-2.146-1.063-3.217    c0.947-0.52,1.896-1.026,2.853-1.528c-2.019-6.443-4.037-12.882-6.057-19.321c-1.167,0.162-2.336,0.335-3.506,0.515    c-0.355-1.077-0.713-2.157-1.068-3.235c1.124-0.373,2.251-0.735,3.379-1.088c7.242-2.271,14.567-4.187,21.949-5.741    c0.53,2.521,1.064,5.045,1.595,7.566c-1.608,0.34-3.212,0.692-4.814,1.069c-0.349-1.071-0.696-2.146-1.05-3.219    c-3.378,0.797-6.744,1.666-10.097,2.611c0.643,2.276,1.289,4.551,1.932,6.824c3.436-0.971,6.889-1.858,10.356-2.663    C339.485,489.391,339.814,490.806,340.143,492.221z" fill="#FFFFFF"/><path d="M392.088,480.209c-1.571-0.013-3.142-0.011-4.713,0.008c-0.233-1.249-0.469-2.497-0.708-3.748    c-0.64-0.546-1.454-0.971-2.429-1.269c-0.979-0.3-2.132-0.425-3.451-0.373c-2.816,0.113-4.944,1.14-6.317,3.021    c-1.382,1.883-1.932,4.262-1.708,7.116c0.026,0.329,0.053,0.658,0.077,0.988c0.225,2.858,1.119,5.122,2.636,6.82    c1.521,1.694,3.514,2.47,6.028,2.365c1.164-0.046,2.223-0.24,3.184-0.588c0.966-0.349,1.708-0.8,2.231-1.359    c0.188-1.26,0.374-2.515,0.571-3.771c1.508-0.018,3.014-0.021,4.521-0.008c-0.015,1.86-0.031,3.718-0.046,5.578    c-1.207,1.308-2.712,2.355-4.521,3.157c-1.813,0.806-3.821,1.246-6.063,1.342c-3.879,0.162-7.126-0.908-9.879-3.302    c-2.749-2.389-4.409-5.581-4.842-9.668c-0.034-0.315-0.068-0.632-0.103-0.947c-0.435-4.069,0.538-7.565,3.062-10.438    c2.523-2.869,6.082-4.459,10.542-4.646c2.553-0.108,4.873,0.23,6.928,0.998c2.052,0.771,3.738,1.825,5.049,3.14    C392.12,476.489,392.104,478.349,392.088,480.209z" fill="#FFFFFF"/><path d="M398.51,495.676c0.708-0.068,1.415-0.134,2.123-0.198c3.397-8.017,7.141-15.953,11.221-23.792    c2.247,0.21,4.496,0.447,6.739,0.722c2.315,8.516,4.286,17.062,5.905,25.613c0.681,0.211,1.355,0.424,2.037,0.64    c-0.196,1.115-0.392,2.226-0.584,3.339c-3.258-0.568-6.524-1.057-9.8-1.469c0.142-1.122,0.282-2.242,0.422-3.365    c0.691-0.029,1.387-0.057,2.079-0.082c-0.256-1.339-0.521-2.676-0.794-4.011c-3.23-0.42-6.47-0.766-9.712-1.034    c-0.548,1.249-1.085,2.502-1.615,3.756c0.671,0.17,1.344,0.342,2.014,0.52c-0.098,1.125-0.195,2.251-0.297,3.377    c-3.285-0.286-6.578-0.497-9.873-0.626C398.423,497.935,398.467,496.806,398.51,495.676z M409.943,488.015    c2.339,0.211,4.675,0.459,7.006,0.746c-0.742-3.431-1.533-6.855-2.381-10.279c-0.043-0.007-0.088-0.013-0.136-0.016    C412.889,481.634,411.392,484.816,409.943,488.015z" fill="#FFFFFF"/><path d="M432.547,499.798c1.07,0.021,2.141,0.049,3.211,0.084c1.452-6.591,2.899-13.184,4.351-19.773    c-1.087-0.438-2.178-0.87-3.273-1.289c0.228-1.114,0.456-2.229,0.684-3.343c8.604,1.758,17.14,3.998,25.554,6.726    c-0.795,2.451-1.587,4.904-2.382,7.354c-1.572-0.511-3.15-1.002-4.732-1.477c0.232-1.104,0.462-2.209,0.688-3.314    c-3.402-1.016-6.824-1.951-10.263-2.81c-0.628,2.511-1.253,5.024-1.881,7.535c3.566,0.892,7.116,1.87,10.648,2.938    c-0.423,1.39-0.845,2.78-1.264,4.174c-3.463-1.049-6.943-2.008-10.439-2.882c-0.626,2.51-1.25,5.017-1.877,7.521    c0.984,0.448,1.966,0.9,2.94,1.359c-0.288,1.092-0.578,2.186-0.87,3.275c-3.901-1.037-7.826-1.958-11.772-2.763    C432.095,502.013,432.32,500.903,432.547,499.798z" fill="#FFFFFF"/><path d="M483.203,507.058c-3.225-1.497-6.473-2.911-9.745-4.244c-1.014,2.487-2.027,4.979-3.041,7.466    c3.008,1.225,5.992,2.519,8.953,3.888c0.553-0.983,1.108-1.963,1.664-2.943c1.423,0.656,2.838,1.334,4.249,2.022    c-1.132,2.31-2.262,4.618-3.395,6.926c-7.053-3.455-14.255-6.491-21.563-9.104c0.381-1.063,0.76-2.126,1.14-3.189    c1.065,0.175,2.131,0.357,3.195,0.548c2.367-6.32,4.734-12.64,7.103-18.961c-1.025-0.592-2.057-1.177-3.091-1.752    c0.383-1.071,0.768-2.141,1.146-3.212c1.117,0.4,2.23,0.808,3.343,1.224c7.139,2.675,14.181,5.706,21.096,9.091    c-1.131,2.314-2.267,4.63-3.397,6.943c-1.509-0.736-3.018-1.456-4.534-2.16c0.383-1.063,0.767-2.121,1.146-3.185    c-3.21-1.479-6.44-2.882-9.693-4.205c-0.891,2.189-1.783,4.378-2.673,6.566c3.337,1.357,6.65,2.803,9.936,4.326    C484.428,504.423,483.815,505.74,483.203,507.058z" fill="#FFFFFF"/></g><polygon fill="#96CACC" points="314.419,498.388 319.672,497.557 326.519,547.322 363.118,547.322 363.118,552.049    363.118,559.173 363.118,576.302 359.167,576.302 359.167,559.178 326.236,559.178 326.236,576.302 320.967,576.302    320.967,559.173 320.967,552.049 320.967,547.322 321.168,547.322  "/><rect fill="#96CACC" height="15.807" width="101.426" x="352.58" y="527.564"/><rect fill="#96CACC" height="32.931" width="10.538" x="368.387" y="543.371"/><rect fill="#96CACC" height="32.931" width="10.538" x="423.71" y="543.371"/><rect fill="#96CACC" height="14.489" width="9.22" x="397.366" y="514.393"/><polygon enable-background="new    " fill="#FFFFFF" opacity="0.4" points="571.238,572.322 571.238,430.091 650.477,430.091  "/><polygon enable-background="new    " fill="#FFFFFF" opacity="0.4" points="277.499,572.322 277.499,430.091 506.241,430.091  "/><line fill="none" stroke="#000000" stroke-miterlimit="10" stroke-width="4" x1="345.994" x2="345.994" y1="427.456" y2="578.936"/><path d="M704.276,321.042   c0,5.651-2.803,10.257-7.609,10.257H217.333c-4.809,0-9.645-4.606-9.645-10.257v-0.615c0-5.651,4.836-10.205,9.645-10.205h479.334   c4.808,0,7.609,4.554,7.609,10.205V321.042z" fill="#E4F3F4" stroke="#000000" stroke-miterlimit="10" stroke-width="4"/><g><g id="XMLID_8_"><g><path d="M683.47,331.275c6.863,31.614,13.727,61.91,20.603,92.206h-0.344h-50.713      c-5.414-30.625-10.788-61.25-16.188-91.875v-0.33H683.47z" fill="#9EBD2E"/><path d="M653.016,423.48H603.16c-3.992-30.625-8.037-61.25-12.055-91.875v-0.33h45.722v0.33      C642.229,362.23,647.602,392.856,653.016,423.48z" fill="#E4F3F4"/><path d="M603.16,423.48h-49.172c-2.676-30.625-5.361-61.25-8.024-91.875v-0.33h45.144v0.33      C595.124,362.23,599.168,392.856,603.16,423.48z" fill="#9EBD2E"/><path d="M545.964,331.605c2.663,30.625,5.351,61.251,8.024,91.875h-48.777      c-1.33-30.625-2.674-61.25-4.004-91.875c0-0.105-0.013-0.224-0.013-0.33h44.77V331.605z" fill="#E4F3F4"/><path d="M505.211,423.48h-48.564v-92.206h44.549c0,0.105,0.013,0.224,0.013,0.33      C502.537,362.23,503.881,392.856,505.211,423.48z" fill="#9EBD2E"/><path d="M456.646,331.275v92.206H408.08c1.33-30.625,2.663-61.25,4.005-91.875c0-0.105,0-0.224,0.013-0.33      H456.646z" fill="#E4F3F4"/><path d="M412.097,331.275c-0.013,0.105-0.013,0.224-0.013,0.33c-1.343,30.625-2.675,61.251-4.005,91.875H359.29      c2.687-30.625,5.361-61.25,8.021-91.875v-0.33H412.097z" fill="#9EBD2E"/><path d="M367.313,331.275v0.33c-2.66,30.625-5.335,61.251-8.021,91.875h-49.172      c3.991-30.625,8.036-61.25,12.065-91.875v-0.33H367.313z" fill="#E4F3F4"/><path d="M322.184,331.275v0.33c-4.029,30.625-8.074,61.251-12.065,91.875h-49.843      c5.401-30.611,10.774-61.25,16.188-91.875v-0.33H322.184z" fill="#9EBD2E"/><path d="M229.821,331.275h46.642v0.33c-5.414,30.625-10.787,61.264-16.188,91.875h-50.713h-0.342      C216.096,393.186,222.958,362.89,229.821,331.275z" fill="#E4F3F4"/></g><g><path d="M636.827,331.275h46.643      c6.863,31.614,13.727,61.91,20.603,92.206h-0.344h-50.713H603.16h-49.172h-48.777h-48.564H408.08h-48.79h-49.172h-49.843      h-50.713h-0.342c6.876-30.295,13.738-60.591,20.602-92.206h46.642h45.722h45.127h44.784h44.55h44.549h44.77h45.144H636.827z" fill="none" stroke="#000000" stroke-miterlimit="10" stroke-width="4"/><path d="M229.94,331.605      c-6.784,30.625-13.581,61.251-20.378,91.875c-0.026,0.104-0.039,0.195-0.065,0.302" fill="none" stroke="#000000" stroke-miterlimit="10" stroke-width="4"/><path d="M276.463,331.605      c-5.414,30.625-10.787,61.264-16.188,91.875c-0.013,0.104-0.039,0.195-0.053,0.302" fill="none" stroke="#000000" stroke-miterlimit="10" stroke-width="4"/><path d="M322.184,331.605      c-4.029,30.625-8.074,61.251-12.065,91.875c-0.013,0.104-0.026,0.195-0.039,0.302" fill="none" stroke="#000000" stroke-miterlimit="10" stroke-width="4"/><path d="M367.313,331.605      c-2.66,30.625-5.335,61.251-8.021,91.875c-0.013,0.104-0.013,0.195-0.026,0.302" fill="none" stroke="#000000" stroke-miterlimit="10" stroke-width="4"/><path d="M408.066,423.783      c0-0.105,0.013-0.195,0.013-0.301c1.33-30.625,2.663-61.252,4.005-91.876c0-0.105,0-0.224,0.013-0.329      c0-0.342,0.028-0.685,0.054-1.041" fill="none" stroke="#000000" stroke-miterlimit="10" stroke-width="4"/><line fill="none" stroke="#000000" stroke-miterlimit="10" stroke-width="4" x1="456.646" x2="456.646" y1="423.48" y2="331.275"/><path d="M505.225,423.783      c0-0.105-0.014-0.195-0.014-0.301c-1.33-30.625-2.674-61.252-4.004-91.876c0-0.105-0.013-0.224-0.013-0.329      c-0.017-0.342-0.04-0.685-0.067-1.041" fill="none" stroke="#000000" stroke-miterlimit="10" stroke-width="4"/><path d="M554.014,423.783      c-0.013-0.105-0.013-0.195-0.024-0.301c-2.675-30.625-5.361-61.252-8.024-91.876" fill="none" stroke="#000000" stroke-miterlimit="10" stroke-width="4"/><path d="M603.198,423.783      c-0.014-0.105-0.025-0.195-0.037-0.301c-3.991-30.625-8.037-61.252-12.053-91.876" fill="none" stroke="#000000" stroke-miterlimit="10" stroke-width="4"/><path d="M653.068,423.783      c-0.014-0.105-0.039-0.195-0.054-0.301c-5.414-30.625-10.786-61.252-16.188-91.876" fill="none" stroke="#000000" stroke-miterlimit="10" stroke-width="4"/><path d="M703.794,423.783      c-0.025-0.105-0.04-0.195-0.065-0.301c-6.797-30.625-13.605-61.252-20.391-91.876" fill="none" stroke="#000000" stroke-miterlimit="10" stroke-width="4"/></g></g></g><path d="M209.004,423.504v5.243   c0,10.91,8.846,19.784,19.758,19.784h11.855c10.911,0,19.758-8.873,19.758-19.784v-5.243H209.004z" fill="#E4F3F4" stroke="#000000" stroke-miterlimit="10" stroke-width="4"/><path d="M309.112,423.504v5.243   c0,10.91,8.38,19.784,18.774,19.784h11.294c10.396,0,18.667-8.873,18.667-19.784v-5.243H309.112z" fill="#E4F3F4" stroke="#000000" stroke-miterlimit="10" stroke-width="4"/><path d="M261.692,423.504v5.243   c0,10.91,8.38,19.784,18.775,19.784h11.294c10.396,0,18.667-8.873,18.667-19.784v-5.243H261.692z" fill="#9EBD2E" stroke="#000000" stroke-miterlimit="10" stroke-width="4"/><path d="M357.849,423.504v5.243   c0,10.91,8.834,19.784,19.493,19.784h11.583c10.658,0,18.979-8.873,18.979-19.784v-5.243H357.849z" fill="#9EBD2E" stroke="#000000" stroke-miterlimit="10" stroke-width="4"/><path d="M407.903,423.504v5.243   c0,10.91,8.377,19.784,18.854,19.784h11.384c10.478,0,18.498-8.873,18.498-19.784v-5.243H407.903z" fill="#E4F3F4" stroke="#000000" stroke-miterlimit="10" stroke-width="4"/><path d="M455.323,423.504v5.243   c0,10.91,9.525,19.784,20.09,19.784h11.475c10.564,0,18.489-8.873,18.489-19.784v-5.243H455.323z" fill="#9EBD2E" stroke="#000000" stroke-miterlimit="10" stroke-width="4"/><path d="M504.06,423.504v5.243   c0,10.91,8.131,19.784,18.764,19.784h11.553c10.636,0,19.738-8.873,19.738-19.784v-5.243H504.06z" fill="#E4F3F4" stroke="#000000" stroke-miterlimit="10" stroke-width="4"/><path d="M552.797,423.504v5.243   c0,10.91,8.816,19.784,19.315,19.784h11.406c10.503,0,19.332-8.873,19.332-19.784v-5.243H552.797z" fill="#9EBD2E" stroke="#000000" stroke-miterlimit="10" stroke-width="4"/><path d="M605.485,423.504v5.243   c0,10.91,8.357,19.784,18.344,19.784h10.846c9.985,0,18.23-8.873,18.23-19.784v-5.243H605.485z" fill="#E4F3F4" stroke="#000000" stroke-miterlimit="10" stroke-width="4"/><path d="M652.905,423.504v5.243   c0,10.91,8.845,19.784,19.758,19.784h11.854c10.911,0,19.759-8.873,19.759-19.784v-5.243H652.905z" fill="#9EBD2E" stroke="#000000" stroke-miterlimit="10" stroke-width="4"/><polygon fill="#B75833" points="772.771,506.489 759.6,630.308    745.11,630.308 746.428,623.721 673.98,623.721 672.663,630.308 660.809,630.308 673.98,506.489  " stroke="#000000" stroke-miterlimit="10" stroke-width="4"/><polygon fill="#E0634F" points="774.089,506.489 787.262,630.308    772.771,630.308 771.455,623.721 699.008,623.721 700.325,630.308 688.47,630.308 675.298,506.489  " stroke="#000000" stroke-miterlimit="10" stroke-width="4"/><polygon fill="#B7B7B7" points="701.259,611.866 771.895,611.866    761.298,518.344 690.665,518.344  " stroke="#000000" stroke-miterlimit="10" stroke-width="4"/><rect fill="#E4F3F4" height="7.903" width="43.468" x="706.911" y="538.103"/><rect fill="#E4F3F4" height="7.902" width="21.075" x="706.911" y="551.274"/><rect fill="#E4F3F4" height="7.902" width="21.075" x="730.621" y="551.274"/><rect fill="#E4F3F4" height="7.902" width="43.468" x="713.497" y="577.618"/><rect fill="#E4F3F4" height="7.902" width="43.469" x="710.862" y="564.446"/><polygon fill="#96CACC" points="487.837,498.388 482.586,497.557 475.74,547.322 439.517,547.322 439.517,552.049 439.517,559.173    439.517,576.302 443.468,576.302 443.468,559.178 476.398,559.178 476.398,576.302 481.667,576.302 481.667,559.173    481.667,552.049 481.667,547.322 481.089,547.322  "/><use height="61.883" id="XMLID_9_" overflow="visible" transform="matrix(1.3172 0 0 -1.3172 477.8242 573.0576)" width="89.244" x="-44.622" xlink:href="#flowerpot_2" y="-30.941"/><g><rect fill="#FFFFFF" height="154.113" stroke="#000000" stroke-miterlimit="10" stroke-width="4" width="10.538" x="127.336" y="461.704"/><rect fill="#B75833" height="64.543" stroke="#000000" stroke-miterlimit="10" stroke-width="4" width="10.538" x="149.729" y="551.274"/><rect fill="#B75833" height="64.543" stroke="#000000" stroke-miterlimit="10" stroke-width="4" width="10.538" x="100.992" y="551.274"/><rect fill="#B75833" height="15.807" stroke="#000000" stroke-miterlimit="10" stroke-width="4" width="127.77" x="68.062" y="538.103"/><g><path d="M74.681,528.882     c0.543,3.951,7.358,9.221,15.708,9.221h12.609c8.349,0,15.164-5.27,15.707-9.221H74.681z" fill="#9EBD2E" stroke="#000000" stroke-miterlimit="10" stroke-width="4"/><path d="M82.551,511.758v7.876     c0,5.148,4.646,9.248,9.879,9.248h7.903c5.233,0,9.879-4.099,9.879-9.248v-7.876H82.551z" fill="#FFFFFF" stroke="#000000" stroke-miterlimit="10" stroke-width="4"/><path d="M81.501,522.002" fill="#FFFFFF"/><line fill="none" stroke="#000000" stroke-miterlimit="10" stroke-width="4" x1="82.551" x2="72.014" y1="515.709" y2="515.709"/></g><g><path d="M184.532,528.882     c-0.542,3.951-7.357,9.221-15.707,9.221h-12.61c-8.348,0-15.163-5.27-15.706-9.221H184.532z" fill="#9EBD2E" stroke="#000000" stroke-miterlimit="10" stroke-width="4"/><path d="M176.073,511.758v7.876     c0,5.148-4.057,9.248-9.29,9.248h-7.903c-5.234,0-10.468-4.099-10.468-9.248v-7.876H176.073z" fill="#FFFFFF" stroke="#000000" stroke-miterlimit="10" stroke-width="4"/><path d="M177.712,522.002" fill="#FFFFFF"/><line fill="none" stroke="#000000" stroke-miterlimit="10" stroke-width="4" x1="176.073" x2="186.611" y1="515.709" y2="515.709"/></g><rect enable-background="new    " height="6.586" opacity="0.4" width="11.855" x="149.729" y="555.226"/><rect enable-background="new    " height="6.587" opacity="0.4" width="11.854" x="126.02" y="463.021"/><rect enable-background="new    " height="6.586" opacity="0.4" width="11.855" x="99.675" y="555.226"/><g><polygon fill="#E9B71E" points="259.67,495.388 251.446,494.235      240.72,572.35 183.977,572.35 183.977,579.157 183.977,582.888 249.097,582.888 249.099,572.558    " stroke="#000000" stroke-miterlimit="10" stroke-width="4"/><rect fill="#E9B71E" height="32.931" stroke="#000000" stroke-miterlimit="10" stroke-width="4" width="10.538" x="186.611" y="582.888"/><rect enable-background="new    " height="6.586" opacity="0.4" width="11.855" x="186.611" y="584.205"/><rect fill="#E9B71E" height="32.931" stroke="#000000" stroke-miterlimit="10" stroke-width="4" width="10.538" x="237.982" y="582.888"/><rect enable-background="new    " height="6.586" opacity="0.4" width="11.855" x="237.982" y="584.205"/></g><g><polygon fill="#E9B71E" points="12.739,495.388 20.964,494.235      31.69,572.35 87.82,572.35 87.82,579.157 87.82,582.888 23.312,582.888 23.31,572.558    " stroke="#000000" stroke-miterlimit="10" stroke-width="4"/><rect fill="#E9B71E" height="32.931" stroke="#000000" stroke-miterlimit="10" stroke-width="4" width="10.538" x="74.648" y="582.888"/><rect enable-background="new    " height="6.586" opacity="0.4" width="11.855" x="73.331" y="584.205"/><rect fill="#E9B71E" height="32.931" stroke="#000000" stroke-miterlimit="10" stroke-width="4" width="10.538" x="23.276" y="582.888"/><rect enable-background="new    " height="6.586" opacity="0.4" width="11.855" x="21.959" y="584.205"/></g><g id="XMLID_10_"><g><path d="M164.988,457.729h-33.694v-69.813v-0.092C149.932,388.259,164.988,419.792,164.988,457.729z" fill="#E4F3F4"/><path d="M164.988,457.729c0-37.938-15.056-69.47-33.694-69.903c0.224-0.014,0.435-0.014,0.659-0.014      c38.607,0,69.917,31.718,69.917,69.917H164.988z" fill="#9EBD2E"/><path d="M131.293,387.916v69.813H96.822c0-37.526,14.713-68.787,33.075-69.879      c0.079-0.014,0.172-0.014,0.25-0.014c0.37-0.013,0.725-0.013,1.094-0.013c0.013-0.013,0.04-0.013,0.053,0L131.293,387.916      L131.293,387.916z" fill="#9EBD2E"/><path d="M131.241,387.824c-0.369,0-0.724,0-1.094,0.013c0.251-0.026,0.501-0.026,0.751-0.026      C131.017,387.811,131.122,387.811,131.241,387.824z" fill="#9EBD2E"/><path d="M129.897,387.85c-18.362,1.094-33.075,32.353-33.075,69.88H62.034      C62.034,420.214,92.225,388.943,129.897,387.85z" fill="#E4F3F4"/></g><g><path d="M129.897,387.85      c-37.672,1.094-67.863,32.364-67.863,69.88h34.788" fill="none" stroke="#000000" stroke-miterlimit="10" stroke-width="4"/><path d="M164.988,457.729h36.882      c0-38.199-31.31-69.917-69.917-69.917c-0.224,0-0.435,0-0.659,0.014" fill="none" stroke="#000000" stroke-miterlimit="10" stroke-width="4"/><path d="M131.241,387.824      c-0.119-0.014-0.224-0.014-0.342-0.014c-0.25,0-0.5,0-0.751,0.026c-0.078,0-0.171,0-0.25,0.013      c-18.362,1.094-33.075,32.353-33.075,69.881h34.472h33.694c0-37.938-15.056-69.472-33.694-69.905" fill="none" stroke="#000000" stroke-miterlimit="10" stroke-width="4"/><line fill="none" stroke="#000000" stroke-miterlimit="10" stroke-width="4" x1="131.293" x2="131.293" y1="387.916" y2="457.729"/></g></g></g><line fill="none" stroke="#000000" stroke-miterlimit="10" stroke-width="4" x1="580.459" x2="580.459" y1="501.22" y2="519.661"/><rect fill="#E4F3F4" height="63.226" stroke="#000000" stroke-miterlimit="10" stroke-width="4" width="10.538" x="228.762" y="244.363"/><rect fill="#E4F3F4" height="63.226" stroke="#000000" stroke-miterlimit="10" stroke-width="4" width="10.537" x="673.98" y="244.363"/><rect fill="#E4F3F4" height="10.538" stroke="#000000" stroke-miterlimit="10" stroke-width="4" width="455.755" x="228.762" y="225.922"/><circle cx="234.546" cy="235.454" fill="#E4F3F4" r="11.753" stroke="#000000" stroke-miterlimit="10" stroke-width="4"/><circle cx="678.447" cy="235.454" fill="#E4F3F4" r="11.755" stroke="#000000" stroke-miterlimit="10" stroke-width="4"/><rect fill="#B7B7B7" height="19.758" stroke="#000000" stroke-miterlimit="10" stroke-width="4" width="54.006" x="584.41" y="469.607"/><polyline fill="none" points="598.02,469.581 610.096,452.457    623.689,470.518  " stroke="#000000" stroke-miterlimit="10" stroke-width="4"/><text fill="#FFFFFF" font-family="'RobotoSlab-Bold'" font-size="10.5377" transform="matrix(1 0 0 1 595.9082 484.3623)"/></g></svg>