<?xml version="1.0" encoding="utf-8"?>
<!-- Generator: Adobe Illustrator 16.0.0, SVG Export Plug-In . SVG Version: 6.00 Build 0)  -->
<!DOCTYPE svg PUBLIC "-//W3C//DTD SVG 1.1//EN" "http://www.w3.org/Graphics/SVG/1.1/DTD/svg11.dtd">
<svg version="1.1" id="Layer_1" xmlns="http://www.w3.org/2000/svg" xmlns:xlink="http://www.w3.org/1999/xlink" x="0px" y="0px"
	 width="18.969px" height="17.311px" viewBox="16.016 20.504 18.969 17.311" enable-background="new 16.016 20.504 18.969 17.311"
	 xml:space="preserve">
<path fill="#FFFFFF" d="M286,317.426h90c2.762,0,5,2.238,5,5v90c0,2.764-2.238,5-5,5h-90c-2.762,0-5-2.236-5-5v-90
	C281,319.665,283.238,317.426,286,317.426z"/>
<g transform="translate(50 50) scale(0.69 0.69) rotate(0) translate(-50 -50)">
	<title>tool-9 copy 4</title>
	<desc>Created with Sketch.</desc>
</g>
<path fill="#4D4D4D" d="M31.729,21.975H30.34v-1.394v-0.077H28.7v1.471h-6.808v-1.471h-1.641v1.471h-0.977
	c-1.801,0-3.26,1.459-3.26,3.258v9.322c0,1.801,1.459,3.26,3.26,3.26h12.451c1.801,0,3.258-1.459,3.258-3.26v-9.322
	C34.986,23.434,33.527,21.975,31.729,21.975z M21.852,33.916h-2.641v-2.64h2.641V33.916z M21.852,28.557h-2.641v-2.64h2.641V28.557z
	 M26.822,33.916h-2.641v-2.64h2.641V33.916z M26.822,28.557h-2.641v-2.64h2.641V28.557z M31.793,33.916h-2.641v-2.64h2.641V33.916z
	 M31.793,28.557h-2.641v-2.64h2.641V28.557z"/>
</svg>
