<?xml version="1.0" encoding="utf-8"?>
<!-- Generator: Adobe Illustrator 16.0.0, SVG Export Plug-In . SVG Version: 6.00 Build 0)  -->
<!DOCTYPE svg PUBLIC "-//W3C//DTD SVG 1.1//EN" "http://www.w3.org/Graphics/SVG/1.1/DTD/svg11.dtd">
<svg version="1.1" id="Layer_1" xmlns="http://www.w3.org/2000/svg" xmlns:xlink="http://www.w3.org/1999/xlink" x="0px" y="0px"
	 width="100px" height="55.243px" viewBox="0 22.92 100 55.243" enable-background="new 0 22.92 100 55.243" xml:space="preserve">
<g>
	<g enable-background="new    ">
		<g>
			<path fill="#2B8FF1" d="M89.477,35.36l-13.561,6.224c-1.027,0.463-1.768,1.578-1.768,2.693v15.605
				c0,1.115,0.646,2.229,1.768,2.696l13.561,6.219c1.948,0.931,4.181-0.553,4.181-2.688V38.055
				C93.657,35.92,91.424,34.526,89.477,35.36z"/>
			<path fill="#2B8FF1" d="M61.332,27H11.629c-3.437,0-6.224,2.786-6.224,6.225v37.713c0,3.438,2.788,6.226,6.224,6.226h49.703
				c3.435,0,6.223-2.788,6.223-6.226V33.225C67.646,29.786,64.767,27,61.332,27z M45.628,53.753L31.882,62.95
				c-1.394,0.931-3.16-0.095-3.16-1.67V42.886c0-1.674,1.857-2.603,3.16-1.674l13.746,9.196
				C46.837,51.153,46.837,53.01,45.628,53.753z"/>
		</g>
	</g>
</g>
</svg>
