<?xml version="1.0" encoding="utf-8"?>
<!-- Generator: Adobe Illustrator 16.0.0, SVG Export Plug-In . SVG Version: 6.00 Build 0)  -->
<!DOCTYPE svg PUBLIC "-//W3C//DTD SVG 1.1//EN" "http://www.w3.org/Graphics/SVG/1.1/DTD/svg11.dtd">
<svg version="1.1" id="Layer_1" xmlns="http://www.w3.org/2000/svg" xmlns:xlink="http://www.w3.org/1999/xlink" x="0px" y="0px"
	 width="29.341px" height="14.542px" viewBox="41.284 46.792 29.341 14.542" enable-background="new 41.284 46.792 29.341 14.542"
	 xml:space="preserve">
<g transform="translate(50 50) scale(0.69 0.69) rotate(0) translate(-50 -50)">
	<g>
		<g>
			<path fill="#63B0F7" d="M49.35,55.058H48.12c-0.706,0-1.278,0.572-1.278,1.279v2.504h3.784v-2.504
				C50.626,55.63,50.053,55.058,49.35,55.058z"/>
			<path fill="#63B0F7" d="M52.543,48.536h-7.62c-1.209,0-2.192,0.981-2.192,2.185v7.626c0,1.207,0.983,2.189,2.192,2.189h7.62
				c1.21,0,2.191-0.982,2.191-2.189v-7.626C54.734,49.517,53.753,48.536,52.543,48.536z M48.734,49.693
				c1.106,0,2.005,0.897,2.005,2.001c0,1.105-0.899,2.005-2.005,2.005c-1.105,0-2.003-0.9-2.003-2.005
				C46.731,50.59,47.629,49.693,48.734,49.693z M51.165,59.113c0,0.147-0.12,0.267-0.269,0.267h-4.323
				c-0.149,0-0.27-0.12-0.27-0.267v-2.775c0-1.002,0.815-1.82,1.817-1.82h1.229c1,0,1.815,0.818,1.815,1.82V59.113L51.165,59.113z"
				/>
			<path fill="#63B0F7" d="M48.734,53.16c0.808,0,1.466-0.658,1.466-1.466c0-0.805-0.657-1.461-1.466-1.461
				c-0.807,0-1.464,0.655-1.464,1.461C47.27,52.502,47.927,53.16,48.734,53.16z"/>
			<path fill="#63B0F7" d="M67.724,45.351h-25.55c-1.71,0-3.102,1.391-3.102,3.1v12.17c0,1.708,1.391,3.101,3.102,3.101h25.55
				c1.71,0,3.102-1.393,3.102-3.101v-12.17C70.826,46.743,69.434,45.351,67.724,45.351z M55.273,58.347
				c0,1.506-1.224,2.73-2.73,2.73h-7.62c-1.506,0-2.732-1.224-2.732-2.73v-7.626c0-1.501,1.226-2.726,2.732-2.726h7.62
				c1.506,0,2.73,1.225,2.73,2.726V58.347z M67.732,58.243h-10.78c-0.15,0-0.27-0.122-0.27-0.272c0-0.149,0.12-0.267,0.27-0.267
				h10.78c0.15,0,0.27,0.119,0.27,0.267C68.003,58.121,67.882,58.243,67.732,58.243z M67.732,54.744h-7.528
				c-0.149,0-0.269-0.119-0.269-0.269c0-0.149,0.12-0.27,0.269-0.27h7.528c0.15,0,0.27,0.122,0.27,0.27
				C68.003,54.625,67.882,54.744,67.732,54.744z M67.732,51.247h-10.78c-0.15,0-0.27-0.122-0.27-0.27c0-0.149,0.12-0.268,0.27-0.268
				h10.78c0.15,0,0.27,0.12,0.27,0.268C68.003,51.125,67.882,51.247,67.732,51.247z"/>
		</g>
	</g>
</g>
</svg>
