<?xml version="1.0" encoding="utf-8"?>
<!-- Generator: Adobe Illustrator 16.0.0, SVG Export Plug-In . SVG Version: 6.00 Build 0)  -->
<!DOCTYPE svg PUBLIC "-//W3C//DTD SVG 1.1//EN" "http://www.w3.org/Graphics/SVG/1.1/DTD/svg11.dtd">
<svg version="1.1" id="Layer_1" xmlns="http://www.w3.org/2000/svg" xmlns:xlink="http://www.w3.org/1999/xlink" x="0px" y="0px"
	 width="288px" height="288px" viewBox="0 0 288 288" enable-background="new 0 0 288 288" xml:space="preserve">
<g>
	<g>
		<g>
			<g>
				<g>
					<defs>
						<rect id="SVGID_1_" x="14.5" y="14.5" width="259" height="259"/>
					</defs>
					<clipPath id="SVGID_2_">
						<use xlink:href="#SVGID_1_"  overflow="visible"/>
					</clipPath>
					<path clip-path="url(#SVGID_2_)" fill="#C2C2C0" d="M104.597,60.784c0.005-0.105,0.45-9.005,5.538-16.21
						c0.059-0.127,9.243-17.926,33.735-17.926c1.642,0,39.118,0.45,39.721,39.373l0.142,51.755h-8.961l-0.207-52.057
						c-0.021-0.275-2.461-30.146-31.368-30.146c-0.254,0.005-26.264,0.874-29.542,23.485l-0.133,58.628l-8.962,0.126L104.597,60.784
						z"/>
				</g>
			</g>
		</g>
	</g>
	<g>
		<g>
			<g>
				<g>
					<defs>
						<rect id="SVGID_3_" x="14.5" y="14.5" width="259" height="259"/>
					</defs>
					<clipPath id="SVGID_4_">
						<use xlink:href="#SVGID_3_"  overflow="visible"/>
					</clipPath>
					<path clip-path="url(#SVGID_4_)" fill="#4285F4" d="M101.087,60.784c0.022-0.571,0.497-10.027,6.024-18.021
						c1.382-2.547,11.573-19.626,36.758-19.626c1.783,0,42.582,0.487,43.232,42.83l0.15,55.319h-15.979l-0.219-55.552
						c-0.074-0.831-2.311-26.651-27.861-26.651c-0.847,0.027-23.024,0.863-26.026,20.213l-0.143,61.852l-15.983,0.228
						L101.087,60.784z"/>
				</g>
			</g>
		</g>
	</g>
	<g>
		<g>
			<g>
				<g>
					<defs>
						<rect id="SVGID_5_" x="14.5" y="14.5" width="259" height="259"/>
					</defs>
					<clipPath id="SVGID_6_">
						<use xlink:href="#SVGID_5_"  overflow="visible"/>
					</clipPath>
					<path clip-path="url(#SVGID_6_)" fill="#4285F4" d="M104.954,117.418l0.036-56.632c0,0,0.386-8.792,5.462-15.982
						c0,0,8.883-17.765,33.416-17.765c0,0,38.722-0.406,39.333,38.987l0.141,51.36h-8.184l-0.203-51.666
						c0,0-2.139-30.538-31.76-30.538c0,0-26.568,0.611-29.927,23.819l-0.141,58.296L104.954,117.418z"/>
				</g>
			</g>
		</g>
	</g>
	<g>
		<g>
			<g>
				<g>
					<defs>
						<rect id="SVGID_7_" x="14.5" y="14.5" width="259" height="259"/>
					</defs>
					<clipPath id="SVGID_8_">
						<use xlink:href="#SVGID_7_"  overflow="visible"/>
					</clipPath>
					<path clip-path="url(#SVGID_8_)" fill="#C2C2C0" d="M109.293,131.309c-4.675,0-8.477-3.807-8.477-8.481
						c0-4.675,3.802-8.476,8.477-8.476c4.674,0,8.481,3.801,8.481,8.476C117.773,127.501,113.967,131.309,109.293,131.309"/>
				</g>
			</g>
		</g>
	</g>
	<g>
		<g>
			<g>
				<g>
					<defs>
						<rect id="SVGID_9_" x="14.5" y="14.5" width="259" height="259"/>
					</defs>
					<clipPath id="SVGID_10_">
						<use xlink:href="#SVGID_9_"  overflow="visible"/>
					</clipPath>
					<path clip-path="url(#SVGID_10_)" fill="#4285F4" d="M109.293,134.819c-6.613,0-11.986-5.378-11.986-11.991
						c0-6.613,5.374-11.986,11.986-11.986s11.991,5.373,11.991,11.986C121.284,129.441,115.905,134.819,109.293,134.819"/>
				</g>
			</g>
		</g>
	</g>
	<g>
		<g>
			<g>
				<g>
					<defs>
						<rect id="SVGID_11_" x="14.5" y="14.5" width="259" height="259"/>
					</defs>
					<clipPath id="SVGID_12_">
						<use xlink:href="#SVGID_11_"  overflow="visible"/>
					</clipPath>
					<path clip-path="url(#SVGID_12_)" fill="#4285F4" d="M117.38,122.829c0,4.466-3.621,8.086-8.086,8.086
						c-4.467,0-8.087-3.621-8.087-8.086s3.621-8.087,8.087-8.087S117.38,118.363,117.38,122.829"/>
				</g>
			</g>
		</g>
	</g>
	<g>
		<g>
			<g>
				<g>
					<defs>
						<rect id="SVGID_13_" x="14.5" y="14.5" width="259" height="259"/>
					</defs>
					<clipPath id="SVGID_14_">
						<use xlink:href="#SVGID_13_"  overflow="visible"/>
					</clipPath>
					<path clip-path="url(#SVGID_14_)" fill="#C2C2C0" d="M179.377,131.579c-4.674,0-8.477-3.807-8.477-8.481
						c0-4.674,3.803-8.476,8.477-8.476c4.675,0,8.48,3.801,8.48,8.476C187.857,127.772,184.052,131.579,179.377,131.579"/>
				</g>
			</g>
		</g>
	</g>
	<g>
		<g>
			<g>
				<g>
					<defs>
						<rect id="SVGID_15_" x="14.5" y="14.5" width="259" height="259"/>
					</defs>
					<clipPath id="SVGID_16_">
						<use xlink:href="#SVGID_15_"  overflow="visible"/>
					</clipPath>
					<path clip-path="url(#SVGID_16_)" fill="#4285F4" d="M179.377,135.088c-6.613,0-11.986-5.378-11.986-11.991
						c0-6.612,5.375-11.985,11.986-11.985c6.613,0,11.991,5.373,11.991,11.985C191.368,129.71,185.99,135.088,179.377,135.088"/>
				</g>
			</g>
		</g>
	</g>
	<g>
		<g>
			<g>
				<g>
					<defs>
						<rect id="SVGID_17_" x="14.5" y="14.5" width="259" height="259"/>
					</defs>
					<clipPath id="SVGID_18_">
						<use xlink:href="#SVGID_17_"  overflow="visible"/>
					</clipPath>
					<path clip-path="url(#SVGID_18_)" fill="#4285F4" d="M187.466,123.098c0,4.466-3.618,8.087-8.086,8.087
						c-4.467,0-8.086-3.621-8.086-8.087c0-4.466,3.619-8.086,8.086-8.086C183.848,115.012,187.466,118.632,187.466,123.098"/>
				</g>
			</g>
		</g>
	</g>
	<g>
		<g>
			<g>
				<g>
					<defs>
						<rect id="SVGID_19_" x="14.5" y="14.5" width="259" height="259"/>
					</defs>
					<clipPath id="SVGID_20_">
						<use xlink:href="#SVGID_19_"  overflow="visible"/>
					</clipPath>
					<path clip-path="url(#SVGID_20_)" fill="#4285F4" d="M94.958,90.75l-16.017-0.422c0,0-8.431,1.265-10.117,19.39L44.376,246.293
						c0,0-3.794,17.703,10.116,20.232l170.004-0.844c0,0,18.969,0.844,16.859-17.283l-22.469-147.957c0,0-0.847-8.853-13.068-10.538
						l-10.647,0.499l-0.313,17.627c0,0,9.685,13.578,0.168,27.229c-2.569,3.691-8.371,6.512-15.764,6.914
						c0,0-9.517-0.165-14.807-6.695c-4.52-5.577-8.426-17.611,0.054-28.713l0.31-16.499h-40.22l0.29,16.499
						c0,0,11.88,14.297,3.033,25.822c-2.434,3.17-6.549,6.955-12.682,8.525c0,0-9.02,1.584-16.336-2.173
						c-4.806-2.468-9.342-7.875-9.64-16.919c0,0-0.287-8.221,5.697-15.255L94.958,90.75L94.958,90.75z"/>
				</g>
			</g>
		</g>
	</g>
</g>
<g transform="translate(50 50) scale(0.69 0.69) rotate(0) translate(-50 -50)" display="none">
	<g display="inline">
		<g>
			<path fill="#331CBF" d="M53.588,363.005c-1.819,0-3.557-0.76-4.789-2.106c-1.23-1.343-1.836-3.149-1.677-4.959l21.886-241.611
				c0.3-3.343,3.099-5.903,6.455-5.903l215.332-0.062l0,0c3.326,0,6.117,2.511,6.455,5.822l24.707,240.955
				c0.184,1.82-0.409,3.64-1.628,4.997c-1.223,1.364-2.975,2.144-4.813,2.156l-261.91,0.71
				C53.601,363.005,53.588,363.005,53.588,363.005z M81.39,121.402L60.691,350.011l247.624-0.685l-23.381-227.979L81.39,121.402z"/>
		</g>
	</g>
	<g display="inline">
		<g>
			<path fill="#331CBF" d="M231.533,149.044c-3.579,0-6.482-2.901-6.482-6.483V71.664c0-25.959-19.53-47.066-43.536-47.066
				c-24.004,0-43.529,21.114-43.529,47.066v70.897c0,3.581-2.904,6.483-6.493,6.483c-3.589,0-6.49-2.901-6.49-6.483V71.664
				c0-33.111,25.353-60.044,56.511-60.044c31.163,0,56.51,26.933,56.51,60.044v70.897
				C238.025,146.136,235.122,149.044,231.533,149.044z"/>
		</g>
	</g>
	<g display="inline">
		<g>
			<path fill="#331CBF" d="M131.501,149.285c-9.657,0-17.214-4.961-17.214-11.293c0-1.195,0.969-2.17,2.16-2.17
				c1.195,0,2.163,0.974,2.163,2.17c0,3.293,5.298,6.968,12.89,6.968c7.595,0,12.891-3.674,12.891-6.968
				c0-1.195,0.967-2.17,2.162-2.17c1.193,0,2.16,0.974,2.16,2.17C148.715,144.324,141.159,149.285,131.501,149.285z"/>
		</g>
	</g>
	<g display="inline">
		<g>
			<path fill="#331CBF" d="M231.533,149.285c-9.648,0-17.213-4.961-17.213-11.293c0-1.195,0.971-2.17,2.161-2.17
				c1.202,0,2.171,0.974,2.171,2.17c0,3.293,5.289,6.968,12.881,6.968c7.596,0,12.896-3.674,12.896-6.968
				c0-1.195,0.968-2.17,2.164-2.17c1.193,0,2.163,0.974,2.163,2.17C248.756,144.324,241.198,149.285,231.533,149.285z"/>
		</g>
	</g>
</g>
</svg>
