<?xml version="1.0" encoding="utf-8"?>
<!-- Generator: Adobe Illustrator 16.0.0, SVG Export Plug-In . SVG Version: 6.00 Build 0)  -->
<!DOCTYPE svg PUBLIC "-//W3C//DTD SVG 1.1//EN" "http://www.w3.org/Graphics/SVG/1.1/DTD/svg11.dtd">
<svg version="1.1" id="Layer_1" xmlns="http://www.w3.org/2000/svg" xmlns:xlink="http://www.w3.org/1999/xlink" x="0px" y="0px"
	 width="30.179px" height="17.085px" viewBox="0 0 30.179 17.085" enable-background="new 0 0 30.179 17.085" xml:space="preserve">
<path fill="#A8AAAD" d="M25.25,0.271c-0.205-0.212-0.547-0.212-0.76,0c-0.205,0.205-0.205,0.547,0,0.752l3.855,3.856H15.621
	C15.326,4.88,15.09,5.115,15.09,5.413c0,0.295,0.236,0.54,0.531,0.54h12.725L24.49,9.8c-0.205,0.213-0.205,0.556,0,0.761
	c0.213,0.213,0.555,0.213,0.76,0l4.77-4.768c0.213-0.206,0.213-0.549,0-0.753L25.25,0.271z"/>
<path fill="#A8AAAD" d="M4.928,16.926c0.205,0.212,0.547,0.212,0.76,0c0.206-0.205,0.206-0.548,0-0.753l-3.856-3.855h12.725
	c0.297-0.002,0.531-0.236,0.531-0.533c0-0.296-0.234-0.541-0.531-0.541H1.832l3.856-3.847c0.206-0.213,0.206-0.556,0-0.761
	c-0.212-0.214-0.556-0.214-0.76,0l-4.769,4.767c-0.212,0.206-0.212,0.55,0,0.754L4.928,16.926z"/>
</svg>
