<?xml version="1.0" encoding="utf-8"?>
<!-- Generator: Adobe Illustrator 16.0.0, SVG Export Plug-In . SVG Version: 6.00 Build 0)  -->
<!DOCTYPE svg PUBLIC "-//W3C//DTD SVG 1.1//EN" "http://www.w3.org/Graphics/SVG/1.1/DTD/svg11.dtd">
<svg version="1.1"
	 id="Layer_1" xmlns:dc="http://purl.org/dc/elements/1.1/" xmlns:svg="http://www.w3.org/2000/svg" xmlns:inkscape="http://www.inkscape.org/namespaces/inkscape" xmlns:rdf="http://www.w3.org/1999/02/22-rdf-syntax-ns#" xmlns:cc="http://creativecommons.org/ns#" xmlns:sodipodi="http://sodipodi.sourceforge.net/DTD/sodipodi-0.dtd"
	 xmlns="http://www.w3.org/2000/svg" xmlns:xlink="http://www.w3.org/1999/xlink" x="0px" y="0px" width="18.91px" height="13.9px"
	 viewBox="6.39 12.667 18.91 13.9" enable-background="new 6.39 12.667 18.91 13.9" xml:space="preserve">
<path fill="#FFFFFF" d="M276.265,318.266h90c2.763,0,5,2.237,5,5v89.999c0,2.763-2.237,5-5,5h-90c-2.762,0-5-2.237-5-5v-89.999
	C271.265,320.503,273.503,318.266,276.265,318.266z"/>
<g transform="translate(50 50) scale(0.69 0.69) rotate(0) translate(-50 -50)">
	<g transform="translate(0,-952.36218)">
		<path fill="#03AD27" d="M12.57,950.953c-0.41,0.012-0.8,0.182-1.088,0.477l-11.696,11.695l-5.862-4.535
			c-0.693-0.535-1.688-0.409-2.225,0.282c-0.536,0.692-0.409,1.688,0.282,2.223l6.971,5.388c0.631,0.488,1.526,0.433,2.089-0.127
			l12.678-12.678c0.63-0.609,0.648-1.611,0.04-2.24C13.447,951.116,13.017,950.94,12.57,950.953L12.57,950.953z"/>
	</g>
</g>
</svg>
