<?xml version="1.0" encoding="utf-8"?>
<!-- Generator: Adobe Illustrator 16.0.0, SVG Export Plug-In . SVG Version: 6.00 Build 0)  -->
<!DOCTYPE svg PUBLIC "-//W3C//DTD SVG 1.1//EN" "http://www.w3.org/Graphics/SVG/1.1/DTD/svg11.dtd">
<svg version="1.1" id="layer_1" xmlns="http://www.w3.org/2000/svg" xmlns:xlink="http://www.w3.org/1999/xlink" x="0px" y="0px"
	 width="869.957px" height="490.475px" viewBox="0 0 869.957 490.475" enable-background="new 0 0 869.957 490.475"
	 xml:space="preserve">
<g>
	<defs>
		<polyline id="SVGID_1_" points="-128.957,-83.604 -128.957,626.396 908.735,626.396 908.735,-83.604 		"/>
	</defs>
	<clipPath id="SVGID_2_">
		<use xlink:href="#SVGID_1_"  overflow="visible"/>
	</clipPath>
	<g display="none" clip-path="url(#SVGID_2_)">
		<defs>
			<polyline id="SVGID_3_" points="-128.957,-83.604 -128.957,626.396 908.735,626.396 908.735,-83.604 			"/>
		</defs>
		<use xlink:href="#SVGID_3_"  display="inline" overflow="visible" fill="#D8E6EF"/>
		<clipPath id="SVGID_4_" display="inline">
			<use xlink:href="#SVGID_3_"  overflow="visible"/>
		</clipPath>
	</g>
	<g clip-path="url(#SVGID_2_)">
		<path fill="#FFFFFF" d="M849.75,572.105"/>
		<path fill="#FFFFFF" d="M-69.972,572.105"/>
		<g opacity="0.4">
			<g>
				<g>
					<g>
						<path fill="#272063" d="M47.203,373.226c-1.642,0.33-3.046,0.768-3.792,1.491c-0.93,0.904-2.857,1.972-3.063,2.639
							c-0.359,1.163,0.404,2.224,0.404,2.224c0.082,1.09,0.439,1.389,0.439,1.389l3.757,1.037c0,0,0.452-1.238,0.865-2.063
							c0.795-1.596,5.918-3.851,5.462-5.73C51.046,373.264,48.845,372.897,47.203,373.226z"/>
						<path fill="#FCD2C5" d="M40.753,379.58c0.081,1.09,0.181,1.817,0.181,1.817l4.171,0.778c0,0,0.125-0.973,0.709-2.233
							c0,0-0.951-0.992-2.372-1.378C42.639,378.346,40.753,379.58,40.753,379.58z"/>
						<path fill="#272063" d="M90.166,370.95c-1.674-0.068-3.049,0.23-4.037,0.555c-0.986,0.322-3.241,1.241-3.599,1.843
							c-0.623,1.044-0.132,2.256-0.132,2.256c-0.176,1.077,0.101,1.452,0.101,1.452l3.407,1.893c0,0,0.73-1.095,1.327-1.801
							c1.149-1.361,6.659-2.347,6.659-4.279C93.892,371.892,91.839,371.016,90.166,370.95z"/>
						<path fill="#FCD2C5" d="M85.252,375.249c-0.729-0.401-2.854,0.354-2.854,0.354c-0.178,1.077-0.252,1.809-0.252,1.809
							l3.87,1.741c0,0,0.351-0.918,1.217-2.006C87.233,377.147,86.542,375.958,85.252,375.249z"/>
					</g>
					<g>
						<path fill="#272063" d="M200.278,371.756c-1.674-0.066-3.049,0.232-4.037,0.557c-0.986,0.322-3.241,1.239-3.599,1.841
							c-0.623,1.046-0.131,2.258-0.131,2.258c-0.177,1.077,0.1,1.45,0.1,1.45l3.407,1.895c0,0,0.73-1.095,1.326-1.801
							c1.149-1.363,6.66-2.349,6.66-4.279C204.004,372.699,201.952,371.822,200.278,371.756z"/>
						<path fill="#FCD2C5" d="M195.365,376.057c-0.73-0.401-2.854,0.354-2.854,0.354c-0.178,1.077-0.084,2.635-0.084,2.635
							l4.574,0.818c0,0-0.521-0.821,0.343-1.909C197.345,377.956,196.655,376.767,195.365,376.057z"/>
						<path fill="#272063" d="M173.986,370.935c-1.674,0.063-3.129,0.272-3.98,0.87c-1.062,0.742-3.134,1.491-3.443,2.118
							c-0.54,1.091,0.046,2.26,0.046,2.26c-0.092,1.088,0.213,1.438,0.213,1.438l3.545,1.624c0,0,0.643-1.15,1.182-1.901
							c1.039-1.448,6.455-2.863,6.303-4.789C177.774,371.583,175.66,370.869,173.986,370.935z"/>
						<path fill="#FCD2C5" d="M169.425,375.607c-0.758-0.344-2.817,0.576-2.817,0.576c-0.093,1.088-0.04,2.716-0.04,2.716
							l4.525,0.49c0,0-0.323-0.894,0.454-2.046C171.547,377.343,170.766,376.212,169.425,375.607z"/>
					</g>
					<g>
						<path fill="#EDF5F8" d="M768.799,610.91c3.127,0,5.9-1.588,7.683-3.771h-15.365
							C762.897,609.322,765.672,610.91,768.799,610.91z"/>
						<path fill="#EDF5F8" d="M615.876,610.169c2.659,0,4.461,4.454,6.813,5.188c8.202,2.556,8.985,6.097,17.892,6.097
							c4.72,0,7.899-5.216,12.246-4.733c7.378,0.817,11.299,10.087,19.285,10.087c8.64,0,12.254-10.814,20.275-11.547
							c5.065-0.46,8.243,6.366,13.731,6.366c7.109,0,9.772-8.31,16.252-9.826c2.965-0.693,5.462,3.279,8.743,3.279
							c5.964,0,11.087-3.573,13.372-7.942H608.194C609.974,609.322,612.75,610.169,615.876,610.169z"/>
					</g>
					<g>
						<path fill="#EDF5F8" d="M208.445,658.971c3.126,0,5.902-1.587,7.682-3.772h-15.364
							C202.543,657.384,205.318,658.971,208.445,658.971z"/>
						<path fill="#EDF5F8" d="M246.129,663.142c3.281,0,5.777-3.973,8.743-3.279c6.478,1.517,9.142,9.826,16.252,9.826
							c5.488,0,8.666-6.826,13.731-6.365c8.021,0.731,11.636,11.546,20.274,11.546c7.986,0,11.909-9.271,19.286-10.087
							c4.348-0.482,7.526,4.733,12.248,4.733c8.905,0,6.819-4.505,17.89-6.097c6.482-0.933,4.154-5.188,6.815-5.188
							c3.126,0,5.901-0.847,7.682-3.032H232.757C235.042,659.569,240.165,663.142,246.129,663.142z"/>
					</g>
					<g>
						<g id="XMLID_49_">
							<g id="XMLID_50_">
								<g>
									<polygon fill="#AFC4D5" points="636.649,375.24 636.649,379.202 663.066,383.515 723.987,379.202 723.987,375.24 
										663.066,379.553 									"/>
								</g>
								<g id="XMLID_53_">
									<circle fill="#FFFFFF" cx="724.103" cy="377.604" r="6.674"/>
								</g>
								<g id="XMLID_51_">
									<circle fill="#FFFFFF" cx="636.65" cy="377.604" r="6.674"/>
								</g>
							</g>
						</g>
						<g id="XMLID_42_">
							<circle fill="#EDF5F8" cx="759.47" cy="424.393" r="14.688"/>
						</g>
						<g>
							<g>
								<path fill="#FFFFFF" d="M760.881,415.969c-0.354-0.495-1.103-0.621-1.603-0.27c-0.515,0.369-0.636,1.089-0.268,1.604
									l3.009,4.214c0.239,0.333,0.271,0.771,0.083,1.135c-0.188,0.362-0.562,0.591-0.971,0.591h-8.152
									c-0.633,0-1.147,0.517-1.147,1.15c0,0.631,0.515,1.147,1.147,1.147h8.707c0.424,0,0.812,0.247,0.99,0.634
									c0.18,0.386,0.116,0.841-0.157,1.165l-3.45,4.065c-0.409,0.482-0.35,1.21,0.134,1.62c0.233,0.198,0.531,0.292,0.836,0.269
									l6.798-7.495c0.34-0.4,0.365-0.981,0.058-1.41L760.881,415.969z"/>
							</g>
						</g>
					</g>
					<g>
						<g id="XMLID_29_">
							<g id="XMLID_41_">
								<path fill="#FFDD00" d="M351.9,629.332h3.862"/>
							</g>
							<g id="XMLID_40_">
								<line fill="#FF8382" x1="355.763" y1="629.332" x2="378.297" y2="629.332"/>
							</g>
							<g id="XMLID_39_">
								<line fill="#FFDD00" x1="378.297" y1="629.332" x2="400.833" y2="629.332"/>
							</g>
							<g id="XMLID_38_">
								<line fill="#FF8382" x1="400.833" y1="629.332" x2="423.367" y2="629.332"/>
							</g>
							<g id="XMLID_37_">
								<line fill="#FFDD00" x1="423.367" y1="629.332" x2="445.901" y2="629.332"/>
							</g>
							<g id="XMLID_36_">
								<path fill="#FF8382" d="M445.901,629.332h3.862"/>
							</g>
						</g>
						<line fill-rule="evenodd" clip-rule="evenodd" fill="#AFC4D5" x1="364.751" y1="630.424" x2="436.899" y2="630.424"/>
						<path fill-rule="evenodd" clip-rule="evenodd" fill="#272063" d="M398.76,627.162c0,1.142,0.922,2.067,2.066,2.067
							c1.141,0,2.064-0.926,2.064-2.067"/>
					</g>
					<g>
						<path fill="#FFBB00" d="M482.98,373.39c-1.657-0.239-3.127-0.299-4.073,0.135c-1.179,0.539-3.577,3.072-3.996,3.633
							c-0.727,0.975-0.73,3.678-0.73,3.678c0.966,2.3,4.099,1.56,4.099,1.56s0.25-0.33,0.917-0.971
							c1.282-1.235,7.093-3.818,7.292-5.74C486.589,374.715,484.637,373.629,482.98,373.39z"/>
						<path fill="#FFBB00" d="M482.675,373.356c-1.395-0.202-2.633-0.252-3.428,0.113c-0.994,0.454-3.021,2.581-3.367,3.06
							c-1.889,2.615,0.9,4.565,2.521,3.435c1.673-1.165,7.059-3.058,7.228-4.677C485.714,374.47,484.072,373.556,482.675,373.356z"
							/>
						<path fill="#FFBB00" d="M444.04,371.504c-0.896-0.529-2.363-0.623-4.038-0.555c-1.673,0.066-3.726,0.942-3.726,1.918
							c0,1.933,5.511,5.103,6.66,6.464c0.596,0.706,0.813,1.061,0.813,1.061s3.036,1.061,4.236-1.127c0,0,0.276-2.689-0.347-3.733
							C447.28,374.93,445.155,372.164,444.04,371.504z"/>
						<path fill="#FFBB00" d="M443.708,371.415c-0.753-0.445-1.989-0.524-3.399-0.47c-1.408,0.059-3.138,0.794-3.138,1.617
							c0,1.626,5.162,4.066,6.705,5.398c1.496,1.292,4.471-0.359,2.862-3.156C446.446,374.294,444.649,371.967,443.708,371.415z"/>
					</g>
					<g>
						<path fill="#FEBB00" d="M586.708,370.939c-1.674-0.066-3.049,0.232-4.037,0.557c-0.986,0.322-3.241,1.239-3.6,1.842
							c-0.623,1.045-0.132,2.257-0.132,2.257c-0.177,1.077,0.101,1.45,0.101,1.45l3.408,1.895c0,0,0.729-1.094,1.325-1.801
							c1.15-1.363,6.659-2.349,6.659-4.279C590.432,371.882,588.379,371.005,586.708,370.939z"/>
						<path fill="#FCD2C5" d="M581.792,375.24c-0.729-0.401-2.854,0.354-2.854,0.354c-0.178,1.077-0.251,1.807-0.251,1.807
							l3.87,1.741c0,0,0.35-0.915,1.215-2.004C583.773,377.138,583.083,375.951,581.792,375.24z"/>
					</g>
				</g>
			</g>
		</g>
		<g>
			<path fill="#D3E1EA" d="M709.079,213.866c-13.33,6.697-26.087,60.451-43.63,60.451c-62.014,0-80.036-224.714-166.329-194.751
				c-44.748,15.538-76.748,138.7-131.012,174.524c-56.539,37.329-127.51-64.563-168.28-64.563
				c-42.939,0-46.861,114.479-80.797,123.106c-16.588,4.218-34.919-22.063-50.705-15.209c-16.868,7.324-24.224,27.417-33.391,44.121
				c-9.167,16.707-28.445,28.563-41.565,29.654h799.432C731.782,330.784,751.989,192.313,709.079,213.866z"/>
			<g>
				<g>
					<path fill-rule="evenodd" clip-rule="evenodd" fill="#FF4745" d="M291.787,303.658H258.39c-6.441,0-11.664,5.223-11.664,11.663
						c0,6.443,5.222,11.665,11.664,11.665h33.397c6.442,0,11.664-5.222,11.664-11.665
						C303.451,308.88,298.229,303.658,291.787,303.658z"/>
				</g>
				<g>
					<path fill="#FFFFFF" d="M265.23,314.815c0.548-0.249,0.983-0.62,1.304-1.117s0.481-1.044,0.481-1.639
						c0-0.549-0.13-1.044-0.39-1.485c-0.259-0.441-0.584-0.796-0.975-1.061c-0.39-0.267-0.832-0.441-1.326-0.524
						c-0.493-0.083-1.243-0.126-2.248-0.126H257v12.7h4.323c1.634-0.011,2.665-0.04,3.093-0.085c0.681-0.077,1.254-0.277,1.72-0.604
						c0.465-0.327,0.832-0.762,1.1-1.309c0.269-0.546,0.403-1.106,0.403-1.685c0-0.732-0.208-1.372-0.624-1.914
						C266.599,315.423,266.004,315.04,265.23,314.815z M259.564,310.977h1.472c1.208,0,1.938,0.015,2.192,0.043
						c0.427,0.054,0.749,0.2,0.966,0.445c0.216,0.246,0.325,0.565,0.325,0.958c0,0.41-0.126,0.74-0.377,0.992
						c-0.251,0.252-0.596,0.403-1.035,0.455c-0.243,0.029-0.863,0.042-1.863,0.042h-1.68V310.977z M264.628,318.839
						c-0.24,0.269-0.55,0.437-0.931,0.507c-0.249,0.052-0.835,0.077-1.759,0.077h-2.374v-3.396h2.07
						c1.167,0,1.924,0.063,2.273,0.184c0.35,0.119,0.617,0.313,0.802,0.58c0.185,0.265,0.277,0.589,0.277,0.969
						C264.987,318.211,264.867,318.57,264.628,318.839z"/>
					<path fill="#FFFFFF" d="M277.35,315.888c0,1.005-0.038,1.724-0.113,2.157c-0.075,0.433-0.297,0.8-0.667,1.097
						c-0.37,0.296-0.918,0.445-1.646,0.445c-0.716,0-1.281-0.157-1.693-0.471c-0.414-0.316-0.675-0.732-0.785-1.253
						c-0.063-0.324-0.095-1.03-0.095-2.123v-6.878h-2.564v6.776c0,1.421,0.083,2.493,0.251,3.221
						c0.115,0.491,0.355,0.96,0.719,1.408s0.858,0.811,1.486,1.093c0.626,0.279,1.546,0.42,2.759,0.42
						c1.005,0,1.819-0.13,2.443-0.386c0.624-0.259,1.122-0.602,1.495-1.035c0.372-0.433,0.628-0.966,0.767-1.596
						c0.139-0.629,0.208-1.704,0.208-3.229v-6.672h-2.564V315.888z"/>
					<polygon fill="#FFFFFF" points="287.295,313.887 284.307,308.863 281.3,308.863 285.953,316.219 285.953,321.563 
						288.508,321.563 288.508,316.236 293.178,308.863 290.224,308.863 					"/>
				</g>
				<g>
					<g>
						<rect x="233.445" y="325.186" fill="#FFFFFF" width="53.523" height="45.877"/>
					</g>
					<g>
						<rect x="286.968" y="325.186" fill="#E3EEF7" width="19.662" height="45.877"/>
					</g>
				</g>
				<g>
					<polygon fill="#AFC4D6" points="233.445,353.585 278.12,353.585 287.022,325.186 233.445,325.186 					"/>
				</g>
				<g>
					<polygon fill="#AFC4D6" points="287.197,326.44 295.87,363.417 306.629,363.417 306.629,325.186 286.968,325.186 					"/>
				</g>
				<g>
					<polygon fill="#FFFFFF" points="223.156,343.934 278.118,343.934 287.068,325.118 233.77,325.118 					"/>
				</g>
				<g>
					<polygon fill="#E3EEF7" points="287.256,325.118 295.296,347.749 314.696,347.749 306.657,325.118 					"/>
				</g>
			</g>
			<g>
				<g>
					<g>
						<rect x="102.5" y="325.186" fill="#FFFFFF" width="53.523" height="45.877"/>
					</g>
					<g>
						<rect x="156.023" y="325.186" fill="#E3EEF7" width="19.661" height="45.877"/>
					</g>
				</g>
			</g>
			<g>
				<g>
					<path fill="#FCD2C5" d="M140.764,249.727c-0.716,0.491-1.534,0.93-2.36,1.18c0.973-0.145,0.97,0.463,2.008,0.458
						c0.396-0.122,1.627-1.47,1.384-1.809C141.467,249,141.14,249.43,140.764,249.727z"/>
					<path fill="#FCD2C5" d="M145.013,251.715c-0.332-0.205-1.484-0.301-1.938-0.41c-0.157-0.028-2.396-0.408-3.391-0.442
						c-0.843-0.036-1.688-0.013-2.472,0.09c-0.043,0.011-0.476,3.243-0.372,4.303c1.408,0.087,5.77-0.081,5.875-0.062
						c1.75,0.35,2.195-0.256,1.888-0.768c-0.075-0.124,1.111-0.365,0.902-0.924c0,0,0.352-0.226,0.261-0.678
						C145.7,252.483,145.225,251.848,145.013,251.715z"/>
					<path fill="#FCD2C5" d="M107.525,217.67c-0.256-0.836-9.941,1.839-11.356,2.891c-3.265,2.43,4.498,22.742,8.49,29.456
						c1.516,2.547,8.595,4.346,6.522-4.74C109.49,237.87,108.94,222.289,107.525,217.67z"/>
					<path fill="#FEBB00" d="M96.168,220.561c-2.179,1.622-1.42,11.804,1.825,19.997c0.996-0.132,3.961-0.888,4.948-1.107
						c2.417-0.533,5.753-1.542,8.039-2.462c-1.582-7.253-2.456-16.058-3.455-19.318C107.269,216.834,97.583,219.509,96.168,220.561z
						"/>
					<path fill="#FCD2C5" d="M108.451,245.121c-0.284-0.032-0.626-0.011-0.99,0.066c-1.603,0.346-3.598,1.822-2.58,4.979
						c1.108,3.45,23.737,5.417,32.8,5.186c-0.121-1.137,0.005-2.628,0.3-4.397C132.476,251.206,113.642,245.706,108.451,245.121z"/>
				</g>
				<path fill="#FCD2C5" d="M51.411,294.639c-0.897,2.8-10.655,67.344-10.655,67.344c0.011,0.132,2.361,0.964,4.183,0.087
					c0,0,18.482-61.086,18.89-62.295C62.564,300.532,52.736,296.291,51.411,294.639z"/>
				<path fill="#272063" d="M45.814,362.188c-0.413-0.828-0.865-2.065-0.865-2.065l-3.757,1.039c0,0-0.357,0.299-0.439,1.387
					c0,0-0.763,1.061-0.404,2.223c0.206,0.67,2.133,1.736,3.063,2.64c0.746,0.725,2.149,1.162,3.792,1.491
					c1.642,0.33,3.843-0.037,4.073-0.986C51.732,366.039,46.61,363.782,45.814,362.188z"/>
				<path fill="#FCD2C5" d="M40.934,360.731c0,0-0.1,0.729-0.181,1.817c0,0,1.886,1.235,2.689,1.018
					c1.421-0.387,2.372-1.378,2.372-1.378c-0.584-1.264-0.709-2.236-0.709-2.236L40.934,360.731z"/>
				<path fill="#802B52" d="M57.919,250.597c0,0-8.729,40.944-10.692,61.268c-2.272,23.542-6.433,48.065-6.433,48.065
					c1.186,2.179,4.831,1.208,4.917,1.044c0,0,34.407-102.419,34.845-106.808C77.631,254.683,65.768,253.055,57.919,250.597z"/>
				<path fill="#FCD2C5" d="M76.746,298.019c-0.212,2.932,5.523,67.955,5.523,67.955c0.042,0.128,2.522,0.382,4.086-0.9
					c0,0,3.558-63.721,3.669-64.994C88.973,301.117,78.422,299.31,76.746,298.019z"/>
				<path fill="#272063" d="M87.233,364.98c-0.597-0.706-1.327-1.801-1.327-1.801l-3.407,1.895c0,0-0.277,0.374-0.101,1.451
					c0,0-0.491,1.212,0.132,2.257c0.357,0.602,2.612,1.52,3.599,1.844c0.988,0.322,2.363,0.621,4.037,0.555
					c1.673-0.066,3.726-0.943,3.726-1.918C93.892,367.33,88.382,366.343,87.233,364.98z"/>
				<path fill="#FCD2C5" d="M82.146,364.718c0,0,0.075,0.729,0.252,1.807c0,0,2.124,0.755,2.854,0.354
					c1.29-0.711,1.98-1.897,1.98-1.897c-0.866-1.09-1.217-2.005-1.217-2.005L82.146,364.718z"/>
				<path fill="#802B52" d="M72.686,253.682v21.422c1.6,1.261,1.17,20.43,4.055,40.64c3.342,23.414,5.082,48.228,5.082,48.228
					c1.666,1.837,4.979,0.036,5.024-0.146c0,0,9.289-107.643,8.68-112.012C92.805,253.006,80.893,254.222,72.686,253.682z"/>
				<path fill="#FEBB00" d="M53.728,258.604c-0.089,1.696,14.698,4.31,22.195,7.54c7.497,3.232,17.079,8.404,20.495,6.835
					c1.51-0.693,2.522-13.458,2.522-13.458l-40.294-14.416C58.647,245.106,53.97,254.021,53.728,258.604z"/>
				<path fill="#FCD2C5" d="M95.123,197.529c-0.32,2.287-2.731,8.203-3.823,9.129c0.639,4.559,7.233,6.471,8.381,4.224
					c-0.302-2.863,2.182-7.298,2.326-7.745C100.312,202.909,95.553,198.092,95.123,197.529z"/>
				<path fill="#FCD2C5" d="M103.392,191.384c-3.272-0.719-6.02,1.508-6.731,4.749c-0.008,0.034-0.74,3.365-0.74,3.365
					c-0.537,2.445,2.386,7.117,4.614,7.134c5.269,0.043,8.368-8.947,8.427-10.027C109.125,193.59,106.438,192.054,103.392,191.384z"
					/>
				<path fill="#272063" d="M99.68,210.882c0,0-1.869,1.331-3.443,0.745c-2.292-0.855-4.938-4.969-4.938-4.969
					s-5.402-0.085-7.205-0.175c-5.409-0.264-8.294,1.782-11.586,6.266c-1.016,1.385-8.577,19.463-16.574,37.136
					c-2.401,5.308,38.822,20.577,42.669,16.841c1.568-1.523,1.493-6.795,8.774-40.522c0.73-3.382,1.831-7.399-1.555-10.958
					C104.95,214.329,99.68,210.882,99.68,210.882z"/>
				<g>
					<g>
						<g>
							<rect x="84.701" y="241.974" fill="#E3EEF7" width="53.523" height="45.877"/>
						</g>
						<g>
							<rect x="138.224" y="241.974" fill="#AFC4D5" width="19.662" height="45.877"/>
						</g>
					</g>
				</g>
				<g>
					<path fill="#FCD2C5" d="M117.944,252.709c-0.838,0.224-1.757,0.365-2.619,0.322c0.965,0.189,0.761,0.762,1.74,1.103
						c0.414,0.017,2.024-0.843,1.909-1.244C118.85,252.257,118.398,252.554,117.944,252.709z"/>
					<path fill="#FCD2C5" d="M121.377,255.34c-0.174-0.083-2.668-1.256-3.83-1.649c-0.979-0.344-1.987-0.629-2.95-0.817
						c-0.055-0.006-1.809,2.861-2.093,3.894c1.627,0.593,6.837,2.025,6.953,2.082c1.931,0.965,2.689,0.559,2.523-0.032
						c-0.04-0.143,1.452,0.062,1.42-0.536c0,0,0.503-0.085,0.569-0.542c0.05-0.344-0.265-1.112-0.464-1.312
						C123.194,256.114,121.872,255.606,121.377,255.34z"/>
					<path fill="#FCD2C5" d="M87.516,209.939c-0.254-0.839-9.946,1.807-11.366,2.854c-3.272,2.421,4.427,22.757,8.398,29.481
						c1.509,2.554,8.582,4.374,6.537-4.719C89.418,230.142,88.917,214.562,87.516,209.939z"/>
					<path fill="#FEBB00" d="M74.022,214.126c-0.514,2.667,0.672,10.467,3.892,18.67c4.55,0.139,10.126-1.606,12.998-3.529
						c-1.559-7.26-1.35-16.603-3.395-19.329C84.871,206.412,75.346,207.27,74.022,214.126z"/>
					<path fill="#FCD2C5" d="M88.065,237.317c-1.626-0.211-3.999,0.516-4.094,3.833c-0.106,3.621,20.57,13.027,29.19,15.833
						c0.265-1.112,0.882-2.475,1.75-4.045c-5.273-1.6-21.192-13.071-25.89-15.354C88.764,237.46,88.434,237.364,88.065,237.317z"/>
				</g>
				<path fill="#FF4746" d="M108.161,191.408c0,0-5.534-6.161-11.049-3.483c-8.306,4.034-2.549,13.225-2.549,13.225
					c0.162-2.287,5.017-9.89,11.958-7.75c0,0,3.232,2.889,0.497,8.098C109.698,201.094,113.016,193.894,108.161,191.408z"/>
				<path fill="#FCD2C5" d="M97.147,194.909c-0.819-0.275-1.968,0.557-2.243,1.376c-0.259,0.774,0.281,2.266,0.977,2.733
					c0.608-0.749,1.843-2.264,2.464-3.258C98.001,195.321,97.459,195.013,97.147,194.909z"/>
				<path fill="#FF4746" d="M79.063,187.999c-2.226,5.974-3.839,6.093-6.153,7.491c-11.425,6.91,0.945,25.381,3.972,19.418
					c1.179-2.324-5.096-6.371,4.791-9.255c10.928-3.188,7.917-8.621,7.876-12.167c-0.157-13.435,5.713-9.465,6.834-6.611
					c0.664,1.692,1.604,1.133,2.081-0.147C100.405,181.521,86.448,168.178,79.063,187.999z"/>
				<path fill="#272063" d="M98.881,186.085c-0.353-0.13-0.778-0.175-1.277-0.042c-1.876,0.501-2.236,1.598-2.067,2.761
					c0,0,2.319-1.447,4.652-1.525C100.189,187.278,99.759,186.414,98.881,186.085z"/>
			</g>
			<g>
				<g>
					<path fill="#01D06A" d="M494.991,272.732c-0.491,2.314,0.228,5.061-0.177,7.438c-0.509,2.977-2.398,3.827-3.679,5.705
						c-1.515,2.223-2.207,6.39-1.652,9.939c0.344,2.197,1.093,4.045,1.652,6.062c0.56,2.018,0.929,4.49,0.451,6.588
						c-0.719,3.161-4.56,5.617-4.56,19.02c0,12.23,8.733,16.988,11.209,19.983v-79.316l-1.119,1.086
						C496.269,270.058,495.354,271.016,494.991,272.732z"/>
					<path fill="#01D06A" d="M505.191,301.876c0.559-2.017,1.309-3.864,1.65-6.062c0.557-3.55-0.136-7.717-1.651-9.939
						c-1.28-1.878-3.171-2.729-3.678-5.705c-0.405-2.378,0.313-5.124-0.177-7.438c-0.365-1.716-1.279-2.674-2.126-3.495l-1.12-1.086
						v79.316c2.476-2.995,11.209-7.753,11.209-19.983c0-13.402-3.841-15.858-4.559-19.02
						C504.262,306.367,504.632,303.894,505.191,301.876z"/>
				</g>
				<g>
					<path fill="#FEBB00" d="M509.277,320.117c-0.573,0.755-0.319,1.896-0.838,2.692c-0.65,0.996-2.092,0.954-3.193,1.401
						c-1.302,0.531-2.199,1.929-2.139,3.335c0.039,0.868,0.4,1.686,0.61,2.53c0.209,0.845,0.239,1.819-0.303,2.5
						c-0.818,1.024-3.819,1.203-5.098,6.117c-1.169,4.481,4.666,7.863,6.163,9.425l7.569-29.072l-0.91,0.188
						C510.452,319.376,509.702,319.556,509.277,320.117z"/>
					<path fill="#FEBB00" d="M513.262,324.066c-0.066-0.947,0.715-1.82,0.582-2.761c-0.098-0.695-0.665-1.218-1.196-1.679
						l-0.704-0.608l-7.571,29.072c2.069-0.634,8.811-0.738,9.979-5.223c1.279-4.911-1.251-6.532-1.467-7.825
						c-0.143-0.858,0.358-1.696,0.954-2.33c0.595-0.636,1.31-1.171,1.769-1.914c0.738-1.196,0.637-2.852-0.243-3.951
						C514.622,325.917,513.343,325.251,513.262,324.066z"/>
				</g>
				<path fill="#FFFFFF" d="M483.791,345.466c0,0,5.443,5.832,5.443,9.758c0,1.05-0.376,2.654-0.933,4.446
					c-1.771,5.718,2.437,11.528,8.419,11.528h14.39c5.983,0,10.189-5.811,8.418-11.528c-0.556-1.792-0.931-3.396-0.931-4.446
					c0-3.926,5.443-9.758,5.443-9.758H483.791z"/>
			</g>
			<g>
				<path fill="#272063" d="M197.345,364.174c-0.596-0.707-1.326-1.803-1.326-1.803l-3.407,1.894c0,0-0.277,0.376-0.1,1.453
					c0,0-0.491,1.212,0.131,2.255c0.357,0.602,2.613,1.521,3.599,1.844c0.988,0.324,2.363,0.623,4.037,0.555
					c1.674-0.066,3.726-0.943,3.726-1.918C204.004,366.521,198.494,365.535,197.345,364.174z"/>
				<path fill="#FCD2C5" d="M197.001,362.262l-4.574,0.819c0,0-0.094,1.56,0.084,2.637c0,0,2.124,0.756,2.854,0.354
					c1.29-0.711,1.979-1.898,1.979-1.898C196.48,363.085,197.001,362.262,197.001,362.262z"/>
				<path fill="#01D06A" d="M182.799,256.153v21.422c1.599,1.259,10.94,25.536,14.978,39.547c0.133,0.461-5.842,41.642-5.842,46.043
					c1.667,1.837,4.979,0.034,5.024-0.145c0,0,12.911-20.853,14.987-46.044c2.412-29.264-5.98-60.345-6.307-62.692
					C202.917,255.477,191.005,256.69,182.799,256.153z"/>
				<path fill="#272063" d="M171.547,364.787c-0.539-0.751-1.182-1.901-1.182-1.901l-3.545,1.621c0,0-0.305,0.353-0.213,1.44
					c0,0-0.585,1.169-0.046,2.26c0.309,0.627,2.382,1.373,3.443,2.118c0.851,0.597,2.307,0.807,3.98,0.87
					c1.674,0.064,3.789-0.648,3.865-1.621C178.002,367.647,172.586,366.233,171.547,364.787z"/>
				<path fill="#FCD2C5" d="M171.093,362.738l-4.525,0.493c0,0-0.053,1.628,0.04,2.716c0,0,2.059,0.92,2.817,0.576
					c1.341-0.608,2.123-1.736,2.123-1.736C170.77,363.632,171.093,362.738,171.093,362.738z"/>
				<path fill="#01D06A" d="M170.801,251.318c-10.195,19.406,3.298,47.789,5.055,66.086c0,0-9.623,25.211-9.623,45.95
					c1.517,1.963,4.961,0.427,5.021,0.249c0-8.427,16.841-29.727,18.7-44.989c3.558-29.215,1.058-60.35,0.915-62.722
					C188.095,252.3,177.901,248.314,170.801,251.318z"/>
				<path fill="#FCD2C5" d="M194.192,193.392c0.183,2.3-0.887,8.598-1.751,9.741c1.613,4.312,8.465,4.745,9.098,2.304
					c-0.917-2.73,0.545-7.599,0.589-8.066C200.425,197.516,194.734,193.849,194.192,193.392z"/>
				<path fill="#FCD2C5" d="M200.931,185.599c-3.35,0.008-5.548,2.778-5.541,6.095c0,0.036,0.008,3.445,0.008,3.445
					c0.006,2.502,3.874,6.43,6.052,5.963c5.153-1.103,6.228-10.55,6.05-11.616C207.007,186.507,204.05,185.59,200.931,185.599z"/>
				<path fill="#802B52" d="M208.485,208.362c-1.055-0.707-6.946-2.925-6.946-2.925s-1.541,1.703-3.194,1.475
					c-2.427-0.344-5.905-3.774-5.905-3.774s-5.356,0.815-7.067,1.383c-15.324,5.073-23.668,23.939-20.9,68.89
					c0.783,0.111,2.849,0.164,3.82,0.344l2.846-14.394l1.051,15.194c15.029,6.94,35.616,1.899,37.283-9.242
					c-0.914-7.437-1.196-14.251-1.122-20.182c0.019-2.242,0.098-4.356,0.201-6.336c0.505-9.636,1.773-16.005,1.891-17.56
					C210.801,216.552,212.56,211.099,208.485,208.362z"/>
				<path fill="#272063" d="M198.339,206.909c-2.423-0.335-5.898-3.776-5.898-3.776s-2.753,0.367-3.611,0.484
					c-1.89,0.256-3.459,0.906-3.459,0.906c6.593,3.744,16.389,13.458,16.389,13.458s4.581-5.449,5.26-10.343
					c-1.306-0.772-5.48-2.202-5.48-2.202S200.003,207.142,198.339,206.909z"/>
				<path fill="#272063" d="M194.056,180.292c-4.76,4.246-4.053,12.293,0.009,15.935c0,0,0.674-5.259,2.346-7.618
					c13.711,3.01,15.115-0.529,15.066-1.99C211.262,180.001,200.282,174.739,194.056,180.292z"/>
				<path fill="#FCD2C5" d="M194.897,190.339c-0.855,0.124-1.504,1.385-1.38,2.24c0.118,0.807,1.273,1.895,2.105,1.997
					c0.205-0.943,0.622-2.853,0.728-4.02C195.844,190.32,195.223,190.29,194.897,190.339z"/>
				<g>
					<path fill="#FCD2C5" d="M250.466,250.111c-0.815,0.297-1.718,0.519-2.58,0.553c0.978,0.103,0.824,0.689,1.83,0.945
						c0.414-0.019,1.942-1.018,1.792-1.406C251.328,249.582,250.904,249.917,250.466,250.111z"/>
					<path fill="#FCD2C5" d="M254.117,252.43c-0.181-0.068-2.768-1.016-3.96-1.308c-1.005-0.254-2.034-0.45-3.01-0.555
						c-0.055,0-1.55,3.01-1.743,4.062c1.672,0.45,6.988,1.417,7.109,1.466c2.008,0.792,2.727,0.32,2.511-0.254
						c-0.053-0.139,1.452-0.064,1.367-0.657c0,0,0.494-0.13,0.52-0.589c0.02-0.348-0.362-1.086-0.578-1.267
						C255.994,253.042,254.632,252.652,254.117,252.43z"/>
					<path fill="#FCD2C5" d="M219.352,237.398c-1.639-0.066-3.938,0.866-3.743,4.179c0.212,3.616,21.633,11.171,30.466,13.21
						c0.167-1.129,0.662-2.543,1.389-4.182c-5.394-1.133-22.257-11.162-27.137-13.024
						C220.061,237.481,219.723,237.413,219.352,237.398z"/>
					<path fill="#FCD2C5" d="M209.554,211.381c-0.498-0.721-8.92,4.755-9.951,6.187c-2.377,3.305,11.163,20.318,16.998,25.511
						c2.215,1.969,9.507,1.544,4.784-6.49C217.533,230.04,212.299,215.354,209.554,211.381z"/>
					<path fill="#802B52" d="M216.051,222.571c-2.141-5.007-4.386-10.226-5.82-12.301c-0.223-0.322-0.369-0.028-0.789-0.045
						c-1.836-0.075-9.644,5.204-10.726,6.706c-3.233,4.493,12.352,22.663,17.102,26.913c4.492,4.137,22.236,10.213,30.013,12.009
						l1.858-6.317c-3.127-0.655-22.492-10.895-24.519-11.876C222.933,237.131,218.206,227.608,216.051,222.571z"/>
				</g>
			</g>
			<g>
				<polygon fill="#D3E1EA" points="152.973,157.264 163.184,157.264 164.569,146.112 148.012,146.112 				"/>
				<g>
					<path fill="#D3E1EA" d="M126.344,117.228l-11.625-1.76l7.646,13.882l9.672-3.166c0.012-0.126,0.015-5.092,0.015-5.092
						C132.054,117.936,129.5,117.228,126.344,117.228z"/>
					<path fill="#D3E1EA" d="M122.366,134.57l-7.646,13.882l11.625-1.758c3.155,0,5.709-0.708,5.709-3.864
						c0,0-0.003-4.968-0.015-5.092L122.366,134.57z"/>
				</g>
				<path fill="#EDF5F8" d="M112.505,132.573c0,0,79.154-0.156,79.293-0.002C182.501,99.793,116.904,118.05,112.505,132.573z"/>
				<path fill="#D3E1EA" d="M112.505,132.573c4.399,14.524,69.997,32.78,79.293,0.002
					C191.659,132.729,112.505,132.573,112.505,132.573z"/>
				<path fill="#D3E1EA" d="M159.613,121.733c-28.706,0-46.821,10.731-47.102,10.837h79.287
					C191.659,132.417,188.267,121.733,159.613,121.733z"/>
				<path fill="#EDF5F8" d="M159.613,143.417c28.654,0,32.045-10.686,32.185-10.838h-79.287
					C112.792,132.684,130.908,143.417,159.613,143.417z"/>
				<polygon fill="#D3E1EA" points="191.798,132.58 191.799,132.573 191.798,132.571 				"/>
			</g>
			<g>
				<path fill="#EDF5F8" d="M768.799,131.489c-3.127,0-5.902,1.587-7.683,3.772h15.365
					C774.7,133.077,771.926,131.489,768.799,131.489z"/>
				<path fill="#EDF5F8" d="M731.115,127.182c-3.281,0-5.778,3.907-8.743,3.213c-6.479-1.517-9.143-9.861-16.252-9.861
					c-5.488,0-8.666,6.812-13.731,6.349c-8.021-0.731-11.636-11.552-20.275-11.552c-7.986,0-11.907,9.263-19.285,10.083
					c-4.347,0.482-7.526-4.736-12.246-4.736c-8.906,0-9.689,3.54-17.892,6.095c-2.353,0.734-4.154,5.323-6.813,5.323
					c-3.127,0-5.902,0.981-7.683,3.166h136.293C742.202,130.892,737.079,127.182,731.115,127.182z"/>
			</g>
			<g>
				<path fill="#EDF5F8" d="M208.445,83.428c-3.127,0-5.901,1.587-7.682,3.772h15.364C214.347,85.015,211.571,83.428,208.445,83.428
					z"/>
				<path fill="#EDF5F8" d="M361.368,84.034c-2.661,0-0.333-4.39-6.815-5.323c-11.07-1.592-8.984-6.095-17.89-6.095
					c-4.722,0-7.9,5.218-12.248,4.736c-7.376-0.819-11.3-10.083-19.286-10.083c-8.638,0-12.253,10.82-20.274,11.552
					c-5.065,0.463-8.243-6.349-13.731-6.349c-7.11,0-9.774,8.344-16.252,9.861c-2.966,0.694-5.462-3.213-8.743-3.213
					c-5.965,0-11.088,3.71-13.372,8.079H369.05C367.27,85.015,364.495,84.034,361.368,84.034z"/>
			</g>
			<g>
				<g id="XMLID_76_">
					<g>
						<g>
							<polygon fill-rule="evenodd" clip-rule="evenodd" fill="#AFC4D5" points="663.676,270.447 664.594,277.256 668.528,276.727 
								667.129,266.329 							"/>
						</g>
						<g>
							<polygon fill-rule="evenodd" clip-rule="evenodd" fill="#AFC4D5" points="683.595,264.115 684.993,274.513 688.93,273.984 
								688.014,267.174 							"/>
						</g>
						<g>
							<polygon fill-rule="evenodd" clip-rule="evenodd" fill="#EDF5F8" points="667.129,266.329 663.676,270.447 688.014,267.174 
								683.595,264.115 							"/>
						</g>
						<g>
							<polygon fill-rule="evenodd" clip-rule="evenodd" fill="#EDF5F8" points="656.199,276.819 660.716,342.232 709.833,335.625 
								696.909,271.345 							"/>
						</g>
					</g>
					<g>
						<g>
							<polygon fill-rule="evenodd" clip-rule="evenodd" fill="#AFC4D5" points="687.837,282.974 689.188,293.018 693.482,292.44 
								691.419,277.103 							"/>
						</g>
						<g>
							<polygon fill-rule="evenodd" clip-rule="evenodd" fill="#AFC4D5" points="709.382,274.686 711.446,290.025 715.742,289.447 
								714.39,279.403 							"/>
						</g>
						<g>
							<polygon fill-rule="evenodd" clip-rule="evenodd" fill="#FEBB00" points="691.419,277.103 687.837,282.974 714.39,279.403 
								709.382,274.686 							"/>
						</g>
						<g>
							<polygon fill-rule="evenodd" clip-rule="evenodd" fill="#FEBB00" points="679.95,291.952 681.663,339.414 735.254,332.207 
								724.367,285.978 							"/>
						</g>
					</g>
					<g>
						<g>
							<polygon fill="#EDF5F8" points="718.845,295.068 718.369,294.772 717.989,295.186 717.512,294.887 717.13,295.301 
								716.654,295.002 716.273,295.417 715.795,295.118 715.415,295.532 714.939,295.233 714.557,295.646 714.081,295.348 
								713.7,295.761 713.225,295.463 712.845,295.876 712.369,295.579 711.987,295.992 711.512,295.694 711.131,296.107 
								710.653,295.809 710.272,296.222 709.796,295.923 709.416,296.337 708.938,296.039 708.559,296.453 708.082,296.154 
								707.7,296.568 707.225,296.272 706.843,296.683 706.366,296.387 705.985,296.798 705.509,296.502 705.127,296.914 
								704.651,296.617 704.269,297.029 703.794,296.732 703.413,297.144 702.934,296.847 702.553,297.259 702.078,296.962 
								701.696,297.375 701.218,297.078 700.837,297.492 700.362,297.193 699.98,297.607 699.502,297.308 699.121,297.722 
								698.645,297.423 698.263,297.837 697.787,297.541 697.405,297.953 696.927,297.656 696.546,298.068 696.07,297.771 
								695.688,298.183 695.21,297.886 694.83,298.298 694.354,298.001 693.972,298.414 693.494,298.117 693.112,298.531 
								692.635,298.232 692.253,298.646 691.776,298.347 691.395,298.761 690.915,298.464 690.534,298.876 690.54,298.93 
								695.73,337.521 724.043,333.715 718.853,295.124 							"/>
						</g>
						<g>
							<polygon fill="#D3E1EA" points="724.043,333.715 735.253,332.207 729.201,329.642 							"/>
						</g>
						<g>
							<polygon fill="#AFC4D5" points="730.066,293.632 730.064,293.616 730.045,293.618 729.581,293.263 729.226,293.729 
								729.187,293.733 728.722,293.378 728.367,293.843 728.331,293.848 727.866,293.496 727.511,293.958 727.472,293.963 
								727.007,293.611 726.652,294.074 726.615,294.079 726.15,293.726 725.795,294.189 725.778,294.21 725.757,294.194 
								725.292,293.841 724.939,294.304 724.921,294.326 724.9,294.309 724.436,293.957 724.408,293.993 724.458,294.369 
								729.201,329.642 735.253,332.207 730.066,293.632 							"/>
						</g>
						<g>
							<polygon fill="#D3E1EA" points="724.408,293.993 724.408,293.987 724.055,294.369 723.58,294.072 723.2,294.484 
								722.723,294.187 722.341,294.599 721.864,294.302 721.485,294.714 721.007,294.417 720.625,294.83 720.151,294.533 
								719.769,294.945 719.292,294.648 718.853,295.124 724.043,333.715 729.201,329.642 724.458,294.369 							"/>
						</g>
					</g>
					<g id="XMLID_77_">
						<g>
							<polygon fill="#AFC4D5" points="636.649,362.926 636.649,366.89 663.066,362.576 723.987,366.89 723.987,362.926 
								663.066,358.612 							"/>
						</g>
						<g id="XMLID_85_">
							<circle fill="#FFFFFF" cx="724.103" cy="364.524" r="6.675"/>
						</g>
						<g id="XMLID_78_">
							<circle fill="#FFFFFF" cx="636.65" cy="364.524" r="6.675"/>
						</g>
						<g>
							<g>
								<path fill="#FFFFFF" d="M732.003,296.137l-22.534-2.469v-0.002l-0.006,0.002l-13.457-1.474l-0.075-0.239l-0.546,0.171
									l-25.984-2.849l-0.01-0.027l-0.068,0.021l-27.186-2.98c-2.388-6.932-3.945-11.439-3.945-11.439l-4.137,1.404l26.912,79.315
									c-1.455,0.641-2.463,2.1-2.448,3.787c0.022,2.264,1.874,4.079,4.137,4.058c1.077-0.011,2.045-0.443,2.771-1.131
									c0.798-0.755,1.286-1.819,1.286-3.004c0-0.469-1.732-5.837-4.344-13.655c5.191-0.662,72.114-9.211,72.124-9.311
									c1.516-0.839,2.535-2.435,2.558-4.256l0.373-29.766C737.461,299.156,735.122,296.496,732.003,296.137z M719.877,298.079
									l5.043,16.182l-9.161,0.088l-5.233-17.2C713.954,297.488,717.111,297.803,719.877,298.079z M706.758,296.773l5.357,17.609
									l-9.167,0.087l-5.812-18.649C700.45,296.148,703.684,296.468,706.758,296.773z M693.359,295.446l5.939,19.058l-9.159,0.088
									l-6.262-20.084C687.038,294.819,690.217,295.134,693.359,295.446z M680.102,294.134l6.386,20.493l-9.159,0.088
									l-6.707-21.518C673.679,293.5,676.861,293.814,680.102,294.134z M666.843,292.824l6.833,21.926l-9.159,0.087l-7.151-22.947
									C660.234,292.173,663.433,292.489,666.843,292.824z M643.598,290.533c0.584,0.058,4.339,0.427,9.989,0.983l7.279,23.354
									l-8.894,0.086C648.977,306.185,646.007,297.541,643.598,290.533z M661.239,342.25c-2.341-6.974-5.198-15.386-8.095-23.87
									l8.789-0.083l7.14,22.906C665.466,341.685,662.713,342.052,661.239,342.25z M672.587,340.734l-7.002-22.471l9.158-0.088
									l6.665,21.379C678.239,339.977,675.262,340.375,672.587,340.734z M684.924,339.085l-6.529-20.946l9.161-0.088l6.187,19.854
									C690.748,338.306,687.782,338.703,684.924,339.085z M697.258,337.436l-6.051-19.419l9.157-0.087l5.713,18.326
									C703.191,336.642,700.226,337.039,697.258,337.436z M709.593,335.787l-5.576-17.891l9.141-0.088l5.116,16.818
									C715.579,334.987,712.652,335.377,709.593,335.787z M721.786,334.155l-4.984-16.381l9.186-0.089l4.76,15.271
									C728.623,333.242,725.522,333.656,721.786,334.155z M733.878,330.773c-0.001,0.124-0.015,0.243-0.037,0.363l-4.204-13.485
									l4.387-0.041L733.878,330.773z M734.061,314.173l-5.49,0.051l-4.914-15.766c4.61,0.463,7.45,0.753,7.514,0.772
									c2.526,0.798,3.009,4.495,2.976,7.234L734.061,314.173z"/>
							</g>
						</g>
						<g>
							<g>
								<path fill="#FEBB00" d="M636.81,272.593c-0.011,0-0.02,0-0.031,0l-18.408,0.177c-0.874,0.006-1.696,0.358-2.312,0.987
									c-0.619,0.63-0.954,1.455-0.945,2.33s0.358,1.694,0.987,2.313c0.629,0.616,1.479,0.938,2.33,0.943l18.409-0.175
									c1.813-0.018,3.273-1.507,3.258-3.32C640.081,274.045,638.608,272.593,636.81,272.593z"/>
							</g>
						</g>
					</g>
				</g>
				<g id="XMLID_2204_">
					<g id="XMLID_2205_">
						<g id="XMLID_2215_">
							<g id="XMLID_2216_">
								<g id="XMLID_75_">
									<path fill="#FFFFFF" d="M621.963,302.889c-8.112,0-14.689,6.577-14.689,14.688s6.577,14.688,14.689,14.688
										c8.109,0,14.686-6.577,14.686-14.688S630.073,302.889,621.963,302.889z"/>
								</g>
							</g>
						</g>
					</g>
				</g>
				<g id="XMLID_2202_">
					<g>
						<g>
							<path fill="#D3E1EA" d="M628.47,311.519c-0.241-0.188-0.546-0.273-0.847-0.232c-0.305,0.036-0.577,0.189-0.765,0.433
								l-6.127,7.852c-0.218,0.277-0.554,0.429-0.909,0.42c-0.353-0.015-0.675-0.2-0.869-0.495l-1.813-2.784
								c-0.187-0.283-0.477-0.465-0.814-0.507c-0.049-0.007-0.099-0.009-0.146-0.009c-0.285,0-0.554,0.104-0.767,0.303
								c-0.449,0.412-0.524,1.03-0.212,1.5l3.565,5.365l0.915,0.515c0.393,0,0.729-0.167,0.946-0.442l8.041-10.304
								C629.059,312.632,628.97,311.91,628.47,311.519L628.47,311.519z"/>
						</g>
					</g>
				</g>
				<g id="XMLID_2156_">
					<circle fill="#EDF5F8" cx="759.47" cy="317.736" r="14.688"/>
				</g>
				<g>
					<g>
						<path fill="#FFFFFF" d="M760.04,308.835c-0.305-0.023-0.603,0.068-0.836,0.267c-0.483,0.411-0.543,1.137-0.134,1.621
							l3.45,4.064c0.273,0.326,0.337,0.78,0.157,1.167c-0.179,0.386-0.566,0.634-0.99,0.634h-8.707
							c-0.633,0-1.147,0.514-1.147,1.147s0.515,1.147,1.147,1.147h8.152c0.409,0,0.783,0.229,0.971,0.594
							c0.188,0.362,0.156,0.802-0.083,1.135l-3.009,4.214c-0.368,0.516-0.247,1.234,0.268,1.602c0.5,0.354,1.248,0.227,1.603-0.267
							l6.014-8.421c0.308-0.429,0.282-1.009-0.058-1.412L760.04,308.835z"/>
					</g>
				</g>
			</g>
			<g>
				<g>
					<path fill="#EDF5F8" d="M215.741,193.469c-1.988,1.988-2.982,4.593-2.982,7.198l0,63.134c0,2.607,0.996,5.214,2.982,7.202
						c1.989,1.986,4.593,2.982,7.2,2.982h101.813v-83.501H222.942C220.335,190.484,217.73,191.479,215.741,193.469z"/>
				</g>
				<path fill="#D3E1EA" d="M316.384,198.807c-0.902,0.9-1.402,2.105-1.404,3.388v8.192v8.192c0.001,1.282,0.5,2.488,1.404,3.392
					c0.912,0.905,2.116,1.404,3.391,1.404h4.979v-3.198h-4.979c-0.426,0-0.829-0.167-1.134-0.47
					c-0.298-0.298-0.464-0.702-0.465-1.13v-6.59h6.578v-3.198h-6.578v-6.59c0-0.429,0.167-0.83,0.468-1.131
					c0.303-0.305,0.704-0.469,1.13-0.469h4.979v-3.196l-4.979-0.002C318.493,197.401,317.289,197.9,316.384,198.807z"/>
				<g>
					<rect x="212.759" y="235.025" fill="#272063" width="111.996" height="17.989"/>
				</g>
				<g>
					<g>
						<rect x="220.546" y="216.081" fill="#FFFFFF" width="85.777" height="5.694"/>
					</g>
				</g>
				<g>
					<g>
						<rect x="220.547" y="207.54" fill="#FFFFFF" width="28.237" height="5.696"/>
					</g>
				</g>
				<g>
					<g>
						<rect x="252.748" y="207.541" fill="#FFFFFF" width="11.752" height="5.694"/>
					</g>
				</g>
				<g>
					<g>
						<rect x="260.206" y="199" fill="#FFFFFF" width="11.753" height="5.694"/>
					</g>
				</g>
				<g>
					<g>
						<rect x="294.57" y="207.54" fill="#FFFFFF" width="11.752" height="5.696"/>
					</g>
				</g>
				<g>
					<g>
						<rect x="220.546" y="259.217" fill="#FFFFFF" width="11.752" height="5.696"/>
					</g>
				</g>
				<g>
					<g>
						<rect x="279.135" y="259.222" fill="#FFFFFF" width="5.876" height="5.692"/>
					</g>
				</g>
				<g>
					<g>
						<rect x="287.777" y="259.218" fill="#FFFFFF" width="36.978" height="5.694"/>
					</g>
				</g>
				<g>
					<g>
						<rect x="237.031" y="259.221" fill="#FFFFFF" width="36.792" height="5.692"/>
					</g>
				</g>
				<g>
					<g>
						<rect x="280.984" y="198.999" fill="#FFFFFF" width="25.339" height="5.696"/>
					</g>
				</g>
				<g>
					<g>
						<rect x="220.548" y="198.999" fill="#FFFFFF" width="25.337" height="5.696"/>
					</g>
				</g>
			</g>
			<g>
				<path opacity="0.55" fill="#802B52" d="M188.136,219.819c-1.094-3.39-11.346,1.009-7.7,5.54
					c4.947,6.168,19.346,17.458,20.578,18.13c1.363,0.747,4.285,0.779,7.337,0.548c0.019-2.242,0.098-4.356,0.201-6.336
					C200.592,233.138,190.165,226.146,188.136,219.819z"/>
				<path fill="#FCD2C5" d="M238.494,236.423c-0.704,0.508-1.512,0.969-2.332,1.235c0.969-0.168,0.981,0.439,2.019,0.41
					c0.393-0.13,1.591-1.508,1.34-1.841C239.178,235.678,238.863,236.118,238.494,236.423z"/>
				<path fill="#FCD2C5" d="M245.016,237.917c-0.403-0.182-1.82-0.186-2.377-0.26c-0.193-0.015-2.94-0.22-4.167-0.175
					c-1.037,0.03-2.08,0.122-3.047,0.288c-0.054,0.015-0.67,3.32-0.568,4.384c1.732-0.026,7.111-0.546,7.24-0.533
					c2.147,0.213,2.711-0.436,2.346-0.928c-0.089-0.12,1.379-0.458,1.135-1.007c0,0,0.44-0.258,0.339-0.708
					C245.842,238.637,245.273,238.032,245.016,237.917z"/>
				<path fill="#802B52" d="M217.145,233.585c-3.128-0.666-6.093-1.297-8.31-1.689c-0.376-0.446-0.79-0.883-1.255-1.329
					c-2.699-2.58-6.263-6.98-9.711-11.237c-3.428-4.233-6.667-8.231-8.613-9.837c-0.303-0.25-0.711-0.337-1.118-0.239
					c-1.786,0.429-7.855,7.64-8.487,9.381c-1.883,5.203,18.072,18.43,23.789,21.214c5.471,2.759,24.196,3.759,32.163,3.362
					l0.063-6.583C232.478,236.852,223.976,235.041,217.145,233.585z"/>
			</g>
			<g>
				<path fill-rule="evenodd" clip-rule="evenodd" fill="#AFC4D5" d="M449.118,107.42h-96.615
					c-13.483,0-24.516,11.032-24.516,24.515v214.747c0,13.483,11.033,24.517,24.518,24.517h96.617
					c13.485,0,24.517-11.033,24.517-24.517V131.939C473.638,118.454,462.604,107.42,449.118,107.42z"/>
				<path fill-rule="evenodd" clip-rule="evenodd" fill="#EDF5F8" d="M449.118,112.797h-96.877
					c-10.526,0-19.138,8.612-19.138,19.138V346.81c0,10.671,8.731,19.401,19.402,19.401h96.617c10.684,0,19.427-8.741,19.427-19.427
					V132.228C468.548,121.542,459.804,112.797,449.118,112.797z"/>
				<rect x="333.103" y="153.248" fill="#D3E1EA" width="135.446" height="15.075"/>
				<rect x="345.105" y="175.677" fill="#FFFFFF" width="111.415" height="166.03"/>
				<rect x="372.623" y="181.829" fill="#EDF5F8" width="79.122" height="43.055"/>
				<g>
					<rect x="376.082" y="232.306" fill="#EDF5F8" width="16.417" height="4.089"/>
					<rect x="400.669" y="232.306" fill="#EDF5F8" width="35.943" height="4.089"/>
					<rect x="440.816" y="232.306" fill="#EDF5F8" width="7.469" height="4.089"/>
					<rect x="423.543" y="238.78" fill="#EDF5F8" width="24.741" height="4.092"/>
					<rect x="376.082" y="238.78" fill="#EDF5F8" width="5.914" height="4.092"/>
					<rect x="385.03" y="238.78" fill="#EDF5F8" width="32.677" height="4.092"/>
					<rect x="376.082" y="245.257" fill="#EDF5F8" width="19.686" height="4.092"/>
					<rect x="399.736" y="245.257" fill="#EDF5F8" width="48.549" height="4.092"/>
				</g>
				<rect x="349.825" y="182.098" fill="#EDF5F8" width="17.409" height="3.306"/>
				<rect x="349.825" y="191.378" fill="#EDF5F8" width="17.409" height="3.305"/>
				<rect x="349.825" y="200.656" fill="#EDF5F8" width="17.409" height="3.305"/>
				<rect x="349.825" y="209.935" fill="#EDF5F8" width="17.409" height="3.307"/>
				<rect x="349.825" y="219.215" fill="#EDF5F8" width="17.409" height="3.305"/>
				<rect x="349.825" y="228.493" fill="#EDF5F8" width="17.409" height="3.305"/>
				<rect x="349.825" y="237.771" fill="#EDF5F8" width="17.409" height="3.307"/>
				<rect x="349.825" y="247.049" fill="#EDF5F8" width="17.409" height="3.307"/>
				<rect x="349.825" y="256.33" fill="#EDF5F8" width="17.409" height="3.305"/>
				<circle fill="#FFFFFF" cx="461.037" cy="163.76" r="1.61"/>
				<circle fill="#FFFFFF" cx="454.598" cy="163.76" r="1.61"/>
				<g>
					<path fill="#272063" d="M417.787,192.061h-11.293c-5.839,0-10.021,5.396-10.048,11.232c0.027,5.833,4.209,10.614,10.048,10.614
						h11.293c5.858,0,10.651-5.064,10.651-10.923S423.645,192.061,417.787,192.061z"/>
					<path fill="#272063" d="M396.443,203.349c0-0.017,0.003-0.036,0.003-0.056c0-0.019-0.003-0.036-0.003-0.055V203.349z"/>
				</g>
				<rect x="349.825" y="268.255" fill="#EDF5F8" width="101.919" height="55.463"/>
				<g>
					<path fill="#272063" d="M408.124,281.63h-14.258c-7.373,0-13.762,6.848-13.803,14.217c0.041,7.369,6.431,14.183,13.803,14.183
						h14.258c7.395,0,13.445-6.806,13.445-14.2C421.569,288.433,415.518,281.63,408.124,281.63z"/>
					<path fill="#272063" d="M380.059,295.917c0-0.023,0.003-0.047,0.003-0.07s-0.003-0.047-0.003-0.07V295.917z"/>
				</g>
				<g id="XMLID_88_">
					<g id="XMLID_125_">
						<path fill="#FFDD00" d="M333.229,131.469v19.21h22.534v-37.882H351.9C341.589,112.797,333.229,121.157,333.229,131.469z"/>
					</g>
					<g id="XMLID_124_">
						<rect x="355.763" y="112.797" fill="#FF8382" width="22.535" height="37.882"/>
					</g>
					<g id="XMLID_123_">
						<rect x="378.297" y="112.797" fill="#FFDD00" width="22.535" height="37.882"/>
					</g>
					<g id="XMLID_122_">
						<rect x="400.833" y="112.797" fill="#FF8382" width="22.534" height="37.882"/>
					</g>
					<g id="XMLID_121_">
						<rect x="423.367" y="112.797" fill="#FFDD00" width="22.534" height="37.882"/>
					</g>
					<g id="XMLID_120_">
						<path fill="#FF8382" d="M449.763,112.797h-3.862v37.882h22.533v-19.21C468.434,121.157,460.074,112.797,449.763,112.797z"/>
					</g>
					<g id="XMLID_116_">
						<path fill="#FF4745" d="M445.905,150.68c0,0.026-0.008,0.051-0.008,0.079c0,6.223,5.046,11.269,11.269,11.269
							c6.224,0,11.268-5.045,11.266-11.269c0-0.028-0.007-0.052-0.007-0.079H445.905z"/>
					</g>
					<g id="XMLID_114_">
						<path fill="#FEBB00" d="M423.371,150.68c0,0.026-0.008,0.051-0.008,0.079c0,6.223,5.045,11.269,11.269,11.269
							c6.222,0,11.267-5.045,11.266-11.269c0-0.028-0.009-0.052-0.009-0.079H423.371z"/>
					</g>
					<g id="XMLID_92_">
						<path fill="#FF4745" d="M400.82,150.68c0,0.026-0.009,0.051-0.009,0.079c0,6.223,5.048,11.269,11.269,11.269
							c6.225,0,11.268-5.045,11.266-11.269c0-0.028-0.006-0.052-0.006-0.079H400.82z"/>
					</g>
					<g id="XMLID_91_">
						<path fill="#FEBB00" d="M378.285,150.68c0,0.026-0.008,0.051-0.008,0.079c0.001,6.223,5.046,11.269,11.269,11.269
							s11.267-5.045,11.266-11.269c0-0.028-0.008-0.052-0.009-0.079H378.285z"/>
					</g>
					<g id="XMLID_90_">
						<path fill="#FF4745" d="M355.735,150.68c0,0.026-0.009,0.051-0.009,0.079c0.001,6.223,5.046,11.269,11.27,11.269
							c6.223,0,11.267-5.045,11.266-11.269c0-0.028-0.008-0.052-0.008-0.079H355.735z"/>
					</g>
					<g id="XMLID_89_">
						<path fill="#FEBB00" d="M333.2,150.68c0,0.026-0.008,0.051-0.008,0.079c0,6.223,5.046,11.269,11.27,11.269
							c6.223,0,11.266-5.045,11.265-11.269c0-0.028-0.008-0.052-0.008-0.079H333.2z"/>
					</g>
				</g>
				<path fill-rule="evenodd" clip-rule="evenodd" fill="#AFC4D5" d="M364.751,116.88c0,7.096,5.753,12.848,12.849,12.848h46.451
					c7.096,0,12.849-5.752,12.849-12.848v-5.175h-72.148V116.88z"/>
				<path fill-rule="evenodd" clip-rule="evenodd" fill="#272063" d="M414.57,120.127h-27.49c-0.974,0-1.764,0.789-1.764,1.763
					v0.035c0,0.975,0.79,1.764,1.764,1.764h27.49c0.975,0,1.765-0.789,1.765-1.764v-0.035
					C416.334,120.916,415.544,120.127,414.57,120.127z"/>
				<path fill-rule="evenodd" clip-rule="evenodd" fill="#272063" d="M400.827,112.9c-1.145,0-2.066,0.926-2.066,2.066
					c0,1.141,0.922,2.067,2.066,2.067c1.141,0,2.064-0.926,2.064-2.067C402.891,113.826,401.967,112.9,400.827,112.9z"/>
				<g>
					<g>
						<g>
							<g>
								<g>
									<g>
										<path fill-rule="evenodd" clip-rule="evenodd" fill="#FF4746" d="M379.503,267.49c0.841-0.817,0.708-2.202-0.271-2.844
											l-0.089-0.06c-0.851-0.559-1.084-1.705-0.517-2.549l0.023-0.036c0.652-0.973,0.235-2.3-0.857-2.725l-0.1-0.038
											c-0.949-0.371-1.414-1.442-1.035-2.387l0.016-0.041c0.436-1.088-0.249-2.3-1.405-2.488l-0.106-0.017
											c-1.005-0.164-1.683-1.116-1.509-2.121l0.007-0.041c0.2-1.154-0.72-2.197-1.891-2.142l-0.107,0.006
											c-1.017,0.047-1.878-0.742-1.917-1.76l-0.002-0.043c-0.044-1.171-1.162-1.999-2.295-1.7l-0.104,0.026
											c-0.984,0.26-1.991-0.335-2.241-1.323l-0.01-0.041c-0.287-1.135-1.552-1.713-2.599-1.187l-0.095,0.047
											c-0.909,0.458-2.018,0.087-2.467-0.828l-0.019-0.036c-0.517-1.052-1.875-1.354-2.789-0.621l-0.083,0.066
											c-0.794,0.638-1.956,0.503-2.585-0.296l-0.026-0.032c-0.724-0.921-2.115-0.937-2.857-0.028l-0.067,0.081
											c-0.644,0.79-1.808,0.9-2.59,0.248l-0.033-0.028c-0.9-0.749-2.263-0.474-2.8,0.568l-0.049,0.096
											c-0.466,0.905-1.582,1.254-2.482,0.781l-0.037-0.021c-1.037-0.546-2.313,0.008-2.622,1.137l-0.028,0.105
											c-0.268,0.981-1.286,1.557-2.266,1.278l-0.041-0.011c-1.127-0.32-2.26,0.486-2.327,1.658l-0.006,0.106
											c-0.058,1.016-0.934,1.79-1.95,1.722l-0.043-0.002c-1.169-0.079-2.11,0.945-1.932,2.104l0.016,0.106
											c0.155,1.005-0.542,1.946-1.549,2.091l-0.042,0.004c-1.16,0.167-1.868,1.365-1.453,2.462l0.038,0.1
											c0.36,0.952-0.125,2.014-1.081,2.366l-0.04,0.015c-1.1,0.403-1.542,1.724-0.909,2.709l0.058,0.09
											c0.55,0.855,0.296,1.997-0.565,2.539l-0.037,0.023c-0.992,0.623-1.15,2.005-0.326,2.837l0.076,0.077
											c0.716,0.723,0.705,1.892-0.025,2.603l-0.03,0.03c-0.84,0.815-0.708,2.2,0.271,2.844l0.089,0.058
											c0.851,0.56,1.084,1.705,0.516,2.55l-0.023,0.036c-0.652,0.973-0.235,2.3,0.857,2.727l0.101,0.038
											c0.949,0.369,1.414,1.442,1.035,2.388l-0.016,0.038c-0.436,1.088,0.249,2.3,1.405,2.487l0.105,0.018
											c1.005,0.164,1.682,1.118,1.509,2.12l-0.007,0.041c-0.2,1.154,0.72,2.197,1.891,2.142l0.107-0.004
											c1.017-0.049,1.878,0.742,1.916,1.758l0.002,0.043c0.044,1.171,1.162,1.999,2.295,1.702l0.103-0.027
											c0.984-0.259,1.991,0.335,2.241,1.322l0.01,0.041c0.287,1.137,1.553,1.715,2.599,1.188l0.096-0.049
											c0.909-0.459,2.018-0.085,2.467,0.828l0.019,0.038c0.517,1.052,1.875,1.353,2.789,0.621l0.083-0.068
											c0.793-0.636,1.955-0.504,2.584,0.297l0.026,0.034c0.724,0.921,2.116,0.934,2.857,0.027l0.067-0.083
											c0.644-0.787,1.809-0.9,2.59-0.248l0.033,0.028c0.9,0.749,2.264,0.474,2.8-0.567l0.049-0.097
											c0.467-0.904,1.582-1.254,2.482-0.778l0.037,0.02c1.037,0.546,2.313-0.007,2.622-1.138l0.028-0.103
											c0.268-0.983,1.286-1.557,2.266-1.279l0.041,0.011c1.127,0.319,2.261-0.487,2.328-1.656l0.006-0.106
											c0.058-1.018,0.934-1.79,1.95-1.724l0.043,0.004c1.169,0.077,2.109-0.947,1.932-2.105l-0.017-0.104
											c-0.154-1.007,0.542-1.945,1.549-2.091l0.042-0.006c1.16-0.167,1.867-1.366,1.452-2.46l-0.038-0.101
											c-0.361-0.951,0.125-2.016,1.081-2.366l0.04-0.015c1.1-0.405,1.542-1.724,0.909-2.71l-0.059-0.089
											c-0.55-0.857-0.296-1.999,0.565-2.541l0.036-0.023c0.991-0.623,1.15-2.006,0.325-2.838l-0.075-0.074
											c-0.717-0.724-0.706-1.893,0.024-2.603L379.503,267.49z"/>
									</g>
								</g>
							</g>
						</g>
					</g>
					<g id="XMLID_84_">
						<g id="XMLID_109_">
							<g id="XMLID_110_">
								<g>
									<path fill="#FFFFFF" d="M344.561,256.552c-4.05,0-6.64,3.211-6.64,7.441c0,4.45,2.845,7.149,6.457,7.149
										c3.43,0,6.566-2.59,6.566-7.55C350.944,259.541,348.646,256.552,344.561,256.552z M344.486,268.115
										c-1.603,0-2.443-1.788-2.443-4.269c0-2.37,0.767-4.267,2.408-4.267c1.714,0,2.37,1.86,2.37,4.267
										C346.821,266.51,346.057,268.115,344.486,268.115z"/>
									<path fill="#FFFFFF" d="M361.633,266.399c-4.05,0-6.64,3.211-6.64,7.442c0.037,4.45,2.882,7.15,6.457,7.15
										c3.429,0,6.565-2.59,6.565-7.55C368.015,269.391,365.718,266.399,361.633,266.399z M361.56,277.962
										c-1.605,0-2.444-1.785-2.407-4.267c0-2.372,0.729-4.267,2.407-4.267c1.713,0,2.334,1.858,2.334,4.267
										C363.894,276.358,363.128,277.962,361.56,277.962z"/>
									<polygon fill="#FFFFFF" points="344.67,281.065 347.625,281.065 361.267,256.552 358.276,256.552 									"/>
								</g>
							</g>
						</g>
					</g>
				</g>
			</g>
			<g>
				<path fill="#FCD2C5" d="M462.057,297.36c0.092,2.938,12.303,64.847,12.303,64.847c0.055,0.122,2.549,0.117,3.97-1.318
					c0,0-2.832-61.574-2.853-62.853C474.539,299.175,463.859,298.471,462.057,297.36z"/>
				<path fill="#272063" d="M472.091,267.428c-5.609,1.389-11.178,2.776-16.844,3.719l0.399,3.842
					c1.72,1.088,3.279,20.197,8.24,40.001c5.748,22.943,9.821,45.271,9.821,45.271c1.42-1.421,3.618-1.534,4.984-0.666
					c0,0-0.993-62.494-1.935-93.383C475.279,266.639,473.727,267.022,472.091,267.428z"/>
				<path fill="#FFBB00" d="M479.196,360.705c-0.667-0.642-0.917-0.971-0.917-0.971s-3.133-0.74-4.099,1.558
					c0,0,0.004,2.705,0.73,3.681c0.419,0.561,2.817,3.093,3.996,3.631c0.946,0.433,2.416,0.375,4.073,0.137
					c1.657-0.241,3.609-1.325,3.508-2.296C486.289,364.522,480.478,361.94,479.196,360.705z"/>
				<path fill="#FFBB00" d="M478.402,362.167c-1.621-1.133-4.41,0.819-2.521,3.435c0.346,0.478,2.373,2.605,3.367,3.06
					c0.795,0.362,2.033,0.313,3.428,0.113c1.396-0.203,3.039-1.116,2.954-1.934C485.46,365.223,480.075,363.332,478.402,362.167z"/>
				<g>
					<path fill="#FCD2C5" d="M381.813,233.573c-0.272,0.316,0.834,1.771,1.217,1.926c1.033,0.096,1.085-0.508,2.041-0.277
						c-0.801-0.32-1.576-0.832-2.245-1.387C382.478,233.506,382.191,233.05,381.813,233.573z"/>
					<path fill="#FCD2C5" d="M382.778,234.893c-1.221-0.125-3.976-0.1-4.169-0.098c-0.56,0.038-1.975-0.051-2.389,0.104
						c-0.265,0.098-0.871,0.666-0.969,0.998c-0.13,0.444,0.292,0.73,0.292,0.73c-0.279,0.531,1.163,0.964,1.067,1.077
						c-0.396,0.469,0.124,1.154,2.28,1.082c0.13-0.004,5.462,0.869,7.189,1.005c0.171-1.056-0.228-4.393-0.28-4.412
						C384.845,235.151,383.811,234.991,382.778,234.893z"/>
					<path fill="#FCD2C5" d="M416.402,232.299c-0.354-0.111-0.695-0.16-0.981-0.156c-5.221,0.118-24.473,3.909-29.933,3.166
						c0.135,1.788,0.127,3.286-0.095,4.406c9.005,1.043,31.72,1.111,33.132-2.225C419.821,234.435,417.968,232.786,416.402,232.299z
						"/>
					<path fill="#FCD2C5" d="M434.359,211.074c-3.919,2.825-13.776,14.902-19.6,19.781c-7.145,5.984-0.419,8.83,2.329,7.718
						c7.238-2.933,25.701-14.422,24.57-18.33C441.167,218.549,435.07,210.564,434.359,211.074z"/>
					<path fill="#FEBB00" d="M434.5,207.656c-4.038,5.125-6.318,7.785-10.018,11.785c-3.719,4.021-7.564,8.18-10.427,10.575
						c-0.492,0.414-0.935,0.826-1.339,1.246c-2.238,0.245-5.238,0.681-8.402,1.142c-6.913,1.002-15.514,2.253-18.68,1.822
						l-0.368,6.573c7.923,0.92,26.675,1.148,32.314-1.248c5.886-2.404,19.749-10.003,24.982-13.001
						C444.174,225.628,434.746,207.349,434.5,207.656z"/>
				</g>
				<path fill="#FCD2C5" d="M440.144,300.08c0.113,1.273,3.669,62.81,3.669,62.81c1.564,1.282,4.044,1.028,4.086,0.9
					c0,0,5.735-62.839,5.524-65.771C451.746,299.31,441.195,301.117,440.144,300.08z"/>
				<path fill="#272063" d="M434.641,251.813c-0.609,4.369,8.68,109.828,8.68,109.828c1.27-1.002,3.464-1.12,5.025,0.146
					c0,0,1.738-22.629,5.081-46.043c2.884-20.21,2.455-39.379,4.055-40.64v-21.422C449.275,254.222,437.363,253.006,434.641,251.813
					z"/>
				<path fill="#EDF5F8" d="M463.887,256.616c-8.179,1.024-16.376,1.073-24.6,1.242c-1.898,0.039-3.76,0.072-5.579,0.006
					c0.209,6.859-0.351,11.058,0.498,17.063c16.168,2.688,33.834,3.775,40.677,1.555c1.232-0.398,4.51-1.828,4.67-2.24
					c0.186-6.317-0.505-13.85-1.594-21.406C473.663,254.74,468.948,255.982,463.887,256.616z"/>
				<path fill="#FCD2C5" d="M455.564,188.583c-0.57,0.42-6.494,3.699-8.184,3.441c0.013,0.469,1.361,4.375,0.265,7.038
					c0.468,2.479,7.48,4.559,9.38,0.365C456.236,198.23,455.229,190.866,455.564,188.583z"/>
				<path fill="#FCD2C5" d="M449.36,180.357c-3.109-0.215-6.121,0.503-6.813,3.441c-0.248,1.051,0.195,10.552,5.262,11.996
					c2.143,0.61,6.263-3.051,6.436-5.547c0,0,0.236-3.403,0.24-3.437C454.711,183.501,452.704,180.59,449.36,180.357z"/>
				<path fill="#FEBB00" d="M456.779,198.879c0,0-1.765,1.841-4.675,1.655c-3.24-0.207-4.459-1.472-4.459-1.472
					s-6.044,2.161-7.72,2.829c-5.03,2.005-6.159,6.242-5.727,10.814c0.104,1.109-3.733,37.124-0.421,60.562
					c0.785-0.056,2.82-0.088,3.816-0.109l0.742-15.208l3.231,15.185c10.373,0.058,26.024,0.783,33.009-0.942l0.293-13.78
					l2.148,12.871c0.526-0.313,2.069-0.917,2.23-1.331c0.628-21.558-4.525-52.9-5.186-55.539
					C470.173,198.879,456.779,198.879,456.779,198.879z"/>
				<path fill="#FFBB00" d="M443.749,361.738c0,0-0.217,0.352-0.813,1.058c-1.149,1.363-6.66,4.534-6.66,6.467
					c0,0.975,2.053,1.852,3.726,1.918c1.675,0.066,3.142-0.028,4.038-0.555c1.115-0.659,3.24-3.427,3.599-4.028
					c0.623-1.045,0.347-3.735,0.347-3.735C446.785,360.677,443.749,361.738,443.749,361.738z"/>
				<path fill="#FFBB00" d="M443.875,364.167c-1.543,1.333-6.705,3.771-6.705,5.399c0,0.821,1.729,1.56,3.138,1.615
					c1.41,0.058,2.646-0.021,3.399-0.467c0.941-0.555,2.738-2.881,3.03-3.393C448.346,364.526,445.372,362.875,443.875,364.167z"/>
				<path fill="#FF4745" d="M455.894,176.622c-4.853-3.834-13.074-0.17-15.244,4.811c-1.619,3.716-3.105,1.125-2.948,0.14
					c-0.494,2.472,0.542,4.617,5.323,4.276c1.005-0.07-2.225,0.913-2.225,0.913s5.065,10.605,12.961,8.043
					c2.347-0.762,4.396-3.044,4.396-3.044s-2.559,0.414-1.202-1.664C459.583,186.064,460.177,180.005,455.894,176.622z"/>
			</g>
			<g>
				<g>
					<path fill="#FCD2C5" d="M615.149,267.59c-0.867,0.006-1.792-0.085-2.617-0.339c0.888,0.422,0.548,0.926,1.412,1.5
						c0.396,0.122,2.17-0.312,2.157-0.728C616.137,267.379,615.626,267.554,615.149,267.59z"/>
					<path fill="#FCD2C5" d="M617.819,270.993c-0.148-0.124-2.272-1.879-3.299-2.551c-0.863-0.576-1.769-1.103-2.652-1.525
						c-0.054-0.021-2.467,2.319-2.999,3.247c1.429,0.981,6.118,3.665,6.217,3.75c1.629,1.414,2.462,1.212,2.452,0.6
						c-0.004-0.151,1.39,0.422,1.507-0.167c0,0,0.509,0.045,0.687-0.382c0.134-0.319,0.02-1.144-0.122-1.387
						C619.384,272.196,618.231,271.375,617.819,270.993z"/>
					<path fill="#FCD2C5" d="M589.485,217.44c-0.229-0.847-9.996,1.513-11.447,2.518c-3.341,2.321,3.755,22.876,7.525,29.716
						c1.433,2.597,8.449,4.625,6.674-4.525C590.79,237.69,590.748,222.102,589.485,217.44z"/>
					<path fill="#FCD2C5" d="M590.909,245.733c-0.219-0.186-0.514-0.36-0.858-0.497c-1.522-0.61-4.002-0.497-4.922,2.69
						c-1.005,3.482,16.675,17.744,24.323,22.61c0.533-1.009,1.472-2.176,2.703-3.481
						C607.447,264.191,594.89,249.115,590.909,245.733z"/>
					<path fill="#01D06A" d="M598.532,252.407c-2.079-2.321-4.05-4.523-5.567-6.104c-0.039-0.567-0.113-1.15-0.223-1.769
						c-0.642-3.58-0.918-9.09-1.184-14.422c-0.264-5.301-0.516-10.309-1.123-12.692c-0.095-0.369-0.364-0.672-0.742-0.83
						c-1.651-0.689-10.572,1.496-12.069,2.502c-4.473,3.012,3.627,24.888,6.523,30.365c2.719,5.314,16.878,16.865,23.374,21.131
						l3.834-5.144C608.718,263.788,603.071,257.478,598.532,252.407z"/>
				</g>
				<path fill="#FEBB00" d="M506.255,345.884c0,0-1.31,0.02-2.026,1c-0.413,0.565-0.121,2.748-0.291,4.035
					c-0.137,1.03,0.352,2.417,1.065,3.932c0.715,1.515,2.323,3.062,3.222,2.682c1.779-0.756,0.533-6.213,1.339-7.802
					c0.418-0.826,1.141-1.927,1.141-1.927l-3.074-2.396C507.63,345.409,507.178,345.299,506.255,345.884z"/>
				<path fill="#FCD2C5" d="M506.255,345.884c0,0,0.133,2.251,0.787,2.765c1.157,0.909,2.521,1.082,2.521,1.082
					c0.665-1.223,1.37-1.903,1.37-1.903l-3.113-2.882C507.821,344.946,507.175,345.299,506.255,345.884z"/>
				<path fill="#FF4746" d="M538.049,311.351c-3.244,8.13-31.458,34.326-31.458,34.326c0.774,2.355,3.574,3.072,3.69,2.925
					c0,0,34.891-19.109,41.335-31.25c13.463-25.371,26.804-51.849,27.441-54.065c-2.972-0.017-14.35-3.752-21.628-7.582
					C557.43,255.705,545.615,292.386,538.049,311.351z"/>
				<path fill="#FCD2C5" d="M573.287,298.03c-0.213,2.929,5.523,67.955,5.523,67.955c0.043,0.126,2.522,0.38,4.085-0.9
					c0,0,3.559-63.723,3.669-64.994C585.514,301.125,574.962,299.32,573.287,298.03z"/>
				<path fill="#FEBB00" d="M583.773,364.991c-0.597-0.706-1.325-1.801-1.325-1.801l-3.408,1.893c0,0-0.277,0.376-0.101,1.453
					c0,0-0.491,1.212,0.132,2.255c0.358,0.602,2.613,1.521,3.6,1.844c0.988,0.324,2.363,0.623,4.037,0.555
					c1.672-0.066,3.725-0.943,3.725-1.918C590.432,367.337,584.923,366.352,583.773,364.991z"/>
				<path fill="#FCD2C5" d="M578.688,364.726c0,0,0.073,0.732,0.251,1.81c0,0,2.125,0.755,2.854,0.354
					c1.29-0.711,1.98-1.899,1.98-1.899c-0.865-1.088-1.215-2.005-1.215-2.005L578.688,364.726z"/>
				<path fill="#FF4746" d="M569.227,253.693v21.422c1.6,1.259,1.17,20.428,4.055,40.639c3.342,23.415,5.081,48.229,5.081,48.229
					c1.667,1.837,4.98,0.034,5.025-0.146c0,0,9.288-107.646,8.681-112.012C589.346,253.017,577.433,254.23,569.227,253.693z"/>
				<path fill="#802B52" d="M552.415,256.857c0,0-0.915,8.988-1.27,16.304c0,0,12.101,3.94,29.282,1.259l1.676-3.569l1.188,3.566
					c3.781-0.062,6.018-0.332,8.44-2.568c1.208-1.118,0.206-12.828,0.206-12.828L552.415,256.857z"/>
				<g>
					<g>
						<g>
							<polygon fill-rule="evenodd" clip-rule="evenodd" fill="#D3E1EA" points="580.496,269.928 583.921,276.79 586.517,275.495 
								584.274,270.999 							"/>
						</g>
						<g>
							<polygon fill-rule="evenodd" clip-rule="evenodd" fill="#D3E1EA" points="568.211,279.016 570.455,283.511 573.053,282.214 
								569.627,275.351 							"/>
						</g>
						<g>
							<polygon fill-rule="evenodd" clip-rule="evenodd" fill="#EDF5F8" points="569.627,275.351 568.211,279.016 584.274,270.999 
								580.496,269.928 							"/>
						</g>
						<g>
							<polygon fill-rule="evenodd" clip-rule="evenodd" fill="#EDF5F8" points="564.546,285.193 583.131,329.378 615.551,313.196 
								591.415,271.782 							"/>
						</g>
					</g>
					<g>
						<g>
							<polygon fill-rule="evenodd" clip-rule="evenodd" fill="#EDF5F8" points="582.178,283.71 585.243,284.367 586.78,277.199 
								584.527,272.763 							"/>
						</g>
						<g>
							<polygon fill-rule="evenodd" clip-rule="evenodd" fill="#EDF5F8" points="566.292,280.303 569.358,280.96 571.707,270.014 
								567.83,273.134 							"/>
						</g>
						<g>
							<polygon fill-rule="evenodd" clip-rule="evenodd" fill="#FFFFFF" points="571.707,270.014 567.83,273.134 586.78,277.199 
								584.527,272.763 							"/>
						</g>
						<g>
							<polygon fill-rule="evenodd" clip-rule="evenodd" fill="#FFFFFF" points="549.821,310.044 588.066,318.25 591.964,284.116 
								560.268,277.316 							"/>
						</g>
					</g>
				</g>
				<path fill="#FCD2C5" d="M578.434,200.49c-1.685,0.292-7.673-2.865-8.252-3.272c0.383,2.276-0.135,8.643-0.896,9.856
					c1.983,4.154,8.848,3.989,9.264,1.502C577.399,205.937,578.43,200.959,578.434,200.49z"/>
				<path fill="#01D06A" d="M590.506,220.866c0.497-3.424-0.485-7.606-4.785-9.978c-1.108-0.612-7.172-2.313-7.172-2.313
					s-1.381,1.833-3.058,1.747c-2.444-0.124-6.206-3.249-6.206-3.249s-5.178,1.544-6.922,2.003c-5.238,1.378-6.737,5.453-7,10.038
					c-0.096,1.715-8.674,35.434-3.296,40.851c4.064,4.092,35.341,4.262,40.102,1.869
					C595.66,260.081,588.771,232.805,590.506,220.866z"/>
				<path fill="#01B85E" d="M565.449,233.716c-0.013-6.661-1.366-13.003-0.518-19.303c-0.521,0.519-1.129,0.941-1.829,1.254
					c-10.771,2.98-10.616,25.853-8.517,32.56c1.46,4.67,6.912,10.706,13.071,15.852
					C563.974,255.658,565.467,242.968,565.449,233.716z"/>
				<g>
					<path fill="#FCD2C5" d="M579.375,271.112c-0.826-0.262-1.678-0.636-2.381-1.133c0.712,0.676,0.232,1.047,0.875,1.862
						c0.338,0.239,2.16,0.377,2.277-0.021C580.381,271.219,579.84,271.228,579.375,271.112z"/>
					<path fill="#FCD2C5" d="M580.859,275.176c-0.104-0.164-1.577-2.491-2.344-3.45c-0.643-0.815-1.338-1.596-2.051-2.274
						c-0.042-0.034-3.063,1.442-3.855,2.159c1.052,1.376,4.677,5.382,4.743,5.494c1.109,1.85,1.968,1.916,2.146,1.329
						c0.041-0.143,1.189,0.832,1.483,0.312c0,0,0.47,0.198,0.771-0.151c0.228-0.263,0.374-1.079,0.314-1.356
						C581.973,276.806,581.131,275.667,580.859,275.176z"/>
					<path fill="#FCD2C5" d="M558.876,214.316c-3.896,1.169-3.528,22.913-2.065,30.584c0.556,2.912,6.595,7.017,7.746-2.231
						c0.938-7.54,5.737-22.373,5.983-27.197C570.583,214.598,560.569,213.809,558.876,214.316z"/>
					<path fill="#FCD2C5" d="M562.454,242.074c-1.26-1.052-3.65-1.713-5.514,1.031c-2.035,2.997,10.344,22.042,16.104,29.04
						c0.82-0.794,2.076-1.613,3.65-2.469c-3.586-4.184-10.845-22.414-13.58-26.864C562.964,242.569,562.737,242.311,562.454,242.074
						z"/>
					<path fill="#01D06A" d="M564.499,243.664c0.14-0.552,0.249-1.128,0.336-1.749c0.501-3.604,6.061-24.037,6.222-26.491
						c0.026-0.382-0.139-0.753-0.447-1.02c-1.358-1.167-10.514-1.858-12.252-1.365c-5.186,1.474-4.272,24.784-3.218,30.89
						c0.935,5.895,10.81,21.268,15.662,27.34l5.24-3.699c-1.991-2.394-5.404-10.145-8.144-16.374
						C566.641,248.342,565.452,245.639,564.499,243.664z"/>
				</g>
				<path fill="#272063" d="M584.201,204.458c0.576-3.507-0.005-6.818-1.157-9.528c-1.646-2.159-7.414,4.783-7.463,4.869
					c0.963,2.182,3.276,4.382,2.969,7.275c-0.299,2.814-1.284,4.083,0.854,10.5c3.071,9.223-1.143,19.625,0.924,20.573
					c1.884,0.862,7.629-4.627,7.659-15.082c0.008-1.792-0.359-5.54-1.994-8.179C585.007,213.301,583.359,209.584,584.201,204.458z"
					/>
				<path fill="#FCD2C5" d="M576.704,188.319c-3.336,0.301-5.774,3.799-5.478,7.104c0.003,0.034,0.309,3.431,0.309,3.431
					c0.226,2.492,4.42,6.067,6.549,5.413c5.038-1.549,5.284-11.053,5.015-12.101C582.347,189.243,579.809,188.039,576.704,188.319z"
					/>
				<path fill="#272063" d="M581.347,185.537c-1.722-0.813-3.227-0.375-3.227-0.375s-0.092-0.561-3.159-1.647
					c-2.452-0.868-6.813-0.537-9.8,3.275c-2.988,3.81-4.651,9.404-2.43,15.026c2.221,5.619,0.341,10.1-0.896,12.062
					c-2.054,3.264-1.945,7.55-1.615,9.566c1.928,11.764,11.8,16.912,14.555,15.604c3.025-1.44-5.362-12.393-2.271-23.329
					c2.153-7.61-0.433-9.748-1.402-12.86c-1.27-4.079,0.131-9.596,1.726-11.71c1.754-2.323,5.565-2.938,5.565-2.938
					s5.576,1.073,4.178,9.946C585.27,195.468,585.069,187.295,581.347,185.537z"/>
				<path fill="#FCD2C5" d="M569.598,196.095c-0.014,0.817,0.951,2.078,1.755,2.313c0.354-0.898,1.074-2.714,1.368-3.849
					c-0.46-0.316-1.069-0.446-1.398-0.45C570.459,194.092,569.613,195.233,569.598,196.095z"/>
			</g>
			<g>
				<g>
					<g>
						<g>
							<path fill-rule="evenodd" clip-rule="evenodd" fill="#FF4746" d="M505.009,164.596c-7.694,0-16.071,5.956-16.071,15.892
								c0,15.121,16.11,31.101,16.11,31.101s16.108-16.24,16.108-31.101C521.157,170.551,512.267,164.596,505.009,164.596z
								 M505.156,189.789c-5.082,0-9.324-4.241-9.324-9.325s4.242-9.325,9.324-9.325c5.083,0,9.327,4.242,9.327,9.325
								S510.239,189.789,505.156,189.789z"/>
						</g>
					</g>
				</g>
			</g>
		</g>
	</g>
</g>
</svg>
