<?xml version="1.0" encoding="utf-8"?>
<!-- Generator: Adobe Illustrator 16.0.0, SVG Export Plug-In . SVG Version: 6.00 Build 0)  -->
<!DOCTYPE svg PUBLIC "-//W3C//DTD SVG 1.1//EN" "http://www.w3.org/Graphics/SVG/1.1/DTD/svg11.dtd">
<svg version="1.1" xmlns="http://www.w3.org/2000/svg" xmlns:xlink="http://www.w3.org/1999/xlink" x="0px" y="0px" width="500px"
	 height="500px" viewBox="0 0 500 500" enable-background="new 0 0 500 500" xml:space="preserve">
<g id="BACKGROUND">
	<rect fill="#4B45E6" width="500" height="500"/>
</g>
<g id="OBJECTS">
	<g>
		<g>
			<path fill="#625CFF" d="M355.467,111.437c-0.175-9.699-8.087-17.509-17.828-17.509c-1.905,0-3.738,0.302-5.459,0.854
				c-1.566-10.394-10.534-18.361-21.364-18.361c-7.237,0-13.639,3.562-17.561,9.024c-2.385-1.183-5.071-1.852-7.914-1.852
				c-8.809,0-16.121,6.387-17.571,14.782c-0.788-0.106-1.59-0.167-2.407-0.167c-8.256,0-15.2,5.611-17.232,13.228H355.467z"/>
			<path fill="#625CFF" d="M83.085,141.525c0.163-8.967,7.477-16.187,16.482-16.187c1.761,0,3.456,0.279,5.047,0.79
				c1.448-9.609,9.739-16.975,19.751-16.975c6.69,0,12.609,3.293,16.234,8.343c2.205-1.094,4.688-1.712,7.316-1.712
				c8.144,0,14.904,5.905,16.244,13.666c0.729-0.099,1.47-0.154,2.225-0.154c7.633,0,14.052,5.188,15.931,12.229H83.085z"/>
			<path fill="#7973FF" d="M182.736,89.707c-7.622,3.216-14.599,7.773-20.302,13.779c-12.555,13.221-15.728,32.163-26.332,46.657
				c-10.526,14.388-29.492,14.458-44.94,20.549c-30.564,12.051-47.643,50.53-28.021,78.87c6.295,9.092,14.853,16.35,23.502,23.242
				c5.33,4.247,10.804,8.467,14.899,13.914s6.708,12.4,5.44,19.097c-0.828,4.377-3.211,8.272-5.381,12.163
				c-3.008,5.393-5.721,11.096-6.514,17.22c-1.555,12.005,5.269,24.638,16.161,29.92c18.551,8.997,44.572-8.074,62.895-12.507
				c30.607-7.405,62.659-8.785,93.79-4.037c33.364,5.089,65.283,16.544,99.251,16.889c19.201,0.195,39.232-4.773,53.346-17.794
				c14.113-13.021,20.616-35.196,11.902-52.308c-6.787-13.328-20.179-25.485-33.605-31.251
				c-14.076-6.045-27.06-18.355-31.783-33.208c-7.819-24.662,12.46-41.284,28.777-55.794c54.176-48.177,15.741-75.867-10.543-75.084
				c-18.651,0.556-37.141,4.246-55.825,4.965c-25.179,0.969-44.15-3.495-67.874-11.771c-16.607-5.793-34.022-10.132-51.596-9.421
				C200.683,84.173,191.302,86.093,182.736,89.707z"/>
			<path fill="#A5A1FF" d="M262.17,179.167c-0.175-9.699-8.087-17.509-17.828-17.509c-1.905,0-3.738,0.301-5.459,0.854
				c-1.566-10.394-10.534-18.361-21.365-18.361c-7.237,0-13.639,3.562-17.56,9.024c-2.385-1.183-5.071-1.852-7.914-1.852
				c-8.809,0-16.121,6.387-17.571,14.782c-0.788-0.106-1.59-0.166-2.407-0.166c-8.257,0-15.2,5.611-17.232,13.228H262.17z"/>
			<path fill="#A5A1FF" d="M158.816,228.214c-2.915-5.162-8.442-8.654-14.793-8.654c-3.715,0-7.141,1.207-9.936,3.229
				c-3.416-7.571-11.025-12.844-19.871-12.844c-0.892,0-1.77,0.06-2.634,0.164c-2.155-7.495-9.049-12.984-17.237-12.984
				c-9.074,0-16.555,6.74-17.76,15.483c-3.102-1.697-6.66-2.663-10.445-2.663c-10.835,0-19.82,7.909-21.506,18.269H158.816z"/>
			<path fill="#A5A1FF" d="M331.362,167.894c3.4-6.022,9.85-10.096,17.259-10.096c4.334,0,8.331,1.407,11.593,3.768
				c3.985-8.833,12.863-14.986,23.184-14.986c1.041,0,2.065,0.07,3.073,0.191c2.514-8.745,10.557-15.149,20.111-15.149
				c10.586,0,19.315,7.864,20.72,18.064c3.619-1.979,7.771-3.107,12.186-3.107c12.643,0,23.125,9.228,25.092,21.314H331.362z"/>
		</g>
		<ellipse fill="#3D39A8" cx="250.162" cy="395.388" rx="206.321" ry="28.191"/>
		<g>
			<path fill="#FFFFFF" d="M208.502,269.448V371.98c0,4.518,3.663,8.18,8.181,8.18h4.249c4.693,0,14.395,10.844,29.044,10.844
				c14.648,0,117.95-0.063,133.296-0.063s26.634-21.308,20.927-29.171s-6.468-6.342-6.468-10.273s18.136-8.814,18.136-22.417
				c0-13.602-7.99-12.317-7.99-16.218c0-3.899,18.073-7.657,18.073-22.687s-7.039-13-7.039-16.805s17.629-9.639,17.629-19.215
				c0-9.575,1.11-21.053-21.149-21.053c-22.258,0-102.16,0-102.16,0s10.857-25.046,10.857-49.968s-2.986-38.819-16.423-41.805
				c-13.438-2.986-21.249,7.389-25.382,26.875c-10.451,49.271-38.49,68.988-48.478,78.976c-6.711,6.711-15.827,12.219-21.086,15.112
				C210.11,263.728,208.502,266.472,208.502,269.448z"/>
			<path fill="#FFFFFF" d="M187.749,257.009h-61.261c-7.825,0-13.985,6.676-13.358,14.475l8.473,105.357
				c0.56,6.962,6.373,12.326,13.358,12.326h52.789c7.401,0,13.4-6,13.4-13.4V270.409
				C201.149,263.009,195.15,257.009,187.749,257.009z M178.127,374.642c-5.884,0-10.654-4.77-10.654-10.653
				s4.77-10.653,10.654-10.653c5.884,0,10.653,4.77,10.653,10.653S184.011,374.642,178.127,374.642z"/>
		</g>
		<g>
			<g>
				<path fill="#171717" d="M270.109,397.146c0,0-0.437,17.122-6.653,18.488s-12.056-2.428-9.997-7.335
					c2.059-4.908,8.207-12.911,8.207-12.911L270.109,397.146z"/>
				<path fill="#FFB4A8" d="M269.145,398.036c0,0-1.582,8.96-3.517,10.451c-2.451,1.889-1.371-1.586-4.506-2.03
					c-3.439-0.487-4.424,0.267-3.934-1.51c0.49-1.775,5.023-8.348,5.023-8.348L269.145,398.036z"/>
			</g>
			<g>
				<path fill="#171717" d="M267.152,397.163c0,0,0.437,17.295,6.653,18.675s12.056-2.452,9.997-7.409
					c-2.059-4.958-8.207-13.041-8.207-13.041L267.152,397.163z"/>
				<path fill="#FFB4A8" d="M268.117,398.063c0,0,1.582,9.05,3.516,10.556c2.451,1.908,1.371-1.602,4.506-2.051
					c3.439-0.492,4.424,0.27,3.934-1.524s-5.022-8.433-5.022-8.433L268.117,398.063z"/>
			</g>
			<g>
				<path fill="#B83416" d="M262.227,273.562c-5.516,3.031-9.853,10.875-10.644,17.523c-0.322,2.701-0.237,5.633-1.798,7.861
					c-0.779,1.112-1.898,1.93-2.903,2.844c-1.005,0.913-1.948,2.013-2.18,3.352c-0.233,1.338,0.507,2.919,1.838,3.188
					c-1.615,2.154-1.906,5.206-1.09,7.772c0.815,2.566,2.575,4.747,4.614,6.506c6.016,5.188,14.393,6.923,22.326,6.492
					c3.921-0.214,7.875-0.928,11.379-2.701s6.533-4.694,7.875-8.385c1.341-3.691,0.775-8.155-1.886-11.042
					c1.854-1.213,2.704-4.028,2.513-6.235c-0.191-2.207-1.196-4.256-2.27-6.193s-2.249-3.854-2.836-5.991
					c-0.733-2.671-0.502-5.516-1.038-8.232c-0.536-2.718-2.719-6.986-6.078-7.475c-2.083-0.304-2.957,2.131-5,2.643
					C271.098,276.477,266.136,274.7,262.227,273.562z"/>
				<g>
					<g>
						<g>
							<path fill="#FFB4A8" d="M259.719,310.173c2.205,0,3.992-2.071,3.992-4.626V286.64h13.388v18.907
								c0,2.555,1.787,4.626,3.992,4.626h0.209c2.089,0,3.783,1.963,3.783,4.385v19.561h-29.146v-19.561
								C255.937,312.136,257.63,310.173,259.719,310.173z"/>
						</g>
					</g>
				</g>
				<path fill="#EBA59A" d="M270.386,311.438c2.079,0,5.743-3.379,6.713-5.344V286.64h-13.388v18.649
					C263.711,305.66,267.853,311.438,270.386,311.438z"/>
				<path fill="#AE3F9D" d="M250.394,330.685c3.076-14.534,0.83-18.578,3.136-19.884c1.706-0.966,8.135-1.215,8.135-1.215
					s2.419,6.779,8.7,6.779s8.525-6.963,8.525-6.963s7.186,0.733,8.814,1.613c2.332,1.261-0.444,5.135,2.632,19.669
					c1.927,9.106-17.973,10.901,0.186,43.328c-4.764,3.531-35.551,3.531-40.314,0C264.93,339.964,248.467,339.791,250.394,330.685z"
					/>
				<g>
					<g>
						<g>
							<path fill="#FFB4A8" d="M271.551,339.627c0,0,13.716,13.846,19.921,13.359c6.849-0.536,7.18-7.792,7.178-10.564
								c-0.004-7.913-2.248-21.491-2.248-21.491l-6.894,5.76l0.51,17.759c0,0-3.552-1.289-13.399-9.197
								C274.875,335.772,271.551,339.627,271.551,339.627z"/>
						</g>
					</g>
				</g>
				<path fill="#852F78" d="M284.151,310.075c0,0,8.124,0.664,10.538,4.825c3.099,5.344,5.666,20.257,5.666,20.257
					s0.879,1.319-3.117,2.807c-4.771,1.775-9.166,0.565-9.166,0.565s-1.906-12.034-2.715-18.418
					C284.555,313.775,284.151,310.075,284.151,310.075z"/>
				<g>
					<path fill="#EBA59A" d="M280.872,293.87c-0.286,2.115-0.59,3.817,0.672,4.03s3.171-0.963,3.843-2.966
						c0.706-2.103,0.051-4.108-1.211-4.321C282.914,290.4,281.158,291.755,280.872,293.87z"/>
					<path fill="#EBA59A" d="M260.766,293.85c0.282,2.115,0.583,3.818-0.68,4.028c-1.263,0.211-3.169-0.969-3.838-2.973
						c-0.702-2.104-0.043-4.108,1.219-4.318C258.73,290.376,260.484,291.734,260.766,293.85z"/>
					<path fill="#FFB4A8" d="M268.713,275.661c0.688-0.087,1.417-0.132,2.187-0.131c9.485,0.01,12.754,6.833,11.719,16.786
						c-0.928,8.923-7.067,16.757-12.055,16.752c-4.367-0.004-10.5-7.852-11.413-16.775
						C258.216,283.145,260.911,276.647,268.713,275.661"/>
				</g>
				<g>
					<path fill="#E3E3E3" d="M268.643,318.676l6.33,0.193c0.682,0.021,1.219,0.592,1.198,1.274l-0.438,14.295
						c-0.021,0.683-0.591,1.219-1.274,1.198l-6.33-0.194c-0.682-0.021-1.219-0.591-1.198-1.273l0.438-14.296
						C267.39,319.19,267.96,318.654,268.643,318.676z"/>
					<circle fill="#333333" cx="271.722" cy="321.572" r="0.641"/>
					<circle fill="#333333" cx="271.685" cy="322.774" r="0.392"/>
				</g>
				<path fill="#FFB4A8" d="M276.268,327.905c-0.993-0.575-2.099,2.365-2.336,3.491c-0.246,1.17-1.668,1.784-2.836,1.532
					c-1.168-0.251-2.097-1.124-2.873-2.033c-0.775-0.909-0.897-2.216-1.888-2.884c-0.766-0.518-2.125,1.54-2.758,2.586
					c-1.605,2.649,2.538,6.529,4.26,7.766c1.733,1.243,4.91,2.893,7.042,2.82c3.684-0.125,4.438-3.188,3.221-6.181
					C276.672,331.492,277.574,328.663,276.268,327.905z"/>
				<g>
					<path fill="#B83416" d="M248.896,354.384c0,0-10.684,38.94,18.697,38.94c36.154,0,22.399-39.627,22.399-39.627L267.5,379.665
						L248.896,354.384z"/>
					<path fill="#EA421C" d="M269.519,398.212c0,0,31.717-39.593,23.611-49.876c-10.229-12.976-17.886,5.425-23.767,19.398
						c-3.896,9.257-9.063,28.225-9.063,28.225L269.519,398.212z"/>
					<path fill="#B83416" d="M268.516,397.968c0.365-0.382,0.629-0.662,0.629-0.662l-4.68-11.578
						c-0.477,0.025-0.963,0.306-1.445,0.756c-1.596,5.345-2.721,9.476-2.721,9.476L268.516,397.968z"/>
					<path fill="#B83416" d="M272.156,361.216c-0.973,2.191-1.904,4.405-2.793,6.519c-0.88,2.092-1.825,4.68-2.761,7.432
						l4.949,18.814l1.98-1.012c1.007-1.354,2.151-2.922,3.375-4.647L272.156,361.216z"/>
					<path fill="#EA421C" d="M267.5,398.783c0,0-28.407-42.031-19.494-51.625c11.247-12.104,17.387,6.856,22.118,21.26
						c3.134,9.543,6.748,28.866,6.748,28.866L267.5,398.783z"/>
				</g>
				<path fill="#FFB4A8" d="M243.533,331.562c0,0-4.859,20.403,1.693,21.203c2.062,0.251,22.896,2.775,27.626,3.124
					c1.606,0.118,3.212,0.235,4.818,0.351c0.429,0.03,0.912,0.005,1.333,0.095c0.709,0.151,1.418,0.644,2.078,0.965
					c0.947,0.463,1.895,0.926,2.842,1.388c1.342,0.655,2.694,1.314,4.136,1.707c1.441,0.394,2.993,0.508,4.421,0.069
					c1.428-0.438,2.711-1.486,3.2-2.898c0.488-1.411,0.041-3.158-1.202-3.986c-0.768-0.512-1.721-0.639-2.584-0.965
					c-0.599-0.226-1.16-0.552-1.653-0.96c-0.19-0.157-0.373-0.329-0.504-0.538c-0.156-0.249-0.231-0.538-0.354-0.806
					c-0.518-1.127-1.814-1.712-3.051-1.807s-2.465,0.201-3.696,0.349c-3.397,0.407-6.795-0.054-10.165-0.55
					c-4.491-0.662-8.966-1.435-13.436-2.223c-2.447-0.432-4.892-0.87-7.334-1.323l0.938-11.72L243.533,331.562z"/>
				<path fill="#FFB4A8" d="M280.535,348.986c3.597-0.424,7.173-1.017,10.714-1.777c0.147-0.031,0.305-0.063,0.445-0.006
					c0.178,0.073,0.272,0.27,0.315,0.458c0.111,0.493-0.042,1.039-0.396,1.402c-0.518,0.532-1.376,0.646-1.847,1.222
					c-0.398,0.487-0.395,1.258,0.008,1.741c-1.341,0.291-2.745,0.183-4.083-0.125c-1.337-0.308-2.622-0.809-3.9-1.309
					c-0.263-0.103-0.53-0.208-0.755-0.379s-0.407-0.42-0.432-0.701"/>
				<path fill="#852F78" d="M255.937,310.158c0,0-7.681,0.853-9.82,5.065c-2.747,5.409-4.646,20.363-4.646,20.363
					s-0.786,1.339,3.057,2.73c4.589,1.662,8.712,0.352,8.712,0.352s1.376-12.063,1.914-18.459
					C255.687,313.863,255.937,310.158,255.937,310.158z"/>
				<path fill="#B83416" d="M278.326,285.248c-0.185,2.035-1.122,3.994-2.59,5.415c-0.655,0.633-1.431,1.172-2.315,1.391
					c-0.884,0.219-1.886,0.081-2.583-0.507c-0.696-0.588-0.993-1.659-0.563-2.462c-0.606,1.255-1.351,2.407-2.269,3.457
					c-0.918,1.049-2.177,1.872-3.567,1.974c-0.657,0.049-3.424-1.254-2.376-5.221c-2.02,2.833-0.972,8.558-1.68,10.383
					c-2.904-3.908-5.499-14.534-3.787-19.093c1.712-4.559,5.843-8.127,10.602-9.158c2.853-0.618,6.202-0.2,8.073,2.04
					c2.025-1.517,5.017-1.106,6.867,0.619c1.851,1.726,2.685,4.288,3.043,6.793c0.778,5.433-0.688,13.757-3.569,18.428
					C279.606,296.001,278.91,289.069,278.326,285.248z"/>
				<g>
					<path fill="#EB8A79" d="M270.038,300.028c-0.214,0.26-0.478,0.484-0.692,0.744s-0.383,0.569-0.364,0.893
						c0.032,0.568,0.682,1.006,1.312,0.984c0.631-0.021,1.193-0.417,1.502-0.913s0.4-1.079,0.417-1.647
						c0.021-0.729-0.077-1.479-0.454-2.125c-0.31-0.53-1.1-0.722-1.124,0.047C270.612,298.757,270.554,299.404,270.038,300.028z"/>
					<circle fill="#2B2B2B" cx="276.438" cy="296.222" r="1.818"/>
					<circle fill="#2B2B2B" cx="265.061" cy="296.222" r="1.818"/>
				</g>
				<g>
					<path fill="#2B2B2B" d="M270.868,305.398c-0.33,0-0.546-0.024-0.581-0.029l0.117-0.954c0.122,0.014,2.988,0.331,4.062-1.898
						l0.866,0.417C274.276,305.126,271.956,305.398,270.868,305.398z"/>
				</g>
			</g>
		</g>
		<g>
			<path fill="#EA421C" d="M362.243,277.563c0.748,2.098,1.666,4.12,2.738,6.036c0.42,0.751,0.631,1.629,0.532,2.506
				c-0.482,4.233-1.483,8.393-2.778,12.411c-0.845,2.623-1.896,5.352-4.145,6.765c-0.824,0.518-1.801,0.757-2.716,0.492
				c-2.005-0.579-2.468-2.853-2.643-4.851c-0.551-6.288-0.572-14.691,0.535-20.783C354.307,277.158,359.548,278.306,362.243,277.563
				z"/>
			<path fill="#EA421C" d="M390.974,277.563c-0.748,2.098-1.666,4.12-2.738,6.036c-0.42,0.751-0.632,1.629-0.532,2.506
				c0.482,4.233,1.483,8.393,2.778,12.411c0.845,2.623,1.896,5.352,4.145,6.765c0.824,0.518,1.801,0.757,2.717,0.492
				c2.005-0.579,2.467-2.853,2.643-4.851c0.55-6.288,0.572-14.691-0.535-20.783C398.91,277.158,393.668,278.306,390.974,277.563z"/>
			<path fill="#092B5E" d="M362.57,165.592c0,0,3.235-5.708,14.038-5.708s13.429,5.654,13.429,5.654s-6.806,12.583-13.733,12.583
				S362.57,165.592,362.57,165.592z"/>
			<path fill="#852F78" d="M391.077,215.037l-14.468-0.669l-14.468,0.669c0,0-27.442,11.368-26.105,20.061
				c1.337,8.692,15.714,48.479,15.714,48.479s2.34,1.004,7.355,0c5.015-1.003,6.018-4.346,6.018-4.346s-12.437-39.882-11.735-41.004
				c2.093-3.347,17.292-4.172,23.221-4.172s21.128,0.826,23.221,4.172c0.702,1.123-11.735,41.004-11.735,41.004
				s1.003,3.343,6.018,4.346c5.015,1.004,7.355,0,7.355,0s14.376-39.786,15.714-48.479
				C418.519,226.405,391.077,215.037,391.077,215.037z"/>
			<path fill="#EBA59A" d="M366.007,149.339c0.319,2.293,0.659,4.139-0.76,4.368c-1.42,0.229-3.564-1.047-4.318-3.219
				c-0.792-2.28-0.053-4.454,1.366-4.683C363.714,145.576,365.688,147.046,366.007,149.339z"/>
			<path fill="#EBA59A" d="M387.485,149.339c-0.32,2.293-0.66,4.139,0.76,4.368c1.42,0.229,3.565-1.047,4.318-3.219
				c0.792-2.28,0.054-4.454-1.366-4.683C389.777,145.576,387.804,147.046,387.485,149.339z"/>
			<path fill="#FFB4A8" d="M388.084,165.747c-2.345,0-4.246-2.106-4.246-4.704v-23.52H369.6v23.52c0,2.598-1.901,4.704-4.246,4.704
				h-0.223c-2.222,0-4.023,1.996-4.023,4.458v15.591h30.999v-15.591C392.108,167.742,390.307,165.747,388.084,165.747z"/>
			<path fill="#EBA59A" d="M376.72,167.956c2.207,0,7.119-5.785,7.119-6.655v-17.963H369.6v18.061
				C369.6,162.268,374.513,167.956,376.72,167.956z"/>
			<path fill="#093B83" d="M393.448,165.592h-6.752c0,0-4.572,5.948-9.971,5.948c-0.001,0-0.003,0-0.004,0l0,0
				c-0.038,0-0.074-0.006-0.112-0.007c-0.038,0-0.074,0.006-0.112,0.007l0,0c-0.001,0-0.003,0-0.005,0
				c-5.399,0-9.971-5.948-9.971-5.948h-6.751c-7.034,0,2.719,19.992-0.59,50.534c5.806,5.026,26.493,6.201,34.86,0
				C389.914,193.42,400.482,165.592,393.448,165.592z"/>
			<path fill="#FFB4A8" d="M380.477,189.318c-0.162-0.125-0.336-0.251-0.54-0.276c-0.188-0.023-0.374,0.042-0.552,0.106
				c-1.475,0.535-2.949,1.071-4.424,1.606c-0.273,0.099-0.553,0.202-0.771,0.394c-0.291,0.256-0.434,0.635-0.567,0.999
				c-0.261,0.713-0.522,1.427-0.783,2.141c-0.125,0.34-0.245,0.736-0.06,1.048c0.278,0.466,1.012,0.356,1.432,0.012
				s0.703-0.85,1.171-1.124c0.669-0.392,1.595-0.171,2.107,0.412c0.512,0.583,0.633,1.446,0.418,2.191
				c-0.138,0.478-0.427,0.942-0.881,1.145c-0.441,0.198-1.02,0.15-1.328,0.523c-0.288,0.349-0.154,0.907,0.17,1.223
				s0.781,0.447,1.22,0.558c1.766,0.448,3.679,0.741,5.374,0.072C387.739,198.264,383.285,191.495,380.477,189.318z"/>
			<g>
				<path fill="#092B5E" d="M411.978,196.916c-0.611-2.112-8.845-20.127-12.245-26.775c-2.707-5.294-6.894-4.603-6.894-4.603
					s-0.637,10.854,1.452,21.068l6.032,8.747c0,0-6.548,1.578-15.598-1.574c-1.312,0.967-3.466,7.17-3.466,7.17
					s17.084,7.179,27.016,4.555C412.311,204.439,412.829,199.855,411.978,196.916z"/>
			</g>
			<g>
				<g>
					<path fill="#2B2B2B" d="M381.674,203.087h-7.857c-0.207,0-0.375-0.168-0.375-0.375v-15.646c0-0.208,0.168-0.375,0.375-0.375
						h7.857c0.207,0,0.375,0.167,0.375,0.375v15.646C382.049,202.919,381.881,203.087,381.674,203.087z"/>
					<circle fill="#FFFFFF" cx="377.746" cy="189.428" r="0.627"/>
					<circle fill="#FFFFFF" cx="377.746" cy="190.604" r="0.383"/>
				</g>
				<path fill="#FFB4A8" d="M370.127,195.783c1.004-1.055,2.198-1.965,2.918-3.229c0.079-0.138,0.157-0.286,0.292-0.369
					c0.24-0.148,0.563-0.031,0.774,0.156c0.612,0.542,0.616,1.519,0.316,2.279c-0.305,0.775-0.879,1.567-0.614,2.357
					c0.183,0.546,0.744,0.898,1.313,0.982s1.147-0.057,1.695-0.234c0.9-0.292,1.767-0.685,2.578-1.171
					c0.745-0.446,1.566-0.992,2.407-0.777c0.646,0.165,1.11,0.768,1.279,1.413s0.087,1.328-0.042,1.982
					c-0.181,0.918-0.464,1.838-1.023,2.587c-0.409,0.549-0.95,0.985-1.514,1.372c-2.044,1.403-4.48,2.227-6.957,2.354
					c-0.914,0.047-1.873-0.011-2.664-0.471c-0.83-0.482-1.365-1.346-1.751-2.225C368.008,200.23,368.149,197.861,370.127,195.783z"
					/>
				<path fill="#092B5E" d="M368.427,197.177c-12.456-0.963-15.414-2.1-15.414-2.1l5.85-9.282c0,0,0.94-3.498,1.513-9.929
					c0.42-4.718-0.608-10.273-0.608-10.273s-4.412,0.005-7.218,5.103c-3.6,6.542-10.712,22.252-11.237,23.787
					c-0.802,2.348-1.65,7.665,3.173,9.103c14.91,4.445,25.754,1.914,25.754,1.914S369.52,198.386,368.427,197.177z"/>
			</g>
			<path fill="#FFB4A8" d="M376.746,129.039c-10.583,0.044-14.263,6.562-13.09,17.231c1.102,10.021,7.536,18.844,13.09,18.844
				c5.058,0,11.988-8.823,13.089-18.844C391.009,135.601,387.329,129.083,376.746,129.039z"/>
			<path fill="#092B5E" d="M376.608,175.435c10.743,0,13.003-9.033,13.402-9.842h-3.314c0,0-4.572,5.948-9.971,5.948
				c-0.001,0-0.003,0-0.004,0c-0.038,0-0.074-0.006-0.112-0.007c-0.038,0-0.074,0.006-0.112,0.007c-0.001,0-0.003,0-0.005,0
				c-5.399,0-9.971-5.948-9.971-5.948h-3.95C362.57,165.592,365.108,175.435,376.608,175.435z"/>
			<path fill="#FFFFFF" d="M365.931,180.968c-1.215-2.936,0.725-5.465,1.146-8.329c0.297-2.027-0.155-3.876-1.071-5.675
				c-0.496-0.973-1.96-0.115-1.465,0.856c2.454,4.813-2.19,8.899-0.246,13.599C364.707,182.413,366.349,181.977,365.931,180.968
				L365.931,180.968z"/>
			<path fill="#FFFFFF" d="M386.667,180.968c1.215-2.936-0.725-5.465-1.146-8.329c-0.297-2.027,0.154-3.876,1.071-5.675
				c0.496-0.973,1.96-0.115,1.465,0.856c-2.454,4.813,2.19,8.899,0.246,13.599C387.891,182.413,386.249,181.977,386.667,180.968
				L386.667,180.968z"/>
			<path fill="#2B2B2B" d="M388.904,150.671c-2.339-2.418-3.593-5.849-3.366-9.206c-2.568,2.087-5.39,3.854-8.352,5.331
				c-0.061-0.982,0.025-1.973,0.256-2.93c-2.234,2.022-4.914,3.596-7.768,4.562c-0.151-1.085-0.179-2.188-0.084-3.28
				c-1.441,2.03-3.246,3.842-5.331,5.205c-2.914-4.167-3.656-9.82-1.945-14.609c1.71-4.789,5.838-8.644,10.732-10.022
				c2.19-0.617,4.554-0.754,6.736-0.11c2.183,0.645,4.162,2.124,5.156,4.171c-0.196-1.711-0.085-3.42,0.019-5.14
				c1.397,1.636,2.174,3.791,2.142,5.942c1.566-1.078,3.443-1.725,5.344-1.78c-0.936,1.541-2.245,2.853-3.784,3.792
				c2.214,2.293,3.074,5.677,2.845,8.856C391.276,144.632,390.034,147.691,388.904,150.671z"/>
			<g>
				<path fill="#EB8A79" d="M375.686,153.869c-0.26,0.314-0.579,0.586-0.839,0.901c-0.26,0.314-0.464,0.69-0.442,1.083
					c0.04,0.688,0.827,1.22,1.591,1.193c0.765-0.026,1.446-0.506,1.821-1.107c0.375-0.602,0.486-1.308,0.506-1.997
					c0.026-0.884-0.093-1.794-0.55-2.577c-0.375-0.643-1.333-0.875-1.363,0.057C376.381,152.326,376.312,153.111,375.686,153.869z"
					/>
				<circle fill="#2B2B2B" cx="382.205" cy="150.072" r="1.818"/>
				<circle fill="#2B2B2B" cx="370.827" cy="150.072" r="1.818"/>
			</g>
			<path fill="#FFFFFF" d="M375.009,159.642l5.769-2.313C380.778,157.328,379.786,164.84,375.009,159.642z"/>
		</g>
		<g>
			<ellipse fill="#312D85" cx="206.48" cy="403.805" rx="22.985" ry="4.248"/>
			<g>
				<path fill="#7698F0" d="M206.438,403.805c0,0-20.47-18.197-20.978-31.365c-0.438-11.361,8.936-5.622,15.404,6.714
					S206.438,403.805,206.438,403.805z"/>
				<path fill="#96B4FF" d="M206.438,403.805c0,0-14.784-48.592-0.465-52.905c14.32-4.313,7.772,25.803,7.772,25.803
					s2.335-14.26,9.404-13.295s-3.055,23.611-3.055,23.611s5.107-6.769,8.711-4.834c3.604,1.936-8.482,15.116-14.29,18.598
					C208.587,404.336,206.438,403.805,206.438,403.805z"/>
			</g>
		</g>
		<g>
			<ellipse fill="#312D85" cx="425.978" cy="394.102" rx="21.486" ry="3.293"/>
			<g>
				<path fill="#7698F0" d="M419.832,393.753c0,0-13.588-22.086-10.453-34.162c2.705-10.419,9.636-2.657,12.131,10.293
					C424.006,382.833,419.832,393.753,419.832,393.753z"/>
				<path fill="#96B4FF" d="M419.832,393.753c0,0-0.134-48.088,14.025-48.088s0,25.514,0,25.514s6.011-12.289,12.156-9.484
					c6.145,2.806-9.217,20.571-9.217,20.571s6.479-4.742,9.217-2.004s-11.817,11.387-18.033,12.957
					C421.635,394.821,419.832,393.753,419.832,393.753z"/>
			</g>
		</g>
		<g>
			<ellipse fill="#3D39A8" cx="69.101" cy="373.412" rx="21.162" ry="3.911"/>
			<g>
				<path fill="#7698F0" d="M74.042,373.412c0,0,14.066-22.864,10.821-35.366c-2.8-10.786-9.975-2.75-12.559,10.655
					C69.72,362.107,74.042,373.412,74.042,373.412z"/>
				<path fill="#96B4FF" d="M74.042,373.412c0,0,0.138-49.782-14.52-49.782s0,26.412,0,26.412s-6.223-12.722-12.584-9.818
					c-6.361,2.904,9.542,21.296,9.542,21.296s-6.707-4.909-9.542-2.074c-2.834,2.835,12.233,11.788,18.669,13.414
					C72.175,374.519,74.042,373.412,74.042,373.412z"/>
			</g>
		</g>
		<g>
			<path fill="#1C1C13" d="M111.752,368.582c0,0,6.151,2.574,5.515,6.164c-0.567,3.204-3.773,15.792-8.76,15.792
				c-3.086,0-4.705,0.016-8.111,0.016c-3.406,0-2.92-4.776,0.649-6.886c3.569-2.108,5.444-8.11,4.02-9.408s1.333-0.974,3.28-2.271
				C110.292,370.69,111.752,368.582,111.752,368.582z"/>
			<path fill="#FFFFFF" d="M116.089,371.529c-0.006,0.046,0,0.089-0.009,0.135c-0.567,3.204-3.773,15.792-8.76,15.792
				c-3.086,0-4.705,0.016-8.111,0.016c-0.383,0-0.709-0.068-0.995-0.178c-0.429,1.718,0.247,3.26,2.182,3.26
				c3.407,0,5.025-0.016,8.111-0.016c4.987,0,8.192-12.588,8.76-15.792C117.482,373.538,116.92,372.448,116.089,371.529z"/>
			<path fill="#0A326E" d="M80.709,289.065L68.326,329.93c-1.13,3.729-0.218,7.778,2.403,10.663l34.17,37.603
				c0,0,0.932,0.958,5.667-3.485c1.268-1.189,3.178-6.187,3.178-6.187l-26.835-32.445c-1.233-1.491-1.481-3.565-0.636-5.306
				l9.85-20.262l1.833-15.103L80.709,289.065z"/>
			<path fill="#082B5E" d="M113.744,368.523l-26.835-32.445c-1.233-1.491-1.481-3.565-0.636-5.306l8.806-18.113
				c-0.333-0.026-0.708,0.039-1.133,0.216c-1.831,0.764-3.097,4.689-3.975,6.341c-1.34,2.522-2.631,5.072-3.87,7.646
				c-1,2.079-1.989,4.279-1.871,6.583c0.159,3.105,2.27,5.719,4.281,8.091c5.037,5.94,10.073,11.88,15.109,17.82
				c3.399,4.008,6.92,8.321,8.295,13.291C112.872,370.802,113.744,368.523,113.744,368.523z"/>
			<g>
				<path fill="#1C1C13" d="M92.934,383.577c0,0-1.838,4.442-6.739,6.74c-4.902,2.297-6.893,6.586-4.442,7.505
					c2.451,0.92,11.182,1.532,15.011,0c3.829-1.531,7.505-5.36,7.812-8.73c0.306-3.37,0-6.74,0-6.74s-6.28,2.145-8.425,1.379
					S92.934,383.577,92.934,383.577z"/>
				<path fill="#FFFFFF" d="M97.336,394.445c-4.071,1.678-13.499,1.402-16.171,0.578c-0.048-0.016-0.084-0.039-0.13-0.057
					c-0.585,1.313-0.401,2.437,0.717,2.855c2.451,0.92,11.182,1.532,15.011,0c3.829-1.531,7.505-5.36,7.812-8.73
					c0.032-0.355,0.056-0.71,0.076-1.062C103.294,390.647,100.385,393.188,97.336,394.445z"/>
			</g>
			<path fill="#093B83" d="M93.611,289.394l-0.117,12.822l-2.702,83.961c0,0,3.307,0.887,7.11,0.881
				c4.544-0.007,7.225-1.1,7.225-1.1l10.029-96.893L93.611,289.394z"/>
			<g>
				<g>
					<path fill="#FFB4A8" d="M113.479,236.377c-2.187-0.194-3.778-2.406-3.553-4.941l2.036-22.948l-13.281-1.178l-2.036,22.948
						c-0.225,2.535-2.18,4.433-4.367,4.238l-0.208-0.018c-2.073-0.184-3.925,1.614-4.138,4.016l-1.35,15.212l28.914,2.564
						l1.349-15.212C117.059,238.657,115.552,236.561,113.479,236.377z"/>
				</g>
				<path fill="#EA421C" d="M115.086,273.399c4.823-26.637,4.525-34.984,3.125-35.949c-1.479-1.02-5.889-1.383-5.889-1.383
					s-5.482,5.462-10.364,5.029c-4.883-0.433-9.317-6.775-9.317-6.775s-4.405-0.418-6.041,0.325
					c-1.547,0.704-3.31,8.868-3.25,35.938c0.017,7.791-3.416,10.77-4.897,21.477c2.068,1.837,10.364,3.382,18.623,4.085
					c8.253,0.762,16.693,0.7,19.051-0.743C116.553,284.602,113.698,281.065,115.086,273.399z"/>
				<path fill="#D13C18" d="M115.086,273.399c0.975-5.382,1.737-10.005,2.326-13.982c-0.049-0.259-0.089-0.52-0.143-0.777
					c-1.831,4.106-3.838,8.04-7.038,11.276c-3.63,3.673-8.608,6.211-13.772,6.133c-1.742-0.027-3.525-0.365-4.988-1.313
					c-1.533-0.991-2.586-2.56-3.539-4.117c-1.703-2.784-3.204-5.688-4.532-8.668c-0.039,2.641-0.057,5.505-0.05,8.633
					c0.017,7.791-3.416,10.77-4.897,21.477c2.068,1.837,10.364,3.382,18.623,4.085c8.253,0.762,16.693,0.7,19.052-0.743
					C116.553,284.602,113.699,281.065,115.086,273.399z"/>
				<path fill="#EBA59A" d="M103.366,234.25c1.724,0.153,4.897-2.8,6.741-4.848l1.632-18.406l-13.281-1.178l-1.638,18.468
					c-0.007,0.08-0.03,0.152-0.041,0.23C98.229,230.726,101.625,234.095,103.366,234.25z"/>
			</g>
			<g>
				<path fill="#EBA59A" d="M93.06,215.7c0.269,2.28,0.565,4.116-0.817,4.316c-1.382,0.2-3.441-1.106-4.134-3.274
					c-0.727-2.276,0.029-4.417,1.411-4.617C90.902,211.924,92.791,213.42,93.06,215.7z"/>
				<path fill="#EBA59A" d="M115.008,216.133c-0.352,2.268-0.715,4.091,0.658,4.346c1.372,0.254,3.475-0.971,4.245-3.11
					c0.809-2.246,0.133-4.415-1.239-4.669S115.36,213.865,115.008,216.133z"/>
				<path fill="#FFB4A8" d="M116.803,214.496c-1.179,9.573-7.291,17.883-12.803,17.774c-6.245-0.123-11.985-8.667-12.815-18.28
					c-0.926-10.723,2.782-17.982,13.137-17.778C113.695,196.396,118.012,204.683,116.803,214.496z"/>
			</g>
			<g>
				<g>
					<path fill="#FFB4A8" d="M104.297,269.805c0,0,17.813,6.005,25.53,4.209c2.068-0.48,3.572-2.211,2.539-6.051
						c-1.463-5.438-5.935-18.646-5.935-18.646l-7.43,6.616l3.368,10.507c0,0-6.759,1.126-16.481-2.141
						C105.058,265.241,104.297,269.805,104.297,269.805z"/>
				</g>
			</g>
			<path fill="#2B2B2B" d="M110.343,280.257l2.32-30.094c0.093-1.21-0.812-2.266-2.021-2.359l-20.189-1.557
				c-1.21-0.093-2.266,0.812-2.359,2.021l-2.321,30.094c-0.093,1.21,0.812,2.267,2.022,2.359l20.189,1.557
				C109.193,282.372,110.25,281.467,110.343,280.257z"/>
			<circle fill="#FFFFFF" cx="90.561" cy="249.045" r="1.037"/>
			<g>
				<g>
					<g>
						<path fill="#FFB4A8" d="M83.157,277.468c0,0-9.34,0.288-17.115-7.294c-4.758-4.641-0.738-9.952,0.469-12.348
							c2.994-5.943,12.081-16.203,12.081-16.203l4.064,9.192l-9.404,13.629c0,0,1.327,3.221,11.13,6.896
							C85.443,272.747,83.157,277.468,83.157,277.468z"/>
					</g>
				</g>
			</g>
			<path fill="#B83416" d="M88.617,234.25c0,0-5.757,0.343-8.951,3.379c-4.101,3.899-10.744,15.387-10.744,15.387s0,0,3.13,2.336
				c3.737,2.79,7.909,4.278,7.909,4.278l2.627-4.186c0,0,1.948-5.137,3.258-9.295C87.604,240.569,88.617,234.25,88.617,234.25z"/>
			<path fill="#FFB4A8" d="M86.622,266.834c0.299,0.524,0.09,1.479-0.073,2.236c-0.218,1.01-0.107,2.055,0.391,2.97
				c0.171,0.314,0.397,0.62,0.723,0.77c0.21,0.097,0.445,0.121,0.676,0.131c0.854,0.035,1.87,0.025,2.714-0.107
				c0.975-0.152,3.5-1.374,3.366,0.398c-0.32,4.238-2.236,5.764-3.193,6.143c-0.792,0.314-1.665,0.352-2.515,0.312
				c-2.098-0.1-4.148-0.64-6.16-1.24c-2.238-0.668-5.243-2.592-3.982-5.577c0.922-2.184,4.505-2.978,6.551-5.512
				C85.231,267.219,86.065,265.857,86.622,266.834z"/>
			<g>
				<g>
					<g>
						<path fill="#B83416" d="M116.531,236.754c0,0,5.544,1.588,7.999,5.249c3.153,4.699,7.133,17.357,7.133,17.357s0,0-3.564,1.599
							c-4.255,1.908-8.651,2.452-8.651,2.452l-1.652-4.657c0,0-0.782-5.438-1.154-9.782
							C116.142,243.142,116.531,236.754,116.531,236.754z"/>
					</g>
				</g>
			</g>
			<path fill="#2B2B2B" d="M116.167,218.873c-2.077-3.286-2.982-7.357-2.503-11.261c-6.061,2.327-12.948,2.516-19.172,0.716
				c0.081,3.07-1.176,6.156-3.11,8.474c-2.36-5.704-2.039-12.731,0.528-18.337c0.726-1.584,1.647-3.093,2.882-4.286
				c0.65-0.629,1.394-1.166,2.196-1.558c1.271-0.621,2.664,0.62,2.259,1.975c-0.167,0.558-0.435,1.083-0.796,1.531
				c2.874-3.397,7.288-5.562,11.633-5.515c0.721,0.008,1.558,0.141,1.92,0.791c0.337,0.607,0.073,1.422-0.421,1.898
				c-0.495,0.477-1.162,0.695-1.806,0.9c3.023-0.361,6.327,0.57,8.745,2.495c0.476,0.379,0.951,0.844,1.06,1.458
				c0.147,0.835-0.47,1.651-1.219,1.986c-0.749,0.335-1.595,0.303-2.409,0.266c1.858,2.595,2.712,5.958,2.438,9.183
				S117.183,215.813,116.167,218.873z"/>
			<g>
				<path fill="#EB8A79" d="M102.616,220.213c-0.26,0.314-0.579,0.587-0.839,0.901c-0.26,0.315-0.464,0.691-0.441,1.083
					c0.04,0.689,0.827,1.22,1.591,1.194s1.446-0.506,1.821-1.108c0.375-0.601,0.485-1.308,0.506-1.997
					c0.026-0.884-0.094-1.794-0.551-2.577c-0.375-0.643-1.333-0.875-1.362,0.057C103.312,218.67,103.241,219.456,102.616,220.213z"
					/>
				<circle fill="#2B2B2B" cx="109.135" cy="216.416" r="1.818"/>
				<circle fill="#2B2B2B" cx="97.757" cy="216.416" r="1.818"/>
			</g>
			<g>
				<path fill="#2B2B2B" d="M104.356,226.556c-2.263,0-4.5-0.796-6.25-2.245l0.613-0.741c1.777,1.472,4.118,2.196,6.411,1.989
					l0.086,0.958C104.93,226.543,104.643,226.556,104.356,226.556z"/>
			</g>
		</g>
	</g>
</g>
<g id="DESIGNED_BY_FREEPIK">
</g>
</svg>
