<?xml version="1.0" encoding="utf-8"?>
<!-- Generator: Adobe Illustrator 16.0.0, SVG Export Plug-In . SVG Version: 6.00 Build 0)  -->
<!DOCTYPE svg PUBLIC "-//W3C//DTD SVG 1.1//EN" "http://www.w3.org/Graphics/SVG/1.1/DTD/svg11.dtd">
<svg version="1.1" id="Layer_1" xmlns="http://www.w3.org/2000/svg" xmlns:xlink="http://www.w3.org/1999/xlink" x="0px" y="0px"
	 width="100px" height="100px" viewBox="0 0 100 100" enable-background="new 0 0 100 100" xml:space="preserve">
<g>
	<g enable-background="new    ">
		<g>
			<g>
				<g>
					<g>
						<path fill="#0080FF" stroke="#0080FF" stroke-width="2.5" stroke-miterlimit="10" d="M76.619,76.995
							c-1.028,0-2.572-0.575-4.104-3.317c-0.039-0.072-2.873-5.385-5.57-9.434H32.067c-5.11,0-8.676-3.799-8.676-9.234V21.458
							c0-5.558,3.729-9.747,8.676-9.747h56.401c5.396,0,10.31,4.645,10.31,9.747v33.553c0,5.442-5.435,9.233-10.31,9.233h-6.329
							L80.4,72.432C79.548,76.4,77.665,76.995,76.619,76.995z M32.067,13.916c-4.206,0-6.474,3.887-6.474,7.544v33.554
							c0,4.202,2.604,7.026,6.474,7.026h35.465c0.364,0,0.706,0.183,0.909,0.485c2.856,4.195,5.883,9.858,6.012,10.1
							c0.891,1.596,1.723,2.169,2.166,2.169c0.505,0,1.207-0.873,1.625-2.823l1.928-9.057c0.107-0.512,0.559-0.875,1.077-0.875
							h7.222c3.832,0,8.103-2.887,8.103-7.027V21.458c0-3.877-3.938-7.542-8.103-7.542H32.067L32.067,13.916z"/>
					</g>
				</g>
			</g>
			<g>
				<g>
					<g>
						<g>
							<path fill="#0080FF" stroke="#0080FF" stroke-width="2.5" stroke-miterlimit="10" d="M83.132,30.025H38.23
								c-0.61,0-1.103-0.494-1.103-1.103c0-0.609,0.493-1.103,1.103-1.103h44.902c0.609,0,1.103,0.493,1.103,1.103
								C84.232,29.533,83.741,30.025,83.132,30.025z"/>
						</g>
					</g>
				</g>
				<g>
					<g>
						<g>
							<path fill="#0080FF" stroke="#0080FF" stroke-width="2.5" stroke-miterlimit="10" d="M83.132,38.294H38.23
								c-0.61,0-1.103-0.493-1.103-1.104c0-0.609,0.493-1.103,1.103-1.103h44.902c0.609,0,1.103,0.494,1.103,1.103
								C84.232,37.801,83.741,38.294,83.132,38.294z"/>
						</g>
					</g>
				</g>
				<g>
					<g>
						<g>
							<path fill="#0080FF" stroke="#0080FF" stroke-width="2.5" stroke-miterlimit="10" d="M70.563,46.56H38.23
								c-0.61,0-1.103-0.492-1.103-1.104c0-0.608,0.493-1.102,1.103-1.102h32.333c0.609,0,1.104,0.494,1.104,1.102
								C71.665,46.067,71.172,46.56,70.563,46.56z"/>
						</g>
					</g>
				</g>
			</g>
		</g>
	</g>
</g>
</svg>
