<?xml version="1.0" encoding="utf-8"?>
<!-- Generator: Adobe Illustrator 16.0.0, SVG Export Plug-In . SVG Version: 6.00 Build 0)  -->
<!DOCTYPE svg PUBLIC "-//W3C//DTD SVG 1.1//EN" "http://www.w3.org/Graphics/SVG/1.1/DTD/svg11.dtd">
<svg version="1.1" id="Layer_1" xmlns="http://www.w3.org/2000/svg" xmlns:xlink="http://www.w3.org/1999/xlink" x="0px" y="0px"
	 width="64.139px" height="63.127px" viewBox="0 0 64.139 63.127" enable-background="new 0 0 64.139 63.127" xml:space="preserve">
<g transform="translate(50 50) scale(0.69 0.69) rotate(0) translate(-50 -50)">
	<g>
		<path fill="#2B80C3" d="M31.743,1.25v-20.31c0-1.056-0.48-1.999-1.233-2.62c-0.167-0.134-0.344-0.257-0.532-0.369
			c-0.478-0.254-1.035-0.41-1.623-0.41h-47.426c-1.867,0-3.389,1.522-3.389,3.4v84.691c0,1.878,1.522,3.39,3.389,3.39h47.428
			c1.88,0,3.39-1.512,3.39-3.39V40.721h-4.799v11.777h-44.608V-16.95h44.608v18.2H31.743z M4.637,55.466
			c2.7,0,4.879,2.188,4.879,4.877c0,2.688-2.179,4.866-4.879,4.866c-2.688,0-4.867-2.178-4.867-4.866
			C-0.232,57.654,1.949,55.466,4.637,55.466z"/>
	</g>
	<g>
		<path fill="#2B80C3" d="M14.589,17.768v15.121c0,1.323-1.068,2.4-2.386,2.4H-2.919c-1.324,0-2.4-1.077-2.4-2.4V17.768
			c0-1.32,1.076-2.4,2.4-2.4h15.122C13.524,15.37,14.589,16.447,14.589,17.768z"/>
	</g>
	<g>
		<path fill="#2B80C3" d="M70.487-6.464v19.867c0,1.744-1.414,3.155-3.148,3.155H56.998V7.681c0-3.544-2.889-6.431-6.433-6.431
			h-6.233v-7.713c0-1.732,1.411-3.142,3.146-3.142h19.86C69.074-9.607,70.487-8.195,70.487-6.464z"/>
	</g>
	<g>
		<path fill="#2B80C3" d="M54.776,7.681v20.553h-7.568c-2.543,0-4.61,2.079-4.61,4.622v5.644H23.957
			c-2.333,0-4.211-1.878-4.211-4.212V7.681c0-2.321,1.878-4.211,4.211-4.211h26.608C52.888,3.47,54.776,5.36,54.776,7.681z"/>
	</g>
	<g>
		<path fill="#2B80C3" d="M64.718,32.856v15.12c0,1.322-1.069,2.402-2.386,2.402H47.209c-1.322,0-2.389-1.077-2.389-2.402v-15.12
			c0-1.323,1.067-2.399,2.389-2.399h15.123C63.651,30.457,64.718,31.533,64.718,32.856z"/>
	</g>
</g>
</svg>
