<?xml version="1.0" encoding="utf-8"?>
<!-- Generator: Adobe Illustrator 16.0.0, SVG Export Plug-In . SVG Version: 6.00 Build 0)  -->
<!DOCTYPE svg PUBLIC "-//W3C//DTD SVG 1.1//EN" "http://www.w3.org/Graphics/SVG/1.1/DTD/svg11.dtd">
<svg version="1.1"
	 id="Layer_1" xmlns:inkscape="http://www.inkscape.org/namespaces/inkscape" xmlns:svg="http://www.w3.org/2000/svg" xmlns:rdf="http://www.w3.org/1999/02/22-rdf-syntax-ns#" xmlns:dc="http://purl.org/dc/elements/1.1/" xmlns:sodipodi="http://sodipodi.sourceforge.net/DTD/sodipodi-0.dtd" xmlns:cc="http://creativecommons.org/ns#"
	 xmlns="http://www.w3.org/2000/svg" xmlns:xlink="http://www.w3.org/1999/xlink" x="0px" y="0px" width="100px" height="100px"
	 viewBox="0 0 100 100" enable-background="new 0 0 100 100" xml:space="preserve">
<g transform="translate(50 50) scale(0.69 0.69) rotate(0) translate(-50 -50)">
	<g transform="translate(0,-952.36218)">
		<path fill="#4285F4" d="M21.609,960.929c-0.589,0-1.063,0.447-1.063,1.001v12h8.001c2.18,0,4,1.817,4,4v2
			c0,2.181-1.82,4.001-4,4.001h-8.001v13.999h8.001c2.18,0,4,1.819,4,4.001v1.998c0,2.182-1.82,4.001-4,4.001h-8.001v13.999h8.001
			c2.18,0,4,1.82,4,4.001v2c0,2.182-1.82,4-4,4h-8.001v12c0,0.553,0.474,1.001,1.063,1.001h65.874c0.589,0,1.063-0.447,1.063-1.001
			v-82c0-0.553-0.474-1.001-1.063-1.001H21.609z M12.545,975.93c-1.107,0-1.998,0.892-1.998,2v2c0,1.108,0.892,2,1.998,2h16.001
			c1.107,0,1.998-0.892,1.998-2v-2c0-1.108-0.892-2-1.998-2H12.545z M59.545,978.929c4.419,0,8.001,3.582,8.001,8.001
			s-3.582,8.001-8.001,8.001c-4.417,0-7.999-3.582-7.999-8.001S55.128,978.929,59.545,978.929z M12.545,999.929
			c-1.107,0-1.998,0.892-1.998,2.001v1.998c0,1.11,0.892,2.001,1.998,2.001h16.001c1.107,0,1.998-0.892,1.998-2.001v-1.998
			c0-1.11-0.892-2.001-1.998-2.001H12.545z M59.545,1001.931c10.527,0,19.002,4.843,19.002,11v11.999
			c-5.353,1.503-10.885,1.862-17.001,2.001h-4c-6.117-0.139-11.648-0.498-17.001-2.001v-11.999
			C40.546,1006.774,49.021,1001.931,59.545,1001.931z M12.545,1023.93c-1.107,0-1.998,0.892-1.998,2v2c0,1.108,0.892,2,1.998,2
			h16.001c1.107,0,1.998-0.892,1.998-2v-2c0-1.108-0.892-2-1.998-2H12.545z"/>
	</g>
</g>
</svg>
