<?xml version="1.0" encoding="utf-8"?>
<!-- Generator: Adobe Illustrator 16.0.0, SVG Export Plug-In . SVG Version: 6.00 Build 0)  -->
<!DOCTYPE svg PUBLIC "-//W3C//DTD SVG 1.1//EN" "http://www.w3.org/Graphics/SVG/1.1/DTD/svg11.dtd">
<svg version="1.1" id="Layer_1" xmlns="http://www.w3.org/2000/svg" xmlns:xlink="http://www.w3.org/1999/xlink" x="0px" y="0px"
	 width="100px" height="100px" viewBox="0 0 100 100" enable-background="new 0 0 100 100" xml:space="preserve">
<path fill="#FFFFFF" d="M542,667h90c2.762,0,5,2.238,5,5v90c0,2.762-2.238,5-5,5h-90c-2.762,0-5-2.238-5-5v-90
	C537,669.238,539.238,667,542,667z"/>
<g>
	<g transform="translate(50 50) scale(0.69 0.69) rotate(0) translate(-50 -50)">
		<title>checkbox</title>
		<desc>Created with Sketch.</desc>
		<g>
			<g>
				<path fill="#4D4D4D" d="M77.601,21.949H21.165v56.103h56.437V21.949z M84.28,15.437v69.126H14.486V15.437H84.28z"/>
			</g>
		</g>
	</g>
	<g>
		<rect x="14.204" y="26.151" fill="#4D4D4D" width="13.94" height="4.493"/>
		<rect x="70.889" y="69.355" fill="#4D4D4D" width="13.94" height="4.493"/>
		<rect x="25.495" y="14.86" fill="#4D4D4D" width="4.493" height="14.862"/>
		<rect x="69.045" y="71.199" fill="#4D4D4D" width="4.493" height="13.94"/>
	</g>
</g>
<g>
	<path fill="#4D4D4D" d="M96.005,31.737L100,30.278c-2.074-6.454-5.842-12.37-10.909-17.056c-3.84-3.534-8.373-6.377-13.291-8.221
		l0.768-4.378l-5.453,2.918l-0.23,0.154l-5.225,2.766l8.143,9.528l0.769-4.534c3.842,1.306,7.528,3.303,10.756,5.916
		C89.937,21.059,93.7,26.053,96.005,31.737z"/>
</g>
<g>
	<path fill="#4D4D4D" d="M3.994,68.453L0,69.912c2.074,6.453,5.842,12.369,10.908,17.055c3.84,3.534,8.373,6.377,13.291,8.221
		l-0.768,4.379l5.453-2.919l0.23-0.153l5.225-2.767l-8.143-9.528l-0.768,4.535c-3.842-1.307-7.529-3.304-10.756-5.916
		C10.063,79.131,6.299,74.137,3.994,68.453z"/>
</g>
</svg>
