<?xml version="1.0" ?><!DOCTYPE svg  PUBLIC '-//W3C//DTD SVG 1.1//EN'  'http://www.w3.org/Graphics/SVG/1.1/DTD/svg11.dtd'><svg enable-background="new 0 0 1536 1536" height="1536px" id="Layer_1" version="1.1" viewBox="0 0 1536 1536" width="1536px" xml:space="preserve" xmlns="http://www.w3.org/2000/svg" xmlns:xlink="http://www.w3.org/1999/xlink"><path d="M1520.395,768.252c0,414.787-336.25,751.029-751.024,751.029c-414.782,0-751.024-336.242-751.024-751.029  c0-414.779,336.242-751.029,751.024-751.029C1184.145,17.224,1520.395,353.474,1520.395,768.252z" fill="#FFFFFF"/><g><g><path d="M349.372,1192.707h63.961c-28.272-24.807-46.24-61.078-46.24-101.54c0-12.271-6.498-20.616-8.736-22.111    c-7.108-3.368-10.727-11.105-8.998-18.776c0.021-0.083,0.062-0.165,0.082-0.264c0.813-4.73,3.602-9.052,7.943-11.631    c2.127-1.84,9.708-14.029,9.708-32.066c0-91.239,60.651-165.443,135.2-165.443h97.071l3.187-51.682H324.479L349.372,1192.707z" fill="#D83F5A"/><path d="M1046.136,343.798V517.34l136.021-103.749l9.438-9.438    C1154.328,366.879,1102.877,343.798,1046.136,343.798z" fill="#D83F5A"/></g><g><path d="M1277.84,1038.714c-2.611-2.169-10.193-14.358-10.193-32.396c0-91.239-60.659-165.443-135.208-165.443    H633.07l3.187-51.682h20.851c9.29,0,16.822-7.54,16.822-16.822V696.55c0-9.29-7.532-16.822-16.822-16.822h-25.052l-19.59-51.665    c-2.477-6.538-8.74-10.858-15.729-10.858H330.295c-6.99,0-13.253,4.32-15.729,10.858l-19.59,51.665h-25.052    c-9.29,0-16.822,7.532-16.822,16.822v75.821c0,9.282,7.532,16.822,16.822,16.822h20.851l25.993,421.37    c0.546,8.871,7.902,15.787,16.789,15.787h168.737h91.182h168.294c35.718,0,70.052-14.456,95.202-39.394    c20.683,20.567,47.559,34.055,76.487,38.096c1.987,0.838,4.173,1.298,6.473,1.298h192.508    c74.549,0,135.208-60.651,135.208-135.184c0-12.271,6.497-20.616,8.32-21.882c4.83-2.3,8.091-6.669,9.176-11.646    c0.024-0.05,0.065-0.099,0.082-0.164c0.049-0.165,0.016-0.313,0.057-0.477c0.165-0.674,0.141-1.348,0.223-2.021    C1286.301,1048.488,1283.605,1042.146,1277.84,1038.714z M1234.003,1091.167c0,55.985-45.563,101.54-101.564,101.54H944.481    c-0.92-0.264-1.856-0.443-2.826-0.543c-28.189-2.907-54.112-17.807-71.147-40.871c-6.342-8.592-20.732-8.576-27.073,0.016    c-19.401,26.301-49.185,41.398-81.666,41.398H611.365h-16.851h-16.854h-75.366c-55.998,0-101.556-45.555-101.556-101.54    c0-7.228-1.142-14.046-3.08-20.255h187.514h16.854h16.855h618.203C1235.145,1077.121,1234.003,1083.939,1234.003,1091.167z     M349.372,1192.707l-24.893-403.514h278.072l-3.187,51.682h-97.071c-74.549,0-135.2,74.204-135.2,165.443    c0,18.037-7.582,30.227-9.708,32.066c-4.341,2.579-7.13,6.9-7.943,11.631c-0.021,0.099-0.062,0.181-0.082,0.264    c-1.729,7.671,1.89,15.408,8.998,18.776c2.238,1.495,8.736,9.84,8.736,22.111c0,40.462,17.968,76.733,46.24,101.54H349.372z     M286.745,713.372h19.845h313.851h19.845v42.178h-19.845H306.59h-19.845V713.372z M341.91,650.848h243.211l10.954,28.88H330.956    L341.91,650.848z M1238.742,1036.036H621.028h-16.851h-16.855H395.994c2.928-8.806,4.744-18.892,4.744-29.718    c0-72.676,45.558-131.799,101.556-131.799h94.993h16.854h16.851h501.447c56.002,0,101.564,59.123,101.564,131.799    C1234.003,1017.145,1235.818,1027.23,1238.742,1036.036z" fill="#542324"/><path d="M998.66,1165.602c14.981,0.098,29.027,0.196,42.17,0.196c101.465,0,148.711-5.766,152.966-58.745    c0.378-4.633-3.072-8.69-7.704-9.068c-4.642-0.41-8.69,3.089-9.061,7.722c-3.4,42.252-45.504,43.977-178.257,43.073    c-0.032,0-0.032,0-0.065,0c-4.616,0-8.378,3.729-8.411,8.346C990.266,1161.773,994.011,1165.568,998.66,1165.602z" fill="#542324"/><path d="M998.627,908.853c-4.649,0.033-8.361,3.845-8.329,8.493c0.05,4.616,3.812,8.329,8.411,8.329    c0.033,0,0.065,0,0.082,0c135.463-1.281,174.65,1.134,178.224,64.577c0.255,4.484,3.968,7.951,8.396,7.951    c0.155,0,0.32-0.017,0.476-0.017c4.642-0.263,8.189-4.238,7.927-8.871C1189.18,907.013,1125.506,907.604,998.627,908.853z" fill="#542324"/><path d="M806.686,549.604c0,132.038,107.421,239.458,239.45,239.458s239.45-107.421,239.45-239.458    c0-132.029-107.421-239.45-239.45-239.45S806.686,417.575,806.686,549.604z M1046.136,343.798    c56.741,0,108.192,23.081,145.459,60.355c37.267,37.266,60.347,88.709,60.347,145.451c0,113.482-92.323,205.814-205.806,205.814    S840.33,663.086,840.33,549.604S932.653,343.798,1046.136,343.798z" fill="#542324"/><path d="M1059.277,561.711c1.167-1.084,2.136-2.267,2.99-3.564l123.184-147.069l-3.294,2.513L1046.136,517.34    l-13.208,10.07c-1.314,0.805-2.579,1.741-3.713,2.826c-8.689,8.312-9.002,22.079-0.689,30.786    C1036.821,569.695,1050.588,570.007,1059.277,561.711z" fill="#542324"/><path d="M607.151,357.704h266.56c4.648,0,8.41-3.762,8.41-8.411c0-4.641-3.762-8.411-8.41-8.411h-266.56    c-4.645,0-8.411,3.771-8.411,8.411C598.74,353.942,602.506,357.704,607.151,357.704z" fill="#542324"/><path d="M453.65,429.772h332.238c4.648,0,8.41-3.762,8.41-8.411c0-4.641-3.762-8.411-8.41-8.411H453.65    c-4.645,0-8.411,3.771-8.411,8.411C445.24,426.01,449.006,429.772,453.65,429.772z" fill="#542324"/><path d="M365.976,501.832h391.266c4.646,0,8.407-3.762,8.407-8.411c0-4.641-3.762-8.411-8.407-8.411H365.976    c-4.645,0-8.411,3.77-8.411,8.411C357.565,498.07,361.331,501.832,365.976,501.832z" fill="#542324"/><path d="M759.107,565.489c0-4.641-3.766-8.411-8.411-8.411H453.65c-4.645,0-8.411,3.77-8.411,8.411    c0,4.649,3.766,8.411,8.411,8.411h297.046C755.341,573.9,759.107,570.139,759.107,565.489z" fill="#542324"/><path d="M684.952,645.969h81.962c4.641,0,8.411-3.762,8.411-8.411c0-4.641-3.771-8.411-8.411-8.411h-81.962    c-4.645,0-8.411,3.771-8.411,8.411C676.542,642.207,680.308,645.969,684.952,645.969z" fill="#542324"/></g></g></svg>