<?xml version="1.0" encoding="utf-8"?>
<!-- Generator: Adobe Illustrator 16.0.0, SVG Export Plug-In . SVG Version: 6.00 Build 0)  -->
<!DOCTYPE svg PUBLIC "-//W3C//DTD SVG 1.1//EN" "http://www.w3.org/Graphics/SVG/1.1/DTD/svg11.dtd">
<svg version="1.1" id="Layer_1" xmlns="http://www.w3.org/2000/svg" xmlns:xlink="http://www.w3.org/1999/xlink" x="0px" y="0px"
	 width="64.688px" height="64.688px" viewBox="18.656 17.655 64.688 64.688" enable-background="new 18.656 17.655 64.688 64.688"
	 xml:space="preserve">
<g transform="translate(50 50) scale(0.69 0.69) rotate(0) translate(-50 -50)">
	<g>
		<circle fill="#4285F4" cx="67.933" cy="66.483" r="4.121"/>
		<circle fill="#4285F4" cx="37.026" cy="35.577" r="4.12"/>
		<path fill="#4285F4" d="M94.435,45.157c2.182-3.015,2.79-6.921,1.463-10.71c-1.328-3.792-4.24-6.469-7.821-7.463
			c0.156-0.866,0.209-1.738,0.164-2.601c-0.096-1.846-0.644-3.657-1.63-5.302c-0.507-0.844-1.127-1.645-1.863-2.381
			c-2.839-2.839-6.624-3.988-10.285-3.33c-0.995-3.582-3.673-6.495-7.463-7.822c-3.789-1.325-7.695-0.716-10.708,1.465
			c-2.443-2.784-6.128-4.259-10.115-3.81c-3.99,0.45-7.246,2.69-9.016,5.964c-3.424-1.456-7.37-1.179-10.769,0.957
			c-3.398,2.136-5.358,5.569-5.532,9.286c-3.718,0.173-7.152,2.134-9.286,5.532c-2.136,3.401-2.412,7.345-0.957,10.769
			c-3.272,1.766-5.514,5.024-5.964,9.016c-0.447,3.988,1.02,7.671,3.81,10.114C6.281,57.855,5.674,61.761,7,65.55
			c1.325,3.792,4.237,6.467,7.821,7.463c-0.658,3.66,0.49,7.443,3.329,10.282v0.001l0,0c2.211,2.211,4.992,3.394,7.841,3.501
			c0.812,0.031,1.632-0.025,2.444-0.171c0.995,3.581,3.673,6.492,7.463,7.822c3.789,1.325,7.695,0.716,10.708-1.465
			c2.058,2.354,5.006,3.768,8.274,3.882c0.603,0.021,1.22-0.003,1.843-0.074c3.988-0.45,7.246-2.692,9.016-5.964
			c0.824,0.35,1.676,0.597,2.545,0.746c2.744,0.468,5.641-0.081,8.223-1.703c3.398-2.137,5.358-5.571,5.532-9.286
			c3.718-0.174,7.152-2.134,9.286-5.532c2.136-3.401,2.412-7.345,0.957-10.769c3.272-1.768,5.514-5.026,5.964-9.017
			C98.692,51.282,97.22,47.594,94.435,45.157z M26.724,35.577c0-5.68,4.622-10.302,10.302-10.302c5.68,0,10.302,4.622,10.302,10.302
			s-4.622,10.302-10.302,10.302C31.346,45.879,26.724,41.256,26.724,35.577z M39.213,66.607c-0.606,0.603-1.396,0.907-2.187,0.907
			c-0.791,0-1.581-0.301-2.184-0.907c-1.209-1.206-1.209-3.163,0-4.37L63.689,33.39c1.207-1.207,3.162-1.207,4.37,0
			c1.207,1.207,1.207,3.165,0,4.37L39.213,66.607z M67.933,76.786c-5.68,0-10.302-4.622-10.302-10.302s4.622-10.302,10.302-10.302
			c5.68,0,10.302,4.622,10.302,10.302S73.613,76.786,67.933,76.786z"/>
	</g>
</g>
</svg>
