<?xml version="1.0" encoding="utf-8"?>
<!-- Generator: Adobe Illustrator 16.0.0, SVG Export Plug-In . SVG Version: 6.00 Build 0)  -->
<!DOCTYPE svg PUBLIC "-//W3C//DTD SVG 1.1//EN" "http://www.w3.org/Graphics/SVG/1.1/DTD/svg11.dtd">
<svg version="1.1" id="Layer_1" xmlns="http://www.w3.org/2000/svg" xmlns:xlink="http://www.w3.org/1999/xlink" x="0px" y="0px"
	 width="100px" height="100px" viewBox="0 0 100 100" enable-background="new 0 0 100 100" xml:space="preserve">
<rect x="30.75" y="27.25" fill="#FFFFFF" width="42" height="44.25"/>
<g>
	<path fill="#FFFFFF" d="M542,667h90c2.762,0,5,2.238,5,5v90c0,2.762-2.238,5-5,5h-90c-2.762,0-5-2.238-5-5v-90
		C537,669.238,539.238,667,542,667z"/>
	<g transform="translate(50 50) scale(0.69 0.69) rotate(0) translate(-50 -50)">
		<g>
			<path fill="#FF4500" d="M52.899,0c-27.709,0-50,22.291-50,50c0,27.709,22.291,50,50,50c27.709,0,50-22.291,50-50
				C102.899,22.291,80.607,0,52.899,0z M39.982,26.458c5.832,0,9.791,4.792,9.791,10.417c0,5.626-4.167,10.417-9.791,10.417
				c-5.834,0-9.793-4.791-9.793-10.417C30.19,31.25,34.149,26.458,39.982,26.458z M40.19,73.125h-8.333L65.19,27.499h8.333
				L40.19,73.125z M65.815,73.542c-5.832,0-9.791-4.792-9.791-10.417c0-5.626,4.167-10.417,9.791-10.417
				c5.834,0,9.793,4.791,9.793,10.417C75.607,68.75,71.649,73.542,65.815,73.542z"/>
			<path fill="#FF4500" d="M65.815,58.749c-2.291,0-3.749,2.293-3.749,4.584c0,2.499,1.458,4.583,3.749,4.583
				c2.293,0,3.751-2.291,3.751-4.583C69.773,61.042,68.107,58.749,65.815,58.749z"/>
			<path fill="#FF4500" d="M39.982,41.459c2.291,0,3.749-2.291,3.749-4.584c0-2.499-1.458-4.583-3.749-4.583
				c-2.293,0-3.751,2.291-3.751,4.583C36.232,39.375,37.69,41.459,39.982,41.459z"/>
		</g>
	</g>
</g>
</svg>
