<?xml version="1.0" encoding="utf-8"?>
<!-- Generator: Adobe Illustrator 16.0.0, SVG Export Plug-In . SVG Version: 6.00 Build 0)  -->
<!DOCTYPE svg PUBLIC "-//W3C//DTD SVG 1.1//EN" "http://www.w3.org/Graphics/SVG/1.1/DTD/svg11.dtd">
<svg version="1.1" id="Layer_1" xmlns="http://www.w3.org/2000/svg" xmlns:xlink="http://www.w3.org/1999/xlink" x="0px" y="0px"
	 width="28.75px" height="5.75px" viewBox="0 0 28.75 5.75" enable-background="new 0 0 28.75 5.75" xml:space="preserve">
<g transform="translate(50 50) scale(0.69 0.69) rotate(0) translate(-50 -50)">
	<title>icon/dots</title>
	<desc>Created with Sketch.</desc>
	<g>
		<g>
			<path fill="#4D4D4D" d="M-18.297-14.13c-2.301,0-4.167-1.865-4.167-4.167c0-2.303,1.865-4.167,4.167-4.167
				s4.167,1.864,4.167,4.167C-14.13-15.996-15.996-14.13-18.297-14.13z M-1.63-14.13c-2.301,0-4.167-1.865-4.167-4.167
				c0-2.303,1.865-4.167,4.167-4.167c2.301,0,4.167,1.864,4.167,4.167C2.536-15.996,0.671-14.13-1.63-14.13z M15.036-14.13
				c-2.301,0-4.167-1.865-4.167-4.167c0-2.303,1.865-4.167,4.167-4.167c2.301,0,4.167,1.864,4.167,4.167
				C19.203-15.996,17.338-14.13,15.036-14.13z"/>
		</g>
	</g>
</g>
</svg>
