<?xml version="1.0" encoding="utf-8"?>
<!-- Generator: Adobe Illustrator 16.0.0, SVG Export Plug-In . SVG Version: 6.00 Build 0)  -->
<!DOCTYPE svg PUBLIC "-//W3C//DTD SVG 1.1//EN" "http://www.w3.org/Graphics/SVG/1.1/DTD/svg11.dtd">
<svg version="1.1" id="Layer_1" xmlns="http://www.w3.org/2000/svg" xmlns:xlink="http://www.w3.org/1999/xlink" x="0px" y="0px"
	 width="100px" height="100px" viewBox="0 0 100 100" enable-background="new 0 0 100 100" xml:space="preserve">
<g transform="translate(50 50) scale(0.69 0.69) rotate(0) translate(-50 -50)">
	<path fill="#9C27B0" d="M83.849,6.172c-1.642-1.645-3.827-2.549-6.148-2.549c-2.324,0-4.508,0.904-6.15,2.549l-6.321,6.319
		c-0.001,0-0.001,0.001-0.001,0.001s0,0.001-0.003,0.003L10.81,66.91c-0.093,0.095-0.17,0.201-0.241,0.316
		c-0.006,0.01-0.013,0.014-0.017,0.024c-0.091,0.147-0.163,0.306-0.208,0.476L4.393,90.673c-0.16,0.614,0.018,1.262,0.466,1.713
		c0.338,0.34,0.794,0.524,1.262,0.524c0.149,0,0.3-0.018,0.449-0.058L29.518,86.9c0.001,0,0.004,0,0.004,0
		c0.003,0,0.006-0.004,0.008-0.004c0.202-0.054,0.386-0.153,0.553-0.269c0.047-0.034,0.089-0.065,0.132-0.102
		c0.04-0.031,0.086-0.055,0.12-0.091L84.75,32.018c0.001,0,0.003,0,0.003-0.001c0-0.001,0.001-0.001,0.003-0.003l6.322-6.321
		c1.642-1.64,2.545-3.826,2.545-6.15c0-2.321-0.903-4.506-2.545-6.148L83.849,6.172z M29.89,81.827
		c-1.151-3.111-2.692-5.576-4.376-7.572L74.99,24.781l5.974,5.973L29.89,81.827z M23.021,71.698c-2.7-2.354-5.469-3.687-7.524-4.424
		L66.491,16.28l5.973,5.974L23.021,71.698z M13.361,70.318c1.93,0.577,5.326,1.984,8.415,5.138c0.003,0.003,0.003,0.006,0.006,0.007
		c0.001,0.003,0.006,0.003,0.006,0.007c1.969,2.014,3.792,4.75,5.024,8.444l-18.2,4.72L13.361,70.318z M88.549,23.169l-5.06,5.06
		L69.016,13.755l5.06-5.058c1.935-1.936,5.312-1.936,7.248,0l7.225,7.224c0.968,0.968,1.502,2.256,1.502,3.623
		C90.05,20.914,89.517,22.201,88.549,23.169z"/>
</g>
</svg>
