<?xml version="1.0" encoding="utf-8"?>
<!-- Generator: Adobe Illustrator 16.0.0, SVG Export Plug-In . SVG Version: 6.00 Build 0)  -->
<!DOCTYPE svg PUBLIC "-//W3C//DTD SVG 1.1//EN" "http://www.w3.org/Graphics/SVG/1.1/DTD/svg11.dtd">
<svg version="1.1" id="Layer_1" xmlns="http://www.w3.org/2000/svg" xmlns:xlink="http://www.w3.org/1999/xlink" x="0px" y="0px"
	 width="84.75px" height="84.75px" viewBox="0 0 84.75 84.75" enable-background="new 0 0 84.75 84.75" xml:space="preserve">
<g transform="translate(50 50) scale(0.69 0.69) rotate(0) translate(-50 -50)">
	<g>
		<path fill="#4D4D4D" stroke="#4D4D4D" stroke-width="3" stroke-miterlimit="10" d="M43.688-8.696
			c-27.143,0-49.126,21.983-49.126,49.127c0,27.141,21.983,49.127,49.126,49.127c27.141,0,49.127-21.985,49.127-49.127
			C92.814,13.288,70.829-8.696,43.688-8.696z M43.688,84.56c-24.311,0-44.131-19.816-44.131-44.128
			c0-24.313,19.819-44.131,44.131-44.131c24.315,0,44.129,19.819,44.129,44.131C87.817,64.745,68,84.56,43.688,84.56z"/>
		<path fill="#4D4D4D" stroke="#4D4D4D" stroke-width="3" stroke-miterlimit="10" d="M63.839,47.259
			c-4.496,6.662-11.992,10.659-19.987,10.659c-8.323,0-15.817-4.164-20.314-11.157c-0.666-1.168-2.331-1.499-3.497-0.832
			c-1.169,0.667-1.5,2.332-0.833,3.499c5.327,8.323,14.488,13.321,24.481,13.321c9.658,0,18.652-4.83,24.145-12.82
			c0.835-1.169,0.501-2.666-0.667-3.499C66.167,45.761,64.667,46.092,63.839,47.259z"/>
		<path fill="#4D4D4D" stroke="#4D4D4D" stroke-width="3" stroke-miterlimit="10" d="M27.034,29.274
			c0-2.997-2.499-5.496-5.492-5.496c-2.999,0-5.498,2.499-5.498,5.496c0,2.998,2.499,5.496,5.498,5.496
			C24.535,34.771,27.034,32.437,27.034,29.274z"/>
		<path fill="#4D4D4D" stroke="#4D4D4D" stroke-width="3" stroke-miterlimit="10" d="M65.837,23.778
			c-2.996,0-5.493,2.499-5.493,5.494c0,2.999,2.497,5.498,5.493,5.498s5.496-2.5,5.496-5.498
			C71.333,26.277,69.003,23.778,65.837,23.778z"/>
	</g>
</g>
</svg>
