<?xml version="1.0" encoding="utf-8"?>
<!-- Generator: Adobe Illustrator 16.0.0, SVG Export Plug-In . SVG Version: 6.00 Build 0)  -->
<!DOCTYPE svg PUBLIC "-//W3C//DTD SVG 1.1//EN" "http://www.w3.org/Graphics/SVG/1.1/DTD/svg11.dtd">
<svg version="1.1" id="Layer_1" xmlns="http://www.w3.org/2000/svg" xmlns:xlink="http://www.w3.org/1999/xlink" x="0px" y="0px"
	 width="100px" height="100px" viewBox="0 0 100 100" enable-background="new 0 0 100 100" xml:space="preserve">
<path fill="#FFFFFF" d="M542,667h90c2.762,0,5,2.238,5,5v90c0,2.762-2.238,5-5,5h-90c-2.762,0-5-2.238-5-5v-90
	C537,669.238,539.238,667,542,667z"/>
<g transform="translate(50 50) scale(0.69 0.69) rotate(0) translate(-50 -50)">
	<title>Color Balance Saturation Setting Aperture</title>
	<g>
		<path fill="#FFFFFF" d="M95.825,34.471c0.644-3.143,0.968-6.339,0.978-9.548c0-25.516-20.686-46.2-46.201-46.2
			c-25.516,0-46.201,20.684-46.201,46.2c0.009,3.209,0.335,6.406,0.977,9.548c-23.221,10.577-33.475,37.973-22.896,61.194
			c10.574,23.222,37.973,33.472,61.194,22.895c2.415-1.101,4.733-2.407,6.927-3.906c21.063,14.401,49.814,9,64.215-12.064
			c14.399-21.061,9.001-49.81-12.06-64.213C100.559,36.877,98.242,35.57,95.825,34.471z M14.668,24.922
			c0-19.845,16.088-35.933,35.934-35.933c19.845,0,35.935,16.088,35.935,35.933c-0.004,2.065-0.198,4.129-0.566,6.162
			c-3.189-0.684-6.442-1.028-9.701-1.028c-9.144-0.013-18.079,2.705-25.669,7.803c-7.588-5.098-16.526-7.816-25.667-7.803
			c-3.259,0-6.514,0.345-9.702,1.028C14.863,29.051,14.672,26.987,14.668,24.922z M60.868,76.257
			c-0.011,9.389-3.697,18.396-10.267,25.102c-6.571-6.706-10.255-15.713-10.267-25.102c0.005-2.064,0.195-4.127,0.565-6.161
			c6.395,1.374,13.007,1.374,19.405,0C60.674,72.128,60.864,74.193,60.868,76.257z M50.602,60.855
			c-2.17,0.003-4.338-0.201-6.468-0.614c1.679-3.34,3.86-6.407,6.468-9.086c2.608,2.679,4.787,5.746,6.469,9.086
			C54.941,60.654,52.774,60.86,50.602,60.855z M34.378,56.955c-6.885-3.492-12.466-9.107-15.912-16.016
			c2.13-0.413,4.297-0.621,6.468-0.616c6.128,0.006,12.155,1.577,17.507,4.569C39.131,48.459,36.41,52.533,34.378,56.955z
			 M58.761,44.891c5.353-2.993,11.379-4.564,17.51-4.569c2.171-0.004,4.337,0.203,6.468,0.616
			c-3.448,6.91-9.028,12.525-15.914,16.017C64.793,52.533,62.073,48.459,58.761,44.891z M-10.999,76.257
			c0.011-13.536,7.63-25.921,19.71-32.033c4.562,9.894,12.471,17.854,22.334,22.485c-0.643,3.142-0.967,6.339-0.977,9.548
			c0.025,11.641,4.445,22.843,12.373,31.366c-17.335,9.667-39.221,3.453-48.888-13.877C-9.43,88.399-10.997,82.378-10.999,76.257z
			 M76.271,112.19c-6.131-0.004-12.158-1.575-17.51-4.57c7.929-8.52,12.35-19.724,12.374-31.363
			c-0.007-3.209-0.334-6.407-0.977-9.549c9.863-4.629,17.772-12.591,22.335-22.485c17.687,8.993,24.741,30.624,15.747,48.316
			C102.12,104.577,89.773,112.169,76.271,112.19z"/>
	</g>
</g>
</svg>
