<?xml version="1.0" encoding="utf-8"?>
<!-- Generator: Adobe Illustrator 16.0.0, SVG Export Plug-In . SVG Version: 6.00 Build 0)  -->
<!DOCTYPE svg PUBLIC "-//W3C//DTD SVG 1.1//EN" "http://www.w3.org/Graphics/SVG/1.1/DTD/svg11.dtd">
<svg version="1.1" id="Layer_1" xmlns:sketch="http://www.bohemiancoding.com/sketch/ns"
	 xmlns="http://www.w3.org/2000/svg" xmlns:xlink="http://www.w3.org/1999/xlink" x="0px" y="0px" width="55.589px"
	 height="39.25px" viewBox="22.011 27.188 55.589 39.25" enable-background="new 22.011 27.188 55.589 39.25" xml:space="preserve">
<g transform="translate(50 50) scale(0.69 0.69) rotate(0) translate(-50 -50)">
	<title>friendship</title>
	<desc>Created with Sketch.</desc>
	<g sketch:type="MSPage">
		<g sketch:type="MSArtboardGroup">
			<path sketch:type="MSShapeGroup" fill="#212529" d="M10.001,73.375h36V53.377H54v19.998h36V53.377
				c0-8.001-8.398-12.002-18-12.002H28c-9.601,0-18,4.001-18,12.002V73.375L10.001,73.375z M18,27.376c0,5.999,4,9.999,10.001,9.999
				c5.999,0,10.001-4,10.001-9.999S34,17.376,28,17.376C22,17.376,18,21.377,18,27.376L18,27.376z M61.999,27.376
				c0,5.999,4.001,9.999,10.001,9.999c6.001,0,10.001-4,10.001-9.999S78,17.376,72,17.376C66,17.376,61.999,21.377,61.999,27.376
				L61.999,27.376z"/>
		</g>
	</g>
</g>
</svg>
