<?xml version="1.0" encoding="utf-8"?>
<!-- Generator: Adobe Illustrator 16.0.0, SVG Export Plug-In . SVG Version: 6.00 Build 0)  -->
<!DOCTYPE svg PUBLIC "-//W3C//DTD SVG 1.1//EN" "http://www.w3.org/Graphics/SVG/1.1/DTD/svg11.dtd">
<svg version="1.1"
	 id="Layer_1" xmlns:dc="http://purl.org/dc/elements/1.1/" xmlns:cc="http://creativecommons.org/ns#" xmlns:sodipodi="http://sodipodi.sourceforge.net/DTD/sodipodi-0.dtd" xmlns:rdf="http://www.w3.org/1999/02/22-rdf-syntax-ns#" xmlns:inkscape="http://www.inkscape.org/namespaces/inkscape" xmlns:svg="http://www.w3.org/2000/svg"
	 xmlns="http://www.w3.org/2000/svg" xmlns:xlink="http://www.w3.org/1999/xlink" x="0px" y="0px" width="100px" height="84.667px"
	 viewBox="0 0 100 84.667" enable-background="new 0 0 100 84.667" xml:space="preserve">
<path fill="#4D4D4D" stroke="#4D4D4D" stroke-width="2" stroke-miterlimit="10" d="M38.886,32.022c-1.289,0-2.485,0.25-3.629,0.691
	c-1.142,0.445-2.157,1.072-3.007,1.936c-0.846,0.847-1.506,1.911-2.004,3.146c-0.481,1.232-0.728,2.648-0.728,4.248
	c0,1.604,0.217,3.02,0.658,4.251c0.442,1.237,1.075,2.299,1.868,3.146c0.812,0.851,1.793,1.496,2.936,1.936
	c1.145,0.441,2.386,0.656,3.77,0.656c1.493,0,2.828-0.122,3.975-0.346c1.141-0.222,1.939-0.401,2.419-0.585v-9.229H41.65v6.879
	c-0.258,0.074-0.593,0.154-1.037,0.207c-0.444,0.036-0.982,0.071-1.588,0.069c-0.98,0-1.822-0.185-2.558-0.519
	c-0.719-0.349-1.335-0.809-1.833-1.42c-0.477-0.606-0.845-1.359-1.105-2.212c-0.24-0.862-0.346-1.797-0.346-2.832
	c0-2.172,0.49-3.861,1.523-5.078c1.05-1.238,2.588-1.865,4.561-1.865c0.905,0,1.751,0.137,2.561,0.379
	c0.827,0.221,1.516,0.497,2.073,0.83l1.033-2.867c-0.125-0.076-0.358-0.181-0.69-0.345c-0.311-0.168-0.71-0.338-1.208-0.486
	c-0.501-0.144-1.097-0.267-1.799-0.377C40.554,32.1,39.768,32.022,38.886,32.022L38.886,32.022z M49.187,32.475v19.18h3.487v-19.18
	H49.187z M57.307,32.475v19.18h3.457v-8.361h7.675v-2.976h-7.675v-4.87h8.638v-2.977H57.307V32.475z"/>
<circle fill="none" stroke="#4D4D4D" stroke-width="6" stroke-miterlimit="10" cx="49.459" cy="42.028" r="37.479"/>
</svg>
