<?xml version="1.0" encoding="utf-8"?>
<!-- Generator: Adobe Illustrator 16.0.0, SVG Export Plug-In . SVG Version: 6.00 Build 0)  -->
<!DOCTYPE svg PUBLIC "-//W3C//DTD SVG 1.1//EN" "http://www.w3.org/Graphics/SVG/1.1/DTD/svg11.dtd">
<svg version="1.1" id="Layer_1" xmlns="http://www.w3.org/2000/svg" xmlns:xlink="http://www.w3.org/1999/xlink" x="0px" y="0px"
	 width="100px" height="100px" viewBox="0 0 100 100" enable-background="new 0 0 100 100" xml:space="preserve">
<g>
	<circle fill="#4285F4" cx="50" cy="49.814" r="35.625"/>
	<path fill="#FFFFFF" d="M65.14,43.715c1.303,0,2.443-0.57,3.34-1.385c0.814-0.815,1.385-2.037,1.385-3.341s-0.57-2.444-1.385-3.34
		c-0.896-0.815-2.037-1.385-3.34-1.385c-1.305,0-2.444,0.569-3.341,1.385c-0.814,0.896-1.385,2.036-1.385,3.34
		s0.57,2.525,1.385,3.341C62.695,43.145,63.835,43.715,65.14,43.715z"/>
	<path fill="#FFFFFF" d="M35.241,43.715c1.223,0,2.444-0.57,3.26-1.385c0.896-0.815,1.385-2.037,1.385-3.341
		s-0.489-2.444-1.385-3.34c-0.815-0.815-2.037-1.385-3.26-1.385c-1.303,0-2.525,0.569-3.34,1.385
		c-0.896,0.896-1.385,2.036-1.385,3.34s0.489,2.525,1.385,3.341C32.716,43.145,33.938,43.715,35.241,43.715z"/>
	<path fill="#FFFFFF" d="M50.149,39.967c1.793,0,3.34-0.732,4.48-1.873s1.874-2.689,1.874-4.399c0-1.792-0.733-3.341-1.874-4.48
		c-1.141-1.141-2.688-1.874-4.48-1.874c-1.711,0-3.258,0.733-4.398,1.874c-1.141,1.14-1.874,2.688-1.874,4.48
		c0,1.71,0.733,3.259,1.874,4.399S48.438,39.967,50.149,39.967z"/>
	<path fill="#FFFFFF" d="M23.104,38.745c-0.896,0-1.71,0.407-2.28,0.978s-0.896,1.385-0.896,2.281c0,0.896,0.326,1.711,0.896,2.281
		c0.57,0.569,1.385,0.977,2.28,0.977c0.896,0,1.711-0.407,2.281-0.977c0.57-0.57,0.978-1.386,0.978-2.281
		c0-0.896-0.407-1.711-0.978-2.281S24,38.745,23.104,38.745z"/>
	<path fill="#FFFFFF" d="M77.196,45.262c0.896,0,1.71-0.407,2.361-0.977c0.57-0.57,0.896-1.386,0.896-2.281
		c0-0.896-0.326-1.711-0.896-2.281c-0.651-0.57-1.466-0.978-2.361-0.978c-0.815,0-1.63,0.407-2.281,0.978
		c-0.57,0.57-0.896,1.385-0.896,2.281c0,0.896,0.326,1.711,0.896,2.281C75.566,44.854,76.381,45.262,77.196,45.262z"/>
	<path fill="#FFFFFF" d="M37.686,46.565c-0.733-0.244-1.629-0.325-2.444-0.325c-2.525,0-4.725,0.977-6.354,2.606
		c-1.629,1.629-2.607,3.829-2.607,6.272v6.436h9.613v-5.865c0-3.259,1.141-6.272,3.014-8.635
		C38.501,46.892,38.093,46.729,37.686,46.565z"/>
	<path fill="#FFFFFF" d="M65.14,46.24c-0.896,0-1.711,0.081-2.525,0.325c-0.408,0.163-0.815,0.326-1.141,0.489
		c1.873,2.362,2.932,5.376,2.932,8.635v5.865h9.695v-6.436c0-2.443-1.06-4.644-2.689-6.272C69.864,47.217,67.583,46.24,65.14,46.24z
		"/>
	<g>
		<path fill="none" d="M50.149,39.967c1.793,0,3.34-0.732,4.48-1.873s1.874-2.689,1.874-4.399c0-1.792-0.733-3.341-1.874-4.48
			c-1.141-1.141-2.688-1.874-4.48-1.874c-1.711,0-3.258,0.733-4.398,1.874c-1.141,1.14-1.874,2.688-1.874,4.48
			c0,1.71,0.733,3.259,1.874,4.399S48.438,39.967,50.149,39.967z"/>
		<path fill="none" d="M35.241,43.715c1.223,0,2.444-0.57,3.26-1.385c0.896-0.815,1.385-2.037,1.385-3.341s-0.489-2.444-1.385-3.34
			c-0.815-0.815-2.037-1.385-3.26-1.385c-1.303,0-2.525,0.569-3.34,1.385c-0.896,0.896-1.385,2.036-1.385,3.34
			s0.489,2.525,1.385,3.341C32.716,43.145,33.938,43.715,35.241,43.715z"/>
		<path fill="none" d="M65.14,43.715c1.303,0,2.443-0.57,3.34-1.385c0.814-0.815,1.385-2.037,1.385-3.341s-0.57-2.444-1.385-3.34
			c-0.896-0.815-2.037-1.385-3.34-1.385c-1.305,0-2.444,0.569-3.341,1.385c-0.814,0.896-1.385,2.036-1.385,3.34
			s0.57,2.525,1.385,3.341C62.695,43.145,63.835,43.715,65.14,43.715z"/>
		<path fill="none" d="M37.686,46.565c-0.733-0.244-1.629-0.325-2.444-0.325c-2.525,0-4.725,0.977-6.354,2.606
			c-1.629,1.629-2.607,3.829-2.607,6.272v6.436h9.613v-5.865c0-3.259,1.141-6.272,3.014-8.635
			C38.501,46.892,38.093,46.729,37.686,46.565z"/>
		<path fill="none" d="M23.104,38.745c-0.896,0-1.71,0.407-2.28,0.978s-0.896,1.385-0.896,2.281c0,0.896,0.326,1.711,0.896,2.281
			c0.57,0.569,1.385,0.977,2.28,0.977c0.896,0,1.711-0.407,2.281-0.977c0.57-0.57,0.978-1.386,0.978-2.281
			c0-0.896-0.407-1.711-0.978-2.281S24,38.745,23.104,38.745z"/>
		<path fill="none" d="M77.196,45.262c0.896,0,1.71-0.407,2.361-0.977c0.57-0.57,0.896-1.386,0.896-2.281
			c0-0.896-0.326-1.711-0.896-2.281c-0.651-0.57-1.466-0.978-2.361-0.978c-0.815,0-1.63,0.407-2.281,0.978
			c-0.57,0.57-0.896,1.385-0.896,2.281c0,0.896,0.326,1.711,0.896,2.281C75.566,44.854,76.381,45.262,77.196,45.262z"/>
		<path fill="none" d="M50.149,43.796c-3.258,0-6.272,1.304-8.391,3.503c-2.199,2.118-3.503,5.132-3.503,8.391v8.635h23.869v-8.635
			c0-3.259-1.385-6.191-3.503-8.391C56.423,45.1,53.489,43.796,50.149,43.796z"/>
		<path fill="none" d="M65.14,46.24c-0.896,0-1.711,0.081-2.525,0.325c-0.408,0.163-0.815,0.326-1.141,0.489
			c1.873,2.362,2.932,5.376,2.932,8.635v5.865h9.695v-6.436c0-2.443-1.06-4.644-2.689-6.272C69.864,47.217,67.583,46.24,65.14,46.24
			z"/>
	</g>
	<path fill="#FFFFFF" d="M50.149,43.796c-3.258,0-6.272,1.304-8.391,3.503c-2.199,2.118-3.503,5.132-3.503,8.391v8.635h23.869
		v-8.635c0-3.259-1.385-6.191-3.503-8.391C56.423,45.1,53.489,43.796,50.149,43.796z"/>
	<path fill="#FFFFFF" d="M76.503,47.283c-0.612,0-1.169,0.055-1.726,0.222c-0.279,0.111-0.557,0.223-0.779,0.335
		c1.279,1.613,2.003,3.672,2.003,5.898v4.008h6.624v-4.397c0-1.669-0.724-3.172-1.838-4.285
		C79.73,47.95,78.172,47.283,76.503,47.283z"/>
	<path fill="#FFFFFF" d="M25.932,47.466c-0.509-0.169-1.129-0.226-1.695-0.226c-1.75,0-3.275,0.677-4.404,1.807
		c-1.129,1.129-1.808,2.654-1.808,4.349v4.461h6.664v-4.065c0-2.26,0.791-4.349,2.089-5.986
		C26.496,47.691,26.213,47.579,25.932,47.466z"/>
</g>
</svg>
