<?xml version="1.0" ?><svg enable-background="new 0 0 64 64" height="64px" id="Layer_1_1_" version="1.1" viewBox="0 0 64 64" width="64px" xml:space="preserve" xmlns="http://www.w3.org/2000/svg" xmlns:xlink="http://www.w3.org/1999/xlink"><g><g><path d="M32,26c-4.411,0-8-3.589-8-8v-6h6c1.654,0,3-1.346,3-3h2c0,1.654,1.346,3,3,3h2v6    C40,22.411,36.411,26,32,26z M26,14v4c0,3.309,2.691,6,6,6s6-2.691,6-6v-4c-1.634,0-3.087-0.788-4-2.003    C33.087,13.212,31.634,14,30,14H26z" fill="#333333"/></g><g><path d="M43.657,30.754l-1.314-1.508l0.541-0.471C43.586,28.068,44,27.065,44,26c0-0.858-0.284-1.688-0.822-2.399    l-0.606-0.803l0.807-0.602C44.408,21.427,45,20.262,45,19c0-1.895-1.346-3.543-3.199-3.919L41,14.918V12c0-4.962-4.037-9-9-9    c-4.962,0-9,4.038-9,9v2.918l-0.801,0.163C20.345,15.457,19,17.105,19,19c0,1.262,0.591,2.427,1.622,3.196l0.807,0.602    l-0.607,0.803C20.284,24.312,20,25.142,20,26c0,1.065,0.415,2.068,1.167,2.823l0.489,0.423l-1.313,1.508l-0.541-0.471    C18.622,29.102,18,27.598,18,26c0-0.988,0.246-1.947,0.718-2.817C17.617,22.068,17,20.586,17,19c0-2.561,1.64-4.822,4-5.658V12    c0-6.065,4.935-11,11-11s11,4.935,11,11v1.342c2.36,0.835,4,3.097,4,5.658c0,1.586-0.617,3.067-1.718,4.183    C45.754,24.053,46,25.012,46,26c0,1.598-0.622,3.102-1.751,4.235L43.657,30.754z" fill="#333333"/></g><g><path d="M47.868,33.493L35,27.644V23.74h2v2.616l9.132,4.151l0.612-6.745c0.111-1.22,0.752-2.321,1.759-3.022    l1.143,1.642c-0.521,0.362-0.853,0.932-0.909,1.562L47.868,33.493z" fill="#333333"/></g><g><path d="M42,62h-2V36.557l8.633,3.237C48.996,39.931,49.378,40,49.768,40C51.55,40,53,38.55,53,36.768V24.136    c0-0.58-0.229-1.123-0.644-1.529l1.396-1.431C54.558,21.962,55,23.013,55,24.136v12.631C55,39.652,52.652,42,49.768,42    c-0.631,0-1.249-0.112-1.838-0.333L42,39.443V62z" fill="#333333"/></g><g><path d="M63,20h-3.192L54,17.677V8.323L59.808,6H63V20z M60.192,18H61V8h-0.808L56,9.677v6.646L60.192,18z" fill="#333333"/></g><g><path d="M56,18h-7c-1.654,0-3-1.346-3-3v-4c0-1.654,1.346-3,3-3h7V18z M49,10c-0.552,0-1,0.449-1,1v4    c0,0.551,0.448,1,1,1h5v-6H49z" fill="#333333"/></g><g><path d="M51,26c-1.654,0-3-1.346-3-3v-7h6v7C54,24.654,52.654,26,51,26z M50,18v5c0,0.551,0.448,1,1,1s1-0.449,1-1    v-5H50z" fill="#333333"/></g><g><path d="M24,62h-2V39.443l-5.93,2.224C15.482,41.888,14.864,42,14.232,42C11.347,42,9,39.652,9,36.768V24.136    C9,21.855,10.855,20,13.136,20c2.153,0,3.924,1.617,4.119,3.761l0.613,6.746L27,26.356V23.74h2v3.904l-12.868,5.849l-0.869-9.551    C15.163,22.835,14.248,22,13.136,22C11.958,22,11,22.958,11,24.136v12.631C11,38.55,12.45,40,14.232,40    c0.39,0,0.772-0.069,1.134-0.205L24,36.557V62z" fill="#333333"/></g><g><rect fill="#333333" height="21" width="2" x="12" y="3"/></g><g><polygon fill="#F9BA48" points="2,7 12,3 12,11   "/></g><g><rect fill="#333333" height="2" width="18" x="23" y="52"/></g><g><rect fill="#333333" height="3" width="2" x="31" y="59"/></g><g><polygon fill="#333333" points="33.64,43 30.36,43 24.092,29.419 25.908,28.581 31.64,41 32.36,41 38.092,28.581 39.908,29.419       "/></g><g><g><path d="M36,50h-8c-1.103,0-2-0.897-2-2v-5c0-1.103,0.897-2,2-2h8c1.103,0,2,0.897,2,2v5     C38,49.103,37.103,50,36,50z" fill="#F9BA48"/></g></g><g><path d="M32,33c-2.757,0-5-2.243-5-5v-1h2v1c0,1.654,1.346,3,3,3s3-1.346,3-3v-1h2v1C37,30.757,34.757,33,32,33z" fill="#333333"/></g></g></svg>