<?xml version="1.0" encoding="utf-8"?>
<!-- Generator: Adobe Illustrator 16.0.0, SVG Export Plug-In . SVG Version: 6.00 Build 0)  -->
<!DOCTYPE svg PUBLIC "-//W3C//DTD SVG 1.1//EN" "http://www.w3.org/Graphics/SVG/1.1/DTD/svg11.dtd">
<svg version="1.1"
	 id="Layer_1" xmlns:dc="http://purl.org/dc/elements/1.1/" xmlns:cc="http://creativecommons.org/ns#" xmlns:rdf="http://www.w3.org/1999/02/22-rdf-syntax-ns#"
	 xmlns="http://www.w3.org/2000/svg" xmlns:xlink="http://www.w3.org/1999/xlink" x="0px" y="0px" width="100px" height="100px"
	 viewBox="0 0 100 100" enable-background="new 0 0 100 100" xml:space="preserve">
<g transform="translate(50 50) scale(0.69 0.69) rotate(0) translate(-50 -50)">
	<g transform="translate(0,-952.36218)">
		<path fill="#4D4D4D" stroke="#4D4D4D" stroke-miterlimit="10" d="M16.872,957.31c-0.801-0.001-1.541,0.399-2.188,1.032
			c-0.645,0.633-1.234,1.517-1.78,2.625c-1.091,2.215-2.038,5.358-2.843,9.219c-1.612,7.719-2.603,18.345-2.625,30.123
			c-0.023,11.78,0.92,22.399,2.499,30.126c0.791,3.864,1.729,6.997,2.814,9.218c0.541,1.111,1.107,1.988,1.749,2.625
			c0.643,0.637,1.387,1.062,2.188,1.062l18.937,0.031c0.328,0.048,0.634-0.178,0.682-0.507c0.048-0.327-0.18-0.631-0.508-0.679
			c-0.058-0.009-0.116-0.009-0.174,0l-14.436-0.062v-2.814l14.436,0.031c0.337,0.011,0.62-0.252,0.631-0.587
			c0.011-0.337-0.252-0.619-0.589-0.63c-0.003,0-0.007,0-0.011,0l-14.467-0.031v-2.845l14.467,0.031
			c0.328,0.048,0.634-0.178,0.682-0.507s-0.18-0.633-0.507-0.681c-0.059-0.009-0.116-0.009-0.176,0l-14.436-0.031v-2.843
			l14.436,0.031c0.328,0.048,0.634-0.18,0.682-0.507c0.048-0.328-0.18-0.634-0.507-0.682c-0.059-0.007-0.116-0.007-0.176,0
			l-14.436-0.03v-2.843l14.436,0.031c0.328,0.048,0.634-0.18,0.682-0.508c0.048-0.327-0.18-0.633-0.507-0.681
			c-0.059-0.008-0.116-0.008-0.176,0l-14.436-0.031v-2.843l14.467,0.031c0.337-0.004,0.606-0.282,0.603-0.617
			c-0.006-0.33-0.272-0.597-0.603-0.602l-14.467-0.031v-2.812l14.467,0.031c0.337,0,0.61-0.273,0.61-0.61
			c0-0.337-0.273-0.609-0.61-0.609l-14.438-0.031v-2.845l14.438,0.031c0.328,0.048,0.634-0.178,0.682-0.507
			c0.048-0.328-0.18-0.633-0.508-0.679c-0.058-0.008-0.116-0.008-0.174,0l-14.438-0.031v-2.845l14.438,0.031
			c0.328,0.048,0.634-0.178,0.682-0.507c0.048-0.328-0.18-0.633-0.508-0.681c-0.058-0.008-0.116-0.008-0.174,0l-14.438-0.031v-2.843
			l14.469,0.031c0.328,0.048,0.634-0.18,0.682-0.507c0.047-0.328-0.18-0.634-0.508-0.682c-0.058-0.008-0.116-0.008-0.174,0
			l-14.469-0.061v-2.812l14.469,0.031c0.337-0.004,0.607-0.28,0.603-0.617c-0.003-0.331-0.272-0.599-0.603-0.603l-14.438-0.031
			v-2.842l14.438,0.03c0.328,0.048,0.634-0.18,0.681-0.508c0.048-0.327-0.18-0.631-0.508-0.679c-0.057-0.008-0.115-0.008-0.173,0
			l-14.438-0.031v-2.843l14.438,0.031c0.328,0.048,0.634-0.18,0.682-0.507c0.047-0.328-0.18-0.633-0.508-0.681
			c-0.058-0.009-0.116-0.009-0.174,0l-14.438-0.031v-2.845l14.469,0.031c0.328,0.048,0.634-0.178,0.681-0.507
			c0.048-0.328-0.18-0.631-0.507-0.679c-0.058-0.008-0.116-0.008-0.174,0l-14.469-0.031v-2.845l14.469,0.031
			c0.337,0,0.61-0.272,0.61-0.609s-0.273-0.61-0.61-0.61l-14.438-0.031v-2.812l14.438,0.031c0.337,0,0.61-0.273,0.61-0.61
			c0-0.335-0.273-0.61-0.61-0.61l-14.438-0.031v-2.842l14.438,0.031c0.328,0.047,0.634-0.18,0.681-0.508
			c0.048-0.327-0.18-0.633-0.507-0.681c-0.058-0.008-0.116-0.008-0.174,0l-14.405-0.031v-2.843l14.438,0.031
			c0.327,0.048,0.633-0.18,0.681-0.507c0.048-0.328-0.178-0.633-0.507-0.681c-0.058-0.008-0.116-0.008-0.174,0l-14.438-0.031v-2.845
			l14.438,0.031c0.337,0,0.61-0.272,0.61-0.609c0-0.337-0.273-0.609-0.61-0.609l-14.438-0.031v-2.814l14.438,0.031
			c0.337,0,0.61-0.272,0.61-0.609c0-0.337-0.273-0.61-0.61-0.61l-14.438-0.031v-2.843l14.438,0.031
			c0.327,0.048,0.633-0.178,0.681-0.507c0.048-0.328-0.178-0.634-0.507-0.681c-0.058-0.008-0.116-0.008-0.174,0l-14.438-0.033
			v-2.811c0-0.011,0-0.021,0-0.031l14.469,0.031c0.327,0.048,0.633-0.18,0.681-0.507c0.048-0.328-0.18-0.634-0.507-0.682
			c-0.058-0.008-0.116-0.008-0.174,0L16.872,957.31L16.872,957.31z M63.529,957.749c-4.351,0.759-7.249,4.894-6.501,9.249
			l7.282,42.97l-3.125,10.405c-1.296-1.104-2.75-2.058-4.47-2.625c-7.173-2.362-14.903,1.563-17.25,8.751
			c-2.348,7.187,1.546,14.948,8.718,17.312c7.173,2.362,14.903-1.563,17.25-8.751l2.001-6.656l0.812,4.75
			c1.279,7.453,8.373,12.455,15.812,11.156c7.439-1.296,12.436-8.391,11.155-15.843c-1.281-7.452-8.342-12.486-15.781-11.188
			c-1.803,0.314-3.419,1.049-4.874,1.969l-1.531-9.25l12.656-41.906v-0.031c1.35-4.193-0.911-8.683-5.095-10.061
			c-0.099-0.038-0.207-0.048-0.311-0.031c-0.208,0.048-0.374,0.202-0.439,0.405l-9.968,33.127l-5.657-33.251
			c-0.051-0.327-0.357-0.551-0.685-0.5c0,0,0,0-0.001,0L63.529,957.749z M16.872,958.53h3.281c0,0.01,0,0.02,0,0.031l-0.187,83.561
			h-3.25c-0.413-0.001-0.877-0.195-1.376-0.686c-0.498-0.493-0.996-1.281-1.5-2.313c-1.006-2.065-1.939-5.104-2.717-8.908
			c-1.557-7.607-2.525-18.192-2.501-29.905c0.024-11.712,1.006-22.274,2.594-29.874c0.793-3.802,1.766-6.878,2.781-8.938
			c0.508-1.03,1.032-1.79,1.531-2.281C16.028,958.727,16.46,958.529,16.872,958.53L16.872,958.53z M63.152,959.154l5.939,34.969
			v0.031l-4,13.25l-6.876-40.594C57.612,963.294,59.79,960.061,63.152,959.154z M80.748,959.436
			c3.196,1.387,4.918,4.894,3.813,8.281l-12.69,41.999c-0.011,0.031-0.023,0.062-0.031,0.095l-4.781,15.844
			c-0.011,0.02-0.021,0.04-0.031,0.062l-2.717,8.968v0.031c-2.157,6.556-9.205,10.095-15.751,7.938
			c-6.556-2.161-10.115-9.209-7.97-15.782c2.148-6.573,9.195-10.128,15.751-7.968c1.854,0.611,3.431,1.625,4.75,2.907
			c0.234,0.235,0.613,0.235,0.848,0.001c0.071-0.069,0.125-0.157,0.153-0.252l3.343-11.188c0.014-0.031,0.024-0.062,0.031-0.093
			l0.031-0.031l4.781-15.875c0.016-0.041,0.025-0.082,0.031-0.126c0.003-0.02,0.003-0.041,0-0.062L80.748,959.436L80.748,959.436z
			 M72.247,1012.623l1.281,7.657c0.047,0.328,0.352,0.555,0.681,0.508c0.092-0.013,0.181-0.048,0.258-0.102
			c1.492-1.077,3.235-1.884,5.156-2.218c6.798-1.187,13.235,3.371,14.406,10.187c1.17,6.815-3.357,13.281-10.156,14.469
			c-6.799,1.187-13.267-3.343-14.439-10.156l-1.186-7.094l4-13.25V1012.623z M51.779,1022.748c-3.119,0.262-5.937,2.371-6.969,5.531
			c-1.377,4.215,0.95,8.771,5.155,10.156c4.206,1.387,8.749-0.941,10.125-5.156c1.377-4.215-0.95-8.771-5.155-10.155
			C53.882,1022.777,52.818,1022.662,51.779,1022.748z M81.997,1022.748c-0.548-0.016-1.093,0.033-1.625,0.125
			c-4.363,0.763-7.313,4.944-6.563,9.313c0.75,4.372,4.921,7.293,9.282,6.532c4.359-0.76,7.313-4.912,6.561-9.28
			C88.996,1025.613,85.734,1022.859,81.997,1022.748z M81.935,1023.937c3.169,0.093,5.97,2.423,6.532,5.687
			c0.64,3.731-1.84,7.256-5.564,7.906c-3.724,0.651-7.265-1.803-7.906-5.531c-0.641-3.731,1.841-7.289,5.564-7.937
			C81.038,1023.978,81.495,1023.923,81.935,1023.937z M51.872,1023.968c0.883-0.074,1.79,0.016,2.688,0.311
			c3.588,1.183,5.549,5.058,4.375,8.656c-1.175,3.598-5.005,5.527-8.594,4.345c-3.588-1.183-5.549-5.027-4.375-8.625
			C46.848,1025.955,49.222,1024.186,51.872,1023.968L51.872,1023.968z"/>
	</g>
</g>
</svg>
