<?xml version="1.0" encoding="utf-8"?>
<!-- Generator: Adobe Illustrator 16.0.0, SVG Export Plug-In . SVG Version: 6.00 Build 0)  -->
<!DOCTYPE svg PUBLIC "-//W3C//DTD SVG 1.1//EN" "http://www.w3.org/Graphics/SVG/1.1/DTD/svg11.dtd">
<svg version="1.1"
	 id="Layer_1" xmlns:dc="http://purl.org/dc/elements/1.1/" xmlns:cc="http://creativecommons.org/ns#" xmlns:sodipodi="http://sodipodi.sourceforge.net/DTD/sodipodi-0.dtd" xmlns:rdf="http://www.w3.org/1999/02/22-rdf-syntax-ns#" xmlns:inkscape="http://www.inkscape.org/namespaces/inkscape" xmlns:svg="http://www.w3.org/2000/svg"
	 xmlns="http://www.w3.org/2000/svg" xmlns:xlink="http://www.w3.org/1999/xlink" x="0px" y="0px" width="100px" height="72.949px"
	 viewBox="0 0 100 72.949" enable-background="new 0 0 100 72.949" xml:space="preserve">
<g transform="translate(50 50) scale(0.69 0.69) rotate(0) translate(-50 -50)">
	<g transform="translate(0,-952.36218)">
		<path fill="#4D4D4D" d="M-11.02,929.898c-5.115,0-9.328,4.215-9.328,9.328v87.066c0,5.112,4.213,9.33,9.328,9.33h121.271
			c5.111,0,9.327-4.218,9.327-9.33v-87.066c0-5.113-4.216-9.328-9.327-9.328H-11.02z M-11.02,936.117h121.271
			c1.776,0,3.108,1.333,3.108,3.109v65.055l-26.043-20.843c-1.028-0.824-2.598-0.886-3.693-0.146l-22.982,15.792l-30.849-24.973
			c-0.648-0.528-1.507-0.778-2.332-0.681c-0.488,0.067-0.96,0.252-1.36,0.536l-40.231,27.739v-62.479
			C-14.129,937.45-12.797,936.117-11.02,936.117L-11.02,936.117z M60.499,951.664c-6.833,0-12.437,5.606-12.437,12.439
			c0,6.831,5.604,12.438,12.437,12.438c6.83,0,12.436-5.607,12.436-12.438C72.935,957.27,67.33,951.664,60.499,951.664z
			 M60.499,957.884c3.47,0,6.219,2.748,6.219,6.219c0,3.471-2.749,6.22-6.219,6.22c-3.473,0-6.219-2.749-6.219-6.22
			C54.28,960.632,57.026,957.884,60.499,957.884z M27.703,980.378l30.849,24.973c1.03,0.824,2.604,0.886,3.697,0.147l22.931-15.788
			l28.18,22.539v14.045c0,1.775-1.332,3.108-3.108,3.108H-11.02c-1.776,0-3.109-1.333-3.109-3.108v-17.054L27.703,980.378
			L27.703,980.378z"/>
	</g>
</g>
</svg>
