<?xml version="1.0" encoding="utf-8"?>
<!-- Generator: Adobe Illustrator 16.0.0, SVG Export Plug-In . SVG Version: 6.00 Build 0)  -->
<!DOCTYPE svg PUBLIC "-//W3C//DTD SVG 1.1//EN" "http://www.w3.org/Graphics/SVG/1.1/DTD/svg11.dtd">
<svg version="1.1" id="Layer_1" xmlns="http://www.w3.org/2000/svg" xmlns:xlink="http://www.w3.org/1999/xlink" x="0px" y="0px"
	 width="16.574px" height="10.866px" viewBox="0 0 16.574 10.866" enable-background="new 0 0 16.574 10.866" xml:space="preserve">
<path fill="#42489C" d="M16.299,10.866H0.286C0.128,10.866,0,10.737,0,10.579V0.286C0,0.128,0.128,0,0.286,0h16.013
	c0.158,0,0.286,0.128,0.286,0.286v10.293C16.585,10.737,16.457,10.866,16.299,10.866"/>
<path fill="#F5F6F6" d="M16.585,0.286C16.585,0.128,16.457,0,16.299,0H15.02L9.722,3.471V0H6.863v3.471L1.565,0H0.286
	C0.128,0,0,0.128,0,0.286v0.74l4.545,2.977H0v2.859h4.545L0,9.841v0.738c0,0.158,0.128,0.287,0.286,0.287h1.279l5.298-3.472v3.472
	h2.859V7.395l5.298,3.472h1.279c0.158,0,0.286-0.129,0.286-0.287V9.841l-4.546-2.979h4.546V4.003h-4.546l4.546-2.977V0.286z"/>
<polygon fill="#F04F58" points="16.585,4.575 9.15,4.575 9.15,0 7.435,0 7.435,4.575 0,4.575 0,6.291 7.435,6.291 7.435,10.866 
	9.15,10.866 9.15,6.291 16.585,6.291 "/>
<path fill="#F04F58" d="M5.796,6.862L0.008,10.62c0.02,0.139,0.134,0.245,0.277,0.245H0.68l6.167-4.003H5.796z"/>
<path fill="#F04F58" d="M11.221,6.862H10.17l6.158,3.997c0.143-0.015,0.258-0.132,0.258-0.28v-0.234L11.221,6.862z"/>
<path fill="#F04F58" d="M0,0.602l5.24,3.402h1.051L0.167,0.027C0.069,0.073,0,0.17,0,0.285V0.602z"/>
<path fill="#F04F58" d="M10.772,4.003l5.802-3.766C16.551,0.103,16.439,0,16.299,0H15.89L9.723,4.003H10.772z"/>
</svg>
