<?xml version="1.0" encoding="utf-8"?>
<!-- Generator: Adobe Illustrator 16.0.0, SVG Export Plug-In . SVG Version: 6.00 Build 0)  -->
<!DOCTYPE svg PUBLIC "-//W3C//DTD SVG 1.1//EN" "http://www.w3.org/Graphics/SVG/1.1/DTD/svg11.dtd">
<svg version="1.1" id="Layer_1" xmlns="http://www.w3.org/2000/svg" xmlns:xlink="http://www.w3.org/1999/xlink" x="0px" y="0px"
	 width="21.125px" height="21.063px" viewBox="-0.51 0.655 21.125 21.063" enable-background="new -0.51 0.655 21.125 21.063"
	 xml:space="preserve">
<g>
	<path fill="#557EBF" stroke="#557DBF" stroke-width="0.5" stroke-miterlimit="10" d="M18.597,4.332
		c-0.181,0-0.328,0.146-0.328,0.327h-1.175l-1.118-1.12V1.382c0-0.183-0.148-0.33-0.33-0.33c-1.083,0-1.965,0.882-1.965,1.969v1.639
		h-2.46c-0.633,0-1.146,0.514-1.146,1.146c0,0.324,0.133,0.612,0.346,0.82c-0.213,0.209-0.346,0.499-0.346,0.82
		c0,0.412,0.218,0.77,0.544,0.972c-0.133,0.189-0.215,0.418-0.215,0.667c0,0.411,0.219,0.77,0.544,0.972
		c-0.136,0.189-0.219,0.418-0.219,0.667c0,0.633,0.517,1.147,1.148,1.147h6.393c0,0.182,0.148,0.329,0.328,0.329h1.64v-0.655h-1.313
		V4.987h1.313V4.332H18.597z M18.269,11.217h-6.393c-0.271,0-0.491-0.22-0.491-0.492c0-0.273,0.221-0.494,0.491-0.494h0.163h0.328
		V9.577H12.04h-0.163h-0.328c-0.271,0-0.491-0.22-0.491-0.493c0-0.271,0.221-0.493,0.491-0.493h0.164h0.327V7.937h-0.327h-0.164
		h-0.328c-0.27,0-0.493-0.221-0.493-0.492c0-0.271,0.222-0.493,0.493-0.493h0.493V6.299h-0.493c-0.27,0-0.493-0.222-0.493-0.494
		c0-0.27,0.222-0.491,0.493-0.491h2.787c0.184,0,0.326-0.146,0.326-0.328V3.02c0-0.61,0.421-1.125,0.985-1.27v1.924
		c0,0.087,0.035,0.171,0.097,0.233l1.311,1.31c0.062,0.063,0.146,0.097,0.233,0.097h1.311L18.269,11.217L18.269,11.217z"/>
	<path fill="#557EBF" stroke="#557DBF" stroke-width="0.5" stroke-miterlimit="10" d="M10.074,14.986c0-0.412-0.22-0.77-0.547-0.969
		c0.134-0.191,0.219-0.421,0.219-0.669c0-0.409-0.219-0.769-0.544-0.971c0.134-0.189,0.215-0.42,0.215-0.669
		c0-0.632-0.514-1.147-1.146-1.147H1.877c0-0.18-0.147-0.327-0.328-0.327h-1.64v0.655h1.313v6.559h-1.313v0.655h1.639
		c0.181,0,0.328-0.147,0.328-0.329h1.176l1.119,1.12v2.16c0,0.182,0.146,0.326,0.329,0.326c1.084,0,1.966-0.883,1.966-1.967v-1.64
		h2.458c0.633,0,1.149-0.514,1.149-1.146c0-0.32-0.133-0.609-0.346-0.818C9.941,15.599,10.074,15.308,10.074,14.986 M8.925,16.135
		c0.274,0,0.492,0.221,0.492,0.491c0,0.273-0.218,0.492-0.492,0.492H6.139c-0.181,0-0.328,0.147-0.328,0.329v1.965
		c0,0.611-0.419,1.124-0.984,1.271v-1.926c0-0.087-0.033-0.172-0.094-0.232l-1.311-1.312c-0.063-0.062-0.146-0.097-0.234-0.097
		H1.877v-5.9h6.394c0.27,0,0.492,0.22,0.492,0.49c0,0.271-0.222,0.493-0.492,0.493H8.106H7.778v0.655h0.328h0.166h0.327
		c0.272,0,0.491,0.219,0.491,0.492c0,0.271-0.219,0.493-0.491,0.493H8.436H8.106v0.655h0.331h0.162h0.326
		c0.274,0,0.492,0.219,0.492,0.49c0,0.273-0.218,0.495-0.492,0.495H8.436v0.654L8.925,16.135L8.925,16.135z"/>
	<path fill="#557EBF" stroke="#557DBF" stroke-width="0.5" stroke-miterlimit="10" d="M10.073,3.675
		c-3.641,0-6.758,2.595-7.414,6.17l0.644,0.119c0.6-3.264,3.448-5.635,6.77-5.635c0.105,0,0.212,0.003,0.313,0.007l0.03-0.654
		C10.303,3.678,10.189,3.675,10.073,3.675"/>
	<path fill="#557EBF" stroke="#557DBF" stroke-width="0.5" stroke-miterlimit="10" d="M16.845,12.469
		c-0.603,3.264-3.448,5.633-6.773,5.633c-0.103,0-0.208-0.003-0.313-0.006l-0.028,0.653c0.114,0.005,0.228,0.008,0.341,0.008
		c3.643,0,6.762-2.597,7.418-6.169L16.845,12.469z"/>
</g>
</svg>
