<?xml version="1.0" encoding="utf-8"?>
<!-- Generator: Adobe Illustrator 16.0.0, SVG Export Plug-In . SVG Version: 6.00 Build 0)  -->
<!DOCTYPE svg PUBLIC "-//W3C//DTD SVG 1.1//EN" "http://www.w3.org/Graphics/SVG/1.1/DTD/svg11.dtd">
<svg version="1.1" id="Layer_1" xmlns="http://www.w3.org/2000/svg" xmlns:xlink="http://www.w3.org/1999/xlink" x="0px" y="0px"
	 width="237.585px" height="236.637px" viewBox="0 0 237.585 236.637" enable-background="new 0 0 237.585 236.637"
	 xml:space="preserve">
<g>
	<circle fill="#0080FF" cx="118.675" cy="118.676" r="118.675"/>
	<g>
		<rect x="47.862" y="90.711" fill="#FFFFFF" width="36.076" height="84.102"/>
		<path fill="#FFFFFF" d="M176.653,112.385h2.373c5.78,0,10.466-4.686,10.466-10.461c0-5.78-4.686-10.466-10.466-10.466h-24.831
			h-7.768h-9.883l3.629-15.237c0.594-2.488,0.717-5.068,0.363-7.608l-1.266-9.053c-0.594-4.269-2.518-8.243-5.494-11.361
			c-2.24-2.348-6.175-1.48-7.217,1.595l-5.854,17.229L96.807,94.626h-7.193v76.27h7.193l36.321,4.279h38.772
			c5.78,0,10.466-4.685,10.466-10.466c0-5.779-4.686-10.466-10.466-10.466h2.376c5.778,0,10.463-4.685,10.463-10.463l0,0
			c0-5.778-4.685-10.463-10.463-10.463h2.376c5.777,0,10.464-4.687,10.464-10.466l0,0
			C187.117,117.071,182.431,112.385,176.653,112.385z"/>
	</g>
</g>
</svg>
