<?xml version="1.0" encoding="utf-8"?>
<!-- Generator: Adobe Illustrator 16.0.0, SVG Export Plug-In . SVG Version: 6.00 Build 0)  -->
<!DOCTYPE svg PUBLIC "-//W3C//DTD SVG 1.1//EN" "http://www.w3.org/Graphics/SVG/1.1/DTD/svg11.dtd">
<svg version="1.1" id="Layer_1" xmlns="http://www.w3.org/2000/svg" xmlns:xlink="http://www.w3.org/1999/xlink" x="0px" y="0px"
	 width="50px" height="50px" viewBox="0 0 50 50" enable-background="new 0 0 50 50" xml:space="preserve">
<g id="XMLID_1433_">
	<path id="XMLID_1439_" fill="#187CB9" d="M25.042,49.738L25.042,49.738C11.38,49.738,0.305,38.662,0.305,25l0,0
		c0-13.663,11.075-24.738,24.738-24.738l0,0C38.704,0.262,49.78,11.337,49.78,25l0,0C49.78,38.662,38.704,49.738,25.042,49.738z"/>
	<g id="XMLID_1434_">
		<g id="XMLID_1436_">
			<rect id="XMLID_1438_" x="13.826" y="19.484" fill="#FFFFFF" width="5.119" height="16.54"/>
			<ellipse id="XMLID_1437_" fill="#FFFFFF" cx="16.361" cy="14.267" rx="3.027" ry="3.052"/>
		</g>
		<path id="XMLID_1435_" fill="#FFFFFF" d="M27.129,27.343c0-2.325,1.07-3.71,3.12-3.71c1.882,0,2.786,1.33,2.786,3.71
			c0,2.383,0,8.682,0,8.682h5.097c0,0,0-6.042,0-10.472s-2.512-6.572-6.019-6.572c-3.508,0-4.984,2.732-4.984,2.732v-2.229h-4.911
			v16.54h4.911C27.129,36.024,27.129,29.891,27.129,27.343z"/>
	</g>
</g>
</svg>
