<?xml version="1.0" encoding="utf-8"?>
<!-- Generator: Adobe Illustrator 16.0.0, SVG Export Plug-In . SVG Version: 6.00 Build 0)  -->
<!DOCTYPE svg PUBLIC "-//W3C//DTD SVG 1.1//EN" "http://www.w3.org/Graphics/SVG/1.1/DTD/svg11.dtd">
<svg version="1.1" id="Layer_1" xmlns="http://www.w3.org/2000/svg" xmlns:xlink="http://www.w3.org/1999/xlink" x="0px" y="0px"
	 width="77.802px" height="88.5px" viewBox="15.827 13.167 77.802 88.5" enable-background="new 15.827 13.167 77.802 88.5"
	 xml:space="preserve">
<g transform="translate(50 50) scale(0.69 0.69) rotate(0) translate(-50 -50)">
	<title>A</title>
	<circle fill="#2B8FF1" cx="56.853" cy="41.808" r="12.227"/>
	<path fill="#2B8FF1" d="M86.124,89.975H71.02c-0.19-2.548-2.13-4.618-4.659-4.976c-0.238-1.619-0.998-3.557-1.486-5.687
		c20.713-4.431,33.911-24.813,29.479-45.527C89.923,13.075,69.541-0.125,48.83,4.307c-20.714,4.431-33.912,24.815-29.48,45.526
		c3.161,14.774,14.704,26.316,29.48,29.479c-0.488,2.131-1.248,4.068-1.486,5.687c-2.529,0.358-4.467,2.429-4.657,4.976H27.579
		c-4.382,0-7.933,3.552-7.933,7.934v3.875h74.412V97.91C94.059,93.528,90.509,89.975,86.124,89.975z M56.853,9.341
		c1.908,0,3.456,1.548,3.456,3.457c0,1.909-1.548,3.455-3.456,3.455c-1.909,0-3.458-1.546-3.458-3.455l0,0
		C53.4,10.889,54.947,9.344,56.853,9.341z M36.033,41.811c-0.008-11.498,9.309-20.823,20.809-20.831
		c11.498-0.006,20.825,9.309,20.831,20.809c0.006,11.499-9.31,20.821-20.809,20.83c-0.004,0-0.007,0-0.01,0
		C45.364,62.606,36.052,53.299,36.033,41.811z"/>
</g>
</svg>
