<?xml version="1.0" encoding="utf-8"?>
<!-- Generator: Adobe Illustrator 16.0.0, SVG Export Plug-In . SVG Version: 6.00 Build 0)  -->
<!DOCTYPE svg PUBLIC "-//W3C//DTD SVG 1.1//EN" "http://www.w3.org/Graphics/SVG/1.1/DTD/svg11.dtd">
<svg version="1.1" id="Layer_1" xmlns="http://www.w3.org/2000/svg" xmlns:xlink="http://www.w3.org/1999/xlink" x="0px" y="0px"
	 width="18.021px" height="18px" viewBox="-1.704 -1.042 18.021 18" enable-background="new -1.704 -1.042 18.021 18"
	 xml:space="preserve">
<g>
	<path fill="#1C75BC" d="M15.436,6.112l-1.265-0.213c-0.131-0.426-0.299-0.834-0.509-1.227l0.743-1.04
		c0.318-0.444,0.27-1.05-0.117-1.432l-1.12-1.121c-0.21-0.21-0.488-0.326-0.785-0.326c-0.234,0-0.453,0.071-0.645,0.205
		l-1.044,0.746c-0.406-0.213-0.83-0.391-1.268-0.521L9.214-0.066C9.122-0.605,8.661-0.994,8.117-0.994H6.533
		c-0.545,0-1.005,0.389-1.097,0.928L5.218,1.211c-0.42,0.133-0.831,0.304-1.221,0.516L2.963,0.983
		c-0.19-0.136-0.414-0.208-0.648-0.208c-0.295,0-0.579,0.118-0.784,0.326L0.407,2.223C0.024,2.605-0.029,3.212,0.287,3.654
		L1.039,4.71c-0.209,0.396-0.372,0.804-0.5,1.23L-0.71,6.149c-0.537,0.092-0.928,0.553-0.928,1.099V8.83
		c0,0.546,0.391,1.009,0.928,1.1l1.278,0.217c0.132,0.422,0.306,0.83,0.515,1.222l-0.74,1.029c-0.315,0.444-0.267,1.049,0.12,1.434
		l1.122,1.117c0.209,0.215,0.487,0.328,0.784,0.328c0.232,0,0.455-0.07,0.641-0.206l1.059-0.753c0.377,0.2,0.777,0.361,1.187,0.487
		l0.211,1.265c0.09,0.539,0.553,0.929,1.097,0.929h1.585c0.547,0,1.007-0.39,1.1-0.929l0.215-1.265
		c0.422-0.129,0.833-0.299,1.223-0.506l1.043,0.744c0.185,0.135,0.411,0.208,0.646,0.208c0.297,0,0.574-0.118,0.785-0.326
		l1.121-1.123c0.382-0.383,0.436-0.985,0.118-1.43l-0.742-1.045c0.205-0.396,0.379-0.806,0.507-1.226l1.262-0.213
		c0.536-0.089,0.929-0.55,0.929-1.096V7.211C16.361,6.666,15.971,6.202,15.436,6.112 M15.348,8.793c0,0.05-0.032,0.09-0.083,0.097
		l-1.578,0.264c-0.197,0.034-0.357,0.181-0.407,0.371c-0.143,0.555-0.359,1.083-0.651,1.575c-0.104,0.173-0.095,0.389,0.021,0.555
		l0.929,1.308c0.028,0.038,0.021,0.094-0.012,0.129l-1.118,1.117c-0.027,0.029-0.055,0.031-0.072,0.031
		c-0.024,0-0.04-0.006-0.058-0.019l-1.304-0.929c-0.163-0.116-0.377-0.123-0.551-0.021c-0.492,0.29-1.024,0.51-1.576,0.652
		c-0.195,0.047-0.343,0.21-0.372,0.407l-0.266,1.576c-0.01,0.05-0.05,0.084-0.099,0.084H6.567c-0.047,0-0.089-0.034-0.097-0.084
		l-0.263-1.576c-0.033-0.199-0.181-0.36-0.372-0.407c-0.539-0.139-1.056-0.354-1.542-0.632c-0.078-0.047-0.168-0.067-0.255-0.067
		c-0.103,0-0.205,0.032-0.293,0.095l-1.316,0.935c-0.018,0.014-0.037,0.019-0.056,0.019c-0.016,0-0.044-0.003-0.072-0.03
		l-1.119-1.117c-0.034-0.034-0.04-0.09-0.012-0.129l0.925-1.299c0.115-0.164,0.125-0.381,0.021-0.555
		c-0.293-0.488-0.518-1.021-0.66-1.572C1.403,9.38,1.245,9.233,1.048,9.199l-1.587-0.271C-0.59,8.92-0.623,8.88-0.623,8.83V7.248
		c0-0.049,0.033-0.09,0.084-0.097l1.566-0.264c0.2-0.034,0.36-0.182,0.411-0.376C1.575,5.96,1.79,5.424,2.079,4.932
		c0.103-0.172,0.09-0.386-0.025-0.548L1.117,3.068C1.092,3.032,1.096,2.974,1.129,2.941L2.247,1.82
		c0.028-0.027,0.054-0.03,0.072-0.03c0.025,0,0.043,0.008,0.057,0.018l1.297,0.925c0.165,0.118,0.383,0.124,0.556,0.021
		c0.49-0.292,1.021-0.518,1.572-0.66c0.192-0.052,0.339-0.21,0.373-0.406l0.269-1.591c0.008-0.049,0.049-0.083,0.098-0.083h1.583
		c0.05,0,0.09,0.034,0.097,0.083l0.265,1.568c0.033,0.198,0.179,0.36,0.376,0.41C9.43,2.219,9.971,2.44,10.473,2.737
		c0.173,0.102,0.387,0.095,0.553-0.023l1.296-0.931c0.021-0.012,0.037-0.019,0.056-0.019c0.016,0,0.048,0.003,0.073,0.029
		l1.122,1.122c0.033,0.034,0.035,0.086,0.01,0.126l-0.929,1.305c-0.117,0.161-0.123,0.38-0.022,0.554
		c0.294,0.492,0.509,1.021,0.65,1.573c0.051,0.196,0.213,0.343,0.41,0.372l1.576,0.267c0.05,0.009,0.083,0.05,0.083,0.099v1.582
		H15.348z"/>
	<path fill="#1C75BC" d="M7.36,4.117c-2.142,0-3.882,1.74-3.882,3.883c0,2.141,1.74,3.881,3.882,3.881s3.884-1.74,3.884-3.881
		C11.244,5.857,9.502,4.117,7.36,4.117 M7.36,10.867c-1.582,0-2.867-1.285-2.867-2.867c0-1.583,1.285-2.869,2.867-2.869
		c1.583,0,2.87,1.286,2.87,2.869C10.229,9.582,8.942,10.867,7.36,10.867"/>
</g>
</svg>
