<?xml version="1.0" encoding="utf-8"?>
<!-- Generator: Adobe Illustrator 16.0.0, SVG Export Plug-In . SVG Version: 6.00 Build 0)  -->
<!DOCTYPE svg PUBLIC "-//W3C//DTD SVG 1.1//EN" "http://www.w3.org/Graphics/SVG/1.1/DTD/svg11.dtd">
<svg version="1.1" id="Layer_1" xmlns="http://www.w3.org/2000/svg" xmlns:xlink="http://www.w3.org/1999/xlink" x="0px" y="0px"
	 width="100px" height="100px" viewBox="0 0 100 100" enable-background="new 0 0 100 100" xml:space="preserve">
<g transform="translate(50 50) scale(0.69 0.69) rotate(0) translate(-50 -50)">
	<g>
		<path fill="#4D4D4D" d="M66.73,40.505c0-8.907-7.245-16.151-16.152-16.151c-8.908,0-16.157,7.246-16.157,16.151
			c0,8.909,7.249,16.157,16.157,16.157C59.485,56.662,66.73,49.414,66.73,40.505z M38.975,40.505
			c0-6.396,5.205-11.598,11.603-11.598c6.396,0,11.599,5.202,11.599,11.598c0,6.398-5.203,11.603-11.599,11.603
			C44.18,52.107,38.975,46.903,38.975,40.505z"/>
		<path fill="#4D4D4D" d="M50.576,90.905c0.618,0,1.21-0.251,1.64-0.696c1.243-1.291,30.445-31.803,30.445-48.985
			c0-17.696-14.394-32.091-32.085-32.091c-17.691,0-32.086,14.395-32.086,32.091c0,17.182,29.204,47.694,30.447,48.985
			C49.365,90.655,49.958,90.905,50.576,90.905z M50.576,13.687c15.181,0,27.531,12.353,27.531,27.537
			c0,13.21-21.373,37.381-27.531,44.071c-6.159-6.69-27.534-30.862-27.534-44.071C23.042,26.04,35.395,13.687,50.576,13.687z"/>
	</g>
</g>
</svg>
