<?xml version="1.0" encoding="utf-8"?>
<!-- Generator: Adobe Illustrator 16.0.0, SVG Export Plug-In . SVG Version: 6.00 Build 0)  -->
<!DOCTYPE svg PUBLIC "-//W3C//DTD SVG 1.1//EN" "http://www.w3.org/Graphics/SVG/1.1/DTD/svg11.dtd">
<svg version="1.1" id="Layer_1" xmlns="http://www.w3.org/2000/svg" xmlns:xlink="http://www.w3.org/1999/xlink" x="0px" y="0px"
	 width="28.279px" height="21.295px" viewBox="0 0 28.279 21.295" enable-background="new 0 0 28.279 21.295" xml:space="preserve">
<path fill="#557EBF" d="M21.603,15.108V3.09c0-1.242-1.011-2.253-2.253-2.253c-1.117,0-2.017,0.803-2.213,1.824l-0.05,0.033
	c-2.6,1.733-5.625,2.649-8.75,2.649H2.824c-1.244,0-2.252,1.007-2.252,2.253V10.6c0,1.246,1.008,2.254,2.252,2.254h0.752v5.257
	c0,1.246,1.007,2.254,2.254,2.254c1.241,0,2.252-1.011,2.252-2.254v-2.253h0.751c1.246,0,2.252-1.007,2.252-2.252v-0.51
	c2.135,0.374,4.172,1.189,6,2.407l0.051,0.032c0.202,1.043,1.119,1.824,2.212,1.824C20.592,17.36,21.603,16.351,21.603,15.108
	 M2.824,11.353c-0.414,0-0.75-0.336-0.75-0.752V7.596c0-0.415,0.336-0.751,0.75-0.751h5.259v4.507H2.824z M6.581,18.111
	c0,0.415-0.337,0.752-0.75,0.752c-0.416,0-0.752-0.337-0.752-0.752v-5.257h1.503V18.111z M8.083,12.854
	c0.319,0,0.802-0.005,1.502,0.049v0.703c0,0.414-0.336,0.749-0.751,0.749H8.083V12.854z M9.585,11.396V6.8
	c2.655-0.191,5.215-0.987,7.511-2.339v9.275C14.8,12.385,12.24,11.587,9.585,11.396 M19.35,15.858c-0.415,0-0.751-0.336-0.751-0.75
	V3.09c0-0.415,0.336-0.751,0.751-0.751s0.751,0.336,0.751,0.751v12.018C20.101,15.521,19.763,15.858,19.35,15.858"/>
<path fill="#557EBF" d="M6.58,9.099c0-0.415-0.335-0.751-0.751-0.751H4.327c-0.414,0-0.75,0.336-0.75,0.751
	c0,0.415,0.336,0.751,0.75,0.751h1.502C6.245,9.85,6.58,9.514,6.58,9.099"/>
<path fill="#557EBF" d="M25.185,4.387c-0.293-0.293-0.77-0.293-1.063,0L23.06,5.449c-0.293,0.293-0.293,0.769,0,1.062
	c0.294,0.293,0.769,0.293,1.063,0l1.063-1.062C25.479,5.156,25.479,4.68,25.185,4.387"/>
<path fill="#557EBF" d="M25.185,12.885l-1.063-1.062c-0.294-0.293-0.769-0.293-1.063,0c-0.293,0.293-0.293,0.768,0,1.062
	l1.063,1.062c0.293,0.293,0.77,0.293,1.063,0C25.479,13.652,25.479,13.178,25.185,12.885"/>
<path fill="#557EBF" d="M27.529,9.167c0-0.415-0.337-0.751-0.751-0.751h-2.125c-0.415,0-0.75,0.336-0.75,0.751
	c0,0.415,0.335,0.751,0.75,0.751h2.125C27.192,9.918,27.529,9.582,27.529,9.167"/>
</svg>
