<?xml version="1.0" encoding="utf-8"?>
<!-- Generator: Adobe Illustrator 16.0.0, SVG Export Plug-In . SVG Version: 6.00 Build 0)  -->
<!DOCTYPE svg PUBLIC "-//W3C//DTD SVG 1.1//EN" "http://www.w3.org/Graphics/SVG/1.1/DTD/svg11.dtd">
<svg version="1.1" id="Layer_1" xmlns="http://www.w3.org/2000/svg" xmlns:xlink="http://www.w3.org/1999/xlink" x="0px" y="0px"
	 width="65.035px" height="51.404px" viewBox="0 0 65.035 51.404" enable-background="new 0 0 65.035 51.404" xml:space="preserve">
<g transform="translate(50 50) scale(0.69 0.69) rotate(0) translate(-50 -50)">
	<g>
		<path fill="#4285F4" d="M71.789-22.464h-84.001v13.748h-10.25v60.751h83v-7.5h11.252V-22.464z M55.54,47.035h-73.002V-3.714H55.54
			V47.035z M66.788,39.535h-6.25V-8.716H-7.21v-8.749h73.999v57H66.788z"/>
		<path fill="#4285F4" d="M6.289,2.785h-16.5v26.25h16.5V2.785z M1.289,24.034h-6.501V7.784h6.501V24.034z"/>
		<rect x="10.79" y="13.536" fill="#4285F4" width="37.751" height="4.999"/>
		<rect x="10.79" y="2.785" fill="#4285F4" width="37.751" height="4.999"/>
		<rect x="10.79" y="24.537" fill="#4285F4" width="37.751" height="4.999"/>
		<rect x="-11.96" y="35.784" fill="#4285F4" width="61" height="5"/>
	</g>
</g>
</svg>
