<?xml version="1.0" encoding="utf-8"?>
<!-- Generator: Adobe Illustrator 16.0.0, SVG Export Plug-In . SVG Version: 6.00 Build 0)  -->
<!DOCTYPE svg PUBLIC "-//W3C//DTD SVG 1.1//EN" "http://www.w3.org/Graphics/SVG/1.1/DTD/svg11.dtd">
<svg version="1.1" id="Layer_1" xmlns="http://www.w3.org/2000/svg" xmlns:xlink="http://www.w3.org/1999/xlink" x="0px" y="0px"
	 width="53.82px" height="53.82px" viewBox="0 0 53.82 53.82" enable-background="new 0 0 53.82 53.82" xml:space="preserve">
<g transform="translate(50 50) scale(0.69 0.69) rotate(0) translate(-50 -50)">
	<path fill="#2B80C3" d="M41.399,13.554v30.607c0,1.524-1.238,2.761-2.761,2.761H-11.09c-1.522,0-2.761-1.237-2.761-2.761V-0.039
		c0-1.522,1.239-2.763,2.761-2.763h30.608c-0.127-0.904-0.219-1.82-0.219-2.762c0-0.94,0.092-1.858,0.219-2.761H-11.09
		c-4.571,0-8.289,3.719-8.289,8.287v44.204c0,4.569,3.718,8.287,8.289,8.287h49.728c4.569,0,8.285-3.718,8.285-8.287V11.889
		C45.206,12.706,43.352,13.274,41.399,13.554z"/>
	<circle fill="#2B80C3" cx="38.696" cy="-5.624" r="13.754"/>
</g>
</svg>
