<?xml version="1.0" encoding="utf-8"?>
<!-- Generator: Adobe Illustrator 16.0.0, SVG Export Plug-In . SVG Version: 6.00 Build 0)  -->
<!DOCTYPE svg PUBLIC "-//W3C//DTD SVG 1.1//EN" "http://www.w3.org/Graphics/SVG/1.1/DTD/svg11.dtd">
<svg version="1.1" id="Layer_1" xmlns="http://www.w3.org/2000/svg" xmlns:xlink="http://www.w3.org/1999/xlink" x="0px" y="0px"
	 width="27.881px" height="37.949px" viewBox="0 0 27.881 37.949" enable-background="new 0 0 27.881 37.949" xml:space="preserve">
<g transform="translate(50 50) scale(0.69 0.69) rotate(0) translate(-50 -50)">
	<title>Bell v2.6</title>
	<desc>Created with Sketch.</desc>
	<g>
		<g>
			<path fill="#4285F4" d="M-6.048-12.585c-6.534,1.68-11.364,7.611-11.364,14.673v10.1c0,0.931-0.755,1.686-1.681,1.686
				c-1.862,0-3.37,1.512-3.37,3.367c0,1.86,1.511,3.37,3.376,3.37h33.653c1.864,0,3.377-1.513,3.377-3.37
				c0-1.86-1.514-3.367-3.367-3.367c-0.931,0-1.684-0.749-1.684-1.686v-10.1c0-7.06-4.829-12.993-11.365-14.673v-1.739
				c0-2.097-1.696-3.787-3.786-3.787c-2.089,0-3.789,1.696-3.789,3.787V-12.585L-6.048-12.585z M-8.152,22.291H3.633
				c0,3.255-2.635,5.893-5.893,5.893C-5.515,28.184-8.152,25.546-8.152,22.291z"/>
		</g>
	</g>
</g>
<g transform="translate(50 50) scale(0.69 0.69) rotate(0) translate(-50 -50)" display="none">
	<title>Bell v3.3</title>
	<desc>Created with Sketch.</desc>
	<g display="inline">
		<g>
			<path fill="#331CBF" d="M-7.657,20.913h2.567c0,2.601,2.107,4.707,4.707,4.707c2.6,0,4.704-2.106,4.704-4.707h2.566
				c0,4.017-3.255,7.272-7.272,7.272C-4.399,28.184-7.657,24.929-7.657,20.913z M21.432,15.35v0.858c0,1.66-1.342,2.995-2.996,2.995
				h-37.642c-1.654,0-2.995-1.339-2.995-2.995V15.35c0-2.924,2.263-5.322,5.133-5.542V-0.903c0-9.216,7.469-16.682,16.683-16.682
				c9.214,0,16.682,7.469,16.682,16.682V9.808C19.176,10.029,21.432,12.425,21.432,15.35z M15.861,12.358
				c-1.175,0-2.13-0.962-2.13-2.134V-0.903c0-7.796-6.319-14.116-14.115-14.116c-7.798,0-14.116,6.317-14.116,14.116v11.13
				c0,1.178-0.959,2.131-2.131,2.131c-1.659,0-3.003,1.339-3.003,2.992v0.861c0,0.235,0.192,0.425,0.429,0.425h37.642
				c0.238,0,0.429-0.187,0.429-0.425V15.35C18.865,13.696,17.526,12.358,15.861,12.358z"/>
		</g>
	</g>
</g>
</svg>
