<?xml version="1.0" ?><svg id="Icon_Set" style="enable-background:new 0 0 64 64;" version="1.1" viewBox="0 0 64 64" xml:space="preserve" xmlns="http://www.w3.org/2000/svg" xmlns:xlink="http://www.w3.org/1999/xlink"><style type="text/css">
	.st0{fill:none;stroke:#1A237E;stroke-linecap:round;stroke-linejoin:round;stroke-miterlimit:10;}
	.st1{fill:#4FC3F7;stroke:#1A237E;stroke-linecap:round;stroke-linejoin:round;stroke-miterlimit:10;}
	.st2{fill:#66BB6A;stroke:#1A237E;stroke-linecap:round;stroke-linejoin:round;stroke-miterlimit:10;}
	.st3{fill:#4FC3F7;}
	.st4{fill:#66BB6A;}
	.st5{fill:#E53935;stroke:#1A237E;stroke-linecap:round;stroke-linejoin:round;stroke-miterlimit:10;}
	.st6{fill:#FFA000;stroke:#1A237E;stroke-linecap:round;stroke-linejoin:round;stroke-miterlimit:10;}
	.st7{fill:#FFFFFF;stroke:#1A237E;stroke-linecap:round;stroke-linejoin:round;stroke-miterlimit:10;}
	.st8{fill:#FFA000;}
	.st9{fill:#E53935;}
	.st10{fill:#FAFAFA;stroke:#1A237E;stroke-linecap:round;stroke-linejoin:round;stroke-miterlimit:10;}
	.st11{fill:none;stroke:#1A237E;stroke-miterlimit:10;}
	.st12{fill:#1A237E;}
	.st13{fill:#FFD740;stroke:#1A237E;stroke-linecap:round;stroke-linejoin:round;stroke-miterlimit:10;}
	.st14{fill:none;stroke:#263238;stroke-linecap:round;stroke-linejoin:round;stroke-miterlimit:10;}
	.st15{fill:#4FC3F7;stroke:#1A237E;stroke-miterlimit:10;}
	.st16{fill:#FFFFFF;}
	.st17{fill:#FB8C00;stroke:#1A237E;stroke-linecap:round;stroke-linejoin:round;stroke-miterlimit:10;}
</style><g id="Parachute"><g><line class="st6" x1="26" x2="26" y1="21.8" y2="38.5"/><line class="st6" x1="14.9" x2="18.7" y1="25.5" y2="31.6"/><line class="st6" x1="38" x2="38" y1="21.8" y2="38.5"/><circle class="st0" cx="32" cy="37.5" r="4"/><path class="st0" d="M43.3,32.6c-0.7-0.4-1.6-0.2-2.1,0.5l-5,8.4h-8.5l-5-8.4c-0.4-0.7-1.3-0.9-2.1-0.5c-0.7,0.4-0.9,1.3-0.5,2.1    l5.8,9.8V51h12v-6.6l5.8-9.8C44.2,33.9,44,33,43.3,32.6z"/><g><path class="st0" d="M28,63.5L28,63.5c-1.4,0-2.5-1.1-2.5-2.5v-2.5c0-4.1,3.4-7.5,7.5-7.5h5v2.5c0,1.4-1.1,2.5-2.5,2.5H33     c-1.4,0-2.5,1.1-2.5,2.5V61C30.5,62.4,29.4,63.5,28,63.5z"/></g><path class="st0" d="M33,51h-5c-4.1,0-7.5,3.4-7.5,7.5V61c0,1.4,1.1,2.5,2.5,2.5s2.5-1.1,2.5-2.5v-2.5C25.5,54.4,28.9,51,33,51z"/><path class="st6" d="M8,23.4c1.3,2.6,4.4,3.5,6.9,2.1c5-2.8,10.9-4.2,17.1-4.2c6.2,0,12.1,1.5,17.1,4.2c2.5,1.4,5.7,0.5,6.9-2.1    l5.3-10.6c1.3-2.5,0.2-5.6-2.4-6.8C50.7,2.4,41.5,0.5,32,0.5c-9.5,0-18.7,1.9-26.9,5.6c-2.6,1.2-3.7,4.3-2.4,6.8L8,23.4z"/><path class="st6" d="M57.6,8.8c0.5,0.2,0.9,0.6,1,1.1c0.2,0.5,0.2,1.1-0.1,1.6l-5.3,10.6c-0.4,0.8-1.2,1.1-1.8,1.1    c-0.4,0-0.7-0.1-1-0.3"/><line class="st6" x1="49.1" x2="45.3" y1="25.5" y2="31.6"/><path class="st7" d="M18.5,23.9c4.1-1.7,8.7-2.6,13.5-2.6c4.8,0,9.3,0.9,13.5,2.6l6.8-20.3C45.9,1.6,39,0.5,32,0.5    c-7,0-13.9,1.1-20.3,3.1L18.5,23.9z"/><path class="st6" d="M27.6,21.6c1.4-0.2,2.9-0.3,4.4-0.3c1.5,0,2.9,0.1,4.4,0.3l2.9-20.7c-2.4-0.2-4.8-0.4-7.2-0.4    s-4.9,0.1-7.2,0.4L27.6,21.6z"/><path class="st3" d="M53.5,36c0-1.1,0.9-2,2-2c1.1,0,2,0.9,2,2c1.1,0,2,0.9,2,2c0,1.1-0.9,2-2,2l-4,0c-1.1,0-2-0.9-2-2    S52.4,36,53.5,36z"/><path class="st3" d="M5.5,36c0-1.1,0.9-2,2-2c1.1,0,2,0.9,2,2c1.1,0,2,0.9,2,2c0,1.1-0.9,2-2,2l-4,0c-1.1,0-2-0.9-2-2    C3.5,36.9,4.4,36,5.5,36z"/><g><g><line class="st0" x1="46" x2="45" y1="51" y2="51"/><line class="st0" x1="58" x2="48" y1="51" y2="51"/></g></g><g><g><line class="st0" x1="62.5" x2="63.5" y1="48" y2="48"/><line class="st0" x1="50.5" x2="60.5" y1="48" y2="48"/></g></g><g><g><line class="st0" x1="18" x2="19" y1="51" y2="51"/><line class="st0" x1="6" x2="16" y1="51" y2="51"/></g></g><g><g><line class="st0" x1="1.5" x2="0.5" y1="48" y2="48"/><line class="st0" x1="13.5" x2="3.5" y1="48" y2="48"/></g></g></g></g></svg>