<?xml version="1.0" encoding="utf-8"?>
<!-- Generator: Adobe Illustrator 16.0.0, SVG Export Plug-In . SVG Version: 6.00 Build 0)  -->
<!DOCTYPE svg PUBLIC "-//W3C//DTD SVG 1.1//EN" "http://www.w3.org/Graphics/SVG/1.1/DTD/svg11.dtd">
<svg version="1.1" id="Layer_1" xmlns="http://www.w3.org/2000/svg" xmlns:xlink="http://www.w3.org/1999/xlink" x="0px" y="0px"
	 width="66.91px" height="61.682px" viewBox="20.545 20.558 66.91 61.682" enable-background="new 20.545 20.558 66.91 61.682"
	 xml:space="preserve">
<g transform="translate(50 50) scale(0.69 0.69) rotate(0) translate(-50 -50)">
	<g>
		<g>
			<path fill="#2B80C3" d="M72.489,84.838c-2.284,0-4.424-1.141-5.708-2.852H44.812c-1.283,1.711-3.282,2.852-5.707,2.852
				c-0.712,0-1.426,0.715-1.426,1.428v6.418c0,0.856,0.714,1.427,1.426,1.427h33.384c0.712,0,1.425-0.57,1.425-1.427v-6.418
				C73.914,85.41,73.344,84.838,72.489,84.838z"/>
		</g>
		<g>
			<path fill="#2B80C3" d="M95.743,9.942H15.851c-3.137,0-5.707,2.568-5.707,5.707v57.778c0,3.139,2.569,5.705,5.707,5.705h79.891
				c3.138,0,5.707-2.566,5.707-5.705V15.648C101.449,12.51,98.88,9.942,95.743,9.942z M26.123,71.429h-2.852
				c-0.857,0-1.427-0.572-1.427-1.427c0-0.713,0.57-1.428,1.427-1.428h2.852c0.857,0,1.427,0.715,1.427,1.428
				C27.55,70.857,26.98,71.429,26.123,71.429z M38.963,71.429h-2.854c-0.713,0-1.426-0.572-1.426-1.427
				c0-0.713,0.713-1.428,1.426-1.428h2.854c0.856,0,1.426,0.715,1.426,1.428C40.389,70.857,39.819,71.429,38.963,71.429z
				 M59.364,71.429h-7.133c-0.855,0-1.427-0.572-1.427-1.427c0-0.713,0.572-1.428,1.427-1.428h7.133
				c0.713,0,1.427,0.715,1.427,1.428C60.79,70.857,60.077,71.429,59.364,71.429z M98.595,61.014H13V15.648
				c0-1.569,1.283-2.853,2.852-2.853h79.891c1.568,0,2.852,1.284,2.852,2.853V61.014z"/>
		</g>
		<g>
			<path fill="#2B80C3" d="M20.846,43.753h24.251c0.856,0,1.427-0.572,1.427-1.427V20.499c0-0.857-0.572-1.427-1.427-1.427H20.846
				c-0.856,0-1.427,0.57-1.427,1.427v21.827C19.419,43.181,19.991,43.753,20.846,43.753z M27.693,34.764l6.135-6.134h-1.855
				c-0.715,0-1.426-0.57-1.426-1.427c0-0.856,0.711-1.426,1.426-1.426h5.278c0.713,0,1.427,0.713,1.427,1.426v5.28
				c0,0.856-0.571,1.426-1.427,1.426c-0.857,0-1.427-0.57-1.427-1.426v-1.855l-6.134,6.134c-0.57,0.572-1.427,0.572-1.998,0
				C27.122,36.192,27.122,35.193,27.693,34.764z"/>
		</g>
		<g>
			<path fill="#2B80C3" d="M90.748,19.071H56.367c-0.855,0-1.425,0.57-1.425,1.427s0.57,1.427,1.425,1.427h34.381
				c0.856,0,1.428-0.57,1.428-1.427S91.604,19.071,90.748,19.071z"/>
		</g>
		<g>
			<path fill="#2B80C3" d="M90.748,30.058H56.367c-0.855,0-1.425,0.57-1.425,1.426c0,0.856,0.57,1.426,1.425,1.426h34.381
				c0.856,0,1.428-0.57,1.428-1.426C92.176,30.628,91.604,30.058,90.748,30.058z"/>
		</g>
		<g>
			<path fill="#2B80C3" d="M90.748,40.9H56.367c-0.855,0-1.425,0.57-1.425,1.426s0.57,1.427,1.425,1.427h34.381
				c0.856,0,1.428-0.572,1.428-1.427C92.176,41.612,91.604,40.9,90.748,40.9z"/>
		</g>
		<g>
			<path fill="#2B80C3" d="M90.748,51.884H20.846c-0.856,0-1.427,0.57-1.427,1.428c0,0.855,0.572,1.425,1.427,1.425h70.046
				c0.855,0,1.425-0.57,1.425-1.425C92.176,52.454,91.604,51.884,90.748,51.884z"/>
		</g>
	</g>
</g>
</svg>
