<?xml version="1.0" ?><svg id="Icons" viewBox="0 0 60 60" xmlns="http://www.w3.org/2000/svg"><title/><rect fill="#e4c05c" height="17" width="18" x="21" y="17"/><path d="M25,9H35a4,4,0,0,1,4,4v2a0,0,0,0,1,0,0H21a0,0,0,0,1,0,0V13A4,4,0,0,1,25,9Z" fill="#894b9d"/><path d="M2,8A6,6,0,0,1,14,8" fill="#894b9d"/><path d="M46,8A6,6,0,0,1,58,8" fill="#894b9d"/><rect fill="#e4c05c" height="20" width="10" x="3" y="36"/><rect fill="#e4c05c" height="20" width="10" x="47" y="36"/><polygon fill="#e57e25" points="13 33 15 33 45 33 47 33 47 37.182 47 56 13 56 13 37.182 13 33"/><path d="M2,55H58a1,1,0,0,1,1,1v3a0,0,0,0,1,0,0H1a0,0,0,0,1,0,0V56A1,1,0,0,1,2,55Z" fill="#2c3e50"/><rect fill="#e4c05c" height="14" width="10" x="3" y="20"/><path d="M13,37H3L1.72361,34.44721A1,1,0,0,1,2.618,33H13.382a1,1,0,0,1,.89443,1.44721Z" fill="#d25627"/><path d="M13,21H3L1.72361,18.44721A1,1,0,0,1,2.618,17H13.382a1,1,0,0,1,.89443,1.44721Z" fill="#e57e25"/><path d="M39,18H21l-1.27639-2.55279A1,1,0,0,1,20.618,14H39.382a1,1,0,0,1,.89443,1.44721Z" fill="#e57e25"/><path d="M13,11H3L1.72361,8.44721A1,1,0,0,1,2.618,7H13.382a1,1,0,0,1,.89443,1.44721Z" fill="#e57e25"/><path d="M4,18a.99942.99942,0,0,1-1-1V11a1,1,0,0,1,2,0v6A.99942.99942,0,0,1,4,18Z" fill="#d25627"/><path d="M8,18a.99942.99942,0,0,1-1-1V11a1,1,0,0,1,2,0v6A.99942.99942,0,0,1,8,18Z" fill="#d25627"/><path d="M12,18a.99942.99942,0,0,1-1-1V11a1,1,0,0,1,2,0v6A.99942.99942,0,0,1,12,18Z" fill="#d25627"/><rect fill="#e4c05c" height="14" width="10" x="47" y="20"/><path d="M57,37H47l-1.27639-2.55279A1,1,0,0,1,46.618,33H57.382a1,1,0,0,1,.89443,1.44721Z" fill="#d25627"/><path d="M57,21H47l-1.27639-2.55279A1,1,0,0,1,46.618,17H57.382a1,1,0,0,1,.89443,1.44721Z" fill="#e57e25"/><path d="M57,11H47L45.72361,8.44721A1,1,0,0,1,46.618,7H57.382a1,1,0,0,1,.89443,1.44721Z" fill="#e57e25"/><path d="M48,18a.99942.99942,0,0,1-1-1V11a1,1,0,0,1,2,0v6A.99942.99942,0,0,1,48,18Z" fill="#d25627"/><path d="M52,18a.99942.99942,0,0,1-1-1V11a1,1,0,0,1,2,0v6A.99942.99942,0,0,1,52,18Z" fill="#d25627"/><path d="M56,18a.99942.99942,0,0,1-1-1V11a1,1,0,0,1,2,0v6A.99942.99942,0,0,1,56,18Z" fill="#d25627"/><path d="M26,10a.99942.99942,0,0,1-1-1V6a1,1,0,0,1,2,0V9A.99942.99942,0,0,1,26,10Z" fill="#894b9d"/><path d="M34,10a.99942.99942,0,0,1-1-1V6a1,1,0,0,1,2,0V9A.99942.99942,0,0,1,34,10Z" fill="#894b9d"/><path d="M25,30a.99942.99942,0,0,1-1-1V22a1,1,0,0,1,2,0v7A.99942.99942,0,0,1,25,30Z" fill="#d25627"/><path d="M30,30a.99942.99942,0,0,1-1-1V22a1,1,0,0,1,2,0v7A.99942.99942,0,0,1,30,30Z" fill="#d25627"/><path d="M35,30a.99942.99942,0,0,1-1-1V22a1,1,0,0,1,2,0v7A.99942.99942,0,0,1,35,30Z" fill="#d25627"/><path d="M30,40h0a5,5,0,0,1,5,5V55a0,0,0,0,1,0,0H25a0,0,0,0,1,0,0V45A5,5,0,0,1,30,40Z" fill="#7f5b53"/><path d="M19,41h0a2,2,0,0,1,2,2v4a1,1,0,0,1-1,1H18a1,1,0,0,1-1-1V43A2,2,0,0,1,19,41Z" fill="#894b9d"/><path d="M41,41h0a2,2,0,0,1,2,2v4a1,1,0,0,1-1,1H40a1,1,0,0,1-1-1V43A2,2,0,0,1,41,41Z" fill="#894b9d"/></svg>