<?xml version="1.0" encoding="utf-8"?>
<!-- Generator: Adobe Illustrator 16.0.0, SVG Export Plug-In . SVG Version: 6.00 Build 0)  -->
<!DOCTYPE svg PUBLIC "-//W3C//DTD SVG 1.1//EN" "http://www.w3.org/Graphics/SVG/1.1/DTD/svg11.dtd">
<svg version="1.1" id="Layer_1" xmlns="http://www.w3.org/2000/svg" xmlns:xlink="http://www.w3.org/1999/xlink" x="0px" y="0px"
	 width="15.25px" height="17.401px" viewBox="0 -0.026 15.25 17.401" enable-background="new 0 -0.026 15.25 17.401"
	 xml:space="preserve">
<path fill="#1C75BC" d="M10.264,10.221c0.344,0,0.623,0.279,0.623,0.625s-0.279,0.623-0.623,0.623c-0.347,0-0.623-0.277-0.623-0.623
	S9.917,10.221,10.264,10.221"/>
<path fill="#1C75BC" d="M14.559,12.275c0.376,0,0.679-0.303,0.679-0.677V9.082c0-1.5-1.22-2.719-2.717-2.719h-0.819V3.966
	c0-2.2-1.83-3.993-4.077-3.993c-2.25,0-4.078,1.793-4.078,3.993v2.396H2.73c-1.498,0-2.718,1.22-2.718,2.719v5.574
	c0,1.499,1.221,2.719,2.718,2.719h9.79c1.497,0,2.717-1.218,2.717-2.719c0-0.377-0.303-0.68-0.679-0.68
	c-0.377,0-0.679,0.303-0.679,0.68c0,0.748-0.612,1.358-1.359,1.358H2.73c-0.748,0-1.357-0.61-1.357-1.358V9.082
	c0-0.75,0.609-1.359,1.357-1.359h9.79c0.747,0,1.359,0.609,1.359,1.359v2.515C13.88,11.973,14.182,12.275,14.559,12.275
	 M10.343,6.363H4.906V3.966c0-1.451,1.22-2.633,2.718-2.633s2.718,1.183,2.718,2.633V6.363z"/>
<path fill="#1C75BC" d="M5.551,10.221c0.344,0,0.623,0.279,0.623,0.625s-0.279,0.623-0.623,0.623c-0.345,0-0.625-0.277-0.625-0.623
	S5.206,10.221,5.551,10.221"/>
<path fill="#1C75BC" d="M3.211,10.221c0.343,0,0.623,0.279,0.623,0.625s-0.28,0.623-0.623,0.623c-0.344,0-0.625-0.277-0.625-0.623
	S2.867,10.221,3.211,10.221"/>
<path fill="#1C75BC" d="M7.891,10.221c0.343,0,0.625,0.279,0.625,0.625s-0.281,0.623-0.625,0.623c-0.345,0-0.625-0.277-0.625-0.623
	S7.546,10.221,7.891,10.221"/>
</svg>
