<?xml version="1.0" encoding="utf-8"?>
<!-- Generator: Adobe Illustrator 16.0.0, SVG Export Plug-In . SVG Version: 6.00 Build 0)  -->
<!DOCTYPE svg PUBLIC "-//W3C//DTD SVG 1.1//EN" "http://www.w3.org/Graphics/SVG/1.1/DTD/svg11.dtd">
<svg version="1.1" id="Layer_1" xmlns="http://www.w3.org/2000/svg" xmlns:xlink="http://www.w3.org/1999/xlink" x="0px" y="0px"
	 width="43.767px" height="47.391px" viewBox="22.101 33.5 43.767 47.391" enable-background="new 22.101 33.5 43.767 47.391"
	 xml:space="preserve">
<g transform="translate(50 50) scale(0.69 0.69) rotate(0) translate(-50 -50)">
	<path fill="#2B80C3" d="M41.343,64.964c-8.301,0-15.059-6.757-15.059-15.058c0-8.302,6.757-15.123,15.059-15.123
		c8.302,0,15.06,6.757,15.06,15.059C56.403,58.144,49.645,64.964,41.343,64.964z M41.343,39.931c-5.47,0-9.975,4.439-9.975,9.974
		c0,5.535,4.505,9.911,9.975,9.911c5.471,0,9.976-4.44,9.976-9.975C51.319,44.307,46.814,39.931,41.343,39.931z"/>
	<path fill="#2B80C3" d="M62.516,86.073c-1.415,0-2.573-1.159-2.573-2.574c0-10.233-8.302-18.599-18.599-18.599
		c-10.296,0-18.599,8.366-18.599,18.599c0,1.415-1.158,2.574-2.573,2.574s-2.574-1.159-2.574-2.574
		c0-13.063,10.618-23.682,23.682-23.682s23.682,10.619,23.682,23.682C65.026,84.914,63.932,86.073,62.516,86.073z"/>
</g>
</svg>
