<?xml version="1.0" encoding="utf-8"?>
<!-- Generator: Adobe Illustrator 16.0.0, SVG Export Plug-In . SVG Version: 6.00 Build 0)  -->
<!DOCTYPE svg PUBLIC "-//W3C//DTD SVG 1.1//EN" "http://www.w3.org/Graphics/SVG/1.1/DTD/svg11.dtd">
<svg version="1.1" id="Layer_1" xmlns="http://www.w3.org/2000/svg" xmlns:xlink="http://www.w3.org/1999/xlink" x="0px" y="0px"
	 width="10px" height="9px" viewBox="0 0 10 9" enable-background="new 0 0 10 9" xml:space="preserve">
<g>
	<path fill="#FFFFFF" d="M7.999,0.964c-0.648-0.65-1.703-0.65-2.352,0l-4.312,4.31C1.302,5.308,1.281,5.352,1.273,5.397L0.954,7.764
		C0.945,7.832,0.969,7.899,1.017,7.945C1.056,7.986,1.112,8.01,1.168,8.01c0.009,0,0.019,0,0.028-0.001l1.427-0.192
		C2.741,7.799,2.824,7.69,2.81,7.571C2.793,7.454,2.684,7.37,2.565,7.386L1.421,7.539L1.645,5.89l1.737,1.737
		C3.423,7.666,3.479,7.69,3.534,7.69c0.057,0,0.113-0.022,0.152-0.063l4.313-4.312c0.314-0.314,0.488-0.731,0.488-1.177
		C8.487,1.695,8.313,1.277,7.999,0.964z M1.796,5.429L5.73,1.493l0.724,0.725L2.521,6.153L1.796,5.429z M3.536,7.169L2.827,6.46
		l3.937-3.936l0.707,0.708L3.536,7.169z M7.771,2.922L6.042,1.191C6.26,1.009,6.536,0.91,6.824,0.91c0.328,0,0.638,0.128,0.87,0.358
		C7.926,1.5,8.054,1.81,8.054,2.139C8.054,2.43,7.955,2.702,7.771,2.922z"/>
</g>
</svg>
