<?xml version="1.0" encoding="utf-8"?>
<!-- Generator: Adobe Illustrator 16.0.0, SVG Export Plug-In . SVG Version: 6.00 Build 0)  -->
<!DOCTYPE svg PUBLIC "-//W3C//DTD SVG 1.1//EN" "http://www.w3.org/Graphics/SVG/1.1/DTD/svg11.dtd">
<svg version="1.1" id="Layer_1" xmlns="http://www.w3.org/2000/svg" xmlns:xlink="http://www.w3.org/1999/xlink" x="0px" y="0px"
	 width="100px" height="100px" viewBox="0 0 100 100" enable-background="new 0 0 100 100" xml:space="preserve">
<g transform="translate(50 50) scale(0.69 0.69) rotate(0) translate(-50 -50)">
	<path fill="#4285F4" d="M67.768,46.244l25.088,32.974c6.857,9.014,5.106,21.876-3.903,28.734
		c-3.568,2.717-7.929,4.186-12.418,4.186H26.361c-11.323,0-20.504-9.177-20.504-20.508c0-4.481,1.47-8.846,4.186-12.412
		l25.086-32.974c6.856-9.016,19.724-10.762,28.735-3.905C65.338,43.458,66.651,44.77,67.768,46.244L67.768,46.244z M30.737-12.138
		c7.626,0,13.808,6.181,13.808,13.808v6.904c0,7.626-6.181,13.808-13.808,13.808c-7.626,0-13.808-6.181-13.808-13.808V1.671
		C16.928-5.956,23.111-12.138,30.737-12.138z M3.12,22.383c7.626,0,13.808,6.182,13.808,13.808v6.905
		c0,7.626-6.182,13.808-13.808,13.808c-7.626,0-13.808-6.182-13.808-13.808v-6.905C-10.688,28.565-4.506,22.383,3.12,22.383z
		 M72.162-12.138c7.626,0,13.808,6.181,13.808,13.808v6.904c0,7.626-6.182,13.808-13.808,13.808c-7.63,0-13.809-6.181-13.809-13.808
		V1.671C58.353-5.956,64.534-12.138,72.162-12.138z M99.779,22.383c7.626,0,13.808,6.182,13.808,13.808v6.905
		c0,7.626-6.182,13.808-13.808,13.808c-7.627,0-13.809-6.182-13.809-13.808v-6.905C85.97,28.565,92.152,22.383,99.779,22.383z"/>
</g>
</svg>
