<?xml version="1.0" encoding="utf-8"?>
<!-- Generator: Adobe Illustrator 16.0.0, SVG Export Plug-In . SVG Version: 6.00 Build 0)  -->
<!DOCTYPE svg PUBLIC "-//W3C//DTD SVG 1.1//EN" "http://www.w3.org/Graphics/SVG/1.1/DTD/svg11.dtd">
<svg version="1.1"
	 id="Layer_1" xmlns:dc="http://purl.org/dc/elements/1.1/" xmlns:rdf="http://www.w3.org/1999/02/22-rdf-syntax-ns#" xmlns:svg="http://www.w3.org/2000/svg" xmlns:sodipodi="http://sodipodi.sourceforge.net/DTD/sodipodi-0.dtd" xmlns:cc="http://creativecommons.org/ns#" xmlns:inkscape="http://www.inkscape.org/namespaces/inkscape"
	 xmlns="http://www.w3.org/2000/svg" xmlns:xlink="http://www.w3.org/1999/xlink" x="0px" y="0px" width="100px" height="100px"
	 viewBox="0 0 100 100" enable-background="new 0 0 100 100" xml:space="preserve">
<g transform="translate(50 50) scale(0.69 0.69) rotate(0) translate(-50 -50)">
	<g transform="translate(0,-952.36218)">
		<path fill="#4285F4" d="M17.391,940.789c-1.841,0.26-3.463,1.677-3.967,3.465l-8.241,28.676c-7.649,0-15.398,0-23.007,0
			c-2.352,0.246-4.334,2.456-4.32,4.821v83.57c0,2.523,2.296,4.822,4.822,4.822H85.561c2.526,0,4.823-2.299,4.823-4.822v-2.815
			l3.52,1.006c2.441,0.701,5.305-0.911,5.978-3.364l22.506-81.962c0.662-2.446-0.968-5.277-3.418-5.927l-99.672-27.321
			C18.683,940.762,18.027,940.713,17.391,940.789z M21.359,951.488l90.425,24.758l-19.943,72.621l-1.456-0.399v-70.715
			c0-2.525-2.297-4.821-4.823-4.821H15.23L21.359,951.488z M-12.501,982.574h93.241v58.006l-17.28-19.434
			c-0.964-1.081-2.429-1.69-3.872-1.608c-0.658,0.033-1.315,0.205-1.906,0.501l-30.895,15.418L15.179,1022.7
			c-0.969-1.059-2.435-1.649-3.868-1.554c-0.643,0.041-1.281,0.211-1.858,0.5l-21.954,10.95V982.574z M30.905,992.216
			c-7.935,0-14.469,6.532-14.469,14.464c0,7.93,6.534,14.466,14.469,14.466c7.932,0,14.467-6.536,14.467-14.466
			C45.371,998.747,38.837,992.216,30.905,992.216z M30.905,1001.86c2.72,0,4.822,2.1,4.822,4.82s-2.102,4.822-4.822,4.822
			c-2.721,0-4.823-2.102-4.823-4.822S28.184,1001.86,30.905,1001.86z M58.687,1030.285l22.052,24.812v1.404H45.927l-12.409-13.659
			L58.687,1030.285z M10.508,1031.894l22.353,24.606h-45.363v-13.107L10.508,1031.894z"/>
	</g>
</g>
</svg>
