<?xml version="1.0" encoding="utf-8"?>
<!-- Generator: Adobe Illustrator 16.0.0, SVG Export Plug-In . SVG Version: 6.00 Build 0)  -->
<!DOCTYPE svg PUBLIC "-//W3C//DTD SVG 1.1//EN" "http://www.w3.org/Graphics/SVG/1.1/DTD/svg11.dtd">
<svg version="1.1" id="Layer_1" xmlns="http://www.w3.org/2000/svg" xmlns:xlink="http://www.w3.org/1999/xlink" x="0px" y="0px"
	 width="21.458px" height="17.042px" viewBox="0 0 21.458 17.042" enable-background="new 0 0 21.458 17.042" xml:space="preserve">
<g>
	<path fill="#557EBF" stroke="#557DBF" stroke-width="0.3" stroke-miterlimit="10" d="M20.898,0.198H0.636
		c-0.2,0-0.362,0.16-0.362,0.361v15.923c0,0.198,0.162,0.361,0.362,0.361h20.262c0.203,0,0.363-0.163,0.363-0.361V0.559
		C21.261,0.358,21.101,0.198,20.898,0.198 M20.539,16.119H0.996V0.92h19.542V16.119z"/>
	<path fill="#557EBF" stroke="#557DBF" stroke-width="0.3" stroke-miterlimit="10" d="M6.064,8.208c1.11,0,2.015-0.904,2.015-2.015
		S7.174,4.178,6.064,4.178c-1.112,0-2.016,0.904-2.016,2.014C4.048,7.304,4.952,8.208,6.064,8.208 M6.064,4.901
		c0.712,0,1.29,0.58,1.29,1.291c0,0.712-0.578,1.292-1.29,1.292c-0.714,0-1.292-0.581-1.292-1.292
		C4.772,5.481,5.35,4.901,6.064,4.901"/>
	<path fill="#557EBF" stroke="#557DBF" stroke-width="0.3" stroke-miterlimit="10" d="M2.807,14.673c0.084,0,0.169-0.03,0.238-0.092
		L8.95,9.385l3.726,3.726c0.141,0.142,0.371,0.142,0.512,0c0.141-0.138,0.141-0.367,0-0.509l-1.741-1.741l3.323-3.637l4.075,3.735
		c0.148,0.134,0.377,0.125,0.512-0.021c0.135-0.147,0.125-0.377-0.023-0.513l-4.341-3.979c-0.07-0.065-0.166-0.099-0.26-0.096
		c-0.097,0.004-0.187,0.047-0.251,0.117l-3.545,3.882L9.221,8.632C9.085,8.498,8.868,8.49,8.725,8.617l-6.158,5.42
		c-0.15,0.133-0.165,0.362-0.032,0.512C2.605,14.632,2.706,14.673,2.807,14.673"/>
</g>
</svg>
