<?xml version="1.0" encoding="utf-8"?>
<!-- Generator: Adobe Illustrator 16.0.0, SVG Export Plug-In . SVG Version: 6.00 Build 0)  -->
<!DOCTYPE svg PUBLIC "-//W3C//DTD SVG 1.1//EN" "http://www.w3.org/Graphics/SVG/1.1/DTD/svg11.dtd">
<svg version="1.1"
	 id="Layer_1" xmlns:svg="http://www.w3.org/2000/svg" xmlns:rdf="http://www.w3.org/1999/02/22-rdf-syntax-ns#" xmlns:sodipodi="http://sodipodi.sourceforge.net/DTD/sodipodi-0.dtd" xmlns:cc="http://creativecommons.org/ns#" xmlns:dc="http://purl.org/dc/elements/1.1/" xmlns:inkscape="http://www.inkscape.org/namespaces/inkscape"
	 xmlns="http://www.w3.org/2000/svg" xmlns:xlink="http://www.w3.org/1999/xlink" x="0px" y="0px" width="100px" height="63.667px"
	 viewBox="0 0 100 63.667" enable-background="new 0 0 100 63.667" xml:space="preserve">
<g transform="translate(50 50) scale(0.69 0.69) rotate(0) translate(-50 -50)">
	<g transform="translate(-52.34672,-309.49091)">
		<path fill="#4285F4" d="M104.542,291.4c-0.562,0.064-1.125,0.231-1.648,0.535l-14.864,8.176c-3.307,1.772-4.481,5.941-2.603,9.199
			l5.857,10.104c1.117,1.963,0.847,4.479-0.723,6.133l-12.126,12.704c4.913,1.022,8.034,3.569,10.221,5.435
			c2.105,1.737,2.739,2.276,4.738,2.276s2.622-0.539,4.717-2.276c2.807-2.366,7.078-5.876,14.749-5.876
			c3.53,0,6.322,0.719,8.568,1.744c0.928-2.511,0.327-5.377-1.694-7.34l-12.101-11.498c-3.52-3.329-6.761-6.949-9.733-10.778
			c-1.32-1.711-0.856-4.189,0.977-5.296l8.406-5.11c2.01-1.212,2.722-3.796,1.602-5.852
			C107.977,292.063,106.236,291.213,104.542,291.4L104.542,291.4z M123.334,302.41c-6.837,0-12.381,5.544-12.381,12.38
			s5.544,12.38,12.381,12.38l0,0c6.837,0,12.38-5.544,12.38-12.38l0,0C135.714,307.955,130.172,302.41,123.334,302.41
			L123.334,302.41z M34.932,342.27c-1.855,0-3.344,1.499-3.344,3.343c0,1.843,1.488,3.346,3.344,3.346
			c3.652,0,5.312,1.396,7.595,3.32c2.594,2.177,5.803,4.877,11.891,4.877c6.099,0,9.323-2.713,11.915-4.877
			c2.283-1.925,3.933-3.32,7.595-3.32c3.651,0,5.3,1.396,7.595,3.32c2.594,2.164,5.791,4.877,11.894,4.877
			c6.099,0,9.311-2.713,11.889-4.877c2.284-1.925,3.946-3.32,7.595-3.32c3.666,0,5.327,1.396,7.62,3.32
			c2.582,2.177,5.817,4.877,11.914,4.877c6.103,0,9.324-2.713,11.915-4.877c2.284-1.925,3.933-3.32,7.596-3.32
			c3.663,0,5.313,1.396,7.62,3.32c2.59,2.177,5.803,4.877,11.914,4.877c1.846,0,3.346-1.524,3.346-3.366
			c0-1.846-1.5-3.346-3.346-3.346c-3.674,0-5.31-1.384-7.617-3.298c-2.582-2.191-5.814-4.877-11.917-4.877
			c-6.111,0-9.324,2.699-11.914,4.877c-2.284,1.915-3.935,3.298-7.597,3.298c-3.66,0-5.322-1.384-7.617-3.298
			c-2.593-2.191-5.814-4.877-11.917-4.877c-6.097,0-9.299,2.712-11.89,4.877c-2.283,1.915-3.944,3.298-7.593,3.298
			c-3.652,0-5.3-1.384-7.596-3.298c-2.581-2.177-5.793-4.877-11.894-4.877c-6.099,0-9.323,2.712-11.915,4.877
			c-2.283,1.915-3.933,3.298-7.595,3.298c-3.649,0-5.276-1.384-7.57-3.298C44.255,344.971,41.021,342.27,34.932,342.27
			L34.932,342.27z M34.91,358.923c-1.858,0-3.346,1.523-3.346,3.366c0,1.847,1.487,3.347,3.346,3.347
			c3.649,0,5.31,1.383,7.595,3.298c2.591,2.189,5.803,4.879,11.89,4.879c6.104,0,9.323-2.702,11.916-4.879
			c2.283-1.915,3.932-3.298,7.595-3.298c3.652,0,5.3,1.383,7.595,3.298c2.594,2.177,5.791,4.879,11.892,4.879
			c6.099,0,9.311-2.702,11.892-4.879c2.283-1.915,3.944-3.298,7.596-3.298c3.663,0,5.323,1.383,7.617,3.298
			c2.583,2.189,5.816,4.879,11.914,4.879c6.103,0,9.325-2.702,11.917-4.879c2.284-1.915,3.932-3.298,7.596-3.298
			c3.663,0,5.309,1.383,7.617,3.298c2.593,2.189,5.804,4.879,11.917,4.879c1.843,0,3.343-1.502,3.343-3.346
			c0-1.84-1.5-3.343-3.343-3.343c-3.677,0-5.31-1.384-7.617-3.299c-2.583-2.187-5.816-4.901-11.917-4.901
			c-6.114,0-9.324,2.724-11.917,4.901c-2.281,1.913-3.932,3.299-7.595,3.299c-3.661,0-5.32-1.384-7.617-3.299
			c-2.593-2.187-5.814-4.901-11.914-4.901c-6.101,0-9.301,2.737-11.892,4.901c-2.284,1.913-3.946,3.299-7.596,3.299
			c-3.649,0-5.3-1.384-7.595-3.299c-2.579-2.177-5.791-4.901-11.892-4.901c-6.101,0-9.323,2.737-11.915,4.901
			c-2.284,1.913-3.932,3.299-7.595,3.299c-3.65,0-5.276-1.384-7.571-3.299C44.233,361.646,40.997,358.923,34.91,358.923
			L34.91,358.923z"/>
	</g>
</g>
</svg>
