<?xml version="1.0" encoding="utf-8"?>
<!-- Generator: Adobe Illustrator 16.0.0, SVG Export Plug-In . SVG Version: 6.00 Build 0)  -->
<!DOCTYPE svg PUBLIC "-//W3C//DTD SVG 1.1//EN" "http://www.w3.org/Graphics/SVG/1.1/DTD/svg11.dtd">
<svg version="1.1"
	 id="Layer_1" xmlns:dc="http://purl.org/dc/elements/1.1/" xmlns:cc="http://creativecommons.org/ns#" xmlns:rdf="http://www.w3.org/1999/02/22-rdf-syntax-ns#" xmlns:svg="http://www.w3.org/2000/svg" xmlns:sodipodi="http://sodipodi.sourceforge.net/DTD/sodipodi-0.dtd" xmlns:inkscape="http://www.inkscape.org/namespaces/inkscape"
	 xmlns="http://www.w3.org/2000/svg" xmlns:xlink="http://www.w3.org/1999/xlink" x="0px" y="0px" width="100px" height="100px"
	 viewBox="0 0 100 100" enable-background="new 0 0 100 100" xml:space="preserve">
<g transform="translate(50 50) scale(0.69 0.69) rotate(0) translate(-50 -50)">
	<g transform="translate(0,-952.36218)">
		<path fill="#FFFFFF" d="M108.916,986.224c-0.023-0.706-0.108-1.575-0.548-2.543c-0.436-0.968-1.18-2.048-2.419-3.585
			c-5.166-5.656-11.431-12.264-17.482-18.835c-0.994-0.876-2.39-2.529-4.045-4c-1.659-1.474-3.687-2.843-6.13-3
			c-24.483,0.013-48.982,0.028-73.469,0.042c-5.767,0.004-10.669,4.804-10.666,10.681c0.008,14.233,0.017,28.464,0.025,42.698
			c0.002,5.875,4.912,10.671,10.678,10.667c24.488-0.014,48.987-0.03,73.47-0.044c2.443-0.16,4.468-1.53,6.124-3.008
			c1.656-1.472,3.049-3.128,4.042-4.005c5.217-5.606,11.417-12.283,17.459-18.855c1.236-1.537,1.979-2.618,2.416-3.586
			c0.439-0.97,0.522-1.839,0.542-2.545C108.915,986.281,108.915,986.25,108.916,986.224z M105.954,987.727
			c-0.275,0.618-0.906,1.592-2,2.961c-5.181,5.588-11.287,12.18-17.33,18.689c-1.247,1.115-2.532,2.647-3.96,3.923
			c-1.438,1.281-2.945,2.215-4.42,2.338c-24.461,0.014-48.922,0.028-73.384,0.042c-4.275,0.003-8.007-3.622-8.01-8.001
			c-0.007-14.234-0.016-28.463-0.025-42.697c-0.002-4.378,3.725-8.006,8-8.008c24.462-0.014,48.924-0.028,73.383-0.042
			c1.475,0.12,2.983,1.052,4.423,2.331c1.434,1.274,2.717,2.804,3.964,3.918c5.189,5.58,11.3,12.162,17.353,18.669
			c1.094,1.369,1.725,2.34,2.005,2.959c0.273,0.601,0.275,0.909,0.292,1.417c0.003,0.029-0.001,0.052-0.001,0.083
			C106.229,986.816,106.226,987.124,105.954,987.727z M85.561,978.189c-4.453-2.567-10.187-1.027-12.758,3.427
			c-2.566,4.455-1.026,10.191,3.428,12.758c4.455,2.569,10.186,1.028,12.756-3.426c0.804-1.394,1.209-2.916,1.245-4.422
			C90.316,983.214,88.622,979.955,85.561,978.189z M86.693,989.613c-1.848,3.206-5.927,4.314-9.132,2.465
			c-3.201-1.846-4.312-5.924-2.464-9.127c1.85-3.205,5.927-4.314,9.127-2.467c2.005,1.155,3.19,3.201,3.343,5.335
			C87.654,987.099,87.387,988.413,86.693,989.613z"/>
	</g>
</g>
</svg>
