<?xml version="1.0" encoding="utf-8"?>
<!-- Generator: Adobe Illustrator 16.0.0, SVG Export Plug-In . SVG Version: 6.00 Build 0)  -->
<!DOCTYPE svg PUBLIC "-//W3C//DTD SVG 1.1//EN" "http://www.w3.org/Graphics/SVG/1.1/DTD/svg11.dtd">
<svg version="1.1" id="Layer_1" xmlns="http://www.w3.org/2000/svg" xmlns:xlink="http://www.w3.org/1999/xlink" x="0px" y="0px"
	 width="19.565px" height="19.798px" viewBox="0 0 19.565 19.798" enable-background="new 0 0 19.565 19.798" xml:space="preserve">
<g>
	<path fill="#557EBF" d="M11.477,0c-0.61,0-1.207,0.197-1.702,0.557C9.28,0.197,8.685,0,8.073,0C6.447,0,5.126,1.357,5.126,3.024
		c0,0.963,0.723,2.116,2.21,3.527c1.03,0.976,2.044,1.705,2.086,1.734c0.105,0.077,0.229,0.113,0.352,0.113
		c0.123,0,0.246-0.037,0.351-0.113c0.043-0.029,1.058-0.759,2.088-1.734c1.486-1.411,2.21-2.564,2.21-3.527
		C14.424,1.357,13.103,0,11.477,0 M9.775,7.045c-1.535-1.164-3.44-3.021-3.44-4.021c0-1.002,0.778-1.816,1.739-1.816
		c0.479,0,0.924,0.199,1.256,0.562c0.114,0.124,0.276,0.194,0.445,0.194s0.331-0.07,0.445-0.194
		c0.332-0.363,0.777-0.562,1.256-0.562c0.96,0,1.74,0.814,1.74,1.816C13.217,4.023,11.309,5.88,9.775,7.045"/>
	<path fill="#557EBF" d="M16.551,12.99c0.314-0.439,0.501-0.978,0.501-1.557v-0.716c0-1.479-1.202-2.68-2.68-2.68
		c-1.478,0-2.68,1.202-2.68,2.68v0.716c0,0.58,0.186,1.118,0.5,1.557c-1.008,0.215-1.869,0.829-2.408,1.67
		c-0.542-0.842-1.403-1.455-2.41-1.67c0.314-0.439,0.5-0.978,0.5-1.557v-0.716c0-1.479-1.203-2.68-2.68-2.68
		c-1.479,0-2.68,1.202-2.68,2.68v0.716c0,0.58,0.185,1.118,0.5,1.557C1.294,13.357,0,14.888,0,16.715v2.479
		c0,0.334,0.27,0.604,0.604,0.604h9.18h9.178c0.334,0,0.604-0.271,0.604-0.604v-2.479C19.565,14.888,18.271,13.357,16.551,12.99
		 M3.721,10.716c0-0.812,0.66-1.473,1.473-1.473c0.812,0,1.471,0.661,1.471,1.473v0.716c0,0.81-0.66,1.472-1.471,1.472
		c-0.813,0-1.473-0.662-1.473-1.472V10.716z M9.178,18.589H1.208v-1.874c0-1.436,1.167-2.604,2.603-2.604h2.764
		c1.437,0,2.604,1.169,2.604,2.604V18.589z M12.901,10.716c0-0.812,0.66-1.473,1.471-1.473c0.813,0,1.472,0.661,1.472,1.473v0.716
		c0,0.81-0.659,1.472-1.472,1.472c-0.811,0-1.471-0.662-1.471-1.472V10.716z M18.357,18.589h-7.971v-1.874
		c0-1.436,1.167-2.604,2.603-2.604h2.766c1.435,0,2.603,1.169,2.603,2.604V18.589z"/>
</g>
</svg>
