<?xml version="1.0" encoding="utf-8"?>
<!-- Generator: Adobe Illustrator 16.0.0, SVG Export Plug-In . SVG Version: 6.00 Build 0)  -->
<!DOCTYPE svg PUBLIC "-//W3C//DTD SVG 1.1//EN" "http://www.w3.org/Graphics/SVG/1.1/DTD/svg11.dtd">
<svg version="1.1" id="Layer_1" xmlns="http://www.w3.org/2000/svg" xmlns:xlink="http://www.w3.org/1999/xlink" x="0px" y="0px"
	 width="100px" height="100px" viewBox="0 0 100 100" enable-background="new 0 0 100 100" xml:space="preserve">
<g transform="translate(50 50) scale(0.69 0.69) rotate(0) translate(-50 -50)">
	<g>
		<path fill="#4D4D4D" d="M48.184,122.23c-2.336,0-4.437-1.868-4.437-4.436V54.989c0-2.099,1.635-4.199,3.97-4.433V37.715
			l-11.206-9.338v-38.525c0-3.499,2.569-6.535,5.837-7.003v41.323c0,0.934,0.7,1.635,1.633,1.635h2.336
			c0.933,0,1.634-0.701,1.634-1.635v-41.556h5.838v41.556c0,0.934,0.698,1.635,1.398,1.635h2.57c0.933,0,1.633-0.701,1.633-1.635
			v-41.323c3.269,0.468,5.835,3.504,5.835,7.003v38.525l-11.206,9.338v12.841c2.102,0.234,3.971,2.334,3.971,4.433v62.806
			c0,2.567-2.102,4.436-4.669,4.436H48.184z"/>
		<path fill="#4D4D4D" d="M97.212-17.384c9.106,0,16.344,11.673,16.344,26.148c0,12.375-5.371,22.647-12.374,25.447v16.345
			c2.103,0.234,3.967,2.334,3.967,4.433v62.806c0,2.567-2.1,4.436-4.668,4.436h-6.305c-2.567,0-4.669-1.868-4.669-4.436V54.989
			c0-2.099,1.868-4.199,3.971-4.433V34.212c-7.007-2.8-12.374-13.073-12.374-25.447C81.104-5.71,88.341-17.384,97.212-17.384z"/>
		<path fill="#4D4D4D" d="M14.798-12.482v131.441c0,1.868-1.402,3.504-3.269,3.504H6.628c-1.868,0-3.269-1.636-3.269-3.504V67.831
			c0-3.036-28.015-37.588,1.867-80.08C8.261-16.683,14.798-18.785,14.798-12.482z"/>
	</g>
</g>
</svg>
