<?xml version="1.0" encoding="utf-8"?>
<!-- Generator: Adobe Illustrator 16.0.0, SVG Export Plug-In . SVG Version: 6.00 Build 0)  -->
<!DOCTYPE svg PUBLIC "-//W3C//DTD SVG 1.1//EN" "http://www.w3.org/Graphics/SVG/1.1/DTD/svg11.dtd">
<svg version="1.1" id="layer_1" xmlns="http://www.w3.org/2000/svg" xmlns:xlink="http://www.w3.org/1999/xlink" x="0px" y="0px"
	 width="866px" height="532px" viewBox="0 0 866 532" enable-background="new 0 0 866 532" xml:space="preserve">
<g>
	<defs>
		<polyline id="SVGID_1_" points="-58,-34 -58,616 892,616 892,-34 		"/>
	</defs>
	<clipPath id="SVGID_2_">
		<use xlink:href="#SVGID_1_"  overflow="visible"/>
	</clipPath>
	<g clip-path="url(#SVGID_2_)">
		<g opacity="0.4">
			<g>
				<g>
					<g>
						<path fill="#272063" d="M103.273,384.225c-1.503,0.303-2.789,0.703-3.471,1.365c-0.852,0.828-2.616,1.805-2.804,2.416
							c-0.329,1.064,0.37,2.035,0.37,2.035c0.075,0.998,0.402,1.271,0.402,1.271l3.44,0.949c0,0,0.414-1.133,0.792-1.889
							c0.729-1.461,5.418-3.525,5-5.246C106.792,384.26,104.777,383.924,103.273,384.225z"/>
						<path fill="#FCD2C5" d="M97.368,390.041c0.074,0.998,0.166,1.664,0.166,1.664l3.819,0.713c0,0,0.114-0.891,0.649-2.045
							c0,0-0.871-0.908-2.171-1.262C99.095,388.912,97.368,390.041,97.368,390.041z"/>
						<path fill="#272063" d="M142.605,382.141c-1.532-0.063-2.791,0.211-3.696,0.508c-0.903,0.295-2.967,1.137-3.294,1.688
							c-0.57,0.955-0.121,2.064-0.121,2.064c-0.162,0.986,0.092,1.33,0.092,1.33l3.119,1.732c0,0,0.668-1.002,1.215-1.648
							c1.052-1.246,6.096-2.148,6.096-3.918C146.017,383.004,144.138,382.201,142.605,382.141z"/>
						<path fill="#FCD2C5" d="M138.107,386.076c-0.668-0.367-2.612,0.324-2.612,0.324c-0.163,0.986-0.231,1.656-0.231,1.656
							l3.543,1.594c0,0,0.321-0.84,1.114-1.836C139.92,387.814,139.288,386.727,138.107,386.076z"/>
					</g>
					<g>
						<path fill="#272063" d="M243.413,382.879c-1.532-0.061-2.791,0.213-3.696,0.51c-0.903,0.295-2.967,1.135-3.294,1.686
							c-0.57,0.957-0.121,2.066-0.121,2.066c-0.162,0.986,0.092,1.328,0.092,1.328l3.119,1.734c0,0,0.668-1.002,1.214-1.648
							c1.052-1.248,6.097-2.15,6.097-3.918C246.824,383.742,244.945,382.939,243.413,382.879z"/>
						<path fill="#FCD2C5" d="M238.915,386.816c-0.668-0.367-2.613,0.324-2.613,0.324c-0.163,0.986-0.077,2.412-0.077,2.412
							l4.188,0.75c0,0-0.478-0.752,0.314-1.748C240.727,388.555,240.095,387.467,238.915,386.816z"/>
						<path fill="#272063" d="M219.342,382.127c-1.533,0.059-2.865,0.25-3.645,0.797c-0.972,0.68-2.869,1.365-3.152,1.939
							c-0.494,0.998,0.042,2.068,0.042,2.068c-0.084,0.996,0.195,1.316,0.195,1.316l3.245,1.486c0,0,0.588-1.053,1.082-1.74
							c0.951-1.326,5.909-2.621,5.771-4.385C222.811,382.721,220.875,382.066,219.342,382.127z"/>
						<path fill="#FCD2C5" d="M215.167,386.404c-0.694-0.314-2.579,0.527-2.579,0.527c-0.085,0.996-0.037,2.486-0.037,2.486
							l4.143,0.449c0,0-0.296-0.818,0.416-1.873C217.11,387.994,216.395,386.959,215.167,386.404z"/>
					</g>
					<g>
						<g id="XMLID_49_">
							<g id="XMLID_50_">
								<g>
									<polygon fill="#AFC4D5" points="642.907,386.068 642.907,389.695 667.092,393.645 722.864,389.695 722.864,386.068 
										667.092,390.018 									"/>
								</g>
								<g id="XMLID_53_">
									<circle fill="#FFFFFF" cx="722.97" cy="388.232" r="6.11"/>
								</g>
								<g id="XMLID_51_">
									<circle fill="#FFFFFF" cx="642.908" cy="388.232" r="6.11"/>
								</g>
							</g>
						</g>
					</g>
					<g>
						<path fill="#FFBB00" d="M502.224,384.375c-1.517-0.219-2.862-0.273-3.729,0.123c-1.079,0.494-3.275,2.813-3.658,3.326
							c-0.665,0.893-0.669,3.367-0.669,3.367c0.884,2.105,3.752,1.428,3.752,1.428s0.229-0.303,0.84-0.889
							c1.174-1.131,6.493-3.496,6.676-5.256C505.528,385.588,503.741,384.594,502.224,384.375z"/>
						<path fill="#FFBB00" d="M501.945,384.344c-1.277-0.186-2.41-0.23-3.139,0.104c-0.91,0.416-2.766,2.363-3.082,2.801
							c-1.729,2.395,0.824,4.18,2.309,3.145c1.531-1.066,6.462-2.799,6.616-4.281C504.728,385.363,503.224,384.527,501.945,384.344z
							"/>
						<path fill="#FFBB00" d="M466.574,382.648c-0.82-0.484-2.163-0.57-3.696-0.508c-1.532,0.061-3.411,0.863-3.411,1.756
							c0,1.77,5.045,4.672,6.098,5.918c0.545,0.646,0.743,0.971,0.743,0.971s2.78,0.971,3.879-1.031c0,0,0.253-2.463-0.317-3.418
							C469.541,385.785,467.596,383.252,466.574,382.648z"/>
						<path fill="#FFBB00" d="M466.271,382.566c-0.689-0.408-1.821-0.48-3.112-0.43c-1.289,0.053-2.872,0.727-2.872,1.48
							c0,1.488,4.726,3.723,6.138,4.941c1.37,1.184,4.093-0.328,2.621-2.889C468.777,385.203,467.132,383.072,466.271,382.566z"/>
					</g>
					<g>
						<path fill="#FEBB00" d="M597.186,382.131c-1.532-0.061-2.791,0.213-3.695,0.51c-0.903,0.295-2.968,1.135-3.296,1.686
							c-0.57,0.957-0.12,2.066-0.12,2.066c-0.162,0.986,0.092,1.328,0.092,1.328l3.12,1.734c0,0,0.667-1.002,1.213-1.648
							c1.054-1.248,6.097-2.15,6.097-3.918C600.596,382.994,598.717,382.191,597.186,382.131z"/>
						<path fill="#FCD2C5" d="M592.687,386.068c-0.667-0.367-2.612,0.324-2.612,0.324c-0.163,0.986-0.23,1.654-0.23,1.654
							l3.543,1.594c0,0,0.32-0.838,1.112-1.834C594.499,387.807,593.867,386.719,592.687,386.068z"/>
					</g>
				</g>
			</g>
		</g>
		<g>
			<path fill="#D3E1EA" d="M709.216,238.332c-12.204,6.131-23.883,55.342-39.943,55.342C612.5,293.674,596,87.95,517,115.38
				c-40.967,14.225-70.263,126.979-119.941,159.776C345.298,309.33,280.324,216.049,243,216.049
				c-39.311,0-42.901,104.805-73.969,112.703c-15.186,3.861-31.969-20.199-46.42-13.924c-15.442,6.705-22.177,25.1-30.569,40.393
				C83.649,370.516,66,381.369,53.989,382.369h731.875C730,345.369,748.5,218.6,709.216,238.332z"/>
			<g>
				<g>
					<path fill-rule="evenodd" clip-rule="evenodd" fill="#FF4745" d="M327.188,320.535h-30.575
						c-5.897,0-10.678,4.781-10.678,10.678c0,5.898,4.781,10.68,10.678,10.68h30.575c5.898,0,10.678-4.781,10.678-10.68
						C337.867,325.316,333.086,320.535,327.188,320.535z"/>
				</g>
				<g>
					<path fill="#FFFFFF" d="M302.875,330.75c0.502-0.229,0.9-0.568,1.193-1.023c0.294-0.455,0.44-0.955,0.44-1.5
						c0-0.502-0.119-0.955-0.357-1.359s-0.535-0.729-0.893-0.971c-0.356-0.244-0.761-0.404-1.213-0.48
						c-0.452-0.076-1.138-0.115-2.058-0.115h-4.647v11.627h3.958c1.496-0.01,2.44-0.037,2.832-0.078
						c0.624-0.07,1.148-0.254,1.574-0.553s0.761-0.697,1.007-1.197s0.369-1.014,0.369-1.543c0-0.67-0.19-1.256-0.571-1.752
						C304.128,331.307,303.584,330.955,302.875,330.75z M297.688,327.236h1.348c1.105,0,1.774,0.014,2.007,0.039
						c0.391,0.049,0.686,0.184,0.884,0.408s0.297,0.518,0.297,0.877c0,0.375-0.115,0.678-0.345,0.908s-0.546,0.369-0.948,0.416
						c-0.222,0.027-0.79,0.039-1.705,0.039h-1.539V327.236z M302.324,334.434c-0.22,0.246-0.503,0.4-0.853,0.465
						c-0.228,0.047-0.764,0.07-1.61,0.07h-2.173v-3.109h1.896c1.068,0,1.762,0.057,2.082,0.168c0.32,0.109,0.564,0.287,0.734,0.531
						c0.169,0.242,0.254,0.539,0.254,0.887C302.653,333.859,302.543,334.188,302.324,334.434z"/>
					<path fill="#FFFFFF" d="M313.971,331.732c0,0.92-0.034,1.578-0.103,1.975s-0.272,0.732-0.611,1.004s-0.84,0.408-1.507,0.408
						c-0.656,0-1.173-0.145-1.55-0.432c-0.378-0.289-0.618-0.67-0.718-1.146c-0.058-0.297-0.087-0.943-0.087-1.943v-6.297h-2.348
						v6.203c0,1.301,0.076,2.283,0.23,2.949c0.105,0.449,0.325,0.879,0.658,1.289s0.786,0.742,1.36,1
						c0.574,0.256,1.416,0.385,2.526,0.385c0.92,0,1.666-0.119,2.237-0.354c0.571-0.236,1.027-0.551,1.368-0.947
						c0.341-0.396,0.575-0.885,0.702-1.461s0.19-1.561,0.19-2.957v-6.107h-2.348V331.732z"/>
					<polygon fill="#FFFFFF" points="323.076,329.9 320.34,325.301 317.588,325.301 321.847,332.035 321.847,336.928 
						324.187,336.928 324.187,332.051 328.461,325.301 325.757,325.301 					"/>
				</g>
				<g>
					<g>
						<rect x="273.776" y="340.244" fill="#FFFFFF" width="49" height="42"/>
					</g>
					<g>
						<rect x="322.776" y="340.244" fill="#E3EEF7" width="18" height="42"/>
					</g>
				</g>
				<g>
					<polygon fill="#AFC4D6" points="273.776,366.244 314.676,366.244 322.826,340.244 273.776,340.244 					"/>
				</g>
				<g>
					<polygon fill="#AFC4D6" points="322.986,341.393 330.926,375.244 340.776,375.244 340.776,340.244 322.776,340.244 					"/>
				</g>
				<g>
					<polygon fill="#FFFFFF" points="264.357,357.408 314.674,357.408 322.868,340.182 274.074,340.182 					"/>
				</g>
				<g>
					<polygon fill="#E3EEF7" points="323.04,340.182 330.401,360.9 348.162,360.9 340.801,340.182 					"/>
				</g>
			</g>
			<g>
				<g>
					<g>
						<rect x="153.897" y="340.244" fill="#FFFFFF" width="49" height="42"/>
					</g>
					<g>
						<rect x="202.897" y="340.244" fill="#E3EEF7" width="18" height="42"/>
					</g>
				</g>
			</g>
			<g>
				<g>
					<path fill="#FCD2C5" d="M188.928,271.162c-0.655,0.449-1.404,0.852-2.161,1.08c0.89-0.133,0.888,0.424,1.838,0.42
						c0.362-0.111,1.49-1.346,1.268-1.656C189.571,270.496,189.272,270.891,188.928,271.162z"/>
					<path fill="#FCD2C5" d="M192.818,272.982c-0.304-0.188-1.358-0.275-1.774-0.375c-0.144-0.025-2.193-0.373-3.104-0.404
						c-0.771-0.033-1.546-0.012-2.263,0.082c-0.04,0.01-0.436,2.969-0.34,3.939c1.289,0.08,5.282-0.074,5.379-0.057
						c1.602,0.32,2.009-0.234,1.729-0.703c-0.068-0.113,1.018-0.334,0.826-0.846c0,0,0.322-0.207,0.239-0.621
						C193.446,273.686,193.012,273.104,192.818,272.982z"/>
					<path fill="#FCD2C5" d="M158.498,241.814c-0.235-0.766-9.101,1.684-10.397,2.646c-2.989,2.225,4.118,20.82,7.772,26.967
						c1.388,2.332,7.869,3.979,5.971-4.34C160.296,260.307,159.793,246.043,158.498,241.814z"/>
					<path fill="#FEBB00" d="M148.101,244.461c-1.994,1.484-1.3,10.807,1.671,18.307c0.911-0.121,3.626-0.813,4.53-1.014
						c2.213-0.488,5.267-1.412,7.359-2.254c-1.448-6.641-2.249-14.701-3.163-17.686
						C158.263,241.049,149.396,243.498,148.101,244.461z"/>
					<path fill="#FCD2C5" d="M159.346,266.945c-0.26-0.029-0.573-0.01-0.906,0.061c-1.468,0.316-3.293,1.668-2.362,4.559
						c1.015,3.158,21.731,4.959,30.028,4.748c-0.111-1.041,0.005-2.406,0.275-4.025C181.34,272.516,164.098,267.48,159.346,266.945z
						"/>
				</g>
				<path fill="#FCD2C5" d="M107.126,312.279c-0.821,2.563-9.755,61.652-9.755,61.652c0.01,0.121,2.162,0.883,3.83,0.08
					c0,0,16.92-55.924,17.293-57.031C117.336,317.674,108.339,313.791,107.126,312.279z"/>
				<path fill="#272063" d="M102.002,374.119c-0.378-0.758-0.792-1.891-0.792-1.891l-3.44,0.951c0,0-0.327,0.273-0.402,1.27
					c0,0-0.699,0.971-0.37,2.035c0.188,0.613,1.953,1.59,2.804,2.416c0.683,0.664,1.968,1.064,3.471,1.365
					c1.503,0.303,3.519-0.033,3.729-0.902C107.42,377.645,102.73,375.578,102.002,374.119z"/>
				<path fill="#FCD2C5" d="M97.534,372.785c0,0-0.091,0.668-0.166,1.664c0,0,1.727,1.131,2.462,0.932
					c1.301-0.354,2.171-1.262,2.171-1.262c-0.535-1.156-0.649-2.047-0.649-2.047L97.534,372.785z"/>
				<path fill="#802B52" d="M113.084,271.959c0,0-7.992,37.484-9.788,56.09c-2.081,21.553-5.89,44.004-5.89,44.004
					c1.086,1.994,4.422,1.105,4.502,0.955c0,0,31.5-93.764,31.9-97.781C131.13,275.699,120.27,274.209,113.084,271.959z"/>
				<path fill="#FCD2C5" d="M130.319,315.373c-0.194,2.684,5.056,62.213,5.056,62.213c0.039,0.117,2.309,0.35,3.741-0.824
					c0,0,3.257-58.336,3.359-59.502C141.514,318.209,131.854,316.555,130.319,315.373z"/>
				<path fill="#272063" d="M139.92,376.676c-0.546-0.646-1.215-1.648-1.215-1.648l-3.119,1.734c0,0-0.253,0.342-0.092,1.328
					c0,0-0.45,1.109,0.121,2.066c0.327,0.551,2.392,1.391,3.294,1.688c0.905,0.295,2.164,0.568,3.696,0.508s3.411-0.863,3.411-1.756
					C146.017,378.826,140.972,377.924,139.92,376.676z"/>
				<path fill="#FCD2C5" d="M135.264,376.436c0,0,0.068,0.668,0.231,1.654c0,0,1.944,0.691,2.612,0.324
					c1.181-0.65,1.813-1.736,1.813-1.736c-0.792-0.998-1.114-1.836-1.114-1.836L135.264,376.436z"/>
				<path fill="#802B52" d="M126.603,274.783v19.611c1.464,1.154,1.071,18.703,3.712,37.205c3.059,21.436,4.652,44.152,4.652,44.152
					c1.525,1.682,4.558,0.033,4.6-0.133c0,0,8.503-98.547,7.946-102.547C145.021,274.164,134.116,275.277,126.603,274.783z"/>
				<path fill="#FEBB00" d="M109.247,279.289c-0.082,1.553,13.456,3.945,20.319,6.902c6.864,2.959,15.636,7.693,18.763,6.258
					c1.382-0.635,2.31-12.32,2.31-12.32l-36.889-13.197C113.75,266.932,109.468,275.094,109.247,279.289z"/>
				<path fill="#FCD2C5" d="M147.143,223.375c-0.293,2.094-2.5,7.51-3.5,8.357c0.585,4.174,6.622,5.924,7.673,3.867
					c-0.277-2.621,1.997-6.682,2.129-7.09C151.894,228.301,147.537,223.891,147.143,223.375z"/>
				<path fill="#FCD2C5" d="M154.714,217.75c-2.996-0.658-5.511,1.381-6.163,4.348c-0.007,0.031-0.677,3.08-0.677,3.08
					c-0.492,2.238,2.185,6.516,4.224,6.531c4.824,0.039,7.661-8.191,7.715-9.18C159.963,219.77,157.502,218.363,154.714,217.75z"/>
				<path fill="#272063" d="M151.316,235.6c0,0-1.711,1.219-3.152,0.682c-2.099-0.783-4.521-4.549-4.521-4.549
					s-4.946-0.078-6.596-0.16c-4.952-0.242-7.593,1.631-10.607,5.736c-0.93,1.268-7.852,17.818-15.173,33.998
					c-2.199,4.859,35.542,18.838,39.063,15.418c1.436-1.395,1.367-6.221,8.033-37.098c0.668-3.096,1.676-6.773-1.423-10.031
					C156.14,238.756,151.316,235.6,151.316,235.6z"/>
				<g>
					<g>
						<g>
							<rect x="137.602" y="264.064" fill="#E3EEF7" width="49" height="42"/>
						</g>
						<g>
							<rect x="186.602" y="264.064" fill="#AFC4D5" width="18" height="42"/>
						</g>
					</g>
				</g>
				<g>
					<path fill="#FCD2C5" d="M168.037,273.893c-0.768,0.205-1.608,0.334-2.397,0.295c0.884,0.174,0.696,0.697,1.593,1.01
						c0.378,0.016,1.853-0.771,1.748-1.139C168.865,273.479,168.452,273.75,168.037,273.893z"/>
					<path fill="#FCD2C5" d="M171.18,276.301c-0.16-0.076-2.443-1.15-3.506-1.51c-0.896-0.314-1.819-0.576-2.701-0.748
						c-0.051-0.006-1.656,2.619-1.916,3.564c1.49,0.543,6.26,1.854,6.366,1.906c1.768,0.883,2.461,0.512,2.31-0.029
						c-0.037-0.131,1.329,0.057,1.3-0.49c0,0,0.46-0.078,0.521-0.496c0.046-0.314-0.243-1.018-0.425-1.201
						C172.843,277.01,171.632,276.545,171.18,276.301z"/>
					<path fill="#FCD2C5" d="M140.18,234.736c-0.232-0.768-9.106,1.654-10.405,2.613c-2.996,2.217,4.053,20.834,7.688,26.99
						c1.381,2.338,7.856,4.004,5.984-4.32C141.921,253.232,141.462,238.969,140.18,234.736z"/>
					<path fill="#FEBB00" d="M127.826,238.57c-0.471,2.441,0.616,9.582,3.563,17.092c4.165,0.127,9.271-1.471,11.899-3.23
						c-1.427-6.646-1.235-15.199-3.108-17.695C137.758,231.508,129.038,232.293,127.826,238.57z"/>
					<path fill="#FCD2C5" d="M140.683,259.801c-1.489-0.193-3.661,0.473-3.749,3.51c-0.097,3.314,18.832,11.926,26.724,14.494
						c0.243-1.018,0.808-2.266,1.602-3.703c-4.828-1.465-19.401-11.967-23.703-14.057
						C141.322,259.932,141.02,259.844,140.683,259.801z"/>
				</g>
				<path fill="#FF4746" d="M159.08,217.771c0,0-5.066-5.641-10.116-3.189c-7.604,3.693-2.333,12.107-2.333,12.107
					c0.148-2.094,4.593-9.055,10.948-7.096c0,0,2.958,2.645,0.455,7.414C160.487,226.639,163.525,220.047,159.08,217.771z"/>
				<path fill="#FCD2C5" d="M148.997,220.977c-0.75-0.252-1.801,0.51-2.053,1.26c-0.237,0.709,0.257,2.074,0.895,2.502
					c0.557-0.686,1.687-2.072,2.256-2.982C149.778,221.354,149.283,221.072,148.997,220.977z"/>
				<path fill="#FF4746" d="M132.441,214.65c-2.038,5.469-3.515,5.578-5.633,6.857c-10.459,6.326,0.865,23.236,3.636,17.777
					c1.08-2.127-4.666-5.832,4.386-8.473c10.004-2.918,7.249-7.893,7.211-11.139c-0.144-12.299,5.23-8.666,6.257-6.053
					c0.608,1.549,1.468,1.037,1.905-0.135C151.979,208.72,139.202,196.504,132.441,214.65z"/>
				<path fill="#272063" d="M150.584,212.898c-0.323-0.119-0.712-0.16-1.169-0.039c-1.718,0.459-2.047,1.463-1.893,2.527
					c0,0,2.123-1.324,4.259-1.396C151.782,213.99,151.388,213.199,150.584,212.898z"/>
			</g>
			<g>
				<g>
					<path fill="#01D06A" d="M513.22,292.223c-0.449,2.119,0.208,4.633-0.162,6.811c-0.466,2.725-2.195,3.504-3.367,5.223
						c-1.387,2.035-2.021,5.85-1.513,9.1c0.314,2.012,1,3.703,1.513,5.549c0.512,1.848,0.85,4.111,0.413,6.031
						c-0.658,2.895-4.175,5.143-4.175,17.412c0,11.197,7.995,15.553,10.262,18.295v-72.613l-1.024,0.994
						C514.39,289.775,513.553,290.652,513.22,292.223z"/>
					<path fill="#01D06A" d="M522.558,318.904c0.512-1.846,1.198-3.537,1.512-5.549c0.509-3.25-0.125-7.064-1.513-9.1
						c-1.172-1.719-2.902-2.498-3.366-5.223c-0.371-2.178,0.286-4.691-0.162-6.811c-0.334-1.57-1.171-2.447-1.946-3.199
						l-1.025-0.994v72.613c2.267-2.742,10.262-7.098,10.262-18.295c0-12.27-3.517-14.518-4.174-17.412
						C521.708,323.016,522.047,320.752,522.558,318.904z"/>
				</g>
				<g>
					<path fill="#FEBB00" d="M526.299,335.604c-0.525,0.691-0.293,1.736-0.768,2.465c-0.595,0.912-1.915,0.873-2.923,1.283
						c-1.192,0.486-2.014,1.766-1.958,3.053c0.035,0.795,0.366,1.543,0.559,2.316c0.191,0.773,0.219,1.666-0.277,2.289
						c-0.749,0.938-3.496,1.102-4.667,5.6c-1.07,4.104,4.271,7.199,5.643,8.629l6.93-26.615l-0.833,0.172
						C527.374,334.926,526.688,335.09,526.299,335.604z"/>
					<path fill="#FEBB00" d="M529.947,339.219c-0.061-0.867,0.654-1.666,0.533-2.527c-0.09-0.637-0.609-1.115-1.096-1.537
						l-0.645-0.557l-6.932,26.615c1.895-0.58,8.066-0.676,9.136-4.781c1.171-4.496-1.146-5.98-1.343-7.164
						c-0.131-0.785,0.328-1.553,0.873-2.133c0.545-0.582,1.199-1.072,1.619-1.752c0.676-1.096,0.583-2.611-0.223-3.617
						C531.191,340.914,530.021,340.305,529.947,339.219z"/>
				</g>
				<path fill="#FFFFFF" d="M502.966,358.811c0,0,4.983,5.34,4.983,8.934c0,0.961-0.344,2.43-0.854,4.07
					c-1.621,5.234,2.23,10.555,7.707,10.555h13.174c5.478,0,9.328-5.32,7.707-10.555c-0.509-1.641-0.853-3.109-0.853-4.07
					c0-3.594,4.983-8.934,4.983-8.934H502.966z"/>
			</g>
			<g>
				<path fill="#272063" d="M240.727,375.938c-0.546-0.646-1.214-1.65-1.214-1.65l-3.119,1.734c0,0-0.253,0.344-0.092,1.33
					c0,0-0.45,1.109,0.121,2.064c0.327,0.551,2.392,1.393,3.294,1.688c0.905,0.297,2.164,0.57,3.696,0.508
					c1.532-0.061,3.411-0.863,3.411-1.756C246.824,378.086,241.779,377.184,240.727,375.938z"/>
				<path fill="#FCD2C5" d="M240.413,374.188l-4.188,0.75c0,0-0.086,1.428,0.077,2.414c0,0,1.945,0.691,2.613,0.324
					c1.181-0.65,1.813-1.738,1.813-1.738C239.935,374.941,240.413,374.188,240.413,374.188z"/>
				<path fill="#01D06A" d="M227.41,277.045v19.611c1.464,1.152,10.016,23.379,13.712,36.205c0.122,0.422-5.348,38.123-5.348,42.152
					c1.526,1.682,4.559,0.031,4.6-0.133c0,0,11.82-19.09,13.721-42.152c2.208-26.791-5.475-55.246-5.774-57.395
					C245.829,276.426,234.923,277.537,227.41,277.045z"/>
				<path fill="#272063" d="M217.11,376.498c-0.494-0.688-1.082-1.74-1.082-1.74l-3.245,1.484c0,0-0.279,0.322-0.195,1.318
					c0,0-0.536,1.07-0.042,2.068c0.283,0.574,2.181,1.258,3.152,1.939c0.779,0.547,2.112,0.738,3.645,0.797
					c1.532,0.059,3.468-0.594,3.538-1.484C223.019,379.117,218.061,377.822,217.11,376.498z"/>
				<path fill="#FCD2C5" d="M216.694,374.623l-4.143,0.451c0,0-0.048,1.49,0.037,2.486c0,0,1.885,0.842,2.579,0.527
					c1.228-0.557,1.943-1.59,1.943-1.59C216.398,375.441,216.694,374.623,216.694,374.623z"/>
				<path fill="#01D06A" d="M216.426,272.619c-9.333,17.766,3.02,43.75,4.628,60.502c0,0-8.81,23.08-8.81,42.066
					c1.389,1.797,4.542,0.391,4.597,0.229c0-7.715,15.418-27.215,17.12-41.188c3.257-26.746,0.968-55.25,0.837-57.422
					C232.259,273.518,222.926,269.869,216.426,272.619z"/>
				<path fill="#FCD2C5" d="M237.841,219.588c0.168,2.105-0.812,7.871-1.603,8.918c1.477,3.947,7.75,4.344,8.329,2.109
					c-0.839-2.5,0.499-6.957,0.54-7.385C243.547,223.363,238.337,220.006,237.841,219.588z"/>
				<path fill="#FCD2C5" d="M244.01,212.453c-3.067,0.008-5.08,2.543-5.072,5.58c0,0.033,0.007,3.154,0.007,3.154
					c0.005,2.291,3.546,5.887,5.541,5.459c4.717-1.01,5.702-9.658,5.539-10.635C249.573,213.285,246.865,212.445,244.01,212.453z"/>
				<path fill="#802B52" d="M250.926,233.293c-0.966-0.646-6.359-2.678-6.359-2.678s-1.41,1.559-2.924,1.35
					c-2.222-0.314-5.406-3.455-5.406-3.455s-4.903,0.746-6.47,1.266c-14.029,4.645-21.668,21.916-19.134,63.068
					c0.717,0.102,2.608,0.15,3.498,0.314l2.605-13.178l0.962,13.91c13.759,6.354,32.606,1.738,34.133-8.461
					c-0.837-6.809-1.095-13.047-1.027-18.477c0.018-2.053,0.089-3.988,0.184-5.801c0.463-8.822,1.623-14.652,1.731-16.076
					C253.046,240.791,254.656,235.799,250.926,233.293z"/>
				<path fill="#272063" d="M241.637,231.963c-2.219-0.307-5.399-3.457-5.399-3.457s-2.521,0.336-3.306,0.443
					c-1.73,0.234-3.167,0.83-3.167,0.83c6.036,3.428,15.004,12.32,15.004,12.32s4.193-4.988,4.815-9.469
					c-1.196-0.707-5.017-2.016-5.017-2.016S243.161,232.176,241.637,231.963z"/>
				<path fill="#272063" d="M237.716,207.595c-4.358,3.887-3.71,11.254,0.008,14.588c0,0,0.618-4.814,2.148-6.975
					c12.552,2.756,13.837-0.484,13.793-1.822C253.468,207.329,243.416,202.511,237.716,207.595z"/>
				<path fill="#FCD2C5" d="M238.486,216.793c-0.783,0.113-1.377,1.268-1.263,2.051c0.108,0.738,1.166,1.734,1.928,1.828
					c0.188-0.863,0.569-2.611,0.666-3.68C239.353,216.775,238.784,216.748,238.486,216.793z"/>
				<g>
					<path fill="#FCD2C5" d="M289.359,271.514c-0.747,0.271-1.573,0.475-2.362,0.506c0.895,0.094,0.754,0.631,1.675,0.865
						c0.378-0.018,1.778-0.932,1.641-1.287C290.148,271.029,289.76,271.336,289.359,271.514z"/>
					<path fill="#FCD2C5" d="M292.701,273.637c-0.166-0.063-2.534-0.93-3.625-1.197c-0.92-0.232-1.862-0.412-2.756-0.508
						c-0.051,0-1.419,2.756-1.596,3.719c1.531,0.412,6.398,1.297,6.509,1.342c1.838,0.725,2.497,0.293,2.298-0.232
						c-0.048-0.127,1.329-0.059,1.251-0.602c0,0,0.452-0.119,0.476-0.539c0.018-0.318-0.332-0.994-0.529-1.16
						C294.42,274.197,293.173,273.84,292.701,273.637z"/>
					<path fill="#FCD2C5" d="M260.875,259.875c-1.5-0.061-3.605,0.793-3.426,3.826c0.194,3.311,19.805,10.227,27.892,12.094
						c0.152-1.033,0.606-2.328,1.271-3.828c-4.938-1.037-20.376-10.219-24.844-11.924
						C261.523,259.951,261.214,259.889,260.875,259.875z"/>
					<path fill="#FCD2C5" d="M251.904,236.057c-0.456-0.66-8.166,4.354-9.11,5.664c-2.176,3.025,10.22,18.602,15.561,23.355
						c2.028,1.803,8.704,1.414,4.38-5.941C259.209,253.139,254.417,239.693,251.904,236.057z"/>
					<path fill="#802B52" d="M257.852,246.301c-1.96-4.584-4.016-9.361-5.328-11.262c-0.204-0.295-0.338-0.025-0.722-0.041
						c-1.681-0.068-8.829,4.764-9.82,6.139c-2.959,4.113,11.309,20.748,15.657,24.639c4.112,3.787,20.356,9.35,27.476,10.994
						l1.701-5.783c-2.863-0.6-20.592-9.975-22.447-10.873C264.153,259.631,259.825,250.912,257.852,246.301z"/>
				</g>
			</g>
			<g>
				<polygon fill="#D3E1EA" points="200.104,186.513 209.453,186.513 210.721,176.303 195.563,176.303 				"/>
				<g>
					<path fill="#D3E1EA" d="M175.727,149.86l-10.642-1.611l7,12.709l8.855-2.898c0.011-0.115,0.014-4.662,0.014-4.662
						C180.954,150.508,178.615,149.86,175.727,149.86z"/>
					<path fill="#D3E1EA" d="M172.084,165.737l-7,12.709l10.642-1.609c2.889,0,5.227-0.648,5.227-3.537c0,0-0.003-4.548-0.014-4.662
						L172.084,165.737z"/>
				</g>
				<path fill="#EDF5F8" d="M163.057,163.909c0,0,72.465-0.143,72.592-0.002C227.138,133.899,167.084,150.613,163.057,163.909z"/>
				<path fill="#D3E1EA" d="M163.057,163.909c4.027,13.297,64.082,30.01,72.592,0.002
					C235.521,164.051,163.057,163.909,163.057,163.909z"/>
				<path fill="#D3E1EA" d="M206.184,153.985c-26.28,0-42.864,9.824-43.122,9.922h72.586
					C235.521,163.766,232.417,153.985,206.184,153.985z"/>
				<path fill="#EDF5F8" d="M206.184,173.836c26.232,0,29.337-9.782,29.465-9.922h-72.586
					C163.32,164.01,179.904,173.836,206.184,173.836z"/>
				<polygon fill="#D3E1EA" points="235.649,163.915 235.65,163.909 235.649,163.907 				"/>
			</g>
			<g>
				<path fill="#EDF5F8" d="M763.89,162.917c-2.862,0-5.403,1.453-7.033,3.453h14.066
					C769.291,164.37,766.752,162.917,763.89,162.917z"/>
				<path fill="#EDF5F8" d="M729.39,158.973c-3.004,0-5.29,3.577-8.004,2.941c-5.933-1.389-8.37-9.027-14.879-9.027
					c-5.024,0-7.934,6.236-12.571,5.813c-7.344-0.67-10.652-10.576-18.562-10.576c-7.312,0-10.901,8.48-17.655,9.23
					c-3.979,0.441-6.891-4.336-11.212-4.336c-8.153,0-8.87,3.24-16.379,5.58c-2.154,0.672-3.804,4.873-6.238,4.873
					c-2.862,0-5.403,0.898-7.033,2.898h124.775C739.54,162.37,734.85,158.973,729.39,158.973z"/>
			</g>
			<g>
				<path fill="#EDF5F8" d="M250.889,118.917c-2.863,0-5.403,1.453-7.033,3.453h14.066
					C256.292,120.37,253.751,118.917,250.889,118.917z"/>
				<path fill="#EDF5F8" d="M390.889,119.471c-2.436,0-0.305-4.019-6.239-4.873c-10.135-1.457-8.225-5.58-16.378-5.58
					c-4.323,0-7.232,4.777-11.212,4.336c-6.753-0.75-10.345-9.23-17.656-9.23c-7.908,0-11.218,9.906-18.561,10.576
					c-4.637,0.424-7.546-5.813-12.57-5.813c-6.509,0-8.948,7.639-14.879,9.027c-2.715,0.636-5-2.941-8.004-2.941
					c-5.461,0-10.151,3.396-12.242,7.396h124.775C396.292,120.37,393.751,119.471,390.889,119.471z"/>
			</g>
			<g>
				<g id="XMLID_76_">
					<g>
						<g>
							<polygon fill-rule="evenodd" clip-rule="evenodd" fill="#AFC4D5" points="667.65,290.131 668.49,296.365 672.092,295.881 
								670.812,286.361 							"/>
						</g>
						<g>
							<polygon fill-rule="evenodd" clip-rule="evenodd" fill="#AFC4D5" points="685.886,284.334 687.165,293.854 690.77,293.369 
								689.932,287.135 							"/>
						</g>
						<g>
							<polygon fill-rule="evenodd" clip-rule="evenodd" fill="#EDF5F8" points="670.812,286.361 667.65,290.131 689.932,287.135 
								685.886,284.334 							"/>
						</g>
						<g>
							<polygon fill-rule="evenodd" clip-rule="evenodd" fill="#EDF5F8" points="660.805,295.965 664.94,355.85 709.907,349.801 
								698.074,290.953 							"/>
						</g>
					</g>
					<g>
						<g>
							<polygon fill-rule="evenodd" clip-rule="evenodd" fill="#AFC4D5" points="689.77,301.6 691.006,310.795 694.938,310.266 
								693.049,296.225 							"/>
						</g>
						<g>
							<polygon fill-rule="evenodd" clip-rule="evenodd" fill="#AFC4D5" points="709.494,294.012 711.383,308.055 715.315,307.525 
								714.078,298.33 							"/>
						</g>
						<g>
							<polygon fill-rule="evenodd" clip-rule="evenodd" fill="#FEBB00" points="693.049,296.225 689.77,301.6 714.078,298.33 
								709.494,294.012 							"/>
						</g>
						<g>
							<polygon fill-rule="evenodd" clip-rule="evenodd" fill="#FEBB00" points="682.549,309.818 684.116,353.27 733.18,346.672 
								723.212,304.35 							"/>
						</g>
					</g>
					<g>
						<g>
							<polygon fill="#EDF5F8" points="718.157,312.672 717.721,312.4 717.373,312.779 716.937,312.506 716.587,312.885 
								716.15,312.611 715.802,312.99 715.365,312.717 715.017,313.096 714.581,312.822 714.231,313.201 713.795,312.928 
								713.446,313.307 713.012,313.033 712.664,313.412 712.228,313.139 711.878,313.518 711.443,313.244 711.095,313.623 
								710.657,313.35 710.309,313.729 709.873,313.455 709.524,313.834 709.087,313.561 708.74,313.939 708.303,313.666 
								707.953,314.045 707.519,313.773 707.169,314.15 706.732,313.879 706.384,314.256 705.948,313.984 705.599,314.361 
								705.162,314.09 704.813,314.467 704.378,314.195 704.028,314.572 703.591,314.301 703.242,314.678 702.807,314.406 
								702.457,314.783 702.02,314.512 701.671,314.891 701.235,314.617 700.886,314.996 700.449,314.723 700.1,315.102 
								699.664,314.828 699.314,315.207 698.878,314.936 698.528,315.313 698.091,315.041 697.742,315.418 697.307,315.146 
								696.957,315.523 696.52,315.252 696.171,315.629 695.735,315.357 695.386,315.734 694.948,315.463 694.599,315.842 
								694.162,315.568 693.813,315.947 693.375,315.674 693.026,316.053 692.587,315.781 692.238,316.158 692.243,316.207 
								696.995,351.537 722.916,348.053 718.164,312.723 							"/>
						</g>
						<g>
							<polygon fill="#D3E1EA" points="722.916,348.053 733.179,346.672 727.638,344.324 							"/>
						</g>
						<g>
							<polygon fill="#AFC4D5" points="728.43,311.357 728.428,311.342 728.411,311.344 727.985,311.02 727.66,311.445 
								727.625,311.449 727.199,311.125 726.874,311.551 726.841,311.555 726.415,311.232 726.091,311.656 726.055,311.66 
								725.629,311.338 725.304,311.762 725.27,311.766 724.845,311.443 724.52,311.867 724.504,311.887 724.485,311.871 
								724.059,311.549 723.735,311.973 723.72,311.992 723.7,311.977 723.275,311.654 723.249,311.688 723.296,312.031 
								727.638,344.324 733.179,346.672 728.43,311.357 							"/>
						</g>
						<g>
							<polygon fill="#D3E1EA" points="723.249,311.688 723.249,311.682 722.927,312.031 722.491,311.76 722.144,312.137 
								721.707,311.865 721.357,312.242 720.921,311.971 720.573,312.348 720.137,312.076 719.787,312.453 719.353,312.182 
								719.003,312.559 718.566,312.287 718.164,312.723 722.916,348.053 727.638,344.324 723.296,312.031 							"/>
						</g>
					</g>
					<g id="XMLID_77_">
						<g>
							<polygon fill="#AFC4D5" points="642.907,374.795 642.907,378.424 667.092,374.475 722.864,378.424 722.864,374.795 
								667.092,370.846 							"/>
						</g>
						<g id="XMLID_85_">
							<circle fill="#FFFFFF" cx="722.97" cy="376.259" r="6.111"/>
						</g>
						<g id="XMLID_78_">
							<circle fill="#FFFFFF" cx="642.908" cy="376.259" r="6.111"/>
						</g>
						<g>
							<g>
								<path fill="#FFFFFF" d="M730.203,313.65l-20.63-2.26v-0.002l-0.005,0.002l-12.32-1.35l-0.068-0.219l-0.5,0.156
									l-23.789-2.607l-0.009-0.025l-0.063,0.02l-24.888-2.729c-2.187-6.346-3.612-10.473-3.612-10.473l-3.787,1.285l24.638,72.613
									c-1.332,0.586-2.255,1.922-2.241,3.467c0.021,2.072,1.716,3.734,3.787,3.715c0.986-0.01,1.872-0.406,2.536-1.035
									c0.73-0.691,1.178-1.666,1.178-2.75c0-0.43-1.586-5.344-3.977-12.502c4.753-0.605,66.021-8.432,66.029-8.523
									c1.388-0.768,2.32-2.229,2.341-3.896l0.342-27.25C735.2,316.414,733.058,313.979,730.203,313.65z M719.102,315.428
									l4.617,14.814l-8.387,0.08l-4.791-15.746C713.679,314.887,716.569,315.176,719.102,315.428z M707.092,314.232l4.904,16.121
									l-8.393,0.08l-5.32-17.074C701.316,313.66,704.277,313.953,707.092,314.232z M694.824,313.018l5.438,17.447l-8.385,0.08
									l-5.732-18.387C689.037,312.443,691.948,312.732,694.824,313.018z M682.688,311.816l5.847,18.762l-8.386,0.08l-6.14-19.699
									C676.808,311.236,679.721,311.523,682.688,311.816z M670.55,310.617l6.255,20.072l-8.385,0.08l-6.547-21.008
									C664.499,310.021,667.428,310.311,670.55,310.617z M649.269,308.52c0.535,0.053,3.973,0.391,9.146,0.9l6.664,21.381
									l-8.142,0.078C654.193,322.85,651.475,314.936,649.269,308.52z M665.419,355.867c-2.144-6.385-4.759-14.086-7.411-21.854
									l8.047-0.076l6.536,20.971C669.289,355.35,666.769,355.686,665.419,355.867z M675.809,354.479l-6.41-20.572l8.384-0.08
									l6.102,19.572C680.982,353.785,678.257,354.15,675.809,354.479z M687.103,352.969l-5.978-19.176l8.387-0.08l5.664,18.176
									C692.434,352.256,689.719,352.619,687.103,352.969z M698.395,351.459l-5.54-17.777l8.384-0.08l5.23,16.777
									C703.825,350.732,701.111,351.096,698.395,351.459z M709.687,349.949l-5.104-16.379l8.368-0.08l4.684,15.396
									C715.166,349.217,712.487,349.574,709.687,349.949z M720.849,348.455l-4.563-14.996l8.409-0.082l4.357,13.98
									C727.108,347.619,724.27,347.998,720.849,348.455z M731.92,345.359c-0.001,0.113-0.014,0.223-0.034,0.332l-3.849-12.346
									l4.016-0.037L731.92,345.359z M732.087,330.162l-5.026,0.047l-4.499-14.434c4.221,0.424,6.821,0.689,6.879,0.707
									c2.313,0.73,2.755,4.115,2.725,6.623L732.087,330.162z"/>
							</g>
						</g>
						<g>
							<g>
								<path fill="#FEBB00" d="M643.055,292.096c-0.01,0-0.019,0-0.029,0l-16.853,0.162c-0.8,0.006-1.553,0.328-2.116,0.904
									c-0.566,0.576-0.873,1.332-0.865,2.133s0.328,1.551,0.904,2.117c0.575,0.564,1.354,0.859,2.133,0.863l16.854-0.16
									c1.659-0.016,2.997-1.379,2.982-3.039C646.049,293.426,644.7,292.096,643.055,292.096z"/>
							</g>
						</g>
					</g>
				</g>
				<g id="XMLID_2204_">
					<g id="XMLID_2205_">
						<g id="XMLID_2215_">
							<g id="XMLID_2216_">
								<g id="XMLID_75_">
									<circle fill="#FFFFFF" cx="629.462" cy="333.279" r="13.447"/>
								</g>
							</g>
						</g>
					</g>
				</g>
				<g id="XMLID_2202_">
					<g>
						<g>
							<path fill="#D3E1EA" d="M635.419,327.732c-0.221-0.172-0.499-0.25-0.774-0.213c-0.279,0.033-0.528,0.174-0.7,0.396
								l-5.609,7.188c-0.199,0.254-0.507,0.393-0.832,0.385c-0.323-0.014-0.618-0.184-0.796-0.453l-1.659-2.549
								c-0.171-0.26-0.437-0.426-0.746-0.465c-0.045-0.006-0.09-0.008-0.134-0.008c-0.261,0-0.507,0.096-0.702,0.277
								c-0.411,0.377-0.479,0.943-0.193,1.373l3.264,4.912l0.838,0.471c0.359,0,0.668-0.152,0.866-0.404l7.361-9.434
								C635.958,328.752,635.877,328.09,635.419,327.732L635.419,327.732z"/>
						</g>
					</g>
				</g>
				<g id="XMLID_2156_">
					<circle fill="#EDF5F8" cx="755.349" cy="333.424" r="13.447"/>
				</g>
				<g>
					<g>
						<path fill="#FFFFFF" d="M755.87,325.275c-0.279-0.021-0.552,0.063-0.766,0.244c-0.442,0.377-0.497,1.041-0.122,1.484
							l3.158,3.721c0.251,0.299,0.309,0.715,0.145,1.068s-0.519,0.58-0.907,0.58h-7.971c-0.579,0-1.051,0.471-1.051,1.051
							s0.472,1.051,1.051,1.051h7.463c0.375,0,0.718,0.209,0.889,0.543c0.173,0.332,0.144,0.734-0.075,1.039l-2.755,3.857
							c-0.337,0.473-0.227,1.131,0.245,1.467c0.458,0.324,1.143,0.207,1.467-0.244l5.506-7.709c0.281-0.393,0.258-0.924-0.053-1.293
							L755.87,325.275z"/>
					</g>
				</g>
			</g>
			<g>
				<g>
					<path fill="#EDF5F8" d="M257.569,219.658c-1.82,1.82-2.73,4.205-2.73,6.59l0,57.799c0,2.387,0.912,4.773,2.73,6.594
						c1.821,1.818,4.205,2.73,6.592,2.73h93.209v-76.445h-93.208C261.774,216.926,259.39,217.836,257.569,219.658z"/>
				</g>
				<path fill="#D3E1EA" d="M349.707,224.545c-0.826,0.824-1.284,1.928-1.286,3.102v7.5v7.5c0.001,1.174,0.458,2.277,1.286,3.105
					c0.834,0.828,1.937,1.285,3.104,1.285h4.558v-2.928h-4.558c-0.39,0-0.759-0.152-1.038-0.43
					c-0.273-0.273-0.425-0.643-0.426-1.035v-6.033h6.022v-2.928h-6.022v-6.033c0-0.393,0.153-0.76,0.429-1.035
					c0.278-0.279,0.645-0.43,1.035-0.43h4.558v-2.926l-4.558-0.002C351.638,223.258,350.535,223.715,349.707,224.545z"/>
				<g>
					<rect x="254.838" y="257.703" fill="#272063" width="102.531" height="16.469"/>
				</g>
				<g>
					<g>
						<rect x="261.968" y="240.359" fill="#FFFFFF" width="78.529" height="5.213"/>
					</g>
				</g>
				<g>
					<g>
						<rect x="261.968" y="232.54" fill="#FFFFFF" width="25.851" height="5.215"/>
					</g>
				</g>
				<g>
					<g>
						<rect x="291.448" y="232.541" fill="#FFFFFF" width="10.759" height="5.213"/>
					</g>
				</g>
				<g>
					<g>
						<rect x="298.276" y="224.723" fill="#FFFFFF" width="10.76" height="5.213"/>
					</g>
				</g>
				<g>
					<g>
						<rect x="329.736" y="232.54" fill="#FFFFFF" width="10.759" height="5.215"/>
					</g>
				</g>
				<g>
					<g>
						<rect x="261.968" y="279.851" fill="#FFFFFF" width="10.759" height="5.215"/>
					</g>
				</g>
				<g>
					<g>
						<rect x="315.605" y="279.854" fill="#FFFFFF" width="5.38" height="5.211"/>
					</g>
				</g>
				<g>
					<g>
						<rect x="323.517" y="279.852" fill="#FFFFFF" width="33.853" height="5.213"/>
					</g>
				</g>
				<g>
					<g>
						<rect x="277.06" y="279.854" fill="#FFFFFF" width="33.683" height="5.211"/>
					</g>
				</g>
				<g>
					<g>
						<rect x="317.298" y="224.721" fill="#FFFFFF" width="23.198" height="5.215"/>
					</g>
				</g>
				<g>
					<g>
						<rect x="261.969" y="224.721" fill="#FFFFFF" width="23.196" height="5.215"/>
					</g>
				</g>
			</g>
			<g>
				<path opacity="0.55" fill="#802B52" d="M232.297,243.781c-1.002-3.104-10.387,0.924-7.05,5.072
					c4.529,5.646,17.711,15.982,18.839,16.598c1.248,0.684,3.922,0.713,6.717,0.502c0.018-2.053,0.089-3.988,0.184-5.801
					C243.7,255.975,234.154,249.574,232.297,243.781z"/>
				<path fill="#FCD2C5" d="M278.399,258.982c-0.645,0.465-1.384,0.887-2.134,1.131c0.887-0.154,0.898,0.402,1.848,0.375
					c0.359-0.119,1.457-1.381,1.227-1.686C279.025,258.301,278.736,258.703,278.399,258.982z"/>
				<path fill="#FCD2C5" d="M284.37,260.35c-0.369-0.166-1.667-0.17-2.176-0.238c-0.177-0.014-2.692-0.201-3.814-0.16
					c-0.949,0.027-1.904,0.111-2.79,0.264c-0.049,0.014-0.613,3.039-0.52,4.014c1.586-0.023,6.51-0.5,6.628-0.488
					c1.966,0.195,2.482-0.398,2.148-0.85c-0.082-0.109,1.262-0.42,1.039-0.922c0,0,0.403-0.236,0.311-0.648
					C285.125,261.01,284.605,260.455,284.37,260.35z"/>
				<path fill="#802B52" d="M258.854,256.385c-2.864-0.609-5.578-1.188-7.608-1.547c-0.344-0.408-0.723-0.809-1.149-1.217
					c-2.471-2.361-5.733-6.391-8.89-10.287c-3.139-3.875-6.104-7.535-7.885-9.006c-0.277-0.229-0.651-0.309-1.024-0.219
					c-1.635,0.393-7.191,6.994-7.77,8.588c-1.724,4.764,16.545,16.873,21.778,19.422c5.008,2.525,22.151,3.441,29.445,3.078
					l0.058-6.027C272.891,259.375,265.108,257.717,258.854,256.385z"/>
			</g>
			<g>
				<path fill-rule="evenodd" clip-rule="evenodd" fill="#AFC4D5" d="M471.224,140.881h-88.451c-12.344,0-22.444,10.1-22.444,22.443
					v196.599c0,12.344,10.101,22.445,22.446,22.445h88.452c12.346,0,22.445-10.102,22.445-22.445V163.329
					C493.672,150.983,483.57,140.881,471.224,140.881z"/>
				<path fill-rule="evenodd" clip-rule="evenodd" fill="#EDF5F8" d="M471.224,145.804h-88.69c-9.637,0-17.521,7.884-17.521,17.521
					v196.716c0,9.77,7.993,17.762,17.763,17.762h88.452c9.781,0,17.785-8.002,17.785-17.785V163.592
					C489.012,153.809,481.007,145.804,471.224,145.804z"/>
				<rect x="365.012" y="182.836" fill="#D3E1EA" width="124" height="13.801"/>
				<rect x="376" y="203.37" fill="#FFFFFF" width="102" height="152"/>
				<rect x="401.193" y="209.001" fill="#EDF5F8" width="72.435" height="39.417"/>
				<g>
					<rect x="404.36" y="255.213" fill="#EDF5F8" width="15.03" height="3.744"/>
					<rect x="426.869" y="255.213" fill="#EDF5F8" width="32.906" height="3.744"/>
					<rect x="463.623" y="255.213" fill="#EDF5F8" width="6.838" height="3.744"/>
					<rect x="447.811" y="261.141" fill="#EDF5F8" width="22.65" height="3.746"/>
					<rect x="404.36" y="261.141" fill="#EDF5F8" width="5.414" height="3.746"/>
					<rect x="412.551" y="261.141" fill="#EDF5F8" width="29.916" height="3.746"/>
					<rect x="404.36" y="267.07" fill="#EDF5F8" width="18.022" height="3.746"/>
					<rect x="426.015" y="267.07" fill="#EDF5F8" width="44.446" height="3.746"/>
				</g>
				<rect x="380.322" y="209.249" fill="#EDF5F8" width="15.938" height="3.027"/>
				<rect x="380.322" y="217.744" fill="#EDF5F8" width="15.938" height="3.025"/>
				<rect x="380.322" y="226.238" fill="#EDF5F8" width="15.938" height="3.025"/>
				<rect x="380.322" y="234.732" fill="#EDF5F8" width="15.938" height="3.027"/>
				<rect x="380.322" y="243.229" fill="#EDF5F8" width="15.938" height="3.025"/>
				<rect x="380.322" y="251.723" fill="#EDF5F8" width="15.938" height="3.025"/>
				<rect x="380.322" y="260.217" fill="#EDF5F8" width="15.938" height="3.027"/>
				<rect x="380.322" y="268.711" fill="#EDF5F8" width="15.938" height="3.027"/>
				<rect x="380.322" y="277.207" fill="#EDF5F8" width="15.938" height="3.025"/>
				<circle fill="#FFFFFF" cx="482.135" cy="192.459" r="1.474"/>
				<circle fill="#FFFFFF" cx="476.24" cy="192.459" r="1.474"/>
				<g>
					<path fill="#272063" d="M442.54,218.369h-10.339c-5.346,0-9.174,4.939-9.198,10.283c0.024,5.34,3.853,9.717,9.198,9.717h10.339
						c5.363,0,9.751-4.637,9.751-10S447.903,218.369,442.54,218.369z"/>
					<path fill="#272063" d="M423,228.703c0-0.016,0.003-0.033,0.003-0.051S423,228.619,423,228.602V228.703z"/>
				</g>
				<rect x="380.322" y="288.125" fill="#EDF5F8" width="93.306" height="50.775"/>
				<g>
					<path fill="#272063" d="M433.693,300.369h-13.053c-6.75,0-12.599,6.27-12.637,13.016c0.038,6.746,5.887,12.984,12.637,12.984
						h13.053c6.77,0,12.31-6.23,12.31-13C446.003,306.598,440.463,300.369,433.693,300.369z"/>
					<path fill="#272063" d="M408,313.449c0-0.021,0.003-0.043,0.003-0.064S408,313.342,408,313.32V313.449z"/>
				</g>
				<g id="XMLID_88_">
					<g id="XMLID_125_">
						<path fill="#FFDD00" d="M365.128,162.898v17.587h20.629v-34.681h-3.536C372.781,145.804,365.128,153.458,365.128,162.898z"/>
					</g>
					<g id="XMLID_124_">
						<rect x="385.757" y="145.804" fill="#FF8382" width="20.63" height="34.681"/>
					</g>
					<g id="XMLID_123_">
						<rect x="406.388" y="145.804" fill="#FFDD00" width="20.631" height="34.681"/>
					</g>
					<g id="XMLID_122_">
						<rect x="427.019" y="145.804" fill="#FF8382" width="20.63" height="34.681"/>
					</g>
					<g id="XMLID_121_">
						<rect x="447.648" y="145.804" fill="#FFDD00" width="20.63" height="34.681"/>
					</g>
					<g id="XMLID_120_">
						<path fill="#FF8382" d="M471.814,145.804h-3.536v34.681h20.629v-17.587C488.907,153.458,481.254,145.804,471.814,145.804z"/>
					</g>
					<g id="XMLID_116_">
						<path fill="#FF4745" d="M468.282,180.485c0,0.024-0.008,0.047-0.008,0.072c0,5.697,4.62,10.316,10.316,10.316
							c5.698,0,10.315-4.619,10.313-10.316c0-0.025-0.006-0.048-0.006-0.072H468.282z"/>
					</g>
					<g id="XMLID_114_">
						<path fill="#FEBB00" d="M447.652,180.485c0,0.024-0.008,0.047-0.008,0.072c0,5.697,4.619,10.316,10.316,10.316
							c5.696,0,10.314-4.619,10.313-10.316c0-0.025-0.008-0.048-0.008-0.072H447.652z"/>
					</g>
					<g id="XMLID_92_">
						<path fill="#FF4745" d="M427.007,180.485c0,0.024-0.008,0.047-0.008,0.072c0,5.697,4.621,10.316,10.316,10.316
							c5.698,0,10.315-4.619,10.313-10.316c0-0.025-0.006-0.048-0.006-0.072H427.007z"/>
					</g>
					<g id="XMLID_91_">
						<path fill="#FEBB00" d="M406.376,180.485c0,0.024-0.007,0.047-0.007,0.072c0.001,5.697,4.62,10.316,10.317,10.316
							c5.696,0,10.314-4.619,10.313-10.316c0-0.025-0.007-0.048-0.008-0.072H406.376z"/>
					</g>
					<g id="XMLID_90_">
						<path fill="#FF4745" d="M385.732,180.485c0,0.024-0.008,0.047-0.008,0.072c0.001,5.697,4.62,10.316,10.317,10.316
							c5.697,0,10.314-4.619,10.314-10.316c0-0.025-0.007-0.048-0.008-0.072H385.732z"/>
					</g>
					<g id="XMLID_89_">
						<path fill="#FEBB00" d="M365.101,180.485c0,0.024-0.007,0.047-0.007,0.072c0,5.697,4.62,10.316,10.317,10.316
							c5.697,0,10.314-4.619,10.313-10.316c0-0.025-0.007-0.048-0.007-0.072H365.101z"/>
					</g>
				</g>
				<path fill-rule="evenodd" clip-rule="evenodd" fill="#AFC4D5" d="M393.986,149.542c0,6.496,5.267,11.763,11.763,11.763h42.525
					c6.496,0,11.763-5.267,11.763-11.763v-4.737h-66.051V149.542z"/>
				<path fill-rule="evenodd" clip-rule="evenodd" fill="#272063" d="M439.595,152.514h-25.167c-0.892,0-1.615,0.723-1.615,1.614
					v0.032c0,0.893,0.723,1.615,1.615,1.615h25.167c0.893,0,1.616-0.723,1.616-1.615v-0.032
					C441.211,153.237,440.487,152.514,439.595,152.514z"/>
				<circle fill-rule="evenodd" clip-rule="evenodd" fill="#272063" cx="427.014" cy="147.79" r="1.892"/>
				<g>
					<g>
						<g>
							<g>
								<g>
									<g>
										<path fill-rule="evenodd" clip-rule="evenodd" fill="#FF4746" d="M407.492,287.424c0.77-0.748,0.648-2.016-0.249-2.604
											l-0.082-0.055c-0.779-0.512-0.992-1.561-0.473-2.334l0.021-0.033c0.597-0.891,0.215-2.105-0.784-2.494l-0.091-0.035
											c-0.869-0.34-1.294-1.32-0.948-2.186l0.015-0.037c0.399-0.996-0.228-2.105-1.286-2.277l-0.097-0.016
											c-0.92-0.15-1.541-1.021-1.382-1.941l0.007-0.037c0.183-1.057-0.66-2.012-1.731-1.961l-0.098,0.006
											c-0.931,0.043-1.72-0.68-1.755-1.611l-0.001-0.039c-0.041-1.072-1.064-1.83-2.102-1.557l-0.095,0.023
											c-0.901,0.238-1.823-0.307-2.052-1.211l-0.009-0.037c-0.263-1.039-1.421-1.568-2.379-1.086l-0.087,0.043
											c-0.833,0.42-1.847,0.08-2.258-0.758l-0.017-0.033c-0.473-0.963-1.716-1.24-2.553-0.568l-0.076,0.061
											c-0.728,0.584-1.791,0.461-2.367-0.271l-0.024-0.029c-0.663-0.844-1.937-0.857-2.616-0.025l-0.062,0.074
											c-0.59,0.723-1.655,0.824-2.372,0.227l-0.03-0.025c-0.824-0.686-2.072-0.434-2.563,0.52l-0.045,0.088
											c-0.427,0.828-1.448,1.148-2.272,0.715l-0.034-0.02c-0.949-0.5-2.117,0.008-2.4,1.041l-0.026,0.096
											c-0.246,0.898-1.177,1.426-2.074,1.17l-0.038-0.01c-1.032-0.293-2.069,0.445-2.13,1.518l-0.006,0.098
											c-0.053,0.93-0.855,1.639-1.785,1.576l-0.039-0.002c-1.07-0.072-1.932,0.865-1.769,1.926l0.015,0.098
											c0.142,0.92-0.496,1.781-1.418,1.914l-0.038,0.004c-1.062,0.152-1.709,1.25-1.33,2.254l0.035,0.092
											c0.33,0.871-0.115,1.844-0.989,2.166l-0.037,0.014c-1.007,0.369-1.412,1.578-0.832,2.48l0.053,0.082
											c0.504,0.783,0.271,1.828-0.518,2.324l-0.033,0.021c-0.908,0.57-1.053,1.836-0.299,2.598l0.07,0.07
											c0.656,0.662,0.646,1.732-0.023,2.383l-0.028,0.027c-0.769,0.746-0.648,2.014,0.249,2.604l0.082,0.053
											c0.779,0.512,0.992,1.561,0.473,2.334l-0.021,0.033c-0.597,0.891-0.215,2.105,0.784,2.496l0.092,0.035
											c0.869,0.338,1.294,1.32,0.948,2.186l-0.015,0.035c-0.399,0.996,0.228,2.105,1.286,2.277l0.097,0.016
											c0.92,0.15,1.54,1.023,1.381,1.941l-0.006,0.037c-0.183,1.057,0.66,2.012,1.731,1.961l0.098-0.004
											c0.931-0.045,1.719,0.68,1.754,1.609l0.001,0.039c0.041,1.072,1.064,1.83,2.102,1.559l0.094-0.025
											c0.901-0.236,1.823,0.307,2.052,1.211l0.009,0.037c0.263,1.041,1.421,1.57,2.379,1.088l0.087-0.045
											c0.832-0.42,1.847-0.078,2.258,0.758l0.017,0.035c0.473,0.963,1.716,1.238,2.553,0.568l0.077-0.063
											c0.727-0.582,1.79-0.461,2.366,0.271l0.024,0.031c0.663,0.844,1.937,0.855,2.616,0.025l0.062-0.076
											c0.59-0.721,1.656-0.824,2.372-0.227l0.03,0.025c0.824,0.686,2.072,0.434,2.563-0.52l0.045-0.088
											c0.427-0.828,1.448-1.148,2.272-0.713l0.034,0.018c0.949,0.5,2.118-0.006,2.4-1.041l0.026-0.094
											c0.245-0.9,1.177-1.426,2.074-1.172l0.038,0.01c1.032,0.293,2.07-0.445,2.131-1.516l0.005-0.098
											c0.053-0.932,0.855-1.639,1.785-1.578l0.039,0.004c1.07,0.07,1.931-0.867,1.769-1.928l-0.015-0.096
											c-0.141-0.922,0.496-1.781,1.418-1.914l0.039-0.006c1.062-0.152,1.709-1.25,1.329-2.252l-0.034-0.092
											c-0.331-0.871,0.114-1.846,0.989-2.166l0.037-0.014c1.007-0.371,1.412-1.578,0.832-2.48l-0.053-0.082
											c-0.504-0.785-0.271-1.83,0.518-2.326l0.033-0.021c0.908-0.57,1.053-1.836,0.298-2.598l-0.068-0.068
											c-0.656-0.662-0.646-1.732,0.022-2.383L407.492,287.424z"/>
									</g>
								</g>
							</g>
						</g>
					</g>
					<g id="XMLID_84_">
						<g id="XMLID_109_">
							<g id="XMLID_110_">
								<g>
									<path fill="#FFFFFF" d="M375.502,277.41c-3.708,0-6.079,2.939-6.079,6.813c0,4.074,2.605,6.545,5.912,6.545
										c3.14,0,6.011-2.371,6.011-6.912C381.346,280.146,379.243,277.41,375.502,277.41z M375.434,287.996
										c-1.468,0-2.236-1.637-2.236-3.908c0-2.17,0.702-3.906,2.204-3.906c1.569,0,2.17,1.703,2.17,3.906
										C377.572,286.527,376.872,287.996,375.434,287.996z"/>
									<path fill="#FFFFFF" d="M391.131,286.426c-3.708,0-6.079,2.939-6.079,6.813c0.034,4.074,2.639,6.547,5.911,6.547
										c3.14,0,6.011-2.371,6.011-6.912C396.975,289.164,394.872,286.426,391.131,286.426z M391.064,297.012
										c-1.469,0-2.238-1.635-2.204-3.906c0-2.172,0.667-3.906,2.204-3.906c1.569,0,2.137,1.701,2.137,3.906
										C393.202,295.543,392.5,297.012,391.064,297.012z"/>
									<polygon fill="#FFFFFF" points="375.602,299.852 378.307,299.852 390.797,277.41 388.059,277.41 									"/>
								</g>
							</g>
						</g>
					</g>
				</g>
			</g>
			<g>
				<path fill="#FCD2C5" d="M483.069,314.77c0.084,2.689,11.263,59.367,11.263,59.367c0.051,0.111,2.334,0.107,3.635-1.207
					c0,0-2.593-56.371-2.611-57.541C494.496,316.432,484.719,315.787,483.069,314.77z"/>
				<path fill="#272063" d="M492.256,287.367c-5.136,1.271-10.233,2.541-15.421,3.404l0.366,3.518
					c1.574,0.996,3.002,18.49,7.544,36.621c5.262,21.004,8.991,41.445,8.991,41.445c1.3-1.301,3.313-1.404,4.563-0.609
					c0,0-0.909-57.213-1.771-85.492C495.174,286.645,493.753,286.996,492.256,287.367z"/>
				<path fill="#FFBB00" d="M498.76,372.762c-0.61-0.588-0.84-0.889-0.84-0.889s-2.868-0.678-3.752,1.426
					c0,0,0.004,2.477,0.669,3.369c0.383,0.514,2.579,2.832,3.658,3.324c0.866,0.396,2.212,0.344,3.729,0.125
					c1.518-0.221,3.305-1.213,3.212-2.102C505.253,376.256,499.934,373.893,498.76,372.762z"/>
				<path fill="#FFBB00" d="M498.033,374.1c-1.484-1.037-4.038,0.75-2.309,3.145c0.316,0.438,2.172,2.385,3.082,2.801
					c0.729,0.332,1.861,0.287,3.139,0.104c1.278-0.186,2.782-1.021,2.704-1.77C504.495,376.898,499.564,375.166,498.033,374.1z"/>
				<g>
					<path fill="#FCD2C5" d="M409.606,256.373c-0.249,0.289,0.763,1.621,1.114,1.764c0.945,0.088,0.994-0.465,1.868-0.254
						c-0.733-0.293-1.443-0.762-2.055-1.27C410.215,256.313,409.953,255.895,409.606,256.373z"/>
					<path fill="#FCD2C5" d="M410.49,257.582c-1.118-0.115-3.64-0.092-3.817-0.09c-0.513,0.035-1.808-0.047-2.187,0.096
						c-0.242,0.09-0.797,0.609-0.887,0.914c-0.119,0.406,0.268,0.668,0.268,0.668c-0.255,0.486,1.065,0.883,0.977,0.986
						c-0.363,0.43,0.113,1.057,2.088,0.99c0.119-0.004,5,0.795,6.582,0.92c0.157-0.967-0.208-4.021-0.256-4.039
						C412.382,257.818,411.435,257.672,410.49,257.582z"/>
					<path fill="#FCD2C5" d="M441.272,255.207c-0.325-0.102-0.637-0.146-0.898-0.143c-4.78,0.107-22.405,3.578-27.404,2.898
						c0.124,1.637,0.116,3.008-0.087,4.033c8.245,0.955,29.04,1.018,30.333-2.037C444.402,257.162,442.706,255.652,441.272,255.207z
						"/>
					<path fill="#FCD2C5" d="M457.712,235.775c-3.588,2.586-12.612,13.643-17.943,18.109c-6.541,5.479-0.384,8.084,2.132,7.066
						c6.627-2.686,23.529-13.203,22.494-16.781C463.944,242.619,458.362,235.309,457.712,235.775z"/>
					<path fill="#FEBB00" d="M457.842,232.646c-3.697,4.691-5.785,7.127-9.172,10.789c-3.404,3.682-6.925,7.488-9.545,9.682
						c-0.451,0.379-0.855,0.756-1.226,1.141c-2.05,0.225-4.796,0.623-7.692,1.045c-6.329,0.918-14.203,2.063-17.102,1.668
						l-0.337,6.018c7.253,0.842,24.421,1.051,29.584-1.143c5.388-2.201,18.08-9.158,22.871-11.902
						C466.697,249.1,458.065,232.365,457.842,232.646z"/>
				</g>
				<path fill="#FCD2C5" d="M463.008,317.26c0.104,1.166,3.359,57.502,3.359,57.502c1.432,1.174,3.702,0.941,3.74,0.824
					c0,0,5.251-57.529,5.058-60.213C473.629,316.555,463.97,318.209,463.008,317.26z"/>
				<path fill="#272063" d="M457.97,273.072c-0.558,4,7.946,100.547,7.946,100.547c1.162-0.918,3.172-1.025,4.601,0.133
					c0,0,1.592-20.717,4.652-42.152c2.64-18.502,2.247-36.051,3.712-37.205v-19.611C471.367,275.277,460.462,274.164,457.97,273.072
					z"/>
				<path fill="#EDF5F8" d="M484.745,277.469c-7.488,0.938-14.992,0.982-22.521,1.137c-1.737,0.035-3.441,0.066-5.107,0.006
					c0.191,6.279-0.321,10.123,0.456,15.621c14.802,2.461,30.975,3.457,37.239,1.424c1.128-0.365,4.129-1.674,4.275-2.051
					c0.17-5.783-0.462-12.68-1.459-19.598C493.694,275.752,489.378,276.889,484.745,277.469z"/>
				<path fill="#FCD2C5" d="M477.125,215.186c-0.522,0.385-5.945,3.387-7.492,3.15c0.012,0.43,1.246,4.006,0.242,6.443
					c0.429,2.27,6.849,4.174,8.587,0.334C477.74,224.018,476.818,217.275,477.125,215.186z"/>
				<path fill="#FCD2C5" d="M471.445,207.655c-2.847-0.197-5.604,0.461-6.238,3.15c-0.227,0.962,0.179,9.66,4.817,10.982
					c1.962,0.559,5.733-2.793,5.892-5.078c0,0,0.217-3.115,0.22-3.146C476.345,210.533,474.506,207.868,471.445,207.655z"/>
				<path fill="#FEBB00" d="M478.237,224.611c0,0-1.616,1.686-4.28,1.516c-2.966-0.189-4.082-1.348-4.082-1.348
					s-5.533,1.979-7.067,2.59c-4.605,1.836-5.639,5.715-5.242,9.9c0.096,1.016-3.418,33.986-0.386,55.443
					c0.719-0.051,2.582-0.08,3.494-0.1l0.68-13.924l2.958,13.902c9.496,0.053,23.825,0.717,30.22-0.863l0.268-12.615l1.967,11.783
					c0.482-0.287,1.895-0.84,2.042-1.219c0.575-19.736-4.143-48.43-4.747-50.846C490.5,224.611,478.237,224.611,478.237,224.611z"/>
				<path fill="#FFBB00" d="M466.308,373.707c0,0-0.198,0.322-0.743,0.969c-1.053,1.248-6.098,4.15-6.098,5.92
					c0,0.893,1.879,1.695,3.411,1.756c1.533,0.061,2.876-0.025,3.696-0.508c1.021-0.604,2.967-3.137,3.295-3.688
					c0.57-0.957,0.317-3.42,0.317-3.42C469.088,372.736,466.308,373.707,466.308,373.707z"/>
				<path fill="#FFBB00" d="M466.424,375.932c-1.412,1.221-6.138,3.453-6.138,4.943c0,0.752,1.583,1.428,2.872,1.479
					c1.291,0.053,2.423-0.02,3.112-0.428c0.861-0.508,2.507-2.637,2.774-3.105C470.517,376.26,467.794,374.748,466.424,375.932z"/>
				<path fill="#FF4745" d="M477.427,204.235c-4.442-3.511-11.969-0.156-13.956,4.404c-1.481,3.402-2.843,1.03-2.698,0.128
					c-0.453,2.263,0.496,4.227,4.873,3.915c0.92-0.064-2.037,0.836-2.037,0.836s4.638,9.709,11.866,7.363
					c2.148-0.697,4.024-2.787,4.024-2.787s-2.342,0.379-1.101-1.523C480.805,212.879,481.349,207.333,477.427,204.235z"/>
			</g>
			<g>
				<g>
					<path fill="#FCD2C5" d="M623.224,287.516c-0.794,0.006-1.641-0.078-2.396-0.311c0.813,0.387,0.501,0.848,1.292,1.373
						c0.362,0.111,1.987-0.285,1.976-0.666C624.129,287.322,623.661,287.482,623.224,287.516z"/>
					<path fill="#FCD2C5" d="M625.668,290.631c-0.136-0.113-2.08-1.721-3.02-2.336c-0.791-0.527-1.619-1.01-2.429-1.396
						c-0.049-0.02-2.258,2.123-2.745,2.973c1.308,0.898,5.601,3.355,5.691,3.434c1.491,1.295,2.254,1.109,2.244,0.549
						c-0.003-0.139,1.272,0.387,1.38-0.152c0,0,0.466,0.041,0.629-0.35c0.122-0.293,0.018-1.047-0.112-1.27
						C627.102,291.732,626.045,290.98,625.668,290.631z"/>
					<path fill="#FCD2C5" d="M599.729,241.604c-0.21-0.775-9.151,1.385-10.479,2.305c-3.059,2.125,3.438,20.943,6.889,27.205
						c1.312,2.377,7.735,4.234,6.11-4.143C600.923,260.143,600.885,245.871,599.729,241.604z"/>
					<path fill="#FCD2C5" d="M601.032,267.506c-0.2-0.17-0.471-0.33-0.786-0.455c-1.394-0.559-3.664-0.455-4.506,2.463
						c-0.92,3.188,15.266,16.244,22.268,20.699c0.488-0.924,1.348-1.992,2.475-3.188
						C616.173,284.404,604.677,270.602,601.032,267.506z"/>
					<path fill="#01D06A" d="M608.011,273.615c-1.903-2.125-3.707-4.141-5.097-5.588c-0.036-0.52-0.104-1.053-0.204-1.619
						c-0.587-3.277-0.84-8.322-1.083-13.203c-0.242-4.854-0.473-9.438-1.028-11.619c-0.087-0.338-0.334-0.615-0.68-0.76
						c-1.512-0.631-9.679,1.369-11.05,2.291c-4.095,2.758,3.321,22.785,5.973,27.799c2.489,4.865,15.451,15.439,21.398,19.346
						l3.51-4.709C617.337,284.035,612.166,278.258,608.011,273.615z"/>
				</g>
				<path fill="#FEBB00" d="M523.532,359.193c0,0-1.198,0.018-1.854,0.916c-0.379,0.518-0.111,2.516-0.267,3.693
					c-0.125,0.943,0.321,2.213,0.976,3.6s2.127,2.803,2.949,2.455c1.629-0.691,0.488-5.688,1.226-7.143
					c0.383-0.756,1.044-1.764,1.044-1.764l-2.814-2.193C524.791,358.758,524.377,358.658,523.532,359.193z"/>
				<path fill="#FCD2C5" d="M523.532,359.193c0,0,0.122,2.061,0.721,2.531c1.06,0.832,2.309,0.99,2.309,0.99
					c0.608-1.119,1.254-1.742,1.254-1.742l-2.85-2.639C524.966,358.334,524.375,358.658,523.532,359.193z"/>
				<path fill="#FF4746" d="M552.64,327.578c-2.97,7.443-28.8,31.426-28.8,31.426c0.709,2.156,3.272,2.813,3.379,2.678
					c0,0,31.942-17.494,37.842-28.609c12.325-23.227,24.538-47.467,25.122-49.496c-2.721-0.016-13.137-3.436-19.8-6.941
					C570.383,276.635,559.565,310.217,552.64,327.578z"/>
				<path fill="#FCD2C5" d="M584.899,315.383c-0.195,2.682,5.057,62.213,5.057,62.213c0.039,0.115,2.309,0.348,3.739-0.824
					c0,0,3.258-58.338,3.359-59.502C596.094,318.217,586.434,316.564,584.899,315.383z"/>
				<path fill="#FEBB00" d="M594.499,376.686c-0.546-0.646-1.213-1.648-1.213-1.648l-3.12,1.732c0,0-0.254,0.344-0.092,1.33
					c0,0-0.45,1.109,0.12,2.064c0.328,0.551,2.393,1.393,3.296,1.688c0.904,0.297,2.163,0.57,3.695,0.508
					c1.531-0.061,3.41-0.863,3.41-1.756C600.596,378.834,595.553,377.932,594.499,376.686z"/>
				<path fill="#FCD2C5" d="M589.844,376.443c0,0,0.067,0.67,0.23,1.656c0,0,1.945,0.691,2.612,0.324
					c1.181-0.65,1.813-1.738,1.813-1.738c-0.792-0.996-1.112-1.836-1.112-1.836L589.844,376.443z"/>
				<path fill="#FF4746" d="M581.183,274.793v19.611c1.465,1.152,1.071,18.701,3.712,37.205c3.06,21.436,4.651,44.152,4.651,44.152
					c1.526,1.682,4.56,0.031,4.602-0.133c0,0,8.503-98.549,7.946-102.547C599.602,274.174,588.695,275.285,581.183,274.793z"/>
				<path fill="#802B52" d="M565.791,277.689c0,0-0.838,8.229-1.162,14.926c0,0,11.078,3.607,26.808,1.152l1.534-3.268l1.087,3.266
					c3.462-0.057,5.509-0.305,7.728-2.352c1.105-1.023,0.188-11.744,0.188-11.744L565.791,277.689z"/>
				<g>
					<g>
						<g>
							<polygon fill-rule="evenodd" clip-rule="evenodd" fill="#D3E1EA" points="591.499,289.656 594.635,295.938 597.012,294.752 
								594.958,290.637 							"/>
						</g>
						<g>
							<polygon fill-rule="evenodd" clip-rule="evenodd" fill="#D3E1EA" points="580.253,297.977 582.307,302.092 584.686,300.904 
								581.549,294.621 							"/>
						</g>
						<g>
							<polygon fill-rule="evenodd" clip-rule="evenodd" fill="#EDF5F8" points="581.549,294.621 580.253,297.977 594.958,290.637 
								591.499,289.656 							"/>
						</g>
						<g>
							<polygon fill-rule="evenodd" clip-rule="evenodd" fill="#EDF5F8" points="576.897,303.631 593.912,344.082 623.592,329.268 
								601.495,291.354 							"/>
						</g>
					</g>
					<g>
						<g>
							<polygon fill-rule="evenodd" clip-rule="evenodd" fill="#EDF5F8" points="593.039,302.273 595.845,302.875 597.252,296.313 
								595.189,292.252 							"/>
						</g>
						<g>
							<polygon fill-rule="evenodd" clip-rule="evenodd" fill="#EDF5F8" points="578.496,299.154 581.303,299.756 583.452,289.734 
								579.903,292.592 							"/>
						</g>
						<g>
							<polygon fill-rule="evenodd" clip-rule="evenodd" fill="#FFFFFF" points="583.452,289.734 579.903,292.592 597.252,296.313 
								595.189,292.252 							"/>
						</g>
						<g>
							<polygon fill-rule="evenodd" clip-rule="evenodd" fill="#FFFFFF" points="563.416,326.383 598.43,333.895 601.998,302.645 
								572.98,296.42 							"/>
						</g>
					</g>
				</g>
				<path fill="#FCD2C5" d="M589.611,226.086c-1.542,0.268-7.024-2.623-7.555-2.996c0.351,2.084-0.123,7.912-0.82,9.023
					c1.815,3.803,8.1,3.652,8.48,1.375C588.664,231.072,589.608,226.516,589.611,226.086z"/>
				<path fill="#01D06A" d="M600.664,244.74c0.455-3.135-0.444-6.963-4.381-9.135c-1.015-0.561-6.566-2.117-6.566-2.117
					s-1.264,1.678-2.799,1.6c-2.238-0.113-5.682-2.975-5.682-2.975s-4.74,1.414-6.337,1.834c-4.796,1.262-6.168,4.992-6.408,9.189
					c-0.088,1.57-7.941,32.439-3.018,37.398c3.721,3.746,32.354,3.902,36.713,1.711C605.382,280.641,599.075,255.67,600.664,244.74z
					"/>
				<path fill="#01B85E" d="M577.724,256.504c-0.012-6.098-1.251-11.904-0.474-17.672c-0.478,0.475-1.034,0.861-1.675,1.148
					c-9.86,2.729-9.719,23.668-7.797,29.809c1.337,4.275,6.328,9.801,11.967,14.512C576.374,276.592,577.74,264.975,577.724,256.504
					z"/>
				<g>
					<path fill="#FCD2C5" d="M590.474,290.74c-0.757-0.24-1.536-0.582-2.18-1.037c0.651,0.619,0.213,0.959,0.801,1.705
						c0.31,0.219,1.978,0.346,2.085-0.02C591.395,290.838,590.899,290.846,590.474,290.74z"/>
					<path fill="#FCD2C5" d="M591.831,294.461c-0.095-0.15-1.443-2.281-2.146-3.158c-0.588-0.746-1.225-1.461-1.877-2.082
						c-0.039-0.031-2.805,1.32-3.53,1.977c0.963,1.26,4.282,4.928,4.343,5.029c1.016,1.693,1.802,1.754,1.965,1.217
						c0.038-0.131,1.089,0.762,1.358,0.285c0,0,0.43,0.182,0.705-0.139c0.208-0.24,0.343-0.988,0.288-1.242
						C592.852,295.953,592.081,294.91,591.831,294.461z"/>
					<path fill="#FCD2C5" d="M571.707,238.744c-3.566,1.07-3.23,20.977-1.892,28c0.509,2.666,6.038,6.424,7.092-2.043
						c0.858-6.902,5.253-20.482,5.478-24.898C582.425,239.002,573.256,238.279,571.707,238.744z"/>
					<path fill="#FCD2C5" d="M574.981,264.156c-1.153-0.963-3.342-1.568-5.048,0.943c-1.863,2.744,9.47,20.18,14.744,26.586
						c0.751-0.727,1.9-1.477,3.342-2.26c-3.283-3.83-9.929-20.52-12.433-24.594C575.449,264.609,575.241,264.373,574.981,264.156z"
						/>
					<path fill="#01D06A" d="M576.854,265.611c0.128-0.506,0.229-1.033,0.308-1.602c0.459-3.299,5.549-22.006,5.696-24.252
						c0.023-0.35-0.127-0.689-0.41-0.934c-1.243-1.068-9.625-1.701-11.216-1.25c-4.748,1.35-3.912,22.689-2.946,28.279
						c0.855,5.396,9.896,19.471,14.339,25.029l4.797-3.387c-1.822-2.191-4.947-9.287-7.455-14.99
						C578.815,269.895,577.727,267.42,576.854,265.611z"/>
				</g>
				<path fill="#272063" d="M594.891,229.719c0.527-3.211-0.004-6.242-1.06-8.723c-1.507-1.977-6.787,4.379-6.832,4.457
					c0.882,1.998,3,4.012,2.718,6.66c-0.273,2.576-1.176,3.738,0.782,9.613c2.813,8.443-1.046,17.967,0.846,18.834
					c1.725,0.789,6.984-4.236,7.013-13.807c0.007-1.641-0.329-5.072-1.826-7.488C595.629,237.814,594.12,234.412,594.891,229.719z"
					/>
				<path fill="#FCD2C5" d="M588.027,214.943c-3.054,0.275-5.286,3.479-5.015,6.504c0.003,0.031,0.282,3.141,0.282,3.141
					c0.207,2.281,4.047,5.555,5.996,4.955c4.612-1.418,4.837-10.119,4.591-11.078C593.194,215.789,590.87,214.688,588.027,214.943z"
					/>
				<path fill="#272063" d="M592.278,212.396c-1.576-0.744-2.954-0.344-2.954-0.344s-0.084-0.514-2.892-1.508
					c-2.245-0.795-6.238-0.491-8.972,2.999c-2.736,3.488-4.259,8.609-2.225,13.756c2.033,5.145,0.313,9.246-0.82,11.043
					c-1.881,2.988-1.781,6.912-1.479,8.758c1.766,10.77,10.803,15.482,13.325,14.285c2.77-1.318-4.909-11.346-2.079-21.357
					c1.972-6.967-0.396-8.924-1.283-11.773c-1.162-3.734,0.119-8.785,1.579-10.721c1.606-2.127,5.096-2.689,5.096-2.689
					s5.104,0.982,3.824,9.105C595.87,221.488,595.686,214.006,592.278,212.396z"/>
				<path fill="#FCD2C5" d="M581.522,222.063c-0.013,0.748,0.871,1.902,1.606,2.117c0.324-0.822,0.983-2.484,1.253-3.523
					c-0.422-0.289-0.979-0.408-1.28-0.412C582.311,220.229,581.536,221.273,581.522,222.063z"/>
			</g>
			<g>
				<g>
					<g>
						<g>
							<path fill-rule="evenodd" clip-rule="evenodd" fill="#AFC4D5" d="M522.392,193.225c-7.044,0-14.713,5.452-14.713,14.549
								c0,13.843,14.749,28.472,14.749,28.472s14.747-14.867,14.747-28.472C537.175,198.677,529.036,193.225,522.392,193.225z
								 M522.525,216.289c-4.652,0-8.536-3.883-8.536-8.537c0-4.654,3.884-8.537,8.536-8.537c4.654,0,8.539,3.883,8.539,8.537
								C531.064,212.406,527.18,216.289,522.525,216.289z"/>
						</g>
					</g>
				</g>
			</g>
		</g>
	</g>
</g>
</svg>
