<?xml version="1.0" encoding="utf-8"?>
<!-- Generator: Adobe Illustrator 16.0.0, SVG Export Plug-In . SVG Version: 6.00 Build 0)  -->
<!DOCTYPE svg PUBLIC "-//W3C//DTD SVG 1.1//EN" "http://www.w3.org/Graphics/SVG/1.1/DTD/svg11.dtd">
<svg version="1.1" id="Layer_1" xmlns="http://www.w3.org/2000/svg" xmlns:xlink="http://www.w3.org/1999/xlink" x="0px" y="0px"
	 width="100px" height="100px" viewBox="0 0 100 100" enable-background="new 0 0 100 100" xml:space="preserve">
<path fill="#FFFFFF" d="M542,667h90c2.762,0,5,2.238,5,5v90c0,2.762-2.238,5-5,5h-90c-2.762,0-5-2.238-5-5v-90
	C537,669.238,539.238,667,542,667z"/>
<g transform="translate(50 50) scale(0.69 0.69) rotate(0) translate(-50 -50)">
	<title>checkbox</title>
	<desc>Created with Sketch.</desc>
	<g>
		<g>
			<path fill="#4D4D4D" d="M-7.748,26.265c0-3.805,3.112-6.917,6.917-6.917h33.193c3.803,0,6.917,3.112,6.917,6.917v48.42
				c0,3.804-3.114,6.918-6.917,6.918H-0.831c-3.804,0-6.917-3.114-6.917-6.918V26.265z"/>
		</g>
	</g>
</g>
<g transform="translate(50 50) scale(0.69 0.69) rotate(0) translate(-50 -50)">
	<title>checkbox</title>
	<desc>Created with Sketch.</desc>
	<g>
		<g>
			<path fill="#4D4D4D" d="M63.611,26.265v48.419c0,1.892,1.563,3.459,3.459,3.459h33.19c1.895,0,3.459-1.567,3.459-3.459V26.265
				c0-1.896-1.564-3.459-3.459-3.459H67.07C65.174,22.806,63.611,24.369,63.611,26.265z M60.152,26.265
				c0-3.804,3.112-6.918,6.918-6.918h33.19c3.804,0,6.918,3.114,6.918,6.918v48.419c0,3.804-3.114,6.918-6.918,6.918H67.07
				c-3.806,0-6.918-3.114-6.918-6.918V26.265z"/>
		</g>
	</g>
</g>
<rect x="48.631" y="3.726" fill="#4D4D4D" width="2.619" height="92.667"/>
</svg>
