<?xml version="1.0" encoding="utf-8"?>
<!-- Generator: Adobe Illustrator 16.0.0, SVG Export Plug-In . SVG Version: 6.00 Build 0)  -->
<!DOCTYPE svg PUBLIC "-//W3C//DTD SVG 1.1//EN" "http://www.w3.org/Graphics/SVG/1.1/DTD/svg11.dtd">
<svg version="1.1" id="Layer_1" xmlns="http://www.w3.org/2000/svg" xmlns:xlink="http://www.w3.org/1999/xlink" x="0px" y="0px"
	 width="100px" height="100px" viewBox="0 0 100 100" enable-background="new 0 0 100 100" xml:space="preserve">
<path fill="#FFFFFF" d="M542,667h90c2.762,0,5,2.238,5,5v90c0,2.762-2.238,5-5,5h-90c-2.762,0-5-2.238-5-5v-90
	C537,669.238,539.238,667,542,667z"/>
<g>
	<g transform="translate(50 50) scale(0.69 0.69) rotate(0) translate(-50 -50)">
		<title>checkbox</title>
		<desc>Created with Sketch.</desc>
		<g>
			<g>
				<path fill="#4D4D4D" d="M25.893,107.549c-3.805,0-6.917-3.111-6.917-6.915V67.441c0-3.803,3.112-6.917,6.917-6.917h48.419
					c3.804,0,6.918,3.114,6.918,6.917v33.193c0,3.804-3.114,6.915-6.918,6.915H25.893z"/>
			</g>
		</g>
	</g>
	<g transform="translate(50 50) scale(0.69 0.69) rotate(0) translate(-50 -50)">
		<title>checkbox</title>
		<desc>Created with Sketch.</desc>
		<g>
			<g>
				<path fill="#4D4D4D" d="M25.894,36.191h48.418c1.894,0,3.459-1.561,3.459-3.459v-33.19c0-1.894-1.565-3.459-3.459-3.459H25.894
					c-1.897,0-3.459,1.565-3.459,3.459v33.19C22.435,34.63,23.998,36.191,25.894,36.191z M25.894,39.65
					c-3.804,0-6.918-3.112-6.918-6.918v-33.19c0-3.804,3.114-6.918,6.918-6.918h48.418c3.804,0,6.918,3.114,6.918,6.918v33.19
					c0,3.806-3.114,6.918-6.918,6.918H25.894z"/>
			</g>
		</g>
	</g>
	<rect x="3.47" y="48.613" fill="#4D4D4D" width="92.667" height="2.619"/>
</g>
</svg>
