<?xml version="1.0" encoding="utf-8"?>
<!-- Generator: Adobe Illustrator 16.0.0, SVG Export Plug-In . SVG Version: 6.00 Build 0)  -->
<!DOCTYPE svg PUBLIC "-//W3C//DTD SVG 1.1//EN" "http://www.w3.org/Graphics/SVG/1.1/DTD/svg11.dtd">
<svg version="1.1" id="Layer_1" xmlns="http://www.w3.org/2000/svg" xmlns:xlink="http://www.w3.org/1999/xlink" x="0px" y="0px"
	 width="100px" height="100px" viewBox="0 0 100 100" enable-background="new 0 0 100 100" xml:space="preserve">
<path fill="#FFFFFF" d="M542,667h90c2.762,0,5,2.238,5,5v90c0,2.762-2.238,5-5,5h-90c-2.762,0-5-2.238-5-5v-90
	C537,669.238,539.238,667,542,667z"/>
<g transform="translate(50 50) scale(0.69 0.69) rotate(0) translate(-50 -50)">
	<title>23</title>
	<path fill="#4D4D4D" d="M65.747-22.534c-0.853-0.196-6.866,20.049-12.653,40.052c1.145,3.917,2.274,7.818,3.353,11.557
		c1.193,4.111,2.337,8.124,3.385,11.703C64.845,17.02,69.261-21.731,65.747-22.534z"/>
	<path fill="#4D4D4D" d="M3.063,90.084c-5.738,12.78-2.386,26.724,7.447,31.121c9.817,4.386,22.421-2.431,28.143-15.215
		c5.722-12.796-0.032-28.899,4.741-34.412c0.901-1.129,1.834-2.192,2.658-3.192c-2.147-2.323-4.104-4.811-5.852-7.446
		c-0.315-0.511-0.597-1.036-0.853-1.579C31.626,66.822,10.64,73.238,3.063,90.084z M27.499,83.169
		c6.304,2.819,8.446,11.751,4.77,19.969c-3.659,8.206-11.749,12.575-18.05,9.753c-6.303-2.804-8.448-11.751-4.772-19.956
		C13.121,84.716,21.196,80.347,27.499,83.169z"/>
	<path fill="#4D4D4D" d="M34.254-22.534c-4.722,1.079,4.85,70.499,10.991,80.3c2.419,3.851,6.06,7.333,8.204,10.01
		c0.936,1.178,2.062,2.45,3.143,3.803c4.787,5.513-0.967,21.616,4.755,34.412c5.721,12.783,18.325,19.601,28.142,15.215
		c9.834-4.397,13.185-18.341,7.447-31.121c-8.752-19.472-35.444-25.018-38.845-34.35C55.69,49.142,35.865-22.906,34.254-22.534z
		 M72.485,83.169c6.319-2.822,14.394,1.547,18.069,9.766c3.674,8.205,1.53,17.152-4.774,19.956
		c-6.301,2.822-14.391-1.55-18.068-9.753C64.055,94.92,66.184,85.988,72.485,83.169z M50,47.064
		c1.857-0.005,3.363,1.497,3.367,3.351c0.004,1.856-1.495,3.365-3.351,3.369c-1.855,0.004-3.366-1.496-3.37-3.351l0,0
		C46.646,48.576,48.145,47.07,50,47.064z"/>
</g>
</svg>
