<?xml version="1.0" encoding="utf-8"?>
<!-- Generator: Adobe Illustrator 16.0.0, SVG Export Plug-In . SVG Version: 6.00 Build 0)  -->
<!DOCTYPE svg PUBLIC "-//W3C//DTD SVG 1.1//EN" "http://www.w3.org/Graphics/SVG/1.1/DTD/svg11.dtd">
<svg version="1.1" id="Layer_1" xmlns="http://www.w3.org/2000/svg" xmlns:xlink="http://www.w3.org/1999/xlink" x="0px" y="0px"
	 width="830px" height="1039px" viewBox="0 0 830 1039" enable-background="new 0 0 830 1039" xml:space="preserve">
<g>
	<rect x="-214" y="-85" fill="#FFFFFF" width="1049" height="1049"/>
	<g>
		<g>
			<path fill="#FFD22E" d="M300.961,14.977v-0.099c0.441,0.011,0.88,0.035,1.32,0.049c0.44-0.014,0.878-0.039,1.32-0.049v0.099
				c98.783,3.852,180.423,88.887,178.56,163.079c-2.962,117.874-94.091,204.222-96.49,219.537c-0.375,2.392-8.36,4.809-8.374,7.228
				l-73.696,0.515v0.017l-1.32-0.008l-1.32,0.008v-0.017l-73.696-0.515c-0.014-2.419-8-4.836-8.375-7.228
				c-2.398-15.315-93.527-101.663-96.488-219.537C120.538,103.863,202.179,18.828,300.961,14.977z"/>
			<path opacity="0.5" fill="#EFDBA5" d="M271.718,41.518c-1.181,0.744-2.347,1.515-3.491,2.322
				c-8.74,6.165-16.779,13.16-23.558,21.449c-13.775,16.847-23.401,35.795-30.565,56.302c-6.226,17.821-10.185,36.383-12.841,55.048
				c-3.719,26.123-1.789,52.443,3.349,78.26c9.347,46.968,30.254,91.546,54.325,132.771l-26.998-0.188
				c-0.012-2.167-7.164-4.332-7.5-6.475c-2.148-13.716-83.765-91.051-86.417-196.622C136.521,124.638,195.492,57.049,271.718,41.518
				z"/>
			<g>
				<g>
					<path fill="#FE912A" d="M216.433,268.667c11.762,8.907,26.508,8.671,40.371,4.858c2.2,9.641,3.15,20.103,4.002,29.482
						c0.506,5.591,0.986,10.874,1.678,15.52l12.621,84.74l8.098-1.036l-12.621-84.739c-0.665-4.45-1.133-9.634-1.63-15.123
						c-0.904-9.94-1.908-21.011-4.373-31.365c12.255-4.545,23.159-11.183,29.758-15.639l-0.008-0.009
						c2.68-1.497,5.292-3.121,7.785-4.912c0.602,0.43,1.2,0.844,1.791,1.254c9.575,6.642,22.404,14.636,37.034,19.13
						c-0.188,1.025-0.368,2.044-0.542,3.055c-1.773,10.346-3.208,20.886-4.594,31.076l-13.205,97.023l8.11,0.933l13.204-97.022
						c1.379-10.132,2.805-20.603,4.558-30.83c0.126-0.739,0.254-1.474,0.386-2.208c5.589,1.141,11.396,1.711,17.323,1.412
						c8.777-0.41,15.979-2.634,21.406-6.61c6.942-5.083,10.409-13.289,8.634-20.418c-2.354-9.414-13.84-15.98-25.124-14.354
						c-9.154,1.328-17.763,7.469-23.027,16.444c-2.603,4.44-4.287,9.205-5.52,14.021c-13.17-4.223-24.911-11.581-33.735-17.695
						c-0.115-0.083-0.229-0.161-0.347-0.244c4.181-3.663,7.976-7.733,11.278-12.118c2.659-3.53,6.272-8.947,6.966-15.225
						c1.076-9.79-5.677-19.644-15.711-22.917c-10.04-3.263-21.986,0.483-27.8,8.733c-5.452,7.731-5.31,18.856,0.362,28.347
						c3.146,5.26,7.475,9.583,12.032,13.305c-2.08,1.411-4.232,2.718-6.442,3.914l0.026,0.043
						c-5.016,3.367-15.148,9.666-26.684,14.071c-2.911-8.831-7.246-16.725-13.976-22.367c-7.414-6.208-17.289-8.198-26.439-5.324
						c-7.771,2.445-13.386,7.962-14.654,14.402C206.682,254.034,206.87,261.418,216.433,268.667z M350.406,265.43
						c1.1-4.406,2.569-8.624,4.846-12.504c4.053-6.911,10.445-11.611,17.099-12.568c0.714-0.108,1.432-0.158,2.144-0.162
						c6.367-0.04,12.502,3.71,13.758,8.746c1.084,4.344-1.223,9.486-5.738,12.792c-4.068,2.979-9.7,4.657-16.74,4.987
						C360.53,266.966,355.398,266.461,350.406,265.43z M290.711,228.569c-4.227-7.075-4.49-15.144-0.67-20.561
						c2.835-4.024,8.098-6.439,13.291-6.472c1.684-0.011,3.359,0.229,4.943,0.746c6.47,2.11,10.999,8.711,10.303,15.028
						c-0.498,4.526-3.4,8.826-5.539,11.664c-3.209,4.262-6.928,8.188-11.042,11.683
						C297.646,237.216,293.521,233.266,290.711,228.569z M215.462,251.622c0.725-3.681,4.352-7.055,9.237-8.592
						c6.312-1.989,13.152-0.57,18.322,3.772c5.564,4.659,9.242,11.506,11.768,19.319c-11.708,3.278-23.945,3.689-33.174-3.305
						C216.86,259.21,214.73,255.341,215.462,251.622z"/>
					<path fill="#60C0FD" d="M219.099,398.618l166.366-1.048c-0.526,3.02-0.947,6.019-1.299,8.986
						c-2.98,25.244-1.63,54.431-13.394,73.76c-11.315,18.592-32.17,50.886-54.59,51.028c0,0-26.014,0.164-26.016,0.164
						c-22.016,0.137-53.322-37.999-60.207-59.872c-0.973-3.087-1.425-6.284-1.877-9.499
						C225.561,444.256,225.331,420.534,219.099,398.618z"/>
					<path fill="#4EB2EA" d="M345.054,515.508c-0.899-0.335-1.798-0.669-2.708-0.985c0.771,0.268,1.357,0.474,1.802,0.631
						c0.376,0.143,0.712,0.264,0.922,0.338C345.064,515.497,345.059,515.503,345.054,515.508z"/>
					<path fill="#4EB2EA" d="M270.103,398.297c-0.097,0.363-0.185,0.73-0.252,1.104c-1.911,10.564-2.213,21.039-1.702,31.729
						c0.453,9.45,0.744,18.982,1.563,28.406c1.667,19.172,6.308,38.455,16.816,54.835c3.952,6.157,8.548,11.919,13.73,17.073
						c-5.398,0.035-10.091,0.064-10.092,0.064c-22.016,0.137-53.322-37.999-60.207-59.872c-0.973-3.087-1.425-6.284-1.877-9.499
						c-2.521-17.882-2.751-41.604-8.984-63.52L270.103,398.297z"/>
				</g>
			</g>
		</g>
		<path fill="#8DB0DA" d="M180.134,350.224h243.88c4.091,0,7.438-3.347,7.438-7.437v-0.674c0-4.09-3.348-7.437-7.438-7.437h-243.88
			c-4.091,0-7.438,3.347-7.438,7.437v0.674C172.697,346.877,176.043,350.224,180.134,350.224z"/>
		<path fill="#60C0FD" d="M236.764,830.771l28.22,6.975c25.671,6.344,52.368,6.006,77.896-0.987l21.858-5.987l29.249-141.723
			H207.514L236.764,830.771z"/>
		<path fill="#4EB2EA" d="M246.03,753.357c22.881,32.78,50.127,64.077,82.203,86.66c-20.978,3.618-42.449,2.868-63.248-2.272
			l-28.22-6.975l-29.25-141.723h1.844C217.008,712.677,232.492,733.963,246.03,753.357z"/>
		<path fill="#52517B" d="M232.203,828.68H367.06c3.712,0,6.748-3.036,6.748-6.748v-2.354c0-3.712-3.036-6.748-6.748-6.748H232.203
			c-3.712,0-6.749,3.036-6.749,6.748v2.354C225.454,825.644,228.491,828.68,232.203,828.68z"/>
		<path fill="#45446C" d="M255.028,712.249c24.331,0,42.512-12.24,46.729-15.348c16.048,11.423,31.448,15.271,44.896,15.272
			c27.479,0.001,46.839-16.046,47.127-16.29c0.545-0.464,0.555-1.222,0.021-1.693c-0.535-0.474-1.411-0.479-1.955-0.019
			c-0.104,0.087-10.591,8.865-26.778,13.234c-21.604,5.831-42.613,1.456-62.445-12.996c-0.539-0.394-1.331-0.373-1.841,0.047
			c-0.106,0.088-10.854,8.796-27.301,13.094c-21.952,5.736-43.14,1.315-62.978-13.141c-0.585-0.427-1.457-0.362-1.947,0.145
			c-0.492,0.507-0.417,1.265,0.168,1.688C225.193,708.246,241.116,712.249,255.028,712.249z"/>
		<polygon fill="#8DB0DA" points="393.256,686.636 427.297,341.635 424.568,341.273 390.529,686.274 		"/>
		<polygon fill="#8DB0DA" points="348.186,686.555 366.587,343.147 363.836,342.949 345.436,686.356 		"/>
		<polygon fill="#8DB0DA" points="210.204,686.636 212.932,686.274 178.891,341.273 176.163,341.635 		"/>
		<polygon fill="#8DB0DA" points="255.273,686.555 258.024,686.356 239.624,342.949 236.873,343.147 		"/>
		<rect x="301.27" y="342.45" fill="#8DB0DA" width="2.76" height="343.209"/>
		<g>
			<defs>
				<rect id="SVGID_1_" x="211.178" y="453.034" width="275.905" height="227.825"/>
			</defs>
			<clipPath id="SVGID_2_">
				<use xlink:href="#SVGID_1_"  overflow="visible"/>
			</clipPath>
			<g clip-path="url(#SVGID_2_)">
				<g>
					<path fill="#BC9371" d="M271.223,870.592c-3.526-1.252-6.772-3.121-8.938-6.215c3.144-6.099,6.055-11.291,7.451-13.364
						c1.957-2.905,3.882-5.83,5.77-8.779c0.945-1.476,1.88-2.957,2.804-4.445c0.668-1.073,2.421-2.982,2.583-4.22
						c7.328-12.166,14.412-24.923,18.663-38.539c1.729-5.541,3.212-11.666,2.432-17.508c-3.142-25.305-4.178-58.729,3.899-93.489
						l40.504,9.076c-1.817,10.203-10.687,87.426-20.519,104.156c-8.011,13.626-15.648,26.58-25.776,38.623
						c-6.431,7.646-12.937,15.231-19.482,22.78C277.176,862.63,274.082,866.543,271.223,870.592z"/>
					<path fill="#CEAB8B" d="M341.805,886.802c-0.283-0.053-0.563-0.115-0.847-0.161c-1.47-0.241-2.813-0.386-4.135-1.146
						c-0.438-0.249-0.813-0.519-1.183-0.783c6.421-24.144,19.045-80.019,12.292-101.521c-3.927-12.504-26.279-42.677-26.846-98.062
						l47.767,10.173c-5.36,42.749,15.794,84.582,12.051,103.153c-3.029,15.04-23.522,64.816-33.376,88.296
						C345.583,886.823,343.681,886.882,341.805,886.802z"/>
					<path fill="#FFC2B0" d="M428.367,543.311c-2.325,0.123-3.182,1.188-5.612,1.799c0.651,2.773,0.11,9.602-0.304,14.263
						c-0.282,3.167-0.628,6.331-1.13,9.473c-0.69,4.329-1.721,11.342-4.495,14.901c-3.013,3.864-9.857,5.003-14.398,6.313
						c-5.42,1.563-10.902,2.918-16.396,4.204c-4.747,1.11-9.51,2.16-14.283,3.16c-1.278,0.27-4.889,0.325-5.897,1.206
						c-0.003,0.001-6.949,6.059-3.049,11.937c3.902,5.877,16.46,3.171,16.46,3.171c6.089-0.875,12.141-2.183,18.096-3.691
						c15.134-3.831,30.541-7.939,33.859-24.945c1.372-7.027,1.562-14.229,1.042-21.359
						C432.164,562.438,428.548,543.301,428.367,543.311z"/>
					<path fill="#FFC2B0" d="M395.643,548.418c-0.252-1.338-0.482-2.178-0.662-2.168c-2.324,0.122-4.87,0.53-7.303,1.142
						c1.679,4.5,0.762,9.446,0.348,14.106c-0.281,3.167-0.629,6.332-1.129,9.472c-0.692,4.331-1.722,11.343-4.496,14.901
						c-3.014,3.866-9.857,5.004-14.399,6.314c-5.42,1.563-10.901,2.918-16.395,4.202c-4.747,1.112-9.51,2.161-14.283,3.162
						c-1.278,0.268-4.888,0.325-5.899,1.205c-0.001,0.002-6.947,6.06-3.047,11.937c3.902,5.878,16.46,3.172,16.46,3.172
						c6.088-0.877,12.141-2.183,18.095-3.69c15.135-3.834,30.541-7.941,33.861-24.947c1.371-7.026,1.56-14.229,1.041-21.36
						C397.739,564.563,396.553,553.246,395.643,548.418z"/>
					<path fill="#FFC2B0" d="M271.234,870.577c-3.41,4.825-6.48,9.843-9.323,15.403c0,0,9.813,11.589,10.175,14.729
						c0.362,3.141-1.729,3.381-8.365,0.969c-6.636-2.414-13.216-9.2-13.216-9.2c0.438-4.793,6.419-17.701,11.743-28.031
						C264.972,866.936,267.977,869.121,271.234,870.577z"/>
					<g>
						<path fill="#FFC2B0" d="M335.641,884.711c3.765,1.256,8.053,1.954,11.948,1.896c-3.232,7.703-5.513,12.571-5.513,12.571
							l-1.753,3.523c0,0,10.691,2.193,21.351,6.915c10.657,4.72,18.24,10.401-4.173,6.503c-22.409-3.898-28.851-5.441-28.286-9.477
							c0.564-4.033,3.425-11.465,3.426-11.469C333.216,893.487,334.074,889.77,335.641,884.711z"/>
						<path fill="#492817" d="M332.965,894.216c3.552,1.203,7.081,1.869,10.52,1.864c-0.835,1.97-3.161,6.621-3.161,6.621
							s10.691,2.193,21.351,6.915c10.657,4.72,18.24,10.401-4.173,6.503c-22.409-3.898-28.851-5.441-28.286-9.477
							c0.564-4.033,3.425-11.465,3.426-11.469C332.731,894.91,332.843,894.577,332.965,894.216z"/>
					</g>
					<path fill="#492817" d="M265.699,879.137c-1.306,2.206-2.573,4.467-3.788,6.844c0,0,9.813,11.589,10.175,14.729
						c0.362,3.141-1.729,3.381-8.365,0.969c-6.636-2.414-13.216-9.2-13.216-9.2c0.3-3.27,3.178-10.315,6.667-17.743
						C259.746,876.583,262.563,878.091,265.699,879.137z"/>
					<path fill="#FFC2B0" d="M346.801,569.022c0.024-0.359,0.054-0.724,0.091-1.084c-0.389-0.516-0.755-1.045-1.083-1.602
						c-2.887-4.905-3.174-11.252-0.553-16.279c3.045-5.842,15.318-14.263,21.331-8.759c6.299,5.766,7.013,19.699,4.502,27.592
						c-0.443,1.396-1.067,2.765-2.061,3.851c-1.11,1.216-2.587,1.969-4.196,2.369c0.024,3.444-0.365,7.164-0.274,10.295
						c0.108,3.757,0.239,8.201-1.414,10.459c-1.36,1.861-3.3,1.291-4.997,0.635c-3.85-1.489-7.987-3.276-10.587-8.629
						c-0.595-1.229-1.097-2.642-1.326-4.209c-0.272-1.858-0.149-3.806-0.022-5.699C346.406,574.981,346.604,572.002,346.801,569.022
						z"/>
					<path fill="#FFD22E" d="M380.753,629.604c0.605-15.969-3.835-32.049-13.777-40.004c0,0-0.269-0.127-0.746-0.339
						c0.691-1.341,0.768-2.555-2.195-3.865c-5.558-2.456-15.538-4.238-18.725-4.457c-1.758-0.122-1.846,1.087-1.832,2.622
						c-1.701,0.389-3.459,1.16-4.959,1.672c-4.819,1.641-10.954,4.277-12.476,7.793c-5.45,12.587-4.797,30.062-12.535,65.393
						c-5.642,14.468-9.649,25.608-9.002,26.445c1.722,2.225,48.809,16.087,60.171,15.31c0.333,0.054,0.668,0.111,1,0.161
						c5.488,0.83,4.3-7.771,4.445-9.103C372.377,670.646,379.967,650.302,380.753,629.604z"/>
					<path fill="#2C2B57" d="M348.518,586.375c2.817,1.229,6.027,1.69,9.036,2.189c3.169,0.527,9.153,0.909,8.676,0.697
						c0.691-1.341,0.768-2.555-2.195-3.865c-5.558-2.456-15.538-4.238-18.725-4.457c-1.758-0.122-1.846,1.087-1.832,2.622
						C343.345,583.591,346.618,585.549,348.518,586.375z"/>
					<path fill="#F8C22E" d="M380.753,629.604c0.567-14.983-3.308-30.064-12.001-38.441c-0.014,4.943-3.53,9.932-9.724,9.382
						c4.217,22.17,4.956,44.666,5.835,67.139c0.39,9.942,0.477,19.739,0.104,29.682c-0.035,0.951-0.058,1.899-0.072,2.846
						c0.262,0.041,0.522,0.085,0.781,0.124c5.488,0.83,4.3-7.771,4.445-9.103C372.377,670.646,379.967,650.302,380.753,629.604z"/>
					<g>
						<polygon fill="#45446C" points="396.001,544.675 377.878,554.032 374.809,548.271 392.932,538.913 						"/>
						<path fill="#87C0F4" d="M463.761,505.933c-3.218-5.947-9.153-9.035-13.259-6.899c-0.361,0.189-0.686,0.421-0.994,0.674
							l-70.228,45.192c-0.481,0.311-0.646,0.938-0.376,1.444l2.895,5.435c0.265,0.497,0.86,0.715,1.383,0.504l78.139-31.362
							c0.08-0.027,0.156-0.063,0.234-0.094l0.598-0.24l-0.008-0.015c0.003-0.001,0.005-0.002,0.008-0.002
							C466.258,518.432,466.978,511.879,463.761,505.933z"/>
						<path fill="#45446C" d="M464.04,505.778c-3.229-5.969-9.188-9.068-13.308-6.923c-0.363,0.188-0.688,0.421-0.998,0.675
							l-2.198,1.414c3.892-0.551,8.624,2.438,11.375,7.527c2.743,5.067,2.625,10.563,0.008,13.423l2.672-1.072
							c0.079-0.027,0.156-0.063,0.235-0.096l0.599-0.239l-0.009-0.014c0.004-0.001,0.007-0.003,0.009-0.005
							C466.545,518.323,467.268,511.747,464.04,505.778z"/>
					</g>
					<path fill="#FFC2B0" d="M418.758,525.285c-0.205-0.554-0.672-1.008-1.234-1.201c-0.111-0.039-0.229-0.067-0.348-0.077
						c-0.136-0.011-0.272,0.004-0.398,0.058c-0.194,0.083-0.342,0.255-0.428,0.447c-0.083,0.184-0.086,0.386-0.149,0.569
						c-0.151-0.12-0.19-0.353-0.325-0.504c-0.164-0.187-0.375-0.331-0.614-0.407c-0.246-0.077-0.53-0.127-0.748,0.007
						c-0.409,0.251-0.359,0.914-0.369,1.325c-0.014,0.462,0.021,0.925,0.095,1.383c-0.152-0.144-0.322-0.262-0.521-0.337
						c-0.089-0.034-0.183-0.06-0.277-0.059c-0.356,0.006-0.589,0.366-0.712,0.698c-0.428,1.145-0.344,2.442-0.006,3.602
						c0.357,1.224,0.571,2.485,0.938,3.704c0.175,0.583,0.251,1.199,0.519,1.753c0.303,0.625,0.857,1.086,1.374,1.539
						c1.817,1.592,3.697,3.086,5.839,4.235c0.227,0.122,0.448,0.227,0.67,0.32l0.919,3.677l5.789-1.223l-1.036-3.814
						c0.017-0.024,0.042-0.042,0.058-0.068c0.53-0.83,0.663-1.81,0.421-2.763c-0.221-0.868-0.662-1.74-1.162-2.486
						c-0.251-0.372-0.517-0.751-0.846-1.053c-0.715-0.657-1.446-1.299-2.278-1.821c-0.368-0.231-0.737-0.459-1.068-0.752
						c-0.259-0.231-0.396-0.48-0.406-0.816c-0.027-0.824-0.358-1.587-0.515-2.386c-0.028-0.144-0.106-0.28-0.173-0.415
						c-0.415-0.854-1.021-1.872-1.786-2.467c-0.207-0.162-0.454-0.287-0.718-0.326c-0.146-0.021-0.279,0.038-0.39-0.099
						C418.816,525.458,418.79,525.37,418.758,525.285z"/>
					<path fill="#FFC2B0" d="M385.977,542.015c0.198,0.223,0.436,0.437,0.732,0.491c0.296,0.055,0.648-0.117,0.688-0.409
						c0.145,0.348,0.508,0.598,0.888,0.609c0.38,0.014,0.758-0.212,0.921-0.55c0.05-0.104,0.098-0.229,0.208-0.261
						c0.132-0.038,0.25,0.081,0.35,0.174c0.498,0.462,1.356,0.423,1.86-0.029c0.504-0.451,0.642-1.227,0.404-1.858
						c0.429,0.206,0.977-0.004,1.247-0.389s0.302-0.894,0.2-1.353c-0.102-0.458-0.321-0.882-0.523-1.307
						c-0.298-0.63-0.588-1.306-1.153-1.719c-0.567-0.414-1.514-0.408-1.849,0.201c-0.438-0.191-0.911-0.362-1.385-0.3
						c-0.474,0.063-0.938,0.434-0.94,0.905c-0.315-0.393-0.964-0.376-1.37-0.077c-0.405,0.297-0.608,0.792-0.735,1.273
						c-1.037-0.15-1.001,1.346-0.817,1.963C384.98,540.323,385.308,541.266,385.977,542.015z"/>
					<path fill="#FFD22E" d="M350.979,605.494c0.597-1.241-0.93-10.501,6.272-13.569c8.231-3.509,29.264-1.847,39.693-3.945
						c5.514,5.432,9.4,13.036,11.688,20.285c-9.965,2.416-32.434,6.603-40.315,11.434c-0.773,0.474-6.525,0.139-8.527-0.901
						C353.76,615.666,351.484,610.97,350.979,605.494z"/>
					<path fill="#2C2B57" d="M396.461,596.925c1.72,3.146,3.219,6.411,4.533,9.746c0.403,1.018,0.783,2.043,1.148,3.075
						c2.465-0.547,4.686-1.043,6.49-1.481c-2.288-7.249-6.175-14.854-11.688-20.285c-1.651,0.333-3.571,0.57-5.661,0.749
						C392.922,591.502,394.917,594.101,396.461,596.925z"/>
					<path fill="#2C2B57" d="M398.45,610.566c0.663-0.147,1.315-0.293,1.954-0.435c-0.188-0.528-0.368-1.061-0.565-1.587
						c-1.567-4.155-3.433-8.196-5.64-12.054c-1.49-2.608-3.359-5.01-4.846-7.617c-0.828,0.057-1.676,0.104-2.54,0.148
						C391.935,596.436,395.346,602.526,398.45,610.566z"/>
				</g>
				<path fill="#915151" d="M374.563,545.184c0.123-1.814-1.091-3.269-0.725-4.972c0.371-1.723,0.682-3.194-0.352-4.803
					c-1.063-1.65-3.153-2.57-5.087-2.238c0.323-1.904-1.271-3.749-3.138-4.241c-1.867-0.49-3.862,0.087-5.575,0.976
					c-0.581,0.3-1.156,0.647-1.548,1.171c0.236-0.924-0.315-1.92-1.119-2.435c-0.803-0.513-1.801-0.629-2.755-0.596
					c-3.577,0.12-6.854,2.107-9.463,4.557c-0.767,0.72-1.55,1.747-1.157,2.721c-3.091-0.805-6.512,0.821-8.278,3.482
					s-2.019,6.14-1.174,9.221c-1.969,0.233-3.474,2.071-3.836,4.021c-0.362,1.949,0.209,3.959,1.032,5.764
					c1.151,2.526,3.051,4.986,5.759,5.597c-0.97,1.38-0.427,3.305,0.424,4.761c1.347,2.313,3.827,4.349,6.459,3.865
					c0.464-0.085,0.902-0.255,1.312-0.479c1.757,2.377,4.672,3.937,7.643,3.795c4.225-0.203,8.022-3.813,8.438-8.021
					c0.064-0.65,0.05-1.332-0.229-1.922c-0.383-0.808-1.194-1.309-1.8-1.967c-1.923-2.091-1.218-5.964,1.32-7.24
					c1.196-0.602,2.603-0.661,3.819-1.224c2.343-1.088,3.499-3.887,3.416-6.47c-0.012-0.383-0.058-0.746-0.095-1.115
					c0.07-0.084,0.158-0.156,0.221-0.247c0.393,1.573,2.377,2.4,3.899,1.841C373.496,548.426,374.454,546.8,374.563,545.184z"/>
				
					<ellipse transform="matrix(0.9018 -0.4321 0.4321 0.9018 -201.198 216.7509)" fill="#87C0F4" cx="376.375" cy="551.125" rx="1.325" ry="3.289"/>
				
					<ellipse transform="matrix(0.9018 -0.4321 0.4321 0.9018 -199.9215 218.2692)" fill="#45446C" cx="380.354" cy="549.075" rx="1.325" ry="3.287"/>
			</g>
		</g>
		<path fill="#52517B" d="M203.19,697.419h194.778c4.247,0,7.723-3.475,7.723-7.723v-0.7c0-4.248-3.476-7.724-7.723-7.724H203.19
			c-4.247,0-7.723,3.476-7.723,7.724v0.7C195.467,693.944,198.943,697.419,203.19,697.419z"/>
		<path fill="#F8C22E" d="M376.934,701.298c3.099-2.776,7.382-4.472,11.499-5.131l-4.884-8.115h16.843l-4.844,8.047
			c4.286,0.59,8.812,2.299,12.049,5.199c8.731,7.826,9.354,26.322-15.331,26.322S368.203,709.124,376.934,701.298z"/>
		<path fill="#F8C22E" d="M286.887,701.298c3.098-2.776,7.38-4.472,11.499-5.131l-4.884-8.115h16.842l-4.844,8.047
			c4.286,0.59,8.813,2.299,12.049,5.199c8.731,7.826,9.354,26.322-15.332,26.322C277.533,727.62,278.156,709.124,286.887,701.298z"
			/>
		<path fill="#F8C22E" d="M195.805,701.298c3.098-2.776,7.38-4.472,11.5-5.131l-4.885-8.115h16.843l-4.843,8.047
			c4.286,0.59,8.812,2.299,12.049,5.199c8.731,7.826,9.354,26.322-15.331,26.322C186.451,727.62,187.074,709.124,195.805,701.298z"
			/>
	</g>
	<g>
		<g>
			<g>
				<path fill="#A7C4E4" d="M103.914,224.91l1.259,1.242c-3.577,3.626-7.062,7.596-10.359,11.801l-1.389-1.09
					C96.761,232.607,100.29,228.584,103.914,224.91z M84.259,249.85l1.492,0.947c-2.754,4.333-5.391,8.924-7.836,13.644l-1.57-0.813
					C78.815,258.863,81.478,254.225,84.259,249.85z M69.621,278.02l1.628,0.683c-2.016,4.808-3.875,9.773-5.525,14.753l-1.678-0.558
					C65.71,287.875,67.585,282.87,69.621,278.02z M59.622,308.151l1.716,0.426c-1.095,4.407-2.041,8.845-2.807,13.189
					c-0.132,0.741-0.259,1.483-0.38,2.225l-1.745-0.285c0.123-0.75,0.251-1.5,0.383-2.247
					C57.565,317.074,58.517,312.596,59.622,308.151z M83.879,313.817c4.96-1.862,10.112-3.047,15.312-3.524l0.163,1.761
					c-5.044,0.462-10.041,1.612-14.853,3.418l-0.265,0.1l-0.636-1.65L83.879,313.817z M69.5,321.455l1.015,1.447
					c-4.158,2.918-8.095,6.387-11.701,10.308l-1.301-1.197C61.205,327.999,65.239,324.446,69.5,321.455z M115.18,311.261
					c5.097,1.077,10.183,2.833,15.117,5.216l-0.769,1.593c-4.806-2.323-9.757-4.032-14.713-5.078L115.18,311.261z M54.78,339.541
					l1.765,0.057c-0.178,5.621,0.148,10.715,1,15.574l-1.741,0.304C54.931,350.497,54.596,345.285,54.78,339.541z M47.905,344.757
					l1.506,0.926c-2.729,4.436-5.064,9.15-6.941,14.01l-1.648-0.638C42.737,354.096,45.12,349.285,47.905,344.757z M143.805,325.042
					c4.332,3.526,8.022,7.447,10.969,11.658l-1.449,1.014c-2.852-4.076-6.431-7.878-10.636-11.301L143.805,325.042z M36.498,374.42
					l1.74,0.313c-0.911,5.05-1.405,10.292-1.465,15.58l-1.767-0.021C35.066,384.908,35.569,379.566,36.498,374.42z M62.391,369.859
					c2.354,4.455,5.494,8.604,9.33,12.335l-1.231,1.268c-3.969-3.859-7.22-8.157-9.662-12.776L62.391,369.859z M159.818,351.675
					l1.715-0.422c0.747,3.029,1.117,6.115,1.099,9.172c-0.012,2.287-0.238,4.604-0.672,6.89l-1.735-0.33
					c0.414-2.18,0.629-4.391,0.641-6.57C160.881,357.504,160.528,354.563,159.818,351.675z M36.05,406.19l1.751-0.245
					c0.708,5.053,1.792,10.217,3.226,15.351l-1.704,0.474C37.869,416.562,36.769,411.319,36.05,406.19z M84.212,391.434
					c4.508,2.518,9.354,4.512,14.402,5.926l-0.479,1.703c-5.181-1.453-10.157-3.5-14.785-6.086L84.212,391.434z M154.423,381.22
					l1.478,0.97c-2.992,4.552-6.894,8.504-11.285,11.428l-0.979-1.471C147.832,389.353,151.562,385.574,154.423,381.22z
					 M114,399.763c5.353,0.176,10.549-0.347,15.446-1.557l0.423,1.716c-5.054,1.25-10.412,1.79-15.929,1.608L114,399.763z
					 M46.154,436.136c1.962,4.767,4.243,9.536,6.773,14.177l-1.552,0.845c-2.561-4.696-4.869-9.522-6.857-14.348L46.154,436.136z
					 M61.158,463.703c1.475,2.144,3.015,4.263,4.58,6.3c1.614,2.104,3.284,4.189,4.965,6.198l-1.355,1.135
					c-1.698-2.027-3.384-4.132-5.013-6.256c-1.582-2.062-3.141-4.208-4.633-6.375L61.158,463.703z M81.299,487.832
					c3.677,3.71,7.558,7.313,11.531,10.708l-1.148,1.343c-4.011-3.426-7.928-7.062-11.639-10.807L81.299,487.832z M105.203,508.268
					c4.246,3.064,8.66,5.985,13.125,8.686l-0.915,1.513c-4.505-2.723-8.96-5.673-13.243-8.765L105.203,508.268z M132.117,524.539
					c4.691,2.338,9.524,4.502,14.364,6.431l-0.657,1.642c-4.883-1.947-9.761-4.131-14.496-6.488L132.117,524.539z"/>
				<path fill="#A7C4E4" d="M161.506,536.234c2.498,0.759,5.063,1.478,7.625,2.135l-0.441,1.713
					c-2.584-0.665-5.175-1.391-7.696-2.156L161.506,536.234z"/>
			</g>
		</g>
		<g>
			<polygon fill="#8DB0DA" points="113.468,222.45 210.551,159.575 131.33,200.391 			"/>
			<path fill="#D1E7F4" d="M96.544,168.967c0,0,91.495-5.736,114.007-9.392c0,0-50.712,58.988-63.126,79.655l-16.096-38.839
				l-7.349-10.491L96.544,168.967z"/>
			<polygon fill="#A7C4E4" points="113.468,222.45 131.33,200.391 210.551,159.575 123.981,189.9 			"/>
		</g>
	</g>
	
		<linearGradient id="SVGID_3_" gradientUnits="userSpaceOnUse" x1="-64.9614" y1="607.7832" x2="-64.9614" y2="567.5088" gradientTransform="matrix(1 0 0 1 193.7275 0)">
		<stop  offset="0" style="stop-color:#85D0EE"/>
		<stop  offset="0.1897" style="stop-color:#9BD9F1"/>
		<stop  offset="0.5319" style="stop-color:#BDE6F6"/>
		<stop  offset="0.8144" style="stop-color:#D2EEF9"/>
		<stop  offset="1" style="stop-color:#DAF1FA"/>
	</linearGradient>
	<path fill="url(#SVGID_3_)" d="M93.667,607.08l-25.158-0.068c0,0-6.106-0.844,3.593-1.668c9.947-0.845,9.947-0.845,9.947-0.845
		s-1.875-2.86,1.332-5.962c3.67-2.543,5.458,1.458,7.46-3.283c1.664-3.94,6.247-15.136,18.062-15.718
		c12.166-0.601,18.31,5.728,18.31,5.728s-1.529-3.442-3.63-4.615c0,0,4.342-1.59,8.159-5.325c3.852-3.769,11.487-9.459,24.205-7.365
		c13.102,2.156,27.675,16.22,26.055,30.144c0,0,1.775-0.252,1.794-5.289c0,0,7.115,1.838,7.127,8.484
		c0.014,6.646-12.976,6.365-15.199,6.476C173.51,607.885,93.667,607.08,93.667,607.08z"/>
	
		<linearGradient id="SVGID_4_" gradientUnits="userSpaceOnUse" x1="226.5381" y1="403.2666" x2="433.9199" y2="403.2666" gradientTransform="matrix(1 0 0 1 193.7275 0)">
		<stop  offset="0" style="stop-color:#85D0EE"/>
		<stop  offset="0.1897" style="stop-color:#9BD9F1"/>
		<stop  offset="0.5319" style="stop-color:#BDE6F6"/>
		<stop  offset="0.8144" style="stop-color:#D2EEF9"/>
		<stop  offset="1" style="stop-color:#DAF1FA"/>
	</linearGradient>
	<path fill="url(#SVGID_4_)" d="M622.977,409.083h-27.913c-0.797-11.594-10.53-21.087-24.841-21.087
		c-10.741,0-20.209,5.478-25.579,13.272c-5.505-14.076-14.041-26.174-30.888-26.174c-17.131,0-31.409,12.057-31.8,26.191
		c-3.347-1.71-8.459-3.398-15.349-3.058c-12.946,0.639-17.969,12.905-19.792,17.225c-2.193,5.194-4.151,0.812-8.176,3.598
		c-3.512,3.397-1.458,6.532-1.458,6.532s0,0-10.899,0.926c-10.63,0.903-3.938,1.829-3.938,1.829l27.567,0.074
		c0,0,51.931,0.524,76.883,0.708c2.155,1.441,4.683,2.32,7.001,2.32h3.416h9.921h37.047h12.588c4.278,0,9.892-2.977,12.755-7.008
		c0.588-0.831,1.024-1.649,1.308-2.433h6.316c3.692,0,8.067-2.719,9.79-6.183C628.742,412.184,626.995,409.083,622.977,409.083z"/>
</g>
</svg>
