<?xml version="1.0" encoding="utf-8"?>
<!-- Generator: Adobe Illustrator 16.0.0, SVG Export Plug-In . SVG Version: 6.00 Build 0)  -->
<!DOCTYPE svg PUBLIC "-//W3C//DTD SVG 1.1//EN" "http://www.w3.org/Graphics/SVG/1.1/DTD/svg11.dtd">
<svg version="1.1" id="Layer_1" xmlns="http://www.w3.org/2000/svg" xmlns:xlink="http://www.w3.org/1999/xlink" x="0px" y="0px"
	 width="32.771px" height="22.646px" viewBox="0.771 0 32.771 22.646" enable-background="new 0.771 0 32.771 22.646"
	 xml:space="preserve">
<g>
	<path stroke="#020202" stroke-miterlimit="10" d="M21.862,20.564H10.475c-1.76,0-3.195-1.436-3.195-3.195V3.018l2.963,2.963
		c0.139,0.14,0.324,0.186,0.509,0.186c0.186,0,0.37-0.046,0.509-0.186c0.279-0.277,0.279-0.694,0-0.972L7.095,0.842
		c-0.277-0.278-0.694-0.278-0.972,0L1.956,5.009c-0.277,0.277-0.277,0.694,0,0.972s0.694,0.277,0.972,0l2.963-2.963v14.352
		c0,2.5,2.038,4.584,4.584,4.584h11.387c0.37,0,0.695-0.324,0.695-0.695S22.232,20.564,21.862,20.564z"/>
	<path stroke="#020202" stroke-miterlimit="10" d="M32.557,16.583c-0.276-0.278-0.693-0.278-0.972,0l-2.963,2.963V5.194
		c0-2.5-2.036-4.583-4.582-4.583H12.604c-0.37,0-0.694,0.324-0.694,0.694c0,0.37,0.325,0.741,0.694,0.741h11.388
		c1.76,0,3.195,1.435,3.195,3.195v14.351l-2.964-2.963c-0.277-0.277-0.694-0.277-0.972,0s-0.277,0.694,0,0.973l4.166,4.166
		c0.14,0.14,0.325,0.186,0.51,0.186c0.186,0,0.371-0.046,0.51-0.186l4.168-4.166C32.789,17.323,32.789,16.86,32.557,16.583z"/>
</g>
</svg>
