<?xml version="1.0" encoding="utf-8"?>
<!-- Generator: Adobe Illustrator 16.0.0, SVG Export Plug-In . SVG Version: 6.00 Build 0)  -->
<!DOCTYPE svg PUBLIC "-//W3C//DTD SVG 1.1//EN" "http://www.w3.org/Graphics/SVG/1.1/DTD/svg11.dtd">
<svg version="1.1" id="Layer_1" xmlns="http://www.w3.org/2000/svg" xmlns:xlink="http://www.w3.org/1999/xlink" x="0px" y="0px"
	 width="110.5px" height="100px" viewBox="0 0 110.5 100" enable-background="new 0 0 110.5 100" xml:space="preserve">
<g transform="translate(50 50) scale(0.69 0.69) rotate(0) translate(-50 -50)">
	<g>
		<path fill="#0080FF" stroke="#0080FF" stroke-width="2" stroke-miterlimit="10" d="M93.041,73.103H48.379
			c-6.412,0-11.448-5.033-11.448-11.447V2.337l12.366,12.366c0.688,0.689,1.604,0.917,2.518,0.917c0.918,0,1.835-0.229,2.523-0.917
			c1.373-1.374,1.373-3.436,0-4.81L36.013-8.43c-0.23-0.229-0.689-0.456-1.144-0.685c-0.917-0.459-1.836-0.459-2.522,0
			c-0.456,0.229-0.688,0.456-1.141,0.685L12.882,9.892c-1.376,1.374-1.376,3.436,0,4.81c1.373,1.375,3.43,1.375,4.806,0
			L30.056,2.337v59.32c0,10.074,8.25,18.32,18.323,18.32h44.664c1.834,0,3.436-1.598,3.436-3.435
			C96.479,74.713,94.878,73.103,93.041,73.103z"/>
		<path fill="#0080FF" stroke="#0080FF" stroke-width="2" stroke-miterlimit="10" d="M136.791,55.701
			c-1.376-1.373-3.435-1.373-4.811,0l-12.368,12.37V8.974c0-10.073-8.243-18.32-18.323-18.32H56.401
			c-1.835,0-3.438,1.602-3.438,3.436c0,1.83,1.604,3.435,3.438,3.435h44.662c6.41,0,11.448,5.038,11.448,11.449v59.321
			L100.147,55.93c-1.38-1.376-3.436-1.376-4.813,0c-1.376,1.376-1.376,3.435,0,4.812l18.328,18.324
			c0.221,0.225,0.682,0.454,1.145,0.682c0.456,0.228,0.913,0.228,1.37,0.228c0.459,0,0.92,0,1.373-0.228
			c0.464-0.228,0.688-0.457,1.149-0.682l18.323-18.324C137.936,59.365,137.936,57.072,136.791,55.701z"/>
	</g>
</g>
</svg>
