<?xml version="1.0" encoding="utf-8"?>
<!-- Generator: Adobe Illustrator 16.0.0, SVG Export Plug-In . SVG Version: 6.00 Build 0)  -->
<!DOCTYPE svg PUBLIC "-//W3C//DTD SVG 1.1//EN" "http://www.w3.org/Graphics/SVG/1.1/DTD/svg11.dtd">
<svg version="1.1" id="Layer_1" xmlns="http://www.w3.org/2000/svg" xmlns:xlink="http://www.w3.org/1999/xlink" x="0px" y="0px"
	 width="949.452px" height="800px" viewBox="-72.886 0 949.452 800" enable-background="new -72.886 0 949.452 800"
	 xml:space="preserve">
<radialGradient id="SVGID_1_" cx="981.8018" cy="552.1836" r="301.7798" gradientTransform="matrix(1 0 0 0.1015 -562 584.6624)" gradientUnits="userSpaceOnUse">
	<stop  offset="0" style="stop-color:#000000"/>
	<stop  offset="1" style="stop-color:#000000;stop-opacity:0"/>
</radialGradient>
<ellipse opacity="0.4" fill="url(#SVGID_1_)" enable-background="new    " cx="419.802" cy="640.709" rx="299.864" ry="31.898"/>
<g id="Capa_2">
	<g>
		<g>
			<g>
				<path d="M716.729,581.295c0,32.811-26.607,59.415-59.413,59.415c-32.81,0-59.416-26.604-59.416-59.415
					c0-32.812,26.606-59.416,59.416-59.416C690.119,521.879,716.729,548.483,716.729,581.295z"/>
			</g>
			<g>
				<path fill="#4D4D4D" d="M701.884,581.295c0,24.612-19.962,44.568-44.569,44.568c-24.609,0-44.571-19.956-44.571-44.568
					c0-24.614,19.962-44.572,44.571-44.572C681.922,536.723,701.884,556.681,701.884,581.295z"/>
			</g>
			<g>
				<path fill="#F1F1F1" d="M693.479,581.295c0,19.971-16.195,36.164-36.163,36.164c-19.971,0-36.167-16.193-36.167-36.164
					s16.196-36.166,36.167-36.166C677.281,545.129,693.479,561.324,693.479,581.295z"/>
			</g>
			<g>
				<path fill="#CBCBCB" d="M682.911,581.295c0,14.135-11.464,25.598-25.599,25.598c-14.136,0-25.6-11.463-25.6-25.598
					c0-14.137,11.464-25.598,25.6-25.598C671.447,555.697,682.911,567.158,682.911,581.295z"/>
			</g>
			<g>
				<path fill="#989898" d="M666.94,581.295c0,5.315-4.313,9.629-9.628,9.629c-5.316,0-9.631-4.313-9.631-9.629
					c0-5.318,4.313-9.628,9.631-9.628C662.628,571.667,666.94,575.977,666.94,581.295z"/>
			</g>
			<g>
				<path d="M373.914,581.295c0,32.811-26.609,59.415-59.417,59.415c-32.808,0-59.416-26.604-59.416-59.415
					c0-32.812,26.609-59.416,59.416-59.416C347.304,521.879,373.914,548.483,373.914,581.295z"/>
			</g>
			<g>
				<path fill="#4D4D4D" d="M360.17,581.295c0,25.221-20.455,45.671-45.673,45.671c-25.219,0-45.673-20.45-45.673-45.671
					c0-25.223,20.454-45.675,45.673-45.675C339.716,535.62,360.17,556.072,360.17,581.295z"/>
			</g>
			<g>
				<path fill="#F1F1F1" d="M350.662,581.295c0,19.971-16.197,36.164-36.165,36.164c-19.969,0-36.166-16.193-36.166-36.164
					s16.197-36.166,36.166-36.166C334.465,545.129,350.662,561.324,350.662,581.295z"/>
			</g>
			<g>
				<path fill="#CBCBCB" d="M340.095,581.295c0,14.135-11.463,25.598-25.598,25.598c-14.135,0-25.598-11.463-25.598-25.598
					c0-14.137,11.463-25.598,25.598-25.598C328.632,555.697,340.095,567.158,340.095,581.295z"/>
			</g>
			<g>
				<circle fill="#989898" cx="314.497" cy="581.295" r="9.629"/>
			</g>
			<g>
				<path fill="#E5E5E5" d="M661.333,576.087c2.659,2.661,2.657,6.972,0,9.632l0,0c-2.659,2.658-6.972,2.66-9.631,0l-70.74-70.74
					c-2.661-2.658-2.659-6.973,0-9.631l0,0c2.659-2.657,6.97-2.658,9.631,0L661.333,576.087z"/>
			</g>
			<g>
				<g>
					<path fill="#FFD2AA" d="M560.072,358.008l10.175-0.76c0,0,6.345-12.672,21.313-4.399c14.968,8.274,5.84,17.276-3.026,18.422
						c-8.866,1.145-10.338-0.993-10.338-0.993s9.492-10.799-0.311-11.833c-9.802-1.034-10.322,6.64-10.322,6.64l-14.635,0.496
						L560.072,358.008z"/>
				</g>
				<g>
					<path fill="#8C0000" d="M502.839,288.912c3.055,0.298,7.046-6.805,11.229,60.982l50.969,5.404c0,0-13.146,16.988-10.594,28.11
						c0,0-52.863-11.713-60.705-21.012C485.896,353.096,473.559,286.059,502.839,288.912z"/>
				</g>
			</g>
			<g>
				<path fill="#ED121D" d="M556.645,369.695c0,0,12.821-22.389,23.438-21.512s13.248,15.792,13.248,15.792
					s4.486-4.393,10.579-5.048c0,0-7.408,20.4,0,37.508c0,0-4.876,1.264-9.7-5.291c0,0-9.992,13.187,5.313,36.875
					c15.302,23.688,22.318,70.188,22.318,70.188s68.436-29.725,97.822,34.927c0,0-50.447-36.138-94.313,0
					c-43.864,36.136-24.688,35.695-52.48,44.473c0,0,3.35-9.794,7.737-15.205c0,0-17.227,22.225-44.803,22.225
					c-27.578,0-131.539-1.755-131.539-1.755s-11.406-1.317-11.846-9.212l-175.026-2.195c0,0-42.988,16.671,14.038-54.831
					c0,0,15.354-8.771,2.632-26.318c0,0,5.266-10.968,32.461-2.634c0,0,9.65-27.636-14.038-32.897v-4.826h112.297l0.438,5.702
					c0,0,67.793-10.966,98.601-5.702c0,0-55.609,48.258-9.553,105.062c0,0,14.917,15.91,106.6-0.271c0,0,13.802-8.285,4.926-67.505
					c-8.875-59.22,17.005-56.148,17.005-56.148L556.645,369.695z"/>
			</g>
			<g>
				<path d="M471.591,426.028c10.049,1.056,15.791,28.729-10.83,26.884c-26.618-1.844-76.877,0.104-76.877,0.104
					s-31.938-32.931-4.435-56.958C406.955,372.031,368.669,415.217,471.591,426.028z"/>
			</g>
			<g>
				<path d="M558.739,370.795c0,0,9.493-5.831,13.149,0.269c3.658,6.099-4.098,9.713-4.098,9.713S558.309,374.825,558.739,370.795z"
					/>
			</g>
			<g>
				
					<rect x="495.299" y="534.403" transform="matrix(0.8988 0.4384 -0.4384 0.8988 288.1295 -164.3354)" fill="#FFD2AA" width="9.233" height="14.685"/>
			</g>
			<g>
				<path fill="#E5E5E5" d="M492.541,546.293c0,0-2.175,3.908-2.547,6.652c0,0,2.243,4.674,8.661,3.737l2.688-7.378
					C501.344,549.307,498.639,549.984,492.541,546.293z"/>
			</g>
			<g>
				<path fill="#B2B2B2" d="M490.695,550.821c0,0,5.519,3.038,9.462,0.924c0,0,11.523-3.347,17.487,0.442
					c5.96,3.786,5.115,9.849,5.115,9.849s-23.055,5.878-35.002-2.896C487.76,559.143,488.138,551.31,490.695,550.821z"/>
			</g>
			<g>
				
					<rect x="463.116" y="528.471" transform="matrix(0.8987 0.4385 -0.4385 0.8987 282.6709 -150.7664)" fill="#FFD2AA" width="9.233" height="16.213"/>
			</g>
			<g>
				<path fill="#062A46" d="M412.987,391.906c0,0-20.646,6.818-4.138,17.47c16.508,10.65,87.762,16.493,114.398,10.165
					c0,0-18.404,30.321-18.273,51.633c0.131,21.313-10.345,64.588-10.345,64.588s10.214,4.673,13.709,9.771
					c0,0,42.764-112.521,32.03-133.441c-10.734-20.921-76.43-27.976-76.43-27.976C458.116,388.759,432.825,390.559,412.987,391.906z
					"/>
			</g>
			<g>
				<path fill="#3E5778" d="M404.269,381.521c0,0-14.585,15.683,0,28.842s77.096,18.095,104.4,16.12
					c0,0-23.029,26.979-26.318,48.032c-3.29,21.059-18.545,54.284-18.545,54.284s9.333,6.252,11.967,11.844
					c0,0,58.229-96.396,50.993-118.768c-7.237-22.372-70.954-39.874-70.954-39.874C449.317,385.654,424.064,383.374,404.269,381.521
					z"/>
			</g>
			<g>
				<path fill="#FFD2AA" d="M417.868,362.221c0,0-11.407,13.159-13.602,19.3c0,0,44.306,5.352,51.543,0.483
					C455.813,382.004,434.099,357.834,417.868,362.221z"/>
			</g>
			<g>
				<polygon fill="#FFD2AA" points="510.597,285.344 524.377,268.847 540.711,277.096 523.866,296.068 				"/>
			</g>
			<g>
				<path fill="#E5E5E5" d="M623.679,224.925c0,0-0.501,48.366-19.509,55.712c0,0-89.563-29.808-62.635-92.864
					C568.461,124.715,611.066,205.155,623.679,224.925z"/>
			</g>
			<g>
				<polygon fill="#FFFFFF" points="589.594,203.792 536.487,235.492 541.193,250.488 603.91,208.905 				"/>
			</g>
			<g>
				<polygon fill="#FFFFFF" points="609.023,213.677 547.328,262.418 574.256,287.641 623.679,222.348 				"/>
			</g>
			<g>
				<path fill="#ED121D" d="M508.472,266.85l68.513,40.902c0,0,31.357-19.429,30.677-28.631c0,0-50.326-16.463-59.311-56.241
					c-9.544-42.266,77.374,6.477,77.374,6.477s11.933-74.307-83.508-69.875C473.705,159.481,508.472,266.85,508.472,266.85z"/>
			</g>
			<g>
				<polygon fill="#333333" points="506.493,259.955 503.781,266.29 578.063,310.732 580.083,307.752 				"/>
			</g>
			<g>
				<path fill="#ED121D" d="M499.65,275.803c0,0-16.645-2.645-37.697,11.837c-21.057,14.482-7.896,29.617-38.165,31.59
					c-30.27,1.974-37.505,23.029-42.771,36.189c0,0,23.03,5.264,36.849,13.16c13.817,7.896,44.744,15.134,44.744,15.134
					s22.62-26.859,34.938-33.391c13.048-6.919,30.801-28.041,31.754-39.591C530.257,299.182,539.98,292.911,499.65,275.803z"/>
			</g>
			<g>
				<g>
					<path fill="#FFD2AA" d="M531.007,371.058l10.04,1.811c0,0,9.314-10.682,21.734,1.074c12.421,11.755,1.331,18.187-7.541,17.078
						c-8.869-1.109-9.758-3.548-9.758-3.548s11.891-8.08,2.659-11.534c-9.229-3.455-11.654,3.846-11.654,3.846l-14.294-3.181
						L531.007,371.058z"/>
				</g>
				<g>
					<path fill="#FF0000" d="M492.879,289.841c2.885,1.052,8.526-4.826-4.387,61.852l47.995,17.984c0,0-16.979,13.16-17.288,24.565
						c0,0-48.253-24.565-53.52-35.532C460.418,347.745,465.244,279.752,492.879,289.841z"/>
				</g>
			</g>
			<g>
				<path fill="#E5E5E5" d="M460.695,540.436c0,0-2.172,3.908-2.546,6.652c0,0,2.243,4.674,8.66,3.739l2.688-7.378
					C469.5,543.449,466.796,544.126,460.695,540.436z"/>
			</g>
			<g>
				<path fill="#B2B2B2" d="M458.149,547.088c0,0,5.133,3.654,9.293,2.007c0,0,11.836-1.994,17.318,2.456
					c5.483,4.45,3.947,10.372,3.947,10.372s-23.578,3.184-34.437-6.909C454.274,555.014,455.554,547.275,458.149,547.088z"/>
			</g>
			<g>
				<circle cx="544.64" cy="383.151" r="8.833"/>
			</g>
			<g>
				<ellipse fill="#FFFFB5" cx="605.569" cy="377.001" rx="9.256" ry="20.75"/>
			</g>
			<g>
				<ellipse fill="#FAAF3B" cx="234.899" cy="501.019" rx="5.678" ry="12.729"/>
			</g>
			<g>
				<rect x="119.938" y="442.886" fill="#808080" width="244.849" height="7.066"/>
			</g>
			<g>
				<polygon fill="#B2B2B2" points="349.453,285.762 145.102,285.762 145.102,301.091 129.768,301.091 129.768,442.886 
					364.787,442.886 364.787,301.091 				"/>
			</g>
			<g>
				<rect x="129.768" y="301.091" fill="#989898" width="15.334" height="141.795"/>
			</g>
			<g>
				<path fill="#333333" d="M452.741,173.156c0,0-5.12,0.093-14.08,0.255c-8.96,0.106-21.76,0.364-37.12,0.483
					c-7.68,0.067-16,0.141-24.8,0.218c-8.8,0.074-18.08,0.18-27.682,0.184c-19.198,0.056-39.681,0.115-60.161,0.175
					c-20.48-0.059-40.96-0.118-60.161-0.173c-9.6-0.005-18.88-0.104-27.68-0.182c-8.8-0.078-17.12-0.151-24.8-0.219
					c-15.36-0.117-28.16-0.378-37.12-0.484c-8.96-0.163-14.08-0.256-14.08-0.256s5.12-0.093,14.08-0.256
					c8.96-0.106,21.76-0.367,37.12-0.484c7.68-0.068,16-0.142,24.8-0.219c8.8-0.078,18.08-0.177,27.68-0.182
					c19.2-0.055,39.681-0.114,60.161-0.173c20.48,0.06,40.96,0.119,60.161,0.175c9.602,0.004,18.882,0.11,27.682,0.184
					c8.8,0.077,17.12,0.15,24.8,0.218c15.36,0.119,28.16,0.377,37.12,0.483C447.621,173.063,452.741,173.156,452.741,173.156z"/>
			</g>
			<g>
				<path fill="#333333" d="M381.019,222.348c0,0-5.511,0.093-15.152,0.255c-9.646,0.106-23.421,0.364-39.953,0.483
					c-8.266,0.067-17.221,0.141-26.693,0.218c-9.471,0.074-19.459,0.18-29.792,0.184c-20.666,0.056-42.708,0.115-64.751,0.175
					c-22.043-0.059-44.085-0.118-64.751-0.173c-10.333-0.005-20.321-0.104-29.792-0.182c-9.472-0.078-18.427-0.151-26.693-0.219
					c-16.532-0.117-30.309-0.378-39.953-0.484c-9.644-0.163-15.154-0.256-15.154-0.256s5.511-0.093,15.154-0.256
					c9.644-0.106,23.421-0.367,39.953-0.484c8.266-0.068,17.221-0.142,26.693-0.219c9.471-0.078,19.459-0.177,29.792-0.182
					c20.666-0.055,42.708-0.114,64.751-0.173c22.043,0.06,44.085,0.119,64.751,0.175c10.333,0.004,20.321,0.11,29.792,0.184
					c9.472,0.077,18.427,0.15,26.693,0.218c16.532,0.119,30.309,0.377,39.953,0.483
					C375.508,222.255,381.019,222.348,381.019,222.348z"/>
			</g>
			<g>
				<path fill="#333333" d="M397.787,259.955c0,0-0.658,0.025-1.895,0.071c-1.233,0.042-3.045,0.105-5.35,0.184
					c-4.609,0.106-11.194,0.364-19.095,0.483c-7.902,0.116-17.12,0.335-26.997,0.418c-4.938,0.037-10.042,0.075-15.229,0.114
					c-5.186,0.015-10.453,0.03-15.721,0.046c-5.268-0.015-10.535-0.03-15.721-0.045c-5.186-0.038-10.289-0.075-15.227-0.112
					c-9.877-0.078-19.095-0.303-26.997-0.418c-7.901-0.117-14.486-0.378-19.095-0.484c-2.305-0.08-4.115-0.142-5.35-0.185
					c-1.234-0.046-1.893-0.071-1.893-0.071s0.659-0.025,1.893-0.071c1.235-0.043,3.045-0.105,5.35-0.185
					c4.609-0.106,11.194-0.367,19.095-0.484c7.902-0.115,17.12-0.34,26.997-0.418c4.938-0.037,10.042-0.074,15.227-0.112
					c5.186-0.015,10.454-0.03,15.721-0.045c5.268,0.016,10.535,0.031,15.721,0.046c5.188,0.039,10.289,0.077,15.229,0.114
					c9.877,0.083,19.095,0.302,26.997,0.418c7.899,0.119,14.484,0.377,19.095,0.483c2.305,0.079,4.115,0.142,5.35,0.184
					C397.129,259.93,397.787,259.955,397.787,259.955z"/>
			</g>
		</g>
		<g>
			<g>
				<path fill="#FF0000" d="M182.658,337.206v16.131h-5.441V313.12h15.385c4.291,0,7.624,1.105,9.999,3.315
					c2.375,2.209,3.563,5.12,3.563,8.729c0,3.665-1.188,6.588-3.563,8.77s-5.708,3.273-9.999,3.273L182.658,337.206L182.658,337.206
					z M182.658,332.925h9.944c2.725,0,4.76-0.731,6.104-2.192c1.344-1.461,2.016-3.304,2.016-5.528s-0.677-4.081-2.03-5.57
					c-1.354-1.489-3.384-2.233-6.091-2.233h-9.944L182.658,332.925L182.658,332.925z"/>
				<path fill="#FF0000" d="M219.202,353.337h-5.469V313.12h5.469V353.337z"/>
				<path fill="#FF0000" d="M233.289,349.056h22.484v4.281h-28.617v-4.061l21.49-31.875H227.46v-4.282h27.401v3.895L233.289,349.056
					z"/>
				<path fill="#FF0000" d="M267.126,349.056h22.484v4.281h-28.617v-4.061l21.49-31.875h-21.186v-4.282h27.401v3.895
					L267.126,349.056z"/>
				<path fill="#FF0000" d="M319.276,342.979h-16.851l-3.812,10.358h-5.552l15.551-40.218h4.668l15.303,40.218h-5.552
					L319.276,342.979z M304.111,338.421h13.537l-6.631-18.313h-0.166L304.111,338.421z"/>
			</g>
			<g>
				<path fill="#FF0000" d="M176.822,388.839v-24.278h8.771c2.856,0,5.247,0.931,7.17,2.793c1.923,1.862,2.885,4.249,2.885,7.162
					v4.369c0,2.924-0.962,5.313-2.885,7.17c-1.923,1.856-4.313,2.785-7.17,2.785L176.822,388.839L176.822,388.839z M182.475,368.896
					v15.607h2.734c1.501,0,2.673-0.514,3.519-1.542c0.844-1.028,1.267-2.387,1.267-4.077v-4.402c0-1.678-0.423-3.029-1.267-4.052
					c-0.845-1.022-2.018-1.534-3.519-1.534H182.475z"/>
				<path fill="#FF0000" d="M214.306,378.451h-9.521v6.053h11.222v4.335h-16.875v-24.278h16.908v4.335h-11.255v5.219h9.521V378.451z
					"/>
				<path fill="#FF0000" d="M224.211,384.503h10.455v4.335h-16.107V364.56h5.653L224.211,384.503L224.211,384.503z"/>
				<path fill="#FF0000" d="M243.053,388.839h-5.62v-24.278h5.62V388.839z"/>
				<path fill="#FF0000" d="M255.959,382.252l0.167,0.884h0.1l0.167-0.817l4.819-17.758h5.903l-7.87,24.278h-6.086l-7.837-24.278
					h5.886L255.959,382.252z"/>
				<path fill="#FF0000" d="M284.172,378.451h-9.521v6.053h11.222v4.335h-16.875v-24.278h16.908v4.335h-11.255v5.219h9.521V378.451
					L284.172,378.451z"/>
				<path fill="#FF0000" d="M294.077,379.535v9.304h-5.653v-24.278h9.338c2.812,0,5.041,0.65,6.686,1.951
					c1.646,1.301,2.468,3.08,2.468,5.336c0,1.256-0.331,2.334-0.992,3.235c-0.662,0.9-1.637,1.634-2.927,2.201
					c1.49,0.422,2.56,1.125,3.21,2.109c0.65,0.984,0.976,2.209,0.976,3.677v1.534c0,0.634,0.096,1.356,0.284,2.167
					c0.188,0.812,0.519,1.39,0.983,1.734v0.333h-5.803c-0.444-0.344-0.736-0.956-0.875-1.834s-0.208-1.69-0.208-2.435v-1.467
					c0-1.156-0.306-2.04-0.917-2.651c-0.611-0.611-1.506-0.917-2.685-0.917L294.077,379.535L294.077,379.535z M294.077,375.199
					h3.718c1.134,0,2.001-0.258,2.601-0.775c0.601-0.517,0.9-1.259,0.9-2.226c0-0.989-0.308-1.787-0.925-2.393
					c-0.617-0.606-1.487-0.909-2.609-0.909h-3.685V375.199z"/>
				<path fill="#FF0000" d="M319.122,375.166h0.1l4.835-10.605h6.12l-8.254,15.741v8.537h-5.619v-8.821l-8.087-15.457h6.086
					L319.122,375.166z"/>
			</g>
			<g>
				<path fill="#FF0000" d="M181.549,425.304c1.245,0,2.242-0.47,2.99-1.41c0.748-0.938,1.122-2.338,1.122-4.191v-0.856
					c-0.424,0.614-0.953,1.079-1.589,1.396c-0.636,0.314-1.343,0.474-2.121,0.474c-1.825,0-3.273-0.563-4.346-1.69
					c-1.072-1.131-1.608-2.686-1.608-4.664c0-1.896,0.568-3.445,1.706-4.656c1.138-1.211,2.519-1.816,4.145-1.816
					c1.972,0,3.526,0.616,4.663,1.851c1.137,1.231,1.706,3.046,1.706,5.439v4.501c0,2.465-0.616,4.354-1.849,5.669
					c-1.233,1.315-2.839,1.974-4.819,1.974c-0.666,0-1.343-0.063-2.03-0.189c-0.688-0.126-1.304-0.318-1.849-0.581l0.389-1.967
					c0.51,0.269,1.04,0.456,1.589,0.563C180.197,425.253,180.832,425.304,181.549,425.304z M181.952,418.701
					c0.942,0,1.727-0.203,2.354-0.608c0.627-0.406,1.079-0.924,1.355-1.555v-1.632c0-1.649-0.318-2.896-0.953-3.743
					c-0.636-0.847-1.563-1.271-2.783-1.271c-0.934,0-1.729,0.417-2.387,1.25c-0.658,0.833-0.986,1.902-0.986,3.206
					c0,1.295,0.305,2.346,0.915,3.147C180.077,418.3,180.905,418.701,181.952,418.701z"/>
				<path fill="#FF0000" d="M196.505,425.304c1.245,0,2.242-0.47,2.99-1.41c0.748-0.938,1.122-2.338,1.122-4.191v-0.856
					c-0.424,0.614-0.953,1.079-1.589,1.396c-0.636,0.314-1.343,0.474-2.121,0.474c-1.825,0-3.273-0.563-4.346-1.69
					c-1.072-1.131-1.608-2.686-1.608-4.664c0-1.896,0.568-3.445,1.706-4.656c1.138-1.211,2.519-1.816,4.145-1.816
					c1.972,0,3.526,0.616,4.663,1.851c1.137,1.231,1.706,3.046,1.706,5.439v4.501c0,2.465-0.616,4.354-1.849,5.669
					c-1.233,1.315-2.839,1.974-4.819,1.974c-0.666,0-1.343-0.063-2.03-0.189c-0.688-0.126-1.304-0.318-1.849-0.581l0.389-1.967
					c0.51,0.269,1.04,0.456,1.589,0.563C195.153,425.253,195.788,425.304,196.505,425.304z M196.908,418.701
					c0.942,0,1.727-0.203,2.354-0.608c0.627-0.406,1.079-0.924,1.355-1.555v-1.632c0-1.649-0.318-2.896-0.953-3.743
					c-0.636-0.847-1.563-1.271-2.783-1.271c-0.934,0-1.729,0.417-2.387,1.25c-0.658,0.833-0.986,1.902-0.986,3.206
					c0,1.295,0.305,2.346,0.915,3.147C195.033,418.3,195.861,418.701,196.908,418.701z"/>
				<path fill="#FF0000" d="M211.461,425.304c1.245,0,2.242-0.47,2.99-1.41c0.748-0.938,1.122-2.338,1.122-4.191v-0.856
					c-0.424,0.614-0.953,1.079-1.589,1.396c-0.636,0.314-1.343,0.474-2.121,0.474c-1.825,0-3.273-0.563-4.346-1.69
					c-1.072-1.131-1.608-2.686-1.608-4.664c0-1.896,0.568-3.445,1.706-4.656c1.138-1.211,2.519-1.816,4.145-1.816
					c1.972,0,3.526,0.616,4.663,1.851c1.137,1.231,1.706,3.046,1.706,5.439v4.501c0,2.465-0.616,4.354-1.849,5.669
					c-1.233,1.315-2.839,1.974-4.819,1.974c-0.666,0-1.343-0.063-2.03-0.189c-0.688-0.126-1.304-0.318-1.849-0.581l0.389-1.967
					c0.51,0.269,1.04,0.456,1.589,0.563C210.109,425.253,210.744,425.304,211.461,425.304z M211.864,418.701
					c0.942,0,1.727-0.203,2.354-0.608c0.627-0.406,1.079-0.924,1.355-1.555v-1.632c0-1.649-0.318-2.896-0.953-3.743
					c-0.636-0.847-1.563-1.271-2.783-1.271c-0.934,0-1.729,0.417-2.387,1.25c-0.658,0.833-0.986,1.902-0.986,3.206
					c0,1.295,0.305,2.346,0.915,3.147C209.989,418.3,210.817,418.701,211.864,418.701z"/>
				<path fill="#FF0000" d="M233.202,420.063h-6.356v-1.996h6.356V420.063z"/>
				<path fill="#FF0000" d="M235.938,418.52l1.089-10.362h9.457v2.271h-7.29l-0.623,5.307c0.397-0.295,0.841-0.538,1.33-0.732
					c0.488-0.194,1.053-0.301,1.693-0.318c1.738-0.017,3.106,0.552,4.105,1.7c0.999,1.149,1.498,2.697,1.498,4.646
					c0,1.894-0.508,3.416-1.524,4.563c-1.016,1.15-2.497,1.728-4.442,1.728c-1.6,0-2.932-0.438-3.995-1.313
					c-1.064-0.873-1.574-2.157-1.531-3.853l0.026-0.077h2.309c0,1.022,0.296,1.817,0.888,2.384c0.592,0.563,1.36,0.846,2.303,0.846
					c1.081,0,1.919-0.38,2.516-1.14s0.895-1.801,0.895-3.121c0-1.209-0.303-2.202-0.908-2.979c-0.605-0.777-1.44-1.165-2.503-1.165
					c-1.003,0-1.73,0.149-2.179,0.454c-0.45,0.303-0.778,0.765-0.986,1.388L235.938,418.52z"/>
				<path fill="#FF0000" d="M250.895,418.52l1.089-10.362h9.457v2.271h-7.29l-0.623,5.307c0.397-0.295,0.841-0.538,1.33-0.732
					c0.488-0.194,1.053-0.301,1.693-0.318c1.738-0.017,3.106,0.552,4.105,1.7c0.999,1.149,1.498,2.697,1.498,4.646
					c0,1.894-0.508,3.416-1.524,4.563c-1.016,1.15-2.497,1.728-4.442,1.728c-1.6,0-2.932-0.438-3.995-1.313
					c-1.064-0.873-1.574-2.157-1.531-3.853l0.026-0.077h2.309c0,1.022,0.296,1.817,0.888,2.384c0.592,0.563,1.36,0.846,2.303,0.846
					c1.081,0,1.919-0.38,2.516-1.14c0.597-0.76,0.895-1.801,0.895-3.121c0-1.209-0.303-2.202-0.908-2.979
					c-0.605-0.777-1.44-1.165-2.503-1.165c-1.003,0-1.73,0.149-2.179,0.454c-0.45,0.303-0.778,0.765-0.986,1.388L250.895,418.52z"/>
				<path fill="#FF0000" d="M265.851,418.52l1.089-10.362h9.457v2.271h-7.29l-0.623,5.307c0.397-0.295,0.841-0.538,1.33-0.732
					c0.488-0.194,1.053-0.301,1.693-0.318c1.738-0.017,3.106,0.552,4.105,1.7c0.999,1.149,1.498,2.697,1.498,4.646
					c0,1.894-0.508,3.416-1.524,4.563c-1.016,1.15-2.497,1.728-4.442,1.728c-1.6,0-2.932-0.438-3.995-1.313
					c-1.064-0.873-1.574-2.157-1.531-3.853l0.026-0.077h2.309c0,1.022,0.296,1.817,0.888,2.384c0.592,0.563,1.36,0.846,2.303,0.846
					c1.081,0,1.919-0.38,2.516-1.14c0.597-0.76,0.895-1.801,0.895-3.121c0-1.209-0.303-2.202-0.908-2.979
					c-0.605-0.777-1.44-1.165-2.503-1.165c-1.003,0-1.73,0.149-2.179,0.454c-0.45,0.303-0.778,0.765-0.986,1.388L265.851,418.52z"/>
				<path fill="#FF0000" d="M285.347,420.063h-6.356v-1.996h6.356V420.063z"/>
				<path fill="#FF0000" d="M288.083,418.52l1.089-10.362h9.457v2.271h-7.29l-0.623,5.307c0.397-0.295,0.841-0.538,1.33-0.732
					c0.488-0.194,1.053-0.301,1.693-0.318c1.738-0.017,3.106,0.552,4.105,1.7c0.999,1.149,1.498,2.697,1.498,4.646
					c0,1.894-0.508,3.416-1.524,4.563c-1.016,1.15-2.497,1.728-4.442,1.728c-1.6,0-2.932-0.438-3.995-1.313
					c-1.064-0.873-1.574-2.157-1.531-3.853l0.026-0.077h2.309c0,1.022,0.296,1.817,0.888,2.384c0.592,0.563,1.36,0.846,2.303,0.846
					c1.081,0,1.919-0.38,2.516-1.14c0.597-0.76,0.895-1.801,0.895-3.121c0-1.209-0.303-2.202-0.908-2.979
					c-0.605-0.777-1.44-1.165-2.503-1.165c-1.003,0-1.73,0.149-2.179,0.454c-0.45,0.303-0.778,0.765-0.986,1.388L288.083,418.52z"/>
				<path fill="#FF0000" d="M303.04,418.52l1.089-10.362h9.457v2.271h-7.29l-0.623,5.307c0.397-0.295,0.841-0.538,1.33-0.732
					c0.488-0.194,1.053-0.301,1.693-0.318c1.736-0.017,3.104,0.552,4.104,1.7c0.999,1.149,1.498,2.697,1.498,4.646
					c0,1.894-0.508,3.416-1.522,4.563c-1.018,1.15-2.497,1.728-4.442,1.728c-1.6,0-2.932-0.438-3.995-1.313
					c-1.064-0.873-1.574-2.157-1.531-3.853l0.026-0.077h2.309c0,1.022,0.296,1.817,0.888,2.384c0.592,0.563,1.358,0.846,2.303,0.846
					c1.081,0,1.919-0.38,2.516-1.14c0.599-0.76,0.896-1.801,0.896-3.121c0-1.209-0.303-2.202-0.908-2.979
					c-0.604-0.776-1.438-1.165-2.503-1.165c-1.003,0-1.73,0.149-2.179,0.454c-0.45,0.303-0.778,0.765-0.986,1.388L303.04,418.52z"/>
				<path fill="#FF0000" d="M317.996,418.52l1.089-10.362h9.457v2.271h-7.29l-0.623,5.307c0.397-0.295,0.841-0.538,1.33-0.732
					c0.488-0.194,1.053-0.301,1.693-0.318c1.736-0.017,3.104,0.552,4.104,1.7c0.999,1.149,1.498,2.697,1.498,4.646
					c0,1.894-0.508,3.416-1.523,4.563c-1.017,1.15-2.496,1.728-4.441,1.728c-1.6,0-2.932-0.438-3.995-1.313
					c-1.063-0.873-1.574-2.157-1.531-3.853l0.026-0.077h2.309c0,1.022,0.296,1.817,0.89,2.384c0.592,0.563,1.358,0.846,2.303,0.846
					c1.081,0,1.919-0.38,2.516-1.14c0.599-0.76,0.896-1.801,0.896-3.121c0-1.209-0.304-2.202-0.908-2.979s-1.44-1.165-2.503-1.165
					c-1.003,0-1.73,0.149-2.179,0.454c-0.45,0.303-0.778,0.765-0.986,1.388L317.996,418.52z"/>
			</g>
			<g>
				<rect x="176.431" y="398.005" width="153.236" height="2.334"/>
			</g>
		</g>
	</g>
</g>
</svg>
