<?xml version="1.0" encoding="utf-8"?>
<!-- Generator: Adobe Illustrator 16.0.0, SVG Export Plug-In . SVG Version: 6.00 Build 0)  -->
<!DOCTYPE svg PUBLIC "-//W3C//DTD SVG 1.1//EN" "http://www.w3.org/Graphics/SVG/1.1/DTD/svg11.dtd">
<svg version="1.1" id="Layer_1" xmlns="http://www.w3.org/2000/svg" xmlns:xlink="http://www.w3.org/1999/xlink" x="0px" y="0px"
	 width="797px" height="484px" viewBox="26 5.5 797 484" enable-background="new 26 5.5 797 484" xml:space="preserve">
<rect x="58" fill="#FFFFFF" width="702" height="500"/>
<g>
	<path fill="#12365A" d="M496.391,98.21H323.609c-6.461,0-11.698,5.237-11.698,11.698v334.023c0,6.461,5.237,11.698,11.698,11.698
		h172.78c6.461,0,11.698-5.237,11.698-11.698V109.909C508.089,103.448,502.852,98.21,496.391,98.21z"/>
	<path opacity="0.3" fill="#12365A" enable-background="new    " d="M426.908,114.061h-33.816c-1.239,0-2.243-1.004-2.243-2.243l0,0
		c0-1.239,1.004-2.243,2.243-2.243h33.816c1.239,0,2.243,1.004,2.243,2.243l0,0C429.151,113.057,428.147,114.061,426.908,114.061z"
		/>
	<circle opacity="0.3" fill="#12365A" enable-background="new    " cx="447.083" cy="112.127" r="5.25"/>
	<circle opacity="0.3" fill="#12365A" enable-background="new    " cx="410" cy="435.631" r="12.797"/>
	<circle fill="#12365A" cx="447.083" cy="112.127" r="2.052"/>
	<rect x="325.864" y="126.144" fill="#E8F5FD" width="168.272" height="292.072"/>
</g>
<ellipse opacity="0.5" fill="#99D7DB" enable-background="new    " cx="377.917" cy="453.377" rx="166.14" ry="30.544"/>
<g>
	<path fill="#99D7DB" d="M560.096,288.936c11.736-6.233,24.056-11.961,33.525-21.283c9.47-9.321,15.661-23.345,11.707-36.031
		c-4.527-14.528-19.891-22.152-33.098-29.711c-12.047-6.895-23.403-14.993-33.849-24.134c-5.49-4.806-10.889-10.133-13.497-16.947
		c-1.3-3.397-1.855-7.049-3.236-10.414c-5.429-13.233-22.235-18.369-36.339-15.981c-14.103,2.388-26.53,10.306-39.47,16.402
		c-16.854,7.942-35.095,12.935-53.645,14.685c-17.235,1.626-34.778,0.489-51.725,4.031c-16.944,3.542-34.005,13.02-40.513,29.062
		c-10.695,26.362,10.948,57.24,1.595,84.107c-6.095,17.51-23.54,28.084-34.95,42.695c-9.208,11.792-14.528,26.811-13.623,41.743
		c0.905,14.934,8.332,29.583,20.533,38.243c16.464,11.686,38.89,11.26,58.224,5.442c19.333-5.815,36.879-16.344,55.613-23.868
		c16.125-6.479,33.146-10.719,50.424-12.563c21.143-2.258,50.415-0.035,65.851-17.675c6.562-7.498,10.551-16.832,14.907-25.793
		C527.766,311.955,541.555,298.788,560.096,288.936z"/>
	<path fill="#99D7DB" d="M277.809,263.818c5.417-7.437,2.657-20.271,0.843-28.473c-2.078-9.392-7.417-19.788-18.613-17.49
		c-1.674,0.344-3.342,1.028-4.487,2.297c-1.78,1.969-1.949,4.867-2.024,7.521c-0.365,12.818,10.571,19.918,13.083,31.937
		C267.866,265.621,273.371,269.913,277.809,263.818z"/>
	<path fill="#99D7DB" d="M558.977,335.831c7.104,2.11,9.672,9.729,9.224,17.918c-0.388,7.08-0.547,13.899,3.793,19.922
		c4.296,5.965,11.221,10.433,8.431,18.911c-1.788,5.436-7.596,9.249-13.294,8.729c-7.353-0.67-12.655-7.336-19.548-9.979
		c-5.615-2.154-11.849-1.492-17.862-1.469c-6.014,0.021-12.589-0.891-16.719-5.264c-4.285-4.533-4.633-11.899-1.823-17.471
		c3.238-6.421,9.206-8.238,14.244-12.505c5.658-4.792,9.231-11.244,15.856-15.101c3.541-2.062,7.391-3.748,11.467-4.164
		C555.123,335.119,557.193,335.301,558.977,335.831z"/>
</g>
<path fill="#4DBED8" d="M270.297,319.902c-0.026-12.034,5.309-22.41,13.162-31.537c8.57-9.961,10.149-24.282,6.849-37.082
	c-2.994-11.609-10.39-22.861-7.991-34.609c2.841-13.916,18.137-21.479,32.135-23.887c27.088-4.659,54.855,2.188,82.292,0.528
	c20.272-1.227,40.108-7.123,58.433-15.882c10.558-5.046,21.627-11.226,33.199-9.497c11.91,1.779,21.013,11.595,27.208,21.921
	c6.195,10.326,10.612,21.838,18.466,30.966c4.046,4.702,8.914,8.656,12.844,13.456c3.93,4.8,6.949,10.821,6.301,16.991
	c-0.575,5.465-3.907,10.209-7.311,14.525c-7.058,8.954-14.91,17.283-23.434,24.857c-4.506,4.005-9.204,7.803-13.49,12.043
	c-14.869,14.713-24.646,34.593-41.886,46.438c-13.727,9.432-31.507,12.725-47.7,8.833c-10.082-2.423-19.421-7.444-29.57-9.569
	c-15.991-3.348-34.974,0.473-49.856,6.774c-14.827,6.278-27.559,11.527-43.61,4.425c-14.153-6.261-24.421-20.533-25.859-35.943
	C270.358,322.387,270.299,321.136,270.297,319.902z"/>
<path opacity="0.5" fill="#4DBED8" enable-background="new    " d="M434.944,235.977l-58.602-1.242
	c-7.372-0.156-13.475,5.692-13.631,13.064l-0.802,37.854c-0.156,7.371,5.692,13.475,13.064,13.631l58.602,1.242
	c7.372,0.156,13.475-5.693,13.63-13.065l0.803-37.853C448.165,242.234,442.316,236.133,434.944,235.977z"/>
<path fill="#EA5B2C" d="M427.202,230.129l-57.425,11.748c-7.225,1.478-11.883,8.531-10.404,15.755l7.588,37.095
	c1.479,7.224,8.532,11.881,15.756,10.402l57.425-11.748c7.225-1.479,11.882-8.531,10.404-15.755l-7.589-37.093
	C441.479,233.309,434.425,228.65,427.202,230.129z"/>
<path fill="#FFFFFF" d="M391.842,280.559v-24.449c0-3.092,3.229-5.125,6.018-3.787l25.473,12.225c3.177,1.525,3.177,6.049,0,7.573
	l-25.473,12.226C395.071,285.684,391.842,283.65,391.842,280.559z"/>
<path fill="#99D7DB" d="M586.2,306.382l4.578-1.004c1.736-0.381,1.736-2.856,0-3.237l-4.578-1.004
	c-0.632-0.139-1.126-0.633-1.266-1.265l-1.003-7.835c-0.381-1.737-2.857-1.737-3.237,0l-1.003,7.835
	c-0.14,0.632-0.634,1.126-1.267,1.265l-4.578,1.004c-1.735,0.381-1.735,2.856,0,3.237l4.578,1.004
	c0.633,0.14,1.127,0.632,1.267,1.265l1.003,7.836c0.38,1.736,2.856,1.736,3.237,0l1.003-7.836
	C585.074,307.014,585.568,306.521,586.2,306.382z"/>
<path fill="#99D7DB" d="M244.583,304.178l4.578-1.004c1.737-0.381,1.737-2.857,0-3.238l-4.578-1.002
	c-0.632-0.14-1.126-0.634-1.264-1.266l-1.004-7.836c-0.38-1.736-2.857-1.736-3.238,0l-1.003,7.836
	c-0.139,0.632-0.632,1.126-1.265,1.266l-4.578,1.002c-1.737,0.381-1.737,2.857,0,3.238l4.578,1.004
	c0.632,0.139,1.126,0.633,1.265,1.264l1.003,7.836c0.38,1.738,2.857,1.738,3.238,0l1.004-7.836
	C243.457,304.811,243.95,304.316,244.583,304.178z"/>
<path fill="#99D7DB" d="M219.299,205.916l2.522-0.553c0.957-0.21,0.957-1.574,0-1.784l-2.522-0.553
	c-0.348-0.076-0.62-0.348-0.696-0.696l-0.553-4.316c-0.21-0.957-1.574-0.957-1.784,0l-0.553,4.316
	c-0.076,0.348-0.348,0.62-0.696,0.696l-2.522,0.553c-0.957,0.21-0.957,1.574,0,1.784l2.522,0.553
	c0.348,0.076,0.62,0.348,0.696,0.696l0.553,4.316c0.21,0.957,1.574,0.957,1.784,0l0.553-4.316
	C218.679,206.264,218.951,205.992,219.299,205.916z"/>
<path fill="#99D7DB" d="M588.588,179.571l2.521-0.553c0.957-0.209,0.957-1.574,0-1.784l-2.521-0.553
	c-0.348-0.076-0.62-0.348-0.696-0.696l-0.553-4.316c-0.21-0.957-1.574-0.957-1.784,0l-0.553,4.316
	c-0.076,0.348-0.348,0.62-0.696,0.696l-2.521,0.553c-0.956,0.21-0.956,1.574,0,1.784l2.521,0.553c0.35,0.076,0.62,0.348,0.696,0.696
	l0.553,4.316c0.21,0.957,1.574,0.957,1.784,0l0.553-4.316C587.968,179.919,588.24,179.647,588.588,179.571z"/>
<path fill="#99D7DB" d="M605.68,325.536l2.522-0.554c0.957-0.209,0.957-1.573,0-1.783l-2.522-0.553
	c-0.348-0.076-0.619-0.349-0.694-0.696l-0.554-4.316c-0.21-0.957-1.573-0.957-1.783,0l-0.554,4.316
	c-0.077,0.349-0.349,0.62-0.695,0.696l-2.522,0.553c-0.956,0.21-0.956,1.574,0,1.783l2.522,0.554
	c0.348,0.075,0.618,0.348,0.695,0.696l0.554,4.315c0.21,0.957,1.573,0.957,1.783,0l0.554-4.315
	C605.061,325.884,605.332,325.611,605.68,325.536z"/>
<path fill="#99D7DB" d="M524.141,52.197l2.522-0.553c0.957-0.209,0.957-1.574,0-1.784l-2.522-0.553
	c-0.348-0.076-0.619-0.348-0.694-0.696l-0.554-4.316c-0.211-0.957-1.573-0.957-1.784,0l-0.554,4.316
	c-0.075,0.348-0.348,0.62-0.694,0.696l-2.522,0.553c-0.957,0.21-0.957,1.574,0,1.784l2.522,0.553
	c0.348,0.077,0.619,0.349,0.694,0.697l0.554,4.316c0.211,0.957,1.573,0.957,1.784,0l0.554-4.316
	C523.521,52.546,523.793,52.274,524.141,52.197z"/>
<path fill="#F37547" d="M365.423,265.52c-1.572-1.916-1.748-4.748-1.839-7.109c-0.105-2.751,0.25-5.577,1.698-7.972
	c1.255-2.077,3.216-3.6,5.394-4.617c1.528-0.715,5.327-2.504,6.787-1c0.684,2.246-2.466,2.408-3.752,3.105
	c-1.95,1.057-3.25,3.086-3.792,5.237c-0.541,2.151-0.395,4.422,0.003,6.604c0.268,1.461,0.643,2.993,0.164,4.4
	c-0.727,2.145-3.077,3.254-4.638,1.379C365.44,265.538,365.432,265.527,365.423,265.52z"/>
<path fill="#98D7DA" d="M245.057,73.821c7.581-0.096,15.448-0.008,22.308,3.219c10.909,5.132,16.924,17.104,19.82,28.807
	c2.204,8.908,3.042,18.454,0.142,27.159c-3.448,10.35-15,17.152-13.889,28.78c0.114,1.192,0.353,2.395,0.939,3.439
	c1.576,2.808,4.092,2.209,6.229,3.688c2.101,1.454,0.564,3.839-1.57,4.698c-5.454,2.195-11.903,3.995-17.833,4.399
	c-7.831,0.534-15.668-0.842-23.308-2.641c-1.79-0.422-3.578-0.869-5.302-1.507c-2.856-1.059-5.49-2.629-8.104-4.192
	c-6.542-3.913-13.148-7.898-18.519-13.308c-7.873-7.93-12.76-18.869-13.524-29.965c-1.008-14.64,0.833-30.871,11.413-41.04
	C214.4,75.223,230.435,74.006,245.057,73.821z"/>
<path fill="#E8F5FD" d="M266,123.026h-57.667c-0.736,0-1.333-0.597-1.333-1.333l0,0c0-0.736,0.597-1.333,1.333-1.333H266
	c0.736,0,1.333,0.597,1.333,1.333l0,0C267.333,122.43,266.736,123.026,266,123.026z"/>
<path fill="#E8F5FD" d="M266,142.25h-57.667c-0.736,0-1.333-0.597-1.333-1.333l0,0c0-0.736,0.597-1.333,1.333-1.333H266
	c0.736,0,1.333,0.597,1.333,1.333l0,0C267.333,141.653,266.736,142.25,266,142.25z"/>
<path fill="#99D7DB" d="M569.676,74.202c-5.846-0.074-11.912-0.006-17.201,2.482c-8.411,3.957-13.051,13.188-15.282,22.213
	c-1.699,6.869-2.348,14.229-0.11,20.943c2.659,7.981,11.567,13.227,10.71,22.193c-0.088,0.918-0.271,1.847-0.724,2.651
	c-1.217,2.165-3.155,1.704-4.805,2.844c-1.619,1.121-0.435,2.96,1.211,3.622c4.206,1.693,9.18,3.081,13.752,3.393
	c6.038,0.412,12.081-0.649,17.974-2.037c1.38-0.325,2.759-0.669,4.088-1.162c2.203-0.817,4.234-2.027,6.25-3.233
	c5.044-3.017,10.139-6.09,14.279-10.262c6.07-6.115,9.84-14.55,10.429-23.106c0.777-11.289-0.643-23.805-8.8-31.647
	C593.316,75.283,580.951,74.344,569.676,74.202z"/>
<g>
	<path fill="#E8F5FD" d="M552.232,105.783H598.9c0.735,0,1.332-0.597,1.332-1.333l0,0c0-0.736-0.597-1.333-1.332-1.333h-46.668
		c-0.736,0-1.332,0.597-1.332,1.333l0,0C550.9,105.186,551.496,105.783,552.232,105.783z"/>
	<path fill="#E8F5FD" d="M552.232,125.006H598.9c0.735,0,1.332-0.597,1.332-1.333l0,0c0-0.736-0.597-1.333-1.332-1.333h-46.668
		c-0.736,0-1.332,0.597-1.332,1.333l0,0C550.9,124.409,551.496,125.006,552.232,125.006z"/>
</g>
<path fill="#E8F5FD" d="M266,103.803h-41.667c-0.736,0-1.333-0.597-1.333-1.333l0,0c0-0.736,0.597-1.333,1.333-1.333H266
	c0.736,0,1.333,0.597,1.333,1.333l0,0C267.333,103.207,266.736,103.803,266,103.803z"/>
<path fill="#99D7DB" d="M279.358,76.167c-4.229-10.766,9.383-22.111,22.171-23.388c5.526-0.551,11.431,0.807,15.5,4.588
	c4.913,4.566,6.368,12.278,3.963,18.54c-2.404,6.262-8.306,10.903-14.856,12.341c-6.552,1.438-13.595-0.165-19.235-3.795
	C282.882,81.866,280.486,79.037,279.358,76.167z"/>
<text transform="matrix(1 0 0 1 342.6133 46.5811)" fill="#98D7DA" font-family="'ArialMT'" font-size="19.6182">SOCIAL MEDIA</text>
<text transform="matrix(1 0 0 1 333.1763 66.123)" fill="#98D7DA" font-family="'ArialMT'" font-size="19.6182">LIVE STREAMING</text>
<g>
	<g>
		<g>
			<path fill="#98D7DA" d="M302.034,409.813c-0.707,0-1.412-0.01-2.116-0.028c-0.552-0.017-0.987-0.477-0.972-1.028
				c0.016-0.542,0.46-0.972,1-0.972c0.009,0,0.019,0,0.028,0c1.938,0.056,3.905,0.032,5.921-0.069
				c0.54-0.038,1.021,0.397,1.049,0.949c0.026,0.552-0.397,1.021-0.949,1.049C304.659,409.779,303.326,409.813,302.034,409.813z
				 M293.966,409.356c-0.038,0-0.077-0.003-0.116-0.008c-2.048-0.236-4.071-0.57-6.014-0.991c-0.54-0.117-0.883-0.649-0.766-1.189
				c0.117-0.54,0.652-0.883,1.189-0.766c1.879,0.406,3.837,0.729,5.82,0.961c0.549,0.063,0.941,0.56,0.878,1.107
				C294.899,408.981,294.467,409.356,293.966,409.356z M311.92,409.193c-0.498,0-0.93-0.371-0.991-0.879
				c-0.066-0.549,0.322-1.048,0.871-1.113c1.938-0.238,3.91-0.547,5.86-0.92c0.543-0.102,1.064,0.252,1.17,0.795
				c0.104,0.542-0.252,1.065-0.795,1.17c-1.994,0.381-4.01,0.697-5.993,0.938C312.001,409.191,311.96,409.193,311.92,409.193z
				 M323.702,406.957c-0.445,0-0.854-0.3-0.968-0.752c-0.138-0.535,0.186-1.08,0.721-1.217c1.331-0.342,2.676-0.715,3.997-1.112
				c0.573-0.172,1.145-0.348,1.714-0.529c0.523-0.168,1.088,0.123,1.256,0.65c0.167,0.526-0.124,1.088-0.649,1.256
				c-0.579,0.184-1.16,0.363-1.743,0.539c-1.349,0.405-2.721,0.786-4.077,1.134C323.868,406.947,323.784,406.957,323.702,406.957z
				 M282.263,406.8c-0.104,0-0.211-0.017-0.316-0.052c-1.953-0.65-3.863-1.414-5.677-2.27c-0.5-0.234-0.714-0.83-0.479-1.329
				c0.234-0.5,0.83-0.717,1.33-0.479c1.743,0.82,3.579,1.555,5.458,2.18c0.523,0.176,0.807,0.741,0.632,1.267
				C283.072,406.535,282.682,406.8,282.263,406.8z M335.146,403.362c-0.408,0-0.791-0.252-0.939-0.657
				c-0.189-0.52,0.078-1.093,0.597-1.282c1.8-0.656,3.672-1.379,5.563-2.146c0.511-0.207,1.096,0.038,1.303,0.551
				c0.207,0.512-0.039,1.096-0.551,1.303c-1.914,0.775-3.809,1.506-5.63,2.171C335.376,403.343,335.261,403.362,335.146,403.362z
				 M271.44,401.685c-0.184,0-0.369-0.051-0.536-0.155c-0.663-0.422-1.319-0.863-1.966-1.322c-1.012-0.718-2.012-1.493-2.974-2.303
				c-0.422-0.355-0.476-0.986-0.12-1.409c0.354-0.422,0.986-0.478,1.409-0.12c0.919,0.774,1.875,1.515,2.843,2.201
				c0.619,0.438,1.246,0.86,1.882,1.266c0.466,0.296,0.604,0.914,0.307,1.381C272.095,401.521,271.771,401.685,271.44,401.685z
				 M346.272,398.872c-0.387,0-0.754-0.224-0.917-0.6c-0.223-0.507,0.01-1.097,0.516-1.316c1.825-0.798,3.643-1.616,5.455-2.449
				c0.505-0.231,1.097-0.012,1.326,0.49c0.23,0.502,0.012,1.096-0.49,1.326c-1.824,0.839-3.653,1.663-5.49,2.465
				C346.542,398.846,346.405,398.872,346.272,398.872z M262.286,393.984c-0.271,0-0.54-0.109-0.737-0.324
				c-1.362-1.487-2.655-3.09-3.844-4.764c-0.319-0.449-0.214-1.073,0.236-1.395c0.451-0.32,1.074-0.214,1.395,0.236
				c1.141,1.604,2.381,3.144,3.688,4.568c0.373,0.407,0.346,1.041-0.062,1.414C262.77,393.896,262.527,393.984,262.286,393.984z
				 M357.183,393.876c-0.375,0-0.733-0.211-0.904-0.571c-0.235-0.5-0.022-1.097,0.477-1.332c1.808-0.854,3.611-1.715,5.417-2.574
				c0.5-0.237,1.096-0.025,1.332,0.474c0.238,0.498,0.026,1.095-0.473,1.332c-1.807,0.86-3.612,1.722-5.421,2.577
				C357.471,393.846,357.325,393.876,357.183,393.876z M368.025,388.732c-0.376,0-0.735-0.211-0.906-0.574
				c-0.234-0.499-0.021-1.096,0.479-1.33c1.814-0.854,3.634-1.696,5.458-2.523c0.503-0.228,1.097-0.005,1.324,0.498
				c0.229,0.504,0.005,1.096-0.498,1.324c-1.816,0.823-3.628,1.663-5.435,2.512C368.313,388.703,368.168,388.732,368.025,388.732z
				 M255.345,384.232c-0.354,0-0.697-0.188-0.879-0.521c-0.968-1.771-1.848-3.63-2.615-5.523c-0.207-0.513,0.039-1.096,0.551-1.303
				c0.51-0.208,1.096,0.039,1.303,0.551c0.739,1.823,1.586,3.612,2.518,5.316c0.265,0.484,0.086,1.092-0.398,1.357
				C255.671,384.193,255.507,384.232,255.345,384.232z M378.958,383.79c-0.388,0-0.757-0.228-0.919-0.606
				c-0.218-0.508,0.018-1.096,0.525-1.313c1.466-0.628,2.938-1.242,4.419-1.835l1.157-0.46c0.514-0.2,1.095,0.051,1.297,0.564
				s-0.051,1.094-0.563,1.297l-1.146,0.455c-1.468,0.588-2.925,1.193-4.377,1.815C379.224,383.766,379.09,383.79,378.958,383.79z
				 M390.123,379.396c-0.41,0-0.795-0.256-0.941-0.664c-0.187-0.52,0.084-1.092,0.604-1.277c1.875-0.671,3.796-1.324,5.711-1.941
				c0.523-0.166,1.089,0.119,1.259,0.646c0.169,0.524-0.119,1.089-0.646,1.259c-1.896,0.609-3.795,1.257-5.65,1.921
				C390.349,379.378,390.235,379.396,390.123,379.396z M401.542,375.715c-0.435,0-0.835-0.285-0.961-0.724
				c-0.152-0.53,0.153-1.085,0.685-1.237c1.91-0.55,3.869-1.08,5.821-1.576c0.526-0.138,1.078,0.187,1.215,0.723
				c0.138,0.535-0.187,1.08-0.723,1.216c-1.932,0.491-3.87,1.017-5.761,1.561C401.726,375.702,401.633,375.715,401.542,375.715z
				 M250.84,373.136c-0.437,0-0.839-0.288-0.962-0.729c-0.549-1.963-0.99-3.971-1.312-5.969c-0.088-0.545,0.283-1.059,0.828-1.146
				c0.543-0.092,1.059,0.283,1.146,0.828c0.31,1.925,0.734,3.858,1.263,5.747c0.149,0.531-0.161,1.084-0.693,1.232
				C251.021,373.124,250.93,373.136,250.84,373.136z M413.171,372.764c-0.459,0-0.873-0.316-0.976-0.783
				c-0.119-0.541,0.222-1.073,0.762-1.192c1.952-0.431,3.939-0.836,5.909-1.205c0.549-0.092,1.064,0.257,1.167,0.799
				c0.103,0.543-0.256,1.065-0.798,1.167c-1.949,0.365-3.916,0.768-5.85,1.192C413.314,372.756,413.242,372.764,413.171,372.764z
				 M424.964,370.555c-0.485,0-0.911-0.354-0.987-0.849c-0.084-0.545,0.29-1.058,0.835-1.142c1.968-0.303,3.978-0.582,5.976-0.828
				c0.552-0.082,1.048,0.322,1.114,0.871c0.066,0.547-0.322,1.047-0.87,1.113c-1.979,0.243-3.967,0.521-5.912,0.82
				C425.065,370.55,425.015,370.555,424.964,370.555z M436.876,369.104c-0.514,0-0.95-0.393-0.995-0.914
				c-0.048-0.549,0.359-1.035,0.91-1.082c1.952-0.168,3.96-0.311,6.009-0.443c0.559-0.029,1.027,0.383,1.063,0.934
				s-0.382,1.026-0.935,1.063c-2.032,0.132-4.026,0.273-5.966,0.439C436.934,369.104,436.904,369.104,436.876,369.104z
				 M448.854,368.291c-0.523,0-0.964-0.408-0.996-0.938c-0.034-0.553,0.385-1.026,0.936-1.062c1.973-0.123,3.969-0.251,5.974-0.401
				c0.541-0.035,1.031,0.373,1.071,0.924c0.041,0.549-0.372,1.029-0.923,1.07c-2.013,0.15-4.017,0.28-5.997,0.403
				C448.896,368.29,448.875,368.291,448.854,368.291z M460.821,367.371c-0.507,0-0.941-0.385-0.994-0.898
				c-0.056-0.55,0.345-1.041,0.895-1.097c2.121-0.215,4.059-0.449,5.919-0.718c0.556-0.081,1.055,0.302,1.134,0.848
				c0.077,0.547-0.302,1.055-0.849,1.133c-1.89,0.271-3.854,0.51-6.003,0.729C460.889,367.369,460.854,367.371,460.821,367.371z
				 M472.696,365.631c-0.466,0-0.882-0.326-0.979-0.8c-0.109-0.541,0.238-1.069,0.779-1.181c2.022-0.412,3.959-0.883,5.753-1.397
				c0.532-0.151,1.085,0.153,1.237,0.685c0.151,0.533-0.154,1.086-0.686,1.237c-1.845,0.529-3.832,1.013-5.904,1.437
				C472.83,365.624,472.763,365.631,472.696,365.631z M484.204,362.283c-0.396,0-0.772-0.237-0.929-0.629
				c-0.205-0.514,0.045-1.096,0.558-1.301c1.872-0.748,3.657-1.592,5.306-2.51c0.485-0.271,1.094-0.094,1.36,0.389
				c0.269,0.482,0.095,1.092-0.388,1.359c-1.724,0.958-3.585,1.84-5.536,2.619C484.453,362.261,484.328,362.283,484.204,362.283z
				 M248.94,361.313c-0.531,0-0.974-0.418-0.998-0.955c-0.038-0.838-0.057-1.678-0.057-2.517c-0.001-1.177,0.037-2.384,0.113-3.588
				c0.034-0.551,0.516-0.963,1.062-0.935c0.551,0.035,0.97,0.51,0.935,1.062c-0.073,1.161-0.11,2.325-0.109,3.46
				c0,0.811,0.019,1.618,0.055,2.428c0.024,0.553-0.402,1.021-0.954,1.045C248.971,361.313,248.956,361.313,248.94,361.313z
				 M494.627,356.434c-0.299,0-0.595-0.134-0.791-0.389c-0.339-0.438-0.259-1.064,0.178-1.402c1.546-1.197,2.988-2.521,4.289-3.935
				c0.375-0.406,1.008-0.433,1.413-0.058c0.406,0.373,0.433,1.007,0.059,1.412c-1.375,1.494-2.901,2.895-4.535,4.16
				C495.057,356.364,494.841,356.434,494.627,356.434z M249.688,349.359c-0.055,0-0.11-0.004-0.167-0.014
				c-0.544-0.093-0.912-0.607-0.82-1.152c0.334-1.984,0.773-3.988,1.309-5.955c0.146-0.531,0.696-0.848,1.228-0.701
				c0.532,0.145,0.848,0.693,0.702,1.229c-0.518,1.901-0.943,3.84-1.266,5.76C250.592,349.014,250.168,349.359,249.688,349.359z
				 M502.795,347.714c-0.201,0-0.404-0.062-0.581-0.187c-0.449-0.321-0.553-0.946-0.23-1.396c1.088-1.521,2.138-3.145,3.211-4.962
				c0.28-0.476,0.895-0.631,1.37-0.353c0.476,0.281,0.633,0.895,0.353,1.369c-1.104,1.869-2.185,3.539-3.307,5.108
				C503.414,347.568,503.106,347.714,502.795,347.714z M252.822,337.795c-0.117,0-0.236-0.021-0.353-0.064
				c-0.517-0.193-0.778-0.771-0.583-1.287c0.708-1.881,1.519-3.764,2.408-5.594c0.241-0.496,0.839-0.705,1.337-0.463
				c0.496,0.241,0.703,0.84,0.462,1.338c-0.863,1.774-1.649,3.601-2.336,5.424C253.607,337.548,253.227,337.795,252.822,337.795z
				 M508.94,337.42c-0.154,0-0.312-0.035-0.457-0.111c-0.491-0.252-0.685-0.854-0.432-1.347c1-1.94,1.942-3.88,2.65-5.353
				c0.241-0.5,0.839-0.707,1.335-0.469c0.498,0.24,0.707,0.838,0.468,1.336c-0.715,1.483-1.664,3.438-2.676,5.4
				C509.652,337.223,509.303,337.42,508.94,337.42z M258.057,327.016c-0.176,0-0.354-0.045-0.516-0.144
				c-0.473-0.285-0.625-0.899-0.34-1.373c1.045-1.731,2.181-3.437,3.375-5.065c0.327-0.447,0.953-0.543,1.397-0.217
				c0.445,0.326,0.542,0.952,0.216,1.396c-1.159,1.582-2.262,3.238-3.275,4.919C258.727,326.844,258.396,327.016,258.057,327.016z
				 M514.197,326.633c-0.146,0-0.294-0.031-0.435-0.1c-0.498-0.24-0.706-0.838-0.466-1.336l0.339-0.699
				c0.774-1.596,1.595-3.17,2.435-4.684c0.268-0.482,0.874-0.66,1.358-0.39c0.482,0.269,0.657,0.876,0.39,1.359
				c-0.822,1.481-1.624,3.024-2.384,4.587l-0.337,0.695C514.926,326.425,514.569,326.633,514.197,326.633z M265.131,317.342
				c-0.232,0-0.465-0.08-0.654-0.242c-0.418-0.361-0.463-0.994-0.103-1.412c1.224-1.414,2.562-2.875,4.09-4.465
				c0.383-0.396,1.015-0.41,1.414-0.027c0.397,0.384,0.41,1.017,0.027,1.414c-1.503,1.563-2.817,2.998-4.018,4.388
				C265.689,317.225,265.411,317.342,265.131,317.342z M520.018,316.15c-0.186,0-0.371-0.051-0.539-0.158
				c-0.465-0.299-0.6-0.918-0.302-1.383c1.09-1.695,2.251-3.377,3.451-4.992c0.33-0.443,0.957-0.535,1.398-0.207
				c0.442,0.329,0.536,0.955,0.207,1.398c-1.174,1.58-2.31,3.224-3.373,4.881C520.669,315.988,520.347,316.15,520.018,316.15z
				 M273.414,308.657c-0.259,0-0.518-0.101-0.714-0.3c-0.387-0.395-0.381-1.026,0.013-1.414c0.942-0.926,1.889-1.846,2.835-2.764
				l1.466-1.428c0.396-0.384,1.029-0.378,1.414,0.018c0.386,0.396,0.378,1.029-0.018,1.414l-1.469,1.43
				c-0.943,0.916-1.888,1.834-2.826,2.758C273.92,308.563,273.667,308.657,273.414,308.657z M527.172,306.521
				c-0.229,0-0.462-0.078-0.65-0.239c-0.42-0.359-0.469-0.99-0.108-1.41c1.304-1.522,2.685-3.026,4.104-4.47
				c0.387-0.395,1.021-0.398,1.414-0.012c0.395,0.387,0.399,1.021,0.013,1.414c-1.388,1.41-2.736,2.879-4.011,4.367
				C527.733,306.404,527.453,306.521,527.172,306.521z M281.974,300.246c-0.253,0-0.507-0.096-0.701-0.287
				c-0.394-0.389-0.398-1.021-0.012-1.414c1.551-1.576,2.889-2.99,4.089-4.327c0.371-0.409,1.003-0.44,1.413-0.075
				c0.41,0.371,0.444,1.002,0.075,1.414c-1.222,1.356-2.579,2.795-4.151,4.392C282.49,300.146,282.232,300.246,281.974,300.246z
				 M535.576,297.977c-0.275,0-0.55-0.113-0.748-0.336c-0.366-0.414-0.329-1.045,0.084-1.412c1.491-1.323,3.059-2.627,4.659-3.873
				c0.436-0.34,1.063-0.262,1.402,0.175c0.339,0.436,0.262,1.063-0.175,1.403c-1.565,1.221-3.101,2.496-4.56,3.791
				C536.05,297.893,535.813,297.977,535.576,297.977z M289.944,291.292c-0.213,0-0.429-0.067-0.61-0.209
				c-0.438-0.338-0.518-0.966-0.18-1.401c1.274-1.649,2.377-3.229,3.371-4.832c0.291-0.47,0.907-0.613,1.377-0.322
				c0.469,0.291,0.613,0.906,0.322,1.377c-1.03,1.66-2.171,3.296-3.488,5C290.539,291.158,290.243,291.292,289.944,291.292z
				 M545.03,290.604c-0.318,0-0.632-0.15-0.825-0.435c-0.313-0.455-0.197-1.077,0.259-1.39c1.637-1.125,3.349-2.229,5.086-3.283
				c0.475-0.286,1.088-0.137,1.373,0.335c0.287,0.474,0.137,1.088-0.335,1.374c-1.706,1.036-3.386,2.12-4.993,3.223
				C545.422,290.548,545.226,290.604,545.03,290.604z M555.273,284.368c-0.355,0-0.699-0.188-0.882-0.524
				c-0.263-0.484-0.081-1.093,0.404-1.354l0.834-0.446c1.591-0.845,3.192-1.682,4.795-2.518l0.524-0.273
				c0.486-0.255,1.094-0.064,1.35,0.424c0.255,0.489,0.065,1.094-0.424,1.35l-0.524,0.273c-1.599,0.834-3.195,1.668-4.781,2.51
				l-0.821,0.44C555.597,284.329,555.434,284.368,555.273,284.368z M296.204,281.094c-0.138,0-0.277-0.027-0.411-0.089
				c-0.503-0.228-0.727-0.819-0.499-1.323c0.489-1.082,0.934-2.192,1.319-3.302c0.249-0.716,0.481-1.452,0.689-2.187
				c0.15-0.532,0.708-0.84,1.234-0.688c0.532,0.149,0.84,0.703,0.689,1.234c-0.219,0.771-0.463,1.545-0.725,2.298
				c-0.405,1.165-0.872,2.332-1.386,3.469C296.949,280.875,296.585,281.094,296.204,281.094z M566.724,278.342
				c-0.356,0-0.702-0.191-0.883-0.527c-0.261-0.487-0.077-1.094,0.41-1.354c1.973-1.056,3.684-1.998,5.229-2.883
				c0.479-0.272,1.091-0.106,1.364,0.372c0.274,0.479,0.107,1.09-0.372,1.363c-1.563,0.895-3.289,1.847-5.278,2.91
				C567.044,278.305,566.883,278.342,566.724,278.342z M577.124,272.357c-0.331,0-0.655-0.164-0.846-0.465
				c-0.296-0.466-0.157-1.084,0.31-1.379c1.766-1.121,3.371-2.211,4.91-3.332c0.446-0.324,1.072-0.229,1.396,0.219
				c0.326,0.445,0.229,1.072-0.219,1.396c-1.573,1.146-3.215,2.262-5.018,3.405C577.492,272.309,577.308,272.357,577.124,272.357z
				 M299.489,269.598c-0.046,0-0.092-0.002-0.139-0.009c-0.547-0.075-0.929-0.581-0.853-1.128c0.259-1.863,0.412-3.837,0.456-5.863
				c0.012-0.552,0.484-1.006,1.021-0.978c0.553,0.012,0.99,0.469,0.979,1.021c-0.046,2.104-0.206,4.153-0.476,6.094
				C300.409,269.234,299.98,269.598,299.489,269.598z M586.785,265.262c-0.279,0-0.559-0.115-0.756-0.345
				c-0.361-0.417-0.316-1.049,0.101-1.411c0.966-0.836,1.905-1.703,2.794-2.576c0.493-0.486,0.979-0.988,1.454-1.5
				c0.376-0.406,1.008-0.428,1.414-0.053c0.404,0.376,0.428,1.009,0.053,1.413c-0.496,0.534-1.002,1.056-1.518,1.563
				c-0.919,0.903-1.892,1.799-2.888,2.664C587.251,265.182,587.018,265.262,586.785,265.262z M299.801,257.623
				c-0.521,0-0.96-0.404-0.997-0.932c-0.129-1.879-0.329-3.812-0.609-5.904c-0.073-0.548,0.311-1.051,0.858-1.124
				c0.546-0.073,1.051,0.312,1.124,0.858c0.286,2.137,0.49,4.109,0.623,6.031c0.038,0.551-0.378,1.028-0.93,1.066
				C299.847,257.622,299.824,257.623,299.801,257.623z M594.904,256.467c-0.201,0-0.405-0.061-0.582-0.188
				c-0.448-0.321-0.553-0.946-0.229-1.396c1.15-1.605,2.192-3.279,3.099-4.979c0.261-0.486,0.862-0.673,1.354-0.412
				c0.487,0.261,0.672,0.866,0.412,1.354c-0.947,1.776-2.036,3.526-3.238,5.203C595.521,256.32,595.216,256.467,594.904,256.467z
				 M600.509,245.896c-0.112,0-0.226-0.018-0.337-0.059c-0.521-0.186-0.791-0.758-0.604-1.278c0.672-1.876,1.179-3.769,1.508-5.626
				c0.095-0.544,0.616-0.904,1.158-0.811c0.544,0.096,0.906,0.615,0.811,1.159c-0.348,1.968-0.884,3.97-1.594,5.952
				C601.304,245.643,600.919,245.896,600.509,245.896z M298.253,245.726c-0.476,0-0.897-0.341-0.983-0.825
				c-0.347-1.957-0.725-3.916-1.113-5.877c-0.108-0.542,0.244-1.068,0.786-1.176c0.54-0.111,1.068,0.244,1.175,0.786
				c0.393,1.974,0.772,3.947,1.121,5.917c0.097,0.545-0.267,1.063-0.81,1.159C298.369,245.721,298.311,245.726,298.253,245.726z
				 M602.539,234.137c-0.543,0-0.989-0.435-1-0.979c-0.039-1.952-0.287-3.878-0.737-5.722c-0.131-0.536,0.198-1.077,0.734-1.209
				c0.534-0.129,1.078,0.198,1.209,0.734c0.483,1.986,0.752,4.057,0.794,6.156c0.011,0.552-0.428,1.008-0.979,1.02
				C602.553,234.137,602.546,234.137,602.539,234.137z M295.95,233.945c-0.467,0-0.885-0.329-0.979-0.805
				c-0.395-1.972-0.782-3.941-1.141-5.908c-0.1-0.543,0.261-1.063,0.804-1.162c0.545-0.096,1.064,0.26,1.163,0.805
				c0.356,1.953,0.742,3.913,1.135,5.873c0.108,0.542-0.243,1.068-0.784,1.178C296.081,233.938,296.016,233.945,295.95,233.945z
				 M599.725,222.576c-0.369,0-0.725-0.205-0.897-0.559c-0.825-1.684-1.854-3.338-3.058-4.921c-0.334-0.44-0.248-1.067,0.192-1.401
				c0.439-0.333,1.066-0.249,1.401,0.191c1.279,1.686,2.376,3.452,3.258,5.25c0.243,0.495,0.039,1.094-0.457,1.338
				C600.021,222.544,599.872,222.576,599.725,222.576z M293.837,222.135c-0.49,0-0.918-0.359-0.989-0.859
				c-0.308-2.154-0.532-4.125-0.688-6.019c-0.045-0.551,0.365-1.033,0.916-1.078c0.541-0.045,1.033,0.365,1.078,0.916
				c0.15,1.854,0.371,3.783,0.674,5.897c0.078,0.548-0.302,1.055-0.849,1.133C293.932,222.131,293.884,222.135,293.837,222.135z
				 M592.57,213.025c-0.25,0-0.5-0.093-0.694-0.28c-1.339-1.292-2.8-2.544-4.469-3.83c-0.438-0.337-0.52-0.965-0.183-1.403
				c0.336-0.438,0.965-0.519,1.402-0.181c1.729,1.331,3.244,2.631,4.637,3.974c0.397,0.384,0.409,1.017,0.025,1.415
				C593.094,212.924,592.832,213.025,592.57,213.025z M292.919,210.185c-0.002,0-0.004,0-0.005,0
				c-0.553-0.002-0.998-0.453-0.995-1.005c0.012-2.111,0.136-4.163,0.368-6.1c0.066-0.548,0.574-0.937,1.112-0.873
				c0.549,0.065,0.939,0.564,0.874,1.112c-0.225,1.86-0.344,3.836-0.354,5.871C293.916,209.741,293.469,210.185,292.919,210.185z
				 M583.118,205.659c-0.188,0-0.378-0.052-0.548-0.164c-1.501-0.984-3.156-2.012-5.061-3.14c-0.476-0.281-0.632-0.895-0.351-1.37
				c0.281-0.474,0.895-0.631,1.37-0.351c1.931,1.145,3.609,2.187,5.138,3.189c0.462,0.302,0.59,0.923,0.287,1.384
				C583.764,205.5,583.444,205.659,583.118,205.659z M572.818,199.497c-0.167,0-0.336-0.042-0.492-0.13l-1.354-0.765
				c-1.088-0.615-2.168-1.227-3.234-1.836l-0.638-0.366c-0.479-0.275-0.644-0.887-0.366-1.366c0.273-0.477,0.887-0.644,1.364-0.367
				l0.631,0.363c1.065,0.608,2.144,1.218,3.229,1.832l1.354,0.766c0.48,0.272,0.649,0.882,0.378,1.363
				C573.506,199.315,573.167,199.497,572.818,199.497z M294.397,198.31c-0.085,0-0.17-0.01-0.256-0.034
				c-0.534-0.14-0.853-0.688-0.712-1.221c0.433-1.645,0.974-3.269,1.606-4.829c0.134-0.329,0.271-0.656,0.414-0.979
				c0.223-0.505,0.807-0.738,1.318-0.512c0.505,0.222,0.734,0.813,0.512,1.317c-0.135,0.307-0.265,0.615-0.391,0.926
				c-0.602,1.481-1.115,3.024-1.526,4.586C295.245,198.013,294.841,198.31,294.397,198.31z M562.446,193.46
				c-0.18,0-0.36-0.047-0.523-0.148c-1.703-1.049-3.415-2.138-5.087-3.236c-0.462-0.303-0.59-0.923-0.287-1.384
				c0.305-0.462,0.925-0.588,1.385-0.287c1.656,1.087,3.352,2.165,5.038,3.204c0.472,0.29,0.616,0.905,0.327,1.375
				C563.109,193.292,562.782,193.46,562.446,193.46z M299.205,187.374c-0.186,0-0.374-0.052-0.541-0.16
				c-0.465-0.3-0.598-0.918-0.298-1.383c1.091-1.69,2.339-3.337,3.708-4.894c0.365-0.416,0.998-0.454,1.411-0.091
				c0.415,0.365,0.455,0.997,0.091,1.412c-1.304,1.483-2.492,3.05-3.53,4.658C299.854,187.213,299.533,187.374,299.205,187.374z
				 M552.416,186.876c-0.197,0-0.396-0.059-0.571-0.18c-1.644-1.147-3.29-2.332-4.894-3.521c-0.443-0.329-0.536-0.955-0.208-1.399
				c0.33-0.443,0.955-0.536,1.398-0.207c1.589,1.177,3.22,2.351,4.848,3.488c0.453,0.316,0.563,0.939,0.248,1.393
				C553.042,186.728,552.731,186.876,552.416,186.876z M542.777,179.73c-0.217,0-0.436-0.07-0.617-0.214
				c-1.568-1.234-3.145-2.511-4.685-3.795c-0.424-0.354-0.48-0.984-0.127-1.409c0.353-0.423,0.981-0.481,1.408-0.128
				c1.525,1.273,3.086,2.537,4.639,3.76c0.436,0.341,0.51,0.97,0.169,1.404C543.367,179.6,543.073,179.73,542.777,179.73z
				 M307.079,178.373c-0.278,0-0.556-0.116-0.754-0.343c-0.362-0.416-0.319-1.047,0.097-1.411c1.499-1.307,3.127-2.564,4.84-3.736
				c0.456-0.312,1.079-0.195,1.391,0.26c0.312,0.456,0.194,1.079-0.261,1.391c-1.648,1.129-3.215,2.338-4.654,3.593
				C307.547,178.292,307.313,178.373,307.079,178.373z M533.567,172.042c-0.236,0-0.475-0.083-0.664-0.252
				c-1.738-1.544-3.143-2.866-4.415-4.162c-0.389-0.395-0.382-1.028,0.012-1.415c0.396-0.388,1.027-0.381,1.414,0.012
				c1.241,1.264,2.613,2.556,4.317,4.068c0.413,0.366,0.449,0.999,0.084,1.412C534.118,171.928,533.843,172.042,533.567,172.042z
				 M316.947,171.583c-0.354,0-0.698-0.189-0.88-0.523c-0.265-0.485-0.084-1.092,0.4-1.355c1.749-0.949,3.594-1.842,5.483-2.654
				c0.513-0.22,1.096,0.018,1.313,0.524c0.217,0.506-0.017,1.095-0.523,1.313c-1.834,0.788-3.623,1.653-5.317,2.574
				C317.271,171.543,317.108,171.583,316.947,171.583z M327.956,166.838c-0.419,0-0.809-0.266-0.948-0.684
				c-0.175-0.524,0.108-1.091,0.632-1.266c1.899-0.633,3.864-1.202,5.838-1.69c0.533-0.134,1.078,0.193,1.212,0.729
				c0.133,0.536-0.194,1.078-0.73,1.21c-1.923,0.477-3.836,1.03-5.686,1.647C328.167,166.821,328.061,166.838,327.956,166.838z
				 M339.588,163.941c-0.477,0-0.897-0.341-0.982-0.827c-0.098-0.543,0.267-1.063,0.811-1.158c1.902-0.335,3.916-0.635,5.984-0.89
				c0.553-0.072,1.047,0.321,1.114,0.869c0.068,0.549-0.32,1.048-0.868,1.116c-2.035,0.251-4.015,0.546-5.884,0.875
				C339.704,163.937,339.646,163.941,339.588,163.941z M525.247,163.42c-0.301,0-0.598-0.135-0.795-0.392
				c-1.338-1.746-2.424-3.449-3.318-5.207c-0.25-0.492-0.054-1.094,0.438-1.345c0.487-0.252,1.094-0.055,1.345,0.438
				c0.838,1.648,1.859,3.25,3.123,4.897c0.336,0.438,0.253,1.065-0.187,1.401C525.673,163.353,525.459,163.42,525.247,163.42z
				 M351.488,162.446c-0.516,0-0.952-0.395-0.995-0.917c-0.047-0.551,0.362-1.034,0.913-1.08c1.882-0.157,3.85-0.293,6.014-0.413
				c0.539-0.036,1.023,0.392,1.054,0.943c0.031,0.551-0.391,1.023-0.941,1.054c-2.146,0.12-4.095,0.253-5.959,0.409
				C351.544,162.445,351.516,162.446,351.488,162.446z M363.469,161.755c-0.534,0-0.977-0.422-0.998-0.96
				c-0.021-0.552,0.408-1.017,0.96-1.038c1.826-0.073,3.653-0.136,5.48-0.199l0.52-0.018c0.604-0.022,1.017,0.413,1.034,0.965
				c0.021,0.552-0.412,1.015-0.964,1.034l-0.521,0.019c-1.824,0.063-3.648,0.126-5.473,0.198
				C363.496,161.755,363.482,161.755,363.469,161.755z M375.46,161.317c-0.533,0-0.976-0.421-0.998-0.959
				c-0.021-0.552,0.406-1.018,0.958-1.041c1.994-0.083,3.985-0.177,5.975-0.296c0.559-0.042,1.025,0.387,1.059,0.938
				c0.033,0.552-0.387,1.025-0.938,1.058c-2.001,0.12-4.006,0.216-6.012,0.298C375.488,161.316,375.475,161.317,375.46,161.317z
				 M387.438,160.579c-0.514,0-0.949-0.392-0.995-0.912c-0.05-0.55,0.356-1.036,0.907-1.084l0.757-0.069
				c1.719-0.163,3.458-0.355,5.17-0.574c0.54-0.066,1.049,0.319,1.118,0.866c0.068,0.548-0.318,1.049-0.866,1.119
				c-1.732,0.221-3.494,0.416-5.234,0.581l-0.768,0.07C387.496,160.577,387.466,160.579,387.438,160.579z M399.337,159.063
				c-0.479,0-0.904-0.347-0.985-0.837c-0.091-0.545,0.278-1.06,0.823-1.15c1.948-0.322,3.921-0.687,5.864-1.083
				c0.53-0.109,1.069,0.24,1.179,0.781c0.11,0.541-0.237,1.069-0.779,1.18c-1.968,0.401-3.965,0.769-5.938,1.096
				C399.446,159.058,399.391,159.063,399.337,159.063z M411.093,156.666c-0.451,0-0.859-0.307-0.971-0.765
				c-0.13-0.536,0.199-1.077,0.736-1.207c1.915-0.464,3.854-0.973,5.768-1.513c0.526-0.147,1.083,0.158,1.233,0.691
				c0.149,0.532-0.158,1.084-0.69,1.234c-1.936,0.546-3.9,1.062-5.84,1.532C411.25,156.656,411.171,156.666,411.093,156.666z
				 M422.641,153.407c-0.423,0-0.814-0.27-0.951-0.694c-0.17-0.525,0.118-1.089,0.646-1.259c1.88-0.606,3.777-1.258,5.64-1.935
				c0.517-0.192,1.094,0.078,1.281,0.597c0.189,0.519-0.078,1.092-0.598,1.282c-1.886,0.686-3.808,1.346-5.71,1.96
				C422.846,153.392,422.742,153.407,422.641,153.407z M519.896,152.771c-0.437,0-0.837-0.287-0.963-0.726
				c-0.182-0.637-0.354-1.278-0.525-1.919c-0.34-1.26-0.69-2.564-1.108-3.805c-0.177-0.523,0.104-1.09,0.628-1.267
				c0.524-0.176,1.092,0.105,1.268,0.628c0.438,1.298,0.798,2.633,1.145,3.923c0.17,0.631,0.34,1.261,0.521,1.89
				c0.15,0.531-0.156,1.084-0.688,1.235C520.079,152.758,519.986,152.771,519.896,152.771z M433.912,149.303
				c-0.396,0-0.77-0.235-0.927-0.624c-0.208-0.512,0.038-1.095,0.55-1.304c1.836-0.746,3.68-1.537,5.479-2.349
				c0.507-0.229,1.098-0.002,1.322,0.501c0.229,0.503,0.004,1.096-0.5,1.323c-1.824,0.822-3.69,1.622-5.549,2.378
				C434.165,149.279,434.038,149.303,433.912,149.303z M444.853,144.373c-0.368,0-0.724-0.205-0.897-0.558
				c-0.243-0.496-0.04-1.095,0.456-1.339c1.786-0.88,3.566-1.784,5.348-2.691c0.492-0.252,1.094-0.055,1.345,0.437
				c0.252,0.492,0.057,1.094-0.437,1.345c-1.788,0.913-3.577,1.82-5.373,2.704C445.151,144.341,445.001,144.373,444.853,144.373z
				 M515.658,141.612c-0.326,0-0.646-0.159-0.837-0.452c-1.029-1.569-2.284-3.033-3.731-4.349c-0.408-0.372-0.438-1.004-0.066-1.413
				c0.375-0.409,1.007-0.438,1.413-0.067c1.57,1.429,2.937,3.021,4.058,4.731c0.303,0.462,0.174,1.083-0.288,1.385
				C516.036,141.559,515.847,141.612,515.658,141.612z M455.563,138.956c-0.366,0-0.72-0.201-0.896-0.551
				c-0.248-0.493-0.049-1.094,0.444-1.342c2.084-1.048,3.805-1.888,5.414-2.646c0.5-0.236,1.095-0.021,1.331,0.479
				c0.233,0.5,0.021,1.096-0.479,1.33c-1.594,0.75-3.299,1.583-5.367,2.623C455.865,138.921,455.712,138.956,455.563,138.956z
				 M466.435,133.889c-0.393,0-0.765-0.233-0.924-0.618c-0.211-0.51,0.031-1.096,0.541-1.306c1.982-0.82,3.841-1.519,5.682-2.133
				c0.526-0.177,1.091,0.108,1.266,0.631c0.175,0.524-0.107,1.091-0.631,1.266c-1.796,0.6-3.611,1.282-5.55,2.084
				C466.691,133.864,466.563,133.889,466.435,133.889z M506.914,133.563c-0.169,0-0.34-0.042-0.497-0.133
				c-1.629-0.935-3.407-1.746-5.285-2.41c-0.521-0.184-0.794-0.755-0.609-1.276s0.755-0.794,1.275-0.61
				c1.992,0.704,3.882,1.566,5.615,2.562c0.479,0.275,0.645,0.886,0.369,1.365C507.598,133.383,507.261,133.563,506.914,133.563z
				 M477.814,130.13c-0.453,0-0.863-0.31-0.974-0.771c-0.126-0.538,0.207-1.076,0.744-1.202c1.19-0.281,2.389-0.524,3.563-0.723
				c0.808-0.137,1.638-0.251,2.467-0.339c0.557-0.061,1.043,0.339,1.101,0.888c0.06,0.549-0.339,1.042-0.888,1.101
				c-0.789,0.084-1.578,0.193-2.346,0.323c-1.132,0.191-2.287,0.426-3.438,0.697C477.968,130.122,477.891,130.13,477.814,130.13z
				 M495.674,129.539c-0.06,0-0.121-0.005-0.183-0.017c-1.9-0.351-3.857-0.565-5.816-0.638c-0.552-0.021-0.981-0.484-0.962-1.037
				c0.021-0.552,0.506-0.988,1.036-0.962c2.056,0.077,4.109,0.302,6.104,0.67c0.544,0.101,0.902,0.622,0.803,1.165
				C496.567,129.202,496.147,129.539,495.674,129.539z"/>
		</g>
		<g>
			<path fill="#98D7DA" d="M266.762,261.104c-0.17,0-0.342-0.043-0.499-0.133c-1.724-0.996-3.16-2.83-4.045-5.164
				c-0.195-0.518,0.064-1.095,0.581-1.289c0.518-0.197,1.095,0.063,1.29,0.58c0.711,1.877,1.867,3.387,3.174,4.141
				c0.479,0.275,0.643,0.889,0.366,1.365C267.443,260.925,267.107,261.104,266.762,261.104z M272.313,260.457
				c-0.284,0-0.566-0.12-0.764-0.354c-0.357-0.422-0.305-1.053,0.116-1.41c0.46-0.389,0.91-0.885,1.339-1.475
				c1.023-1.404,1.792-3.117,2.286-5.09c0.134-0.536,0.678-0.859,1.213-0.729c0.535,0.135,0.861,0.678,0.727,1.213
				c-0.556,2.224-1.434,4.169-2.608,5.781c-0.522,0.719-1.082,1.332-1.663,1.823C272.771,260.38,272.54,260.457,272.313,260.457z
				 M261.469,250.701c-0.404,0-0.785-0.246-0.936-0.646c-0.623-1.654-1.424-3.327-2.521-5.266c-0.272-0.48-0.104-1.091,0.377-1.363
				c0.482-0.271,1.092-0.103,1.363,0.379c1.149,2.029,1.992,3.791,2.652,5.545c0.195,0.517-0.066,1.093-0.583,1.289
				C261.705,250.682,261.586,250.701,261.469,250.701z M276.984,247.43c-0.006,0-0.012,0-0.018,0
				c-0.552-0.01-0.992-0.465-0.982-1.018c0.004-0.218,0.006-0.437,0.006-0.656c0-1.596-0.106-3.346-0.316-5.201
				c-0.063-0.55,0.332-1.045,0.881-1.107c0.555-0.064,1.043,0.333,1.105,0.881c0.219,1.931,0.33,3.757,0.33,5.428
				c0,0.231-0.002,0.461-0.006,0.691C277.975,246.993,277.529,247.43,276.984,247.43z M255.765,240.172
				c-0.333,0-0.659-0.167-0.849-0.471c-1.032-1.65-2.12-3.413-3.077-5.236c-0.257-0.489-0.068-1.094,0.421-1.35
				c0.49-0.259,1.094-0.068,1.351,0.42c0.924,1.762,1.989,3.488,3.001,5.106c0.293,0.468,0.15,1.085-0.317,1.378
				C256.129,240.123,255.945,240.172,255.765,240.172z M275.741,235.513c-0.471,0-0.89-0.333-0.981-0.812
				c-0.342-1.785-0.706-3.455-1.081-5.15c-0.05-0.225-0.101-0.45-0.155-0.676c-0.129-0.537,0.202-1.076,0.739-1.205
				c0.537-0.129,1.077,0.201,1.206,0.738c0.057,0.238,0.111,0.476,0.163,0.712c0.378,1.71,0.746,3.394,1.093,5.204
				c0.104,0.543-0.252,1.066-0.794,1.17C275.867,235.507,275.804,235.513,275.741,235.513z M250.426,229.474
				c-0.433,0-0.831-0.282-0.959-0.719c-0.607-2.067-0.916-4.086-0.943-6.174c-0.007-0.552,0.435-1.005,0.987-1.013
				c0.004,0,0.009,0,0.013,0c0.547,0,0.993,0.439,1,0.986c0.024,1.904,0.307,3.746,0.861,5.637c0.156,0.529-0.147,1.085-0.677,1.241
				C250.613,229.46,250.519,229.474,250.426,229.474z M272.696,223.921c-0.395,0-0.77-0.237-0.927-0.625
				c-0.783-1.935-1.695-3.646-2.709-5.084c-0.318-0.452-0.21-1.075,0.241-1.394c0.45-0.318,1.076-0.21,1.394,0.241
				c1.103,1.564,2.087,3.41,2.928,5.486c0.207,0.512-0.039,1.095-0.552,1.302C272.948,223.896,272.821,223.921,272.696,223.921z
				 M250.171,217.625c-0.102,0-0.204-0.016-0.307-0.049c-0.525-0.169-0.814-0.732-0.646-1.258c0.365-1.134,0.887-2.065,1.594-2.848
				c0.755-0.834,1.746-1.503,2.947-1.988c0.512-0.205,1.095,0.039,1.302,0.552c0.207,0.512-0.04,1.095-0.552,1.302
				c-0.919,0.371-1.664,0.868-2.214,1.475c-0.513,0.568-0.896,1.261-1.173,2.119C250.986,217.354,250.594,217.625,250.171,217.625z
				 M265.646,214.438c-0.187,0-0.375-0.052-0.543-0.161c-1.56-1.01-3.292-1.591-5.148-1.724c-0.551-0.04-0.965-0.519-0.925-1.07
				c0.04-0.552,0.531-0.956,1.069-0.925c2.196,0.159,4.245,0.845,6.092,2.041c0.463,0.301,0.596,0.919,0.296,1.383
				C266.295,214.276,265.974,214.438,265.646,214.438z"/>
		</g>
	</g>
	<g>
		<path fill="#98D7DA" d="M580.106,399.345c-0.465,0-0.882-0.325-0.979-0.797c-0.111-0.541,0.236-1.07,0.776-1.183
			c1.781-0.369,3.512-1.165,5.001-2.305c0.438-0.336,1.065-0.25,1.401,0.188c0.335,0.438,0.251,1.066-0.188,1.402
			c-1.729,1.318-3.736,2.242-5.811,2.673C580.242,399.338,580.174,399.345,580.106,399.345z M574.174,399.108
			c-0.088,0-0.177-0.013-0.266-0.035c-1.785-0.49-3.596-1.312-5.695-2.583c-0.472-0.286-0.623-0.901-0.337-1.374
			c0.287-0.472,0.902-0.622,1.374-0.337c1.938,1.174,3.585,1.926,5.188,2.363c0.531,0.146,0.846,0.696,0.699,1.229
			C575.016,398.817,574.612,399.108,574.174,399.108z M563.733,393.313c-0.193,0-0.39-0.057-0.562-0.172
			c-1.561-1.06-3.248-2.154-5.017-3c-0.498-0.238-0.709-0.836-0.472-1.334c0.238-0.498,0.834-0.709,1.334-0.472
			c1.888,0.903,3.65,2.047,5.276,3.147c0.457,0.312,0.576,0.934,0.267,1.391C564.369,393.158,564.054,393.313,563.733,393.313z
			 M589.304,392.277c-0.146,0-0.296-0.032-0.438-0.103c-0.496-0.241-0.702-0.84-0.46-1.337c0.21-0.432,0.392-0.878,0.539-1.326
			c0.395-1.197,0.595-2.365,0.595-3.469c0.001-0.18-0.005-0.354-0.014-0.521c-0.031-0.553,0.391-1.024,0.94-1.056
			c0.574-0.03,1.024,0.392,1.055,0.941c0.014,0.211,0.02,0.425,0.019,0.641c0,1.312-0.233,2.688-0.694,4.089
			c-0.176,0.533-0.392,1.064-0.643,1.578C590.03,392.07,589.675,392.277,589.304,392.277z M552.882,388.456
			c-0.056,0-0.11-0.005-0.168-0.015c-1.677-0.283-3.524-0.426-5.817-0.446c-0.553-0.005-0.995-0.457-0.99-1.009
			c0.005-0.553,0.471-0.961,1.009-0.991c2.399,0.022,4.35,0.173,6.134,0.476c0.544,0.092,0.911,0.607,0.819,1.152
			C553.784,388.111,553.361,388.456,552.882,388.456z M538.979,388.105c-1.5,0-2.859-0.058-4.158-0.176
			c-0.551-0.051-0.955-0.537-0.905-1.087c0.051-0.55,0.524-0.961,1.087-0.905c1.238,0.113,2.539,0.168,3.979,0.168h0.213
			c0.561-0.004,1.127-0.012,1.695-0.021c0.561-0.037,1.008,0.43,1.02,0.98c0.01,0.553-0.43,1.008-0.981,1.02
			c-0.577,0.011-1.153,0.02-1.729,0.021H538.979z M529.029,386.802c-0.103,0-0.205-0.016-0.308-0.048
			c-2.17-0.699-4.056-1.691-5.603-2.951c-0.43-0.349-0.493-0.979-0.146-1.406c0.349-0.429,0.979-0.494,1.406-0.145
			c1.354,1.102,3.021,1.977,4.954,2.598c0.525,0.17,0.814,0.733,0.646,1.26C529.845,386.532,529.452,386.802,529.029,386.802z
			 M588.61,380.852c-0.335,0-0.661-0.168-0.852-0.473c-0.954-1.537-2.188-2.992-3.588-4.6c-0.363-0.416-0.319-1.049,0.098-1.41
			c0.414-0.362,1.048-0.321,1.41,0.098c1.457,1.674,2.747,3.193,3.779,4.857c0.291,0.47,0.146,1.086-0.322,1.377
			C588.973,380.803,588.79,380.852,588.61,380.852z M520.13,379.314c-0.382,0-0.747-0.221-0.913-0.592
			c-0.852-1.896-1.313-3.981-1.372-6.203c-0.015-0.552,0.421-1.012,0.975-1.025c0.009,0,0.018,0,0.026,0
			c0.539,0,0.984,0.431,0.999,0.974c0.052,1.954,0.454,3.784,1.196,5.438c0.227,0.504,0.001,1.096-0.503,1.32
			C520.405,379.286,520.267,379.314,520.13,379.314z M581.15,371.464c-0.32,0-0.636-0.153-0.828-0.438
			c-1.188-1.744-2.066-3.601-2.69-5.67c-0.16-0.529,0.141-1.088,0.668-1.246c0.531-0.16,1.087,0.139,1.246,0.668
			c0.565,1.873,1.36,3.55,2.431,5.125c0.312,0.457,0.191,1.078-0.266,1.39C581.539,371.408,581.344,371.464,581.15,371.464z
			 M519.729,367.59c-0.104,0-0.211-0.017-0.315-0.052c-0.523-0.175-0.807-0.74-0.632-1.265c0.27-0.81,0.598-1.601,0.976-2.352
			c0.582-1.152,1.258-2.195,2.068-3.191c0.349-0.428,0.978-0.494,1.406-0.145s0.492,0.979,0.145,1.406
			c-0.718,0.883-1.317,1.809-1.833,2.828c-0.335,0.666-0.626,1.367-0.865,2.084C520.537,367.325,520.146,367.59,519.729,367.59z
			 M577.579,360.165c-0.522,0-0.962-0.405-0.997-0.935c-0.061-0.918-0.09-1.877-0.09-2.933c0-1.049,0.028-2.106,0.074-3.173
			c0.022-0.552,0.51-0.982,1.041-0.957c0.552,0.021,0.979,0.489,0.956,1.041c-0.043,1.037-0.071,2.066-0.071,3.089
			c0,1.011,0.027,1.927,0.086,2.802c0.036,0.551-0.381,1.026-0.934,1.063C577.624,360.164,577.602,360.165,577.579,360.165z
			 M527.037,358.354c-0.313,0-0.621-0.146-0.815-0.42c-0.319-0.449-0.215-1.074,0.234-1.395c0.926-0.659,1.893-1.288,2.827-1.896
			c0.725-0.472,1.454-0.944,2.178-1.441c0.456-0.313,1.077-0.194,1.391,0.26c0.313,0.455,0.195,1.078-0.26,1.391
			c-0.736,0.506-1.479,0.988-2.217,1.469c-0.961,0.625-1.867,1.216-2.759,1.85C527.44,358.294,527.237,358.354,527.037,358.354z
			 M536.676,351.247c-0.261,0-0.521-0.103-0.718-0.304c-0.385-0.396-0.375-1.03,0.021-1.414c1.38-1.338,2.647-2.752,4.044-4.328
			c0.367-0.412,1-0.449,1.411-0.086c0.413,0.365,0.452,0.998,0.086,1.412c-1.424,1.606-2.719,3.052-4.147,4.438
			C537.178,351.152,536.927,351.247,536.676,351.247z M577.652,348.173c-0.521,0-0.96-0.403-0.997-0.931
			c-0.144-2.059-0.509-3.947-1.086-5.616c-0.183-0.521,0.095-1.091,0.616-1.271c0.522-0.185,1.092,0.095,1.272,0.617
			c0.636,1.834,1.037,3.896,1.192,6.131c0.037,0.551-0.379,1.028-0.93,1.067C577.699,348.172,577.676,348.173,577.652,348.173z
			 M544.833,342.451c-0.256,0-0.513-0.098-0.708-0.293c-0.39-0.393-0.39-1.024,0.001-1.415c1.617-1.614,3.166-2.913,4.736-3.972
			c0.456-0.308,1.079-0.188,1.388,0.271c0.309,0.458,0.188,1.079-0.271,1.389c-1.481,0.998-2.894,2.184-4.438,3.729
			C545.345,342.354,545.089,342.451,544.833,342.451z M573.507,337.161c-0.265,0-0.528-0.104-0.727-0.313
			c-1.263-1.334-2.814-2.281-4.616-2.815c-0.613-0.185-1.27-0.321-1.948-0.41c-0.548-0.071-0.934-0.572-0.862-1.12
			c0.072-0.548,0.567-0.939,1.12-0.861c0.785,0.102,1.546,0.262,2.263,0.476c2.141,0.636,3.99,1.766,5.498,3.358
			c0.38,0.4,0.361,1.033-0.039,1.414C574.001,337.07,573.754,337.161,573.507,337.161z M554.684,335.732
			c-0.383,0-0.748-0.221-0.914-0.592c-0.226-0.505,0.002-1.096,0.506-1.32c2.06-0.92,3.991-1.549,5.908-1.924
			c0.538-0.107,1.066,0.248,1.174,0.789c0.104,0.543-0.247,1.066-0.79,1.174c-1.767,0.346-3.559,0.93-5.477,1.787
			C554.958,335.706,554.819,335.732,554.684,335.732z"/>
	</g>
	<g>
		<path fill="#98D7DA" d="M364.68,89.542c-1.184,0-2.36-0.062-3.499-0.185c-0.549-0.059-0.945-0.552-0.887-1.102
			c0.06-0.548,0.525-0.95,1.103-0.887c1.861,0.2,3.828,0.225,5.809,0.079c1.208-0.09,2.465-0.246,3.736-0.464
			c0.547-0.095,1.062,0.273,1.153,0.816c0.095,0.544-0.271,1.062-0.815,1.155c-1.333,0.229-2.654,0.394-3.927,0.488
			C366.458,89.508,365.559,89.542,364.68,89.542z M355.429,88.124c-0.102,0-0.204-0.016-0.307-0.048
			c-1.201-0.387-2.401-0.858-3.566-1.4c-0.713-0.332-1.422-0.703-2.108-1.102c-0.479-0.278-0.641-0.89-0.361-1.367
			c0.277-0.477,0.89-0.639,1.367-0.362c0.635,0.369,1.29,0.712,1.948,1.019c1.09,0.507,2.212,0.948,3.335,1.309
			c0.524,0.169,0.813,0.733,0.646,1.258C356.244,87.853,355.852,88.124,355.429,88.124z M376.949,87.599
			c-0.435,0-0.833-0.284-0.96-0.721c-0.154-0.53,0.148-1.085,0.68-1.24c1.763-0.514,3.6-1.131,5.617-1.888
			c0.513-0.191,1.094,0.067,1.287,0.585c0.192,0.517-0.068,1.094-0.586,1.288c-2.064,0.774-3.948,1.407-5.759,1.935
			C377.136,87.586,377.041,87.599,376.949,87.599z M388.203,83.451c-0.391,0-0.76-0.229-0.921-0.611
			c-0.215-0.509,0.022-1.095,0.531-1.311c1.493-0.631,2.976-1.275,4.442-1.914l1.045-0.455c0.497-0.213,1.082,0,1.313,0.492
			c0.229,0.491,0.032,1.072-0.452,1.314c-0.042,0.021-0.101,0.045-0.146,0.06l-0.963,0.422c-1.474,0.641-2.961,1.288-4.461,1.922
			C388.465,83.425,388.333,83.451,388.203,83.451z M345.157,82.121c-0.247,0-0.494-0.091-0.688-0.274
			c-1.531-1.453-2.87-3.066-3.975-4.795c-0.297-0.465-0.161-1.084,0.305-1.381c0.464-0.296,1.082-0.161,1.381,0.304
			c1.019,1.592,2.251,3.079,3.666,4.421c0.4,0.38,0.417,1.013,0.037,1.414C345.688,82.016,345.422,82.121,345.157,82.121z
			 M451.723,78.809c-0.021,0-0.04,0-0.061-0.002c-1.935-0.115-3.914-0.335-6.057-0.673c-0.546-0.086-0.919-0.598-0.831-1.144
			c0.085-0.545,0.598-0.919,1.144-0.832c2.077,0.328,3.995,0.541,5.863,0.652c0.551,0.033,0.972,0.506,0.938,1.057
			C452.688,78.399,452.248,78.809,451.723,78.809z M457.717,78.801c-0.521,0-0.962-0.405-0.997-0.934
			c-0.036-0.551,0.381-1.027,0.933-1.064c1.15-0.076,2.304-0.199,3.424-0.364c0.806-0.119,1.604-0.262,2.375-0.426
			c0.536-0.118,1.07,0.229,1.187,0.77c0.114,0.54-0.229,1.071-0.771,1.186c-0.812,0.173-1.651,0.324-2.498,0.449
			c-1.174,0.173-2.38,0.302-3.584,0.382C457.762,78.8,457.739,78.801,457.717,78.801z M399.218,78.682
			c-0.389,0-0.759-0.229-0.92-0.609c-0.217-0.508,0.021-1.096,0.528-1.313c2.134-0.908,3.917-1.625,5.609-2.256
			c0.519-0.193,1.095,0.07,1.287,0.588c0.192,0.518-0.069,1.093-0.588,1.286c-1.665,0.621-3.421,1.327-5.525,2.223
			C399.481,78.656,399.349,78.682,399.218,78.682z M439.873,77.008c-0.072,0-0.146-0.008-0.219-0.024
			c-2.012-0.448-4.005-0.939-5.859-1.404c-0.535-0.134-0.861-0.677-0.727-1.213c0.134-0.537,0.675-0.86,1.213-0.727
			c1.841,0.461,3.818,0.949,5.809,1.392c0.539,0.12,0.878,0.654,0.759,1.193C440.744,76.691,440.331,77.008,439.873,77.008z
			 M469.387,76.236c-0.392,0-0.764-0.232-0.924-0.618c-0.212-0.51,0.03-1.095,0.541-1.307c1.857-0.77,3.544-1.711,5.014-2.798
			c0.445-0.33,1.071-0.234,1.398,0.21c0.329,0.444,0.234,1.07-0.209,1.398c-1.602,1.183-3.43,2.205-5.438,3.037
			C469.645,76.211,469.515,76.236,469.387,76.236z M410.484,74.561c-0.438,0-0.838-0.289-0.962-0.73
			c-0.149-0.532,0.159-1.084,0.691-1.233c2.112-0.594,4.128-1.028,5.991-1.291c0.548-0.081,1.053,0.305,1.13,0.851
			c0.077,0.547-0.304,1.053-0.851,1.13c-1.774,0.25-3.702,0.667-5.729,1.236C410.665,74.548,410.574,74.561,410.484,74.561z
			 M428.218,74.159c-0.078,0-0.157-0.009-0.235-0.028c-0.946-0.229-1.896-0.453-2.854-0.668c-0.909-0.205-1.876-0.346-2.872-0.418
			c-0.551-0.041-0.965-0.52-0.924-1.071c0.04-0.551,0.498-0.956,1.07-0.924c1.095,0.081,2.158,0.236,3.165,0.462
			c0.967,0.218,1.929,0.444,2.885,0.675c0.536,0.13,0.866,0.67,0.735,1.207C429.078,73.852,428.669,74.159,428.218,74.159z
			 M338.819,72.088c-0.431,0-0.826-0.279-0.957-0.711c-0.355-1.175-0.607-2.378-0.75-3.578c-0.099-0.828-0.147-1.676-0.147-2.521
			v-0.106c0-0.552,0.447-1,1-1s1,0.448,1,1v0.106c0,0.767,0.045,1.535,0.134,2.285c0.129,1.083,0.356,2.172,0.679,3.234
			c0.16,0.529-0.14,1.087-0.668,1.247C339.013,72.074,338.915,72.088,338.819,72.088z M478.847,69.101
			c-0.206,0-0.415-0.063-0.594-0.196c-0.443-0.328-0.538-0.955-0.209-1.398c1.104-1.494,2.018-3.183,2.717-5.021
			c0.196-0.517,0.773-0.775,1.29-0.579c0.518,0.196,0.775,0.774,0.579,1.29c-0.764,2.009-1.766,3.859-2.979,5.499
			C479.456,68.961,479.153,69.101,478.847,69.101z M338.788,60.247c-0.086,0-0.173-0.011-0.259-0.034
			c-0.534-0.143-0.852-0.691-0.708-1.225c0.515-1.927,1.264-3.872,2.227-5.781c0.248-0.493,0.848-0.692,1.343-0.443
			c0.493,0.249,0.691,0.85,0.442,1.343c-0.9,1.787-1.6,3.603-2.08,5.397C339.634,59.951,339.229,60.247,338.788,60.247z
			 M483.151,58.034c-0.044,0-0.089-0.003-0.135-0.009c-0.548-0.074-0.932-0.577-0.857-1.124c0.163-1.216,0.246-2.467,0.246-3.716
			c0-0.688-0.024-1.384-0.073-2.067c-0.04-0.551,0.375-1.029,0.926-1.069c0.569-0.04,1.029,0.375,1.068,0.926
			c0.053,0.731,0.079,1.474,0.079,2.21c0,1.338-0.089,2.677-0.265,3.981C484.074,57.669,483.645,58.034,483.151,58.034z
			 M344.09,49.559c-0.203,0-0.408-0.062-0.585-0.189c-0.447-0.324-0.548-0.949-0.225-1.396c1.176-1.626,2.466-3.223,3.836-4.748
			c0.371-0.412,1.003-0.444,1.412-0.075c0.411,0.369,0.444,1.001,0.075,1.412c-1.322,1.472-2.568,3.014-3.702,4.583
			C344.706,49.416,344.4,49.559,344.09,49.559z M482.328,46.141c-0.442,0-0.847-0.296-0.966-0.744
			c-0.49-1.849-1.152-3.692-1.97-5.481c-0.229-0.502-0.008-1.095,0.495-1.325c0.504-0.23,1.097-0.008,1.325,0.495
			c0.862,1.891,1.563,3.841,2.082,5.798c0.143,0.534-0.177,1.082-0.711,1.223C482.499,46.129,482.413,46.141,482.328,46.141z
			 M352.09,40.643c-0.271,0-0.542-0.11-0.739-0.326c-0.372-0.408-0.343-1.041,0.065-1.413c1.467-1.336,3.042-2.645,4.684-3.887
			c0.44-0.336,1.067-0.247,1.4,0.193c0.334,0.44,0.247,1.068-0.193,1.401c-1.593,1.207-3.121,2.476-4.543,3.771
			C352.572,40.556,352.33,40.643,352.09,40.643z M477.395,35.261c-0.324,0-0.644-0.158-0.836-0.449
			c-1.061-1.606-2.262-3.166-3.57-4.634c-0.368-0.412-0.332-1.044,0.081-1.412c0.411-0.367,1.043-0.333,1.411,0.081
			c1.373,1.541,2.635,3.177,3.748,4.864c0.305,0.461,0.178,1.081-0.283,1.385C477.774,35.207,477.584,35.261,477.395,35.261z
			 M361.63,33.393c-0.33,0-0.653-0.164-0.845-0.462c-0.296-0.466-0.159-1.084,0.307-1.381c1.662-1.06,3.422-2.093,5.232-3.073
			c0.481-0.263,1.091-0.083,1.354,0.403c0.264,0.486,0.082,1.093-0.403,1.355c-1.769,0.957-3.486,1.967-5.109,3
			C362,33.342,361.813,33.393,361.63,33.393z M372.162,27.669c-0.378,0-0.739-0.215-0.908-0.58
			c-0.231-0.501-0.015-1.095,0.486-1.328c1.772-0.822,3.645-1.628,5.56-2.395c0.513-0.206,1.094,0.043,1.301,0.557
			c0.205,0.513-0.044,1.095-0.557,1.3c-1.883,0.754-3.721,1.546-5.462,2.353C372.445,27.639,372.303,27.669,372.162,27.669z
			 M469.442,26.324c-0.229,0-0.46-0.078-0.647-0.238c-1.267-1.077-2.608-2.089-3.989-3.009c-0.239-0.161-0.48-0.318-0.724-0.473
			c-0.465-0.297-0.602-0.916-0.304-1.381c0.298-0.465,0.916-0.602,1.382-0.303c0.254,0.163,0.507,0.328,0.757,0.495
			c1.443,0.961,2.848,2.021,4.173,3.148c0.421,0.358,0.472,0.989,0.114,1.41C470.006,26.204,469.725,26.324,469.442,26.324z
			 M383.296,23.198c-0.414,0-0.801-0.259-0.944-0.672c-0.182-0.521,0.096-1.091,0.616-1.273c1.845-0.641,3.778-1.27,5.747-1.868
			c0.531-0.162,1.087,0.138,1.248,0.666c0.16,0.529-0.138,1.087-0.666,1.248c-1.943,0.591-3.853,1.211-5.673,1.844
			C383.516,23.18,383.404,23.198,383.296,23.198z M459.379,19.847c-0.145,0-0.292-0.032-0.432-0.099
			c-1.732-0.832-3.563-1.587-5.44-2.244c-0.521-0.182-0.796-0.753-0.614-1.274c0.185-0.521,0.752-0.794,1.274-0.614
			c1.947,0.681,3.847,1.465,5.646,2.329c0.498,0.239,0.708,0.836,0.47,1.334C460.109,19.638,459.752,19.847,459.379,19.847z
			 M394.775,19.696c-0.441,0-0.847-0.295-0.966-0.742c-0.143-0.534,0.175-1.082,0.707-1.225c1.882-0.504,3.849-1.001,5.847-1.477
			c0.528-0.126,1.076,0.203,1.204,0.741c0.128,0.537-0.203,1.077-0.741,1.205c-1.979,0.472-3.928,0.964-5.791,1.463
			C394.948,19.685,394.861,19.696,394.775,19.696z M406.447,16.904c-0.463,0-0.878-0.323-0.979-0.793
			c-0.113-0.54,0.231-1.071,0.771-1.185c2.046-0.432,4.039-0.819,5.924-1.149c0.551-0.1,1.062,0.269,1.158,0.812
			c0.095,0.544-0.27,1.063-0.813,1.158c-1.861,0.327-3.832,0.709-5.854,1.137C406.585,16.897,406.516,16.904,406.447,16.904z
			 M448.083,15.871c-0.077,0-0.156-0.009-0.235-0.028c-1.876-0.451-3.828-0.827-5.802-1.117c-0.546-0.08-0.924-0.588-0.844-1.134
			c0.08-0.546,0.574-0.93,1.135-0.844c2.032,0.298,4.044,0.685,5.979,1.151c0.535,0.129,0.866,0.669,0.737,1.206
			C448.944,15.563,448.534,15.871,448.083,15.871z M418.268,14.852c-0.494,0-0.925-0.367-0.989-0.871
			c-0.071-0.548,0.313-1.049,0.861-1.121c2.058-0.267,4.082-0.476,6.021-0.622c0.549-0.038,1.031,0.372,1.072,0.922
			c0.042,0.551-0.371,1.031-0.923,1.072c-1.903,0.143-3.894,0.349-5.913,0.611C418.354,14.849,418.311,14.852,418.268,14.852z
			 M436.227,14.117c-0.021,0-0.043,0-0.063-0.002c-0.802-0.051-1.604-0.088-2.405-0.112c-1.176-0.036-2.35-0.047-3.518-0.033
			c-0.509,0.003-1.005-0.437-1.013-0.988c-0.007-0.552,0.437-1.005,0.988-1.012c1.196-0.014,2.398-0.004,3.604,0.034
			c0.821,0.025,1.646,0.063,2.469,0.115c0.552,0.035,0.971,0.51,0.936,1.061C437.19,13.71,436.75,14.117,436.227,14.117z"/>
	</g>
</g>
<g>
	<circle fill="#E8F5FD" cx="354.895" cy="155.163" r="20.508"/>
	<g>
		<g>
			<circle fill="#FED65C" cx="351.895" cy="152.163" r="20.508"/>
			<circle fill="#F2BF2D" cx="351.895" cy="152.163" r="18.512"/>
			<path fill="#FFFFFF" d="M357.856,145.917c0,3.53-2.67,9.015-5.962,9.015s-5.961-5.485-5.961-9.015
				c0-3.53,2.668-5.808,5.961-5.808S357.856,142.387,357.856,145.917z"/>
			<path fill="#FFFFFF" d="M351.895,170.675c4.178,0,8.03-1.385,11.129-3.719l-1.053-5.281c-0.562-2.818-3.035-4.848-5.909-4.848
				h-8.334c-2.874,0-5.348,2.03-5.908,4.848l-1.053,5.281C343.864,169.29,347.717,170.675,351.895,170.675z"/>
		</g>
		<path fill="#FED65C" d="M340.667,143.989c-0.301,0.931-0.51,1.896-0.775,2.84c-0.211,0.75-0.479,1.525-1.052,2.054
			c-0.573,0.529-1.538,0.71-2.125,0.198c-0.359-0.314-0.504-0.809-0.556-1.283c-0.165-1.514,0.44-3.011,1.224-4.317
			c0.976-1.628,2.283-3.021,3.732-4.236c0.843-0.707,1.695-1.435,2.684-1.937c0.519-0.264,1.679-0.722,2.246-0.45
			c1.167,0.561-1.161,1.891-1.633,2.187c-1.427,0.896-2.583,2.216-3.285,3.748C340.948,143.182,340.799,143.583,340.667,143.989z"/>
	</g>
</g>
<g>
	<g>
		<g>
			<circle fill="#12365A" cx="462.704" cy="391.479" r="15.507"/>
			<g>
				<path fill="#4DBED8" d="M459,389.786v-0.132v-1.452h-6.336v11.862H459v-1.415v-0.133C459,397.419,459,390.886,459,389.786z
					 M457.109,398.794c-0.417,0-0.757-0.339-0.757-0.757s0.34-0.756,0.757-0.756c0.418,0,0.757,0.338,0.757,0.756
					S457.527,398.794,457.109,398.794z"/>
				<circle fill="#FFFFFF" cx="457.109" cy="398.038" r="0.756"/>
				<path fill="#FFFFFF" d="M471.411,388.23c-0.671-0.014-1.344-0.022-2.019-0.03c-0.433-0.005-0.866-0.009-1.3-0.013
					c-0.001,0-0.001,0-0.002,0c-0.596-0.002-2.137-0.004-2.732-0.004c-0.029-0.007-0.059-0.013-0.086-0.021
					c-0.514-0.131-0.98-0.597-0.754-1.146c0.375-0.844,0.751-1.688,1.126-2.526c0.346-0.687,0.419-1.489,0.204-2.235
					c-0.089-0.313-0.179-0.624-0.269-0.938c-0.179-0.622-0.663-1.096-1.263-1.219c-0.416-0.086-0.818,0.237-0.864,0.688
					l-0.029,0.286c-0.098,0.95-0.357,1.879-0.717,2.771c-0.34,0.846-0.77,1.657-1.235,2.426c-0.449,0.739-0.956,1.42-1.478,2.095
					c-0.18,0.233-0.991,0.977-0.991,1.265c0,0,0,0.01,0,0.026v0.131v8.73v0.133c0,0.017,0,0.024,0,0.024
					c0.163,0.021,0.326,0.041,0.49,0.062c0.493,0.059,0.982,0.203,1.448,0.433c0.465,0.23,0.957,0.366,1.451,0.397
					c0.104,0.007,0.209,0.012,0.314,0.019c0.358,0.021,0.717,0.037,1.076,0.05c1.598,0.056,4.144,0.028,5.739-0.079
					c0.242-0.016,0.484-0.033,0.727-0.054c0.6-0.051,1.085-0.579,1.085-1.164c0-0.141,0-0.282,0-0.424
					c0-0.722-0.346-1.277-1.085-1.235c0.158-0.009,0.315-0.019,0.473-0.028c0.6-0.04,1.083-0.555,1.084-1.136
					c0-0.141,0-0.281,0-0.422c0-0.717-0.346-1.279-1.084-1.253c0.157-0.007,0.315-0.013,0.473-0.02
					c0.599-0.026,1.083-0.522,1.083-1.101c0-0.141,0-0.279,0-0.42c0-0.712-0.346-1.283-1.083-1.277
					c0.156-0.002,0.313-0.004,0.472-0.006c0.599-0.01,1.082-0.483,1.082-1.059c0-0.139,0-0.277,0-0.416
					C472.744,388.836,472.148,388.246,471.411,388.23z"/>
				<path fill="#FFFFFF" d="M459,398.518v-8.73C459,390.886,459,397.419,459,398.518z"/>
			</g>
		</g>
		<path fill="#1E486E" d="M453.552,385.1c-0.288,0.891-0.487,1.813-0.742,2.715c-0.2,0.718-0.458,1.459-1.005,1.963
			c-0.547,0.507-1.47,0.68-2.031,0.189c-0.345-0.3-0.482-0.773-0.531-1.227c-0.157-1.447,0.422-2.879,1.17-4.126
			c0.932-1.558,2.182-2.888,3.566-4.05c0.807-0.676,1.622-1.371,2.565-1.852c0.495-0.252,1.604-0.689,2.147-0.43
			c1.115,0.535-1.11,1.807-1.562,2.09c-1.363,0.857-2.469,2.118-3.14,3.582C453.82,384.328,453.678,384.711,453.552,385.1z"/>
	</g>
	<g>
		<g>
			<circle fill="#12365A" cx="470.775" cy="304.059" r="11.847"/>
			<g>
				<path fill="#4DBED8" d="M467.945,302.766v-0.102v-1.109h-4.84v9.063h4.84v-1.081v-0.101
					C467.945,308.596,467.945,303.604,467.945,302.766z M466.5,309.646c-0.319,0-0.578-0.26-0.578-0.578
					c0-0.319,0.259-0.578,0.578-0.578s0.578,0.259,0.578,0.578C467.078,309.387,466.819,309.646,466.5,309.646z"/>
				<circle fill="#FFFFFF" cx="466.5" cy="309.068" r="0.578"/>
				<path fill="#FFFFFF" d="M477.426,301.576c-0.513-0.01-1.026-0.018-1.542-0.023c-0.331-0.003-0.662-0.006-0.993-0.008
					c-0.001-0.001-0.001,0-0.002,0c-0.455-0.003-1.633-0.005-2.088-0.005c-0.021-0.004-0.044-0.009-0.065-0.015
					c-0.393-0.101-0.749-0.457-0.576-0.877c0.287-0.644,0.574-1.287,0.859-1.93c0.264-0.523,0.319-1.138,0.156-1.708
					c-0.069-0.237-0.137-0.477-0.206-0.715c-0.137-0.478-0.506-0.838-0.964-0.933c-0.318-0.064-0.625,0.183-0.661,0.524l-0.021,0.22
					c-0.074,0.726-0.273,1.436-0.547,2.117c-0.261,0.646-0.588,1.266-0.943,1.853c-0.344,0.565-0.73,1.086-1.129,1.6
					c-0.138,0.181-0.757,0.747-0.757,0.968c0,0,0,0.006,0,0.021v0.101v6.67v0.101c0,0.014,0,0.021,0,0.021
					c0.125,0.016,0.249,0.031,0.374,0.047c0.376,0.045,0.751,0.154,1.105,0.33c0.355,0.176,0.73,0.279,1.109,0.303
					c0.08,0.007,0.16,0.011,0.24,0.015c0.273,0.017,0.547,0.028,0.821,0.039c1.221,0.042,3.165,0.021,4.384-0.062
					c0.187-0.013,0.371-0.025,0.557-0.041c0.458-0.039,0.829-0.441,0.829-0.89c0-0.106,0-0.216,0-0.323
					c0-0.552-0.265-0.977-0.829-0.943c0.12-0.008,0.241-0.014,0.361-0.021c0.457-0.031,0.827-0.424,0.827-0.867
					c0-0.106,0-0.215,0-0.322c0-0.547-0.264-0.979-0.827-0.957c0.12-0.006,0.24-0.01,0.36-0.016c0.458-0.021,0.827-0.398,0.827-0.84
					c0-0.107,0-0.214,0-0.32c0-0.545-0.264-0.981-0.827-0.977c0.12-0.001,0.24-0.003,0.36-0.004c0.457-0.008,0.827-0.37,0.826-0.809
					c0-0.106,0-0.213,0-0.318C478.444,302.038,477.989,301.588,477.426,301.576z"/>
				<path fill="#FFFFFF" d="M467.945,309.436v-6.67C467.945,303.604,467.945,308.596,467.945,309.436z"/>
			</g>
		</g>
		<path fill="#1E486E" d="M463.783,299.186c-0.221,0.68-0.373,1.385-0.566,2.072c-0.154,0.549-0.35,1.114-0.769,1.5
			c-0.418,0.387-1.123,0.52-1.553,0.145c-0.263-0.229-0.367-0.59-0.405-0.937c-0.12-1.104,0.321-2.198,0.894-3.151
			c0.712-1.189,1.667-2.207,2.726-3.095c0.615-0.517,1.238-1.047,1.959-1.413c0.379-0.193,1.226-0.527,1.641-0.328
			c0.852,0.408-0.848,1.381-1.193,1.597c-1.042,0.655-1.886,1.618-2.397,2.735C463.988,298.596,463.879,298.889,463.783,299.186z"/>
	</g>
	<g>
		<path fill="#EA5B2C" d="M474.2,340.969c-8.564,0-15.507,6.942-15.507,15.508c0,8.563,6.942,15.508,15.507,15.508
			c8.563,0,15.507-6.943,15.507-15.508C489.707,347.911,482.764,340.969,474.2,340.969z M483.192,358.43
			c-1.543,1.842-3.874,3.178-5.772,4.639c-0.902,0.695-1.805,1.392-2.708,2.086c-0.171,0.133-0.342,0.265-0.513,0.396
			c-0.171-0.132-0.342-0.264-0.514-0.396c-0.901-0.694-1.805-1.391-2.708-2.086c-1.897-1.461-4.229-2.797-5.771-4.639
			c-0.914-1.092-1.339-2.379-1.347-3.638c-0.02-2.817,2.045-5.487,5.362-5.487c2.204,0,4.104,1.299,4.977,3.172
			c0.874-1.873,2.771-3.172,4.976-3.172c3.318,0,5.383,2.67,5.363,5.487C484.531,356.051,484.106,357.338,483.192,358.43z"/>
		<path fill="#F37547" d="M465.327,350.173c-0.288,0.89-0.488,1.812-0.742,2.714c-0.201,0.719-0.458,1.459-1.005,1.965
			c-0.547,0.504-1.47,0.678-2.032,0.188c-0.344-0.301-0.481-0.771-0.531-1.227c-0.156-1.446,0.423-2.877,1.17-4.127
			c0.933-1.557,2.183-2.888,3.567-4.049c0.806-0.676,1.622-1.371,2.565-1.852c0.495-0.252,1.604-0.689,2.146-0.43
			c1.116,0.535-1.109,1.808-1.561,2.09c-1.363,0.856-2.47,2.119-3.141,3.582C465.594,349.4,465.452,349.783,465.327,350.173z"/>
		<path fill="#FFFFFF" d="M479.176,349.305c-2.204,0-4.103,1.299-4.976,3.172c-0.874-1.873-2.772-3.172-4.977-3.172
			c-3.317,0-5.382,2.67-5.362,5.487c0.008,1.259,0.433,2.546,1.347,3.638c1.543,1.842,3.874,3.178,5.771,4.639
			c0.902,0.695,1.806,1.392,2.708,2.086c0.172,0.133,0.343,0.265,0.514,0.396c0.171-0.132,0.342-0.264,0.513-0.396
			c0.902-0.694,1.805-1.391,2.708-2.086c1.898-1.461,4.229-2.797,5.772-4.639c0.914-1.092,1.339-2.379,1.347-3.638
			C484.559,351.975,482.494,349.305,479.176,349.305z"/>
	</g>
	<g>
		<path fill="#EA5B2C" d="M439.802,313.12c-6.543,0-11.847,5.304-11.847,11.847s5.304,11.848,11.847,11.848
			c6.542,0,11.848-5.305,11.848-11.848S446.345,313.12,439.802,313.12z M446.672,326.459c-1.179,1.407-2.959,2.428-4.41,3.544
			c-0.688,0.531-1.379,1.063-2.068,1.595c-0.131,0.101-0.262,0.2-0.392,0.301c-0.131-0.101-0.261-0.2-0.392-0.301
			c-0.689-0.531-1.379-1.063-2.069-1.595c-1.45-1.116-3.229-2.137-4.41-3.544c-0.697-0.834-1.021-1.816-1.028-2.779
			c-0.016-2.15,1.563-4.191,4.097-4.191c1.684,0,3.134,0.992,3.802,2.424c0.667-1.432,2.118-2.424,3.801-2.424
			c2.535,0,4.112,2.041,4.099,4.191C447.694,324.643,447.371,325.625,446.672,326.459z"/>
		<path fill="#F37547" d="M433.023,320.15c-0.221,0.681-0.373,1.385-0.566,2.074c-0.154,0.547-0.35,1.113-0.768,1.5
			c-0.418,0.385-1.123,0.519-1.553,0.145c-0.263-0.229-0.368-0.592-0.405-0.938c-0.12-1.104,0.321-2.199,0.894-3.152
			c0.712-1.188,1.667-2.205,2.725-3.094c0.616-0.517,1.239-1.047,1.959-1.414c0.379-0.191,1.227-0.526,1.641-0.328
			c0.853,0.41-0.849,1.381-1.192,1.598c-1.042,0.654-1.886,1.618-2.397,2.736C433.228,319.563,433.119,319.854,433.023,320.15z"/>
		<path fill="#FFFFFF" d="M443.604,319.486c-1.683,0-3.134,0.992-3.801,2.425c-0.667-1.433-2.118-2.425-3.802-2.425
			c-2.535,0-4.112,2.041-4.097,4.193c0.006,0.961,0.331,1.944,1.028,2.778c1.18,1.407,2.959,2.427,4.41,3.544
			c0.689,0.531,1.379,1.063,2.069,1.594c0.13,0.102,0.261,0.201,0.392,0.303c0.13-0.102,0.262-0.201,0.392-0.303
			c0.689-0.531,1.379-1.063,2.068-1.594c1.45-1.117,3.231-2.137,4.41-3.544c0.699-0.834,1.022-1.817,1.029-2.778
			C447.715,321.527,446.138,319.486,443.604,319.486z"/>
	</g>
	<g>
		<g>
			<circle fill="#12365A" cx="460.991" cy="266.168" r="8.475"/>
			<g>
				<path fill="#4DBED8" d="M458.966,265.243v-0.072v-0.794h-3.462v6.482h3.462v-0.772v-0.071
					C458.966,269.414,458.966,265.844,458.966,265.243z M457.933,270.166c-0.228,0-0.413-0.186-0.413-0.413
					c0-0.229,0.186-0.414,0.413-0.414c0.229,0,0.414,0.187,0.414,0.414C458.346,269.98,458.161,270.166,457.933,270.166z"/>
				<circle fill="#FFFFFF" cx="457.933" cy="269.752" r="0.414"/>
				<path fill="#FFFFFF" d="M465.749,264.393c-0.367-0.006-0.734-0.013-1.103-0.017c-0.236-0.003-0.474-0.005-0.711-0.006h-0.001
					c-0.324-0.002-1.168-0.003-1.493-0.003c-0.017-0.004-0.032-0.008-0.048-0.012c-0.28-0.07-0.535-0.325-0.411-0.627
					c0.205-0.461,0.41-0.92,0.615-1.381c0.188-0.375,0.229-0.813,0.111-1.222c-0.049-0.17-0.098-0.341-0.146-0.512
					c-0.099-0.341-0.362-0.599-0.69-0.666c-0.229-0.048-0.447,0.13-0.473,0.375l-0.017,0.155c-0.054,0.521-0.195,1.027-0.392,1.516
					c-0.187,0.462-0.42,0.906-0.675,1.324c-0.246,0.406-0.522,0.777-0.809,1.146c-0.099,0.129-0.542,0.534-0.542,0.691
					c0,0,0,0.005,0,0.014v0.072v4.771v0.071c0,0.009,0,0.015,0,0.015c0.089,0.012,0.179,0.021,0.269,0.032
					c0.27,0.032,0.538,0.111,0.792,0.237c0.254,0.125,0.521,0.199,0.793,0.217c0.057,0.004,0.113,0.006,0.171,0.01
					c0.195,0.012,0.392,0.021,0.588,0.027c0.874,0.03,2.265,0.016,3.137-0.043c0.132-0.009,0.266-0.02,0.397-0.029
					c0.328-0.027,0.593-0.316,0.593-0.637c0-0.077,0-0.154,0-0.23c0-0.396-0.189-0.698-0.593-0.676
					c0.086-0.005,0.172-0.011,0.258-0.017c0.328-0.021,0.592-0.304,0.592-0.62c0-0.077,0-0.152,0-0.23
					c0-0.392-0.188-0.699-0.592-0.685c0.086-0.004,0.172-0.007,0.258-0.011c0.327-0.016,0.592-0.286,0.592-0.602
					c0-0.076,0-0.152,0-0.229c0-0.39-0.188-0.702-0.592-0.698c0.086-0.001,0.172-0.003,0.258-0.004
					c0.327-0.005,0.591-0.266,0.591-0.578c0-0.076,0-0.15,0-0.229C466.478,264.725,466.152,264.4,465.749,264.393z"/>
				<path fill="#FFFFFF" d="M458.966,270.016v-4.771C458.966,265.844,458.966,269.414,458.966,270.016z"/>
			</g>
		</g>
		<path fill="#1E486E" d="M455.989,262.682c-0.157,0.486-0.268,0.99-0.405,1.483c-0.11,0.392-0.25,0.797-0.549,1.073
			c-0.299,0.275-0.804,0.371-1.11,0.104c-0.188-0.164-0.264-0.423-0.291-0.671c-0.086-0.79,0.23-1.571,0.64-2.255
			c0.509-0.852,1.191-1.578,1.949-2.213c0.44-0.369,0.887-0.75,1.402-1.012c0.271-0.139,0.877-0.377,1.173-0.235
			c0.61,0.293-0.605,0.987-0.853,1.144c-0.745,0.469-1.351,1.157-1.716,1.957C456.135,262.26,456.058,262.469,455.989,262.682z"/>
	</g>
	<g>
		<path fill="#EA5B2C" d="M482.621,271.38c-4.68,0-8.475,3.794-8.475,8.476s3.795,8.476,8.475,8.476
			c4.682,0,8.476-3.794,8.476-8.476S487.303,271.38,482.621,271.38z M487.536,280.923c-0.843,1.007-2.117,1.736-3.154,2.535
			c-0.493,0.38-0.987,0.76-1.479,1.142c-0.095,0.07-0.188,0.144-0.281,0.215c-0.093-0.071-0.188-0.145-0.279-0.215
			c-0.494-0.382-0.986-0.762-1.479-1.142c-1.038-0.799-2.312-1.528-3.155-2.535c-0.5-0.597-0.731-1.301-0.736-1.987
			c-0.011-1.541,1.118-3,2.932-3c1.205,0,2.243,0.709,2.719,1.733c0.479-1.024,1.516-1.733,2.721-1.733c1.813,0,2.941,1.459,2.932,3
			C488.268,279.622,488.036,280.326,487.536,280.923z"/>
		<path fill="#F37547" d="M477.772,276.41c-0.157,0.486-0.268,0.99-0.405,1.482c-0.11,0.393-0.25,0.797-0.549,1.073
			c-0.3,0.276-0.805,0.371-1.11,0.103c-0.188-0.162-0.264-0.422-0.291-0.67c-0.086-0.791,0.23-1.571,0.639-2.254
			c0.51-0.852,1.192-1.578,1.95-2.213c0.44-0.371,0.886-0.75,1.402-1.013c0.271-0.138,0.877-0.377,1.173-0.235
			c0.61,0.293-0.607,0.988-0.853,1.144c-0.745,0.469-1.351,1.157-1.717,1.958C477.918,275.988,477.841,276.197,477.772,276.41z"/>
		<path fill="#FFFFFF" d="M485.342,275.936c-1.205,0-2.242,0.709-2.721,1.733c-0.478-1.024-1.515-1.733-2.719-1.733
			c-1.813,0-2.942,1.459-2.932,3c0.004,0.688,0.236,1.392,0.736,1.987c0.844,1.007,2.117,1.736,3.155,2.535
			c0.494,0.38,0.986,0.76,1.479,1.142c0.093,0.07,0.188,0.144,0.279,0.215c0.094-0.071,0.188-0.145,0.281-0.215
			c0.491-0.382,0.985-0.762,1.479-1.142c1.037-0.799,2.313-1.528,3.154-2.535c0.5-0.597,0.73-1.301,0.736-1.987
			C488.283,277.395,487.154,275.936,485.342,275.936z"/>
	</g>
	<g>
		<g>
			<circle fill="#12365A" cx="472.744" cy="214.196" r="7.054"/>
			<g>
				<path fill="#4DBED8" d="M471.059,213.425v-0.06v-0.661h-2.882v5.396h2.882v-0.644v-0.06
					C471.059,216.897,471.059,213.925,471.059,213.425z M470.199,217.523c-0.19,0-0.344-0.154-0.344-0.344
					c0-0.19,0.153-0.344,0.344-0.344c0.189,0,0.344,0.154,0.344,0.344S470.389,217.523,470.199,217.523z"/>
				<circle fill="#FFFFFF" cx="470.199" cy="217.179" r="0.344"/>
				<path fill="#FFFFFF" d="M476.705,212.717c-0.306-0.005-0.612-0.01-0.918-0.014c-0.197-0.002-0.395-0.003-0.591-0.005h-0.001
					c-0.271-0.002-0.973-0.002-1.243-0.002c-0.013-0.003-0.026-0.005-0.04-0.009c-0.233-0.06-0.446-0.272-0.342-0.521
					c0.17-0.384,0.341-0.767,0.512-1.149c0.157-0.312,0.189-0.677,0.093-1.017c-0.041-0.142-0.082-0.284-0.123-0.426
					c-0.082-0.284-0.302-0.499-0.575-0.555c-0.188-0.039-0.372,0.108-0.393,0.313l-0.013,0.13c-0.044,0.433-0.163,0.855-0.326,1.261
					c-0.155,0.385-0.351,0.754-0.563,1.103c-0.205,0.337-0.435,0.646-0.672,0.953c-0.082,0.107-0.451,0.444-0.451,0.576
					c0,0,0,0.004,0,0.012v0.06v3.972v0.06c0,0.008,0,0.012,0,0.012c0.074,0.01,0.148,0.019,0.224,0.028
					c0.224,0.026,0.446,0.092,0.659,0.197c0.211,0.104,0.435,0.167,0.659,0.181c0.049,0.003,0.096,0.005,0.144,0.008
					c0.163,0.009,0.326,0.017,0.489,0.023c0.727,0.024,1.885,0.013,2.61-0.036c0.11-0.007,0.22-0.016,0.331-0.025
					c0.273-0.023,0.493-0.263,0.493-0.529c0-0.064,0-0.129,0-0.193c0-0.328-0.157-0.581-0.493-0.562
					c0.072-0.004,0.144-0.009,0.215-0.014c0.272-0.018,0.493-0.252,0.493-0.516c0-0.064,0-0.128,0-0.192
					c0-0.326-0.157-0.583-0.493-0.57c0.072-0.002,0.144-0.005,0.215-0.008c0.272-0.013,0.493-0.238,0.493-0.501
					c0-0.063,0-0.127,0-0.19c0-0.324-0.156-0.584-0.493-0.581c0.072-0.001,0.144-0.002,0.216-0.003
					c0.271-0.004,0.491-0.22,0.491-0.481c0-0.063,0-0.126,0-0.189C477.311,212.993,477.04,212.725,476.705,212.717z"/>
				<path fill="#FFFFFF" d="M471.059,217.397v-3.972C471.059,213.925,471.059,216.897,471.059,217.397z"/>
			</g>
		</g>
		<path fill="#1E486E" d="M468.581,211.293c-0.131,0.405-0.222,0.824-0.337,1.235c-0.091,0.326-0.208,0.663-0.457,0.893
			c-0.25,0.23-0.669,0.309-0.924,0.086c-0.156-0.136-0.22-0.352-0.242-0.558c-0.072-0.658,0.191-1.309,0.532-1.877
			c0.424-0.708,0.991-1.313,1.623-1.842c0.366-0.308,0.737-0.624,1.167-0.842c0.226-0.114,0.729-0.313,0.977-0.195
			c0.507,0.244-0.505,0.822-0.71,0.951c-0.62,0.39-1.123,0.964-1.428,1.629C468.703,210.942,468.638,211.117,468.581,211.293z"/>
	</g>
	<g>
		<path fill="#EA5B2C" d="M470.775,239.496c-3.896,0-7.056,3.158-7.056,7.054s3.159,7.056,7.056,7.056
			c3.896,0,7.054-3.16,7.054-7.056S474.671,239.496,470.775,239.496z M474.866,247.438c-0.702,0.838-1.763,1.445-2.626,2.11
			c-0.411,0.316-0.821,0.633-1.232,0.949c-0.078,0.06-0.155,0.119-0.232,0.18c-0.078-0.061-0.156-0.12-0.233-0.18
			c-0.411-0.316-0.821-0.633-1.232-0.949c-0.862-0.665-1.923-1.272-2.625-2.11c-0.416-0.497-0.608-1.082-0.612-1.655
			c-0.01-1.281,0.93-2.496,2.439-2.496c1.002,0,1.866,0.591,2.265,1.443c0.396-0.853,1.261-1.443,2.264-1.443
			c1.509,0,2.448,1.215,2.44,2.496C475.475,246.356,475.282,246.941,474.866,247.438z"/>
		<path fill="#F37547" d="M466.738,243.682c-0.131,0.406-0.223,0.825-0.337,1.235c-0.092,0.327-0.208,0.663-0.458,0.894
			c-0.249,0.229-0.668,0.309-0.925,0.086c-0.156-0.137-0.219-0.352-0.241-0.559c-0.072-0.658,0.191-1.309,0.531-1.877
			c0.425-0.707,0.993-1.313,1.623-1.842c0.367-0.307,0.738-0.623,1.167-0.842c0.227-0.115,0.73-0.314,0.978-0.195
			c0.507,0.244-0.505,0.822-0.71,0.951c-0.62,0.389-1.123,0.963-1.429,1.629C466.86,243.332,466.795,243.506,466.738,243.682z"/>
		<path fill="#FFFFFF" d="M473.039,243.287c-1.002,0-1.866,0.591-2.264,1.443c-0.397-0.853-1.262-1.443-2.265-1.443
			c-1.51,0-2.449,1.215-2.439,2.496c0.004,0.573,0.196,1.158,0.612,1.655c0.702,0.838,1.763,1.445,2.625,2.11
			c0.411,0.316,0.821,0.633,1.232,0.949c0.078,0.06,0.156,0.119,0.233,0.18c0.077-0.061,0.154-0.12,0.232-0.18
			c0.411-0.316,0.821-0.633,1.232-0.949c0.863-0.665,1.924-1.272,2.626-2.11c0.416-0.497,0.608-1.082,0.612-1.655
			C475.487,244.502,474.548,243.287,473.039,243.287z"/>
	</g>
</g>
</svg>
