<?xml version="1.0" encoding="utf-8"?>
<!-- Generator: Adobe Illustrator 16.0.0, SVG Export Plug-In . SVG Version: 6.00 Build 0)  -->
<!DOCTYPE svg PUBLIC "-//W3C//DTD SVG 1.1//EN" "http://www.w3.org/Graphics/SVG/1.1/DTD/svg11.dtd">
<svg version="1.1" xmlns="http://www.w3.org/2000/svg" xmlns:xlink="http://www.w3.org/1999/xlink" x="0px" y="0px" width="7000px"
	 height="4000px" viewBox="0 0 7000 4000" enable-background="new 0 0 7000 4000" xml:space="preserve">
<g id="Layer_1">
	<rect fill="#FFFFFF" width="7000" height="4000"/>
</g>
<g id="Layer_2">
	<g>
		<path fill="#44465F" d="M3192.109,1000.462v-88.408c0-2.327,1.886-4.212,4.212-4.212h7.575c2.327,0,4.213,1.886,4.213,4.212
			v88.408c0,2.327-1.886,4.212-4.213,4.212h-7.575C3193.995,1004.674,3192.109,1002.789,3192.109,1000.462z"/>
		<path fill="#44465F" d="M3192.109,1233.029v-143.375c0-2.934,2.378-5.313,5.313-5.313h5.375c2.934,0,5.313,2.378,5.313,5.313
			v143.375c0,2.934-2.379,5.313-5.313,5.313h-5.375C3194.487,1238.341,3192.109,1235.963,3192.109,1233.029z"/>
		<path fill="#44465F" d="M3192.109,1418.133v-137.584c0-2.876,2.331-5.208,5.208-5.208h5.584c2.876,0,5.208,2.332,5.208,5.208
			v137.584c0,2.876-2.332,5.208-5.208,5.208h-5.584C3194.44,1423.341,3192.109,1421.01,3192.109,1418.133z"/>
		<path fill="#0196F2" d="M4088.466,2718.397h-766.141c-64.261,0-116.837-52.577-116.837-116.837V767.881
			c0-64.26,52.576-116.837,116.837-116.837h766.141c64.261,0,116.837,52.577,116.837,116.837v1833.679
			C4205.303,2665.82,4152.727,2718.397,4088.466,2718.397z"/>
		<rect x="3268.268" y="903.977" fill="#FFFFFF" width="880.174" height="1563.076"/>
		<path fill="#E4EFFF" d="M3770.518,2622.32h-150.65c-8.289,0-15.009-6.72-15.009-15.008v-46.441c0-8.289,6.72-15.009,15.009-15.009
			h150.65c8.289,0,15.009,6.72,15.009,15.009v46.441C3785.526,2615.601,3778.807,2622.32,3770.518,2622.32z"/>
		<path fill="#E4EFFF" d="M3784.026,783.503h-173.168c-3.543,0-6.416-2.873-6.416-6.417v-6.492c0-3.543,2.873-6.417,6.416-6.417
			h173.168c3.543,0,6.416,2.873,6.416,6.417v6.492C3790.442,780.631,3787.569,783.503,3784.026,783.503z"/>
		<g>
			<path fill="#E4EFFF" d="M3340.442,1123.024c0-21.1,17.408-38.683,38.508-38.683h604.902c21.1,0,38.59,17.583,38.59,38.683v77.339
				v65.555v1.003c0,20.548-17.039,37.42-37.587,37.42h-1.003h-1.378c-7.355,0-13.237,3.229-12.953,10.58l0.259,6.671l1.118,29.218
				c0.461,12.062-14.363,18.148-22.514,9.246l-35.369-38.632l-14.916-13.018c-2.451-2.612-5.873-4.065-9.454-4.065H3378.95h-0.154
				c-20.059,0-36.707-15.7-38.165-35.403c-0.077-0.987-0.188-2.014-0.188-3.02V1123.024z"/>
			<path fill="#AFBEDD" d="M3622.414,1144.325h-235.076c-3.141,0-5.71-2.57-5.71-5.71v-3.395c0-3.141,2.57-5.71,5.71-5.71h235.076
				c3.141,0,5.71,2.57,5.71,5.71v3.395C3628.124,1141.755,3625.555,1144.325,3622.414,1144.325z"/>
			<path fill="#FFFFFF" d="M3761.155,1193.005h-374.559c-2.744,0-4.969-2.225-4.969-4.969v-4.878c0-2.744,2.225-4.969,4.969-4.969
				h374.559c2.744,0,4.969,2.225,4.969,4.969v4.878C3766.124,1190.78,3763.899,1193.005,3761.155,1193.005z"/>
			<path fill="#AFBEDD" d="M3761.155,1228.536h-374.559c-2.744,0-4.969-2.225-4.969-4.969v-4.877c0-2.744,2.225-4.969,4.969-4.969
				h374.559c2.744,0,4.969,2.225,4.969,4.969v4.877C3766.124,1226.312,3763.899,1228.536,3761.155,1228.536z"/>
		</g>
		<g>
			<path fill="#E4EFFF" d="M3340.442,1890.024c0-21.1,17.408-38.683,38.508-38.683h604.902c21.1,0,38.59,17.583,38.59,38.683v77.339
				v65.555v1.003c0,20.549-17.039,37.421-37.587,37.421h-1.003h-1.378c-7.355,0-13.237,3.229-12.953,10.579l0.259,6.671
				l1.118,29.219c0.461,12.062-14.363,18.148-22.514,9.246l-35.369-38.633l-14.916-13.017c-2.451-2.612-5.873-4.065-9.454-4.065
				H3378.95h-0.154c-20.059,0-36.707-15.701-38.165-35.403c-0.077-0.987-0.188-2.015-0.188-3.021V1890.024z"/>
			<path fill="#AFBEDD" d="M3622.414,1911.325h-235.076c-3.141,0-5.71-2.57-5.71-5.71v-3.395c0-3.141,2.57-5.71,5.71-5.71h235.076
				c3.141,0,5.71,2.57,5.71,5.71v3.395C3628.124,1908.755,3625.555,1911.325,3622.414,1911.325z"/>
			<path fill="#FFFFFF" d="M3761.155,1960.005h-374.559c-2.744,0-4.969-2.225-4.969-4.969v-4.878c0-2.744,2.225-4.969,4.969-4.969
				h374.559c2.744,0,4.969,2.225,4.969,4.969v4.878C3766.124,1957.78,3763.899,1960.005,3761.155,1960.005z"/>
			<path fill="#FFFFFF" d="M3761.155,1995.536h-374.559c-2.744,0-4.969-2.225-4.969-4.969v-4.878c0-2.744,2.225-4.969,4.969-4.969
				h374.559c2.744,0,4.969,2.225,4.969,4.969v4.878C3766.124,1993.312,3763.899,1995.536,3761.155,1995.536z"/>
		</g>
		<g>
			<path fill="#E4EFFF" d="M4074.442,1506.524c0-21.1-17.49-38.183-38.59-38.183H3430.95c-21.1,0-38.508,17.083-38.508,38.183
				v77.339v65.555v1.003c0,20.548,16.957,36.92,37.505,36.92h1.003h1.378c7.355,0,13.237,3.479,12.953,10.83l-0.259,6.796
				l-1.119,29.281c-0.461,12.062,14.363,18.179,22.514,9.277l35.369-38.617l14.916-13.26c2.45-2.612,5.873-4.308,9.454-4.308
				h509.695h0.154c20.059,0,36.748-15.45,38.206-35.153c0.076-0.987,0.229-1.764,0.229-2.77V1506.524z"/>
			<path fill="#AFBEDD" d="M3792.389,1527.825h235.076c3.141,0,5.711-2.57,5.711-5.71v-3.395c0-3.141-2.57-5.71-5.711-5.71h-235.076
				c-3.141,0-5.711,2.57-5.711,5.71v3.395C3786.678,1525.255,3789.248,1527.825,3792.389,1527.825z"/>
			<path fill="#FFFFFF" d="M3653.647,1576.505h374.559c2.744,0,4.97-2.225,4.97-4.969v-4.878c0-2.744-2.226-4.969-4.97-4.969
				h-374.559c-2.744,0-4.97,2.225-4.97,4.969v4.878C3648.678,1574.28,3650.903,1576.505,3653.647,1576.505z"/>
			<path fill="#AFBEDD" d="M3653.647,1612.036h374.559c2.744,0,4.97-2.225,4.97-4.969v-4.877c0-2.744-2.226-4.969-4.97-4.969
				h-374.559c-2.744,0-4.97,2.225-4.97,4.969v4.877C3648.678,1609.812,3650.903,1612.036,3653.647,1612.036z"/>
		</g>
	</g>
	<g>
		<g>
			<path fill="#0F094C" d="M4914.055,1830.37l-0.973-3.449l-0.113-0.393l-1.143-4.076c-2.566,0.729-63.385,18.76-118.66,112.196
				c-32.238,54.466-55.836,123.509-70.169,205.205c-11.47,65.378-16.993,139.052-16.538,220.146
				c0.117,20.537,0.605,41.55,1.491,63.033c0.8,19.645,1.929,39.687,3.38,60.1l8.35-1.492c-0.662-9.369-1.254-18.594-1.765-27.676
				c-2.306-40.604-3.224-78.545-2.963-113.972c1.619-209.675,44.679-331.715,84.92-400.151
				c52.543-89.324,111.378-108.398,114.139-109.233c0.054-0.024,0.081-0.029,0.095-0.031L4914.055,1830.37z M4914.055,1830.37
				l-1.166-3.415l0.815,3.692l0.003,0.014l0.414-0.074L4914.055,1830.37z"/>
		</g>
		<path fill="#0196F2" d="M4977.928,1686.95c0,0-26.353-48.756-73.79-40.885c0,0-36.475,32.637-4.327,93.607
			c0,0-54.584-6.844-87.24,35.846c0,0,10.861,51.476,72.049,66.057c0,0-26.998,60.631,1.349,92.155c0,0,43.856,9.411,76.327-29.14
			c0,0,21.031,61.325,70.461,66.107c0,0,37.455-21.859,34.331-79.94c0,0,53.147,11.658,88.473-17.127
			c0,0-6.638-58.604-40.542-75.009c0,0,48.418-26.978,43.621-77.693c0,0-40.949-27.943-74.99-8.736c0,0-1.08-73.724-53.719-99.387
			C5029.93,1612.805,4978.217,1626.217,4977.928,1686.95z"/>
		<circle fill="#0F094C" cx="4993.45" cy="1794.868" r="65.053"/>
		<circle fill="#FECD40" cx="4993.45" cy="1794.867" r="30.352"/>
		<path fill="#0196F2" d="M4755.83,2022.937c0,0,11.561-131.889-58.967-96.459c0,0-41.484,21.323-4.139,60.658
			c0,0,19.838,24.102,62.477,41.712L4755.83,2022.937z"/>
		<path fill="#0196F2" d="M4764.483,2021.575c0,0,96.387-90.763,112.252-13.447c0,0,8.953,45.776-45.06,40.819
			c0,0-31.209-0.648-71.444-23.217L4764.483,2021.575z"/>
		<path fill="#0196F2" d="M4725.367,2147.071c0,0,13.846-157.957-70.621-115.524c0,0-49.685,25.538-4.958,72.647
			c0,0,23.76,28.866,74.825,49.957L4725.367,2147.071z"/>
		<path fill="#0196F2" d="M4732.803,2147.354c0,0,101.809-121.562,131.6-31.852c0,0,17.115,53.177-47.821,54.911
			c0,0-37.209,3.639-88.248-17.518L4732.803,2147.354z"/>
		<path fill="#0196F2" d="M4717.723,2276.629c0,0,73.639-140.427,121.822-59.103c0,0,28.028,48.323-35.056,63.823
			c0,0-35.585,11.467-89.954,1.645L4717.723,2276.629z"/>
		<path fill="#0196F2" d="M4711.58,2271.959c0,0-24.258-156.695-96.155-95.327c0,0-42.152,36.659,12.526,71.73
			c0,0,29.963,22.359,84.587,30.651L4711.58,2271.959z"/>
	</g>
	<g>
		<g>
			<path fill="#0F094C" d="M1583.387,1693.585c0.013,0.002,0.042,0.007,0.095,0.031c2.76,0.835,61.596,19.91,114.139,109.234
				c40.242,68.437,83.3,190.476,84.92,400.151c0.26,35.426-0.657,73.367-2.963,113.971c-0.51,9.083-1.103,18.307-1.765,27.676
				l8.351,1.492c1.451-20.412,2.579-40.455,3.379-60.1c0.886-21.483,1.374-42.496,1.492-63.032
				c0.454-81.094-5.068-154.768-16.539-220.146c-14.333-81.696-37.931-150.74-70.168-205.206
				c-55.276-93.436-116.094-111.466-118.661-112.196l-1.142,4.076l-0.113,0.394l-0.973,3.45L1583.387,1693.585z M1583.371,1693.597
				l0.414,0.074l0.003-0.014l0.816-3.692l-1.167,3.415L1583.371,1693.597z"/>
		</g>
		<path fill="#0298DB" d="M1519.564,1549.96c0,0,26.353-48.756,73.791-40.885c0,0,36.474,32.638,4.328,93.608
			c0,0,54.583-6.843,87.24,35.846c0,0-10.861,51.475-72.05,66.056c0,0,26.998,60.631-1.349,92.155c0,0-43.856,9.411-76.327-29.139
			c0,0-21.031,61.325-70.461,66.107c0,0-37.454-21.859-34.331-79.94c0,0-53.147,11.658-88.473-17.127
			c0,0,6.637-58.604,40.542-75.009c0,0-48.418-26.978-43.622-77.693c0,0,40.95-27.943,74.991-8.736c0,0,1.079-73.725,53.719-99.388
			C1467.563,1475.815,1519.275,1489.228,1519.564,1549.96z"/>
		<circle fill="#0F094C" cx="1504.042" cy="1657.878" r="65.053"/>
		<circle fill="#FECD40" cx="1504.042" cy="1657.878" r="30.352"/>
		<path fill="#0196F2" d="M1741.662,1885.947c0,0-11.561-131.89,58.967-96.459c0,0,41.485,21.323,4.14,60.658
			c0,0-19.839,24.102-62.477,41.712L1741.662,1885.947z"/>
		<path fill="#0196F2" d="M1733.01,1884.585c0,0-96.388-90.763-112.253-13.447c0,0-8.953,45.777,45.06,40.819
			c0,0,31.21-0.648,71.444-23.217L1733.01,1884.585z"/>
		<path fill="#0196F2" d="M1772.125,2010.082c0,0-13.846-157.957,70.622-115.525c0,0,49.684,25.538,4.958,72.647
			c0,0-23.76,28.866-74.825,49.957L1772.125,2010.082z"/>
		<path fill="#0196F2" d="M1764.69,2010.363c0,0-101.809-121.561-131.601-31.851c0,0-17.115,53.177,47.821,54.912
			c0,0,37.209,3.639,88.248-17.518L1764.69,2010.363z"/>
		<path fill="#0196F2" d="M1779.769,2139.639c0,0-73.637-140.426-121.821-59.102c0,0-28.028,48.322,35.055,63.823
			c0,0,35.584,11.466,89.955,1.645L1779.769,2139.639z"/>
		<path fill="#0196F2" d="M1785.912,2134.97c0,0,24.258-156.696,96.156-95.327c0,0,42.152,36.658-12.526,71.729
			c0,0-29.963,22.36-84.587,30.652L1785.912,2134.97z"/>
	</g>
	<g>
		<path fill="#AFBEDD" d="M2510.319,2347.392c-24.344-39.381-48.02-78.818-87.834-100.905
			c-39.26-21.779-86.607-21.983-131.534-26.38c-36.525-3.574-83.304-11.294-109.241-39.741
			c-10.629-11.658-16.192-24.148-28.168-35.164c-11.337-10.428-32.858-24.499-33.174-42.212c-6.09-27.325,16.27-53.331,40.157-68.56
			c23.887-15.229,51.874-25.953,69.22-48.326c28.317-36.524,11.542-97.73-31.236-113.965c-19.178-7.278-43.419-7.891-54.84-24.836
			c-15.37-22.803,6.32-53.216,29.542-68.683c23.223-15.467,52.178-29.757,58.136-56.848c12.433-56.533-86.845-89.847-74.787-146.455
			c6.366-29.885,43.629-44.645,73.382-38.079s53.479,27.812,76.413,47.623c22.936,19.812,48.388,39.747,78.768,42.693
			c48.112,4.667,89.654-34.325,117.432-74.231c12.486-17.938,26.438-38.521,47.989-41.828c16.205-2.486,32.588,6.433,42.021,19.62
			s12.753,29.942,12.793,46.246c0.091,36.701-14.995,71.681-27.161,106.496c-12.168,34.816-21.604,73.022-10.227,107.767
			c11.377,34.745,51.142,62.009,85.295,47.779c20.385-8.493,33.146-28.447,48.671-44.178c15.525-15.731,40.153-28.09,58.851-16.835
			c14.982,9.018,18.741,28.856,19.258,46.394c1.937,65.722-22.323,132.229-66.343,181.875
			c-16.737,18.877-36.247,35.478-50.457,56.296c-14.211,20.819-22.621,47.735-13.78,71.017c9.322,24.549,35.217,39.306,46.208,63.14
			c12.984,28.153,2.354,61.284-8.355,90.706c-11.501,31.599-33.918,70.524-31.642,104.146c1.672,24.692,0.468,51.481-33.438,54.438
			c-22.603,1.972-43.469-11.631-59.393-27.473C2542.039,2398.233,2526.04,2372.824,2510.319,2347.392z"/>
		<path fill="#FFFFFF" d="M2629.496,2257.574c1.429,0.96,3.227,1.379,5.051,1.03c3.678-0.702,6.093-4.252,5.389-7.931
			c-41.458-217.29-150.833-398.19-235.286-511.683c-91.475-122.93-174.379-195.603-175.205-196.321
			c-2.835-2.454-7.104-2.162-9.569,0.661c-2.459,2.824-2.161,7.108,0.661,9.565c3.269,2.846,327.664,289.346,406.079,700.32
			C2626.967,2255.068,2628.044,2256.6,2629.496,2257.574z"/>
		<path fill="#FFFFFF" d="M2584.09,2093.321c0.268,0.179,0.547,0.341,0.845,0.484c3.375,1.626,7.426,0.208,9.05-3.168
			c42.055-87.286,101.736-254.57,102.337-256.25c1.257-3.527-0.569-7.396-4.116-8.664c-3.527-1.256-7.407,0.586-8.664,4.114
			c-0.592,1.673-60.036,168.28-101.772,254.917C2580.285,2087.828,2581.333,2091.471,2584.09,2093.321z"/>
		<path fill="#FFFFFF" d="M2317.374,2116.374c31.4,21.082,196.712,125.725,296.406,63.312c3.174-1.987,4.138-6.172,2.152-9.345
			c-1.992-3.188-5.924-4.515-9.094-2.524c-100.537,62.94-284.245-65.426-286.136-66.695c-0.041-0.027-0.084-0.057-0.125-0.084
			c-3.054-2.05-7.45-0.919-9.578,2.101c-2.152,3.063-1.544,7.48,1.517,9.637C2313.13,2113.207,2314.705,2114.583,2317.374,2116.374z
			"/>
		<path fill="#FFFFFF" d="M2243.438,1827.875c1.264,0.849,2.824,1.281,4.457,1.115c1.215-0.123,122.954-11.396,240.924,61.029
			c3.193,1.96,7.368,0.962,9.329-2.229c1.957-3.19,0.941-7.438-2.231-9.325c-122.03-74.922-244.248-63.492-249.391-62.967
			c-3.723,0.38-6.433,3.705-6.058,7.43C2240.677,1825.017,2241.821,1826.79,2243.438,1827.875z"/>
		<path fill="#FFFFFF" d="M2498.644,1907.516c1.209,0.813,2.686,1.243,4.25,1.131c3.737-0.261,6.552-3.502,6.29-7.238
			c-6.867-97.77,29.191-300.865,29.556-302.904c0.661-3.685-1.782-7.213-5.48-7.869c-3.688-0.66-7.211,1.792-7.869,5.479
			c-1.502,8.398-36.722,206.792-29.735,306.245C2495.81,1904.531,2496.965,1906.389,2498.644,1907.516z"/>
	</g>
	<g>
		<path fill="#ADB0FA" d="M5071.834,2747.688c-1.852,0.994-3.73,2.01-5.635,2.996c0,0-0.691-1.615-1.998-4.705
			c-18.774-45.631-160.611-413.467,19.614-714.096c1.416-2.417,2.856-4.805,4.322-7.164c23.284-37.637,51.71-74.128,86.116-108.762
			c0,0,46.633-49.863,146.785-72.524c2.209-0.531,4.471-1.056,6.758-1.499c45.734-9.589,102.092-13.419,169.783-4.687
			c1.271,0.13,2.619,0.297,3.942,0.487c0,0,0.743,1.519,2.126,4.44c12.531,27.451,75.463,178.339,36.439,366.655
			c-0.5,2.445-1.024,4.913-1.576,7.352C5501.377,2384.811,5381.732,2582.297,5071.834,2747.688z"/>
		<g>
			<path fill="#FFFFFF" d="M5069.461,2752.64l-3.262-1.956l-3.285-1.986l1.287-2.719l433.379-908.73
				c1.271,0.13,2.619,0.297,3.942,0.487c0,0,0.743,1.519,2.126,4.44l-431.814,905.513L5069.461,2752.64z"/>
		</g>
		<g>
			<path fill="#FFFFFF" d="M5538.512,2216.182l-216.613-1.062l-1.018-7.364l219.207,1.074
				C5539.588,2211.275,5539.063,2213.743,5538.512,2216.182z"/>
		</g>
		<g>
			<path fill="#FFFFFF" d="M5242.469,2380.909l-4.565,6.729l-154.088-355.755c1.416-2.417,2.856-4.805,4.322-7.164
				L5242.469,2380.909z"/>
		</g>
		<g>
			<path fill="#FFFFFF" d="M5406.797,2042.407l-6.631,1.851l-79.127-200.825c2.209-0.531,4.471-1.056,6.758-1.499L5406.797,2042.407
				z"/>
		</g>
	</g>
	<g>
		<path fill="#ADB0FA" d="M5146.859,2726.478c-2.584-0.508-5.211-1.014-7.84-1.568c0,0,0.611-2.114,1.797-6.147
			c18.021-59.136,172.512-528.294,585.852-676.653c3.291-1.22,6.582-2.391,9.877-3.513c52.447-18.002,108.967-30.813,169.812-37.073
			c0,0,84.785-11.318,199.858,46.213c2.563,1.239,5.171,2.526,7.739,3.912c51.944,27.008,109.616,68.03,168.302,130.228
			c1.129,1.136,2.305,2.368,3.437,3.602c0,0-0.485,2.063-1.464,5.991c-9.643,36.558-68.412,232.778-255.722,384.35
			c-2.425,1.975-4.894,3.95-7.362,5.876C5851.291,2715.68,5578.55,2812.145,5146.859,2726.478z"/>
		<path fill="#FFFFFF" d="M5140.629,2729.395l-1.609-4.485l-1.609-4.534l3.406-1.613l1141.439-536.887
			c1.129,1.136,2.305,2.368,3.437,3.602c0,0-0.485,2.063-1.464,5.991l-1137.369,535.01L5140.629,2729.395z"/>
		<path fill="#FFFFFF" d="M6021.145,2581.693l-209.137-172.974l4.859-7.945l211.64,175.043
			C6026.082,2577.792,6023.613,2579.768,6021.145,2581.693z"/>
		<path fill="#FFFFFF" d="M5603.41,2506.381l-9.766,2.898l133.023-467.171c3.291-1.22,6.582-2.391,9.877-3.513L5603.41,2506.381z"/>
		<path fill="#FFFFFF" d="M6031.402,2308.688l-7.897-3.468l82.71-257.484c2.563,1.239,5.171,2.526,7.739,3.912L6031.402,2308.688z"
			/>
	</g>
	<g>
		<path fill="#ADB0FA" d="M2539.722,2687.033c2.584-0.507,5.211-1.014,7.84-1.568c0,0-0.611-2.114-1.796-6.147
			c-18.022-59.136-172.511-528.293-585.853-676.653c-3.291-1.219-6.583-2.391-9.876-3.513
			c-52.448-18.002-108.967-30.813-169.812-37.073c0,0-84.785-11.318-199.857,46.214c-2.564,1.239-5.172,2.525-7.74,3.911
			c-51.945,27.008-109.616,68.03-168.302,130.228c-1.129,1.136-2.304,2.368-3.436,3.602c0,0,0.485,2.063,1.464,5.991
			c9.643,36.559,68.412,232.778,255.721,384.351c2.426,1.974,4.895,3.949,7.363,5.875
			C1835.29,2676.235,2108.031,2772.701,2539.722,2687.033z"/>
		<path fill="#FFFFFF" d="M2545.952,2689.95l1.609-4.485l1.609-4.533l-3.406-1.614l-1141.44-536.887
			c-1.129,1.136-2.304,2.368-3.436,3.602c0,0,0.485,2.063,1.464,5.991l1137.369,535.01L2545.952,2689.95z"/>
		<path fill="#FFFFFF" d="M1665.437,2542.249l209.136-172.974l-4.859-7.945l-211.64,175.044
			C1660.5,2538.348,1662.968,2540.323,1665.437,2542.249z"/>
		<path fill="#FFFFFF" d="M2083.171,2466.938l9.767,2.897l-133.025-467.171c-3.291-1.219-6.583-2.391-9.876-3.513L2083.171,2466.938
			z"/>
		<path fill="#FFFFFF" d="M1655.179,2269.243l7.896-3.468l-82.708-257.483c-2.564,1.239-5.172,2.525-7.74,3.911L1655.179,2269.243z"
			/>
	</g>
	<g>
		<path fill="#ADB0FA" d="M2074.605,3126.192c2.194-1.456,4.429-2.927,6.646-4.443c0,0-1.372-1.721-4.008-4.995
			c-39.243-47.77-361.21-422.354-799.878-401.594c-3.507,0.13-6.997,0.305-10.469,0.525
			c-55.347,3.395-112.475,13.143-171.098,30.596c0,0-82.68,21.923-167.055,119.044c-1.896,2.124-3.815,4.31-5.66,6.571
			c-37.691,44.8-75.322,104.739-105.803,184.636c-0.61,1.481-1.225,3.068-1.8,4.641c0,0,1.236,1.721,3.641,4.979
			c22.875,30.103,152.132,189.001,383.133,257.541c2.996,0.897,6.032,1.78,9.049,2.617
			C1419.455,3385.264,1708.363,3370.246,2074.605,3126.192z"/>
		<path fill="#FFFFFF" d="M2081.478,3126.509l-0.226-4.76l-0.244-4.806l-3.764-0.189l-1259.963-60.222
			c-0.61,1.481-1.225,3.068-1.8,4.641c0,0,1.236,1.721,3.641,4.979l1255.483,60.041L2081.478,3126.509z"/>
		<path fill="#FFFFFF" d="M1211.304,3326.31l127.215-239.737l-7.525-5.487l-128.739,242.607
			C1205.251,3324.59,1208.287,3325.473,1211.304,3326.31z"/>
		<path fill="#FFFFFF" d="M1568.604,3097.158l10.133-1.053l-301.371-380.945c-3.507,0.13-6.997,0.305-10.469,0.525
			L1568.604,3097.158z"/>
		<path fill="#FFFFFF" d="M1097.552,3077.92l5.973-6.222l-174.782-206.373c-1.896,2.124-3.815,4.31-5.66,6.571L1097.552,3077.92z"/>
	</g>
	<ellipse fill="#E4E9FD" cx="3572.26" cy="3302.373" rx="3244.585" ry="396.214"/>
	<path fill="#CDD0FD" d="M4584.789,2010.675c54.865,72.572,93.504,160.757,115.741,252.902
		c131.484-69.376,300.231-61.743,424.916,19.218c54.809,35.589,102.803,87.238,117.309,150.957
		c14.507,63.719-12.88,139.23-72.692,165.557c69.234,18.537,138.467,37.074,207.7,55.611
		c70.26,18.812,144.771,40.176,192.886,94.723c69.211,78.465,58.448,205.805-3.069,290.437
		c-61.517,84.632-162.003,132.655-263.062,159.757c-85.543,22.941-224.57,35.947-314.103,43.495
		c-183.403,15.461-587.37,9.696-798.547,20.899c-356.093,18.891-1380.78,7.366-1575.279,6.31
		c-171.442-0.932-735.634-61.567-845.459-70.413c-111.942-9.017-227.296-27.35-339.549-27.35
		c-62.192-5.01-126.135-10.531-184.139-31.875c-40.188-14.787-61.43-58.785-47.384-99.238c10.921-31.454,34.7-60.189,63.771-77.07
		c53.444-31.033,118.365-32.658,180.161-33.462c161.213-2.095,319.748-9.165,480.141,12.948
		c-172.059-23.721-333.273-118.429-437.879-257.109c-56.677-75.147-93.901-189.008-29.25-257.369
		c43.454-45.902,114.403-49.897,177.518-45.701c179.825,12.036,356.782,65.979,512.748,156.313
		c-92.151-61.437-187.803-126.51-241.26-223.489c-53.388-97.051-48.839-235.736,40.234-301.577
		c94.321-69.69,229.225-27.989,329.354,33.096c171.429,104.677,311.301,260.15,397.294,441.586
		c-44.361-120.071-89.492-248.257-62.554-373.364c26.939-125.179,157.645-236.644,278.275-193.961
		c70.321,24.841,117.131,94.393,134.974,166.741c2.519,10.355,4.618,20.711,6.157,31.139c6.438-37.367,17.353-73.682,34.006-107.967
		c44.502-91.663,137.144-164.78,239.02-163.383c119.091,1.681,218.031,103.419,255.534,216.422
		c37.506,113.074,27.01,235.66,16.094,354.262c62.136-214.813,188.922-421.227,385.96-527.02
		c86.835-46.602,188.433-68.502,287.161-63.746c3.708,0.211,7.347,0.42,10.985,0.632
		C4398.885,1837.759,4507.81,1908.85,4584.789,2010.675z"/>
	<path fill="#CDD0FD" d="M4797.58,2707.259v290.123c7.021,9.225,14.943,17.638,23.646,25.188
		c12.354,10.718,26.456,17.924,39.8,27.114c9.197,6.334,14.896,15.038,22.652,22.804c21.672,21.697,53.004,36.362,81.078,47.723
		c59.873,24.229,124.441,33.994,188,43.139c58.226,8.377,117.12,16.774,175.678,11.176c65.69-6.28,128.967-30.016,194.836-34.012
		c140.715-8.539,277.959,73.396,417.308,52.042c29.349-4.497,58.792-14.021,81.366-33.307s37.135-49.689,31.803-78.897
		c-11.27-61.73-93.09-60.986-140.517-63.025c-71.28-3.064-142.796-0.664-213.706,7.212c58.166-8.02,112.667-40.036,148.03-86.92
		c19.161-25.404,31.745-63.896,9.888-87.007c-14.689-15.518-38.676-16.868-60.012-15.449
		c-60.792,4.068-120.614,22.305-173.341,52.844c31.153-20.77,63.489-42.77,81.562-75.554c18.049-32.81,16.511-79.694-13.602-101.952
		c-31.887-23.56-77.492-9.462-111.343,11.188c-57.954,35.387-105.239,87.947-134.31,149.284
		c14.996-40.592,30.253-83.927,21.146-126.221c-9.107-42.318-53.294-80.001-94.074-65.571c-23.773,8.397-39.598,31.91-45.63,56.369
		c-0.852,3.501-1.562,7.001-2.081,10.526c-2.178-12.633-5.867-24.909-11.497-36.499c-15.044-30.988-46.363-55.706-80.804-55.234
		c-40.26,0.568-73.708,34.962-86.387,73.164c-12.68,38.227-9.131,79.668-5.441,119.763c-21.004-72.619-63.867-142.4-130.479-178.166
		c-29.355-15.754-63.701-23.157-97.078-21.55c-1.254,0.071-2.483,0.143-3.713,0.214c-41.065,2.791-79.914,19.278-106.361,50.691
		C4801.586,2701.32,4798.985,2704.231,4797.58,2707.259z"/>
	<g>
		<path fill="#F3AA06" d="M1715.439,2583.258c-31.721-4.395-63.481-8.678-95.18-13.137c-47.581-6.7-95.131-13.576-142.711-20.299
			c-49.295-6.963-98.548-14.103-147.909-20.495c-7.645-0.988-10.572-4.744-13.582-10.61
			c-56.302-109.243-112.637-218.398-169.049-327.576c-1.868-3.624-3.779-7.139-6.723-12.478c-0.351,0.572-0.703,1.121-0.703,1.647
			c0-0.526-0.637-1.075-0.988-1.647c-2.944,5.339-4.998,8.854-6.865,12.478c-56.412,109.178-112.818,218.333-169.121,327.576
			c-3.009,5.866-5.972,9.622-13.617,10.61c-49.36,6.393-98.632,13.532-147.927,20.495c-47.581,6.723-95.14,13.599-142.721,20.299
			c-31.698,4.459-63.463,8.742-95.184,13.137c-1.978,0.263-3.91,0.878-7.908,1.823c3.822,4.218,6.437,7.577,9.534,10.435
			c90.417,83.914,180.835,167.83,271.494,251.459c7.271,6.722,9.271,12.873,7.447,22.802
			c-14.037,76.358-27.327,152.849-40.925,229.272c-7.864,44.221-15.838,88.418-23.725,132.617c-0.33,1.955-0.22,3.976-0.396,7.908
			c5.25-2.351,9.27-3.998,13.159-5.932c112.385-56.346,224.77-112.648,337-169.302c3.888-1.955,8.545-2.966,10.742-3.01
			c2.197,0.044,6.568,1.055,10.457,3.01c112.23,56.653,224.33,112.956,336.714,169.302c3.889,1.934,7.908,3.581,13.158,5.932
			c-0.176-3.933-0.065-5.953-0.396-7.908c-7.886-44.199-15.86-88.396-23.724-132.617c-13.598-76.424-26.888-152.914-40.925-229.272
			c-1.823-9.929,0.176-16.08,7.447-22.802c90.659-83.629,181.076-167.545,271.494-251.459c3.097-2.857,5.711-6.217,9.534-10.435
			C1719.344,2584.136,1717.417,2583.521,1715.439,2583.258z"/>
		<path fill="#FECD40" d="M1723.343,2585.08c-3.823,4.219-6.437,7.579-9.535,10.435c-90.417,83.915-180.834,167.831-271.493,251.46
			c-7.271,6.722-9.271,12.873-7.447,22.802c14.037,76.358,27.327,152.849,40.925,229.272c7.864,44.221,15.838,88.418,23.725,132.617
			c0.33,1.955,0.22,3.976,0.396,7.908c-5.25-2.351-9.271-3.998-13.159-5.932c-112.385-56.346-224.483-112.34-336.715-168.993
			c-3.887-1.955-8.171-2.701-10.368-2.701c-0.088,0-0.351,0-0.351,0v-882.34c0,0.241,0.274,0.461,0.274,0.703
			c0-0.527,0.346-1.077,0.697-1.647c2.944,5.338,4.853,8.853,6.719,12.477c56.413,109.178,112.736,218.333,169.059,327.576
			c2.988,5.865,5.931,9.622,13.575,10.61c49.361,6.393,98.611,13.532,147.906,20.496c47.581,6.722,95.118,13.598,142.699,20.298
			c31.699,4.459,63.463,8.742,95.184,13.137C1717.412,2583.521,1719.344,2584.136,1723.343,2585.08z"/>
	</g>
	<g>
		<path fill="#F3AA06" d="M2853.251,998.041c-31.721-4.394-63.481-8.677-95.18-13.136c-47.581-6.7-95.131-13.576-142.712-20.298
			c-49.295-6.963-98.548-14.103-147.908-20.495c-7.645-0.988-10.572-4.745-13.581-10.61
			c-56.303-109.243-112.638-218.398-169.049-327.576c-1.868-3.625-3.779-7.139-6.722-12.478c-0.352,0.572-0.703,1.121-0.703,1.647
			c0-0.526-0.637-1.076-0.988-1.647c-2.944,5.338-4.998,8.853-6.865,12.478c-56.412,109.178-112.818,218.333-169.12,327.576
			c-3.01,5.866-5.973,9.622-13.617,10.61c-49.361,6.392-98.632,13.532-147.927,20.495c-47.581,6.722-95.14,13.598-142.721,20.298
			c-31.698,4.459-63.463,8.743-95.184,13.136c-1.978,0.263-3.91,0.878-7.908,1.823c3.822,4.218,6.437,7.578,9.534,10.435
			c90.417,83.915,180.835,167.83,271.494,251.459c7.271,6.722,9.27,12.873,7.447,22.803
			c-14.037,76.358-27.327,152.848-40.925,229.272c-7.864,44.221-15.838,88.418-23.724,132.617c-0.33,1.956-0.22,3.977-0.396,7.909
			c5.25-2.351,9.27-3.999,13.159-5.932c112.385-56.346,224.77-112.648,337-169.301c3.888-1.956,8.545-2.966,10.742-3.01
			c2.196,0.044,6.568,1.055,10.457,3.01c112.231,56.653,224.33,112.956,336.714,169.301c3.889,1.933,7.908,3.581,13.158,5.932
			c-0.176-3.932-0.065-5.953-0.396-7.909c-7.886-44.198-15.86-88.396-23.725-132.617c-13.598-76.424-26.888-152.914-40.925-229.272
			c-1.823-9.93,0.176-16.081,7.447-22.803c90.659-83.629,181.076-167.544,271.493-251.459c3.098-2.856,5.712-6.217,9.534-10.435
			C2857.156,998.919,2855.228,998.304,2853.251,998.041z"/>
		<path fill="#FECD40" d="M2861.155,999.864c-3.823,4.218-6.437,7.579-9.535,10.435c-90.417,83.915-180.834,167.83-271.493,251.459
			c-7.271,6.722-9.271,12.873-7.447,22.802c14.037,76.358,27.327,152.848,40.925,229.272c7.864,44.22,15.838,88.418,23.725,132.616
			c0.33,1.955,0.22,3.977,0.396,7.908c-5.25-2.35-9.271-3.998-13.159-5.931c-112.385-56.346-224.483-112.34-336.715-168.994
			c-3.887-1.956-8.17-2.701-10.368-2.701c-0.088,0-1.095,0-1.095,0v-882.34c0,0.241,0.646,0.461,0.646,0.703
			c0-0.527,0.533-1.077,0.883-1.648c2.945,5.338,4.946,8.853,6.813,12.478c56.413,109.178,112.782,218.333,169.105,327.576
			c2.988,5.865,5.954,9.622,13.599,10.61c49.361,6.392,98.623,13.532,147.917,20.495c47.581,6.722,95.124,13.598,142.705,20.298
			c31.699,4.459,63.466,8.743,95.187,13.137C2855.22,998.304,2857.156,998.919,2861.155,999.864z"/>
	</g>
	<g>
		<path fill="#F3AA06" d="M4121.293,2583.258c-31.721-4.395-63.48-8.678-95.179-13.137c-47.581-6.7-95.131-13.576-142.712-20.299
			c-49.295-6.963-98.549-14.103-147.909-20.495c-7.644-0.988-10.571-4.744-13.581-10.61
			c-56.303-109.243-112.637-218.398-169.049-327.576c-1.867-3.624-3.778-7.139-6.723-12.478c-0.352,0.572-0.702,1.121-0.702,1.647
			c0-0.526-0.638-1.075-0.989-1.647c-2.943,5.339-4.997,8.854-6.864,12.478c-56.412,109.178-112.818,218.333-169.121,327.576
			c-3.009,5.866-5.973,9.622-13.617,10.61c-49.36,6.393-98.632,13.532-147.927,20.495c-47.581,6.723-95.14,13.599-142.72,20.299
			c-31.699,4.459-63.463,8.742-95.184,13.137c-1.978,0.263-3.91,0.878-7.908,1.823c3.823,4.218,6.437,7.577,9.534,10.435
			c90.417,83.914,180.835,167.83,271.494,251.459c7.271,6.722,9.27,12.873,7.447,22.802
			c-14.038,76.358-27.328,152.849-40.926,229.272c-7.864,44.221-15.838,88.418-23.725,132.617c-0.329,1.955-0.22,3.976-0.396,7.908
			c5.25-2.351,9.271-3.998,13.159-5.932c112.384-56.346,224.769-112.648,337-169.302c3.889-1.955,8.546-2.966,10.743-3.01
			c2.196,0.044,6.567,1.055,10.456,3.01c112.23,56.653,224.33,112.956,336.715,169.302c3.889,1.934,7.908,3.581,13.158,5.932
			c-0.176-3.933-0.066-5.953-0.396-7.908c-7.887-44.199-15.86-88.396-23.725-132.617c-13.598-76.424-26.888-152.914-40.925-229.272
			c-1.823-9.929,0.176-16.08,7.446-22.802c90.659-83.629,181.077-167.545,271.494-251.459c3.097-2.857,5.712-6.217,9.534-10.435
			C4125.198,2584.136,4123.271,2583.521,4121.293,2583.258z"/>
		<path fill="#FECD40" d="M4129.197,2585.08c-3.822,4.219-6.438,7.579-9.535,10.435c-90.416,83.915-180.834,167.831-271.493,251.46
			c-7.271,6.722-9.271,12.873-7.446,22.802c14.037,76.358,27.326,152.849,40.924,229.272c7.864,44.221,15.839,88.418,23.726,132.617
			c0.329,1.955,0.22,3.976,0.396,7.908c-5.25-2.351-9.27-3.998-13.158-5.932c-112.386-56.346-224.484-112.34-336.716-168.993
			c-3.887-1.955-8.171-2.701-10.367-2.701c-0.088,0-0.504,0-0.504,0v-882.34c0,0.241,0.351,0.461,0.351,0.703
			c0-0.527,0.384-1.077,0.735-1.647c2.944,5.338,4.872,8.853,6.737,12.477c56.413,109.178,112.745,218.333,169.069,327.576
			c2.988,5.865,5.936,9.622,13.58,10.61c49.36,6.393,98.613,13.532,147.907,20.496c47.581,6.722,95.119,13.598,142.701,20.298
			c31.699,4.459,63.464,8.742,95.185,13.137C4123.266,2583.521,4125.198,2584.136,4129.197,2585.08z"/>
	</g>
	<g>
		<path fill="#F3AA06" d="M5324.221,2583.258c-31.721-4.395-63.481-8.678-95.18-13.137c-47.581-6.7-95.131-13.576-142.712-20.299
			c-49.295-6.963-98.548-14.103-147.908-20.495c-7.646-0.988-10.572-4.744-13.582-10.61
			c-56.302-109.243-112.638-218.398-169.049-327.576c-1.867-3.625-3.778-7.139-6.722-12.478c-0.352,0.572-0.703,1.121-0.703,1.647
			c0-0.526-0.637-1.075-0.988-1.647c-2.944,5.339-4.998,8.853-6.865,12.478c-56.412,109.178-112.818,218.333-169.121,327.576
			c-3.01,5.866-5.973,9.622-13.617,10.61c-49.359,6.393-98.631,13.532-147.926,20.495c-47.582,6.723-95.14,13.599-142.721,20.299
			c-31.699,4.459-63.463,8.742-95.184,13.137c-1.979,0.263-3.91,0.878-7.908,1.823c3.822,4.217,6.436,7.577,9.533,10.435
			c90.418,83.914,180.835,167.83,271.494,251.459c7.271,6.722,9.27,12.873,7.447,22.802
			c-14.037,76.358-27.328,152.849-40.926,229.272c-7.864,44.221-15.838,88.418-23.725,132.617c-0.329,1.955-0.219,3.976-0.395,7.908
			c5.25-2.351,9.27-3.998,13.158-5.932c112.385-56.346,224.77-112.648,337-169.302c3.889-1.955,8.545-2.966,10.742-3.01
			c2.196,0.044,6.568,1.055,10.456,3.01c112.231,56.653,224.329,112.956,336.714,169.302c3.889,1.934,7.909,3.581,13.159,5.932
			c-0.177-3.933-0.065-5.953-0.396-7.908c-7.887-44.199-15.86-88.396-23.725-132.617c-13.598-76.424-26.889-152.914-40.926-229.272
			c-1.822-9.929,0.177-16.08,7.447-22.802c90.659-83.629,181.077-167.545,271.494-251.459c3.098-2.857,5.711-6.218,9.533-10.435
			C5328.125,2584.136,5326.197,2583.521,5324.221,2583.258z"/>
		<path fill="#FECD40" d="M5332.124,2585.08c-3.823,4.218-6.437,7.579-9.534,10.435c-90.417,83.915-180.835,167.831-271.494,251.46
			c-7.271,6.722-9.27,12.873-7.447,22.802c14.037,76.358,27.328,152.849,40.926,229.272c7.864,44.221,15.838,88.418,23.725,132.617
			c0.33,1.955,0.221,3.976,0.396,7.908c-5.251-2.351-9.271-3.998-13.16-5.932c-112.385-56.346-224.482-112.264-336.714-168.918
			c-3.888-1.955-8.171-2.625-10.368-2.625c-0.088,0-0.209,0-0.209,0v-882.491c0,0.241,0.203,0.461,0.203,0.702
			c0-0.526,0.311-1.076,0.662-1.646c2.943,5.338,4.835,8.852,6.701,12.477c56.412,109.178,112.727,218.333,169.049,327.576
			c2.988,5.865,5.927,9.622,13.572,10.61c49.36,6.393,98.608,13.532,147.902,20.495c47.58,6.723,95.117,13.599,142.699,20.299
			c31.699,4.459,63.463,8.742,95.184,13.137C5326.193,2583.521,5328.125,2584.136,5332.124,2585.08z"/>
	</g>
	<g>
		<path fill="#F3AA06" d="M6527.147,2583.258c-31.722-4.395-63.481-8.678-95.18-13.137c-47.581-6.7-95.13-13.576-142.712-20.299
			c-49.295-6.963-98.548-14.103-147.908-20.495c-7.645-0.988-10.572-4.744-13.582-10.61
			c-56.301-109.243-112.637-218.398-169.049-327.576c-1.867-3.625-3.778-7.139-6.722-12.478c-0.352,0.572-0.703,1.121-0.703,1.647
			c0-0.526-0.637-1.075-0.989-1.647c-2.943,5.339-4.997,8.853-6.864,12.478c-56.411,109.178-112.817,218.333-169.12,327.576
			c-3.01,5.866-5.973,9.622-13.617,10.61c-49.36,6.393-98.632,13.532-147.927,20.495c-47.581,6.723-95.14,13.599-142.72,20.299
			c-31.699,4.459-63.464,8.742-95.186,13.137c-1.977,0.263-3.908,0.878-7.906,1.823c3.821,4.217,6.436,7.577,9.533,10.435
			c90.418,83.914,180.834,167.83,271.493,251.459c7.271,6.722,9.271,12.873,7.447,22.802
			c-14.037,76.358-27.327,152.849-40.925,229.272c-7.865,44.221-15.839,88.418-23.725,132.617c-0.33,1.955-0.221,3.976-0.396,7.908
			c5.25-2.351,9.271-3.998,13.158-5.932c112.384-56.346,224.769-112.648,337-169.302c3.889-1.955,8.546-2.966,10.742-3.01
			c2.196,0.044,6.568,1.055,10.456,3.01c112.23,56.653,224.33,112.956,336.715,169.302c3.889,1.934,7.908,3.581,13.158,5.932
			c-0.176-3.933-0.065-5.953-0.395-7.908c-7.887-44.199-15.861-88.396-23.725-132.617c-13.599-76.424-26.889-152.914-40.926-229.272
			c-1.823-9.929,0.176-16.08,7.447-22.802c90.658-83.629,181.076-167.545,271.494-251.459c3.097-2.857,5.711-6.218,9.533-10.435
			C6531.053,2584.136,6529.125,2583.521,6527.147,2583.258z"/>
		<path fill="#FECD40" d="M6535.051,2585.08c-3.822,4.218-6.437,7.579-9.534,10.435c-90.417,83.915-180.835,167.831-271.493,251.46
			c-7.271,6.722-9.271,12.873-7.447,22.802c14.037,76.358,27.327,152.849,40.926,229.272c7.863,44.221,15.837,88.418,23.725,132.617
			c0.329,1.955,0.22,3.976,0.396,7.908c-5.251-2.351-9.271-3.998-13.159-5.932c-112.385-56.346-224.483-112.264-336.715-168.918
			c-3.887-1.955-8.171-2.625-10.367-2.625c-0.088,0-0.209,0-0.209,0v-882.491c0,0.241,0.203,0.461,0.203,0.702
			c0-0.526,0.311-1.076,0.66-1.646c2.945,5.338,4.836,8.852,6.702,12.477c56.412,109.178,112.727,218.333,169.05,327.576
			c2.988,5.865,5.926,9.622,13.571,10.61c49.36,6.393,98.608,13.532,147.903,20.495c47.58,6.723,95.117,13.599,142.697,20.299
			c31.7,4.459,63.465,8.742,95.185,13.137C6529.12,2583.521,6531.053,2584.136,6535.051,2585.08z"/>
	</g>
	<g>
		<path fill="#E9D6B8" d="M3967.678,2733.311c0.029,23.615,0.084,47.438,5.982,70.514c-17.692,0.038-35.384,0.077-53.075,0.115
			c-2.01,0.005-4.129-0.015-5.858-0.871c-3.291-1.631-3.73-5.412-3.8-8.625c-0.839-39.395-1.678-78.79-2.518-118.186
			c14.489,5.128,29.764,8.695,45.332,10.594c3.935,0.48,6.346,0.138,9.963-0.268c3.061-0.344,4.27,0.025,4.92,2.859
			c1.418,6.18-0.687,14.273-0.812,20.616C3967.658,2717.81,3967.669,2725.561,3967.678,2733.311z"/>
		<path fill="#0F180A" d="M3884.346,2731.849c-1.32-3.324-5.518-4.337-8.222-1.996c-11.321,9.798-41.693,31.44-102.142,46.175
			c0,0-14.691,3.218-25.354,20.302l224.961-1.696l-0.3-39.842c-0.033-4.38-5.194-6.699-8.492-3.816l-8.606,7.524
			c-4.116,3.601-9.375,5.626-14.844,5.718l-32.245,0.546c-6.98,0.118-13.305-4.097-15.883-10.585L3884.346,2731.849z"/>
		
			<rect x="3748.714" y="2795.48" transform="matrix(1 -0.0075 0.0075 1 -21.0681 29.2107)" fill="#3D3D3D" width="224.967" height="23.216"/>
		<path fill="#E9D6B8" d="M4340.885,2733.311c-0.028,23.615-0.082,47.438-5.98,70.514c17.691,0.038,35.383,0.077,53.074,0.115
			c2.01,0.005,4.129-0.015,5.858-0.871c3.291-1.631,3.731-5.412,3.8-8.625c0.84-39.395,1.678-78.79,2.518-118.186
			c-14.489,5.128-29.764,8.695-45.332,10.594c-3.935,0.48-6.346,0.138-9.963-0.268c-3.061-0.344-4.27,0.025-4.92,2.859
			c-1.418,6.18,0.688,14.273,0.813,20.616C4340.905,2717.81,4340.895,2725.561,4340.885,2733.311z"/>
		<path fill="#0F180A" d="M4424.217,2731.849c1.321-3.324,5.519-4.337,8.223-1.996c11.322,9.798,41.693,31.44,102.143,46.175
			c0,0,14.69,3.218,25.352,20.302l-224.96-1.696l0.301-39.842c0.032-4.38,5.194-6.699,8.491-3.816l8.606,7.524
			c4.117,3.601,9.376,5.626,14.844,5.718l32.245,0.546c6.98,0.118,13.305-4.097,15.883-10.585L4424.217,2731.849z"/>
		
			<rect x="4334.882" y="2795.48" transform="matrix(-1 -0.0075 0.0075 -1 8873.4277 5647.6504)" fill="#3D3D3D" width="224.967" height="23.216"/>
		<g>
			<g>
				<path fill="#E9D6B8" d="M3933.98,2267.79l-32.148,110.069c-3.639,12.458,4.277,25.334,17.036,27.709l92.627,17.251v-51.677
					l-23.966-7.075c-8.571-2.53-13.369-11.63-10.616-20.132l20.626-63.697L3933.98,2267.79z"/>
			</g>
			<g>
				<path fill="#E9D6B8" d="M4351.698,2267.79l32.149,110.069c3.639,12.458-4.278,25.334-17.037,27.709l-92.627,17.251v-51.677
					l23.966-7.075c8.571-2.53,13.37-11.63,10.616-20.132l-20.625-63.697L4351.698,2267.79z"/>
			</g>
		</g>
		<path fill="#2E7FEB" d="M3929.241,2440.774c-25.023,0.189-47.018,16.717-54.015,40.743
			c-11.298,38.795-13.968,117.294,31.861,252.303h61.672l6.79-149.937h342.31c0,0,10.973,120.004,20.025,156.216l63.936-0.055
			c0,0,13.355-155.029,15.619-236.505c0,0-1.131-46.396-52.054-58.277C4365.386,2445.263,3955.103,2440.578,3929.241,2440.774z"/>
		<path fill="#E7C49D" d="M4153.685,2172.83h-21.69c-16.084,0-29.244-13.16-29.244-29.244l-7.521-33.843l8.589-23.951l-1.067-35.447
			c0-16.084,13.16-29.243,29.244-29.243h21.69c16.083,0,29.243,13.159,29.243,29.243l-1.067,35.447l18.607,20.745l-17.54,37.049
			C4182.928,2159.67,4169.768,2172.83,4153.685,2172.83z"/>
		<ellipse fill="#E9D6B8" cx="4142.625" cy="1975.53" rx="74.824" ry="108.487"/>
		<g>
			<path fill="#9EC301" d="M4353.451,2250.926c-14.727-34.496-29.453-68.994-44.178-103.49c-5.043-11.812-10.437-24.1-20.384-32.22
				c-9.642-7.868-22.283-10.772-34.435-13.446c-24.199-5.327-48.396-10.653-72.595-15.978c7.718,15.731,6.755,34.969-0.362,50.983
				c-4.448,10.008-11.855,18.67-20.898,24.934c-10.608,7.35-24.791,7.355-35.418,0.033c-9.089-6.264-16.543-14.936-21.002-24.967
				c-7.117-16.015-8.079-35.252-0.362-50.983c-24.198,5.324-48.396,10.65-72.594,15.978c-12.151,2.674-24.794,5.578-34.435,13.446
				c-9.948,8.12-15.341,20.408-20.384,32.22c-14.726,34.496-29.451,68.994-44.178,103.49c-3.718,8.71-7.435,17.418-11.153,26.129
				c22.024,8.387,45.843,10.573,69.315,12.68c4.985,0.448,10.444,0.775,14.538-2.104c3.139-2.21,4.84-5.892,6.341-9.427
				c1.784-4.202,3.642-8.657,7.889-10.884c2.405-1.261,5.396-1.342,7.583,0.268c3.217,2.367,2.825,6.605,2.271,10.245
				c-1.375,9.033-2.75,18.068-4.125,27.104c37.396-1.017,80.33,1.496,117.743,0.49c37.453,1.02,80.707-1.51,118.161-0.49
				c-1.375-9.035-2.748-18.07-4.123-27.104c-0.555-3.639-0.946-7.877,2.27-10.244c2.188-1.609,5.177-1.529,7.582-0.269
				c4.248,2.227,6.106,6.682,7.891,10.884c1.501,3.535,3.201,7.217,6.34,9.427c4.095,2.88,9.554,2.553,14.539,2.104
				c23.473-2.106,47.291-4.293,69.315-12.68C4360.887,2268.344,4357.168,2259.636,4353.451,2250.926z"/>
		</g>
		<g>
			<path fill="#E7EEF6" d="M4318.188,2494.804h-349.77v-214.01c0-10.237,8.299-18.536,18.535-18.536h312.698
				c10.237,0,18.536,8.299,18.536,18.536V2494.804z"/>
			<circle fill="#B1BCC2" cx="4143.304" cy="2378.531" r="18.942"/>
			<path fill="#B1BCC2" d="M4322.972,2494.804h-360.265c-3.369,0-6.126,2.757-6.126,6.126v4.972c0,3.369,2.757,6.126,6.126,6.126
				h360.265c3.37,0,6.126-2.757,6.126-6.126v-4.972C4329.098,2497.561,4326.342,2494.804,4322.972,2494.804z"/>
		</g>
		<path fill="#1A4568" d="M4060.319,1975.384c-0.581-1.958-1.214-3.905-1.937-5.837c-4.85-12.959-12.196-25.481-12.523-39.314
			c-0.293-12.409,5.157-23.604,10.806-34.299c2.226-4.215,2.285-8.314,3.805-12.736c2.077-6.043,4.938-11.914,7.855-17.587
			c1.985-3.86,4.396-7.947,8.442-9.516c5.364-2.081,11.242,1.053,16.989,1.313c10.079,0.457,18.322-7.786,27.997-10.65
			c8.377-2.48,17.422-0.784,25.748,1.862c8.326,2.646,16.412,6.241,25.037,7.638c9.252,1.499,18.924,0.432,27.865,3.239
			c11.828,3.713,20.784,14.432,22.924,26.552c2.813,15.939,7.916,31.312,8.855,47.615c0.844,14.664-1.328,29.854-8.707,42.554
			c-2.539,4.367-7.141,8.898-11.909,7.232c-4.044-1.413-5.374-6.323-7.862-9.811c-3.063-4.293-8.243-6.611-13.408-7.675
			c-5.166-1.063-10.488-1.063-15.714-1.775c-15.721-2.143-30.401-11.058-39.554-24.019c-1.964-2.782-3.756-5.814-6.541-7.775
			c-2.784-1.961-6.965-2.485-9.419-0.124c-4.05,3.895-7.116,9.625-10.435,14.159c-3.693,5.046-7.387,10.092-11.08,15.138
			c-2.916,3.985-5.948,8.077-10.187,10.612c-3.807,2.277-8.412,3.181-11.823,6.015c-3.823,3.176-5.308,8.063-6.052,12.799
			c-0.352,2.234,0.509,7.762-2.214,5.991c-2.226-1.449-3.345-8.119-3.975-10.495
			C4062.316,1982.764,4061.408,1979.054,4060.319,1975.384z"/>
	</g>
	<g>
		<path fill="#FE6442" d="M1193.772,2157.527c1.063,6.209,2.16,33.635,1.919,45.849c-0.356,18.116-3.951,36.044-6.722,54.017
			c-3.809,24.704-7.631,49.42-11.453,74.124c-3.369,21.8-6.915,44.151-17.865,63.299c-29.041,17.877-59.603,36.257-93.635,38.583
			c-3.47,0.238-6.939,0.302-10.409,0.227c-12.685-0.252-25.345-2.301-37.904-4.351c-20.127-3.281-40.254-6.55-60.382-9.831
			c6.487-13.451,10.107-31.529,9.265-46.439c33.705,2.124,66.87,2.375,100.65,2.287c7.593-0.024,15.602-0.214,22.089-4.136
			c8.31-5.028,12.157-14.96,14.382-24.415c11.528-48.992-5.758-102.497,11.44-149.805c16.62-45.699,0.391-91.634,0.139-140.262
			c4.537,2.354,8.764,5.754,13.424,7.681c5.359,2.215,10.53,5.618,15.482,8.696c9.964,6.194,18.632,14.225,25.552,23.678
			c11.219,15.325,18.055,32.477,22.127,51.027C1192.583,2150.998,1193.213,2154.256,1193.772,2157.527z"/>
		<g>
			<path fill="#E7C49D" d="M477.8,2652.606c-0.511,26.923-0.999,54.084,5.194,80.528c-20.171-0.363-40.342-0.727-60.513-1.091
				c-2.291-0.041-4.707-0.112-6.658-1.129c-3.714-1.935-4.129-6.255-4.133-9.92c-0.049-44.933-0.098-89.866-0.147-134.8
				c16.401,6.18,33.733,10.6,51.438,13.123c4.475,0.638,7.231,0.303,11.365-0.076c3.497-0.32,4.867,0.128,5.543,3.373
				c1.475,7.079-1.112,16.258-1.401,23.486C478.134,2634.934,477.967,2643.77,477.8,2652.606z"/>
			<path fill="#0F180A" d="M382.827,2649.019c-1.429-3.819-6.191-5.071-9.328-2.465c-13.133,10.91-48.259,34.884-117.514,50.29
				c0,0-16.823,3.329-29.372,22.561l256.514,3.25l0.576-45.429c0.063-4.995-5.768-7.759-9.594-4.547l-9.985,8.38
				c-4.777,4.01-10.819,6.197-17.055,6.177l-36.775-0.121c-7.961-0.026-15.074-4.978-17.864-12.433L382.827,2649.019z"/>
			
				<rect x="226.435" y="2721.028" transform="matrix(0.9999 0.0127 -0.0127 0.9999 34.6685 -4.2742)" fill="#3D3D3D" width="256.534" height="26.474"/>
			<path fill="#E7C49D" d="M1088.781,1993.945c7.349,6.451,5.685,21.715,6.349,30.501c2.241,29.666,8.322,59.04,18.044,87.157
				c-44.392-0.706-88.733-4.62-132.563-11.701c-1.385-0.224-2.935-0.555-3.688-1.739c-0.845-1.329-0.282-3.067,0.3-4.531
				c6.016-15.117,12.032-30.234,18.048-45.351c2.811-7.063,5.633-14.163,7.272-21.585c1.348-6.104,1.883-12.372,3.375-18.442
				c1.916-7.795,5.363-15.268,6.36-23.279c0.169-1.355-0.071-16.479-0.772-16.707c14.821,4.819,29.644,9.633,44.465,14.449
				c9.623,3.127,19.693,5.616,29.169,9.082C1086.551,1992.314,1087.754,1993.043,1088.781,1993.945z"/>
			<path fill="#E9D6B8" d="M951.848,1998.722c0.837-11.334,1.157-22.706,0.964-34.069c-0.152-8.951-1.156-17.967-2.13-26.986
				c-1.685-9.056-2.457-17.926-2.336-26.396c0.133,0.242,0.271,0.49,0.405,0.733c-0.104-7.597,0.402-15.154,2.077-22.633
				c4.206-18.79,14.767-37.076,33.085-44.992c36.169-15.63,84.52,15.735,107.994,70.056
				c23.474,54.321,13.184,111.027-22.985,126.658c-25.643,11.081-57.4-1.479-82.083-29.074c-8.781,0.349-17.586,0.682-26.162-1.083
				c-2.947-0.606-6.101-1.641-7.724-4.174C951.465,2004.44,951.645,2001.47,951.848,1998.722z"/>
			<path fill="#193D56" d="M913.542,1909.317c-12.305-3.084-23.366-12.358-26.685-24.602c-3.319-12.244,2.495-26.872,14.133-31.92
				c8.806-3.82,19.636-2.198,27.563-7.609c4.708-3.214,7.59-8.402,10.748-13.149c17.225-25.891,47.734-42.407,78.831-42.673
				s61.884,15.724,79.55,41.315c14.872,21.544,20.314,48.479,20.013,74.655c-0.301,26.176-5.957,51.961-11.585,77.526
				c-14.837-24.228-29.674-48.455-44.511-72.683c-3.235-5.283-6.725-10.81-12.202-13.703c-5.478-2.894-13.525-1.885-16.223,3.691
				c-1.742,3.598-0.826,7.833-0.4,11.807c0.427,3.975-0.017,8.668-3.344,10.883c-3.722,2.477-8.707,0.414-12.522-1.917
				c-8.14-4.973-15.305-11.091-21.899-17.954c-4.087-4.254-8.448-9.845-14.227-11.865c-6.451-2.255-11.374,1.247-16.465,4.855
				c-7.224,5.121-14.823,9.565-23.345,12.148C932.122,1910.809,922.573,1911.581,913.542,1909.317z"/>
			<path fill="#FE6442" d="M1146.125,2079.377c-3.428-7.479-37.963-27.627-42.85-28.93c-1.659-0.442-3.358-0.889-5.069-0.744
				c-3.375,0.285-6.092,2.753-8.675,4.945c-14.729,12.506-32.939,19.248-52.217,19.678c-10.328,0.23-21.159-1.429-29.47-7.564
				c-8.311-6.136-13.253-17.64-9.372-27.213c-23.198,4.097-45.801,11.546-66.89,22.044c-6.786,3.378-13.563,7.187-18.55,12.895
				c-5.45,6.239-8.255,14.155-10.981,21.843c-2.89,8.149-6.322,16.041-9.22,24.189c-6.852,19.267-13.705,38.533-20.557,57.799
				c-7.14,20.074-14.403,40.396-26.386,58.014c-31.446,70.725-39.384,94.96-36.238,96.628c2.462,1.306,5.373,1.358,8.16,1.381
				c22.179,0.183,8.704,22.635,15.089,32.682c-0.782,0.974-1.575,1.939-2.382,2.896c-3.659,4.333-38.837,29.067-38.837,29.067
				s24.205,11.986,30.305,14.667c52.69,23.153,129.475,33.215,182.165,56.369c-6.022-23.008-20.859-48.715-26.882-71.723
				c-2.774-10.599-5.456-22.296-0.614-32.124c4.701-9.54,57.571-10.798,66.594-16.429c25.522-15.928-1.035-45.853,9.764-73.932
				c6.33-16.461,28.462-5.857,40.838-18.422c12.376-12.563,16.186-26.338,28.438-39.022c4.49-4.648,7.824-31.82,10.423-37.737
				c2.608-5.936,3.282-12.51,4.852-18.8c3.037-12.17,9.436-23.282,12.627-35.413
				C1154.275,2110.896,1152.813,2093.971,1146.125,2079.377z"/>
			<path fill="#EB512F" d="M905.031,2140.51c-1.751,9.318-6.756,17.654-11.671,25.763c-3.358,5.539-8.204,11.367-9.544,17.783
				c-1.375,6.579-4.056,12.588-6.569,18.836c-12.04,29.942-24.19,60.098-41.754,87.171c-1.723-1.823-1.468-4.75-0.633-7.115
				s2.146-4.644,2.204-7.151c0.057-2.507-1.863-5.321-4.348-4.983c-1.598,0.217-2.753,1.604-4.199,2.317
				c-3.019,1.49-6.743-0.244-8.967-2.771c-2.223-2.527-3.496-5.746-5.481-8.465c-4.476-6.133-12.753-9.218-20.151-7.512
				c-3.521,7.527-2.841,16.862,1.733,23.8c5.893,8.937,7.45,21.273,10.998,31.372c1.66,4.726,3.702,9.899,8.188,12.129
				c4.896,2.433,10.736,0.419,16.197,0.68c6.954,0.332,14.056,4.393,20.516,1.794c4.939-1.987,7.635-7.208,9.912-12.021
				c1.662-3.513,3.322-7.026,4.954-10.553c4.807-10.385,9.407-20.889,13.131-31.718c3.413-9.926,7.755-21.888,7.497-32.521
				c-0.087-3.563-1.42-6.775-1.247-10.398c0.276-5.768,1.375-11.635,2.396-17.31c2.028-11.271,4.941-22.382,8.712-33.194
				C900.982,2164.747,906.144,2152.845,905.031,2140.51z"/>
			<path fill="#EB512F" d="M997.313,2343.508c8.533-1.585,17.533-2.313,24.966-6.795c14.395-8.68,18.872-27.756,21.447-43.066
				c3.341-19.858,4.664-40.057,3.93-60.182c6.752,7.764,11.606,16.961,16.398,26.065c1.078-20.462,0.585-41.007-1.474-61.394
				c6.346,10.791,12.692,21.581,19.038,32.372c0.337,0.572,0.704,1.175,1.296,1.476c1.379,0.699,2.897-0.583,3.928-1.736
				c9.619-10.75,20.799-20.102,33.08-27.67c-0.273,11.908-1.635,23.791-4.058,35.454c-1.992,9.588-0.191,18.419-0.257,28.229
				c-0.16,23.752-2.4,47.445-5.919,70.925c-0.723,4.823-1.5,9.638-2.322,14.444c-1.006,5.885-7.746,16.041-11.874,20.354
				c-4.93,5.149-12.708,6.149-19.834,6.359c-17.426,0.512-34.818-1.884-52.251-1.864c-17.433,0.021-35.51,2.707-50.057,12.314
				c22.339,8.466,44.679,16.931,67.018,25.397c6.839,2.591,28.986-6.537,29.911,0.718c1.084,8.509-23.321,28.88-29.543,34.782
				c-11.368,10.781-39.861,34.857-39.861,34.857s-23.775-16.809-28.803-18.096c-14.934-3.82-24.283-7.404-40.057-12.521
				c-7.062-2.292-18.242-7.434-24.882-10.736c-5.738-2.853-0.665-16.506,1.182-21.99c8.412-24.992,25.984-46.729,48.001-61.083
				C968.746,2352.02,982.708,2346.222,997.313,2343.508z"/>
			<path fill="#1A4568" d="M971.387,2520.426c-22.506,20.18-51.339,30.764-81.54,33.67c-25.471,2.45-51.918-0.563-76.348-7.891
				c-53.393-16.023-99.505-49.551-144.468-82.498c-28.094-20.582-56.187-41.17-84.286-61.752
				c3.421,85.684-36.061,166.555-74.566,243.175c-0.728,1.45-1.498,2.936-2.332,4.392c-3.072,5.387-6.985,10.365-12.833,11.78
				c-5.576,1.35-10.957-2.096-16.563-3.327c-39.453-8.672-66.439-12.999-104.566-29.786c16.278-26.934,51.504-87.234,57.625-105.188
				c21.156-62.064,43.928-123.745,73.081-182.477c8.832-17.8,19.309-36.381,37.079-45.271c22.523-11.265,49.504-3.641,73.323,4.528
				c83.979,28.791,239.12,92.91,239.12,92.91c33.912,21.186,147.665,59.62,150.039,77.331
				C1006.258,2485.727,983.19,2509.848,971.387,2520.426z"/>
			<polygon fill="#B1BCC2" points="1026.906,2427.063 859.568,2446.339 837.491,2365.67 925.888,2362.973 			"/>
			<path fill="#E9D6B8" d="M860.003,2370.198c-5.243-0.116-10.625-0.193-15.557,1.591c-6.345,2.296-11.405,7.49-17.901,9.315
				c-3.768,1.059-8.499,1.344-9.279,6.095c-0.229,1.394,0.003,2.818,0.518,4.133c1.613,4.125,3.266,9.48,7.56,11.422
				c2.729,1.233,5.89,0.77,8.84,0.249c11.901-2.097,23.712-4.708,35.388-7.825c2.071-0.553,4.358,0.123,5.573,1.89
				c2.181,3.173-1.065,6.334-4.186,7.417c-0.799,0.278-1.81,1.59-2.889,3.367c-3.232,5.32,1.077,12.019,7.244,11.174
				c38.468-5.27,74.591-4.535,114.943,1.943c3.184-11.855,6.369-23.711,9.553-35.565c0.445-1.655,2.648-6.525,1.443-7.817
				c-1.101-1.182-7.07-0.697-8.7-0.823c-5.968-0.46-11.938-0.896-17.91-1.313c-24.404-1.697-48.835-3.025-73.28-3.983
				C887.58,2370.926,873.793,2370.503,860.003,2370.198z"/>
			<path fill="#EB512F" d="M1188.969,2257.393c-3.809,24.704-7.631,49.42-11.453,74.124c-3.369,21.8-6.915,44.151-17.865,63.299
				c-29.041,17.877-59.603,36.257-93.635,38.583c-3.47,0.238-6.939,0.302-10.409,0.227c6.701-6.211,15.149-11.063,23.346-15.188
				c20.982-10.547,43.989-20.341,56.988-39.891c10.485-15.789,12.685-35.439,18.065-53.605c3.407-11.504,8.159-22.566,13.741-33.164
				c5.041-9.567,10.762-18.758,16.809-27.709C1185.738,2262.321,1187.134,2259.367,1188.969,2257.393z"/>
			<path fill="#E7C49D" d="M554.739,2292.99c-23.497,13.156-47.186,26.452-66.883,45.151c-9.873-17.593-19.745-35.187-29.618-52.78
				c-1.122-1.998-2.28-4.119-2.388-6.316c-0.206-4.184,3.313-6.724,6.475-8.578c38.758-22.733,77.516-45.468,116.273-68.201
				c2.949,17.276,7.887,34.468,14.651,51.023c1.709,4.186,3.39,6.395,5.805,9.771c2.043,2.855,2.348,4.266-0.112,6.487
				c-5.365,4.848-14.593,7.251-20.979,10.651C570.162,2284.354,562.45,2288.674,554.739,2292.99z"/>
			<path fill="#183F59" d="M844.87,2391.612c0,0-67.337-30.571-142.016-59.381c-9.565-28.894-19.131-57.785-28.697-86.672
				c-27.14,23.488-61.816,38.126-97.581,41.187c-5.162-35.019-32.319-65.806-66.421-75.3
				c46.325-26.312,96.095-46.544,147.647-60.005c14.23-3.718,29.354-6.908,43.49-2.818c14.881,4.315,26.329,16.024,36.452,27.757
				c42.892,49.705,75.123,107.856,100.854,168.259C846.914,2364.166,849.469,2394.483,844.87,2391.612z"/>
			<path fill="#0F180A" d="M514.461,2213.795c2.575-3.163,1.25-7.904-2.583-9.296c-16.049-5.826-54.48-24.036-102.751-76.032
				c0,0-11.37-12.838-34.306-13.957l126.737,223.041l39.5-22.445c4.343-2.467,3.784-8.896-0.92-10.576l-12.275-4.386
				c-5.873-2.099-10.813-6.208-13.944-11.602l-18.467-31.803c-3.998-6.884-3.317-15.524,1.709-21.697L514.461,2213.795z"/>
			
				<rect x="298.413" y="2219.333" transform="matrix(0.494 0.8694 -0.8694 0.494 2156.979 758.6331)" fill="#3D3D3D" width="256.534" height="26.473"/>
			<polygon fill="#E7EEF6" points="705.068,2182.403 737.335,2354.774 859.568,2446.339 835.814,2262.791 			"/>
			
				<ellipse transform="matrix(0.9396 -0.3422 0.3422 0.9396 -745.7321 406.8477)" fill="#B1BCC2" cx="780.165" cy="2316.873" rx="5.154" ry="13.805"/>
			<path opacity="0.1" fill="#050003" d="M889.847,2554.096c-25.471,2.45-51.918-0.563-76.348-7.891
				c-53.393-16.023-99.505-49.551-144.468-82.498c-28.094-20.582-56.187-41.17-84.286-61.752
				c3.421,85.684-36.061,166.555-74.566,243.175c-0.728,1.45-1.498,2.936-2.332,4.392c2.77-14.763,4.279-29.762,7.588-44.425
				c7.394-32.812,23.767-62.757,37.15-93.615c7.92-18.267,14.946-37.665,13.78-57.542c-1.16-19.871-12.419-40.364-31.254-46.811
				c22.073,0.586,43.442-15.787,48.61-37.25c12.052,31.592,45.863,53.445,79.616,51.451c-1.048,12.91,5.505,25.506,14.639,34.693
				c9.128,9.187,20.659,15.538,32.023,21.76c20.209,11.063,40.418,22.132,60.626,33.195c15.704,8.595,31.515,17.243,48.521,22.813
				c18.445,6.044,37.902,8.347,56.583,13.597C880.548,2548.738,885.751,2551.012,889.847,2554.096z"/>
		</g>
	</g>
	<g>
		<path fill="#0F180A" d="M6463.701,2900.26c1.536,5.06,11.806,12.867,16.576,17.354c6.984,6.567,10.244,11.078,17.917,16.826
			c9.467,7.093,21.312,10.047,32.808,12.839c14.135,3.434,28.582,6.894,43.072,5.599s29.291-8.222,36.258-20.993
			c18.82,6.397,39.693,6.593,58.631,0.55c3.467-1.105,6.92-2.425,10.549-2.688c3.629-0.262,7.567,0.72,9.91,3.504
			c4.371,5.193,1.047,13.305-3.713,18.145c-9.873,10.041-24.303,13.798-37.982,17.141c-16.462,4.024-32.924,8.048-49.387,12.072
			c-8.612,2.104-17.613,4.216-26.248,2.201c-7.332-1.711-13.645-6.234-19.699-10.709c-6.055-4.474-12.264-9.097-19.53-11.065
			c-7.267-1.968-15.957-0.664-20.717,5.169c-3.933,4.818-4.404,11.748-2.746,17.743s5.161,11.284,8.61,16.46
			c-2.717,0.992-5.434,1.985-8.15,2.978c-0.256-14.228-7.895-28.122-19.771-35.962c-7.035-4.643-15.479-7.332-21.345-13.385
			c-8.064-8.319-9.381-21.529-5.856-32.567c3.524-11.037-8.962-16.043-0.889-24.354L6463.701,2900.26z"/>
		<path fill="#E7C49D" d="M6323.029,2423.618c54.136,23.812,108.271,47.623,162.409,71.435c20.918,9.2,43.888,20.514,51.657,42.004
			c6.209,17.178,0.827,36.103-3.926,53.739c-18.5,68.667-27.035,140.012-25.254,211.105c0.801,31.94,4.09,65.163,20.773,92.412
			s51.049,46.784,81.643,37.57c-6.547,12.476-20.838,22.055-34.76,24.221c-12.914,2.009-26.16,1.316-38.998-1.123
			c-29.637-5.631-57.391-20.769-78.172-42.636c-9.537-85.091-20.835-172.69-30.373-257.78c-1.923-17.159-2.892-37.088,9.731-48.868
			c5.167-4.822-6.619-36.947-23.181-41.044c-19.682-4.869-21.21-7.831-40.441-14.253c-20.116-6.717-41.561-14.381-53.971-31.579
			c-9.574-13.268-12.236-30.534-10.662-46.819C6311.082,2455.717,6317.62,2439.06,6323.029,2423.618z"/>
		<path fill="#E9D6B8" d="M6405.578,2582.987c15.139,13.409,30.338,26.882,43.327,42.382s23.78,33.226,28.829,52.809
			c8.645,33.526-0.136,69,2.762,103.502c3.101,36.903,4.549,75.897,6.464,112.881c1.695,32.738,3.528,66.136,15.463,96.668
			c13.692,35.029,40.769,64.636,74.439,81.396c-16.82,6.99-39.396,7.716-56.973,2.934c-17.577-4.783-33.675-13.977-48.446-24.635
			c-7.21-5.201-14.244-10.863-19.501-18.032c-14.151-19.295-14.696-43.548-14.696-43.548c3.683-31.33-5.5-62.691-16.414-92.289
			c-10.912-29.599-23.771-58.922-27.902-90.196c-2.648-20.047-1.629-40.388-2.941-60.565c-1.311-20.18-5.223-40.859-16.535-57.619
			c-14.211-21.056-38.03-33.17-60.814-44.401"/>
		<path fill="#0F180A" d="M6449.018,3016.373c4.861,8.264,6.724,13.508,12.475,21.18c7.096,9.464,17.636,15.623,27.885,21.528
			c12.605,7.264,25.5,14.639,39.771,17.462c14.271,2.824,30.422,0.329,40.691-9.974c16.27,11.422,36.248,17.468,56.121,16.982
			c3.637-0.089,7.322-0.386,10.879,0.381s7.062,2.814,8.529,6.144c2.737,6.212-2.729,13.064-8.656,16.374
			c-12.295,6.866-27.199,6.423-41.266,5.793c-16.931-0.759-33.861-1.517-50.791-2.274c-8.857-0.396-18.089-0.896-25.811-5.253
			c-6.557-3.7-11.346-9.813-15.902-15.807s-9.217-12.173-15.641-16.103c-6.422-3.928-15.129-5.115-21.335-0.853
			c-5.126,3.521-7.523,10.04-7.614,16.26c-0.092,6.22,1.786,12.279,3.645,18.215c-2.886,0.19-5.772,0.38-8.658,0.57
			c3.747-13.728,0.314-29.208-8.885-40.065c-5.449-6.431-12.798-11.381-16.73-18.837c-5.406-10.249-6.552-24.317-0.071-33.923
			c6.481-9.604,7.372-12.671,9.593-24.83C6437.246,2989.344,6445.697,3010.729,6449.018,3016.373z"/>
		<path fill="#183F59" d="M6094.582,2392.861c0.178,24.469,0.354,48.938,0.531,73.408c0.089,12.316,0.283,25.104,5.651,36.188
			c7.322,15.12,22.893,24.325,38.19,31.268c24.373,11.063,50.293,18.686,73.919,31.265s45.542,31.321,54.173,56.658
			c3.063,8.991,4.697,19.138,11.617,25.646c8.201,7.713,20.941,7.574,32.047,5.721c38.271-6.39,73.768-28.074,96.924-59.207
			c6.357-8.549,1.512-24.432-3.482-33.844c-4.992-9.411-12.289-17.367-18.375-26.111c-16.396-23.554-23.739-53.247-20.211-81.728
			c29.455,9.428,58.912,18.856,88.367,28.284c-11.292-18.817-35.658-23.805-56.809-29.66c-35.664-9.873-69.255-27.174-98.003-50.477
			c-12.117-9.822-24.161-21.096-39.437-24.252c-12.773-2.639-25.91,0.836-38.6,3.854
			C6179.135,2389.852,6137.702,2392.589,6094.582,2392.861z"/>
		<path fill="#9EC301" d="M6081.089,2127.208c-9.671,36.399-4.723,74.886,0.288,112.214c6.217,46.307-0.652,90.734,5.564,137.041
			c0.604,4.502,4.318,13.303,7.641,16.398c4.57,4.258,156.675-4.809,162.551-17.777c3.205-7.07,0.879-36.576-0.015-44.287
			c-4.025-34.709-11.415-71.169,1.612-103.59c7.156-17.811,20.4-36.698,12.721-54.289c-5.809-13.305-21.611-19.523-29.104-31.958
			c-7.427-12.325-5.233-27.929-7.855-42.078c-3.364-18.162-15.461-34.503-31.849-43.026
			C6149.653,2028.298,6094.168,2077.98,6081.089,2127.208z"/>
		<ellipse fill="#E9D6B8" cx="6200.916" cy="1972.545" rx="60.549" ry="89.264"/>
		<path fill="#1A4568" d="M6252.265,1912.168c10.636-6.342,20.762-14.171,27.218-24.738c6.458-10.566,8.721-24.284,3.428-35.479
			c-9.233-19.529-34.986-23.121-56.566-24.09c-21.672-0.974-43.693-1.915-64.766,3.237s-41.447,17.332-51.405,36.604
			c-17.865,34.573,2.007,80.402-17.733,113.94c-16.172,27.478-55.439,39.717-61.707,70.979c-3.903,19.476,6.998,40.764-0.924,58.979
			c-6.674,15.344-23.953,22.381-37.707,31.91c-29.188,20.224-45.381,57.695-40.107,92.811c5.273,35.116,31.76,66.178,65.6,76.936
			c13.476,4.283,29.185,5.217,40.863-2.754c11.284-7.701,16.24-21.963,17.622-35.556s-0.078-27.39,1.788-40.924
			c4.77-34.575,30.043-62.23,53.838-87.766c23.794-25.535,48.521-53.985,51.724-88.741c0-33.112-11.632-61.497-22.646-92.303
			c-11.019-30.818,21.378-29.388,43.041-34.054C6220.852,1927.494,6237.3,1921.093,6252.265,1912.168z"/>
		<rect x="6333.418" y="2404.779" fill="#FFFFFF" width="182.832" height="18.839"/>
		
			<rect x="6450.457" y="2318.328" transform="matrix(-0.4485 0.8938 -0.8938 -0.4485 11573.3623 -2486.4644)" fill="#FFFFFF" width="206.647" height="17.871"/>
		<path fill="#E9D6B8" d="M6160.234,2187.29c8.021,37.286,13.769,75.061,17.204,113.044c1.739,19.238,12.7,36.442,29.543,45.898
			c47.685,26.773,96.972,52.086,147.476,72.166c17.504,6.959,35.662,14.036,54.481,13.225c18.818-0.812,37.46-65.523,21.154-70.642
			c-21.925-6.883-44.606,9.568-67.57,8.692c-19.228-0.733-36.062-13.455-51.905-23.233c-13.793-8.512-27.217-17.606-40.006-27.562
			c-13.264-10.324-26.574-21.608-35.673-35.947c-17.935-28.26-17.06-63.344-12.597-97.207c1.808-13.711-7.535-26.482-21.146-28.932
			c-5.938-1.069-11.952-1.387-17.838-0.857C6167.829,2157.333,6156.956,2172.046,6160.234,2187.29z"/>
	</g>
	<g>
		<g>
			<polygon fill="#E7C49D" points="2283.442,1998.563 2290.29,2098.988 2223.122,2092.467 2214.318,1986.824 			"/>
			<path fill="#E9D6B8" d="M2162.585,1931.277c7.479-8.027,14.592-16.394,21.313-25.065c5.294-6.831,9.987-14.224,14.704-21.603
				c4.204-7.835,8.983-14.979,14.192-21.283c-0.046,0.263-0.092,0.533-0.139,0.797c4.512-5.782,9.46-11.165,15.24-15.784
				c14.521-11.604,33.521-18.988,52.095-13.878c36.673,10.09,54.119,62.919,38.966,117.997
				c-15.153,55.078-57.167,91.549-93.84,81.46c-26-7.153-42.318-35.798-44.225-71.488c-6.82-5.044-13.65-10.114-19.041-16.625
				c-1.852-2.238-3.601-4.922-3.292-7.811C2158.841,1935.351,2160.772,1933.223,2162.585,1931.277z"/>
			<path fill="#1A4568" d="M2187.773,1840.825c-7.399-9.758-10.123-23.423-5.223-34.646s18.117-18.721,29.928-15.49
				c8.938,2.445,16.11,10.211,25.348,10.928c5.487,0.426,10.792-1.739,16.037-3.404c28.612-9.083,61.56-3.08,85.131,15.51
				c23.57,18.59,37.085,49.232,34.92,79.173c-1.823,25.205-14.001,48.771-30.046,68.294c-16.044,19.524-35.883,35.518-55.569,51.361
				c3.471-27.204,6.941-54.408,10.413-81.612c0.757-5.932,1.47-12.201-0.905-17.689c-2.375-5.488-9.043-9.591-14.444-7.025
				c-3.485,1.657-5.355,5.398-7.436,8.647c-2.08,3.25-5.25,6.516-9.094,6.172c-4.298-0.384-6.805-4.95-8.269-9.01
				c-3.122-8.663-4.819-17.598-5.636-26.749c-0.506-5.672-0.411-12.516-3.541-17.529c-3.494-5.596-9.315-5.935-15.329-6.294
				c-8.533-0.51-16.939-1.756-24.916-4.961C2200.86,1853.175,2193.204,1847.986,2187.773,1840.825z"/>
			<polygon fill="#E9D6B8" points="2811.916,2786.378 2880.416,2775.98 2885.157,2732.627 2809.907,2722.309 			"/>
			<polygon fill="#E9D6B8" points="1912.458,2986.891 1898.148,3054.682 1937.079,3074.339 1973.156,3007.5 			"/>
			<path fill="#E9D6B8" d="M2562.526,1646.979c-1.979-3.518-4.011-7.277-3.585-11.37c0.427-4.093,4.405-8.402,8.77-7.913
				c2.911,0.327,4.919,2.534,7.083,4.247s5.445,3.011,7.986,1.426c1.904-1.188,2.516-3.525,2.422-5.556
				c-0.094-2.032-0.71-4.009-0.525-6.055c0.485-5.336,6.217-9.387,11.835-11.104c14.028-4.287,29.49,1.65,37.221,12.344
				c7.732,10.693,9.505,21.332,5.328,34.345c-0.746,2.326-8.238,10.237-10.593,11.388c-2.276,1.112-20.358,17.289-22.24,15.908
				c-1.881-1.381-17.16-13.984-23.64-11.787C2579.566,1668.661,2565.054,1651.47,2562.526,1646.979z"/>
			<path fill="#E9D6B8" d="M1973.545,1687.643c1.611-3.701,3.25-7.648,2.41-11.676c-0.841-4.028-5.236-7.911-9.528-6.98
				c-2.863,0.621-4.636,3.021-6.614,4.945c-1.978,1.923-5.111,3.549-7.799,2.23c-2.015-0.988-2.861-3.251-2.975-5.282
				c-0.113-2.031,0.299-4.06-0.093-6.076c-1.024-5.259-7.139-8.707-12.902-9.843c-14.392-2.838-29.169,4.641-35.774,16.064
				c-6.604,11.424-5.836,25.867-0.358,38.388c0.979,2.238,4.536,6.468,6.995,7.373c2.377,0.875,25.261,14.329,26.993,12.763
				c1.731-1.565,15.648-15.656,22.319-14.129C1958.798,1710.945,1971.488,1692.368,1973.545,1687.643z"/>
			<path fill="#EB512F" d="M2190.965,2493.058c24.039,96.279,116.57,208.868,178.933,277.41
				c23.116,25.405,43.101,42.991,77.218,46.964c91.339,10.636,403.051-33.377,403.051-33.377s-3.883-20.051-13.417-58.065
				c-153.848-36.7-318.534-20.56-338.785-95.714c-26.225-97.323-17.541-78.289-80.62-260.059
				C2376.038,2394.005,2232.271,2469.269,2190.965,2493.058z"/>
			<path fill="#FE6442" d="M2427.528,2362.063c-17.521-13.964-24.728-3.913-42.249-17.876
				c-21.396-17.052-187.254,56.643-200.682,32.806c-33.704,29.218-148.079,131.63-196.584,223.958
				c-26.701,50.822-49.958,234.848-56.611,267.504c-10.126,49.704-19.907,105.758-27.373,154.903
				c27.217,9.332,25.195,9.021,52.557,14.841c30.884-37.252,106.569-180.506,118.424-227.61
				c18.835-74.838,64.021-140.358,126.624-185.483c35.248-25.406,103.275-38.282,130.713-68.946
				C2378.462,2504.622,2433.127,2458.178,2427.528,2362.063z"/>
			<path fill="#2E7FEB" d="M2179.204,2384.134c82.813,0.972,165.093-11.909,246.909-24.754
				c2.016-81.148-10.105-164.251-26.806-243.688c-5.851-27.831-34.194-45.262-56.409-63.019
				c-8.479-6.775-17.137-13.657-27.281-17.519c-10.144-3.861-22.2-4.281-31.349,1.558c-8.287,5.289-12.858,14.624-18.683,22.543
				c-5.825,7.918-14.927,15.222-24.544,13.188c-9.919-2.098-13.582-13.589-19.323-21.945c-6.516-9.483-9.126-12.239-20.957-19.69
				c-13.105,49.222-24.73,98.323-31.093,148.86C2161.216,2246.82,2163.543,2318.289,2179.204,2384.134z"/>
			<path fill="#2E7FEB" d="M2522.026,1828.031c-7.435,21.436-24.583,59.076-45.23,87.082
				c-25.889,35.114-62.642,63.119-99.308,86.757c-17.017,10.971-34.605,21.057-52.668,30.204
				c-14.471,7.328-24.765,15.995-40.297,11.316c19.997,48.253,39.234,93.609,72.938,133.512c2.863,3.391,6.074,6.932,10.402,7.908
				c4.755,1.073,9.561-1.226,13.846-3.55c70.191-38.076,124.946-101.302,160.398-172.854
				c35.453-71.551,47.615-155.618,61.469-234.26c5.993-34.016,12.165-68.011,18.158-102.026
				c-15.275,0.901-30.692-0.645-45.484-4.562C2560.725,1723.442,2540.586,1774.518,2522.026,1828.031z"/>
			<path fill="#2E7FEB" d="M2186.295,2208.417c-73.172-40.228-132.558-105.017-166.279-181.405
				c-42.449-96.163-42.622-213.405-99.359-301.893c13.616-6.92,27.232-13.839,40.848-20.759
				c7.979,19.054,18.884,37.248,26.863,56.302c15.831,37.805,31.724,75.736,52.339,111.16c13.546,23.276,29.157,45.464,47.8,64.897
				c10.081,10.508,21.004,20.167,31.913,29.813c19.437,17.186,39.296,31.912,58.733,49.098
				c13.365,11.818,20.529,12.287,32.815,24.729C2209.26,2096.358,2207.906,2156.684,2186.295,2208.417z"/>
		</g>
		<g>
			<path fill="#0F180A" d="M1889.254,3009.779c-0.067-4.078-4.135-6.853-7.964-5.448c-16.029,5.881-57.156,16.703-127.571,8.019
				c0,0-16.966-2.498-35.232,11.419l240.604,88.989l15.76-42.61c1.733-4.686-2.834-9.242-7.516-7.498l-12.215,4.551
				c-5.844,2.178-12.27,2.216-18.139,0.106l-34.61-12.433c-7.492-2.691-12.536-9.739-12.667-17.699L1889.254,3009.779z"/>
			
				<rect x="1705.93" y="3067.442" transform="matrix(0.9379 0.3469 -0.3469 0.9379 1182.5654 -444.9753)" fill="#3D3D3D" width="256.534" height="26.473"/>
		</g>
		<g>
			<path fill="#0F180A" d="M2828.055,2796.327c-4.038,0.573-6.286,4.954-4.416,8.579c7.826,15.174,23.673,54.639,23.801,125.587
				c0,0-0.371,17.146,15.707,33.542l58.415-249.795l-44.238-10.346c-4.864-1.138-8.818,3.961-6.507,8.389l6.034,11.556
				c2.886,5.528,3.722,11.899,2.359,17.985l-8.038,35.887c-1.74,7.768-8.106,13.648-15.989,14.767L2828.055,2796.327z"/>
			
				<rect x="2776.977" y="2828.915" transform="matrix(0.2277 -0.9737 0.9737 0.2277 -523.7954 5023.8848)" fill="#3D3D3D" width="256.534" height="26.473"/>
		</g>
	</g>
</g>
</svg>
