<?xml version="1.0" encoding="utf-8"?>
<!-- Generator: Adobe Illustrator 16.0.0, SVG Export Plug-In . SVG Version: 6.00 Build 0)  -->
<!DOCTYPE svg PUBLIC "-//W3C//DTD SVG 1.1//EN" "http://www.w3.org/Graphics/SVG/1.1/DTD/svg11.dtd">
<svg version="1.1" id="Layer_1" xmlns="http://www.w3.org/2000/svg" xmlns:xlink="http://www.w3.org/1999/xlink" x="0px" y="0px"
	 width="19.398px" height="18.594px" viewBox="4.297 2.182 19.398 18.594" enable-background="new 4.297 2.182 19.398 18.594"
	 xml:space="preserve">
<path fill="#FFFFFF" d="M285.333,320h90c2.762,0,5,2.237,5,5v90c0,2.762-2.238,5-5,5h-90c-2.763,0-5-2.238-5-5v-90
	C280.333,322.238,282.57,320,285.333,320z"/>
<g>
	<g enable-background="new    ">
		<path fill="#4D4D4D" d="M19.218,13.597l4.169-3.437c0.59-0.488,0.283-1.443-0.488-1.484l-5.367-0.325
			c-0.326-0.021-0.61-0.224-0.732-0.529l-1.972-5.043c-0.285-0.711-1.282-0.711-1.565,0l-1.973,5.022
			c-0.122,0.306-0.407,0.509-0.732,0.529L5.168,8.657C4.395,8.696,4.09,9.652,4.68,10.139l4.168,3.417
			c0.244,0.204,0.366,0.549,0.284,0.853L7.77,19.633c-0.183,0.732,0.611,1.324,1.26,0.916l4.535-2.906
			c0.285-0.184,0.631-0.184,0.896,0l4.554,2.906c0.651,0.408,1.444-0.184,1.262-0.916l-1.363-5.203
			C18.852,14.125,18.953,13.801,19.218,13.597z"/>
	</g>
</g>
</svg>
