<?xml version="1.0" encoding="utf-8"?>
<!-- Generator: Adobe Illustrator 16.0.0, SVG Export Plug-In . SVG Version: 6.00 Build 0)  -->
<!DOCTYPE svg PUBLIC "-//W3C//DTD SVG 1.1//EN" "http://www.w3.org/Graphics/SVG/1.1/DTD/svg11.dtd">
<svg version="1.1" id="Layer_1" xmlns="http://www.w3.org/2000/svg" xmlns:xlink="http://www.w3.org/1999/xlink" x="0px" y="0px"
	 width="100px" height="96.116px" viewBox="0 0 100 96.116" enable-background="new 0 0 100 96.116" xml:space="preserve">
<g transform="translate(50 50) scale(0.69 0.69) rotate(0) translate(-50 -50)">
	<g>
		<path fill="#DB3236" d="M31.51,61.804c0,10.318,8.257,18.572,18.572,18.572c10.32,0,18.576-8.254,18.576-18.572
			c0-10.319-8.255-18.573-18.576-18.573C39.767,43.058,31.51,51.485,31.51,61.804z M51.114,83.986
			c-18.744,0-34.737,13.587-41.445,32.849h82.89C85.853,97.573,69.861,83.986,51.114,83.986z M50.257-22.464
			c-39.899,0-72.402,32.503-72.402,72.4c0,19.949,8.084,38.008,21.155,51.248l5.329-5.33C-7.353,83.986-14.578,67.82-14.578,49.936
			c0-35.768,29.064-64.833,64.835-64.833c35.77,0,64.83,29.065,64.83,64.833c0,17.884-7.222,34.049-19.087,45.918l5.331,5.33
			c13.07-13.069,21.153-31.3,21.153-51.248C122.659,10.039,90.154-22.464,50.257-22.464z M88.26,87.944
			c9.804-9.804,15.822-23.217,15.822-38.008c0-29.75-24.074-53.826-53.825-53.826c-29.752,0-53.828,24.077-53.828,53.826
			c0,14.791,6.019,28.378,15.821,38.008l5.331-5.331C9.153,74.185,3.995,62.663,3.995,49.936c0-25.45,20.808-46.26,46.261-46.26
			c25.451,0,46.26,20.81,46.26,46.26c0,12.726-5.16,24.248-13.586,32.677L88.26,87.944z"/>
	</g>
</g>
</svg>
