<?xml version="1.0" encoding="utf-8"?>
<!-- Generator: Adobe Illustrator 16.0.0, SVG Export Plug-In . SVG Version: 6.00 Build 0)  -->
<!DOCTYPE svg PUBLIC "-//W3C//DTD SVG 1.1//EN" "http://www.w3.org/Graphics/SVG/1.1/DTD/svg11.dtd">
<svg version="1.1" id="Layer_1" xmlns="http://www.w3.org/2000/svg" xmlns:xlink="http://www.w3.org/1999/xlink" x="0px" y="0px"
	 width="100px" height="100px" viewBox="0 0 100 100" enable-background="new 0 0 100 100" xml:space="preserve">
<g transform="translate(50 50) scale(0.69 0.69) rotate(0) translate(-50 -50)">
	<path fill="#4D4D4D" d="M-12.319-22.464h124.223v41.409h-10.352c-2.485-11.388-1.244-20.499-5.176-24.019
		c-3.83-3.415-13.458-7.038-25.88-7.038H60.145v113.871c0,8.282,1.241,10.871,3.83,12.837c2.589,1.969,8.178,3.315,16.873,3.933
		v3.935h-62.32v-3.935c9.007-0.723,14.701-2.174,16.875-4.553c2.277-2.279,4.036-3.003,4.036-12.217V-12.112H29.088
		c-11.8,0-22.255,3.622-26.501,7.038c-4.349,3.417-2.38,12.528-4.554,24.019h-10.352V-22.464z"/>
</g>
</svg>
