<?xml version="1.0" ?><!DOCTYPE svg  PUBLIC '-//W3C//DTD SVG 1.1//EN'  'http://www.w3.org/Graphics/SVG/1.1/DTD/svg11.dtd'><svg height="2048px" style="shape-rendering:geometricPrecision; text-rendering:geometricPrecision; image-rendering:optimizeQuality; fill-rule:evenodd; clip-rule:evenodd" viewBox="0 0 2048 2048" width="2048px" xml:space="preserve" xmlns="http://www.w3.org/2000/svg" xmlns:xlink="http://www.w3.org/1999/xlink"><defs><style type="text/css">
   <![CDATA[
    .fil2 {fill:none}
    .fil1 {fill:#E64A19}
    .fil0 {fill:#FFCA28}
   ]]>
  </style></defs><g id="Layer_x0020_1"><g id="_693040400"><path class="fil0" d="M255.999 1546.67l1536 0 0 -149.022c-8.43662,3.88111 -17.8228,6.04843 -27.7181,6.04843 -36.6744,0 -66.4052,-29.7307 -66.4052,-66.4064 0,-36.6744 29.7307,-66.4052 66.4052,-66.4052 9.89528,0 19.2815,2.16732 27.7181,6.04843l0 -192.573c-8.43662,3.88111 -17.8228,6.04843 -27.7181,6.04843 -36.6744,0 -66.4052,-29.7307 -66.4052,-66.4064 0,-36.6744 29.7307,-66.4052 66.4052,-66.4052 9.89528,0 19.2815,2.16732 27.7181,6.04843l0 -192.573c-8.43662,3.88111 -17.8228,6.04843 -27.7181,6.04843 -36.6744,0 -66.4052,-29.7307 -66.4052,-66.4064 0,-36.6744 29.7307,-66.4052 66.4052,-66.4052 9.89528,0 19.2815,2.16732 27.7181,6.04843l0 -149.023 -1536 0 0 149.022c8.43544,-3.87992 17.8228,-6.04725 27.717,-6.04725 36.6756,0 66.4064,29.7307 66.4064,66.4052 0,36.6756 -29.7307,66.4064 -66.4064,66.4064 -9.8941,0 -19.2815,-2.16732 -27.717,-6.04725l0 192.571c8.43544,-3.87992 17.8228,-6.04725 27.717,-6.04725 36.6756,0 66.4064,29.7307 66.4064,66.4052 0,36.6756 -29.7307,66.4064 -66.4064,66.4064 -9.8941,0 -19.2815,-2.16732 -27.717,-6.04725l0 192.571c8.43544,-3.87992 17.8228,-6.04725 27.717,-6.04725 36.6756,0 66.4064,29.7307 66.4064,66.4052 0,36.6756 -29.7307,66.4064 -66.4064,66.4064 -9.8941,0 -19.2815,-2.16732 -27.717,-6.04725l0 149.021z" id="_693041000"/><path class="fil1" d="M484.766 844.257l1078.47 0c18.0484,0 32.6811,-14.6327 32.6811,-32.6823 0,-18.0484 -14.6327,-32.6811 -32.6811,-32.6811l-1078.47 0c-18.0484,0 -32.6811,14.6327 -32.6811,32.6811 0,18.0496 14.6327,32.6823 32.6811,32.6823z" id="_693040784"/><polygon class="fil1" id="_693040664" points="605.302,1096.24 605.302,987.375 650.882,987.375 650.882,951.659 515.085,951.659 515.085,987.375 560.631,987.375 560.631,1096.24 "/><polygon class="fil1" id="_693040832" points="755.835,1096.24 755.835,951.659 711.063,951.659 711.063,1096.24 "/><path class="fil1" d="M960.127 994.175c-5.04922,-15.2492 -12.7913,-26.5595 -23.2264,-33.9331 -10.4362,-7.37245 -24.7441,-11.041 -42.9555,-11.041 -23.2606,0 -41.2701,6.42993 -53.9953,19.2886 -12.7252,12.8256 -19.0866,31.2402 -19.0866,55.1741 0,17.9433 3.63544,32.654 10.839,44.1662 7.2378,11.5122 15.8563,19.5579 25.8201,24.137 9.93072,4.5437 22.7906,6.83268 38.5111,6.83268 12.926,0 23.5973,-1.85079 31.9796,-5.62205 8.38229,-3.73583 15.4181,-9.29056 21.0732,-16.663 5.65512,-7.37245 9.79489,-16.5284 12.4217,-27.502l-39.1512 -11.85c-1.98543,9.15709 -5.14961,16.1256 -9.5256,20.9055 -4.37599,4.81418 -10.8402,7.20355 -19.3902,7.20355 -8.78623,0 -15.6189,-2.96221 -20.5004,-8.92087 -4.84843,-5.95867 -7.30512,-16.9323 -7.30512,-32.9894 0,-12.9614 2.05276,-22.454 6.12638,-28.513 5.38583,-8.14725 13.1622,-12.2197 23.2606,-12.2197 4.47756,0 8.51694,0.908268 12.1524,2.76024 3.60236,1.85197 6.66615,4.47756 9.15709,7.87678 1.51536,2.05394 2.96221,5.28544 4.34292,9.69568l39.4524 -8.78623z" id="_693041120"/><polygon class="fil1" id="_693041264" points="1174.86,1096.24 1119.82,1006.19 1172.5,951.659 1113.12,951.659 1066.26,1006.29 1066.26,951.659 1021.59,951.659 1021.59,1096.24 1066.26,1096.24 1066.26,1060.93 1089.35,1036.76 1119.82,1096.24 "/><polygon class="fil1" id="_693041192" points="1342.05,1035.01 1342.05,1005.52 1272.54,1005.52 1272.54,982.528 1347.47,982.528 1347.47,951.659 1227.77,951.659 1227.77,1096.24 1349.66,1096.24 1349.66,1063.49 1272.54,1063.49 1272.54,1035.01 "/><polygon class="fil1" id="_693040256" points="1537.56,987.375 1537.56,951.659 1401.76,951.659 1401.76,987.375 1447.31,987.375 1447.31,1096.24 1491.98,1096.24 1491.98,987.375 "/><path class="fil1" d="M1563.23 1269.11c18.0484,0 32.6811,-14.6327 32.6811,-32.6811 0,-18.0496 -14.6327,-32.6823 -32.6811,-32.6823l-1078.47 0c-18.0484,0 -32.6811,14.6327 -32.6811,32.6823 0,18.0484 14.6327,32.6811 32.6811,32.6811l1078.47 0z" id="_693040184"/></g></g><rect class="fil2" height="2048" width="2048"/></svg>