<?xml version="1.0" encoding="utf-8"?>
<!-- Generator: Adobe Illustrator 16.0.0, SVG Export Plug-In . SVG Version: 6.00 Build 0)  -->
<!DOCTYPE svg PUBLIC "-//W3C//DTD SVG 1.1//EN" "http://www.w3.org/Graphics/SVG/1.1/DTD/svg11.dtd">
<svg version="1.1" id="Layer_2" xmlns="http://www.w3.org/2000/svg" xmlns:xlink="http://www.w3.org/1999/xlink" x="0px" y="0px"
	 width="1200px" height="750px" viewBox="0 0 1200 750" enable-background="new 0 0 1200 750" xml:space="preserve">
<g>
	<path fill="#F95A5A" d="M401.018,673.266c-69.741-0.233-136.519-29.725-182.513-82.149c-26.221-29.887-43.353-64.812-29.403-99.188
		c36-88.714,144-5.795,174.857-18s-119.571-201.405-47.571-229.274s138.658,34.989,174.757,19.631
		c36.1-15.357,45.864-195.357,107.839-188.929c61.974,6.429,88.392,174.857,125.969,206.357
		c37.577,31.5,180.291-78.292,211.148-22.11c30.856,56.182-86.411,202.753-56.063,231.039
		c30.348,28.285,116.491-23.144,134.491,19.285c9.371,22.09-31.788,65.869-73.403,102.767
		c-45.144,40.026-103.443,62.029-163.775,61.827L401.018,673.266z"/>
	
		<rect x="537.082" y="636.528" transform="matrix(0.9798 0.1998 -0.1998 0.9798 140.7625 -95.1168)" fill="#FFB7A1" width="8.918" height="26.357"/>
	<polygon fill="#FFB800" points="537.888,645.302 534.538,661.728 543.276,663.51 546.617,647.129 	"/>
	<path fill="#FFB7A1" d="M480.755,294.781c0,0-2.827-4.38-6.925-5.37c-4.098-0.989-5.793-1.555-5.793-1.555v18.371
		c0,0,4.098,2.614,10.598,1.798c0.842-0.105,9.751,3.148,9.751,3.148l0.911-3.148L480.755,294.781z"/>
	<path fill="#FFFFFF" d="M464.983,372.995h-55.607c-1.687,0-3.054-1.367-3.054-3.054v-89.464c0-1.687,1.367-3.054,3.054-3.054
		h55.607c1.687,0,3.054,1.367,3.054,3.054v89.464C468.037,371.628,466.669,372.995,464.983,372.995z"/>
	<path fill="#FFB7A1" d="M490.525,301.119l-5.107-0.827l-4.663-5.511c0,0-3.109-1.413-9.892-1.695
		c-6.783-0.283-11.446-1.555-11.446-0.848s0.707,4.805,8.196,4.946c0,0,1.272,8.055,11.022,7.49l10.662,3.353L490.525,301.119z"/>
	<g>
		<g>
			<rect x="413.715" y="284.656" fill="#2A4F83" width="10.844" height="10.844"/>
			<rect x="413.715" y="303.986" fill="#2A4F83" width="28.714" height="1.5"/>
			<rect x="413.715" y="312.424" fill="#2A4F83" width="46.929" height="1.5"/>
			<rect x="413.715" y="320.861" fill="#2A4F83" width="46.929" height="1.5"/>
			<rect x="413.715" y="329.299" fill="#2A4F83" width="28.714" height="1.5"/>
			<rect x="442.081" y="360.236" fill="#2A4F83" width="17.766" height="1.5"/>
			<rect x="413.715" y="337.737" fill="#2A4F83" width="46.929" height="1.5"/>
			<rect x="413.715" y="346.175" fill="#2A4F83" width="46.929" height="1.5"/>
		</g>
	</g>
	<polygon fill="#FFB7A1" points="661.339,659.455 652.472,660.757 651.191,633.546 660.1,633.127 	"/>
	<path fill="#212D3D" d="M535.725,655.911c0,0,4.674,5.945,8.172,4.558c0,0,3.82,3.111,3.98,13.719h-48.696
		c0,0,0.482-5.144,6.911-6.59S535.725,655.911,535.725,655.911z"/>
	<path fill="#648CBC" d="M579.846,363.415l-45.308,275.737l16.072,3.214l67.371-225.277c0.331-1.107,1.349-1.865,2.504-1.865l0,0
		c1.332,0,2.451,1.002,2.598,2.325l24.921,224.817h14.464l0.964-283.5L579.846,363.415z"/>
	<polygon fill="#22416D" points="663.431,358.866 657.566,359.185 651.63,362.864 656.197,642.365 662.467,642.365 	"/>
	<path fill="#AEDC7A" d="M739.392,629.708c0,0-6.667-17.667-18.8-20.499c-15.77-3.682-13.198-12.45-2.809-15.365
		c10.391-2.916,12.334-9.096,1.525-15.229c-14.218-8.067-10.898-21.955-0.344-19.247c9.282,2.382,0.255-17.604-2.463-26.725
		c-2.718-9.119,3.427-19.99,14.164-6.537c11.299,14.156,11.372,21.914,19.381,17.634s12.114-4.746,15.511,0.365
		c3.396,5.11-1.81,74.88-6.263,82.511L739.392,629.708z"/>
	<path fill="#FFB7A1" d="M724.954,252.605c0,0,2.126-9.384,9.769-11.632c7.642-2.248,9.89-4.495,10.639-4.495
		s1.049,4.495-3.597,7.042c-4.645,2.547-16.234,9.423-16.234,9.423L724.954,252.605z"/>
	<path fill="#FFB7A1" d="M724.954,252.605c0,0,10.817-11.032,16.811-9.084c5.994,1.948,11.688,2.248,17.531-3.296
		c5.845-5.544,1.799,4.645-2.547,8.091s-10.938,6.893-16.932,4.945c0,0-4.511,1.524-6.601,4.208L724.954,252.605z"/>
	<path fill="#032A4A" d="M599.744,255.359l40.744-3.507c6.008-0.517,11.951,1.552,16.339,5.688l39.068,36.825l27-43.326
		l12.535,7.379l-21.762,55.102c-2.058,5.21-6.664,8.984-12.177,9.977l0,0c-4.579,0.824-9.291-0.363-12.933-3.259l-28.894-22.979
		l6.071,59.133c0.151,1.466-0.755,2.836-2.165,3.265c-10.731,3.263-54.735,15.361-83.678,4.025
		c-1.341-0.525-2.151-1.897-1.948-3.322l8.985-63.101l-20.003,22.482c-3.312,3.722-7.608,6.43-12.394,7.813l0,0
		c-4.668,1.349-9.619,1.382-14.305,0.098l-52.619-14.428l2.571-14.464l57.857,3.214l38.185-40.116
		C589.786,258.113,594.595,255.803,599.744,255.359z"/>
	<polygon fill="#FFB7A1" points="614.925,243.301 614.192,257.455 623.092,258.419 623.442,243.661 	"/>
	<path fill="#22416D" d="M613.664,254.922c0,0-0.126,3.676,1.555,8.814l5.815,0.549c0,0,2.89-5.262,3.42-8.678l-5.637,2.441
		L613.664,254.922z"/>
	<path fill="#2A4F83" d="M615.219,263.736c0,0-5.912,73.486-4.127,94.058l8.654,8.571l9.07-9.765c0,0-7.425-75.2-7.782-92.316
		L615.219,263.736z"/>
	<path fill="#648CBC" d="M418.735,125.077v62.148c0,2.247,1.822,4.069,4.069,4.069h117.059c1.323,0,2.563,0.643,3.325,1.724
		l15.369,21.803v-23.527v-66.217c0-2.247-1.821-4.068-4.068-4.068H422.804C420.557,121.009,418.735,122.83,418.735,125.077z"/>
	<path fill="#A0B4D8" d="M423.324,461.723h-67.822l14.237,203.439c0.309,4.419,3.984,7.847,8.415,7.847h45.17h45.17
		c4.43,0,8.105-3.428,8.415-7.847l14.237-203.439H423.324z"/>
	<path fill="#2A4F83" d="M618.817,258.048l2.963-2.805c0.933-1.239,1.461-2.735,1.513-4.284l0.149-4.379
		c0,0,4.234-0.621,7.193,1.548c3.974,2.912,1.503,13.667,0.86,13.345c-0.644-0.321-3.36-6.75-3.36-6.75L618.817,258.048z"/>
	<path fill="#2A4F83" d="M618.817,258.048l-2.236-2.448c-1.338-1.463-2.046-3.395-1.973-5.376l0.155-4.158
		c0,0-4.904-0.558-7.583,3.085c-3.71,5.046-3.106,10.929-2.464,10.607c0.643-0.322,5.635-5.036,5.635-5.036L618.817,258.048z"/>
	<path fill="#FFB7A1" d="M603.957,193.866l-2.357,15.429c0,0-7.929-3-7.5,10.286c0,0,0.034,6.873,7.071,6.429
		c0,0-4.286,18.428,15.214,18.643c19.5,0.214,23.465-14.384,25.394-18.455c0,0,8.893,1.526,10.179-8.331
		c1.285-9.857-10.715-4.071-10.715-4.071l0.857-19.072C642.1,194.723,623.028,199.223,603.957,193.866z"/>
	<circle fill="#08083E" cx="630.633" cy="214.785" r="1.902"/>
	<circle fill="#08083E" cx="609.763" cy="214.785" r="1.902"/>
	<path fill="#08083E" d="M628.741,204.521c-0.04-0.189,0.043-0.378,0.204-0.485c0.962-0.639,4.548-2.738,6.347,0.168
		c2.09,3.375-2.639,0.402-4.614,1.125C629.235,205.858,628.847,205.015,628.741,204.521z"/>
	<path fill="#08083E" d="M611.33,204.812c0.223-0.312,0.157-0.713-0.153-0.961c-0.778-0.623-2.281-1.592-3.421-0.916
		c-1.606,0.954-2.33,2.281-0.321,2.002c1.468-0.204,2.261,0.022,2.895,0.198C610.708,205.241,611.12,205.106,611.33,204.812
		L611.33,204.812z"/>
	<g>
		<path fill="#08083E" d="M616.54,225.658c-1.219,0-2.08-0.63-2.518-1.347c-0.65-1.063-0.491-2.38,0.369-3.063
			c3.285-2.606,2.935-5.931,2.931-5.964c-0.032-0.274,0.164-0.522,0.438-0.555c0.277-0.037,0.522,0.164,0.555,0.438
			c0.019,0.159,0.415,3.916-3.303,6.865c-0.465,0.369-0.524,1.125-0.137,1.759c0.448,0.733,1.514,1.25,3.162,0.501
			c0.251-0.117,0.548-0.003,0.661,0.249c0.114,0.251,0.003,0.548-0.248,0.662C617.742,225.523,617.103,225.658,616.54,225.658z"/>
	</g>
	<g>
		<path fill="#08083E" d="M619.279,234.553c-2.119,0-3.875-0.629-3.913-0.643c-0.259-0.096-0.391-0.383-0.296-0.642
			c0.097-0.258,0.383-0.39,0.643-0.296c0.291,0.107,7.164,2.555,9.312-3.145c0.097-0.257,0.384-0.39,0.645-0.292
			c0.258,0.097,0.389,0.386,0.291,0.644C624.625,233.724,621.713,234.553,619.279,234.553z"/>
	</g>
	<path fill="#21374E" d="M599.671,191.937c0,0-2.967,7.572,0,16.824l1.929,0.533l2.357-15.429L599.671,191.937z"/>
	<path fill="#031F34" d="M659.666,297.259l-4.164-4.607c0,0-6.601,29.674-3.872,70.213c5.293-1.272,9.45-2.467,11.884-3.208
		c1.41-0.429,2.315-1.798,2.165-3.265l-6.071-59.133l0.085,0.067L659.666,297.259z"/>
	<path fill="#031F34" d="M713.884,313.521l21.623-54.75l-0.076-0.351c0,0-0.184,0.384-0.53,1.092
		c-4.133,8.449-31.418,62.975-46.075,60.763c3.634,2.868,8.322,4.043,12.881,3.223C707.219,322.505,711.826,318.731,713.884,313.521
		z"/>
	<g>
		<path fill="#231F20" d="M576.575,384.723c-0.051,0-0.1,0-0.151,0l0.006-1c0.047,0,0.097,0,0.144,0
			c16.782,0,18.25-16.065,18.264-16.228l0.996,0.079C595.819,367.746,594.265,384.723,576.575,384.723z"/>
	</g>
	<g>
		<path fill="#231F20" d="M663.346,382.08c-12.498-0.22-13.911-18.576-13.924-18.761l0.998-0.069
			c0.012,0.176,1.36,17.627,12.943,17.831L663.346,382.08z"/>
	</g>
	<path fill="#2A4F83" d="M646.609,287.723h-2.893c-0.414,0-0.75,0.336-0.75,0.75v5.893h4.393v-5.893
		C647.359,288.059,647.023,287.723,646.609,287.723z"/>
	<path fill="#FFB800" d="M645.512,285.151h-0.375c-0.311,0-0.563,0.252-0.563,0.563v2.009h1.5v-2.009
		C646.074,285.403,645.822,285.151,645.512,285.151z"/>
	<path fill="#2A4F83" d="M649.804,293.866h-19.821c-0.276,0-0.5,0.224-0.5,0.5c0,0.276,0.224,0.5,0.5,0.5h19.821
		c0.276,0,0.5-0.224,0.5-0.5C650.304,294.09,650.08,293.866,649.804,293.866z"/>
	<path fill="#FFB800" d="M645.592,303.901h-0.536c-0.266,0-0.481-0.216-0.481-0.482v-12.322c0-0.266,0.216-0.482,0.481-0.482h0.536
		c0.267,0,0.482,0.216,0.482,0.482v12.322C646.074,303.686,645.858,303.901,645.592,303.901z"/>
	<g>
		<path fill="#231F20" d="M751.268,628.205c-0.132,0-0.242-0.103-0.25-0.236c-1.989-35.179-19.196-82.307-19.369-82.779
			c-0.048-0.129,0.019-0.272,0.148-0.32c0.13-0.049,0.273,0.019,0.32,0.148c0.174,0.473,17.406,47.671,19.4,82.924
			c0.008,0.138-0.098,0.256-0.236,0.264C751.277,628.205,751.272,628.205,751.268,628.205z"/>
	</g>
	<g>
		<path fill="#231F20" d="M741.363,575.064l-0.148-0.035l-17.184-4.105c-0.135-0.032-0.218-0.167-0.186-0.301
			s0.161-0.22,0.301-0.186l17.035,4.07l11.751-13.736c0.092-0.105,0.249-0.116,0.353-0.028c0.105,0.09,0.117,0.248,0.028,0.353
			L741.363,575.064z"/>
	</g>
	<g>
		<path fill="#231F20" d="M748.161,603.771l-0.108-0.011c-0.846-0.091-20.732-2.205-21.6-2.379
			c-0.136-0.027-0.224-0.159-0.196-0.294c0.026-0.135,0.149-0.225,0.294-0.196c0.813,0.163,19.824,2.188,21.446,2.36l13.914-12.146
			c0.103-0.09,0.261-0.08,0.353,0.024c0.091,0.104,0.08,0.262-0.024,0.353L748.161,603.771z"/>
	</g>
	<path fill="#8BC24A" d="M803.196,572.913c-14.567-3.209,10.328-30.341,9.069-42.105c-1.26-11.765-9.489-6.096-19.52,4.892
		s-11.521,5.112-23.33-0.52c-5.241-2.5-10.053,4.283-9.258,13.167c0.996,11.136,7.769,25.164-1.019,23.708
		c-15.797-2.619-20.196,8.627-10.274,24.806c7.881,12.852,6.63,24.225,5.782,28.362h15.142l4.048-0.434
		c0,0,2.116-8.416,14.565-8.887s17.776-7.075,9.802-13.117c-7.974-6.043-4.229-7.306,6.241-10.151
		C814.916,589.789,817.764,576.123,803.196,572.913z"/>
	<g>
		<path fill="#231F20" d="M765.316,619.893c-0.02,0-0.04-0.002-0.061-0.008c-0.135-0.033-0.216-0.169-0.182-0.303
			c0.103-0.41,10.591-41.41,36.034-79.365c0.078-0.113,0.233-0.145,0.348-0.068c0.114,0.077,0.145,0.232,0.068,0.348
			c-25.396,37.883-35.863,78.799-35.966,79.207C765.53,619.817,765.429,619.893,765.316,619.893z"/>
	</g>
	<g>
		<path fill="#231F20" d="M799.603,582.606c-0.013,0-0.025-0.001-0.038-0.003l-19.842-3.029l-0.038-0.165l-4.969-21.21
			c-0.032-0.134,0.052-0.269,0.187-0.3c0.133-0.034,0.27,0.053,0.3,0.187l4.931,21.045l19.508,2.979
			c0.136,0.021,0.229,0.148,0.209,0.285C799.831,582.518,799.725,582.606,799.603,582.606z"/>
	</g>
	<g>
		<path fill="#231F20" d="M784.603,607.249c-0.023,0-0.047-0.003-0.07-0.01l-14.141-4.142l-0.051-0.072l-9.302-13.455
			c-0.078-0.114-0.05-0.27,0.063-0.349c0.116-0.076,0.27-0.048,0.349,0.063l9.251,13.383l13.971,4.091
			c0.133,0.039,0.208,0.178,0.17,0.311C784.811,607.179,784.711,607.249,784.603,607.249z"/>
	</g>
	<path fill="#FFB800" d="M759.341,622.265H737.25c-4.098,0-7.371,3.415-7.191,7.508c0.46,10.444,1.487,28.577,3.213,33.037
		c3.308,8.549,14.396,10.884,26.069,10.884c11.479,0,22.763-2.335,26.07-10.884c1.726-4.46,2.753-22.593,3.212-33.037
		c0.181-4.093-3.093-7.508-7.19-7.508H759.341z"/>
	<path fill="#C47312" d="M781.433,622.112h-22.092H737.25c-0.507,0-1.001,0.053-1.478,0.152h13.338h22.092
		c4.098,0,7.371,3.415,7.191,7.508c-0.46,10.443-1.487,28.577-3.213,33.037c-2.707,6.996-10.757,9.827-19.882,10.626
		c1.333,0.069,2.683,0.105,4.042,0.105c11.479,0,22.763-2.335,26.07-10.884c1.726-4.46,2.753-22.594,3.212-33.037
		C788.804,625.526,785.53,622.112,781.433,622.112z"/>
	<g>
		<path fill="#F0F2F3" d="M530.967,164.325l-0.153-1.53c-0.356-3.174,0.742-6.659,3.663-10.188c2.648-3.153,4.118-5.433,4.118-8.064
			c0-3.022-1.868-5.049-5.616-5.075c-2.096,0-4.455,0.684-5.949,1.822l-1.417-3.715c2-1.421,5.329-2.375,8.449-2.375
			c6.755,0,9.854,4.197,9.854,8.691c0,3.973-2.25,6.89-5.085,10.201c-2.589,3.109-3.536,5.714-3.338,8.722l0.078,1.51H530.967z"/>
		<path fill="#F0F2F3" d="M530.456,171.733c0-1.681,1.127-2.874,2.716-2.877c1.622,0,2.685,1.196,2.695,2.877
			c0,1.584-1.061,2.837-2.716,2.837C531.546,174.571,530.432,173.318,530.456,171.733z"/>
	</g>
	<rect x="433.288" y="136.431" fill="#FFFFFF" width="48.207" height="2.36"/>
	<rect x="433.288" y="153.44" fill="#FFFFFF" width="82.493" height="2.36"/>
	<rect x="433.931" y="170.449" fill="#FFFFFF" width="82.493" height="2.36"/>
	<path fill="#22416D" d="M550.61,642.365l67.078-224.298c-4.848,5.503-15.113,19.728-23.605,48.789
		c-9.346,31.987-37.958,135.953-48.545,174.495L550.61,642.365z"/>
	<path fill="#22416D" d="M497.521,461.723H349.127c-2.16,0-3.911-1.751-3.911-3.91V433.49c0-2.159,1.751-3.91,3.911-3.91h148.393
		c2.16,0,3.911,1.751,3.911,3.91v24.322C501.431,459.972,499.68,461.723,497.521,461.723z"/>
	<path fill="#031F34" d="M589.174,281.714l-26.143,29.259c0,0-13.267,17.487-41.735,11.486c0,0,0,0,0,0l18.934,5.192
		c4.687,1.285,9.637,1.251,14.305-0.098c4.786-1.382,9.083-4.091,12.394-7.813l20.003-22.482l-0.438,3.077L589.174,281.714z"/>
	<path fill="#22416D" d="M625.894,359.748l2.923-3.147c0,0-7.425-75.2-7.782-92.316h-1.248
		C619.786,264.285,623.493,347.099,625.894,359.748z"/>
	<path fill="#7791B7" d="M459.99,673.009h8.504c4.43,0,8.105-3.428,8.415-7.847l14.237-203.439h-18.522L459.99,673.009z"/>
	<polygon fill="#FFB800" points="652.472,660.757 661.339,659.455 660.791,647.826 651.868,647.933 	"/>
	<path fill="#212D3D" d="M652.431,660.427c0,0,7.446-1.132,8.741-3.963c0,0,13.295,8.526,21.438,10.026
		c8.144,1.5,8.571,3.857,9,7.071h-40.714C650.896,673.562,648.395,667.221,652.431,660.427z"/>
	<g opacity="0.56">
		<path fill="#FFB7A1" d="M641.184,194.917c-0.613,0.123-1.523,0.292-2.68,0.475c0.167,7.413,0.293,39.713-9.88,46.887
			c9.168-4.265,11.725-13.064,13.154-16.083c0,0,8.893,1.527,10.178-8.33c1.286-9.857-10.714-4.071-10.714-4.071l0.833-18.535
			C641.764,195.141,641.465,195.025,641.184,194.917z"/>
		<path fill="#E0AA88" d="M623.442,243.661c0.273,0.026,0.541,0.039,0.805,0.039C619.347,243.249,617.549,243.092,623.442,243.661z"
			/>
		<path fill="#E0AA88" d="M624.751,243.675c-0.167,0.011-0.333,0.024-0.504,0.024c0.103,0.009,0.211,0.02,0.316,0.029
			C624.627,243.712,624.688,243.692,624.751,243.675z"/>
	</g>
	<path fill="#F79016" d="M642.706,212.904l-0.576-0.817l-5.221,3.682c-0.453-3.539-3.478-6.285-7.138-6.285
		c-3.633,0-6.638,2.706-7.126,6.207c-0.732-0.524-1.925-1.174-3.377-1.193c-1.142-0.043-2.221,0.351-3.235,1.11
		c0-0.048,0.007-0.094,0.007-0.142c0-3.972-3.231-7.204-7.203-7.204c-2.846,0-5.304,1.663-6.474,4.064l-0.266-3.074l-0.996,0.086
		l0.533,6.17h0.001c0.023,3.953,3.243,7.161,7.201,7.161c3.438,0,6.316-2.422,7.029-5.649l0.024,0.024
		c1.054-1.038,2.181-1.524,3.357-1.546c1.646,0.018,2.944,1.07,3.332,1.419c0.122,3.865,3.297,6.974,7.191,6.974
		c3.881,0,7.047-3.087,7.189-6.934L642.706,212.904z M608.837,221.668c-3.421,0-6.204-2.782-6.204-6.203s2.783-6.204,6.204-6.204
		c3.42,0,6.203,2.783,6.203,6.204S612.257,221.668,608.837,221.668z M629.771,222.89c-3.42,0-6.203-2.783-6.203-6.203
		c0-3.421,2.783-6.204,6.203-6.204s6.203,2.783,6.203,6.204C635.975,220.107,633.191,222.89,629.771,222.89z"/>
	<path fill="#21374E" d="M642.022,196.434c0,0-32.709,2.789-42.352-4.497c-9.643-7.286-7.286-21.214,11.786-13.5
		c19.071,7.714,27.643-3,37.285,3.643c0,0,4.104,2.884,2.077,11.529c-0.419,1.788,0.371,3.643,1.95,4.58
		c1.613,0.958,3.178,2.527,2.615,4.891c-1.071,4.5-6.595,9.021-6.595,9.021s-3.801-0.169-7.548,1.693L642.022,196.434z"/>
</g>
</svg>
