<?xml version="1.0" encoding="utf-8"?>
<!-- Generator: Adobe Illustrator 16.0.0, SVG Export Plug-In . SVG Version: 6.00 Build 0)  -->
<!DOCTYPE svg PUBLIC "-//W3C//DTD SVG 1.1//EN" "http://www.w3.org/Graphics/SVG/1.1/DTD/svg11.dtd">
<svg version="1.1" id="Layer_1" xmlns="http://www.w3.org/2000/svg" xmlns:xlink="http://www.w3.org/1999/xlink" x="0px" y="0px"
	 width="82.75px" height="100px" viewBox="0 0 82.75 100" enable-background="new 0 0 82.75 100" xml:space="preserve">
<rect x="92.057" fill="#FFFFFF" width="81.389" height="100.333"/>
<rect x="1.056" y="1" fill="#FFFFFF" width="80.388" height="98.333"/>
<path fill="#FFFFFF" d="M542,667h90c2.762,0,5,2.238,5,5v90c0,2.762-2.238,5-5,5h-90c-2.762,0-5-2.238-5-5v-90
	C537,669.238,539.238,667,542,667z"/>
<rect x="12.34" y="7.678" fill="#E0E0E0" width="38.276" height="2.139"/>
<circle fill="#E0E0E0" cx="7.019" cy="8.242" r="3.602"/>
<rect x="12.34" y="10.606" fill="#E0E0E0" width="53.532" height="2.139"/>
<rect x="12.34" y="4.751" fill="#B3BED8" width="61.637" height="2.139"/>
<rect x="12.341" y="89.184" fill="#B3BED8" width="38.275" height="2.143"/>
<rect x="12.341" y="92.109" fill="#E0E0E0" width="53.531" height="2.141"/>
<rect x="12.34" y="86.257" fill="#E0E0E0" width="60.625" height="2.14"/>
<path fill="#B3BED8" d="M39.994,42.45c0,2.797-0.987,4.053-3.188,4.053H15.682c-2.2,0-3.188-1.256-3.188-4.053V21.784
	c0-2.797,0.987-4.053,3.188-4.053h21.124c2.2,0,3.188,1.256,3.188,4.053V42.45z"/>
<path fill="#B3BED8" d="M74.069,42.45c0,2.798-0.987,4.053-3.188,4.053H49.397c-2.201,0-3.188-1.255-3.188-4.053V21.784
	c0-2.797,0.986-4.053,3.188-4.053h21.484c2.2,0,3.188,1.256,3.188,4.053V42.45z"/>
<path fill="#B3BED8" d="M74.069,75.968c0,2.798-0.987,4.054-3.188,4.054H49.397c-2.201,0-3.188-1.256-3.188-4.054V55.301
	c0-2.797,0.986-4.053,3.188-4.053h21.484c2.2,0,3.188,1.256,3.188,4.053V75.968z"/>
<path fill="#B3BED8" d="M39.994,75.968c0,2.798-0.986,4.054-3.188,4.054H15.682c-2.201,0-3.187-1.256-3.187-4.054V55.301
	c0-2.797,0.986-4.053,3.187-4.053h21.124c2.201,0,3.188,1.256,3.188,4.053V75.968z"/>
<rect x="1.056" y="1" fill="none" stroke="#B3BED8" stroke-width="2" stroke-miterlimit="10" width="80.388" height="98.333"/>
</svg>
