<?xml version="1.0" encoding="utf-8"?>
<!-- Generator: Adobe Illustrator 16.0.0, SVG Export Plug-In . SVG Version: 6.00 Build 0)  -->
<!DOCTYPE svg PUBLIC "-//W3C//DTD SVG 1.1//EN" "http://www.w3.org/Graphics/SVG/1.1/DTD/svg11.dtd">
<svg version="1.1" id="Layer_1" xmlns="http://www.w3.org/2000/svg" xmlns:xlink="http://www.w3.org/1999/xlink" x="0px" y="0px"
	 width="100px" height="100px" viewBox="0 0 100 100" enable-background="new 0 0 100 100" xml:space="preserve">
<path fill="#FFFFFF" d="M542,667h90c2.762,0,5,2.238,5,5v90c0,2.762-2.238,5-5,5h-90c-2.762,0-5-2.238-5-5v-90
	C537,669.238,539.238,667,542,667z"/>
<title>Untitled-1</title>
<rect x="11.919" y="6.357" fill="#E0E0E0" width="34.059" height="1.002"/>
<circle fill="#E0E0E0" cx="7.184" cy="6.858" r="3.205"/>
<rect x="11.919" y="8.962" fill="#E0E0E0" width="47.635" height="1.001"/>
<rect x="11.919" y="3.753" fill="#B3BED8" width="65.666" height="1.002"/>
<rect x="11.919" y="91.933" fill="#B3BED8" width="34.059" height="1.001"/>
<rect x="11.919" y="94.536" fill="#E0E0E0" width="47.635" height="1.001"/>
<rect x="11.919" y="89.329" fill="#E0E0E0" width="65.666" height="1.001"/>
<path fill="#B3BED8" d="M83.272,75.464c0,5.247-2.354,7.601-7.604,7.601H19.661c-5.247,0-7.604-2.354-7.604-7.601V23.81
	c0-5.246,2.357-7.602,7.604-7.602h56.008c5.25,0,7.604,2.355,7.604,7.602V75.464z"/>
<path fill="#FFFFFF" d="M56.5,38.132c-6.187-0.556-12.405-0.556-18.59,0c-2.152,0.215-4.695,2.293-5.204,4.493
	c-0.796,3.549-0.796,7.232,0,10.781c0.508,2.2,3.051,4.276,5.208,4.49c6.184,0.562,12.402,0.562,18.589,0
	c2.149-0.214,4.696-2.29,5.206-4.49c0.792-3.545,0.792-7.23,0-10.781C61.199,40.426,58.652,38.348,56.5,38.132z M43.548,52.245
	v-8.459l7.321,4.229L43.548,52.245z"/>
</svg>
