<?xml version="1.0" encoding="utf-8"?>
<!-- Generator: Adobe Illustrator 16.0.0, SVG Export Plug-In . SVG Version: 6.00 Build 0)  -->
<!DOCTYPE svg PUBLIC "-//W3C//DTD SVG 1.1//EN" "http://www.w3.org/Graphics/SVG/1.1/DTD/svg11.dtd">
<svg version="1.1" id="Layer_1" xmlns="http://www.w3.org/2000/svg" xmlns:xlink="http://www.w3.org/1999/xlink" x="0px" y="0px"
	 width="174.5px" height="100px" viewBox="0 0 174.5 100" enable-background="new 0 0 174.5 100" xml:space="preserve">
<rect x="1.306" y="1" fill="#FFFFFF" stroke="#B3BED8" stroke-width="2" stroke-miterlimit="10" width="172.194" height="98.333"/>
<path fill="#FFFFFF" d="M542,667h90c2.762,0,5,2.238,5,5v90c0,2.762-2.238,5-5,5h-90c-2.762,0-5-2.238-5-5v-90
	C537,669.238,539.238,667,542,667z"/>
<path fill="#B3BED8" d="M52.456,55.838c0,3.471-1.5,5.027-4.846,5.027H11.908c-3.345,0-4.848-1.557-4.848-5.027V21.669
	c0-3.47,1.502-5.028,4.848-5.028h35.701c3.346,0,4.846,1.558,4.846,5.028L52.456,55.838L52.456,55.838z"/>
<rect x="1.306" y="1" fill="none" stroke="#B3BED8" stroke-width="2" stroke-miterlimit="10" width="172.194" height="98.333"/>
<rect x="13.78" y="7.659" fill="#E0E0E0" width="23.275" height="2.14"/>
<circle fill="#E0E0E0" cx="8.46" cy="8.222" r="3.602"/>
<rect x="13.78" y="10.585" fill="#E0E0E0" width="29.531" height="2.139"/>
<rect x="13.78" y="4.732" fill="#B3BED8" width="37.638" height="2.139"/>
<rect x="8.196" y="67.098" fill="#B3BED8" width="24.273" height="2.142"/>
<rect x="8.196" y="70.023" fill="#E0E0E0" width="31.529" height="2.141"/>
<rect x="8.194" y="64.172" fill="#E0E0E0" width="38.625" height="2.139"/>
<path fill="none" stroke="#6684BF" stroke-width="0.5" stroke-miterlimit="10" d="M54.614,74.836c0,3.471-1.5,5.027-4.846,5.027
	H9.75c-3.345,0-4.848-1.557-4.848-5.027V19.668c0-3.47,1.503-5.028,4.848-5.028h40.018c3.346,0,4.846,1.558,4.846,5.028V74.836z"/>
<rect x="4.902" y="87.078" fill="#E0E0E0" width="28.275" height="2.139"/>
<rect x="4.902" y="90.18" fill="#B3BED8" width="37.628" height="2.139"/>
<rect x="4.902" y="83.979" fill="#B3BED8" width="46.638" height="2.14"/>
<rect x="4.902" y="93.277" fill="#E0E0E0" width="43.276" height="2.141"/>
<g>
	<path fill="#B3BED8" d="M110.302,55.799c0,3.471-1.5,5.027-4.846,5.027H69.755c-3.346,0-4.848-1.557-4.848-5.027V21.63
		c0-3.47,1.502-5.028,4.848-5.028h35.701c3.346,0,4.846,1.558,4.846,5.028V55.799z"/>
	<rect x="71.627" y="7.62" fill="#E0E0E0" width="23.275" height="2.14"/>
	<circle fill="#E0E0E0" cx="66.307" cy="8.183" r="3.602"/>
	<rect x="71.627" y="10.546" fill="#E0E0E0" width="29.531" height="2.139"/>
	<rect x="71.627" y="4.693" fill="#B3BED8" width="37.639" height="2.139"/>
	<rect x="66.043" y="67.059" fill="#B3BED8" width="24.273" height="2.142"/>
	<rect x="66.043" y="69.984" fill="#E0E0E0" width="31.529" height="2.141"/>
	<rect x="66.041" y="64.133" fill="#E0E0E0" width="38.625" height="2.139"/>
	<path fill="none" stroke="#6684BF" stroke-width="0.5" stroke-miterlimit="10" d="M112.46,74.797c0,3.471-1.5,5.027-4.847,5.027
		H67.597c-3.345,0-4.848-1.557-4.848-5.027V19.629c0-3.47,1.503-5.028,4.848-5.028h40.018c3.346,0,4.846,1.558,4.846,5.028
		L112.46,74.797L112.46,74.797z"/>
	<rect x="62.749" y="87.039" fill="#E0E0E0" width="28.274" height="2.139"/>
	<rect x="62.749" y="90.141" fill="#B3BED8" width="37.629" height="2.139"/>
	<rect x="62.749" y="83.939" fill="#B3BED8" width="46.64" height="2.139"/>
	<rect x="62.749" y="93.238" fill="#E0E0E0" width="43.274" height="2.141"/>
</g>
<g>
	<path fill="#B3BED8" d="M167.788,55.799c0,3.471-1.5,5.027-4.847,5.027h-35.7c-3.347,0-4.849-1.557-4.849-5.027V21.63
		c0-3.47,1.502-5.028,4.849-5.028h35.7c3.347,0,4.847,1.558,4.847,5.028V55.799z"/>
	<rect x="129.113" y="7.62" fill="#E0E0E0" width="23.275" height="2.14"/>
	<circle fill="#E0E0E0" cx="123.793" cy="8.183" r="3.602"/>
	<rect x="129.113" y="10.546" fill="#E0E0E0" width="29.531" height="2.139"/>
	<rect x="129.113" y="4.693" fill="#B3BED8" width="37.638" height="2.139"/>
	<rect x="123.529" y="67.059" fill="#B3BED8" width="24.272" height="2.142"/>
	<rect x="123.529" y="69.984" fill="#E0E0E0" width="31.529" height="2.141"/>
	<rect x="123.527" y="64.133" fill="#E0E0E0" width="38.625" height="2.139"/>
	<path fill="none" stroke="#6684BF" stroke-width="0.5" stroke-miterlimit="10" d="M169.945,74.797c0,3.471-1.5,5.027-4.846,5.027
		h-40.018c-3.346,0-4.848-1.557-4.848-5.027V19.629c0-3.47,1.502-5.028,4.848-5.028H165.1c3.346,0,4.846,1.558,4.846,5.028V74.797z"
		/>
	<rect x="120.234" y="87.039" fill="#E0E0E0" width="28.275" height="2.139"/>
	<rect x="120.234" y="90.141" fill="#B3BED8" width="37.629" height="2.139"/>
	<rect x="120.234" y="83.939" fill="#B3BED8" width="46.64" height="2.139"/>
	<rect x="120.234" y="93.238" fill="#E0E0E0" width="43.275" height="2.141"/>
</g>
</svg>
