<?xml version="1.0" encoding="utf-8"?>
<!-- Generator: Adobe Illustrator 16.0.0, SVG Export Plug-In . SVG Version: 6.00 Build 0)  -->
<!DOCTYPE svg PUBLIC "-//W3C//DTD SVG 1.1//EN" "http://www.w3.org/Graphics/SVG/1.1/DTD/svg11.dtd">
<svg version="1.1" id="Layer_1" xmlns="http://www.w3.org/2000/svg" xmlns:xlink="http://www.w3.org/1999/xlink" x="0px" y="0px"
	 width="100px" height="100px" viewBox="0 0 100 100" enable-background="new 0 0 100 100" xml:space="preserve">
<path fill="#EDF3FF" d="M60,67h16.777c0.334,0,0.558-0.111,0.558-0.111s0-0.223-0.224-0.555l-3.334-5.333
	c-0.222-0.334-0.443-0.445-0.667-0.445c-0.222,0-0.443,0.111-0.667,0.445L70,64.221c-0.556,0.778-1.334,1.112-2.11,1.112l0,0
	c-0.778,0-1.557-0.444-2.111-1.112l-1.332-1.664c-0.224-0.334-0.447-0.446-0.781-0.446l0,0c-0.22,0-0.553,0.112-0.776,0.446
	l-3,3.998C59.667,66.778,59.667,67,59.667,67l0,0C59.555,67,59.667,67,60,67z"/>
<circle fill="#EDF3FF" cx="67.333" cy="55.111" r="1.889"/>
<path fill="#E6ECF0" d="M50.889,75.445H86.11V44.778H50.889V75.445z M67.333,51.444c2,0,3.667,1.667,3.667,3.668
	c0,1.998-1.667,3.665-3.667,3.665c-2.001,0-3.668-1.667-3.668-3.665C63.665,53.111,65.332,51.444,67.333,51.444z M58.333,65.445
	l3-4.001c0.556-0.777,1.334-1.11,2.112-1.11l0,0c0.777,0,1.555,0.443,2.11,1.11l1.333,1.667c0.223,0.334,0.557,0.443,0.777,0.443
	l0,0c0.334,0,0.558-0.109,0.778-0.443l2.445-3.223c0.554-0.778,1.332-1.111,2.11-1.111c0.777,0,1.556,0.444,2.111,1.223l3.443,5.333
	c0.557,0.778,0.667,1.667,0.224,2.334c-0.334,0.666-1.111,1-2.11,1H60c-1,0-1.778-0.334-2.112-1
	C57.668,67,57.778,66.222,58.333,65.445z"/>
<path fill="#3C88F8" d="M100,86V13.778H0V86H100z M38.778,77.224H13v-1.778h25.777V77.224z M32.333,70.001v1.777H13v-1.777H32.333z
	 M13,66.111v-1.776h12.889v1.776H13z M87.89,76.334c0,0.444-0.334,0.89-0.89,0.89H50c-0.444,0-0.888-0.334-0.888-0.89V43.888
	c0-0.442,0.332-0.886,0.888-0.886h37c0.444,0,0.89,0.332,0.89,0.886V76.334L87.89,76.334z"/>
<rect x="11.889" y="22.332" fill="#FFFFFF" width="74.221" height="12.557"/>
<rect x="26.987" y="24.332" fill="#E6ECF0" width="12.892" height="0.953"/>
<rect x="26.987" y="27.858" fill="#E6ECF0" width="17.075" height="0.95"/>
<rect x="26.987" y="31.381" fill="#E6ECF0" width="28.749" height="0.952"/>
<g>
	<path fill="#EDF3FF" d="M15.968,31h5.817c0.115,0,0.193-0.041,0.193-0.041s0-0.076-0.078-0.193l-1.156-1.849
		c-0.077-0.115-0.153-0.153-0.231-0.153c-0.076,0-0.153,0.038-0.23,0.153l-0.848,1.117c-0.192,0.27-0.463,0.387-0.732,0.387l0,0
		c-0.27,0-0.54-0.156-0.733-0.387l-0.46-0.577c-0.078-0.115-0.156-0.154-0.271-0.154l0,0c-0.076,0-0.193,0.039-0.271,0.154
		l-1.04,1.385C15.852,30.922,15.852,31,15.852,31l0,0C15.813,31,15.852,31,15.968,31z"/>
	<circle fill="#EDF3FF" cx="18.51" cy="26.877" r="0.654"/>
	<path fill="#E6ECF0" d="M12.809,33.927h12.212V23.294H12.809V33.927z M18.51,25.606c0.694,0,1.272,0.577,1.272,1.272
		c0,0.692-0.578,1.269-1.272,1.269c-0.693,0-1.271-0.577-1.271-1.269C17.239,26.184,17.816,25.606,18.51,25.606z M15.39,30.46
		l1.04-1.387c0.193-0.27,0.463-0.386,0.733-0.386l0,0c0.269,0,0.538,0.155,0.731,0.386l0.461,0.577
		c0.078,0.116,0.193,0.154,0.27,0.154l0,0c0.116,0,0.194-0.038,0.27-0.154l0.848-1.116c0.193-0.27,0.462-0.387,0.732-0.387
		c0.269,0,0.539,0.155,0.731,0.425l1.194,1.85c0.193,0.269,0.231,0.578,0.077,0.809c-0.115,0.23-0.384,0.346-0.731,0.346h-5.778
		c-0.347,0-0.618-0.116-0.732-0.346C15.159,31,15.197,30.729,15.39,30.46z"/>
</g>
</svg>
