<?xml version="1.0" encoding="utf-8"?>
<!-- Generator: Adobe Illustrator 16.0.0, SVG Export Plug-In . SVG Version: 6.00 Build 0)  -->
<!DOCTYPE svg PUBLIC "-//W3C//DTD SVG 1.1//EN" "http://www.w3.org/Graphics/SVG/1.1/DTD/svg11.dtd">
<svg version="1.1" id="Layer_1" xmlns="http://www.w3.org/2000/svg" xmlns:xlink="http://www.w3.org/1999/xlink" x="0px" y="0px"
	 width="56.57px" height="55.199px" viewBox="26.006 29.836 56.57 55.199" enable-background="new 26.006 29.836 56.57 55.199"
	 xml:space="preserve">
<g transform="translate(50 50) scale(0.69 0.69) rotate(0) translate(-50 -50)">
	<path fill="#2B80C3" d="M74.99,49.054c-10.861,0-19.698,8.838-19.698,19.696c0,10.861,8.837,19.698,19.698,19.698
		c10.86,0,19.697-8.837,19.697-19.698C94.687,57.892,85.851,49.054,74.99,49.054z M74.99,85.09c-9.011,0-16.341-7.33-16.341-16.34
		c0-9.007,7.331-16.338,16.341-16.338c9.008,0,16.338,7.331,16.338,16.338C91.328,77.761,83.999,85.09,74.99,85.09z M84.017,59.408
		L71.463,71.961l-6.278-6.277l-3.289,3.292l9.567,9.567l15.846-15.847L84.017,59.408z M28.166,39.682v3.571h22.042v-3.571H28.166z
		 M64.926,48.973h-36.76v3.569h31.676C61.355,51.128,63.065,49.925,64.926,48.973z M28.166,88.349h36.412
		c-1.803-0.962-3.458-2.168-4.922-3.569H28.166V88.349L28.166,88.349z M28.166,57.924v3.571h25.848
		c0.43-1.245,0.97-2.437,1.605-3.571H28.166z M28.166,66.875v3.572h24.693c-0.041-0.562-0.069-1.125-0.069-1.697
		c0-0.631,0.033-1.255,0.085-1.875H28.166z M28.166,75.828v3.569h27.351c-0.624-1.132-1.144-2.328-1.564-3.569H28.166z
		 M72.987,90.856v3.889H21.321V26.81h35.225v14.658c0,0.986,0.8,1.785,1.785,1.785h14.656v3.392
		c0.661-0.059,1.328-0.096,2.003-0.096c0.528,0,1.049,0.026,1.567,0.062v-5.13c0-0.004,0.003-0.008,0.003-0.015
		c0-0.495-0.205-0.944-0.532-1.268l-16.439-16.44c-0.082-0.081-0.17-0.153-0.265-0.217c-0.025-0.019-0.055-0.03-0.083-0.047
		c-0.072-0.042-0.143-0.085-0.222-0.117c-0.038-0.016-0.078-0.024-0.115-0.038c-0.072-0.025-0.142-0.052-0.218-0.067
		c-0.117-0.023-0.234-0.034-0.354-0.034H19.535c-0.985,0-1.785,0.799-1.785,1.785v71.501c0,0.986,0.8,1.785,1.785,1.785h55.235
		c0.985,0,1.785-0.8,1.785-1.785v-5.639c-0.518,0.037-1.039,0.061-1.567,0.061C74.314,90.949,73.647,90.914,72.987,90.856z
		 M60.115,29.334l10.346,10.349H60.115V29.334z"/>
</g>
</svg>
