<?xml version="1.0" encoding="utf-8"?>
<!-- Generator: Adobe Illustrator 16.0.0, SVG Export Plug-In . SVG Version: 6.00 Build 0)  -->
<!DOCTYPE svg PUBLIC "-//W3C//DTD SVG 1.1//EN" "http://www.w3.org/Graphics/SVG/1.1/DTD/svg11.dtd">
<svg version="1.1" id="Layer_1" xmlns="http://www.w3.org/2000/svg" xmlns:xlink="http://www.w3.org/1999/xlink" x="0px" y="0px"
	 width="19.736px" height="18.492px" viewBox="0 0 19.736 18.492" enable-background="new 0 0 19.736 18.492" xml:space="preserve">
<g>
	<path fill="#EDEFF1" d="M19.019,16.037h-8.59c-0.338,0-0.613-0.273-0.613-0.613V3.153c0-0.339,0.275-0.612,0.613-0.612h8.59
		c0.339,0,0.614,0.273,0.614,0.612v12.271C19.633,15.764,19.357,16.037,19.019,16.037"/>
	<polyline fill="#3575BB" points="12.682,5.384 12.597,5.385 12.597,5.385 12.614,5.385 12.699,5.384 12.697,5.384 12.682,5.384 	
		"/>
	<path fill="#3575BB" d="M16.564,8.675h-6.136c-0.338,0-0.613-0.274-0.613-0.614c0-0.339,0.275-0.613,0.613-0.613h6.136
		c0.339,0,0.614,0.274,0.614,0.613C17.179,8.399,16.903,8.675,16.564,8.675"/>
	<path fill="#3575BB" d="M16.564,11.13h-6.136c-0.338,0-0.613-0.274-0.613-0.615c0-0.339,0.275-0.612,0.613-0.612h6.136
		c0.339,0,0.614,0.273,0.614,0.612C17.179,10.854,16.903,11.13,16.564,11.13"/>
	<path fill="#3575BB" d="M16.564,13.584h-6.136c-0.338,0-0.613-0.274-0.613-0.615c0-0.338,0.275-0.612,0.613-0.612h6.136
		c0.339,0,0.614,0.274,0.614,0.612C17.179,13.308,16.903,13.584,16.564,13.584"/>
	<path fill="#2B66B1" d="M10.821,0.228c-0.14-0.117-0.329-0.167-0.505-0.131L0.5,1.938C0.21,1.991,0,2.245,0,2.54v13.498
		c0,0.296,0.208,0.549,0.5,0.603l9.816,1.841c0.038,0.007,0.075,0.012,0.112,0.012c0.144,0,0.281-0.049,0.393-0.143
		c0.14-0.116,0.221-0.288,0.221-0.472V0.699C11.042,0.516,10.961,0.345,10.821,0.228"/>
	<path fill="#FAFAFA" d="M7.971,12.425c-0.032,0.281-0.252,0.505-0.533,0.541c-0.025,0.003-0.051,0.004-0.077,0.004
		c-0.252,0-0.484-0.157-0.575-0.399L5.521,9.196l-1.266,3.375c-0.099,0.263-0.355,0.423-0.64,0.395
		c-0.278-0.029-0.502-0.244-0.541-0.524L2.459,8.148C2.412,7.813,2.645,7.502,2.98,7.454C3.316,7.406,3.627,7.64,3.675,7.975
		l0.273,1.919l0.997-2.662c0.179-0.479,0.97-0.479,1.15,0l0.94,2.506l0.33-2.972c0.038-0.335,0.349-0.579,0.676-0.543
		c0.337,0.04,0.58,0.343,0.544,0.68L7.971,12.425z"/>
</g>
</svg>
