<?xml version="1.0" encoding="utf-8"?>
<!-- Generator: Adobe Illustrator 16.0.0, SVG Export Plug-In . SVG Version: 6.00 Build 0)  -->
<!DOCTYPE svg PUBLIC "-//W3C//DTD SVG 1.1//EN" "http://www.w3.org/Graphics/SVG/1.1/DTD/svg11.dtd">
<svg version="1.1" id="Layer_1" xmlns="http://www.w3.org/2000/svg" xmlns:xlink="http://www.w3.org/1999/xlink" x="0px" y="0px"
	 width="100px" height="100px" viewBox="0 0 100 100" enable-background="new 0 0 100 100" xml:space="preserve">
<title>CV Icons</title>
<path fill="#0080FF" d="M81.111,36.113c-0.002-0.101-0.012-0.201-0.029-0.301c0.001-0.094-0.014-0.186-0.043-0.273
	c-0.025-0.137-0.059-0.271-0.102-0.402c-0.117-0.418-0.297-0.815-0.531-1.18c-0.03-0.05-0.063-0.098-0.102-0.143
	c-0.063-0.086-0.13-0.168-0.201-0.245c-0.156-0.187-0.33-0.359-0.518-0.518c-0.087-0.071-0.158-0.144-0.259-0.216l-0.129-0.086
	c-0.364-0.235-0.763-0.415-1.181-0.531c-0.131-0.043-0.266-0.076-0.401-0.102c-0.089-0.029-0.181-0.043-0.272-0.043
	c-0.1-0.019-0.199-0.028-0.302-0.029c-0.076-0.01-0.153-0.015-0.229-0.014h-17.25v-2.875c0.002-2.379-1.922-4.31-4.301-4.313
	c-0.005,0-0.009,0-0.013,0h-11.5c-2.379-0.003-4.31,1.922-4.313,4.301c0,0.004,0,0.008,0,0.012v2.875h-17.25
	c-0.076-0.001-0.154,0.004-0.23,0.014c-0.101,0.001-0.201,0.011-0.301,0.029c-0.094,0-0.186,0.014-0.273,0.043
	c-0.137,0.025-0.271,0.059-0.402,0.102c-0.418,0.116-0.814,0.296-1.18,0.531c-0.05,0.03-0.098,0.063-0.143,0.101
	c-0.086,0.063-0.167,0.13-0.245,0.201c-0.187,0.158-0.359,0.331-0.518,0.518c-0.071,0.087-0.144,0.158-0.216,0.259l-0.086,0.129
	c-0.235,0.364-0.414,0.762-0.531,1.18c-0.043,0.131-0.076,0.266-0.102,0.402c-0.029,0.088-0.043,0.18-0.043,0.273
	c-0.019,0.1-0.028,0.2-0.028,0.301c-0.011,0.076-0.016,0.153-0.015,0.23v37.375c0.002,0.793,0.645,1.437,1.438,1.438h60.375
	c0.793-0.002,1.437-0.645,1.438-1.438V36.344C81.126,36.267,81.121,36.189,81.111,36.113z M42.313,29.156
	c0.002-0.793,0.645-1.436,1.438-1.438h11.5c0.793,0.002,1.437,0.645,1.438,1.438v2.875H42.313V29.156z M20.75,36.373
	c0-0.043,0.014-0.087,0.014-0.13c0.014-0.062,0.018-0.124,0.016-0.187c0.044-0.184,0.117-0.357,0.215-0.518
	c0.029-0.043,0.072-0.086,0.101-0.13l0.044-0.043l0.043-0.043c0.055-0.056,0.111-0.108,0.172-0.158c0.014,0,0.029-0.015,0.043-0.028
	c0.086-0.043,0.158-0.087,0.23-0.115c0.072-0.039,0.149-0.068,0.229-0.086H21.9c0.048,0.002,0.096-0.003,0.144-0.016
	c0.058,0.003,0.116-0.002,0.173-0.014h54.566c0.043,0,0.087,0.014,0.13,0.014c0.062,0.014,0.124,0.018,0.187,0.016
	c0.185,0.044,0.357,0.117,0.519,0.215c0.043,0.029,0.086,0.072,0.13,0.102l0.043,0.043l0.043,0.043
	c0.057,0.055,0.107,0.111,0.158,0.172c0,0.015,0.015,0.029,0.027,0.043c0.043,0.086,0.088,0.158,0.115,0.23
	c0.039,0.072,0.068,0.15,0.086,0.23v0.043c-0.002,0.048,0.004,0.096,0.016,0.144c-0.002,0.058,0.002,0.116,0.015,0.173v8.596
	c-0.002,3.969-3.219,7.186-7.188,7.188H54.531v-1.438c-0.008-2.379-1.934-4.306-4.313-4.313H48.78
	c-2.379,0.007-4.306,1.934-4.313,4.313v1.438H27.938c-3.969-0.003-7.186-3.219-7.188-7.188V36.373z M47.344,50.719
	c0.002-0.793,0.645-1.436,1.438-1.438h1.438c0.793,0.002,1.436,0.645,1.438,1.438v5.75c-0.002,0.793-0.645,1.436-1.438,1.438h-1.438
	c-0.793-0.003-1.436-0.646-1.438-1.438V50.719z M78.25,72.281h-57.5V51.998c1.888,1.939,4.48,3.035,7.188,3.033h16.531v1.438
	c0.007,2.379,1.934,4.307,4.313,4.313h1.438c2.379-0.007,4.305-1.935,4.313-4.313v-1.438h16.531c2.707,0.002,5.3-1.094,7.188-3.033
	v20.283H78.25z"/>
<path fill="#0080FF" d="M79.221,36.057v-0.043c-0.018-0.08-0.047-0.158-0.086-0.23C79.18,35.869,79.208,35.961,79.221,36.057z
	 M22.627,35.021c0.086-0.044,0.178-0.073,0.273-0.086h-0.043C22.777,34.953,22.699,34.982,22.627,35.021z"/>
</svg>
