<?xml version="1.0" encoding="utf-8"?>
<!-- Generator: Adobe Illustrator 16.0.0, SVG Export Plug-In . SVG Version: 6.00 Build 0)  -->
<!DOCTYPE svg PUBLIC "-//W3C//DTD SVG 1.1//EN" "http://www.w3.org/Graphics/SVG/1.1/DTD/svg11.dtd">
<svg version="1.1" id="Layer_1" xmlns="http://www.w3.org/2000/svg" xmlns:xlink="http://www.w3.org/1999/xlink" x="0px" y="0px"
	 width="100px" height="100px" viewBox="0 0 100 100" enable-background="new 0 0 100 100" xml:space="preserve">
<title>CV Icons</title>
<path fill="#4D4D4D" d="M80.736,39.718c-0.002-0.095-0.011-0.189-0.027-0.283c0.001-0.088-0.013-0.174-0.04-0.257
	c-0.024-0.128-0.056-0.255-0.096-0.378c-0.11-0.393-0.279-0.767-0.5-1.11c-0.028-0.047-0.06-0.092-0.096-0.134
	c-0.059-0.082-0.122-0.158-0.188-0.231c-0.147-0.176-0.311-0.337-0.487-0.487c-0.082-0.066-0.148-0.135-0.243-0.203l-0.121-0.081
	c-0.343-0.221-0.718-0.391-1.111-0.5c-0.123-0.04-0.25-0.071-0.377-0.096c-0.084-0.027-0.17-0.041-0.257-0.041
	c-0.094-0.018-0.188-0.026-0.284-0.027c-0.071-0.01-0.144-0.015-0.216-0.014H60.466v-2.705c0.002-2.238-1.808-4.054-4.046-4.057
	c-0.005,0-0.008,0-0.012,0H45.59c-2.238-0.002-4.054,1.808-4.057,4.046c0,0.004,0,0.008,0,0.011v2.705H25.306
	c-0.072-0.001-0.145,0.004-0.216,0.014c-0.095,0-0.189,0.01-0.283,0.027c-0.088,0-0.175,0.013-0.257,0.041
	c-0.129,0.023-0.255,0.056-0.378,0.096c-0.394,0.109-0.766,0.279-1.11,0.5c-0.047,0.028-0.092,0.059-0.134,0.095
	c-0.081,0.059-0.157,0.123-0.23,0.189c-0.176,0.149-0.337,0.312-0.487,0.487c-0.066,0.082-0.136,0.148-0.203,0.244l-0.081,0.122
	c-0.221,0.342-0.389,0.717-0.5,1.11c-0.041,0.123-0.072,0.25-0.096,0.378c-0.027,0.083-0.04,0.169-0.04,0.257
	c-0.018,0.094-0.026,0.188-0.026,0.283c-0.011,0.072-0.015,0.144-0.014,0.216v35.159c0.002,0.746,0.607,1.35,1.353,1.352h56.794
	c0.746-0.002,1.352-0.605,1.354-1.352V39.935C80.75,39.862,80.746,39.79,80.736,39.718z M44.239,33.174
	c0.001-0.746,0.606-1.351,1.353-1.353H56.41c0.746,0.002,1.351,0.607,1.353,1.353v2.705H44.239V33.174z M23.955,39.962
	c0-0.041,0.013-0.082,0.013-0.122c0.013-0.059,0.017-0.117,0.015-0.176c0.042-0.173,0.11-0.335,0.203-0.487
	c0.027-0.04,0.067-0.081,0.095-0.122l0.042-0.041l0.041-0.04c0.051-0.053,0.104-0.102,0.162-0.149c0.013,0,0.027-0.014,0.041-0.026
	c0.081-0.041,0.149-0.082,0.216-0.108c0.068-0.036,0.14-0.064,0.215-0.081h0.041c0.045,0.001,0.09-0.003,0.135-0.015
	c0.055,0.002,0.109-0.002,0.163-0.014h51.331c0.041,0,0.082,0.014,0.122,0.014c0.059,0.013,0.117,0.016,0.176,0.015
	c0.174,0.041,0.336,0.11,0.487,0.202c0.041,0.027,0.081,0.068,0.123,0.096l0.04,0.041l0.04,0.041
	c0.054,0.051,0.102,0.104,0.149,0.162c0,0.014,0.014,0.027,0.025,0.041c0.04,0.081,0.083,0.148,0.108,0.216
	c0.037,0.067,0.064,0.141,0.081,0.216v0.04c-0.002,0.045,0.004,0.091,0.015,0.136c-0.002,0.055,0.002,0.109,0.014,0.163v8.086
	c-0.002,3.733-3.028,6.759-6.762,6.761H55.732v-1.353c-0.007-2.237-1.818-4.05-4.058-4.057h-1.353
	c-2.238,0.007-4.05,1.82-4.057,4.057v1.353H30.717c-3.734-0.002-6.76-3.028-6.762-6.761V39.962z M48.972,53.457
	c0.002-0.746,0.606-1.351,1.353-1.352h1.353c0.746,0.001,1.351,0.605,1.353,1.352v5.409c-0.002,0.746-0.606,1.351-1.353,1.353
	h-1.353c-0.747-0.002-1.351-0.606-1.353-1.353V53.457z M78.045,73.741h-54.09v-19.08c1.776,1.824,4.214,2.854,6.762,2.853h15.55
	v1.353c0.007,2.238,1.819,4.052,4.058,4.057h1.353c2.238-0.005,4.05-1.818,4.057-4.057v-1.353h15.551
	c2.547,0.002,4.986-1.028,6.762-2.853v19.08H78.045z"/>
<path fill="#4D4D4D" d="M78.018,39.665v-0.04c-0.017-0.076-0.044-0.148-0.081-0.216C77.979,39.488,78.006,39.575,78.018,39.665z
	 M24.78,38.691c0.081-0.042,0.167-0.069,0.257-0.081h-0.041C24.921,38.626,24.848,38.655,24.78,38.691z"/>
</svg>
