<?xml version="1.0" encoding="utf-8"?>
<!-- Generator: Adobe Illustrator 16.0.0, SVG Export Plug-In . SVG Version: 6.00 Build 0)  -->
<!DOCTYPE svg PUBLIC "-//W3C//DTD SVG 1.1//EN" "http://www.w3.org/Graphics/SVG/1.1/DTD/svg11.dtd">
<svg version="1.1"
	 id="Layer_1" xmlns:dc="http://purl.org/dc/elements/1.1/" xmlns:cc="http://creativecommons.org/ns#" xmlns:sodipodi="http://sodipodi.sourceforge.net/DTD/sodipodi-0.dtd" xmlns:rdf="http://www.w3.org/1999/02/22-rdf-syntax-ns#" xmlns:inkscape="http://www.inkscape.org/namespaces/inkscape" xmlns:svg="http://www.w3.org/2000/svg"
	 xmlns="http://www.w3.org/2000/svg" xmlns:xlink="http://www.w3.org/1999/xlink" x="0px" y="0px" width="100px" height="100px"
	 viewBox="0 0 100 100" enable-background="new 0 0 100 100" xml:space="preserve">
<path display="none" fill="#4D4D4D" d="M15.25,69.813c0,0-2.014-4.01-2.413-5.048s5.913-28.39,5.913-28.39l13-17.875l12.125-3
	l22.875,9.625l18,25.75l2.313,14.094c0,0-0.818,3.08-3.396,6.64S37.5,82.125,37.5,82.125L15.25,69.813z"/>
<g transform="translate(0,-952.36218)" display="none">
	<path display="inline" fill="#79A1BF" d="M50,962.362c-22.091,0-40,17.909-40,40c0,5.632,1.181,10.982,3.281,15.844L35.5,991.081
		c1.135-1.062,2.158-0.64,3.156,0.094l6.25,8.406l2.406-4.218c1.09-1.355,2.334-1.035,3.406-0.125l3.156,4.718l7.344-13.468
		c1.124-1.394,2.221-1.097,3.375-0.219l22.469,31.063c1.871-4.628,2.938-9.67,2.938-14.968C90,980.271,72.092,962.363,50,962.362
		L50,962.362z M39,972.362c3.29,0,6,2.71,6,6s-2.71,6-6,6s-6-2.71-6-6S35.71,972.362,39,972.362z M39,976.362c-1.128,0-2,0.872-2,2
		s0.872,2,2,2s2-0.872,2-2S40.128,976.362,39,976.362z M63.188,991.206l-15.906,29.188c-1.635,2.304-4.482,0.01-3.531-1.906
		l4.313-7.906L37,995.612l-21.75,26.563c6.892,12.049,19.875,20.188,34.75,20.188c15.147,0,28.336-8.43,35.125-20.844
		L63.188,991.206z M49.188,1000.143l-1.688,2.938l2.688,3.625l1.531-2.813L49.188,1000.143z"/>
</g>
<circle fill="none" stroke="#4D4D4D" stroke-width="6" stroke-miterlimit="10" cx="50" cy="50" r="37.75"/>
<path fill="#4D4D4D" d="M83.606,60.058L69.98,49.152c-0.538-0.432-1.359-0.464-1.933-0.078l-12.024,8.264l-16.14-13.066
	c-0.339-0.276-0.789-0.407-1.221-0.356c-0.254,0.035-0.502,0.132-0.711,0.28L16,59l0.903,10.439l21.887-15.102l16.14,13.067
	c0.539,0.431,1.362,0.463,1.935,0.077l11.998-8.263l14.744,11.794L83.606,60.058z"/>
<path fill="#4D4D4D" d="M57.453,28.409c-3.977,0-7.239,3.263-7.239,7.24c0,3.977,3.263,7.24,7.239,7.24s7.237-3.263,7.237-7.24
	C64.69,31.672,61.43,28.409,57.453,28.409z"/>
</svg>
