<?xml version="1.0" encoding="utf-8"?>
<!-- Generator: Adobe Illustrator 16.0.0, SVG Export Plug-In . SVG Version: 6.00 Build 0)  -->
<!DOCTYPE svg PUBLIC "-//W3C//DTD SVG 1.1//EN" "http://www.w3.org/Graphics/SVG/1.1/DTD/svg11.dtd">
<svg version="1.1" id="Layer_1" xmlns="http://www.w3.org/2000/svg" xmlns:xlink="http://www.w3.org/1999/xlink" x="0px" y="0px"
	 width="18.381px" height="18.531px" viewBox="0 0 18.381 18.531" enable-background="new 0 0 18.381 18.531" xml:space="preserve">
<g>
	<path fill="#557EBF" stroke="#557DBF" stroke-width="0.3" stroke-miterlimit="10" d="M14.905,5.484
		c0.196,0,0.354-0.159,0.354-0.355V1.272c0-0.587-0.477-1.066-1.064-1.066H1.283c-0.587,0-1.064,0.479-1.064,1.066v16.036
		c0,0.586,0.477,1.063,1.064,1.063h12.913c0.587,0,1.064-0.477,1.064-1.063v-2.615c0-0.196-0.159-0.354-0.354-0.354
		c-0.197,0-0.355,0.157-0.355,0.354v2.615c0,0.193-0.159,0.354-0.354,0.354H1.283c-0.197,0-0.354-0.161-0.354-0.354V1.272
		c0-0.197,0.158-0.354,0.354-0.354h12.913c0.195,0,0.354,0.158,0.354,0.354v3.857C14.55,5.325,14.708,5.484,14.905,5.484"/>
	<path fill="#557EBF" stroke="#557DBF" stroke-width="0.2" stroke-miterlimit="10" d="M7.737,2.123
		c-1.799,0-3.263,1.464-3.263,3.264c0,0.933,0.395,1.776,1.026,2.372c0.012,0.014,0.022,0.024,0.037,0.036
		c0.581,0.531,1.354,0.854,2.2,0.854c0.849,0,1.622-0.323,2.203-0.854c0.012-0.012,0.026-0.022,0.037-0.036
		c0.631-0.595,1.024-1.438,1.024-2.372C11.002,3.587,9.538,2.123,7.737,2.123 M7.737,7.939c-0.578,0-1.112-0.192-1.541-0.519
		c0.311-0.552,0.892-0.898,1.541-0.898c0.651,0,1.233,0.346,1.544,0.898C8.852,7.747,8.318,7.939,7.737,7.939 M7.171,5.245V5.014
		c0-0.314,0.254-0.569,0.566-0.569c0.313,0,0.569,0.255,0.569,0.569v0.231c0,0.312-0.256,0.568-0.569,0.568
		C7.426,5.813,7.171,5.557,7.171,5.245 M9.794,6.901C9.533,6.513,9.169,6.211,8.75,6.024c0.165-0.217,0.266-0.487,0.266-0.779V5.014
		c0-0.704-0.574-1.278-1.279-1.278c-0.703,0-1.275,0.574-1.275,1.278v0.231c0,0.292,0.099,0.563,0.266,0.779
		C6.309,6.211,5.945,6.513,5.684,6.901C5.37,6.476,5.185,5.952,5.185,5.387c0-1.408,1.145-2.555,2.553-2.555
		c1.41,0,2.555,1.146,2.555,2.555C10.292,5.952,10.108,6.476,9.794,6.901"/>
	<path fill="#557EBF" stroke="#557DBF" stroke-width="0.2" stroke-miterlimit="10" d="M9.655,15.744H7.738
		c-0.195,0-0.354,0.159-0.354,0.356c0,0.196,0.159,0.355,0.354,0.355h1.917c0.194,0,0.354-0.16,0.354-0.355
		C10.009,15.903,9.85,15.744,9.655,15.744"/>
	<path fill="#557EBF" stroke="#557DBF" stroke-width="0.2" stroke-miterlimit="10" d="M9.655,13.759H4.617
		c-0.197,0-0.355,0.158-0.355,0.355c0,0.196,0.158,0.354,0.355,0.354h5.038c0.194,0,0.354-0.158,0.354-0.354
		C10.009,13.917,9.85,13.759,9.655,13.759"/>
	<path fill="#557EBF" stroke="#557DBF" stroke-width="0.2" stroke-miterlimit="10" d="M9.655,11.772H4.617
		c-0.197,0-0.355,0.158-0.355,0.354c0,0.196,0.158,0.356,0.355,0.356h5.038c0.194,0,0.354-0.16,0.354-0.356
		C10.009,11.93,9.85,11.772,9.655,11.772"/>
	<path fill="#557EBF" stroke="#557DBF" stroke-width="0.2" stroke-miterlimit="10" d="M3.351,9.889
		c-0.063-0.064-0.155-0.105-0.25-0.105c-0.093,0-0.185,0.041-0.249,0.105c-0.067,0.065-0.105,0.157-0.105,0.251
		c0,0.093,0.039,0.184,0.105,0.252c0.064,0.064,0.156,0.102,0.249,0.102c0.096,0,0.184-0.037,0.25-0.102
		c0.066-0.068,0.106-0.159,0.106-0.252C3.457,10.046,3.417,9.954,3.351,9.889"/>
	<path fill="#557EBF" stroke="#557DBF" stroke-width="0.2" stroke-miterlimit="10" d="M3.351,11.875
		c-0.066-0.064-0.155-0.104-0.25-0.104c-0.093,0-0.185,0.04-0.249,0.104c-0.067,0.065-0.105,0.158-0.105,0.251
		c0,0.094,0.039,0.187,0.105,0.252c0.064,0.065,0.156,0.102,0.249,0.102c0.096,0,0.184-0.037,0.25-0.102
		c0.066-0.065,0.106-0.158,0.106-0.252C3.457,12.033,3.417,11.94,3.351,11.875"/>
	<path fill="#557EBF" stroke="#557DBF" stroke-width="0.2" stroke-miterlimit="10" d="M3.351,13.863
		c-0.066-0.065-0.155-0.106-0.25-0.106c-0.093,0-0.185,0.041-0.249,0.106c-0.067,0.065-0.105,0.156-0.105,0.25
		c0,0.095,0.039,0.184,0.105,0.251c0.064,0.065,0.156,0.104,0.249,0.104c0.096,0,0.187-0.039,0.25-0.104
		c0.066-0.068,0.106-0.156,0.106-0.251C3.457,14.019,3.417,13.928,3.351,13.863"/>
	<path fill="#557EBF" stroke="#557DBF" stroke-width="0.2" stroke-miterlimit="10" d="M9.655,9.786H4.617
		c-0.197,0-0.355,0.158-0.355,0.355c0,0.195,0.158,0.354,0.355,0.354h5.038c0.194,0,0.354-0.159,0.354-0.354
		C10.009,9.944,9.85,9.786,9.655,9.786"/>
	<path fill="#557EBF" stroke="#557DBF" stroke-width="0.2" stroke-miterlimit="10" d="M17.636,4.831
		c-0.345-0.199-0.747-0.251-1.13-0.148c-0.387,0.102-0.707,0.35-0.906,0.693l-4.463,7.734c-0.025,0.042-0.042,0.088-0.046,0.136
		l-0.314,2.817c-0.018,0.14,0.052,0.275,0.175,0.347c0.055,0.031,0.115,0.047,0.176,0.047c0.075,0,0.149-0.025,0.211-0.071
		l2.28-1.678c0.042-0.03,0.074-0.065,0.099-0.109l4.464-7.732C18.592,6.155,18.349,5.24,17.636,4.831 M11.572,15.333l0.166-1.47
		l1.026,0.593L11.572,15.333z M13.28,13.936l-1.352-0.782l3.583-6.204l1.352,0.779L13.28,13.936z M17.567,6.51l-0.349,0.605
		l-1.353-0.78l0.35-0.605c0.104-0.181,0.273-0.31,0.474-0.364c0.201-0.054,0.413-0.025,0.592,0.079
		c0.183,0.103,0.311,0.271,0.365,0.473C17.7,6.12,17.672,6.331,17.567,6.51"/>
</g>
</svg>
