<?xml version="1.0" encoding="utf-8"?>
<!-- Generator: Adobe Illustrator 16.0.0, SVG Export Plug-In . SVG Version: 6.00 Build 0)  -->
<!DOCTYPE svg PUBLIC "-//W3C//DTD SVG 1.1//EN" "http://www.w3.org/Graphics/SVG/1.1/DTD/svg11.dtd">
<svg version="1.1" id="Layer_1" xmlns="http://www.w3.org/2000/svg" xmlns:xlink="http://www.w3.org/1999/xlink" x="0px" y="0px"
	 width="40.43px" height="40.215px" viewBox="32.785 25 40.43 40.215" enable-background="new 32.785 25 40.43 40.215"
	 xml:space="preserve">
<g transform="translate(50 50) scale(0.69 0.69) rotate(0) translate(-50 -50)">
	<g display="none">
		<g display="inline">
			<rect x="-5.223" y="20.448" fill="none" stroke="#4D4D4D" stroke-width="0.1" stroke-miterlimit="10" width="100" height="100"/>
			
				<line fill="none" stroke="#4D4D4D" stroke-width="0.1" stroke-miterlimit="10" x1="-5.223" y1="117.323" x2="94.777" y2="117.323"/>
			
				<line fill="none" stroke="#4D4D4D" stroke-width="0.1" stroke-miterlimit="10" x1="-5.223" y1="114.198" x2="94.777" y2="114.198"/>
			
				<line fill="none" stroke="#4D4D4D" stroke-width="0.1" stroke-miterlimit="10" x1="-5.223" y1="111.073" x2="94.777" y2="111.073"/>
			
				<line fill="none" stroke="#4D4D4D" stroke-width="0.1" stroke-miterlimit="10" x1="-5.223" y1="107.948" x2="94.777" y2="107.948"/>
			
				<line fill="none" stroke="#4D4D4D" stroke-width="0.1" stroke-miterlimit="10" x1="-5.223" y1="104.823" x2="94.777" y2="104.823"/>
			
				<line fill="none" stroke="#4D4D4D" stroke-width="0.1" stroke-miterlimit="10" x1="-5.223" y1="101.698" x2="94.777" y2="101.698"/>
			
				<line fill="none" stroke="#4D4D4D" stroke-width="0.1" stroke-miterlimit="10" x1="-5.223" y1="98.573" x2="94.777" y2="98.573"/>
			
				<line fill="none" stroke="#4D4D4D" stroke-width="0.1" stroke-miterlimit="10" x1="-5.223" y1="95.448" x2="94.777" y2="95.448"/>
			
				<line fill="none" stroke="#4D4D4D" stroke-width="0.1" stroke-miterlimit="10" x1="-5.223" y1="92.323" x2="94.777" y2="92.323"/>
			
				<line fill="none" stroke="#4D4D4D" stroke-width="0.1" stroke-miterlimit="10" x1="-5.223" y1="89.198" x2="94.777" y2="89.198"/>
			
				<line fill="none" stroke="#4D4D4D" stroke-width="0.1" stroke-miterlimit="10" x1="-5.223" y1="86.073" x2="94.777" y2="86.073"/>
			
				<line fill="none" stroke="#4D4D4D" stroke-width="0.1" stroke-miterlimit="10" x1="-5.223" y1="82.948" x2="94.777" y2="82.948"/>
			
				<line fill="none" stroke="#4D4D4D" stroke-width="0.1" stroke-miterlimit="10" x1="-5.223" y1="79.823" x2="94.777" y2="79.823"/>
			
				<line fill="none" stroke="#4D4D4D" stroke-width="0.1" stroke-miterlimit="10" x1="-5.223" y1="76.698" x2="94.777" y2="76.698"/>
			
				<line fill="none" stroke="#4D4D4D" stroke-width="0.1" stroke-miterlimit="10" x1="-5.223" y1="73.573" x2="94.777" y2="73.573"/>
			
				<line fill="none" stroke="#4D4D4D" stroke-width="0.1" stroke-miterlimit="10" x1="-5.223" y1="70.448" x2="94.777" y2="70.448"/>
			
				<line fill="none" stroke="#4D4D4D" stroke-width="0.1" stroke-miterlimit="10" x1="-5.223" y1="67.323" x2="94.777" y2="67.323"/>
			
				<line fill="none" stroke="#4D4D4D" stroke-width="0.1" stroke-miterlimit="10" x1="-5.223" y1="64.198" x2="94.777" y2="64.198"/>
			
				<line fill="none" stroke="#4D4D4D" stroke-width="0.1" stroke-miterlimit="10" x1="-5.223" y1="61.073" x2="94.777" y2="61.073"/>
			
				<line fill="none" stroke="#4D4D4D" stroke-width="0.1" stroke-miterlimit="10" x1="-5.223" y1="57.948" x2="94.777" y2="57.948"/>
			
				<line fill="none" stroke="#4D4D4D" stroke-width="0.1" stroke-miterlimit="10" x1="-5.223" y1="54.823" x2="94.777" y2="54.823"/>
			
				<line fill="none" stroke="#4D4D4D" stroke-width="0.1" stroke-miterlimit="10" x1="-5.223" y1="51.698" x2="94.777" y2="51.698"/>
			
				<line fill="none" stroke="#4D4D4D" stroke-width="0.1" stroke-miterlimit="10" x1="-5.223" y1="48.573" x2="94.777" y2="48.573"/>
			
				<line fill="none" stroke="#4D4D4D" stroke-width="0.1" stroke-miterlimit="10" x1="-5.223" y1="45.448" x2="94.777" y2="45.448"/>
			
				<line fill="none" stroke="#4D4D4D" stroke-width="0.1" stroke-miterlimit="10" x1="-5.223" y1="42.323" x2="94.777" y2="42.323"/>
			
				<line fill="none" stroke="#4D4D4D" stroke-width="0.1" stroke-miterlimit="10" x1="-5.223" y1="39.198" x2="94.777" y2="39.198"/>
			
				<line fill="none" stroke="#4D4D4D" stroke-width="0.1" stroke-miterlimit="10" x1="-5.223" y1="36.073" x2="94.777" y2="36.073"/>
			
				<line fill="none" stroke="#4D4D4D" stroke-width="0.1" stroke-miterlimit="10" x1="-5.223" y1="32.948" x2="94.777" y2="32.948"/>
			
				<line fill="none" stroke="#4D4D4D" stroke-width="0.1" stroke-miterlimit="10" x1="-5.223" y1="29.823" x2="94.777" y2="29.823"/>
			
				<line fill="none" stroke="#4D4D4D" stroke-width="0.1" stroke-miterlimit="10" x1="-5.223" y1="26.698" x2="94.777" y2="26.698"/>
			
				<line fill="none" stroke="#4D4D4D" stroke-width="0.1" stroke-miterlimit="10" x1="-5.223" y1="23.573" x2="94.777" y2="23.573"/>
			
				<line fill="none" stroke="#4D4D4D" stroke-width="0.1" stroke-miterlimit="10" x1="91.652" y1="20.448" x2="91.652" y2="120.448"/>
			
				<line fill="none" stroke="#4D4D4D" stroke-width="0.1" stroke-miterlimit="10" x1="88.527" y1="20.448" x2="88.527" y2="120.448"/>
			
				<line fill="none" stroke="#4D4D4D" stroke-width="0.1" stroke-miterlimit="10" x1="85.402" y1="20.448" x2="85.402" y2="120.448"/>
			
				<line fill="none" stroke="#4D4D4D" stroke-width="0.1" stroke-miterlimit="10" x1="82.277" y1="20.448" x2="82.277" y2="120.448"/>
			
				<line fill="none" stroke="#4D4D4D" stroke-width="0.1" stroke-miterlimit="10" x1="79.152" y1="20.448" x2="79.152" y2="120.448"/>
			
				<line fill="none" stroke="#4D4D4D" stroke-width="0.1" stroke-miterlimit="10" x1="76.027" y1="20.448" x2="76.027" y2="120.448"/>
			
				<line fill="none" stroke="#4D4D4D" stroke-width="0.1" stroke-miterlimit="10" x1="72.902" y1="20.448" x2="72.902" y2="120.448"/>
			
				<line fill="none" stroke="#4D4D4D" stroke-width="0.1" stroke-miterlimit="10" x1="69.777" y1="20.448" x2="69.777" y2="120.448"/>
			
				<line fill="none" stroke="#4D4D4D" stroke-width="0.1" stroke-miterlimit="10" x1="66.652" y1="20.448" x2="66.652" y2="120.448"/>
			
				<line fill="none" stroke="#4D4D4D" stroke-width="0.1" stroke-miterlimit="10" x1="63.527" y1="20.448" x2="63.527" y2="120.448"/>
			
				<line fill="none" stroke="#4D4D4D" stroke-width="0.1" stroke-miterlimit="10" x1="60.402" y1="20.448" x2="60.402" y2="120.448"/>
			
				<line fill="none" stroke="#4D4D4D" stroke-width="0.1" stroke-miterlimit="10" x1="57.277" y1="20.448" x2="57.277" y2="120.448"/>
			
				<line fill="none" stroke="#4D4D4D" stroke-width="0.1" stroke-miterlimit="10" x1="54.152" y1="20.448" x2="54.152" y2="120.448"/>
			
				<line fill="none" stroke="#4D4D4D" stroke-width="0.1" stroke-miterlimit="10" x1="51.027" y1="20.448" x2="51.027" y2="120.448"/>
			
				<line fill="none" stroke="#4D4D4D" stroke-width="0.1" stroke-miterlimit="10" x1="47.902" y1="20.448" x2="47.902" y2="120.448"/>
			
				<line fill="none" stroke="#4D4D4D" stroke-width="0.1" stroke-miterlimit="10" x1="44.777" y1="20.448" x2="44.777" y2="120.448"/>
			
				<line fill="none" stroke="#4D4D4D" stroke-width="0.1" stroke-miterlimit="10" x1="41.652" y1="20.448" x2="41.652" y2="120.448"/>
			
				<line fill="none" stroke="#4D4D4D" stroke-width="0.1" stroke-miterlimit="10" x1="38.527" y1="20.448" x2="38.527" y2="120.448"/>
			
				<line fill="none" stroke="#4D4D4D" stroke-width="0.1" stroke-miterlimit="10" x1="35.402" y1="20.448" x2="35.402" y2="120.448"/>
			
				<line fill="none" stroke="#4D4D4D" stroke-width="0.1" stroke-miterlimit="10" x1="32.277" y1="20.448" x2="32.277" y2="120.448"/>
			
				<line fill="none" stroke="#4D4D4D" stroke-width="0.1" stroke-miterlimit="10" x1="29.152" y1="20.448" x2="29.152" y2="120.448"/>
			
				<line fill="none" stroke="#4D4D4D" stroke-width="0.1" stroke-miterlimit="10" x1="26.027" y1="20.448" x2="26.027" y2="120.448"/>
			
				<line fill="none" stroke="#4D4D4D" stroke-width="0.1" stroke-miterlimit="10" x1="22.902" y1="20.448" x2="22.902" y2="120.448"/>
			
				<line fill="none" stroke="#4D4D4D" stroke-width="0.1" stroke-miterlimit="10" x1="19.777" y1="20.448" x2="19.777" y2="120.448"/>
			
				<line fill="none" stroke="#4D4D4D" stroke-width="0.1" stroke-miterlimit="10" x1="16.652" y1="20.448" x2="16.652" y2="120.448"/>
			
				<line fill="none" stroke="#4D4D4D" stroke-width="0.1" stroke-miterlimit="10" x1="13.527" y1="20.448" x2="13.527" y2="120.448"/>
			
				<line fill="none" stroke="#4D4D4D" stroke-width="0.1" stroke-miterlimit="10" x1="10.402" y1="20.448" x2="10.402" y2="120.448"/>
			<line fill="none" stroke="#4D4D4D" stroke-width="0.1" stroke-miterlimit="10" x1="7.277" y1="20.448" x2="7.277" y2="120.448"/>
			<line fill="none" stroke="#4D4D4D" stroke-width="0.1" stroke-miterlimit="10" x1="4.152" y1="20.448" x2="4.152" y2="120.448"/>
			<line fill="none" stroke="#4D4D4D" stroke-width="0.1" stroke-miterlimit="10" x1="1.027" y1="20.448" x2="1.027" y2="120.448"/>
			
				<line fill="none" stroke="#4D4D4D" stroke-width="0.1" stroke-miterlimit="10" x1="-2.098" y1="20.448" x2="-2.098" y2="120.448"/>
		</g>
	</g>
	<g>
		<path fill="#4D4D4D" d="M40.07,33.437v1.329h21.544v-1.329c0-1.192,0.977-2.148,2.148-2.148h2.148
			c1.192,0,2.148,0.977,2.148,2.148v1.329h8.514v-9.415c0.04-1.152-0.897-2.071-2.069-2.071H62.18v-5.547
			c0-2.188-1.778-3.966-3.966-3.966H43.391c-2.188,0-3.964,1.778-3.964,3.966v5.547H27.14c-1.152,0-2.069,0.938-2.069,2.071v9.415
			h8.534v-1.329c0-1.192,0.977-2.148,2.148-2.148h2.148C39.094,31.288,40.07,32.265,40.07,33.437z M41.144,18.105
			c0-1.465,1.192-2.657,2.657-2.657h14.003c1.504,0,2.716,1.23,2.716,2.716v5.097H41.144V18.105L41.144,18.105z"/>
		<path fill="#4D4D4D" d="M33.585,37.772v-0.839h-8.534v26.875c0,1.152,0.937,2.071,2.071,2.071h8.612V39.94
			C34.543,39.94,33.585,38.963,33.585,37.772z"/>
		<path fill="#4D4D4D" d="M72.277,61.99c-0.449,0-0.839,0.391-0.839,0.841c0,0.255,0.098,0.488,0.293,0.645v1.288h1.094v-1.288
			c0.175-0.157,0.293-0.391,0.293-0.645C73.118,62.363,72.747,61.99,72.277,61.99z"/>
		<path fill="#4D4D4D" d="M72.257,54.393c-1.015,0-1.854,0.861-1.854,1.915v0.781h3.691v-0.781
			C74.134,55.254,73.293,54.393,72.257,54.393z"/>
		<path fill="#4D4D4D" d="M71.985,48.729c-6.445,0-11.661,5.215-11.661,11.661S65.54,72.05,71.985,72.05s11.659-5.215,11.659-11.661
			C83.645,53.964,78.431,48.729,71.985,48.729z M77.473,67.519h-10.41c-0.391,0-0.665-0.293-0.665-0.664v-8.946
			c0-0.391,0.294-0.664,0.665-0.664h1.993v-1.094c0-1.778,1.444-3.221,3.221-3.221s3.224,1.444,3.224,3.221v1.094h1.991
			c0.391,0,0.664,0.293,0.664,0.664l0.02,8.946C78.156,67.226,77.863,67.519,77.473,67.519z"/>
		<path fill="#4D4D4D" d="M68.098,37.772c0,1.192-0.977,2.148-2.148,2.148v8.398c1.797-0.897,3.868-1.425,6.036-1.425
			c1.639,0,3.183,0.293,4.648,0.821v-10.8h-8.516L68.098,37.772L68.098,37.772z"/>
		<path fill="#4D4D4D" d="M63.782,49.686V39.92c-1.192,0-2.148-0.977-2.148-2.148v-0.839H40.09v0.839
			c0,1.192-0.977,2.148-2.148,2.148v25.958h21.719c-0.761-1.66-1.172-3.516-1.172-5.469C58.469,56.035,60.558,52.148,63.782,49.686z
			"/>
	</g>
</g>
</svg>
