<?xml version="1.0" encoding="utf-8"?>
<!-- Generator: Adobe Illustrator 16.0.0, SVG Export Plug-In . SVG Version: 6.00 Build 0)  -->
<!DOCTYPE svg PUBLIC "-//W3C//DTD SVG 1.1//EN" "http://www.w3.org/Graphics/SVG/1.1/DTD/svg11.dtd">
<svg version="1.1" id="Layer_1" xmlns="http://www.w3.org/2000/svg" xmlns:xlink="http://www.w3.org/1999/xlink" x="0px" y="0px"
	 width="100px" height="100px" viewBox="0 0 100 100" enable-background="new 0 0 100 100" xml:space="preserve">
<g>
	<g enable-background="new    ">
		<g>
			<path fill="#4285F4" d="M49.95,39.899c-8.299,0-14.999,6.801-14.999,15.101C34.951,63.3,41.75,70,49.95,70
				C58.151,70,64.95,63.3,64.95,55C64.95,46.699,58.25,39.899,49.95,39.899z"/>
			<path fill="#4285F4" d="M85.751,21.899H71.05l-4.499-8.999C65.55,10.899,63.45,9.6,61.151,9.6H38.75
				c-2.298,0-4.399,1.299-5.399,3.301l-4.499,8.999H14.15c-6.5,0-11.7,5.2-11.7,11.6V78.7c0,6.4,5.2,11.7,11.7,11.7h71.701
				c6.4,0,11.699-5.2,11.699-11.7V33.499C97.451,27.099,92.251,21.899,85.751,21.899z M22.55,39.099c0,1.601-1.299,2.9-2.9,2.9
				h-4.199c-1.601,0-2.901-1.299-2.901-2.9V34.9c0-1.601,1.301-2.901,2.901-2.901h4.199c1.601,0,2.9,1.301,2.9,2.901V39.099z
				 M49.95,77.3c-12.299,0-22.3-10.001-22.3-22.3c0-12.3,10.001-22.301,22.3-22.301c12.299,0,22.3,10.001,22.3,22.301
				C72.25,67.299,62.249,77.3,49.95,77.3z"/>
		</g>
	</g>
</g>
</svg>
