<?xml version="1.0" encoding="utf-8"?>
<!-- Generator: Adobe Illustrator 16.0.0, SVG Export Plug-In . SVG Version: 6.00 Build 0)  -->
<!DOCTYPE svg PUBLIC "-//W3C//DTD SVG 1.1//EN" "http://www.w3.org/Graphics/SVG/1.1/DTD/svg11.dtd">
<svg version="1.1" id="Layer_1" xmlns="http://www.w3.org/2000/svg" xmlns:xlink="http://www.w3.org/1999/xlink" x="0px" y="0px"
	 width="498px" height="358.271px" viewBox="0 0 498 358.271" enable-background="new 0 0 498 358.271" xml:space="preserve">
<rect x="-51" y="-70.865" fill="#FFFFFF" width="600" height="500"/>
<g>
	<path fill="#EAF0E9" d="M202.549,333.708c9.964,10.162-35.562,24.696-69.437,24.563c-29.721-0.117-60.286-9.892-60.286-25.894
		c0-4.806,26.423-27.013,86.868-6.189C180.051,333.201,194.899,325.906,202.549,333.708z"/>
	<path fill="#EAF0E9" d="M411.346,295.424c34.185,2.921,105.592,24.16,6.615,25.841
		C317.415,322.972,329.091,288.395,411.346,295.424z"/>
	<path fill="#EAF0E9" d="M345.991,355.118c43.006-1.133,53.199-2.808,59.264-10.801c6.063-7.993-18.23-0.724-38.314-6.156
		c-20.083-5.434-41.346-4.865-48.513-3.352C311.262,336.324,307.695,356.126,345.991,355.118z"/>
	<linearGradient id="SVGID_1_" gradientUnits="userSpaceOnUse" x1="262.7656" y1="234.2954" x2="250.3272" y2="-228.0025">
		<stop  offset="0" style="stop-color:#FFFFFF"/>
		<stop  offset="1" style="stop-color:#F4BB3A"/>
	</linearGradient>
	<path fill="url(#SVGID_1_)" d="M54.957,249.513h413.919c0,0,19.249-94.764-21.267-75.032
		c-55.917,27.232,22.078-93.782-36.336-113.638c-39.852-13.546-103.971,26.238-118.628-20.202
		c-14.657-46.44-82.047-50.343-114.352-25.533s0.075,49.167-56.386,62.313C64.903,90.695,70.441,141.85,86.446,186.338
		C93.302,205.398,35.957,183.15,54.957,249.513z"/>
	<g>
		<polygon fill="#CFEDFC" points="446.5,215.213 376.624,215.213 367.181,305.984 442.078,312.688 		"/>
		<g>
			<path fill="#858297" d="M430.286,220.15H428.3v-14.231c0-9.229-7.509-16.738-16.737-16.738s-16.737,7.509-16.737,16.738v14.231
				h-1.987v-14.231c0-10.326,8.4-18.726,18.725-18.726s18.724,8.399,18.724,18.726V220.15z"/>
		</g>
		<polygon fill="#AFC9D6" points="446.5,215.213 442.078,312.688 455.942,305.984 		"/>
	</g>
	<g>
		<polygon fill="#F4BB3A" points="425.593,244.073 373.423,244.073 366.372,311.843 422.292,316.848 		"/>
		<g>
			<path fill="#858297" d="M413.488,247.758h-1.484v-10.626c0-6.891-5.605-12.497-12.496-12.497c-6.89,0-12.496,5.606-12.496,12.497
				v10.626h-1.483v-10.626c0-7.709,6.271-13.98,13.979-13.98c7.709,0,13.98,6.271,13.98,13.98V247.758z"/>
		</g>
		<polygon fill="#F09A39" points="425.593,244.073 422.292,316.848 432.643,311.843 		"/>
	</g>
	<linearGradient id="SVGID_2_" gradientUnits="userSpaceOnUse" x1="272.5664" y1="348.5981" x2="231.7327" y2="-192.6536">
		<stop  offset="0" style="stop-color:#FFFFFF"/>
		<stop  offset="0.5056" style="stop-color:#00AEEF"/>
		<stop  offset="1" style="stop-color:#42196F"/>
	</linearGradient>
	<path fill="url(#SVGID_2_)" d="M339.219,295.455c0,5.379-4.636,9.742-10.352,9.742H188.922c-5.716,0-10.35-4.363-10.35-9.742
		V39.332c0-5.38,4.634-9.742,10.35-9.742h139.945c5.716,0,10.352,4.361,10.352,9.742V295.455z"/>
	<rect x="187.596" y="49.187" fill="#FFFFFF" width="142.6" height="220.822"/>
	<g>
		<polygon fill="#9E005D" points="147.188,143.355 150.508,143.189 148.393,145.098 145.499,146.338 		"/>
		<polygon fill="#9E005D" points="169.563,139.792 165.189,140.36 165.81,142.772 169.376,142.772 		"/>
		<path fill="#F5E0CD" d="M170.251,141.786l-5.348,11.786l-16.611,4.5l-1.114-2.795l-3.074-7.702l1.647-2.633l4.733-1.74
			c0.011-0.011,0.023-0.011,0.023-0.011s1.659-7.192,1.346-10.289c6.415-1.241,14.209-7.807,14.209-7.807s-0.093,1.763-0.185,4.06
			c-0.151,4.048-0.685,11.206-0.685,11.206C166.945,141.577,170.251,141.786,170.251,141.786z"/>
		<g>
			<path fill="#D1D3D4" d="M104.293,310.961l-1.939-0.216c0.284-2.54-1.399-8.54-2.071-10.638l1.858-0.596
				C102.245,299.836,104.681,307.487,104.293,310.961z"/>
		</g>
		<g>
			
				<rect x="86.606" y="213.438" transform="matrix(0.7278 0.6858 -0.6858 0.7278 194.4832 8.1841)" fill="#D1D3D4" width="0.651" height="71.299"/>
		</g>
		<g>
			
				<rect x="92.144" y="213.01" transform="matrix(0.7304 0.6831 -0.6831 0.7304 197.8274 5.088)" fill="#D1D3D4" width="0.651" height="80.208"/>
		</g>
		<g>
			
				<rect x="87.327" y="241.649" transform="matrix(0.7108 0.7033 -0.7033 0.7108 215.2395 16.417)" fill="#D1D3D4" width="0.651" height="56.674"/>
		</g>
		<path fill="#D1D3D4" d="M95.406,223.958c0.741,0.266,1.438,0.209,1.558-0.126l6.798-19.019c0.12-0.333-0.383-0.817-1.124-1.083
			l0,0c-0.741-0.265-1.438-0.208-1.558,0.126l-6.798,19.017C94.163,223.209,94.666,223.693,95.406,223.958L95.406,223.958z"/>
		<path fill="#2E3192" d="M162.629,337.106c0,0-2.64,2.199-5.385,2.856c-0.592,0.143-1.19,0.214-1.771,0.174l-3.251-1.261v-2.421
			c0,0-9.979,4.782-23.418,3.696c0,0-5.425-1.528-6.29-4.131c0,0,27.229-11.253,27.092-13.087l4.313-1.223
			c0,0,1.347,0.02,2.914,0.352c1.9,0.396,4.119,1.249,4.71,3.056C161.543,325.118,161.543,335.37,162.629,337.106z"/>
		<path fill="#262262" d="M157.244,339.962c2.003-8.021-3.325-16.411-3.325-16.411l2.914-1.489c1.9,0.396,4.119,1.249,4.71,3.056
			c0,0,0,10.252,1.086,11.988C162.629,337.106,159.989,339.305,157.244,339.962z"/>
		<path fill="#9E005D" d="M192.839,160.825c0,0-8.637,9.378-19.153,12.359l-2.223-7.933
			C171.463,165.251,182.178,149.875,192.839,160.825z"/>
		<path fill="#2E3192" d="M188.428,320.625c0,1.587-0.208,3.31-0.546,5.053c-1.36,7.071-4.801,14.459-4.801,14.459
			c-6.004,3.905-7.448-1.261-7.448-1.261c-0.007-4.083-1.08-10.01-1.08-10.01c-0.215-7.806,2.166-14.883,2.166-14.883l3.362-1.991
			l3-1.775C185.857,311.542,188.428,320.625,188.428,320.625z"/>
		<path fill="#F5E0CD" d="M189.956,183.152c-3.708,7.227-13.529,2.557-13.529,2.557c0.207-1.105,0.312-2.18,0.344-3.207
			c0-0.078,0.006-0.149,0.006-0.228c0.013-0.462,0.006-0.918-0.006-1.359c-0.149-3.942-1.347-7.162-2.466-9.354
			c-1.046-2.049-2.03-3.202-2.03-3.202l1.015-1.021l3.669-3.695l4.665-4.689l0.182-0.188l2.829-2.849
			C187.484,151.448,189.956,183.152,189.956,183.152z"/>
		<path fill="#262262" d="M180.648,305.904c-0.04-0.007-0.045-0.014-0.026-0.021C180.628,305.877,180.641,305.883,180.648,305.904z"
			/>
		<path fill="#262262" d="M188.428,320.625c0,1.587-0.208,3.31-0.546,5.053c-3.259-9.294-8.339-9.483-8.339-9.483
			s0.266-1.977,0.539-4.202l3-1.775C185.857,311.542,188.428,320.625,188.428,320.625z"/>
		<path fill="#F5E0CD" d="M183.009,320.409l-0.045,0.046c-4.306,4.273-5.809,1.47-5.809,1.47l-1.32-5.275l-1.281-5.133l7.591-3.466
			c0.221,0.891,0.396,1.841,0.526,2.803C183.308,315.499,183.009,320.409,183.009,320.409z"/>
		<path fill="#F5E0CD" d="M158.87,322.933c-0.566,0.645-1.12,1.17-1.653,1.6c-4.41,3.552-7.473,0.279-7.473,0.279l-0.775-10.829
			h8.886l0.052,0.475L158.87,322.933z"/>
		<path fill="#F0BEB4" d="M155.891,152.075c-3.027,2.332-6.902,3.016-8.711,3.202l-3.074-7.702l1.647-2.633l4.733-1.74
			c-0.267,0.174-2.39,1.531-2.726,3.132C147.411,148.038,149.835,151.866,155.891,152.075z"/>
		<path fill="#F0BEB4" d="M178.618,180.634c0,0,0.319-2.77-1.137-7.805c0,0-1.601-5.12-0.521-9.186
			c0.579-2.178,1.913-4.059,4.665-4.69c0.167-0.045,0.344-0.078,0.525-0.109c0,0-0.124-0.04-0.343-0.079
			c-1.472-0.279-7.248-0.754-8.516,8.573c-0.045,0.313-0.084,0.644-0.117,0.982l1.131,3.24c1.25,2.438,2.579,6.283,2.468,10.85
			C176.787,182.436,178.045,181.265,178.618,180.634z"/>
		<path fill="#9E005D" d="M124.9,163.861c0,0,14.199,9.04,18.754,10.753C143.654,174.615,132.814,156.272,124.9,163.861z"/>
		<path fill="#F0BEB4" d="M158.87,322.933c-0.566,0.645-1.12,1.17-1.653,1.6c-0.208-6.049-5.431-9.094-5.431-9.094l6.121-0.981
			L158.87,322.933z"/>
		<path fill="#F0BEB4" d="M183.009,320.409l-0.045,0.046c-0.377-5.842-5.418-8.788-5.418-8.788l5.125-0.813
			C183.308,315.499,183.009,320.409,183.009,320.409z"/>
		<linearGradient id="SVGID_3_" gradientUnits="userSpaceOnUse" x1="100.979" y1="154.1963" x2="179.2536" y2="449.1049">
			<stop  offset="0" style="stop-color:#FFFFFF"/>
			<stop  offset="0.5056" style="stop-color:#00AEEF"/>
			<stop  offset="1" style="stop-color:#42196F"/>
		</linearGradient>
		<path fill="url(#SVGID_3_)" d="M127.394,200.355l-25.369-2.525c0,0-5.366,1.834-0.975,6.469l24.88,2.67L127.394,200.355z"/>
		<path fill="#726658" d="M185.937,308.05c-8.783,11.059-16.021,5.933-16.021,5.933c-0.591-5.414-8.099-20.244-8.099-20.244
			c-0.709,4.555-2.251,22.039-2.251,22.039c-0.501,0.155-0.984,0.305-1.456,0.416c-9.141,2.16-13.249-0.54-13.249-0.54
			c2.172-23.092-7.385-57.151-7.385-57.151c-2.569-14.816-3.11-26.239-2.817-34.63c0.215-6.298,0.898-10.89,1.536-13.934
			c0.663-3.169,1.281-4.665,1.281-4.665l34.474,1.574c0.222,0.385,0.431,0.775,0.632,1.172c5.736,11.22,4.898,27.717,2.92,40.511
			c-0.144,0.904-0.287,1.789-0.437,2.654c-0.012,0.079-0.026,0.149-0.039,0.228l-0.006,0.014
			c-1.646,9.405-3.722,16.183-3.722,16.183C177.154,273.998,185.937,308.05,185.937,308.05z"/>
		<path fill="#60564B" d="M161.816,293.739c-0.912,4.534-2.251,22.039-2.251,22.039c-0.509,0.134-2.894,0.668-3.37,0.77
			c-0.321-4.615,0.083-17.545,0.083-17.545c0.861-7.264-4.83-29.08-4.83-29.08c-0.889-11.914-0.764-19.425-0.764-19.425
			c1.198-9.426-1.785-20.556-1.785-20.556c0.498-0.455-2.598-3.376-2.78-3.547l4.05,2.296c3.174,11.25,1.834,40.06,1.834,40.06
			C151.389,274.384,161.816,293.739,161.816,293.739z"/>
		<path fill="#60564B" d="M175.503,248.531c2.225-18.87-13.687-35.99-13.687-35.99l10.766-4.521
			C178.319,219.24,177.48,235.737,175.503,248.531z"/>
		<path fill="#60564B" d="M143.115,209.939c0,0-5.789,4.754-8.456,13.934c0.215-6.298,0.898-10.89,1.536-13.934H143.115z"/>
		<path fill="#F5E0CD" d="M142.655,168.314c0.058,7.447-5.684,17.921-5.684,17.921c-1.067,2.981-3.074,5.359-5.243,7.192
			c-3.886,3.317-11.264,6.24-11.264,6.24c-3.027,2.181-1.207,6.253-1.207,6.253c0.626,0.499,0.847,0.417,0.847,0.417
			c0.325,2.482-2.9,3.051-2.9,3.051c-1.264,0.059-4.419,0.059-4.419,0.059c-0.29-1.067,0.255-1.602,0.255-1.602
			c-0.847-0.255-1.369-0.51-1.369-0.51l-1.194,0.545c-2.053,0.209-2.807-0.87-2.807-0.87c-2.181-0.429-2.285-2.169-2.285-2.169
			l0.22-6.147c0.325-1.509,2.935-1.195,2.935-1.195c0.545-1.415,3.131-1.137,3.131-1.137c0.975-2.494,3.364-1.496,3.364-1.496
			c1.421-1.599,2.84-3.196,4.304-4.756c5.846-6.311,8.05-7.935,8.05-7.935c0.545-1.774,1.264-5.243,1.937-8.828
			c1.09-5.776,2.076-11.866,2.076-11.866s7.053,2.111,9.988,4.709C142.168,166.876,142.655,167.595,142.655,168.314z"/>
		<path fill="#F0BEB4" d="M142.655,168.314c0.058,7.447-5.684,17.921-5.684,17.921c-1.067,2.981-3.074,5.359-5.231,7.181
			c1.067-1.566,3.526-5.324,3.747-7.134c2.622-4.86,4.025-20.555,4.025-20.555l1.879,0.464
			C142.168,166.876,142.655,167.595,142.655,168.314z"/>
		<path fill="#EC008C" d="M192.838,160.828c0,0-12.431-6.504-19.15,12.359l-1.16-1.783c0,0-4.265,8.502-4.695,15.222l7.221,21.688
			l-0.007,0.006c-0.189,0.11-3.779,2.271-9.478,4.047c-8.04,2.497-20.282,4.228-33.083-1.673c0,0-0.052-1.245,4.339-12.138
			c0,0,5.324-9.857,4.023-17.662c0,0-3.81-5.976-4.023-11.18c0,0-5.591-6.165-11.924-5.854c0,0,4.768-6.602,10.187-16.094
			c0,0,3.536-4.576,12.099-4.41c0,0-3.174,6.629,4.091,9.016c0,0,10.05-0.436,18.285-12.58c0,0,4.472-1.188,12.581,3.688
			L192.838,160.828z"/>
		<path fill="#C90078" d="M141.297,150.878c0,0-0.65,10.679-4.471,18.837l-2.093-1.928
			C134.733,167.788,138.858,162.668,141.297,150.878z"/>
		<path fill="#C90078" d="M175.054,208.313l-0.007,0.006l-9.478,4.047c5.218-8.743-0.663-29.097-0.663-29.097
			c3.466-5.529,3.033-13.554,3.033-13.554c-0.083-10.707,1.845-13.701,1.97-14.176c-1.484,5.971,2.619,15.864,2.619,15.864
			s-2.998,8.158-3.427,14.878L175.054,208.313z"/>
		<path fill="#C90078" d="M143.654,185.706c0,0,4.755,14.447,16.608,16.479c0,0-13.03,5.285-20.754,0.406
			c0,0,9.893,2.142,14.555-0.244C154.063,202.347,144.303,198.011,143.654,185.706z"/>
		<path fill="#F0BEB4" d="M107.838,200.925c0,0-1.377,2.505-0.873,5.877l0.699,0.209
			C107.665,207.011,107.271,203.757,107.838,200.925z"/>
		<path fill="#F0BEB4" d="M110.478,207.881c0,0-0.485-4.317,0.41-7.729c0,0,0.313,6.929,0.784,7.184L110.478,207.881z"/>
		<path fill="#D1D3D4" d="M158.856,232.469c0.905,0.326,1.759,0.256,1.905-0.152l8.318-23.271c0.146-0.407-0.469-1.003-1.376-1.327
			l0,0c-0.907-0.323-1.759-0.256-1.906,0.154l-8.318,23.269C157.333,231.552,157.95,232.146,158.856,232.469L158.856,232.469z"/>
		<linearGradient id="SVGID_4_" gradientUnits="userSpaceOnUse" x1="131.5723" y1="146.0718" x2="209.8539" y2="441.0068">
			<stop  offset="0" style="stop-color:#FFFFFF"/>
			<stop  offset="0.5056" style="stop-color:#00AEEF"/>
			<stop  offset="1" style="stop-color:#42196F"/>
		</linearGradient>
		<path fill="url(#SVGID_4_)" d="M165.989,210.876l-40.873-3.952l0.156-6.706l41.519,4.015c2.209,0.214,3.823,1.872,3.601,3.708
			C170.172,209.777,168.2,211.089,165.989,210.876z"/>
		<path fill="#F5E0CD" d="M169.845,203.218c0.139,1.961-0.267,2.344-0.267,2.344c-4.672-2.839-5.394,5.141-5.394,5.141
			c-1.657,1.835-2.854,0.531-2.854,0.531c-2.065,0.44-2.633-0.754-2.633-0.754c-0.348,0.324-1.925,0.209-1.925,0.209v0.012
			c0.035,0.231,0.046,0.429,0.046,0.603c0.035,1.752-1.067,1.125-1.067,1.125c-0.464-0.649-4.907-0.754-4.907-0.754
			c-1.729-1.403-1.056-2.598-0.441-3.225c0.29-0.302,0.568-0.464,0.568-0.464c-0.267-0.975,0-1.74,0-1.74
			c0.65-3.085,5.278-6.728,5.278-6.728c0.29-0.476,5.243,0.232,5.243,0.232c0.313-0.093,0.673-0.29,1.056-0.534
			c1.033-0.673,2.228-1.81,3.109-2.702c0.777-0.789,1.299-1.393,1.299-1.393c6.217-6.392,9.872-12.76,9.872-12.76
			c0.278-0.15,0.44-0.533,0.521-1.102c1.056,0.186,2.204,0.22,3.376,0.115c3.19,0.104,6.565,0.163,9.233,1.775
			C189.959,189.079,169.845,203.218,169.845,203.218z"/>
		<path fill="#F0BEB4" d="M158.19,210.66c0,0-0.546-3.145,0.68-5.791c0,0-0.554,4.074,0,5.791H158.19z"/>
		<path fill="#F0BEB4" d="M161.327,211.238c0,0-0.634-3.346,0.745-5.435c0,0-0.586,1.712-0.255,5.743L161.327,211.238z"/>
		<g>
			
				<rect x="82.493" y="214.185" transform="matrix(0.6908 0.723 -0.723 0.6908 201.452 15.3158)" fill="#D1D3D4" width="0.651" height="58.026"/>
		</g>
		<g>
			
				<rect x="92.195" y="231.587" transform="matrix(0.9835 0.181 -0.181 0.9835 44.0734 -19.0707)" fill="#D1D3D4" width="68.634" height="0.65"/>
		</g>
		<g>
			
				<rect x="86.645" y="237.393" transform="matrix(0.98 0.199 -0.199 0.98 49.7902 -19.889)" fill="#D1D3D4" width="74.36" height="0.65"/>
		</g>
		<g>
			
				<rect x="86.646" y="244.82" transform="matrix(0.9705 0.2413 -0.2413 0.9705 62.8062 -22.5884)" fill="#D1D3D4" width="73.973" height="0.651"/>
		</g>
		<g>
			
				<rect x="84.19" y="251.243" transform="matrix(0.9636 0.2675 -0.2675 0.9636 71.7643 -23.6229)" fill="#D1D3D4" width="76.779" height="0.651"/>
		</g>
		<g>
			
				<rect x="76.971" y="257.435" transform="matrix(0.9656 0.2601 -0.2601 0.9656 71.1349 -22.0829)" fill="#D1D3D4" width="84.085" height="0.648"/>
		</g>
		<g>
			
				<rect x="131.41" y="247.293" transform="matrix(0.0324 0.9995 -0.9995 0.0324 392.9757 89.3149)" fill="#D1D3D4" width="37.899" height="0.651"/>
		</g>
		<g>
			<line fill="#D1D3D4" x1="61.858" y1="254.07" x2="72.563" y2="285.284"/>
			
				<rect x="50.712" y="269.352" transform="matrix(0.3244 0.9459 -0.9459 0.3244 300.4954 118.6099)" fill="#D1D3D4" width="32.998" height="0.65"/>
		</g>
		<g>
			<line fill="#D1D3D4" x1="67.923" y1="247.619" x2="78.417" y2="279.348"/>
			
				<rect x="56.46" y="263.159" transform="matrix(0.314 0.9494 -0.9494 0.314 300.3507 111.2776)" fill="#D1D3D4" width="33.421" height="0.65"/>
		</g>
		<g>
			<line fill="#D1D3D4" x1="73.17" y1="243.001" x2="83.812" y2="273.88"/>
			
				<rect x="62.16" y="258.116" transform="matrix(0.3258 0.9454 -0.9454 0.3258 297.2559 100.0288)" fill="#D1D3D4" width="32.661" height="0.651"/>
		</g>
		<g>
			<line fill="#D1D3D4" x1="79.096" y1="237.717" x2="88.929" y2="268.692"/>
			
				<rect x="67.763" y="252.879" transform="matrix(0.3026 0.9531 -0.9531 0.3026 299.9217 96.5079)" fill="#D1D3D4" width="32.498" height="0.651"/>
		</g>
		<linearGradient id="SVGID_5_" gradientUnits="userSpaceOnUse" x1="108.5459" y1="152.1816" x2="186.8285" y2="447.1204">
			<stop  offset="0" style="stop-color:#FFFFFF"/>
			<stop  offset="0.5056" style="stop-color:#00AEEF"/>
			<stop  offset="1" style="stop-color:#42196F"/>
		</linearGradient>
		<path fill="url(#SVGID_5_)" d="M161.889,231.087c0.178-1.118-0.584-2.17-1.703-2.348l-63.61-10.127
			c-1.119-0.181-2.167,0.58-2.346,1.698l0,0c-0.178,1.119,0.583,2.17,1.702,2.348l63.609,10.13
			C160.661,232.967,161.711,232.205,161.889,231.087L161.889,231.087z"/>
		<linearGradient id="SVGID_6_" gradientUnits="userSpaceOnUse" x1="54.4551" y1="166.5415" x2="132.7343" y2="461.4677">
			<stop  offset="0" style="stop-color:#FFFFFF"/>
			<stop  offset="0.5056" style="stop-color:#00AEEF"/>
			<stop  offset="1" style="stop-color:#42196F"/>
		</linearGradient>
		<path fill="url(#SVGID_6_)" d="M52.661,261.948c0.683,0.716,1.815,0.74,2.53,0.059l40.683-38.827
			c0.716-0.683,0.742-1.813,0.06-2.53l0,0c-0.683-0.715-1.815-0.741-2.53-0.059l-40.683,38.826
			C52.006,260.101,51.979,261.234,52.661,261.948L52.661,261.948z"/>
		<path fill="#5C4FA1" d="M136.324,216.905c0,0,1.715,1.323,4.968,1.379c0,0,9.918,52.891,15.257,54.517l-16.367,13.513
			L136.324,216.905z"/>
		<path fill="#675EAA" d="M136.324,216.905c0,0,3.334,42.154,4.973,68.379H89.558c0,0-3.47-46.839-3.309-61.411
			C86.249,223.873,132.136,218.344,136.324,216.905z"/>
		<polygon fill="#EF4136" points="77.415,243.001 86.088,244.737 93.244,299.81 74.379,292.872 		"/>
		<polygon fill="#BE1E2D" points="97.146,243.001 96.2,243.15 86.088,244.737 93.244,299.81 101.482,295.474 103.217,252.976 		"/>
		<polygon fill="#F09A39" points="105.388,242.922 115.749,303.712 141.297,285.284 129.602,240.184 		"/>
		<polygon fill="#F4BB3A" points="95.629,300.884 96.2,242.922 105.388,242.922 115.749,303.712 		"/>
		<g>
			<g>
				<polygon fill="#D1D3D4" points="110.709,309.189 105.05,279.262 106.328,279.027 111.988,308.955 				"/>
			</g>
		</g>
		<g>
			<polygon fill="#D1D3D4" points="106.584,287.384 106.404,287.319 60.771,270.731 60.994,270.121 106.446,286.642 
				160.048,239.939 160.476,240.429 			"/>
		</g>
		<g>
			<polygon fill="#D1D3D4" points="108.375,294.482 62.594,277.786 62.817,277.173 108.228,293.736 160.043,246.583 160.48,247.065 
							"/>
		</g>
		<g>
			<polygon fill="#D1D3D4" points="109.767,302.081 109.582,302.012 65.217,285.589 65.442,284.977 109.623,301.333 
				160.043,255.771 160.48,256.253 			"/>
		</g>
		<g>
			
				<rect x="55.773" y="279.357" transform="matrix(0.2156 0.9765 -0.9765 0.2156 328.291 150.6855)" fill="#D1D3D4" width="29.162" height="0.65"/>
		</g>
		<g>
			
				<rect x="64.004" y="282.468" transform="matrix(0.1723 0.985 -0.985 0.1723 343.3866 156.9203)" fill="#D1D3D4" width="28.627" height="0.651"/>
		</g>
		<g>
			<line fill="#EF4136" x1="84.013" y1="271.407" x2="88.929" y2="299.81"/>
			
				<rect x="72.058" y="285.282" transform="matrix(0.1706 0.9853 -0.9853 0.1706 353.1415 151.6828)" fill="#D1D3D4" width="28.827" height="0.651"/>
		</g>
		<g>
			
				<rect x="101.995" y="285.224" transform="matrix(0.1622 0.9868 -0.9868 0.1622 380.9778 122.9055)" fill="#D1D3D4" width="32.234" height="1.159"/>
		</g>
		<g>
			
				<rect x="111.168" y="277.138" transform="matrix(0.157 0.9876 -0.9876 0.157 381.5478 108.4523)" fill="#D1D3D4" width="32.159" height="1.16"/>
		</g>
		<g>
			
				<rect x="119.255" y="270.543" transform="matrix(0.1966 0.9805 -0.9805 0.1966 374.8162 84.7989)" fill="#D1D3D4" width="32.813" height="1.16"/>
		</g>
		<g>
			
				<rect x="126.365" y="264.184" transform="matrix(0.1748 0.9846 -0.9846 0.1748 378.8336 77.5006)" fill="#D1D3D4" width="33.629" height="1.16"/>
		</g>
		<g>
			
				<rect x="134.696" y="256.992" transform="matrix(0.1478 0.989 -0.989 0.1478 383.5552 69.5087)" fill="#D1D3D4" width="33.497" height="0.651"/>
		</g>
		<g>
			<g>
				<polygon fill="#D1D3D4" points="111.707,309.663 111.349,309.517 67.039,291.479 58.15,264.134 59.387,263.73 68.088,290.498 
					111.48,308.164 159.609,268.692 159.395,231.198 160.695,231.19 160.915,269.306 160.674,269.504 				"/>
			</g>
		</g>
		<g>
			
				<rect x="80.653" y="288.764" transform="matrix(0.1866 0.9824 -0.9824 0.1866 362.2012 140.693)" fill="#D1D3D4" width="30.959" height="0.65"/>
		</g>
		<linearGradient id="SVGID_7_" gradientUnits="userSpaceOnUse" x1="52.8794" y1="166.9565" x2="131.1618" y2="461.8944">
			<stop  offset="0" style="stop-color:#FFFFFF"/>
			<stop  offset="0.5056" style="stop-color:#00AEEF"/>
			<stop  offset="1" style="stop-color:#42196F"/>
		</linearGradient>
		<path fill="url(#SVGID_7_)" d="M108.073,278.847c0.345-1.046-0.126-2.139-1.049-2.442l-52.523-17.267
			c-0.923-0.304-1.949,0.297-2.293,1.343l0,0c-0.344,1.048,0.125,2.142,1.048,2.445l52.523,17.265
			C106.702,280.496,107.73,279.893,108.073,278.847L108.073,278.847z"/>
		<linearGradient id="SVGID_8_" gradientUnits="userSpaceOnUse" x1="106.2314" y1="152.7959" x2="184.5139" y2="447.7342">
			<stop  offset="0" style="stop-color:#FFFFFF"/>
			<stop  offset="0.5056" style="stop-color:#00AEEF"/>
			<stop  offset="1" style="stop-color:#42196F"/>
		</linearGradient>
		<path fill="url(#SVGID_8_)" d="M161.068,229.434c-0.813-0.923-2.223-1.013-3.148-0.198l-52.565,46.323
			c-0.925,0.814-1.014,2.222-0.201,3.146l0,0c0.816,0.925,2.225,1.013,3.148,0.199l52.567-46.323
			C161.793,231.768,161.882,230.358,161.068,229.434L161.068,229.434z"/>
		<ellipse fill="#58595B" cx="81.667" cy="330.87" rx="6.189" ry="7.163"/>
		<ellipse fill="#808285" cx="82.778" cy="330.967" rx="5.078" ry="6.948"/>
		<ellipse fill="#58595B" cx="102.228" cy="319.495" rx="6.096" ry="7.054"/>
		<ellipse fill="#808285" cx="103.323" cy="319.591" rx="5.001" ry="6.843"/>
		<ellipse fill="#58595B" cx="119.379" cy="346.756" rx="7.071" ry="8.184"/>
		<ellipse fill="#808285" cx="120.65" cy="346.869" rx="5.801" ry="7.938"/>
		<ellipse fill="#58595B" cx="142.572" cy="334.018" rx="6.104" ry="7.064"/>
		<ellipse fill="#808285" cx="143.669" cy="334.116" rx="5.007" ry="6.853"/>
		<path fill="#D1D3D4" d="M120.192,336.45c0,0,1.68,4.446,0,9.215c0,0-1.789,3.361,1.789,3.687c0,0,4.526,1.3,2.209-14.854
			L120.192,336.45z"/>
		<path fill="#D1D3D4" d="M143.126,322.622c0,0,1.68,4.468,0,9.264c0,0-1.789,3.379,1.789,3.707c0,0,4.525,1.308,2.209-14.936
			L143.126,322.622z"/>
		<path fill="#D1D3D4" d="M102.414,312.576c0,0,1.68,3.205,0,6.646c0,0-1.789,2.423,1.789,2.657c0,0,4.526,0.937,2.208-10.71
			L102.414,312.576z"/>
		<path fill="#D1D3D4" d="M82.994,318.728c0,0,1.576,4.964,0,10.291c0,0-1.678,3.755,1.677,4.118c0,0,4.244,1.453,2.071-16.59
			L82.994,318.728z"/>
		<linearGradient id="SVGID_9_" gradientUnits="userSpaceOnUse" x1="53.0146" y1="166.8999" x2="131.3071" y2="461.8756">
			<stop  offset="0" style="stop-color:#FFFFFF"/>
			<stop  offset="0.5056" style="stop-color:#00AEEF"/>
			<stop  offset="1" style="stop-color:#42196F"/>
		</linearGradient>
		<path fill="url(#SVGID_9_)" d="M79.452,320.917c0.393,0.907,1.058,1.494,1.486,1.309l24.361-10.528
			c0.429-0.186,0.458-1.069,0.066-1.977l0,0c-0.393-0.908-1.057-1.493-1.486-1.308l-24.362,10.527
			C79.09,319.126,79.06,320.013,79.452,320.917L79.452,320.917z"/>
		<linearGradient id="SVGID_10_" gradientUnits="userSpaceOnUse" x1="53.835" y1="166.7007" x2="132.118" y2="461.6411">
			<stop  offset="0" style="stop-color:#FFFFFF"/>
			<stop  offset="0.5056" style="stop-color:#00AEEF"/>
			<stop  offset="1" style="stop-color:#42196F"/>
		</linearGradient>
		<path fill="url(#SVGID_10_)" d="M115.57,340.093c0.531-0.964,0.468-2.019-0.14-2.353l-34.595-19.013
			c-0.607-0.333-1.529,0.175-2.06,1.14l0,0c-0.531,0.967-0.468,2.021,0.14,2.355l34.594,19.013
			C114.118,341.57,115.042,341.059,115.57,340.093L115.57,340.093z"/>
		<g>
			<path fill="#D1D3D4" d="M151.537,318.693l-1.221-1.503c1.508-1.569,0.263-17.942-0.334-25.81
				c-0.326-4.298-0.609-8.014-0.599-9.806c0.039-6.417,9.997-13.628,10.419-13.933l1.077,1.619
				c-2.662,1.911-9.576,7.847-9.603,12.324c-0.01,1.71,0.27,5.385,0.592,9.64C153.182,308.49,153.466,317.002,151.537,318.693z"/>
		</g>
		<linearGradient id="SVGID_11_" gradientUnits="userSpaceOnUse" x1="85.7441" y1="158.2407" x2="164.023" y2="453.1653">
			<stop  offset="0" style="stop-color:#FFFFFF"/>
			<stop  offset="0.5056" style="stop-color:#00AEEF"/>
			<stop  offset="1" style="stop-color:#42196F"/>
		</linearGradient>
		<path fill="url(#SVGID_11_)" d="M151.637,318.473c0.19-1.116-0.311-2.133-1.12-2.271l-46.014-7.842
			c-0.809-0.14-1.617,0.654-1.808,1.771l0,0c-0.19,1.116,0.311,2.134,1.12,2.27l46.013,7.843
			C150.638,320.381,151.447,319.587,151.637,318.473L151.637,318.473z"/>
		<linearGradient id="SVGID_12_" gradientUnits="userSpaceOnUse" x1="86.8193" y1="157.9629" x2="165.0947" y2="452.8743">
			<stop  offset="0" style="stop-color:#FFFFFF"/>
			<stop  offset="0.5056" style="stop-color:#00AEEF"/>
			<stop  offset="1" style="stop-color:#42196F"/>
		</linearGradient>
		<path fill="url(#SVGID_12_)" d="M151.942,317.687c-0.607-1.071-1.63-1.638-2.283-1.269l-37.146,21.059
			c-0.654,0.369-0.69,1.535-0.084,2.607l0,0c0.608,1.072,1.63,1.642,2.282,1.27l37.147-21.056
			C152.512,319.926,152.548,318.759,151.942,317.687L151.942,317.687z"/>
		<path fill="#F0BEB4" d="M184.986,181.468c-4.769-1.026-7.325,0.337-8.213,0.942c0-0.078,0.062-0.201,0.062-0.279
			c0.014-0.463,0.007-0.918-0.006-1.359C180.511,179.737,184.603,181.319,184.986,181.468z"/>
		<polygon fill="#840B17" points="77.415,243.001 96.2,243.15 86.088,244.737 		"/>
		<path fill="#F0BEB4" d="M166.063,125.094c0,0-0.093,1.763-0.185,4.06c-3.689,7.111-9.164,10.208-9.164,10.208
			s-1.601,0.464-3.956-0.626c-0.592,1.404-2.25,4.455-2.25,4.455s1.659-7.192,1.346-10.289
			C158.269,131.659,166.063,125.094,166.063,125.094z"/>
		<g>
			<path fill="#F5E0CD" d="M139.781,114.552c0,0,3.769,13.216,4.559,16.378c0,0,5.914,5.162,10.855,6.347
				c0,0,7.905-6.126,9.288-8.498l5.138-8.695L163.1,105.66l-11.462-3.754L139.781,114.552z"/>
			
				<ellipse transform="matrix(0.9397 -0.3419 0.3419 0.9397 -33.1336 58.4622)" fill="#594A42" cx="149.262" cy="123.215" rx="1.433" ry="1.927"/>
			
				<ellipse transform="matrix(0.9507 -0.31 0.31 0.9507 -29.359 55.0487)" fill="#594A42" cx="158.532" cy="119.903" rx="1.433" ry="1.927"/>
			<path fill="#594A42" d="M153.975,116.803l1.317,0.396c0,0,1.341-3.688,4.908-1.658
				C160.2,115.541,156.584,111.079,153.975,116.803z"/>
			<path fill="#594A42" d="M150.397,117.684l-0.95,0.831c0,0-2.368-2.031-4.319,1.692
				C145.128,120.207,146.162,114.39,150.397,117.684z"/>
			<path fill="#594A42" d="M152.608,123.593c0,0-0.143,1.753-1.114,4.076c0,0,0.848,0.498,1.941,0.775l-1.013-0.942
				C152.422,127.502,153.009,124.655,152.608,123.593z"/>
			<path fill="#754C29" d="M176.52,118.722c-0.278,4.781-1.854,9.965-5.22,14.737c0,0.009-0.009,0.009-0.009,0.009
				c-2.301,3.259-5.443,6.33-9.58,8.953c0,0,5.201-12.19,3.885-22.822v-0.009c-0.259-1.083-0.6-2.167-1.039-3.25
				c-6.527-1.907-11.245-8.658-11.532-9.079c0,0,0,0-0.009-0.009l-0.009-0.009c0,0-3.313,6.357-11.021,13.537
				c3.42,8.846,4.092,11.191,4.092,11.191s0.51,0.797,2.596,2.194c-1.227,1.423-3.635,3.483-7.395,5.479
				c-0.743,0.403-1.54,0.797-2.4,1.182c-0.904,0.403-1.862,0.797-2.892,1.182c-1.54,0.573-3.223,1.11-5.05,1.594
				c5.56-8.362,1.907-23.251,4.315-30.916c2.086-6.652,6.115-13.752,13.439-14.522c1.119-0.125,2.319-0.098,3.59,0.099
				c10.323-3.286,18.014,0.367,22.24,9.204C175.982,110.521,176.771,114.46,176.52,118.722z"/>
			<path fill="#594A42" d="M152.758,130.944c0,0,1.755,0.455,3.343-0.336c1.587-0.792,1.623-2.757,1.623-2.757
				s0.786,2.267-1.115,3.486C154.944,132.404,152.758,130.944,152.758,130.944z"/>
			<path fill="#603913" d="M135.989,142.009c5.381-8.004,5.13-19.24,5.13-19.24s-0.421,0.099-2.221,0.448
				c1.379-0.904,3.089-2.436,3.089-2.436c3.42,8.846,4.092,11.191,4.092,11.191s0.51,0.797,2.596,2.194
				c-1.227,1.423-3.635,3.483-7.395,5.479c1.227-3.16,1.253-6.321,1.253-6.598c-0.045,0.322-0.689,4.512-3.653,7.78L135.989,142.009
				z"/>
			<path fill="#603913" d="M164.558,116.34c-6.527-1.907-11.245-8.658-11.532-9.079c0.313,0.304,4.423,4.172,8.497,5.855
				c-0.573-1.656-1.898-4.154-1.997-4.342C159.715,108.927,162.696,111.443,164.558,116.34z"/>
			<path fill="#603913" d="M176.52,118.722c-0.278,4.781-1.854,9.965-5.22,14.737c6.07-12.928,3.917-28.284-4.986-32.871
				c-11.044-5.691-21.552,2.511-21.552,2.511s2.838-2.668,6.384-4.342c-0.376-0.224-2.238-0.564-2.453-0.591
				c1.119-0.125,2.319-0.098,3.59,0.099c10.323-3.286,18.014,0.367,22.24,9.204C175.982,110.521,176.771,114.46,176.52,118.722z"/>
		</g>
		<path fill="#F0BEB4" d="M156.819,211.303c-0.777-0.174-2.007-0.614-2.865-1.67c-2.192,0.302-3.004,0.139-3.55-1.184
			c0.29-0.302,0.568-0.464,0.568-0.464c0.499,1.125,2.332,1.392,3.318,0.975c0.591,0.951,1.125,1.322,2.482,1.74
			C156.807,210.932,156.819,211.129,156.819,211.303z"/>
		<path fill="#F0BEB4" d="M154.504,209.481c0,0-0.142-1.848,0.995-4.821c-1.68,2.198-1.576,3.619-1.68,4.614
			C154.129,209.429,154.504,209.481,154.504,209.481z"/>
		<path fill="#F0BEB4" d="M163.721,199.182l1.937,0.568c0,0-1.45,0.208-4.165,0c0.313-0.093,0.673-0.29,1.056-0.534
			c1.033-0.673,2.228-1.81,3.109-2.702L163.721,199.182z"/>
		<path fill="#F0BEB4" d="M131.253,181.016c0,0-2.204-0.104-3.863,1.16c0.545-1.774,1.264-5.243,1.937-8.828
			c-0.012,2.355-0.081,5.533-0.348,7.087C130.093,180.448,131.253,181.016,131.253,181.016z"/>
		<path fill="#F0BEB4" d="M114.851,200.682c0,0-0.517,4.057,0.207,5.168s4.201,0.071,4.201,0.071s-1.022,1.247-2.547,1.505
			c-1.524,0.259-3.67,0.42-3.67,0.42l-1.37-0.51c0,0,1.525,0.113,2.223-0.325C113.895,207.011,113.404,202.414,114.851,200.682z"/>
		<path fill="#F0BEB4" d="M116.509,195.864c0,0-0.696-0.823-1.473-0.997c0.278-0.313,0.545-0.615,0.8-0.905
			C116.219,194.715,116.509,195.864,116.509,195.864z"/>
		<g>
			<path fill="#4B3E83" d="M113.182,239.275c-4.326,0-8.244-3.021-9.198-7.4l-1.017-5.2l1.138-0.222l1.015,5.188
				c0.955,4.383,5.317,7.216,9.725,6.304c3.858-0.801,6.621-4.242,6.568-8.183l-0.083-6.204l1.16-0.016l0.083,6.204
				c0.06,4.495-3.091,8.42-7.493,9.333C114.443,239.211,113.808,239.275,113.182,239.275z"/>
		</g>
		<circle fill="#4B3E83" cx="121.91" cy="223.549" r="1.431"/>
		<circle fill="#4B3E83" cx="103.536" cy="226.563" r="1.431"/>
		<circle fill="#594A42" cx="113.836" cy="246.204" r="1.431"/>
		<circle fill="#594A42" cx="125.78" cy="244.284" r="1.431"/>
		<g>
			<path fill="#594A42" d="M122.159,255.887c-0.056,0-0.112-0.001-0.169-0.002c-3.858-0.092-7.576-3.321-8.288-7.2l-0.436-2.377
				l1.141-0.208l0.436,2.376c0.619,3.367,3.837,6.17,7.175,6.249c1.572,0.024,2.901-0.547,3.748-1.646
				c0.901-1.169,1.139-2.806,0.652-4.49l-1.195-4.144l1.115-0.321l1.195,4.144c0.59,2.044,0.281,4.056-0.848,5.52
				C125.638,255.145,124.036,255.887,122.159,255.887z"/>
		</g>
	</g>
	<path fill="#E6E7E8" d="M339.219,55.311l-0.009-0.054h-16.987h-21.109h-21.109h-21.108h-21.109h-21.109h-21.109h-16.988
		l-0.009,0.055v34.915c1.784,1.378,4.014,2.207,6.442,2.207l0,0c5.829,0,10.555-4.725,10.555-10.554
		c0,5.829,4.726,10.554,10.555,10.554l0,0c5.829,0,10.554-4.725,10.554-10.554c0,5.829,4.726,10.554,10.555,10.554l0,0
		c5.829,0,10.555-4.725,10.555-10.554l0,0c0,5.829,4.725,10.554,10.554,10.554l0,0c5.829,0,10.555-4.725,10.555-10.554
		c0,5.829,4.726,10.554,10.555,10.554l0,0c5.829,0,10.554-4.725,10.554-10.554c0,5.829,4.726,10.554,10.555,10.554l0,0
		c5.829,0,10.555-4.725,10.555-10.554c0,5.829,4.726,10.554,10.555,10.554l0,0c5.829,0,10.555-4.725,10.555-10.554
		c0,5.829,4.726,10.554,10.555,10.554l0,0c2.428,0,4.658-0.829,6.441-2.207V55.311z"/>
	<circle fill="#FFFFFF" cx="258.895" cy="287.221" r="9.228"/>
	<rect x="195.568" y="49.187" fill="#F15E5F" width="21.109" height="26.622"/>
	<rect x="216.677" y="49.187" fill="#F4BB3A" width="21.109" height="26.622"/>
	<polygon fill="#F4BB3A" points="195.568,75.808 174.459,75.808 178.581,49.187 195.568,49.187 	"/>
	<rect x="237.787" y="49.187" fill="#F15E5F" width="21.109" height="26.622"/>
	<rect x="258.896" y="49.187" fill="#F4BB3A" width="21.108" height="26.622"/>
	<rect x="280.004" y="49.187" fill="#F15E5F" width="21.109" height="26.622"/>
	<polygon fill="#F15E5F" points="343.331,75.808 322.223,75.808 322.223,49.187 339.21,49.187 	"/>
	<rect x="301.113" y="49.187" fill="#F4BB3A" width="21.109" height="26.622"/>
	<path fill="#F09A39" d="M174.459,75.808c0,5.829,4.725,10.555,10.554,10.555l0,0c5.829,0,10.555-4.726,10.555-10.555H174.459z"/>
	<path fill="#D55354" d="M195.568,75.808c0,5.829,4.726,10.555,10.555,10.555l0,0c5.829,0,10.554-4.726,10.554-10.555H195.568z"/>
	<path fill="#F09A39" d="M216.677,75.808c0,5.829,4.726,10.555,10.555,10.555l0,0c5.829,0,10.555-4.726,10.555-10.555H216.677z"/>
	<path fill="#D55354" d="M237.787,75.808c0,5.829,4.725,10.555,10.554,10.555l0,0c5.829,0,10.555-4.726,10.555-10.555H237.787z"/>
	<path fill="#F09A39" d="M258.896,75.808c0,5.829,4.726,10.555,10.555,10.555l0,0c5.829,0,10.554-4.726,10.554-10.555H258.896z"/>
	<path fill="#F09A39" d="M318.291,199.2v53.823c0,4.813-3.909,8.723-8.723,8.723H208.221c-4.814,0-8.723-3.909-8.723-8.723V199.2
		c0-4.814,3.909-8.723,8.723-8.723h101.348C314.382,190.477,318.291,194.385,318.291,199.2z"/>
	<path fill="#F4BB3A" d="M318.291,199.2v49.172c0,4.825-3.909,8.734-8.723,8.734H208.221c-4.814,0-8.723-3.909-8.723-8.734V199.2
		c0-4.814,3.909-8.723,8.723-8.723h101.348C314.382,190.477,318.291,194.385,318.291,199.2z"/>
	<path fill="#D55354" d="M280.004,75.808c0,5.829,4.726,10.555,10.555,10.555l0,0c5.829,0,10.555-4.726,10.555-10.555H280.004z"/>
	<path fill="#F09A39" d="M301.113,75.808c0,5.829,4.726,10.555,10.555,10.555l0,0c5.829,0,10.555-4.726,10.555-10.555H301.113z"/>
	<path fill="#D55354" d="M322.223,75.808c0,5.829,4.726,10.555,10.555,10.555l0,0c5.829,0,10.554-4.726,10.554-10.555H322.223z"/>
	<path fill="#E4E7ED" d="M312.273,135.58H205.517c-3.325,0-6.02-2.695-6.02-6.02v-19.937c0-3.325,2.695-6.02,6.02-6.02h106.756
		c3.325,0,6.021,2.695,6.021,6.02v19.937C318.294,132.885,315.599,135.58,312.273,135.58z"/>
	<path fill="#FFFFFF" d="M310.783,131.097h-20.535c-1.346,0-2.437-1.091-2.437-2.437v-17.183c0-1.346,1.091-2.437,2.437-2.437
		h20.535c1.346,0,2.437,1.091,2.437,2.437v17.183C313.22,130.006,312.129,131.097,310.783,131.097z"/>
	<g>
		<path fill="#CD294A" d="M389.048,204.609l-6.902-3.295l2.471-21.135l4.432-37.769c0,0,8.271,11.867,12.701,23.524
			c0.012,0,0.012,0.012,0.012,0.012c1.148,3.016,2.03,6.009,2.459,8.793C404.835,181.038,389.048,204.609,389.048,204.609z"/>
		<path fill="#EFC7B0" d="M384.538,105.956l-2.388,18.961l-0.376,2.992c-0.657,2.544-0.723,5.159-0.601,7.267
			c0.152,2.601,0.601,4.442,0.601,4.442l-19.028-1.3c0.931-1.145,1.543-3.995,1.945-6.817c0.06-0.416,0.111-0.839,0.164-1.249
			c0.371-3.128,0.493-5.92,0.493-5.92c-0.091-0.722-1.133-0.891-2.034-0.904c-0.288,0-0.56,0.013-0.782,0.026
			c-0.006,0-0.013,0-0.013,0c-0.352,0.032-0.585,0.065-0.585,0.065c-3.903-5.204-2.927-9.27-2.927-9.27l-1.627-3.903
			c1.95-1.301,3.903-3.252,3.903-3.252c-0.163-5.204,2.602-9.106,2.602-9.106h13.011L384.538,105.956z"/>
		<path fill="#3B3029" d="M360.034,339.64l-13.438,2.465l-2.461-0.339l-4.696-0.643v-2.134l-2.386,2.134l-9.543-2.35
			c-1.3-1.951,4.124-7.375,4.124-7.375l6.504-1.08l4.262-3.903l0.853,0.137l14.18,2.243L360.034,339.64z"/>
		<path fill="#251B14" d="M360.034,339.64l-13.438,2.465l-2.461-0.339c1.745-3.114,3.163-6.18,3.163-6.18
			c-3.462-4.896-3.974-8.326-4.046-9.034l14.18,2.243L360.034,339.64z"/>
		<path fill="#726658" d="M383.886,209.33c0,0-0.557,9.303-1.647,21.008c-1.334,14.534-3.491,32.78-6.368,41.435
			c0,0-4.338,26.668-4.338,31.006c0,0-1.044,3.735-2.703,8.805c-2.737,8.352-7.146,20.322-11.264,25.125l-18.107-10.068
			c-0.012-0.012-0.022-0.012-0.022-0.012s3.92-13.758,7.621-29.359c0.557-2.343,1.113-4.732,1.646-7.122l0.012-0.023
			c0.696-3.132,1.357-6.264,1.961-9.314l13.05-69.959l15.543-1.171L383.886,209.33z"/>
		<path fill="#594A42" d="M358.226,335.307c0.668-8.292-0.983-17.85-3.328-26.611c0.003,0.037,0.742,12.11,0.43,21.087
			c-5.116,0.695-15.289-2.936-15.869-3.144l18.107,10.068c0.312-0.363,0.625-0.779,0.938-1.219
			C358.338,335.381,358.226,335.307,358.226,335.307z"/>
		<path fill="#EFC7B0" d="M324.691,142.236l-5.73,6.09c0.035-0.557-0.893-1.751-1.902-2.865c-1.183-1.311-2.481-2.517-2.481-2.517
			c-4.223-1.601-5.626-4.164-5.626-4.164c-0.244-0.186-0.487-0.499-0.72-0.882c-0.73-1.206-1.38-3.074-1.508-3.434
			c-0.012-0.035-0.012-0.058-0.012-0.058l-0.15-0.046l-1.601-0.464c-0.453-1.148-0.569-2.065-0.465-2.784c0-0.011,0-0.023,0-0.023
			c0.14-1.148,0.777-1.798,1.322-2.146c0.43-0.29,0.789-0.371,0.789-0.371c0.499-1.427,1.775-1.775,2.471-1.856
			c0.267-0.035,0.453-0.035,0.453-0.035c0.695-1.392,1.682-1.787,2.284-1.891c0.313-0.058,0.534-0.023,0.534-0.023
			c-1.265-2.134-2.03-4.246-2.03-4.246c-1.658-0.719-4.014-3.387-4.014-3.387c-0.742-1.09,0.325-2.587,0.487-2.726
			c0.534,0.255,6.241,4.106,6.241,4.106c1.206,1.404,2.668,5.046,2.888,5.394l0.023,0.035c-0.023-0.568,0.012-1.067,0.093-1.473
			v-0.023c0.359-1.821,1.415-2.297,2.204-2.378c0.522-0.07,0.939,0.046,0.939,0.046c-0.243,1.601,1.334,7.993,1.334,7.993
			C321.663,135.54,324.691,142.236,324.691,142.236z"/>
		<path fill="#E4B69D" d="M381.774,127.909c-0.657,2.544-0.723,5.159-0.601,7.267l-0.213,0.325c0,0-0.566-9.432-5.106-12.034
			l6.296,1.451L381.774,127.909z"/>
		<path fill="#E4B69D" d="M320.252,142.693l-3.194,2.767c-1.178-1.307-2.479-2.517-2.479-2.517
			c-4.228-1.601-5.632-4.163-5.632-4.163c-0.24-0.182-0.482-0.495-0.716-0.878C313.455,141.92,320.252,142.693,320.252,142.693z"/>
		<path fill="#A41C38" d="M401.749,165.935c-0.231-0.267-2.679-3.097-4.454-3.491c0,11.159-0.499,19.847-9.662,32.167
			c-1.334-3.376-2.297-8.503-3.017-14.431l4.432-37.769C389.048,142.41,397.318,154.277,401.749,165.935z"/>
		<path fill="#251B14" d="M377.878,350.911h-14.357l-1.11-3.388l-2.48,3.388c0,0-5.066-0.546-9.373-1.261
			c-2.775-0.461-5.242-0.987-5.82-1.489c0,0,0.852-7.839,3.167-8.683l6.122-0.847l7.123-4.924l6.335,0.956l0.273,0.038l2.622,0.396
			l7.499,1.14C377.878,336.238,382.516,346.678,377.878,350.911z"/>
		<path fill="#E4B69D" d="M372.413,114.36c0,0-0.508,4.982-1.457,7.91c0,0-1.647,6.068-6.101,7.981
			c0.371-3.128,0.493-5.92,0.493-5.92c-0.091-0.722-1.133-0.891-2.034-0.904c-0.288,0-0.56,0.013-0.782,0.026
			c1.342-0.241,4.541-1.379,5.309-6.817C367.841,116.637,369.499,117.938,372.413,114.36z"/>
		<path fill="#754C29" d="M381.886,127.022c-0.644-0.579-1.056-0.557-4.248-1.161c-4.001-0.761-8.225-1.367-8.225-1.367
			l-0.486-5.691c5.203-7.317,2.029-11.058,2.029-11.058c-3.493-0.325-5.444,4.878-5.444,4.878l-1.789-1.463l2.603-5.529
			c-14.962-7.968-1.3-19.352-1.3-19.352c3.086,3.664,9.104,4.553,9.104,4.553c2.42-0.787,4.898-0.605,7.183,0.04
			c5.225,1.464,9.406,5.327,9.406,5.327C396.734,106.931,381.886,127.022,381.886,127.022z"/>
		<path fill="#603913" d="M381.886,127.022c-0.644-0.579-1.056-0.557-4.248-1.161l1.696-9.771c0.65-2.38,1.086-9.074,1.086-9.074
			c8.829-1.984,1.028-15.208,1.028-15.208l-0.136-0.937c5.225,1.464,9.406,5.327,9.406,5.327
			C396.734,106.931,381.886,127.022,381.886,127.022z"/>
		<path fill="#3B3029" d="M367.757,334.702c-2.089,1.569-4.748,4.177-4.848,7.403c0,0-11.011,0.859-12.353,7.545
			c-2.775-0.461-5.242-0.987-5.82-1.489c0,0,0.852-7.839,3.167-8.683l6.122-0.847l7.123-4.924l6.335,0.956L367.757,334.702z"/>
		<path fill="#726658" d="M381.448,333.623c-3.577,4.553-9.269,7.48-9.269,7.48c-4.554,0.487-13.954-5.796-13.954-5.796
			c1.809-22.452-13.366-54.211-13.366-54.211c-0.975-1.951,0-12.358,0-12.358c-3.29-8.912-2.667-29.122-1.62-44.011
			c0.417-5.926,0.906-11.012,1.229-14.208c0.233-2.262,0.391-3.577,0.391-3.577h33.609c5.633,15.827-5.382,32.512-5.382,32.512
			c-4.339,6.505-8.844,30.274-8.844,30.274c5.204,5.854,8.802,25.894,8.802,25.894C374.451,308.982,381.448,333.623,381.448,333.623
			z"/>
		<path fill="#594A42" d="M383.886,209.33c0,0-0.557,9.303-1.647,21.008c-2.575,2.783-6.682,7.818-9.094,13.896
			c-3.724,9.372-4.617,22.805-4.617,22.805l-3.955,0.998c1.125-5.533,4.872-23.13,8.514-28.582c0,0,9.791-14.813,6.183-29.776
			L383.886,209.33z"/>
		<path fill="#594A42" d="M362.909,210.519c0,0-15.057,2.083-19.357,10.063c0.417-5.926,0.594-6.867,0.917-10.063H362.909z"/>
		<path fill="#EE3356" d="M394.708,172.326c-0.812,11.426-4.628,14.86-8.143,25.23c-0.696,2.041-1.218,4.152-1.276,6.321
			c-0.058,2.077,0.998,3.852,1.148,5.777v0.058c0.023,0.197,0.058,0.383,0.104,0.568c-3.491,2.877-15.021,9.778-37.954,0.511
			c0,0-2.715,0.487-4.524,2.935c0,0-4.211-6.832-5.186-10.741c0,0,1.902-2.366,4.362-6.403l0.011-0.012
			c1.021-1.67,2.135-3.619,3.248-5.812v-0.012c2.981-5.835,5.986-13.339,7.262-21.587l-0.012,0.012
			c-0.29,0.255-4.987,4.28-9.686,6.171c0,0-9.198-7.679-15.718-14.662c0,0-8.537-9.037-12.412-10.335c0,0,1.276-11.426,8.063-13.05
			c0,0,4.141,5.823,8.92,10.498c1.902,1.856,3.897,3.526,5.776,4.594c1.207,0.684,2.366,1.114,3.422,1.16
			c0,0,13.108-22.179,22.864-20.253c0,0,17.597-0.313,24.069,9.117C388.979,143.419,396.158,152.12,394.708,172.326z"/>
		<path fill="#CD294A" d="M383.889,202.632c0,0-13.572,6.54-29.489,3.659c0,0,14.391,5.435,26.453,1.375c0,0-0.896-0.009-5.791,0.36
			C375.062,208.027,376.867,207.185,383.889,202.632z"/>
		<path fill="#CD294A" d="M362.878,161.179c-0.313,0.522-2.911,4.791-6.31,9.628c-3.828,12.597-7.946,19.383-13.317,25.763
			c1.021-1.67,2.135-3.619,3.248-5.812v-0.012c2.981-5.835,5.986-13.339,7.262-21.587
			C359.213,164.601,362.484,161.539,362.878,161.179z"/>
		<path fill="#CD294A" d="M342.114,153.546c-1.415,2.528-2.088,4.686-2.088,4.686s-0.417-1.566,0.047-3.375
			c-3.329-1.96-5.8-5.069-7.157-7.064c1.902,1.856,3.897,3.526,5.776,4.594C339.899,153.07,341.059,153.5,342.114,153.546z"/>
		<path fill="#CD294A" d="M342.927,207.706l5.661,3.086c0,0-2.715,0.487-4.524,2.935c0,0-4.211-6.832-5.186-10.741
			c0,0,2.135,3.375,11.798,3.178C346.384,207.706,342.927,207.706,342.927,207.706z"/>
		<path fill="#594A42" d="M354.526,307.325l-7.47-10.057c0.557-2.343,1.113-4.732,1.646-7.122l0.012-0.023L354.526,307.325z"/>
		<path fill="#594A42" d="M372.589,293.295c0,0-0.066-15.367-4.063-26.255c0,0-6.96-0.861-11.887,4.928
			c6.339-2.378,7.604-2.24,7.604-2.24S369.331,275.188,372.589,293.295z"/>
		<path fill="#E4B69D" d="M370.475,109.363c0.797,0.177-0.026,2.978-0.359,3.876c-0.334,0.898-1.643,1.848-2.465,1.206
			c-0.821-0.642,1.455-0.795,1.665-1.488c0.209-0.693-0.724-0.924-0.219-2.105S370.013,109.26,370.475,109.363z"/>
		<path fill="#E4B69D" d="M306.709,134.408c-0.284-1.289-1.474-2.077-1.474-2.077s0.813,0.937,0.799,1.88L306.709,134.408z"/>
		<path fill="#E4B69D" d="M313.22,126.426c0,0-1.683-1.925-3.688,0.255c0.695-1.392,1.682-1.787,2.284-1.891
			c0.313-0.058,0.534-0.023,0.534-0.023L313.22,126.426z"/>
		<path fill="#E4B69D" d="M310.319,127.818c-0.231-0.221-1.833-1.589-3.712,0.754c0.499-1.427,1.775-1.775,2.471-1.856
			c0.267-0.035,0.453-0.035,0.453-0.035L310.319,127.818z"/>
		<path fill="#E4B69D" d="M307.884,129.396c-1.74-0.325-2.9,0.035-3.388,1.693c0.14-1.148,0.777-1.798,1.322-2.146
			c0.43-0.29,0.789-0.371,0.789-0.371S307.199,128.699,307.884,129.396z"/>
		<path fill="#E4B69D" d="M317.465,126.055l-1.52-2.111c-0.023-0.568,0.012-1.067,0.093-1.473v-0.023
			c0.359-1.821,1.415-2.297,2.204-2.378C316.038,122.192,317.349,125.741,317.465,126.055z"/>
	</g>
	
		<line fill="none" stroke="#FFFFFF" stroke-width="2.5" stroke-miterlimit="10" x1="208.819" y1="110.263" x2="277.453" y2="110.263"/>
	
		<line fill="none" stroke="#FFFFFF" stroke-width="2.5" stroke-miterlimit="10" x1="208.819" y1="119.552" x2="277.453" y2="119.552"/>
	
		<line fill="none" stroke="#FFFFFF" stroke-width="2.5" stroke-miterlimit="10" x1="239.277" y1="128.841" x2="277.453" y2="128.841"/>
	<path fill="#E4E7ED" d="M312.273,178.859H205.517c-3.325,0-6.02-2.695-6.02-6.02v-19.937c0-3.325,2.695-6.02,6.02-6.02h106.756
		c3.325,0,6.021,2.695,6.021,6.02v19.937C318.294,176.164,315.599,178.859,312.273,178.859z"/>
	<path fill="#FFFFFF" d="M310.783,174.376h-20.535c-1.346,0-2.437-1.091-2.437-2.437v-17.183c0-1.345,1.091-2.436,2.437-2.436
		h20.535c1.346,0,2.437,1.091,2.437,2.436v17.183C313.22,173.285,312.129,174.376,310.783,174.376z"/>
	
		<line fill="none" stroke="#FFFFFF" stroke-width="2.5" stroke-miterlimit="10" x1="208.819" y1="153.542" x2="277.453" y2="153.542"/>
	
		<line fill="none" stroke="#FFFFFF" stroke-width="2.5" stroke-miterlimit="10" x1="208.819" y1="162.831" x2="277.453" y2="162.831"/>
	
		<line fill="none" stroke="#FFFFFF" stroke-width="2.5" stroke-miterlimit="10" x1="239.277" y1="172.121" x2="277.453" y2="172.121"/>
	<g>
		<g>
			<path fill="#FFFFFF" d="M273.848,237.915h-34.603l-6.966-30.431h47.067L273.848,237.915z M240.499,236.341h32.034l4.93-27.284
				h-43.208L240.499,236.341z"/>
		</g>
		<g>
			<path fill="#FFFFFF" d="M232.499,208.446L231,201.901c-0.222-0.968-1.07-1.645-2.064-1.645h-5.521v-1.573h5.521
				c1.733,0,3.212,1.179,3.598,2.867l1.499,6.545L232.499,208.446z"/>
		</g>
		<g>
			<path fill="#FFFFFF" d="M272.899,243.698h-29.258c-1.81,0-3.354-1.231-3.758-2.995l-0.778-3.399
				c-0.097-0.423,0.167-0.846,0.591-0.942c0.421-0.1,0.846,0.168,0.943,0.592l0.778,3.399c0.239,1.043,1.153,1.771,2.224,1.771
				h29.258c0.435,0,0.787,0.353,0.787,0.787S273.334,243.698,272.899,243.698z"/>
		</g>
		<g>
			<rect x="255.049" y="208.271" fill="#FFFFFF" width="1.573" height="28.856"/>
		</g>
		<g>
			<rect x="248.588" y="208.271" fill="#FFFFFF" width="1.574" height="28.856"/>
		</g>
		<g>
			
				<rect x="227.477" y="221.912" transform="matrix(0.0675 0.9977 -0.9977 0.0675 447.8083 -33.7117)" fill="#FFFFFF" width="28.922" height="1.574"/>
		</g>
		<g>
			
				<rect x="268.945" y="208.238" transform="matrix(0.9977 0.0682 -0.0682 0.9977 15.8176 -17.8788)" fill="#FFFFFF" width="1.575" height="28.922"/>
		</g>
		<g>
			<rect x="261.509" y="208.271" fill="#FFFFFF" width="1.574" height="28.856"/>
		</g>
		<g>
			<rect x="235.029" y="215.188" fill="#FFFFFF" width="41.984" height="1.573"/>
		</g>
		<g>
			<rect x="236.583" y="221.911" fill="#FFFFFF" width="39.23" height="1.574"/>
		</g>
		<g>
			<rect x="238.124" y="228.642" fill="#FFFFFF" width="36.46" height="1.573"/>
		</g>
		<g>
			<path fill="#FFFFFF" d="M249.375,254.104c-2.008,0-3.641-1.634-3.641-3.641s1.633-3.641,3.641-3.641s3.641,1.634,3.641,3.641
				S251.383,254.104,249.375,254.104z M249.375,248.397c-1.14,0-2.067,0.927-2.067,2.066c0,1.141,0.927,2.067,2.067,2.067
				s2.066-0.927,2.066-2.067C251.441,249.324,250.515,248.397,249.375,248.397z"/>
		</g>
		<g>
			<path fill="#FFFFFF" d="M265.902,254.104c-2.007,0-3.641-1.634-3.641-3.641s1.634-3.641,3.641-3.641s3.641,1.634,3.641,3.641
				S267.909,254.104,265.902,254.104z M265.902,248.397c-1.14,0-2.066,0.927-2.066,2.066c0,1.141,0.927,2.067,2.066,2.067
				c1.141,0,2.067-0.927,2.067-2.067C267.97,249.324,267.043,248.397,265.902,248.397z"/>
		</g>
	</g>
	<g>
		<g>
			<path fill="#F09A39" d="M297.226,234.497L297.226,234.497c-0.245,0-0.476-0.11-0.63-0.3c-0.359-0.441-8.782-10.874-8.782-15.855
				c0-5.19,4.223-9.414,9.412-9.414c5.19,0,9.413,4.224,9.413,9.414c0,4.981-8.425,15.414-8.783,15.855
				C297.701,234.386,297.47,234.497,297.226,234.497z M297.226,210.552c-4.295,0-7.788,3.493-7.788,7.789
				c0,3.365,5.141,10.647,7.788,14.038c2.647-3.391,7.789-10.673,7.789-14.038C305.015,214.045,301.521,210.552,297.226,210.552z"/>
		</g>
		<g>
			<path fill="#F09A39" d="M297.226,223.553c-2.873,0-5.211-2.338-5.211-5.212s2.338-5.212,5.211-5.212
				c2.874,0,5.212,2.338,5.212,5.212S300.1,223.553,297.226,223.553z M297.226,214.753c-1.979,0-3.587,1.61-3.587,3.588
				s1.608,3.587,3.587,3.587c1.978,0,3.588-1.609,3.588-3.587S299.203,214.753,297.226,214.753z"/>
		</g>
		<g>
			<path fill="#F09A39" d="M298.302,252.693h-7.182v-1.624h7.182c2.147,0,3.893-1.747,3.893-3.894s-1.745-3.893-3.893-3.893h-12.299
				c-2.87,0-5.205-2.334-5.205-5.205c0-2.87,2.335-5.205,5.205-5.205h27.65v1.624h-27.65c-1.974,0-3.58,1.606-3.58,3.581
				s1.606,3.581,3.58,3.581h12.299c3.042,0,5.517,2.475,5.517,5.517C303.818,250.218,301.344,252.693,298.302,252.693z"/>
		</g>
	</g>
	<g>
		<g>
			<path fill="#F09A39" d="M214.155,243.906c-5.744,0-10.417-4.673-10.417-10.417c0-5.75,4.673-10.429,10.417-10.429
				c3.19,0,6.157,1.431,8.14,3.927l-1.271,1.01c-1.674-2.104-4.177-3.313-6.869-3.313c-4.849,0-8.793,3.949-8.793,8.805
				c0,4.849,3.944,8.793,8.793,8.793c4.854,0,8.803-3.944,8.803-8.793c0-0.723-0.085-1.424-0.252-2.085l1.573-0.4
				c0.202,0.792,0.304,1.628,0.304,2.485C224.583,239.233,219.905,243.906,214.155,243.906z"/>
		</g>
		<g>
			<path fill="#F09A39" d="M213.016,236.943c-0.208,0-0.416-0.079-0.574-0.238l-4.219-4.219l1.149-1.148l3.644,3.645l16.871-16.871
				l1.149,1.148l-17.446,17.445C213.432,236.864,213.224,236.943,213.016,236.943z"/>
		</g>
	</g>
	<g>
		<polygon fill="#F4BB3A" points="456.17,123.44 423.836,110.264 419.419,128.396 445.848,138.456 		"/>
		<circle fill="#675EAA" cx="436.303" cy="149.571" r="4.26"/>
		<circle fill="#675EAA" cx="416.821" cy="140.671" r="4.259"/>
		<g>
			<g>
				<g>
					<polygon fill="#675EAA" points="443.474,145.81 444.795,142.561 414.679,130.313 422.998,102.075 416.999,97.606 
						414.903,100.417 418.944,103.429 410.42,132.366 					"/>
				</g>
			</g>
		</g>
	</g>
	<g>
		<polygon opacity="0.14" fill="#58595B" points="124.078,58.2 113.515,76.454 136.163,87.683 144.739,68.892 		"/>
		<polygon opacity="0.14" fill="#58595B" points="124.401,51.771 149.979,64.407 146.796,72.274 119.419,58.727 		"/>
		<g>
			<path fill="#F4BB3A" d="M133.139,55.204c-3.766-6.504-4.95-11.315-3.518-14.3c0.416-0.869,1.107-1.706,2.018-2.111
				c1.394-0.62,2.971,0.067,4.195,0.765c1.565,0.892,2.874,2.237,3.504,3.945c0.767,2.074,0.55,4.383-0.017,6.454
				c1.926-2.025,4.383-4.003,7.055-4.675c1.991-0.5,3.883-0.225,5.624,0.82l0.087,0.053l0.071,0.073
				c0.058,0.061,1.412,1.499,0.785,3.546c-0.957,3.125-5.958,5.674-14.861,7.578l-0.321-1.502
				c10.907-2.332,13.273-5.089,13.713-6.526c0.303-0.989-0.199-1.747-0.37-1.966c-1.364-0.787-2.789-0.979-4.351-0.586
				c-4.609,1.156-8.752,7.053-9.91,8.828c-0.188,0.308-0.314,0.497-0.343,0.541l-1.296-0.823c0.027-0.047,0.141-0.234,0.33-0.527
				c0.968-1.612,3.807-6.856,2.363-10.757c-0.374-1.01-1.044-1.872-1.892-2.53c-0.75-0.582-1.895-1.322-2.852-1.475
				c-0.975-0.155-1.789,0.776-2.162,1.574c-0.806,1.723-0.856,5.349,3.478,12.833L133.139,55.204z"/>
		</g>
		<polygon fill="#F15E5F" points="123.076,55.581 112.513,73.835 135.162,85.065 143.737,66.273 		"/>
		<polygon fill="#D55354" points="120.107,60.713 141.377,71.446 144.012,64.903 123.899,54.748 		"/>
		<polygon fill="#F15E5F" points="123.399,49.153 148.978,61.789 145.795,69.656 118.418,56.108 		"/>
		
			<rect x="128.428" y="53.012" transform="matrix(0.8976 0.4409 -0.4409 0.8976 42.8902 -50.6461)" fill="#F4BB3A" width="4.002" height="27.919"/>
		<polygon fill="#ECA538" points="130.577,62.125 134.163,63.899 132.627,67.031 129.055,65.228 		"/>
	</g>
	<g>
		<g opacity="0.14">
			<g>
				<path fill="#58595B" d="M106.835,159.356l-32.246,15.847c-0.891,0.438-1.968,0.071-2.405-0.82l-9.356-19.038
					c-0.438-0.891-0.07-1.968,0.82-2.405l32.245-15.848c0.891-0.438,1.968-0.071,2.406,0.82l9.356,19.037
					C108.093,157.841,107.726,158.918,106.835,159.356z"/>
			</g>
		</g>
		<g>
			<g>
				<path fill="#675EAA" d="M109.968,160.839l-32.246,15.848c-0.891,0.438-1.968,0.07-2.406-0.82L65.96,156.83
					c-0.438-0.891-0.071-1.968,0.82-2.406l32.246-15.848c0.891-0.438,1.968-0.07,2.406,0.82l9.356,19.038
					C111.226,159.325,110.858,160.402,109.968,160.839z"/>
			</g>
		</g>
		<g>
			<g>
				
					<rect x="68.107" y="155.689" transform="matrix(0.8975 -0.4411 0.4411 0.8975 -60.0652 54.814)" fill="#FFFFFF" width="39.524" height="1.829"/>
			</g>
		</g>
		<g>
			<g>
				<path fill="#F4BB3A" d="M101.632,157.549c-0.389-0.79-0.349-1.672,0.013-2.405c-0.568-0.114-1.173-0.059-1.733,0.216
					c-1.35,0.664-1.906,2.296-1.243,3.646c0.663,1.35,2.295,1.906,3.645,1.243c0.56-0.275,0.973-0.722,1.23-1.241
					C102.743,158.847,102.02,158.339,101.632,157.549z"/>
			</g>
			<g>
				<path fill="#F4BB3A" d="M102.875,153.903c-0.56,0.275-0.973,0.721-1.229,1.24c0.801,0.161,1.524,0.669,1.912,1.459
					s0.349,1.672-0.013,2.405c0.567,0.114,1.173,0.06,1.733-0.216c1.35-0.663,1.906-2.295,1.243-3.645
					C105.856,153.796,104.225,153.24,102.875,153.903z"/>
			</g>
			<g>
				<path fill="#F09A39" d="M103.557,156.603c-0.388-0.79-1.111-1.298-1.912-1.459c-0.362,0.733-0.402,1.615-0.013,2.405
					c0.388,0.79,1.111,1.298,1.912,1.458C103.906,158.275,103.945,157.393,103.557,156.603z"/>
			</g>
		</g>
		<g>
			<g>
				
					<rect x="76.326" y="168.961" transform="matrix(0.8975 -0.4411 0.4411 0.8975 -66.9333 51.3647)" fill="#FFFFFF" width="1.374" height="1.374"/>
			</g>
			<g>
				<path fill="#FFFFFF" d="M88.219,164.906l-2.572,1.264l-0.605-1.233l2.571-1.264L88.219,164.906z M83.076,167.434l-2.572,1.264
					l-0.605-1.232l2.571-1.264L83.076,167.434z"/>
			</g>
			<g>
				
					<rect x="90.417" y="162.036" transform="matrix(0.8975 -0.4411 0.4411 0.8975 -62.4338 56.8701)" fill="#FFFFFF" width="1.374" height="1.374"/>
			</g>
		</g>
	</g>
	<g>
		<path opacity="0.14" fill="#58595B" d="M350.097,38.133l22.489,30.79c1.179,1.614,3.411,2.03,5.092,0.949l21.932-14.104
			c1.79-1.151,2.275-3.553,1.073-5.309l-21.811-31.862c-0.667-0.974-1.75-1.58-2.929-1.639l-18.921-0.94
			c-1.829-0.091-3.459,1.144-3.868,2.929l-3.689,16.117C349.221,36.129,349.451,37.25,350.097,38.133z"/>
		<g>
			<path fill="#F15E5F" d="M405.482,50.457L383.667,18.6c-0.662-0.981-1.745-1.581-2.931-1.644l-18.923-0.943
				c-1.72-0.089-3.274,1.019-3.784,2.65c2.268,0.663,3.86,2.09,4.753,3.122c0.268-0.268,0.586-0.484,0.955-0.625
				c1.517-0.625,3.25,0.115,3.861,1.631c0.611,1.517-0.114,3.25-1.631,3.861c-1.529,0.624-3.263-0.115-3.874-1.631
				c-0.179-0.433-0.242-0.879-0.204-1.313c-0.178-0.268-0.573-0.751-1.121-1.274c-0.765-0.714-1.822-1.491-3.186-1.912l-3.326,14.54
				c-0.242,1.07-0.013,2.191,0.638,3.071l22.49,30.786c1.173,1.618,3.402,2.039,5.085,0.956l21.93-14.106
				C406.196,54.623,406.68,52.215,405.482,50.457z"/>
			<g>
				<path fill="#FFFFFF" d="M384.099,33.42l-4.552,23.318c-0.103,0.629-0.352,1.027-0.746,1.197
					c-0.227,0.096-0.487,0.116-0.782,0.058c-0.293-0.059-0.494-0.213-0.602-0.462c-0.082-0.189-0.081-0.459,0.001-0.812
					l4.562-23.498c0.073-0.424,0.157-0.755,0.247-0.99c0.091-0.235,0.29-0.417,0.596-0.55c0.297-0.128,0.57-0.152,0.818-0.077
					c0.25,0.078,0.431,0.248,0.542,0.506C384.264,32.299,384.236,32.736,384.099,33.42z M375.699,41.067
					c0.736,1.707,0.87,3.154,0.4,4.344c-0.47,1.188-1.426,2.092-2.864,2.714c-0.887,0.382-1.759,0.549-2.616,0.5
					c-0.855-0.048-1.645-0.363-2.363-0.944c-0.717-0.582-1.31-1.413-1.776-2.494c-0.501-1.161-0.767-2.197-0.796-3.107
					c-0.03-0.909,0.21-1.712,0.723-2.411c0.512-0.696,1.3-1.276,2.365-1.734c0.769-0.333,1.489-0.516,2.163-0.553
					c0.674-0.035,1.309,0.079,1.904,0.349c0.595,0.268,1.127,0.677,1.6,1.226C374.909,39.505,375.329,40.208,375.699,41.067z
					 M372.877,42.125c-0.506-1.17-1.011-1.962-1.517-2.376c-0.505-0.412-1.108-0.467-1.809-0.165
					c-0.473,0.204-0.793,0.494-0.965,0.87s-0.203,0.834-0.092,1.374c0.11,0.542,0.332,1.196,0.662,1.964
					c0.345,0.796,0.676,1.422,0.994,1.877c0.319,0.456,0.672,0.752,1.058,0.886c0.386,0.136,0.821,0.1,1.304-0.108
					c0.729-0.315,1.104-0.81,1.122-1.485C373.654,44.287,373.4,43.341,372.877,42.125z M395.022,44.229
					c0.736,1.708,0.869,3.155,0.399,4.343c-0.469,1.189-1.424,2.093-2.863,2.714c-0.898,0.387-1.775,0.554-2.635,0.5
					c-0.858-0.053-1.647-0.365-2.366-0.935c-0.72-0.57-1.315-1.4-1.785-2.491c-0.753-1.743-0.951-3.213-0.595-4.409
					c0.354-1.197,1.33-2.14,2.927-2.831c0.769-0.33,1.487-0.514,2.157-0.547c0.67-0.035,1.302,0.074,1.896,0.327
					c0.594,0.252,1.127,0.656,1.601,1.211C394.23,42.665,394.651,43.371,395.022,44.229z M392.198,45.287
					c-0.497-1.152-0.998-1.936-1.505-2.347c-0.504-0.413-1.106-0.469-1.807-0.168c-0.493,0.213-0.824,0.504-0.992,0.873
					c-0.167,0.371-0.203,0.823-0.106,1.359c0.098,0.537,0.313,1.194,0.648,1.971c0.517,1.198,1.035,2.013,1.556,2.446
					c0.519,0.433,1.134,0.497,1.844,0.189c0.719-0.31,1.091-0.806,1.11-1.488C392.969,47.439,392.719,46.494,392.198,45.287z"/>
			</g>
		</g>
		<g>
			<path fill="#D55354" d="M363.732,22.8c-0.322,0-0.636-0.163-0.816-0.458l0,0c-0.017-0.028-1.771-2.829-4.977-3.562
				c-2.224-0.504-4.656,0.077-7.236,1.734c-3.788,2.434-8.788,2.592-12.735,0.403c-3.758-2.083-5.88-5.972-5.822-10.67
				c0.007-0.524,0.434-0.944,0.956-0.944c0.004,0,0.008,0,0.012,0c0.527,0.007,0.95,0.44,0.944,0.968
				c-0.05,4.031,1.667,7.218,4.837,8.974c3.29,1.823,7.62,1.688,10.775-0.339c3.038-1.953,5.973-2.619,8.721-1.983
				c3.997,0.925,6.072,4.283,6.159,4.425c0.273,0.451,0.13,1.039-0.322,1.313C364.072,22.755,363.902,22.8,363.732,22.8z"/>
		</g>
	</g>
	<path fill="#EE3356" d="M62.7,220.095H29.778c-2.885,0-5.223-2.339-5.223-5.224v-22.455c0-2.885,2.338-5.224,5.223-5.224H62.7
		c2.885,0,5.223,2.339,5.223,5.224v22.455C67.923,217.756,65.584,220.095,62.7,220.095z"/>
	<polygon fill="#EE3356" points="61.864,220.095 61.864,225.701 51.079,218.586 	"/>
	<path fill="#FFFFFF" d="M55.366,195.486c-1.362-1.362-3.145-2.043-4.928-2.043c-1.485,0-2.963,0.471-4.203,1.405
		c-1.232-0.935-2.717-1.405-4.195-1.405c-1.79,0-3.573,0.681-4.935,2.043c-2.471,2.479-2.695,6.348-0.674,9.08
		c0.203,0.268,0.428,0.536,0.674,0.782l8.049,8.049c0.597,0.598,1.565,0.598,2.162,0l8.049-8.049
		c0.246-0.246,0.478-0.515,0.681-0.782C58.068,201.833,57.844,197.964,55.366,195.486z"/>
	<circle fill="#F9D285" cx="59.905" cy="133.458" r="2.347"/>
	<circle fill="#F9D285" cx="95.67" cy="182.411" r="1.542"/>
	<circle fill="#F9D285" cx="88.374" cy="69.656" r="2.618"/>
	<circle fill="#F9D285" cx="451.657" cy="189.992" r="1.964"/>
	<circle fill="#F9D285" cx="399.508" cy="131.074" r="2.101"/>
	<circle fill="#F9D285" cx="453.622" cy="92.432" r="3.351"/>
	<circle fill="#F9D285" cx="392.153" cy="81.085" r="2.748"/>
	<circle fill="#F9D285" cx="406.84" cy="22.8" r="2.321"/>
	<circle fill="#F9D285" cx="146.854" cy="10.012" r="2.123"/>
	<circle fill="#F9D285" cx="258.896" cy="17.648" r="2.831"/>
	<circle fill="#F9D285" cx="302.675" cy="20.479" r="2.32"/>
	<circle fill="#F7A9AF" cx="113.515" cy="115.266" r="2.994"/>
	<circle fill="#F7A9AF" cx="52.167" cy="174.318" r="1.881"/>
	<circle fill="#F7A9AF" cx="83.347" cy="87.683" r="1.695"/>
	<circle fill="#F7A9AF" cx="171.463" cy="27.02" r="2.57"/>
	<circle fill="#F7A9AF" cx="234.033" cy="4.292" r="1.808"/>
	<circle fill="#F7A9AF" cx="311.668" cy="9.304" r="1.552"/>
	<circle fill="#F7A9AF" cx="426.162" cy="68.366" r="3.081"/>
	<circle fill="#F7A9AF" cx="427.245" cy="173.51" r="1.997"/>
</g>
</svg>
