<?xml version="1.0" encoding="utf-8"?>
<!-- Generator: Adobe Illustrator 16.0.0, SVG Export Plug-In . SVG Version: 6.00 Build 0)  -->
<!DOCTYPE svg PUBLIC "-//W3C//DTD SVG 1.1//EN" "http://www.w3.org/Graphics/SVG/1.1/DTD/svg11.dtd">
<svg version="1.1" id="Layer_1" xmlns="http://www.w3.org/2000/svg" xmlns:xlink="http://www.w3.org/1999/xlink" x="0px" y="0px"
	 width="325.75px" height="325.75px" viewBox="0 0 325.75 325.75" enable-background="new 0 0 325.75 325.75" xml:space="preserve">
<g id="BACKGROUND">
</g>
<rect fill="#FFFFFF" width="325.75" height="325.75"/>
<path fill="#E8FBFF" d="M109.77,121.892H7.695c0,0,10.84,0.602,12.345-10.84c1.505-11.442,14.754-16.16,24.39-9.435
	c9.636,6.725,15.356,3.212,21.078,0c5.721-3.211,12.646-1.104,17.464,6.123c4.817,7.227,8.614,7.735,13.851,6.625
	C103.447,112.959,105.253,121.591,109.77,121.892z"/>
<path fill="#E8FBFF" d="M194.123,39.085h102.075c0,0-10.839,0.603-12.347-10.84c-1.504-11.442-14.754-16.159-24.389-9.435
	c-9.636,6.725-15.355,3.212-21.078,0c-5.721-3.212-12.646-1.104-17.464,6.123s-8.614,7.735-13.851,6.624
	C200.447,30.152,198.641,38.784,194.123,39.085z"/>
<path fill="#BAF1FF" d="M182.094,58.686H37.445c0,0,15.361,0.854,17.495-15.361c2.133-16.214,20.908-22.899,34.562-13.37
	c13.654,9.53,21.761,4.551,29.869,0c8.107-4.551,17.921-1.565,24.749,8.676c6.827,10.24,12.207,10.961,19.627,9.387
	C173.134,46.027,175.693,58.26,182.094,58.686z"/>
<rect y="193.689" fill="#FFFFFF" width="325.75" height="132.061"/>
<ellipse transform="matrix(0.0533 -0.9986 0.9986 0.0533 -194.1566 379.1889)" fill="#DEDEDE" cx="102.904" cy="291.992" rx="4.146" ry="58.791"/>
<g>
	<path fill="#99BFC9" d="M153.507,295.749l-95.475-9.021l-20.186-6.549l0,0l21.055-2.652l95.475,9.021
		c3.458,0.327,5.541,2.612,5.302,5.144l0,0C159.439,294.221,156.965,296.076,153.507,295.749z"/>
	<path fill="#779AA3" d="M153.752,293.158l-95.475-9.021l-20.431-3.957l0,0l20.811-0.062l95.475,9.021
		c3.458,0.326,5.651,1.446,5.546,2.551l0,0C159.574,292.796,157.21,293.484,153.752,293.158z"/>
	<polygon fill="#DEDEDE" points="58.032,286.729 37.846,280.18 37.846,280.18 58.901,277.527 	"/>
	<polygon fill="#003757" points="47.54,278.959 37.846,280.18 47.14,283.195 	"/>
	
		<rect x="141.403" y="285.952" transform="matrix(-0.9956 -0.0941 0.0941 -0.9956 267.3563 593.7582)" fill="#005C91" width="12.562" height="9.242"/>
	
		<rect x="145.71" y="285.955" transform="matrix(-0.9956 -0.0942 0.0942 -0.9956 267.3515 593.7673)" fill="#003757" width="3.951" height="9.242"/>
</g>
<ellipse fill="#DEDEDE" cx="47.894" cy="215.767" rx="36.328" ry="5.978"/>
<ellipse fill="#DEDEDE" cx="282.085" cy="213.184" rx="36.327" ry="5.978"/>
<ellipse fill="#DEDEDE" cx="265.825" cy="292.163" rx="30.373" ry="5.978"/>
<ellipse fill="#DEDEDE" cx="234.921" cy="277.527" rx="23.963" ry="4.716"/>
<ellipse fill="#DEDEDE" cx="60.595" cy="266.973" rx="30.374" ry="5.978"/>
<ellipse fill="#DEDEDE" cx="188.348" cy="286.657" rx="30.375" ry="5.978"/>
<ellipse fill="#DEDEDE" cx="170.712" cy="263.962" rx="90.496" ry="11.195"/>
<g>
	<path fill="#133447" d="M72.247,182.249c-0.013-3.742-0.771-7.31-2.133-10.56l6.563-2.752c-1.766-4.213-4.31-7.985-7.563-11.216
		l-5.015,5.05c-2.548-2.53-5.587-4.563-8.961-5.948l2.706-6.585c-4.186-1.72-8.62-2.592-13.178-2.592h-0.085l0.043,7.116
		c-3.752,0.005-7.327,0.761-10.586,2.124l-2.745-6.566c-4.214,1.762-7.99,4.303-11.224,7.552l5.044,5.019
		c-2.532,2.544-4.568,5.583-5.957,8.957l-6.583-2.713c-1.729,4.196-2.605,8.641-2.605,13.209l0.002,0.17l6.528-0.113h0.585
		c0.007,3.736,0.76,7.299,2.113,10.547l-6.57,2.736c1.757,4.217,4.294,7.996,7.542,11.232l5.023-5.039
		c2.543,2.535,5.579,4.573,8.95,5.967l-2.719,6.579c4.205,1.737,8.66,2.618,13.242,2.618h0.338l0.337-0.032l-0.646-7.077v-0.005
		c3.737-0.004,7.298-0.754,10.547-2.104l2.732,6.572c4.218-1.752,7.999-4.285,11.239-7.527l-5.033-5.028
		c2.538-2.541,4.579-5.575,5.976-8.944l6.577,2.724c1.746-4.216,2.631-8.681,2.631-13.349L72.247,182.249z M44.666,195.537
		c-7.287,0-13.194-5.907-13.194-13.194c0-7.286,5.907-13.194,13.194-13.194s13.194,5.908,13.194,13.194
		C57.86,189.63,51.953,195.537,44.666,195.537z"/>
	<path fill="#1E5370" d="M44.666,154.76c-15.233,0-27.583,12.35-27.583,27.583c0,15.234,12.35,27.583,27.583,27.583
		c15.234,0,27.583-12.349,27.583-27.583C72.249,167.109,59.9,154.76,44.666,154.76z M44.666,195.537
		c-7.287,0-13.194-5.907-13.194-13.194c0-7.286,5.907-13.194,13.194-13.194s13.194,5.908,13.194,13.194
		C57.86,189.63,51.953,195.537,44.666,195.537z"/>
	<circle fill="#133447" cx="44.666" cy="182.343" r="8.09"/>
</g>
<g>
	<path fill="#003C5E" d="M309.359,184.27c0.557-3.701,0.35-7.342-0.503-10.762l6.903-1.721c-1.104-4.434-3.046-8.548-5.77-12.236
		l-5.725,4.229c-2.134-2.888-4.828-5.358-7.953-7.241l3.676-6.098c-3.877-2.336-8.125-3.873-12.631-4.565l-0.084-0.013l-1.039,7.039
		c-3.709-0.564-7.357-0.36-10.785,0.49l-1.715-6.907c-4.435,1.101-8.553,3.039-12.241,5.758l4.223,5.728
		c-2.89,2.13-5.362,4.823-7.249,7.945l-6.095-3.681c-2.347,3.885-3.888,8.146-4.582,12.66l-0.022,0.168l6.469,0.881l0.578,0.09
		c-0.561,3.693-0.357,7.328,0.485,10.744l-6.909,1.707c1.096,4.435,3.028,8.555,5.745,12.248l5.731-4.217
		c2.128,2.893,4.818,5.367,7.939,7.258l-3.688,6.09c3.892,2.355,8.161,3.904,12.69,4.601l0.334,0.052l0.336,0.021l0.438-7.095
		v-0.006c3.694,0.564,7.328,0.365,10.744-0.476l1.702,6.912c4.436-1.092,8.558-3.021,12.252-5.733l-4.211-5.733
		c2.896-2.125,5.373-4.814,7.268-7.933l6.086,3.69c2.366-3.901,3.92-8.181,4.629-12.793L309.359,184.27z M279.176,199.082
		c-10.443-1.605-17.609-11.376-16.004-21.82c1.605-10.445,11.377-17.61,21.822-16.004c10.443,1.606,17.609,11.376,16.003,21.821
		C299.391,193.523,289.621,200.688,279.176,199.082z"/>
	<path fill="#133447" d="M286.277,152.907c-15.057-2.315-29.139,8.013-31.455,23.069c-2.315,15.058,8.014,29.141,23.07,31.455
		c15.056,2.315,29.139-8.013,31.454-23.068C311.662,169.307,301.334,155.223,286.277,152.907z M279.176,199.082
		c-10.443-1.605-17.609-11.376-16.004-21.82c1.605-10.445,11.376-17.61,21.822-16.004c10.443,1.606,17.609,11.376,16.003,21.821
		C299.391,193.523,289.621,200.688,279.176,199.082z"/>
</g>
<g>
	<polygon fill="#003757" points="218.828,246.926 106.922,246.926 113.878,217.432 211.872,217.432 	"/>
	<path fill="#005C91" d="M224.333,264.415H101.417c-5.747,0-10.448-4.7-10.448-10.447l0,0c0-5.745,4.701-10.448,10.448-10.448
		h122.916c5.746,0,10.448,4.703,10.448,10.448l0,0C234.781,259.715,230.079,264.415,224.333,264.415z"/>
	<path fill="#003757" d="M224.333,255.718H101.417c-4.195,0-7.824-2.511-9.482-6.099c-0.613,1.326-0.965,2.797-0.965,4.349l0,0
		c0,5.746,4.701,10.447,10.448,10.447h122.916c5.746,0,10.448-4.701,10.448-10.447l0,0c0-1.552-0.353-3.021-0.966-4.349
		C232.156,253.207,228.527,255.718,224.333,255.718z"/>
	<path fill="#5498BF" d="M179.044,248.887h-63.712c-0.741,0-1.347-0.605-1.347-1.347l0,0c0-0.74,0.606-1.347,1.347-1.347h63.712
		c0.741,0,1.347,0.605,1.347,1.347l0,0C180.391,248.279,179.785,248.887,179.044,248.887z"/>
	<path fill="#5498BF" d="M210.418,248.887h-22.984c-0.74,0-1.348-0.605-1.348-1.347l0,0c0-0.74,0.605-1.347,1.348-1.347h22.984
		c0.74,0,1.348,0.605,1.348,1.347l0,0C211.766,248.279,211.158,248.887,210.418,248.887z"/>
	<path fill="#005C91" d="M276.718,219.023H49.033c-2.949,0-5.361-2.412-5.361-5.36V78.062c0-2.948,2.413-5.361,5.361-5.361h227.685
		c2.948,0,5.36,2.413,5.36,5.361v135.602C282.078,216.611,279.666,219.023,276.718,219.023z"/>
	<path fill="#003C5E" d="M273.124,199.473H52.625c-2.496,0-4.539-2.043-4.539-4.539V86.7c0-2.496,2.043-4.539,4.539-4.539h220.499
		c2.497,0,4.54,2.042,4.54,4.539v108.233C277.664,197.43,275.621,199.473,273.124,199.473z"/>
	<path fill="#BAF1FF" d="M271.199,197.482H54.551c-2.432,0-4.421-1.99-4.421-4.422V88.573c0-2.432,1.989-4.421,4.421-4.421h216.648
		c2.432,0,4.422,1.99,4.422,4.421v104.487C275.621,195.492,273.631,197.482,271.199,197.482z"/>
	<path fill="#99D0DE" d="M64.523,197.466h196.702l5.793-113.25c-0.265-0.051-0.535-0.08-0.812-0.08H59.543
		c-0.276,0-0.546,0.029-0.811,0.08L64.523,197.466z"/>
	<circle fill="#E8FBFF" cx="162.875" cy="209.203" r="5.477"/>
	<circle fill="#003757" cx="162.875" cy="209.203" r="3.724"/>
	<rect x="64.542" y="51.217" fill="#FFFFFF" width="196.666" height="146.266"/>
	<path fill="#005C91" d="M176.968,153.747h-7.853c-1.865,0-3.391-1.526-3.391-3.39v-7.854c0-1.865,1.524-3.39,3.391-3.39h7.853
		c1.865,0,3.392,1.525,3.392,3.39v7.854C180.357,152.221,178.833,153.747,176.968,153.747z"/>
	<path fill="#BAF1FF" d="M201.105,153.747h-7.854c-1.864,0-3.39-1.526-3.39-3.39v-7.854c0-1.865,1.524-3.39,3.39-3.39h7.854
		c1.865,0,3.391,1.525,3.391,3.39v7.854C204.496,152.221,202.971,153.747,201.105,153.747z"/>
	<path fill="#8BC9D9" d="M249.38,153.747h-7.854c-1.863,0-3.391-1.526-3.391-3.39v-7.854c0-1.865,1.526-3.39,3.391-3.39h7.854
		c1.865,0,3.392,1.525,3.392,3.39v7.854C252.771,152.221,251.245,153.747,249.38,153.747z"/>
	<path fill="#FF9CBD" d="M225.243,153.747h-7.854c-1.863,0-3.391-1.526-3.391-3.39v-7.854c0-1.865,1.525-3.39,3.391-3.39h7.854
		c1.864,0,3.39,1.525,3.39,3.39v7.854C228.633,152.221,227.107,153.747,225.243,153.747z"/>
	<polygon fill="#BAF1FF" points="126.793,178.803 116.544,178.803 112.615,197.466 131.278,197.466 	"/>
	<rect x="73.191" y="140.817" fill="#BAF1FF" width="21.911" height="56.648"/>
	<polygon fill="#BAF1FF" points="114.418,197.466 92.507,197.466 99.995,166.994 110.128,166.994 	"/>
	<rect x="72.959" y="91.668" fill="#FF9CBD" width="87.168" height="40.379"/>
	<circle fill="#FFFFFF" cx="93.162" cy="111.857" r="12.492"/>
	<path fill="#005C91" d="M92.234,117.694L92.234,117.694c-0.617,0.617-1.627,0.617-2.244,0l-4.522-4.522
		c-0.617-0.617-0.617-1.626,0-2.244l0,0c0.617-0.617,1.627-0.617,2.244,0l4.522,4.522C92.852,116.067,92.852,117.077,92.234,117.694
		z"/>
	<path fill="#005C91" d="M90.058,117.611L90.058,117.611c-0.617-0.617-0.617-1.627,0-2.244l7.844-7.842
		c0.617-0.617,1.627-0.617,2.244,0l0,0c0.617,0.617,0.617,1.626,0,2.244l-7.844,7.842C91.685,118.229,90.675,118.229,90.058,117.611
		z"/>
	<rect x="165.73" y="91.668" fill="#BAF1FF" width="87.17" height="40.379"/>
	<rect x="67.196" y="54.08" fill="#BAF1FF" width="191.356" height="9.229"/>
	<rect x="108.877" y="56.762" fill="#8BC9D9" width="107.995" height="3.864"/>
	<g>
		<g>
			<path fill="#FFFFFF" d="M250.585,61.131L250.585,61.131c-0.166-0.166-0.166-0.438,0-0.603l4.271-4.271
				c0.166-0.166,0.438-0.166,0.604,0l0,0c0.166,0.166,0.166,0.438,0,0.603l-4.271,4.271
				C251.021,61.297,250.751,61.297,250.585,61.131z"/>
			<path fill="#FFFFFF" d="M255.459,61.131L255.459,61.131c0.166-0.166,0.166-0.438,0-0.603l-4.271-4.271
				c-0.166-0.166-0.438-0.166-0.604,0l0,0c-0.166,0.166-0.166,0.438,0,0.603l4.271,4.271
				C255.021,61.297,255.293,61.297,255.459,61.131z"/>
		</g>
		<g>
			<path fill="#FFFFFF" d="M244.538,56.468c1.228,0,2.226,0.999,2.226,2.226s-0.998,2.227-2.226,2.227
				c-1.229,0-2.228-0.999-2.228-2.227S243.311,56.468,244.538,56.468 M244.538,55.816c-1.59,0-2.878,1.288-2.878,2.877
				c0,1.589,1.287,2.878,2.878,2.878c1.589,0,2.877-1.289,2.877-2.878C247.415,57.104,246.127,55.816,244.538,55.816L244.538,55.816
				z"/>
		</g>
		<g>
			<path fill="#FFFFFF" d="M238.648,61.116h-5.19c-0.181,0-0.325-0.146-0.325-0.326s0.146-0.326,0.325-0.326h5.19
				c0.18,0,0.324,0.146,0.324,0.326C238.975,60.97,238.828,61.116,238.648,61.116z"/>
		</g>
	</g>
	<g>
		<g>
			<path fill="#FFFFFF" d="M75.786,60.93h-5.189c-0.18,0-0.326-0.146-0.326-0.326s0.146-0.326,0.326-0.326h5.189
				c0.18,0,0.326,0.146,0.326,0.326S75.966,60.93,75.786,60.93z"/>
		</g>
	</g>
	<g>
		<g>
			<path fill="#FFFFFF" d="M75.786,59.02h-5.189c-0.18,0-0.326-0.146-0.326-0.326c0-0.18,0.146-0.326,0.326-0.326h5.189
				c0.18,0,0.326,0.146,0.326,0.326C76.112,58.874,75.966,59.02,75.786,59.02z"/>
		</g>
	</g>
	<g>
		<g>
			<path fill="#FFFFFF" d="M75.786,57.109h-5.189c-0.18,0-0.326-0.146-0.326-0.326c0-0.18,0.146-0.326,0.326-0.326h5.189
				c0.18,0,0.326,0.146,0.326,0.326C76.112,56.963,75.966,57.109,75.786,57.109z"/>
		</g>
	</g>
	<path fill="#FFFFFF" d="M149.319,114.302h-36.553c-0.954,0-1.734-0.78-1.734-1.734l0,0c0-0.954,0.78-1.734,1.734-1.734h36.553
		c0.954,0,1.734,0.781,1.734,1.734l0,0C151.054,113.522,150.273,114.302,149.319,114.302z"/>
	<path fill="#FFFFFF" d="M149.319,106.483h-36.553c-0.954,0-1.734-0.78-1.734-1.734l0,0c0-0.954,0.78-1.734,1.734-1.734h36.553
		c0.954,0,1.734,0.781,1.734,1.734l0,0C151.054,105.703,150.273,106.483,149.319,106.483z"/>
	<path fill="#FFFFFF" d="M149.319,122.122h-36.553c-0.954,0-1.734-0.78-1.734-1.734l0,0c0-0.954,0.78-1.734,1.734-1.734h36.553
		c0.954,0,1.734,0.78,1.734,1.734l0,0C151.054,121.341,150.273,122.122,149.319,122.122z"/>
	<path opacity="0.15" enable-background="new    " d="M115.14,169.952h-1.877v-0.11c0-0.638-0.521-1.158-1.159-1.158h-8.975
		c-0.637,0-1.159,0.521-1.159,1.158v1.319c0,0.637,0.522,1.159,1.159,1.159h8.975c0.638,0,1.159-0.522,1.159-1.159v-0.11h1.328
		v3.258h-6.975c-0.302,0-0.549,0.246-0.549,0.549v4.168c-0.676,0.23-1.169,0.867-1.169,1.619v2.637
		c-0.379,0.262-0.854,0.555-1.462,0.885c-1.05,0.57-1.489,1.21-1.657,1.744c-3.183,0.763-7.463,1.811-11.4,2.517
		c-4.635,0.851-8.753,1.257-9.81,1.374c-0.177,0.021-0.347,0.045-0.511,0.071c-0.212-0.243-0.447-0.463-0.729-0.631
		c0,0-3.542,0.673-6.224,1.096c-0.222,0.035-1.106,0.251-2.382,0.452c-0.051-0.441-0.077-0.816-0.086-1.133
		c1.004-0.331,1.856-0.979,2.428-1.996c2.534-4.508,1.595-8.645,0.116-11.449l0.001-0.002c0,0-1.759-7.424-10.217-5.157
		c-5.672,1.521-7.138,11.837-7.49,18.474c-0.189-0.104-0.383-0.217-0.585-0.336c-1.375-0.842-3.013-2.061-4.388-3.709
		c-1.403-1.621-2.517-3.67-3.235-5.762c-0.525-1.466-0.84-2.938-1.074-4.254c0.452-0.371,0.919-1.09,0.891-2.486
		c-0.054-2.668,0.37-3.379,0.713-3.85c0.344-0.471-0.782-1.172-1.532,0.631c-0.75,1.805-0.75,1.805-0.75,1.805
		s-1.011-3.976-2.352-5.125c-0.186-0.16-0.347-0.211-0.491-0.189v8.791c0.197,0.186,0.406,0.352,0.625,0.48
		c-0.147,1.492-0.158,3.246,0.148,5.119c0.19,1.321,0.571,2.683,1.066,4.021c0.501,1.338,1.191,2.623,1.97,3.801
		c1.557,2.376,3.576,4.192,5.283,5.42c1.724,1.218,3.136,1.897,3.722,2.155c0.25,0.111,0.49,0.201,0.723,0.283
		c-0.086,0.406-0.161,0.822-0.21,1.259c0,0,1.443,0.597,4.287,0.899c0,0,6.177,4.31,2.101,13.684
		c-1.015,2.334-1.871,4.643-2.611,6.863h19.383c-0.623-2.389-1.399-4.742-2.369-6.863c-3.358-7.348,1.066-8.797,1.173-13.857
		c0,0,2.006-0.119,3.245-1.219c0,0,0.098-0.607,0.144-1.49c1.256-0.15,5.555-0.869,10.216-2.307
		c4.008-1.217,8.241-2.977,11.191-4.622c0.481,0.292,1.173,0.442,2.139,0.403v1.75c0,0.945,0.773,1.719,1.719,1.719
		c0.946,0,1.719-0.773,1.719-1.719v-2.537c2.35-1.131,4.109-3.449,2.721-3.946c-0.671-0.239-1.714-0.204-2.721-0.078v-3.612
		c0-0.752-0.493-1.389-1.17-1.619v-3.618h6.974c0.302,0,0.55-0.247,0.55-0.55v-4.354
		C115.689,170.199,115.442,169.952,115.14,169.952z"/>
	<path opacity="0.15" enable-background="new    " d="M258.953,90.239c-1.587,0.764-3.508,4.358-3.508,4.358s0,0-0.317-1.948
		c-0.319-1.95-1.592-1.565-1.362-1.017c0.229,0.547,0.48,1.351-0.191,3.927c-0.354,1.35-0.061,2.17,0.298,2.648
		c-0.535,1.216-1.188,2.562-2.045,3.845c-1.192,1.84-2.765,3.535-4.522,4.742c-1.611,1.151-3.359,1.88-4.844,2.346
		c-0.379-1.045-0.658-1.679-0.658-1.679c-3.738,3.2-7.945,3.799-11.219,3.625c0.256-1.667,0.288-2.957,0.221-3.921
		c0.365-0.15,0.729-0.314,1.086-0.505c0.396-0.21,0.758-0.442,1.105-0.683c2.107-0.603,3.727-2.584,4.82-4.709
		c1.761-3.417,1.68-8.318-2.062-11.068c-3.668-2.697-6.776-2.548-11.403-2.319c0,0-1.143,2.128,0.297,4.816
		c-2.476,2.104-5.082,5.884-3.897,11.416c0.479,2.241,2.377,3.55,4.776,3.853c-0.002,0.532-0.051,1.248-0.192,2.175
		c-0.144-0.041-0.248-0.071-0.303-0.08c-2.742-0.479-8.709-3.941-8.709-3.941c-0.726,0.413-1.407,1.105-2.024,1.912
		c-0.137-0.129-0.279-0.263-0.432-0.4c-1.016-1.062-2.11-2.592-2.911-4.484c-0.175-0.483-0.414-0.955-0.562-1.468
		c-0.142-0.52-0.281-1.043-0.424-1.566c-0.087-0.26-0.134-0.53-0.166-0.803l-0.128-0.813c-0.045-0.271-0.089-0.542-0.133-0.81
		c-0.054-0.269-0.09-0.538-0.093-0.809c-0.035-0.542-0.068-1.074-0.102-1.593c-0.043-0.521-0.091-1.031-0.062-1.521
		c0.005-0.379,0.007-0.745,0.005-1.102c0.516-0.285,1.098-0.915,1.279-2.31c0.354-2.67,0.893-3.3,1.313-3.703
		c0.421-0.404-0.616-1.319-1.655,0.337c-0.349,0.557-0.58,0.926-0.733,1.172c-0.304,0.484-0.304,0.484-0.304,0.484
		s-0.424-4.162-1.614-5.569c-1.19-1.409-3.222,2.395-2.733,5.472c0.307,1.93,0.811,3.086,1.434,3.725
		c-0.096,0.322-0.189,0.652-0.285,0.999c-0.164,0.512-0.248,1.069-0.331,1.647c-0.083,0.583-0.168,1.181-0.254,1.79
		c-0.054,0.306-0.07,0.62-0.068,0.941c-0.005,0.321-0.01,0.644-0.015,0.969c-0.002,0.327-0.006,0.655-0.008,0.984
		c-0.008,0.33,0,0.662,0.052,0.998c0.083,0.674,0.166,1.35,0.249,2.021c0.104,0.673,0.316,1.336,0.479,1.997
		c0.745,2.63,2.102,5.005,3.476,6.665c0.704,0.776,1.319,1.461,1.895,1.937c-0.183,0.446-0.286,0.73-0.286,0.73l0,0
		c1.063,1.028,2.342,1.808,3.6,2.393c0.503,0.234,1.002,0.437,1.482,0.613c0.479,0.175,0.94,0.323,1.367,0.447
		c0.641,0.187,1.203,0.319,1.639,0.41c0.289,0.06,0.521,0.102,0.683,0.128c0.161,0.027,0.249,0.039,0.249,0.039
		c0.104,2.793,0,5.509-0.227,8.047c-0.063,0.725-0.139,1.435-0.221,2.128c-0.04,0.346-0.083,0.689-0.128,1.027
		c-0.269,2.027-0.599,3.892-0.937,5.533c-0.057,0.273-0.112,0.541-0.17,0.802c-0.112,0.521-0.226,1.017-0.336,1.483
		c-0.033,0.142-0.066,0.276-0.101,0.412l-0.64-0.009l-0.086-5.341c-0.01-0.604-0.518-1.102-1.133-1.111
		c-0.615-0.009-1.106,0.473-1.097,1.077l0.239,14.532l0,0l0,0l0.922,56.067l0.131,7.925l0,0l0,0l0.141,8.479h32.047l-0.006-0.572
		v-0.001l0,0l-0.261-23.636l0,0l0,0l-0.087-7.92l0,0l0,0l-0.088-7.941l0,0l0,0l-0.087-7.963l0,0l0,0l-0.088-7.985l0,0l0,0
		L247.902,155l0,0l0,0l-0.176-16.077l0,0l0,0l-0.07-6.398c-0.008-0.601-0.506-1.095-1.114-1.105
		c-0.608-0.009-1.099,0.47-1.091,1.071l0.06,5.314l-3.463-0.05c-0.163-0.358-0.319-0.717-0.469-1.08
		c-0.403-0.982-0.759-1.979-1.072-2.976c-0.313-0.997-0.585-1.992-0.819-2.97c-1.569-6.527-1.515-12.256-1.515-12.257
		c0.187,0.008,0.373,0.009,0.56,0.003c0.563-0.019,1.125-0.096,1.666-0.208c1.625-0.337,3.058-0.987,3.672-1.292
		c0.205-0.102,0.32-0.164,0.32-0.164c-0.092-0.741-0.22-1.471-0.363-2.181c0.029-0.011,0.059-0.021,0.089-0.032
		c1.965-0.745,4.372-1.981,6.454-3.876c1.039-0.939,2.016-2.003,2.818-3.167c0.797-1.167,1.487-2.385,1.98-3.614
		c0.736-1.735,1.134-3.437,1.337-4.921c1.135-0.322,2.253-1.266,2.554-2.874C259.77,93.415,260.539,89.475,258.953,90.239z
		 M235.545,167.137l-7.904,0.018c-0.063-1.909-0.14-3.933-0.207-5.977l7.271-0.018C234.992,163.208,235.27,165.234,235.545,167.137z
		 M233.854,155.4c0.186,1.166,0.363,2.361,0.537,3.563l-7.026,0.019c-0.036-1.308-0.067-2.609-0.083-3.877
		c-0.012-0.701-0.018-1.388-0.021-2.063l6.225-0.018C233.609,153.796,233.734,154.59,233.854,155.4z M227.387,146.346
		c0.024-0.5,0.053-0.96,0.082-1.395l0.485-0.001c0.45,0.077,0.916,0.131,1.412,0.13c0.704-0.002,1.372-0.05,2-0.141l0.646-0.002
		c0.124,0.609,0.262,1.292,0.405,2.05c0.215,1.147,0.454,2.448,0.699,3.853l-5.853,0.017
		C227.279,149.197,227.32,147.664,227.387,146.346z M216.837,137.083l-0.003-0.133h0.038
		C216.859,136.994,216.85,137.038,216.837,137.083z M216.962,142.816l-0.073-3.365c1.012,0.349,2.018,0.648,3.012,0.895
		c-0.008,0.068-0.021,0.131-0.027,0.199c-0.01,0.087-0.021,0.191-0.031,0.303c-0.006,0.059-0.011,0.122-0.017,0.187
		c-0.005,0.039-0.007,0.079-0.011,0.12c-0.035,0.435-0.068,0.989-0.094,1.651L216.962,142.816z M217.137,150.887l-0.128-5.902
		l2.681-0.009c0.002,0.359,0.008,0.729,0.018,1.115c0.033,1.437,0.122,3.06,0.268,4.788L217.137,150.887z M217.186,153.069
		l2.991-0.009c0.082,0.789,0.175,1.592,0.28,2.405c0.146,1.165,0.316,2.349,0.502,3.533l-3.646,0.009L217.186,153.069z
		 M217.361,161.202l3.962-0.01c0.358,2.052,0.764,4.074,1.192,5.974l-5.024,0.011L217.361,161.202z M217.539,169.387l5.5-0.014
		c0.275,1.115,0.559,2.166,0.842,3.136c-0.354,0.339-0.678,0.814-0.938,1.501c-0.193,0.508-0.219,0.971-0.15,1.377l-5.122,0.01
		L217.539,169.387z M246.087,211.051l0.197,6.205l-27.704,0.002l-0.135-6.197L246.087,211.051z M246.014,208.771l-27.617,0.012
		l-0.135-6.161l27.557-0.021L246.014,208.771z M245.551,194.206l0.194,6.13l-27.532,0.021l-0.134-6.123L245.551,194.206z
		 M245.479,191.954l-27.447,0.032l-0.133-6.086l27.387-0.039L245.479,191.954z M244.949,175.346l-2.729,0.006
		c-0.009-0.061-0.005-0.117-0.018-0.179c-0.063-0.288-0.167-0.582-0.327-0.866c-0.462-0.824-1.13-1.41-1.856-1.768
		c0.133-0.973,0.25-2.051,0.351-3.202l4.389-0.01L244.949,175.346z M244.688,167.116l-4.152,0.01
		c0.119-1.894,0.195-3.919,0.222-5.982l3.741-0.009L244.688,167.116z M244.427,158.938l-3.663,0.009
		c-0.008-1.354-0.035-2.706-0.09-4.03c-0.021-0.647-0.048-1.285-0.08-1.915l3.646-0.01L244.427,158.938z M244.168,150.808
		l-3.708,0.011c-0.126-1.763-0.283-3.407-0.442-4.837c-0.041-0.373-0.086-0.727-0.129-1.07l4.092-0.013L244.168,150.808z
		 M242.881,139.132c-0.525-0.724-1.007-1.486-1.451-2.27l2.295-0.008l0.188,5.874l-4.328,0.014c-0.04-0.25-0.077-0.477-0.113-0.689
		l0,0c-0.003-0.021-0.007-0.039-0.011-0.06c-0.03-0.189-0.063-0.361-0.091-0.518c-0.012-0.063-0.021-0.123-0.032-0.179
		c-0.01-0.052-0.021-0.102-0.028-0.149c-0.021-0.104-0.037-0.201-0.055-0.28c-0.043-0.209-0.089-0.41-0.138-0.605
		C241.48,139.692,242.881,139.132,242.881,139.132z M236.938,177.602l3.313-0.006c0.054,0,0.103-0.014,0.153-0.018l4.615-0.01
		l0.192,6.056l-27.362,0.042l-0.133-6.048l19.01-0.033C236.797,177.592,236.866,177.602,236.938,177.602z M235.873,169.346
		c0.184,1.188,0.365,2.299,0.551,3.297c-0.488,0.31-0.96,0.818-1.345,1.678c-0.166,0.371-0.229,0.719-0.235,1.045l-4.742,0.009
		c0.067-0.306,0.07-0.633-0.021-0.964c-0.078-0.284-0.197-0.571-0.372-0.846c-0.508-0.795-1.208-1.342-1.953-1.649
		c-0.008-0.804-0.024-1.659-0.049-2.55L235.873,169.346z"/>
	<path opacity="0.15" enable-background="new    " d="M202.889,166.059l-7.738-2.709c-1.838-0.644-4.002,0.379-4.812,2.272
		l-3.401,7.975c-0.809,1.893,0.033,3.969,1.871,4.611l7.737,2.711c0.038,0.014,0.077,0.021,0.115,0.033
		c0.134,0.337,0.271,0.715,0.414,1.154c0.348,1.071,0.851,1.645,1.338,1.947c-0.321,1.516-0.62,3.279-1.052,5.127
		c-0.135,0.614-0.25,1.243-0.395,1.871c-0.156,0.623-0.316,1.254-0.476,1.885c-0.277,1.271-0.692,2.494-1.038,3.69
		c-0.616,1.838-1.26,3.554-1.928,4.922c-0.682-1.251-1.227-2.021-1.227-2.021c-4.012,4.054-7.031,6.046-9.248,6.988
		c0.137-0.879,0.204-1.701,0.233-2.41c1.092-0.496,2.194-1.222,3.261-2.223c1.741-1.638,2.902-3.677,3.598-5.771
		c0.138,0.074,0.293,0.121,0.482,0.119c1.837-0.03,4.234-4.838,2.262-5.64c-0.449-0.184-0.861-0.188-1.229-0.092
		c0.002-0.294,0-0.588-0.023-0.882c-0.448-5.682-3.52-8.189-9.985-7.229c-6.467,0.959-8.125,6.781-8.125,6.781
		c-0.033,0.115-0.051,0.229-0.078,0.342c-0.338-0.152-0.748-0.211-1.26-0.092c-2.178,0.512-1.317,5.547,0.471,5.831
		c0.308,0.048,0.57-0.035,0.799-0.196c-0.094,1.997,0.236,4.176,1.242,6.461c0.572,1.301,1.507,2.25,2.66,2.805
		c-0.028,0.732-0.11,1.603-0.285,2.451c-2.999-1.105-7.071-4.926-7.071-4.926c-0.011,0.008-0.021,0.016-0.032,0.021
		c-0.092-0.149-0.184-0.311-0.291-0.479c-0.16-0.263-0.347-0.539-0.498-0.873c-0.709-1.261-1.386-3.029-1.887-5.035
		c-0.107-0.508-0.283-1.004-0.352-1.543c-0.092-0.533-0.183-1.069-0.271-1.606c-0.104-0.535-0.115-1.095-0.184-1.638
		c-0.043-0.547-0.145-1.084-0.148-1.627c-0.023-0.543-0.046-1.073-0.068-1.592c-0.025-0.521-0.07-1.024-0.053-1.518
		c0.002-0.563-0.006-1.1-0.021-1.607c0.089-0.013,0.182-0.029,0.282-0.057c0.653-0.178,1.52-0.715,2.254-2.189
		c0.31-0.619,0.588-1.125,0.844-1.545l1.02,0.356c1.838,0.644,4.002-0.379,4.811-2.271l3.402-7.976
		c0.808-1.894-0.035-3.969-1.871-4.612l-7.738-2.709c-1.838-0.644-4.002,0.379-4.811,2.272l-3.403,7.974
		c-0.808,1.894,0.034,3.97,1.872,4.612l0.615,0.215c-0.029,0.115-0.063,0.23-0.086,0.348c-0.408,2.109-0.333,3.465,0.057,4.311
		c-0.281,0.796-0.572,1.721-0.865,2.74c-0.167,0.521-0.267,1.076-0.379,1.647c-0.107,0.577-0.217,1.169-0.329,1.771
		c-0.121,0.606-0.141,1.232-0.21,1.865c-0.045,0.635-0.139,1.276-0.133,1.922c0.002,0.648,0.004,1.299,0.006,1.943
		c-0.012,0.649,0.094,1.288,0.141,1.924c0.257,2.534,0.859,4.916,1.638,6.707c0.165,0.459,0.377,0.867,0.564,1.246
		c0.195,0.375,0.349,0.729,0.534,1.021c0.363,0.589,0.626,1.035,0.814,1.279c0.006,0.008,0.012,0.017,0.02,0.024
		c-0.669,1.153-1.051,2.017-1.051,2.017c2.382,5.512,6.107,6.873,6.107,6.873c-0.066,1.002-0.137,1.99-0.205,2.965h19.516
		c0.271-3.475,0.642-5.75,0.642-5.75c3.315,0.092,5.915-3.02,5.915-3.02c-0.007-0.322-0.027-0.645-0.061-0.965
		c0-0.001,0-0.001,0-0.002c0.285-0.301,0.619-0.842,1.117-1.561c0.256-0.357,0.446-0.771,0.703-1.22
		c0.245-0.448,0.522-0.938,0.731-1.463c1.013-2.101,1.746-4.735,2.313-7.491c0.945-4.932,0.989-10.197,0.639-13.814
		c0.886-0.715,1.445-2.186,1.39-4.973c-0.019-0.904-0.239-1.815-0.569-2.642l2.328-5.456
		C205.566,168.777,204.725,166.702,202.889,166.059z"/>
</g>
<g>
	<g>
		<g>
			<path fill="#0E2533" d="M219.828,277.911c-0.604,0-1.094-0.49-1.094-1.095V130.637c0-0.604,0.488-1.094,1.094-1.094
				c0.604,0,1.094,0.489,1.094,1.094v146.181C220.922,277.421,220.432,277.911,219.828,277.911z"/>
		</g>
	</g>
	<g>
		<g>
			<path fill="#0E2533" d="M249.732,277.911c-0.604,0-1.092-0.49-1.092-1.095V130.637c0-0.604,0.488-1.094,1.092-1.094
				c0.604,0,1.095,0.489,1.095,1.094v146.181C250.827,277.421,250.338,277.911,249.732,277.911z"/>
		</g>
	</g>
	<g>
		<g>
			<path fill="#0E2533" d="M249.732,138.171h-29.904c-0.604,0-1.094-0.49-1.094-1.094s0.488-1.094,1.094-1.094h29.904
				c0.604,0,1.095,0.49,1.095,1.094S250.338,138.171,249.732,138.171z"/>
		</g>
		<g>
			<path fill="#0E2533" d="M249.732,146.294h-29.904c-0.604,0-1.094-0.49-1.094-1.094s0.488-1.094,1.094-1.094h29.904
				c0.604,0,1.095,0.49,1.095,1.094S250.338,146.294,249.732,146.294z"/>
		</g>
		<g>
			<path fill="#0E2533" d="M249.732,154.417h-29.904c-0.604,0-1.094-0.489-1.094-1.094c0-0.604,0.488-1.093,1.094-1.093h29.904
				c0.604,0,1.095,0.489,1.095,1.093C250.827,153.927,250.338,154.417,249.732,154.417z"/>
		</g>
		<g>
			<path fill="#0E2533" d="M249.732,162.54h-29.904c-0.604,0-1.094-0.49-1.094-1.094s0.488-1.094,1.094-1.094h29.904
				c0.604,0,1.095,0.49,1.095,1.094S250.338,162.54,249.732,162.54z"/>
		</g>
		<g>
			<path fill="#0E2533" d="M249.732,170.662h-29.904c-0.604,0-1.094-0.489-1.094-1.094s0.488-1.094,1.094-1.094h29.904
				c0.604,0,1.095,0.489,1.095,1.094S250.338,170.662,249.732,170.662z"/>
		</g>
		<g>
			<path fill="#0E2533" d="M249.732,178.785h-29.904c-0.604,0-1.094-0.49-1.094-1.094c0-0.604,0.488-1.094,1.094-1.094h29.904
				c0.604,0,1.095,0.489,1.095,1.094C250.827,178.295,250.338,178.785,249.732,178.785z"/>
		</g>
		<g>
			<path fill="#0E2533" d="M249.732,186.908h-29.904c-0.604,0-1.094-0.49-1.094-1.094c0-0.604,0.488-1.094,1.094-1.094h29.904
				c0.604,0,1.095,0.489,1.095,1.094C250.827,186.418,250.338,186.908,249.732,186.908z"/>
		</g>
		<g>
			<path fill="#0E2533" d="M249.732,195.029h-29.904c-0.604,0-1.094-0.488-1.094-1.092c0-0.604,0.488-1.095,1.094-1.095h29.904
				c0.604,0,1.095,0.489,1.095,1.095C250.827,194.541,250.338,195.029,249.732,195.029z"/>
		</g>
		<g>
			<path fill="#0E2533" d="M249.732,203.152h-29.904c-0.604,0-1.094-0.488-1.094-1.094c0-0.604,0.488-1.094,1.094-1.094h29.904
				c0.604,0,1.095,0.49,1.095,1.094C250.827,202.664,250.338,203.152,249.732,203.152z"/>
		</g>
		<g>
			<path fill="#0E2533" d="M249.732,211.277h-29.904c-0.604,0-1.094-0.49-1.094-1.094c0-0.604,0.488-1.095,1.094-1.095h29.904
				c0.604,0,1.095,0.489,1.095,1.095C250.827,210.787,250.338,211.277,249.732,211.277z"/>
		</g>
		<g>
			<path fill="#0E2533" d="M249.732,219.398h-29.904c-0.604,0-1.094-0.488-1.094-1.094c0-0.604,0.488-1.094,1.094-1.094h29.904
				c0.604,0,1.095,0.49,1.095,1.094C250.827,218.91,250.338,219.398,249.732,219.398z"/>
		</g>
		<g>
			<path fill="#0E2533" d="M249.732,227.521h-29.904c-0.604,0-1.094-0.489-1.094-1.094c0-0.604,0.488-1.094,1.094-1.094h29.904
				c0.604,0,1.095,0.49,1.095,1.094C250.827,227.032,250.338,227.521,249.732,227.521z"/>
		</g>
		<g>
			<path fill="#0E2533" d="M249.732,235.646h-29.904c-0.604,0-1.094-0.49-1.094-1.095c0-0.604,0.488-1.094,1.094-1.094h29.904
				c0.604,0,1.095,0.489,1.095,1.094C250.827,235.154,250.338,235.646,249.732,235.646z"/>
		</g>
		<g>
			<path fill="#0E2533" d="M249.732,243.768h-29.904c-0.604,0-1.094-0.488-1.094-1.094c0-0.604,0.488-1.094,1.094-1.094h29.904
				c0.604,0,1.095,0.49,1.095,1.094S250.338,243.768,249.732,243.768z"/>
		</g>
		<g>
			<path fill="#0E2533" d="M249.732,251.891h-29.904c-0.604,0-1.094-0.49-1.094-1.094s0.488-1.094,1.094-1.094h29.904
				c0.604,0,1.095,0.49,1.095,1.094S250.338,251.891,249.732,251.891z"/>
		</g>
		<g>
			<path fill="#0E2533" d="M249.732,260.014h-29.904c-0.604,0-1.094-0.488-1.094-1.094c0-0.604,0.488-1.094,1.094-1.094h29.904
				c0.604,0,1.095,0.49,1.095,1.094S250.338,260.014,249.732,260.014z"/>
		</g>
		<g>
			<path fill="#0E2533" d="M249.732,268.137h-29.904c-0.604,0-1.094-0.49-1.094-1.094s0.488-1.094,1.094-1.094h29.904
				c0.604,0,1.095,0.49,1.095,1.094S250.338,268.137,249.732,268.137z"/>
		</g>
	</g>
</g>
<g>
	<path fill="#FFBE8F" d="M213.668,91.668c0.509-0.289,1.096-0.923,1.299-2.314c0.389-2.639,0.924-3.271,1.34-3.678
		c0.416-0.407-0.578-1.284-1.615,0.37c-0.35,0.556-0.58,0.925-0.733,1.17L213.668,91.668z"/>
	<rect x="72.959" y="69.781" fill="#8BC9D9" width="179.831" height="17.179"/>
	<text transform="matrix(1 0 0 1 223.8086 78.3701)" fill="#005C91" font-family="'ArialMT'" font-size="6.9775">SEARCH</text>
	<rect x="78.447" y="81.102" fill="#005C91" width="168.854" height="0.815"/>
	<path fill="#FFBE8F" d="M213.957,87.216c-0.305,0.484-0.305,0.484-0.305,0.484s-0.34-4.086-1.473-5.442
		c-1.133-1.355-3.168,2.43-2.748,5.445c0.522,3.764,1.854,4.505,3.387,4.205c0,0,0.395,0.019,0.85-0.24L213.957,87.216z"/>
	<g>
		<g>
			<g>
				<path fill="#005C91" d="M222.596,79.762c-0.084,0-0.166-0.032-0.229-0.095l-2.13-2.128c-0.127-0.127-0.127-0.333,0-0.461
					c0.127-0.127,0.334-0.127,0.462,0l2.129,2.129c0.127,0.127,0.127,0.333,0,0.46C222.762,79.73,222.68,79.762,222.596,79.762z"/>
			</g>
			<g>
				<path fill="#005C91" d="M218.432,73.046c0.596,0,1.153,0.232,1.574,0.652c0.868,0.868,0.868,2.28,0,3.148
					c-0.421,0.42-0.979,0.652-1.574,0.652c-0.595,0-1.154-0.231-1.574-0.652c-0.867-0.868-0.867-2.281,0-3.148
					C217.277,73.278,217.837,73.046,218.432,73.046 M218.432,72.395c-0.736,0-1.473,0.281-2.035,0.843
					c-1.123,1.124-1.123,2.946,0,4.069c0.563,0.562,1.299,0.843,2.035,0.843c0.737,0,1.473-0.281,2.035-0.843
					c1.124-1.124,1.124-2.946,0-4.069C219.904,72.676,219.169,72.395,218.432,72.395L218.432,72.395z"/>
			</g>
			<g>
				<path fill="#005C91" d="M220.959,78.452c-0.167,0-0.333-0.063-0.461-0.191l-0.492-0.492c-0.255-0.255-0.255-0.667,0-0.921
					c0.256-0.254,0.667-0.254,0.921,0l0.493,0.492c0.254,0.255,0.254,0.667,0,0.921C221.292,78.388,221.126,78.452,220.959,78.452z"
					/>
			</g>
		</g>
	</g>
	<g>
		<g>
			<path fill="#FFBE8F" d="M229.859,90.417c-2.674,1.844-6.436,5.957-5.18,12.325c0.791,4.015,6.178,4.919,10.889,2.306
				c4.711-2.613,6.09-7.573,5.498-10.98C240.477,90.66,234.15,87.461,229.859,90.417z"/>
			<g>
				<path fill="#FFBE8F" d="M231.387,113.061c-0.187,0-0.375-0.02-0.563-0.062c-1.406-0.311-2.294-1.701-1.983-3.107
					c0.734-3.325,0.383-4.64,0.379-4.653c0.033,0.117,0.064,0.168,0.064,0.168l4.781-2.074c0.242,0.56,0.949,2.767-0.135,7.683
					C233.659,112.232,232.582,113.061,231.387,113.061z"/>
			</g>
			<path fill="#003C5E" d="M229.794,92.962c0,0-1.881,2.931-2.569,3.981c0,0,1.262,0.957,2.119-0.155
				c0.857-1.111,1.473-3.206,3.223-3.177c1.162,0.019,0.996,1.242,0.488,2.229c-0.775,1.51-2.021,2.279-2.816,2.185
				c0,0-2.088,3.33,2.131,5.702c4.219,2.373,7.324-0.728,9.099-4.16c1.775-3.433,1.753-8.293-1.887-10.933
				c-3.563-2.583-6.608-2.365-11.14-2.032C228.441,86.603,226.779,89.657,229.794,92.962z"/>
		</g>
		<g>
			<path fill="#FFBE8F" d="M257.973,94.719c-0.646,1.526-1.468,3.491-2.691,5.336c-1.198,1.858-2.771,3.58-4.521,4.819
				c-1.729,1.271-3.609,2.061-5.148,2.549c-1.549,0.473-2.748,0.667-3.238,0.75c-2.534,0.42-3.544,1.183-3.66,3.214
				c-0.054,1.002,0.279,1.757,1.057,2.215c0.771,0.453,1.987,0.615,3.625,0.326c0.629-0.109,2.164-0.432,4.129-1.201
				c1.951-0.781,4.348-2.063,6.429-3.996c1.036-0.958,2.016-2.04,2.821-3.219c0.803-1.181,1.498-2.41,1.998-3.647
				c1.051-2.46,1.441-4.845,1.547-6.633L257.973,94.719z"/>
		</g>
		<g>
			<path fill="#FFBE8F" d="M211.328,89.588c-0.278,0.787-0.569,1.714-0.865,2.74c-0.168,0.509-0.26,1.06-0.352,1.632
				c-0.09,0.577-0.184,1.169-0.276,1.771c-0.058,0.302-0.08,0.613-0.083,0.93c-0.011,0.317-0.021,0.636-0.031,0.957
				c-0.009,0.322-0.016,0.647-0.023,0.972c-0.014,0.326-0.014,0.654,0.031,0.985c0.069,0.665,0.139,1.331,0.207,1.992
				c0.088,0.663,0.285,1.315,0.432,1.966c0.681,2.589,1.961,4.916,3.273,6.536c0.69,0.777,1.295,1.464,1.86,1.926
				c0.274,0.24,0.51,0.458,0.722,0.623c0.217,0.157,0.394,0.285,0.522,0.378c1.351,0.966,2.551,1.275,3.433,1.132
				c0.877-0.14,1.463-0.744,1.737-1.707c0.276-0.971,0.291-1.716-0.002-2.37c-0.288-0.646-0.89-1.177-1.795-1.83
				c-0.091-0.061-0.212-0.143-0.361-0.244c-0.147-0.105-0.31-0.249-0.506-0.399c-0.409-0.284-0.832-0.73-1.358-1.211
				c-0.975-1.033-2.018-2.528-2.768-4.385c-0.162-0.474-0.387-0.937-0.521-1.441c-0.129-0.511-0.258-1.026-0.388-1.541
				c-0.079-0.255-0.12-0.521-0.149-0.79l-0.108-0.802c-0.038-0.267-0.077-0.533-0.115-0.797c-0.049-0.264-0.079-0.529-0.077-0.797
				c-0.024-0.534-0.049-1.059-0.072-1.57c-0.03-0.513-0.068-1.015-0.032-1.5c0.03-0.969,0.037-1.871,0.017-2.666L211.328,89.588z"/>
		</g>
		<path fill="#005C91" d="M225.102,140.575c0,0,2.588,5.854,8.524,5.854s9.468-2.987,8.504-9.253
			C242.13,137.176,229.875,135.085,225.102,140.575z"/>
		<g>
			<g>
				<path fill="#005C91" d="M243.555,174.748c0.867-4.469,1.447-11.786,1.379-18.417c-0.002-3.312-0.188-6.453-0.396-8.96
					c-0.211-2.507-0.489-4.385-0.626-5.158c-0.705-3.992-2.576-5.525-5.238-4.624c-2.68,0.901-3.462,2.453-2.818,6.059
					c0.123,0.695,0.467,2.384,0.854,4.709c0.379,2.326,0.843,5.271,1.232,8.437c0.846,6.318,1.475,13.474,2.256,17.913
					L243.555,174.748z"/>
			</g>
		</g>
		<g>
			<g>
				<path fill="#005C91" d="M231.212,175.26c0.194-4.683-0.078-12.165,0.009-18.778c0.03-3.307,0.154-6.388,0.338-8.784
					c0.182-2.399,0.424-4.09,0.521-4.761c0.244-1.755,0.231-2.837-0.188-3.542c-0.211-0.342-0.523-0.66-0.902-1
					c-0.191-0.181-0.365-0.41-0.555-0.646c-0.195-0.234-0.414-0.479-0.668-0.721c-0.254-0.242-0.51-0.451-0.781-0.609
					c-0.271-0.163-0.555-0.272-0.875-0.272c-0.666-0.002-1.314,0.271-1.904,0.77c-1.165,0.99-1.924,2.687-2.23,4.908
					c-0.125,0.865-0.309,2.925-0.303,5.593c0.002,2.671,0.178,5.965,0.553,9.407c0.723,6.89,2.217,14.375,3.661,18.885
					L231.212,175.26z"/>
			</g>
			<g>
				<path fill="#005C91" d="M243.555,174.748c0.867-4.469,1.447-11.786,1.379-18.417c-0.002-3.312-0.188-6.453-0.396-8.96
					c-0.211-2.507-0.489-4.385-0.626-5.158c-0.705-3.992-2.576-5.525-5.238-4.624c-2.68,0.901-3.462,2.453-2.818,6.059
					c0.123,0.695,0.467,2.384,0.854,4.709c0.379,2.326,0.843,5.271,1.232,8.437c0.846,6.318,1.475,13.474,2.256,17.913
					L243.555,174.748z"/>
			</g>
			<path fill="#004973" d="M244.098,143.411c-0.072-0.518-0.139-0.929-0.186-1.198c-0.321-1.818-0.887-3.12-1.655-3.92
				c-0.026-0.36-0.067-0.732-0.127-1.117c0,0-6.476-1.103-11.846,0.403c-0.157-0.182-0.325-0.367-0.521-0.552
				c-0.254-0.243-0.51-0.451-0.781-0.609c-0.271-0.163-0.555-0.272-0.875-0.272c-0.666-0.002-1.314,0.271-1.904,0.77
				c-1.165,0.99-1.924,2.687-2.23,4.908c-0.041,0.289-0.091,0.722-0.136,1.255C231.959,145.325,239.547,144.413,244.098,143.411z"/>
		</g>
		<path fill="#FF595F" d="M228.786,108.564c0.705,0.111,9.401,3.327,16.532-2.916c0,0,1.914,4.472,2.449,9.285
			c0,0-3.229,1.849-6.162,1.773c0,0-0.324,14.676,6.093,23.767c0,0-13.369,5.17-27.452,0c0,0,3.951-11.22,3.684-23.941
			c0,0-5.498-0.637-8.765-3.845c0,0,2.276-6.162,5.151-7.865C220.316,104.821,226.104,108.142,228.786,108.564z"/>
		<path fill="#CC3F44" d="M241.605,116.706c2.933,0.076,6.162-1.773,6.162-1.773s-3.912,1.518-7.496,0.465
			c0,0-0.813,17.539,7.427,25.074C241.281,131.382,241.605,116.706,241.605,116.706z"/>
		<path fill="#CC3F44" d="M226.168,115.819c-7.891-0.631-11.003-3.133-11.003-3.133c3.267,3.208,8.765,3.845,8.765,3.845
			c0.268,12.721-3.684,23.941-3.684,23.941C226.001,132.726,226.168,115.819,226.168,115.819z"/>
		<path fill="#FFBE8F" d="M258.031,96.75c0,0-1.649-0.621-0.959-3.197c0.691-2.576,0.451-3.368,0.229-3.907
			c-0.221-0.539,1.04-0.95,1.336,0.98c0.297,1.93,0.297,1.93,0.297,1.93s1.935-3.616,3.512-4.412c1.576-0.795,0.777,3.14,0.25,5.869
			C262.166,96.741,259.32,97.633,258.031,96.75z"/>
		<path fill="#003C5E" d="M241.823,173.436c-0.953,0.071-2.257,0.267-3.175,2.135c-0.314,0.638-0.33,1.218-0.215,1.703
			c0.217,0.91,1.068,1.529,2.006,1.529h3.361c1.268,0,2.295-1.134,2.057-2.379c-0.056-0.283-0.151-0.572-0.306-0.854
			C244.734,174.072,243.188,173.333,241.823,173.436z"/>
		<path fill="#003C5E" d="M229.354,172.915c-0.946,0.13-2.235,0.403-3.037,2.326c-0.272,0.655-0.252,1.233-0.107,1.713
			c0.271,0.896,1.161,1.461,2.098,1.403l3.354-0.209c1.265-0.078,2.22-1.272,1.904-2.5c-0.071-0.28-0.186-0.563-0.355-0.834
			C232.3,173.37,230.711,172.729,229.354,172.915z"/>
	</g>
</g>
<g>
	<g>
		<path fill="#FFBE8F" d="M71.016,171.376c1.966,2.587,4.253,7.669,1.073,13.326c-2.005,3.565-7.406,2.743-11.065-1.211
			c-3.659-3.953-3.419-9.095-1.793-12.147C60.856,168.292,67.863,167.229,71.016,171.376z"/>
		<g>
			<path fill="#FFBE8F" d="M67.575,193.18c-1.196,0-2.274-0.828-2.542-2.046c-1.085-4.915-0.378-7.122-0.136-7.683l4.782,2.074
				c0,0,0.031-0.053,0.064-0.17c-0.004,0.014-0.355,1.33,0.379,4.653c0.311,1.405-0.577,2.798-1.982,3.107
				C67.95,193.158,67.761,193.18,67.575,193.18z"/>
		</g>
	</g>
	<g>
		<path fill="#FFBE8F" d="M42.557,170.872c-0.326,1.761-0.519,4.17-0.087,6.812c0.19,1.32,0.571,2.68,1.066,4.02
			c0.501,1.338,1.191,2.623,1.97,3.801c1.558,2.376,3.577,4.193,5.284,5.42c1.724,1.219,3.136,1.896,3.722,2.155
			c1.52,0.673,2.739,0.806,3.597,0.552c0.864-0.259,1.367-0.912,1.556-1.898c0.374-1.998-0.424-2.98-2.784-3.996
			c-0.456-0.198-1.575-0.676-2.965-1.504c-1.376-0.844-3.014-2.062-4.388-3.709c-1.403-1.621-2.517-3.67-3.235-5.762
			c-0.747-2.084-1.073-4.188-1.336-5.824L42.557,170.872z"/>
	</g>
	<g>
		<path fill="#FFBE8F" d="M100.735,183.227c0.096-0.578,0.489-1.347,1.725-2.019c2.343-1.272,2.752-1.993,2.991-2.524
			c0.239-0.531,1.405,0.1,0.209,1.645c-0.401,0.52-0.668,0.863-0.845,1.093L100.735,183.227z"/>
		<path fill="#003757" d="M105.641,180.587L105.641,180.587c-0.302,0-0.549-0.247-0.549-0.55V171.9c0-0.303,0.248-0.551,0.549-0.551
			l0,0c0.302,0,0.549,0.248,0.549,0.551v8.137C106.19,180.34,105.943,180.587,105.641,180.587z"/>
		<path fill="#003757" d="M105.091,171.9L105.091,171.9c0-0.303,0.248-0.551,0.549-0.551h7.524c0.302,0,0.549,0.248,0.549,0.551l0,0
			c0,0.302-0.247,0.549-0.549,0.549h-7.524C105.339,172.449,105.091,172.202,105.091,171.9z"/>
		<path fill="#003757" d="M113.165,166.994L113.165,166.994c0.302,0,0.549,0.248,0.549,0.55v4.356c0,0.302-0.247,0.549-0.549,0.549
			l0,0c-0.302,0-0.549-0.247-0.549-0.549v-4.356C112.615,167.242,112.862,166.994,113.165,166.994z"/>
		<path fill="#003757" d="M113.714,167.544L113.714,167.544c0,0.304-0.247,0.55-0.549,0.55h-5.306c-0.302,0-0.549-0.246-0.549-0.55
			l0,0c0-0.302,0.247-0.55,0.549-0.55h5.306C113.467,166.994,113.714,167.242,113.714,167.544z"/>
		<path fill="#70C6DB" d="M110.128,169.361h-8.974c-0.638,0-1.159-0.521-1.159-1.157v-1.319c0-0.638,0.521-1.158,1.159-1.158h8.974
			c0.638,0,1.159,0.521,1.159,1.158v1.319C111.287,168.842,110.766,169.361,110.128,169.361z"/>
		<path fill="#005C91" d="M105.641,189.58L105.641,189.58c-0.945,0-1.719-0.773-1.719-1.719v-10.174c0-0.945,0.773-1.72,1.719-1.72
			l0,0c0.945,0,1.719,0.773,1.719,1.72v10.174C107.36,188.807,106.586,189.58,105.641,189.58z"/>
		<path fill="#FFBE8F" d="M104.815,181.42c-0.35,0.451-0.35,0.451-0.35,0.451s3.954-1.088,5.616-0.493
			c1.663,0.597-1.188,3.813-4.163,4.457c-3.714,0.808-4.87-0.188-5.116-1.729c0,0-0.153-0.362-0.067-0.879L104.815,181.42z"/>
		<g>
			<path fill="#FFBE8F" d="M102.389,182.575c-3.234,0.756-8.352,2.062-12.986,2.893c-4.636,0.851-8.754,1.257-9.81,1.375
				c-2.739,0.327-3.777,1.24-3.718,3.261c0.057,2.002,1.448,2.898,4.416,2.543c1.148-0.129,5.54-0.85,10.301-2.315
				c4.768-1.446,9.862-3.664,12.726-5.543L102.389,182.575z"/>
		</g>
	</g>
	<g>
		<path fill="#FFBE8F" d="M75.459,265.246c0.715-2.154,1.408-5.063,1.815-8.229c0.425-3.166,0.672-6.598,0.765-9.832
			c0.181-6.474-0.188-12.177-0.336-13.65c-0.389-3.814-1.891-5.285-4.677-4.903c-2.793,0.384-3.84,2.052-3.466,5.718
			c0.143,1.418,0.871,6.883,1.475,13.065c0.3,3.09,0.552,6.354,0.74,9.378c0.205,3.03,0.244,5.79,0.364,7.941L75.459,265.246z"/>
	</g>
	<g>
		<path fill="#FFBE8F" d="M46.519,252.879c1.136,0.285,2.514,0.486,4.059,0.43c1.541-0.057,3.24-0.391,4.908-1.058
			c1.667-0.668,3.288-1.665,4.719-2.911c0.714-0.624,1.384-1.309,1.987-2.052c0.307-0.368,0.595-0.751,0.865-1.149
			c0.069-0.102,0.137-0.19,0.206-0.301l0.204-0.357l0.395-0.722c0.897-1.85,1.307-3.438,1.693-4.938
			c0.342-1.479,0.603-2.846,0.776-4.039c0.362-2.395,0.51-4.155,0.552-4.883c0.203-3.764-1.108-5.383-3.915-5.383
			c-2.824,0-4.068,1.439-4.255,4.916c-0.038,0.67-0.085,2.31-0.225,4.465c-0.063,1.082-0.179,2.273-0.327,3.521
			c-0.165,1.209-0.394,2.536-0.702,3.493l-0.11,0.31l-0.049,0.16c-0.024,0.061-0.065,0.128-0.096,0.192
			c-0.127,0.264-0.268,0.526-0.425,0.782c-0.303,0.521-0.66,1.024-1.049,1.502c-0.784,0.953-1.707,1.797-2.708,2.472
			c-1.002,0.673-2.081,1.178-3.151,1.522c-1.072,0.344-2.127,0.537-3.079,0.681L46.519,252.879z"/>
	</g>
	<path fill="#FF595F" d="M72.129,187.379c-0.704,0.111-8.05,2.045-13.501-0.5c0,0-3.069,2.93-3.604,7.741
		c0,0,1.443,0.597,4.286,0.899c0,0,6.177,4.311,2.101,13.684c-4.826,11.095-6.078,21.66-8.193,24.658c0,0,13.37,5.168,27.452,0
		c0,0-0.366-14.838-4.855-24.658c-3.358-7.35,1.066-8.797,1.173-13.857c0,0,2.006-0.119,3.245-1.219c0,0,0.995-6.141-1.879-7.844
		C78.353,186.283,74.811,186.956,72.129,187.379z"/>
	<path fill="#FFBE8F" d="M44.411,172.893c0,0,1.75-0.207,1.696-2.873c-0.054-2.666,0.37-3.379,0.713-3.849
		c0.344-0.471-0.782-1.172-1.532,0.631c-0.75,1.804-0.75,1.804-0.75,1.804s-1.011-3.975-2.352-5.125
		c-1.34-1.149-1.508,2.862-1.648,5.64C40.399,171.895,42.949,173.441,44.411,172.893z"/>
	<path fill="#003757" d="M72.055,262.982c0,0,3.02,0.627,4.103,0c0,0,1.481,0.799,3.76,0.627c2.279-0.17,3.817,0.127,3.533,1.459
		c-0.285,1.334-8.765,2.563-10.939,1.505c-1.171-0.569-0.456-3.874-0.456-3.874"/>
	<path fill="#003757" d="M48.917,249.075c0,0-1.62,2.624-1.401,3.854c0,0-1.255,1.12-1.873,3.32
		c-0.618,2.201-1.422,3.546-2.578,2.822c-1.155-0.723,0.585-9.112,2.322-10.795c0.935-0.907,3.797,0.894,3.797,0.894"/>
	<path fill="#003C5E" d="M72.206,173.251c0,0-5.542,6.711-6.767,19.954c0,0-6.567,1.67-11.019-1.001c0,0-0.89-21.845,7.568-24.11
		C70.447,165.827,72.206,173.251,72.206,173.251z"/>
	<path fill="#FFBE8F" d="M71.449,175.969c0,0-1.002-2.351-2.894-1.572c-1.892,0.779,0.029,5.231,1.739,5.231
		S71.449,175.969,71.449,175.969z"/>
</g>
<g>
	<g>
		<path fill="#FFBE8F" d="M180.258,186.445c-2.308,2.871-4.359,8.562-0.928,15.072c2.162,4.104,7.611,4.733,11.881,0.365
			c4.27-4.367,4.156-11.602,2.407-15.111C191.869,183.264,183.959,181.841,180.258,186.445z"/>
		<g>
			<path fill="#FFBE8F" d="M184.663,212.143c-0.298,0-0.601-0.045-0.899-0.142c-1.556-0.497-2.412-2.16-1.916-3.715
				c0.618-1.933,0.385-4.64,0.241-5.519c-0.26-1.607,0.83-3.127,2.438-3.392c1.607-0.265,3.125,0.817,3.394,2.426
				c0.077,0.464,0.724,4.64-0.442,8.283C187.076,211.341,185.914,212.143,184.663,212.143z"/>
		</g>
	</g>
	<g>
		<path fill="#FFBE8F" d="M201.738,182.645c-0.316,1.771-0.455,4.08-0.815,6.535c-0.081,0.614-0.142,1.243-0.231,1.871
			c-0.103,0.623-0.207,1.254-0.312,1.885c-0.167,1.271-0.476,2.494-0.718,3.69c-0.584,2.351-1.229,4.508-1.975,5.983
			c-0.154,0.397-0.351,0.715-0.517,1.018c-0.172,0.292-0.298,0.6-0.457,0.805c-0.306,0.422-0.498,0.791-0.644,0.937
			c-0.666,0.93-0.991,1.476-1.041,2.157c-0.043,0.672,0.097,1.494,0.406,2.592c0.306,1.094,1.092,1.752,2.256,1.67
			c1.146-0.068,2.59-0.908,3.723-2.497c0.259-0.3,0.546-0.841,0.98-1.56c0.226-0.358,0.379-0.771,0.599-1.221
			c0.204-0.449,0.438-0.938,0.604-1.463c0.829-2.1,1.334-4.736,1.662-7.49c0.579-5.519-0.006-11.463-0.807-15.039L201.738,182.645z"
			/>
	</g>
	<path fill="#FFBE8F" d="M169.616,184.295c0.639-0.178,1.458-0.715,2.063-2.189c1.15-2.797,1.913-3.344,2.483-3.679
		c0.569-0.333-0.282-1.571-1.879-0.036c-0.536,0.517-0.894,0.857-1.128,1.086L169.616,184.295z"/>
	<path fill="#BAF1FF" d="M173.439,180.917l-7.974-2.711c-1.894-0.644-2.916-2.72-2.272-4.612l2.71-7.974
		c0.645-1.894,2.721-2.916,4.613-2.272l7.974,2.71c1.894,0.644,2.916,2.719,2.272,4.611l-2.712,7.975
		C177.408,180.538,175.333,181.561,173.439,180.917z"/>
	<path fill="#FFBE8F" d="M171.157,179.477c-0.468,0.448-0.468,0.448-0.468,0.448s0.748-4.589-0.127-6.392
		c-0.871-1.803-4.152,1.802-4.52,5.234c-0.458,4.284,0.803,5.467,2.572,5.558c0,0,0.428,0.13,1-0.03L171.157,179.477z"/>
	<g>
		<path fill="#FFBE8F" d="M202.088,184.295c-0.639-0.178-1.458-0.715-2.064-2.189c-1.15-2.797-1.912-3.344-2.483-3.679
			c-0.569-0.333,0.283-1.571,1.879-0.036c0.536,0.517,0.894,0.857,1.13,1.086L202.088,184.295z"/>
		<path fill="#FF9CBD" d="M199.391,180.917l-7.973-2.711c-1.895-0.644-2.916-2.72-2.271-4.612l2.711-7.974
			c0.644-1.894,2.72-2.916,4.611-2.272l7.975,2.71c1.894,0.644,2.914,2.719,2.271,4.611l-2.711,7.975
			C203.359,180.538,201.284,181.561,199.391,180.917z"/>
		<path fill="#FFBE8F" d="M200.548,179.477c0.466,0.448,0.466,0.448,0.466,0.448s-0.746-4.589,0.127-6.392s4.152,1.802,4.52,5.234
			c0.458,4.284-0.803,5.467-2.572,5.558c0,0-0.427,0.13-0.999-0.03L200.548,179.477z"/>
	</g>
	<g>
		<path fill="#FFBE8F" d="M166.492,183.014c-0.219,0.811-0.436,1.758-0.646,2.805c-0.121,0.522-0.173,1.076-0.236,1.648
			c-0.057,0.577-0.113,1.17-0.174,1.771c-0.067,0.605-0.033,1.232-0.049,1.865c0.01,0.633-0.027,1.275,0.034,1.922
			c0.058,0.647,0.116,1.299,0.175,1.942c0.043,0.649,0.207,1.288,0.309,1.925c0.477,2.533,1.285,4.914,2.22,6.707
			c0.205,0.459,0.453,0.866,0.673,1.246c0.229,0.375,0.41,0.729,0.622,1.021c0.414,0.589,0.716,1.036,0.927,1.278
			c1.033,1.282,2.144,1.926,3.075,2.01c0.95,0.08,1.744-0.404,2.349-1.368c1.211-1.968,1.174-3.083-0.277-4.817
			c-0.146-0.162-0.367-0.479-0.691-0.871c-0.166-0.193-0.313-0.449-0.501-0.707c-0.183-0.263-0.393-0.539-0.573-0.871
			c-0.818-1.263-1.647-3.03-2.324-5.037c-0.15-0.508-0.369-1.004-0.484-1.543c-0.137-0.532-0.273-1.069-0.411-1.606
			c-0.149-0.535-0.21-1.095-0.325-1.638c-0.091-0.547-0.236-1.084-0.289-1.627c-0.07-0.543-0.14-1.073-0.207-1.592
			c-0.07-0.521-0.16-1.024-0.185-1.518c-0.082-0.98-0.183-1.891-0.3-2.686L166.492,183.014z"/>
	</g>
	<path fill="#FF595F" d="M176.414,242.251c0,0,2.936,6.22,9.652,6.657c8.688,0.566,10.742-3.366,9.664-10.475
		C195.73,238.436,181.839,236.036,176.414,242.251z"/>
	<path fill="#003757" d="M200.626,280.625c-1.081,0.078-2.56,0.296-3.604,2.413c-0.356,0.722-0.377,1.379-0.246,1.931
		c0.244,1.034,1.209,1.737,2.271,1.739l3.813,0.007c1.437,0.003,2.604-1.279,2.336-2.691c-0.063-0.323-0.17-0.65-0.344-0.971
		C203.926,281.354,202.174,280.512,200.626,280.625z"/>
	<g>
		<g>
			<path fill="#FF595F" d="M202.552,281.822c0.205-5.203-0.378-13.545-1.271-21.004c-0.865-7.459-2.057-14.037-2.44-15.735
				c-0.976-4.388-2.896-5.933-5.978-5.108c-3.086,0.824-4.025,2.875-3.082,7.115c0.398,1.643,1.938,7.971,3.68,15.133
				c1.758,7.18,3.68,15.227,5.321,20.137L202.552,281.822z"/>
		</g>
	</g>
	<path fill="#003757" d="M175.491,281.475c-1.081,0.094-2.556,0.332-3.572,2.463c-0.62,1.303-0.161,2.379,0.289,3.019
		c0.449,0.224,0.824,0.408,1.272,0.63l5.135-0.061c0.779-0.01,1.438-0.592,1.531-1.366c0.084-0.683,0.043-1.529-0.398-2.313
		C178.8,282.157,177.037,281.341,175.491,281.475z"/>
	<g>
		<g>
			<path fill="#FF595F" d="M178.177,283.057c1.304-5.172,2.665-13.598,4.028-21.041c0.678-3.723,1.357-7.195,1.964-9.904
				c0.603-2.713,1.116-4.666,1.31-5.471c0.508-2.078,0.594-3.59,0.174-4.761c-0.414-1.165-1.342-1.997-2.846-2.542
				c-1.498-0.543-2.761-0.477-3.838,0.354c-1.07,0.822-1.935,2.41-2.507,4.761c-0.22,0.907-0.683,3.122-1.101,6.073
				c-0.426,2.951-0.799,6.636-1.043,10.525c-0.498,7.782-0.498,16.399,0.061,21.734L178.177,283.057z"/>
		</g>
	</g>
	<path fill="#BAF1FF" d="M183.119,207.038c0.799,0.127,4.919,2.147,13.643-7.511c0,0,4.2,5.271,4.797,10.729
		c0,0-2.328,3.11-5.652,3.02c0,0-1.221,16.119,3.379,28.045c0,0-10.395,5.953-22.87,0.932c0,0,0.058-11.766-0.22-26.189
		c0,0-3.844-1.362-6.704-6.875c0,0,1.909-5.412,5.172-7.338C174.662,201.848,180.079,206.552,183.119,207.038z"/>
	<path fill="#FFBE8F" d="M178.574,191.566c0,0-0.672-2.655-2.805-2.146c-2.135,0.513-0.838,5.547,0.976,5.831
		S178.574,191.566,178.574,191.566z"/>
	<path fill="#FFBE8F" d="M193.499,192.329c0,0,1.032-2.539,3.074-1.736c2.043,0.802,0.063,5.608-1.772,5.64
		C192.968,196.262,193.499,192.329,193.499,192.329z"/>
	<path fill="#003C5E" d="M177.084,189.172c0,0,1.152-5.822,7.537-6.781c6.384-0.961,9.672,1.549,10.613,7.229
		c0.941,5.681-2.971,11.341-9.102,11.05C180.003,200.377,175.941,195.077,177.084,189.172z"/>
</g>
<g>
	<rect x="244.725" y="259.802" fill="#005C91" width="42.201" height="32.361"/>
	<polygon fill="#003C5E" points="255.964,252.768 244.725,259.802 286.926,259.802 275.688,252.768 	"/>
	<rect x="255.964" y="252.768" fill="#133447" width="19.724" height="7.034"/>
	<polygon fill="#00CFFF" points="244.725,259.802 250.802,267.402 265.824,267.402 280.527,267.402 286.926,259.802 	"/>
	<polygon fill="#00CFFF" points="275.688,252.768 286.926,256.284 295.719,262.296 286.926,259.802 	"/>
	<polygon fill="#00CFFF" points="255.964,252.768 243.716,256.284 234.921,262.296 244.725,259.802 	"/>
</g>
<g id="DESIGNED_BY_FREEPIK">
</g>
</svg>
