<?xml version="1.0" encoding="utf-8"?>
<!-- Generator: Adobe Illustrator 16.0.0, SVG Export Plug-In . SVG Version: 6.00 Build 0)  -->
<!DOCTYPE svg PUBLIC "-//W3C//DTD SVG 1.1//EN" "http://www.w3.org/Graphics/SVG/1.1/DTD/svg11.dtd">
<svg version="1.1" id="Layer_1" xmlns="http://www.w3.org/2000/svg" xmlns:xlink="http://www.w3.org/1999/xlink" x="0px" y="0px"
	 width="100px" height="100px" viewBox="0 0 100 100" enable-background="new 0 0 100 100" xml:space="preserve">
<g transform="translate(50 50) scale(0.69 0.69) rotate(0) translate(-50 -50)">
	<title>_</title>
	<path fill="#4D4D4D" d="M89.198-19.565c-13.45,0.021-24.844,9.928-26.734,23.249h-77.885v15.5l50.372,50.374v42.621H0.079v7.75
		h77.496v-7.75H42.701V69.557l36.753-36.754c13.958,5.397,29.644-1.543,35.046-15.5c5.397-13.956-1.541-29.645-15.502-35.044
		C95.876-18.95,92.548-19.571,89.198-19.565z M74.363,26.933H3.291L-7.672,15.971v-4.538h92.995v4.538L74.363,26.933z"/>
</g>
</svg>
