<?xml version="1.0" encoding="utf-8"?>
<!-- Generator: Adobe Illustrator 16.0.0, SVG Export Plug-In . SVG Version: 6.00 Build 0)  -->
<!DOCTYPE svg PUBLIC "-//W3C//DTD SVG 1.1//EN" "http://www.w3.org/Graphics/SVG/1.1/DTD/svg11.dtd">
<svg version="1.1" id="Layer_1" xmlns="http://www.w3.org/2000/svg" xmlns:xlink="http://www.w3.org/1999/xlink" x="0px" y="0px"
	 width="100px" height="100px" viewBox="0 0 100 100" enable-background="new 0 0 100 100" xml:space="preserve">
<g transform="translate(50 50) scale(0.69 0.69) rotate(0) translate(-50 -50)">
	<g>
		<g>
			<g>
				<g>
					<path fill="#4D4D4D" d="M49.127,97.379c-10.054,0-19.565-3.854-26.782-10.853c-7.2-6.982-11.344-16.338-11.672-26.346
						c-0.014-0.46,0.204-0.896,0.58-1.162c0.375-0.266,0.861-0.323,1.288-0.154c0.289,0.113,0.579,0.226,0.872,0.338
						c10.575,4.019,22.925,6.145,35.714,6.145s25.139-2.126,35.715-6.147c0.292-0.11,0.582-0.224,0.87-0.338
						c0.427-0.167,0.913-0.11,1.288,0.156c0.376,0.265,0.594,0.702,0.58,1.162c-0.328,10.008-4.472,19.364-11.672,26.346
						C68.692,93.525,59.181,97.379,49.127,97.379z M13.532,62.163c1.64,18.375,16.896,32.481,35.595,32.481
						c18.699,0,33.955-14.106,35.595-32.481c-10.637,3.875-22.914,5.919-35.595,5.919C36.446,68.082,24.169,66.038,13.532,62.163z"
						/>
				</g>
				<g>
					<path fill="#4D4D4D" d="M49.127,68.082c-13.117,0-25.804-2.188-36.688-6.325c-0.303-0.115-0.602-0.231-0.9-0.35
						c-0.507-0.2-0.848-0.682-0.866-1.227c-0.016-0.488-0.023-0.894-0.023-1.278c0-2.859,0.317-5.715,0.943-8.489
						c0.086-0.388,0.337-0.716,0.686-0.904c0.35-0.188,0.763-0.214,1.132-0.072c10.577,4.019,22.927,6.145,35.715,6.145
						s25.139-2.126,35.715-6.147c0.369-0.14,0.783-0.115,1.132,0.074c0.35,0.188,0.6,0.517,0.686,0.904
						c0.626,2.774,0.943,5.63,0.943,8.489c0,0.385-0.007,0.793-0.023,1.278c-0.018,0.545-0.358,1.027-0.866,1.227
						c-0.299,0.119-0.597,0.235-0.9,0.35C74.931,65.894,62.244,68.082,49.127,68.082z M13.386,59.191
						c0.008,0.003,0.018,0.007,0.027,0.011c10.575,4.019,22.925,6.145,35.714,6.145s25.139-2.126,35.715-6.147
						c0.008-0.003,0.017-0.007,0.025-0.01c0.001-0.099,0.001-0.195,0.001-0.289c0-2.131-0.19-4.263-0.565-6.355
						c-10.54,3.777-22.662,5.769-35.177,5.769c-12.516,0-24.638-1.991-35.177-5.769c-0.375,2.092-0.565,4.223-0.565,6.355
						C13.385,58.996,13.385,59.092,13.386,59.191z"/>
				</g>
				<g>
					<g>
						<path fill="#4D4D4D" d="M49.125,48.551c-0.311,0-0.623-0.106-0.876-0.317c-5.143-4.297-8.214-11.252-8.214-18.608
							c0-7.351,3.071-14.307,8.214-18.606c0.507-0.425,1.245-0.425,1.752,0c5.146,4.297,8.217,11.253,8.217,18.606
							c0,7.355-3.071,14.312-8.217,18.608C49.747,48.445,49.435,48.551,49.125,48.551z M49.125,13.901
							c-3.998,3.821-6.356,9.607-6.356,15.724c0,6.12,2.358,11.906,6.356,15.727c4.001-3.821,6.359-9.607,6.359-15.727
							C55.484,23.508,53.126,17.722,49.125,13.901z"/>
					</g>
					<g>
						<path fill="#4D4D4D" d="M49.124,48.551c-0.512,0-0.994-0.29-1.227-0.767c-0.276-0.566-0.132-1.245,0.352-1.65
							c4.53-3.782,7.235-9.954,7.235-16.508c0-2.698-0.442-5.313-1.311-7.771c-0.181-0.514-0.04-1.086,0.358-1.456
							c3.085-2.872,6.744-4.83,10.582-5.664c0.645-0.142,1.299,0.201,1.554,0.812c2.567,6.191,2.065,13.778-1.345,20.296
							c-3.408,6.516-9.355,11.257-15.908,12.678C49.318,48.541,49.22,48.551,49.124,48.551z M57.044,21.818
							c0.78,2.494,1.175,5.115,1.175,7.807c0,5.244-1.561,10.285-4.322,14.303c3.694-2.035,6.89-5.309,9.004-9.355
							c2.836-5.422,3.429-11.642,1.655-16.882C61.872,18.464,59.307,19.871,57.044,21.818z"/>
					</g>
					<g>
						<path fill="#4D4D4D" d="M49.125,48.551c-0.095,0-0.194-0.01-0.29-0.031c-6.551-1.422-12.497-6.162-15.905-12.678
							c-3.409-6.519-3.912-14.105-1.345-20.296c0.255-0.611,0.909-0.954,1.554-0.812c3.838,0.834,7.498,2.791,10.582,5.664
							c0.399,0.371,0.539,0.943,0.358,1.455c-0.869,2.46-1.311,5.075-1.311,7.773c0,6.525,2.681,12.67,7.173,16.459
							c0.337,0.249,0.555,0.65,0.555,1.1c0,0.742-0.59,1.345-1.328,1.367C49.155,48.551,49.141,48.551,49.125,48.551z
							 M33.698,17.691c-1.775,5.239-1.182,11.46,1.654,16.882c2.114,4.045,5.309,7.319,9.003,9.355
							c-2.76-4.019-4.321-9.059-4.321-14.303c0-2.692,0.395-5.313,1.175-7.807C38.946,19.871,36.382,18.464,33.698,17.691z"/>
					</g>
				</g>
				<g>
					<path fill="#4D4D4D" d="M14.752,38.785c-2.907,0-5.273-2.366-5.273-5.273s2.366-5.273,5.273-5.273s5.273,2.366,5.273,5.273
						S17.659,38.785,14.752,38.785z M14.752,30.973c-1.4,0-2.539,1.139-2.539,2.539c0,1.4,1.139,2.539,2.539,2.539
						c1.4,0,2.539-1.139,2.539-2.539C17.291,32.112,16.151,30.973,14.752,30.973z"/>
				</g>
				<g>
					<path fill="#4D4D4D" d="M83.111,23.16c-3.986,0-7.227-3.241-7.227-7.227c0-3.986,3.241-7.227,7.227-7.227
						s7.227,3.241,7.227,7.227C90.338,19.919,87.097,23.16,83.111,23.16z M83.111,11.441c-2.477,0-4.492,2.015-4.492,4.492
						c0,2.477,2.015,4.492,4.492,4.492c2.477,0,4.492-2.015,4.492-4.492C87.603,13.457,85.588,11.441,83.111,11.441z"/>
				</g>
				<g>
					<path fill="#4D4D4D" d="M87.017,97.379H12.799c-0.756,0-1.367-0.611-1.367-1.367c0-0.756,0.611-1.367,1.367-1.367h74.219
						c0.756,0,1.367,0.611,1.367,1.367C88.385,96.767,87.773,97.379,87.017,97.379z"/>
				</g>
				<g>
					<g>
						<path fill="#4D4D4D" d="M55.654,87.279c-0.358,0-0.708-0.14-0.967-0.399c-0.333-0.334-0.471-0.818-0.364-1.277
							c0.144-0.624,0.221-1.373,0.301-2.165c0.19-1.851,0.386-3.765,1.561-4.942c0.923-0.921,2.148-1.429,3.453-1.429
							c1.305,0,2.531,0.507,3.452,1.429c1.904,1.904,1.904,5.002,0,6.907c-1.186,1.186-3.085,1.367-4.921,1.543
							c-0.805,0.078-1.565,0.15-2.208,0.3C55.861,87.268,55.757,87.279,55.654,87.279z M59.64,79.801
							c-0.575,0-1.114,0.224-1.52,0.63c-0.487,0.488-0.647,2.039-0.774,3.286c-0.018,0.188-0.038,0.378-0.059,0.568
							c0.208-0.02,0.418-0.04,0.623-0.059c1.229-0.119,2.758-0.266,3.248-0.756c0.838-0.838,0.838-2.202,0-3.04
							C60.752,80.024,60.214,79.801,59.64,79.801z"/>
					</g>
				</g>
				<g>
					<g>
						<path fill="#4D4D4D" d="M31.291,81.024c-0.197,0-0.395-0.042-0.579-0.127c-0.58-0.272-1.296-0.502-2.055-0.746
							c-1.772-0.57-3.605-1.159-4.511-2.553c-0.711-1.094-0.951-2.399-0.682-3.674c0.272-1.277,1.022-2.371,2.114-3.081
							c0.795-0.515,1.714-0.788,2.658-0.788c1.662,0,3.194,0.831,4.099,2.223c0.914,1.407,0.698,3.302,0.49,5.135
							c-0.093,0.804-0.178,1.563-0.167,2.221c0.008,0.471-0.226,0.916-0.623,1.172C31.81,80.95,31.551,81.024,31.291,81.024z
							 M28.237,72.788c-0.413,0-0.818,0.12-1.168,0.347c-0.48,0.311-0.811,0.794-0.93,1.356c-0.119,0.56-0.011,1.135,0.3,1.616
							c0.376,0.579,1.863,1.056,3.054,1.441c0.181,0.057,0.362,0.116,0.543,0.175c0.023-0.208,0.047-0.416,0.071-0.623
							c0.139-1.226,0.314-2.751-0.065-3.334C29.645,73.154,28.97,72.788,28.237,72.788z"/>
					</g>
				</g>
				<g>
					<path fill="#4D4D4D" d="M41.81,76.585c-0.351,0-0.699-0.133-0.967-0.401l-1.381-1.38c-0.534-0.535-0.534-1.401,0-1.935
						s1.4-0.534,1.933,0l1.381,1.381c0.534,0.534,0.534,1.4,0,1.933C42.509,76.452,42.159,76.585,41.81,76.585z"/>
				</g>
				<g>
					<path fill="#4D4D4D" d="M38.189,87.613h-1.953c-0.756,0-1.367-0.611-1.367-1.367c0-0.756,0.611-1.367,1.367-1.367h1.953
						c0.756,0,1.367,0.611,1.367,1.367C39.556,87.002,38.945,87.613,38.189,87.613z"/>
				</g>
				<g>
					<path fill="#4D4D4D" d="M73.345,79.801h-1.953c-0.756,0-1.367-0.611-1.367-1.367c0-0.756,0.611-1.367,1.367-1.367h1.953
						c0.756,0,1.367,0.611,1.367,1.367C74.713,79.189,74.101,79.801,73.345,79.801z"/>
				</g>
			</g>
		</g>
	</g>
</g>
</svg>
