<?xml version="1.0" encoding="utf-8"?>
<!-- Generator: Adobe Illustrator 16.0.0, SVG Export Plug-In . SVG Version: 6.00 Build 0)  -->
<!DOCTYPE svg PUBLIC "-//W3C//DTD SVG 1.1//EN" "http://www.w3.org/Graphics/SVG/1.1/DTD/svg11.dtd">
<svg version="1.1" id="Layer_1" xmlns="http://www.w3.org/2000/svg" xmlns:xlink="http://www.w3.org/1999/xlink" x="0px" y="0px"
	 width="18.969px" height="17.311px" viewBox="0 0 18.969 17.311" enable-background="new 0 0 18.969 17.311" xml:space="preserve">
<path fill="#FFFFFF" d="M286,317.426h90c2.762,0,5,2.238,5,5v90c0,2.765-2.238,5-5,5h-90c-2.762,0-5-2.235-5-5v-90
	C281,319.665,283.238,317.426,286,317.426z"/>
<g transform="translate(50 50) scale(0.69 0.69) rotate(0) translate(-50 -50)">
	<title>tool-9 copy 4</title>
	<desc>Created with Sketch.</desc>
</g>
<path fill="#BCBCBC" d="M15.715,1.471h-1.389V0.077V0h-1.64v1.471H5.879V0H4.237v1.471H3.26C1.459,1.471,0,2.93,0,4.729v9.322
	c0,1.801,1.459,3.26,3.26,3.26h12.451c1.801,0,3.258-1.459,3.258-3.26V4.729C18.973,2.93,17.514,1.471,15.715,1.471z M5.838,13.412
	H3.197v-2.641h2.641V13.412z M5.838,8.053H3.197v-2.64h2.641V8.053z M10.809,13.412H8.168v-2.641h2.641V13.412z M10.809,8.053H8.168
	v-2.64h2.641V8.053z M15.779,13.412h-2.641v-2.641h2.641V13.412z M15.779,8.053h-2.641v-2.64h2.641V8.053z"/>
</svg>
