<?xml version="1.0" encoding="utf-8"?>
<!-- Generator: Adobe Illustrator 16.0.0, SVG Export Plug-In . SVG Version: 6.00 Build 0)  -->
<!DOCTYPE svg PUBLIC "-//W3C//DTD SVG 1.1//EN" "http://www.w3.org/Graphics/SVG/1.1/DTD/svg11.dtd">
<svg version="1.1" id="Layer_1" xmlns="http://www.w3.org/2000/svg" xmlns:xlink="http://www.w3.org/1999/xlink" x="0px" y="0px"
	 width="100px" height="100px" viewBox="0 0 100 100" enable-background="new 0 0 100 100" xml:space="preserve">
<g>
	<g enable-background="new    ">
		<g>
			<path fill="#2B8FF1" d="M97.849,32.127l-14.933,6.854c-1.132,0.51-1.947,1.738-1.947,2.966v17.186
				c0,1.228,0.713,2.456,1.947,2.969l14.933,6.849c2.146,1.025,4.604-0.609,4.604-2.962V35.094
				C102.453,32.743,99.994,31.208,97.849,32.127z"/>
			<path fill="#2B8FF1" d="M66.855,22.92H12.119c-3.785,0-6.854,3.068-6.854,6.855v41.531c0,3.787,3.07,6.857,6.854,6.857h54.736
				c3.782,0,6.852-3.07,6.852-6.857V29.775C73.808,25.988,70.637,22.92,66.855,22.92z M49.561,52.383L34.423,62.511
				c-1.535,1.025-3.48-0.105-3.48-1.84V40.414c0-1.843,2.046-2.866,3.48-1.843l15.138,10.127
				C50.892,49.519,50.892,51.565,49.561,52.383z"/>
		</g>
	</g>
</g>
</svg>
