<?xml version="1.0" encoding="utf-8"?>
<!-- Generator: Adobe Illustrator 16.0.0, SVG Export Plug-In . SVG Version: 6.00 Build 0)  -->
<!DOCTYPE svg PUBLIC "-//W3C//DTD SVG 1.1//EN" "http://www.w3.org/Graphics/SVG/1.1/DTD/svg11.dtd">
<svg version="1.1" id="Layer_1" xmlns="http://www.w3.org/2000/svg" xmlns:xlink="http://www.w3.org/1999/xlink" x="0px" y="0px"
	 width="288px" height="288px" viewBox="0 0 288 288" enable-background="new 0 0 288 288" xml:space="preserve">
<g>
	<g>
		<g>
			<g>
				<defs>
					<rect id="SVGID_1_" width="288" height="288"/>
				</defs>
				<clipPath id="SVGID_2_">
					<use xlink:href="#SVGID_1_"  overflow="visible"/>
				</clipPath>
				<path clip-path="url(#SVGID_2_)" fill="#222222" d="M104.507,211.883c3.838,0.286,7.119,0.6,10.406,0.766
					c36.889,1.86,71.351-5.502,101.731-27.494c16.224-11.739,28.373-26.723,34.178-46.273c2.654-8.945,3.313-18.075,2.488-27.619
					c2.479,1.375,4.281,3.213,6.135,4.953c9.734,9.157,16.18,20.148,17.849,33.545c1.688,13.555-1.905,25.93-9.172,37.326
					c-2.957,4.643-6.278,9.034-10.358,12.732c-2.084,1.892-2.759,4.09-2.857,6.701c-0.258,6.639,1.796,12.653,4.938,18.357
					c3.662,6.65,8.399,12.52,13.434,18.166c0.438,0.496,1.188,0.827,1.205,1.875c-5.078-0.363-10.055-1.104-14.994-2.041
					c-15.952-3.027-31.271-7.924-45.612-15.646c-0.931-0.5-1.751-0.521-2.715-0.223c-13.688,4.229-27.726,6.274-42.021,5.946
					c-21.647-0.495-42.079-5.412-60.229-17.851c-0.72-0.494-1.426-1.008-2.131-1.521
					C106.174,213.145,105.582,212.689,104.507,211.883"/>
			</g>
		</g>
	</g>
	<g>
		<g>
			<g>
				<defs>
					<rect id="SVGID_3_" width="288" height="288"/>
				</defs>
				<clipPath id="SVGID_4_">
					<use xlink:href="#SVGID_3_"  overflow="visible"/>
				</clipPath>
				<path clip-path="url(#SVGID_4_)" fill="#222222" d="M24.552,233.084c7.077-10.359,13.655-20.611,16.913-32.579
					c1.766-6.485,1.973-12.989,0.224-19.521c-0.383-1.434-1.136-2.465-2.36-3.389c-13.073-9.855-23.586-21.822-29.042-37.489
					C2.716,118.37,6.59,98.203,19.896,79.765c11.236-15.57,26.549-25.997,43.926-33.605c17.503-7.664,35.901-11.538,54.937-12.199
					c31.773-1.105,61.708,5.272,88.562,23.036c14.326,9.477,25.953,21.544,32.492,37.709c9.285,22.956,5.559,44.389-8.89,64.026
					c-12.687,17.246-30.137,28.134-49.881,35.586c-22.134,8.354-45.067,10.963-68.582,9.195c-4.998-0.377-9.966-0.914-14.881-1.884
					c-1.012-0.198-1.653,0.243-2.368,0.757c-20.625,14.771-43.55,24.41-68.067,30.494c-0.383,0.096-0.779,0.159-1.172,0.191
					C25.579,233.109,25.18,233.084,24.552,233.084 M88.162,109.699c-7.312,0.013-12.995,5.664-13.005,12.93
					c-0.011,7.264,5.691,12.979,12.948,12.977c7.3-0.003,12.952-5.639,12.958-12.922C101.068,115.382,95.408,109.685,88.162,109.699
					 M177.986,122.719c0.02-7.262-5.682-13-12.938-13.021c-7.238-0.02-13.048,5.69-13.107,12.89
					c-0.063,7.138,5.806,13.021,12.979,13.017C172.236,135.602,177.971,129.948,177.986,122.719 M139.657,122.708
					c0.053-7.042-5.932-13.001-13.065-13.01c-7.24-0.008-13.064,5.737-13.083,12.907c-0.02,7.179,5.776,12.986,12.979,13.002
					C133.662,135.624,139.603,129.803,139.657,122.708"/>
			</g>
		</g>
	</g>
</g>
<g transform="translate(50 50) scale(0.69 0.69) rotate(0) translate(-50 -50)" display="none">
	<g transform="translate(0 -270.54)" display="inline">
		<path color-rendering="auto" image-rendering="auto" shape-rendering="auto" d="M216.075,296.248
			c-13.979,0-25.931,8.57-30.917,20.775c-12.683,4.76-21.738,16.972-21.738,31.302v72.732c0,4.61,0.933,9.033,2.624,13.041
			c1.686,4.008,4.143,7.598,7.169,10.618c3.025,3.027,6.62,5.472,10.629,7.158c3.791,1.596,6.711,0.635,8.675,0.535
			c0.194-0.005,0.112,0,0.279,0l4.489,33.217c0.323,2.389,2.511,4.065,4.9,3.752c1.118-0.157,2.134-0.726,2.832-1.602l26.691-33.284
			h96.074c4.614,0,9.024-0.932,13.035-2.618c4.01-1.692,7.626-4.131,10.652-7.158c3.026-3.02,5.46-6.609,7.16-10.618
			c0.041-0.122,0.075-0.246,0.125-0.369c0.365-0.117,0.74-0.246,1.285-0.473c4.011-1.692,7.613-4.126,10.629-7.152
			c3.02-3.02,5.467-6.622,7.153-10.629c1.694-4.01,2.624-8.42,2.624-13.031v-72.738c0-18.461-15.008-33.457-33.462-33.457H216.075
			V296.248z M216.075,304.968H346.98c13.778,0,24.745,10.965,24.745,24.731v72.743c0,3.439-0.696,6.688-1.933,9.642
			c-1.251,2.953-3.076,5.622-5.31,7.854c-0.487,0.492-1.186,0.715-1.715,1.162c0.011-0.425,0.212-0.793,0.212-1.216v-72.721
			c0-18.456-14.977-33.452-33.432-33.452H198.634c-0.021,0-0.033,0.017-0.061,0.017
			C203.068,308.759,208.762,304.968,216.075,304.968L216.075,304.968z M196.875,323.581h130.91
			c13.774,0,24.731,10.964,24.731,24.742v72.732c0,3.439-0.682,6.688-1.933,9.642c-1.237,2.953-3.057,5.627-5.296,7.866
			c-2.239,2.233-4.886,4.031-7.844,5.281c-2.952,1.246-6.219,1.933-9.658,1.933h-98.183c-1.319,0-2.562,0.604-3.391,1.63
			l-21.649,26.977l-3.351-24.827c-0.317-2.371-2.522-4.712-4.399-5.37c-1.874-0.652-3.35-0.558-4.704-0.496
			c-2.703,0.134-5.18,0.016-4.873,0.156c-2.96-1.244-5.622-3.048-7.861-5.281c-2.234-2.239-4.036-4.903-5.282-7.861
			c-1.245-2.959-1.93-6.198-1.93-9.642v-72.738C172.162,334.545,183.104,323.581,196.875,323.581L196.875,323.581z M212.876,372.999
			c-6.404,0-11.685,5.281-11.685,11.68c0,6.397,5.281,11.678,11.685,11.678c6.403,0,11.685-5.281,11.685-11.678
			C224.561,378.28,219.279,372.999,212.876,372.999z M259.43,372.999c-6.397,0-11.678,5.281-11.678,11.68
			c0,6.397,5.281,11.678,11.678,11.678c6.399,0,11.681-5.281,11.681-11.678C271.111,378.28,265.829,372.999,259.43,372.999z
			 M311.787,372.999c-6.399,0-11.685,5.281-11.685,11.68c0,6.397,5.288,11.678,11.685,11.678c6.403,0,11.683-5.281,11.683-11.678
			C323.47,378.28,318.19,372.999,311.787,372.999z M212.871,381.737c1.687,0,2.972,1.256,2.972,2.942
			c0,1.685-1.285,2.958-2.972,2.958c-1.68,0-2.937-1.273-2.937-2.958C209.934,382.993,211.191,381.737,212.871,381.737z
			 M259.43,381.737c1.687,0,2.942,1.256,2.942,2.942c0,1.685-1.255,2.958-2.942,2.958c-1.684,0-2.969-1.273-2.969-2.958
			C256.461,382.993,257.746,381.737,259.43,381.737z M311.787,381.737c1.687,0,2.958,1.256,2.958,2.942
			c0,1.685-1.271,2.958-2.958,2.958c-1.687,0-2.944-1.273-2.944-2.958C308.843,382.993,310.1,381.737,311.787,381.737z
			 M92.139,395.118c-32.486,0-58.904,26.417-58.904,58.899c0,26.875,18.094,49.585,42.73,56.633
			c-22.565,2.474-42.791,10.043-58.406,21.19c-19.261,13.761-31.582,33.233-31.582,55.017v18.188c0,2.406,1.948,4.362,4.355,4.362
			h203.636c2.412,0,4.359-1.956,4.359-4.362v-18.188c0-21.784-12.32-41.262-31.581-55.017
			c-15.615-11.154-35.858-18.725-58.428-21.197c24.642-7.047,42.752-29.751,42.752-56.626
			C151.07,421.535,124.619,395.118,92.139,395.118L92.139,395.118z M92.139,403.832c27.763,0,50.19,22.421,50.19,50.184
			c0,27.767-22.426,50.19-50.19,50.19c-27.768,0-50.161-22.421-50.161-50.19C41.977,426.254,64.37,403.832,92.139,403.832z
			 M92.139,518.508c27.366,0,51.991,7.912,69.538,20.444c17.541,12.528,27.936,29.4,27.936,47.905v13.829H-5.302v-13.829
			c0-18.508,10.389-35.377,27.936-47.905c17.546-12.533,42.144-20.444,69.511-20.444H92.139L92.139,518.508z"/>
	</g>
</g>
</svg>
