<?xml version="1.0" encoding="utf-8"?>
<!-- Generator: Adobe Illustrator 16.0.0, SVG Export Plug-In . SVG Version: 6.00 Build 0)  -->
<!DOCTYPE svg PUBLIC "-//W3C//DTD SVG 1.1//EN" "http://www.w3.org/Graphics/SVG/1.1/DTD/svg11.dtd">
<svg version="1.1" id="Layer_1" xmlns="http://www.w3.org/2000/svg" xmlns:xlink="http://www.w3.org/1999/xlink" x="0px" y="0px"
	 width="100px" height="100px" viewBox="0 0 100 100" enable-background="new 0 0 100 100" xml:space="preserve">
<g transform="translate(50 50) scale(0.69 0.69) rotate(0) translate(-50 -50)">
	<g>
		<path fill="#4D4D4D" d="M80.651-2.41L58.868,34.962L22.247-0.345c6.573-7.51,14.646-12.393,23.286-14.459h0.19
			c9.577-2.067,19.528-0.752,28.919,4.696h0.188c1.69,1.125,3.38,2.252,5.07,3.566C81.216-5.602,81.403-3.724,80.651-2.41z
			 M107.132,87.17c7.324,0,13.52,6.008,13.52,13.334c0,7.511-6.196,13.519-13.52,13.519c-7.514,0-13.522-6.008-13.522-13.519
			c0-3.946,1.69-7.512,4.508-9.955L86.849,79.846H52.293c-10.139,0-19.342-4.133-25.914-10.704c-0.938-0.941-1.879-1.88-2.63-2.816
			l-7.887,7.886v13.332c5.821,1.316,10.141,6.761,10.141,12.96c0,7.511-6.008,13.519-13.334,13.519
			c-7.511,0-13.521-6.008-13.521-13.519c0-6.199,4.321-11.644,10.331-12.96V72.897c0-0.938,0.374-1.688,0.938-2.253l9.763-9.766
			c-3.002-5.259-4.694-11.267-4.694-17.652V10.925l-5.07-4.883C7.599,3.225,2.903-0.72-1.79-3.347
			c-3.006-1.88-6.197-3.194-8.64-3.194h-7.699c-1.689,0-3.192-1.313-3.192-3.192c0-1.69,1.503-3.191,3.192-3.191h7.699
			c3.758,0,7.889,1.688,11.831,3.942c5.261,3.006,10.33,7.324,13.523,10.517l89.014,85.824v0.185
			C105.065,87.17,106.004,87.17,107.132,87.17L107.132,87.17z"/>
	</g>
</g>
</svg>
