<?xml version="1.0" encoding="utf-8"?>
<!-- Generator: Adobe Illustrator 16.0.0, SVG Export Plug-In . SVG Version: 6.00 Build 0)  -->
<!DOCTYPE svg PUBLIC "-//W3C//DTD SVG 1.1//EN" "http://www.w3.org/Graphics/SVG/1.1/DTD/svg11.dtd">
<svg version="1.1" id="Layer_1" xmlns="http://www.w3.org/2000/svg" xmlns:xlink="http://www.w3.org/1999/xlink" x="0px" y="0px"
	 width="55.55px" height="55.2px" viewBox="0 0 55.55 55.2" enable-background="new 0 0 55.55 55.2" xml:space="preserve">
<path fill="#FFFFFF" d="M267.049,302.049h90.001c2.765,0,5,2.238,5,5v90c0,2.764-2.235,5-5,5h-90.001c-2.762,0-5-2.236-5-5v-90
	C262.049,304.288,264.288,302.049,267.049,302.049z"/>
<g>
	<g>
		<path fill="#C9DAF7" d="M27.921,3.34C14.257,3.34,3.16,14.437,3.16,28.101c0,7.703,3.577,14.582,9.079,19.168
			c4.402-3.118,11.373-2.936,11.373-9.813c-1.834-1.925-2.11-5.687-2.11-5.687c-1.468-2.109-1.834-4.218-1.468-5.044
			c-0.733-2.108-0.733-5.778,1.468-7.153c1.467-5.319,8.071-6.236,13.574-3.576c-1.469,4.31,2.842,6.419,0.733,10.729
			c0.365,0.826,0,2.843-1.468,5.044c0,0-0.276,3.852-2.11,5.78c0,6.878,6.971,6.694,11.373,9.813
			c5.502-4.586,9.079-11.464,9.079-19.169C52.683,14.437,41.585,3.34,27.921,3.34z"/>
	</g>
</g>
<circle fill="none" stroke="#FFFFFF" stroke-width="4" stroke-miterlimit="10" cx="27.922" cy="27.81" r="25.96"/>
</svg>
