<?xml version="1.0" encoding="utf-8"?>
<!-- Generator: Adobe Illustrator 16.0.0, SVG Export Plug-In . SVG Version: 6.00 Build 0)  -->
<!DOCTYPE svg PUBLIC "-//W3C//DTD SVG 1.1//EN" "http://www.w3.org/Graphics/SVG/1.1/DTD/svg11.dtd">
<svg version="1.1" id="Layer_1" xmlns="http://www.w3.org/2000/svg" xmlns:xlink="http://www.w3.org/1999/xlink" x="0px" y="0px"
	 width="40.457px" height="55.8px" viewBox="0 0 40.457 55.8" enable-background="new 0 0 40.457 55.8" xml:space="preserve">
<path fill="#36A852" d="M0,47.462c0,0,5.842,1.7,11.181,1.808c0,0-4.969-4.423-0.4-8.798c0,0,4.734-4.093,8.958,1.738
	c0,0,1.896,3.35-1.196,6.559c0,0,3.873-0.464,5.874-3.247c0,0,1.915-2.205,0.31-4.274c0,0,7.781,0.95,10.554,6.407
	c0,0,1.359,2.841-2.34,5.082c0,0-7.332,4.725-19.168,2.506C13.771,55.242,2.275,52.012,0,47.462"/>
<path fill="#FACD46" d="M14.948,22.346c0,0-9.813-0.163-10.658-6.933c0,0-0.276-2.472,2.254-4.247c0,0-3.16-1.412-3.389-4.938
	c0,0-0.533-4.653,4.651-6.159c0,0,3.249-0.766,5.872,2.785c0,0,1.669,2.378,0.275,5.422c0,0,15.222-3.092,25.847,7.874
	c0,0-15.066-4.848-22.815,0.392C16.985,16.543,13.163,19.697,14.948,22.346"/>
<path fill="#557EBF" d="M2.759,16.129c0,0-1.174,4.178,4.154,6.309c0,0,4.263,1.678,11.371,3.009c0,0,5.489,0.791,10.974,2.348
	c0,0-2.024-5.101,3.188-7.798c0,0,4.748-2.063,7.73,3.694c0,0,1.875,5.447-4.08,7.355c0,0,5.341,3.275,3.81,12.104
	c0,0-0.562,4.13-2.266,6.12c0,0-0.488-7.558-11.561-9.948c0,0-3.449-1.107-12.532-2.525c0,0-11.679-2.49-12.893-9.679
	C0.655,27.118-0.573,20.316,2.759,16.129"/>
</svg>
