<?xml version="1.0" encoding="utf-8"?>
<!-- Generator: Adobe Illustrator 16.0.0, SVG Export Plug-In . SVG Version: 6.00 Build 0)  -->
<!DOCTYPE svg PUBLIC "-//W3C//DTD SVG 1.1//EN" "http://www.w3.org/Graphics/SVG/1.1/DTD/svg11.dtd">
<svg version="1.1"
	 id="Layer_1" xmlns:dc="http://purl.org/dc/elements/1.1/" xmlns:cc="http://creativecommons.org/ns#" xmlns:rdf="http://www.w3.org/1999/02/22-rdf-syntax-ns#" xmlns:svg="http://www.w3.org/2000/svg" xmlns:sodipodi="http://sodipodi.sourceforge.net/DTD/sodipodi-0.dtd" xmlns:inkscape="http://www.inkscape.org/namespaces/inkscape"
	 xmlns="http://www.w3.org/2000/svg" xmlns:xlink="http://www.w3.org/1999/xlink" x="0px" y="0px" width="64.868px"
	 height="64.861px" viewBox="0 0 64.868 64.861" enable-background="new 0 0 64.868 64.861" xml:space="preserve">
<g transform="translate(50 50) scale(0.69 0.69) rotate(0) translate(-50 -50)">
	<g transform="translate(0,-270.54165)">
		<path fill="#2B80C3" d="M-2.746,252.328c-1.005-0.001-1.82,0.814-1.82,1.819v7.27h-2.729c-0.689,0.001-1.318,0.391-1.626,1.008
			l-9.097,18.188c-0.152,0.299-0.217,0.635-0.189,0.97c0.006,2.253,0.016,4.529,0,6.658c0,0.006,0,0.011,0,0.014
			c0,3.969,2.709,7.324,6.369,8.328v39.422c-0.001,1.008,0.815,1.823,1.822,1.823h69.123c1.005,0,1.819-0.815,1.817-1.823v-39.425
			c3.659-1.004,6.365-4.358,6.365-8.325c0-0.004,0-0.008,0-0.013c-0.014-2.128-0.004-4.402,0-6.658
			c0.028-0.335-0.035-0.669-0.187-0.969l-9.096-18.19c-0.31-0.617-0.937-1.004-1.628-1.004h-2.732v-7.273
			c0-1.004-0.814-1.819-1.817-1.819H-2.746V252.328z M-0.926,255.967h50.933v5.453l-50.933-0.003V255.967z M-6.168,265.058h61.417
			l7.279,14.556h-75.973L-6.168,265.058z M-14.566,283.255h10.003v5c0,2.805-2.198,5.002-5.002,5.002s-5-2.197-5-5.002V283.255z
			 M-0.923,283.255H9.079v5c0,2.805-2.197,5.002-5.002,5.002c-2.802,0-5-2.197-5-5.002V283.255z M12.721,283.255h10.003l0.007,5.453
			c-0.007,2.206-2.207,4.549-5.01,4.549c-2.801,0-5-2.197-5-5.002V283.255z M26.359,283.255h10.002c0,1.692,0,3.402,0,5
			c0,2.805-2.197,5.002-4.999,5.002c-2.804,0-5.003-2.197-5.003-5.002C26.359,286.59,26.359,284.921,26.359,283.255z
			 M40.004,283.255h10.002c0,1.692,0,3.402,0,5c0,2.805-2.197,5.002-5,5.002c-2.804,0-5.002-2.197-5.002-5.002V283.255z
			 M53.647,283.255h10.005c0,0-0.013,3.386,0,5c0,2.805-2.198,5.002-5.002,5.002s-5.003-2.197-5.003-5.002V283.255z M24.544,293.509
			v0.028c1.584,2.039,4.049,3.361,6.819,3.361c2.771,0,5.237-1.324,6.82-3.366c1.587,2.04,4.053,3.366,6.823,3.366
			c2.77,0,5.237-1.324,6.823-3.366c1.315,1.697,3.251,2.887,5.455,3.242v37.414H18.204v-25.468c0-1.003-0.813-1.82-1.82-1.82H-1.811
			c-1.004,0-1.82,0.817-1.82,1.82v25.468h-4.567v-37.414c2.204-0.355,4.137-1.544,5.454-3.242c1.585,2.04,4.053,3.366,6.822,3.366
			s5.239-1.324,6.822-3.366c1.583,2.04,4.051,3.366,6.821,3.366c2.769,0,5.236-1.323,6.819-3.361L24.544,293.509z M0.009,310.542
			h14.556v23.647H0.009V310.542z"/>
		<path fill="#2B80C3" d="M27.272,309.628c-1.005,0-1.82,0.814-1.82,1.82l0,0v18.187c0,1.006,0.814,1.82,1.819,1.82c0,0,0,0,0.001,0
			h23.647c1.005,0,1.819-0.814,1.819-1.817l0,0v-18.19c0.001-1.005-0.814-1.82-1.817-1.82l0,0H27.272L27.272,309.628z
			 M29.09,313.265h20.01v14.552H29.09V313.265z"/>
	</g>
</g>
</svg>
