<?xml version="1.0" encoding="utf-8"?>
<!-- Generator: Adobe Illustrator 16.0.0, SVG Export Plug-In . SVG Version: 6.00 Build 0)  -->
<!DOCTYPE svg PUBLIC "-//W3C//DTD SVG 1.1//EN" "http://www.w3.org/Graphics/SVG/1.1/DTD/svg11.dtd">
<svg version="1.1" xmlns="http://www.w3.org/2000/svg" xmlns:xlink="http://www.w3.org/1999/xlink" x="0px" y="0px"
	 width="347.18px" height="189.431px" viewBox="0 0 347.18 189.431" enable-background="new 0 0 347.18 189.431"
	 xml:space="preserve">
<g id="Layer_1">
</g>
<g id="Layer_2">
	<g>
		<rect x="-17.531" y="53.111" fill="#FFFFFF" width="266.776" height="152.443"/>
		<g>
			<path fill="#1B1251" d="M165.237,164.1c-0.155-0.055-0.313-0.11-0.471-0.171c0,0,0.058-0.124,0.169-0.362
				c1.676-3.495,15.684-31.105,42.698-36.391c0.215-0.044,0.43-0.084,0.645-0.124c3.42-0.619,7.043-0.879,10.873-0.691
				c0,0,5.36,0.101,11.946,4.753c0.147,0.102,0.297,0.206,0.442,0.315c2.964,2.166,6.15,5.252,9.197,9.661
				c0.06,0.081,0.12,0.168,0.179,0.256c0,0-0.049,0.123-0.147,0.357c-0.943,2.173-6.438,13.775-19.478,21.396
				c-0.168,0.1-0.34,0.199-0.511,0.295C208.989,170.091,191.177,173.49,165.237,164.1z"/>
			<g>
				<path fill="#FFFFFF" d="M164.824,164.223l-0.058-0.294l-0.057-0.297l0.226-0.065l75.802-22.477
					c0.06,0.081,0.12,0.168,0.179,0.256c0,0-0.049,0.123-0.147,0.357L165.237,164.1L164.824,164.223z"/>
			</g>
			<g>
				<path fill="#FFFFFF" d="M220.779,163.395L209.456,150.7l0.375-0.447l11.459,12.847
					C221.122,163.199,220.95,163.299,220.779,163.395z"/>
			</g>
			<g>
				<path fill="#FFFFFF" d="M195.606,154.779l-0.631,0.086l12.659-27.689c0.215-0.044,0.43-0.084,0.645-0.124L195.606,154.779z"/>
			</g>
			<g>
				<path fill="#FFFFFF" d="M223.995,146.575l-0.457-0.289l7.56-15.173c0.147,0.102,0.297,0.206,0.442,0.315L223.995,146.575z"/>
			</g>
		</g>
		<g>
			<path fill="#1B1251" d="M105.819,161.428c0.09,0.213,0.184,0.431,0.274,0.648c0,0-0.184,0.059-0.535,0.174
				c-5.194,1.618-46.965,13.627-78.23-9.079c-0.252-0.181-0.5-0.361-0.745-0.546c-3.908-2.921-7.64-6.397-11.109-10.512
				c0,0-5.022-5.604-6.541-16.822c-0.037-0.247-0.072-0.501-0.099-0.756c-0.609-5.115-0.483-11.343,1.132-18.691
				c0.027-0.138,0.058-0.285,0.091-0.428c0,0,0.174-0.066,0.508-0.189c3.137-1.112,20.317-6.558,40.619-0.447
				c0.264,0.078,0.53,0.161,0.792,0.245C70.135,110.736,90.662,125.792,105.819,161.428z"/>
			<g>
				<path fill="#FFFFFF" d="M106.339,161.736l-0.246,0.34l-0.25,0.342l-0.285-0.168L9.966,105.844
					c0.027-0.138,0.058-0.285,0.091-0.428c0,0,0.174-0.066,0.508-0.189l95.254,56.201L106.339,161.736z"/>
			</g>
			<g>
				<path fill="#FFFFFF" d="M51.976,105.024l-2.217,23.778l-0.819,0.037l2.244-24.061C51.448,104.857,51.714,104.94,51.976,105.024z
					"/>
			</g>
			<g>
				<path fill="#FFFFFF" d="M67.195,139.132l0.694,0.567l-40.561,13.472c-0.252-0.181-0.5-0.361-0.745-0.546L67.195,139.132z"/>
			</g>
			<g>
				<path fill="#FFFFFF" d="M31.616,117.804l0.139,0.747l-22.822,6.74c-0.037-0.247-0.072-0.501-0.099-0.756L31.616,117.804z"/>
			</g>
		</g>
		<g>
			<g>
				<path fill="#0F094C" d="M173.55,119.583l-0.082-0.109l-0.01-0.013l-0.096-0.13c-0.081,0.062-2.006,1.523-2.715,5.6
					c-0.414,2.375-0.322,5.155,0.27,8.26c0.474,2.485,1.271,5.187,2.381,8.071c0.282,0.73,0.583,1.472,0.905,2.225
					c0.292,0.691,0.604,1.389,0.932,2.098l0.277-0.166c-0.15-0.325-0.295-0.646-0.437-0.963c-0.63-1.414-1.174-2.756-1.643-4.021
					c-2.772-7.495-2.886-12.427-2.375-15.408c0.667-3.893,2.507-5.367,2.593-5.433c0.002-0.001,0.003-0.004,0.004-0.004
					L173.55,119.583z M173.55,119.583l-0.088-0.106l0.079,0.121l0,0l0.014-0.009L173.55,119.583z"/>
			</g>
			<path fill="#1B1251" d="M173.891,113.61c0,0-1.598-1.382-3.183-0.464c0,0-0.858,1.656,1.109,3.395c0,0-2.037,0.494-2.625,2.457
				c0,0,1.081,1.688,3.458,1.381c0,0-0.144,2.525,1.292,3.268c0,0,1.691-0.256,2.328-2.07c0,0,1.577,1.902,3.403,1.406
				c0,0,1.04-1.285,0.144-3.313c0,0,2.051-0.302,2.921-1.806c0,0-1.027-1.998-2.457-2.124c0,0,1.361-1.616,0.506-3.358
				c0,0-1.837-0.445-2.791,0.698c0,0-1.033-2.611-3.256-2.815C174.743,110.265,173.081,111.44,173.891,113.61z"/>
			<circle fill="#ADB0FA" cx="175.9" cy="117.246" r="2.48"/>
			<circle fill="#FECD40" cx="175.901" cy="117.246" r="1.157"/>
			<path fill="#1B1251" d="M170.51,128.58c0,0-1.368-4.855-3.403-2.641c0,0-1.191,1.318,0.671,2.219c0,0,1.032,0.591,2.789,0.643
				L170.51,128.58z"/>
			<path fill="#1B1251" d="M170.8,128.416c0,0,2.21-4.536,3.819-1.993c0,0,0.938,1.51-1.056,2.062c0,0-1.12,0.399-2.859,0.137
				L170.8,128.416z"/>
			<path fill="#1B1251" d="M171.1,133.416c0,0-1.639-5.815-4.076-3.163c0,0-1.426,1.582,0.804,2.657c0,0,1.236,0.709,3.341,0.77
				L171.1,133.416z"/>
			<path fill="#1B1251" d="M171.369,133.326c0,0,1.988-5.706,4.26-2.912c0,0,1.327,1.666-0.963,2.604c0,0-1.276,0.632-3.382,0.566
				L171.369,133.326z"/>
			<path fill="#1B1251" d="M172.576,138.138c0,0,0.729-5.998,3.544-3.75c0,0,1.651,1.343-0.388,2.747c0,0-1.113,0.89-3.184,1.273
				L172.576,138.138z"/>
			<path fill="#1B1251" d="M172.294,138.055c0,0-2.979-5.258-4.713-2.1c0,0-1.007,1.875,1.415,2.388c0,0,1.369,0.392,3.428-0.051
				L172.294,138.055z"/>
		</g>
		<g>
			<g>
				<path fill="#0F094C" d="M46.984,85.927c0.001,0,0.002,0,0.005,0.001c0.147,0.047,3.295,1.064,6.107,5.846
					c2.152,3.66,4.456,10.189,4.542,21.408c0.015,1.895-0.035,3.926-0.158,6.097c-0.027,0.486-0.06,0.979-0.094,1.481l0.446,0.079
					c0.078-1.092,0.137-2.164,0.18-3.215c0.049-1.149,0.074-2.274,0.081-3.373c0.024-4.337-0.271-8.279-0.885-11.778
					c-0.767-4.371-2.029-8.064-3.754-10.978c-2.958-5-6.211-5.964-6.349-6.003l-0.061,0.218l-0.007,0.021l-0.052,0.185
					L46.984,85.927z M46.984,85.928l0.021,0.003l0.001-0.001l0.042-0.197l-0.062,0.184L46.984,85.928z"/>
			</g>
			<path fill="#569BDE" d="M43.569,78.242c0,0,1.41-2.609,3.949-2.187c0,0,1.95,1.745,0.231,5.008c0,0,2.92-0.366,4.667,1.917
				c0,0-0.581,2.754-3.855,3.535c0,0,1.444,3.243-0.072,4.931c0,0-2.346,0.503-4.083-1.561c0,0-1.125,3.281-3.77,3.536
				c0,0-2.004-1.168-1.837-4.276c0,0-2.844,0.624-4.733-0.915c0,0,0.355-3.136,2.168-4.014c0,0-2.589-1.443-2.333-4.157
				c0,0,2.19-1.493,4.012-0.468c0,0,0.058-3.943,2.874-5.317C40.788,74.274,43.554,74.994,43.569,78.242z"/>
			<circle fill="#0F094C" cx="42.74" cy="84.016" r="3.48"/>
			<circle fill="#FECD40" cx="42.74" cy="84.016" r="1.624"/>
			<path fill="#1B1251" d="M55.453,96.219c0,0-0.618-7.057,3.155-5.162c0,0,2.219,1.142,0.222,3.246c0,0-1.062,1.29-3.343,2.231
				L55.453,96.219z"/>
			<path fill="#1B1251" d="M54.99,96.145c0,0-5.157-4.854-6.006-0.72c0,0-0.478,2.45,2.412,2.185c0,0,1.669-0.034,3.821-1.242
				L54.99,96.145z"/>
			<path fill="#1B1251" d="M57.083,102.859c0,0-0.742-8.451,3.777-6.182c0,0,2.659,1.367,0.266,3.889c0,0-1.271,1.543-4.003,2.672
				L57.083,102.859z"/>
			<path fill="#1B1251" d="M56.685,102.874c0,0-5.448-6.503-7.042-1.702c0,0-0.916,2.845,2.559,2.936c0,0,1.99,0.195,4.721-0.936
				L56.685,102.874z"/>
			<path fill="#1B1251" d="M57.491,109.791c0,0-3.939-7.514-6.518-3.163c0,0-1.499,2.585,1.875,3.417c0,0,1.904,0.611,4.813,0.088
				L57.491,109.791z"/>
			<path fill="#1B1251" d="M57.819,109.539c0,0,1.299-8.381,5.146-5.098c0,0,2.255,1.961-0.67,3.838c0,0-1.603,1.196-4.526,1.639
				L57.819,109.539z"/>
		</g>
		<g>
			<path fill="#569BDE" d="M101.896,103.449c-1.303-2.107-2.569-4.219-4.7-5.4c-2.1-1.164-4.633-1.177-7.036-1.41
				c-1.955-0.193-4.458-0.604-5.846-2.126c-0.568-0.624-0.866-1.293-1.506-1.882c-0.606-0.558-1.758-1.312-1.775-2.259
				c-0.326-1.462,0.871-2.853,2.149-3.667c1.278-0.815,2.775-1.39,3.703-2.586c1.516-1.953,0.617-5.229-1.671-6.097
				c-1.026-0.39-2.324-0.424-2.935-1.329c-0.822-1.222,0.339-2.848,1.582-3.674c1.242-0.828,2.79-1.595,3.11-3.043
				c0.665-3.024-4.647-4.807-4.001-7.836c0.341-1.599,2.334-2.388,3.926-2.036c1.592,0.351,2.86,1.487,4.088,2.548
				c1.228,1.059,2.589,2.126,4.215,2.282c2.574,0.251,4.796-1.837,6.282-3.97c0.668-0.96,1.415-2.061,2.567-2.238
				c0.868-0.133,1.743,0.344,2.249,1.049c0.504,0.706,0.682,1.604,0.684,2.475c0.005,1.963-0.803,3.834-1.453,5.699
				c-0.651,1.861-1.156,3.904-0.547,5.764s2.736,3.318,4.563,2.558c1.091-0.456,1.774-1.523,2.605-2.364
				c0.831-0.842,2.149-1.503,3.149-0.9c0.801,0.482,1.002,1.544,1.03,2.482c0.103,3.516-1.194,7.074-3.55,9.73
				c-0.896,1.009-1.939,1.897-2.7,3.012c-0.76,1.113-1.21,2.553-0.736,3.799c0.499,1.314,1.884,2.104,2.473,3.379
				c0.694,1.506,0.125,3.277-0.447,4.854c-0.616,1.689-1.815,3.772-1.693,5.57c0.089,1.322,0.025,2.755-1.789,2.914
				c-1.21,0.105-2.326-0.624-3.178-1.47C103.593,106.168,102.737,104.809,101.896,103.449z"/>
			<path fill="#FFFFFF" d="M108.272,98.643c0.076,0.051,0.172,0.074,0.27,0.056c0.197-0.038,0.326-0.229,0.288-0.425
				c-2.218-11.625-8.07-21.303-12.587-27.376c-4.895-6.578-9.33-10.466-9.375-10.503c-0.151-0.132-0.379-0.117-0.511,0.035
				c-0.131,0.151-0.116,0.381,0.035,0.512c0.174,0.153,17.53,15.48,21.725,37.467C108.137,98.508,108.194,98.591,108.272,98.643z"/>
			<path fill="#FFFFFF" d="M105.843,89.854c0.015,0.011,0.029,0.019,0.046,0.026c0.18,0.087,0.396,0.01,0.484-0.17
				c2.249-4.67,5.442-13.619,5.475-13.709c0.067-0.188-0.031-0.396-0.221-0.464c-0.188-0.066-0.396,0.032-0.464,0.221
				c-0.031,0.09-3.211,9.002-5.444,13.638C105.64,89.561,105.695,89.756,105.843,89.854z"/>
			<path fill="#FFFFFF" d="M91.573,91.088c1.68,1.129,10.525,6.727,15.857,3.388c0.171-0.106,0.223-0.331,0.116-0.499
				c-0.106-0.171-0.316-0.242-0.487-0.136c-5.378,3.368-15.207-3.501-15.308-3.568c-0.003-0.001-0.005-0.004-0.008-0.004
				c-0.163-0.112-0.398-0.052-0.512,0.111c-0.115,0.165-0.083,0.401,0.082,0.516C91.346,90.918,91.431,90.993,91.573,91.088z"/>
			<path fill="#FFFFFF" d="M87.617,75.654c0.068,0.043,0.151,0.066,0.238,0.059c0.065-0.008,6.579-0.61,12.891,3.266
				c0.17,0.104,0.394,0.051,0.499-0.121c0.105-0.171,0.051-0.397-0.119-0.498c-6.529-4.008-13.068-3.396-13.343-3.367
				c-0.198,0.02-0.344,0.197-0.323,0.396C87.47,75.501,87.531,75.596,87.617,75.654z"/>
			<path fill="#FFFFFF" d="M101.271,79.915c0.065,0.042,0.144,0.065,0.228,0.061c0.201-0.016,0.35-0.188,0.336-0.388
				c-0.367-5.23,1.563-16.097,1.582-16.206c0.035-0.197-0.096-0.387-0.293-0.421c-0.197-0.035-0.386,0.095-0.421,0.294
				c-0.08,0.448-1.965,11.063-1.59,16.384C101.12,79.755,101.182,79.854,101.271,79.915z"/>
		</g>
		<g>
			<path fill="#ADB0FA" d="M175.762,157.828c-0.071,0.037-0.143,0.077-0.215,0.115c0,0-0.027-0.063-0.076-0.181
				c-0.716-1.739-6.121-15.758,0.747-27.215c0.055-0.091,0.109-0.181,0.166-0.272c0.887-1.436,1.97-2.825,3.281-4.145
				c0,0,1.777-1.9,5.594-2.766c0.085-0.019,0.172-0.038,0.258-0.055c1.744-0.367,3.891-0.513,6.471-0.181
				c0.049,0.006,0.102,0.013,0.15,0.019c0,0,0.028,0.059,0.081,0.17c0.477,1.046,2.876,6.796,1.389,13.974
				c-0.02,0.094-0.039,0.188-0.06,0.28C192.131,143.998,187.571,151.524,175.762,157.828z"/>
			<g>
				<path fill="#FFFFFF" d="M175.67,158.018l-0.123-0.074l-0.126-0.078l0.05-0.103l16.516-34.633
					c0.049,0.006,0.102,0.013,0.15,0.019c0,0,0.028,0.059,0.081,0.17l-16.456,34.51L175.67,158.018z"/>
			</g>
			<g>
				<path fill="#FFFFFF" d="M193.547,137.572l-8.256-0.041l-0.038-0.279l8.354,0.04C193.587,137.386,193.567,137.48,193.547,137.572
					z"/>
			</g>
			<g>
				<path fill="#FFFFFF" d="M182.265,143.85l-0.175,0.258l-5.873-13.56c0.055-0.091,0.109-0.181,0.166-0.272L182.265,143.85z"/>
			</g>
			<g>
				<path fill="#FFFFFF" d="M188.526,130.951l-0.252,0.069l-3.017-7.655c0.085-0.019,0.172-0.038,0.258-0.055L188.526,130.951z"/>
			</g>
		</g>
		<g>
			<path fill="#BCA5F3" d="M257.833,137.42c-0.138-0.025-0.279-0.055-0.42-0.084c0,0,0.034-0.113,0.096-0.328
				c0.965-3.164,9.23-28.266,31.345-36.202c0.176-0.065,0.352-0.128,0.528-0.188c2.805-0.964,5.83-1.649,9.086-1.984
				c0,0,4.535-0.604,10.692,2.472c0.137,0.067,0.276,0.137,0.415,0.21c2.778,1.446,5.865,3.641,9.004,6.969
				c0.06,0.061,0.124,0.125,0.185,0.191c0,0-0.027,0.111-0.079,0.321c-0.517,1.956-3.66,12.453-13.682,20.563
				c-0.13,0.105-0.263,0.211-0.394,0.315C295.521,136.843,280.928,142.004,257.833,137.42z"/>
			<path fill="#FFFFFF" d="M257.499,137.576l-0.086-0.24l-0.084-0.242l0.181-0.086l61.069-28.724
				c0.06,0.061,0.124,0.125,0.185,0.191c0,0-0.027,0.111-0.079,0.321l-60.851,28.623L257.499,137.576z"/>
			<path fill="#FFFFFF" d="M304.608,129.675l-11.188-9.255l0.26-0.426l11.322,9.365C304.872,129.465,304.739,129.57,304.608,129.675
				z"/>
			<path fill="#FFFFFF" d="M282.259,125.645l-0.523,0.155l7.118-24.994c0.176-0.065,0.352-0.128,0.528-0.188L282.259,125.645z"/>
			<path fill="#FFFFFF" d="M305.156,115.068l-0.422-0.186l4.425-13.777c0.137,0.067,0.276,0.137,0.415,0.21L305.156,115.068z"/>
		</g>
		<g>
			<path fill="#ADB0FA" d="M118.347,135.311c0.14-0.027,0.279-0.055,0.42-0.085c0,0-0.033-0.114-0.096-0.328
				c-0.965-3.164-9.229-28.265-31.345-36.202c-0.175-0.065-0.351-0.127-0.528-0.189c-2.806-0.963-5.83-1.647-9.084-1.981
				c0,0-4.536-0.605-10.693,2.471c-0.138,0.065-0.277,0.136-0.414,0.21c-2.779,1.444-5.865,3.64-9.005,6.968
				c-0.06,0.06-0.123,0.126-0.184,0.193c0,0,0.026,0.11,0.079,0.319c0.516,1.957,3.66,12.454,13.681,20.564
				c0.13,0.105,0.262,0.21,0.394,0.314C80.659,134.732,95.251,139.893,118.347,135.311z"/>
			<path fill="#FFFFFF" d="M118.681,135.465l0.086-0.239l0.085-0.244l-0.182-0.084l-61.069-28.725
				c-0.06,0.06-0.123,0.126-0.184,0.193c0,0,0.026,0.11,0.079,0.319l60.85,28.625L118.681,135.465z"/>
			<path fill="#FFFFFF" d="M71.571,127.564l11.189-9.254l-0.26-0.427l-11.323,9.366C71.308,127.355,71.439,127.46,71.571,127.564z"
				/>
			<path fill="#FFFFFF" d="M93.921,123.535l0.522,0.155l-7.118-24.995c-0.175-0.065-0.351-0.127-0.528-0.189L93.921,123.535z"/>
			<path fill="#FFFFFF" d="M71.023,112.958l0.422-0.185l-4.425-13.778c-0.138,0.065-0.277,0.136-0.414,0.21L71.023,112.958z"/>
		</g>
		<g>
			<path fill="#BCA5F3" d="M93.463,158.806c0.117-0.077,0.237-0.157,0.355-0.239c0,0-0.073-0.091-0.214-0.267
				c-2.101-2.555-19.325-22.596-42.795-21.485c-0.188,0.007-0.375,0.017-0.56,0.028c-2.961,0.183-6.018,0.704-9.153,1.638
				c0,0-4.423,1.171-8.938,6.369c-0.102,0.112-0.205,0.23-0.302,0.351c-2.017,2.396-4.03,5.604-5.661,9.878
				c-0.033,0.08-0.065,0.164-0.096,0.25c0,0,0.065,0.091,0.194,0.267c1.224,1.608,8.139,10.11,20.499,13.776
				c0.16,0.049,0.323,0.097,0.483,0.141C58.411,172.665,73.868,171.862,93.463,158.806z"/>
			<path fill="#FFFFFF" d="M93.831,158.823l-0.012-0.257l-0.012-0.256l-0.202-0.011l-67.41-3.222
				c-0.033,0.08-0.065,0.164-0.096,0.25c0,0,0.065,0.091,0.194,0.267l67.17,3.211L93.831,158.823z"/>
			<path fill="#FFFFFF" d="M47.274,169.512l6.808-12.827l-0.404-0.293l-6.887,12.979C46.951,169.42,47.114,169.468,47.274,169.512z"
				/>
			<path fill="#FFFFFF" d="M66.392,157.252l0.541-0.057l-16.124-20.381c-0.188,0.007-0.375,0.017-0.56,0.028L66.392,157.252z"/>
			<path fill="#FFFFFF" d="M41.188,156.223l0.321-0.334l-9.352-11.039c-0.102,0.112-0.205,0.23-0.302,0.351L41.188,156.223z"/>
		</g>
		<ellipse fill="#F7D1FF" cx="173.59" cy="168.232" rx="173.59" ry="21.198"/>
		<path fill="#FAECFD" d="M157.199,129.74c2.091,2.766,3.563,6.128,4.411,9.639c5.011-2.646,11.442-2.353,16.194,0.73
			c2.088,1.357,3.918,3.326,4.471,5.755c0.553,2.429-0.491,5.308-2.771,6.311c2.639,0.705,5.277,1.412,7.916,2.117
			c2.678,0.719,5.518,1.533,7.352,3.611c2.638,2.989,2.228,7.843-0.117,11.069c-2.344,3.225-6.174,5.055-10.025,6.087
			c-3.261,0.876-8.559,1.371-11.971,1.659c-6.99,0.59-22.386,0.369-30.434,0.795c-13.571,0.72-52.622,0.282-60.034,0.24
			c-6.535-0.035-28.036-2.346-32.222-2.682c-4.266-0.346-8.663-1.043-12.94-1.043c-2.371-0.19-4.808-0.402-7.018-1.216
			c-1.532-0.563-2.342-2.239-1.806-3.781c0.416-1.198,1.321-2.294,2.43-2.938c2.037-1.182,4.512-1.244,6.866-1.274
			c6.145-0.079,12.186-0.349,18.299,0.494c-6.558-0.903-12.701-4.515-16.688-9.8c-2.16-2.863-3.578-7.203-1.115-9.809
			c1.657-1.75,4.36-1.9,6.765-1.741c6.854,0.46,13.599,2.515,19.542,5.957c-3.512-2.341-7.157-4.821-9.194-8.517
			c-2.035-3.699-1.862-8.984,1.533-11.493c3.594-2.656,8.736-1.067,12.552,1.26c6.533,3.99,11.864,9.915,15.142,16.831
			c-1.691-4.578-3.411-9.462-2.385-14.229c1.027-4.772,6.008-9.02,10.605-7.394c2.68,0.947,4.464,3.6,5.145,6.355
			c0.096,0.396,0.176,0.789,0.235,1.187c0.246-1.423,0.661-2.809,1.296-4.114c1.696-3.493,5.226-6.28,9.11-6.227
			c4.539,0.063,8.308,3.941,9.738,8.248c1.43,4.309,1.03,8.98,0.614,13.5c2.367-8.186,7.2-16.053,14.71-20.084
			c3.308-1.775,7.181-2.611,10.942-2.43c0.142,0.008,0.28,0.016,0.419,0.024C150.114,123.149,154.266,125.86,157.199,129.74z"/>
		<path fill="#CDD0FD" d="M238.822,137.466c-0.111,0.059-0.222,0.12-0.331,0.184c-1.774,1.042-3.031,2.878-3.468,4.876
			c-0.417,1.905-0.798,4.028,0.998,5.355c-1.625,0.289-3.208,0.963-4.42,2.084c-1.212,1.12-2.029,2.709-2.053,4.357
			c-0.026,1.785,0.851,3.48,2.008,4.837c1.894,2.222,4.536,3.704,7.305,4.629c2.768,0.923,5.68,1.324,8.578,1.673
			c3.155,0.381,6.336,0.707,9.506,0.477c3.406-0.247,6.476-1.515,9.912-1.396c4.046,0.137,7.845-1.516,11.855-1.76
			c7.528-0.456,14.872,3.927,22.327,2.785c1.57-0.241,3.146-0.75,4.354-1.783c1.208-1.031,1.987-2.658,1.701-4.22
			c-0.602-3.304-4.98-3.264-7.517-3.372c-3.814-0.164-7.64-0.035-11.434,0.385c3.112-0.427,6.027-2.143,7.92-4.65
			c1.024-1.359,1.699-3.418,0.528-4.654c-0.784-0.83-2.069-0.903-3.209-0.826c-3.252,0.218-6.453,1.193-9.274,2.827
			c1.667-1.113,3.397-2.288,4.363-4.043c0.967-1.754,0.885-4.263-0.728-5.454c-1.706-1.261-4.146-0.508-5.956,0.598
			c-3.102,1.895-5.631,4.707-7.187,7.989c0.803-2.173,1.619-4.491,1.131-6.754c-0.486-2.266-2.851-4.281-5.032-3.509
			c-1.272,0.45-2.118,1.708-2.441,3.017c-0.045,0.187-0.084,0.374-0.111,0.563c-0.117-0.676-0.314-1.333-0.616-1.952
			c-0.804-1.659-2.479-2.982-4.323-2.955c-2.154,0.03-3.943,1.869-4.622,3.914c-0.678,2.045-0.488,4.262-0.291,6.408
			c-0.087-0.951-0.696-2.076-1.096-2.931c-0.472-1.009-1.034-1.978-1.694-2.874c-0.655-0.893-1.408-1.687-2.244-2.409
			c-0.855-0.739-1.458-1.433-2.584-1.817c-1.427-0.49-2.953-0.591-4.459-0.657C243.7,136.295,241.041,136.307,238.822,137.466z"/>
		<path fill="#E5526F" d="M106.773,14.815c0.088-2.586,0.912-5.084,1.734-7.537c0.68-2.026,1.436-4.159,3.08-5.529
			c1.995-1.661,4.817-1.806,7.413-1.736c4.358,0.12,8.701,0.626,13.002,1.343c3.931,0.653,8.157,1.67,10.667,4.766
			c2.574,3.176,2.588,7.936,0.706,11.565c-1.703,3.285-5.571,7.154-9.437,7.743l1.034,5.68l-5.726-5.435
			c-4.191-0.033-8.519-0.623-12.525-1.137c-2.639-0.337-5.437-0.839-7.388-2.646C107.434,20.135,106.686,17.403,106.773,14.815z"/>
		<g>
			<polygon fill="#E4A544" points="162.332,127.052 116.07,164.185 69.325,127.052 			"/>
			<g>
				<path fill="#E09F3B" d="M162.408,127.143H69.405l41.675-35.05c2.791-2.346,6.863-2.346,9.653,0L162.408,127.143z"/>
				<path fill="#F3BD5D" d="M162.408,127.143h-6.907l-33.387-28.354c-5.148-4.342-7.18-4.581-12.412,0l-33.423,28.354h-6.873
					l41.687-35.06c2.781-2.341,6.845-2.341,9.627,0L162.408,127.143z"/>
				<g>
					<path fill="#EAEAEA" d="M78.632,99.279h74.392c1.698,0,3.074,1.378,3.074,3.073v68.253H75.559v-68.253
						C75.559,100.657,76.935,99.279,78.632,99.279z"/>
					<rect x="114.218" y="109.721" fill="#FFFFFF" width="35.134" height="0.563"/>
					<rect x="82.304" y="115.756" fill="#FFFFFF" width="67.048" height="0.563"/>
					<rect x="82.304" y="121.789" fill="#FFFFFF" width="67.048" height="0.566"/>
					<rect x="82.304" y="127.824" fill="#FFFFFF" width="67.048" height="0.565"/>
					<rect x="82.304" y="133.857" fill="#FFFFFF" width="67.048" height="0.565"/>
					<rect x="82.304" y="139.891" fill="#FFFFFF" width="67.048" height="0.567"/>
					<rect x="82.304" y="145.926" fill="#FFFFFF" width="67.048" height="0.564"/>
				</g>
				<polygon fill="#FFCB68" points="116.07,164.185 69.325,127.052 69.325,179.206 162.332,179.206 162.332,127.052 				"/>
				<polygon fill="#F3BD5D" points="98.986,150.901 69.325,179.207 162.33,179.207 131.716,150.901 				"/>
				<polygon fill="#EAAA46" points="99.083,150.788 69.325,179.207 97.938,149.868 				"/>
				<polygon fill="#EAAA46" points="131.764,150.963 162.33,179.207 132.906,150.072 				"/>
			</g>
		</g>
		<g>
			<path fill="#F9B58E" d="M93.539,125.621c-0.334,0.049-0.709,0.033-0.963-0.19c-0.126-0.112-0.209-0.266-0.317-0.396
				c-0.307-0.373-0.834-0.549-1.304-0.434c-0.945,0.232-1.407,1.439-2.358,1.651c-0.146,0.03-0.296,0.037-0.436,0.088
				c-0.14,0.048-0.274,0.153-0.299,0.3c-0.032,0.176,0.099,0.336,0.222,0.467c0.169,0.18,0.338,0.362,0.507,0.544
				c0.075,0.081,0.155,0.166,0.258,0.208c0.2,0.084,0.452,0,0.629,0.124c0.155,0.109,0.19,0.337,0.349,0.438
				c0.238,0.156,0.566-0.068,0.831,0.03c0.138,0.05,0.23,0.181,0.354,0.261c0.207,0.132,0.479,0.115,0.709,0.031
				c0.229-0.084,0.432-0.229,0.646-0.35c0.269-0.15,0.557-0.263,0.854-0.34c0.813-0.207,1.666-0.139,2.501-0.07
				c0.028-0.659,0.056-1.318,0.083-1.979c0.005-0.116,0.008-0.239-0.051-0.338c-0.117-0.203-0.404-0.205-0.63-0.152
				c-0.287,0.068-0.439,0.064-0.711,0.004C94.132,125.454,93.816,125.581,93.539,125.621z"/>
			<path fill="#212A53" d="M91.338,128.201l0.086-0.129c0.072-0.111,0.042-0.26-0.069-0.332l-5.384-3.549
				c-0.11-0.073-0.259-0.042-0.332,0.068l-0.085,0.129c-0.073,0.111-0.043,0.258,0.067,0.333l5.385,3.546
				C91.117,128.342,91.266,128.312,91.338,128.201z"/>
			<polygon fill="#F4B08B" points="96.725,161.116 97.318,165.815 99.354,166.543 98.809,160.908 			"/>
			<polygon fill="#F4B08B" points="105.773,161.264 106.515,166.02 108.724,165.374 108.01,161.264 			"/>
			<path fill="#212A53" d="M95.561,127.557c-0.63,4.057-1.236,11.12-1.867,15.176c-0.926,5.957,2.015,14.865,3.104,20.797
				c0.787-0.092,1.501-0.344,2.288-0.438c-0.257-10.048,0.195-22.854,0.847-32.884C98.517,130.385,96.978,127.381,95.561,127.557z"
				/>
			<path fill="#023D5F" d="M105.419,130.383c-0.82,0.051-1.646-0.691-2.467-0.639c-1.001,0.063-2.09,0.257-3.049,0.551
				c-0.961,0.294-2.071-0.605-3.024-0.924c-0.196,1.627,0.147,4.518,0.451,6.126c0.713,3.761,1.549,7.499,2.505,11.206
				c0.526,2.039,2.067,4.015,2.876,5.959c0.347,0.835,0.659,1.684,0.973,2.533c0.643,1.747,1.771,6.687,2.415,8.436
				c0.791-0.062,1.603-0.084,2.394-0.145c-0.077-1.774-0.771-6.865-0.849-8.641c-0.131-2.959-1.607-6.063-2.772-8.786
				c0.591-2.831,0.608-5.898,0.59-8.79C105.446,134.731,105.436,132.92,105.419,130.383z"/>
			<path fill="#43AAEC" d="M96.015,163.379c-0.058-0.148-0.243-0.193-0.363-0.092c-0.503,0.43-1.85,1.374-4.524,2.005
				c0,0-0.649,0.139-1.126,0.886h9.932v-1.757c0-0.193-0.228-0.298-0.375-0.171l-0.381,0.329c-0.184,0.157-0.417,0.246-0.658,0.247
				l-1.423,0.013c-0.308,0.003-0.585-0.186-0.698-0.472L96.015,163.379z"/>
			<rect x="90.001" y="166.178" fill="#2A325B" width="9.932" height="1.026"/>
			<path fill="#43AAEC" d="M105.729,163.939c-0.104-0.119-0.293-0.1-0.372,0.037c-0.328,0.574-1.276,1.921-3.578,3.42
				c0,0-0.564,0.349-0.759,1.217l9.345-3.365l-0.596-1.654c-0.065-0.182-0.314-0.205-0.41-0.034l-0.248,0.438
				c-0.118,0.21-0.307,0.371-0.534,0.455l-1.335,0.495c-0.288,0.107-0.613,0.024-0.816-0.208L105.729,163.939z"/>
			
				<rect x="100.9" y="166.901" transform="matrix(0.9409 -0.3388 0.3388 0.9409 -50.456 45.765)" fill="#2A325B" width="9.93" height="1.025"/>
			<path fill="#F4A086" d="M99.966,108.587c0.439,0.136,0.659,0.823,0.855,1.188c0.664,1.23,1.488,2.377,2.443,3.397
				c-1.92,0.817-3.899,1.501-5.916,2.033c-0.064,0.018-0.137,0.034-0.192-0.004c-0.062-0.04-0.071-0.126-0.074-0.2
				c-0.031-0.764-0.061-1.528-0.093-2.293c-0.014-0.355-0.029-0.717-0.101-1.066c-0.06-0.287-0.156-0.565-0.208-0.855
				c-0.067-0.373-0.062-0.759-0.172-1.123c-0.019-0.061-0.319-0.705-0.353-0.702c0.728-0.075,1.456-0.153,2.186-0.229
				c0.473-0.05,0.952-0.135,1.426-0.169C99.839,108.559,99.904,108.568,99.966,108.587z"/>
			<path fill="#F9B58E" d="M93.827,107.607c0.196-0.496,0.369-1.002,0.52-1.515c0.118-0.404,0.199-0.823,0.281-1.239
				c0.051-0.432,0.141-0.841,0.264-1.219c0.004,0.012,0.007,0.027,0.009,0.037c0.102-0.342,0.23-0.674,0.41-0.986
				c0.452-0.783,1.181-1.457,2.114-1.557c1.842-0.195,3.575,1.887,3.868,4.655c0.294,2.767-0.96,5.167-2.803,5.364
				c-1.306,0.138-2.555-0.871-3.277-2.453c-0.399-0.108-0.799-0.215-1.16-0.415c-0.124-0.069-0.25-0.158-0.289-0.296
				C93.729,107.86,93.778,107.73,93.827,107.607z"/>
			<path fill="#B05947" d="M93.357,103.062c-0.51-0.312-0.876-0.882-0.854-1.478c0.022-0.599,0.487-1.173,1.08-1.238
				c0.45-0.047,0.912,0.178,1.344,0.046c0.257-0.078,0.459-0.271,0.666-0.441c1.136-0.921,2.736-1.235,4.136-0.812
				c1.399,0.422,2.558,1.571,2.993,2.967c0.367,1.175,0.233,2.461-0.146,3.631c-0.38,1.17-0.994,2.248-1.604,3.318
				c-0.326-1.295-0.654-2.591-0.981-3.886c-0.072-0.282-0.151-0.579-0.356-0.786c-0.205-0.207-0.58-0.272-0.779-0.061
				c-0.129,0.137-0.146,0.34-0.183,0.524s-0.123,0.388-0.302,0.441c-0.202,0.06-0.396-0.103-0.535-0.261
				c-0.296-0.336-0.532-0.711-0.731-1.111c-0.125-0.25-0.242-0.561-0.473-0.733c-0.259-0.19-0.528-0.103-0.808-0.011
				c-0.396,0.128-0.799,0.221-1.217,0.219C94.171,103.387,93.731,103.287,93.357,103.062z"/>
			<path fill="#79D3D3" d="M93.905,116.558c0.032,0.403,0.035,0.81,0.067,1.214c0.074,0.959,0.148,1.918,0.224,2.875
				c0.077,0.999,0.154,2.012-0.024,2.997c0,0.609,0.002,1.218,0.014,1.828c0.007,0.427,0.018,0.854,0.037,1.279
				c0.014,0.371,0.032,0.699-0.02,1.064c-0.001,0.007-0.002,0.019-0.004,0.026c-0.119,0.893-0.061,1.933,0.283,2.774
				c0.153,0.374,0.406,0.721,0.763,0.91c0.427,0.229,0.938,0.205,1.422,0.177c2.344-0.138,4.687-0.275,7.03-0.415
				c0.23-0.015,0.492-0.045,0.629-0.229c0.063-0.086,0.088-0.192,0.144-0.281c0.109-0.171,0.346-0.137,0.525-0.153
				c0.106-0.01,0.357-0.062,0.446,0.026c-0.699-0.873-1.829-1.693-2.527-2.566c-0.323-0.4-0.661-0.852-0.641-1.366
				c0.019-0.501,2.267-1.565,2.545-1.98c0.792-1.173-0.922-1.949-0.995-3.361c-0.043-0.828,1.11-0.796,1.401-1.572
				c0.291-0.776,0.191-1.44,0.475-2.222c0.104-0.284-0.273-1.516-0.275-1.817c-0.001-0.306-0.099-0.601-0.151-0.9
				c-0.103-0.582-0.041-1.181-0.136-1.765c-0.121-0.744-0.509-1.443-1.075-1.94c-0.29-0.257-2.159-0.461-2.393-0.423
				c-0.081,0.013-0.162,0.024-0.232,0.064c-0.14,0.077-0.21,0.235-0.278,0.377c-0.394,0.82-1.046,1.459-1.865,1.846
				c-0.439,0.207-0.937,0.344-1.41,0.238c-0.475-0.104-0.907-0.504-0.924-0.988c-0.918,0.619-1.745,1.373-2.452,2.228
				c-0.225,0.273-0.444,0.567-0.549,0.907C93.845,115.781,93.875,116.174,93.905,116.558z"/>
			<path fill="#71C7C6" d="M94.203,127.815c0.083,0.05,0.171,0.083,0.27,0.087c0.256,0.013,0.469-0.187,0.708-0.28
				c0.304-0.119,0.687-0.081,0.915-0.316c0.175-0.179,0.19-0.455,0.196-0.705c0.004-0.183,0.007-0.366,0.011-0.547
				c0.008-0.539,0.004-1.077-0.043-1.613c-0.042-0.493-0.085-1.088-0.3-1.541c-0.071-0.15-0.19-0.265-0.252-0.424
				c-0.099-0.251-0.164-0.525-0.229-0.788c-0.127-0.523-0.215-1.056-0.26-1.592c-0.049-0.58-0.055-1.191-0.339-1.698
				c0.103,0.433,0.048,0.888-0.008,1.328c-0.039,0.304-0.135,0.646-0.07,0.948c0.067,0.308,0.067,0.616,0.079,0.934
				c0.055,1.516,0.111,3.042-0.125,4.541c-0.109-0.044-0.154-0.174-0.164-0.291c-0.009-0.119,0.003-0.242-0.042-0.35
				c-0.046-0.109-0.183-0.193-0.282-0.131c-0.036,0.021-0.06,0.057-0.081,0.095c0.007,0.427,0.018,0.854,0.037,1.279
				C94.236,127.122,94.255,127.45,94.203,127.815z"/>
			<path fill="#71C7C6" d="M102.726,125.348c0.337-0.23,0.709-0.434,0.943-0.77c0.452-0.646,0.28-1.552,0.097-2.259
				c-0.237-0.916-0.566-1.811-0.982-2.659c0.438,0.204,0.822,0.506,1.202,0.805c-0.344-0.899-0.758-1.772-1.238-2.607
				c0.479,0.341,0.958,0.684,1.438,1.025c0.024,0.019,0.052,0.037,0.083,0.039c0.072,0.003,0.113-0.082,0.136-0.15
				c0.207-0.645,0.508-1.262,0.891-1.822c0.216,0.518,0.385,1.055,0.504,1.602c0.099,0.45,0.344,0.793,0.529,1.216
				c0.448,1.024,0.805,2.085,1.103,3.16c0.062,0.221,0.12,0.441,0.178,0.664c0.069,0.274-0.026,0.837-0.121,1.102
				c-0.113,0.315-0.428,0.509-0.729,0.654c-0.739,0.354-1.532,0.585-2.28,0.919c-0.748,0.335-1.474,0.795-1.914,1.486
				c1.121-0.064,2.243-0.127,3.364-0.192c0.344-0.02,0.089-0.776,0.408-0.651c0.222,0.088-0.293,1.174-0.485,2.36
				c-0.118,0.727-0.425,2.099-0.425,2.099s-0.57-0.016-1.354,0c-0.724,0.013-1.059-0.004-2.042,0.009
				c-0.384,0.004-1.003,0.013-1.353-0.003c-0.301-0.013-0.261-0.715-0.287-0.985c-0.117-1.233,0.222-2.504,0.893-3.541
				C101.662,126.262,102.151,125.744,102.726,125.348z"/>
			<path fill="#F9B58E" d="M97.34,129.122c-0.227,0.095-0.46,0.195-0.638,0.366c-0.229,0.219-0.345,0.539-0.59,0.743
				c-0.143,0.117-0.339,0.22-0.282,0.438c0.017,0.065,0.055,0.123,0.101,0.167c0.149,0.147,0.323,0.346,0.544,0.348
				c0.141,0,0.268-0.079,0.384-0.159c0.472-0.316,0.929-0.655,1.371-1.014c0.078-0.062,0.189-0.078,0.275-0.024
				c0.155,0.094,0.076,0.293-0.038,0.398c-0.029,0.026-0.047,0.103-0.06,0.2c-0.037,0.29,0.276,0.494,0.525,0.34
				c1.551-0.962,3.117-1.621,4.973-2.112c-0.089-0.571-0.18-1.143-0.27-1.713c-0.012-0.08-0.011-0.332-0.088-0.363
				c-0.069-0.029-0.316,0.105-0.389,0.131c-0.266,0.094-0.53,0.189-0.794,0.287c-1.08,0.395-2.154,0.805-3.223,1.229
				C98.539,128.626,97.938,128.871,97.34,129.122z"/>
			<path fill="#79D3D3" d="M107.604,113.604c0.165,0.244,0.737,1.401,0.96,1.933c0.331,0.783,0.52,1.623,0.745,2.446
				c0.309,1.135,0.618,2.27,0.926,3.403c0.272,1,0.547,2.027,0.444,3.06c-0.904,1.324-1.866,2.698-3.283,3.449
				c-0.144,0.076-0.292,0.146-0.442,0.208c-0.55,0.233-1.133,0.388-1.711,0.54c-0.928,0.243-1.854,0.487-2.782,0.732
				c0.022-0.701-0.169-1.547-0.491-2.172c1.488-0.554,2.918-1.178,4.366-1.828c0.325-0.145,0.666-0.309,0.87-0.6
				c0.261-0.375,0.236-0.876,0.151-1.324c-0.442-2.323-2.209-4.291-2.376-6.652c-0.16-2.28-1.735-3.941-2.678-6.026
				c0.239,0.015,0.486,0.079,0.725,0.073c0.271-0.007,0.559,0.039,0.831,0.078c0.546,0.074,1.071,0.254,1.55,0.527
				c0.775,0.444,1.396,1.05,1.927,1.77C107.429,113.346,107.518,113.474,107.604,113.604z"/>
			<path fill="#71C7C6" d="M109.309,117.982c0.309,1.135,0.618,2.27,0.926,3.403c0.272,1,0.547,2.027,0.444,3.06
				c-0.904,1.324-1.866,2.698-3.283,3.449c-0.144,0.076-0.292,0.146-0.442,0.208c0.168-0.396,0.438-0.764,0.711-1.099
				c0.7-0.855,1.5-1.715,1.685-2.803c0.148-0.878-0.135-1.765-0.25-2.648c-0.074-0.557-0.083-1.126-0.044-1.688
				c0.033-0.507,0.103-1.011,0.191-1.512C109.265,118.257,109.268,118.103,109.309,117.982z"/>
		</g>
		<polygon fill="#F4B08B" points="238.548,163.934 237.977,168.462 236.015,169.164 236.54,163.734 		"/>
		<polygon fill="#F4B08B" points="229.829,164.093 229.114,168.667 226.985,168.051 227.674,164.093 		"/>
		<polygon fill="#F4A086" points="232.171,107.804 229.097,111.738 232.037,113.338 235.336,109.245 		"/>
		<path fill="#F9B58E" d="M240.076,108.091c-0.094-0.602-0.16-1.208-0.199-1.815c-0.032-0.477-0.016-0.964-0.004-1.45
			c0.051-0.489,0.055-0.968,0.011-1.419c-0.007,0.014-0.013,0.026-0.019,0.04c-0.027-0.404-0.088-0.808-0.209-1.2
			c-0.307-0.984-0.949-1.915-1.962-2.259c-2-0.676-4.445,1.208-5.463,4.212c-1.017,3.001-0.222,5.985,1.777,6.662
			c1.417,0.48,3.06-0.328,4.257-1.908c0.471-0.02,0.941-0.04,1.393-0.172c0.154-0.046,0.318-0.115,0.395-0.257
			C240.121,108.395,240.099,108.236,240.076,108.091z"/>
		<path fill="#B05947" d="M241.733,103.15c0.644-0.218,1.195-0.761,1.318-1.43c0.124-0.668-0.25-1.422-0.894-1.643
			c-0.487-0.166-1.058-0.032-1.505-0.287c-0.265-0.151-0.442-0.415-0.63-0.655c-1.033-1.308-2.734-2.057-4.396-1.937
			c-1.661,0.121-3.237,1.108-4.068,2.552c-0.702,1.216-0.875,2.678-0.745,4.073c0.129,1.397,0.543,2.749,0.955,4.089
			c0.688-1.356,1.373-2.715,2.061-4.073c0.15-0.297,0.313-0.606,0.593-0.785c0.279-0.178,0.714-0.159,0.882,0.126
			c0.108,0.185,0.078,0.417,0.072,0.63c-0.005,0.214,0.039,0.462,0.227,0.567c0.209,0.113,0.467-0.017,0.66-0.157
			c0.414-0.303,0.769-0.659,1.091-1.055c0.2-0.246,0.409-0.563,0.709-0.695c0.334-0.147,0.611,0.018,0.899,0.188
			c0.409,0.243,0.833,0.445,1.299,0.548C240.748,103.311,241.261,103.311,241.733,103.15z"/>
		<path fill="#212A53" d="M239.669,131.597c0.608,3.908,1.191,10.715,1.799,14.623c0.892,5.74-1.943,14.324-2.99,20.038
			c-0.759-0.087-1.448-0.331-2.206-0.419c0.248-9.683-0.187-22.021-0.815-31.688C236.821,134.32,238.305,131.429,239.669,131.597z"
			/>
		<path fill="#023D5F" d="M230.17,134.32c0.791,0.049,1.586-0.667,2.376-0.615c0.966,0.063,2.014,0.247,2.94,0.531
			c0.924,0.283,1.994-0.584,2.912-0.889c0.189,1.565-0.142,4.352-0.435,5.9c-0.687,3.625-1.492,7.227-2.413,10.798
			c-0.507,1.966-1.992,3.867-2.771,5.741c-0.335,0.807-0.636,1.623-0.938,2.442c-0.619,1.683-1.707,6.444-2.327,8.126
			c-0.763-0.057-1.545-0.078-2.308-0.137c0.076-1.711,0.744-6.617,0.819-8.326c0.126-2.854,1.549-5.842,2.672-8.467
			c-0.571-2.729-0.587-5.684-0.569-8.47C230.145,138.511,230.153,136.766,230.17,134.32z"/>
		<path fill="#F9B58E" d="M240.978,123.814c0.287,0.043,0.608,0.028,0.826-0.162c0.109-0.097,0.18-0.229,0.271-0.34
			c0.264-0.32,0.715-0.471,1.118-0.372c0.81,0.199,1.205,1.234,2.021,1.414c0.124,0.028,0.253,0.034,0.374,0.076
			c0.12,0.041,0.234,0.132,0.256,0.257c0.027,0.152-0.085,0.289-0.19,0.4c-0.145,0.156-0.29,0.311-0.435,0.465
			c-0.065,0.072-0.133,0.145-0.222,0.182c-0.171,0.07-0.388,0-0.539,0.104c-0.133,0.093-0.163,0.289-0.299,0.377
			c-0.204,0.132-0.484-0.059-0.712,0.025c-0.118,0.044-0.197,0.153-0.302,0.222c-0.177,0.114-0.41,0.101-0.608,0.028
			c-0.196-0.072-0.37-0.196-0.552-0.299c-0.23-0.129-0.478-0.226-0.734-0.29c-0.695-0.181-1.426-0.121-2.143-0.062
			c-0.023-0.565-0.047-1.131-0.07-1.696c-0.004-0.1-0.008-0.206,0.043-0.291c0.101-0.173,0.347-0.175,0.541-0.13
			c0.246,0.059,0.376,0.055,0.609,0.003C240.47,123.673,240.741,123.78,240.978,123.814z"/>
		<path fill="#212A53" d="M242.864,126.025l-0.073-0.113c-0.062-0.092-0.036-0.22,0.059-0.281l4.615-3.04
			c0.096-0.064,0.222-0.037,0.284,0.059l0.073,0.109c0.062,0.097,0.038,0.223-0.059,0.284l-4.614,3.041
			C243.053,126.146,242.927,126.121,242.864,126.025z"/>
		<path fill="#FFFFFF" d="M239.232,166.113c0.056-0.141,0.233-0.186,0.349-0.087c0.484,0.414,1.784,1.323,4.359,1.933
			c0,0,0.626,0.131,1.085,0.854h-9.569v-1.694c0-0.187,0.219-0.287,0.359-0.165l0.369,0.316c0.175,0.151,0.399,0.236,0.633,0.238
			l1.372,0.013c0.296,0.002,0.564-0.178,0.672-0.455L239.232,166.113z"/>
		<rect x="235.457" y="168.813" fill="#121633" width="9.569" height="0.988"/>
		<path fill="#FFFFFF" d="M229.872,166.655c0.1-0.114,0.281-0.096,0.357,0.035c0.317,0.554,1.229,1.85,3.448,3.294
			c0,0,0.544,0.337,0.732,1.174l-9.004-3.242l0.573-1.594c0.063-0.177,0.304-0.196,0.395-0.035l0.239,0.424
			c0.115,0.203,0.297,0.357,0.515,0.439l1.287,0.478c0.278,0.104,0.592,0.022,0.786-0.201L229.872,166.655z"/>
		
			<rect x="224.955" y="169.508" transform="matrix(-0.9409 -0.3387 0.3387 -0.9409 388.3201 407.7688)" fill="#121633" width="9.57" height="0.987"/>
		<path fill="#EEB192" d="M149.902,75.902c0.003,1.838,0.006,3.695,0.466,5.492c-1.378,0.004-2.757,0.006-4.135,0.01
			c-0.157,0-0.322-0.002-0.456-0.068c-0.257-0.129-0.291-0.422-0.296-0.673c-0.066-3.068-0.131-6.138-0.197-9.207
			c1.128,0.401,2.319,0.68,3.531,0.825c0.307,0.037,0.496,0.011,0.776-0.021c0.239-0.026,0.333,0.004,0.384,0.224
			c0.11,0.481-0.054,1.112-0.063,1.606C149.9,74.693,149.901,75.296,149.902,75.902z"/>
		<path fill="#141835" d="M143.411,75.787c-0.104-0.26-0.43-0.337-0.641-0.156c-0.882,0.766-3.249,2.45-7.957,3.6
			c0,0-1.145,0.249-1.975,1.58l17.524-0.131l-0.023-3.105c-0.002-0.34-0.404-0.521-0.662-0.296l-0.669,0.585
			c-0.321,0.281-0.731,0.439-1.157,0.446l-2.511,0.042c-0.544,0.009-1.037-0.318-1.238-0.825L143.411,75.787z"/>
		
			<rect x="132.844" y="80.744" transform="matrix(1 -0.0076 0.0076 1 -0.6147 1.0755)" fill="#00666A" width="17.525" height="1.809"/>
		<path fill="#EEB192" d="M178.977,75.902c-0.003,1.838-0.007,3.695-0.467,5.492c1.378,0.004,2.757,0.006,4.135,0.01
			c0.156,0,0.322-0.002,0.456-0.068c0.257-0.129,0.291-0.422,0.295-0.673c0.066-3.068,0.132-6.138,0.197-9.207
			c-1.128,0.401-2.318,0.68-3.531,0.825c-0.307,0.037-0.495,0.011-0.777-0.021c-0.238-0.026-0.332,0.004-0.383,0.224
			c-0.109,0.481,0.054,1.112,0.063,1.606C178.977,74.693,178.977,75.296,178.977,75.902z"/>
		<path fill="#141835" d="M185.468,75.787c0.103-0.26,0.43-0.337,0.641-0.156c0.881,0.766,3.248,2.45,7.957,3.6
			c0,0,1.145,0.249,1.975,1.58l-17.524-0.131l0.023-3.105c0.003-0.34,0.404-0.521,0.661-0.296l0.671,0.585
			c0.32,0.281,0.73,0.439,1.156,0.446l2.511,0.042c0.544,0.009,1.037-0.318,1.238-0.825L185.468,75.787z"/>
		
			<rect x="178.508" y="80.744" transform="matrix(-1 -0.0076 0.0076 -1 373.9169 164.7137)" fill="#00666A" width="17.526" height="1.809"/>
		<g>
			<path fill="#FFC8B7" d="M147.277,39.636l-2.505,8.576c-0.284,0.968,0.334,1.973,1.327,2.157l7.217,1.345v-4.025l-1.868-0.552
				c-0.667-0.197-1.042-0.906-0.827-1.568l1.606-4.963L147.277,39.636z"/>
			<path fill="#FFC8B7" d="M179.819,39.636l2.504,8.576c0.283,0.968-0.334,1.973-1.328,2.157l-7.216,1.345v-4.025l1.867-0.552
				c0.667-0.197,1.042-0.906,0.827-1.568l-1.607-4.963L179.819,39.636z"/>
		</g>
		<path fill="#4961FF" d="M146.907,53.112c-1.949,0.015-3.662,1.302-4.208,3.173c-0.88,3.022-1.088,9.139,2.483,19.656h4.804
			l0.529-11.681h26.667c0,0,0.855,9.348,1.561,12.169l4.98-0.002c0,0,1.04-12.079,1.217-18.426c0,0-0.088-3.614-4.055-4.541
			C180.885,53.461,148.922,53.098,146.907,53.112z"/>
		<g>
			<ellipse fill="#FFC8B7" cx="163.547" cy="19.104" rx="4.727" ry="6.855"/>
			<path fill="#FFC8B7" d="M164.392,32.238h-1.689c-1.253,0-2.278-1.025-2.278-2.277l-0.585-2.637l0.669-1.866l-0.084-2.762
				c0-1.253,1.025-2.278,2.278-2.278h1.689c1.254,0,2.278,1.025,2.278,2.278l-0.082,2.762l1.449,1.616l-1.367,2.887
				C166.67,31.213,165.646,32.238,164.392,32.238z"/>
			<g>
				<path fill="#43455E" d="M179.954,38.322c-1.146-2.688-2.294-5.375-3.441-8.063c-0.393-0.919-0.813-1.877-1.588-2.51
					c-0.751-0.613-1.736-0.839-2.682-1.049c-1.886-0.414-3.771-0.828-5.655-1.243c0.601,1.227,0.525,2.724-0.029,3.974
					c-0.347,0.778-0.923,1.452-1.628,1.939c-0.826,0.572-1.931,0.572-2.759,0.004c-0.708-0.488-1.289-1.164-1.636-1.943
					c-0.554-1.25-0.629-2.747-0.028-3.974c-1.885,0.415-3.771,0.829-5.655,1.243c-0.947,0.21-1.932,0.436-2.683,1.049
					c-0.775,0.633-1.195,1.591-1.589,2.51c-1.146,2.688-2.293,5.375-3.441,8.063c-0.29,0.68-0.579,1.357-0.869,2.036
					c1.716,0.652,3.572,0.822,5.4,0.987c0.388,0.035,0.814,0.061,1.132-0.165c0.245-0.171,0.377-0.46,0.493-0.732
					c0.14-0.328,0.285-0.675,0.615-0.849c0.188-0.1,0.421-0.105,0.591,0.021c0.251,0.184,0.22,0.514,0.177,0.798
					c-0.108,0.703-0.215,1.406-0.321,2.11c2.913-0.078,6.257,0.116,9.171,0.039c2.919,0.08,6.288-0.117,9.206-0.039
					c-0.107-0.704-0.214-1.407-0.321-2.11c-0.043-0.284-0.073-0.614,0.176-0.798c0.171-0.127,0.404-0.121,0.59-0.021
					c0.332,0.174,0.477,0.521,0.616,0.849c0.117,0.272,0.249,0.562,0.493,0.732c0.319,0.226,0.745,0.2,1.132,0.165
					c1.829-0.165,3.686-0.335,5.4-0.987C180.534,39.68,180.245,39.002,179.954,38.322z"/>
			</g>
			<path fill="#43445D" d="M158.237,19.128c-0.098-0.3-0.11-0.62-0.123-0.937c-0.027-0.673-0.055-1.346-0.082-2.019
				c-0.016-0.406-0.032-0.821,0.087-1.21c0.14-0.457,0.455-0.84,0.762-1.209c0.376-0.452,0.754-0.906,1.201-1.291
				c0.662-0.57,1.48-0.982,2.351-1.069c0.492-0.05,0.986,0.005,1.479,0.059c0.832,0.09,1.667,0.181,2.5,0.271
				c0.533,0.058,1.101,0.131,1.515,0.473c0.448,0.369,0.617,0.97,0.761,1.532c0.232,0.898,0.464,1.804,0.517,2.73
				c0.054,0.928-0.084,1.887-0.55,2.689c-0.16,0.275-0.451,0.562-0.752,0.456c-0.256-0.09-0.34-0.398-0.497-0.619
				c-0.193-0.271-0.521-0.418-0.848-0.486c-0.326-0.065-0.662-0.065-0.991-0.111c-0.994-0.135-1.922-0.699-2.501-1.517
				c-0.123-0.176-0.236-0.367-0.412-0.492c-0.176-0.124-0.439-0.157-0.595-0.009c-0.104,0.1-0.132,0.252-0.165,0.392
				c-0.336,1.452-1.501,2.511-2.894,2.946C158.581,19.838,158.361,19.512,158.237,19.128z"/>
		</g>
		<g>
			<path fill="#C0E4EF" d="M177.208,57.322h-27.248V40.649c0-0.798,0.647-1.444,1.444-1.444h24.359c0.797,0,1.444,0.646,1.444,1.444
				V57.322z"/>
			<circle fill="#FFFFFF" cx="163.584" cy="48.264" r="1.476"/>
			<path fill="#FFFFFF" d="M177.58,57.322h-28.065c-0.262,0-0.478,0.213-0.478,0.477v0.387c0,0.264,0.215,0.478,0.478,0.478h28.065
				c0.263,0,0.477-0.214,0.477-0.478v-0.387C178.057,57.535,177.843,57.322,177.58,57.322z"/>
		</g>
		<g>
			<path fill="#C07A6C" d="M153.414,141.685c-0.152,1.411-0.054,2.837-0.135,4.254c-0.08,1.417-0.355,2.872-1.162,4.041
				c-0.264,0.384-0.594,0.757-0.653,1.217c-0.05,0.385,0.096,0.764,0.241,1.122c0.403,1.007,0.843,2.027,1.593,2.808
				c1.947,2.035,6.479,3.29,8.834,2.855c0.437-1.305-0.244-2.719,0.383-3.945c0.5-0.978-0.557-2.473-0.39-3.56
				c0.108-0.694-1.548-2.227-1.733-2.906c-0.263-0.968-1.067-1.695-1.467-2.616c-0.404-0.931-0.382-2.036-0.951-2.878
				c-0.368-0.545-0.941-0.911-1.498-1.261c-0.408-0.261-0.815-0.522-1.227-0.776c-0.259-0.159-0.561-0.359-0.879-0.26
				C153.675,139.998,153.479,141.073,153.414,141.685z"/>
			<path fill="#FFC3AE" d="M149.861,163.324c0.828,0.084,1.653,0.167,2.479,0.252c1.526,0.153,3.068,0.307,4.584,0.083
				c0.014,0.495,0.044,0.991,0.059,1.487c-0.94,0.175-1.902-0.07-2.826-0.315c-0.612-0.16-1.224-0.321-1.836-0.483
				c-0.388-0.103-0.782-0.204-1.183-0.185s-0.813,0.183-1.039,0.514C149.774,164.297,149.713,163.802,149.861,163.324z"/>
			<path fill="#AC3E53" d="M161.414,155.307c-0.421,2.691-0.842,5.384-1.262,8.076c-1.306-0.078-2.611-0.158-3.917-0.236
				c0.202,1.012,0.405,2.026,0.607,3.04c2.333,0.059,4.666,0.117,6.998,0.178c-0.628-3.66-1.257-7.319-1.887-10.978
				c-0.096-0.562-0.172-1.142-0.332-1.686c-0.087,0.199-0.056,0.496-0.081,0.717C161.508,154.716,161.46,155.011,161.414,155.307z"
				/>
			<path fill="#FFC3AE" d="M166.625,149.851c-0.051-0.291-0.768-0.298-1.112-0.407c-0.175-0.055-0.349-0.123-0.521-0.193
				c-0.217-0.085-0.431-0.207-0.651-0.278c-0.774-0.248-1.451-0.791-1.861-1.494c-0.002-0.005-0.003-0.011-0.005-0.014
				c-0.089-0.222-0.263-0.483-0.301-0.711c-0.05-0.292,0.116-0.663,0.139-0.958c0.041-0.525-0.077-1.038-0.334-1.497
				c-0.752-1.343-2.778-3.324-2.778-3.324c-1.213-1.907-3.563-0.964-4.205,0.674c-0.833,2.122,0.338,2.399,0.198,3.216
				c-0.092,0.543-0.362,1.099-0.532,1.413c-0.09,0.161-0.095,0.357-0.014,0.526c0.022,0.049,0.068,0.084,0.122,0.091
				c0.112,0.017,0.314,0.046,0.461,0.067c0.165,0.023,0.182,0.328,0.18,0.475c-0.126,0.055-0.076,0.193,0.05,0.324
				c0.031,0.031,0.085,0.044,0.158,0.044c-0.016,0.022-0.201,0.271,0.012,0.429c0.081,0.062,0.149,0.091,0.213,0.095
				c0.166,0.112,0.36,0.284,0.286,0.433c-0.124,0.246-0.047,0.938,0.723,0.939c0.391,0,0.782-0.229,1.057-0.484
				c0.349-0.322,0.896-0.444,1.355-0.514c0.193-0.029,0.405-0.026,0.498,0.178c0.033,0.073,0.045,0.154,0.057,0.235
				c0.057,0.394,0.093,0.747,0.267,1.116c0.18,0.381,0.425,0.727,0.665,1.072c0.422,0.604,0.847,1.271,0.82,2.009
				c0.003-0.1,0.44-0.368,0.523-0.433c0.198-0.151,0.404-0.292,0.615-0.426c0.374-0.236,0.772-0.412,1.121-0.678
				c0.396-0.306,0.881-0.525,1.304-0.795c0.433-0.271,0.856-0.557,1.254-0.877C166.438,150.063,166.64,149.936,166.625,149.851z"/>
			<path fill="#B05947" d="M164.994,152.167c-0.08-0.224-0.17-0.445-0.267-0.663c-0.163-0.366-0.347-0.722-0.552-1.063
				c-0.07-0.117-0.124-0.269-0.205-0.375c-0.102-0.13-0.3-0.22-0.446-0.286c-0.425-0.196-0.902-0.247-1.352-0.381
				c-1.545-0.451-2.709-1.976-2.74-3.585c-0.024-1.313,0.624-2.652,0.222-3.903c-1.608,0.811-3.604,0.809-5.214-0.005
				c-0.575-0.29-0.656-1.199-0.404-1.792c0.253-0.595,0.774-1.029,1.309-1.389c0.015-0.01,0.029-0.021,0.044-0.031
				c2.657-1.771,6.184-1.568,8.599,0.521c0.257,0.222,0.5,0.457,0.73,0.705c0.307,0.332,0.592,0.69,0.765,1.106
				c0.28,0.68,0.383,1.749,0.217,2.472c-0.063,0.272-0.188,0.501-0.216,0.786c-0.04,0.406-0.014,0.829,0.029,1.235
				c0.173,1.579,1.023,2.94,2.105,4.108c0.486,0.521,1.198,1.042,1.702,1.548c0.505,0.507,0.773,1.202,0.99,1.882
				c0.475,1.488-0.475,2.748-1.674,3.53c-1.054,0.687-2.185,1.255-3.365,1.69c-0.555,0.206-1.209,0.371-1.712,0.059
				c1.373-1.087,2.175-2.829,1.864-4.574C165.325,153.219,165.181,152.686,164.994,152.167z"/>
			<path fill="#C07A6C" d="M155.516,141.905c0.645,0.325,1.349,0.522,2.067,0.587c-1.08,0.1-2.188-0.098-3.156-0.587
				c-0.576-0.29-0.658-1.199-0.405-1.792c0.254-0.595,0.773-1.029,1.309-1.389c0.015-0.01,0.029-0.021,0.044-0.031
				c1.364-0.908,2.956-1.299,4.509-1.179c-1.194,0.093-2.373,0.482-3.419,1.179c-0.015,0.01-0.029,0.021-0.044,0.031
				c-0.535,0.359-1.056,0.794-1.309,1.389C154.858,140.706,154.94,141.615,155.516,141.905z"/>
			<g>
				<path fill="#293087" d="M194.971,146.766l-1.73,1.521c0,0-0.595-0.471-1.129-1.08c-0.102-0.116-0.199-0.236-0.292-0.358
					c-0.041-0.055-0.082-0.11-0.119-0.167c-0.083-0.119-0.171-0.227-0.262-0.321c-0.1-0.102-0.204-0.189-0.313-0.27
					c-0.17-0.124-0.353-0.227-0.551-0.328c-0.11-0.058-0.224-0.112-0.342-0.171c-0.285-0.139-0.595-0.297-0.936-0.513
					c-0.895-0.572-0.14-1.384,0.464-1.979l0,0c0.001,0,0.001-0.002,0.001-0.002c0.111-0.107,0.215-0.209,0.304-0.302l0,0
					c0.001,0,0.001,0,0.002,0c0.181-0.187,0.363-0.406,0.532-0.645c0.077-0.112,0.154-0.227,0.227-0.346l0,0
					c0.128-0.208,0.253-0.428,0.346-0.65l0.004-0.001v-0.001c0.081-0.147,0.118-0.297,0.165-0.444h-0.001
					c0.029-0.093,0.058-0.186,0.078-0.276c0.021-0.094,0.018-0.189,0.04-0.289c0-0.002-0.012-0.003-0.012-0.005l0,0
					c0-0.158,0.037-0.32,0.051-0.49c0-0.001,0.006-0.004,0.006-0.006c0.022-0.262,0.05-0.541,0.122-0.838
					c0-0.002,0.001-0.003,0.001-0.003c0.031-0.125,0.068-0.255,0.119-0.388h0.001c0.137-0.366,0.357-0.761,0.724-1.19
					c1.153-1.352,1.846-1.071,1.635-0.422c-0.086,0.265-0.206,0.755-0.307,1.275c-0.01,0.058-0.022,0.114-0.032,0.171
					c-0.017,0.095-0.035,0.189-0.05,0.285c-0.036,0.228-0.066,0.449-0.084,0.648c-0.016,0.178-0.023,0.334-0.018,0.463
					c0.002,0.041,0.015,0.078,0.02,0.112c0.021,0.171,0.022,0.315,0.05,0.465c0,0,0,0,0,0.001l0,0c0,0.001,0,0.004,0,0.006v1.543
					l0,0v0.003c0,0.13,0,0.271,0.027,0.427v0.536c0,0.063,0,0.128,0.002,0.194c0,0.001-0.003,0.003-0.003,0.003
					c0.003,0.092,0.017,0.187,0.02,0.286c0.006,0.136,0.035,0.267,0.035,0.396l0,0v0.001c0,0.24,0.027,0.464,0.082,0.676l0,0v0.002
					l0,0c0.026,0.176,0.065,0.336,0.111,0.497c0,0.001-0.005,0.001-0.005,0.001v0.001c0-0.001,0.005-0.001,0.005-0.001
					c0.065,0.244,0.125,0.464,0.216,0.66c0.001,0.002-0.005,0.005-0.005,0.007v0.001c0.055,0.135,0.115,0.261,0.171,0.374
					c0,0.001,0.005,0.003,0.006,0.003h-0.001C194.659,146.469,194.971,146.766,194.971,146.766z"/>
				<g>
					<path fill="#FFFFFF" d="M194.34,145.835c-0.152,0.186-1.064,1.242-2.231,1.372c-0.102-0.116-0.198-0.236-0.29-0.358
						c0.316-0.066,1.584-0.393,2.354-1.396c0.001,0.002-0.004,0.005-0.004,0.007v0.001
						C194.224,145.596,194.284,145.722,194.34,145.835z"/>
					<path fill="#FFFFFF" d="M193.953,144.792c-0.776,1.281-2.333,1.542-2.515,1.568c-0.1-0.102-0.204-0.189-0.313-0.27
						c1.695-0.312,2.496-1.436,2.712-1.796C193.861,144.471,193.907,144.631,193.953,144.792z"/>
					<path fill="#FFFFFF" d="M193.712,142.201v0.536c-0.324,0.28-1.236,1.005-2.402,0.944c-0.933-0.049-1.361-0.365-1.546-0.582
						c0.001,0-0.001-0.002-0.001-0.002c0.111-0.107,0.214-0.209,0.303-0.302c0.001,0,0.002,0,0.002,0
						c0.229,0.208,0.672,0.509,1.25,0.509C192.081,143.305,193.333,142.436,193.712,142.201z"/>
					<path fill="#FFFFFF" d="M193.678,141.771c0,0-0.001,0-0.002,0.003c-0.51,0.282-2.277,1.173-3.076,0.377
						c0.077-0.112,0.154-0.227,0.227-0.346c0.171,0.173,0.523,0.401,1.084,0.224c0.725-0.226,1.554-0.708,1.763-0.832
						c0,0.102,0.001,0.214,0.003,0.338C193.677,141.609,193.678,141.688,193.678,141.771z"/>
					<path fill="#FFFFFF" d="M193.685,140.774L193.685,140.774c-1.592,0.924-2.271,0.579-2.506,0.381l-0.002-0.001v-0.001
						c0.081-0.147,0.118-0.297,0.165-0.444c0.68,0.611,1.952-0.211,2.324-0.479c0.001,0,0.007,0,0.007-0.002
						C193.678,140.393,193.685,140.562,193.685,140.774z"/>
					<path fill="#FFFFFF" d="M193.615,139.645c-1.319,0.797-1.931,0.641-2.158,0.499c0.001-0.002-0.011-0.003-0.011-0.005l0,0
						c0-0.158,0.037-0.32,0.051-0.49c0.408,0.451,1.705-0.226,2.13-0.467C193.611,139.359,193.609,139.516,193.615,139.645z"/>
					<path fill="#FFFFFF" d="M193.799,138.077c-0.01,0.058-0.022,0.114-0.032,0.171c-0.017,0.095-0.035,0.189-0.05,0.285
						c-1.309,0.789-1.886,0.471-2.088,0.271c0-0.002,0-0.003,0-0.003c0.03-0.125,0.068-0.255,0.118-0.388
						C192.076,138.729,193.482,138.202,193.799,138.077z"/>
					<path fill="#FFFFFF" d="M193.766,143.616L193.766,143.616L193.766,143.616c-0.217,0.246-1.498,1.752-3.182,2.146
						c-0.109-0.058-0.229-0.112-0.347-0.171c0.475-0.227,2.622-1.307,3.473-2.657c0.003,0.092,0.016,0.187,0.021,0.286
						C193.735,143.356,193.766,143.487,193.766,143.616z"/>
				</g>
			</g>
			<g>
				<path fill="#293087" d="M200.708,144.198l-2.303,0.085c0,0-0.165-0.738-0.193-1.55c-0.005-0.152-0.006-0.306,0-0.462
					c0.004-0.067,0.007-0.137,0.013-0.203c0.014-0.148,0.012-0.284,0.001-0.416c-0.013-0.142-0.039-0.275-0.073-0.408
					c-0.054-0.202-0.131-0.398-0.22-0.603c-0.049-0.112-0.102-0.228-0.157-0.348c-0.132-0.287-0.274-0.604-0.401-0.989
					c-0.334-1.008,0.765-1.161,1.608-1.239h0.001c0-0.002,0.001-0.002,0.001-0.002c0.154-0.015,0.3-0.026,0.426-0.039l0,0
					c0.001-0.003,0.002-0.003,0.004-0.003c0.258-0.029,0.536-0.084,0.819-0.162c0.13-0.037,0.262-0.077,0.393-0.125l0,0
					c0.232-0.081,0.466-0.174,0.678-0.287c0,0,0-0.001,0.001-0.001l0,0c0.147-0.07,0.282-0.153,0.412-0.24l0,0
					c0.081-0.053,0.161-0.106,0.234-0.161c0.077-0.061,0.145-0.129,0.224-0.191c0.002-0.002,0.004-0.003,0.004-0.004l0,0
					c0.101-0.122,0.223-0.232,0.341-0.355c0.002-0.002,0.002-0.002,0.004-0.004c0.182-0.189,0.377-0.391,0.622-0.576
					c0,0,0,0,0.001,0c0.103-0.08,0.213-0.155,0.336-0.227h0c0.337-0.199,0.758-0.365,1.313-0.467
					c1.748-0.318,2.108,0.335,1.533,0.706c-0.231,0.15-0.636,0.456-1.043,0.795c-0.043,0.036-0.087,0.073-0.132,0.111
					c-0.074,0.063-0.147,0.128-0.219,0.192c-0.171,0.151-0.335,0.306-0.475,0.448c-0.124,0.126-0.23,0.245-0.307,0.349
					c-0.024,0.031-0.041,0.066-0.059,0.096c-0.092,0.146-0.182,0.258-0.259,0.389c0,0,0,0,0,0.002h-0.001
					c0,0-0.003,0.002-0.004,0.004l-0.974,1.195l0,0l-0.001,0.001c-0.083,0.102-0.173,0.211-0.252,0.347l-0.34,0.416
					c-0.04,0.05-0.075,0.103-0.115,0.156c-0.001,0.001-0.001,0.002-0.003,0.004c-0.054,0.071-0.111,0.148-0.171,0.226
					c-0.081,0.109-0.148,0.226-0.229,0.325l0,0l-0.001,0.001c-0.133,0.199-0.258,0.39-0.354,0.582l0,0l0,0.001c0,0,0,0-0.001,0.001
					c-0.093,0.151-0.158,0.304-0.226,0.459l0,0h0c0.002,0.001,0.004,0.003,0.004,0.003c-0.104,0.229-0.19,0.442-0.243,0.652
					c0,0.003-0.001,0.006-0.001,0.008l0,0c-0.051,0.136-0.084,0.27-0.111,0.393c0,0.002,0,0.003,0,0.004l-0.001-0.001
					C200.655,143.771,200.708,144.198,200.708,144.198z"/>
				<g>
					<path fill="#FFFFFF" d="M200.813,143.082c-0.235,0.049-1.612,0.288-2.601-0.349c-0.005-0.152-0.006-0.306,0-0.462
						c0.289,0.149,1.483,0.702,2.713,0.41c0,0.003-0.001,0.006-0.001,0.008l0,0C200.873,142.825,200.84,142.959,200.813,143.082z"/>
					<path fill="#FFFFFF" d="M201.165,142.026c-1.41,0.502-2.782-0.281-2.938-0.374c-0.013-0.142-0.039-0.275-0.073-0.408
						c1.51,0.831,2.84,0.465,3.237,0.323C201.297,141.719,201.232,141.871,201.165,142.026z"/>
					<path fill="#FFFFFF" d="M202.605,139.855l-0.34,0.416c-0.41,0.027-1.588,0.002-2.452-0.782
						c-0.693-0.626-0.824-1.14-0.829-1.424c0-0.002,0.001-0.002,0.001-0.002c0.154-0.015,0.3-0.026,0.426-0.039
						c0.001,0,0.002-0.003,0.004-0.003c0.045,0.309,0.192,0.817,0.641,1.184C200.647,139.686,202.187,139.818,202.605,139.855z"/>
					<path fill="#FFFFFF" d="M202.861,139.511c-0.002,0-0.002-0.002-0.003-0.002c-0.574-0.103-2.507-0.526-2.623-1.649
						c0.13-0.037,0.262-0.077,0.393-0.125c0.025,0.242,0.153,0.641,0.7,0.857c0.705,0.283,1.651,0.434,1.893,0.467
						c-0.066,0.083-0.135,0.17-0.214,0.267C202.961,139.383,202.912,139.445,202.861,139.511z"/>
					<path fill="#FFFFFF" d="M203.488,138.734L203.488,138.734c-1.807-0.279-2.126-0.983-2.182-1.287c0,0-0.001-0.001,0-0.001l0,0
						c0.147-0.07,0.282-0.153,0.412-0.24c0.139,0.905,1.647,1.069,2.104,1.101c0,0,0.001,0.002,0.002,0.002
						C203.728,138.438,203.623,138.568,203.488,138.734z"/>
					<path fill="#FFFFFF" d="M204.154,137.822c-1.525-0.218-1.892-0.715-1.979-0.969c0.002-0.002,0.004-0.003,0.004-0.004l0,0
						c0.101-0.122,0.223-0.232,0.341-0.355c0.031,0.605,1.459,0.898,1.94,0.979C204.337,137.6,204.231,137.719,204.154,137.822z"/>
					<path fill="#FFFFFF" d="M205.287,136.721c-0.043,0.037-0.089,0.074-0.132,0.112c-0.074,0.063-0.147,0.128-0.219,0.192
						c-1.513-0.216-1.758-0.83-1.789-1.111c0,0,0,0,0.001,0c0.103-0.08,0.213-0.155,0.336-0.227
						C203.54,136.139,204.963,136.617,205.287,136.721z"/>
					<path fill="#FFFFFF" d="M201.747,140.982L201.747,140.982L201.747,140.982c-0.31,0.063-2.259,0.418-3.814-0.341
						c-0.049-0.112-0.102-0.228-0.157-0.348c0.51,0.124,2.859,0.645,4.372,0.138c-0.054,0.071-0.111,0.148-0.171,0.226
						C201.896,140.767,201.828,140.883,201.747,140.982z"/>
				</g>
			</g>
			<path fill="#FFC3AE" d="M152.645,165.521c-0.672-0.077-1.379-0.168-2.005,0.09c-0.28,0.117-0.55,0.331-0.606,0.63
				c-0.036,0.193,0.023,0.39,0.082,0.577c0.073,0.236,0.17,0.499,0.396,0.599c0.18,0.076,0.394,0.021,0.559-0.082
				c0.167-0.104,0.299-0.252,0.444-0.383c0.395-0.355,0.899-0.587,1.426-0.656c0.655-0.084,1.315,0.076,1.957,0.236
				c1.585,0.396,3.171,0.795,4.756,1.192c-0.135-0.575-0.265-1.152-0.407-1.726c-0.043-0.173-0.097-0.302-0.291-0.32
				c-0.265-0.021-0.55,0.027-0.813,0.039c-1.171,0.051-2.344,0.043-3.514-0.026C153.965,165.654,153.304,165.598,152.645,165.521z"
				/>
			<path fill="#4174A7" d="M196.417,143.561l5.899-0.77c0,0,2.352,17.016,3.313,18.748l-6.541-7.405c0,0-1.435-5.394-1.737-6.212
				C196.994,146.959,196.417,143.561,196.417,143.561z"/>
			<path fill="#569BDE" d="M207.706,167.4c-0.017,0.048-0.042,0.094-0.074,0.137c-0.596,0.775-3.698,0.893-4.671,0.954
				c-1.026,0.064-11.478,0.578-12.568,0.578c-1.044,0-6.928,0.177-8.556,0.354c-0.023,0.004-0.063,0.01-0.107,0.017
				c-0.091,0.017-0.205,0.036-0.241,0.042c-0.521,0.077-1.209,0.052-1.821-0.045c-0.028-0.004-0.055-0.008-0.081-0.014
				c-0.858-0.143-1.828-0.482-1.828-0.482c1.668-2.051,1.479-7.071,1.479-7.071c0.377-0.059,0.666-0.124,0.908-0.204
				c0.677-0.22,0.983-0.551,1.789-1.12c0.374-0.262,0.855-0.578,1.53-0.954c3.207-1.798,7.993,0.037,8.44,0.166
				c0.449,0.129,6.63,1.5,6.63,1.5c0.064,0-1.252-1.945-1.476-2.308c-1.024-1.668-1.681-2.598-2.436-3.785
				c-1.346-2.114-2.628-4.165-4.04-6.411c0.108,0.172,1.612-0.82,2.436-1.347c1.482-0.944,3.147-2.065,3.147-2.065
				c2.309,5.066,10.9,17.249,11.799,18.725C208.861,165.541,208.026,166.502,207.706,167.4z"/>
			<path fill="#FFFFFF" d="M181.729,169.44c-0.091,0.017-0.205,0.036-0.241,0.042c-0.521,0.077-1.209,0.052-1.821-0.045
				c1.002-2.555,0.633-6.725,0.478-7.771c0.677-0.22,0.983-0.551,1.789-1.12C183.065,164.521,182.255,167.934,181.729,169.44z"/>
			<path fill="#3BB6D5" d="M180.101,164.935c0,0,2.361-0.407,2.616-0.088l-0.022,0.478l-2.564,0.18L180.101,164.935z"/>
			<path fill="#AC3E53" d="M161.497,152.888c0.562-0.73,1.335-1.296,2.202-1.61c0.576-0.209,1.203-0.308,1.803-0.182
				c0.807,0.164,1.477,0.703,2.114,1.227c1.897,1.556,3.612,3.557,5.509,5.114c1.778,1.456,4.073,3.632,6.235,4.413
				c-0.192,2.938-0.35,4.638,0,7.561c-3.954,0.396-8.065-0.521-11.418-2.653c-0.279-0.788-0.593-1.64-0.873-2.427
				c-0.794-2.239-1.592-4.484-2.673-6.599C163.54,156.054,162.681,154.352,161.497,152.888z"/>
			<path fill="#E5526F" d="M161.497,152.888c0.441,4.227,0.974,8.312,1.416,12.537c-1.417-0.023-2.833-0.051-4.248-0.077
				c0.163,1.183,0.327,2.363,0.491,3.545c2.242-0.07,4.486-0.14,6.728-0.209c0.578-0.018,1.217-0.063,1.621-0.477
				c0.425-0.438,0.429-1.121,0.406-1.73c-0.058-1.517-0.116-3.031-0.173-4.548c2.777,3.723,7.057,6.62,11.622,7.481
				c-0.015-2.948,0.417-4.641,0-7.561c-3.442-1.332-5.881-4.977-8.687-7.017c-1.208-0.881-3.259-2.898-4.602-3.554
				C164.73,150.62,162.613,151.315,161.497,152.888z"/>
			<path fill="#79D3D3" d="M160.672,145.996c0.483,0.358,1.253,0.225,1.589-0.271c0.2-0.298,0.246-0.673,0.258-1.03
				c0.02-0.575-0.03-1.153-0.147-1.716c-0.07-0.341-0.241-0.742-0.588-0.777c-0.219-0.02-0.417,0.122-0.575,0.275
				C160.504,143.158,159.636,145.229,160.672,145.996z"/>
			<path fill="#79D3D3" d="M160.64,137.493c0.216-0.002,0.425,0.085,0.577,0.235c0.153,0.15,0.253,0.348,0.338,0.543
				c0.291,0.663,0.378,1.463,0.441,2.222c0.058,0.708,0.092,1.292,0.057,2.024c-0.195,0.038-0.604,0.019-0.8,0.058
				c-0.239-1.589-0.11-1.797-0.645-3.596c-0.128-0.436-0.408-0.865-0.524-1.064c-0.116-0.198-0.328-0.392-0.557-0.42
				C159.898,137.479,160.252,137.5,160.64,137.493z"/>
			<g>
				<polygon fill="#C9AEA7" points="135.249,168.934 152.366,168.934 149.568,157.133 132.452,157.133 				"/>
				<rect x="152.099" y="168.256" fill="#B69A97" width="7.457" height="0.678"/>
				<rect x="135.157" y="168.256" fill="#DFCECA" width="16.941" height="0.739"/>
				<polygon fill="#B69A97" points="132.463,157.133 152.099,168.26 135.094,168.26 				"/>
				
					<ellipse transform="matrix(-0.9831 0.1832 -0.1832 -0.9831 312.3606 297.737)" fill="#F3F3F3" cx="142.425" cy="163.299" rx="1.047" ry="1.166"/>
			</g>
		</g>
		<path fill="#79D3D3" d="M239.36,123.011c0.687,2.298,1.204,5.909,1.536,8.287c0.08,0.564,0.038,2.683-0.353,3.101
			c-0.234,0.25-6.281,0.926-8.803,1.754c-0.338,0.112-1.984,0.757-2.312,0.616c-0.463-0.198-0.716-2.261-0.603-2.753
			c1.449-6.271,1.449-1.657-0.676-13.992c-0.424-2.467-1.231-4.759-0.385-7.115c0.282-0.785,2.409-3.07,2.409-3.07
			s0.725,0.767,1.461,1.195c0.614,0.359,1.398,1.007,1.916,1.13C235.892,112.713,238.533,120.241,239.36,123.011z"/>
		<path fill="#F9B58E" d="M236.438,139.751c0.206,0.437,0.3,0.919,0.339,1.399c0.067,0.824-0.024,1.657-0.266,2.447
			c-0.349-0.082-0.632-0.395-0.679-0.748c0.162,0.242,0.016,0.626-0.266,0.7c-0.283,0.074-0.599-0.188-0.579-0.479
			c-0.073,0.256-0.354,0.431-0.617,0.387s-0.469-0.304-0.455-0.569c0.104,0.083,0.087,0.262-0.018,0.343
			c-0.103,0.08-0.26,0.071-0.371,0c-0.112-0.069-0.185-0.188-0.232-0.311c-0.085-0.216-0.103-0.452-0.12-0.685
			c-0.074-1.006-0.148-2.015-0.222-3.022c-0.011-0.139-0.019-0.286,0.047-0.408c0.131-0.239,0.462-0.259,0.735-0.247
			c0.359,0.015,0.717,0.031,1.077,0.047c0.227,0.008,0.489-0.008,0.704,0.082C235.929,138.857,236.25,139.374,236.438,139.751z"/>
		<path fill="#71C7C6" d="M232.531,116.263c-0.128,2.118-0.256,4.234-0.385,6.352c-0.07,1.173-0.14,2.356,0.026,3.521
			c0.14,0.967,0.442,1.901,0.743,2.832c1.082,3.349,2.165,6.697,3.248,10.048c-1.164-0.079-2.326-0.157-3.489-0.236
			c-0.927-3.589-2.704-9.978-2.859-10.56c-1.284-4.016-1.741-8.294-1.333-12.489L232.531,116.263z"/>
	</g>
</g>
</svg>
