<?xml version="1.0" encoding="utf-8"?>
<!-- Generator: Adobe Illustrator 16.0.0, SVG Export Plug-In . SVG Version: 6.00 Build 0)  -->
<!DOCTYPE svg PUBLIC "-//W3C//DTD SVG 1.1//EN" "http://www.w3.org/Graphics/SVG/1.1/DTD/svg11.dtd">
<svg version="1.1" xmlns="http://www.w3.org/2000/svg" xmlns:xlink="http://www.w3.org/1999/xlink" x="0px" y="0px" width="1100px"
	 height="800px" viewBox="0 0 1100 800" enable-background="new 0 0 1100 800" xml:space="preserve">
<g id="background">
	<rect y="0.001" fill="#FFFFFF" width="1100" height="800"/>
</g>
<g id="shadow">
	<g>
		<path fill="#F1F2F2" d="M517.333,674.266c-27.351,0.074-54.7,0.672-82.003,3.436c-10.295,1.043-20.373,3.335-30.69,4.26
			c-20.609,1.847-40.85,5.292-61.532,6.881c-16.654,1.28-33.38,2.035-49.986,3.659c-15.569,1.522-32.807,1.171-48.256-1.344
			c-11.438-1.862-22.929-2.91-34.174-5.901c-12.58-3.346-26.247-5.736-39.354-5.65c-18.69,0.123-36.893,0.137-54.779,6.043
			c-6.278,2.074-13.965,5.482-18.732,9.834c-10.915,9.963-12.393,34.818-1.494,45.15c18.355,17.39,57.533,24.213,83.264,24.535
			c28.194,0.352,55.585-1.553,83.821-2.672c26.237-1.041,52.409-2.522,78.69-2.471c53.675,0.107,107.358,0,160.938-3.264
			c50.339-3.065,100.804-2.014,151.253-2.014c51.734,0,103.117,0.371,154.478,6.629c22.378,2.727,45.177,3.681,67.667,5.592
			c20.143,1.711,39.498-0.034,59.561-1.615c16.846-1.328,33.582-5.266,48.886-11.924c12.114-5.269,33.712-21.639,37.427-34.217
			c10.415-35.262-146.781-34.414-170.918-34.336c-27,0.09-54.215,0.897-81.193-0.039c-11.349-0.395-22.53-2.412-33.606-4.625
			c-11.032-2.203-22.148-1.644-33.336-2.569c-46.656-3.862-93.415-3.298-140.22-3.298
			C547.811,674.346,532.572,674.225,517.333,674.266z"/>
	</g>
</g>
<g id="object">
	<g>
		<g>
			<polygon fill="#3B455A" points="979.609,531.35 975.055,616.034 966.558,730.355 953.842,731.259 938.393,627.428 
				917.021,539.566 			"/>
			<polygon fill="#474EBB" points="954.296,736.615 968.535,742.514 974.922,735.15 967.558,728.764 953.808,729.74 			"/>
		</g>
		<g>
			<polygon fill="#3B455A" points="882.145,525.008 879.354,575.829 887.634,726.94 900.365,727.577 919.447,628.467 
				936.277,519.781 			"/>
			<polygon fill="#474EBB" points="900.023,729.961 885.912,736.157 879.372,731.91 886.6,725.369 900.368,726.058 			"/>
		</g>
		<g>
			<path fill="#8EC3CB" d="M951.302,368.933l-39.871-2.616c0,0-21.985,3.271-34.807,56.333c-7.134,29.521-7.775,75.596-6.94,110.668
				c1.144,4.961,7.493,26.635,30.371,21.971c39.287-8.011,60.074-15.258,77.43-12.779c14.803,2.585,12.729-17.564,10.481-32.912
				l-7.813-47.457L951.302,368.933z"/>
		</g>
		<g>
			<path fill="#B97262" d="M941.599,319.837c-10.097-1.793-20.476-3.344-30.41-0.948c-2.176,0.525-4.499,1.385-5.611,3.328
				c-0.431,0.753-0.639,1.609-0.83,2.455c-2.141,9.5-4.771,23.56,1.771,31.961c1.247,1.602,2.885,2.847,4.632,3.841
				c2.334,1.328,4.893,2.192,7.521,2.599c-0.442,2.358-1.099,4.676-1.96,6.916c2.434,3.359,13.135,3.333,14.975-0.06
				c-0.008-2.87-0.016-5.739-0.022-8.609c1.278-0.579,2.509-1.27,3.656-2.096c4.442-3.195,7.264-7.884,8.801-13.062
				c1.674-5.638,4.133-11.034,5.638-16.772c0.549-2.09,0.951-4.467-0.212-6.289c-1.238-1.939-3.762-2.513-6.026-2.92
				C942.88,320.066,942.239,319.952,941.599,319.837z"/>
			<path fill="#3B455A" d="M908.518,326.583c4.814-3.384,12.177-5.059,16.841-4.914c14.1,0.438,19.676,10.55,20.96,23.445
				c3.67-5.082,10.683-11.573,10.86-17.925c0.145-5.2-0.864-12.24-3.953-16.598c-2.891-4.077-9.935-6.092-14.168-8.349
				c-3.99-2.128-7.98-4.256-11.971-6.383c-0.83-0.443-1.683-0.893-2.615-1.015c-1.103-0.146-2.207,0.181-3.271,0.503
				c-9.109,2.759-18.219,5.519-27.329,8.278c-1.75,0.53-3.737,1.281-4.318,3.015c-0.354,1.055-0.073,2.205,0.209,3.281
				c1.243,4.736,3.451,9.54,4.147,14.361c0.679,2.79,2.95,17.14,7.864,15.27c1.363-2.452,1.461-5.407,2.494-8.015
				C905.031,329.609,906.564,327.956,908.518,326.583z"/>
		</g>
		<polygon fill="#8EC3CB" points="911.431,366.317 896.943,371.388 845.674,429.733 843.248,448.364 870.608,489.603 
			876.886,473.814 864.752,443.004 881.476,430.174 902.31,377.556 		"/>
		<polygon fill="#8EC3CB" points="943.022,372.676 969.093,342.072 959.37,262.445 971.143,256.684 990.795,337.055 
			986.637,357.459 957.786,400.921 		"/>
		<polygon fill="#B97262" points="968.622,257.917 968.321,250.604 959.437,239.805 953.882,245.189 958.067,254.936 
			955.819,258.445 959.37,262.445 		"/>
	</g>
	<g>
		<polygon fill="#EFBFA5" points="259.279,354.042 272.439,344.842 270.567,336.451 257.229,341.05 250.79,345.247 250.79,349.9 		
			"/>
		<g id="XMLID_207_">
			<g id="XMLID_210_">
				<g id="XMLID_220_">
					<g id="XMLID_222_">
						<path fill="#3B455A" d="M134.25,708.883c-1.358-1.495-2.943-2.311-4.734-2.029c-1.72,0.271-3.267,1.437-3.976,2.996
							c-0.484,1.063-0.586,2.248-0.683,3.408c-0.496,6.004-0.451,20.256,7.545,22.309c3.361,0.861,6.141-4.508,7.038-7.525
							C140.792,723.495,138.79,713.883,134.25,708.883z"/>
					</g>
					<g id="XMLID_221_">
						<path fill="#EFBFA5" d="M137.094,618.323l-0.419,36.615c0.487,16.264-2.053,32.618-1.565,48.883
							c0.112,3.739,1.086,7.685,0.145,11.392c-0.922,3.626-3.868,4.268-6.893,2.432c-4.052-2.461-3.399-8.206-4.073-12.396
							c-1.854-11.518-4.029-22.98-5.965-34.484c-0.95-5.64,1.007-13.543,0.581-19.25l-5.915-30.687L137.094,618.323z"/>
					</g>
				</g>
				<g id="XMLID_219_">
					<polygon fill="#C4C9CE" points="95.259,559.161 111.194,629.949 114.58,696.801 139.849,696.232 146.72,509.242 
						97.734,510.132 					"/>
				</g>
				<g id="XMLID_214_">
					<g id="XMLID_216_">
						<g id="XMLID_218_">
							<path fill="#3B455A" d="M170.393,704.571c-1.417-1.416-3.032-2.14-4.805-1.752c-1.703,0.372-3.194,1.63-3.835,3.233
								c-0.437,1.092-0.488,2.285-0.534,3.451c-0.237,6.037,0.416,20.298,8.474,21.881c3.387,0.664,6.056-1.89,6.82-4.962
								C177.665,721.793,175.133,709.307,170.393,704.571z"/>
						</g>
						<g id="XMLID_217_">
							<path fill="#EFBFA5" d="M157.074,623.463l2.144,36.555c0.176,10.16,1.529,20.24,2.581,30.331
								c0.977,9.372-0.544,19.135,4.354,27.66c1.536,2.673,4.641,4.452,6.811,1.204c1.672-2.502,0.679-6.678,1-9.517
								c1.31-11.591,2.94-23.144,4.333-34.724c0.682-5.678-1.646-13.481-1.489-19.203l4.463-30.927L157.074,623.463z"/>
						</g>
					</g>
					<g id="XMLID_215_">
						<polygon fill="#C4C9CE" points="189.051,554.832 191.107,623.549 180.323,693.038 154.62,693.807 155.754,618.602 
							142.153,556.235 137.587,515.412 178.372,510.602 						"/>
					</g>
				</g>
				<g id="XMLID_213_">
					<polygon fill="#EBB044" points="156.787,369.969 112.847,368.921 87.371,416.301 96.426,460.68 98.038,513.787 
						160.717,514.643 181.34,511.295 175.864,454.549 178.731,385.307 					"/>
				</g>
				<g id="XMLID_212_">
					<polygon fill="#EBB044" points="111.39,372.188 75.722,426.516 81.082,456.781 136.324,495.049 146.72,485.961 
						109.788,439.273 111.221,409.77 					"/>
				</g>
				<g id="XMLID_211_">
					<polygon fill="#EBB044" points="154.126,400.644 196.345,415.866 220.775,409.854 262.994,354.46 248.291,348.056 
						203.949,386.134 163.816,374.109 					"/>
				</g>
			</g>
			<g id="XMLID_209_">
				<polygon fill="#D34E4E" points="125.846,369.718 139.477,388.984 145.885,388.459 156.564,368.921 				"/>
			</g>
			<g id="XMLID_208_">
				<polygon fill="#EFBFA5" points="136.646,488.27 136.407,495.682 149.488,500.443 157.027,494.73 157.033,486.103 
					149.754,485.697 149.526,483.799 147.142,482.266 				"/>
			</g>
		</g>
		<path fill="#EFBFA5" d="M141.946,331.042c2.852-2.514,6.11-2.97,9.744-2.998c1.718-0.012,2.293,0.431,3.178,0.276
			c0.397-0.07,0.858-0.261,1.515-0.668c1.301-0.811,2.461-2.93,3.069-4.657c3.371,2.131,5.822,5.981,6.498,11.843
			c0.735,6.374,0.724,13.096-1.461,19.473c-2.184,6.377-6.846,12.373-12.894,14.739c-0.353,0.138-0.702,0.259-1.05,0.373
			c-2.592,0.845-5.052,1.021-7.334,0.655l-7.624-3.633c-0.379-0.323-0.747-0.663-1.104-1.019
			C131.979,354.578,134.693,337.438,141.946,331.042z"/>
		<path fill="#333E51" d="M78.616,462.313c0.578,3.39,2.324,6.454,4.723,8.938c0.191-1.169,0.391-2.329,0.6-3.479
			c-0.209,1.15-0.408,2.311-0.6,3.479c1.55,1.605,3.368,2.972,5.328,4.02c4.992,2.669,10.78,3.508,16.44,3.5
			c4.531-0.008,9.126-0.523,13.552,0.447c4.426,0.97,8.81,3.853,9.928,8.243c0.618,2.423,0.416,5.467,2.511,6.833
			c0.983,0.641,2.224,0.694,3.396,0.729c3.585,0.103,7.656,0.009,10.063-2.649c3.726-4.114,1.55-12.369,6.584-14.708
			c1.476-0.686,3.179-0.58,4.782-0.852c6.812-1.152,10.144-8.858,9.489-15.934c-0.136-1.465-0.439-2.904-0.922-4.252
			c-2.814-7.852-9.336-13.679-14.275-20.4c-9.643-13.121-16.162-30.654-10.233-46.184c0.559-1.461,1.185-2.928,1.573-4.436
			c0.214-0.829,0.358-1.669,0.374-2.529c0.087-4.632-3.359-8.445-5.588-12.506c-0.207-0.379-0.403-0.779-0.588-1.198
			c-0.45-1.024-0.826-2.167-1.136-3.393c-0.047-0.184-0.092-0.369-0.135-0.557c-6.839-6.821-9.58-19.493-5.078-28.962
			c0.256-0.538,0.527-1.065,0.813-1.58c-0.286,0.515-0.558,1.042-0.813,1.58c-4.502,9.469-1.761,22.142,5.078,28.962
			c-2.505-10.848,0.21-27.987,7.463-34.383c2.852-2.514,6.11-2.97,9.744-2.998c1.718-0.013,2.293,0.431,3.178,0.275
			c0.398-0.07,0.858-0.26,1.515-0.668c1.301-0.81,2.461-2.929,3.069-4.657c3.371,2.131,5.822,5.981,6.499,11.844
			c0.734,6.373,0.723,13.096-1.461,19.473c-2.185,6.377-6.847,12.373-12.895,14.739c-0.353,0.138-0.702,0.259-1.05,0.372
			c0.301,0.543,0.681,1.087,1.174,1.629c3.312,3.643,8.625,4.489,13.507,5.119c0.592,0.077,1.214,0.15,1.771-0.066
			c0.915-0.357,1.387-1.417,1.395-2.4c0.007-0.983-0.346-1.926-0.617-2.871c-2.837-9.88,2.19-21.166,3.028-31.125
			c0.837-9.941-1.216-20.759-9.194-27.479c-1.354,0.372-2.669,0.881-3.924,1.509c-0.125-0.167-0.253-0.33-0.386-0.489
			c-11.55-13.869-27.857-2.013-36.63,8.579c-7.23,8.729-13.259,18.754-16.024,29.833c-2.585,10.361-3.449,25.587-2.354,36.178
			c0.638,6.184,3.083,12.25,4.376,18.305c0.805,3.769,1.164,7.533,0.36,11.316c-1.672,7.877-7.906,13.656-13.994,19.127
			c-0.555,1.421-1.105,2.861-1.654,4.323s-1.095,2.944-1.635,4.449c-0.35,0.97-0.687,1.954-1.014,2.955
			c0.327-1.001,0.664-1.985,1.014-2.955c0.54-1.505,1.086-2.987,1.635-4.449s1.1-2.902,1.654-4.323
			c-0.842,0.756-1.682,1.508-2.506,2.257C83.746,445.012,77.075,453.276,78.616,462.313z M139.346,325.037
			c0.9-0.596,1.823-1.131,2.76-1.603C141.169,323.906,140.246,324.441,139.346,325.037z"/>
	</g>
	<g>
		<rect x="763.697" y="79.88" fill="#EBB044" width="185.287" height="144.626"/>
		<g>
			<path fill="#474EBB" d="M755.146,156.71l0.877,121.873l177.404-1.277c13.418-0.097,24.213-11.801,24.109-26.143l-0.69-95.905
				l-100.397,63.603L755.146,156.71z"/>
		</g>
		<g>
			<rect x="797.221" y="106.793" fill="#F7F7F7" width="137.159" height="2.955"/>
			<rect x="778.302" y="129.813" fill="#F7F7F7" width="156.078" height="3.064"/>
			<rect x="778.302" y="152.888" fill="#F7F7F7" width="156.078" height="3.064"/>
		</g>
	</g>
	<g>
		<polygon fill="#455063" points="260.21,245.733 234.657,298.979 234.591,223.64 485.32,67.089 		"/>
		<polygon opacity="0.13" fill="#6D6E6F" points="234.654,224.211 385.247,146.078 259.491,247.23 234.854,298.143 		"/>
		<polygon fill="#3B455A" points="234.657,298.979 259.438,246.551 484.766,67.865 		"/>
		<g>
			<polygon fill="#707F78" points="484.766,67.865 485.32,67.089 482.397,69.352 			"/>
			<polygon fill="#7FC5A3" points="484.766,67.865 482.397,69.352 259.5,246.22 259.244,246.375 331.084,310.901 			"/>
			<polygon fill="#7FC5A3" points="485.32,67.089 172.935,168.852 234.231,223.907 482.397,69.352 			"/>
		</g>
	</g>
	<g>
		<g>
			<polygon fill="#474EBB" points="360.661,722.053 359.657,729.862 374.271,736.699 383.085,732.875 376.279,724.061 
				361.665,714.244 			"/>
			<g>
				<polygon fill="#3B455A" points="360.167,719.432 371.438,619.836 357.877,508.34 360.927,484.623 421.496,482.322 
					423.681,520.926 413.514,619.99 375.259,724.521 				"/>
			</g>
			<polygon fill="#8EC3CB" points="427.181,372.126 457.647,380.424 492.883,442.859 476.192,458.313 452.702,430.496 			"/>
			<g>
				<polygon fill="#3B455A" points="465.938,493.483 466.098,593.987 445.867,723.369 431.307,723.223 423.303,603.576 
					404.57,483.82 				"/>
				<polygon fill="#474EBB" points="431.329,729.365 446.997,734.414 454.949,729.6 447.154,721.648 431.407,721.491 				"/>
			</g>
			<g>
				<path fill="#8EC3CB" d="M351.609,527.665c0.139-4.354,0.381-7.989,0.415-9.288c0.312-11.684,1.354-23.34,2.816-34.941
					c1.31-10.395,2.965-36.201,4.743-46.533c1.469-8.529,6.588-29.821,10.286-37.733c9.196-19.676,6.355-21.494,46.755-27.336
					c17.706-2.561,21.891,8.474,36.366,21.163c1.428,1.252,1.349,8.704,1.68,10.677c0.584,3.475,1.209,6.944,1.925,10.396
					c0.563,2.715,1.186,5.42,1.882,8.107l-0.001-0.001c0,0,12.151,55.3,20.188,67.046c8.036,11.744,24.638,28.164-3.134,38.191
					c-4.921,1.59-9.874,3.104-14.997,3.913c0,0-22.712-2.524-34.393-2.437c-10.758,0.08-21.56,1.169-32.136,2.992
					c-7.072,1.182-14.289,2.9-20.615,6.205c-6.036,3.152-10.392,7.79-16.516,11.055c-0.58,0.309-1.216,0.629-1.875,0.537
					C351.482,549.19,351.316,536.832,351.609,527.665z"/>
			</g>
			<g>
				<path fill="#B97262" d="M416.671,377.381c-2.038,1.007-6.85,1.368-11.868-0.597c-1.011-0.396-1.693-1.372-1.68-2.458
					c0.04-3.048,0.285-6.094,0.733-9.109c-3.764-1.324-8.113-3.309-8.77-7.245c-0.206-1.239,0.008-2.507,0.222-3.745
					c0.885-5.12,1.77-10.239,2.654-15.359c0.306-1.771,0.631-3.594,1.595-5.111c1.689-2.663,4.969-3.827,8.075-4.366
					c7.929-1.376,16.567,0.341,22.715,5.534c1.636,1.382,3.115,3.043,3.836,5.06c1.112,3.109,0.281,6.538-0.558,9.732
					c-0.774,2.948-1.549,5.896-2.322,8.844c-0.891,3.391-2.176,7.245-5.442,8.516c-1.734,0.675-3.782,0.478-5.353,1.477
					C417.739,370.314,418.112,374.432,416.671,377.381z"/>
				<path fill="#3B455A" d="M462.429,326.323c0.778-1.279,1.617-2.513,2.556-3.67c2.033-2.506,4.538-4.654,6.174-7.436
					c1.636-2.782,2.211-6.553,0.249-9.115c-1.267-1.653-3.322-2.48-5.321-3.068c-6.583-1.938-13.688-2.068-20.339-0.375
					c-6.335,1.612-12.004,4.283-18.381,1.901c-5.991-2.238-10.318-1.326-16.58,0.908c-6.777,2.418-15.874,2.989-22.008,6.402
					c-2.562,1.425-4.605,3.653-6.198,6.113c-5.52,8.525-5.55,20.279-0.075,28.833c1.229,1.919,2.699,3.673,4.243,5.348
					c3.197,3.467,7.021,7.749,11.419,9.034c0.104-3.934-3.479-16.339-0.458-19.563c4.795-5.117,15.637-3.332,21.584-2.072
					c6.488,1.374,12.271,5.968,18.703,6.95c4.629,0.706,10.536-1.563,14.473-3.956C457.325,339.602,459.586,330.989,462.429,326.323
					z"/>
			</g>
			<polygon fill="#8EC3CB" points="383.085,379.395 357.877,401.482 329.757,460.577 365.274,502.832 371.385,479.203 			"/>
		</g>
	</g>
	<g>
		<g>
			<g>
				<polygon fill="#474EBB" points="555.834,401.51 244.235,424.967 407.348,510.374 				"/>
				<path fill="#474EBB" d="M234.467,432.13l15.106,200.663l292.097-21.99c22.094-1.663,38.563-22.153,36.784-45.768
					l-11.888-157.906L408.311,523.156L234.467,432.13z"/>
				<path fill="#353E93" d="M499.925,405.718c-0.203,2.677-0.208,5.401,0,8.159c0.64,8.506,3.231,16.396,7.298,23.271l48.612-35.639
					L499.925,405.718z"/>
				<path fill="#353E93" d="M557.501,463.393c4.565-0.344,8.953-1.252,13.103-2.645l-4.036-53.619l-52.888,38.774
					C524.425,457.744,540.322,464.686,557.501,463.393z"/>
			</g>
			<circle fill="#D34E4E" cx="566.196" cy="402.2" r="53.697"/>
			<g>
				<polygon fill="#FFFFFF" points="577.37,431.557 564.795,432.307 562.327,390.915 554.469,391.383 553.719,378.808 
					574.152,377.59 				"/>
			</g>
		</g>
	</g>
	<g>
		<g id="XMLID_187_">
			<g id="XMLID_189_">
				<g id="XMLID_204_">
					<g id="XMLID_206_">
						<path fill="#3B455A" d="M755.005,716.624c1.355-1.491,2.938-2.306,4.724-2.024c1.717,0.27,3.26,1.433,3.968,2.988
							c0.482,1.061,0.585,2.244,0.68,3.401c-0.148-1.794,1.093,20.046-7.528,22.259c-3.353,0.859-6.126-1.522-7.021-4.533
							C748.478,734.178,750.475,721.613,755.005,716.624z"/>
					</g>
					<g id="XMLID_205_">
						<path fill="#EFBFA5" d="M752.167,626.265l0.418,36.534c-0.485,16.229,2.048,32.547,1.563,48.774
							c-0.112,3.731-1.084,7.668-0.144,11.367c0.919,3.618,3.859,4.257,6.877,2.425c4.043-2.454,3.392-8.187,4.064-12.369
							c1.85-11.49,4.02-22.93,5.951-34.407c0.947-5.627-1.005-13.513-0.58-19.208c0-0.004,5.902-30.617,5.902-30.617
							L752.167,626.265z"/>
					</g>
				</g>
				<g id="XMLID_203_">
					<polygon fill="#C4C9CE" points="793.91,567.233 778.009,637.865 774.631,704.568 749.418,704.002 742.563,517.426 
						791.439,518.313 					"/>
				</g>
				<g id="XMLID_198_">
					<g id="XMLID_200_">
						<g id="XMLID_202_">
							<path fill="#3B455A" d="M718.942,715.297c1.414-1.414,3.025-2.135,4.794-1.748c1.698,0.371,3.188,1.627,3.826,3.225
								c0.436,1.091,0.487,2.281,0.532,3.445c-0.072-1.865-0.104,20.191-8.454,21.831c-3.379,0.663-6.042-1.885-6.805-4.95
								C711.686,732.48,714.213,720.021,718.942,715.297z"/>
						</g>
						<g id="XMLID_201_">
							<path fill="#EFBFA5" d="M732.231,631.394l-2.14,36.474c-0.175,10.137-1.525,20.195-2.574,30.264
								c-0.976,9.352,0.542,19.093-4.346,27.599c-1.532,2.667-4.631,4.442-6.796,1.202c-1.668-2.497-0.677-6.664-0.997-9.496
								c-1.306-11.565-2.934-23.092-4.323-34.646c-0.681-5.666,1.642-13.452,1.485-19.16c0-0.004-4.452-30.859-4.452-30.859
								L732.231,631.394z"/>
						</g>
					</g>
					<g id="XMLID_199_">
						<polygon fill="#C4C9CE" points="700.325,562.914 698.273,631.479 709.033,700.814 734.68,701.582 733.548,626.543 
							747.119,564.314 751.675,523.581 710.98,518.781 						"/>
					</g>
				</g>
				<g id="XMLID_197_">
					<polygon fill="#D34E4E" points="732.518,378.46 776.36,377.414 801.78,424.689 792.745,468.969 791.136,521.961 
						728.597,522.814 708.019,519.473 713.482,462.854 710.35,387.22 					"/>
				</g>
				<g id="XMLID_196_">
					<polygon fill="#D34E4E" points="777.814,380.674 813.403,434.881 808.056,465.08 752.936,503.262 742.563,494.195 
						779.413,447.611 777.983,418.174 					"/>
				</g>
				<g id="XMLID_195_">
					<polygon fill="#D34E4E" points="730.325,407.106 707.488,452.76 682.866,457.652 621.516,430.865 632.098,418.861 
						688.047,429.102 710.35,387.22 					"/>
				</g>
				<g id="XMLID_190_">
					<g id="XMLID_194_">
						<path fill="#EFBFA5" d="M735.263,341.728c6.609-19.216,31.978-12.015,37.207,5.095c3.411,11.161-5.208,25.645-16.772,28.85
							c-0.051,0.439-0.089,0.85-0.091,1.198c-0.008,1.791-0.229,3.558-0.494,5.348c-0.099,0.667-10.22-1.277-11.349-1.5
							c-0.395-0.078-0.835-0.185-1.048-0.517c-0.408-0.635,0.256-2.507,0.33-3.213c0.087-0.833,0.175-1.667,0.262-2.5
							c-5.704-2.785-9.304-8.715-10.309-14.752C731.989,353.671,733.276,347.502,735.263,341.728z"/>
					</g>
					<g id="XMLID_191_">
						<g id="XMLID_193_">
							<path fill="#333E51" d="M751.813,324.364c1.359,1.381,1.895,3.307,2.287,5.157c0.233,1.104,0.436,2.248,0.199,3.341
								c-0.942,4.362-5.269,4.135-8.614,5.541c-4.127,1.733-7.685,4.926-9.995,8.603c-3.618,5.757-1.99,13.165-0.523,19.515
								c0.518,2.238,1.558,5.565-0.178,7.561c-1.764,2.028-5.84,1.714-7.951,0.671c-1.931-0.954-3.516-2.717-5.635-3.072
								c-2.243-0.376-5.274,0.61-6.318-1.447c-0.29-0.573-0.317-1.272-0.684-1.797c-1.239-1.772-4.321,0.303-6.068-0.946
								c-1.074-0.768-1.066-2.406-0.703-3.702c0.363-1.296,0.976-2.609,0.722-3.927c-0.218-1.133-1.035-2.029-1.54-3.06
								c-0.997-2.036-0.652-4.687,0.833-6.406c2.762-3.196,8.106-2.59,11.065-5.596c1.542-1.566,2.14-3.826,2.715-5.963
								c0.574-2.138,1.264-4.393,2.912-5.841c2.036-1.79,4.976-1.486,6.984-3.608c1.18-1.247,1.967-2.871,3.291-3.956
								c1.746-1.43,5.159-2.53,7.33-3.26C745.387,321.014,749.239,321.75,751.813,324.364z"/>
						</g>
						<g id="XMLID_192_">
							<path fill="#333E51" d="M767.859,355.028c0.118,6.325-3.023,13.162-0.11,18.729c2.94,5.618,10.27,6.631,16.517,6.924
								c1.027,0.048,14.211,1.187,14.267,0.937c0.987-4.405,2.009-8.898,4.311-12.767c2.303-3.868,6.152-7.073,10.561-7.348
								c-1.271-0.22-1.913-1.778-1.767-3.091c0.147-1.313,0.828-2.497,1.221-3.758c0.966-3.1,0.025-6.717-2.312-8.896
								c-4.664-4.347-13.119-2.542-17.116-7.534c-2.479-3.095-2.184-7.585-3.483-11.364c-2.512-7.309-10.513-8.837-16.492-12.137
								c-6.313-3.484-12.257-5.394-19.544-4.179c-9.032,1.505-15.745,10.701-12.262,19.354c4.468,11.099,22.329,10.141,25.674,21.41
								C767.682,352.518,767.836,353.763,767.859,355.028z"/>
						</g>
					</g>
				</g>
			</g>
			<g id="XMLID_188_">
				<polygon fill="#CCD2D9" points="763.391,378.21 749.79,397.433 743.396,396.909 732.739,377.414 				"/>
			</g>
		</g>
		<g>
			<g>
				<path fill="#FFFFFF" d="M694.415,522.83c-1.07,0-2.059-0.409-2.784-1.152l-30.976-31.754l-19.241,24.631
					c-0.685,0.876-1.658,1.359-2.741,1.359c-1.683,0-3.403-1.218-4.003-2.832l-45.617-122.805c-0.549-1.48-0.226-2.94,0.864-3.947
					c0.664-0.852,1.631-1.336,2.684-1.336c0.479,0,0.968,0.099,1.456,0.294l121.634,48.64c1.493,0.598,2.498,1.832,2.689,3.303
					c0.188,1.452-0.461,2.885-1.736,3.831l-24.657,18.3l30.911,31.688c1.522,1.561,1.521,4.141-0.008,5.633l-25.626,25
					C696.517,522.412,695.478,522.83,694.415,522.83L694.415,522.83z M660.248,479.911c1.11,0,2.198,0.436,2.91,1.165l31.366,32.154
					l19.92-19.435l-31.305-32.09c-0.822-0.843-1.226-1.923-1.136-3.041c0.096-1.202,0.752-2.337,1.799-3.115l22.614-16.782
					l-106.719-42.677l40.023,107.749l17.668-22.618C658.04,480.389,659.082,479.911,660.248,479.911z"/>
				<g>
					<path fill="#FFFFFF" d="M723.971,490.002l-14.963-15.34l-14.75-15.119l10.262-7.616l13.018-9.661
						c1.718-1.275,2.589-3.23,2.33-5.228c-0.262-2.019-1.615-3.7-3.619-4.502L674.9,416.001l-65.337-26.128l-8.89-3.554
						l-6.061-2.424c-0.664-0.266-1.342-0.401-2.013-0.401c-1.483,0-2.845,0.658-3.792,1.819c-1.459,1.414-1.906,3.48-1.161,5.485
						l1.645,4.427l13.862,37.319l24.503,65.967l2.832,7.621l2.774,7.473c0.82,2.206,3.095,3.807,5.409,3.807
						c1.555,0,2.948-0.686,3.923-1.936l9.794-12.537l8.391-10.74l11.595,11.887l13.992,14.344l4.19,4.295
						c1.011,1.035,2.381,1.605,3.857,1.605c1.45,0,2.87-0.574,3.896-1.575l12.613-12.306l13.011-12.693
						C726.083,495.66,726.099,492.182,723.971,490.002z M721.841,495.609c-8.541,8.332-17.082,16.666-25.624,24.999
						c-0.485,0.473-1.146,0.723-1.802,0.723c-0.626,0-1.248-0.227-1.711-0.701c-1.396-1.432-2.793-2.863-4.189-4.295
						c-9.329-9.563-18.656-19.124-27.985-28.687c-6.766,8.66-13.531,17.321-20.297,25.982c-0.433,0.553-0.99,0.782-1.56,0.782
						c-1.089,0-2.221-0.837-2.598-1.853c-1.868-5.031-3.737-10.063-5.606-15.094c-8.168-21.988-16.336-43.977-24.503-65.967
						c-5.169-13.914-10.338-27.83-15.507-41.745c-0.387-1.04-0.064-1.878,0.567-2.406c0.357-0.512,0.897-0.856,1.574-0.856
						c0.277,0,0.579,0.058,0.899,0.187c4.982,1.993,9.966,3.985,14.949,5.978c21.778,8.709,43.559,17.418,65.337,26.127
						c13.783,5.512,27.565,11.023,41.349,16.536c2.047,0.818,2.425,3.192,0.615,4.536c-8.679,6.44-17.357,12.882-26.036,19.322
						c0.729,0.746,1.456,1.492,2.185,2.238c9.975,10.227,19.951,20.452,29.926,30.678
						C722.749,493.043,722.815,494.658,721.841,495.609z"/>
					<path fill="#FFFFFF" d="M684.213,460.658c-1.208-1.237-0.801-2.951,0.483-3.904c8.257-6.127,16.513-12.256,24.769-18.383
						c-3.525-1.41-7.052-2.82-10.577-4.23c-21.779-8.709-43.559-17.418-65.338-26.127c-12.145-4.856-24.29-9.714-36.435-14.571
						c1.244,3.352,2.489,6.704,3.734,10.054c8.168,21.989,16.335,43.979,24.503,65.967c4.633,12.472,9.266,24.942,13.897,37.415
						c6.44-8.245,12.881-16.489,19.321-24.734c0.396-0.507,1.03-0.734,1.677-0.734c0.69,0,1.394,0.26,1.836,0.713
						c1.396,1.433,2.793,2.863,4.19,4.295c9.407,9.645,18.815,19.288,28.224,28.933c7.355-7.176,14.711-14.353,22.066-21.528
						c-0.809-0.829-1.617-1.658-2.426-2.486C704.163,481.109,694.188,470.884,684.213,460.658z M694.551,511.109l-6.231-6.388
						l-19.899-20.397l-0.637-0.653l-3.553-3.642c-1.002-1.027-2.454-1.617-3.982-1.617c-1.631,0-3.104,0.688-4.04,1.887
						l-9.66,12.367l-6.355,8.135l-4.811-12.949l-7.218-19.432l-24.503-65.967l-1.38-3.714l30.155,12.059l32.669,13.063
						l32.669,13.064l5.417,2.166l0.176,0.07l-7.858,5.832l-12.6,9.352c-1.396,1.035-2.271,2.566-2.4,4.2
						c-0.124,1.556,0.429,3.05,1.558,4.207l14.962,15.339l14.963,15.338l0.332,0.34L694.551,511.109z"/>
				</g>
			</g>
			<polygon fill="#7FC5A3" points="592.851,389.08 638.468,511.885 660.336,483.891 694.452,518.862 707.265,506.363 
				720.076,493.863 685.96,458.892 714.486,437.721 			"/>
		</g>
		<g id="XMLID_186_">
			<polygon fill="#EFBFA5" points="730.398,498.963 730.637,506.357 717.584,511.109 710.062,505.41 710.057,496.801 
				717.319,496.396 717.547,494.502 719.925,492.973 			"/>
		</g>
	</g>
	<polygon fill="#B97262" points="334.86,422.038 342.245,412.18 357.23,409.269 365.299,417.323 351.011,432.199 	"/>
	<polygon fill="#B97262" points="454.141,407.785 461.524,397.928 476.509,395.017 484.578,403.071 470.291,417.948 	"/>
</g>
</svg>
