<?xml version="1.0" encoding="utf-8"?>
<!-- Generator: Adobe Illustrator 16.0.0, SVG Export Plug-In . SVG Version: 6.00 Build 0)  -->
<!DOCTYPE svg PUBLIC "-//W3C//DTD SVG 1.1//EN" "http://www.w3.org/Graphics/SVG/1.1/DTD/svg11.dtd">
<svg version="1.1" xmlns="http://www.w3.org/2000/svg" xmlns:xlink="http://www.w3.org/1999/xlink" x="0px" y="0px" width="500px"
	 height="397px" viewBox="0 0 500 397" enable-background="new 0 0 500 397" xml:space="preserve">
<g id="BACKGROUND">
	<rect y="-45" fill="#FCFCFC" width="500" height="500"/>
</g>
<g id="OBJECTS">
	<circle opacity="0.3" fill="#94BFF0" cx="326" cy="116" r="112"/>
	<ellipse opacity="0.2" fill="#0A5DE2" cx="355.395" cy="382.602" rx="34.354" ry="5.632"/>
	<g>
		<g>
			<polygon fill="#F07951" points="378.719,146.879 378.338,133.017 381.472,132.989 383.235,146.879 			"/>
			<path fill="#2A3799" d="M405.035,198.217l4.103,29.81c0.348,2.528,1.301,4.935,2.777,7.015l16.311,22.978l-2.411,12.657h-3.766
				c-0.725,0-1.031-0.922-0.452-1.356l1.188-0.892c0.394-0.295,0.64-0.745,0.676-1.235l0.546-7.365l-18.288-16.18
				c-2.283-2.02-4.023-4.579-5.064-7.444l-6.566-31.502L405.035,198.217z"/>
			<path fill="#F07951" d="M392.683,166.386c0.059,0.234,0.117,6.098,0.117,6.098l4.632,1.407l-0.117-7.564L392.683,166.386z"/>
			<polygon fill="#F07951" points="375.059,152.497 369.513,154.465 364.792,134.612 367.351,133.459 			"/>
			<polygon fill="#4E68C7" points="383.286,144.095 385.652,156.678 392.366,174.236 384.53,176.646 379.199,157.001 
				378.446,144.202 			"/>
			<path fill="#4B68C4" d="M397.168,200.534l-0.475,37.158l1.276,34.036h-12.091c-0.634,0-1.174-0.458-1.278-1.083l0,0
				c-0.118-0.711,0.366-1.382,1.078-1.493l7.434-1.164l-6.842-26.857c-0.463-1.818-0.737-3.68-0.818-5.556l-1.512-35.201
				L397.168,200.534z"/>
			<polygon fill="#F07951" points="426.192,255.154 424.007,259.827 421.899,257.963 424.609,252.924 			"/>
			<polygon fill="#4E68C7" points="397.478,173.58 397.788,170.286 392.362,168.852 391.354,170.674 			"/>
			<path fill="#94BFF0" d="M370.072,147.178l2.907-0.775c1.713,4.96,4.482,8.809,8.246,12.465l7.965,8.298l7.837,5.293
				c1.204,0.813,2.074,2.032,2.453,3.435l6.622,24.563l0,0c-6.49,3.851-14.317,4.746-21.509,2.458l-1.04-0.331l-0.745-29.462
				l-8.467-8.277c-3.441-4.302-5.676-11.575-6.687-16.991L370.072,147.178z"/>
			<circle fill="#F07951" cx="379.917" cy="133.286" r="3.331"/>
			<circle fill="#F07951" cx="397.133" cy="161.092" r="7.771"/>
			<polygon fill="#F07951" points="392.514,265.637 397.721,265.086 397.82,267.739 393.112,267.988 			"/>
			<rect x="352.338" y="88.044" fill="#FCFCFC" width="41.558" height="41.561"/>
			<polygon fill="#4E68C7" points="365.625,146.954 373.156,144.443 374.411,147.267 367.037,149.621 			"/>
			<polygon fill="#4E68C7" points="377.235,143.345 384.296,143.345 384.14,145.228 376.922,145.384 			"/>
			<g>
				<path fill="#0A5DE2" d="M395.765,131.474h-45.297V86.175h45.297V131.474z M352.338,129.605h41.558V88.044h-41.558V129.605
					L352.338,129.605z"/>
				<g>
					<polygon fill="#AFC6F5" points="399.863,82.116 374.208,108.167 366.597,101.455 360.749,108.091 374.623,120.327 
						406.158,88.334 					"/>
				</g>
			</g>
			<circle fill="#F07951" cx="365.795" cy="132.659" r="3.331"/>
			<path fill="#4E68C7" d="M404.821,165.462c0.705-0.67,1.424-1.358,1.864-2.225c0.557-1.092,0.62-2.373,0.486-3.591
				c-0.125-1.145-0.431-2.306-1.136-3.216c-1.373-1.77-3.944-2.24-5.364-3.972c-0.56-0.683-0.908-1.528-1.521-2.163
				c-1.122-1.162-3.104-1.363-4.436-0.45c-1.333,0.913-1.861,2.833-1.184,4.299c1.021-0.158,2.033,0.02,3.045,0.228
				c1.053,0.216,2.146,0.467,2.977,1.151c1.067,0.88,1.499,2.324,1.613,3.704c0.039,0.48,0.034,1.006-0.261,1.387
				c-0.353,0.454-0.984,0.549-1.515,0.771c-0.56,0.234-1.044,0.643-1.368,1.156c-0.132,0.208-0.239,0.46-0.163,0.694
				c0.116,0.355,0.594,0.455,0.95,0.343c0.356-0.111,0.654-0.363,1.002-0.5c0.989-0.39,2.208,0.364,2.425,1.405
				c0.216,1.042-0.483,2.151-1.475,2.538c-0.99,0.387-2.169,0.107-2.986-0.574c-0.232,0.718-0.537,1.643-0.58,2.396
				c1.072,0.022,2.146-0.037,3.209-0.177c0.925-0.122,1.884-0.324,2.605-0.915c0.381-0.311,0.674-0.714,0.963-1.112
				C404.267,166.23,404.458,165.808,404.821,165.462z"/>
		</g>
		<g>
			<path fill="#4E68C7" d="M62.23,108.564L62.23,108.564L62.23,108.564c26.79-31.456,66.383-28.629,88.433,6.313l0,0
				C123.873,146.332,84.28,143.506,62.23,108.564z"/>
			<g>
				
					<rect x="66.679" y="111.801" transform="matrix(0.9974 0.0727 -0.0727 0.9974 8.4309 -7.4622)" fill="#FFFFFF" width="80.096" height="0.574"/>
			</g>
			<g>
				
					<rect x="90.437" y="108.239" transform="matrix(0.6674 0.7447 -0.7447 0.6674 118.4377 -28.1437)" fill="#FFFFFF" width="0.574" height="20.547"/>
			</g>
			<g>
				
					<rect x="86.895" y="102.73" transform="matrix(0.7263 0.6874 -0.6874 0.7263 98.357 -40.9572)" fill="#FFFFFF" width="27.418" height="0.574"/>
			</g>
			<g>
				
					<rect x="118.516" y="105.313" transform="matrix(0.7434 0.6689 -0.6689 0.7434 104.5395 -61.2861)" fill="#FFFFFF" width="27.251" height="0.574"/>
			</g>
			<g>
				
					<rect x="117.859" y="109.886" transform="matrix(0.6714 0.7411 -0.7411 0.6714 129.5579 -47.3292)" fill="#FFFFFF" width="0.574" height="25.069"/>
			</g>
		</g>
		<g>
			<path fill="#4E68C7" d="M337.722,137.347L337.722,137.347L337.722,137.347c1.524,32.38-22.666,51.993-54.031,43.806l0,0
				C282.166,148.772,306.356,129.159,337.722,137.347z"/>
			<g>
				
					<rect x="278.928" y="158.964" transform="matrix(-0.7777 0.6286 -0.6286 -0.7777 651.7821 87.9105)" fill="#FFFFFF" width="62.841" height="0.45"/>
			</g>
			<g>
				
					<rect x="315.844" y="138.869" transform="matrix(-0.9961 -0.0879 0.0879 -0.9961 618.0004 321.0693)" fill="#FFFFFF" width="0.45" height="16.12"/>
			</g>
			<g>
				
					<rect x="307.963" y="160.876" transform="matrix(-1 -0.0054 0.0054 -1 636.5598 323.9283)" fill="#FFFFFF" width="21.512" height="0.45"/>
			</g>
			<g>
				
					<rect x="288.582" y="176.308" transform="matrix(-0.9998 0.0198 -0.0198 -0.9998 601.9895 347.0927)" fill="#FFFFFF" width="21.38" height="0.45"/>
			</g>
			<g>
				
					<rect x="298.043" y="149.561" transform="matrix(-0.9966 -0.0825 0.0825 -0.9966 582.3681 342.8551)" fill="#FFFFFF" width="0.45" height="19.668"/>
			</g>
		</g>
		<g>
			<path fill="#94BFF0" d="M109.753,55.299L109.753,55.299L109.753,55.299c30.146,8.413,40.796,36.532,23.787,62.806l0,0
				C103.395,109.691,92.744,81.572,109.753,55.299z"/>
			<g>
				
					<rect x="91.146" y="86.794" transform="matrix(0.3528 0.9357 -0.9357 0.3528 160.042 -57.3571)" fill="#FFFFFF" width="60.673" height="0.435"/>
			</g>
			<g>
				
					<rect x="111.759" y="70.271" transform="matrix(-0.3953 0.9186 -0.9186 -0.3953 227.9346 6.0478)" fill="#FFFFFF" width="0.435" height="15.564"/>
			</g>
			<g>
				
					<rect x="115.387" y="79.699" transform="matrix(-0.3189 0.9478 -0.9478 -0.3189 241.6293 -13.7968)" fill="#FFFFFF" width="20.77" height="0.435"/>
			</g>
			<g>
				
					<rect x="123.706" y="102.203" transform="matrix(-0.2949 0.9555 -0.9555 -0.2949 271.4171 4.5566)" fill="#FFFFFF" width="20.643" height="0.435"/>
			</g>
			<g>
				
					<rect x="117.794" y="88.654" transform="matrix(-0.3897 0.9209 -0.9209 -0.3897 254.3907 27.718)" fill="#FFFFFF" width="0.435" height="18.991"/>
			</g>
		</g>
		<g>
			<polygon fill="#2A3799" points="331.257,29.845 341.418,50.915 354.419,67.053 350.683,69.444 337.233,55.248 324.019,37.662 			
				"/>
			<polygon fill="#F07951" points="329.744,28.702 335.73,30.243 334.293,34.076 327.594,32.62 			"/>
			<path fill="#4B68C4" d="M293.785,23.481l-5.233,9.908l-4.354,18.52L268.842,81.84l6.224,0.835l13.999-19.345
				c1.34-1.851,2.396-3.891,3.137-6.052l7.202-21.038L293.785,23.481z"/>
			<path opacity="0.4" fill="#2A3799" d="M297.944,39.744l-5.183,12.448l-4.574-17.252l0.364-1.55l3.365-6.372l0.745-0.209
				c0,0,2.089,5.531,2.594,6.711C295.49,34.065,296.692,36.84,297.944,39.744z"/>
			<path fill="#FCFCFC" d="M334.614,52.227l16.056,23.211l-3.181,0.512l-19.484-16.729l-4.402-23.186c0,0-0.592-7.141,2.649-6.914
				c3.242,0.227,5.046,4.044,5.046,4.044L334.614,52.227z"/>
			<path fill="#FCFCFC" d="M332.285,28.852c-15.094-5.974-31.781-6.839-31.781-6.839l-6.62,16.102l36.077,2.847L332.285,28.852z"/>
			<path fill="#4B68C4" d="M300.504,22.012l-2.218,0.107c-5.985,0.289-10.536,5.487-10.031,11.458l10.87,19.2
				c0.932,1.646,1.377,3.522,1.284,5.412l-1.169,24.713l6.14-0.418l3.959-23.908c0.414-2.402,0.279-4.867-0.395-7.21L300.504,22.012
				z"/>
			
				<ellipse transform="matrix(-0.9966 0.0827 -0.0827 -0.9966 710.3424 107.8259)" fill="#F07951" cx="352.938" cy="68.622" rx="3.602" ry="3.774"/>
			
				<ellipse transform="matrix(-0.841 0.541 -0.541 -0.841 643.6252 -124.5634)" fill="#F07951" cx="340.115" cy="32.289" rx="6.991" ry="7.325"/>
			
				<ellipse transform="matrix(-0.9966 0.0826 -0.0826 -0.9966 702.6975 123.197)" fill="#F07951" cx="348.8" cy="76.137" rx="3.602" ry="3.773"/>
			<path fill="#2A3799" d="M299.536,81.992l-0.309,2.827l12.961-0.18c0,0,0.481-1.765,0-1.926c-0.471-0.157-9.723-0.965-9.723-0.965
				L299.536,81.992z"/>
			<path fill="#2A3799" d="M269.244,81.992l-0.309,2.827l12.961-0.18c0,0,0.481-1.765,0-1.926c-0.471-0.157-9.723-0.965-9.723-0.965
				L269.244,81.992z"/>
			<path fill="#4E68C7" d="M347.466,38.095c0.827-0.066,1.54-0.669,1.93-1.401s0.503-1.578,0.541-2.407
				c0.02-0.427,0.02-0.864-0.109-1.271c-0.236-0.749-0.87-1.299-1.245-1.989c-0.208-0.384-0.333-0.806-0.463-1.223
				c-0.465-1.497-1.016-2.986-1.888-4.289c-0.265-0.396-0.563-0.777-0.94-1.068c-0.532-0.411-1.188-0.62-1.83-0.821
				c-0.68-0.212-1.397-0.427-2.092-0.271c-0.396,0.089-0.756,0.295-1.108,0.498c-1.334,0.767-2.668,1.534-4.001,2.301
				c0.601,0.396,1.388,0.315,2.096,0.185c0.707-0.129,1.461-0.289,2.126-0.015c0.598,0.246,1.03,0.848,1.073,1.493
				c0.044,0.644-0.306,1.299-0.864,1.623c0.913-0.055,1.841-0.083,2.73,0.13s1.748,0.696,2.236,1.469
				c0.418,0.661,0.531,1.464,0.597,2.243c0.05,0.592,0.079,1.199-0.033,1.786c-0.101,0.526-0.38,1.004-0.474,1.529
				C345.583,37.509,346.64,38.162,347.466,38.095z"/>
		</g>
		<ellipse opacity="0.2" fill="#0A5DE2" cx="410.018" cy="372.873" rx="47.7" ry="7.819"/>
		<g>
			<rect x="111.633" y="84.762" fill="#2A3799" width="202.893" height="270.217"/>
			<rect x="120.856" y="93.984" fill="#FCFCFC" width="184.449" height="251.772"/>
			<path fill="#3E3577" d="M160.841,92.449C160.937,98.68,166.019,104,172.593,104h80.975c6.574,0,11.655-5.321,11.751-11.552
				H160.841z"/>
			<path fill="#AFC6F5" d="M262.811,77.46c-0.864-3.737-4.192-6.383-8.027-6.383h-27.009c0-8.116-6.578-14.694-14.694-14.694
				c-8.115,0-14.694,6.579-14.694,14.694h-27.009c-3.835,0-7.163,2.646-8.027,6.382l-2.209,9.552
				c-1.703,7.366,3.891,14.402,11.452,14.402h80.975c7.561,0,13.155-7.035,11.452-14.402L262.811,77.46z M214.465,78.007
				c-4.977,0.946-9.261-3.337-8.316-8.315c0.528-2.78,2.771-5.021,5.55-5.547c4.975-0.941,9.254,3.338,8.313,8.313
				C219.486,75.237,217.245,77.479,214.465,78.007z"/>
			<g>
				<g>
					<path fill="#0A5DE2" d="M163.094,156.65h-29.329v-29.331h29.329V156.65z M134.976,155.439h26.908v-26.91h-26.908V155.439
						L134.976,155.439z"/>
					<g>
						<polygon fill="#AFC6F5" points="165.748,124.691 149.136,141.559 144.208,137.213 140.421,141.509 149.405,149.432 
							169.824,128.717 						"/>
					</g>
					<g>
						<rect x="178.013" y="131.411" fill="#3E3577" width="114.382" height="1.845"/>
					</g>
					<g>
						<rect x="178.013" y="138.799" fill="#3E3577" width="114.382" height="1.844"/>
					</g>
					<g>
						<rect x="178.013" y="146.187" fill="#3E3577" width="61.649" height="1.845"/>
					</g>
				</g>
				<g>
					<path fill="#0A5DE2" d="M163.094,205.529h-29.329v-29.331h29.329V205.529z M134.976,204.318h26.908v-26.91h-26.908V204.318
						L134.976,204.318z"/>
					<g>
						<polygon fill="#AFC6F5" points="165.748,173.57 149.136,190.438 144.208,186.091 140.421,190.388 149.405,198.311 
							169.824,177.596 						"/>
					</g>
					<g>
						<rect x="178.013" y="180.29" fill="#3E3577" width="114.382" height="1.845"/>
					</g>
					<g>
						<rect x="178.013" y="187.678" fill="#3E3577" width="114.382" height="1.844"/>
					</g>
					<g>
						<rect x="178.013" y="195.065" fill="#3E3577" width="61.649" height="1.844"/>
					</g>
				</g>
				<g>
					<path fill="#0A5DE2" d="M163.094,254.407h-29.329v-29.331h29.329V254.407z M134.976,253.197h26.908v-26.91h-26.908V253.197
						L134.976,253.197z"/>
					<g>
						<rect x="178.013" y="229.169" fill="#3E3577" width="114.382" height="1.845"/>
					</g>
					<g>
						<rect x="178.013" y="236.557" fill="#3E3577" width="114.382" height="1.844"/>
					</g>
					<g>
						<rect x="178.013" y="243.944" fill="#3E3577" width="61.649" height="1.845"/>
					</g>
				</g>
				<g>
					<path fill="#0A5DE2" d="M163.094,303.286h-29.329v-29.331h29.329V303.286z M134.976,302.076h26.908v-26.91h-26.908V302.076
						L134.976,302.076z"/>
					<g>
						<rect x="178.013" y="278.048" fill="#3E3577" width="114.382" height="1.845"/>
					</g>
					<g>
						<rect x="178.013" y="285.436" fill="#3E3577" width="114.382" height="1.844"/>
					</g>
					<g>
						<rect x="178.013" y="292.823" fill="#3E3577" width="61.649" height="1.845"/>
					</g>
				</g>
			</g>
		</g>
		<g>
			<g>
				<g>
					
						<rect x="381.504" y="320.365" transform="matrix(0.164 0.9865 -0.9865 0.164 677.1938 -157.09)" fill="#2A3799" width="99.544" height="1.23"/>
				</g>
				<g>
					
						<rect x="351.536" y="320.365" transform="matrix(0.164 0.9865 -0.9865 0.164 652.1399 -127.5278)" fill="#2A3799" width="99.544" height="1.23"/>
				</g>
				<g>
					<rect x="396.625" y="292.137" fill="#2A3799" width="30.234" height="1.229"/>
				</g>
				<g>
					<rect x="398.766" y="305.248" fill="#2A3799" width="30.235" height="1.229"/>
				</g>
				<g>
					<rect x="400.906" y="318.358" fill="#2A3799" width="30.235" height="1.229"/>
				</g>
				<g>
					<rect x="403.047" y="331.469" fill="#2A3799" width="30.234" height="1.229"/>
				</g>
				<g>
					<rect x="405.188" y="344.58" fill="#2A3799" width="30.234" height="1.229"/>
				</g>
				<g>
					<rect x="407.327" y="357.69" fill="#2A3799" width="30.236" height="1.229"/>
				</g>
			</g>
			<g>
				<g>
					
						<rect x="379.185" y="271.207" transform="matrix(0.9865 0.1638 -0.1638 0.9865 57.6887 -57.861)" fill="#4E68C7" width="1.228" height="99.545"/>
				</g>
				<g>
					
						<rect x="409.152" y="271.207" transform="matrix(0.9865 0.1638 -0.1638 0.9865 58.0932 -62.7682)" fill="#4E68C7" width="1.228" height="99.544"/>
				</g>
				<g>
					<rect x="384.214" y="292.137" fill="#4E68C7" width="30.234" height="1.229"/>
				</g>
				<g>
					<rect x="382.073" y="305.248" fill="#4E68C7" width="30.235" height="1.229"/>
				</g>
				<g>
					<rect x="379.933" y="318.358" fill="#4E68C7" width="30.235" height="1.229"/>
				</g>
				<g>
					<rect x="377.793" y="331.469" fill="#4E68C7" width="30.234" height="1.229"/>
				</g>
				<g>
					<rect x="375.651" y="344.58" fill="#4E68C7" width="30.235" height="1.229"/>
				</g>
				<g>
					<rect x="373.512" y="357.69" fill="#4E68C7" width="30.234" height="1.229"/>
				</g>
			</g>
			<g>
				<rect x="385.515" y="270.354" fill="#4E68C7" width="42.249" height="3.688"/>
			</g>
		</g>
		<g>
			<rect x="83.889" y="352.904" fill="#2A3799" width="289.068" height="2"/>
		</g>
		<g>
			<g>
				<polygon fill="#F07951" points="340.554,384.559 340.606,387.56 337.574,387.72 336.937,384.369 				"/>
				<path fill="#2A3799" d="M338.988,387.627c0.096-0.303,0.004-0.655-0.227-0.873c-0.231-0.217-0.589-0.287-0.885-0.173
					c-0.316,0.122-0.526,0.415-0.752,0.668c-0.588,0.662-1.372,1.114-2.162,1.514c-0.803,0.405-1.691,0.83-2.066,1.647
					c-0.227,0.493,0.3,1.049,0.816,1.215c1.906,0.611,3.874-0.846,5.663-1.743c0.28-0.141,0.565-0.285,0.79-0.505
					c0.647-0.631,0.611-1.665,0.512-2.563c-0.012-0.108-0.195-0.136-0.301-0.11c-0.106,0.026-0.193,0.1-0.275,0.171
					C339.766,387.164,339.324,387.338,338.988,387.627z"/>
				<polygon fill="#F07951" points="346.697,384.457 346.644,387.459 349.676,387.618 350.314,384.268 				"/>
				<path fill="#2A3799" d="M348.262,387.525c-0.096-0.302-0.004-0.655,0.228-0.872c0.23-0.218,0.589-0.288,0.885-0.174
					c0.315,0.122,0.525,0.415,0.751,0.669c0.588,0.661,1.373,1.113,2.163,1.513c0.803,0.405,1.691,0.83,2.066,1.647
					c0.226,0.493-0.301,1.049-0.817,1.215c-1.906,0.612-3.873-0.845-5.663-1.743c-0.28-0.141-0.565-0.285-0.79-0.504
					c-0.646-0.632-0.611-1.665-0.512-2.563c0.012-0.108,0.195-0.136,0.302-0.109c0.105,0.025,0.192,0.099,0.274,0.17
					C347.484,387.063,347.926,387.236,348.262,387.525z"/>
				<path fill="#E0E7F1" d="M330.484,320.646l-3.694-38.003l-3.959-11.345c-1.486-4.259-2.104-8.771-1.816-13.272l1.024-16.024
					l3.695-0.527l3.001,17.797l5.444,20.733l13.194,1.056l6.791-15.782c0.597-1.388,1.104-2.813,1.518-4.265l5.415-19.012
					l3.694,0.528l-1.287,19.882c-0.122,1.883-0.582,3.729-1.357,5.448l-7.384,16.367l0.528,35.363L330.484,320.646z"/>
				<polygon fill="#4B68C4" points="355.232,346.402 351.63,384.559 346.64,384.559 346.282,348.551 344.173,321.138 
					340.572,321.291 339.563,347.307 340.554,384.559 335.259,384.559 330.35,346.761 329.782,313.428 355.204,313.759 				"/>
				<circle fill="#F07951" cx="323.574" cy="239.559" r="3.6"/>
				<circle fill="#F07951" cx="363.614" cy="240.063" r="3.688"/>
				<circle fill="#F07951" cx="341.222" cy="269.511" r="7.253"/>
				<path fill="#4B63C1" d="M348.534,264.201c-1.429-1.265-2.933-2.469-4.625-3.349c-1.693-0.88-3.597-1.427-5.502-1.31
					c-0.821,0.05-1.676,0.243-2.289,0.793c-0.38,0.339-0.641,0.792-0.834,1.263c-0.464,1.123-0.531,2.529,0.26,3.452
					c1.051-0.851,2.355-1.44,3.7-1.573c0.703-0.069,1.435-0.027,2.08,0.261c0.841,0.376,1.453,1.128,1.936,1.914
					c0.728,1.188,1.231,2.512,1.477,3.883c0.054,0.299,0.097,0.607,0.244,0.872c0.146,0.266,0.425,0.483,0.728,0.459
					c0.22-0.018,0.416-0.156,0.635-0.169c0.37-0.021,0.672,0.339,0.724,0.705c0.053,0.366-0.078,0.73-0.206,1.078
					c-0.27,0.729-0.538,1.46-0.808,2.19c1.537-1.151,2.651-2.855,3.088-4.727C349.577,268.074,349.973,265.474,348.534,264.201z"/>
			</g>
			<g>
				<rect x="323.341" y="194.525" fill="#FCFCFC" width="41.557" height="41.561"/>
				<path fill="#0A5DE2" d="M366.767,237.955H321.47v-45.299h45.297V237.955z M323.341,236.086h41.557v-41.561h-41.557V236.086
					L323.341,236.086z"/>
				<g>
					<polygon fill="#AFC6F5" points="370.866,188.597 345.211,214.647 337.599,207.936 331.751,214.572 345.626,226.808 
						377.161,194.815 					"/>
				</g>
			</g>
			<g>
				<path fill="#E0E7F1" d="M330.484,320.646l-3.694-38.003l-3.959-11.345c-1.486-4.259-2.104-8.771-1.816-13.272l1.024-16.024
					l3.695-0.527l3.001,17.797l5.444,20.733l13.194,1.056l6.791-15.782c0.597-1.388,1.104-2.813,1.518-4.265l5.415-19.012
					l3.694,0.528l-1.287,19.882c-0.122,1.883-0.582,3.729-1.357,5.448l-7.384,16.367l0.528,35.363L330.484,320.646z"/>
				<circle fill="#F07951" cx="323.574" cy="239.559" r="3.6"/>
				<circle fill="#F07951" cx="363.614" cy="240.063" r="3.688"/>
				<circle fill="#F07951" cx="341.222" cy="269.511" r="7.253"/>
				<path fill="#4B63C1" d="M348.534,264.201c-1.429-1.265-2.933-2.469-4.625-3.349c-1.693-0.88-3.597-1.427-5.502-1.31
					c-0.821,0.05-1.676,0.243-2.289,0.793c-0.38,0.339-0.641,0.792-0.834,1.263c-0.464,1.123-0.531,2.529,0.26,3.452
					c1.051-0.851,2.355-1.44,3.7-1.573c0.703-0.069,1.435-0.027,2.08,0.261c0.841,0.376,1.453,1.128,1.936,1.914
					c0.728,1.188,1.231,2.512,1.477,3.883c0.054,0.299,0.097,0.607,0.244,0.872c0.146,0.266,0.425,0.483,0.728,0.459
					c0.22-0.018,0.416-0.156,0.635-0.169c0.37-0.021,0.672,0.339,0.724,0.705c0.053,0.366-0.078,0.73-0.206,1.078
					c-0.27,0.729-0.538,1.46-0.808,2.19c1.537-1.151,2.651-2.855,3.088-4.727C349.577,268.074,349.973,265.474,348.534,264.201z"/>
				<path fill="#F07951" d="M338.439,273.834v7.655c0,1.153,0.916,2.098,2.068,2.132c1.166,0.036,2.144-0.871,2.195-2.036
					l0.285-8.273L338.439,273.834z"/>
				<path fill="#C5D6EA" d="M363.505,262.411l1.287-19.882l-0.636-0.091c-1.52,2.716-2.05,8.216-2.527,9.584
					c-1.843,5.271-4.368,10.354-5.294,15.905c-0.442,2.653-0.517,5.407-1.516,7.905c-0.922,2.303-2.574,4.237-3.67,6.463
					c-1.115,2.266-1.393,17.749-2.032,19.354c-1.29,3.244-8.598,5.877-9.354,7.969c-1.193,3.305,0.741,7.147,3.725,9.003
					c0.997,0.62,2.082,1.043,3.209,1.333l8.595-0.365l-0.528-35.363l7.384-16.367C362.923,266.14,363.383,264.294,363.505,262.411z"
					/>
				<polygon fill="#F07951" points="340.554,384.559 340.606,387.56 337.574,387.72 336.937,384.369 				"/>
				<path fill="#2A3799" d="M338.988,387.627c0.096-0.303,0.004-0.655-0.227-0.873c-0.231-0.217-0.589-0.287-0.885-0.173
					c-0.316,0.122-0.526,0.415-0.752,0.668c-0.588,0.662-1.372,1.114-2.162,1.514c-0.803,0.405-1.691,0.83-2.066,1.647
					c-0.227,0.493,0.3,1.049,0.816,1.215c1.906,0.611,3.874-0.846,5.663-1.743c0.28-0.141,0.565-0.285,0.79-0.505
					c0.647-0.631,0.611-1.665,0.512-2.563c-0.012-0.108-0.195-0.136-0.301-0.11c-0.106,0.026-0.193,0.1-0.275,0.171
					C339.766,387.164,339.324,387.338,338.988,387.627z"/>
				<polygon fill="#F07951" points="346.697,384.457 346.644,387.459 349.676,387.618 350.314,384.268 				"/>
				<path fill="#2A3799" d="M348.262,387.525c-0.096-0.302-0.004-0.655,0.228-0.872c0.23-0.218,0.589-0.288,0.885-0.174
					c0.315,0.122,0.525,0.415,0.751,0.669c0.588,0.661,1.373,1.113,2.163,1.513c0.803,0.405,1.691,0.83,2.066,1.647
					c0.226,0.493-0.301,1.049-0.817,1.215c-1.906,0.612-3.873-0.845-5.663-1.743c-0.28-0.141-0.565-0.285-0.79-0.504
					c-0.646-0.632-0.611-1.665-0.512-2.563c0.012-0.108,0.195-0.136,0.302-0.109c0.105,0.025,0.192,0.099,0.274,0.17
					C347.484,387.063,347.926,387.236,348.262,387.525z"/>
				<polygon fill="#4B68C4" points="355.232,346.402 351.63,384.559 346.64,384.559 346.282,348.551 344.173,321.138 
					340.572,321.291 339.563,347.307 340.554,384.559 335.259,384.559 330.35,346.761 329.782,313.428 355.204,313.759 				"/>
			</g>
		</g>
		<g>
			<path fill="#4E68C7" d="M62.58,246.589c-1.184-0.286-2.443,0.19-3.409,0.933c-1.407,1.08-2.374,2.924-1.912,4.637
				c0.299,1.106,1.14,1.996,2.093,2.633c0.509,0.34,1.067,0.624,1.668,0.738c1.592,0.304,3.168-0.619,4.347-1.731
				c0.925-0.875,3.124-2.847,1.775-4.097c-0.657-0.609-1.46-1.111-2.162-1.671C64.253,247.45,63.505,246.813,62.58,246.589z"/>
			<polygon fill="#E2E7F1" points="58.894,308.167 60.388,287.526 58.079,272.334 50.238,227.562 54.025,227.021 62.681,266.512 
				76.205,267.594 90.271,227.562 94.058,228.103 83.779,270.84 80.171,287.176 80.596,307.085 			"/>
			<polygon fill="#F07951" points="58.377,246.877 53.896,248.447 50.238,227.562 54.025,227.021 			"/>
			<polygon fill="#F07951" points="84.463,244.091 89.714,246.163 94.058,228.103 90.271,227.562 			"/>
			<polygon fill="#F07951" points="66.913,266.851 70.795,273.744 72.75,267.317 			"/>
			<circle fill="#F07951" cx="92.506" cy="225.397" r="3.246"/>
			<circle fill="#F07951" cx="51.758" cy="226.004" r="3.246"/>
			<circle fill="#F07951" cx="69.869" cy="256.956" r="7.068"/>
			<polygon fill="#F07951" points="67.777,267.082 67.777,262.195 71.61,262.195 71.61,267.849 69.789,269.19 			"/>
			<path fill="#4E68C7" d="M70.448,248.979c0.064-0.002,0.129-0.005,0.194-0.011c0.818-0.065,1.563-0.425,2.326-0.692
				c1.125-0.394,3.08-0.778,3.296,0.956c0.149,1.195-1.146,1.746-1.976,2.271c-0.863-0.358-1.81-0.351-2.745-0.353
				c-1.248-0.003-2.528,0.084-3.666,0.597c-1.137,0.513-2.116,1.527-2.28,2.765c-0.079,0.596,0.031,1.197,0.12,1.792
				c0.09,0.594,0.159,1.209,0.001,1.789s-0.762,2.907-1.352,3.023c-0.455,0.09-0.935-0.09-1.287-0.392s-0.593-0.714-0.779-1.14
				c-0.634-1.452-0.969-3.106-0.894-4.691c0.18-3.774,3.604-6.643,7.292-6.105C69.281,248.872,69.863,248.992,70.448,248.979z"/>
			<circle fill="#F07951" cx="66.211" cy="257.525" r="2.522"/>
			<path fill="#C5D6EA" d="M73.055,277.208c-2.6,0.968-5.533,1.577-8.115,0.563c-0.887-0.349-1.703-0.88-2.622-1.135
				c-0.844-0.234-2.163,0.203-2.659,0.925c-0.318,0.465-0.461,1.011-0.546,1.572l1.275,8.394l-0.2,2.762
				c2.705,1.368,5.909,1.479,8.969,1.532c2.025,0.036,4.051,0.071,6.076,0.106c0.929,0.016,1.91,0.02,2.717-0.44
				c0.927-0.527,1.434-1.555,1.857-2.533c0.135-0.313,0.253-0.631,0.382-0.945l-0.018-0.832l2.316-10.49
				C79.766,278.486,75.913,278.769,73.055,277.208z"/>
			<path fill="#4E68C7" d="M54.042,359.241c-0.003,0.549,0.068,1.096,0.139,1.641c0.22,1.679,0.44,3.357,0.66,5.036
				c0.091,0.696,0.196,1.428,0.622,1.985c0.426,0.559,1.287,0.851,1.848,0.428c0.232-0.175,0.377-0.439,0.508-0.698
				c1.221-2.419,1.846-5.136,1.803-7.845c-0.03-1.91-0.662-3.846-2.757-4.298C54.754,355.034,54.052,357.481,54.042,359.241z"/>
			<path fill="#F07951" d="M59.684,293.526l20.689-0.967l15.917,71.289l6.502-3.905l-8.107,10.327l-21.193-58.763l0.321,26.652
				l-14.37,19.04l-0.917,6.871l-0.202,1.547c-0.1,0.762-0.794,1.302-1.557,1.212l0,0c-0.683-0.082-1.206-0.645-1.236-1.331
				l-0.413-9.283l11.124-18.087l-7.85-29.941L59.684,293.526z"/>
			<path fill="#4E68C7" d="M60.388,287.526c0,0,5.263,2.14,10.039,1.821s9.745-2.172,9.745-2.172s2.885,13.315,5.114,22.231
				c2.229,8.915,3.184,18.361,3.184,18.361s-11.25,7.323-24.517,3.608c0,0-7.217-18.361-6.687-25.473
				C57.796,298.794,60.388,287.526,60.388,287.526z"/>
			<path fill="#4E68C7" d="M103.009,361.066c0.333-0.597,0.629-1.438,0.106-1.878c-0.315-0.267-0.794-0.224-1.172-0.06
				c-1.11,0.481-1.675,1.71-2.122,2.835c-2.452,6.172-3.827,3.846-6.114,5.092c-1.571,0.856-0.939,1.604,0.493,2.98
				C96.674,372.415,101.992,362.889,103.009,361.066z"/>
		</g>
		<ellipse opacity="0.2" fill="#0A5DE2" cx="75.042" cy="370.671" rx="32.76" ry="5.37"/>
		<g>
			<path fill="#0A5DE2" d="M93.427,225.876H48.13v-45.3h45.297V225.876z M50.001,224.006h41.557v-41.56H50.001V224.006
				L50.001,224.006z"/>
			<g>
				<polygon fill="#AFC6F5" points="97.526,176.518 71.871,202.568 64.259,195.856 58.412,202.493 72.286,214.729 103.821,182.736 
									"/>
			</g>
		</g>
	</g>
</g>
<g id="DESIGNED_BY_FREEPIK">
</g>
</svg>
