<?xml version="1.0" encoding="utf-8"?>
<!-- Generator: Adobe Illustrator 16.0.0, SVG Export Plug-In . SVG Version: 6.00 Build 0)  -->
<!DOCTYPE svg PUBLIC "-//W3C//DTD SVG 1.1//EN" "http://www.w3.org/Graphics/SVG/1.1/DTD/svg11.dtd">
<svg version="1.1" id="Layer_1" xmlns="http://www.w3.org/2000/svg" xmlns:xlink="http://www.w3.org/1999/xlink" x="0px" y="0px"
	 width="28.75px" height="5.75px" viewBox="35.625 68.625 28.75 5.75" enable-background="new 35.625 68.625 28.75 5.75"
	 xml:space="preserve">
<g transform="translate(50 50) scale(0.69 0.69) rotate(0) translate(-50 -50)">
	<title>icon/dots</title>
	<desc>Created with Sketch.</desc>
	<g>
		<g>
			<path fill="#4D4D4D" d="M33.333,85.326c-2.301,0-4.167-1.865-4.167-4.167s1.865-4.167,4.167-4.167
				c2.301,0,4.167,1.865,4.167,4.167S35.635,85.326,33.333,85.326z M50,85.326c-2.301,0-4.167-1.865-4.167-4.167
				s1.865-4.167,4.167-4.167s4.167,1.865,4.167,4.167S52.301,85.326,50,85.326z M66.667,85.326c-2.301,0-4.167-1.865-4.167-4.167
				s1.865-4.167,4.167-4.167s4.167,1.865,4.167,4.167S68.968,85.326,66.667,85.326z"/>
		</g>
	</g>
</g>
</svg>
