<?xml version="1.0" encoding="utf-8"?>
<!-- Generator: Adobe Illustrator 16.0.0, SVG Export Plug-In . SVG Version: 6.00 Build 0)  -->
<!DOCTYPE svg PUBLIC "-//W3C//DTD SVG 1.1//EN" "http://www.w3.org/Graphics/SVG/1.1/DTD/svg11.dtd">
<svg version="1.1" id="Layer_1" xmlns="http://www.w3.org/2000/svg" xmlns:xlink="http://www.w3.org/1999/xlink" x="0px" y="0px"
	 width="28.088px" height="17.989px" viewBox="6.802 18.463 28.088 17.989" enable-background="new 6.802 18.463 28.088 17.989"
	 xml:space="preserve">
<path fill="#FFFFFF" d="M286,321h90c2.762,0,5,2.238,5,5v90c0,2.762-2.238,5-5,5h-90c-2.763,0-5-2.238-5-5v-90
	C281,323.238,283.238,321,286,321z"/>
<g transform="translate(50 50) scale(0.69 0.69) rotate(0) translate(-50 -50)">
	<g transform="matrix( 1, 0, 0, 1, 0,0) ">
		<g>
			<g id="a">
				<path fill="#4D4D4D" d="M-11.596,6.136c-0.105-0.103-0.177-0.197-0.221-0.286l-0.13-0.108h-0.023l-0.284-0.221
					c-0.234,0.41-0.351,0.928-0.351,1.557v20.505c0,0.541,0.081,0.999,0.242,1.38c0.014-0.027,0.037-0.05,0.065-0.064L3.148,17.331
					L-11.575,6.136H-11.596 M25.321,30.366c0.524,0,0.977-0.079,1.359-0.239l-0.461-0.307v-0.044L10.989,18.381l-3.241,2.454
					l-3.221-2.454l-15.226,11.395h0.02l-0.481,0.351c0.365,0.16,0.811,0.239,1.337,0.239H25.321 M26.458,4.469
					c-0.32-0.116-0.702-0.174-1.138-0.174H-9.823c-0.41,0-0.769,0.051-1.074,0.153L7.748,18.756L26.458,4.469 M28.1,7.079
					c0-0.613-0.108-1.125-0.328-1.534l-0.023,0.021l-0.326,0.132c-0.014,0-0.023,0.006-0.023,0.021l0.328-0.109l-0.416,0.307
					c-0.042,0.086-0.11,0.16-0.195,0.219L12.351,17.331l14.83,11.085l0.042,0.044l0.526,0.418c0.045,0.014,0.084,0.042,0.112,0.085
					c0.16-0.379,0.241-0.838,0.241-1.379V7.079H28.1z"/>
			</g>
		</g>
	</g>
</g>
</svg>
