<?xml version="1.0" encoding="utf-8"?>
<!-- Generator: Adobe Illustrator 16.0.0, SVG Export Plug-In . SVG Version: 6.00 Build 0)  -->
<!DOCTYPE svg PUBLIC "-//W3C//DTD SVG 1.1//EN" "http://www.w3.org/Graphics/SVG/1.1/DTD/svg11.dtd">
<svg version="1.1" id="Layer_1" xmlns="http://www.w3.org/2000/svg" xmlns:xlink="http://www.w3.org/1999/xlink" x="0px" y="0px"
	 width="62.1px" height="47.609px" viewBox="18.95 25.274 62.1 47.609" enable-background="new 18.95 25.274 62.1 47.609"
	 xml:space="preserve">
<g transform="translate(50 50) scale(0.69 0.69) rotate(0) translate(-50 -50)">
	<path fill="#2B80C3" d="M75.999,50.665c0,0.829-0.671,1.5-1.5,1.5h-25c-0.828,0-1.499-0.671-1.499-1.5l0,0
		c0-0.828,0.671-1.5,1.499-1.5h25C75.328,49.165,75.999,49.837,75.999,50.665L75.999,50.665z"/>
	<path fill="#2B80C3" d="M85.001,57.665c0,0.828-0.672,1.5-1.5,1.5H49.499c-0.828,0-1.499-0.672-1.499-1.5l0,0
		c0-0.828,0.671-1.5,1.499-1.5H83.5C84.328,56.165,85.001,56.837,85.001,57.665L85.001,57.665z"/>
	<path fill="#2B80C3" d="M85.001,64.665c0,0.828-0.672,1.499-1.5,1.499H49.499c-0.828,0-1.499-0.671-1.499-1.499l0,0
		c0-0.828,0.671-1.5,1.499-1.5H83.5C84.328,63.165,85.001,63.837,85.001,64.665L85.001,64.665z"/>
	<path fill="#2B80C3" d="M85.001,71.666c0,0.828-0.672,1.499-1.5,1.499H49.499c-0.828,0-1.499-0.671-1.499-1.499l0,0
		c0-0.828,0.671-1.5,1.499-1.5H83.5C84.328,70.165,85.001,70.838,85.001,71.666L85.001,71.666z"/>
	<path fill="#2B80C3" d="M19.984,73.164v-4c0,0,0-1.998,1.001-1.998c0,0.173,0,2.482,0,5.998h8.001l-1.541-1.981l1.541-10.018
		l1.54,10.012l-1.54,1.987h7.999c0-3.516,0-5.825,0-5.998c0.999,0,0.999,1.998,0.999,1.998v4H43
		c0.001-3.309-0.003-5.939-0.014-5.998c-0.542-6.822-6.625-8.001-14-8.001c-7.377,0-13.46,1.179-14,8.001c0,0.351,0,2.879,0,5.998
		H19.984z"/>
	<circle fill="#2B80C3" cx="29" cy="49.165" r="9"/>
	<circle fill="#2B80C3" cx="53" cy="37.166" r="5"/>
	<circle fill="#2B80C3" cx="66" cy="37.166" r="5"/>
	<circle fill="#2B80C3" cx="79" cy="37.166" r="5"/>
	<path fill="#2B80C3" d="M85.001,23.164H64.999v-4H55c0-2.76-2.238-4.999-5-4.999c-2.761,0-5,2.239-5,4.999h-9.999v4H14.999
		C9.477,23.164,5,27.642,5,33.165v39.999c0,5.523,4.477,10.001,9.999,10.001h70.001c5.521,0,9.999-4.478,9.999-10.001V33.165
		C95,27.642,90.522,23.164,85.001,23.164z M50,16.164c1.657,0,3,1.345,3,3c0,1.657-1.343,3-3,3s-3-1.343-3-3
		C47,17.509,48.343,16.164,50,16.164z M93,73.164c0,4.413-3.589,8.001-7.999,8.001H14.999c-4.41,0-7.999-3.588-7.999-8.001V33.165
		c0-4.41,3.589-7.999,7.999-7.999h20.001v4h29.999v-4h20.001c4.41,0,7.999,3.589,7.999,7.999V73.164z"/>
</g>
</svg>
