<?xml version="1.0" encoding="utf-8"?>
<!-- Generator: Adobe Illustrator 16.0.0, SVG Export Plug-In . SVG Version: 6.00 Build 0)  -->
<!DOCTYPE svg PUBLIC "-//W3C//DTD SVG 1.1//EN" "http://www.w3.org/Graphics/SVG/1.1/DTD/svg11.dtd">
<svg version="1.1" id="Layer_1" xmlns="http://www.w3.org/2000/svg" xmlns:xlink="http://www.w3.org/1999/xlink" x="0px" y="0px"
	 width="19.333px" height="20.75px" viewBox="0 0 19.333 20.75" enable-background="new 0 0 19.333 20.75" xml:space="preserve">
<path fill="#557EBF" stroke="#557DBF" stroke-width="0.3" stroke-miterlimit="10" d="M19.037,3.578
	c-0.134-0.738-0.472-1.425-0.976-1.986c0-0.001-0.003-0.002-0.003-0.002c-0.256-0.292-0.686-0.692-1.255-0.945l-0.013-0.006
	c-0.553-0.265-1.145-0.398-1.76-0.398c-0.909,0-1.771,0.293-2.489,0.85l-0.006,0.004c-0.617,0.482-1.024,1.171-1.075,1.259
	c-0.002,0.003-0.004,0.007-0.007,0.013c-0.323,0.593-0.495,1.267-0.495,1.947c0,0.14,0.007,0.283,0.022,0.424
	c0.014,0.131,0.091,0.247,0.21,0.308c0.073,0.04,0.149,0.072,0.229,0.097c0.317,0.971,1.011,1.747,1.891,2.183
	c-0.379,0.194-0.717,0.449-1.01,0.761c-0.149,0.158-0.142,0.407,0.016,0.557c0.159,0.15,0.407,0.142,0.558-0.017
	c0.141-0.151,0.295-0.284,0.461-0.399c0.238,0.677,0.854,1.172,1.553,1.172h0.06c0.7,0,1.314-0.531,1.539-1.249
	c0.832,0.521,1.364,1.451,1.364,2.445v4.095l-3.585,2.325c-0.182,0.12-0.233,0.365-0.115,0.547c0.075,0.116,0.201,0.18,0.331,0.18
	c0.074,0,0.148-0.021,0.214-0.064l3.766-2.444c0.111-0.071,0.178-0.197,0.178-0.329v-4.309c0-1.395-0.777-2.646-2.009-3.271
	c1.167-0.582,1.99-1.758,2.071-3.126c0.111-0.099,0.209-0.219,0.284-0.351C19.037,3.764,19.054,3.669,19.037,3.578 M14.951,8.609
	h-0.06c-0.472,0-0.869-0.456-0.869-0.998c0-0.006,0-0.013-0.002-0.02c0.306,0.081,0.625,0.122,0.954,0.122
	c0.28,0,0.553-0.03,0.816-0.09C15.76,8.157,15.381,8.609,14.951,8.609 M14.975,6.926c-1.189,0-2.243-0.709-2.706-1.769
	c0.548-0.155,0.968-0.621,1.056-1.192c0.235,0.031,0.473,0.046,0.712,0.046c0.803,0,1.574-0.167,2.267-0.49
	c0.178,0.611,0.744,1.061,1.413,1.061c0.049,0,0.096-0.002,0.146-0.007C17.585,5.915,16.391,6.926,14.975,6.926 M17.717,3.794
	c-0.377,0-0.684-0.307-0.684-0.683v-0.22c0-0.143-0.078-0.274-0.204-0.345c-0.125-0.07-0.277-0.064-0.4,0.011
	c-0.691,0.437-1.52,0.666-2.392,0.666c-0.342,0-0.679-0.037-1.007-0.108c-0.115-0.025-0.236,0.005-0.33,0.08
	c-0.094,0.074-0.146,0.187-0.146,0.306V3.74c0,0.377-0.309,0.685-0.685,0.685c-0.025,0-0.052-0.002-0.075-0.005
	c-0.007-0.001-0.013-0.001-0.018-0.003c-0.01,0-0.019-0.002-0.027-0.004c0-0.033-0.001-0.067-0.001-0.1
	c0-0.548,0.136-1.089,0.396-1.566c0.002-0.003,0.002-0.005,0.005-0.006c0.003-0.006,0.358-0.624,0.874-1.025
	c0.001-0.001,0.003-0.001,0.003-0.001c0.578-0.449,1.271-0.686,2.006-0.686c0.496,0,0.974,0.107,1.417,0.321
	c0.008,0.004,0.021,0.008,0.035,0.016c0.438,0.194,0.774,0.51,0.981,0.741c0.002,0.003,0.005,0.006,0.006,0.008
	c0.372,0.414,0.634,0.911,0.76,1.447C18.1,3.707,17.913,3.794,17.717,3.794 M11.617,13.88c0.894-0.526,1.495-1.499,1.495-2.608
	c0-0.498-0.121-0.97-0.337-1.384c-0.008-0.018-0.016-0.035-0.025-0.05c-0.512-0.944-1.512-1.586-2.658-1.586
	c-1.147,0-2.148,0.642-2.659,1.586C7.421,9.853,7.414,9.87,7.406,9.885c-0.216,0.416-0.338,0.889-0.338,1.386
	c0,1.109,0.601,2.082,1.494,2.605c-1.105,0.572-1.807,1.706-1.807,2.963v1.437c0,0.135,0.069,0.262,0.183,0.332l2.94,1.871
	c0.065,0.042,0.138,0.063,0.212,0.063c0.073,0,0.145-0.021,0.21-0.06l2.946-1.864c0.114-0.07,0.184-0.197,0.184-0.334l-0.008-1.446
	C13.417,15.578,12.718,14.449,11.617,13.88 M10.091,9.039c0.685,0,1.3,0.311,1.709,0.8c-0.531,0.151-1.114,0.231-1.709,0.231
	c-0.598,0-1.181-0.08-1.711-0.231C8.79,9.35,9.403,9.039,10.091,9.039 M7.856,11.271c0-0.255,0.043-0.501,0.124-0.73
	c0.65,0.208,1.372,0.317,2.111,0.317c0.737,0,1.458-0.109,2.108-0.317c0.081,0.229,0.125,0.476,0.125,0.73
	c0,1.233-1.002,2.233-2.233,2.233C8.858,13.504,7.856,12.504,7.856,11.271 M10.79,14.213c-0.05,0.372-0.377,0.623-0.672,0.623
	h-0.049c-0.314,0-0.662-0.265-0.706-0.631c0.233,0.058,0.477,0.089,0.728,0.089C10.331,14.294,10.565,14.265,10.79,14.213
	 M10.091,19.681L7.545,18.06v-1.22c0-0.867,0.438-1.658,1.146-2.125c0.247,0.563,0.828,0.911,1.378,0.911h0.049
	c0.594,0,1.12-0.387,1.347-0.926c0.719,0.465,1.166,1.26,1.169,2.143l0.007,1.229L10.091,19.681z M7.259,9.101
	c0.115-0.185,0.059-0.428-0.125-0.542C7.013,8.484,6.888,8.417,6.761,8.356c0.486-0.249,0.917-0.606,1.26-1.052
	c0.141,0.05,0.292,0.075,0.449,0.075c0.757,0,1.374-0.614,1.374-1.373V5.026c0-1.245-0.477-2.425-1.34-3.321
	c-0.86-0.893-2.017-1.413-3.255-1.461H5.248C5.141,0.24,5.041,0.239,4.942,0.242C3.709,0.271,2.546,0.77,1.668,1.646
	c-0.901,0.898-1.397,2.099-1.397,3.38v0.979c0,0.759,0.616,1.373,1.374,1.373c0.157,0,0.308-0.025,0.449-0.075
	c0.377,0.492,0.862,0.874,1.41,1.124c-1.215,0.64-1.968,1.879-1.968,3.25v3.225c0,0.132,0.068,0.258,0.18,0.331l3.576,2.319
	c0.066,0.042,0.141,0.063,0.214,0.063c0.129,0,0.255-0.063,0.331-0.178c0.119-0.184,0.066-0.427-0.116-0.545l-3.396-2.205v-3.011
	c0-0.912,0.425-1.75,1.136-2.291c0.244,0.708,0.871,1.241,1.564,1.241h0.058c0.753,0,1.353-0.682,1.565-1.442
	C6.67,9.2,6.693,9.213,6.716,9.228C6.902,9.342,7.145,9.286,7.259,9.101 M2.619,3.594C2.365,4.027,2.231,4.521,2.231,5.026v0.979
	c0,0.187-0.088,0.354-0.226,0.461C1.994,6.475,1.982,6.482,1.972,6.491c-0.094,0.063-0.206,0.1-0.327,0.1
	c-0.323,0-0.586-0.262-0.586-0.586V5.026c0-2.188,1.714-3.944,3.902-3.997c0.082-0.002,0.165-0.001,0.256,0.003
	c2.153,0.084,3.838,1.838,3.838,3.994v0.979c0,0.324-0.264,0.586-0.585,0.586c-0.122,0-0.234-0.037-0.328-0.1
	c-0.01-0.009-0.021-0.017-0.033-0.024C7.972,6.359,7.884,6.192,7.884,6.005V5.026c0-1.391-1.036-2.593-2.411-2.797
	C5.365,2.213,5.256,2.244,5.17,2.311C5.084,2.38,5.032,2.48,5.023,2.589C5.001,2.864,4.951,3.136,4.875,3.4H2.96
	C2.82,3.4,2.691,3.473,2.619,3.594 M5.082,9.84H5.024c-0.446,0-0.884-0.541-0.884-1.092c0-0.035-0.004-0.068-0.013-0.1
	c0.299,0.076,0.611,0.115,0.93,0.115c0.301,0,0.597-0.035,0.881-0.104C5.912,9.232,5.478,9.84,5.082,9.84 M5.058,7.975
	c-0.919,0-1.767-0.418-2.324-1.133C2.912,6.61,3.019,6.32,3.019,6.005V5.026c0-0.29,0.061-0.577,0.181-0.839h1.959
	c0.166,0,0.313-0.103,0.37-0.257c0.099-0.267,0.173-0.542,0.223-0.823C6.54,3.396,7.096,4.161,7.096,5.026v0.979
	c0,0.315,0.106,0.605,0.286,0.836C6.824,7.557,5.976,7.975,5.058,7.975"/>
</svg>
