<?xml version="1.0" encoding="utf-8"?>
<!-- Generator: Adobe Illustrator 16.0.0, SVG Export Plug-In . SVG Version: 6.00 Build 0)  -->
<!DOCTYPE svg PUBLIC "-//W3C//DTD SVG 1.1//EN" "http://www.w3.org/Graphics/SVG/1.1/DTD/svg11.dtd">
<svg version="1.1" id="Layer_1" xmlns="http://www.w3.org/2000/svg" xmlns:xlink="http://www.w3.org/1999/xlink" x="0px" y="0px"
	 width="57.851px" height="57.85px" viewBox="0 0 57.851 57.85" enable-background="new 0 0 57.851 57.85" xml:space="preserve">
<path fill="#E7E7E7" d="M-37.038,31.251"/>
<path fill="#BDBEC0" d="M-46.089,31.251 M-84.392,31.251"/>
<path fill="#E7E7E7" d="M57.851,28.925c0,15.976-12.949,28.925-28.925,28.925S0,44.9,0,28.925C0,12.95,12.95,0,28.926,0
	S57.851,12.95,57.851,28.925"/>
<path fill="#BDBEC0" d="M48.8,28.925c0-10.958-8.916-19.874-19.875-19.874c-10.957,0-19.873,8.916-19.873,19.874
	c0,5.788,2.488,11.005,6.449,14.641l-0.018,0.017l0.645,0.544c0.041,0.035,0.088,0.063,0.129,0.099
	c0.342,0.284,0.697,0.554,1.059,0.814c0.117,0.085,0.234,0.169,0.354,0.252c0.387,0.266,0.782,0.518,1.188,0.757
	c0.088,0.052,0.177,0.103,0.265,0.153c0.444,0.253,0.896,0.489,1.359,0.709c0.034,0.016,0.069,0.029,0.103,0.046
	c1.51,0.702,3.121,1.217,4.807,1.521c0.045,0.008,0.089,0.017,0.133,0.024c0.523,0.09,1.053,0.163,1.588,0.211
	c0.064,0.006,0.13,0.009,0.195,0.015c0.535,0.044,1.074,0.073,1.619,0.073c0.541,0,1.076-0.029,1.606-0.071
	c0.067-0.006,0.134-0.01,0.202-0.015c0.531-0.049,1.055-0.119,1.574-0.208c0.043-0.008,0.09-0.016,0.135-0.024
	c1.66-0.298,3.248-0.802,4.738-1.485c0.055-0.025,0.111-0.049,0.166-0.075c0.445-0.209,0.882-0.437,1.309-0.676
	c0.105-0.061,0.212-0.121,0.316-0.184c0.39-0.229,0.771-0.468,1.144-0.723c0.133-0.091,0.265-0.187,0.396-0.282
	c0.318-0.229,0.629-0.464,0.933-0.711c0.067-0.054,0.14-0.101,0.205-0.157l0.661-0.552l-0.02-0.016
	C46.287,39.983,48.8,34.743,48.8,28.925 M10.496,28.925c0-10.162,8.267-18.429,18.429-18.429s18.43,8.267,18.43,18.429
	c0,5.476-2.403,10.399-6.207,13.777c-0.213-0.147-0.428-0.278-0.646-0.389l-6.119-3.059c-0.549-0.275-0.89-0.827-0.89-1.441v-2.137
	c0.142-0.175,0.291-0.373,0.446-0.59c0.792-1.119,1.427-2.363,1.89-3.703c0.916-0.435,1.507-1.347,1.507-2.377v-2.562
	c0-0.627-0.229-1.234-0.641-1.713v-3.371c0.038-0.377,0.171-2.492-1.361-4.238c-1.332-1.521-3.488-2.291-6.408-2.291
	s-5.076,0.77-6.408,2.29c-1.531,1.746-1.398,3.862-1.36,4.237v3.373c-0.411,0.478-0.642,1.086-0.642,1.713v2.562
	c0,0.795,0.357,1.538,0.969,2.039c0.586,2.293,1.79,4.029,2.236,4.617v2.091c0,0.59-0.322,1.132-0.84,1.415l-5.716,3.118
	c-0.182,0.099-0.362,0.214-0.543,0.344C12.864,39.254,10.496,34.361,10.496,28.925 M39.736,43.836
	c-0.253,0.184-0.511,0.361-0.771,0.531c-0.121,0.078-0.24,0.155-0.361,0.231c-0.342,0.211-0.688,0.412-1.043,0.601
	c-0.078,0.041-0.156,0.08-0.235,0.121c-0.813,0.417-1.655,0.774-2.521,1.065c-0.03,0.011-0.062,0.021-0.092,0.032
	c-0.453,0.15-0.912,0.284-1.377,0.397c0,0-0.002,0.001-0.004,0.001c-0.468,0.116-0.943,0.213-1.42,0.291
	c-0.013,0.002-0.025,0.006-0.039,0.008c-0.447,0.072-0.9,0.126-1.354,0.165c-0.08,0.008-0.16,0.013-0.241,0.018
	c-0.449,0.034-0.9,0.056-1.354,0.056c-0.457,0-0.914-0.021-1.369-0.056c-0.078-0.006-0.157-0.011-0.235-0.018
	c-0.458-0.041-0.914-0.096-1.366-0.169c-0.02-0.004-0.041-0.008-0.061-0.012c-0.955-0.159-1.896-0.394-2.812-0.701
	c-0.028-0.01-0.057-0.02-0.085-0.028c-0.455-0.155-0.904-0.326-1.346-0.516c-0.003-0.002-0.007-0.003-0.01-0.005
	c-0.418-0.18-0.827-0.379-1.232-0.59c-0.052-0.027-0.105-0.053-0.158-0.081c-0.369-0.198-0.73-0.411-1.087-0.633
	c-0.104-0.067-0.21-0.134-0.313-0.202c-0.328-0.215-0.652-0.438-0.967-0.674c-0.033-0.025-0.064-0.051-0.097-0.075
	c0.022-0.013,0.046-0.026,0.069-0.039l5.714-3.117c0.983-0.536,1.594-1.564,1.594-2.685l-0.001-2.604l-0.166-0.2
	c-0.016-0.019-1.578-1.918-2.169-4.492l-0.065-0.286l-0.246-0.16c-0.348-0.225-0.557-0.601-0.557-1.006v-2.563
	c0-0.336,0.144-0.648,0.403-0.884l0.237-0.215v-4.026l-0.006-0.094c-0.002-0.018-0.215-1.756,1.01-3.15
	c1.045-1.191,2.836-1.796,5.32-1.796c2.477,0,4.262,0.6,5.31,1.781c1.223,1.381,1.022,3.152,1.021,3.166l-0.006,4.12l0.238,0.216
	c0.26,0.234,0.402,0.547,0.402,0.884v2.562c0,0.516-0.351,0.983-0.854,1.139l-0.359,0.11l-0.115,0.358
	c-0.426,1.324-1.033,2.548-1.803,3.637c-0.19,0.267-0.375,0.504-0.533,0.686l-0.18,0.204v2.673c0,1.165,0.648,2.214,1.69,2.734
	l6.119,3.059c0.039,0.02,0.077,0.04,0.116,0.061C39.895,43.725,39.814,43.78,39.736,43.836"/>
</svg>
