<?xml version="1.0" encoding="utf-8"?>
<!-- Generator: Adobe Illustrator 16.0.0, SVG Export Plug-In . SVG Version: 6.00 Build 0)  -->
<!DOCTYPE svg PUBLIC "-//W3C//DTD SVG 1.1//EN" "http://www.w3.org/Graphics/SVG/1.1/DTD/svg11.dtd">
<svg version="1.1" id="Layer_1" xmlns="http://www.w3.org/2000/svg" xmlns:xlink="http://www.w3.org/1999/xlink" x="0px" y="0px"
	 width="50px" height="50px" viewBox="0 0 50 50" enable-background="new 0 0 50 50" xml:space="preserve">
<g id="XMLID_1419_">
	<path id="XMLID_1421_" fill="#3E5C9A" d="M24.947,49.895L24.947,49.895C11.169,49.895,0,38.726,0,24.947l0,0
		C0,11.168,11.169,0,24.947,0l0,0c13.778,0,24.947,11.169,24.947,24.947l0,0C49.894,38.726,38.725,49.895,24.947,49.895z"/>
	<path id="XMLID_1420_" fill="#FFFFFF" d="M21.146,40.026h6.073V24.819h4.235l0.453-5.092h-4.688c0,0,0-1.9,0-2.9
		c0-1.2,0.24-1.675,1.402-1.675c0.933,0,3.286,0,3.286,0V9.868c0,0-3.466,0-4.205,0c-4.519,0-6.557,1.99-6.557,5.799
		c0,3.318,0,4.06,0,4.06h-3.159v5.156h3.159V40.026z"/>
</g>
</svg>
