<?xml version="1.0" encoding="utf-8"?>
<!-- Generator: Adobe Illustrator 16.0.0, SVG Export Plug-In . SVG Version: 6.00 Build 0)  -->
<!DOCTYPE svg PUBLIC "-//W3C//DTD SVG 1.1//EN" "http://www.w3.org/Graphics/SVG/1.1/DTD/svg11.dtd">
<svg version="1.1" id="Layer_1" xmlns="http://www.w3.org/2000/svg" xmlns:xlink="http://www.w3.org/1999/xlink" x="0px" y="0px"
	 width="100px" height="71.333px" viewBox="0 2.167 100 71.333" enable-background="new 0 2.167 100 71.333" xml:space="preserve">
<g transform="translate(50 50) scale(0.69 0.69) rotate(0) translate(-50 -50)">
	<title>Artboard 2</title>
	<polygon fill="#4D4D4D" points="-10.582,23.73 -10.582,44.685 -10.582,55.164 -2.148,55.164 -2.148,13.251 -10.582,13.251 	"/>
	<rect x="-22.464" y="26.349" fill="#4D4D4D" width="9.837" height="15.718"/>
	<polygon fill="#4D4D4D" points="102.632,55.164 111.066,55.164 111.066,44.685 111.066,23.73 111.066,13.251 102.632,13.251 	"/>
	<polygon fill="#4D4D4D" points="-0.103,10.632 -0.103,57.783 -0.103,63.024 8.33,63.024 8.33,42.067 8.33,28.969 8.33,5.393 
		-0.103,5.393 	"/>
	<rect x="113.111" y="26.349" fill="#4D4D4D" width="9.352" height="15.718"/>
	<polygon fill="#4D4D4D" points="92.155,28.969 92.155,42.067 92.155,63.024 100.587,63.024 100.587,57.783 100.587,10.632 
		100.587,5.393 92.155,5.393 	"/>
	<rect x="13.569" y="28.394" fill="#4D4D4D" width="73.346" height="14.246"/>
</g>
</svg>
