<?xml version="1.0" encoding="utf-8"?>
<!-- Generator: Adobe Illustrator 16.0.0, SVG Export Plug-In . SVG Version: 6.00 Build 0)  -->
<!DOCTYPE svg PUBLIC "-//W3C//DTD SVG 1.1//EN" "http://www.w3.org/Graphics/SVG/1.1/DTD/svg11.dtd">
<svg version="1.1" id="Layer_1" xmlns="http://www.w3.org/2000/svg" xmlns:xlink="http://www.w3.org/1999/xlink" x="0px" y="0px"
	 width="698.965px" height="457.477px" viewBox="0 0 698.965 457.477" enable-background="new 0 0 698.965 457.477"
	 xml:space="preserve">
<g>
	<g>
		<g>
			<path fill="#BC9371" d="M22.856,272.736c0.773-0.627,1.973-0.908,2.763-1.538c0.388-0.31,1.283-0.834,1.323-1.18
				c0.067-0.562,0.103-1.314-0.04-2.53c1.759,0.208,3.279-0.062,4.888-0.747c-0.004,0.477-0.043,1.914-0.04,2.371
				c0.23,1.064,0.372,1.223,0.494,2.284c0.142,1.23,0.35,2.769-0.582,3.76c-0.692,0.736-1.807,0.807-2.817,0.8
				c-1.126-0.007-4.184,0.16-4.544,0.125C23.206,275.975,19.563,275.41,22.856,272.736z"/>
			<path fill="#230E04" d="M32.163,274.331c-0.109,0.3-0.27,0.58-0.501,0.826c-0.692,0.736-1.807,0.807-2.817,0.8
				c-1.126-0.007-5.772,0.126-6.134,0.091c-0.768-0.075-1.194-0.342-1.199-1.434C25.531,273.07,27.349,275.327,32.163,274.331z"/>
			<path fill="#BC9371" d="M40.926,160.192c0,0-3.042,36.628-4.347,46.379c-1.308,9.751-4.787,60.766-4.787,60.766l-2.388,1.373
				l-2.487-0.325c0,0-2.235-40.725-3.133-48.578c-0.896-7.853-3.431-49.676-2.2-62.615
				C22.329,149.342,34.987,133.918,40.926,160.192z"/>
			<path fill="#B28767" d="M23.622,218.215c-0.926-9.852-2.818-42.731-2.259-57.577l13.474,3.666
				C34.74,171.038,25.689,205.876,23.622,218.215z"/>
			<path fill="#BC9371" d="M54.955,270.271c0.438,0.118,0.87,0.207,1.264,0.27c1.619,0.256,3.422-0.036,4.787-0.957
				c0.031,0.219,0.049,0.349,0.049,0.349s5.949,0.57,12.028,2.531c6.079,1.962,6.408,4.087-1.864,3.616
				c-14.899,0.329-15.935,0.376-15.98-3.318C55.229,272.086,55.088,271.195,54.955,270.271z"/>
			<path fill="#230E04" d="M75.449,274.586c0.564,0,0.996-0.203,1.3-0.515c1.934,1.331,0.451,2.348-5.53,2.008
				c-7.396,0.163-12.496,0.335-14.635-0.063c-1.495-0.279-0.97-0.877-1.203-1.783C62.068,274.384,68.75,274.582,75.449,274.586z"/>
			<path fill="#BC9371" d="M56.19,162.068c0,0,1.788,37.819,1.699,47.656c-0.09,9.836,2.959,59.046,2.959,59.046l-3.063,1.426
				l-2.998-0.791c0,0-5.806-35.62-7.667-43.3c-1.861-7.682-8.612-49.063-9.724-56.87C36.284,161.43,47.045,136.73,56.19,162.068z"/>
			<path fill="#A7C4E4" d="M60.844,268.469c0.099,0.66,0.175,1.203,0.2,1.389c-1.287,2.071-3.932,1.487-6.071,0.54
				c-0.034-0.234-0.202-1.145-0.237-1.381C56.844,269.452,59.07,269.827,60.844,268.469z"/>
			<path fill="#A7C4E4" d="M31.792,267.337c0.001,0.123-0.044,1.37-0.042,1.493c0,0-2.18,1.655-4.031,1.159
				c-0.262-0.07-0.519-0.164-0.776-0.252c-0.038-0.355-0.007-1.411-0.04-1.785C28.558,268.452,30.29,268.046,31.792,267.337z"/>
		</g>
		<path fill="#60C0FD" d="M85.351,146.696c-0.012-0.149-0.144-0.256-0.292-0.234c-5.745,0.847-17.378,1.835-20.071-2.464
			c-1.28-2.041-3.048-7.339-3.704-12.493c-0.239-2.004-0.375-4.027-0.366-4.489c0.109-5.279-3.495-13.442-6.935-13.842
			c-3.074-0.357-4.859,5.648-3.475,12.517c0.388,1.931,1.541,4.936,2.573,8.057c0.008,0.033,0.017,0.066,0.024,0.1
			c0.991,5.35,2.82,11.091,5.198,14.585c0.58,0.852,1.279,1.622,2.082,2.27c1.697,1.366,3.792,2.11,5.935,2.404
			c2.222,0.305,4.491,0.164,6.699-0.184c2.101-0.332,7.756-1.404,9.786-2.032c0.594-0.183,2.01-0.535,2.755-0.764
			c0.122-0.037,0.196-0.159,0.178-0.285C85.579,148.793,85.437,147.742,85.351,146.696z"/>
		<path fill="#45446C" d="M23.994,134.525c3.066-22.111,1.119-24.208,5.801-26.762c7.377-3.262,13.974-2.663,19.194-1.086
			c2.228,0.905,3.694,2.033,4.71,2.993c4.548,4.296,5.264,9.843,1.919,19.697c-3.081,9.084,0.572,32.701,0.572,32.701
			c-11.065,4.823-35.022,2.422-35.022,2.422S21.701,151.065,23.994,134.525z"/>
		<path fill="#3B3B60" d="M33.869,159.467c-1.322-5.496-2.622-10.992-3.403-16.598c-0.829-5.95-1.209-11.949-1.225-17.956
			c-0.012-4.044-0.398-8.29-0.08-12.398c-1.874,3.181-3.186,9.106-5.167,22.009c-2.536,16.525-2.826,29.965-2.826,29.965
			s6.428,0.643,14.162,0.594C34.8,163.224,34.321,161.348,33.869,159.467z"/>
		<path fill="#FFAA81" d="M52.156,86.829c0,0,0.054,1.984,0.742,4.954c0.689,2.972,2.41,10.367-2.68,10.989
			c-5.091,0.623-7.543,0.319-8.768-0.89c-1.227-1.208-6.094-8.738-4.161-12.89C39.222,84.841,47.783,77.925,52.156,86.829z"/>
		<path fill="#915151" d="M52.506,83.414c-0.724-0.635-1.859-1.059-2.76-1.382c-0.659-0.237-1.332-0.403-2.011-0.497
			c-2.744-0.555-5.909-0.026-8.119,1.406c-0.692,0.449-1.319,1.055-1.466,1.697c-0.419,0.313-0.815,0.659-1.169,1.06
			c-1.725,1.957-2.17,4.788-1.766,7.365c0.597,3.804,2.948,7.296,6.249,9.279c0.229,0.137,0.479,0.271,0.738,0.308
			c0.451-0.203,0.818-0.497,0.816-1.066c-0.001-0.224-0.041-0.452-0.099-0.68c-0.33-0.137-0.604-0.415-0.709-0.869
			c-0.183-0.787-0.896-1.522-1.121-2.369c-0.233-0.874-0.028-2.116,0.839-2.591c0.376-0.206,0.808-0.295,1.209-0.11
			c0.452,0.209,0.516,0.726,0.89,0.962c0.27,0.17,0.787,0.006,0.905-0.267c0.131-0.308-0.127-0.961-0.181-1.281
			c-0.331-1.966-1.459-4.614,0.394-6.17c0.903-0.76,2.251-1.095,3.386-1.306c0.673-0.124,1.191,0.146,1.855,0.16
			c0.824,0.017,2.378-0.11,2.841-0.943C53.689,85.294,53.15,83.981,52.506,83.414z"/>
		<path fill="#FFAA81" d="M39.182,105.598c0.337-0.883,0.471-1.833,0.72-2.723c0.193-0.692,0.252-1.486,0.613-2.136
			c0.463-0.835,1.415-0.904,2.271-1.094c1.645-0.365,4.102-0.386,4.284,1.4c0.144,1.414-1.355,3.596-0.352,4.875v3.236
			c-2.363,1.008-4.988,1.499-7.537,1.4V105.598z"/>
		<path fill="#45446C" d="M36.662,108.729c0.175-0.35,0.547-0.595,0.835-0.886c0.09-0.091,0.168-0.188,0.24-0.289
			c0.524-0.502,0.88-1.138,1.104-1.795c0.003-0.005,0.008-0.008,0.01-0.013c0.286-0.538,0.902-2.287,1.05-2.871
			c2.739,1.887,6.068,1.165,6.707,0.877c-0.102,0.633,0.563,5.522,0.563,5.522c-2.548,1.023-5.345,1.511-8.062,1.378
			c-0.659-0.032-1.342-0.109-1.869-0.429C36.712,109.903,36.39,109.272,36.662,108.729z"/>
		<path fill="#915151" d="M55.185,79.861c-0.206-0.39-0.585-0.798-1.012-0.688c-0.596,0.153-0.527,1.012-0.796,1.565
			c-0.444,0.915-1.753,0.854-2.744,0.624c-1.666-0.387-3.32-0.858-5.022-1.031c-2.531-0.259-6.377,0.316-7.354,3.144
			c-0.157,0.456-0.199,0.842-0.151,1.171c-2.076,0.916-3.886,2.483-4.761,4.561c-0.316,0.749-0.508,1.563-0.446,2.373
			c0.09,1.195,0.709,2.277,1.315,3.312c0.953,1.634,1.93,3.293,3.32,4.577c0.137,0.125,0.287,0.252,0.471,0.273
			c0.579,0.067,0.7-0.776,0.722-1.358c0.055-1.497,1.034-2.813,2.173-3.787c1.139-0.973,2.467-1.708,3.595-2.695
			c1.153-1.011,3.006-3.386,3.521-5.452c1.449,0.191,2.928,0.466,4.325,0.069c1.33-0.377,2.468-1.379,3.011-2.649
			C55.894,82.597,55.831,81.083,55.185,79.861z"/>
		<path fill="#FFAA81" d="M100.28,148.649c-0.111-0.232-0.418-0.412-0.754-0.554c-0.002-0.016-0.004-0.032-0.007-0.047
			c0.06-0.011,0.121-0.024,0.177-0.052c0.174-0.085,0.288-0.281,0.196-0.47c-0.156-0.329-0.701-0.55-1.171-0.709
			c-0.26-0.157-0.543-0.241-0.814-0.313l-2.047-0.542c-0.077-0.023-0.157-0.044-0.237-0.063l-1.128-0.298
			c0.137-0.288,1.783-0.846,0.704-2.163c-2.155,1.754-6.524,1.199-8.18,2.371c-0.018-0.029-0.474,0.587-1.881,0.702
			c-1.031,0.084-0.523,2.473-0.08,3.207c0.107,0.177,0.208,0.354,0.415,0.343c2.148-0.104,3.265,0.991,3.813,1.106
			c1.65,0.344,4.836,0.45,7.4,0.06c0.735-0.034,1.466-0.148,2.158-0.392c0.145-0.05,0.291-0.108,0.398-0.217
			c0.136-0.138,0.179-0.359,0.033-0.508c-0.019-0.019-0.045-0.031-0.066-0.047c0.041-0.001,0.084-0.001,0.126-0.003
			c0.15-0.01,0.309-0.027,0.44-0.102c0.169-0.095,0.271-0.297,0.17-0.48c-0.061-0.108-0.167-0.202-0.297-0.284
			c0.148-0.001,0.301-0.01,0.435-0.076C100.259,149.033,100.372,148.837,100.28,148.649z"/>
		<path fill="#60C0FD" d="M33.929,109.154c1.981,3.429-0.837,10.979-5.535,14.565c-0.411,0.313-2.091,1.852-3.685,3.468c0,0,0,0,0,0
			c-4.069,4.201-7.513,9.519-8.434,12.115c-3.059,8.62,12.186,20.71,12.186,20.71s0.711,0.68,1.462,1.802
			c0.96,1.433,0.948,3.414-0.202,2.683c-1.622-1.029-3.729-2.393-5.687-3.756c-4.164-2.901-19.947-12.43-16.17-24.46
			c1.453-4.631,5.263-10.336,9.291-14.988c2.047-3.14,3.911-6.317,5.346-8.031C27.58,107.2,32.161,106.092,33.929,109.154z"/>
		<path fill="#FFAA81" d="M28.155,159.73c0,0,1.28,0.773,3.359,0.998c2.081,0.225,4.087,0.892,4.498,1.048
			c0,0-0.109,0.618-0.487,0.788c-0.379,0.17-2.092,0.054-2.092,0.054s0.025,0.185,0.115,0.46c2.611,1.813,3.515,2.853,3.81,3.408
			c0.33,0.252,0.608,0.519,0.715,0.729c0.099,0.194,0.04,0.482-0.166,0.548c0.155,0.178,0.267,0.394,0.324,0.624
			c0.021,0.088,0.034,0.183,0.001,0.267c-0.086,0.22-0.543,0.18-0.775,0.141c0.101,0.177,0.113,0.452-0.074,0.531
			c-0.188,0.079-0.402,0.046-0.604,0.014c0.145,0.166,0.048,0.409-0.325,0.402c-0.485-0.008-1.291-0.227-1.64-0.387
			c-0.187-0.086-0.577-0.176-0.907-0.309c-0.756-0.211-1.519-0.528-2.086-0.858c-1.233-0.72-3.262-1.992-3.6-3.25
			c-0.339-1.258-1.845-2.583-1.845-2.583L28.155,159.73z"/>
	</g>
	<g>
		<polygon fill="#D1E7F4" points="110.085,83.766 100.402,66.333 90.67,83.733 		"/>
		<polygon fill="#092140" points="103.152,70.489 100.402,66.333 97.639,70.479 		"/>
		<path fill="#292951" d="M94.56,244.483l11.471,0.02c2.185,0.004,3.968,1.794,3.966,3.978l-0.041,23.815
			c-0.004,2.185-1.793,3.969-3.979,3.965l-11.472-0.02c-2.184-0.004-3.968-1.794-3.964-3.978l0.041-23.815
			C90.584,246.263,92.375,244.479,94.56,244.483z"/>
		<polygon fill="#F7E2A6" points="103.613,83.755 103.522,249.498 109.993,249.508 110.085,83.766 		"/>
		<polygon fill="#FFD22E" points="97.142,83.744 97.052,249.487 103.522,249.498 103.613,83.755 		"/>
		<polygon fill="#F0A32F" points="90.67,83.733 90.579,249.476 97.052,249.487 97.142,83.744 		"/>
		
			<rect x="90.581" y="247.049" transform="matrix(-1 -0.0017 0.0017 -1 200.1429 498.1859)" fill="#F2F2F2" width="19.414" height="3.915"/>
	</g>
</g>
<g>
	<g>
		<g>
			<g>
				<path fill="#92BF8C" d="M371.127,128.458l3.196-2.848l1.528-1.36l5.114-4.553c2.236,0.016,4.325-0.355,6.309-0.998
					c0.714-0.234,1.419-0.502,2.107-0.802c4.701-2.036,8.841-5.481,13.016-8.619c1.116-0.837,2.236-1.655,3.37-2.414
					c0.017-0.012,0.037-0.026,0.055-0.038c6.951-4.658,15.481-9.329,24.146-7.49c2.855,0.606,5.5,1.916,7.819,3.671
					c0.146,0.109,0.289,0.22,0.43,0.334c0.271,0.215,0.54,0.435,0.804,0.659c4.072,3.462,7.257,7.982,7.36,12.954
					c0.017,0.625-0.018,1.261-0.111,1.899c-0.192,1.407-0.645,2.836-1.402,4.283c-0.938,1.793-2.144,3.409-3.532,4.871
					c-0.433,0.461-0.887,0.904-1.354,1.333c-4.132,3.785-9.482,6.483-14.38,8.662c-1.277,0.567-2.576,1.07-3.903,1.504
					c-0.625,0.212-1.263,0.406-1.901,0.584c-2.328,0.655-4.717,1.12-7.132,1.407c-0.595,0.069-1.194,0.128-1.79,0.175
					c-2.858,0.23-5.748,0.216-8.629-0.035c-0.869-0.075-1.734-0.172-2.602-0.292C389.068,139.913,378.825,135.377,371.127,128.458z"
					/>
			</g>
			<path fill="#6EAA66" d="M374.323,125.61l1.528-1.36c2.001,0.233,4.008,0.423,6.015,0.628c0.028-0.141,0.101-0.28,0.235-0.403
				c1.782-1.628,3.901-3.543,5.173-5.776c0.714-0.234,1.419-0.502,2.107-0.802c-1.048,2.791-3.468,5.184-5.629,7.175
				c2.498,0.267,4.994,0.573,7.475,1.018c1.685,0.3,3.366,0.433,5.039,0.45c-0.945-3.368,0.772-7.181,2.18-10.159
				c1.158-2.454,2.517-4.801,3.951-7.103c1.116-0.837,2.236-1.655,3.37-2.414c-0.019,0.041-0.039,0.084-0.067,0.125
				c-1.876,2.895-3.718,5.814-5.278,8.89c-1.497,2.944-3.636,7.046-2.607,10.44c0.024,0.071,0.032,0.135,0.036,0.198
				c4.558-0.144,9.088-1.045,13.64-1.697c2.649-0.38,5.313-0.696,7.971-1.022c0.081-4.957,4.768-9.37,8.1-12.456
				c3.237-2.995,6.794-5.587,10.227-8.335c0.146,0.109,0.289,0.22,0.43,0.334c0.271,0.215,0.54,0.435,0.804,0.659
				c-3.118,2.499-6.352,4.855-9.338,7.519c-3.279,2.921-8.37,7.243-8.655,12.084c1.397-0.178,2.793-0.359,4.187-0.562
				c5.16-0.757,10.375-1.646,15.319-3.338c1.835-0.629,4.075-1.467,5.848-2.75c0.017,0.625-0.018,1.261-0.111,1.899
				c-1.607,0.96-3.397,1.667-4.984,2.228c-4.756,1.68-9.69,2.626-14.671,3.341c2.489,1.096,5.333,1.644,7.906,2.227
				c2.26,0.512,4.529,0.975,6.814,1.358c-0.433,0.461-0.887,0.904-1.354,1.333c-1.976-0.353-3.942-0.756-5.894-1.198
				c-3.313-0.749-6.986-1.47-9.938-3.24c-0.058-0.036-0.107-0.079-0.152-0.121c-1.15,0.148-2.304,0.29-3.454,0.428
				c-0.071,0.02-0.146,0.03-0.225,0.028c-3.194,0.387-6.388,0.764-9.545,1.259c-0.099,0.017-0.193,0.031-0.289,0.046
				c1.118,3.014,3.306,5.692,5.468,8.008c1.687,1.803,3.59,3.629,5.745,4.955c-0.625,0.212-1.263,0.406-1.901,0.584
				c-1.83-1.292-3.479-2.87-4.974-4.47c-2.39-2.562-4.701-5.501-5.896-8.837c-2.147,0.333-4.264,0.64-6.372,0.859
				c3.359,4.625,6.719,9.25,10.11,13.854c-0.595,0.069-1.194,0.128-1.79,0.175c-3.387-4.609-6.752-9.234-10.11-13.864
				c-3.337,0.261-6.676,0.253-10.112-0.274c1.683,2.296,3.238,4.683,4.955,6.955c1.977,2.611,4.188,4.995,6.639,7.148
				c-0.869-0.075-1.734-0.172-2.602-0.292c-1.734-1.653-3.352-3.427-4.832-5.349c-2.104-2.732-3.95-5.651-6.04-8.397
				c-0.095-0.125-0.142-0.255-0.16-0.385C383.876,126.466,379.078,126.176,374.323,125.61z"/>
		</g>
		<g>
			<g>
				<path fill="#6EAA66" d="M379.71,150.124l-0.808-4.204l-0.385-2.009l-1.289-6.725c1.16-1.912,1.911-3.896,2.376-5.928
					c0.165-0.733,0.296-1.476,0.391-2.221c0.661-5.08-0.176-10.4-0.731-15.594c-0.147-1.387-0.275-2.768-0.346-4.13
					c-0.001-0.021-0.003-0.045-0.004-0.066c-0.438-8.357-0.077-18.075,5.94-24.573c1.984-2.142,4.465-3.742,7.16-4.834
					c0.168-0.07,0.337-0.136,0.507-0.198c0.322-0.122,0.649-0.24,0.978-0.353c5.06-1.723,10.573-2.141,14.896,0.318
					c0.545,0.306,1.073,0.661,1.574,1.069c1.109,0.886,2.104,2.006,2.959,3.398c1.06,1.725,1.829,3.588,2.372,5.53
					c0.174,0.607,0.322,1.225,0.45,1.846c1.134,5.488,0.708,11.465,0.069,16.787c-0.167,1.387-0.401,2.76-0.708,4.122
					c-0.139,0.646-0.299,1.292-0.474,1.932c-0.631,2.334-1.455,4.624-2.447,6.845c-0.245,0.546-0.502,1.09-0.767,1.627
					c-1.267,2.572-2.761,5.046-4.452,7.392c-0.51,0.708-1.037,1.401-1.584,2.084C398.74,140.587,389.597,147.059,379.71,150.124z"/>
			</g>
			<path fill="#92BF8C" d="M378.902,145.919l-0.385-2.009c1.227-1.598,2.418-3.225,3.622-4.843
				c-0.106-0.096-0.189-0.229-0.226-0.409c-0.485-2.365-1.044-5.166-2.31-7.402c0.165-0.733,0.296-1.476,0.391-2.221
				c1.859,2.33,2.675,5.635,3.277,8.51c1.51-2.008,3.052-3.995,4.704-5.896c1.121-1.293,2.097-2.669,2.969-4.097
				c-3.377-0.914-5.771-4.344-7.607-7.078c-1.513-2.252-2.833-4.621-4.074-7.033c-0.147-1.387-0.275-2.768-0.346-4.13
				c0.025,0.037,0.052,0.077,0.073,0.122c1.523,3.094,3.087,6.172,4.929,9.089c1.761,2.793,4.188,6.732,7.629,7.589
				c0.074,0.015,0.133,0.041,0.189,0.071c2.212-3.988,3.759-8.339,5.532-12.583c1.031-2.47,2.125-4.918,3.207-7.368
				c-4.215-2.61-5.604-8.896-6.546-13.339c-0.913-4.314-1.315-8.697-1.917-13.053c0.168-0.07,0.337-0.136,0.507-0.198
				c0.322-0.122,0.649-0.24,0.978-0.353c0.548,3.958,0.914,7.943,1.671,11.872c0.829,4.313,1.932,10.899,5.942,13.625
				c0.563-1.292,1.123-2.583,1.662-3.883c1.995-4.819,3.904-9.753,4.984-14.866c0.4-1.898,0.828-4.251,0.636-6.43
				c0.545,0.306,1.073,0.661,1.574,1.069c0.001,1.872-0.311,3.771-0.642,5.421c-0.995,4.946-2.711,9.667-4.649,14.311
				c2.217-1.576,4.145-3.737,5.965-5.648c1.597-1.678,3.157-3.39,4.657-5.155c0.174,0.607,0.322,1.225,0.45,1.846
				c-1.314,1.516-2.669,2.998-4.049,4.447c-2.34,2.462-4.842,5.246-7.874,6.874c-0.06,0.031-0.122,0.052-0.182,0.069
				c-0.463,1.064-0.932,2.126-1.402,3.185c-0.02,0.071-0.05,0.142-0.091,0.208c-1.305,2.941-2.617,5.876-3.811,8.842
				c-0.036,0.093-0.072,0.183-0.109,0.272c3.162,0.583,6.582,0.078,9.68-0.592c2.412-0.524,4.955-1.223,7.199-2.395
				c-0.139,0.646-0.299,1.292-0.474,1.932c-2.048,0.909-4.247,1.517-6.388,1.98c-3.424,0.74-7.133,1.218-10.609,0.535
				c-0.815,2.016-1.636,3.99-2.528,5.913c5.693-0.515,11.387-1.029,17.078-1.583c-0.245,0.546-0.502,1.09-0.767,1.627
				c-5.693,0.546-11.39,1.065-17.087,1.577c-1.485,2.999-3.203,5.862-5.417,8.543c2.834-0.269,5.681-0.381,8.512-0.692
				c3.255-0.359,6.436-1.037,9.54-2.037c-0.51,0.708-1.037,1.401-1.584,2.084c-2.309,0.643-4.66,1.122-7.069,1.408
				c-3.424,0.408-6.877,0.497-10.306,0.884c-0.155,0.017-0.292-0.009-0.413-0.06C384.532,138.155,381.825,142.126,378.902,145.919z"
				/>
		</g>
	</g>
	<g>
		<g>
			<g>
				<path fill="#92BF8C" d="M187.481,326.934l-4.101,1.813l-1.96,0.865l-6.56,2.895c-2.224-0.732-4.425-1.033-6.608-1.031
					c-0.786,0.004-1.575,0.045-2.358,0.123c-5.338,0.52-10.571,2.623-15.74,4.41c-1.381,0.477-2.761,0.932-4.134,1.324
					c-0.021,0.006-0.045,0.014-0.066,0.02c-8.425,2.41-18.427,4.324-26.472-0.291c-2.651-1.521-4.866-3.676-6.615-6.17
					c-0.109-0.154-0.217-0.313-0.32-0.471c-0.2-0.301-0.398-0.605-0.59-0.914c-2.946-4.759-4.668-10.288-3.175-15.275
					c0.184-0.629,0.423-1.251,0.721-1.857c0.645-1.341,1.554-2.619,2.773-3.819c1.511-1.486,3.231-2.709,5.086-3.719
					c0.578-0.321,1.174-0.617,1.777-0.894c5.334-2.446,11.534-3.416,17.114-4.015c1.455-0.155,2.911-0.239,4.373-0.245
					c0.691-0.011,1.389,0,2.083,0.028c2.53,0.096,5.061,0.398,7.561,0.889c0.614,0.123,1.23,0.257,1.84,0.401
					c2.923,0.688,5.798,1.631,8.589,2.806c0.842,0.354,1.673,0.729,2.499,1.127C173.279,309.756,182.031,317.566,187.481,326.934z"
					/>
			</g>
			<path fill="#6EAA66" d="M183.381,328.747l-1.96,0.865c-1.919-0.875-3.858-1.709-5.792-2.559c-0.073,0.131-0.19,0.248-0.364,0.326
				c-2.3,1.051-5.026,2.279-7.012,4.096c-0.786,0.004-1.575,0.045-2.358,0.123c1.941-2.445,5.123-4.053,7.915-5.344
				c-2.403-1.068-4.793-2.175-7.123-3.415c-1.582-0.841-3.216-1.513-4.877-2.066c-0.14,3.66-3.077,6.909-5.436,9.424
				c-1.943,2.074-4.051,3.977-6.22,5.811c-1.381,0.477-2.761,0.932-4.134,1.324c0.031-0.035,0.066-0.072,0.107-0.104
				c2.799-2.283,5.572-4.602,8.116-7.166c2.438-2.453,5.886-5.854,5.952-9.568c-0.002-0.079,0.011-0.145,0.027-0.209
				c-4.589-1.32-9.394-1.877-14.14-2.689c-2.763-0.473-5.519-1.013-8.272-1.541c-1.673,4.913-7.762,7.808-12.073,9.812
				c-4.188,1.947-8.566,3.387-12.871,5.023c-0.109-0.154-0.217-0.313-0.32-0.471c-0.2-0.301-0.398-0.605-0.59-0.914
				c3.911-1.49,7.891-2.799,11.723-4.496c4.206-1.858,10.669-4.53,12.508-9.264c-1.45-0.271-2.898-0.539-4.353-0.785
				c-5.387-0.902-10.87-1.691-16.342-1.594c-2.03,0.038-4.532,0.154-6.711,0.863c0.184-0.629,0.423-1.251,0.721-1.857
				c1.911-0.441,3.922-0.57,5.684-0.619c5.28-0.147,10.501,0.495,15.695,1.382c-2.129-1.892-4.787-3.351-7.165-4.76
				c-2.087-1.235-4.201-2.426-6.354-3.541c0.578-0.321,1.174-0.617,1.777-0.894c1.855,0.985,3.687,2.02,5.489,3.087
				c3.063,1.81,6.491,3.708,8.864,6.42c0.046,0.055,0.082,0.113,0.113,0.17c1.194,0.222,2.389,0.451,3.579,0.683
				c0.078,0.003,0.156,0.018,0.233,0.044c3.308,0.641,6.611,1.29,9.918,1.812c0.104,0.015,0.203,0.03,0.303,0.047
				c-0.146-3.363-1.466-6.734-2.878-9.738c-1.102-2.338-2.412-4.77-4.135-6.783c0.691-0.011,1.389,0,2.083,0.028
				c1.409,1.876,2.546,3.979,3.521,6.053c1.559,3.321,2.918,6.993,3.038,10.702c2.248,0.358,4.456,0.731,6.628,1.19
				c-1.863-5.689-3.726-11.378-5.627-17.057c0.614,0.123,1.23,0.257,1.84,0.401c1.896,5.682,3.763,11.372,5.624,17.065
				c3.409,0.812,6.734,1.892,9.991,3.521c-0.94-2.828-1.724-5.707-2.706-8.523c-1.131-3.237-2.57-6.323-4.32-9.257
				c0.842,0.354,1.673,0.729,2.499,1.127c1.198,2.205,2.24,4.492,3.099,6.884c1.22,3.398,2.122,6.9,3.323,10.309
				c0.053,0.154,0.059,0.3,0.035,0.436C174.136,324.826,178.823,326.655,183.381,328.747z"/>
		</g>
		<g>
			<g>
				<path fill="#6EAA66" d="M185.886,302.585l-0.545,4.449l-0.262,2.126l-0.876,7.117c-1.77,1.533-3.155,3.269-4.271,5.146
					c-0.4,0.678-0.77,1.376-1.104,2.088c-2.29,4.851-3.164,10.423-4.279,15.777c-0.299,1.43-0.615,2.848-0.981,4.229
					c-0.006,0.021-0.012,0.045-0.018,0.066c-2.247,8.471-5.729,18.041-13.813,22.584c-2.666,1.496-5.651,2.295-8.688,2.518
					c-0.19,0.016-0.38,0.027-0.569,0.035c-0.36,0.018-0.725,0.031-1.088,0.037c-5.596,0.092-11.226-1.264-14.743-5.102
					c-0.445-0.48-0.857-1.004-1.226-1.57c-0.821-1.24-1.453-2.678-1.858-4.338c-0.502-2.061-0.67-4.164-0.588-6.273
					c0.021-0.662,0.072-1.324,0.144-1.984c0.634-5.834,2.978-11.656,5.323-16.754c0.612-1.33,1.287-2.623,2.03-3.881
					c0.346-0.6,0.713-1.193,1.093-1.773c1.378-2.125,2.936-4.142,4.637-6.038c0.42-0.465,0.851-0.926,1.288-1.375
					c2.088-2.156,4.371-4.143,6.811-5.938c0.735-0.541,1.483-1.063,2.248-1.568C163.856,305.977,175.048,302.464,185.886,302.585z"
					/>
			</g>
			<path fill="#92BF8C" d="M185.341,307.034l-0.262,2.126c-1.735,1.199-3.445,2.438-5.165,3.664c0.075,0.13,0.114,0.289,0.093,0.479
				c-0.275,2.513-0.619,5.483-0.075,8.119c-0.4,0.678-0.77,1.376-1.104,2.088c-1.104-2.919-0.855-6.476-0.533-9.535
				c-2.148,1.517-4.323,3.002-6.582,4.367c-1.532,0.928-2.946,1.986-4.274,3.129c3.072,1.996,4.356,6.183,5.309,9.498
				c0.784,2.73,1.339,5.516,1.802,8.318c-0.299,1.43-0.615,2.848-0.981,4.229c-0.015-0.045-0.027-0.094-0.034-0.145
				c-0.525-3.574-1.095-7.143-1.993-10.643c-0.858-3.35-2.012-8.054-5.166-10.014c-0.069-0.038-0.119-0.083-0.166-0.131
				c-3.485,3.264-6.426,7.104-9.556,10.764c-1.821,2.131-3.697,4.219-5.563,6.313c3.362,3.955,2.728,10.666,2.239,15.396
				c-0.476,4.594-1.481,9.092-2.281,13.627c-0.19,0.016-0.38,0.027-0.569,0.035c-0.36,0.018-0.725,0.031-1.088,0.037
				c0.726-4.121,1.641-8.211,2.147-12.369c0.561-4.564,1.576-11.484-1.545-15.488c-0.977,1.105-1.949,2.213-2.904,3.334
				c-3.536,4.164-7.023,8.469-9.743,13.217c-1.008,1.764-2.191,3.971-2.698,6.205c-0.445-0.48-0.857-1.004-1.226-1.57
				c0.601-1.867,1.521-3.66,2.38-5.197c2.58-4.609,5.808-8.766,9.23-12.771c-2.715,0.859-5.33,2.395-7.758,3.715
				c-2.131,1.158-4.236,2.363-6.299,3.643c0.021-0.662,0.072-1.324,0.144-1.984c1.798-1.09,3.624-2.131,5.464-3.133
				c3.124-1.701,6.512-3.674,10.056-4.32c0.07-0.012,0.14-0.014,0.204-0.012c0.803-0.912,1.611-1.818,2.421-2.723
				c0.042-0.066,0.095-0.127,0.157-0.178c2.245-2.514,4.496-5.018,6.638-7.59c0.065-0.08,0.131-0.158,0.195-0.234
				c-2.963-1.598-6.534-2.193-9.837-2.52c-2.572-0.252-5.332-0.373-7.944,0.074c0.346-0.6,0.713-1.193,1.093-1.773
				c2.333-0.25,4.72-0.148,7.002,0.076c3.65,0.363,7.5,1.078,10.746,2.877c1.46-1.748,2.912-3.451,4.419-5.083
				c-5.84-1.315-11.68-2.631-17.53-3.908c0.42-0.465,0.851-0.926,1.288-1.375c5.85,1.284,11.693,2.597,17.536,3.916
				c2.443-2.512,5.075-4.813,8.143-6.774c-2.91-0.643-5.784-1.445-8.705-2.045c-3.359-0.688-6.747-1.033-10.163-1.034
				c0.735-0.541,1.483-1.063,2.248-1.568c2.508,0.101,5.006,0.379,7.499,0.867c3.543,0.693,7.014,1.714,10.555,2.43
				c0.161,0.032,0.288,0.103,0.393,0.191C177.235,312.964,181.209,309.876,185.341,307.034z"/>
		</g>
	</g>
</g>
<g>
	<linearGradient id="SVGID_1_" gradientUnits="userSpaceOnUse" x1="185.3184" y1="77.8911" x2="146.8835" y2="128.1521">
		<stop  offset="0.0081" style="stop-color:#D5D5DC"/>
		<stop  offset="0.1314" style="stop-color:#DCDCE2"/>
		<stop  offset="0.6743" style="stop-color:#F5F5F7"/>
		<stop  offset="1" style="stop-color:#FFFFFF"/>
	</linearGradient>
	<path fill="url(#SVGID_1_)" d="M175.317,126.152h-1.831c-12.889,0-23.336-13.712-23.336-30.627l0,0
		c0-9.083,5.662-16.516,12.584-16.516l0,0c6.921,0,12.583,7.432,12.583,16.516V126.152z"/>
	<linearGradient id="SVGID_2_" gradientUnits="userSpaceOnUse" x1="167.9082" y1="318.9248" x2="343.9875" y2="132.0923">
		<stop  offset="0.0382" style="stop-color:#FFFFFF"/>
		<stop  offset="0.3" style="stop-color:#E2E2E7"/>
		<stop  offset="0.4676" style="stop-color:#D5D5DC"/>
		<stop  offset="0.6295" style="stop-color:#DDDDE2"/>
		<stop  offset="0.8757" style="stop-color:#F2F2F4"/>
		<stop  offset="1" style="stop-color:#FFFFFF"/>
	</linearGradient>
	<path fill="url(#SVGID_2_)" d="M390.402,330.102H200.371c0,0,1.126,14.693-12.175,15.914c-8.109,0-14.693-8.633-14.693-19.285
		V95.62c0-4.546-1.42-8.678-3.701-11.672c-2.28-2.994-5.43-4.858-8.893-4.858h204.899c13.588,0,24.594,14.455,24.594,32.279V330.102
		z"/>
	<linearGradient id="SVGID_3_" gradientUnits="userSpaceOnUse" x1="296.8379" y1="325.6851" x2="306.7979" y2="228.7068">
		<stop  offset="0.0081" style="stop-color:#D5D5DC"/>
		<stop  offset="0.1314" style="stop-color:#DCDCE2"/>
		<stop  offset="0.6743" style="stop-color:#F5F5F7"/>
		<stop  offset="1" style="stop-color:#FFFFFF"/>
	</linearGradient>
	<path fill="url(#SVGID_3_)" d="M403.17,330.02c0,5.086-2.5,8.768-5.313,11.301c-3.435,3.092-7.55,4.613-11.714,4.613H187.901
		c13.301-1.221,12.174-15.914,12.174-15.914H403.17z"/>
	<g>
		<g>
			<path fill="#5796FF" d="M311.487,119.796H200.979c-1.143,0-2.077-0.934-2.077-2.076l0,0c0-1.142,0.935-2.077,2.077-2.077h110.509
				c1.142,0,2.076,0.935,2.076,2.077l0,0C313.563,118.862,312.629,119.796,311.487,119.796z"/>
			<path fill="#DDD9DF" d="M288.48,129.456h-87.959c-0.891,0-1.62-0.729-1.62-1.62l0,0c0-0.891,0.729-1.62,1.62-1.62h87.959
				c0.891,0,1.619,0.729,1.619,1.62l0,0C290.1,128.727,289.371,129.456,288.48,129.456z"/>
			<path fill="#DDD9DF" d="M310.601,137.575H200.521c-0.891,0-1.62-0.729-1.62-1.62l0,0c0-0.891,0.729-1.62,1.62-1.62h110.079
				c0.892,0,1.62,0.729,1.62,1.62l0,0C312.221,136.846,311.492,137.575,310.601,137.575z"/>
			<path fill="#DDD9DF" d="M235.762,145.266h-35.204c-0.911,0-1.656-0.745-1.656-1.656l0,0c0-0.911,0.745-1.656,1.656-1.656h35.204
				c0.911,0,1.656,0.745,1.656,1.656l0,0C237.418,144.521,236.673,145.266,235.762,145.266z"/>
			<path fill="#DDD9DF" d="M310.565,145.266h-66.512c-0.911,0-1.655-0.745-1.655-1.656l0,0c0-0.911,0.744-1.656,1.655-1.656h66.512
				c0.91,0,1.655,0.745,1.655,1.656l0,0C312.221,144.521,311.476,145.266,310.565,145.266z"/>
		</g>
		<g>
			<path fill="#5796FF" d="M311.487,187.605H200.979c-1.143,0-2.077-0.935-2.077-2.077l0,0c0-1.142,0.935-2.076,2.077-2.076h110.509
				c1.142,0,2.076,0.934,2.076,2.076l0,0C313.563,186.671,312.629,187.605,311.487,187.605z"/>
			<path fill="#DDD9DF" d="M288.48,197.265h-87.959c-0.891,0-1.62-0.729-1.62-1.62l0,0c0-0.891,0.729-1.62,1.62-1.62h87.959
				c0.891,0,1.619,0.729,1.619,1.62l0,0C290.1,196.536,289.371,197.265,288.48,197.265z"/>
			<path fill="#DDD9DF" d="M310.601,205.384H200.521c-0.891,0-1.62-0.729-1.62-1.62l0,0c0-0.891,0.729-1.62,1.62-1.62h110.079
				c0.892,0,1.62,0.729,1.62,1.62l0,0C312.221,204.655,311.492,205.384,310.601,205.384z"/>
			<path fill="#DDD9DF" d="M235.762,213.074h-35.204c-0.911,0-1.656-0.745-1.656-1.655l0,0c0-0.911,0.745-1.656,1.656-1.656h35.204
				c0.911,0,1.656,0.745,1.656,1.656l0,0C237.418,212.329,236.673,213.074,235.762,213.074z"/>
			<path fill="#DDD9DF" d="M310.565,213.074h-66.512c-0.911,0-1.655-0.745-1.655-1.655l0,0c0-0.911,0.744-1.656,1.655-1.656h66.512
				c0.91,0,1.655,0.745,1.655,1.656l0,0C312.221,212.329,311.476,213.074,310.565,213.074z"/>
		</g>
		<g>
			<path fill="#5796FF" d="M311.487,255.414H200.979c-1.143,0-2.077-0.935-2.077-2.076l0,0c0-1.142,0.935-2.076,2.077-2.076h110.509
				c1.142,0,2.076,0.935,2.076,2.076l0,0C313.563,254.479,312.629,255.414,311.487,255.414z"/>
			<path fill="#DDD9DF" d="M288.48,265.073h-87.959c-0.891,0-1.62-0.729-1.62-1.619l0,0c0-0.892,0.729-1.62,1.62-1.62h87.959
				c0.891,0,1.619,0.729,1.619,1.62l0,0C290.1,264.345,289.371,265.073,288.48,265.073z"/>
			<path fill="#DDD9DF" d="M310.601,273.193H200.521c-0.891,0-1.62-0.729-1.62-1.62l0,0c0-0.892,0.729-1.62,1.62-1.62h110.079
				c0.892,0,1.62,0.729,1.62,1.62l0,0C312.221,272.464,311.492,273.193,310.601,273.193z"/>
			<path fill="#DDD9DF" d="M235.762,280.883h-35.204c-0.911,0-1.656-0.745-1.656-1.655l0,0c0-0.91,0.745-1.655,1.656-1.655h35.204
				c0.911,0,1.656,0.745,1.656,1.655l0,0C237.418,280.138,236.673,280.883,235.762,280.883z"/>
			<path fill="#DDD9DF" d="M310.565,280.883h-66.512c-0.911,0-1.655-0.745-1.655-1.655l0,0c0-0.91,0.744-1.655,1.655-1.655h66.512
				c0.91,0,1.655,0.745,1.655,1.655l0,0C312.221,280.138,311.476,280.883,310.565,280.883z"/>
		</g>
	</g>
	<g>
		<g>
			<circle fill="none" stroke="#5796FF" stroke-width="3.5417" stroke-miterlimit="10" cx="349.941" cy="131.083" r="18.668"/>
			<g>
				<path fill="#E37699" d="M348.352,138.714L348.352,138.714c-0.47,0-0.92-0.187-1.252-0.519l-5.016-5.016
					c-0.691-0.691-0.691-1.813,0-2.504s1.813-0.691,2.504,0l3.764,3.764l23.994-23.993c0.691-0.692,1.813-0.692,2.504,0
					c0.691,0.691,0.691,1.813,0,2.504l-25.246,25.246C349.271,138.527,348.821,138.714,348.352,138.714z"/>
			</g>
		</g>
		<g>
			<circle fill="none" stroke="#5796FF" stroke-width="3.5417" stroke-miterlimit="10" cx="349.941" cy="195.645" r="18.668"/>
			<g>
				<path fill="#E37699" d="M348.352,204.089c-0.453,0-0.906-0.173-1.252-0.519l-5.016-5.016c-0.691-0.692-0.691-1.813,0-2.504
					c0.691-0.692,1.813-0.692,2.504,0l3.764,3.764l23.994-23.994c0.691-0.691,1.813-0.691,2.504,0s0.691,1.813,0,2.504
					l-25.246,25.246C349.258,203.917,348.805,204.089,348.352,204.089z"/>
			</g>
		</g>
		<g>
			<circle fill="none" stroke="#5796FF" stroke-width="3.5417" stroke-miterlimit="10" cx="349.941" cy="260.206" r="18.668"/>
			<g>
				<path fill="#E37699" d="M348.352,269.466L348.352,269.466c-0.47,0-0.92-0.187-1.252-0.519l-5.016-5.017
					c-0.691-0.691-0.691-1.813,0-2.504c0.691-0.692,1.813-0.692,2.504,0l3.764,3.765l23.994-23.995c0.691-0.691,1.813-0.691,2.504,0
					c0.691,0.692,0.691,1.813,0,2.505l-25.246,25.246C349.271,269.279,348.821,269.466,348.352,269.466z"/>
			</g>
		</g>
	</g>
</g>
<g opacity="0.8">
	<linearGradient id="SVGID_4_" gradientUnits="userSpaceOnUse" x1="143.2266" y1="47.5957" x2="194.5811" y2="47.5957">
		<stop  offset="0.0026" style="stop-color:#D0EEFD"/>
		<stop  offset="0.321" style="stop-color:#E3F0F7"/>
		<stop  offset="0.6524" style="stop-color:#EEF2F3"/>
		<stop  offset="1" style="stop-color:#F2F2F2"/>
	</linearGradient>
	<path fill="url(#SVGID_4_)" d="M184.104,40.129c-1,0-1.963,0.148-2.878,0.41c-2.725-4.725-8.281-7.363-13.891-6.129
		c-3.983,0.875-7.117,3.516-8.779,6.916c-1.451-0.76-3.1-1.196-4.852-1.196c-5.787,0-10.478,4.691-10.478,10.477
		c0,5.787,4.69,10.478,10.478,10.478h30.399c5.786,0,10.478-4.691,10.478-10.478C194.581,44.82,189.89,40.129,184.104,40.129z"/>
	<linearGradient id="SVGID_5_" gradientUnits="userSpaceOnUse" x1="351.8682" y1="299.6782" x2="403.2227" y2="299.6782">
		<stop  offset="0.0026" style="stop-color:#D0EEFD"/>
		<stop  offset="0.321" style="stop-color:#E3F0F7"/>
		<stop  offset="0.6524" style="stop-color:#EEF2F3"/>
		<stop  offset="1" style="stop-color:#F2F2F2"/>
	</linearGradient>
	<path fill="url(#SVGID_5_)" d="M392.745,292.212c-1,0-1.963,0.148-2.878,0.41c-2.724-4.725-8.28-7.363-13.891-6.13
		c-3.983,0.876-7.116,3.517-8.779,6.916c-1.451-0.761-3.1-1.196-4.852-1.196c-5.786,0-10.478,4.691-10.478,10.478
		s4.691,10.478,10.478,10.478h30.399c5.786,0,10.478-4.691,10.478-10.478S398.531,292.212,392.745,292.212z"/>
	<linearGradient id="SVGID_6_" gradientUnits="userSpaceOnUse" x1="368.6094" y1="46.6016" x2="429.2949" y2="46.6016">
		<stop  offset="0.0026" style="stop-color:#D0EEFD"/>
		<stop  offset="0.321" style="stop-color:#E3F0F7"/>
		<stop  offset="0.6524" style="stop-color:#EEF2F3"/>
		<stop  offset="1" style="stop-color:#F2F2F2"/>
	</linearGradient>
	<path fill="url(#SVGID_6_)" d="M416.662,38.836c-1.638-0.147-3.229,0.012-4.733,0.405c-0.661-7.046-6.587-12.561-13.806-12.561
		c-7.109,0-12.96,5.35-13.768,12.242c-0.615-0.083-1.237-0.141-1.875-0.141c-7.661,0-13.871,6.21-13.871,13.872
		s6.21,13.872,13.871,13.872h32.941v-0.007c7.107,0.007,13.169-5.411,13.816-12.625C429.923,46.261,424.292,39.521,416.662,38.836z"
		/>
	<linearGradient id="SVGID_7_" gradientUnits="userSpaceOnUse" x1="127.8154" y1="189.7202" x2="188.501" y2="189.7202">
		<stop  offset="0.0026" style="stop-color:#D0EEFD"/>
		<stop  offset="0.321" style="stop-color:#E3F0F7"/>
		<stop  offset="0.6524" style="stop-color:#EEF2F3"/>
		<stop  offset="1" style="stop-color:#F2F2F2"/>
	</linearGradient>
	<path fill="url(#SVGID_7_)" d="M175.868,181.955c-1.638-0.147-3.229,0.013-4.733,0.405c-0.661-7.046-6.587-12.561-13.806-12.561
		c-7.108,0-12.959,5.35-13.768,12.242c-0.614-0.083-1.237-0.141-1.875-0.141c-7.66,0-13.871,6.21-13.871,13.872
		s6.211,13.872,13.871,13.872h32.942v-0.008c7.107,0.008,13.168-5.411,13.815-12.624C189.129,189.38,183.499,182.64,175.868,181.955
		z"/>
</g>
<g>
	<g>
		<linearGradient id="SVGID_8_" gradientUnits="userSpaceOnUse" x1="8.5854" y1="89.644" x2="466.7527" y2="-10.6195">
			<stop  offset="0.0026" style="stop-color:#D0EEFD"/>
			<stop  offset="0.321" style="stop-color:#E3F0F7"/>
			<stop  offset="0.6524" style="stop-color:#EEF2F3"/>
			<stop  offset="1" style="stop-color:#F2F2F2"/>
		</linearGradient>
		<circle fill="url(#SVGID_8_)" cx="247.293" cy="37.406" r="6.693"/>
		<linearGradient id="SVGID_9_" gradientUnits="userSpaceOnUse" x1="12.6001" y1="107.8638" x2="470.7219" y2="7.6102">
			<stop  offset="0.0026" style="stop-color:#D0EEFD"/>
			<stop  offset="0.321" style="stop-color:#E3F0F7"/>
			<stop  offset="0.6524" style="stop-color:#EEF2F3"/>
			<stop  offset="1" style="stop-color:#F2F2F2"/>
		</linearGradient>
		<circle fill="url(#SVGID_9_)" cx="292.542" cy="46.601" r="5.298"/>
		<linearGradient id="SVGID_10_" gradientUnits="userSpaceOnUse" x1="11.3188" y1="102.0688" x2="469.4608" y2="1.8108">
			<stop  offset="0.0026" style="stop-color:#D0EEFD"/>
			<stop  offset="0.321" style="stop-color:#E3F0F7"/>
			<stop  offset="0.6524" style="stop-color:#EEF2F3"/>
			<stop  offset="1" style="stop-color:#F2F2F2"/>
		</linearGradient>
		<circle fill="url(#SVGID_10_)" cx="264.334" cy="46.7" r="4.286"/>
		<linearGradient id="SVGID_11_" gradientUnits="userSpaceOnUse" x1="8.96" y1="91.354" x2="467.1281" y2="-8.9098">
			<stop  offset="0.0026" style="stop-color:#D0EEFD"/>
			<stop  offset="0.321" style="stop-color:#E3F0F7"/>
			<stop  offset="0.6524" style="stop-color:#EEF2F3"/>
			<stop  offset="1" style="stop-color:#F2F2F2"/>
		</linearGradient>
		<circle fill="url(#SVGID_11_)" cx="224.896" cy="44.099" r="4.287"/>
	</g>
	<g>
		<linearGradient id="SVGID_12_" gradientUnits="userSpaceOnUse" x1="58.4932" y1="317.6504" x2="516.6453" y2="217.3901">
			<stop  offset="0.0026" style="stop-color:#D0EEFD"/>
			<stop  offset="0.321" style="stop-color:#E3F0F7"/>
			<stop  offset="0.6524" style="stop-color:#EEF2F3"/>
			<stop  offset="1" style="stop-color:#F2F2F2"/>
		</linearGradient>
		<circle fill="url(#SVGID_12_)" cx="520.137" cy="216.625" r="6.693"/>
		<linearGradient id="SVGID_13_" gradientUnits="userSpaceOnUse" x1="61.3174" y1="330.6343" x2="519.4882" y2="230.3699">
			<stop  offset="0.0026" style="stop-color:#D0EEFD"/>
			<stop  offset="0.321" style="stop-color:#E3F0F7"/>
			<stop  offset="0.6524" style="stop-color:#EEF2F3"/>
			<stop  offset="1" style="stop-color:#F2F2F2"/>
		</linearGradient>
		<circle fill="url(#SVGID_13_)" cx="500.378" cy="234.551" r="5.298"/>
		<linearGradient id="SVGID_14_" gradientUnits="userSpaceOnUse" x1="62.6133" y1="336.7998" x2="520.8343" y2="236.5245">
			<stop  offset="0.0026" style="stop-color:#D0EEFD"/>
			<stop  offset="0.321" style="stop-color:#E3F0F7"/>
			<stop  offset="0.6524" style="stop-color:#EEF2F3"/>
			<stop  offset="1" style="stop-color:#F2F2F2"/>
		</linearGradient>
		<circle fill="url(#SVGID_14_)" cx="518.115" cy="237.12" r="4.287"/>
	</g>
	<g>
		<linearGradient id="SVGID_15_" gradientUnits="userSpaceOnUse" x1="73.3711" y1="385.6714" x2="531.5323" y2="285.4091">
			<stop  offset="0.0026" style="stop-color:#D0EEFD"/>
			<stop  offset="0.321" style="stop-color:#E3F0F7"/>
			<stop  offset="0.6524" style="stop-color:#EEF2F3"/>
			<stop  offset="1" style="stop-color:#F2F2F2"/>
		</linearGradient>
		<circle fill="url(#SVGID_15_)" cx="181.109" cy="362.093" r="6.694"/>
		<linearGradient id="SVGID_16_" gradientUnits="userSpaceOnUse" x1="76.8604" y1="401.5444" x2="534.9674" y2="301.294">
			<stop  offset="0.0026" style="stop-color:#D0EEFD"/>
			<stop  offset="0.321" style="stop-color:#E3F0F7"/>
			<stop  offset="0.6524" style="stop-color:#EEF2F3"/>
			<stop  offset="1" style="stop-color:#F2F2F2"/>
		</linearGradient>
		<circle fill="url(#SVGID_16_)" cx="205.251" cy="373.447" r="5.298"/>
		<linearGradient id="SVGID_17_" gradientUnits="userSpaceOnUse" x1="77.7002" y1="405.4614" x2="535.8647" y2="305.1984">
			<stop  offset="0.0026" style="stop-color:#D0EEFD"/>
			<stop  offset="0.321" style="stop-color:#E3F0F7"/>
			<stop  offset="0.6524" style="stop-color:#EEF2F3"/>
			<stop  offset="1" style="stop-color:#F2F2F2"/>
		</linearGradient>
		<circle fill="url(#SVGID_17_)" cx="189.044" cy="381.096" r="4.286"/>
	</g>
</g>
<g>
	<ellipse fill="#DDD9DF" cx="455.037" cy="353.252" rx="43.385" ry="2.531"/>
	<g>
		<g>
			<g>
				<linearGradient id="SVGID_18_" gradientUnits="userSpaceOnUse" x1="492.2549" y1="125.3608" x2="417.5847" y2="135.6907">
					<stop  offset="0" style="stop-color:#325FC7"/>
					<stop  offset="0.9695" style="stop-color:#5796FF"/>
				</linearGradient>
				<path fill="url(#SVGID_18_)" d="M493.097,138.216c-1.871-3.356-4.38-6.798-4.384-10.744c-0.004-3.798,2.565-7.215,1.847-11.015
					c-0.419-2.213-2.101-3.112-2.983-4.951c-0.845-1.759-0.202-3.727,0.237-5.547c0.449-1.861,1.155-3.522,0.797-5.477
					c-0.379-2.071-1.208-3.988-2.37-5.708c-1.235-1.826-4.911-5.858-9.494-7.532c-1.641-0.599-9.56-3.704-20.836,2.346
					c-5.644,3.027-7.384,9.574-7.629,10.628c-1.139,4.906,1.755,6.073,2.295,7.555c0.831,2.279,1.61,5.838,0.601,8.194
					c-1.355,3.163-4.133,5.628-5.474,8.743c-0.937,2.174-1.444,5.214-0.981,7.581c0.625,3.193,4.063,5.47,6.012,7.871
					c0.944,1.162,2.05,2.919,1.655,4.53c-0.401,1.64-2.348,3.446-3.408,4.675c-2.599,3.013-6.565,6.858-5.572,11.237
					c1.307,5.767,8.354,7.339,12.596,10.366c0.865,0.617,1.84,1.179,2.622,1.884c0.362-0.445,0.56-1.002,0.971-1.42
					c0.574-0.583,1.432-0.88,2.143-1.241c3.096-1.573,6.339-2.647,9.638-3.709c3.208-1.034,6.56-1.342,9.738-2.481
					c2.585-0.926,5.489-1.912,7.888-3.29c4.059-2.332,5.656-8.081,5.903-12.485C495.096,144.844,494.778,141.233,493.097,138.216z"
					/>
			</g>
			<g>
				<linearGradient id="SVGID_19_" gradientUnits="userSpaceOnUse" x1="459.6533" y1="148.4644" x2="433.3012" y2="182.8529">
					<stop  offset="0.0305" style="stop-color:#5796FF"/>
					<stop  offset="0.1712" style="stop-color:#5F9CFF"/>
					<stop  offset="0.3925" style="stop-color:#76ACFE"/>
					<stop  offset="0.6667" style="stop-color:#9AC7FE"/>
					<stop  offset="0.9805" style="stop-color:#CDECFD"/>
					<stop  offset="0.9974" style="stop-color:#D0EEFD"/>
				</linearGradient>
				<path fill="url(#SVGID_19_)" d="M452.375,174.283l-13.184,9.953l-6.676-3.684l13.192-11.112
					c1.01-16.744,3.94-28.945,11.191-30.928C460.052,143.657,456.191,159.01,452.375,174.283z"/>
				<polygon fill="#E37699" points="439.191,184.236 435.499,187.024 429.54,183.058 432.516,180.552 				"/>
				<linearGradient id="SVGID_20_" gradientUnits="userSpaceOnUse" x1="419.7793" y1="184.8896" x2="435.8887" y2="184.8896">
					<stop  offset="0.0298" style="stop-color:#F1C6C8"/>
					<stop  offset="0.2883" style="stop-color:#F0C3C6"/>
					<stop  offset="0.4849" style="stop-color:#EFB9C1"/>
					<stop  offset="0.661" style="stop-color:#ECA9B7"/>
					<stop  offset="0.8242" style="stop-color:#E892AA"/>
					<stop  offset="0.9734" style="stop-color:#E37699"/>
				</linearGradient>
				<path fill="url(#SVGID_20_)" d="M429.538,183.056c0,0-3.973-4.54-8.938,0c0,0-2.979,4.965,2.411,5.391
					c0,0,12.241,0.929,12.714-0.51s-0.229-0.909-0.229-0.909L429.538,183.056z"/>
			</g>
			<linearGradient id="SVGID_21_" gradientUnits="userSpaceOnUse" x1="476.8066" y1="130.563" x2="460.6477" y2="137.6463">
				<stop  offset="0.0266" style="stop-color:#E37699"/>
				<stop  offset="0.1758" style="stop-color:#E892AA"/>
				<stop  offset="0.339" style="stop-color:#ECA9B7"/>
				<stop  offset="0.5151" style="stop-color:#EFB9C1"/>
				<stop  offset="0.7117" style="stop-color:#F0C3C6"/>
				<stop  offset="0.9702" style="stop-color:#F1C6C8"/>
			</linearGradient>
			<path fill="url(#SVGID_21_)" d="M476.919,132.411L467.761,147c-1.26,2.008-3.558,3.217-5.907,2.894
				c-1.2-0.162-2.281-0.723-2.664-2.094c-0.188-0.681-0.119-1.421,0.085-2.102l3.209-10.648l3.107-1.932
				c0.212-0.426,0.391-0.851,0.536-1.277c1.063-3.004,0.706-5.966,0.706-9.788l8.954-4.733l0.485,12.496l0.076,2.025l0.392,0.392
				L476.919,132.411z"/>
			<linearGradient id="SVGID_22_" gradientUnits="userSpaceOnUse" x1="505.5859" y1="149.7422" x2="428.8501" y2="176.3046">
				<stop  offset="0.0305" style="stop-color:#5796FF"/>
				<stop  offset="0.0838" style="stop-color:#609DFF"/>
				<stop  offset="0.3807" style="stop-color:#90C0FE"/>
				<stop  offset="0.6426" style="stop-color:#B3D9FD"/>
				<stop  offset="0.8571" style="stop-color:#C8E8FD"/>
				<stop  offset="0.9974" style="stop-color:#D0EEFD"/>
			</linearGradient>
			<path fill="url(#SVGID_22_)" d="M475.643,189.72l-23.263-1.277l0,0c0.091-1.036,0.084-2.08-0.027-3.114
				c-0.857-7.915-1.997-15.407-4.194-21.263c-1.847-4.929-1.123-10.453,1.754-14.853l5.572-8.533
				c0.933-1.427,2.166-2.632,3.614-3.531l3.385-2.1l-3.209,10.648c-0.204,0.681-0.272,1.421-0.085,2.102
				c0.383,1.371,1.464,1.932,2.664,2.094c2.35,0.324,4.647-0.885,5.907-2.894l9.158-14.589c2.12,2.103,4.35,4.094,6.741,5.882
				C491.934,144.506,488.58,162.33,475.643,189.72z"/>
			<g>
				<linearGradient id="SVGID_23_" gradientUnits="userSpaceOnUse" x1="500.126" y1="297.436" x2="438.952" y2="307.6317">
					<stop  offset="0.0266" style="stop-color:#E37699"/>
					<stop  offset="0.0726" style="stop-color:#E583A1"/>
					<stop  offset="0.1809" style="stop-color:#EA9BAF"/>
					<stop  offset="0.3031" style="stop-color:#EDAEBA"/>
					<stop  offset="0.4452" style="stop-color:#EFBCC2"/>
					<stop  offset="0.6254" style="stop-color:#F1C4C7"/>
					<stop  offset="0.9702" style="stop-color:#F1C6C8"/>
				</linearGradient>
				<path fill="url(#SVGID_23_)" d="M485.003,284.341c3.25,9.767,0.823,23.438-4.436,39.038c-0.886,2.674-1.869,5.393-2.913,8.172
					c-1.036,2.727-1.878,4.871-3.028,7.686c0.442,0.887,0.734,1.656,0.938,2.311c0.212,0.691,0.327,1.258,0.416,1.691
					c0.168,0.814-0.124,1.762-0.744,2.746c-0.982,1.574-2.78,3.24-4.772,4.621c-1.947,1.346-4.09,2.418-5.844,2.852
					c-1.159,0.273-4.117-0.143-5.002-0.381c-1.443,0-1.939-1.895-0.7-2.613l2.382-1.371c0.877-0.506,1.7-1.09,2.462-1.744
					c1.001-0.85,1.886-1.824,2.647-2.904l4.418-6.26c0.832-5.145,1.488-10.156,1.992-15.053v-0.009
					c0.806-8.021,1.178-15.725,1.134-23.127v-0.009c-0.071-11.59-3.392-31.061-5.419-41.225c0.895-1.151,15.627-7.872,20.364-9.563
					C488.182,256.406,486.181,276.611,485.003,284.341z"/>
				<linearGradient id="SVGID_24_" gradientUnits="userSpaceOnUse" x1="458.2129" y1="347.5474" x2="476.0273" y2="347.5474">
					<stop  offset="0.0305" style="stop-color:#5796FF"/>
					<stop  offset="1" style="stop-color:#325FC7"/>
				</linearGradient>
				<path fill="url(#SVGID_24_)" d="M475.236,345.985c-0.982,1.574-2.78,3.24-4.772,4.621c-1.947,1.346-4.09,2.418-5.844,2.852
					c-1.159,0.273-4.117-0.143-5.002-0.381c-1.443,0-1.939-1.895-0.7-2.613l2.382-1.371c0.877-0.506,1.7-1.09,2.462-1.744
					c0.682,0.77,1.683,1.346,3.09,1.098c0.744-0.125,1.417-0.488,2.001-0.957c1.452-1.168,4.95-4.037,6.712-5.941
					c0.212,0.691,0.327,1.258,0.416,1.691C476.148,344.053,475.856,345,475.236,345.985z"/>
			</g>
			<g>
				<linearGradient id="SVGID_25_" gradientUnits="userSpaceOnUse" x1="480.4395" y1="298.6016" x2="458.7466" y2="308.3412">
					<stop  offset="0.0266" style="stop-color:#E37699"/>
					<stop  offset="0.2181" style="stop-color:#E78DA6"/>
					<stop  offset="0.5268" style="stop-color:#ECACB9"/>
					<stop  offset="0.7886" style="stop-color:#F0BFC4"/>
					<stop  offset="0.9702" style="stop-color:#F1C6C8"/>
				</linearGradient>
				<path fill="url(#SVGID_25_)" d="M489.005,337.43c-0.425,0.797-0.886,1.576-1.293,2.383c-1.744,3.436-6.233,11.174-11.235,11.271
					h-0.054c-1.311,0-2.24-1.293-1.832-2.541l1.089-3.303l1.248-3.791l2.329-7.1l-1.603-2.799l-4.835-8.42v-0.009l-20.612-35.859
					c-1.106-1.93-1.842-4.046-2.16-6.251c-0.921-6.393-1.78-12.688-2.523-18.806c3.604,0.752,10.262,2.019,17.885,2.363
					l-4.152,17.293c5.206,2.391,8.411,10.332,11.502,20.967l11.696,28.111c0,0,0.514,0.398,1.195,1.01
					C487.243,333.368,489.784,335.952,489.005,337.43z"/>
				<linearGradient id="SVGID_26_" gradientUnits="userSpaceOnUse" x1="474.4932" y1="341.5171" x2="489.1494" y2="341.5171">
					<stop  offset="0.0305" style="stop-color:#5796FF"/>
					<stop  offset="1" style="stop-color:#325FC7"/>
				</linearGradient>
				<path fill="url(#SVGID_26_)" d="M489.005,337.43c-0.425,0.797-0.886,1.576-1.293,2.383c-1.744,3.436-6.233,11.174-11.235,11.271
					h-0.054c-1.311,0-2.24-1.293-1.832-2.541l1.089-3.303c5.463,1.637,8.748-8.527,9.97-13.291
					C487.243,333.368,489.784,335.952,489.005,337.43z"/>
			</g>
			
				<radialGradient id="SVGID_27_" cx="436.0166" cy="233.6377" r="79.0588" gradientTransform="matrix(1 0 0 1.5445 0 -127.2087)" gradientUnits="userSpaceOnUse">
				<stop  offset="0.4624" style="stop-color:#E37699"/>
				<stop  offset="0.5202" style="stop-color:#E26C95"/>
				<stop  offset="0.7058" style="stop-color:#E0528B"/>
				<stop  offset="0.8716" style="stop-color:#DE4284"/>
				<stop  offset="1" style="stop-color:#DE3C82"/>
			</radialGradient>
			<path fill="url(#SVGID_27_)" d="M487.883,261.874c-5.601,1.991-11.78,2.724-17.653,2.783c-1.635,0.025-3.252-0.009-4.818-0.085
				c-7.626-0.35-14.282-1.617-17.891-2.366c-1.729-14.249-2.844-27.595-2.767-39.188v-0.017c0.068-11.993,1.421-22.113,4.682-29.425
				v-0.009c0.825-1.864,1.855-3.643,2.944-5.124l15.866,0.868l7.396,0.409C489.142,202.718,491.168,229.181,487.883,261.874z"/>
			<g>
				
					<radialGradient id="SVGID_28_" cx="461.4424" cy="114.4678" r="29.1706" gradientTransform="matrix(1 0 0 1.2622 0 -30.0089)" gradientUnits="userSpaceOnUse">
					<stop  offset="0.1259" style="stop-color:#F1C6C8"/>
					<stop  offset="0.9734" style="stop-color:#E37699"/>
				</radialGradient>
				<path fill="url(#SVGID_28_)" d="M483.024,113.553c0.77-2.354,0.403-5.586-1.583-5.941c-0.593-0.106-1.292,0.053-1.994,0.387
					c-0.875-6.975-5.251-15.057-10.214-15.944c-6.495-1.161-12.458,1.548-14.997,18.41c-1.005,6.672,2.9,14.155,9.225,15.866
					c4.752,1.286,10.86-3.396,14.011-8.632C479.661,117.285,482.05,116.538,483.024,113.553z"/>
				<g>
					<g>
						<path fill="#325FC7" d="M460.517,115.815c0.101-0.03,0.185-0.109,0.216-0.217c0.05-0.17-0.048-0.349-0.218-0.399
							c-1.029-0.301-1.074-0.553-1.074-0.556c0.003-0.265,1.079-0.803,2.235-1.123c0.191-0.067,0.272-0.224,0.226-0.395
							s-0.223-0.272-0.395-0.226c-0.81,0.218-2.701,0.83-2.709,1.736c-0.007,0.652,0.873,0.985,1.535,1.179
							C460.396,115.834,460.458,115.833,460.517,115.815z"/>
					</g>
					<g>
						<path fill="#325FC7" d="M464.822,119.528c1.43-0.43,2.995-1.455,3.677-3.812c0.056-0.194-0.056-0.396-0.249-0.453
							c-0.191-0.056-0.396,0.055-0.453,0.25c-1.221,4.209-5.558,3.563-5.743,3.535c-0.2-0.034-0.387,0.104-0.42,0.303
							c-0.032,0.199,0.104,0.386,0.303,0.418C461.962,119.775,463.317,119.98,464.822,119.528z"/>
					</g>
					<g>
						
							<ellipse transform="matrix(0.9969 0.0783 -0.0783 0.9969 10.0856 -36.3224)" fill="#325FC7" cx="468.021" cy="110.394" rx="1.072" ry="2.197"/>
					</g>
					<g>
						
							<ellipse transform="matrix(0.9969 0.0784 -0.0784 0.9969 10.041 -35.6217)" fill="#325FC7" cx="458.861" cy="110.117" rx="1.072" ry="2.197"/>
					</g>
					<g>
						<path fill="#325FC7" d="M471.187,107.334c0.013-0.004,0.025-0.009,0.038-0.014c0.186-0.079,0.273-0.293,0.194-0.479
							c-0.94-2.22-2.938-2.162-3.871-1.832c-0.189,0.069-0.287,0.278-0.219,0.467c0.067,0.191,0.256,0.293,0.467,0.222
							c0.065-0.024,2.047-0.7,2.948,1.429C470.817,107.3,471.01,107.387,471.187,107.334z"/>
					</g>
					<g>
						<path fill="#325FC7" d="M457.884,106.028c0.105-0.032,0.194-0.11,0.237-0.221l0,0c0.048-0.123,0.502-1.188,1.79-0.782
							c0.191,0.061,0.399-0.047,0.459-0.239c0.061-0.193-0.047-0.399-0.239-0.459c-1.585-0.499-2.456,0.582-2.695,1.223
							c-0.07,0.189,0.025,0.4,0.215,0.471C457.729,106.05,457.81,106.051,457.884,106.028z"/>
					</g>
				</g>
			</g>
			<g>
				<linearGradient id="SVGID_29_" gradientUnits="userSpaceOnUse" x1="494.5352" y1="114.6768" x2="415.6823" y2="125.5852">
					<stop  offset="0" style="stop-color:#325FC7"/>
					<stop  offset="0.9695" style="stop-color:#5796FF"/>
				</linearGradient>
				<path fill="url(#SVGID_29_)" d="M464.025,87.828c2.315,0.241,4.027,0.86,5.985,2.021c3.951,2.344,7.68,5.262,9.689,9.563
					c1.64,3.509,1.573,7.478,0.875,11.206c-0.447,2.39-2.062,4.612-2.286,6.977c-0.226,2.362,0.53,4.025,1.333,6.146
					c0.872,2.301,0.33,5.13-0.596,7.333c-0.933,2.221-3.008,3.796-3.025,6.424c-0.009,1.38,0.788,2.122,1.067,3.379
					c0.213,0.961,0.082,2.367-0.274,3.267c-0.995,2.507-3.812,3.956-6.239,4.657c-1.829,0.528-4.977,1.753-6.836,0.784
					c1.744-0.687,3.075-0.995,3.89-2.827c0.734-1.651,1.27-3.747,0.529-5.476c-1.098-2.562-5.672-5.044-1.833-7.57
					c2.288-1.505,5.715-1.866,5.993-5.154c0.154-1.827-0.089-3.146-0.868-4.76c-0.563-1.164-1.689-2.197-1.969-3.48
					c-0.675-3.103,3.595-4.181,4.909-6.257c1.31-2.069,0.914-4.693-0.625-6.52c-4.987-5.922-14.002-8.231-16.389-9.194
					c-2.225-0.898-3.541-2.073-2.936-5.104C455.506,87.818,462.833,87.704,464.025,87.828z"/>
			</g>
			<g>
				<linearGradient id="SVGID_30_" gradientUnits="userSpaceOnUse" x1="495.5889" y1="133.7393" x2="448.9561" y2="184.7991">
					<stop  offset="0.0305" style="stop-color:#5796FF"/>
					<stop  offset="0.9974" style="stop-color:#D0EEFD"/>
				</linearGradient>
				<path fill="url(#SVGID_30_)" d="M486.03,149.2c-0.903,3.32-2.56,6.384-4.693,9.084l-10.634,15.07
					c-4.568,6.49-11.359,11.077-19.081,12.91l-7.198,1.709l-3.116-7.358l15.53-7.181c0.938-0.434,1.727-1.143,2.258-2.028
					l18.045-30.042c1.044-1.726,2.904-2.895,4.923-2.851C486.039,138.61,487.783,142.709,486.03,149.2z"/>
				<path fill="#E37699" d="M444.424,187.972l-4.214,1c-0.788-2.028-1.939-4.985-2.568-6.659l3.666-1.7L444.424,187.972z"/>
				<linearGradient id="SVGID_31_" gradientUnits="userSpaceOnUse" x1="445.5723" y1="179.936" x2="426.3151" y2="187.6832">
					<stop  offset="0.0266" style="stop-color:#E37699"/>
					<stop  offset="0.1758" style="stop-color:#E892AA"/>
					<stop  offset="0.339" style="stop-color:#ECA9B7"/>
					<stop  offset="0.5151" style="stop-color:#EFB9C1"/>
					<stop  offset="0.7117" style="stop-color:#F0C3C6"/>
					<stop  offset="0.9702" style="stop-color:#F1C6C8"/>
				</linearGradient>
				<path fill="url(#SVGID_31_)" d="M437.642,182.314c0.629,1.674,1.78,4.631,2.568,6.659l-6.96,1.646
					c-3.355,1.257-6.074,0.071-7.756-1.133c-1.47-1.054-3.206-1.656-5.012-1.86c-0.213-0.026-0.416-0.062-0.611-0.088
					c-1.877-0.301-2.337-2.815-0.69-3.772c5.613-3.258,12.635,1.24,12.635,1.24L437.642,182.314z"/>
			</g>
		</g>
		<g>
			<g>
				<radialGradient id="SVGID_32_" cx="438.3594" cy="335.022" r="0.0176" gradientUnits="userSpaceOnUse">
					<stop  offset="0" style="stop-color:#EBC2A0"/>
					<stop  offset="0.2806" style="stop-color:#EBC09F"/>
					<stop  offset="0.3816" style="stop-color:#EAB999"/>
					<stop  offset="0.4537" style="stop-color:#E8AE90"/>
					<stop  offset="0.5119" style="stop-color:#E69D83"/>
					<stop  offset="0.5612" style="stop-color:#E38772"/>
					<stop  offset="0.5807" style="stop-color:#E27C69"/>
				</radialGradient>
				<polygon fill="url(#SVGID_32_)" points="438.377,335.004 438.368,335.04 438.341,335.004 				"/>
				<radialGradient id="SVGID_33_" cx="419.3047" cy="335.022" r="0.0176" gradientUnits="userSpaceOnUse">
					<stop  offset="0" style="stop-color:#EBC2A0"/>
					<stop  offset="0.2806" style="stop-color:#EBC09F"/>
					<stop  offset="0.3816" style="stop-color:#EAB999"/>
					<stop  offset="0.4537" style="stop-color:#E8AE90"/>
					<stop  offset="0.5119" style="stop-color:#E69D83"/>
					<stop  offset="0.5612" style="stop-color:#E38772"/>
					<stop  offset="0.5807" style="stop-color:#E27C69"/>
				</radialGradient>
				<polygon fill="url(#SVGID_33_)" points="419.322,335.004 419.296,335.04 419.287,335.004 				"/>
				<polygon fill="#325FC7" points="433.596,345.479 428.832,351.836 424.068,345.479 				"/>
				<path fill="#F1C6C8" d="M441.458,327.01v7.986l-7.862,10.482h-9.527l-7.862-10.482v-7.986l3.081,7.994l0.009,0.035l0.026-0.035
					l4.313-7.977c0,0,4.4,6.977,5.197,7.906c0.797-0.93,5.197-7.906,5.197-7.906l4.312,7.977l0.027,0.035l0.009-0.035
					L441.458,327.01z"/>
			</g>
			<linearGradient id="SVGID_34_" gradientUnits="userSpaceOnUse" x1="410.0078" y1="201.3643" x2="446.6302" y2="201.3643">
				<stop  offset="0.0563" style="stop-color:#E37699"/>
				<stop  offset="0.3026" style="stop-color:#E37297"/>
				<stop  offset="0.5521" style="stop-color:#E26693"/>
				<stop  offset="0.8023" style="stop-color:#E0528B"/>
				<stop  offset="1" style="stop-color:#DE3C82"/>
			</linearGradient>
			<path fill="url(#SVGID_34_)" d="M441.458,191v23.287h-25.252V191c0-1.417,1.142-2.559,2.559-2.559h20.135
				C440.315,188.441,441.458,189.583,441.458,191z"/>
			<linearGradient id="SVGID_35_" gradientUnits="userSpaceOnUse" x1="416.2061" y1="276.3052" x2="441.458" y2="276.3052">
				<stop  offset="0.0052" style="stop-color:#FEF9B1"/>
				<stop  offset="0.1558" style="stop-color:#FEF5AB"/>
				<stop  offset="0.3585" style="stop-color:#FDEB9A"/>
				<stop  offset="0.591" style="stop-color:#FDD97E"/>
				<stop  offset="0.8436" style="stop-color:#FCC157"/>
				<stop  offset="0.9994" style="stop-color:#FBB03B"/>
			</linearGradient>
			<path fill="url(#SVGID_35_)" d="M416.206,217.571h25.252V327.01l-3.081,7.994l-0.009,0.035l-0.027-0.035l-4.312-7.977
				c0,0-4.4,6.977-5.197,7.906c-0.797-0.93-5.197-7.906-5.197-7.906l-4.313,7.977l-0.026,0.035l-0.009-0.035l-3.081-7.994V217.571z"
				/>
			<linearGradient id="SVGID_36_" gradientUnits="userSpaceOnUse" x1="416.2061" y1="215.9292" x2="441.458" y2="215.9292">
				<stop  offset="0.0305" style="stop-color:#5796FF"/>
				<stop  offset="1" style="stop-color:#325FC7"/>
			</linearGradient>
			<rect x="416.206" y="214.287" fill="url(#SVGID_36_)" width="25.252" height="3.284"/>
		</g>
	</g>
</g>
</svg>
