<?xml version="1.0" encoding="utf-8"?>
<!-- Generator: Adobe Illustrator 16.0.0, SVG Export Plug-In . SVG Version: 6.00 Build 0)  -->
<!DOCTYPE svg PUBLIC "-//W3C//DTD SVG 1.1//EN" "http://www.w3.org/Graphics/SVG/1.1/DTD/svg11.dtd">
<svg version="1.1"
	 id="Layer_1" xmlns:dc="http://purl.org/dc/elements/1.1/" xmlns:cc="http://creativecommons.org/ns#" xmlns:sodipodi="http://sodipodi.sourceforge.net/DTD/sodipodi-0.dtd" xmlns:rdf="http://www.w3.org/1999/02/22-rdf-syntax-ns#" xmlns:inkscape="http://www.inkscape.org/namespaces/inkscape" xmlns:svg="http://www.w3.org/2000/svg"
	 xmlns="http://www.w3.org/2000/svg" xmlns:xlink="http://www.w3.org/1999/xlink" x="0px" y="0px" width="100px" height="100px"
	 viewBox="0 0 100 100" enable-background="new 0 0 100 100" xml:space="preserve">
<path fill="#4D4D4D" stroke="#4D4D4D" stroke-width="4" stroke-miterlimit="10" d="M49.92,8.438
	c-22.15,0-40.129,17.979-40.129,40.13c0,22.15,17.979,40.13,40.129,40.13c22.013,0,39.886-17.759,40.118-39.718
	c0.003-0.281,0.01-0.541,0.012-0.834L50.342,8.438H49.92z M48.902,10.534v38.324c0,0.562,0.455,1.018,1.018,1.018h38.023
	C87.249,70.313,70.527,86.66,49.92,86.66c-21.05,0-38.092-17.043-38.092-38.092C11.828,27.862,28.328,11.08,48.902,10.534z
	 M50.938,12.206l35.633,35.633H50.938V12.206z"/>
<path fill="#4D4D4D" stroke="#4D4D4D" stroke-width="2" stroke-miterlimit="10" d="M38.91,56.292c-1.322,0-2.549,0.257-3.724,0.71
	c-1.172,0.456-2.213,1.099-3.085,1.986c-0.868,0.869-1.546,1.96-2.057,3.229c-0.493,1.264-0.747,2.716-0.747,4.359
	c0,1.646,0.223,3.097,0.675,4.362c0.454,1.269,1.103,2.36,1.916,3.227c0.833,0.873,1.84,1.535,3.013,1.988
	c1.175,0.453,2.448,0.673,3.868,0.673c1.532,0,2.902-0.126,4.079-0.355c1.171-0.227,1.99-0.413,2.482-0.601V66.4h-3.583v7.058
	c-0.264,0.076-0.608,0.158-1.064,0.213c-0.456,0.037-1.008,0.072-1.63,0.07c-1.005,0-1.87-0.189-2.625-0.531
	c-0.737-0.359-1.37-0.829-1.881-1.456c-0.489-0.623-0.867-1.397-1.134-2.271c-0.246-0.885-0.355-1.845-0.355-2.906
	c0-2.229,0.503-3.964,1.563-5.212c1.077-1.269,2.656-1.914,4.68-1.914c0.928,0,1.796,0.142,2.627,0.39
	c0.849,0.225,1.556,0.509,2.127,0.851l1.06-2.943c-0.128-0.078-0.367-0.185-0.708-0.355c-0.319-0.171-0.729-0.346-1.239-0.497
	c-0.514-0.149-1.125-0.276-1.846-0.388C40.622,56.373,39.816,56.292,38.91,56.292L38.91,56.292z M49.48,56.757v19.681h3.579V56.757
	H49.48z M57.813,56.757v19.681h3.547v-8.581h7.874v-3.052H61.36v-4.998h8.863v-3.054h-12.41V56.757z"/>
</svg>
