<?xml version="1.0" encoding="utf-8"?>
<!-- Generator: Adobe Illustrator 16.0.0, SVG Export Plug-In . SVG Version: 6.00 Build 0)  -->
<!DOCTYPE svg PUBLIC "-//W3C//DTD SVG 1.1//EN" "http://www.w3.org/Graphics/SVG/1.1/DTD/svg11.dtd">
<svg version="1.1"
	 id="Layer_1" xmlns:rdf="http://www.w3.org/1999/02/22-rdf-syntax-ns#" xmlns:sodipodi="http://sodipodi.sourceforge.net/DTD/sodipodi-0.dtd" xmlns:dc="http://purl.org/dc/elements/1.1/" xmlns:svg="http://www.w3.org/2000/svg" xmlns:cc="http://creativecommons.org/ns#" xmlns:inkscape="http://www.inkscape.org/namespaces/inkscape"
	 xmlns="http://www.w3.org/2000/svg" xmlns:xlink="http://www.w3.org/1999/xlink" x="0px" y="0px" width="100px" height="100px"
	 viewBox="0 0 100 100" enable-background="new 0 0 100 100" xml:space="preserve">
<g transform="translate(50 50) scale(0.69 0.69) rotate(0) translate(-50 -50)">
	<g>
		<path fill="#4D4D4D" d="M78.409,9.893H21.591c-6.45,0-11.698,5.248-11.698,11.698v56.819c0,6.45,5.247,11.698,11.698,11.698
			h56.819c6.451,0,11.698-5.248,11.698-11.698V21.591C90.107,15.141,84.86,9.893,78.409,9.893z M86.765,21.591v26.738h-8.979
			c1.456-1.962,2.294-4.397,2.294-6.99c0-6.282-4.873-11.393-10.862-11.393c-5.99,0-10.862,5.111-10.862,11.393
			c0,2.592,0.836,5.028,2.293,6.99h-8.977V34.96c0-0.078-0.034-0.145-0.045-0.22c-0.017-0.117-0.028-0.23-0.068-0.34
			c-0.037-0.102-0.092-0.188-0.147-0.28c-0.054-0.092-0.106-0.183-0.177-0.264c-0.078-0.087-0.171-0.151-0.266-0.221
			c-0.061-0.046-0.105-0.107-0.173-0.144c-0.024-0.013-0.052-0.011-0.076-0.024c-0.098-0.047-0.205-0.068-0.313-0.096
			c-0.111-0.028-0.218-0.061-0.331-0.066c-0.026-0.002-0.048-0.016-0.075-0.016c-0.077,0-0.143,0.034-0.217,0.043
			c-0.118,0.016-0.233,0.03-0.344,0.07c-0.103,0.037-0.189,0.091-0.281,0.146c-0.092,0.055-0.182,0.105-0.262,0.177
			c-0.088,0.079-0.152,0.173-0.223,0.268c-0.045,0.061-0.107,0.103-0.144,0.172c-1.379,2.553-4.134,4.137-7.19,4.137
			c-4.439,0-8.05-3.373-8.05-7.52s3.611-7.52,8.05-7.52c3.056,0,5.811,1.584,7.19,4.137c0.038,0.069,0.099,0.113,0.144,0.175
			c0.071,0.093,0.134,0.186,0.223,0.265c0.079,0.071,0.169,0.121,0.261,0.176c0.093,0.056,0.179,0.112,0.282,0.148
			c0.108,0.038,0.218,0.052,0.333,0.068c0.077,0.011,0.146,0.045,0.227,0.045c0.028,0,0.052-0.014,0.079-0.016
			c0.108-0.004,0.212-0.039,0.318-0.064c0.111-0.028,0.221-0.05,0.322-0.099c0.025-0.011,0.052-0.01,0.076-0.023
			c0.068-0.037,0.112-0.098,0.173-0.144c0.095-0.071,0.188-0.134,0.266-0.221c0.071-0.081,0.123-0.171,0.177-0.263
			c0.055-0.092,0.11-0.178,0.147-0.281c0.04-0.11,0.051-0.222,0.068-0.34c0.011-0.075,0.045-0.142,0.045-0.22V13.235h26.738
			C83.016,13.235,86.765,16.984,86.765,21.591z M21.591,13.235h26.738v8.978c-1.962-1.457-4.397-2.293-6.99-2.293
			c-6.282,0-11.393,4.872-11.393,10.862c0,5.99,5.111,10.862,11.393,10.862c2.592,0,5.028-0.836,6.99-2.293v8.977H34.96
			c-0.083,0-0.158,0.037-0.238,0.048c-0.109,0.016-0.214,0.027-0.317,0.064c-0.108,0.038-0.2,0.096-0.297,0.154
			c-0.087,0.053-0.173,0.101-0.25,0.17c-0.089,0.08-0.156,0.173-0.226,0.27c-0.045,0.06-0.105,0.103-0.143,0.171
			c-0.013,0.024-0.011,0.05-0.024,0.075c-0.047,0.098-0.068,0.207-0.096,0.316c-0.027,0.11-0.061,0.216-0.066,0.327
			c-0.002,0.027-0.016,0.05-0.016,0.077c0,0.079,0.034,0.145,0.045,0.221c0.016,0.117,0.028,0.228,0.068,0.339
			c0.037,0.103,0.092,0.19,0.148,0.282c0.055,0.092,0.105,0.183,0.175,0.262c0.079,0.088,0.173,0.151,0.268,0.222
			c0.061,0.045,0.103,0.106,0.172,0.144c2.552,1.379,4.137,4.136,4.137,7.191c0,4.438-3.373,8.05-7.52,8.05s-7.52-3.612-7.52-8.05
			c0-3.056,1.584-5.813,4.137-7.191c0.069-0.038,0.111-0.099,0.173-0.144c0.095-0.071,0.188-0.134,0.267-0.222
			c0.071-0.079,0.12-0.17,0.175-0.262c0.056-0.092,0.112-0.179,0.148-0.282c0.041-0.111,0.052-0.222,0.068-0.339
			c0.011-0.076,0.045-0.143,0.045-0.221c0-0.027-0.013-0.05-0.016-0.077c-0.004-0.111-0.039-0.217-0.066-0.327
			c-0.028-0.109-0.047-0.217-0.096-0.316c-0.013-0.025-0.011-0.051-0.024-0.075c-0.037-0.068-0.098-0.111-0.144-0.173
			c-0.069-0.096-0.135-0.188-0.223-0.268c-0.081-0.07-0.169-0.12-0.261-0.174c-0.092-0.056-0.179-0.112-0.282-0.148
			c-0.11-0.041-0.221-0.052-0.338-0.068c-0.076-0.011-0.143-0.046-0.222-0.046H13.235V21.591
			C13.235,16.984,16.984,13.235,21.591,13.235z M13.235,78.409V51.671h8.978c-1.457,1.962-2.294,4.397-2.294,6.99
			c0,6.281,4.872,11.392,10.862,11.392c5.99,0,10.862-5.111,10.862-11.392c0-2.593-0.836-5.029-2.293-6.99h8.977V65.04
			c0,0.078,0.035,0.144,0.045,0.219c0.017,0.119,0.028,0.231,0.069,0.341c0.036,0.102,0.091,0.188,0.146,0.28
			c0.055,0.092,0.105,0.183,0.177,0.263c0.079,0.088,0.171,0.151,0.266,0.222c0.061,0.045,0.104,0.106,0.173,0.144
			c0.025,0.013,0.051,0.011,0.075,0.023c0.098,0.045,0.202,0.067,0.306,0.093c0.116,0.031,0.227,0.067,0.342,0.071
			c0.025,0,0.046,0.014,0.071,0.014c0.073,0,0.134-0.033,0.202-0.041c0.125-0.017,0.246-0.03,0.364-0.074
			c0.097-0.035,0.178-0.088,0.266-0.14c0.096-0.055,0.19-0.108,0.273-0.184c0.086-0.078,0.15-0.17,0.218-0.262
			c0.045-0.064,0.109-0.106,0.147-0.177c1.379-2.552,4.134-4.137,7.191-4.137c4.438,0,8.05,3.374,8.05,7.521
			c0,4.145-3.612,7.52-8.05,7.52c-3.057,0-5.813-1.585-7.191-4.137c-0.038-0.069-0.099-0.112-0.144-0.173
			c-0.071-0.095-0.134-0.188-0.222-0.268c-0.081-0.072-0.171-0.122-0.262-0.175c-0.093-0.057-0.18-0.11-0.284-0.147
			c-0.108-0.04-0.219-0.052-0.333-0.068c-0.077-0.011-0.146-0.045-0.225-0.045c-0.027,0-0.051,0.014-0.079,0.016
			c-0.109,0.004-0.212,0.038-0.321,0.065c-0.11,0.028-0.22,0.048-0.32,0.098c-0.025,0.011-0.051,0.01-0.075,0.023
			c-0.069,0.037-0.113,0.099-0.173,0.144c-0.095,0.069-0.188,0.133-0.266,0.221c-0.071,0.081-0.122,0.171-0.177,0.263
			c-0.056,0.092-0.11,0.178-0.146,0.28c-0.041,0.11-0.052,0.224-0.069,0.341c-0.01,0.075-0.045,0.142-0.045,0.221v13.369H21.591
			C16.984,86.765,13.235,83.016,13.235,78.409z M78.409,86.765H51.671v-8.979c1.962,1.456,4.397,2.294,6.99,2.294
			c6.281,0,11.392-4.873,11.392-10.862s-5.111-10.862-11.392-10.862c-2.593,0-5.029,0.836-6.99,2.293v-8.977H65.04
			c0.076,0,0.143-0.034,0.218-0.044c0.117-0.016,0.232-0.03,0.345-0.069c0.099-0.037,0.184-0.091,0.272-0.144
			c0.096-0.054,0.188-0.106,0.27-0.181c0.086-0.076,0.15-0.168,0.218-0.262c0.047-0.062,0.109-0.106,0.147-0.176
			c0.011-0.024,0.011-0.051,0.023-0.076c0.048-0.1,0.069-0.207,0.096-0.316c0.027-0.11,0.061-0.216,0.065-0.327
			c0.003-0.027,0.017-0.05,0.017-0.077c0-0.079-0.034-0.145-0.047-0.221c-0.016-0.117-0.027-0.228-0.068-0.339
			c-0.035-0.103-0.092-0.19-0.147-0.282c-0.054-0.092-0.105-0.182-0.176-0.261c-0.079-0.088-0.171-0.154-0.267-0.223
			c-0.061-0.045-0.103-0.107-0.173-0.144c-2.552-1.379-4.137-4.136-4.137-7.19c0-4.439,3.374-8.05,7.521-8.05
			c4.145,0,7.52,3.611,7.52,8.05c0,3.055-1.585,5.811-4.137,7.19c-0.069,0.038-0.112,0.099-0.173,0.144
			c-0.095,0.069-0.188,0.134-0.266,0.223c-0.072,0.079-0.122,0.169-0.177,0.261c-0.055,0.092-0.11,0.179-0.147,0.282
			c-0.041,0.111-0.052,0.222-0.068,0.339c-0.011,0.076-0.045,0.143-0.045,0.221c0,0.027,0.013,0.05,0.016,0.077
			c0.004,0.111,0.038,0.217,0.067,0.327c0.027,0.109,0.047,0.216,0.095,0.316c0.013,0.025,0.011,0.052,0.024,0.076
			c0.078,0.143,0.174,0.269,0.284,0.381c0.01,0.009,0.021,0.014,0.03,0.023c0.13,0.126,0.282,0.222,0.442,0.297
			c0.047,0.023,0.091,0.041,0.14,0.059c0.184,0.068,0.374,0.115,0.57,0.116c0.001,0,0.003,0,0.004,0h13.369v26.738
			C86.765,83.016,83.016,86.765,78.409,86.765z"/>
	</g>
</g>
</svg>
