<?xml version="1.0" encoding="utf-8"?>
<!-- Generator: Adobe Illustrator 16.0.0, SVG Export Plug-In . SVG Version: 6.00 Build 0)  -->
<!DOCTYPE svg PUBLIC "-//W3C//DTD SVG 1.1//EN" "http://www.w3.org/Graphics/SVG/1.1/DTD/svg11.dtd">
<svg version="1.1"
	 id="Layer_1" xmlns:dc="http://purl.org/dc/elements/1.1/" xmlns:cc="http://creativecommons.org/ns#" xmlns:sodipodi="http://sodipodi.sourceforge.net/DTD/sodipodi-0.dtd" xmlns:rdf="http://www.w3.org/1999/02/22-rdf-syntax-ns#" xmlns:inkscape="http://www.inkscape.org/namespaces/inkscape" xmlns:svg="http://www.w3.org/2000/svg"
	 xmlns="http://www.w3.org/2000/svg" xmlns:xlink="http://www.w3.org/1999/xlink" x="0px" y="0px" width="100px" height="100px"
	 viewBox="0 0 100 100" enable-background="new 0 0 100 100" xml:space="preserve">
<g transform="translate(50 50) scale(0.69 0.69) rotate(0) translate(-50 -50)">
	<g transform="translate(0,-952.36218)">
		<path fill="#4D4D4D" d="M-9.57,949.573c-5.115,0-9.328,4.215-9.328,9.328v87.067c0,5.112,4.213,9.328,9.328,9.328H111.7
			c5.112,0,9.327-4.216,9.327-9.328v-87.067c0-5.113-4.215-9.328-9.327-9.328H-9.57z M-9.57,955.792H111.7
			c1.776,0,3.108,1.333,3.108,3.109v65.056l-26.042-20.843c-1.029-0.825-2.6-0.886-3.693-0.146l-22.982,15.791l-30.849-24.972
			c-0.647-0.528-1.507-0.779-2.332-0.681c-0.488,0.067-0.96,0.252-1.36,0.536l-40.231,27.74v-62.48
			C-12.68,957.125-11.347,955.792-9.57,955.792L-9.57,955.792z M61.949,971.339c-6.835,0-12.438,5.606-12.438,12.439
			c0,6.831,5.604,12.438,12.438,12.438c6.83,0,12.435-5.607,12.435-12.438C74.384,976.945,68.78,971.339,61.949,971.339z
			 M61.949,977.559c3.47,0,6.217,2.748,6.217,6.219c0,3.471-2.747,6.22-6.217,6.22c-3.475,0-6.22-2.749-6.22-6.22
			C55.729,980.307,58.475,977.559,61.949,977.559z M29.152,1000.053l30.848,24.974c1.03,0.824,2.604,0.886,3.697,0.146
			l22.931-15.789l28.18,22.542v14.043c0,1.775-1.332,3.108-3.108,3.108H-9.57c-1.776,0-3.11-1.333-3.11-3.108v-17.053
			L29.152,1000.053L29.152,1000.053z"/>
	</g>
</g>
</svg>
