<?xml version="1.0" ?><svg id="Layer_1" style="enable-background:new 0 0 50 50;" version="1.1" viewBox="0 0 50 50" xml:space="preserve" xmlns="http://www.w3.org/2000/svg" xmlns:xlink="http://www.w3.org/1999/xlink"><style type="text/css">
	.st0{fill:#314A5E;}
	.st1{fill:#C7C7C7;}
	.st2{fill:#E8E8E8;}
	.st3{fill:#4EA2DC;}
	.st4{fill:#F2F2F2;}
	.st5{fill:#FC8C7A;}
	.st6{fill:#FFD05C;}
	.st7{fill:#FF7058;}
	.st8{fill:#B0AFB0;}
	.st9{fill:#FFBA40;}
	.st10{fill:#FFFFFF;}
	.st11{fill:#68BBF1;}
	.st12{fill:#9A9A9A;}
	.st13{fill:#2B3A4D;}
	.st14{fill:#3095CE;}
</style><g><rect class="st11" height="6" width="8.2" x="25" y="1.1"/><g><path class="st8" d="M48.8,50h-2.6c-0.6,0-1.1-0.5-1.1-1.1c0-0.6,0.5-1.1,1.1-1.1h2.6c0.6,0,1.1,0.5,1.1,1.1    C49.9,49.5,49.4,50,48.8,50z"/></g><g><path class="st8" d="M3.8,50H1.2c-0.6,0-1.1-0.5-1.1-1.1c0-0.6,0.5-1.1,1.1-1.1h2.6c0.6,0,1.1,0.5,1.1,1.1C4.9,49.5,4.4,50,3.8,50    z"/></g><g><path class="st3" d="M25,14.6c-0.6,0-1.1-0.5-1.1-1.1V1.1C23.9,0.5,24.4,0,25,0s1.1,0.5,1.1,1.1v12.5C26.1,14.1,25.6,14.6,25,14.6    z"/></g><polygon class="st6" points="34.2,30.2 34.2,23.1 15.8,23.1 15.8,30.2 3.8,30.2 3.8,50 46.2,50 46.2,30.2  "/><polygon class="st7" points="25,13.2 12.3,23.1 37.7,23.1  "/><rect class="st0" height="13.4" width="9.6" x="20.2" y="36.6"/><rect class="st3" height="6.1" width="6.1" x="8.9" y="39.5"/><rect class="st3" height="6.1" width="6.1" x="35" y="39.5"/><circle class="st3" cx="25" cy="29.8" r="3.1"/></g></svg>