<?xml version="1.0" encoding="utf-8"?>
<!-- Generator: Adobe Illustrator 16.0.0, SVG Export Plug-In . SVG Version: 6.00 Build 0)  -->
<!DOCTYPE svg PUBLIC "-//W3C//DTD SVG 1.1//EN" "http://www.w3.org/Graphics/SVG/1.1/DTD/svg11.dtd">
<svg version="1.1" id="Layer_1" xmlns="http://www.w3.org/2000/svg" xmlns:xlink="http://www.w3.org/1999/xlink" x="0px" y="0px"
	 width="288px" height="288px" viewBox="0 0 288 288" enable-background="new 0 0 288 288" xml:space="preserve">
<g transform="translate(50 50) scale(0.69 0.69) rotate(0) translate(-50 -50)" display="none">
	<g display="inline">
		<path fill="#331CBF" d="M65.117,84.196c11.733,0,21.281-9.542,21.281-21.276c0-11.731-9.548-21.281-21.281-21.281
			c-11.732,0-21.275,9.549-21.275,21.281C43.842,74.654,53.385,84.196,65.117,84.196z M65.117,51.829
			c6.118,0,11.099,4.973,11.099,11.091c0,6.125-4.98,11.1-11.099,11.1c-6.111,0-11.085-4.974-11.085-11.1
			C54.032,56.802,58.999,51.829,65.117,51.829z"/>
		<rect x="121.358" y="38.036" fill="#331CBF" width="159.94" height="10.183"/>
		<rect x="121.358" y="77.623" fill="#331CBF" width="159.94" height="10.19"/>
		<path fill="#331CBF" d="M43.842,168.428c0,11.734,9.543,21.283,21.275,21.283c11.733,0,21.274-9.549,21.274-21.283
			c0-11.732-9.541-21.274-21.274-21.274C53.385,147.154,43.842,156.696,43.842,168.428z M76.209,168.428
			c0,6.119-4.98,11.1-11.092,11.1c-6.118,0-11.098-4.98-11.098-11.1c0-6.111,4.98-11.084,11.098-11.084
			C71.235,157.344,76.209,162.317,76.209,168.428z"/>
		<rect x="121.358" y="143.537" fill="#331CBF" width="56.242" height="10.19"/>
		<rect x="121.358" y="183.137" fill="#331CBF" width="40.055" height="10.182"/>
		<path fill="#331CBF" d="M12.716,304.356v-60.834c0-9.484,7.727-17.209,17.218-17.209H145.76v-10.19H29.934
			c-9.491,0-17.218-7.74-17.218-17.282v-60.825c0-9.484,7.647-17.195,17.074-17.267c0.057,0,0.115,0.015,0.18,0.015h280.162
			c0.058,0,0.116-0.015,0.174-0.015c9.426,0.087,17.08,7.783,17.08,17.267v10.586h10.175v-10.586
			c0-9.239-4.604-17.382-11.604-22.362c6.977-4.973,11.577-13.081,11.577-22.284V32.473c0-15.106-12.296-27.4-27.4-27.4H29.97
			c-15.113,0-27.4,12.294-27.4,27.4V93.37c0,9.203,4.59,17.311,11.567,22.284c-6.99,4.98-11.603,13.131-11.603,22.362v60.825
			c0,9.239,4.613,17.39,11.603,22.369c-6.99,4.972-11.603,13.103-11.603,22.312v60.834c0,15.11,12.295,27.399,27.401,27.399h122.53
			v-10.183H29.934C20.443,321.572,12.716,313.853,12.716,304.356z M12.745,93.37V32.473c0-9.492,7.726-17.217,17.217-17.217h280.163
			c9.494,0,17.217,7.725,17.217,17.217V93.37c0,9.433-7.624,17.102-17.045,17.195c-0.048,0-0.093-0.014-0.144-0.014H29.934
			c-0.051,0-0.102,0.014-0.144,0.014C20.376,110.472,12.745,102.803,12.745,93.37z"/>
		<path fill="#331CBF" d="M43.842,273.944c0,11.733,9.543,21.279,21.275,21.279c11.733,0,21.274-9.546,21.274-21.279
			c0-11.734-9.541-21.276-21.274-21.276C53.385,252.668,43.842,262.21,43.842,273.944z M76.209,273.944
			c0,6.117-4.98,11.089-11.092,11.089c-6.118,0-11.098-4.972-11.098-11.089c0-6.118,4.98-11.093,11.098-11.093
			C71.235,262.851,76.209,267.826,76.209,273.944z"/>
		<path fill="#331CBF" d="M271.953,171.16c-53.605,0-97.207,43.607-97.207,97.196c0,53.606,43.602,97.212,97.207,97.212
			c53.595,0,97.203-43.606,97.203-97.212C369.156,214.753,325.552,171.16,271.953,171.16z M271.953,355.388
			c-47.986,0-87.016-39.041-87.016-87.032c0-47.982,39.03-87.015,87.016-87.015c47.98,0,87.023,39.048,87.023,87.015
			C358.973,316.347,319.933,355.388,271.953,355.388z"/>
		<polygon fill="#331CBF" points="266.841,310.72 277.025,310.705 277.038,324.11 266.856,324.114 		"/>
		<path fill="#331CBF" d="M271.953,202.43c-17.162,0-31.22,14.003-31.271,31.307v8.765h10.182v-8.806
			c0.059-11.606,9.528-21.082,21.091-21.082c11.659,0,21.077,9.463,21.077,21.123c0,11.615-9.416,21.037-21.077,21.037h-5.092v5.145
			c0,0.815,0,37.174,0,37.174h10.176v-18.638c0-6.011,0-10.544-0.099-13.903c14.92-2.392,26.278-15.322,26.278-30.801
			C303.214,216.483,289.211,202.43,271.953,202.43z"/>
	</g>
</g>
<g transform="translate(50 50) scale(0.69 0.69) rotate(0) translate(-50 -50)">
	<path fill="#4285F4" d="M189.033-18.18c-113.299,0-205.145,91.846-205.145,205.145c0,113.305,91.846,205.145,205.145,205.145
		c113.305,0,205.145-91.839,205.145-205.145C394.177,73.666,302.338-18.18,189.033-18.18z M189.033,308.909
		c-15.241,0-27.635-12.381-27.635-27.607c0-15.26,12.394-27.655,27.635-27.655c15.24,0,27.635,12.414,27.635,27.655
		C216.672,296.528,204.273,308.909,189.033,308.909z M263.059,158.737c-5.35,8.329-12.742,18.279-27.481,29.778
		c-14.646,11.213-19.078,16.975-20.413,19.414c-0.763,1.362-1.834,4.078-2.692,9.129c-0.297,1.78-0.542,3.702-0.742,5.769
		l-1.155,12.374l-44.538,0.103l0.56-14.251c0.077-1.827,0.278-5.401,0.769-8.745c1.472-10.162,4.942-19.187,10.303-26.814
		c5.039-7.174,14.808-16.246,29.854-27.719c11.137-8.49,15.485-13.342,17.163-15.91c2.141-3.278,3.175-6.716,3.175-10.517
		c0-8.8-3.214-15.769-9.542-20.712c-6.717-5.252-16.041-7.91-27.686-7.91c-10.323,0-19.034,2.723-25.899,8.104
		c-7.272,5.646-12.375,13.459-14.801,22.627l-3.006,11.362l-43.591-4.729l3.078-14.755c4.012-19.233,13.065-34.08,26.904-44.119
		c17.931-13.021,37.184-19.615,57.224-19.615c22.137,0,40.261,5.691,57.024,17.918c15.492,11.316,24.384,29.595,24.384,50.151
		C271.951,139.748,269.039,149.246,263.059,158.737z"/>
</g>
</svg>
