<?xml version="1.0" encoding="utf-8"?>
<!-- Generator: Adobe Illustrator 16.0.0, SVG Export Plug-In . SVG Version: 6.00 Build 0)  -->
<!DOCTYPE svg PUBLIC "-//W3C//DTD SVG 1.1//EN" "http://www.w3.org/Graphics/SVG/1.1/DTD/svg11.dtd">
<svg version="1.1" id="Layer_1" xmlns="http://www.w3.org/2000/svg" xmlns:xlink="http://www.w3.org/1999/xlink" x="0px" y="0px"
	 width="114px" height="124.708px" viewBox="-5.089 0 114 124.708" enable-background="new -5.089 0 114 124.708"
	 xml:space="preserve">
<path fill="none" d="M46.619,31.102c-11.708,0-21.236,9.524-21.236,21.236c0,11.712,9.528,21.234,21.236,21.234
	c0.411,0,0.813-0.036,1.219-0.062V58.996H66.77c0.696-2.097,1.085-4.332,1.085-6.658C67.857,40.626,58.329,31.102,46.619,31.102z
	 M56.378,54.244h-9.759c-1.157,0-2.093-0.937-2.093-2.09V36.817c0-1.156,0.936-2.091,2.093-2.091c1.155,0,2.09,0.935,2.09,2.091
	v13.247h7.667c1.156,0,2.09,0.936,2.09,2.09C58.468,53.308,57.533,54.244,56.378,54.244z"/>
<path fill="#2B80C3" d="M42.239,38.752h-9.839V21.756c0-1.483-1.202-2.683-2.682-2.683c-1.483,0-2.685,1.201-2.685,2.683v19.681
	c0,1.481,1.202,2.684,2.685,2.684h12.524c1.482,0,2.682-1.203,2.681-2.683C44.921,39.954,43.722,38.752,42.239,38.752z"/>
<path fill="#2B80C3" d="M30.261,65.732c-16.461,0-29.856-13.391-29.856-29.854c0-16.463,13.395-29.856,29.856-29.856
	c16.465,0,29.86,13.393,29.858,29.856c0,3.272-0.548,6.41-1.528,9.36h6.154c0.813-2.987,1.25-6.124,1.25-9.361
	c0-19.708-16.028-35.738-35.734-35.738c-19.706,0-35.736,16.032-35.736,35.738c0,19.708,16.035,35.737,35.736,35.737
	c0.576,0,1.147-0.019,1.715-0.044v-5.925C31.406,65.678,30.841,65.732,30.261,65.732z"/>
<g>
	<g enable-background="new    ">
		<g>
			<path fill="#2E85BF" stroke="#2E85BF" stroke-miterlimit="10" d="M74.104,92.646c0.185,0.097,0.284,0.097,0.466,0.097
				c0.372,0,0.652-0.192,0.838-0.468c0.278-0.462,0.099-1.024-0.37-1.302c-3.453-1.869-8.292-4.843-12.859-9.04
				c5.869-5.594,10.997-13.045,12.392-22.369h9.599c0.562,0,0.933-0.366,0.933-0.929c0-0.557-0.371-0.929-0.933-0.929H62.086v-5.501
				c0-0.558-0.378-0.929-0.932-0.929c-0.56,0-0.934,0.371-0.934,0.929v5.501H38.327c-0.563,0-0.935,0.372-0.935,0.929
				c0,0.565,0.371,0.929,0.935,0.929h34.288c-1.3,8.672-6.335,15.75-11.932,21.063c-3.909-3.729-7.451-8.294-9.778-13.698
				c-0.189-0.472-0.746-0.651-1.212-0.472c-0.466,0.195-0.652,0.749-0.466,1.219c2.327,5.588,6.057,10.339,10.157,14.16
				c-8.668,7.829-18.082,11.651-18.269,11.745c-0.46,0.183-0.744,0.742-0.552,1.208c0.188,0.376,0.462,0.564,0.836,0.564
				c0.096,0,0.278,0,0.371-0.093c0.651-0.278,10.251-4.195,18.913-12.021C65.528,87.615,70.563,90.781,74.104,92.646z"/>
			<path fill="#2E85BF" stroke="#2E85BF" stroke-miterlimit="10" d="M106.346,115.852l-6.24-14.537l0,0L87.43,71.867
				c-0.187-0.461-0.741-0.65-1.208-0.461l-0.097,0.091l-0.093-0.091c-0.463-0.189-1.026,0-1.216,0.461l-12.668,29.447l0,0
				l-6.247,14.537c-0.184,0.464,0,1.028,0.468,1.212c0.094,0.091,0.283,0.091,0.377,0.091c0.368,0,0.739-0.188,0.837-0.564
				l5.964-13.972h25.062l5.97,13.972c0.186,0.377,0.467,0.565,0.839,0.565c0.089,0,0.276,0,0.369-0.092
				C106.346,116.88,106.627,116.316,106.346,115.852z M74.385,100.752l11.74-27.299l11.739,27.299H74.385z"/>
		</g>
	</g>
</g>
</svg>
