<?xml version="1.0" encoding="utf-8"?>
<!-- Generator: Adobe Illustrator 16.0.0, SVG Export Plug-In . SVG Version: 6.00 Build 0)  -->
<!DOCTYPE svg PUBLIC "-//W3C//DTD SVG 1.1//EN" "http://www.w3.org/Graphics/SVG/1.1/DTD/svg11.dtd">
<svg version="1.1" id="Layer_1" xmlns="http://www.w3.org/2000/svg" xmlns:xlink="http://www.w3.org/1999/xlink" x="0px" y="0px"
	 width="100px" height="100px" viewBox="0 0 100 100" enable-background="new 0 0 100 100" xml:space="preserve">
<g transform="translate(50 50) scale(0.69 0.69) rotate(0) translate(-50 -50)">
	<g>
		<g>
			<path fill="#4D4D4D" d="M50,9.964c-23.012,0-41.667,18.654-41.667,41.667c0,23.012,18.655,41.667,41.667,41.667
				c23.011,0,41.667-18.655,41.667-41.667C91.667,28.617,73.011,9.964,50,9.964z M50,89.13c-3.298,0-7.552-6.145-10.151-16.667
				h20.301C57.552,82.985,53.298,89.13,50,89.13z M38.956,68.297c-0.794-4.312-1.306-9.202-1.414-14.583h24.915
				c-0.108,5.381-0.62,10.271-1.414,14.583H38.956z M12.605,53.714h20.771c0.102,5.163,0.566,10.083,1.353,14.583H16.457
				C14.242,63.859,12.893,58.931,12.605,53.714z M50,14.13c3.298,0,7.552,6.145,10.151,16.667H39.849
				C42.448,20.276,46.702,14.13,50,14.13z M61.044,34.964c0.794,4.312,1.306,9.202,1.414,14.583H37.542
				c0.108-5.381,0.62-10.271,1.414-14.583H61.044z M33.376,49.547H12.605c0.289-5.217,1.638-10.145,3.852-14.583h18.272
				C33.942,39.464,33.478,44.384,33.376,49.547z M66.624,53.714h20.771c-0.289,5.217-1.638,10.145-3.852,14.583H65.271
				C66.058,63.796,66.522,58.877,66.624,53.714z M66.624,49.547c-0.102-5.163-0.566-10.083-1.353-14.583h18.272
				c2.215,4.438,3.564,9.367,3.852,14.583H66.624z M81.159,30.797h-16.74c-1.537-6.635-3.773-12.133-6.472-15.801
				C67.575,17.084,75.841,22.869,81.159,30.797z M42.053,14.997c-2.699,3.667-4.935,9.166-6.472,15.801h-16.74
				C24.159,22.869,32.425,17.084,42.053,14.997z M18.841,72.464h16.74c1.537,6.635,3.773,12.133,6.472,15.801
				C32.425,86.177,24.159,80.394,18.841,72.464z M57.947,88.264c2.699-3.667,4.935-9.166,6.472-15.801h16.74
				C75.841,80.394,67.575,86.177,57.947,88.264z"/>
		</g>
	</g>
</g>
</svg>
