<?xml version="1.0" encoding="utf-8"?>
<!-- Generator: Adobe Illustrator 16.0.0, SVG Export Plug-In . SVG Version: 6.00 Build 0)  -->
<!DOCTYPE svg PUBLIC "-//W3C//DTD SVG 1.1//EN" "http://www.w3.org/Graphics/SVG/1.1/DTD/svg11.dtd">
<svg version="1.1" id="Layer_1" xmlns="http://www.w3.org/2000/svg" xmlns:xlink="http://www.w3.org/1999/xlink" x="0px" y="0px"
	 width="37.383px" height="37.384px" viewBox="0 0 37.383 37.384" enable-background="new 0 0 37.383 37.384" xml:space="preserve">
<circle fill="#DB3236" cx="18.691" cy="18.692" r="18.691"/>
<g>
	<rect x="7.29" y="15.233" fill="#FFFFFF" width="5.682" height="13.246"/>
	<path fill="#FFFFFF" d="M27.574,18.648h0.374c0.911,0,1.649-0.738,1.649-1.648s-0.738-1.648-1.649-1.648h-3.91h-1.224h-1.557
		l0.571-2.399c0.094-0.393,0.113-0.798,0.058-1.199l-0.199-1.425c-0.094-0.672-0.396-1.299-0.865-1.79
		c-0.353-0.37-0.973-0.233-1.137,0.251l-0.922,2.714l-3.765,4.348h-1.133v12.013h1.133l5.721,0.674h6.106
		c0.911,0,1.648-0.738,1.648-1.648c0-0.911-0.737-1.648-1.648-1.648H27.2c0.91,0,1.648-0.738,1.648-1.648l0,0
		c0-0.911-0.738-1.648-1.648-1.648h0.374c0.911,0,1.648-0.738,1.648-1.648l0,0C29.223,19.385,28.485,18.648,27.574,18.648z"/>
</g>
</svg>
