<?xml version="1.0" encoding="utf-8"?>
<!-- Generator: Adobe Illustrator 16.0.0, SVG Export Plug-In . SVG Version: 6.00 Build 0)  -->
<!DOCTYPE svg PUBLIC "-//W3C//DTD SVG 1.1//EN" "http://www.w3.org/Graphics/SVG/1.1/DTD/svg11.dtd">
<svg version="1.1" id="Layer_1" xmlns="http://www.w3.org/2000/svg" xmlns:xlink="http://www.w3.org/1999/xlink" x="0px" y="0px"
	 width="17.813px" height="16.176px" viewBox="0 0 17.813 16.176" enable-background="new 0 0 17.813 16.176" xml:space="preserve">
<g>
	<path fill="#1C75BC" d="M0,8.112c0,4.448,3.619,8.064,8.065,8.064c0.312,0,0.565-0.25,0.565-0.563c0-0.313-0.253-0.566-0.565-0.566
		c-3.825,0-6.938-3.111-6.938-6.936c0-3.825,3.112-6.938,6.938-6.938c3.826,0,6.936,3.111,6.936,6.938
		c0,0.032,0.041,1.225-0.305,2.387l-0.521-1.287c-0.116-0.291-0.445-0.431-0.733-0.313c-0.29,0.116-0.428,0.446-0.311,0.734
		l1.013,2.509c0.005,0.016,0.019,0.03,0.024,0.045c0.004,0.009,0.004,0.021,0.008,0.03c0.009,0.01,0.018,0.018,0.026,0.026
		c0.014,0.021,0.027,0.039,0.044,0.06c0.019,0.021,0.035,0.038,0.057,0.055c0.018,0.014,0.035,0.027,0.054,0.042
		c0.024,0.016,0.045,0.026,0.068,0.038c0.021,0.011,0.045,0.02,0.065,0.026c0.028,0.006,0.053,0.012,0.079,0.018
		c0.014,0.002,0.025,0.009,0.041,0.011c0.01,0.002,0.019-0.002,0.024-0.002c0.012,0.002,0.021,0.004,0.029,0.004
		c0.02,0,0.032-0.004,0.054-0.009c0.026-0.002,0.047-0.004,0.072-0.008c0.021-0.004,0.039-0.012,0.061-0.02
		c0.029-0.007,0.056-0.022,0.082-0.034c0.007,0,0.012-0.003,0.016-0.008l2.549-1.484c0.268-0.156,0.36-0.499,0.202-0.771
		c-0.158-0.27-0.502-0.359-0.772-0.202l-1.085,0.633c0.333-1.262,0.292-2.434,0.289-2.503c0-4.425-3.62-8.043-8.066-8.043
		C3.618,0.044,0,3.663,0,8.112"/>
	<path fill="#1C75BC" d="M8.285,9.197l3.272-1.37c0.287-0.121,0.426-0.453,0.305-0.74c-0.122-0.288-0.45-0.424-0.74-0.304
		L8.198,8.009L4.94,4.752c-0.219-0.22-0.577-0.22-0.796,0c-0.222,0.221-0.222,0.58,0,0.799l3.521,3.524
		c0.011,0.008,0.023,0.01,0.031,0.017c0.042,0.036,0.084,0.065,0.13,0.088c0.015,0.007,0.031,0.018,0.048,0.022
		C7.937,9.223,8,9.24,8.067,9.24c0.013,0,0.023-0.007,0.036-0.008c0.062-0.004,0.121-0.013,0.179-0.035H8.285"/>
</g>
</svg>
