<?xml version="1.0" encoding="utf-8"?>
<!-- Generator: Adobe Illustrator 16.0.0, SVG Export Plug-In . SVG Version: 6.00 Build 0)  -->
<!DOCTYPE svg PUBLIC "-//W3C//DTD SVG 1.1//EN" "http://www.w3.org/Graphics/SVG/1.1/DTD/svg11.dtd">
<svg version="1.1" id="Layer_1" xmlns="http://www.w3.org/2000/svg" xmlns:xlink="http://www.w3.org/1999/xlink" x="0px" y="0px"
	 width="59.5px" height="60.082px" viewBox="0 0 59.5 60.082" enable-background="new 0 0 59.5 60.082" xml:space="preserve">
<g>
	<g>
		<g>
			<g>
				<g>
					<defs>
						<rect id="SVGID_1_" x="2.083" y="2.374" width="55.333" height="55.334"/>
					</defs>
					<clipPath id="SVGID_2_">
						<use xlink:href="#SVGID_1_"  overflow="visible"/>
					</clipPath>
					<path clip-path="url(#SVGID_2_)" fill="#4285F4" d="M29.777,56.945L29.777,56.945c-14.793,0-26.896-12.104-26.896-26.896l0,0
						c0-14.793,12.103-26.896,26.896-26.896l0,0c14.792,0,26.895,12.103,26.895,26.896l0,0
						C56.672,44.844,44.568,56.945,29.777,56.945"/>
				</g>
			</g>
		</g>
	</g>
	<g>
		<g>
			<g>
				<g>
					<defs>
						<rect id="SVGID_3_" x="2.083" y="2.374" width="55.333" height="55.334"/>
					</defs>
					<clipPath id="SVGID_4_">
						<use xlink:href="#SVGID_3_"  overflow="visible"/>
					</clipPath>
					<path clip-path="url(#SVGID_4_)" fill="#FFFFFF" d="M31.171,46.992c-7.337,0-12.415-5.266-12.627-5.488
						c-3.518-3.378-3.869-10.232-3.883-10.523V19.07l3.793-0.083v12.506c0.982,10.845,11.401,11.741,11.819,11.757
						c0.201,0.009,0.392,0.016,0.582,0.016h0.002c7.762-0.002,11.063-7.004,11.201-7.302c3.418-8.488-2.425-13.713-2.666-13.939
						c-3.477-3.243-7.58-3.5-8.026-3.5l-12.678,0.002v-3.67h12.91c3.989,0.022,6.863,1.734,7.202,1.943
						c9.388,5.151,8.031,16.382,8.017,16.494c-0.828,9.418-10.275,12.733-10.682,12.869C34.512,46.714,32.84,46.992,31.171,46.992"
						/>
				</g>
			</g>
		</g>
	</g>
	<g>
		<g>
			<g>
				<g>
					<defs>
						<rect id="SVGID_5_" x="2.083" y="2.374" width="55.333" height="55.334"/>
					</defs>
					<clipPath id="SVGID_6_">
						<use xlink:href="#SVGID_5_"  overflow="visible"/>
					</clipPath>
					<path clip-path="url(#SVGID_6_)" fill="#FFFFFF" d="M19.581,14.871v1.893h11.729c0,0,4.646-0.138,8.67,3.716
						c0,0,6.617,5.727,2.891,14.979c0,0-3.729,8.2-12.628,7.805c0,0-11.007-0.438-12.672-12.584V19.021l-2.017,0.045v10.999
						c0,0,0.307,6.753,3.64,9.957c0,0,7.234,7.627,16.662,4.431c0,0,9.297-3.157,10.084-12.146c0,0,1.403-10.701-7.584-15.61
						c0,0-2.808-1.801-6.752-1.821H19.581V14.871z"/>
				</g>
			</g>
		</g>
	</g>
	<g>
		<g>
			<g>
				<g>
					<defs>
						<rect id="SVGID_7_" x="2.083" y="2.374" width="55.333" height="55.334"/>
					</defs>
					<clipPath id="SVGID_8_">
						<use xlink:href="#SVGID_7_"  overflow="visible"/>
					</clipPath>
					<path clip-path="url(#SVGID_8_)" fill="#ED1C24" d="M18.586,16.887c0,1.121-0.909,2.03-2.03,2.03
						c-1.121,0-2.031-0.909-2.031-2.03c0-1.121,0.91-2.031,2.031-2.031C17.677,14.856,18.586,15.766,18.586,16.887"/>
				</g>
			</g>
		</g>
	</g>
	<g>
		<g>
			<g>
				<g>
					<defs>
						<rect id="SVGID_9_" x="2.083" y="2.374" width="55.333" height="55.334"/>
					</defs>
					<clipPath id="SVGID_10_">
						<use xlink:href="#SVGID_9_"  overflow="visible"/>
					</clipPath>
					<path clip-path="url(#SVGID_10_)" fill="#FFFFFF" d="M30.605,39.956c-3.923,0-6.708-2.238-6.934-5.567L23.62,33.57h3.593
						l0.074,0.684c0.153,1.398,1.532,2.303,3.514,2.303c1.807,0,3.118-0.863,3.118-2.058c0-0.737-0.321-1.506-2.642-2.104
						l-2.133-0.553c-2.144-0.55-4.999-1.678-4.999-5.132c0-3.221,2.732-5.471,6.644-5.471c3.697,0,6.459,2.31,6.564,5.49
						l0.022,0.792H33.82l-0.07-0.688c-0.145-1.395-1.248-2.193-3.029-2.193c-1.727,0-2.888,0.794-2.888,1.977
						c0,0.566,0.203,1.224,2.606,1.851l1.744,0.463c3.791,0.949,5.412,2.54,5.412,5.315C37.596,37.713,34.852,39.956,30.605,39.956"
						/>
				</g>
			</g>
		</g>
	</g>
	<g>
		<g>
			<g>
				<g>
					<defs>
						<rect id="SVGID_11_" x="2.083" y="2.374" width="55.333" height="55.334"/>
					</defs>
					<clipPath id="SVGID_12_">
						<use xlink:href="#SVGID_11_"  overflow="visible"/>
					</clipPath>
					<path clip-path="url(#SVGID_12_)" fill="#FFFFFF" d="M26.531,33.584c0.194,1.797,1.901,2.982,4.275,2.982
						c2.243,0,3.883-1.188,3.883-2.822c0-1.407-0.979-2.271-3.215-2.846l-2.136-0.558c-3.065-0.784-4.425-2.133-4.425-4.392
						c0-2.766,2.42-4.701,5.877-4.701c3.311,0,5.705,1.957,5.797,4.748h-2.07c-0.188-1.785-1.625-2.882-3.793-2.882
						c-2.159,0-3.656,1.118-3.656,2.744c0,1.256,0.92,2.005,3.18,2.593l1.737,0.461c3.445,0.863,4.842,2.188,4.842,4.574
						c0,3.043-2.396,4.943-6.227,4.943c-3.522,0-5.968-1.916-6.166-4.854h2.089v0.004h0.004v0.004H26.531z"/>
				</g>
			</g>
		</g>
	</g>
</g>
</svg>
