<?xml version="1.0" encoding="utf-8"?>
<!-- Generator: Adobe Illustrator 16.0.0, SVG Export Plug-In . SVG Version: 6.00 Build 0)  -->
<!DOCTYPE svg PUBLIC "-//W3C//DTD SVG 1.1//EN" "http://www.w3.org/Graphics/SVG/1.1/DTD/svg11.dtd">
<svg version="1.1" id="Layer_1" xmlns="http://www.w3.org/2000/svg" xmlns:xlink="http://www.w3.org/1999/xlink" x="0px" y="0px"
	 width="59.5px" height="60.082px" viewBox="0 0 59.5 60.082" enable-background="new 0 0 59.5 60.082" xml:space="preserve">
<g display="none">
	<g display="inline">
		<g>
			<g>
				<g>
					<defs>
						<rect id="SVGID_1_" x="2.239" y="2.499" width="55.333" height="55.334"/>
					</defs>
					<clipPath id="SVGID_2_">
						<use xlink:href="#SVGID_1_"  overflow="visible"/>
					</clipPath>
					<path clip-path="url(#SVGID_2_)" fill="#FFFFFF" d="M29.933,57.07L29.933,57.07c-14.793,0-26.896-12.104-26.896-26.896l0,0
						c0-14.793,12.103-26.896,26.896-26.896l0,0c14.792,0,26.895,12.103,26.895,26.896l0,0C56.828,44.969,44.725,57.07,29.933,57.07
						"/>
				</g>
			</g>
		</g>
	</g>
</g>
<g>
	<g>
		<g>
			<g>
				<g>
					<defs>
						<rect id="SVGID_3_" x="5.056" y="-2.687" width="65.688" height="65.69"/>
					</defs>
					<clipPath id="SVGID_4_">
						<use xlink:href="#SVGID_3_"  overflow="visible"/>
					</clipPath>
					<path clip-path="url(#SVGID_4_)" fill="#FFFFFF" stroke="#FFFFFF" stroke-miterlimit="10" d="M39.587,50.282
						c-8.71,0-14.738-6.251-14.99-6.516c-4.177-4.01-4.593-12.147-4.609-12.493V17.675l4.503,0.019v14.189
						c1.166,12.874,13.535,13.938,14.032,13.957c0.238,0.01,0.465,0.019,0.69,0.019h0.002c9.215-0.002,13.133-8.314,13.298-8.669
						c4.058-10.076-2.88-16.279-3.165-16.547c-4.128-3.849-8.998-4.155-9.529-4.155l-14.142-0.018l-0.019-4.266l14.436-0.07
						c4.735,0.026,8.148,2.058,8.55,2.307c11.146,6.115,9.535,19.447,9.517,19.581c-0.982,11.181-12.197,15.116-12.68,15.277
						C43.554,49.951,41.569,50.282,39.587,50.282"/>
				</g>
			</g>
		</g>
	</g>
</g>
<g display="none">
	<g display="inline">
		<g>
			<g>
				<g>
					<defs>
						<rect id="SVGID_5_" x="2.239" y="2.499" width="55.333" height="55.334"/>
					</defs>
					<clipPath id="SVGID_6_">
						<use xlink:href="#SVGID_5_"  overflow="visible"/>
					</clipPath>
					<path clip-path="url(#SVGID_6_)" fill="#4285F4" stroke="#4285F4" stroke-width="2" stroke-miterlimit="10" d="M19.737,14.996
						v1.893h11.729c0,0,4.646-0.138,8.67,3.716c0,0,6.617,5.727,2.891,14.979c0,0-3.729,8.2-12.628,7.805
						c0,0-11.007-0.438-12.672-12.584V19.146l-2.017,0.045V30.19c0,0,0.307,6.753,3.64,9.957c0,0,7.234,7.627,16.662,4.432
						c0,0,9.297-3.157,10.084-12.146c0,0,1.403-10.701-7.584-15.61c0,0-2.808-1.801-6.752-1.821H19.737V14.996z"/>
				</g>
			</g>
		</g>
	</g>
</g>
<g>
	<g>
		<g>
			<g>
				<defs>
					<rect id="SVGID_7_" x="5.129" y="-2.594" width="65.689" height="65.69"/>
				</defs>
				<clipPath id="SVGID_8_">
					<use xlink:href="#SVGID_7_"  overflow="visible"/>
				</clipPath>
				<path clip-path="url(#SVGID_8_)" fill="#ED1C24" d="M25.007,14.327c0,1.508-1.226,2.734-2.734,2.734
					c-1.509,0-2.736-1.226-2.736-2.734s1.227-2.736,2.736-2.736C23.781,11.591,25.007,12.818,25.007,14.327"/>
			</g>
		</g>
	</g>
</g>
<g>
	<g>
		<g>
			<g>
				<g>
					<defs>
						<rect id="SVGID_9_" x="5.056" y="-2.687" width="65.688" height="65.69"/>
					</defs>
					<clipPath id="SVGID_10_">
						<use xlink:href="#SVGID_9_"  overflow="visible"/>
					</clipPath>
					<path clip-path="url(#SVGID_10_)" fill="#FFFFFF" stroke="#FFFFFF" stroke-miterlimit="10" d="M38.916,41.93
						c-4.657,0-7.964-2.658-8.232-6.609l-0.061-0.973h4.266l0.088,0.813c0.182,1.66,1.818,2.733,4.171,2.733
						c2.146,0,3.702-1.025,3.702-2.442c0-0.875-0.381-1.788-3.136-2.498l-2.532-0.656c-2.546-0.653-5.936-1.992-5.936-6.093
						c0-3.823,3.244-6.495,7.888-6.495c4.39,0,7.668,2.742,7.793,6.518l0.025,0.94h-4.22l-0.083-0.817
						c-0.172-1.656-1.482-2.603-3.597-2.603c-2.049,0-3.428,0.942-3.428,2.347c0,0.672,0.241,1.453,3.094,2.197l2.071,0.55
						c4.5,1.126,6.425,3.014,6.425,6.31C47.215,39.267,43.956,41.93,38.916,41.93"/>
				</g>
			</g>
		</g>
	</g>
</g>
<g>
	<g>
		<g>
			<g>
				<g>
					<defs>
						<rect id="SVGID_11_" x="10.239" y="2.499" width="55.333" height="55.334"/>
					</defs>
					<clipPath id="SVGID_12_">
						<use xlink:href="#SVGID_11_"  overflow="visible"/>
					</clipPath>
				</g>
			</g>
		</g>
	</g>
</g>
</svg>
