<?xml version="1.0" encoding="utf-8"?>
<!-- Generator: Adobe Illustrator 16.0.0, SVG Export Plug-In . SVG Version: 6.00 Build 0)  -->
<!DOCTYPE svg PUBLIC "-//W3C//DTD SVG 1.1//EN" "http://www.w3.org/Graphics/SVG/1.1/DTD/svg11.dtd">
<svg version="1.1" id="Layer_1" xmlns="http://www.w3.org/2000/svg" xmlns:xlink="http://www.w3.org/1999/xlink" x="0px" y="0px"
	 width="237.585px" height="236.636px" viewBox="0 0 237.585 236.636" enable-background="new 0 0 237.585 236.636"
	 xml:space="preserve">
<g>
	<path fill="#ED285B" d="M237.585,118.321c0,65.603-53.186,118.789-118.793,118.789C53.186,237.11,0,183.923,0,118.321
		C0,52.711,53.186-0.474,118.792-0.474C184.399-0.474,237.585,52.711,237.585,118.321z"/>
	<path fill="#FFFFFF" d="M176.477,72.455c-14.144-14.144-37.077-14.144-51.221,0l-6.464,6.462l-6.463-6.462
		c-14.144-14.144-37.077-14.144-51.222,0c-14.145,14.145-14.145,37.081,0,51.222l6.463,6.464l51.222,51.222l51.222-51.222
		l6.463-6.464C190.622,109.536,190.622,86.599,176.477,72.455z"/>
</g>
</svg>
