<?xml version="1.0" encoding="utf-8"?>
<!-- Generator: Adobe Illustrator 16.0.0, SVG Export Plug-In . SVG Version: 6.00 Build 0)  -->
<!DOCTYPE svg PUBLIC "-//W3C//DTD SVG 1.1//EN" "http://www.w3.org/Graphics/SVG/1.1/DTD/svg11.dtd">
<svg version="1.1" xmlns="http://www.w3.org/2000/svg" xmlns:xlink="http://www.w3.org/1999/xlink" x="0px" y="0px"
	 width="281.32px" height="196.529px" viewBox="0 0 281.32 196.529" enable-background="new 0 0 281.32 196.529"
	 xml:space="preserve">
<g id="Background">
	<rect id="XMLID_1759_" x="-109.87" y="-45.67" fill="#EFF5F9" width="500" height="500"/>
</g>
<g id="Objects">
	<g id="XMLID_877_">
		<g id="XMLID_2_">
			<g id="XMLID_3_">
				<g opacity="0.5">
					
						<image overflow="visible" width="883" height="365" xlink:href="21A02D80.png"  transform="matrix(0.24 0 0 0.24 105.8081 144.96)">
					</image>
				</g>
				<g opacity="0.5">
					
						<image overflow="visible" width="891" height="365" xlink:href="21A02D81.png"  transform="matrix(0.24 0 0 0.24 -35.9966 144.96)">
					</image>
				</g>
			</g>
			<g id="XMLID_4_">
				<g opacity="0.5">
					
						<image overflow="visible" width="883" height="365" xlink:href="21A02D82.png"  transform="matrix(0.24 0 0 0.24 105.8081 144.96)">
					</image>
				</g>
				<g opacity="0.5">
					
						<image overflow="visible" width="891" height="365" xlink:href="21A02D8F.png"  transform="matrix(0.24 0 0 0.24 -35.9966 144.96)">
					</image>
				</g>
			</g>
		</g>
		<g id="XMLID_876_">
			<rect id="XMLID_1133_" fill-rule="evenodd" clip-rule="evenodd" fill="#B2EBF2" width="281.32" height="182.8"/>
			<g id="XMLID_1017_">
				<defs>
					<rect id="XMLID_1013_" width="281.32" height="182.8"/>
				</defs>
				<clipPath id="XMLID_24_">
					<use xlink:href="#XMLID_1013_"  overflow="visible"/>
				</clipPath>
				<g id="XMLID_872_" clip-path="url(#XMLID_24_)">
					<polygon id="XMLID_1120_" fill="#405380" points="281.32,55.63 281.32,61.43 280.46,61.94 271.84,56.86 263.23,61.94 
						254.62,56.86 246,61.94 237.39,56.86 228.78,61.94 220.17,56.86 211.56,61.94 202.94,56.86 194.33,61.94 185.72,56.86 
						177.11,61.94 168.5,56.86 159.88,61.94 151.27,56.86 142.66,61.94 134.05,56.86 125.44,61.94 115.56,56.11 118.1,51.8 
						125.44,56.13 134.05,51.05 142.66,56.14 151.27,51.05 159.88,56.14 168.5,51.05 177.11,56.14 185.72,51.05 194.33,56.14 
						202.94,51.05 211.56,56.14 220.17,51.05 228.78,56.14 237.39,51.05 246,56.14 254.62,51.05 263.23,56.14 271.84,51.05 
						280.46,56.14 					"/>
					<polygon id="XMLID_1119_" fill="#F4C924" points="281.32,29.71 281.32,35.52 275.65,38.87 267.03,33.79 258.42,38.87 
						249.81,33.79 241.2,38.87 232.59,33.79 223.97,38.87 215.36,33.79 206.75,38.87 198.14,33.79 189.53,38.87 179.65,33.04 
						182.19,28.73 189.53,33.06 198.14,27.98 206.75,33.06 215.36,27.98 223.97,33.06 232.59,27.98 241.2,33.06 249.81,27.98 
						258.42,33.06 267.03,27.98 275.65,33.06 					"/>
					<polygon id="XMLID_1115_" fill="#F4C924" points="115.56,162.58 105.67,168.41 97.05,163.33 88.44,168.41 79.82,163.33 
						71.21,168.41 62.6,163.33 53.99,168.41 45.37,163.33 36.76,168.41 28.15,163.33 19.54,168.41 10.93,163.33 2.32,168.41 
						0,167.04 0,161.23 2.32,162.6 10.93,157.52 19.54,162.6 28.15,157.52 36.76,162.6 45.37,157.52 53.99,162.6 62.6,157.52 
						71.21,162.6 79.82,157.52 88.44,162.6 97.05,157.52 105.67,162.6 113.02,158.27 					"/>
					<g id="XMLID_4860_">
						<polygon id="XMLID_4917_" fill="#89960F" points="277.556,80.404 315.576,80.404 331.033,182.805 293.013,182.805 						"/>
						<polygon id="XMLID_4916_" fill="#AAAF36" points="315.576,80.404 248.481,80.404 233.024,182.805 300.119,182.805 						"/>
						<g id="XMLID_4898_">
							<polygon id="XMLID_4915_" fill="#86557A" points="251.703,80.404 236.954,182.805 239.567,182.805 254.316,80.404 							"/>
							<polygon id="XMLID_4912_" fill="#86557A" points="261.406,80.404 246.657,182.805 249.271,182.805 264.02,80.404 							"/>
							<polygon id="XMLID_4911_" fill="#86557A" points="271.109,80.404 256.36,182.805 258.974,182.805 273.723,80.404 							"/>
							<polygon id="XMLID_4910_" fill="#86557A" points="280.813,80.404 266.063,182.805 268.677,182.805 283.426,80.404 							"/>
							<polygon id="XMLID_4907_" fill="#86557A" points="290.516,80.404 275.767,182.805 278.38,182.805 293.129,80.404 							"/>
							<polygon id="XMLID_4902_" fill="#86557A" points="300.219,80.404 285.469,182.805 288.083,182.805 302.832,80.404 							"/>
							<polygon id="XMLID_4899_" fill="#86557A" points="309.922,80.404 295.172,182.805 297.786,182.805 312.535,80.404 							"/>
						</g>
						<path id="XMLID_4897_" fill="#AAAF36" d="M277.556,113.929c18.515,0,35.155-14.543,37.997-33.524h-67.049
							C245.97,97.039,259.041,113.929,277.556,113.929z"/>
						<g id="XMLID_4861_">
							<g>
								<path id="XMLID_38_" fill="#F4C924" d="M298.703,114.305c-0.444-0.529-0.458-1.274-0.015-1.804
									c0.74-0.885,1.185-2.025,1.182-3.27c-0.007-2.813-2.292-5.087-5.105-5.081c0,0-0.167,0.002-0.473,0.025
									c-0.021,0.002-0.044,0.003-0.066,0.005c-2.181,0.172-10.679,1.343-18.57,9.273c0,0,10.306,9.032,18.875,9.207
									c2.621,0.054,4.983-1.816,5.317-4.416C300.04,116.739,299.576,115.346,298.703,114.305z"/>
								<path id="XMLID_37_" fill="#F4C924" d="M252.606,114.305c0.444-0.529,0.458-1.274,0.015-1.804
									c-0.74-0.885-1.185-2.025-1.182-3.27c0.007-2.813,2.293-5.087,5.106-5.081c0,0,0.167,0.002,0.473,0.025
									c0.022,0.002,0.044,0.003,0.066,0.005c2.182,0.172,10.679,1.343,18.57,9.273c0,0-10.306,9.032-18.875,9.207
									c-2.621,0.054-4.983-1.816-5.317-4.416C251.27,116.739,251.734,115.346,252.606,114.305z"/>
								<path id="XMLID_36_" fill="#F4C924" d="M275.655,118.36L275.655,118.36c-2.736,0-4.955-2.218-4.955-4.955l0,0
									c0-2.736,2.218-4.955,4.955-4.955l0,0c2.736,0,4.955,2.218,4.955,4.955l0,0C280.609,116.142,278.391,118.36,275.655,118.36z
									"/>
							</g>
						</g>
					</g>
					<g id="XMLID_3351_">
						<g id="XMLID_4848_">
							<path id="XMLID_4851_" fill="#831539" d="M201.064,53.199c0,0,14.984-20.279,23.405-28.079
								c1.058-0.979,2.759-0.673,3.423,0.606l3.146,6.056c0.432,0.833,0.289,1.845-0.359,2.522
								C227.357,37.774,216.499,48.15,201.064,53.199z"/>
							<path id="XMLID_4850_" fill="#831539" d="M206.74,53.199c0,0-14.984-20.279-23.405-28.079
								c-1.058-0.979-2.758-0.673-3.423,0.606l-3.146,6.056c-0.433,0.833-0.29,1.845,0.359,2.522
								C180.446,37.774,191.305,48.15,206.74,53.199z"/>
						</g>
						<rect id="XMLID_4847_" x="160.396" y="49.725" fill="#F27D79" width="80.876" height="14.268"/>
						<rect id="XMLID_4842_" x="241.271" y="49.725" fill="#F0626C" width="17.254" height="14.268"/>
						<rect id="XMLID_4841_" x="165.072" y="63.992" fill="#F27D79" width="76.199" height="51.829"/>
						<rect id="XMLID_4830_" x="241.271" y="63.992" fill="#F0626C" width="14.43" height="51.829"/>
						<g id="XMLID_3691_">
							<rect id="XMLID_4829_" x="166.063" y="49.725" fill="#F8E5A7" width="2.039" height="14.268"/>
							<rect id="XMLID_4827_" x="172.2" y="49.725" fill="#F8E5A7" width="2.039" height="14.268"/>
							<rect id="XMLID_4826_" x="178.336" y="49.725" fill="#F8E5A7" width="2.039" height="14.268"/>
							<rect id="XMLID_3747_" x="184.473" y="49.725" fill="#F8E5A7" width="2.039" height="14.268"/>
							<rect id="XMLID_3746_" x="190.609" y="49.725" fill="#F8E5A7" width="2.039" height="14.268"/>
							<rect id="XMLID_3745_" x="196.746" y="49.725" fill="#F8E5A7" width="2.039" height="14.268"/>
							<rect id="XMLID_3744_" x="202.882" y="49.725" fill="#F8E5A7" width="2.039" height="14.268"/>
							<rect id="XMLID_3743_" x="209.019" y="49.725" fill="#F8E5A7" width="2.039" height="14.268"/>
							<rect id="XMLID_3742_" x="215.155" y="49.725" fill="#F8E5A7" width="2.039" height="14.268"/>
							<rect id="XMLID_3741_" x="221.292" y="49.725" fill="#F8E5A7" width="2.039" height="14.268"/>
							<rect id="XMLID_3740_" x="227.428" y="49.725" fill="#F8E5A7" width="2.039" height="14.268"/>
							<rect id="XMLID_3732_" x="233.564" y="49.725" fill="#F8E5A7" width="2.039" height="14.268"/>
						</g>
						<g id="XMLID_3675_">
							<rect id="XMLID_3689_" x="245.837" y="49.725" fill="#EFCA64" width="2.039" height="14.268"/>
							<rect id="XMLID_3688_" x="251.974" y="49.725" fill="#EFCA64" width="2.039" height="14.268"/>
						</g>
						<rect id="XMLID_3662_" x="196.746" y="49.725" fill="#831539" width="14.312" height="66.097"/>
						<rect id="XMLID_3660_" x="165.072" y="63.992" opacity="0.3" fill="#3F5380" width="90.629" height="7.134"/>
						<path id="XMLID_3537_" fill="#831539" d="M203.61,43.57L203.61,43.57c-2.665,0-4.825,2.16-4.825,4.825v1.329h9.65v-1.329
							C208.435,45.731,206.275,43.57,203.61,43.57z"/>
					</g>
					<g id="XMLID_3339_">
						<g id="XMLID_4892_">
							<rect id="XMLID_4895_" x="148.774" y="109.176" fill="#86557A" width="99.046" height="12.689"/>
							<rect id="XMLID_4894_" x="247.82" y="109.176" fill="#723B68" width="22.478" height="12.689"/>
						</g>
						<g id="XMLID_4887_">
							<rect id="XMLID_4890_" x="151.955" y="121.865" fill="#86557A" width="95.866" height="60.94"/>
							<rect id="XMLID_4889_" x="247.82" y="121.865" fill="#723B68" width="20.357" height="60.94"/>
						</g>
						<rect id="XMLID_4862_" x="192.386" y="109.176" fill="#F4C924" width="17.075" height="73.629"/>
						<rect id="XMLID_4859_" x="254.16" y="109.176" fill="#F4C924" width="7.678" height="73.629"/>
						<g id="XMLID_3343_">
							<rect id="XMLID_4857_" x="151.955" y="121.865" opacity="0.5" fill="#7DCBC8" width="95.866" height="4.155"/>
							<rect id="XMLID_4856_" x="247.82" y="121.865" opacity="0.5" fill="#279997" width="20.357" height="4.155"/>
						</g>
					</g>
					<text id="XMLID_796_" transform="matrix(1 0 0 1 12.2324 70.1499)"><tspan x="0" y="0" fill="#4285F4" font-family="'Rubik-Bold'" font-size="44" letter-spacing="4">LOYALTY</tspan><tspan x="0" y="40" fill="#4285F4" font-family="'Rubik-Bold'" font-size="44" letter-spacing="4">CARD</tspan></text>
					<circle id="XMLID_1018_" fill="#F27573" cx="143.913" cy="35.053" r="5.292"/>
					<circle id="XMLID_1111_" fill="#F27573" cx="128.626" cy="168.409" r="5.292"/>
					<circle id="XMLID_1019_" fill="#FFFFFF" cx="130.797" cy="22.875" r="2.17"/>
					<circle id="XMLID_1020_" fill="#FFFFFF" cx="165.072" cy="11.5" r="2.17"/>
					<circle id="XMLID_1014_" fill="#FFFFFF" cx="133.919" cy="157.52" r="2.17"/>
				</g>
			</g>
		</g>
	</g>
	<g>
		<g>
			<g>
				<g>
					<g>
						<g>
							<defs>
								<rect id="SVGID_1_" x="5.232" y="6.33" width="24.876" height="24.876"/>
							</defs>
							<clipPath id="SVGID_2_">
								<use xlink:href="#SVGID_1_"  overflow="visible"/>
							</clipPath>
							<path clip-path="url(#SVGID_2_)" fill="#4285F4" d="M17.683,30.864L17.683,30.864c-6.65,0-12.092-5.441-12.092-12.092l0,0
								c0-6.651,5.442-12.092,12.092-12.092l0,0c6.652,0,12.091,5.439,12.091,12.092l0,0C29.774,25.423,24.333,30.864,17.683,30.864
								"/>
						</g>
					</g>
				</g>
			</g>
		</g>
		<g>
			<g>
				<g>
					<g>
						<g>
							<defs>
								<rect id="SVGID_3_" x="5.232" y="6.33" width="24.876" height="24.876"/>
							</defs>
							<clipPath id="SVGID_4_">
								<use xlink:href="#SVGID_3_"  overflow="visible"/>
							</clipPath>
							<path clip-path="url(#SVGID_4_)" fill="#FFFFFF" d="M18.31,26.389c-3.299,0-5.582-2.367-5.677-2.467
								c-1.581-1.519-1.739-4.601-1.746-4.731v-5.354l1.705-0.037v5.622c0.442,4.876,5.125,5.279,5.313,5.286
								c0.091,0.003,0.176,0.006,0.262,0.006h0.001c3.489,0,4.974-3.148,5.036-3.282c1.536-3.816-1.091-6.166-1.199-6.267
								c-1.563-1.458-3.408-1.573-3.608-1.573l-5.7,0v-1.65h5.804c1.793,0.01,3.085,0.78,3.238,0.874
								c4.221,2.316,3.611,7.365,3.604,7.415c-0.372,4.234-4.619,5.725-4.802,5.786C19.812,26.264,19.06,26.389,18.31,26.389"/>
						</g>
					</g>
				</g>
			</g>
		</g>
		<g>
			<g>
				<g>
					<g>
						<g>
							<defs>
								<rect id="SVGID_5_" x="5.232" y="6.33" width="24.876" height="24.876"/>
							</defs>
							<clipPath id="SVGID_6_">
								<use xlink:href="#SVGID_5_"  overflow="visible"/>
							</clipPath>
							<path clip-path="url(#SVGID_6_)" fill="#FFFFFF" d="M13.099,11.948V12.8h5.273c0,0,2.088-0.063,3.897,1.67
								c0,0,2.975,2.575,1.299,6.734c0,0-1.676,3.687-5.677,3.509c0,0-4.948-0.197-5.697-5.657v-5.241l-0.906,0.02v4.945
								c0,0,0.138,3.036,1.636,4.476c0,0,3.252,3.429,7.491,1.992c0,0,4.179-1.419,4.533-5.46c0,0,0.631-4.811-3.409-7.018
								c0,0-1.262-0.809-3.035-0.819h-5.405V11.948z"/>
						</g>
					</g>
				</g>
			</g>
		</g>
		<g>
			<g>
				<g>
					<g>
						<g>
							<defs>
								<rect id="SVGID_7_" x="5.232" y="6.33" width="24.876" height="24.876"/>
							</defs>
							<clipPath id="SVGID_8_">
								<use xlink:href="#SVGID_7_"  overflow="visible"/>
							</clipPath>
							<path clip-path="url(#SVGID_8_)" fill="#ED1C24" d="M12.652,12.855c0,0.504-0.409,0.913-0.913,0.913
								c-0.504,0-0.914-0.409-0.914-0.913s0.41-0.914,0.914-0.914C12.243,11.941,12.652,12.351,12.652,12.855"/>
						</g>
					</g>
				</g>
			</g>
		</g>
		<g>
			<g>
				<g>
					<g>
						<g>
							<defs>
								<rect id="SVGID_9_" x="5.232" y="6.33" width="24.876" height="24.876"/>
							</defs>
							<clipPath id="SVGID_10_">
								<use xlink:href="#SVGID_9_"  overflow="visible"/>
							</clipPath>
							<path clip-path="url(#SVGID_10_)" fill="#FFFFFF" d="M18.055,23.226c-1.764,0-3.016-1.006-3.118-2.503l-0.022-0.368h1.615
								l0.034,0.308c0.068,0.629,0.688,1.036,1.579,1.036c0.812,0,1.402-0.389,1.402-0.925c0-0.332-0.145-0.677-1.188-0.947
								l-0.959-0.248c-0.964-0.247-2.248-0.754-2.248-2.308c0-1.448,1.228-2.459,2.987-2.459c1.662,0,2.903,1.039,2.952,2.468
								l0.009,0.356H19.5l-0.032-0.309c-0.065-0.627-0.561-0.986-1.362-0.986c-0.776,0-1.298,0.357-1.298,0.889
								c0,0.254,0.091,0.55,1.171,0.832l0.784,0.208c1.705,0.426,2.433,1.142,2.433,2.39C21.198,22.217,19.964,23.226,18.055,23.226
								"/>
						</g>
					</g>
				</g>
			</g>
		</g>
		<g>
			<g>
				<g>
					<g>
						<g>
							<defs>
								<rect id="SVGID_11_" x="5.232" y="6.33" width="24.876" height="24.876"/>
							</defs>
							<clipPath id="SVGID_12_">
								<use xlink:href="#SVGID_11_"  overflow="visible"/>
							</clipPath>
							<path clip-path="url(#SVGID_12_)" fill="#FFFFFF" d="M16.224,20.361c0.087,0.808,0.854,1.34,1.922,1.34
								c1.008,0,1.746-0.534,1.746-1.268c0-0.633-0.44-1.021-1.446-1.279l-0.96-0.251c-1.378-0.353-1.989-0.959-1.989-1.975
								c0-1.244,1.088-2.113,2.642-2.113c1.489,0,2.565,0.879,2.606,2.134h-0.93c-0.085-0.802-0.731-1.295-1.706-1.295
								c-0.97,0-1.644,0.502-1.644,1.234c0,0.564,0.414,0.901,1.43,1.166l0.78,0.207c1.549,0.388,2.178,0.984,2.178,2.057
								c0,1.368-1.077,2.222-2.8,2.222c-1.583,0-2.683-0.861-2.772-2.182h0.939v0.002h0.002v0.001L16.224,20.361L16.224,20.361z"/>
						</g>
					</g>
				</g>
			</g>
		</g>
	</g>
</g>
<g id="Designed_by_Freepik">
</g>
</svg>
