<?xml version="1.0" encoding="utf-8"?>
<!-- Generator: Adobe Illustrator 16.0.0, SVG Export Plug-In . SVG Version: 6.00 Build 0)  -->
<!DOCTYPE svg PUBLIC "-//W3C//DTD SVG 1.1//EN" "http://www.w3.org/Graphics/SVG/1.1/DTD/svg11.dtd">
<svg version="1.1" id="Layer_1" xmlns="http://www.w3.org/2000/svg" xmlns:xlink="http://www.w3.org/1999/xlink" x="0px" y="0px"
	 width="100px" height="100px" viewBox="0 0 100 100" enable-background="new 0 0 100 100" xml:space="preserve">
<g transform="translate(50 50) scale(0.69 0.69) rotate(0) translate(-50 -50)">
	<path fill="#4D4D4D" d="M65.217,21.77c-5.061,0-9.797,1.381-13.887,3.759c-4.092-2.378-8.827-3.759-13.89-3.759
		c-15.315,0-27.777,12.46-27.777,27.778c0,15.315,12.462,27.775,27.777,27.775c5.063,0,9.798-1.384,13.89-3.756
		c4.09,2.372,8.826,3.756,13.887,3.756c15.318,0,27.78-12.46,27.78-27.775C93,34.231,80.54,21.77,65.217,21.77z M37.441,74.289
		c-13.644,0-24.742-11.096-24.742-24.741c0-13.646,11.099-24.744,24.742-24.744c3.97,0,7.711,0.961,11.038,2.63
		c-6.69,5.075-11.038,13.086-11.038,22.113c0,9.024,4.348,17.035,11.038,22.113C45.151,73.327,41.41,74.289,37.441,74.289z
		 M40.475,49.548c0-8.5,4.31-16.009,10.855-20.464c6.544,4.455,10.854,11.964,10.854,20.464c0,8.496-4.31,16.006-10.854,20.461
		C44.785,65.554,40.475,58.045,40.475,49.548z M65.217,74.289c-3.969,0-7.708-0.962-11.035-2.627
		c6.69-5.081,11.035-13.087,11.035-22.113c0-9.027-4.345-17.037-11.037-22.116c3.326-1.669,7.068-2.63,11.037-2.63
		c13.646,0,24.745,11.099,24.745,24.745C89.963,63.193,78.864,74.289,65.217,74.289z"/>
</g>
</svg>
