<?xml version="1.0" encoding="utf-8"?>
<!-- Generator: Adobe Illustrator 16.0.0, SVG Export Plug-In . SVG Version: 6.00 Build 0)  -->
<!DOCTYPE svg PUBLIC "-//W3C//DTD SVG 1.1//EN" "http://www.w3.org/Graphics/SVG/1.1/DTD/svg11.dtd">
<svg version="1.1" id="Layer_1" xmlns="http://www.w3.org/2000/svg" xmlns:xlink="http://www.w3.org/1999/xlink" x="0px" y="0px"
	 width="36.5px" height="23px" viewBox="0 -3 36.5 23" enable-background="new 0 -3 36.5 23" xml:space="preserve">
<g>
	<g id="Master_Card_1_">
		<g id="Master_Card">
			<circle id="Red_x5F_Circle" fill="#F93232" cx="11.575" cy="8.5" r="11.125"/>
			<path id="Yellow_x5F_Circle" fill="#FED049" d="M24.925-2.625c-2.498,0-4.797,0.834-6.652,2.225H18.25v0.016
				c-0.44,0.332-0.845,0.705-1.231,1.097h2.464c0.342,0.348,0.658,0.721,0.95,1.113h-4.374C15.79,2.18,15.542,2.55,15.316,2.938
				h5.856c0.209,0.36,0.405,0.727,0.576,1.112H14.75c-0.159,0.362-0.3,0.732-0.419,1.113h7.837c0.115,0.363,0.207,0.735,0.286,1.112
				H14.04c-0.074,0.365-0.137,0.735-0.174,1.113h8.767C22.676,7.752,22.7,8.123,22.7,8.5h-8.9c0,0.377,0.03,0.745,0.066,1.112h8.769
				c-0.042,0.377-0.103,0.748-0.182,1.112h-8.413c0.077,0.379,0.176,0.749,0.291,1.113h7.836c-0.119,0.38-0.259,0.751-0.419,1.112
				H14.75c0.167,0.382,0.357,0.754,0.566,1.112h5.856c-0.225,0.387-0.476,0.758-0.744,1.112h-4.37
				c0.296,0.392,0.615,0.765,0.959,1.112h2.465c-0.389,0.394-0.792,0.766-1.232,1.098c1.86,1.4,4.166,2.24,6.675,2.24
				c6.145,0,11.125-4.981,11.125-11.125C36.05,2.357,31.069-2.625,24.925-2.625z"/>
		</g>
	</g>
</g>
</svg>
