<?xml version="1.0" encoding="utf-8"?>
<!-- Generator: Adobe Illustrator 16.0.0, SVG Export Plug-In . SVG Version: 6.00 Build 0)  -->
<!DOCTYPE svg PUBLIC "-//W3C//DTD SVG 1.1//EN" "http://www.w3.org/Graphics/SVG/1.1/DTD/svg11.dtd">
<svg version="1.1" id="Layer_1" xmlns="http://www.w3.org/2000/svg" xmlns:xlink="http://www.w3.org/1999/xlink" x="0px" y="0px"
	 width="35.833px" height="23.75px" viewBox="7.167 13.083 35.833 23.75" enable-background="new 7.167 13.083 35.833 23.75"
	 xml:space="preserve">
<g id="Icons">
	<g>
		<path fill="#F9F9F9" d="M40.154,36.311H9.845c-1.27,0-2.301-1.031-2.301-2.301V15.991c0-1.271,1.031-2.302,2.302-2.302h30.309
			c1.271,0,2.302,1.03,2.302,2.302V34.01C42.456,35.279,41.425,36.311,40.154,36.311z"/>
		<circle fill="#FFC601" cx="30.092" cy="25.076" r="7.442"/>
		<circle fill="#F43735" cx="20.071" cy="25.076" r="7.442"/>
		
			<path fill="none" stroke="#303030" stroke-width="0.8" stroke-linecap="round" stroke-linejoin="round" stroke-miterlimit="10" d="
			M40.154,36.311H9.845c-1.27,0-2.301-1.031-2.301-2.301V15.991c0-1.271,1.031-2.302,2.302-2.302h30.309
			c1.271,0,2.302,1.03,2.302,2.302V34.01C42.456,35.279,41.425,36.311,40.154,36.311z"/>
		<path fill="#FFFFFF" d="M15.527,24.015c-0.138,0.797-0.274,1.595-0.413,2.402c-0.224,0-0.444,0-0.684,0
			c0.189-1.115,0.377-2.223,0.567-3.343c0.342,0,0.678,0,1.059,0c0,0.649,0,1.301,0,1.951c0.019,0.001,0.039,0.003,0.058,0.005
			c0.125-0.367,0.251-0.732,0.376-1.098c0.087-0.252,0.169-0.505,0.262-0.754c0.017-0.046,0.074-0.109,0.113-0.11
			c0.338-0.008,0.677-0.005,1.048-0.005c-0.188,1.125-0.374,2.233-0.56,3.352c-0.24,0-0.476,0-0.727,0
			c0.125-0.785,0.249-1.565,0.374-2.346c-0.01-0.003-0.021-0.005-0.031-0.008c-0.026,0.065-0.054,0.129-0.078,0.194
			c-0.244,0.673-0.492,1.345-0.728,2.021c-0.043,0.124-0.102,0.166-0.225,0.152c-0.099-0.01-0.199-0.003-0.32-0.003
			c-0.021-0.809-0.043-1.606-0.065-2.404C15.545,24.019,15.536,24.017,15.527,24.015z"/>
		<path fill="#FFFFFF" d="M34.707,23.986c0.053-0.313,0.103-0.607,0.153-0.916c0.231,0,0.46,0,0.711,0
			c-0.056,0.33-0.108,0.661-0.162,0.992c-0.12,0.739-0.245,1.479-0.359,2.22c-0.018,0.11-0.061,0.137-0.161,0.133
			c-0.175-0.007-0.354,0-0.542,0c0-0.078,0-0.141,0-0.206c-0.121,0.066-0.225,0.142-0.341,0.186
			c-0.465,0.179-0.924-0.037-1.091-0.529c-0.229-0.676-0.097-1.304,0.352-1.846C33.674,23.526,34.173,23.521,34.707,23.986z
			 M34.527,24.88c-0.016-0.097-0.019-0.199-0.046-0.293c-0.077-0.275-0.358-0.378-0.587-0.208c-0.091,0.066-0.169,0.165-0.22,0.265
			c-0.118,0.232-0.144,0.486-0.106,0.744c0.023,0.167,0.084,0.314,0.264,0.368c0.174,0.054,0.355-0.018,0.479-0.185
			C34.461,25.366,34.52,25.132,34.527,24.88z"/>
		<path fill="#FFFFFF" d="M19.178,24.695c0.088-0.265,0.007-0.408-0.258-0.408c-0.301,0-0.604,0.036-0.914,0.058
			c0.013-0.077,0.03-0.179,0.047-0.281c0.052-0.308,0.049-0.327,0.357-0.369c0.276-0.039,0.564-0.064,0.841-0.032
			c0.449,0.051,0.71,0.419,0.653,0.868c-0.077,0.606-0.164,1.211-0.252,1.815c-0.006,0.043-0.054,0.109-0.085,0.112
			c-0.176,0.011-0.353,0.004-0.538,0.004c0-0.083,0-0.147,0-0.193c-0.174,0.078-0.341,0.184-0.521,0.229
			c-0.455,0.11-0.805-0.152-0.856-0.616c-0.074-0.679,0.341-1.137,1.083-1.186C18.882,24.687,19.032,24.695,19.178,24.695z
			 M19.101,25.271c-0.255-0.044-0.471-0.013-0.611,0.084c-0.168,0.116-0.221,0.365-0.107,0.512c0.109,0.142,0.351,0.134,0.502-0.016
			C19.04,25.692,19.1,25.496,19.101,25.271z"/>
		<path fill="#FFFFFF" d="M30.779,24.693c0.064-0.296-0.001-0.409-0.279-0.411c-0.291-0.001-0.583,0.037-0.895,0.06
			c0.023-0.151,0.049-0.333,0.084-0.514c0.006-0.031,0.059-0.064,0.097-0.076c0.348-0.113,0.702-0.168,1.065-0.097
			c0.443,0.086,0.704,0.439,0.646,0.885c-0.085,0.633-0.177,1.265-0.269,1.91c-0.198,0-0.394,0-0.601,0c0-0.069,0-0.14,0-0.227
			c-0.062,0.047-0.112,0.087-0.165,0.125c-0.272,0.2-0.658,0.231-0.91,0.07c-0.307-0.199-0.341-0.507-0.302-0.827
			c0.065-0.535,0.465-0.862,1.074-0.896C30.473,24.687,30.623,24.693,30.779,24.693z M30.702,25.261
			c-0.225-0.029-0.427-0.028-0.609,0.088c-0.134,0.085-0.198,0.221-0.161,0.37c0.021,0.085,0.09,0.188,0.164,0.22
			c0.142,0.064,0.282,0.015,0.39-0.101C30.637,25.683,30.688,25.489,30.702,25.261z"/>
		<path fill="#FFFFFF" d="M23.863,25.333c-0.041,0.271,0.072,0.451,0.327,0.524c0.278,0.079,0.55,0.03,0.82-0.049
			c0.069-0.021,0.137-0.044,0.233-0.074c-0.04,0.224-0.075,0.43-0.119,0.635c-0.007,0.029-0.061,0.062-0.098,0.07
			c-0.36,0.095-0.724,0.122-1.088,0.029c-0.438-0.113-0.696-0.404-0.771-0.846c-0.1-0.586,0.013-1.129,0.401-1.594
			c0.248-0.296,0.57-0.441,0.96-0.395c0.615,0.075,0.949,0.549,0.863,1.213c-0.06,0.473-0.06,0.473-0.536,0.473
			c-0.317,0-0.634,0-0.951,0.001C23.894,25.323,23.883,25.327,23.863,25.333z M23.92,24.753c0.242,0,0.473,0.002,0.704-0.003
			c0.033,0,0.085-0.034,0.094-0.063c0.063-0.198-0.102-0.426-0.311-0.436C24.145,24.238,23.957,24.421,23.92,24.753z"/>
		<path fill="#FFFFFF" d="M29.431,23.172c-0.035,0.243-0.072,0.478-0.108,0.723c-0.151-0.051-0.292-0.112-0.439-0.147
			c-0.365-0.086-0.679,0.034-0.886,0.345c-0.252,0.379-0.32,0.803-0.219,1.244c0.089,0.381,0.429,0.581,0.818,0.494
			c0.144-0.031,0.281-0.084,0.439-0.133c-0.039,0.236-0.071,0.466-0.115,0.694c-0.005,0.031-0.054,0.077-0.087,0.081
			c-0.246,0.029-0.499,0.088-0.741,0.063c-0.554-0.059-0.895-0.382-1.023-0.925c-0.133-0.565-0.081-1.12,0.159-1.646
			C27.63,23.079,28.493,22.769,29.431,23.172z"/>
		<path fill="#FFFFFF" d="M21.782,23.686c-0.03,0.215-0.057,0.402-0.085,0.607c-0.149-0.006-0.292-0.015-0.435-0.02
			c-0.264-0.009-0.401,0.043-0.423,0.177c-0.035,0.219,0.148,0.268,0.29,0.328c0.387,0.163,0.631,0.434,0.501,1.062
			c-0.062,0.302-0.261,0.487-0.551,0.563c-0.412,0.105-0.824,0.064-1.254-0.02c0.031-0.207,0.06-0.402,0.087-0.587
			c0.248,0.023,0.482,0.049,0.717,0.064c0.069,0.005,0.146-0.014,0.21-0.041c0.155-0.066,0.183-0.245,0.052-0.351
			c-0.093-0.076-0.206-0.129-0.313-0.188c-0.39-0.212-0.54-0.502-0.466-0.918c0.072-0.407,0.319-0.64,0.75-0.71
			C21.167,23.604,21.466,23.629,21.782,23.686z"/>
		<path fill="#FFFFFF" d="M22.197,23.294c0.248,0,0.469,0,0.703,0c-0.02,0.134-0.037,0.258-0.056,0.393
			c0.115,0.005,0.218,0.01,0.34,0.016c-0.028,0.218-0.054,0.424-0.083,0.647c-0.122,0-0.236,0-0.37,0
			c-0.045,0.261-0.087,0.51-0.129,0.758c-0.022,0.132-0.041,0.264-0.063,0.396c-0.041,0.241,0.039,0.328,0.286,0.316
			c0.038-0.001,0.076-0.005,0.136-0.011c-0.025,0.183-0.046,0.354-0.076,0.527c-0.005,0.032-0.043,0.075-0.072,0.078
			c-0.207,0.024-0.418,0.072-0.622,0.052c-0.249-0.025-0.4-0.229-0.39-0.504c0.012-0.309,0.055-0.618,0.102-0.924
			C21.994,24.459,22.097,23.881,22.197,23.294z"/>
		<path fill="#FFFFFF" d="M32.147,26.446c-0.255,0-0.491,0-0.736,0c0.15-0.919,0.298-1.826,0.448-2.745c0.225,0,0.436,0,0.665,0
			c-0.016,0.109-0.028,0.211-0.047,0.349c0.192-0.212,0.354-0.436,0.666-0.386c-0.086,0.271-0.171,0.536-0.256,0.805
			c-0.238,0.008-0.34,0.062-0.41,0.319c-0.097,0.369-0.163,0.746-0.238,1.122C32.203,26.09,32.178,26.27,32.147,26.446z"/>
		<path fill="#FFFFFF" d="M26.107,26.449c-0.255,0-0.486,0-0.735,0c0.056-0.354,0.111-0.704,0.167-1.051
			c0.086-0.526,0.177-1.051,0.257-1.579c0.015-0.096,0.045-0.134,0.146-0.13c0.177,0.007,0.354,0.001,0.544,0.001
			c-0.017,0.122-0.03,0.225-0.051,0.361c0.194-0.215,0.356-0.438,0.669-0.388c-0.086,0.271-0.172,0.538-0.256,0.807
			c-0.232,0.003-0.339,0.058-0.406,0.305c-0.101,0.374-0.166,0.757-0.243,1.14C26.164,26.09,26.14,26.264,26.107,26.449z"/>
		<path fill="#FFFFFF" d="M13.381,27.303h0.124c-0.028-0.076-0.06-0.152-0.085-0.231L13.381,27.303z"/>
		<g>
			
				<path fill="none" stroke="#303030" stroke-width="0.8" stroke-linecap="round" stroke-linejoin="round" stroke-miterlimit="10" d="
				M26.775,21.86c-0.428-0.917-1.042-1.73-1.792-2.386c-1.313-1.177-3.022-1.875-4.908-1.875c-4.095,0-7.399,3.313-7.399,7.398
				c0,4.085,3.304,7.398,7.399,7.398c1.886,0,3.595-0.697,4.908-1.875c0.709-0.615,1.292-1.377,1.708-2.229"/>
			
				<path fill="none" stroke="#303030" stroke-width="0.8" stroke-linecap="round" stroke-linejoin="round" stroke-miterlimit="10" d="
				M23.19,21.86c0.428-0.917,1.042-1.73,1.792-2.386c1.313-1.177,3.023-1.875,4.908-1.875c4.086,0,7.399,3.313,7.399,7.398
				c0,4.085-3.313,7.398-7.399,7.398c-1.885,0-3.595-0.697-4.908-1.875c-0.709-0.615-1.292-1.377-1.719-2.229"/>
		</g>
	</g>
</g>
</svg>
