<?xml version="1.0" encoding="utf-8"?>
<!-- Generator: Adobe Illustrator 16.0.0, SVG Export Plug-In . SVG Version: 6.00 Build 0)  -->
<!DOCTYPE svg PUBLIC "-//W3C//DTD SVG 1.1//EN" "http://www.w3.org/Graphics/SVG/1.1/DTD/svg11.dtd">
<svg version="1.1" id="Layer_1" xmlns="http://www.w3.org/2000/svg" xmlns:xlink="http://www.w3.org/1999/xlink" x="0px" y="0px"
	 width="68.996px" height="68.998px" viewBox="0 0 68.996 68.998" enable-background="new 0 0 68.996 68.998" xml:space="preserve">
<g>
	<path fill="#FFFFFF" d="M270.497,305.498h90c2.762,0,5,2.237,5,5v90.001c0,2.762-2.238,5-5,5h-90c-2.763,0-5-2.238-5-5v-90.001
		C265.497,307.737,267.734,305.498,270.497,305.498z"/>
	<g transform="translate(50 50) scale(0.69 0.69) rotate(0) translate(-50 -50)">
		<g>
			<rect x="14.496" y="-22.464" fill="#4285F4" width="25.785" height="25.787"/>
			<rect x="51.615" y="51.765" fill="#4285F4" width="25.914" height="25.767"/>
			<rect x="14.496" y="14.654" fill="#0069D9" width="25.785" height="25.783"/>
			<rect x="-22.464" y="14.654" fill="#4285F4" width="25.634" height="25.783"/>
			<rect x="14.496" y="51.765" fill="#4285F4" width="25.785" height="25.767"/>
			<rect x="-22.464" y="51.765" fill="#4285F4" width="25.634" height="25.767"/>
			<rect x="-22.464" y="-22.464" fill="#4285F4" width="25.634" height="25.787"/>
			<rect x="51.615" y="-22.464" fill="#4285F4" width="25.914" height="25.787"/>
			<rect x="51.615" y="14.654" fill="#4285F4" width="25.914" height="25.783"/>
		</g>
	</g>
</g>
</svg>
