<?xml version="1.0" encoding="utf-8"?>
<!-- Generator: Adobe Illustrator 16.0.0, SVG Export Plug-In . SVG Version: 6.00 Build 0)  -->
<!DOCTYPE svg PUBLIC "-//W3C//DTD SVG 1.1//EN" "http://www.w3.org/Graphics/SVG/1.1/DTD/svg11.dtd">
<svg version="1.1" id="Layer_1" xmlns="http://www.w3.org/2000/svg" xmlns:xlink="http://www.w3.org/1999/xlink" x="0px" y="0px"
	 width="407.563px" height="295.043px" viewBox="0 0 407.563 295.043" enable-background="new 0 0 407.563 295.043"
	 xml:space="preserve">
<g>
	<g>
		<g>
			<g>
				<g>
					<g>
						<defs>
							<rect id="SVGID_1_" y="-57.166" width="411.499" height="411.5"/>
						</defs>
						<clipPath id="SVGID_2_">
							<use xlink:href="#SVGID_1_"  overflow="visible"/>
						</clipPath>
						<path clip-path="url(#SVGID_2_)" fill="#4285F4" d="M3.508,50.2l201.674,135.631l201.671-134.92
							c0,0,5.683-39.056-24.854-48.999L39.015,0.492C39.015,0.492-1.464,6.171,3.508,50.2"/>
					</g>
				</g>
			</g>
		</g>
	</g>
	<g>
		<g>
			<g>
				<g>
					<g>
						<defs>
							<rect id="SVGID_3_" y="-57.166" width="411.499" height="411.5"/>
						</defs>
						<clipPath id="SVGID_4_">
							<use xlink:href="#SVGID_3_"  overflow="visible"/>
						</clipPath>
						<polygon clip-path="url(#SVGID_4_)" fill="#4285F4" points="2.799,76.475 122.097,156.715 2.799,236.252 						"/>
					</g>
				</g>
			</g>
		</g>
	</g>
	<g>
		<g>
			<g>
				<g>
					<g>
						<defs>
							<rect id="SVGID_5_" y="-57.166" width="411.499" height="411.5"/>
						</defs>
						<clipPath id="SVGID_6_">
							<use xlink:href="#SVGID_5_"  overflow="visible"/>
						</clipPath>
						<polygon clip-path="url(#SVGID_6_)" fill="#4285F4" points="407.563,77.184 288.266,157.426 407.563,236.963 						"/>
					</g>
				</g>
			</g>
		</g>
	</g>
	<g>
		<g>
			<g>
				<g>
					<g>
						<defs>
							<rect id="SVGID_7_" y="-57.166" width="411.499" height="411.5"/>
						</defs>
						<clipPath id="SVGID_8_">
							<use xlink:href="#SVGID_7_"  overflow="visible"/>
						</clipPath>
						<path clip-path="url(#SVGID_8_)" fill="#4285F4" d="M4.218,263.234l137.051-92.314l55.391,36.93c0,0,7.128,6.936,17.599-0.275
							l55.134-37.225l137.575,93.11c0,0-5.677,28.908-37.685,33.035L40.434,295.98C40.435,295.98,6.719,289.344,4.218,263.234"/>
					</g>
				</g>
			</g>
		</g>
	</g>
</g>
<g transform="translate(50 50) scale(0.69 0.69) rotate(0) translate(-50 -50)" display="none">
	<title>2.1</title>
	<desc>Created with Sketch.</desc>
	<g display="inline">
		<g>
			<path fill="#331CBF" d="M-22.464-9.92c0-6.929,5.615-12.544,12.544-12.544h602.61c6.929,0,12.544,5.721,12.544,12.544v401.762
				c0,6.929-5.615,12.545-12.544,12.545H-9.92c-6.929,0-12.544-5.721-12.544-12.545V-9.92z M-9.92,4.472v372.945
				c0,3.482,2.168,4.637,4.85,2.488l232.633-186.1c2.594-2.061,2.665-5.579,0-7.711L-5.07,1.949C-7.664-0.113-9.92,0.954-9.92,4.472
				z M577.801,387.954L345.114,201.8c-2.594-2.061-7.037-2.131-9.72-0.017l-9.539,7.551c-19.013,15.049-49.909,15.067-68.94,0
				l-9.541-7.551c-2.648-2.079-7.036-2.114-9.719,0.017L4.97,387.954c-2.594,2.076-1.989,3.874,1.509,3.874h569.812
				C579.772,391.828,580.466,390.103,577.801,387.954z M587.84,1.949L355.207,186.094c-2.594,2.061-2.665,5.58,0,7.711
				l232.633,186.1c2.593,2.095,4.85,1.028,4.85-2.488V4.472C592.69,0.989,590.523-0.183,587.84,1.949z M5.147-5.993l261.666,207.154
				c13.52,10.697,35.57,10.749,49.143,0L577.624-5.993c2.771-2.185,2.095-3.908-1.386-3.908H6.534
				C3.05-9.901,2.41-8.142,5.147-5.993z"/>
		</g>
	</g>
</g>
</svg>
