<?xml version="1.0" encoding="utf-8"?>
<!-- Generator: Adobe Illustrator 16.0.0, SVG Export Plug-In . SVG Version: 6.00 Build 0)  -->
<!DOCTYPE svg PUBLIC "-//W3C//DTD SVG 1.1//EN" "http://www.w3.org/Graphics/SVG/1.1/DTD/svg11.dtd">
<svg version="1.1" id="Layer_1" xmlns="http://www.w3.org/2000/svg" xmlns:xlink="http://www.w3.org/1999/xlink" x="0px" y="0px"
	 width="17.333px" height="17.333px" viewBox="0.075 0.073 17.333 17.333" enable-background="new 0.075 0.073 17.333 17.333"
	 xml:space="preserve">
<g id="OBJECTS">
	<circle fill="#3A77DA" cx="8.741" cy="8.74" r="8.667"/>
	<g>
		<path fill="#FFFFFF" d="M6.289,8.749v3.449c0,0.146,0.12,0.268,0.268,0.268c0,0,1.983,0.354,2.46,0.354
			c0.479,0,3.168-0.005,3.67-0.004c0.656,0.004,0.759-0.373,0.748-0.69c-0.009-0.316-0.125-0.494-0.274-0.564
			c0.236-0.049,0.475-0.121,0.461-0.668c-0.014-0.444-0.232-0.571-0.359-0.626c0.255-0.063,0.461-0.163,0.46-0.677
			c-0.002-0.432-0.195-0.627-0.394-0.681c0.179-0.052,0.455-0.165,0.444-0.628c-0.007-0.313-0.275-0.642-0.722-0.624
			c-0.879,0.036-3.34,0-3.34,0s0.355-0.818,0.355-1.633c0-0.813-0.086-1.365-0.538-1.366c-0.463,0-0.515,0.809-0.642,1.166
			c-0.784,1.384-2.06,2.824-2.231,2.92L6.289,8.749z"/>
		<path fill="#FFFFFF" d="M6.068,8.413h-2.36l0.003,4.34l2.357-0.021V8.413z"/>
	</g>
</g>
<g id="DESIGNED_BY_FREEPIK">
</g>
</svg>
