<?xml version="1.0" encoding="utf-8"?>
<!-- Generator: Adobe Illustrator 16.0.0, SVG Export Plug-In . SVG Version: 6.00 Build 0)  -->
<!DOCTYPE svg PUBLIC "-//W3C//DTD SVG 1.1//EN" "http://www.w3.org/Graphics/SVG/1.1/DTD/svg11.dtd">
<svg version="1.1" id="Layer_1" xmlns="http://www.w3.org/2000/svg" xmlns:xlink="http://www.w3.org/1999/xlink" x="0px" y="0px"
	 width="100px" height="100px" viewBox="0 0 100 100" enable-background="new 0 0 100 100" xml:space="preserve">
<g transform="translate(50 50) scale(0.69 0.69) rotate(0) translate(-50 -50)">
	<g>
		<path fill="#4285F4" d="M90.682,30.283c0,5.871-0.957,11.059-2.732,15.566c-1.775,4.505-4.506,8.326-7.917,11.332
			c-3.552,3.139-7.783,5.463-12.837,7.101c-5.053,1.636-11.059,2.458-17.886,2.458h-8.739v33.178c0,0.548-0.138,0.955-0.546,1.503
			c-0.41,0.408-0.956,0.818-1.777,1.091c-0.818,0.275-1.909,0.545-3.274,0.684c-1.366,0.137-3.003,0.273-5.189,0.273
			c-2.049,0-3.686-0.136-5.053-0.273c-1.366-0.136-2.458-0.409-3.279-0.684c-0.819-0.273-1.364-0.684-1.638-1.091
			c-0.272-0.41-0.547-0.955-0.547-1.503V6.252c0-2.458,0.684-4.37,1.913-5.598c1.366-1.23,3.003-1.914,5.189-1.914h24.579
			c2.457,0,4.778,0.137,7.099,0.275c2.185,0.137,4.914,0.545,8.056,1.228c3.142,0.682,6.281,1.775,9.422,3.414
			c3.141,1.638,5.872,3.823,8.193,6.28c2.184,2.594,3.959,5.462,5.189,8.877C90.134,22.225,90.682,26.049,90.682,30.283z
			 M68.562,31.785c0-3.687-0.684-6.692-1.913-9.012c-1.227-2.321-2.867-4.096-4.777-5.189c-1.915-1.092-3.824-1.776-5.869-2.185
			c-2.051-0.275-4.236-0.409-6.421-0.409h-9.011v35.228h9.42c3.414,0,6.146-0.411,8.467-1.366c2.318-0.957,4.096-2.185,5.599-3.824
			c1.503-1.638,2.59-3.548,3.275-5.871C68.289,36.973,68.562,34.379,68.562,31.785z"/>
	</g>
</g>
</svg>
