<?xml version="1.0" encoding="utf-8"?>
<!-- Generator: Adobe Illustrator 16.0.0, SVG Export Plug-In . SVG Version: 6.00 Build 0)  -->
<!DOCTYPE svg PUBLIC "-//W3C//DTD SVG 1.1//EN" "http://www.w3.org/Graphics/SVG/1.1/DTD/svg11.dtd">
<svg version="1.1" id="Layer_1" xmlns="http://www.w3.org/2000/svg" xmlns:xlink="http://www.w3.org/1999/xlink" x="0px" y="0px"
	 width="66.243px" height="56.574px" viewBox="0 0 66.243 56.574" enable-background="new 0 0 66.243 56.574" xml:space="preserve">
<g transform="translate(50 50) scale(0.69 0.69) rotate(0) translate(-50 -50)">
	<g>
		<path fill="#4D4D4D" d="M72.254,3.278C59.91-3.596,43.816-12.66,27.41-21.878c-1.25-0.781-2.501-0.781-3.751,0
			c-2.187,1.25-4.375,2.499-6.563,3.749l-0.468,0.313c-1.25,0.781-2.657,1.407-3.906,2.188l-7.5,4.062
			c-8.594,4.845-17.5,9.843-26.25,14.844c-1.094,0.626-1.563,1.407-1.407,2.501c0,0.624,0,1.25,0,1.874V7.81
			c0,0.313,0,0.468,0,0.781c0,1.718,0.468,2.187,2.344,2.187h7.344v0.781c0,1.251,0.937,2.188,2.188,2.188h2.031l0.156,0.468
			c0,0.313,0,0.468,0,0.781c-0.156,2.501-0.313,5.156-0.468,7.657l-0.313,4.375l-1.25,22.188h-1.563
			c-2.812,0-5.156,2.344-5.156,5.156c0,1.407,0.468,2.657,1.563,3.593c0.937,0.938,2.187,1.563,3.593,1.563h75.001
			c2.811,0,5.155-2.344,5.155-5.156c0-1.407-0.467-2.657-1.563-3.593c-0.937-0.938-2.185-1.563-3.592-1.563h-1.563V48.59
			c-0.156-2.344-0.314-4.843-0.47-7.187c-0.156-2.344-0.311-4.845-0.467-7.188l-0.47-9.218c-0.156-3.125-0.311-6.25-0.47-9.219
			c0-0.624,0-0.937,0-1.405l0.159-0.47h1.718c1.248,0,2.188-0.937,2.188-2.187v-1.094h7.654c1.563,0,2.188-0.626,2.188-2.188
			c0-0.311,0-0.781,0-1.093c0-0.626,0-1.094,0-1.72C73.658,4.528,73.347,3.903,72.254,3.278z M48.659,15.465v1.094l-0.313,6.718
			c-0.311,6.72-0.781,13.281-1.093,20.001c0,1.405-0.157,2.812-0.313,4.53v1.407h-0.626H5.066H4.753l-0.313-5L3.659,33.747
			c-0.156-2.499-0.313-5.156-0.468-7.655c-0.157-2.344-0.313-4.688-0.468-7.031L2.41,14.997c0-0.313,0-0.468,0-0.781v-0.624h1.718
			c1.25,0,2.188-0.938,2.188-2.188v-0.781h37.968v0.781c0,1.25,0.937,2.188,2.188,2.188h2.031v0.624
			C48.659,14.684,48.659,14.997,48.659,15.465z"/>
		<g>
			<path fill="#4D4D4D" d="M28.346,44.216c-0.624,0-1.094-0.468-1.094-1.094v-1.405c0-0.626,0.47-1.094,1.094-1.094H39.91
				c0.624,0,1.094,0.468,1.094,1.094v1.405c0,0.626-0.47,1.094-1.094,1.094H28.346z"/>
			<path fill="#4D4D4D" d="M28.346,30.153c-0.624,0-1.094-0.468-1.094-1.094v-1.405c0-0.626,0.47-1.094,1.094-1.094H39.91
				c0.624,0,1.094,0.468,1.094,1.094v1.405c0,0.626-0.47,1.094-1.094,1.094H28.346z"/>
			<path fill="#4D4D4D" d="M28.346,37.029c-0.624,0-1.094-0.47-1.094-1.094v-1.407c0-0.624,0.47-1.094,1.094-1.094H39.91
				c0.624,0,1.094,0.47,1.094,1.094v1.407c0,0.624-0.47,1.094-1.094,1.094H28.346z"/>
			<path fill="#4D4D4D" d="M11.785,44.216c-0.626,0-1.094-0.468-1.094-1.094v-1.405c0-0.626,0.468-1.094,1.094-1.094h11.562
				c0.626,0,1.094,0.468,1.094,1.094v1.405c0,0.626-0.468,1.094-1.094,1.094H11.785z"/>
			<path fill="#4D4D4D" d="M11.785,37.029c-0.626,0-1.094-0.47-1.094-1.094v-1.407c0-0.624,0.468-1.094,1.094-1.094h11.562
				c0.626,0,1.094,0.47,1.094,1.094v1.407c0,0.624-0.468,1.094-1.094,1.094H11.785z"/>
			<path fill="#4D4D4D" d="M16.785,30.466L16.785,30.466c-1.875,0-3.438-0.781-4.688-2.031c-1.251-1.251-1.875-2.969-1.875-4.688
				c0-3.595,2.968-6.72,6.718-6.72c1.718,0,3.438,0.781,4.688,2.032c1.25,1.25,1.875,2.968,1.875,4.688
				C23.503,27.497,20.378,30.466,16.785,30.466z"/>
		</g>
	</g>
</g>
</svg>
