<?xml version="1.0" encoding="utf-8"?>
<!-- Generator: Adobe Illustrator 16.0.0, SVG Export Plug-In . SVG Version: 6.00 Build 0)  -->
<!DOCTYPE svg PUBLIC "-//W3C//DTD SVG 1.1//EN" "http://www.w3.org/Graphics/SVG/1.1/DTD/svg11.dtd">
<svg version="1.1" id="Layer_1" xmlns="http://www.w3.org/2000/svg" xmlns:xlink="http://www.w3.org/1999/xlink" x="0px" y="0px"
	 width="22.567px" height="23.125px" viewBox="5.322 3.382 22.567 23.125" enable-background="new 5.322 3.382 22.567 23.125"
	 xml:space="preserve">
<g>
	<g id="Paypal_1_">
		<g id="Paypal">
			<path id="Outer_P" fill="#38447E" d="M23.202,5.943c-0.467-0.751-1.098-1.289-1.896-1.615c-0.799-0.325-1.883-0.488-3.255-0.488
				h-3.484l-0.002,0.009H10.26L6.168,22.946h4.092l1.608-7.502h6.316c0.366,0,1.53-0.33,2.059-0.57
				c0.62-0.282,1.2-0.696,1.738-1.243c0.538-0.546,0.993-1.276,1.363-2.188c0.37-0.911,0.556-1.849,0.556-2.813
				C23.9,7.589,23.667,6.693,23.202,5.943z"/>
			<path id="Shadow" fill="#212C63" d="M21.808,6.577h-8.041l-1.9,8.866h6.316c0.366,0,1.53-0.33,2.059-0.57
				c0.62-0.282,1.2-0.696,1.738-1.243c0.538-0.546,0.993-1.276,1.363-2.188c0.37-0.911,0.556-1.849,0.556-2.813
				c0-0.704-0.115-1.335-0.328-1.906C23.054,6.635,22.463,6.588,21.808,6.577z"/>
			<path id="Inner_P" fill="#5FCCFF" d="M26.708,8.671c-0.465-0.751-1.097-1.29-1.895-1.614c-0.354-0.143-0.771-0.25-1.236-0.331
				l0.093,0.292c0,0-0.003,0-0.004,0.001C23.815,7.511,23.9,8.045,23.9,8.63c0,0.963-0.186,1.901-0.556,2.812
				s-0.825,1.64-1.363,2.188s-1.118,0.961-1.738,1.243c-0.526,0.239-1.691,0.571-2.059,0.571h-6.316l-2.192,10.23h4.092l1.607-7.503
				h6.317c0.366,0,1.53-0.329,2.059-0.57c0.62-0.282,1.2-0.696,1.739-1.243c0.537-0.546,0.991-1.276,1.361-2.187
				c0.371-0.912,0.558-1.849,0.558-2.813C27.409,10.317,27.175,9.422,26.708,8.671z"/>
		</g>
	</g>
</g>
</svg>
