<?xml version="1.0" encoding="utf-8"?>
<!-- Generator: Adobe Illustrator 16.0.0, SVG Export Plug-In . SVG Version: 6.00 Build 0)  -->
<!DOCTYPE svg PUBLIC "-//W3C//DTD SVG 1.1//EN" "http://www.w3.org/Graphics/SVG/1.1/DTD/svg11.dtd">
<svg version="1.1" id="Layer_1" xmlns="http://www.w3.org/2000/svg" xmlns:xlink="http://www.w3.org/1999/xlink" x="0px" y="0px"
	 width="22.245px" height="22.836px" viewBox="22.256 54 22.245 22.836" enable-background="new 22.256 54 22.245 22.836"
	 xml:space="preserve">
<g transform="translate(50 50) scale(0.69 0.69) rotate(0) translate(-50 -50)">
	<path fill="#2B8FF1" d="M41.349,81.416l-5.472-5.474c-0.907-0.906-2.376-0.906-3.283,0l-3.011,3.012l-9.855-9.852l3.012-3.009
		c0.437-0.439,0.681-1.022,0.681-1.642c0-0.62-0.24-1.204-0.681-1.642l-5.474-5.477c-0.906-0.904-2.381-0.904-3.282,0l-2.489,2.488
		c-1.277,1.279-1.88,3.033-1.661,4.821c0.643,5.19,3.751,10.906,8.527,15.683c4.773,4.772,10.49,7.882,15.681,8.523
		c0.243,0.031,0.483,0.047,0.723,0.047c1.53,0,2.993-0.599,4.095-1.703l2.488-2.49C42.256,83.795,42.256,82.321,41.349,81.416z
		 M40.255,83.605l-2.489,2.488c-0.937,0.938-2.226,1.383-3.534,1.22c-4.858-0.6-10.242-3.55-14.779-8.086
		c-4.535-4.536-7.481-9.924-8.081-14.783c-0.163-1.306,0.282-2.596,1.219-3.533l2.488-2.488c0.151-0.151,0.348-0.225,0.545-0.225
		c0.199,0,0.396,0.074,0.547,0.225l5.472,5.472c0.303,0.303,0.303,0.795,0,1.097l-3.557,3.557c-0.146,0.147-0.227,0.34-0.227,0.546
		c0,0.204,0.081,0.401,0.227,0.545l10.947,10.947c0.301,0.3,0.793,0.3,1.095,0l3.557-3.558c0.302-0.303,0.794-0.303,1.095,0
		l5.474,5.472C40.556,82.812,40.556,83.304,40.255,83.605z"/>
</g>
</svg>
