<?xml version="1.0" encoding="utf-8"?>
<!-- Generator: Adobe Illustrator 16.0.0, SVG Export Plug-In . SVG Version: 6.00 Build 0)  -->
<!DOCTYPE svg PUBLIC "-//W3C//DTD SVG 1.1//EN" "http://www.w3.org/Graphics/SVG/1.1/DTD/svg11.dtd">
<svg version="1.1"
	 id="Layer_1" xmlns:inkscape="http://www.inkscape.org/namespaces/inkscape" xmlns:svg="http://www.w3.org/2000/svg" xmlns:dc="http://purl.org/dc/elements/1.1/" xmlns:sodipodi="http://sodipodi.sourceforge.net/DTD/sodipodi-0.dtd" xmlns:rdf="http://www.w3.org/1999/02/22-rdf-syntax-ns#" xmlns:cc="http://creativecommons.org/ns#"
	 xmlns="http://www.w3.org/2000/svg" xmlns:xlink="http://www.w3.org/1999/xlink" x="0px" y="0px" width="42.781px"
	 height="53.814px" viewBox="0 5.48 42.781 53.814" enable-background="new 0 5.48 42.781 53.814" xml:space="preserve">
<g transform="translate(50 50) scale(0.69 0.69) rotate(0) translate(-50 -50)">
	<g transform="translate(0,-952.36218)">
		<path fill="#2B80C3" d="M8.537,944.845c-8.758,0-15.873,7.115-15.873,15.876v7.59h-0.691c-2.641,0-4.831,2.19-4.831,4.83v24.844
			c0,2.641,2.192,4.832,4.831,4.832h33.126c2.641,0,4.832-2.194,4.832-4.832v-24.844c0-2.64-2.194-4.83-4.832-4.83H24.41v-7.59
			C24.41,951.961,17.295,944.845,8.537,944.845z M8.537,948.987c6.536,0,11.73,5.196,11.73,11.734v7.59H-3.196v-7.59
			C-3.196,954.183,2.002,948.987,8.537,948.987z M-8.027,972.45h33.126c0.419,0,0.692,0.275,0.692,0.691v24.844
			c0,0.419-0.273,0.688-0.692,0.688H-8.027c-0.417,0-0.689-0.269-0.689-0.688v-24.844C-8.716,972.723-8.444,972.45-8.027,972.45z"/>
	</g>
</g>
</svg>
