<?xml version="1.0" encoding="utf-8"?>
<!-- Generator: Adobe Illustrator 16.0.0, SVG Export Plug-In . SVG Version: 6.00 Build 0)  -->
<!DOCTYPE svg PUBLIC "-//W3C//DTD SVG 1.1//EN" "http://www.w3.org/Graphics/SVG/1.1/DTD/svg11.dtd">
<svg version="1.1" id="Layer_1" xmlns="http://www.w3.org/2000/svg" xmlns:xlink="http://www.w3.org/1999/xlink" x="0px" y="0px"
	 width="14.722px" height="18.791px" viewBox="0.911 0 14.722 18.791" enable-background="new 0.911 0 14.722 18.791"
	 xml:space="preserve">
<path fill="#1C75BC" d="M13.65,6.831h-0.671V4.819c0-2.591-2.097-4.694-4.694-4.694c-2.587,0-4.692,2.105-4.692,4.694v2.012H2.922
	c-1.111,0-2.011,0.901-2.011,2.011v8.046c0,1.108,0.9,2.012,2.011,2.012H13.65c1.108,0,2.012-0.903,2.012-2.012V8.841
	C15.662,7.731,14.759,6.831,13.65,6.831 M4.932,4.819c0-1.85,1.505-3.352,3.354-3.352c1.856,0,3.352,1.502,3.352,3.352v2.012H4.932
	V4.819z M14.321,16.888c0,0.368-0.303,0.67-0.671,0.67H2.922c-0.37,0-0.67-0.302-0.67-0.67V8.841c0-0.37,0.3-0.672,0.67-0.672H13.65
	c0.368,0,0.671,0.302,0.671,0.672V16.888z"/>
<path fill="#1C75BC" d="M8.285,9.511c-1.109,0-2.01,0.903-2.01,2.011c0,0.874,0.558,1.621,1.34,1.897v2.127
	c0,0.369,0.299,0.671,0.67,0.671c0.37,0,0.672-0.302,0.672-0.671V13.42c0.78-0.276,1.339-1.023,1.339-1.897
	C10.296,10.414,9.394,9.511,8.285,9.511 M8.285,12.193c-0.371,0-0.67-0.301-0.67-0.671c0-0.369,0.299-0.67,0.67-0.67
	c0.37,0,0.672,0.301,0.672,0.67C8.957,11.893,8.655,12.193,8.285,12.193"/>
</svg>
