<?xml version="1.0" encoding="utf-8"?>
<!-- Generator: Adobe Illustrator 16.0.0, SVG Export Plug-In . SVG Version: 6.00 Build 0)  -->
<!DOCTYPE svg PUBLIC "-//W3C//DTD SVG 1.1//EN" "http://www.w3.org/Graphics/SVG/1.1/DTD/svg11.dtd">
<svg version="1.1" id="Layer_1" xmlns="http://www.w3.org/2000/svg" xmlns:xlink="http://www.w3.org/1999/xlink" x="0px" y="0px"
	 width="100px" height="100px" viewBox="0 0 100 100" enable-background="new 0 0 100 100" xml:space="preserve">
<g transform="translate(50 50) scale(0.69 0.69) rotate(0) translate(-50 -50)">
	<g>
		<path fill="#4D4D4D" d="M51.567,81.394h-0.185c-0.563,0-1.125-0.095-1.595-0.375c-3.657-1.875-25.408-17.531-32.72-30.095
			c-2.343-4.031-3.563-8.25-3.656-12.562c-0.094-4.032,0.937-8.062,2.906-11.438c3.938-6.752,11.063-10.783,19.218-10.783
			c3.564,0,7.501,1.501,10.875,4.031c1.501,1.125,3.376,2.814,4.971,5.157c1.592-2.343,3.469-3.937,4.968-5.157
			c3.376-2.53,7.406-4.031,10.875-4.031c8.158,0,15.376,4.031,19.218,10.783c1.97,3.468,3.002,7.406,2.907,11.438
			c-0.093,4.312-1.312,8.531-3.654,12.562c-7.314,12.564-29.065,28.22-32.722,30.095C52.692,81.208,52.13,81.394,51.567,81.394z
			 M34.58,21.268c-5.999,0-11.3,2.901-14.101,7.801c-3.1,5.399-2.799,11.999,0.801,18.199c2.799,4.9,8.899,11.4,17.199,18.4
			c5.501,4.699,10.401,8.2,13.001,9.899c2.499-1.698,7.399-5.2,13.001-9.899c8.299-7,14.399-13.501,17.299-18.4
			c3.599-6.2,3.899-12.8,0.8-18.199c-2.799-4.9-8.1-7.801-14.099-7.801c-2.1,0-4.9,1.101-7.201,2.799c-2,1.5-4.499,4.102-5.8,8.101
			c-0.5,1.599-1.899,2.6-3.499,2.6h-0.9c-1.601,0-3.101-1.1-3.501-2.6c-1.2-4.1-3.799-6.7-5.8-8.101
			C39.38,22.268,36.681,21.268,34.58,21.268z"/>
	</g>
</g>
</svg>
