<?xml version="1.0" encoding="utf-8"?>
<!-- Generator: Adobe Illustrator 16.0.0, SVG Export Plug-In . SVG Version: 6.00 Build 0)  -->
<!DOCTYPE svg PUBLIC "-//W3C//DTD SVG 1.1//EN" "http://www.w3.org/Graphics/SVG/1.1/DTD/svg11.dtd">
<svg version="1.1" id="Layer_1" xmlns="http://www.w3.org/2000/svg" xmlns:xlink="http://www.w3.org/1999/xlink" x="0px" y="0px"
	 width="57.5px" height="69px" viewBox="28.25 17.813 57.5 69" enable-background="new 28.25 17.813 57.5 69" xml:space="preserve">
<g transform="translate(50 50) scale(0.69 0.69) rotate(0) translate(-50 -50)">
	<g>
		<path fill="#2B80C3" d="M27.763,14.493V92.21h64.764V14.493H27.763z M40.716,16.112c0.896,0,1.619,0.724,1.619,1.619
			s-0.723,1.619-1.619,1.619c-0.896,0-1.619-0.724-1.619-1.619S39.82,16.112,40.716,16.112z M35.858,16.112
			c0.896,0,1.619,0.724,1.619,1.619s-0.723,1.619-1.619,1.619c-0.896,0-1.619-0.724-1.619-1.619S34.962,16.112,35.858,16.112z
			 M31.001,16.112c0.896,0,1.619,0.724,1.619,1.619s-0.723,1.619-1.619,1.619c-0.896,0-1.619-0.724-1.619-1.619
			S30.105,16.112,31.001,16.112z M90.908,90.591H29.382V20.969h61.526V90.591z"/>
		<rect x="48.811" y="33.922" fill="#2B80C3" width="22.668" height="1.619"/>
		<rect x="48.811" y="30.684" fill="#2B80C3" width="25.906" height="1.619"/>
		<rect x="48.811" y="25.827" fill="#2B80C3" width="14.572" height="3.238"/>
		<rect x="48.811" y="82.495" fill="#2B80C3" width="22.668" height="1.619"/>
		<rect x="48.811" y="79.257" fill="#2B80C3" width="25.906" height="1.619"/>
		<rect x="48.811" y="37.16" fill="#2B80C3" width="25.906" height="1.619"/>
		<path fill="#2B80C3" d="M35.898,37.353c-0.006-0.067-0.04-0.125-0.04-0.192v-1.619c0-0.891,0.728-1.619,1.619-1.619h4.857
			c0.891,0,1.619,0.728,1.619,1.619v1.619c0,0.068-0.033,0.126-0.04,0.192c1.492-1.185,2.468-2.995,2.468-5.05
			c0-3.577-2.9-6.476-6.476-6.476c-3.577,0-6.476,2.9-6.476,6.476C33.43,34.358,34.406,36.168,35.898,37.353z M39.906,27.446
			c1.341,0,2.429,1.088,2.429,2.429c0,1.34-1.088,2.429-2.429,2.429c-1.34,0-2.429-1.088-2.429-2.429
			C37.477,28.533,38.566,27.446,39.906,27.446z"/>
		<path fill="#2B80C3" d="M39.906,74.4c-3.577,0-6.476,2.899-6.476,6.476c0,2.055,0.977,3.865,2.468,5.05
			c-0.006-0.066-0.04-0.125-0.04-0.192v-1.619c0-0.89,0.728-1.619,1.619-1.619h4.857c0.891,0,1.619,0.729,1.619,1.619v1.619
			c0,0.068-0.033,0.126-0.04,0.192c1.492-1.185,2.468-2.995,2.468-5.05C46.382,77.298,43.483,74.4,39.906,74.4z M39.906,80.876
			c-1.34,0-2.429-1.088-2.429-2.429s1.088-2.429,2.429-2.429c1.341,0,2.429,1.088,2.429,2.429S41.247,80.876,39.906,80.876z"/>
		<path fill="#2B80C3" d="M33.43,56.59c0,2.055,0.977,3.865,2.468,5.05c-0.006-0.067-0.04-0.125-0.04-0.192v-1.619
			c0-0.89,0.728-1.619,1.619-1.619h4.857c0.891,0,1.619,0.729,1.619,1.619v1.619c0,0.068-0.033,0.126-0.04,0.192
			c1.492-1.185,2.468-2.995,2.468-5.05c0-3.578-2.9-6.476-6.476-6.476C36.329,50.113,33.43,53.012,33.43,56.59z M39.906,51.732
			c1.341,0,2.429,1.088,2.429,2.429s-1.088,2.429-2.429,2.429c-1.34,0-2.429-1.088-2.429-2.429S38.566,51.732,39.906,51.732z"/>
		<rect x="48.811" y="58.209" fill="#2B80C3" width="22.668" height="1.619"/>
		<rect x="48.811" y="54.971" fill="#2B80C3" width="25.906" height="1.619"/>
		<rect x="48.811" y="50.113" fill="#2B80C3" width="14.572" height="3.238"/>
		<rect x="48.811" y="61.447" fill="#2B80C3" width="25.906" height="1.619"/>
		<rect x="48.811" y="85.734" fill="#2B80C3" width="25.906" height="1.619"/>
		<rect x="48.811" y="74.4" fill="#2B80C3" width="14.572" height="3.238"/>
		<circle fill="#2B80C3" cx="33.43" cy="68.733" r="0.81"/>
		<circle fill="#2B80C3" cx="36.668" cy="68.733" r="0.81"/>
		<circle fill="#2B80C3" cx="39.906" cy="68.733" r="0.81"/>
		<circle fill="#2B80C3" cx="43.144" cy="68.733" r="0.81"/>
		<circle fill="#2B80C3" cx="46.382" cy="68.733" r="0.81"/>
		<circle fill="#2B80C3" cx="49.621" cy="68.733" r="0.81"/>
		<circle fill="#2B80C3" cx="52.859" cy="68.733" r="0.81"/>
		<circle fill="#2B80C3" cx="56.097" cy="68.733" r="0.81"/>
		<circle fill="#2B80C3" cx="59.335" cy="68.733" r="0.81"/>
		<circle fill="#2B80C3" cx="62.574" cy="68.733" r="0.81"/>
		<circle fill="#2B80C3" cx="65.812" cy="68.733" r="0.81"/>
		<circle fill="#2B80C3" cx="69.05" cy="68.733" r="0.81"/>
		<circle fill="#2B80C3" cx="72.288" cy="68.733" r="0.81"/>
		<circle fill="#2B80C3" cx="75.526" cy="68.733" r="0.81"/>
		<circle fill="#2B80C3" cx="78.765" cy="68.733" r="0.81"/>
		<circle fill="#2B80C3" cx="82.003" cy="68.733" r="0.81"/>
		<circle fill="#2B80C3" cx="85.241" cy="68.733" r="0.81"/>
		<circle fill="#2B80C3" cx="33.43" cy="44.446" r="0.81"/>
		<circle fill="#2B80C3" cx="36.668" cy="44.446" r="0.81"/>
		<circle fill="#2B80C3" cx="39.906" cy="44.446" r="0.81"/>
		<circle fill="#2B80C3" cx="43.144" cy="44.446" r="0.81"/>
		<circle fill="#2B80C3" cx="46.382" cy="44.446" r="0.81"/>
		<circle fill="#2B80C3" cx="49.621" cy="44.446" r="0.81"/>
		<circle fill="#2B80C3" cx="52.859" cy="44.446" r="0.81"/>
		<circle fill="#2B80C3" cx="56.097" cy="44.446" r="0.81"/>
		<circle fill="#2B80C3" cx="59.335" cy="44.446" r="0.81"/>
		<circle fill="#2B80C3" cx="62.574" cy="44.446" r="0.81"/>
		<circle fill="#2B80C3" cx="65.812" cy="44.446" r="0.81"/>
		<circle fill="#2B80C3" cx="69.05" cy="44.446" r="0.81"/>
		<circle fill="#2B80C3" cx="72.288" cy="44.446" r="0.81"/>
		<circle fill="#2B80C3" cx="75.526" cy="44.446" r="0.81"/>
		<circle fill="#2B80C3" cx="78.765" cy="44.446" r="0.81"/>
		<circle fill="#2B80C3" cx="82.003" cy="44.446" r="0.81"/>
		<circle fill="#2B80C3" cx="85.241" cy="44.446" r="0.81"/>
	</g>
</g>
</svg>
