<?xml version="1.0" encoding="utf-8"?>
<!-- Generator: Adobe Illustrator 16.0.0, SVG Export Plug-In . SVG Version: 6.00 Build 0)  -->
<!DOCTYPE svg PUBLIC "-//W3C//DTD SVG 1.1//EN" "http://www.w3.org/Graphics/SVG/1.1/DTD/svg11.dtd">
<svg version="1.1" id="Layer_1" xmlns="http://www.w3.org/2000/svg" xmlns:xlink="http://www.w3.org/1999/xlink" x="0px" y="0px"
	 width="42.063px" height="33.178px" viewBox="0 0 42.063 33.178" enable-background="new 0 0 42.063 33.178" xml:space="preserve">
<path fill="#E7ECEF" d="M41.397,0H0.666C0.298,0,0,0.298,0,0.666v31.846c0,0.368,0.298,0.666,0.666,0.666h40.731
	c0.369,0,0.666-0.298,0.666-0.666V0.666C42.063,0.298,41.766,0,41.397,0 M38.065,27.864l-9.166-9.491
	c-0.102-0.104-0.268-0.112-0.377-0.015l-6.357,5.595L14.04,13.948c-0.054-0.065-0.131-0.103-0.218-0.101
	c-0.085,0.002-0.163,0.042-0.213,0.11L3.998,26.853V3.998h34.067V27.864z"/>
<path fill="#E7ECEF" d="M23.107,13.625c1.806,0,3.271-1.464,3.271-3.27c0-1.805-1.465-3.271-3.271-3.271s-3.269,1.465-3.269,3.271
	C19.838,12.161,21.301,13.625,23.107,13.625"/>
</svg>
