<?xml version="1.0" encoding="utf-8"?>
<!-- Generator: Adobe Illustrator 16.0.0, SVG Export Plug-In . SVG Version: 6.00 Build 0)  -->
<!DOCTYPE svg PUBLIC "-//W3C//DTD SVG 1.1//EN" "http://www.w3.org/Graphics/SVG/1.1/DTD/svg11.dtd">
<svg version="1.1" id="Layer_1" xmlns="http://www.w3.org/2000/svg" xmlns:xlink="http://www.w3.org/1999/xlink" x="0px" y="0px"
	 width="1130px" height="1062px" viewBox="0 0 1130 1062" enable-background="new 0 0 1130 1062" xml:space="preserve">
<rect y="1.719" fill="#FFFFFF" width="1130" height="1062"/>
<linearGradient id="SVGID_1_" gradientUnits="userSpaceOnUse" x1="231.9937" y1="847.6357" x2="231.9936" y2="628.9883" gradientTransform="matrix(-2.9557 0.0302 0.0522 -0.5164 1212.7346 1314.6392)">
	<stop  offset="0" style="stop-color:#85D0EE"/>
	<stop  offset="0.1897" style="stop-color:#9BD9F1"/>
	<stop  offset="0.5319" style="stop-color:#BDE6F6"/>
	<stop  offset="0.8144" style="stop-color:#D2EEF9"/>
	<stop  offset="1" style="stop-color:#DAF1FA"/>
</linearGradient>
<path opacity="0.4" fill="url(#SVGID_1_)" d="M966.168,890.598c0,0,7.723,0.444,21.834,0.751
	c2.738-2.547,37.243-8.275,39.998-10.759l-152.41,2.575c0,0-624.209,3.626-641.407,4.257
	c-17.283,0.634-120.589,0.067-121.405,17.505c-0.815,17.441,61.362,31.894,61.362,31.894c0.167-2.645,0.853-4.797,1.845-6.549
	c3.653-6.455,9.913-4.432,12.22,3.753c9.104,32.292,107.909,60.479,198.852,63.758c98.516,3.55,158.613-12.546,189.058-23.027
	c30.164-10.386,64.116-15.22,64.116-15.22c-16.159-2.757-27.567-11.557-27.567-11.557s46.859,15.666,141.454,12.23
	c91.867-3.336,157.264-14.778,170.734-25.375c16.203-12.745,13.201-16.306,42.066-23.54
	C992.254,902.669,966.168,890.598,966.168,890.598z"/>
<g>
	<path fill="#E1F2F9" d="M229.734,297.159h278.941c23.069,0,23.031-29.349,0-29.349H234.069c2.058-7.852,4.917-15.392,8.927-22.405
		c10.447-18.275,27.41-30.882,45.081-40.176c19.359-10.181,39.898-16.93,60.887-21.925c3.291-24.47,15.917-48.67,31.712-66.962
		c8.258-9.563,17.318-18.134,26.987-25.788H667.73c16.817,0,16.789-21.395,0-21.395H440.451
		c14.322-7.643,29.396-13.742,44.79-18.484h264.155c27.974,10.749,54.138,27.19,76.445,48.724
		c9.571,9.24,18.574,19.883,25.986,31.529h-43.446c-23.069,0-23.031,29.348,0,29.348h53.894c1.255,0,2.428-0.102,3.546-0.266
		c4.062,12.374,5.938,25.381,4.72,38.688c-0.938,10.228-3.724,20.003-7.843,29.133c11.857,7.885,22.88,17.161,32.606,28.148
		c28.763,32.492,44.312,81.737,31.383,124.871c-1.58,5.272-3.56,10.331-5.831,15.217h-178.2c-23.069,0-23.031,29.348,0,29.348
		h159.499c-9.046,11.076-19.454,21.023-30.155,30.053c-37.831,31.922-80.869,55.658-126.211,71.944H382.251
		c-17.686-6.511-34.675-14.905-50.346-26.122c-6.22-4.452-12.162-9.326-17.938-14.441h77.719c23.069,0,23.031-29.348,0-29.348
		H283.93c-0.533-0.549-1.067-1.098-1.599-1.647c-15.14-15.624-30.602-31.716-39.81-52.216
		c-10.011-22.287-11.77-47.862-12.743-72.717C229.343,319.796,229.1,308.389,229.734,297.159z"/>
</g>
<g>
	<path fill="#E1F2F9" d="M321.537,585.606h220.352c18.224,0,18.193-23.184,0-23.184H324.961c1.625-6.203,3.885-12.159,7.052-17.699
		c8.252-14.438,21.653-24.396,35.612-31.737c15.293-8.042,31.518-13.374,48.099-17.32c2.6-19.33,12.573-38.447,25.051-52.897
		c6.523-7.555,13.68-14.325,21.319-20.371h95.33c13.285,0,13.263-16.901,0-16.901h-69.429c11.314-6.037,23.222-10.855,35.383-14.602
		h208.671c22.098,8.492,42.766,21.479,60.388,38.49c7.562,7.299,14.674,15.707,20.529,24.907h-34.321
		c-18.224,0-18.194,23.184,0,23.184h42.573c0.991,0,1.918-0.08,2.801-0.209c3.209,9.774,4.691,20.05,3.729,30.562
		c-0.74,8.08-2.941,15.802-6.195,23.014c9.367,6.229,18.074,13.557,25.758,22.236c22.722,25.667,35.004,64.568,24.791,98.643
		c-1.248,4.164-2.812,8.16-4.606,12.021h-140.77c-18.224,0-18.193,23.185,0,23.185h125.997c-7.146,8.749-15.368,16.607-23.822,23.74
		c-29.885,25.217-63.883,43.968-99.701,56.833H442.02c-13.971-5.144-27.393-11.774-39.771-20.635
		c-4.913-3.518-9.607-7.367-14.171-11.408h61.395c18.224,0,18.193-23.184,0-23.184H364.35c-0.421-0.434-0.843-0.867-1.264-1.301
		c-11.96-12.342-24.174-25.055-31.448-41.248c-7.908-17.605-9.298-37.81-10.066-57.442
		C321.229,603.489,321.036,594.478,321.537,585.606z"/>
</g>
<g>
	<g>
		<g>
			<path fill="#A7C4E4" d="M473.089,807.674l252.657,0.007c19.385,0.001,35.246-17.311,35.246-38.469l0.015-579.52
				c0-21.159-15.859-38.472-35.244-38.472l-252.657-0.007c-19.385,0-35.245,17.311-35.246,38.47l-0.014,579.52
				C437.845,790.361,453.705,807.673,473.089,807.674z"/>
			<path fill="#8DB0DA" d="M547.508,226.586l32.458,494.011l180.881-1.759l0.161-492.252
				C761.009,226.586,640.657,229.789,547.508,226.586z"/>
			<g>
				<g>
					<path fill="#2C4482" d="M451.037,807.673l252.657,0.008c19.385,0,35.245-17.311,35.245-38.47l0.015-579.52
						c0.001-21.159-15.859-38.471-35.244-38.472l-252.657-0.007c-19.385,0-35.245,17.311-35.246,38.469l-0.014,579.52
						C415.792,790.36,431.652,807.672,451.037,807.673z"/>
					
						<rect x="433.161" y="231.507" transform="matrix(-1 -3.043016e-005 3.043016e-005 -1 1154.7329 958.9092)" fill="#34B2E4" width="288.425" height="495.877"/>
				</g>
				<rect x="552.773" y="185.486" fill="#8DB0DA" width="53.095" height="7.451"/>
			</g>
		</g>
		<path opacity="0.25" fill="#ADD5F8" d="M515.233,515.4c54.087,58.318,108.174,116.637,162.262,174.955
			c15.169,16.355,30.337,32.711,45.506,49.065l-0.631-112.442l-16.543-17.837c-43.494-46.896-86.987-93.792-130.481-140.689
			L432.725,314.675l0.631,112.443L515.233,515.4z"/>
		<path opacity="0.25" fill="#ADD5F8" d="M721.088,281.773l-47.149-50.837l-83.795,0.561l48.007,51.763
			c27.816,29.993,55.634,59.986,83.451,89.979L721.088,281.773z"/>
		<path opacity="0.25" fill="#ADD5F8" d="M434.654,613.259l133.379,143.813l42.514-0.284c-19.912-21.47-39.824-42.938-59.736-64.409
			c-39.362-42.441-78.725-84.883-118.087-127.324l0.262,46.609C433.568,612.16,434.127,612.689,434.654,613.259z"/>
		<path fill="#37518C" d="M584.581,776.857l-48.322,0.323c-5.2,0.035-9.44-4.538-9.473-10.214l-0.016-2.91
			c-0.032-5.676,4.157-10.305,9.357-10.34l48.322-0.323c5.2-0.035,9.441,4.538,9.473,10.214l0.017,2.91
			C593.971,772.193,589.781,776.823,584.581,776.857z"/>
		<path fill="#77A0C9" d="M584.45,753.394c5.2-0.035,9.44,4.538,9.472,10.214l0.017,2.91c0.032,5.676-4.157,10.306-9.357,10.34
			l-48.322,0.323c-5.2,0.035-9.44-4.538-9.473-10.214l-0.016-2.91c-0.032-5.676,4.157-10.305,9.357-10.34L584.45,753.394
			 M584.438,751.453l-48.322,0.323c-6.172,0.041-11.162,5.556-11.124,12.292l0.016,2.91c0.038,6.737,5.09,12.184,11.262,12.143
			l48.322-0.323c6.171-0.041,11.162-5.556,11.124-12.292l-0.016-2.91C595.662,756.858,590.61,751.412,584.438,751.453
			L584.438,751.453z"/>
	</g>
</g>
<g>
	<g>
		<path fill="#C2D4EA" d="M649.344,334.545c0.106,36.257-28.86,65.65-64.699,65.65c-35.839,0-64.978-29.393-65.084-65.65
			s28.86-65.649,64.699-65.649S649.237,298.288,649.344,334.545z"/>
		<g>
			<g>
				<defs>
					<path id="SVGID_2_" d="M643.97,332.079c-1.34,36.117-32.177,65.396-68.876,65.396c-36.7,0-65.364-29.279-64.025-65.396
						c1.34-36.118,32.177-65.397,68.876-65.397C616.645,266.682,645.31,295.961,643.97,332.079z"/>
				</defs>
				<use xlink:href="#SVGID_2_"  overflow="visible" fill="#C2D4EA"/>
				<clipPath id="SVGID_3_">
					<use xlink:href="#SVGID_2_"  overflow="visible"/>
				</clipPath>
				<g clip-path="url(#SVGID_3_)">
					<path fill="#2C4482" d="M585.501,366.299c-2.354,1.521-9.068,0.583-11.311,1.835c-2.23,1.246-9.693,1.625-11.842,1.043
						c0.399-10.8,5.833-21.726,6.297-31.666c4.091,9.138,8.918,4.121,13.653-2.134C581.849,345.09,585.737,356.529,585.501,366.299z
						"/>
					<path fill="#2C4482" d="M568.165,345.238c0.33,1.091,0.923,2.162,1.47,3.036c1.116,1.783,2.875,3.019,4.971,3.609
						c2.453,0.691,5.023-0.543,6.945-2.116c0.631-0.517,1.237-1.061,1.829-1.62c-0.705-4.393-1.269-8.731-1.082-12.771
						c-4.735,6.255-9.562,11.272-13.653,2.134c0.257,0.573-0.155,2.036-0.234,2.668c-0.123,0.984-0.333,1.957-0.47,2.938
						C567.846,343.801,567.949,344.524,568.165,345.238z"/>
					<path fill="#2C4482" d="M609.637,410.911c-0.361-3.724-0.725-7.452-1.131-11.172c-0.329-3.016-0.679-6.025-1.06-9.021
						c-0.393-3.081-0.759-6.233-1.173-9.405c-1.159-8.89-2.19-19.936-5.689-28.026c-0.107-0.246-0.186-0.498-0.238-0.75
						c-0.186-0.043-13.022-4.687-17.063-5c0,2.949-2.589,9.879-8.454,9.824c-3.662-0.034-7.88-5.321-7.883-9.824
						c-5.429,0.483-17.422,5.071-17.464,5.08c-2.903,0.604-5.397,17.281-5.82,19.443c-1.833,9.375-3.837,18.56-5.418,27.94
						c-0.016,0.092-0.032,0.184-0.048,0.275c-0.593,3.543-1.168,7.089-1.734,10.636H609.637z"/>
					<path fill="#2C4482" d="M549.482,352.616c0.051-0.011,0.104-0.021,0.155-0.031c-3.227,0.967-9.219,4.619-12.392,6.344
						c-5.216,2.836-9.663,7.387-13.178,12.852c-3.158,4.912-5.584,10.395-7.503,16.14c1.545,2.84,3.634,5.215,6.315,7.091
						c3.778,2.644,11.466,5.445,12.225,5.778c1.847-3.247,3.524-5.217,4.272-6.955c1.296-6.836,2.94-14.887,4.286-21.775
						C544.085,369.897,546.579,353.22,549.482,352.616z"/>
					<path fill="#2C4482" d="M624.725,371.053c-3.106-5.539-7.213-10.151-12.218-13.026c-3.341-1.919-12.346-5.534-12.161-5.491
						c0.052,0.253,4.769,19.887,5.927,28.777c0.414,3.172,0.389,3.244,0.78,6.325c0.381,2.995,3.808,10.523,6.27,13.642
						c3.476-0.955,9.042-4.01,11.586-5.599c3.883-2.426,4.58-3.958,6.021-5.781C629.439,384.078,627.517,376.032,624.725,371.053z"
						/>
					<path fill="#2C4482" d="M559.071,325.95c0.54,4.689,1.596,9.416,4.147,13.344s6.816,6.968,11.625,7.126
						c6.087,0.201,11.723-4.247,14.646-9.616c2.922-5.369,3.662-11.531,4.227-17.523c0.48-5.094,0.822-10.478-1.464-14.973
						c-0.832-1.636-2.014-3.115-3.556-4.131c-1.094-0.721-2.344-1.195-3.618-1.556c-5.44-1.541-11.607-1.001-16.656,1.822
						C558.521,305.982,557.954,316.235,559.071,325.95z"/>
					<path fill="#2C4482" d="M598.672,305.034c1.581-1.597,2.683-3.626,2.805-5.795c0.041-0.721-0.431-1.702-1.104-1.391
						c-0.142,0.455-0.283,0.909-0.425,1.364c-0.995,0.281-1.892-0.532-2.557-1.274c-0.788-0.879-1.576-1.762-2.323-2.675
						c-0.479-0.734-1-1.439-1.571-2.103c-0.1-0.149-0.202-0.297-0.298-0.449c-0.876-1.379-1.594-2.874-2.688-4.089
						c-3.101-3.44-8.402-3.866-13.163-3.679c-2.944,0.115-5.942,0.388-8.7,1.499s-5.276,3.177-6.292,5.929
						c-0.123,0.331-0.211,0.665-0.282,0.999c-6.56,4.006-10.465,12.252-8.808,19.55c0.561,2.467,1.667,4.967,1.065,7.451
						c0.151,1.442,0.251,2.893,0.316,4.346c1.021,1.168,2.702,1.761,3.853,0.722c0.833-0.752,0.947-1.969,1.004-3.06
						c0.169-3.222,0.338-6.444,0.507-9.667c0.032-0.599,0.071-1.224,0.379-1.751c0.313-0.535,0.859-0.892,1.367-1.257
						c2.076-1.494,3.807-3.453,5.04-5.666c2.101,1.968,4.537,3.503,6.585,4.274c4.365,1.643,9.235,1.773,13.953,1.234
						c1.304-0.149,2.617-0.354,3.901-0.661c0.106,4.473,0.213,8.945,0.32,13.418c0.04,1.652,0.355,3.687,1.95,4.155
						c1.085,0.319,2.307-0.333,2.989-1.261c0.683-0.928,0.943-2.074,1.17-3.184c1.122-5.483,1.832-11.11,1.069-16.584
						C598.716,305.296,598.693,305.165,598.672,305.034z"/>
					<path fill="#2C4482" d="M560.229,327.968c-0.104-2.494-0.604-5.135-0.557-7.638c-0.415-0.246-0.601-0.258-1.083-0.309
						c-0.417-0.044-0.858-0.014-1.233,0.208c-0.648,0.383-0.942,1.22-1.138,1.991c-0.636,2.497-0.837,5.165-0.181,7.598
						c0.656,2.432,2.255,4.594,4.447,5.411c0.295,0.11,0.461,0.156,0.767,0.078C560.629,332.881,560.338,330.548,560.229,327.968z"
						/>
					<path fill="#2C4482" d="M596.49,322.221c-0.139-0.771-0.37-1.608-0.99-1.991c-0.359-0.223-0.798-0.253-1.218-0.208
						c-0.962,0.102-1.853,0.63-2.543,1.388c-0.102,0.033-0.195,0.085-0.285,0.144c0.007,1.463-0.063,2.931-0.117,4.422
						c-0.105,2.9-0.076,4.618-0.602,7.5c-0.052,0.288-0.457,1.814-0.574,2.065c0.278,0.046,0.821-0.21,1.098-0.311
						c2.252-0.816,4.011-2.979,4.848-5.411C596.944,327.386,596.94,324.718,596.49,322.221z"/>
				</g>
			</g>
		</g>
	</g>
	<g>
		<rect x="474.479" y="428.82" fill="#C4DCE8" width="211.41" height="38.272"/>
		<rect x="474.479" y="482.891" fill="#C4DCE8" width="211.41" height="38.272"/>
		<path opacity="0.5" fill="#ADD5F8" d="M650.546,633.578H507.975c-10.248,0-18.556-8.309-18.556-18.557v-5.23
			c0-10.248,8.308-18.557,18.556-18.557h142.571c10.248,0,18.557,8.309,18.557,18.557v5.23
			C669.103,625.27,660.794,633.578,650.546,633.578z"/>
		<path fill="#2C4482" d="M649.749,454.165h-139.13c-3.342,0-6.051-2.998-6.051-6.697c0-3.699,2.709-6.696,6.051-6.696h139.13
			c3.343,0,6.051,2.998,6.051,6.696C655.8,451.167,653.092,454.165,649.749,454.165z"/>
		<g>
			<g>
				<g>
					<path fill="#2C4482" d="M508.313,498.326l5.783,1.879v-6.168h4.144v6.168l5.879-1.928l1.205,3.904l-5.783,1.927l3.614,4.964
						l-3.325,2.361l-3.662-4.916l-3.614,4.964l-3.277-2.458l3.566-4.916l-5.831-1.927L508.313,498.326z"/>
				</g>
				<g>
					<path fill="#2C4482" d="M534.284,498.326l5.783,1.879v-6.168h4.144v6.168l5.879-1.928l1.205,3.904l-5.783,1.927l3.614,4.964
						l-3.325,2.361l-3.663-4.916l-3.614,4.964l-3.277-2.458l3.566-4.916l-5.831-1.927L534.284,498.326z"/>
				</g>
				<g>
					<path fill="#2C4482" d="M559.799,498.326l5.783,1.879v-6.168h4.145v6.168l5.879-1.928l1.205,3.904l-5.783,1.927l3.615,4.964
						l-3.325,2.361l-3.663-4.916l-3.614,4.964l-3.277-2.458l3.566-4.916l-5.831-1.927L559.799,498.326z"/>
				</g>
				<g>
					<path fill="#2C4482" d="M585.77,498.326l5.783,1.879v-6.168h4.144v6.168l5.879-1.928l1.205,3.904l-5.783,1.927l3.614,4.964
						l-3.325,2.361l-3.662-4.916l-3.614,4.964l-3.277-2.458l3.566-4.916l-5.831-1.927L585.77,498.326z"/>
				</g>
				<g>
					<path fill="#2C4482" d="M610.373,498.326l5.783,1.879v-6.168h4.145v6.168l5.879-1.928l1.205,3.904l-5.783,1.927l3.614,4.964
						l-3.325,2.361l-3.662-4.916l-3.614,4.964l-3.277-2.458l3.566-4.916l-5.831-1.927L610.373,498.326z"/>
				</g>
				<g>
					<path fill="#2C4482" d="M636.344,498.326l5.783,1.879v-6.168h4.145v6.168l5.879-1.928l1.205,3.904l-5.783,1.927l3.614,4.964
						l-3.325,2.361l-3.662-4.916l-3.614,4.964l-3.277-2.458l3.566-4.916l-5.831-1.927L636.344,498.326z"/>
				</g>
			</g>
		</g>
	</g>
</g>
<g>
	<polygon fill="#CEAB8B" points="590.04,828.874 590.043,828.876 590.033,828.877 	"/>
	<path fill="#FF5C98" d="M593.36,520.772c-1.292-7.516-6.689-29.349-7.87-34.02c-1.769,0.499-4.707,0.917-6.484,1.39
		c1.085,3.548,2.696,19.134,3.209,32.052c0.551,13.858-1.572,16.882-6.974,20.521c-5.401,3.639-35.634,16.932-35.634,16.932
		s-14.481,7.242-14.779,17.033c-0.298,9.79,8.961,19.09,8.961,19.09s40.81-31.33,54.086-43.747
		C601.15,537.605,594.753,528.879,593.36,520.772z"/>
	<path fill="#FF5C98" d="M574.534,560.669c-0.052-0.058-0.169-0.216-0.411-0.565c-0.556-0.805-1.121-1.6-1.709-2.381
		c-1.297-1.724-2.691-3.343-4.155-4.925c-0.152-0.154-0.305-0.308-0.457-0.462c-0.057-0.039-0.221-0.176-0.5-0.416
		c-0.708-0.551-1.43-1.08-2.141-1.625c-0.271-0.207-1.49-0.89-1.625-1.004c-0.518-0.221-1.04-0.43-1.564-0.633
		c-0.447-0.173-0.865-0.366-1.274-0.566c-9.961,4.662-21.09,9.556-21.09,9.556s-14.482,7.242-14.78,17.033
		c-0.298,9.79,8.961,19.09,8.961,19.09s23.908-18.355,41.08-32.537C574.742,561.021,574.628,560.829,574.534,560.669z"/>
	<g>
		<path fill="#BC9371" d="M505.347,895.856c-0.348,5.326-1.218,13.969-1.085,20.904c0,0,0.543,0.215,1.428,0.577
			c-0.535,4.516-0.718,9.054-0.961,13.591c-4.591-0.67-8.23-1.818-8.23-1.818c-2.086-4.922-3.004-20.697-3.212-33.605
			C497.262,896.512,501.392,896.145,505.347,895.856z"/>
		<path fill="#BC9371" d="M536.917,891.891c-1.344,6.425-3.079,17.543-3.521,24.466c0,0,15.132,7.471,16.889,10.509
			c1.757,3.039-0.269,4.211-8.104,4.687c-7.835,0.475-17.545-3.531-17.545-3.532c-1.671-5.077-1.278-20.874-0.416-33.755
			C528.1,895.597,532.953,891.85,536.917,891.891z"/>
		<path fill="#BC9371" d="M535.262,667.668c-4.653-0.005-8.057,1.541-10.557,3.906c-2.371-2.188-5.578-3.647-9.917-3.801
			c-20.193-0.715-27.469,13.656-26.906,28.99c0.063,1.705,1.374,125.547,5.517,203.65c3.092-0.089,8.639-1.074,11.734-1.109
			c1.237-23.004,9.922-96.057,16.742-146.661c1.547,50.635,1.589,124.819,1.986,147.771c3.092,0.147,8.253,0.834,11.34,1.035
			c13.179-70.383,25.771-202.129,25.896-203.83C562.216,682.315,555.468,667.688,535.262,667.668z"/>
		<path fill="#FFAA81" d="M520.32,676.075c0,0-8.494-1.031-17.982-3.94c0.902,3.197,1.321,6.477,1.392,9.796
			c3.865,0.303,7.111,0.428,9.228,0.572c8.544,0.584,17.88,0.694,20.49,0.773c-2.402-2.736-4.862-6.315-6.902-9.349
			C523.817,674.696,520.32,676.075,520.32,676.075z"/>
		<path fill="#FF5C98" d="M509.916,682.327c-0.303-3.065-1.023-6.013-2.324-8.728c-12.101-3.044-28.74-9.312-30.685-21.009
			c-1.992-11.975,10.79-48.887,15.985-64.81c-2.145-0.533-4.321-0.991-6.545-1.358c-4.742-0.781-10.235-0.796-15.04-2.127
			c-3.666,9.928-17.537,49.721-12.982,71.884C463.14,679.618,496.382,681.595,509.916,682.327z"/>
		<path fill="#FFAA81" d="M499.81,547.281c0.065-0.406,0.138-0.816,0.217-1.223c-0.379-0.625-0.734-1.265-1.041-1.93
			c-2.707-5.869-2.342-13.11,1.144-18.553c4.05-6.325,15.866-12.375,22.016-5.506c6.444,7.198,8.602,20.845,4.93,29.555
			c-0.65,1.541-1.498,3.032-2.73,4.164c-1.378,1.267-3.116,1.97-4.965,2.26c-0.346,3.915-1.187,8.102-1.424,11.668
			c-0.285,4.279-0.62,9.342-2.719,11.738c-1.729,1.975-3.844,1.128-5.677,0.207c-4.157-2.087-8.607-4.541-10.942-10.889
			c-0.536-1.458-0.945-3.115-1.033-4.919c-0.104-2.14,0.246-4.339,0.591-6.478C498.721,554.012,499.265,550.646,499.81,547.281z"/>
		<path fill="#915151" d="M523.96,533.166c1.688-0.456,3.556-0.469,5.335-0.709c0.784-0.105,1.5-0.513,1.986-1.137
			c1.883-2.412,2.576-5.199,1.139-8.75c-0.79-1.952-2.349-3.503-3.114-5.447c-0.788-2.001-0.551-3.122-0.493-5.268
			c0.068-2.509-0.239-4.577-1.035-6.16c-0.523-1.04-1.665-1.645-2.824-1.539c-0.005,0-0.011,0.001-0.016,0.001
			c-2.828,0.261-5.479,0.984-8.046,1.86c-0.463,0.158-0.952,0.192-1.436,0.114c-10.716-1.735-24.912,3.634-28.286,10.088
			c-0.338,0.646-0.592,1.329-0.683,2.023c-0.075,0.572-0.306,1.115-0.693,1.542c-0.824,0.91-1.439,1.912-1.72,3.045
			c-1.569,6.342,7.475,11.909,8.689,18.396c0.285,1.523,0.124,3.061,0.375,4.586c0.894,5.43,7.649,10.206,15.008,10.609
			c7.358,0.403,14.403-3.615,15.65-8.928c0.192-0.82,0.254-1.693-0.159-2.491c-0.565-1.092-1.909-1.859-2.877-2.795
			C517.686,539.238,519.396,534.4,523.96,533.166z"/>
		<path fill="#FF5C98" d="M550.593,600.733c-0.812-3.056-1.793-6.062-2.927-8.973c1.376-0.176-3.967-18.487-6.418-27.778
			c-7.807-0.858-14.901-1.7-18.288-1.708c-0.064-0.026-0.127-0.057-0.192-0.082c0,0-0.326-0.048-0.898-0.119
			c0.291-1.673-0.032-3.005-3.613-3.438c-6.711-0.813-17.897,0.559-21.354,1.373c-1.777,0.418-1.631,1.604-1.183,3.097
			c-0.067-0.065-0.133-0.137-0.201-0.203c-0.256,0.203-0.402,0.324-0.402,0.324s-25.523-1.093-32.497,48.865
			c2.669,6.453,16.585,8.495,19.817,8.754c0.519-0.89,0.945-3.258,1.544-5.275c1.867,12.268,2.767,15.458,4.706,38.369
			c-1.219,17.441-1.799,30.761-0.836,31.449c2.562,1.829,57.14,1.23,68.949-3.353c0.371-0.053,0.746-0.101,1.114-0.156
			c6.101-0.915,2.002-9.787,1.718-11.27C555.237,647.694,556.586,623.283,550.593,600.733z"/>
		<path fill="#EF487C" d="M558.648,678.584c-17.769-0.472-35.943-7.35-48.324-20.392c-11.523-12.139-18.438-28.39-24.17-43.87
			c-1.382-3.733-2.647-7.549-3.799-11.409c-0.105,0.095-0.211,0.19-0.317,0.284c1.868,12.222,4.729,28.039,6.651,50.741
			c-1.219,17.442-1.799,30.761-0.836,31.449c2.562,1.829,57.14,1.23,68.949-3.353c0.371-0.053,0.746-0.101,1.114-0.156
			c2.161-0.324,3.039-1.647,3.263-3.287C560.335,678.599,559.493,678.606,558.648,678.584z"/>
		<path fill="#45446C" d="M521.87,562.074c0.292-1.674-0.032-3.006-3.613-3.439c-6.711-0.813-17.897,0.559-21.354,1.373
			c-1.665,0.392-1.637,1.461-1.258,2.823C504.245,564.849,521.961,562.085,521.87,562.074z"/>
		<path fill="#230E04" d="M510.262,924.273c-0.512-2.08-1.569-3.978-2.614-5.847c-0.987-1.766-1.991-3.551-3.392-5.009
			c0.014-1.8,0.147-3.592,0.223-5.353c-3.622,0.622-7.271,0.635-10.763,0.178c0.136,2.569,0.148,5.092,0.129,7.473
			c-0.477,2.216-0.696,4.55-0.951,6.76c-0.294,2.562-0.728,5.766,1.212,7.831c1.44,1.533,3.769,1.83,5.866,1.667
			s7.826-0.146,8.512-0.459c0.455-0.207,0.791-0.609,1.057-1.032C510.685,928.672,510.774,926.352,510.262,924.273z"/>
		<path fill="#230E04" d="M550.286,926.865c-1.249-2.159-9.25-6.556-13.777-8.919c-0.846-1.505-1.738-2.993-2.895-4.266
			c0.173-2.018,0.373-4.011,0.621-5.971c-3.662,0.319-7.201,0.029-10.643-0.716c-0.071,2.346-0.111,4.646-0.113,6.831
			c-0.054,0.146-0.115,0.282-0.16,0.44c-0.748,2.622-0.982,5.514-1.292,8.21c-0.294,2.562-0.728,5.766,1.212,7.831
			c1.44,1.533,3.769,1.83,5.867,1.667s7.825-0.146,8.512-0.459c0.06-0.027,0.112-0.065,0.168-0.1
			c1.48,0.159,2.969,0.223,4.396,0.137C550.017,931.076,552.042,929.904,550.286,926.865z"/>
	</g>
	<path fill="#FFAA81" d="M579.889,459.98c-0.403,0.25-0.67,0.844-0.862,1.486c-0.028,0.008-0.057,0.014-0.085,0.023
		c-0.033-0.109-0.068-0.217-0.129-0.313c-0.191-0.3-0.571-0.468-0.897-0.266c-0.569,0.354-0.867,1.39-1.063,2.281
		c-0.236,0.504-0.333,1.039-0.41,1.549l-0.585,3.845c-0.027,0.146-0.049,0.293-0.067,0.444l-0.322,2.118
		c-0.551-0.191-1.897-3.088-4.088-0.857c3.628,3.59,3.481,11.677,5.946,14.467c-0.05,0.037,1.139,0.865,1.741,3.598
		c0.671,0.092,4.62-0.075,6.747-0.258c-0.961-4.339,0.741-7.455,0.847-8.541c0.303-3.08-0.135-8.917-1.354-13.525
		c-0.208-1.336-0.561-2.644-1.142-3.862c-0.12-0.253-0.256-0.509-0.475-0.684c-0.278-0.222-0.691-0.258-0.934,0.04
		c-0.03,0.037-0.048,0.088-0.074,0.13c-0.011-0.076-0.017-0.153-0.031-0.229c-0.048-0.275-0.11-0.559-0.273-0.786
		c-0.208-0.289-0.597-0.435-0.91-0.214c-0.187,0.131-0.336,0.344-0.46,0.599c-0.032-0.271-0.078-0.549-0.224-0.778
		C580.595,459.946,580.215,459.778,579.889,459.98z"/>
</g>
<g>
	<g>
		<g>
			<path fill="#FFC2B0" d="M328.281,650.604c-0.163-0.426-0.675-0.786-1.246-1.083c-0.002-0.028-0.002-0.057-0.006-0.085
				c0.109-0.011,0.217-0.024,0.319-0.064c0.318-0.125,0.546-0.453,0.414-0.798c-0.23-0.602-1.153-1.07-1.958-1.417
				c-0.433-0.315-0.92-0.503-1.387-0.669l-3.521-1.251c-0.132-0.051-0.268-0.099-0.407-0.144l-1.94-0.688
				c0.281-0.485,3.258-1.229,1.551-3.701c-4.046,2.771-11.648,1.163-14.729,2.982c-0.025-0.055-0.592,0.85-3.062,0.511
				c-2.21-0.303-0.907,4.97-1.121,7.009c4.268-0.119,6.389,1.935,7.394,2.232c2.851,0.846,8.438,1.492,13.006,1.18
				c1.299,0.045,2.596-0.049,3.851-0.376c0.26-0.067,0.526-0.149,0.731-0.324c0.26-0.222,0.369-0.605,0.133-0.889
				c-0.03-0.035-0.075-0.061-0.11-0.093c0.074,0.003,0.147,0.011,0.222,0.013c0.269,0.005,0.547-0.002,0.792-0.115
				c0.31-0.144,0.519-0.483,0.368-0.819c-0.09-0.2-0.264-0.38-0.481-0.543c0.262,0.02,0.531,0.026,0.774-0.07
				C328.185,651.275,328.413,650.947,328.281,650.604z"/>
			<path fill="#BC9371" d="M253.871,876.015c4.172,0.12,8.346,0.39,12.519,0.675c4.105-26.061,13.411-87.525,12.696-104.802
				c-0.853-20.62-32.008-54.349-37.381-100.978l-43.147,8.349c13.292,35.346,35.209,79.126,42.536,91.349
				C253.796,791.802,254.527,850.652,253.871,876.015z"/>
			<path fill="#CEAB8B" d="M170.403,676.09c-0.163,38.447,9.575,73.612,18.94,99.439c2.22,5.949,2.129,12.737,1.639,18.972
				c-1.206,15.321-5.597,30.417-10.386,44.951c0.126,1.339-1.259,3.763-1.704,5.052c-0.615,1.783-1.243,3.563-1.882,5.339
				c-1.278,3.551-2.602,7.085-3.963,10.604c-1.021,2.643-2.976,9.305-4.916,16.933c3.694,1.216,7.234,2.737,10.71,4.403
				c2.14-5.327,4.61-10.537,7.476-15.9c5.072-9.497,10.095-19.021,15.023-28.595c7.762-15.074,16.723-30.535,21.878-46.768
				c6.329-19.928,2.588-103.224,2.055-114.376L170.403,676.09z"/>
			<path fill="#FFC2B0" d="M179.311,880.637c-2.428,5.886-4.454,11.893-6.111,18.413c0,0,13.094,9.823,14.227,13.034
				s-1.008,3.967-8.563,3.021c-7.555-0.945-16.097-6.497-16.097-6.498c-0.688-5.139,2.507-20.13,5.628-32.257
				C171.855,878.313,175.538,879.891,179.311,880.637z"/>
			<path fill="#FFC2B0" d="M292.147,577.029c0,0-23.057,28.752-28.157,28.368c-6.051-0.455-35.486-35.051-35.486-35.051
				s-8.162-2.888-11.246,2.973c-3.084,5.861,4.855,14.846,4.855,14.846s22.398,29.262,38.525,32.736
				c15.984,3.443,33.186-32.37,36.802-40.72C295.62,578.841,292.147,577.029,292.147,577.029z"/>
			<path fill="#465DAF" d="M245.932,588.748c-7.471-7.8-16.938-19.88-16.938-19.88s-8.836-2.372-11.977,4.05
				c-3.142,6.423,5.712,15.864,5.712,15.864s7.678,10.312,14.008,16.778C241.596,600.974,245.746,596.001,245.932,588.748z"/>
			<path fill="#5366C5" d="M170.604,624.088c2.029-46.517,6.315-50.173,15.535-56.395c14.679-8.222,20.354-6.993,30.907-6.337
				c2.69,0.938,7.041,3.819,9.569,5.338c11.188,6.72,13.657,19.362,8.647,40.48c-4.619,19.469,7.601,67.794,7.601,67.794
				c-22.032,12.186-72.25,11.896-72.25,11.896S169.086,658.884,170.604,624.088z"/>
			<path fill="#465DAF" d="M196.929,668.253c3.959-9.713,8.996-19.083,14.663-27.899c7.924-12.326,17.269-23.565,24.347-36.227
				c-0.209,0.997-0.43,2.008-0.677,3.047c-4.619,19.47,7.601,67.795,7.601,67.795c-12.418,6.869-33.786,9.771-50.074,10.999
				C193.521,679.942,194.59,673.99,196.929,668.253z"/>
			<path fill="#FFC2B0" d="M223.148,519.113c0,0,0.5,4.108,2.512,10.143c2.012,6.035,7.033,21.055-3.415,23.344
				s-15.601,2.141-18.381-0.131c-2.781-2.271-14.365-16.952-11.165-25.952S212.323,501.479,223.148,519.113z"/>
			<g>
				<path fill="#FFC2B0" d="M254.249,874.771c4.266,0.359,8.535,0.066,12.6-0.999c-1.406,8.984-2.349,14.733-2.349,14.733
					l-0.137-0.008l-0.987,4.18c0,0,11.761-0.432,24.136,1.82c12.375,2.251,21.776,6.313-2.697,7.959s-31.615,1.67-32.061-2.746
					c-0.445-4.415,0.641-13.017,0.641-13.021C253.563,884.757,253.908,880.528,254.249,874.771z"/>
				<path fill="#915151" d="M253.488,885.591c4.028,0.358,7.992,0.209,11.594-0.682c-0.37,2.3-0.583,3.596-0.583,3.596l-0.137-0.008
					l-0.987,4.18c0,0,11.761-0.432,24.136,1.82c12.375,2.251,21.776,6.313-2.697,7.959s-31.615,1.67-32.061-2.746
					c-0.445-4.415,0.641-13.017,0.641-13.021C253.422,886.386,253.454,886.005,253.488,885.591z"/>
			</g>
			<path fill="#915151" d="M175.543,890.956c-0.845,2.63-1.635,5.308-2.344,8.094c0,0,13.094,9.823,14.227,13.034
				s-1.008,3.967-8.563,3.021c-7.555-0.945-16.097-6.497-16.097-6.498c-0.469-3.505,0.869-11.595,2.757-20.232
				C168.672,889.699,171.995,890.607,175.543,890.956z"/>
			<path fill="#FFC2B0" d="M198.025,563.414c0.19-0.145,0.359-0.302,0.519-0.466c1.102-0.785,1.922-1.854,2.51-2.994
				c0.006-0.008,0.013-0.013,0.019-0.021c1.48-2.007,2.078-4.458,3.032-6.665c0.484-1.119,1.48-4.264,2.294-4.771
				c0.266-0.166,0.461-0.353,0.609-0.55c1.314-0.234,2.637-0.431,3.968-0.541c3.502-0.29,8.587,0.361,8.459,4.104
				c-0.109,3.179-4.383,7.65-1.641,10.596c1.082,1.163,3.367,1.766,3.271,3.269c-0.07,1.096-1.444,1.787-2.66,2.198
				c-5.76,1.949-12.155,2.422-18.114,1.341c-1.213-0.22-2.458-0.525-3.354-1.237c-0.897-0.711-1.333-1.936-0.688-2.858
				C196.663,564.227,197.416,563.873,198.025,563.414z"/>
			<path fill="#FFC2B0" d="M219.41,561.418c-1.284-1.388-2.228-2.681-1.692-4.444c-1.4,0.415-1.431,0.321-2.91,0.489
				c-4.251,0.483-8.05-0.613-11.938-1.893c-0.469,1.166-1,2.306-1.744,3.336c-0.007,0.01-0.015,0.016-0.021,0.024
				c-0.654,1.296-1.565,2.509-2.792,3.398c-0.176,0.187-0.364,0.365-0.577,0.528c-0.678,0.52-1.517,0.921-1.977,1.594
				c-0.716,1.048-0.229,2.441,0.773,3.252c1.001,0.811,2.389,1.16,3.742,1.413c6.645,1.242,13.773,0.718,20.189-1.485
				c1.354-0.465,3.852-1.62,2.961-2.494C220.979,562.738,220.456,562.549,219.41,561.418z"/>
			<path fill="#FFC2B0" d="M231.377,617.306c-4.126,1.065-21.337,16.032,0.99,25.153c13.678,5.589,61.648,7.985,68.821,8.746
				c0.603-2.16,1.982-4.726,2.068-6.936C294.86,642.354,251.813,635.891,231.377,617.306z"/>
			<path fill="#FFC2B0" d="M234.923,638.453c4.672-0.163,11.957-7.312,10.459-11.803c-12.691-6.871-24.049-15.996-33.94-34.748
				c-2.025-3.84-20.929,6.892-18.112,11.461c7.152,11.598,19.239,26.971,34.182,36.659
				C229.635,641.194,232.629,638.533,234.923,638.453z"/>
			<path fill="#5366C5" d="M218.336,601.773c-6.688-11.854-19.463-31.433-28.297-27.996c-8.784,3.417-2.193,26.53,13.021,45.237
				C206.909,612.447,212.105,606.714,218.336,601.773z"/>
		</g>
		<path fill="#2C2B57" d="M201.781,556.574c0,0-7.632,4.087-7.893,7.277c-0.107,1.313,13.896,18.099,13.896,18.099
			c0.067,0.203,0.305,0.25,0.432,0.086l8.436-10.969c0.034-0.044,0.079-0.075,0.128-0.09l1.839-0.535
			c0.069-0.02,0.142-0.007,0.202,0.036l8.421,6.075c0.208,0.149,0.467-0.079,0.377-0.335c-1.044-2.983-4.659-13.23-5.437-14.407
			c-0.072-0.108-0.141-0.212-0.207-0.31c-0.666-0.997-5.87-4.169-8.406-5.194L201.781,556.574z"/>
		<path fill="#FFC2B0" d="M200.145,560.495c0.06-1.542,3.47-6.009,4.647-8.997c1.118-2.838,12.107-4,13.215-0.685
			c0.828,2.479-0.545,6.992,1.228,9.119c0.248,0.297,0.34,0.71,0.323,1.115c-0.082,1.988-0.096,6.803-0.938,7.566
			c-0.959,0.868-2.366,0.633-2.738,0.741C205.126,566.463,200.123,561.086,200.145,560.495z"/>
		<circle fill="#2C2B57" cx="219.711" cy="576.133" r="1.358"/>
		<circle fill="#2C2B57" cx="220.671" cy="580.777" r="1.358"/>
		<path fill="#915151" d="M188.982,539.796c-1.479-2.144-2.998-4.388-3.384-6.963c-0.262-1.745,0.021-3.539,0.583-5.211
			c1.56-4.643,5.227-8.334,9.577-10.652c-0.155-0.706-0.129-1.549,0.139-2.563c1.661-6.285,9.901-8.153,15.427-8.002
			c3.715,0.101,7.376,0.853,11.048,1.422c2.184,0.338,5.03,0.259,5.845-1.795c0.492-1.24,0.207-3.091,1.469-3.52
			c0.908-0.308,1.795,0.515,2.305,1.327c1.598,2.542,1.979,5.814,1.008,8.656c-0.754,2.208-2.319,4.113-4.301,5.341
			c-0.955,1.78-4.187,2.291-5.935,2.385c-1.442,0.078-2.608-0.424-4.045-0.045c-0.486,0.128-0.993,0.273-1.503,0.431
			c-1.166,4.243-4.33,8.898-6.442,11.048c-0.149,0.152-0.307,0.298-0.46,0.446c0.453,1.701,1.055,3.379,1.425,4.883
			c0.168,0.684,0.834,2.058,0.598,2.746c-0.209,0.61-1.304,1.051-1.917,0.725c-0.848-0.451-1.069-1.56-2.083-1.94
			c-0.899-0.337-1.821-0.073-2.602,0.434c-1.803,1.17-2.044,3.896-1.398,5.751c0.224,0.642,0.579,1.242,0.967,1.826
			c0.343,0.515,0.504,1.131,0.432,1.745c-0.011,0.09-0.02,0.18-0.029,0.27c-0.46,0.975-0.766,2.047-0.926,3.151
			c-0.155,1.063-1.319,1.597-2.221,1.062c-0.01,0-0.018,0.003-0.028,0.003c-0.401-0.017-5.296-3.331-5.611-3.58
			C193.698,546.619,191.315,543.181,188.982,539.796z"/>
	</g>
	<g>
		<path fill="#A7C4E4" d="M365.676,558.722v-31.493c0-17.565-14.29-31.855-31.856-31.855c-17.564,0-31.855,14.29-31.855,31.855
			v31.493h-16.807v-31.493c0-26.832,21.83-48.662,48.662-48.662c26.833,0,48.663,21.83,48.663,48.662v31.493H365.676z"/>
		<path fill="#91B1CE" d="M311.073,484.222c-4.314,3.974-21.397,12.724-20.496,56.795c0.121,5.896-0.096,11.989,0,18.05
			l-5.419-0.346v-31.493C285.159,508.609,295.672,492.401,311.073,484.222z"/>
		<path fill="#91B1CE" d="M356.569,484.222c4.314,3.974,21.397,12.724,20.496,56.795c-0.121,5.896,0.095,11.989,0,18.05l5.419-0.346
			v-31.493C382.483,508.609,371.97,492.401,356.569,484.222z"/>
		<g>
			<g>
				<path fill="#F0A32F" d="M392.738,594.55c0,32.538-26.378,58.916-58.917,58.916l0,0c-32.539,0-58.917-26.378-58.917-58.916
					v-42.719h117.833V594.55z"/>
			</g>
		</g>
		<g>
			<g>
				<path fill="#FBB03B" d="M375.396,636.293c-2.542-1.713-5.052-3.478-7.524-5.307c-3.646-2.941-7.175-6.023-10.725-9.081
					c-15.965-13.753-31.853-27.963-45.08-44.439c-3.755-5.094-7.196-10.437-9.946-16.136c-0.686-1.915-1.268-3.863-1.716-5.847
					c-0.027-0.691-0.041-1.384-0.027-2.078c0.011-0.529-0.004-1.053-0.031-1.574h92.391v42.719
					C392.738,610.861,386.107,625.625,375.396,636.293z"/>
			</g>
		</g>
		<path fill="#45446C" d="M321.287,593.563c0-6.922,5.611-12.534,12.534-12.534s12.534,5.612,12.534,12.534
			c0,5.044-2.986,9.381-7.282,11.369v14.085c0,2.889-2.363,5.252-5.252,5.252s-5.252-2.363-5.252-5.252v-14.085
			C324.273,602.943,321.287,598.606,321.287,593.563z"/>
	</g>
	<path fill="#FFC2B0" d="M327.875,650.604c-0.163-0.426-0.675-0.786-1.246-1.083c-0.002-0.028-0.002-0.057-0.006-0.085
		c0.108-0.011,0.217-0.024,0.319-0.064c0.317-0.125,0.545-0.453,0.414-0.798c-0.23-0.602-1.153-1.07-1.958-1.417
		c-0.433-0.315-0.92-0.503-1.387-0.669l-3.522-1.251c-0.132-0.052-0.267-0.099-0.406-0.144l-1.94-0.688
		c0.281-0.485,3.258-1.229,1.551-3.701c-4.046,2.771-11.648,1.163-14.729,2.982c-0.022-0.047-0.451,0.606-2.127,0.581
		c-3.216-0.732-11.479-2.131-21.597-4.61c0.389,3.384,0.771,6.768,1.138,10.153c8.865,0.692,15.975,1.139,18.403,1.396
		c4.268-0.119,6.389,1.935,7.394,2.232c2.851,0.846,8.438,1.492,13.006,1.18c1.299,0.045,2.596-0.049,3.851-0.376
		c0.26-0.067,0.526-0.149,0.731-0.324c0.26-0.222,0.369-0.605,0.133-0.889c-0.029-0.035-0.075-0.061-0.11-0.093
		c0.074,0.003,0.147,0.011,0.222,0.013c0.269,0.005,0.547-0.002,0.792-0.115c0.31-0.144,0.519-0.483,0.368-0.819
		c-0.09-0.2-0.264-0.38-0.481-0.543c0.262,0.02,0.531,0.026,0.774-0.07C327.778,651.275,328.006,650.948,327.875,650.604z"/>
</g>
<g>
	<path fill="#FFC2B0" d="M795.313,556.988c0.702-1.118,2.747,0,2.747,0s-0.115-0.462,0.224-0.862
		c0.467-0.552,2.557-0.139,4.218,0.437c1.079,0.373,4.071,2.394,6.043,3.769c1.134,0.662,2.326,1.297,3.543,1.77
		c2.3,0.895,2.556,0,2.045-1.15c-0.512-1.15-0.768-3.067-0.64-3.706s0.767-0.767,2.173,1.278s4.181,5.785,5.688,7.668
		c1.789,2.236,2.236,3.962,2.236,3.962l3.451,2.812l-3.707,3.962c0,0-1.789-1.533-4.516-3.237c-2.885-1.803-4.473-3.621-7.412-5.027
		s-9.756-4.26-11.801-5.41c-1.012-0.569-2.113-1.929-2.792-3.169C795.527,558.781,794.935,557.59,795.313,556.988z"/>
	<path fill="#45446C" d="M905.609,549.066c-8.472-3.9-25.865,15.295-29.491,18.771c-7.391,7.083-15.981,13.836-20.385,15.604
		c-10.007,4.017-24.32-7.263-32.374-14.613c-1.365,1.341-2.021,3.135-3.167,6.04c0.98,1.411,2.914,3.234,3.942,4.612
		c2.506,3.356,5.495,5.895,8.459,8.859c3.113,3.116,6.563,5.972,10.457,8.062c3.752,2.016,7.95,3.258,12.238,3.05
		c2.029-0.099,4.035-0.516,5.947-1.2c7.525-2.695,34.248-25.918,37.121-28.555C908.527,560.361,911.144,551.615,905.609,549.066z"/>
	<path fill="#2D2D4C" d="M868.023,583.572c-1.012-2.761-0.317-6.237,0.86-9.234c2.417-2.034,4.886-4.25,7.234-6.5
		c3.626-3.477,21.02-22.672,29.491-18.771c5.534,2.549,2.918,11.295-7.252,20.63c-1.881,1.728-13.991,12.282-24.239,20.119
		C871.678,588.133,868.992,586.215,868.023,583.572z"/>
	<g>
		<g>
			<g>
				<g>
					<path fill="#2C2B57" d="M839.911,893.96c10.843-3.419,18.29-4.147,18.662-4.176c3.604,2.715,9.11,2.325,12.735,0
						c1.062,2.122,0.87,7.245,0.404,8.767c-1.33,4.35-6.258,2.59-28.664,3.27C820.643,902.499,828.846,897.449,839.911,893.96z"/>
				</g>
			</g>
		</g>
		<g>
			<g>
				<g>
					<path fill="#2C2B57" d="M888.146,893.825c10.843-3.419,18.29-4.147,18.662-4.176c3.604,2.716,9.11,2.325,12.735,0
						c1.062,2.123,1.47,7.515,1.005,9.036c-1.331,4.35-6.858,2.32-29.265,3C868.877,902.364,877.08,897.314,888.146,893.825z"/>
				</g>
			</g>
		</g>
		<path fill="#FFC2B0" d="M919.492,883.687l0.235,6.365c0,0-7.36,3.792-17.519,5.005c0,0,3.386-3.917-1.162-4.523
			c0,0,12.533-3.36,13.14-7.302C914.793,879.289,919.492,883.687,919.492,883.687z"/>
		<path fill="#FFC2B0" d="M872.424,882.469l-0.85,7.925c0,0-7.164,3.736-17.321,4.95c0,0,3.462-4.137-1.087-4.742
			c0,0,10.633-0.751,10.902-7.351C864.231,879.267,872.424,882.469,872.424,882.469z"/>
		<path fill="#FFC2B0" d="M929.549,754.817c0,0-8.426,126.256-10.043,131.107c-2.155,2.425-7.341-0.116-7.341-0.116l-3.234-148.376
			l12.938-4.447L929.549,754.817z"/>
		<path fill="#FFC2B0" d="M863.924,885.072c0,0,8.219-100.976,4.955-147.468l4.331-18.571l18.953,12.852
			c0,0-2.559,85.349-20.427,153.86C871.736,885.745,866.618,887.855,863.924,885.072z"/>
	</g>
	<path fill="#45446C" d="M930.539,758.151c-0.125,1.036-0.286,2.145-0.994,2.912c-0.943,1.023-2.509,1.092-3.901,1.089
		c-20.344-0.041-40.688-0.082-61.033-0.123c4.009-38.492,8.017-76.983,12.024-115.476c0.46-4.416,0.935-8.893,2.529-13.036
		c4.913-12.765,20.974-19.93,33.883-14.996c10.523,4.022,12.978,15.381,14.942,25.366
		C935.297,681.031,935.065,720.699,930.539,758.151z"/>
	<path fill="#2D2D4C" d="M894.862,648.578c-0.297-0.153-0.591-0.268-0.881-0.348c-0.854-0.994-2.193-1.489-3.854-0.868
		c-2.794,1.044-6.706-1.162-9.399-1.913c-1.278-0.356-2.571-0.68-3.868-0.99c0.414-3.727,0.96-7.451,2.304-10.941
		c4.913-12.765,20.974-19.93,33.883-14.996c10.523,4.022,12.978,15.381,14.942,25.366c3.839,19.511,5.58,39.717,5.729,59.934
		C927.357,680.879,915.981,659.533,894.862,648.578z"/>
	<path fill="#C2D4EA" d="M880.428,620.995c-1.01-11.532,0.042-18.972,0.318-27.566c-2.336-3.926-8.634-15.335-6.408-20.807
		c1.417-3.485,3.923-7.521,5.999-10.593c5.645-13.892,4.112-15.257,13.103-18.267c9.948-3.331,15.996-3.424,24.082,2.697
		c9.645,7.302,11.472,22.86,7.531,29.939c-3.323,5.97-4.224,12.942-5.063,19.724c-0.556,4.488-1.112,9-0.938,13.519
		c0.258,6.683,8.025,21.663,9.445,36.907c0.048,0.516-9.258,5.375-15.74-3.52c-2.412,9.905-30.388,18.8-36.955,7.075
		C874.676,648.093,880.629,623.293,880.428,620.995z"/>
	<path fill="#C2D4EA" d="M880.428,620.995c-1.01-11.532,0.042-18.972,0.318-27.566c-2.336-3.926-8.634-15.335-6.408-20.807
		c1.232-3.032,3.29-6.481,5.172-9.35c0.386,2.737,1.107,5.386,2.115,7.771c1.448,3.428,3.735,6.578,6.557,9.103
		c2.807,9.026,7.518,17.449,13.017,25.183c3.054,4.295,6.064,8.622,9.121,12.913c3.396,4.768,7.218,9.707,12.618,12.322
		c0.805,0.39,1.637,0.7,2.48,0.936c1.395,4.78,2.6,9.899,3.08,15.05c0.048,0.516-9.258,5.375-15.74-3.52
		c-2.412,9.905-30.388,18.8-36.955,7.075C874.676,648.093,880.629,623.293,880.428,620.995z"/>
	<path fill="#FFC2B0" d="M849.397,664.166c0,0-5.177,3.44-8.347,5.889c-1.562,1.205-1.747,2.061-0.079,2.027
		c1.669-0.033,4.388-1.16,4.872-0.813c0.483,0.349,1.251,2.956,0.085,4.29c-1.165,1.335-3.961,4.609-4.376,7.717
		c-0.415,3.108,0.25,6.552,0.848,6.659c0.599,0.107,1.191-0.023,2.203-3.144c1.01-3.119,6.748-14.32,11.169-19.772
		c4.422-5.453,6.188-6.562,6.188-6.562l-4.957-3.478C857.003,656.98,851.881,663.162,849.397,664.166z"/>
	<path fill="#45446C" d="M899.807,619.323c0.202-0.304,1.371-1.195,2.248-4.029c0.029,0.018,0.058,0.033,0.087,0.051
		c1.581-4.486,6.486-15.792,11.487-26.343l0,0c0.01-0.021,0.02-0.039,0.028-0.06c0.448-0.946,0.897-1.884,1.345-2.813
		c4.508-9.036,9.077-14.28,10.235-19.648c2.219-10.288-3.122-13.11-6.988-13.301c-1.239-0.35-6.052,1.509-6.742,2.243
		c-8.057,9.672-8.071,13.016-13.521,25.362l0,0c-4.757,10.965-9.637,22.754-11.012,27.747c-3.716,5.24-6.404,12.509-9.611,17.843
		c-3.669,6.102-22.485,32.183-24.547,34.366c1.213,1.819,2.201,2.706,4.852,4.487c1.958-1.18,13.072-13.785,14.697-15.249
		C883.982,639.513,892.116,630.861,899.807,619.323z"/>
	<path fill="#45446C" d="M877.363,626.376c3.207-5.335,5.896-12.603,9.611-17.843c1.375-4.993,6.255-16.782,11.012-27.747l0,0
		c1.198-2.715,2.134-4.994,2.949-7.001c0.347,0.763,0.733,1.518,1.14,2.27c0.506,1.876,1.063,3.738,1.779,5.557
		c1.835,4.668,4.307,8.729,7.668,11.894c-4.215,9.111-8.024,17.988-9.381,21.84c-0.029-0.018-0.058-0.033-0.087-0.051
		c-0.877,2.834-2.046,3.726-2.248,4.029c-7.69,11.538-15.824,20.189-27.441,30.657c-1.625,1.464-12.739,14.069-14.697,15.249
		c-2.65-1.781-3.639-2.668-4.852-4.487C854.878,658.559,873.694,632.478,877.363,626.376z"/>
	<path fill="#45446C" d="M915.991,544.176c-0.157,1.531-1.772,2.31-3.144,2.833c-6.435,2.455-17.689,5.859-23.418,9.804
		c-1.368-2.061-0.768-10.118-0.155-11.654c0.415-1.041,8.799-2.063,10.964-2.166C902.072,542.905,916.143,542.704,915.991,544.176z"
		/>
	<g>
		<path fill="#FFC2B0" d="M893.872,535.938c-1.198-0.021-2.425-0.115-3.521-0.599c-1.38-0.609-2.429-1.78-3.309-3.004
			c-3.111-4.331-4.603-9.677-4.918-15c-0.315-5.323,0.486-10.653,1.624-15.863c0.186-0.85,0.385-1.713,0.82-2.466
			c0.59-1.021,1.568-1.763,2.604-2.326c4.429-2.41,9.874-1.865,14.745-0.562c2.438,0.652,4.882,1.505,6.862,3.07
			c1.624,1.284,2.859,2.986,4.024,4.698c1.201,1.766,2.365,3.597,2.968,5.646c0.524,1.783,0.604,3.664,0.598,5.522
			c-0.01,3.436-0.301,6.884-1.097,10.228c-0.369,1.551-0.864,3.112-1.833,4.379c-1.765,2.308-5.766,3.704-8.422,4.581
			C901.434,535.427,897.647,536.008,893.872,535.938z"/>
		<path fill="#FFC2B0" d="M907.977,544.34c0.195,1.755-11.415,1.547-11.494,1.05c-1.197-7.578-1.702-13.44-4.048-20.14
			c3.104-0.756,10.857-2.7,16.46-1.295C909.757,524.171,907.718,542.017,907.977,544.34z"/>
		<path fill="#FFC2B0" d="M911.504,544.169c-0.154,1.087-1.389,1.604-2.432,1.946c-4.898,1.604-13.447,3.773-17.851,6.453
			c-0.98-1.498-0.432-6.722,0.065-7.802c0.337-0.731,5.975-2.08,8.331-2.608C902.978,541.403,911.653,543.125,911.504,544.169z"/>
		<path fill="#915151" d="M884.194,493.347c5.484-3.721,11.813-6.416,18.43-6.783c6.618-0.368,13.526,1.794,18.114,6.578
			c4.351,4.537,6.219,11.54,4.104,17.416c0.822-0.127,1.667-0.164,2.489-0.134c2.182,0.078,4.382,0.543,6.283,1.615
			c4.769,2.69,5.744,9.942,3.093,14.746c0.011,0.046,0.021,0.092,0.031,0.138c2.09,0.827,3.725,2.682,4.23,5.886
			c0.536,3.392-1.164,7.15-4.283,8.586c-2.032,0.935-4.444,0.803-6.494-0.111c-0.774,3.316-3.957,5.699-7.284,6.561
			c-5.391,1.396-11.51-0.607-15.03-4.921c-3.521-4.314-4.258-10.711-1.811-15.712c1.093-2.231,2.732-4.15,3.93-6.328
			c2.826-5.142,1.145-8.015-2.596-9.529c-0.022,0.017-0.051,0.024-0.073,0.042c-0.54,0.433-3.436,5.719-3.093,6.033
			c-0.773-0.709-0.82-1.882-1.03-2.911c-0.386-1.896-1.432-3.482-2.727-4.933c-3.374-0.983-5.9-2.436-9.528-5.208
			C887.346,501.626,883.528,497.832,884.194,493.347z"/>
	</g>
</g>
<g>
	<path fill="#ED9726" d="M675.909,834.867h-18.014c-2.931,0-5.307-2.376-5.307-5.308v-6.17c0-2.931,2.376-5.307,5.307-5.307h18.014
		c2.931,0,5.308,2.376,5.308,5.307v6.17C681.217,832.491,678.84,834.867,675.909,834.867z"/>
	<path fill="#ED9726" d="M689.317,861.186h-31.422c-2.931,0-5.307-2.377-5.307-5.308v-8.438c0-2.932,2.376-5.308,5.307-5.308h31.422
		c2.931,0,5.308,2.376,5.308,5.308v8.438C694.625,858.809,692.248,861.186,689.317,861.186z"/>
	<path fill="#FBB03B" d="M647.525,876.087L647.525,876.087c-5.397,0-9.773-4.375-9.773-9.772V732.618h19.547v133.696
		C657.299,871.712,652.923,876.087,647.525,876.087z"/>
	<path fill="#ED9726" d="M657.299,753.047v-20.429h-19.546v30.699C647.525,761.867,652.512,758.425,657.299,753.047z"/>
	<path fill="#FBB03B" d="M647.525,737.268c-31.589,0-57.288-25.699-57.288-57.288s25.699-57.288,57.288-57.288
		s57.289,25.699,57.289,57.288S679.114,737.268,647.525,737.268z M647.525,637.911c-23.196,0-42.068,18.872-42.068,42.068
		s18.872,42.068,42.068,42.068s42.068-18.872,42.068-42.068S670.722,637.911,647.525,637.911z"/>
</g>
</svg>
