<?xml version="1.0" encoding="utf-8"?>
<!-- Generator: Adobe Illustrator 16.0.0, SVG Export Plug-In . SVG Version: 6.00 Build 0)  -->
<!DOCTYPE svg PUBLIC "-//W3C//DTD SVG 1.1//EN" "http://www.w3.org/Graphics/SVG/1.1/DTD/svg11.dtd">
<svg version="1.1"
	 id="Layer_1" xmlns:rdf="http://www.w3.org/1999/02/22-rdf-syntax-ns#" xmlns:sodipodi="http://sodipodi.sourceforge.net/DTD/sodipodi-0.dtd" xmlns:dc="http://purl.org/dc/elements/1.1/" xmlns:svg="http://www.w3.org/2000/svg" xmlns:cc="http://creativecommons.org/ns#" xmlns:inkscape="http://www.inkscape.org/namespaces/inkscape"
	 xmlns="http://www.w3.org/2000/svg" xmlns:xlink="http://www.w3.org/1999/xlink" x="0px" y="0px" width="100px" height="100px"
	 viewBox="0 0 100 100" enable-background="new 0 0 100 100" xml:space="preserve">
<g transform="translate(50 50) scale(0.69 0.69) rotate(0) translate(-50 -50)">
	<g transform="translate(0,-952.36218)">
		<path fill="#4D4D4D" d="M59.425,962.838c-0.937,0.089-1.65,0.875-1.646,1.815v6.352c0,0.827,0.56,1.552,1.362,1.757
			c1.8,0.465,3.303,1.251,4.311,2.298c1.006,1.047,1.587,2.323,1.587,4.112c0,1.79-0.58,3.037-1.587,4.084
			c-1.008,1.048-2.511,1.863-4.311,2.325c-0.801,0.208-1.362,0.931-1.362,1.76v8.166c0,1.003,0.814,1.816,1.816,1.816h6.522
			c0.46,3.92,3.627,7.259,7.715,7.259c4.077,0,6.948-3.431,7.371-7.259h9.245c1.003,0,1.817-0.813,1.817-1.816v-25.408
			c0-2.019-0.594-3.831-1.732-5.16c-1.135-1.33-2.825-2.099-4.621-2.099H59.594C59.536,962.835,59.481,962.835,59.425,962.838z
			 M61.409,966.467h24.502c0.832,0,1.397,0.267,1.871,0.824c0.474,0.555,0.852,1.477,0.852,2.807v23.593h-9.075
			c-1.003,0.003-1.813,0.818-1.809,1.822c0,0.093,0.008,0.185,0.021,0.276c-0.003,0.036-0.028,0.302-0.028,0.624
			c0,2.389-1.768,4.537-3.912,4.537c-2.148,0-4.254-2.277-4.254-4.537c0-0.322-0.025-0.588-0.028-0.624
			c0.157-0.99-0.519-1.92-1.51-2.077c-0.091-0.013-0.185-0.021-0.277-0.021h-6.352v-5.133c1.749-0.628,3.387-1.464,4.651-2.779
			c1.598-1.662,2.61-3.956,2.61-6.608c0-2.651-1.012-4.973-2.61-6.635c-1.265-1.316-2.9-2.151-4.651-2.78V966.467z M16.943,985.523
			c-0.817,0-1.866,0.621-2.269,1.362c-0.402,0.742-0.452,1.45-0.452,2.268v49.91c0,0.82,0.05,1.527,0.452,2.269
			c0.403,0.742,1.453,1.36,2.269,1.36h52.633c0.817,0,1.865-0.619,2.269-1.36c0.403-0.742,0.453-1.449,0.453-2.269v-24.5
			c0-1.002-0.812-1.814-1.814-1.814H64.13c-0.94-0.004-1.725,0.709-1.814,1.645c-0.275,3.104-2.625,5.615-5.756,5.615
			c-3.173,0-5.801-2.548-6.041-5.586c-0.074-0.948-0.865-1.677-1.816-1.673h-4.536v-8.848c2.106-1.078,3.63-3.146,3.63-5.671
			c0-2.526-1.522-4.621-3.63-5.7v-5.189c0-1.003-0.813-1.817-1.817-1.817H16.943L16.943,985.523z M17.851,989.152h22.687v4.539
			c0,0.827,0.56,1.551,1.362,1.757c1.346,0.342,2.268,1.405,2.268,2.78s-0.922,2.437-2.268,2.779
			c-0.802,0.207-1.362,0.93-1.362,1.759v11.797c0,1.002,0.812,1.814,1.813,1.814h4.993c1.111,4.106,4.733,7.259,9.216,7.259
			c4.47,0,7.854-3.23,8.932-7.259h3.177v22.686H17.851V989.152z"/>
	</g>
</g>
</svg>
