<?xml version="1.0" encoding="utf-8"?>
<!-- Generator: Adobe Illustrator 16.0.0, SVG Export Plug-In . SVG Version: 6.00 Build 0)  -->
<!DOCTYPE svg PUBLIC "-//W3C//DTD SVG 1.1//EN" "http://www.w3.org/Graphics/SVG/1.1/DTD/svg11.dtd">
<svg version="1.1" xmlns="http://www.w3.org/2000/svg" xmlns:xlink="http://www.w3.org/1999/xlink" x="0px" y="0px" width="7000px"
	 height="4000px" viewBox="0 0 7000 4000" enable-background="new 0 0 7000 4000" xml:space="preserve">
<g id="Layer_1">
	<rect fill="#FFFFFF" width="7000" height="4000"/>
</g>
<g id="Layer_2">
	<g>
		<path fill="#1B1251" d="M4795.711,2912.267c-4.076-1.466-8.222-2.94-12.357-4.495c0,0,1.518-3.286,4.445-9.549
			c43.97-91.675,411.518-816.127,1120.342-954.808c5.652-1.167,11.295-2.255,16.929-3.263
			c89.737-16.258,184.807-23.066,285.282-18.153c0,0,140.654,2.629,313.473,124.71c3.86,2.65,7.782,5.39,11.614,8.279
			c77.755,56.795,161.343,137.795,241.329,253.476c1.554,2.127,3.157,4.421,4.692,6.708c0,0-1.3,3.232-3.866,9.378
			c-24.746,57.045-168.965,361.489-511.098,561.458c-4.434,2.608-8.937,5.208-13.429,7.727
			C5943.68,3069.442,5476.318,3158.627,4795.711,2912.267z"/>
		<g>
			<path fill="#FFFFFF" d="M4784.857,2915.463l-1.504-7.691l-1.492-7.771l5.938-1.778l1988.969-589.759
				c1.554,2.127,3.157,4.421,4.692,6.708c0,0-1.3,3.232-3.866,9.378l-1981.883,587.717L4784.857,2915.463z"/>
		</g>
		<g>
			<path fill="#FFFFFF" d="M6253.067,2893.734l-297.116-333.102l9.872-11.713l300.673,337.088
				C6262.063,2888.616,6257.56,2891.216,6253.067,2893.734z"/>
		</g>
		<g>
			<path fill="#FFFFFF" d="M5592.582,2667.672l-16.598,2.289l332.156-726.546c5.652-1.167,11.295-2.255,16.929-3.263
				L5592.582,2667.672z"/>
		</g>
		<g>
			<path fill="#FFFFFF" d="M6337.465,2452.417l-11.979-7.598l198.339-398.11c3.86,2.65,7.782,5.39,11.614,8.279L6337.465,2452.417z"
				/>
		</g>
	</g>
	<g>
		<path fill="#1B1251" d="M2305.55,3175.207c1.703,3.982,3.448,8.021,5.127,12.108c0,0-3.44,1.128-10.019,3.251
			c-97.066,30.265-877.797,254.722-1462.198-169.707c-4.705-3.344-9.345-6.732-13.921-10.17
			c-73.034-54.617-142.783-119.576-207.635-196.478c0,0-93.895-104.759-122.254-314.438c-0.69-4.632-1.356-9.369-1.851-14.143
			c-11.392-95.612-9.039-211.984,21.157-349.345c0.498-2.587,1.085-5.324,1.714-8.005c0,0,3.252-1.25,9.499-3.559
			c58.619-20.746,379.739-122.568,759.202-8.333c4.93,1.47,9.901,2.995,14.805,4.567
			C1638.571,2227.749,2022.245,2509.13,2305.55,3175.207z"/>
		<g>
			<path fill="#FFFFFF" d="M2315.283,3180.976l-4.606,6.34l-4.672,6.386l-5.346-3.135L513.957,2136.286
				c0.498-2.587,1.085-5.324,1.714-8.005c0,0,3.252-1.25,9.499-3.559L2305.55,3175.207L2315.283,3180.976z"/>
		</g>
		<g>
			<path fill="#FFFFFF" d="M1299.175,2120.957l-41.444,444.429l-15.299,0.753l41.939-449.749
				C1289.301,2117.859,1294.271,2119.385,1299.175,2120.957z"/>
		</g>
		<g>
			<path fill="#FFFFFF" d="M1583.632,2758.477l12.982,10.591L838.46,3020.859c-4.705-3.344-9.345-6.732-13.921-10.17
				L1583.632,2758.477z"/>
		</g>
		<g>
			<path fill="#FFFFFF" d="M918.61,2359.816l2.598,13.945l-426.557,126.012c-0.69-4.632-1.356-9.369-1.851-14.143L918.61,2359.816z"
				/>
		</g>
	</g>
	<g>
		<g>
			<path fill="#0F094C" d="M5013.816,1744.153l-2.131-2.881l-0.246-0.327l-2.512-3.407c-2.142,1.591-52.631,39.993-71.232,146.949
				c-10.858,62.354-8.474,135.279,7.057,216.756c12.428,65.203,33.355,136.057,62.502,211.734
				c7.384,19.163,15.281,38.641,23.72,58.418c7.706,18.088,15.858,36.432,24.445,55.007l7.28-4.353
				c-3.937-8.527-7.758-16.943-11.451-25.257c-16.537-37.155-30.833-72.312-43.137-105.534
				c-72.746-196.658-75.701-326.038-62.306-404.291c17.501-102.143,65.768-140.819,68.054-142.578
				c0.041-0.041,0.066-0.056,0.077-0.063L5013.816,1744.153z M5013.816,1744.153l-2.301-2.78l2.071,3.163l0.007,0.012l0.362-0.216
				L5013.816,1744.153z"/>
		</g>
		<path fill="#1B1251" d="M5022.755,1587.407c0,0-41.913-36.262-83.487-12.1c0,0-22.551,43.44,29.105,89.073
			c0,0-53.469,12.932-68.891,64.42c0,0,28.389,44.292,90.775,36.257c0,0-3.774,66.262,33.9,85.704c0,0,44.346-6.731,61.059-54.283
			c0,0,41.387,49.901,89.307,36.867c0,0,27.285-33.708,3.794-86.917c0,0,53.831-7.92,76.672-47.352c0,0-26.964-52.455-64.481-55.788
			c0,0,35.726-42.377,13.278-88.106c0,0-48.191-11.629-73.224,18.39c0,0-27.12-68.563-85.438-73.92
			C5045.125,1499.651,5001.516,1530.509,5022.755,1587.407z"/>
		<circle fill="#ADB0FA" cx="5075.492" cy="1682.833" r="65.053"/>
		<circle fill="#FECD40" cx="5075.492" cy="1682.833" r="30.352"/>
		<path fill="#1B1251" d="M4934.049,1980.276c0,0-35.898-127.435-89.307-69.323c0,0-31.244,34.634,17.611,58.193
			c0,0,27.09,15.513,73.201,16.881L4934.049,1980.276z"/>
		<path fill="#1B1251" d="M4941.658,1975.938c0,0,57.994-119.017,100.215-52.332c0,0,24.585,39.639-27.683,54.131
			c0,0-29.416,10.448-75.036,3.592L4941.658,1975.938z"/>
		<path fill="#1B1251" d="M4949.525,2107.153c0,0-42.995-152.622-106.959-83.024c0,0-37.42,41.479,21.093,69.694
			c0,0,32.443,18.58,87.669,20.218L4949.525,2107.153z"/>
		<path fill="#1B1251" d="M4956.578,2104.784c0,0,52.157-149.739,111.789-76.396c0,0,34.84,43.668-25.273,68.289
			c0,0-33.509,16.581-88.732,14.872L4956.578,2104.784z"/>
		<path fill="#1B1251" d="M4988.262,2231.021c0,0,19.13-157.404,92.992-98.416c0,0,43.326,35.263-10.178,72.101
			c0,0-29.217,23.326-83.541,33.397L4988.262,2231.021z"/>
		<path fill="#1B1251" d="M4980.863,2228.829c0,0-78.183-137.947-123.686-55.093c0,0-26.436,49.212,37.119,62.645
			c0,0,35.94,10.299,89.961-1.293L4980.863,2228.829z"/>
	</g>
	<g>
		<g>
			<path fill="#0F094C" d="M1205.875,1764.003c0.014,0.003,0.042,0.008,0.095,0.031c2.76,0.836,61.596,19.91,114.139,109.234
				c40.241,68.437,83.3,190.476,84.92,400.152c0.26,35.426-0.657,73.367-2.963,113.971c-0.51,9.082-1.103,18.307-1.764,27.676
				l8.35,1.492c1.451-20.413,2.579-40.455,3.38-60.1c0.886-21.483,1.374-42.496,1.492-63.032
				c0.454-81.095-5.069-154.769-16.539-220.146c-14.333-81.697-37.931-150.74-70.168-205.206
				c-55.276-93.436-116.094-111.466-118.661-112.196l-1.142,4.076l-0.113,0.394l-0.973,3.449L1205.875,1764.003z M1205.859,1764.015
				l0.415,0.074l0.002-0.014l0.816-3.692l-1.167,3.415L1205.859,1764.015z"/>
		</g>
		<path fill="#569BDE" d="M1142.053,1620.378c0,0,26.353-48.756,73.791-40.885c0,0,36.475,32.638,4.327,93.608
			c0,0,54.583-6.844,87.24,35.846c0,0-10.861,51.476-72.05,66.057c0,0,26.998,60.63-1.349,92.155c0,0-43.855,9.411-76.326-29.139
			c0,0-21.031,61.325-70.462,66.107c0,0-37.454-21.859-34.33-79.939c0,0-53.147,11.658-88.473-17.128
			c0,0,6.638-58.604,40.542-75.009c0,0-48.418-26.978-43.622-77.693c0,0,40.95-27.944,74.991-8.736c0,0,1.079-73.724,53.719-99.387
			C1090.052,1546.233,1141.764,1559.645,1142.053,1620.378z"/>
		<circle fill="#0F094C" cx="1126.531" cy="1728.295" r="65.053"/>
		<circle fill="#FECD40" cx="1126.531" cy="1728.295" r="30.352"/>
		<path fill="#1B1251" d="M1364.151,1956.365c0,0-11.561-131.889,58.967-96.459c0,0,41.485,21.324,4.14,60.658
			c0,0-19.839,24.102-62.477,41.713L1364.151,1956.365z"/>
		<path fill="#1B1251" d="M1355.498,1955.003c0,0-96.387-90.763-112.253-13.447c0,0-8.952,45.777,45.06,40.819
			c0,0,31.209-0.648,71.444-23.217L1355.498,1955.003z"/>
		<path fill="#1B1251" d="M1394.614,2080.499c0,0-13.846-157.957,70.622-115.524c0,0,49.684,25.538,4.958,72.647
			c0,0-23.76,28.866-74.826,49.957L1394.614,2080.499z"/>
		<path fill="#1B1251" d="M1387.179,2080.781c0,0-101.809-121.561-131.601-31.852c0,0-17.115,53.177,47.822,54.911
			c0,0,37.209,3.64,88.248-17.518L1387.179,2080.781z"/>
		<path fill="#1B1251" d="M1402.258,2210.057c0,0-73.638-140.427-121.821-59.102c0,0-28.029,48.322,35.054,63.822
			c0,0,35.585,11.467,89.955,1.645L1402.258,2210.057z"/>
		<path fill="#1B1251" d="M1408.401,2205.387c0,0,24.258-156.695,96.155-95.327c0,0,42.152,36.659-12.526,71.73
			c0,0-29.963,22.36-84.587,30.652L1408.401,2205.387z"/>
	</g>
	<g>
		<path fill="#569BDE" d="M2232.231,2091.498c-24.344-39.381-48.02-78.818-87.834-100.905
			c-39.26-21.779-86.607-21.983-131.535-26.38c-36.525-3.574-83.303-11.294-109.241-39.741
			c-10.629-11.658-16.192-24.149-28.168-35.164c-11.337-10.428-32.858-24.499-33.174-42.212c-6.09-27.324,16.27-53.33,40.157-68.56
			c23.887-15.229,51.874-25.953,69.219-48.325c28.317-36.525,11.542-97.73-31.236-113.965c-19.177-7.278-43.419-7.892-54.84-24.836
			c-15.369-22.803,6.32-53.216,29.542-68.683c23.223-15.467,52.178-29.757,58.136-56.848
			c12.433-56.533-86.845-89.847-74.786-146.455c6.366-29.885,43.628-44.645,73.381-38.079c29.753,6.566,53.478,27.813,76.414,47.623
			c22.935,19.812,48.388,39.747,78.768,42.693c48.112,4.667,89.654-34.324,117.432-74.23c12.487-17.938,26.438-38.521,47.99-41.828
			c16.206-2.486,32.588,6.433,42.021,19.621c9.434,13.187,12.753,29.941,12.793,46.246c0.091,36.701-14.995,71.681-27.162,106.496
			c-12.167,34.816-21.603,73.022-10.226,107.767c11.377,34.745,51.141,62.009,85.294,47.779
			c20.385-8.493,33.146-28.447,48.672-44.178s40.153-28.09,58.851-16.835c14.982,9.019,18.741,28.856,19.258,46.395
			c1.937,65.722-22.323,132.229-66.342,181.874c-16.738,18.877-36.247,35.478-50.458,56.296s-22.621,47.735-13.781,71.016
			c9.322,24.549,35.217,39.307,46.208,63.14c12.984,28.153,2.353,61.284-8.355,90.706c-11.501,31.599-33.919,70.524-31.642,104.146
			c1.672,24.692,0.468,51.482-33.439,54.439c-22.603,1.971-43.469-11.632-59.393-27.474
			C2263.952,2142.34,2247.952,2116.931,2232.231,2091.498z"/>
		<path fill="#FFFFFF" d="M2351.408,2001.681c1.43,0.96,3.227,1.38,5.051,1.03c3.678-0.702,6.093-4.252,5.389-7.931
			c-41.458-217.29-150.834-398.189-235.287-511.682c-91.474-122.93-174.379-195.603-175.205-196.321
			c-2.835-2.454-7.104-2.162-9.569,0.661c-2.459,2.824-2.161,7.107,0.661,9.565c3.269,2.846,327.664,289.346,406.079,700.319
			C2348.88,1999.175,2349.957,2000.706,2351.408,2001.681z"/>
		<path fill="#FFFFFF" d="M2306.002,1837.428c0.268,0.18,0.547,0.341,0.844,0.484c3.375,1.625,7.427,0.208,9.051-3.168
			c42.055-87.286,101.735-254.57,102.336-256.249c1.257-3.527-0.57-7.396-4.117-8.664c-3.527-1.256-7.407,0.586-8.664,4.114
			c-0.592,1.673-60.036,168.279-101.772,254.916C2302.198,1831.935,2303.246,1835.577,2306.002,1837.428z"/>
		<path fill="#FFFFFF" d="M2039.286,1860.481c31.4,21.082,196.712,125.724,296.406,63.311c3.174-1.987,4.138-6.171,2.152-9.344
			c-1.992-3.188-5.924-4.515-9.094-2.525c-100.537,62.94-284.246-65.425-286.137-66.695c-0.04-0.027-0.084-0.057-0.125-0.083
			c-3.053-2.05-7.449-0.919-9.578,2.101c-2.152,3.064-1.544,7.48,1.517,9.636
			C2035.042,1857.314,2036.618,1858.689,2039.286,1860.481z"/>
		<path fill="#FFFFFF" d="M1965.35,1571.981c1.264,0.849,2.824,1.282,4.457,1.115c1.215-0.123,122.955-11.396,240.925,61.028
			c3.193,1.961,7.368,0.962,9.329-2.228c1.957-3.191,0.941-7.438-2.231-9.326c-122.031-74.922-244.248-63.491-249.392-62.967
			c-3.722,0.38-6.433,3.705-6.057,7.429C1962.59,1569.123,1963.733,1570.896,1965.35,1571.981z"/>
		<path fill="#FFFFFF" d="M2220.557,1651.623c1.21,0.812,2.686,1.243,4.25,1.131c3.738-0.261,6.553-3.503,6.29-7.239
			c-6.867-97.77,29.191-300.864,29.556-302.904c0.661-3.685-1.783-7.213-5.48-7.869c-3.688-0.661-7.211,1.792-7.868,5.479
			c-1.502,8.398-36.723,206.792-29.736,306.245C2217.722,1648.638,2218.878,1650.496,2220.557,1651.623z"/>
	</g>
	<g>
		<path fill="#ADB0FA" d="M5071.834,2747.688c-1.852,0.994-3.73,2.01-5.635,2.996c0,0-0.691-1.615-1.998-4.705
			c-18.774-45.631-160.611-413.467,19.614-714.096c1.416-2.417,2.856-4.805,4.322-7.164c23.284-37.637,51.71-74.128,86.116-108.762
			c0,0,46.633-49.863,146.785-72.524c2.209-0.531,4.471-1.056,6.758-1.499c45.734-9.589,102.092-13.419,169.783-4.687
			c1.271,0.13,2.619,0.297,3.942,0.487c0,0,0.743,1.519,2.126,4.44c12.531,27.451,75.463,178.339,36.439,366.655
			c-0.5,2.445-1.024,4.913-1.576,7.352C5501.377,2384.811,5381.732,2582.297,5071.834,2747.688z"/>
		<g>
			<path fill="#FFFFFF" d="M5069.461,2752.64l-3.262-1.956l-3.285-1.986l1.287-2.719l433.379-908.73
				c1.271,0.13,2.619,0.297,3.942,0.487c0,0,0.743,1.519,2.126,4.44l-431.814,905.513L5069.461,2752.64z"/>
		</g>
		<g>
			<path fill="#FFFFFF" d="M5538.512,2216.182l-216.613-1.062l-1.018-7.364l219.207,1.074
				C5539.588,2211.275,5539.063,2213.743,5538.512,2216.182z"/>
		</g>
		<g>
			<path fill="#FFFFFF" d="M5242.469,2380.909l-4.565,6.729l-154.088-355.755c1.416-2.417,2.856-4.805,4.322-7.164
				L5242.469,2380.909z"/>
		</g>
		<g>
			<path fill="#FFFFFF" d="M5406.797,2042.407l-6.631,1.851l-79.127-200.825c2.209-0.531,4.471-1.056,6.758-1.499L5406.797,2042.407
				z"/>
		</g>
	</g>
	<g>
		<path fill="#BCA5F3" d="M5146.859,2726.478c-2.584-0.508-5.211-1.014-7.84-1.568c0,0,0.611-2.114,1.797-6.147
			c18.021-59.136,172.512-528.294,585.852-676.653c3.291-1.22,6.582-2.391,9.877-3.513c52.447-18.002,108.967-30.813,169.812-37.073
			c0,0,84.785-11.318,199.858,46.213c2.563,1.239,5.171,2.526,7.739,3.912c51.944,27.008,109.616,68.03,168.302,130.228
			c1.129,1.136,2.305,2.368,3.437,3.602c0,0-0.485,2.063-1.464,5.991c-9.643,36.558-68.412,232.778-255.722,384.35
			c-2.425,1.975-4.894,3.95-7.362,5.876C5851.291,2715.68,5578.55,2812.145,5146.859,2726.478z"/>
		<path fill="#FFFFFF" d="M5140.629,2729.395l-1.609-4.485l-1.609-4.534l3.406-1.613l1141.439-536.887
			c1.129,1.136,2.305,2.368,3.437,3.602c0,0-0.485,2.063-1.464,5.991l-1137.369,535.01L5140.629,2729.395z"/>
		<path fill="#FFFFFF" d="M6021.145,2581.693l-209.137-172.974l4.859-7.945l211.64,175.043
			C6026.082,2577.792,6023.613,2579.768,6021.145,2581.693z"/>
		<path fill="#FFFFFF" d="M5603.41,2506.381l-9.766,2.898l133.023-467.171c3.291-1.22,6.582-2.391,9.877-3.513L5603.41,2506.381z"/>
		<path fill="#FFFFFF" d="M6031.402,2308.688l-7.897-3.468l82.71-257.484c2.563,1.239,5.171,2.526,7.739,3.912L6031.402,2308.688z"
			/>
	</g>
	<g>
		<path fill="#ADB0FA" d="M2539.722,2687.033c2.584-0.507,5.211-1.014,7.84-1.568c0,0-0.611-2.114-1.796-6.147
			c-18.022-59.136-172.511-528.293-585.853-676.653c-3.291-1.219-6.583-2.391-9.876-3.513
			c-52.448-18.002-108.967-30.813-169.812-37.073c0,0-84.785-11.318-199.857,46.214c-2.564,1.239-5.172,2.525-7.74,3.911
			c-51.945,27.008-109.616,68.03-168.302,130.228c-1.129,1.136-2.304,2.368-3.436,3.602c0,0,0.485,2.063,1.464,5.991
			c9.643,36.559,68.412,232.778,255.721,384.351c2.426,1.974,4.895,3.949,7.363,5.875
			C1835.29,2676.235,2108.031,2772.701,2539.722,2687.033z"/>
		<path fill="#FFFFFF" d="M2545.952,2689.95l1.609-4.485l1.609-4.533l-3.406-1.614l-1141.44-536.887
			c-1.129,1.136-2.304,2.368-3.436,3.602c0,0,0.485,2.063,1.464,5.991l1137.369,535.01L2545.952,2689.95z"/>
		<path fill="#FFFFFF" d="M1665.437,2542.249l209.136-172.974l-4.859-7.945l-211.64,175.044
			C1660.5,2538.348,1662.968,2540.323,1665.437,2542.249z"/>
		<path fill="#FFFFFF" d="M2083.171,2466.938l9.767,2.897l-133.025-467.171c-3.291-1.219-6.583-2.391-9.876-3.513L2083.171,2466.938
			z"/>
		<path fill="#FFFFFF" d="M1655.179,2269.243l7.896-3.468l-82.708-257.483c-2.564,1.239-5.172,2.525-7.74,3.911L1655.179,2269.243z"
			/>
	</g>
	<g>
		<path fill="#BCA5F3" d="M2074.605,3126.192c2.194-1.456,4.429-2.927,6.646-4.443c0,0-1.372-1.721-4.008-4.995
			c-39.243-47.77-361.21-422.354-799.878-401.594c-3.507,0.13-6.997,0.305-10.469,0.525
			c-55.347,3.395-112.475,13.143-171.098,30.596c0,0-82.68,21.923-167.055,119.044c-1.896,2.124-3.815,4.31-5.66,6.571
			c-37.691,44.8-75.322,104.739-105.803,184.636c-0.61,1.481-1.225,3.068-1.8,4.641c0,0,1.236,1.721,3.641,4.979
			c22.875,30.103,152.132,189.001,383.133,257.541c2.996,0.897,6.032,1.78,9.049,2.617
			C1419.455,3385.264,1708.363,3370.246,2074.605,3126.192z"/>
		<path fill="#FFFFFF" d="M2081.478,3126.509l-0.226-4.76l-0.244-4.806l-3.764-0.189l-1259.963-60.222
			c-0.61,1.481-1.225,3.068-1.8,4.641c0,0,1.236,1.721,3.641,4.979l1255.483,60.041L2081.478,3126.509z"/>
		<path fill="#FFFFFF" d="M1211.304,3326.31l127.215-239.737l-7.525-5.487l-128.739,242.607
			C1205.251,3324.59,1208.287,3325.473,1211.304,3326.31z"/>
		<path fill="#FFFFFF" d="M1568.604,3097.158l10.133-1.053l-301.371-380.945c-3.507,0.13-6.997,0.305-10.469,0.525
			L1568.604,3097.158z"/>
		<path fill="#FFFFFF" d="M1097.552,3077.92l5.973-6.222l-174.782-206.373c-1.896,2.124-3.815,4.31-5.66,6.571L1097.552,3077.92z"/>
	</g>
	<ellipse fill="#F7D1FF" cx="3572.26" cy="3302.373" rx="3244.585" ry="396.214"/>
	<path fill="#FAECFD" d="M4584.789,2010.675c54.865,72.572,93.504,160.757,115.741,252.902
		c131.484-69.376,300.231-61.743,424.916,19.218c54.809,35.589,102.803,87.238,117.309,150.957
		c14.507,63.719-12.88,139.23-72.692,165.557c69.234,18.537,138.467,37.074,207.7,55.611
		c70.26,18.812,144.771,40.176,192.886,94.723c69.211,78.465,58.448,205.805-3.069,290.437
		c-61.517,84.632-162.003,132.655-263.062,159.757c-85.543,22.941-224.57,35.947-314.103,43.495
		c-183.403,15.461-587.37,9.696-798.547,20.899c-356.093,18.891-1380.78,7.366-1575.279,6.31
		c-171.442-0.932-735.634-61.567-845.459-70.413c-111.942-9.017-227.296-27.35-339.549-27.35
		c-62.192-5.01-126.135-10.531-184.139-31.875c-40.188-14.787-61.43-58.785-47.384-99.238c10.921-31.454,34.7-60.189,63.771-77.07
		c53.444-31.033,118.365-32.658,180.161-33.462c161.213-2.095,319.748-9.165,480.141,12.948
		c-172.059-23.721-333.273-118.429-437.879-257.109c-56.677-75.147-93.901-189.008-29.25-257.369
		c43.454-45.902,114.403-49.897,177.518-45.701c179.825,12.036,356.782,65.979,512.748,156.313
		c-92.151-61.437-187.803-126.51-241.26-223.489c-53.388-97.051-48.839-235.736,40.234-301.577
		c94.321-69.69,229.225-27.989,329.354,33.096c171.429,104.677,311.301,260.15,397.294,441.586
		c-44.361-120.071-89.492-248.257-62.554-373.364c26.939-125.179,157.645-236.644,278.275-193.961
		c70.321,24.841,117.131,94.393,134.974,166.741c2.519,10.355,4.618,20.711,6.157,31.139c6.438-37.367,17.353-73.682,34.006-107.967
		c44.502-91.663,137.144-164.78,239.02-163.383c119.091,1.681,218.031,103.419,255.534,216.422
		c37.506,113.074,27.01,235.66,16.094,354.262c62.136-214.813,188.922-421.227,385.96-527.02
		c86.835-46.602,188.433-68.502,287.161-63.746c3.708,0.211,7.347,0.42,10.985,0.632
		C4398.885,1837.759,4507.81,1908.85,4584.789,2010.675z"/>
	<path fill="#CDD0FD" d="M4791.538,2727.34c-2.082,1.088-4.144,2.229-6.183,3.427c-33.162,19.479-56.637,53.767-64.824,91.147
		c-7.795,35.589-14.903,75.3,18.659,100.103c-30.382,5.392-59.935,17.998-82.608,38.929c-22.673,20.931-37.93,50.609-38.387,81.464
		c-0.495,33.349,15.896,65.021,37.541,90.396c35.398,41.503,84.785,69.249,136.529,86.513s106.176,24.738,160.332,31.266
		c58.977,7.109,118.453,13.204,177.701,8.912c63.659-4.611,121.029-28.307,185.27-26.117
		c75.603,2.577,146.599-28.316,221.582-32.865c140.716-8.539,277.96,73.396,417.308,52.042
		c29.349-4.497,58.792-14.021,81.367-33.307c22.573-19.286,37.134-49.689,31.802-78.897c-11.268-61.73-93.09-60.986-140.517-63.025
		c-71.28-3.064-142.795-0.664-213.706,7.212c58.167-8.02,112.668-40.036,148.031-86.92c19.16-25.404,31.744-63.896,9.888-87.007
		c-14.69-15.518-38.675-16.868-60.012-15.449c-60.792,4.068-120.615,22.305-173.341,52.844c31.152-20.77,63.488-42.77,81.561-75.554
		c18.049-32.81,16.512-79.694-13.602-101.952c-31.887-23.56-77.492-9.462-111.342,11.188
		c-57.954,35.387-105.24,87.947-134.311,149.284c14.996-40.592,30.254-83.927,21.146-126.221
		c-9.106-42.318-53.293-80.001-94.074-65.571c-23.772,8.397-39.598,31.91-45.629,56.369c-0.852,3.501-1.562,7.001-2.082,10.526
		c-2.176-12.633-5.866-24.909-11.496-36.499c-15.045-30.988-46.363-55.706-80.805-55.234c-40.26,0.568-73.707,34.962-86.387,73.164
		c-12.679,38.227-9.13,79.668-5.439,119.763c-1.636-17.764-13.017-38.783-20.496-54.763c-8.822-18.854-19.314-36.961-31.653-53.737
		c-12.26-16.668-26.332-31.48-41.954-45.008c-15.978-13.836-27.226-26.756-48.303-33.987c-26.656-9.146-55.186-11.055-83.34-12.288
		C4882.705,2705.426,4833.008,2705.68,4791.538,2727.34z"/>
	<path fill="#E5526F" d="M3383.405,529.988c1.13-33.196,11.705-65.255,22.263-96.749c8.724-26.022,18.421-53.404,39.51-70.969
		c25.612-21.333,61.844-23.197,95.164-22.285c55.953,1.531,111.688,8.047,166.904,17.229
		c50.465,8.393,104.711,21.438,136.923,61.182c33.039,40.767,33.215,101.869,9.06,148.453
		c-21.857,42.155-71.508,91.838-121.117,99.393l13.257,72.913l-73.499-69.768c-53.807-0.419-109.353-7.995-160.79-14.571
		c-33.876-4.331-69.774-10.78-94.831-33.985C3391.877,598.264,3382.275,563.185,3383.405,529.988z"/>
	<g>
		<polygon fill="#E4A544" points="4719.464,1940.122 3505.604,2914.463 2279.066,1940.122 		"/>
		<g>
			<path fill="#E09F3B" d="M4721.469,1942.484h-2440.31l1093.512-919.639c73.205-61.565,180.081-61.565,253.286,0L4721.469,1942.484
				z"/>
			<path fill="#F3BD5D" d="M4721.459,1942.491h-181.205l-876.064-743.985c-135.093-113.894-188.385-120.164-325.669,0.005
				l-877.007,743.979h-180.34l1093.815-919.93c73.006-61.4,179.593-61.402,252.6-0.003L4721.459,1942.491z"/>
			<g>
				<path fill="#EAEAEA" d="M2523.25,1211.401h1951.977c44.545,0,80.656,36.111,80.656,80.656v1790.907h-2113.29V1292.058
					C2442.593,1247.512,2478.705,1211.401,2523.25,1211.401z"/>
				<rect x="3457" y="1485.366" fill="#FFFFFF" width="921.877" height="14.813"/>
				<rect x="2619.599" y="1643.73" fill="#FFFFFF" width="1759.278" height="14.808"/>
				<rect x="2619.599" y="1802.041" fill="#FFFFFF" width="1759.278" height="14.862"/>
				<rect x="2619.599" y="1960.4" fill="#FFFFFF" width="1759.278" height="14.813"/>
				<rect x="2619.599" y="2118.715" fill="#FFFFFF" width="1759.278" height="14.813"/>
				<rect x="2619.599" y="2277.025" fill="#FFFFFF" width="1759.278" height="14.861"/>
				<rect x="2619.599" y="2435.385" fill="#FFFFFF" width="1759.278" height="14.813"/>
			</g>
			<polygon fill="#FFCB68" points="3505.604,2914.463 2279.065,1940.125 2279.065,3308.638 4719.466,3308.638 4719.466,1940.125 			
				"/>
			<polygon fill="#F3BD5D" points="3057.317,2565.946 2279.046,3308.671 4719.436,3308.671 3916.152,2565.946 			"/>
			<polygon fill="#EAAA46" points="3059.856,2562.959 2279.046,3308.671 3029.805,2538.793 			"/>
			<polygon fill="#EAAA46" points="3917.378,2567.587 4719.436,3308.671 3947.353,2544.172 			"/>
		</g>
	</g>
	<g>
		<path fill="#F9B58E" d="M2076.017,2505.947c-6.248,0.92-13.253,0.605-17.987-3.574c-2.378-2.098-3.927-4.959-5.944-7.406
			c-5.737-6.963-15.599-10.237-24.362-8.088c-17.673,4.334-26.313,26.917-44.081,30.846c-2.709,0.6-5.531,0.725-8.15,1.641
			s-5.123,2.885-5.603,5.617c-0.58,3.298,1.875,6.281,4.158,8.731c3.158,3.389,6.316,6.777,9.475,10.166
			c1.427,1.531,2.915,3.106,4.847,3.914c3.724,1.558,8.438-0.002,11.748,2.309c2.896,2.022,3.567,6.296,6.529,8.22
			c4.433,2.88,10.568-1.303,15.525,0.533c2.574,0.953,4.307,3.353,6.611,4.844c3.845,2.49,8.937,2.195,13.236,0.615
			c4.3-1.58,8.075-4.287,12.068-6.531c5.01-2.817,10.41-4.926,15.979-6.349c15.178-3.876,31.135-2.606,46.746-1.312
			c0.516-12.334,1.032-24.668,1.548-37.002c0.091-2.17,0.15-4.477-0.944-6.353c-2.184-3.747-7.565-3.808-11.785-2.803
			c-5.364,1.276-8.202,1.17-13.291,0.036C2087.113,2502.836,2081.206,2505.184,2076.017,2505.947z"/>
		<path fill="#212A53" d="M2034.891,2554.16l1.597-2.423c1.358-2.063,0.788-4.836-1.274-6.194l-100.653-66.318
			c-2.062-1.359-4.835-0.789-6.194,1.273l-1.597,2.423c-1.358,2.063-0.788,4.835,1.274,6.194l100.653,66.318
			C2030.759,2556.792,2033.532,2556.223,2034.891,2554.16z"/>
		<polygon fill="#F4B08B" points="2135.572,3169.379 2146.658,3257.217 2184.713,3270.838 2174.527,3165.494 		"/>
		<polygon fill="#F4B08B" points="2304.7,3172.13 2318.551,3261.028 2359.848,3248.97 2346.497,3172.13 		"/>
		<path fill="#212A53" d="M2113.819,2542.119c-11.791,75.807-23.094,207.843-34.885,283.65
			c-17.318,111.348,37.654,277.861,57.999,388.696c14.717-1.704,28.065-6.445,42.782-8.149
			c-4.811-187.826,3.625-427.159,15.82-614.651C2169.058,2594.953,2140.296,2538.832,2113.819,2542.119z"/>
		<path fill="#023D5F" d="M2298.092,2594.935c-15.34,0.974-30.772-12.907-46.112-11.934c-18.732,1.188-39.061,4.806-57.004,10.313
			c-17.943,5.506-38.697-11.332-56.505-17.265c-3.675,30.38,2.736,84.419,8.431,114.485c13.315,70.3,28.925,140.166,46.798,209.447
			c9.838,38.137,38.644,75.019,53.761,111.387c6.49,15.613,12.332,31.486,18.173,47.354
			c12.021,32.657,33.122,124.991,45.142,157.648c14.795-1.131,29.966-1.552,44.761-2.683
			c-1.46-33.165-14.427-128.338-15.887-161.503c-2.436-55.329-30.026-113.306-51.796-164.231
			c11.052-52.916,11.366-110.234,11.027-164.291C2298.583,2676.219,2298.39,2642.379,2298.092,2594.935z"/>
		<path fill="#43AAEC" d="M2122.291,3211.664c-1.069-2.751-4.526-3.612-6.772-1.698c-9.402,8.015-34.597,25.683-84.564,37.464
			c0,0-12.141,2.563-21.044,16.592h185.625v-32.874c0-3.614-4.244-5.561-6.983-3.202l-7.147,6.155
			c-3.419,2.944-7.771,4.583-12.283,4.625l-26.609,0.25c-5.76,0.054-10.952-3.463-13.039-8.832L2122.291,3211.664z"/>
		<rect x="2009.91" y="3264.021" fill="#2A325B" width="185.625" height="19.156"/>
		<path fill="#43AAEC" d="M2303.862,3222.165c-1.938-2.227-5.482-1.866-6.947,0.696c-6.131,10.725-23.852,35.883-66.874,63.894
			c0,0-10.555,6.524-14.179,22.741l174.649-62.881l-11.136-30.93c-1.224-3.401-5.876-3.795-7.655-0.647l-4.64,8.212
			c-2.22,3.929-5.759,6.944-9.99,8.513l-24.952,9.249c-5.401,2.002-11.478,0.451-15.26-3.894L2303.862,3222.165z"/>
		
			<rect x="2213.619" y="3277.49" transform="matrix(0.9409 -0.3388 0.3388 0.9409 -977.1353 975.655)" fill="#2A325B" width="185.625" height="19.156"/>
		<path fill="#F4A086" d="M2196.148,2187.545c8.206,2.55,12.33,15.396,16.004,22.212c12.409,23.011,27.795,44.414,45.655,63.507
			c-35.885,15.309-72.877,28.025-110.59,38.018c-1.192,0.315-2.555,0.604-3.582-0.077c-1.154-0.765-1.324-2.361-1.38-3.744
			c-0.578-14.286-1.155-28.571-1.732-42.858c-0.271-6.674-0.544-13.382-1.883-19.926c-1.102-5.382-2.914-10.604-3.887-16.011
			c-1.25-6.941-1.156-14.173-3.22-20.96c-0.35-1.148-5.95-13.201-6.595-13.134c13.62-1.433,27.239-2.87,40.859-4.306
			c8.842-0.932,17.815-2.534,26.661-3.143C2193.774,2187.033,2195.001,2187.188,2196.148,2187.545z"/>
		<path fill="#F9B58E" d="M2081.408,2169.269c3.665-9.29,6.906-18.747,9.714-28.332c2.211-7.55,3.726-15.376,5.266-23.197
			c0.953-8.038,2.625-15.683,4.939-22.757c0.048,0.238,0.099,0.482,0.147,0.722c1.898-6.401,4.299-12.609,7.658-18.446
			c8.44-14.666,22.079-27.247,39.517-29.101c34.43-3.66,66.798,35.292,72.295,87.001c5.497,51.71-17.958,96.597-52.388,100.257
			c-24.41,2.595-47.771-16.242-61.267-45.846c-7.458-2.003-14.933-4.024-21.667-7.747c-2.314-1.279-4.689-2.971-5.39-5.521
			C2079.592,2173.967,2080.521,2171.521,2081.408,2169.269z"/>
		<path fill="#B05947" d="M2072.638,2084.247c-9.518-5.804-16.375-16.475-15.959-27.614s9.117-21.893,20.2-23.087
			c8.386-0.903,17.048,3.288,25.114,0.82c4.791-1.466,8.564-5.065,12.455-8.223c21.218-17.22,51.132-23.103,77.291-15.198
			c26.158,7.904,47.81,29.366,55.942,55.455c6.847,21.961,4.373,45.981-2.721,67.864s-18.578,42.038-29.983,62.016
			c-6.115-24.204-12.231-48.409-18.347-72.613c-1.333-5.277-2.816-10.827-6.655-14.686c-3.84-3.859-10.854-5.116-14.576-1.144
			c-2.401,2.563-2.74,6.356-3.421,9.803c-0.681,3.445-2.28,7.268-5.65,8.256c-3.77,1.105-7.413-1.928-10.005-4.881
			c-5.529-6.3-9.941-13.306-13.68-20.787c-2.317-4.637-4.515-10.467-8.835-13.672c-4.823-3.578-9.868-1.928-15.083-0.23
			c-7.399,2.409-14.937,4.151-22.762,4.092C2087.836,2090.355,2079.623,2088.507,2072.638,2084.247z"/>
		<path fill="#79D3D3" d="M2082.878,2336.51c0.595,7.576,0.662,15.142,1.257,22.718c1.39,17.91,2.779,35.831,4.168,53.74
			c1.445,18.671,2.889,37.584-0.43,56.001c0.011,11.393,0.044,22.784,0.243,34.166c0.132,7.983,0.341,15.969,0.672,23.941
			c0.276,6.915,0.607,13.058-0.353,19.861c-0.011,0.166-0.044,0.342-0.066,0.508c-2.229,16.69-1.141,36.111,5.295,51.853
			c2.86,6.995,7.596,13.481,14.266,17.033c7.979,4.249,17.532,3.824,26.556,3.291c43.802-2.589,87.603-5.177,131.404-7.765
			c4.312-0.255,9.205-0.811,11.759-4.294c1.16-1.581,1.647-3.561,2.696-5.216c2.034-3.211,6.458-2.578,9.81-2.894
			c1.993-0.188,6.673-1.151,8.322,0.497c-13.057-16.312-34.166-31.641-47.223-47.962c-6.021-7.511-12.352-15.936-11.988-25.563
			c0.364-9.341,42.359-29.258,47.587-37c14.789-21.912-17.237-36.437-18.604-62.838c-0.806-15.473,20.744-14.877,26.191-29.391
			c5.438-14.513,3.573-26.93,8.867-41.498c1.941-5.338-5.106-28.332-5.128-34.012c-0.033-5.701-1.842-11.215-2.834-16.828
			c-1.907-10.853-0.75-22.068-2.525-32.941c-2.271-13.929-9.506-26.986-20.093-36.305c-5.426-4.775-40.352-8.603-44.741-7.896
			c-1.489,0.231-3.011,0.485-4.334,1.213c-2.603,1.434-3.904,4.39-5.194,7.069c-7.344,15.308-19.553,27.229-34.871,34.474
			c-8.206,3.883-17.502,6.419-26.369,4.467c-8.856-1.951-16.939-9.418-17.248-18.494c-17.16,11.591-32.632,25.651-45.811,41.62
			c-4.235,5.14-8.315,10.62-10.278,16.983C2081.742,2322.008,2082.316,2329.363,2082.878,2336.51z"/>
		<path fill="#71C7C6" d="M2088.437,2546.938c1.544,0.938,3.209,1.578,5.04,1.654c4.797,0.199,8.767-3.506,13.245-5.249
			c5.691-2.217,12.848-1.499,17.105-5.899c3.253-3.363,3.551-8.515,3.661-13.19c0.077-3.419,0.143-6.826,0.198-10.245
			c0.144-10.058,0.078-20.126-0.805-30.15c-0.806-9.198-1.6-20.348-5.614-28.795c-1.345-2.823-3.562-4.93-4.72-7.896
			c-1.842-4.73-3.055-9.826-4.268-14.756c-2.404-9.771-4.036-19.729-4.874-29.754c-0.916-10.852-1.026-22.244-6.331-31.75
			c1.93,8.105,0.893,16.586-0.154,24.857c-0.717,5.646-2.525,12.055-1.301,17.689c1.246,5.768,1.246,11.547,1.467,17.469
			c1.036,28.332,2.073,56.884-2.338,84.895c-2.041-0.849-2.878-3.286-3.055-5.48c-0.177-2.195,0.055-4.5-0.794-6.529
			c-0.85-2.028-3.397-3.605-5.272-2.448c-0.672,0.42-1.103,1.081-1.511,1.776c0.132,7.983,0.341,15.969,0.672,23.941
			C2089.065,2533.991,2089.396,2540.134,2088.437,2546.938z"/>
		<path fill="#71C7C6" d="M2247.749,2500.846c6.283-4.325,13.246-8.129,17.609-14.384c8.45-12.114,5.222-29.028,1.813-42.239
			c-4.421-17.135-10.583-33.82-18.369-49.712c8.196,3.817,15.381,9.463,22.484,15.058c-6.453-16.811-14.197-33.125-23.14-48.753
			c8.953,6.392,17.906,12.784,26.859,19.176c0.475,0.339,0.985,0.69,1.568,0.721c1.357,0.068,2.117-1.504,2.533-2.798
			c3.876-12.069,9.505-23.574,16.656-34.042c4.04,9.657,7.197,19.683,9.423,29.91c1.83,8.408,6.434,14.853,9.89,22.751
			c8.366,19.123,15.043,38.942,20.614,59.047c1.145,4.13,2.243,8.272,3.303,12.426c1.297,5.082-0.48,15.646-2.251,20.583
			c-2.116,5.896-8.001,9.481-13.646,12.198c-13.804,6.643-28.621,10.94-42.607,17.191c-13.986,6.25-27.535,14.873-35.776,27.787
			c20.959-1.195,41.918-2.39,62.877-3.584c6.417-0.365,1.664-14.544,7.642-12.183c4.138,1.635-5.489,21.911-9.086,44.112
			c-2.202,13.591-7.938,39.227-7.938,39.227s-10.667-0.282-25.285,0c-13.543,0.261-19.798-0.102-38.185,0.164
			c-7.163,0.104-18.761,0.218-25.273-0.059c-5.625-0.238-4.884-13.34-5.363-18.402c-2.187-23.069,4.144-46.802,16.684-66.197
			C2227.863,2517.894,2236.996,2508.246,2247.749,2500.846z"/>
		<path fill="#F9B58E" d="M2147.079,2571.377c-4.25,1.782-8.598,3.646-11.918,6.842c-4.271,4.111-6.476,10.091-11.037,13.879
			c-2.646,2.197-6.341,4.118-5.268,8.211c0.314,1.2,1.01,2.261,1.893,3.132c2.771,2.735,6.013,6.442,10.153,6.464
			c2.632,0.015,5.003-1.488,7.185-2.961c8.803-5.939,17.349-12.26,25.606-18.938c1.465-1.184,3.543-1.459,5.149-0.477
			c2.885,1.767,1.41,5.466-0.707,7.451c-0.542,0.509-0.884,1.923-1.115,3.736c-0.691,5.426,5.163,9.262,9.811,6.378
			c28.993-17.988,58.25-30.317,92.958-39.55c-1.684-10.654-3.368-21.31-5.052-31.965c-0.235-1.487-0.208-6.184-1.637-6.791
			c-1.306-0.554-5.924,1.969-7.278,2.451c-4.955,1.766-9.903,3.55-14.845,5.352c-20.196,7.366-40.281,15.037-60.245,23.011
			C2169.475,2562.099,2158.257,2566.69,2147.079,2571.377z"/>
		<path fill="#79D3D3" d="M2338.927,2281.299c3.074,4.604,13.763,26.226,17.938,36.115c6.193,14.669,9.72,30.345,13.923,45.763
			c5.778,21.191,11.549,42.397,17.317,63.594c5.092,18.702,10.241,37.913,8.299,57.198c-16.917,24.735-34.875,50.42-61.36,64.457
			c-2.699,1.434-5.462,2.725-8.274,3.905c-10.271,4.335-21.166,7.218-31.98,10.064c-17.329,4.564-34.654,9.14-51.983,13.704
			c0.396-13.117-3.164-28.924-9.172-40.59c27.814-10.35,54.524-22.009,81.608-34.161c6.086-2.735,12.446-5.751,16.251-11.22
			c4.872-7.008,4.407-16.356,2.813-24.74c-8.269-43.449-41.28-80.214-44.395-124.338c-3.003-42.625-32.458-73.692-50.052-112.635
			c4.483,0.268,9.092,1.484,13.522,1.363c5.094-0.138,10.461,0.744,15.537,1.443c10.214,1.409,20.043,4.755,28.979,9.867
			c14.486,8.289,26.107,19.611,36.011,33.045C2335.638,2276.482,2337.309,2278.873,2338.927,2281.299z"/>
		<path fill="#71C7C6" d="M2370.789,2363.177c5.778,21.191,11.549,42.397,17.317,63.594c5.092,18.702,10.241,37.913,8.299,57.198
			c-16.917,24.735-34.875,50.42-61.36,64.457c-2.699,1.434-5.462,2.725-8.274,3.905c3.158-7.382,8.203-14.299,13.308-20.54
			c13.07-15.971,28.034-32.06,31.477-52.4c2.769-16.425-2.493-32.984-4.671-49.49c-1.379-10.451-1.521-21.031-0.832-31.535
			c0.625-9.482,1.93-18.904,3.582-28.252C2369.958,2368.288,2370.021,2365.418,2370.789,2363.177z"/>
	</g>
	<polygon fill="#F4B08B" points="4786.401,3222.054 4775.719,3306.692 4739.051,3319.818 4748.865,3218.311 	"/>
	<polygon fill="#F4B08B" points="4623.434,3225 4610.087,3310.514 4570.295,3298.967 4583.159,3225 	"/>
	<polygon fill="#F4A086" points="4667.216,2172.914 4609.756,2246.442 4664.705,2276.352 4726.377,2199.836 	"/>
	<path fill="#F9B58E" d="M4814.972,2178.28c-1.755-11.244-2.997-22.567-3.726-33.925c-0.574-8.945-0.305-18.025-0.064-27.106
		c0.947-9.175,0.998-18.091,0.189-26.534c-0.113,0.253-0.23,0.512-0.344,0.766c-0.514-7.591-1.632-15.092-3.91-22.421
		c-5.723-18.412-17.746-35.806-36.671-42.22c-37.366-12.665-83.078,22.563-102.099,78.682
		c-19.021,56.12-4.148,111.881,33.218,124.545c26.492,8.979,57.168-6.132,79.563-35.677c8.792-0.364,17.607-0.747,26.023-3.204
		c2.893-0.844,5.955-2.133,7.37-4.793C4815.818,2183.957,4815.397,2181.006,4814.972,2178.28z"/>
	<path fill="#B05947" d="M4845.949,2085.941c12.029-4.077,22.317-14.229,24.637-26.719c2.319-12.488-4.672-26.616-16.695-30.711
		c-9.099-3.098-19.775-0.6-28.127-5.357c-4.961-2.825-8.258-7.77-11.795-12.251c-19.292-24.443-51.082-38.451-82.139-36.193
		c-31.058,2.257-60.488,20.714-76.043,47.69c-13.094,22.708-16.341,50.031-13.916,76.133c2.424,26.101,10.16,51.376,17.854,76.435
		c12.842-25.384,25.684-50.769,38.525-76.152c2.801-5.535,5.834-11.334,11.066-14.667c5.232-3.332,13.346-2.979,16.492,2.368
		c2.029,3.449,1.459,7.751,1.355,11.752c-0.103,4.001,0.721,8.65,4.221,10.591c3.916,2.17,8.725-0.294,12.342-2.93
		c7.721-5.623,14.375-12.312,20.4-19.695c3.734-4.578,7.633-10.512,13.235-12.996c6.256-2.774,11.452,0.32,16.827,3.51
		c7.625,4.524,15.57,8.344,24.285,10.23C4827.525,2088.938,4837.119,2088.934,4845.949,2085.941z"/>
	<path fill="#212A53" d="M4807.363,2617.64c11.36,73.046,22.252,200.272,33.613,273.319
		c16.688,107.292-36.283,267.742-55.887,374.54c-14.18-1.642-27.043-6.21-41.224-7.853c4.636-180.985-3.493-411.602-15.243-592.266
		C4754.135,2668.549,4781.85,2614.472,4807.363,2617.64z"/>
	<path fill="#023D5F" d="M4629.801,2668.531c14.781,0.938,29.652-12.437,44.434-11.499c18.05,1.145,37.638,4.631,54.928,9.937
		c17.29,5.307,37.287-10.919,54.447-16.635c3.541,29.272-2.638,81.344-8.125,110.315c-12.829,67.739-27.871,135.061-45.093,201.819
		c-9.479,36.748-37.236,72.285-51.803,107.329c-6.254,15.045-11.884,30.34-17.511,45.63
		c-11.582,31.468-31.916,120.438-43.498,151.906c-14.256-1.09-28.875-1.496-43.131-2.586c1.407-31.957,13.901-123.663,15.309-155.62
		c2.348-53.314,28.934-109.18,49.909-158.25c-10.649-50.988-10.952-106.22-10.626-158.308
		C4629.328,2746.854,4629.514,2714.247,4629.801,2668.531z"/>
	<path fill="#F9B58E" d="M4831.834,2472.184c5.354,0.788,11.358,0.519,15.416-3.063c2.037-1.799,3.365-4.25,5.094-6.348
		c4.917-5.967,13.368-8.773,20.878-6.932c15.146,3.714,22.551,23.068,37.776,26.436c2.322,0.514,4.74,0.62,6.985,1.405
		c2.243,0.784,4.39,2.472,4.802,4.813c0.496,2.827-1.607,5.384-3.563,7.483c-2.707,2.903-5.413,5.808-8.12,8.712
		c-1.223,1.313-2.498,2.662-4.153,3.354c-3.191,1.335-7.231-0.002-10.067,1.979c-2.482,1.732-3.058,5.396-5.597,7.044
		c-3.798,2.468-9.057-1.116-13.304,0.457c-2.207,0.817-3.691,2.873-5.667,4.151c-3.296,2.134-7.658,1.881-11.343,0.526
		c-3.686-1.354-6.921-3.674-10.343-5.598c-4.294-2.414-8.921-4.221-13.694-5.439c-13.006-3.322-26.682-2.234-40.061-1.124
		c-0.441-10.57-0.884-21.141-1.326-31.711c-0.078-1.859-0.129-3.836,0.809-5.443c1.873-3.211,6.483-3.263,10.1-2.402
		c4.598,1.095,7.029,1.003,11.391,0.03C4822.325,2469.518,4827.388,2471.529,4831.834,2472.184z"/>
	<path fill="#212A53" d="M4867.079,2513.501l-1.368-2.076c-1.164-1.767-0.676-4.144,1.092-5.308l86.258-56.835
		c1.768-1.164,4.145-0.676,5.309,1.092l1.368,2.076c1.164,1.768,0.676,4.144-1.092,5.309l-86.259,56.834
		C4870.62,2515.757,4868.243,2515.269,4867.079,2513.501z"/>
	<path fill="#FFFFFF" d="M4799.199,3262.799c1.03-2.65,4.361-3.48,6.525-1.636c9.06,7.722,33.337,24.747,81.484,36.099
		c0,0,11.699,2.47,20.277,15.988h-178.863v-31.677c0-3.483,4.09-5.358,6.729-3.085l6.887,5.93c3.295,2.838,7.488,4.417,11.836,4.457
		l25.641,0.24c5.551,0.053,10.553-3.336,12.564-8.51L4799.199,3262.799z"/>
	<rect x="4728.623" y="3313.25" fill="#121633" width="178.863" height="18.459"/>
	<path fill="#FFFFFF" d="M4624.241,3272.918c1.867-2.146,5.282-1.799,6.694,0.67c5.908,10.335,22.982,34.577,64.438,61.567
		c0,0,10.17,6.287,13.662,21.913l-168.288-60.591l10.73-29.804c1.181-3.277,5.663-3.656,7.376-0.624l4.471,7.913
		c2.139,3.786,5.55,6.691,9.627,8.203l24.043,8.912c5.204,1.929,11.06,0.436,14.703-3.752L4624.241,3272.918z"/>
	
		<rect x="4532.333" y="3326.228" transform="matrix(-0.9409 -0.3387 0.3387 -0.9409 7840.3979 8039.3252)" fill="#121633" width="178.864" height="18.457"/>
	<path fill="#EEB192" d="M3937.021,1314.116c0.029,23.615,0.083,47.438,5.98,70.514c-17.691,0.039-35.383,0.077-53.074,0.116
		c-2.01,0.004-4.129-0.015-5.857-0.872c-3.291-1.631-3.732-5.411-3.801-8.625c-0.839-39.395-1.679-78.79-2.518-118.185
		c14.489,5.127,29.764,8.695,45.332,10.593c3.936,0.48,6.346,0.138,9.963-0.268c3.061-0.343,4.27,0.026,4.92,2.859
		c1.418,6.181-0.688,14.273-0.813,20.617C3937.002,1298.615,3937.012,1306.366,3937.021,1314.116z"/>
	<path fill="#141835" d="M3853.689,1312.654c-1.321-3.324-5.519-4.336-8.223-1.996c-11.321,9.798-41.693,31.441-102.142,46.175
		c0,0-14.69,3.217-25.353,20.302l224.961-1.697l-0.301-39.841c-0.033-4.381-5.194-6.7-8.492-3.817l-8.605,7.524
		c-4.117,3.6-9.376,5.625-14.844,5.718l-32.246,0.545c-6.98,0.118-13.305-4.097-15.883-10.584L3853.689,1312.654z"/>
	
		<rect x="3718.057" y="1376.286" transform="matrix(1 -0.0075 0.0075 1 -10.3591 28.9307)" fill="#00666A" width="224.967" height="23.216"/>
	<path fill="#EEB192" d="M4310.229,1314.116c-0.029,23.615-0.084,47.438-5.981,70.514c17.691,0.039,35.384,0.077,53.075,0.116
		c2.009,0.004,4.129-0.015,5.857-0.872c3.291-1.631,3.731-5.411,3.8-8.625c0.839-39.395,1.679-78.79,2.519-118.185
		c-14.49,5.127-29.765,8.695-45.332,10.593c-3.936,0.48-6.346,0.138-9.964-0.268c-3.06-0.343-4.27,0.026-4.92,2.859
		c-1.418,6.181,0.688,14.273,0.813,20.617C4310.248,1298.615,4310.237,1306.366,4310.229,1314.116z"/>
	<path fill="#141835" d="M4393.561,1312.654c1.32-3.324,5.518-4.336,8.223-1.996c11.32,9.798,41.693,31.441,102.142,46.175
		c0,0,14.69,3.217,25.353,20.302l-224.961-1.697l0.301-39.841c0.033-4.381,5.193-6.7,8.492-3.817l8.605,7.524
		c4.117,3.6,9.375,5.625,14.844,5.718l32.246,0.545c6.98,0.118,13.305-4.097,15.883-10.584L4393.561,1312.654z"/>
	
		<rect x="4304.225" y="1376.286" transform="matrix(-1 -0.0075 0.0075 -1 8822.8242 2809.0615)" fill="#00666A" width="224.967" height="23.216"/>
	<g>
		<path fill="#FFC8B7" d="M3903.323,848.596l-32.149,110.069c-3.638,12.458,4.278,25.334,17.037,27.71l92.627,17.25v-51.677
			l-23.966-7.076c-8.571-2.53-13.369-11.63-10.616-20.132l20.626-63.697L3903.323,848.596z"/>
		<path fill="#FFC8B7" d="M4321.041,848.596l32.148,110.069c3.639,12.458-4.277,25.334-17.036,27.71l-92.627,17.25v-51.677
			l23.966-7.076c8.57-2.53,13.369-11.63,10.617-20.132l-20.627-63.697L4321.041,848.596z"/>
	</g>
	<path fill="#4961FF" d="M3898.585,1021.581c-25.024,0.189-47.019,16.716-54.016,40.743
		c-11.298,38.794-13.968,117.293,31.861,252.303h61.672l6.79-149.938h342.309c0,0,10.973,120.004,20.025,156.216l63.936-0.055
		c0,0,13.357-155.029,15.62-236.504c0,0-1.132-46.396-52.054-58.277C4334.729,1026.069,3924.445,1021.385,3898.585,1021.581z"/>
	<g>
		<ellipse fill="#FFC8B7" cx="4112.182" cy="585.027" rx="60.682" ry="87.982"/>
		<path fill="#FFC8B7" d="M4123.027,753.636h-21.69c-16.084,0-29.243-13.16-29.243-29.244l-7.521-33.843l8.588-23.952l-1.066-35.447
			c0-16.084,13.159-29.244,29.243-29.244h21.69c16.084,0,29.243,13.16,29.243,29.244l-1.067,35.447l18.607,20.746l-17.54,37.049
			C4152.271,740.477,4139.111,753.636,4123.027,753.636z"/>
		<g>
			<path fill="#43455E" d="M4322.795,831.732c-14.727-34.496-29.453-68.995-44.179-103.491c-5.042-11.811-10.437-24.1-20.384-32.22
				c-9.641-7.868-22.283-10.772-34.435-13.446c-24.199-5.327-48.396-10.653-72.595-15.978c7.719,15.732,6.756,34.969-0.362,50.984
				c-4.448,10.008-11.855,18.669-20.898,24.934c-10.608,7.349-24.791,7.355-35.418,0.033c-9.089-6.263-16.543-14.935-21.002-24.966
				c-7.116-16.015-8.079-35.252-0.362-50.984c-24.197,5.324-48.396,10.651-72.594,15.978c-12.151,2.674-24.794,5.578-34.434,13.446
				c-9.949,8.12-15.343,20.409-20.385,32.22c-14.725,34.496-29.451,68.995-44.178,103.491c-3.718,8.71-7.436,17.418-11.153,26.128
				c22.024,8.388,45.843,10.573,69.315,12.68c4.985,0.449,10.445,0.776,14.539-2.104c3.138-2.21,4.839-5.892,6.34-9.426
				c1.784-4.203,3.643-8.658,7.889-10.884c2.405-1.261,5.395-1.342,7.583,0.268c3.218,2.367,2.825,6.605,2.271,10.245
				c-1.375,9.033-2.75,18.068-4.124,27.103c37.395-1.017,80.328,1.497,117.742,0.491c37.453,1.019,80.707-1.509,118.162-0.491
				c-1.375-9.035-2.75-18.07-4.125-27.103c-0.553-3.639-0.945-7.877,2.271-10.245c2.187-1.609,5.176-1.528,7.581-0.268
				c4.249,2.226,6.106,6.682,7.892,10.884c1.5,3.534,3.201,7.216,6.34,9.426c4.094,2.88,9.553,2.553,14.537,2.104
				c23.474-2.106,47.293-4.292,69.316-12.68C4330.229,849.15,4326.512,840.442,4322.795,831.732z"/>
		</g>
		<path fill="#43445D" d="M4044.021,585.344c-1.248-3.855-1.421-7.964-1.585-12.013c-0.348-8.64-0.696-17.28-1.044-25.919
			c-0.21-5.214-0.406-10.545,1.121-15.535c1.8-5.883,5.833-10.779,9.771-15.506c4.839-5.808,9.706-11.645,15.43-16.584
			c8.497-7.334,19.007-12.606,30.177-13.724c6.308-0.631,12.664,0.056,18.966,0.742c10.699,1.165,21.398,2.33,32.098,3.494
			c6.85,0.746,14.127,1.665,19.441,6.049c5.75,4.743,7.916,12.458,9.775,19.675c2.972,11.535,5.959,23.159,6.643,35.051
			c0.686,11.892-1.076,24.211-7.062,34.51c-2.058,3.542-5.79,7.217-9.657,5.866c-3.28-1.146-4.359-5.128-6.377-7.957
			c-2.482-3.481-6.685-5.361-10.873-6.224c-4.189-0.862-8.506-0.862-12.744-1.44c-12.75-1.738-24.655-8.968-32.077-19.479
			c-1.593-2.256-3.046-4.715-5.306-6.306c-2.258-1.591-5.647-2.016-7.639-0.101c-1.326,1.276-1.707,3.213-2.122,5.006
			c-4.316,18.649-19.263,32.252-37.137,37.82C4048.423,594.452,4045.612,590.261,4044.021,585.344z"/>
	</g>
	<g>
		<path fill="#C0E4EF" d="M4287.531,1075.61h-349.77V861.6c0-10.237,8.299-18.535,18.536-18.535h312.698
			c10.236,0,18.535,8.298,18.535,18.535V1075.61z"/>
		<circle fill="#FFFFFF" cx="4112.646" cy="959.337" r="18.941"/>
		<path fill="#FFFFFF" d="M4292.314,1075.61H3932.05c-3.369,0-6.126,2.757-6.126,6.126v4.971c0,3.369,2.757,6.126,6.126,6.126
			h360.265c3.369,0,6.127-2.757,6.127-6.126v-4.971C4298.441,1078.367,4295.684,1075.61,4292.314,1075.61z"/>
	</g>
	<g>
		<path fill="#C07A6C" d="M3195.141,2806.161c-2.818,26.386-1.009,53.046-2.499,79.54c-1.488,26.494-6.65,53.696-21.728,75.533
			c-4.945,7.162-11.095,14.121-12.218,22.752c-0.934,7.176,1.809,14.264,4.499,20.98c7.535,18.811,15.775,37.843,29.785,52.483
			c36.38,38.016,121.094,61.435,165.083,53.339c8.186-24.378-4.534-50.836,7.186-73.726c9.358-18.277-10.415-46.228-7.28-66.521
			c2.01-13.009-28.961-41.653-32.402-54.358c-4.904-18.106-19.964-31.677-27.435-48.884c-7.554-17.398-7.154-38.053-17.762-53.776
			c-6.879-10.197-17.588-17.05-27.992-23.613c-7.644-4.821-15.237-9.737-22.937-14.47c-4.842-2.977-10.485-6.721-16.416-4.853
			C3200.041,2774.681,3196.357,2794.777,3195.141,2806.161z"/>
		<path fill="#FFC3AE" d="M3128.753,3210.648c15.449,1.563,30.898,3.125,46.348,4.688c28.496,2.882,57.343,5.758,85.676,1.565
			c0.258,9.26,0.834,18.536,1.091,27.796c-17.565,3.285-35.542-1.306-52.821-5.863c-11.438-3.018-22.878-6.035-34.316-9.053
			c-7.24-1.909-14.621-3.834-22.099-3.461c-7.478,0.375-15.207,3.423-19.417,9.615
			C3127.14,3228.836,3125.989,3219.572,3128.753,3210.648z"/>
		<path fill="#AC3E53" d="M3344.693,3060.784c-7.867,50.318-15.732,100.637-23.599,150.956c-24.402-1.467-48.803-2.934-73.205-4.401
			c3.789,18.937,7.578,37.872,11.367,56.809c43.601,1.102,87.201,2.203,130.802,3.305c-11.758-68.395-23.516-136.789-35.274-205.185
			c-1.799-10.463-3.208-21.295-6.211-31.491c-1.631,3.709-1.034,9.29-1.509,13.409
			C3346.423,3049.738,3345.557,3055.262,3344.693,3060.784z"/>
		<path fill="#FFC3AE" d="M3442.095,2958.819c-0.963-5.48-14.345-5.571-20.779-7.603c-3.298-1.04-6.528-2.324-9.739-3.605
			c-4.062-1.62-8.046-3.879-12.159-5.2c-14.483-4.655-27.135-14.803-34.791-27.951c-0.035-0.089-0.07-0.179-0.105-0.268
			c-1.665-4.137-4.899-9.042-5.629-13.282c-0.938-5.454,2.17-12.405,2.592-17.898c0.752-9.813-1.437-19.393-6.248-27.979
			c-14.061-25.089-51.918-62.128-51.918-62.128c-22.681-35.679-66.597-18.018-78.586,12.566
			c-15.566,39.696,6.308,44.891,3.698,60.141c-1.727,10.144-6.766,20.542-9.945,26.365c-1.667,3.055-1.765,6.723-0.268,9.863
			c0.435,0.913,1.293,1.549,2.293,1.698c2.111,0.314,5.882,0.874,8.635,1.267c3.061,0.438,3.369,6.141,3.34,8.868
			c-2.344,1.038-1.406,3.606,0.938,6.047c0.577,0.602,1.605,0.84,2.953,0.839c-0.301,0.393-3.735,5.052,0.234,8.021
			c1.523,1.14,2.811,1.679,3.977,1.765c3.104,2.102,6.742,5.301,5.351,8.078c-2.302,4.601-0.871,17.552,13.512,17.559
			c7.296,0.003,14.628-4.285,19.749-9.037c6.502-6.033,16.752-8.326,25.323-9.609c3.614-0.542,7.563-0.496,9.292,3.297
			c0.631,1.382,0.86,2.908,1.076,4.411c1.06,7.384,1.724,13.97,4.977,20.876c3.355,7.121,7.933,13.585,12.426,20.018
			c7.891,11.296,15.845,23.804,15.328,37.573c0.069-1.856,8.239-6.911,9.795-8.094c3.709-2.821,7.545-5.478,11.489-7.958
			c6.998-4.4,14.458-7.695,20.951-12.688c7.406-5.694,16.471-9.825,24.39-14.807c8.075-5.08,15.998-10.432,23.427-16.426
			C3438.61,2962.781,3442.365,2960.383,3442.095,2958.819z"/>
		<path fill="#B05947" d="M3411.608,3002.129c-1.513-4.199-3.179-8.344-4.992-12.422c-3.037-6.829-6.488-13.475-10.336-19.882
			c-1.309-2.179-2.294-5.003-3.827-6.989c-1.88-2.436-5.604-4.098-8.328-5.36c-7.949-3.683-16.857-4.616-25.264-7.081
			c-28.877-8.465-50.639-36.95-51.215-67.037c-0.47-24.566,11.637-49.576,4.151-72.979c-30.092,15.173-67.387,15.144-97.456-0.075
			c-10.761-5.447-12.28-22.399-7.56-33.498c4.721-11.099,14.452-19.229,24.455-25.968c0.274-0.186,0.549-0.369,0.825-0.553
			c49.683-33.1,115.572-29.313,160.741,9.722c4.785,4.135,9.343,8.532,13.64,13.175c5.725,6.183,11.07,12.902,14.279,20.693
			c5.236,12.713,7.166,32.684,4.071,46.152c-1.17,5.096-3.521,9.409-4.045,14.732c-0.748,7.597-0.257,15.517,0.571,23.085
			c3.225,29.49,19.114,54.998,39.334,76.774c9.089,9.788,22.387,19.504,31.814,28.968c9.427,9.465,14.441,22.45,18.502,35.177
			c8.865,27.786-8.884,51.355-31.306,65.962c-19.696,12.832-40.832,23.451-62.883,31.595c-10.392,3.838-22.625,6.959-32.016,1.084
			c25.666-20.306,40.662-52.893,34.826-85.484C3417.776,3021.787,3415.098,3011.813,3411.608,3002.129z"/>
		<path fill="#C07A6C" d="M3234.445,2810.305c12.028,6.09,25.21,9.744,38.634,10.967c-20.188,1.852-40.898-1.809-58.996-10.967
			c-10.758-5.449-12.281-22.398-7.559-33.5c4.718-11.098,14.452-19.228,24.454-25.967c0.276-0.184,0.548-0.368,0.824-0.553
			c25.487-16.982,55.244-24.255,84.279-22.039c-22.316,1.702-44.37,9.013-63.917,22.039c-0.276,0.185-0.552,0.369-0.824,0.553
			c-10.001,6.739-19.737,14.869-24.454,25.967C3222.164,2787.906,3223.682,2804.855,3234.445,2810.305z"/>
		<g>
			<path fill="#293087" d="M3971.907,2901.175l-32.362,28.411c0,0-11.102-8.77-21.09-20.188c-1.882-2.146-3.721-4.389-5.442-6.683
				c-0.768-1.028-1.514-2.069-2.229-3.114c-1.557-2.276-3.191-4.263-4.904-6.024c-1.853-1.908-3.795-3.556-5.847-5.043
				c-3.183-2.316-6.613-4.242-10.317-6.137c-2.043-1.05-4.172-2.091-6.389-3.184c-5.308-2.615-11.119-5.538-17.49-9.606
				c-16.714-10.673-2.605-25.852,8.674-36.967l0.005-0.005c0.004-0.004,0.009-0.008,0.013-0.013c2.06-2.034,4.025-3.929,5.69-5.634
				l0.004-0.004c0.013-0.014,0.021-0.026,0.039-0.039c3.388-3.479,6.778-7.576,9.94-12.053c1.461-2.064,2.888-4.211,4.229-6.414
				c0-0.004,0.004-0.004,0.004-0.008c2.398-3.93,4.738-8.028,6.474-12.179c0-0.004,0.063-0.013,0.063-0.017v-0.005
				c1.513-2.771,2.213-5.564,3.085-8.331c0.004-0.004-0.025-0.004-0.025-0.009c0.546-1.726,1.078-3.438,1.46-5.14
				c0.402-1.76,0.33-3.556,0.747-5.403c0.009-0.03-0.225-0.061-0.225-0.091v-0.004c0-2.945,0.712-5.998,0.963-9.182
				c0.005-0.026,0.128-0.057,0.128-0.082c0.391-4.91,0.91-10.118,2.268-15.699c0.004-0.014,0.034-0.022,0.038-0.035
				c0.572-2.347,1.285-4.754,2.218-7.234c0-0.004,0.012-0.008,0.012-0.013c2.56-6.844,6.683-14.221,13.526-22.235
				c21.576-25.258,34.515-20.036,30.563-7.893c-1.6,4.927-3.854,14.116-5.728,23.826c-0.204,1.063-0.407,2.13-0.603,3.201
				c-0.325,1.777-0.638,3.564-0.924,5.33c-0.686,4.259-1.244,8.409-1.578,12.125c-0.304,3.301-0.434,6.259-0.329,8.661
				c0.034,0.759,0.284,1.462,0.362,2.099c0.403,3.184,0.426,5.886,0.93,8.684c0,0.004,0,0.004,0,0.008v0.005c0,0.043,0,0.087,0,0.13
				v28.806c0,0.004,0,0.004,0,0.009v0.034c0,2.446,0,5.096,0.505,7.993v10.044c0,1.171,0.001,2.376,0.04,3.617
				c0,0.021-0.061,0.043-0.056,0.064c0.065,1.709,0.3,3.483,0.373,5.326c0.1,2.546,0.65,5.013,0.65,7.403c0,0,0,0,0,0.004v0.021
				c0,4.476,0.504,8.678,1.513,12.616c0,0,0,0,0,0.004v0.03c0,0,0,0,0,0.005c0.504,3.287,1.221,6.284,2.084,9.312
				c0.004,0.008-0.067,0.021-0.067,0.029v0.005c0-0.005,0.07-0.009,0.074-0.005c1.215,4.541,2.34,8.64,4.035,12.309
				c0.026,0.052-0.075,0.1-0.075,0.151v0.005c1.008,2.533,2.121,4.857,3.18,6.982c0.008,0.025,0.095,0.047,0.107,0.073l-0.006,0.005
				C3966.071,2895.615,3971.907,2901.175,3971.907,2901.175z"/>
			<g>
				<path fill="#FFFFFF" d="M3960.115,2883.754c-2.858,3.479-19.906,23.22-41.734,25.644c-1.882-2.146-3.684-4.389-5.405-6.683
					c5.915-1.258,29.626-7.338,44.016-26.1c0.026,0.052-0.056,0.1-0.056,0.151v0.005
					C3957.943,2879.305,3959.057,2881.629,3960.115,2883.754z"/>
				<path fill="#FFFFFF" d="M3952.886,2864.277c-14.511,23.943-43.611,28.805-47.007,29.299c-1.853-1.908-3.795-3.556-5.847-5.043
					c31.673-5.803,46.635-26.824,50.694-33.567C3951.159,2858.253,3952.022,2861.25,3952.886,2864.277z"/>
				<path fill="#FFFFFF" d="M3948.364,2815.83v10.044c-6.051,5.222-23.11,18.766-44.885,17.63
					c-17.439-0.911-25.453-6.818-28.905-10.869c0.004-0.004-0.021-0.008-0.017-0.013c2.06-2.034,4.01-3.929,5.675-5.634
					c0.014-0.013,0.019-0.03,0.035-0.043c4.281,3.903,12.56,9.541,23.354,9.541
					C3917.894,2836.486,3941.306,2820.231,3948.364,2815.83z"/>
				<path fill="#FFFFFF" d="M3947.751,2807.803c-0.022,0.013-0.039,0.021-0.061,0.034c-9.528,5.3-42.55,21.958-57.489,7.056
					c1.461-2.064,2.888-4.211,4.229-6.414c3.199,3.175,9.779,7.451,20.266,4.155c13.54-4.251,29.031-13.236,32.947-15.574
					c0.009,1.931,0.021,4.033,0.048,6.345C3947.707,2804.793,3947.725,2806.254,3947.751,2807.803z"/>
				<path fill="#FFFFFF" d="M3947.859,2789.162v0.005c-29.746,17.282-42.455,10.842-46.84,7.125c0-0.004-0.049-0.013-0.049-0.017
					v-0.005c1.513-2.771,2.213-5.564,3.085-8.331c12.706,11.453,36.47-3.951,43.447-8.926c0.004-0.004,0.111-0.008,0.115-0.013
					C3947.744,2782.033,3947.859,2785.177,3947.859,2789.162z"/>
				<path fill="#FFFFFF" d="M3946.567,2768.063c-24.66,14.867-36.087,11.979-40.338,9.324c0.009-0.03-0.217-0.061-0.217-0.091
					v-0.004c0-2.945,0.712-5.998,0.963-9.182c7.628,8.426,31.874-4.202,39.802-8.709
					C3946.474,2762.703,3946.463,2765.661,3946.567,2768.063z"/>
				<path fill="#FFFFFF" d="M3949.997,2738.746c-0.204,1.063-0.407,2.13-0.599,3.201c-0.325,1.777-0.638,3.564-0.924,5.33
					c-24.464,14.754-35.267,8.777-39.044,5.053c0.004-0.014,0.004-0.022,0.009-0.035c0.572-2.347,1.27-4.754,2.203-7.234
					C3917.787,2750.95,3944.073,2741.08,3949.997,2738.746z"/>
				<path fill="#FFFFFF" d="M3949.372,2842.285c0,0,0,0,0,0.004v0.021c-4.033,4.563-27.993,32.7-59.467,40.086
					c-2.042-1.05-4.267-2.091-6.483-3.184c8.865-4.232,49.012-24.416,64.914-49.657c0.065,1.709,0.306,3.483,0.38,5.326
					C3948.815,2837.428,3949.372,2839.895,3949.372,2842.285z"/>
			</g>
		</g>
		<g>
			<path fill="#293087" d="M4079.123,2853.178l-43.034,1.583c0,0-3.068-13.812-3.599-28.973c-0.103-2.853-0.111-5.753,0.002-8.618
				c0.055-1.282,0.134-2.561,0.239-3.822c0.231-2.749,0.219-5.321,0.003-7.769c-0.23-2.649-0.696-5.154-1.347-7.603
				c-1.005-3.807-2.448-7.466-4.122-11.275c-0.92-2.104-1.914-4.256-2.941-6.503c-2.464-5.38-5.122-11.316-7.492-18.495
				c-6.216-18.832,14.31-21.688,30.075-23.18h0.007c0.006-0.001,0.012-0.002,0.018-0.002c2.882-0.275,5.603-0.504,7.97-0.773
				l0.007-0.001c0.018-0.002,0.033-0.007,0.055-0.005c4.822-0.558,10.04-1.593,15.318-3.064c2.438-0.678,4.899-1.441,7.33-2.303
				c0.003-0.003,0.006,0,0.009-0.004c4.341-1.531,8.698-3.267,12.665-5.389c0.003-0.004,0.008-0.01,0.014-0.011l0.004-0.004
				c2.758-1.326,5.275-2.878,7.699-4.472c0.006-0.001,0.006-0.001,0.009-0.005c1.515-0.993,3.02-1.976,4.39-3.052
				c1.425-1.111,2.693-2.393,4.184-3.563c0.025-0.018,0.048-0.039,0.074-0.057l0.002-0.004c1.86-2.283,4.155-4.352,6.361-6.66
				c0.02-0.018,0.042-0.038,0.059-0.059c3.403-3.559,7.05-7.307,11.628-10.775c0.012-0.008,0.017-0.015,0.028-0.022
				c1.926-1.457,3.988-2.882,6.277-4.216c0.003-0.004,0.01-0.004,0.012-0.008c6.307-3.689,14.16-6.806,24.528-8.695
				c32.681-5.953,39.411,6.267,28.679,13.186c-4.353,2.809-11.906,8.508-19.492,14.853c-0.828,0.694-1.66,1.394-2.488,2.101
				c-1.375,1.173-2.746,2.36-4.084,3.549c-3.221,2.868-6.275,5.732-8.883,8.402c-2.32,2.367-4.289,4.578-5.727,6.507
				c-0.451,0.61-0.768,1.259-1.109,1.802c-1.699,2.723-3.398,4.823-4.829,7.266c-0.003,0.004-0.003,0.004-0.006,0.007l-0.003,0.003
				c-0.027,0.034-0.061,0.063-0.082,0.102l-18.195,22.331c-0.002,0.003-0.002,0.003-0.006,0.007l-0.021,0.026
				c-1.545,1.896-3.219,3.95-4.713,6.471l-6.344,7.786c-0.74,0.908-1.407,1.92-2.16,2.906c-0.014,0.017-0.027,0.033-0.038,0.053
				c-1.028,1.365-2.093,2.787-3.199,4.263c-1.531,2.037-2.787,4.196-4.296,6.049c0,0,0,0-0.003,0.003l-0.014,0.018
				c-2.491,3.743-4.81,7.275-6.624,10.876c0,0,0,0-0.004,0.003l-0.019,0.023c0,0,0,0-0.003,0.004
				c-1.74,2.822-2.964,5.69-4.207,8.582c-0.002,0.01-0.01,0.021-0.013,0.029l-0.002,0.004c0.022,0.013,0.063,0.039,0.063,0.046
				c-1.928,4.287-3.527,8.27-4.531,12.185c-0.012,0.058-0.025,0.107-0.038,0.165l-0.003,0.003c-0.934,2.506-1.538,5.012-2.061,7.328
				c-0.01,0.025-0.013,0.051-0.02,0.079l-0.036-0.024C4078.14,2845.204,4079.123,2853.178,4079.123,2853.178z"/>
			<g>
				<path fill="#FFFFFF" d="M4081.1,2832.316c-4.412,0.891-30.156,5.38-48.609-6.528c-0.103-2.853-0.111-5.753,0.002-8.618
					c5.381,2.762,27.703,13.105,50.709,7.65c-0.012,0.058-0.025,0.107-0.038,0.165l-0.003,0.003
					C4082.227,2827.494,4081.622,2830,4081.1,2832.316z"/>
				<path fill="#FFFFFF" d="M4087.684,2812.557c-26.374,9.396-52.005-5.216-54.949-6.978c-0.23-2.649-0.696-5.154-1.347-7.603
					c28.22,15.507,53.097,8.662,60.503,5.998C4090.15,2806.797,4088.927,2809.665,4087.684,2812.557z"/>
				<path fill="#FFFFFF" d="M4114.594,2771.991l-6.344,7.786c-7.67,0.487-29.677,0.027-45.84-14.609
					c-12.943-11.721-15.379-21.324-15.496-26.645c0.006-0.001,0.012-0.002,0.018-0.002c2.882-0.275,5.603-0.504,7.97-0.773
					c0.019-0.002,0.04-0.008,0.062-0.006c0.853,5.729,3.619,15.256,11.987,22.074
					C4078.015,2768.832,4106.771,2771.295,4114.594,2771.991z"/>
				<path fill="#FFFFFF" d="M4119.376,2765.532c-0.025-0.004-0.044-0.008-0.069-0.012c-10.734-1.91-46.855-9.854-49.025-30.843
					c2.438-0.678,4.899-1.441,7.33-2.303c0.476,4.483,2.875,11.954,13.087,16.022c13.181,5.258,30.866,8.077,35.38,8.738
					c-1.213,1.501-2.531,3.141-3.972,4.949C4121.243,2763.172,4120.334,2764.315,4119.376,2765.532z"/>
				<path fill="#FFFFFF" d="M4131.103,2751.043l-0.003,0.004c-33.778-5.23-39.741-18.396-40.793-24.047
					c0.003-0.004-0.014-0.027-0.008-0.028l0.004-0.004c2.758-1.326,5.275-2.878,7.699-4.472
					c2.615,16.905,30.791,19.992,39.344,20.543c0.006-0.001,0.037,0.02,0.043,0.019
					C4135.571,2745.487,4133.62,2747.953,4131.103,2751.043z"/>
				<path fill="#FFFFFF" d="M4143.559,2733.978c-28.508-4.052-35.357-13.358-36.975-18.101c0.025-0.018,0.048-0.039,0.074-0.057
					l0.002-0.004c1.86-2.283,4.155-4.352,6.361-6.66c0.591,11.352,27.271,16.801,36.264,18.314
					C4146.965,2729.838,4144.996,2732.049,4143.559,2733.978z"/>
				<path fill="#FFFFFF" d="M4164.737,2713.416c-0.829,0.695-1.661,1.394-2.485,2.104c-1.375,1.173-2.746,2.36-4.084,3.549
					c-28.285-4.016-32.885-15.473-33.46-20.746c0.012-0.008,0.017-0.015,0.028-0.022c1.926-1.457,3.988-2.882,6.277-4.216
					C4132.059,2702.531,4158.671,2711.482,4164.737,2713.416z"/>
				<path fill="#FFFFFF" d="M4098.557,2793.048c0,0,0,0-0.003,0.003l-0.014,0.018c-5.776,1.178-42.21,7.788-71.274-6.367
					c-0.92-2.104-1.914-4.256-2.941-6.503c9.546,2.318,53.455,12.06,81.728,2.538c-1.028,1.365-2.093,2.787-3.199,4.263
					C4101.321,2789.036,4100.065,2791.195,4098.557,2793.048z"/>
			</g>
		</g>
		<path fill="#FFC3AE" d="M3180.789,3251.71c-12.57-1.44-25.796-3.163-37.479,1.693c-5.244,2.181-10.298,6.18-11.334,11.765
			c-0.668,3.602,0.431,7.271,1.52,10.77c1.373,4.412,3.184,9.333,7.425,11.167c3.358,1.452,7.34,0.441,10.442-1.499
			s5.576-4.712,8.293-7.161c7.377-6.644,16.801-10.983,26.646-12.271c12.252-1.601,24.584,1.425,36.57,4.428
			c29.643,7.426,59.284,14.851,88.926,22.276c-2.543-10.742-4.98-21.517-7.631-32.232c-0.808-3.264-1.802-5.66-5.458-5.993
			c-4.921-0.449-10.253,0.497-15.191,0.71c-21.88,0.942-43.808,0.784-65.672-0.469
			C3205.466,3254.184,3193.107,3253.122,3180.789,3251.71z"/>
		<path fill="#4174A7" d="M3998.925,2841.236l110.271-14.38c0,0,43.949,318.079,61.924,350.438l-122.244-138.429
			c0,0-26.802-100.828-32.47-116.09C4009.711,2904.76,3998.925,2841.236,3998.925,2841.236z"/>
		<path fill="#569BDE" d="M4209.944,3286.856c-0.313,0.88-0.785,1.722-1.401,2.52c-11.119,14.511-69.115,16.718-87.292,17.858
			c-19.177,1.197-214.54,10.786-234.914,10.786c-19.517,0-129.49,3.317-159.935,6.666c-0.434,0.048-1.163,0.16-1.982,0.295
			c-1.718,0.282-3.843,0.663-4.523,0.768c-9.731,1.462-22.599,0.967-34.049-0.819c-0.507-0.078-1.01-0.161-1.514-0.243
			c-16.042-2.685-34.152-9.052-34.152-9.052c31.164-38.346,27.647-132.187,27.647-132.187c7.03-1.063,12.438-2.281,16.957-3.761
			c12.655-4.137,18.371-10.321,33.45-20.955c6.979-4.918,15.969-10.795,28.58-17.859c59.927-33.559,149.374,0.698,157.762,3.101
			c8.392,2.398,123.899,28.063,123.899,28.063c1.202,0-23.396-36.377-27.569-43.151c-19.173-31.16-31.43-48.534-45.545-70.712
			c-25.167-39.553-49.137-77.903-75.506-119.854c2.018,3.209,30.133-15.336,45.542-25.172
			c27.683-17.664,58.804-38.594,58.804-38.594c43.151,94.688,203.754,322.411,220.533,349.977
			C4231.52,3252.096,4215.938,3270.072,4209.944,3286.856z"/>
		<path fill="#FFFFFF" d="M3724.42,3324.981c-1.718,0.282-3.843,0.663-4.523,0.768c-9.731,1.462-22.599,0.967-34.049-0.819
			c18.74-47.788,11.84-125.678,8.938-145.242c12.655-4.137,18.371-10.321,33.45-20.955
			C3749.37,3233.035,3734.238,3296.805,3724.42,3324.981z"/>
		<path fill="#3BB6D5" d="M3693.971,3240.744c0,0,44.123-7.623,48.888-1.637l-0.431,8.93l-47.906,3.362L3693.971,3240.744z"/>
		<path fill="#AC3E53" d="M3346.245,3015.605c10.492-13.672,24.958-24.257,41.164-30.119c10.75-3.889,22.491-5.717,33.69-3.422
			c15.077,3.089,27.62,13.171,39.517,22.936c35.451,29.099,67.523,66.482,102.974,95.581
			c33.218,27.266,76.112,67.916,116.535,82.504c-3.592,54.898-6.539,86.679,0,141.304c-73.892,7.425-150.754-9.723-213.422-49.57
			c-5.223-14.717-11.092-30.651-16.315-45.367c-14.85-41.842-29.759-83.824-49.955-123.363
			C3384.434,3074.766,3368.363,3042.951,3346.245,3015.605z"/>
		<path fill="#E5526F" d="M3346.245,3015.605c8.247,78.98,18.204,155.347,26.45,234.327c-26.462-0.48-52.924-0.96-79.387-1.44
			c3.059,22.077,6.117,44.154,9.175,66.23c41.922-1.301,83.844-2.602,125.766-3.903c10.802-0.335,22.763-1.155,30.301-8.899
			c7.953-8.171,8.021-20.947,7.586-32.342c-1.081-28.338-2.161-56.676-3.242-85.015c51.908,69.612,131.899,123.743,217.231,139.825
			c-0.265-55.111,7.803-86.746,0-141.304c-64.341-24.876-109.919-93.012-162.356-131.174c-22.594-16.442-60.91-54.137-86.009-66.419
			C3406.661,2973.209,3367.104,2986.184,3346.245,3015.605z"/>
		<path fill="#79D3D3" d="M3330.833,2886.777c9.013,6.676,23.405,4.206,29.676-5.094c3.753-5.568,4.599-12.568,4.831-19.279
			c0.371-10.733-0.554-21.512-2.749-32.025c-1.332-6.383-4.502-13.898-10.992-14.521c-4.081-0.391-7.801,2.27-10.748,5.121
			C3327.678,2833.729,3311.471,2872.435,3330.833,2886.777z"/>
		<path fill="#79D3D3" d="M3330.23,2727.858c4.014-0.046,7.917,1.559,10.776,4.377c2.859,2.817,4.725,6.478,6.334,10.155
			c5.425,12.405,7.064,27.334,8.225,41.545c1.077,13.191,1.731,24.142,1.055,37.803c-3.64,0.739-11.293,0.344-14.933,1.084
			c-4.48-29.709-2.061-33.576-12.052-67.222c-2.404-8.095-7.634-16.138-9.807-19.87s-6.126-7.313-10.414-7.826
			C3316.354,2727.567,3322.977,2727.941,3330.23,2727.858z"/>
		<g>
			<polygon fill="#C9AEA7" points="2855.635,3315.497 3175.559,3315.497 3123.284,3094.935 2803.36,3094.935 			"/>
			<rect x="3170.581" y="3302.86" fill="#B69A97" width="139.383" height="12.637"/>
			<rect x="2853.92" y="3302.86" fill="#DFCECA" width="316.661" height="13.785"/>
			<polygon fill="#B69A97" points="2803.552,3094.954 3170.581,3302.88 2852.73,3302.88 			"/>
			
				<ellipse transform="matrix(-0.9831 0.1829 -0.1829 -0.9831 6516.2969 5819.3618)" fill="#F3F3F3" cx="2989.766" cy="3210.205" rx="19.572" ry="21.784"/>
		</g>
	</g>
	<path fill="#79D3D3" d="M4801.596,2457.153c12.83,42.955,22.512,110.47,28.711,154.869c1.477,10.575,0.685,50.165-6.604,57.968
		c-4.374,4.684-117.39,17.311-164.546,32.79c-6.325,2.076-37.085,14.135-43.205,11.517c-8.676-3.713-13.385-42.251-11.262-51.445
		c27.065-117.232,27.065-30.979-12.643-261.523c-7.943-46.113-23.016-88.973-7.199-133.012
		c5.277-14.697,45.032-57.398,45.032-57.398s13.552,14.33,27.302,22.367c11.486,6.713,26.17,18.797,35.826,21.072
		C4736.76,2264.67,4786.131,2405.383,4801.596,2457.153z"/>
	<path fill="#F9B58E" d="M4746.985,2770.056c3.847,8.161,5.61,17.169,6.341,26.161c1.247,15.373-0.456,30.979-4.99,45.721
		c-6.513-1.531-11.785-7.36-12.658-13.992c3.012,4.549,0.283,11.708-4.992,13.099s-11.178-3.492-10.802-8.935
		c-1.384,4.769-6.641,8.061-11.534,7.227c-4.895-0.835-8.762-5.684-8.487-10.642c1.94,1.519,1.604,4.892-0.337,6.408
		c-1.941,1.516-4.852,1.313-6.936-0.001c-2.084-1.313-3.449-3.527-4.347-5.821c-1.579-4.037-1.913-8.436-2.23-12.759
		c-1.382-18.838-2.764-37.676-4.146-56.515c-0.189-2.593-0.348-5.35,0.891-7.636c2.43-4.486,8.617-4.846,13.714-4.626
		c6.711,0.29,13.422,0.579,20.133,0.869c4.243,0.184,9.144-0.134,13.163,1.529
		C4737.467,2753.33,4743.467,2763.018,4746.985,2770.056z"/>
	<path fill="#71C7C6" d="M4673.939,2331.037c-2.395,39.569-4.791,79.14-7.187,118.709c-1.327,21.928-2.648,44.037,0.487,65.779
		c2.608,18.08,8.25,35.563,13.869,52.943c20.235,62.602,40.471,125.204,60.707,187.807c-21.73-1.469-43.46-2.937-65.189-4.405
		c-17.348-67.079-50.531-186.509-53.432-197.397c-24.031-75.042-32.564-155.009-24.909-233.432L4673.939,2331.037z"/>
</g>
</svg>
