<?xml version="1.0" encoding="utf-8"?>
<!-- Generator: Adobe Illustrator 16.0.0, SVG Export Plug-In . SVG Version: 6.00 Build 0)  -->
<!DOCTYPE svg PUBLIC "-//W3C//DTD SVG 1.1//EN" "http://www.w3.org/Graphics/SVG/1.1/DTD/svg11.dtd">
<svg version="1.1" id="Layer_1" xmlns="http://www.w3.org/2000/svg" xmlns:xlink="http://www.w3.org/1999/xlink" x="0px" y="0px"
	 width="1024px" height="768px" viewBox="0 0 1024 768" enable-background="new 0 0 1024 768" xml:space="preserve">
<rect x="0" fill="#FFFFFF" width="1024" height="768"/>
<g>
	
		<linearGradient id="SVGID_1_" gradientUnits="userSpaceOnUse" x1="541.6221" y1="384.8701" x2="754.3104" y2="172.1818" gradientTransform="matrix(0.5763 0.8904 -1.0325 0.2426 558.1736 -374.765)">
		<stop  offset="0" style="stop-color:#93DAD3"/>
		<stop  offset="0.8547" style="stop-color:#F2F2F2"/>
	</linearGradient>
	<path opacity="0.65" fill="url(#SVGID_1_)" d="M728.583,422.912c-83.678,23.047-189.373-26.841-236.076-111.427
		s-16.729-171.84,66.949-194.887c83.678-23.046,189.373,26.842,236.076,111.428C842.235,312.612,812.262,399.866,728.583,422.912z"
		/>
	<linearGradient id="SVGID_2_" gradientUnits="userSpaceOnUse" x1="293.0317" y1="449.0654" x2="861.2607" y2="449.0654">
		<stop  offset="0.1453" style="stop-color:#F2F2F2"/>
		<stop  offset="1" style="stop-color:#5ACABF"/>
	</linearGradient>
	<path opacity="0.5" fill="url(#SVGID_2_)" d="M731.469,651.392c0,0-40.364,24.227-76.111,32.429
		c-35.748,8.201-66.862,4.088-91.104-16.209c-24.242-20.297-54.65-96.413-79.214-111.262
		c-24.563-14.85-76.914-28.048-107.368-39.346s-92.652-50.078-83.784-160.054c8.868-109.976,68.971-147.856,123.784-128.262
		c54.813,19.594,84.265,39.813,180.864,5.1c96.599-34.713,199.057-42.423,243.827,58.96
		C887.135,394.132,853.202,567.814,731.469,651.392z"/>
	
		<linearGradient id="SVGID_3_" gradientUnits="userSpaceOnUse" x1="88.5537" y1="417.3359" x2="659.6787" y2="417.3359" gradientTransform="matrix(-0.7544 0.1024 -0.172 -0.5241 847.403 728.5958)">
		<stop  offset="0.1453" style="stop-color:#F2F2F2"/>
		<stop  offset="1" style="stop-color:#5ACABF"/>
	</linearGradient>
	<path opacity="0.5" fill="url(#SVGID_3_)" d="M346.855,458.646c0,0,26.748-17.351,52.463-25.771
		c25.715-8.419,49.818-9.851,71.208-2.008c21.392,7.843,55.968,44.229,76.769,49.18c20.802,4.95,62.314,5.832,87.016,8.242
		c24.702,2.41,77.555,15.564,87.676,74.225s-29.432,85.441-73.779,81.491c-44.348-3.949-69.658-11.151-137.229,18.179
		c-67.571,29.329-143.689,45.182-192.963-2.791C268.742,611.419,267.792,516.481,346.855,458.646z"/>
	<path opacity="0.35" fill="#F2F2F2" d="M354.483,217.242c0,0,36.598-33.966,71.265-51.628
		c34.667-17.662,66.753-22.491,94.658-10.238s71.519,75.088,98.821,82.146c27.304,7.059,82.356,4.815,114.997,6.902
		c32.642,2.087,101.977,21.067,111.728,126.591c9.751,105.524-44.439,157.793-103.063,154.73
		c-58.623-3.062-91.771-13.787-183.315,45.699s-193.588,95.307-255.987,12.803C241.187,501.743,245.891,329.529,354.483,217.242z"/>
	
		<linearGradient id="SVGID_4_" gradientUnits="userSpaceOnUse" x1="182.4824" y1="560.5986" x2="492.5021" y2="250.579" gradientTransform="matrix(0.9292 -0.0708 -0.0708 0.9292 55.9979 55.9965)">
		<stop  offset="0.1453" style="stop-color:#F2F2F2"/>
		<stop  offset="1" style="stop-color:#93DAD3"/>
	</linearGradient>
	<path fill="url(#SVGID_4_)" d="M515.229,391.434c-7.338,127.133-91.345,238.047-187.635,247.734s-168.401-85.52-161.063-212.652
		c7.337-127.132,91.344-238.047,187.635-247.735C450.456,169.093,522.566,264.301,515.229,391.434z"/>
	
		<linearGradient id="SVGID_5_" gradientUnits="userSpaceOnUse" x1="221.7642" y1="369.918" x2="861.915" y2="369.918" gradientTransform="matrix(1.0355 -0.0411 0.0397 0.9992 -46.6115 22.3972)">
		<stop  offset="0.1369" style="stop-color:#BDE4E0"/>
		<stop  offset="0.3575" style="stop-color:#5ACABF"/>
		<stop  offset="0.8547" style="stop-color:#F2F2F2"/>
	</linearGradient>
	<path opacity="0.5" fill="url(#SVGID_5_)" d="M422.962,119.886c0,0,41.383-30.96,94.085-24.356
		c52.701,6.604,68.149,37.266,81.095,50.125c12.946,12.858,23.523,47.097,124.87,51.529c101.346,4.432,120.274,62.931,123.806,74.53
		c3.532,11.599,13.624,49.779-11.663,76.661c-25.286,26.883-41.889,34.343-6.76,56.289c35.128,21.944,40.598,53.053,33.902,75.746
		s-28.876,66.792-77.698,63.935c-48.822-2.858-45.979-10.823-65.168,11.868c-19.188,22.691-28.942,47.2-68.035,54.545
		s-69.331-17.618-97.802-10.188c-28.471,7.431-48.847,31.854-62.312,39.733c-13.464,7.88-77.988,20.279-109.106-11.923
		c-31.118-32.201-35.812-23.594-45.494-14.764s-45.867,27.802-85.309-10.187c-39.442-37.988-42.207-80.974,1.841-124.931
		c44.048-43.956,33.518-59.162,10.456-75.488c-23.063-16.325-65.911-44.644-69.11-99.927s28.238-102.595,91.181-124.441
		C348.684,156.795,333.316,181.556,422.962,119.886z"/>
</g>
<g>
	<g>
		<polygon fill="#489C9E" points="174.986,622.954 228.819,622.954 224.522,569.477 178.006,569.477 		"/>
		<polygon fill="#54B89E" points="165.591,622.954 219.424,622.954 216.404,569.477 169.889,569.477 		"/>
	</g>
	<path fill="#0A87B1" d="M192.679,603.482c5.923,0,10.741-4.818,10.741-10.741v-18.688c0-0.308-0.249-0.557-0.556-0.557
		s-0.556,0.249-0.556,0.557v18.688c0,5.31-4.319,9.629-9.629,9.629c-5.309,0-9.628-4.319-9.628-9.629v-18.688
		c0-0.308-0.25-0.557-0.557-0.557c-0.307,0-0.556,0.249-0.556,0.557v18.688C181.938,598.664,186.756,603.482,192.679,603.482z"/>
	<circle fill="#0A87B1" cx="202.904" cy="574.496" r="1.999"/>
	<circle fill="#0A87B1" cx="182.448" cy="574.496" r="1.999"/>
</g>
<rect x="188.461" y="624.144" fill="#FFFFFF" width="644.893" height="119.702"/>
<g opacity="0.42">
	<g opacity="0.5">
		<linearGradient id="SVGID_6_" gradientUnits="userSpaceOnUse" x1="862.333" y1="523.8398" x2="910.2197" y2="523.8398">
			<stop  offset="0" style="stop-color:#005679"/>
			<stop  offset="0.3712" style="stop-color:#007C9C"/>
			<stop  offset="0.7807" style="stop-color:#009FBE"/>
			<stop  offset="1" style="stop-color:#00ADCB"/>
		</linearGradient>
		<path fill="url(#SVGID_6_)" d="M862.627,516.896c-1.345,9.924,1.983,20.381,8.817,27.702c1.384,1.482,2.946,2.912,3.637,4.818
			c0.467,1.289,0.494,2.7,0.921,4.002c1.25,3.809,5.782,5.784,9.755,5.256c3.974-0.527,7.419-2.988,10.367-5.703
			c5.01-4.611,9.291-10.644,9.561-17.447c0.117-2.961-0.533-5.911-0.437-8.872c0.271-8.324,6.37-16.138,4.675-24.291
			c-0.9-4.328-3.998-8.008-7.819-10.232c-3.82-2.225-8.305-3.107-12.726-3.204C875.394,488.62,864.339,504.271,862.627,516.896z"/>
		<g>
			<g>
				<polygon fill="#56B89F" points="875.205,617.768 874.075,617.59 891.23,506.277 892.361,506.455 				"/>
				
					<rect x="866.074" y="521.808" transform="matrix(0.4059 0.9139 -0.9139 0.4059 1000.897 -494.8632)" fill="#B9CAD2" width="29.969" height="1.145"/>
				
					<rect x="892.297" y="517.653" transform="matrix(0.7322 0.681 -0.681 0.7322 596.337 -467.6187)" fill="#B9CAD2" width="1.144" height="13.876"/>
				
					<rect x="875.274" y="517.227" transform="matrix(0.6038 0.7971 -0.7971 0.6038 762.918 -499.353)" fill="#B9CAD2" width="17.042" height="1.143"/>
				
					<rect x="884.692" y="507.737" transform="matrix(0.9254 0.379 -0.379 0.9254 260.3782 -297.2885)" fill="#B9CAD2" width="1.144" height="9.893"/>
				
					<rect x="885.508" y="559.044" transform="matrix(0.777 0.6295 -0.6295 0.777 554.0272 -431.4941)" fill="#B9CAD2" width="1.145" height="14.47"/>
			</g>
		</g>
		<path fill="#56B89F" d="M897.882,519.902l-0.838-0.78l-8.178,8.79l3.362-21.457l-1.13-0.178l-2.648,16.896l-4.544-5.998
			l3.63-8.852l-1.058-0.434l-3.374,8.227l-4.132-5.455l-0.911,0.69l10.143,13.391l-1.462,9.327l-11.375-25.616l-1.046,0.465
			l12.095,27.235l-3.523,22.479c0.379,0.059,0.76,0.095,1.141,0.111l4.516-28.812L897.882,519.902z"/>
	</g>
	<path fill="#8DD0BF" d="M883.544,591.621c0.114,1.705-0.106,3.412-0.282,5.111c-0.036,0.352-0.066,0.725,0.091,1.04
		c0.16,0.324,0.489,0.527,0.815,0.685c2.626,1.269,6.11,0.359,7.782-2.031c0.712-1.017,1.101-2.219,1.479-3.4
		c1.935-6.029,5.644-14.539-3.817-15.712C880.803,576.221,883.195,586.423,883.544,591.621z"/>
	<path fill="#56B89F" d="M915.818,601.121c1.815-0.515,2.998-2.248,3.797-3.958c2.452-5.247,6.043-23.229-5.246-16.685
		C908.273,584.013,906.219,603.845,915.818,601.121z"/>
	<path fill="#8DD0BF" d="M903.335,568.785c3.47-0.908,7.315-0.26,10.297,1.733c1.243,0.832,2.365,1.923,2.945,3.302
		c3.517,8.348-7.676,26.448-17.889,22.68C887.601,592.409,893.639,571.32,903.335,568.785z"/>
	<g opacity="0.5">
		<g>
			
				<rect x="886.114" y="597.116" transform="matrix(0.997 0.0774 -0.0774 0.997 49.6276 -66.813)" fill="#56B89F" width="0.719" height="19.007"/>
			
				<rect x="887.682" y="601.158" transform="matrix(0.5783 0.8158 -0.8158 0.5783 866.3004 -470.2806)" fill="#B9CAD2" width="0.719" height="3.308"/>
		</g>
	</g>
	<g opacity="0.5">
		<g>
			
				<rect x="898.243" y="594.334" transform="matrix(0.992 0.1263 -0.1263 0.992 83.8794 -108.6183)" fill="#56B89F" width="0.858" height="25.92"/>
			
				<rect x="894.113" y="603.473" transform="matrix(0.5476 0.8368 -0.8368 0.5476 911.1901 -477.4596)" fill="#F1D1B6" width="6.035" height="0.858"/>
		</g>
	</g>
	<rect x="913.222" y="599.094" fill="#56B89F" width="0.858" height="20.283"/>
	<path fill="#56B89F" d="M935.652,622.539c-0.877-0.48-1.916-0.816-2.942-0.899c-2.888-0.235-5.846,0.537-8.678,0.031
		c-3.663-0.654-6.196-3.238-9.311-4.911c-10.823-5.815-25.236,0.234-38.276-0.128c-14.285-0.396-26.773-8.675-41.051-9.232
		c-14.396-0.563-28.462,6.837-42.547,4.395c-5.657-0.98-10.741-3.492-16.366-4.586c-8.652-1.683-17.909,0.167-25.717,3.587
		c-4.706,2.061-15.661,6.563-16.957,11.744H935.652z"/>
</g>
<g opacity="0.55">
	
		<linearGradient id="SVGID_7_" gradientUnits="userSpaceOnUse" x1="1624.3672" y1="270.2378" x2="1765.0898" y2="270.2378" gradientTransform="matrix(-1 0 0 1 1928.6758 0)">
		<stop  offset="0" style="stop-color:#005679"/>
		<stop  offset="0.3712" style="stop-color:#007C9C"/>
		<stop  offset="0.7807" style="stop-color:#009FBE"/>
		<stop  offset="1" style="stop-color:#00ADCB"/>
	</linearGradient>
	<path fill="url(#SVGID_7_)" d="M304.308,307.032c0,0-6.885-1.291-9.468-6.025c-2.582-4.734-4.303-27.542-12.049-28.403
		s-8.176,10.759-8.176,10.759s-0.861-50.35-25.39-50.35c-24.53,0-24.96,44.755-24.96,44.755s1.722-13.771-8.607-14.631
		c-10.328-0.861-9.467,22.378-9.467,22.378s-0.861-11.189-9.037-11.189c-8.177,0-8.761,13.328-9.037,17.644
		c-0.717,11.189-24.53,15.492-24.53,15.492L304.308,307.032z"/>
	<path fill="#FBB549" d="M256.54,289.228c0,0-2.99-0.561-4.111-2.616c-1.121-2.056-1.869-11.96-5.232-12.334
		c-3.364-0.374-3.55,4.672-3.55,4.672s-0.374-21.865-11.026-21.865c-10.652,0-10.839,19.435-10.839,19.435s0.748-5.98-3.738-6.354
		c-4.485-0.374-4.111,9.717-4.111,9.717s-0.374-4.859-3.924-4.859s-3.804,5.788-3.924,7.662c-0.312,4.858-10.652,6.728-10.652,6.728
		L256.54,289.228z"/>
	<path fill="#EE3F3A" d="M306.718,297.691c0,0-4.855-0.91-6.676-4.249c-1.821-3.338-3.035-19.422-8.498-20.029
		c-5.462-0.607-5.766,7.587-5.766,7.587s-0.606-35.507-17.905-35.507c-17.298,0-17.602,31.562-17.602,31.562
		s1.214-9.711-6.07-10.318c-7.283-0.607-6.676,15.781-6.676,15.781s-0.607-7.891-6.374-7.891c-5.766,0-6.493,9.395-6.373,12.443
		c0.346,8.773-17.298,10.925-17.298,10.925L306.718,297.691z"/>
</g>
<g opacity="0.75">
	<path fill="#00B5A3" d="M705.068,161.937c0,0,3.423-0.642,4.706-2.995c1.284-2.353,2.14-13.69,5.99-14.118
		c3.851-0.428,4.064,5.348,4.064,5.348s0.428-25.028,12.621-25.028c12.192,0,12.407,22.247,12.407,22.247s-0.856-6.845,4.277-7.273
		c5.135-0.428,4.707,11.124,4.707,11.124s0.428-5.562,4.492-5.562s4.277,6.631,4.492,8.771c0.214,2.139,12.192,7.701,12.192,7.701
		L705.068,161.937z"/>
	<path fill="#FBB549" d="M715.788,163.878c0,0,3.028-0.454,4.165-2.116c1.135-1.662,1.893-9.672,5.3-9.974
		c3.408-0.302,3.598,3.778,3.598,3.778s0.378-17.682,11.169-17.682c10.79,0,10.979,15.717,10.979,15.717s-0.757-4.836,3.786-5.138
		c4.544-0.303,4.165,7.858,4.165,7.858s0.379-3.929,3.976-3.929s3.786,4.685,3.976,6.196c0.188,1.511,10.79,5.44,10.79,5.44
		L715.788,163.878z"/>
	<linearGradient id="SVGID_8_" gradientUnits="userSpaceOnUse" x1="720.5898" y1="152.7871" x2="790.54" y2="152.7871">
		<stop  offset="0" style="stop-color:#005679"/>
		<stop  offset="0.2469" style="stop-color:#007495"/>
		<stop  offset="0.5559" style="stop-color:#0093B3"/>
		<stop  offset="0.818" style="stop-color:#00A6C5"/>
		<stop  offset="1" style="stop-color:#00ADCB"/>
	</linearGradient>
	<path fill="url(#SVGID_8_)" d="M790.54,171.077c0,0-3.422-0.642-4.706-2.995c-1.283-2.353-2.139-13.691-5.989-14.119
		s-4.064,5.348-4.064,5.348s-0.428-25.028-12.621-25.028s-12.407,22.247-12.407,22.247s0.855-6.845-4.278-7.273
		s-4.706,11.124-4.706,11.124s-0.428-5.562-4.492-5.562s-4.241,6.635-4.492,8.771c-0.852,7.267-12.193,7.701-12.193,7.701
		L790.54,171.077z"/>
</g>
<g>
	<g>
		<g>
			<path fill="#016B80" d="M703.589,536.678c6.809-14.32,13.366-31.523,19.231-48.67c-1.779-1.63-14.787-14.182-18.604-35.518
				c-4.984,6.534-9.478,13.472-13.204,20.89c-2.819,5.612-5.127,11.554-6.846,17.681
				C684.321,509.263,700.082,531.871,703.589,536.678z"/>
		</g>
		<g>
			<path fill="#016B80" d="M723.311,486.571c11.104-32.674,19.646-64.839,22.549-76.118c-5.254,3.269-10.111,8.898-14.631,13.086
				c-5.216,4.834-10.332,9.811-15.211,15.043c-3.713,3.981-7.292,8.119-10.662,12.433
				C708.599,471.452,720.546,483.926,723.311,486.571z"/>
		</g>
		<g>
			<path fill="#016B80" d="M731.346,466.384c-5.613,17.928-12.27,37.43-19.406,54.782c5.03-1.922,26.552-10.746,36.629-24.525
				c5.184-15.439,7.231-32.104,6.257-48.313c-9.125,10.038-23.291,18.047-23.439,18.13L731.346,466.384z"/>
		</g>
		<g>
			<path fill="#016B80" d="M754.69,446.35c-0.181-2.389-0.423-4.767-0.734-7.127c-1.2-9.087-2.616-20.225-6.703-28.628
				c-2.183,8.494-7.761,29.602-15.313,53.886C735.702,462.23,747.28,454.945,754.69,446.35z"/>
		</g>
		<g>
			<path fill="#016B80" d="M711.338,522.914l-0.056-0.161c-5.218,12.537-10.682,23.866-16.174,32.563
				c2.12-0.015,4.835-1.113,8.722-3.211c20.907-11.285,35.24-30.02,43.319-51.48C734.609,514.655,711.587,522.827,711.338,522.914z"
				/>
		</g>
		<g>
			<path fill="#016B80" d="M683.078,495.338c-1.962,8.47-2.786,17.227-2.216,25.917c0.54,8.218,2.309,16.392,5.64,23.942
				c2.603,5.897,4.357,9.1,7.073,9.911c3.134-4.89,6.261-10.65,9.34-17.024C700.502,534.871,685.353,514.073,683.078,495.338z"/>
		</g>
		<g>
			<path fill="#00B3A1" d="M711.282,522.753l0.056,0.161c0.249-0.087,23.271-8.259,35.812-22.289
				c0.496-1.318,0.97-2.646,1.419-3.984c-10.077,13.779-31.599,22.604-36.629,24.525c7.137-17.353,13.793-36.854,19.406-54.782
				l0.04,0.074c0.148-0.083,14.314-8.092,23.439-18.13c-0.04-0.66-0.085-1.319-0.135-1.979c-7.41,8.596-18.988,15.881-22.751,18.131
				c7.553-24.284,13.131-45.392,15.313-53.886c-0.121-0.249-0.236-0.505-0.362-0.749c-0.346,0.191-0.688,0.395-1.031,0.607
				c-2.902,11.279-11.444,43.444-22.549,76.118c-2.765-2.646-14.712-15.119-17.955-35.557c-0.383,0.489-0.762,0.981-1.139,1.476
				c3.816,21.336,16.824,33.888,18.604,35.518c-5.865,17.146-12.423,34.35-19.231,48.67c-3.507-4.807-19.268-27.415-19.422-45.617
				c-0.396,1.416-0.757,2.843-1.089,4.277c2.274,18.735,17.424,39.533,19.837,42.746c-3.079,6.374-6.206,12.135-9.34,17.024
				c0.478,0.144,0.985,0.212,1.533,0.208C700.601,546.619,706.064,535.29,711.282,522.753z"/>
		</g>
	</g>
</g>
<g>
	<g>
		<g>
			<path fill="#EE5758" d="M688.731,534.771c3.469-13.37,6.326-28.861,8.632-44.065c-1.669-0.622-13.96-5.658-20.071-20.663
				c-3.101,6.762-5.747,13.66-7.705,20.656c-1.481,5.293-2.503,10.658-3.021,15.959
				C669.273,520.551,685.216,532.323,688.731,534.771z"/>
		</g>
		<g>
			<path fill="#EE5758" d="M697.555,489.434c4.337-28.947,6.673-56.602,7.418-66.268c-3.781,4.355-6.906,10.38-9.964,15.181
				c-3.528,5.541-6.957,11.155-10.156,16.884c-2.435,4.357-4.739,8.788-6.851,13.281
				C683.523,483.029,694.946,488.379,697.555,489.434z"/>
		</g>
		<g>
			<path fill="#EE5758" d="M701.184,471.134c-1.992,15.715-4.603,33.002-7.906,48.812c3.791-3.244,19.928-17.585,26.114-31.691
				c1.997-13.656,1.287-27.146-1.8-39.223c-5.948,10.904-16.258,22.03-16.366,22.146L701.184,471.134z"/>
		</g>
		<g>
			<path fill="#EE5758" d="M717.202,447.563c-0.484-1.767-1.019-3.504-1.604-5.203c-2.26-6.539-4.985-14.574-9.479-19.575
				c-0.559,7.278-2.069,25.415-4.726,46.683C704.113,466.418,712.435,456.758,717.202,447.563z"/>
		</g>
		<g>
			<path fill="#EE5758" d="M693.039,521.497l-0.067-0.104c-2.437,11.443-5.243,22.048-8.447,30.647
				c1.711-0.759,3.748-2.557,6.591-5.532c15.292-16.01,24.214-35.412,27.695-54.702C710.67,506.974,693.229,521.343,693.039,521.497
				z"/>
		</g>
		<g>
			<path fill="#EE3F3A" d="M666.292,510.318c-0.383,7.182,0.194,14.181,1.889,20.639c1.602,6.107,4.191,11.748,7.954,16.36
				c2.939,3.603,4.812,5.438,7.121,5.104c1.839-4.851,3.548-10.366,5.131-16.334C685.98,534.476,670.789,523.874,666.292,510.318z"
				/>
		</g>
		<path fill="#8DD0BF" d="M692.972,521.394l0.067,0.104c0.189-0.154,17.631-14.523,25.771-29.69c0.215-1.186,0.408-2.37,0.581-3.553
			c-6.187,14.106-22.323,28.447-26.114,31.691c3.304-15.81,5.914-33.097,7.906-48.812l0.042,0.044
			c0.108-0.116,10.418-11.242,16.366-22.146c-0.126-0.492-0.256-0.981-0.39-1.469c-4.768,9.195-13.089,18.855-15.81,21.904
			c2.656-21.268,4.167-39.404,4.726-46.683c-0.133-0.147-0.263-0.303-0.399-0.446c-0.251,0.269-0.5,0.546-0.746,0.828
			c-0.745,9.666-3.081,37.32-7.418,66.268c-2.608-1.055-14.031-6.404-19.553-20.922c-0.239,0.509-0.476,1.02-0.71,1.531
			c6.111,15.005,18.402,20.041,20.071,20.663c-2.306,15.204-5.163,30.695-8.632,44.065c-3.516-2.448-19.458-14.221-22.166-28.113
			c-0.12,1.225-0.208,2.444-0.273,3.66c4.497,13.556,19.688,24.157,22.095,25.769c-1.583,5.968-3.292,11.483-5.131,16.334
			c0.406-0.059,0.827-0.185,1.269-0.38C687.729,543.441,690.535,532.837,692.972,521.394z"/>
	</g>
</g>
<g>
	<g>
		<g>
			<g>
				<path fill="#184656" d="M365.838,622.932l293.78,0.005c13.853,0,25.188-12.371,25.188-27.492l0.011-414.151
					c0-15.121-11.334-27.493-25.187-27.494l-293.78-0.005c-13.853,0-25.188,12.371-25.188,27.492l-0.01,414.151
					C340.65,610.559,351.985,622.931,365.838,622.932z"/>
				
					<rect x="346.234" y="181.291" transform="matrix(-1 -2.041658e-005 2.041658e-005 -1 1025.717 746.8547)" fill="#E5E5E2" width="333.257" height="384.262"/>
			</g>
		</g>
	</g>
	<g>
		<path fill="#42B093" d="M529.945,582.754l-34.533,0.23c-4.411,0.03-7.977,3.971-7.95,8.785l0.012,2.08
			c0.027,4.814,3.637,8.706,8.048,8.677l34.533-0.23c4.411-0.029,7.978-3.97,7.95-8.784l-0.012-2.08
			C537.967,586.617,534.355,582.725,529.945,582.754L529.945,582.754z"/>
	</g>
	<rect x="670.269" y="181.294" opacity="0.29" fill="#0488B2" width="9.616" height="384.263"/>
	<rect x="346.143" y="181.294" opacity="0.29" fill="#0488B2" width="9.616" height="384.263"/>
</g>
<g>
	<g>
		<g>
			<polygon fill="#8DD0BF" points="537.236,449.314 496.895,449.314 506.115,440.03 546.457,440.03 			"/>
			<polygon fill="#489C9E" points="537.174,449.252 537.174,489.594 546.457,480.373 546.457,440.03 			"/>
			<rect x="496.895" y="449.314" fill="#56B89F" width="40.279" height="40.279"/>
		</g>
		<g>
			<rect x="505.623" y="477.283" fill="#8DD0BF" width="22.634" height="0.915"/>
			<rect x="505.623" y="479.646" fill="#8DD0BF" width="22.634" height="0.915"/>
		</g>
		<g>
			<rect x="505.623" y="471.567" fill="#8DD0BF" width="22.634" height="0.915"/>
			<rect x="505.623" y="473.931" fill="#8DD0BF" width="22.634" height="0.914"/>
		</g>
		<path fill="#8DD0BF" d="M525.551,468.342h-17.832c-1.136,0-2.058-0.921-2.058-2.058v-7.545c0-1.136,0.921-2.058,2.058-2.058
			h17.832c1.137,0,2.059,0.922,2.059,2.058v7.545C527.609,467.421,526.688,468.342,525.551,468.342z"/>
	</g>
	<g opacity="0.4">
		<g>
			<polygon fill="#93CEDC" points="589.615,461.387 561.363,461.387 567.821,454.885 596.072,454.885 			"/>
			<polygon fill="#4C98C9" points="589.571,461.343 589.571,489.594 596.072,483.137 596.072,454.885 			"/>
			<rect x="561.363" y="461.387" fill="#59B4C9" width="28.208" height="28.207"/>
		</g>
		<g>
			<rect x="567.477" y="480.973" fill="#93CEDC" width="15.85" height="0.641"/>
			<rect x="567.477" y="482.627" fill="#93CEDC" width="15.85" height="0.641"/>
		</g>
		<g>
			<rect x="567.477" y="476.971" fill="#93CEDC" width="15.85" height="0.64"/>
			<rect x="567.477" y="478.625" fill="#93CEDC" width="15.85" height="0.641"/>
		</g>
		<path fill="#93CEDC" d="M581.433,474.711h-12.488c-0.796,0-1.441-0.646-1.441-1.441v-5.283c0-0.796,0.646-1.44,1.441-1.44h12.488
			c0.795,0,1.44,0.645,1.44,1.44v5.283C582.873,474.065,582.228,474.711,581.433,474.711z"/>
	</g>
	<g>
		<g>
			<polygon fill="#F2C8D6" points="480.135,457.459 429.914,457.459 437.27,450.052 487.491,450.052 			"/>
			<polygon fill="#D29BC3" points="480.084,457.408 480.084,489.594 487.491,482.237 487.491,450.052 			"/>
			<rect x="429.914" y="457.459" fill="#ECACC4" width="50.17" height="32.135"/>
		</g>
		<g>
			<rect x="436.877" y="479.772" fill="#F2C8D6" width="36.093" height="0.729"/>
			<rect x="436.877" y="481.657" fill="#F2C8D6" width="36.093" height="0.729"/>
		</g>
		<g>
			<rect x="436.877" y="475.213" fill="#F2C8D6" width="36.093" height="0.729"/>
			<rect x="436.877" y="477.098" fill="#F2C8D6" width="36.093" height="0.729"/>
		</g>
		<path fill="#F2C8D6" d="M470.812,472.639h-32.263c-0.907,0-1.642-0.735-1.642-1.642v-6.019c0-0.907,0.735-1.642,1.642-1.642
			h32.263c0.907,0,1.642,0.734,1.642,1.642v6.019C472.454,471.903,471.719,472.639,470.812,472.639z"/>
	</g>
	<path fill="#45565D" d="M464.45,505.116h-21.314c-1.261,0-2.284-1.022-2.284-2.283v-2.665c0-1.261,1.022-2.283,2.284-2.283h21.314
		c1.261,0,2.284,1.022,2.284,2.283v2.665C466.734,504.094,465.711,505.116,464.45,505.116z"/>
	<path fill="#45565D" d="M525.78,505.116h-21.314c-1.261,0-2.284-1.022-2.284-2.283v-2.665c0-1.261,1.022-2.283,2.284-2.283h21.314
		c1.262,0,2.284,1.022,2.284,2.283v2.665C528.064,504.094,527.042,505.116,525.78,505.116z"/>
	<path fill="#45565D" d="M582.822,505.116h-21.314c-1.261,0-2.283-1.022-2.283-2.283v-2.665c0-1.261,1.022-2.283,2.283-2.283h21.314
		c1.262,0,2.284,1.022,2.284,2.283v2.665C585.106,504.094,584.084,505.116,582.822,505.116z"/>
</g>
<g>
	<g>
		<path fill="#FCC14B" d="M736.044,623.331l-144.088-0.077c-5.236-0.003-9.479-4.25-9.477-9.487l0.044-82.521
			c0.002-5.237,4.25-9.48,9.487-9.478l144.087,0.076c5.237,0.004,9.48,4.251,9.478,9.488l-0.044,82.521
			C745.528,619.091,741.28,623.334,736.044,623.331z"/>
		<path fill="#FCC14B" d="M582.521,566.679l-0.042,47.088c-0.003,5.237,4.24,9.484,9.477,9.487l144.088,0.077
			c5.236,0.003,9.484-4.24,9.487-9.478l0.036-67.566c0,0-27.976,25.68-97.163,11.803
			C625.775,553.552,598.645,555.687,582.521,566.679z"/>
		<g>
			<path fill="#CCA77A" d="M625.263,566.129l-18.633-0.01c-2.018-0.002-3.652-1.638-3.651-3.655l0.009-15.261
				c0.001-2.018,1.638-3.652,3.654-3.651l18.633,0.01c2.018,0.001,3.652,1.638,3.651,3.655l-0.008,15.261
				C628.917,564.495,627.28,566.13,625.263,566.129z"/>
			<g>
				<polygon fill="#4B6F7B" points="611.321,543.615 611.319,546.765 603.06,546.761 603.06,547.017 611.319,547.021 611.315,553.6 
					603.057,553.595 603.057,553.852 611.315,553.855 611.312,560.604 603.053,560.6 603.053,560.855 611.312,560.86 
					611.309,565.975 611.565,565.975 611.577,543.615 				"/>
				<rect x="620.72" y="554.119" fill="#4B6F7B" width="8.112" height="0.257"/>
				<polygon fill="#4B6F7B" points="628.829,560.87 628.829,560.613 620.655,560.609 620.663,547.197 628.836,547.202 
					628.836,546.945 620.406,546.941 620.399,560.609 620.338,560.609 620.338,560.865 620.399,560.865 620.396,565.979 
					620.652,565.979 620.655,560.865 				"/>
			</g>
		</g>
		<circle fill="#FFD22E" cx="633.284" cy="601.433" r="10.189"/>
		<circle fill="#EE3F3A" cx="605.924" cy="601.434" r="10.189"/>
		<circle fill="#F48154" cx="619.894" cy="601.433" r="10.189"/>
	</g>
	<g>
		<path fill="#4B6F7B" d="M623.841,579.686l-26.376,0.009c-1.335,0-2.418-1.082-2.418-2.417v-0.473
			c-0.001-1.335,1.081-2.418,2.416-2.418l26.377-0.009c1.335-0.001,2.417,1.081,2.418,2.416v0.474
			C626.258,578.603,625.176,579.686,623.841,579.686z"/>
		<path fill="#4B6F7B" d="M659.086,579.675l-26.376,0.008c-1.335,0.001-2.418-1.081-2.418-2.416v-0.474
			c-0.001-1.335,1.081-2.418,2.416-2.418l26.376-0.009c1.336,0,2.418,1.082,2.418,2.417l0.001,0.473
			C661.503,578.591,660.421,579.674,659.086,579.675z"/>
		<path fill="#4B6F7B" d="M694.331,579.663l-26.376,0.009c-1.336,0-2.418-1.082-2.419-2.417v-0.474c0-1.335,1.082-2.417,2.417-2.418
			l26.376-0.008c1.335-0.001,2.418,1.081,2.418,2.416v0.474C696.748,578.58,695.666,579.662,694.331,579.663z"/>
		<path fill="#4B6F7B" d="M729.151,579.652l-26.377,0.008c-1.335,0.001-2.417-1.081-2.418-2.416v-0.474
			c0-1.335,1.082-2.418,2.417-2.418l26.376-0.009c1.335,0,2.418,1.081,2.418,2.417v0.473
			C731.568,578.568,730.486,579.651,729.151,579.652z"/>
	</g>
</g>
<g>
	<path fill="#EE5758" d="M518.262,225.901h-5.664c-8.911,0-16.134-7.223-16.134-16.134V191.71h37.931v18.058
		C534.396,218.678,527.173,225.901,518.262,225.901z"/>
	<polygon fill="#F2C8D6" points="496.464,191.71 458.533,191.71 469.624,173.169 516.262,173.169 	"/>
	<path fill="#ECACC4" d="M477.499,225.901L477.499,225.901c-10.474,0-18.965-6.145-18.965-13.725V191.71h37.931v20.467
		C496.464,219.757,487.973,225.901,477.499,225.901z"/>
	<polygon fill="#F09793" points="458.533,191.71 420.602,191.71 435.907,173.169 469.624,173.169 	"/>
	<path fill="#EE5758" d="M439.567,225.901L439.567,225.901c-10.475,0-18.966-6.145-18.966-13.725V191.71h37.932v20.467
		C458.533,219.757,450.042,225.901,439.567,225.901z"/>
	<polygon fill="#F2C8D6" points="420.602,191.71 382.67,191.71 402.468,173.169 435.907,173.169 	"/>
	<polygon fill="#F2C8D6" points="534.534,191.71 572.466,191.71 561.375,173.169 514.737,173.169 	"/>
	<polygon fill="#F09793" points="572.466,191.71 610.397,191.71 595.092,173.169 561.375,173.169 	"/>
	<polygon fill="#F2C8D6" points="610.397,191.71 648.328,191.71 628.531,173.169 595.092,173.169 	"/>
	<path fill="#ECACC4" d="M401.636,225.901L401.636,225.901c-10.474,0-18.965-6.145-18.965-13.725V191.71h37.931v20.467
		C420.602,219.757,412.11,225.901,401.636,225.901z"/>
	<path fill="#ECACC4" d="M553.528,225.901L553.528,225.901c10.474,0,18.966-6.145,18.966-13.725V191.71h-37.932v20.467
		C534.563,219.757,543.054,225.901,553.528,225.901z"/>
	<path fill="#EE5758" d="M591.459,225.901L591.459,225.901c10.475,0,18.966-6.145,18.966-13.725V191.71h-37.931v20.467
		C572.494,219.757,580.984,225.901,591.459,225.901z"/>
	<path fill="#ECACC4" d="M626.559,225.901h5.664c8.91,0,16.134-7.223,16.134-16.134V191.71h-37.932v18.058
		C610.425,218.678,617.648,225.901,626.559,225.901z"/>
	<polygon fill="#F09793" points="534.396,191.71 496.464,191.71 499.126,173.169 531.734,173.169 	"/>
</g>
<path opacity="0.69" fill="#AAE0D1" d="M607.017,402.13H418.195c-12.609,0-22.832-10.222-22.832-22.832v-69.111
	c0-12.609,10.222-22.832,22.832-22.832h188.822c12.609,0,22.832,10.222,22.832,22.832v69.111
	C629.849,391.908,619.626,402.13,607.017,402.13z"/>
<g>
	<path fill="#C2D3E8" d="M584.559,328.442h-71.621c-2.373,0-4.32-1.964-4.327-4.365l0,0c-0.007-2.4,1.928-4.365,4.301-4.365h71.622
		c2.372,0,4.319,1.964,4.327,4.365l0,0C588.867,326.478,586.932,328.442,584.559,328.442z"/>
	<path fill="#C2D3E8" d="M587.868,337.049h-66.397c-0.546,0-0.992-0.446-0.992-0.992v-0.542c0-0.545,0.446-0.992,0.992-0.992h66.397
		c0.546,0,0.992,0.446,0.992,0.992v0.542C588.86,336.603,588.414,337.049,587.868,337.049z"/>
	<path fill="#C2D3E8" d="M587.868,344.399h-78.266c-0.545,0-0.992-0.446-0.992-0.992v-0.542c0-0.545,0.446-0.992,0.992-0.992h78.266
		c0.546,0,0.992,0.447,0.992,0.992v0.542C588.86,343.953,588.414,344.399,587.868,344.399z"/>
	<path fill="#C2D3E8" d="M579.955,351.75h-70.353c-0.545,0-0.992-0.446-0.992-0.992v-0.542c0-0.545,0.446-0.992,0.992-0.992h70.353
		c0.546,0,0.992,0.446,0.992,0.992v0.542C580.947,351.303,580.501,351.75,579.955,351.75z"/>
</g>
<g>
	<path fill="#C2D3E8" d="M587.868,359.289h-66.397c-0.546,0-0.992-0.446-0.992-0.992v-0.542c0-0.546,0.446-0.992,0.992-0.992h66.397
		c0.546,0,0.992,0.447,0.992,0.992v0.542C588.86,358.843,588.414,359.289,587.868,359.289z"/>
	<path fill="#C2D3E8" d="M587.868,366.639h-78.266c-0.545,0-0.992-0.446-0.992-0.992v-0.542c0-0.545,0.446-0.992,0.992-0.992h78.266
		c0.546,0,0.992,0.446,0.992,0.992v0.542C588.86,366.193,588.414,366.639,587.868,366.639z"/>
	<path fill="#C2D3E8" d="M579.955,373.99h-70.353c-0.545,0-0.992-0.446-0.992-0.992v-0.542c0-0.546,0.446-0.992,0.992-0.992h70.353
		c0.546,0,0.992,0.446,0.992,0.992v0.542C580.947,373.543,580.501,373.99,579.955,373.99z"/>
</g>
<g>
	<g>
		<g>
			<path fill="#005679" d="M510.393,312.553l6.556-30.408c-0.859,0.426-2.13,0.832-3.438,1.168c-2.08,0.535-3.982-1.345-3.497-3.437
				l0,0c4.042-0.625,7.817-2.684,9.645-4.395h3.861L516.7,307.53c-0.623,2.929-3.209,5.023-6.204,5.023H510.393z"/>
			<path fill="#005679" d="M531.903,303.841c0.512,3.094,1.997,4.927,5.73,4.927c6.11,0,8.923-6.925,10.301-13.697
				c-1.834,2.551-4.917,3.934-8.646,3.934c-5.67,0-10.142-3.697-10.142-10.576c0-6.607,4.799-13.511,13.409-13.511
				c7.734,0,11.159,5.316,11.159,12.886c0,7.929-2.719,25.312-16.625,25.312c-4.066,0-6.604-1.296-8.154-3.161
				C526.923,307.531,528.752,303.841,531.903,303.841L531.903,303.841z M534.495,288.163c0,4.205,2.473,6.52,6.105,6.52
				c4.731,0,7.922-3.365,7.922-8.057c0-3.907-1.552-7.329-6.289-7.329C537.132,279.297,534.495,283.687,534.495,288.163z"/>
			<path fill="#005679" d="M563.746,289.176c0.209,1.262,0.814,2.011,2.339,2.011c2.493,0,3.641-2.826,4.203-5.589
				c-0.749,1.041-2.007,1.605-3.528,1.605c-2.313,0-4.139-1.509-4.139-4.316c0-2.696,1.959-5.514,5.472-5.514
				c3.156,0,4.555,2.169,4.555,5.259c0,3.235-1.11,10.329-6.785,10.329c-1.659,0-2.694-0.529-3.327-1.29
				C561.713,290.682,562.46,289.176,563.746,289.176L563.746,289.176z M564.804,282.778c0,1.716,1.009,2.661,2.491,2.661
				c1.931,0,3.232-1.373,3.232-3.288c0-1.594-0.633-2.991-2.565-2.991C565.88,279.161,564.804,280.952,564.804,282.778z"/>
			<path fill="#005679" d="M575.129,289.176c0.209,1.262,0.815,2.011,2.339,2.011c2.493,0,3.641-2.826,4.203-5.589
				c-0.749,1.041-2.007,1.605-3.528,1.605c-2.313,0-4.138-1.509-4.138-4.316c0-2.696,1.958-5.514,5.471-5.514
				c3.156,0,4.555,2.169,4.555,5.259c0,3.235-1.11,10.329-6.784,10.329c-1.66,0-2.695-0.529-3.328-1.29
				C573.097,290.682,573.843,289.176,575.129,289.176L575.129,289.176z M576.187,282.778c0,1.716,1.009,2.661,2.491,2.661
				c1.931,0,3.232-1.373,3.232-3.288c0-1.594-0.633-2.991-2.565-2.991C577.263,279.161,576.187,280.952,576.187,282.778z"/>
		</g>
	</g>
	<path fill="#005679" d="M586.307,297.371h-24.571c-1.042,0-1.886-0.844-1.886-1.886v-0.268h24.703c0.969,0,1.754,0.786,1.754,1.754
		V297.371z"/>
</g>
<g>
	<path fill="#42B093" d="M465.199,384.033H416.11c-4.797,0-8.685-3.888-8.685-8.685v-8.307c0-4.797,3.888-8.685,8.685-8.685h49.089
		c4.797,0,8.685,3.888,8.685,8.685v8.307C473.884,380.145,469.996,384.033,465.199,384.033z"/>
	<path fill="#E5E5E2" d="M447.25,368.388c-0.169-0.263-0.443-0.437-0.754-0.476l-13.749-1.729l-0.164-0.021
		c-0.128-0.71-0.234-1.281-0.305-1.633c-0.248-1.223-0.867-1.736-1.343-1.95c-0.159-0.072-0.313-0.115-0.45-0.141
		c-0.044-0.059-0.114-0.098-0.193-0.098h-1.897c-0.134,0-0.242,0.108-0.242,0.242v0.171c0,0.134,0.108,0.242,0.242,0.242h1.897
		c0.054,0,0.103-0.018,0.144-0.048c0.442,0.099,1.094,0.458,1.342,1.683c0.253,1.254,0.953,5.312,1.515,8.573
		c0.416,2.411,0.53,2.961,0.583,3.183l0.008,0.036c0.065,0.275,0.174,0.736,0.491,1.137c0.388,0.49,0.971,0.75,1.735,0.773
		c0.111,0.003,0.25,0.006,0.409,0.008c-0.443,0.032-0.794,0.401-0.794,0.853c0,0.473,0.383,0.856,0.856,0.856
		s0.856-0.383,0.856-0.856c0-0.441-0.334-0.804-0.763-0.851c0.616,0.008,1.494,0.011,2.452,0.011c1.44,0,3.058-0.007,4.22-0.013
		c-0.438,0.038-0.782,0.404-0.782,0.853c0,0.473,0.383,0.856,0.855,0.856s0.856-0.383,0.856-0.856c0-0.453-0.351-0.822-0.796-0.853
		c0.86-0.004,1.441-0.008,1.461-0.008l-0.003-0.51c-0.072,0-7.208,0.048-8.813,0c-1.395-0.042-1.622-1.001-1.744-1.517l-0.009-0.037
		c-0.028-0.118-0.083-0.378-0.199-1.013h10.018c0.769,0,1.44-0.492,1.672-1.225l1.505-4.758
		C447.462,368.974,447.419,368.651,447.25,368.388z"/>
</g>
<g>
	<g>
		<g>
			<path fill="#FAB448" d="M330.043,551.74c1.405-2.045,3.351-4.134,5.856-6.475l-0.051,16.731
				C334.787,560.413,332.103,556.249,330.043,551.74z"/>
		</g>
		<g>
			<path fill="#FAB448" d="M336.406,570.155c3.147-3.287,6.272-9.636,8.196-13.992c1.131,3.688,0.613,7.729-1.449,13.292
				c-4.116,11.102,2.734,8.937,4.079,7.863c1.345-1.074,4.693-7.097,8.527-4.441c0.197,0.137,0.377,0.296,0.547,0.468
				c-3.377,11.059-17.013,28.136-20.007,31.8L336.406,570.155z"/>
		</g>
		<g>
			<path fill="#FAB448" d="M335.739,597.803c-1.828-1.021-10.485-6.637-18.695-24.928c3.71-2.263,6.989,3.491,8.313,4.531
				c1.354,1.063,8.221,3.172,4.016-7.896c-2.858-7.523-2.845-12.281,0.271-17.169c2.526,5.466,5.879,10.293,6.201,10.751
				L335.739,597.803z"/>
		</g>
		<g>
			<path fill="#FAB448" d="M336.409,569.216l0.073-23.902c3.998,3.68,6.58,6.734,7.825,10.002
				C342.495,559.46,339.451,565.784,336.409,569.216z"/>
		</g>
		<g>
			<path fill="#FAB448" d="M356.759,573.889c2.527,3.61,0.997,12.502-3.712,23.57c-1.442,3.392-3.171,6.608-4.994,9.727
				c-1.794,3.068-3.699,6.044-5.669,8.955c-1.47,2.171-2.964,4.328-4.526,6.407c-0.317,0.423-1.02,0.654-1.615,0.653l0.052-17.061
				C338.153,603.908,352.959,585.868,356.759,573.889z"/>
		</g>
		<g>
			<path fill="#FAB448" d="M316.541,573.235c8.687,19.335,17.922,24.664,19.195,25.325l-0.075,24.546
				c-0.018-0.007-0.036-0.013-0.053-0.021c-0.337-0.152-0.592-0.485-0.807-0.829c-0.475-0.76-1.008-1.451-1.528-2.169
				c-0.858-1.185-1.705-2.38-2.54-3.586c-2.013-2.911-3.96-5.889-5.799-8.959c-1.881-3.141-3.668-6.383-5.167-9.805
				c-0.021-0.048-0.042-0.097-0.063-0.145C314.494,585.612,313.051,576.169,316.541,573.235z"/>
		</g>
		<g>
			<path fill="#42B093" d="M316.541,573.235c0.083-0.069,0.165-0.14,0.253-0.201c0.083-0.06,0.166-0.108,0.249-0.159
				c8.21,18.291,16.868,23.906,18.695,24.928l0.106-34.71c-0.321-0.458-3.675-5.285-6.201-10.751c0.127-0.2,0.262-0.401,0.399-0.602
				c2.06,4.509,4.744,8.673,5.805,10.257l0.051-16.731c0.054-0.051,0.105-0.1,0.16-0.15c0.078-0.066,0.127-0.063,0.208,0
				c0.073,0.066,0.142,0.132,0.214,0.198l-0.073,23.902c3.042-3.432,6.086-9.756,7.898-13.9c0.107,0.28,0.208,0.563,0.295,0.848
				c-1.923,4.356-5.048,10.705-8.196,13.992l-0.107,34.989c2.994-3.664,16.629-20.741,20.007-31.8
				c0.163,0.166,0.315,0.347,0.454,0.544c-3.8,11.979-18.606,30.02-20.463,32.252l-0.052,17.061c-0.217,0-0.418-0.031-0.583-0.095
				l0.075-24.546C334.463,597.899,325.228,592.57,316.541,573.235z"/>
		</g>
	</g>
</g>
<g>
	<g>
		<g>
			<path fill="#0A87B1" d="M316.407,577.718c0.911-1.288,2.165-2.6,3.777-4.066l-0.173,10.636
				C319.349,583.271,317.678,580.602,316.407,577.718z"/>
		</g>
		<g>
			<path fill="#0A87B1" d="M320.296,589.479c2.029-2.063,4.069-6.073,5.328-8.827c0.688,2.354,0.325,4.92-1.033,8.438
				c-2.709,7.022,1.664,5.704,2.527,5.033c0.864-0.672,3.044-4.472,5.458-2.752c0.124,0.089,0.237,0.191,0.344,0.303
				c-2.24,7.002-11.053,17.743-12.987,20.048L320.296,589.479z"/>
		</g>
		<g>
			<path fill="#0A87B1" d="M319.639,607.05c-1.153-0.665-6.609-4.308-11.675-16.005c2.378-1.407,4.414,2.278,5.247,2.951
				c0.852,0.687,5.2,2.085,2.62-4.986c-1.754-4.807-1.705-7.832,0.317-10.913c1.56,3.497,3.651,6.594,3.851,6.888L319.639,607.05z"
				/>
		</g>
		<g>
			<path fill="#0A87B1" d="M320.306,588.882l0.248-15.195c2.51,2.373,4.126,4.337,4.89,6.425
				C324.258,582.73,322.269,586.726,320.306,588.882z"/>
		</g>
		<path fill="#0A87B1" d="M333.205,592.024c1.576,2.316,0.528,7.956-2.559,14.953c-0.945,2.145-2.072,4.175-3.257,6.142
			c-1.167,1.936-2.402,3.812-3.68,5.646c-0.952,1.367-1.921,2.727-2.931,4.035c-0.205,0.266-0.653,0.407-1.032,0.401l0.177-10.846
			C321.123,610.952,330.688,599.608,333.205,592.024z"/>
		<g>
			<path fill="#0A87B1" d="M307.642,591.27c5.359,12.365,11.186,15.832,11.99,16.263l-0.255,15.604
				c-0.011-0.005-0.022-0.009-0.033-0.014c-0.213-0.101-0.373-0.313-0.506-0.534c-0.296-0.487-0.628-0.931-0.953-1.392
				c-0.536-0.76-1.064-1.527-1.584-2.302c-1.255-1.867-2.469-3.776-3.611-5.744c-1.169-2.013-2.278-4.089-3.203-6.277
				c-0.013-0.03-0.026-0.062-0.039-0.092C306.235,599.121,305.398,593.105,307.642,591.27z"/>
		</g>
		<path fill="#8DD0BF" d="M307.642,591.27c0.053-0.044,0.106-0.087,0.163-0.126c0.053-0.036,0.106-0.067,0.16-0.099
			c5.066,11.697,10.522,15.34,11.675,16.005l0.36-22.065c-0.2-0.294-2.292-3.391-3.851-6.888c0.083-0.126,0.169-0.252,0.259-0.379
			c1.271,2.884,2.942,5.554,3.604,6.569l0.173-10.636c0.035-0.032,0.068-0.063,0.103-0.095c0.05-0.041,0.082-0.038,0.133,0.002
			c0.046,0.043,0.089,0.085,0.134,0.128l-0.248,15.195c1.963-2.156,3.952-6.151,5.138-8.771c0.066,0.18,0.127,0.359,0.18,0.541
			c-1.259,2.754-3.299,6.764-5.328,8.827l-0.363,22.243c1.934-2.305,10.747-13.046,12.987-20.048
			c0.103,0.106,0.197,0.223,0.284,0.35c-2.517,7.584-12.082,18.928-13.281,20.331l-0.177,10.846
			c-0.138-0.002-0.265-0.023-0.37-0.064l0.255-15.604C318.827,607.102,313.001,603.635,307.642,591.27z"/>
	</g>
</g>
<g>
	<g>
		<polygon fill="#93CEDC" points="471.115,270.573 407.205,270.573 421.813,255.865 485.722,255.865 		"/>
		<polygon fill="#4C98C9" points="471.015,270.473 471.015,334.382 485.722,319.774 485.722,255.865 		"/>
		<rect x="407.205" y="270.573" fill="#59B4C9" width="63.81" height="63.809"/>
	</g>
	<g>
		<rect x="421.033" y="314.88" fill="#93CEDC" width="35.856" height="1.449"/>
		<rect x="421.033" y="318.623" fill="#93CEDC" width="35.856" height="1.449"/>
	</g>
	<g>
		<rect x="421.033" y="305.826" fill="#93CEDC" width="35.856" height="1.448"/>
		<rect x="421.033" y="309.568" fill="#93CEDC" width="35.856" height="1.449"/>
	</g>
	<path fill="#93CEDC" d="M452.603,300.715h-28.25c-1.8,0-3.26-1.459-3.26-3.26v-11.952c0-1.8,1.459-3.26,3.26-3.26h28.25
		c1.8,0,3.26,1.459,3.26,3.26v11.952C455.863,299.256,454.403,300.715,452.603,300.715z"/>
</g>
<g>
	<path fill="#F6A9A9" d="M800.699,421.577c0,0,0.974,0.089,1.038,0.789s0.002,2.49-0.514,3.584
		c-0.517,1.095-0.481,2.331-2.427,2.444c-1.944,0.114-5.446-1.599-5.453-2.377c-0.007-0.777,1.553-2.697,1.553-2.697l0.961-1.371
		C795.857,421.949,798.387,419.632,800.699,421.577z"/>
	<path fill="#F6A9A9" d="M807.527,526.778c-0.342,6.702-0.823,15.091-0.007,22.373c-0.149,1.362-0.222,2.795-0.201,4.276
		c0,0,4.272,49.224,6.216,58.7c2.058,1.504,4.814-0.708,4.814-0.708c1.69-9.404,5.188-33.592,4.87-50.168
		c0-0.042,0.002-0.083,0.001-0.126l-0.103-7.683c-0.018-1.277-0.103-2.518-0.244-3.709
		C825.06,545.705,807.751,522.387,807.527,526.778z"/>
	<path fill="#005679" d="M807.075,481.564c-1.691,4.568-1.623,10.219-1.861,14.891c-0.363,7.131,0.542,40.42,1.41,48.169
		c-0.159,1.449,2.613,53.937,4.682,64.019c2.708,2.368,9.646-0.17,9.646-0.17c3.723-9.927,3.196-61.679,3.046-62.946
		c2.325-4.287,3.675-35.336,6.091-44.446c0.2-0.754,0.261-16.366,0.451-17.146C820.629,481.775,816.773,484.478,807.075,481.564z"/>
	<path fill="#23233B" d="M815.263,421.099c-1.878,2.646-4.183,6.232-5.037,7.257c-0.854,1.024-2.22,3.329-1.365,5.977
		c0.854,2.646,6.488,5.037,10.074,3.927c3.585-1.109,8.623-3.585,8.964-9.562c0.342-5.977-0.256-17.588-0.256-17.588l-4.013-2.646
		C823.63,408.463,817.142,418.452,815.263,421.099z"/>
	<path fill="#EE3F3A" d="M795.541,426.301c-0.188,0.268,3.486,2.01,3.423,2.121c-2.323,4.099-3.614,16.019-3.916,19.414
		c-0.029,0.329,0.23,0.605,0.55,0.521c3.878-1.022,16.536-20.38,23.664-22.941c1.663-0.598,2.907,11.034,2.702,11.36
		c-2.084,3.32-7.609,10.723-10.951,12.87c-14.144,9.09-19.174,8.601-22.594,6.894c-3.83-1.913-2.062-8.686-1.122-11.118
		C788.881,441.325,792.896,429.974,795.541,426.301z"/>
	<g>
		<polygon fill="#F6A9A9" points="818.353,610.187 818.658,615.535 808.562,619.61 813.611,610.643 		"/>
		<path fill="#23233B" d="M802.436,623.17l9.359-0.258c0.822-0.022,1.603-0.368,2.172-0.962l3.706-3.863l0.128,4.659l1.405-0.039
			l1.134-5.296c0.252-1.174,0.018-2.399-0.647-3.398l-0.743-1.114c-0.186-0.278-0.571-0.332-0.826-0.116l-5.271,4.479
			c-1.015,0.862-2.252,1.422-3.57,1.614l-1.11,0.161c-0.796,0.116-1.575,0.327-2.322,0.627l-1.414,0.569
			c-0.146,0.068-0.399,0.256-0.652,0.465c-0.412,0.339-0.767,0.744-1.053,1.194l-0.538,0.847
			C802.07,622.93,802.211,623.177,802.436,623.17z"/>
	</g>
	<path fill="#F6A9A9" d="M849.632,547.757c0.703,1.613,1.325,3.378,1.826,5.26l2.062,7.742c0.012,0.043,0.022,0.085,0.031,0.128
		c3.375,16.778,7.287,38.979,8.258,49.344c0,0-3.415,1.732-5.798,0.719c-4.31-9.103-19.911-54.054-19.911-54.054
		c-0.87-3.269-1.258-6.411-1.217-9.139H849.632z"/>
	<g>
		<path fill="#F6A9A9" d="M861.019,606.998l1.175,6.515l-6.428,7.462l-7.462,0.111l4.665-3.761c0.523-0.422,0.875-1.021,0.988-1.683
			l1.25-7.328L861.019,606.998z"/>
		<path fill="#23233B" d="M858.013,622.843l1.018-0.438c0.796-0.344,1.425-0.986,1.751-1.789l2.121-5.231l1.945,4.514l1.36-0.587
			l-0.957-5.63c-0.212-1.248-0.92-2.356-1.962-3.075l-1.163-0.801c-0.29-0.2-0.688-0.103-0.854,0.209l-1.147,3.906
			c-0.657,1.241-1.802,3.881-3.018,4.583l-2.6,1.09c-1.201,0.308-2.459-0.727-3.241-0.643l-2.739,1.51
			c-1.509,1.006-1.845,1.956-1.9,2.71L858.013,622.843z"/>
	</g>
	<path fill="#047396" d="M847.754,479.486c0.347,0.794,7.181,14.609,2.899,31.531c-0.457,17.936,0.379,35.137,0.665,36.212
		c0,0,10.666,42.809,10.779,57.869c0,0-5.923,4.737-9.307,2.368c-6.6-10.435-18.219-55.614-18.219-55.614
		c-0.926-3.477-12.904-68.618-12.86-71.52L847.754,479.486z"/>
	<path fill="#EE5758" d="M850.624,485.289c0,0-30.562,8.898-45.161,2.13c0,0,3.906-25.397,3.297-29.273s-5.105-4.513-4.999-8.687
		c0.155-6.082,7.862-14.22,12.383-20.368c0.55-0.733,3.846-4.203,4.128-4.442c2.453-0.72,5.189-0.593,7.559-0.424
		c6.599,0.847,11.125,2.581,14.002,6.473c2.712,7.276-1.95,22.393-0.62,36.606C845.047,472.944,850.624,485.289,850.624,485.289z"/>
	<path fill="#EE3F3A" d="M836.559,461.24c-1.016-4.117-4.992-18.359-3.019-26.087c2.002-2.429,7.291,1.058,8.137,3.709
		c0.486,0.519,0.973,6.345,0.762,9.94c-0.974,4.653-2.468,13.312,0.409,20.475c2.65,5.358,7.818,16.012,7.818,16.012
		s-10.181,2.715-11.937,2.884c2.144-5.076,4.09-9.47,1.806-15.934C839.175,468.393,836.878,462.605,836.559,461.24z"/>
	<path fill="#EE5758" d="M833.739,428.239c0,0,2.581-2.292,6.302,0.499c3.721,2.79,11.296,18.34,14.595,20.854
		c2.996,2.284,17.864-9.077,20.562-11.177c0.249-0.194,0.597-0.192,0.845,0.001l2.445,1.906c0.256,0.199,0.304,0.565,0.108,0.823
		c-2.286,3.017-15.236,19.681-23.058,20.63c-6.052,0.733-7.685-3.094-11.731-7.784c-4.048-4.69-11.295-16.674-12.418-19.938
		S833.739,428.239,833.739,428.239z"/>
	<path fill="#F6A9A9" d="M878.394,440.841l1.36-1.067c0.766-0.505,1.361-0.599,1.673-0.563c0.568,0.066,1.521,0.191,2.212,0.355
		c1.049,0.249,4.023-0.638,4.386-0.786c0.436-0.177,2.165-0.771,1.689-1.32c0.619-0.313,0.613-0.803,0.394-0.94
		c0.305-0.182,0.625-0.334,0.545-0.775c-0.081-0.448-1.014-0.309-1.014-0.309s0.688-0.696-1.354-0.722
		c-1.827-0.023-4.033,0.178-4.033,0.178l0.579-0.466c0.438-0.267,0.756-0.949,0.382-0.917l-1.793,0.244
		c-0.284,0.039-0.562,0.118-0.824,0.233l-3.048,1.35c-0.076,0.047-0.198,0.121-0.274,0.167l-3.941,3.156
		C875.332,438.659,875.669,440.071,878.394,440.841z"/>
	<path fill="#F6A9A9" d="M818.198,407.177c0,0-1.057,5.641-1.825,6.836s-1.242,2.899-1.221,4.671
		c0.02,1.574,0.296,2.574,2.596,2.595c2.566,0.022,2.04-0.095,2.04-0.095s0.171,3.074-0.257,4.439
		c-0.427,1.366-3.756,7.001-3.756,7.001s1.793,3.159,4.61,2.732s6.403-3.159,6.403-3.159l0.598-21.259c0,0-4.952-4.951-5.977-4.609
		C820.386,406.67,818.198,407.177,818.198,407.177z"/>
	<path fill="#DB9195" d="M824.544,419.635c0,0-1.758,3.11-4.801,4.929c0,0-0.021-1.438,0.002-3.36
		C819.745,421.203,821.478,421.158,824.544,419.635z"/>
	<path fill="#23233B" d="M822.947,420.757c0,0-1.366,5.236-0.911,7.741c0.455,2.504,0.455,5.919,3.87,7.968
		c3.415,2.05,9.79,2.96,13.433,0.228c3.643-2.731,4.781-8.879,1.594-11.839c-3.188-2.959-6.147-2.731-6.375-6.374
		s2.049-5.92-0.228-9.563s-4.098-3.87-6.603-4.098c-2.504-0.228-2.731-0.028-4.098-1.224s-4.013-2.049-5.891-1.366
		c-1.879,0.683-3.245,1.879-3.245,2.22c0,0.342-0.427,2.477,3.416,3.757c0,0,1.066,2.049,4.866,2.135
		c1.835,0.256,3.073,2.092,2.604,3.842S823.288,419.52,822.947,420.757z"/>
	<g>
		<path fill="#C0272D" d="M804.109,417.643l1.048,0.279c0.358,0.097,0.728-0.117,0.823-0.476l0.099-0.369
			c0.096-0.359-0.117-0.729-0.476-0.824l-1.048-0.28c-0.056-0.015-0.112,0.019-0.128,0.074l-0.392,1.468
			C804.021,417.57,804.054,417.628,804.109,417.643z"/>
		<linearGradient id="SVGID_9_" gradientUnits="userSpaceOnUse" x1="776.8379" y1="410.168" x2="797.3896" y2="410.168">
			<stop  offset="0" style="stop-color:#EE3F3A"/>
			<stop  offset="0.383" style="stop-color:#EB3F3A"/>
			<stop  offset="0.6438" style="stop-color:#E23D39"/>
			<stop  offset="0.8677" style="stop-color:#D33B37"/>
			<stop  offset="1" style="stop-color:#C63936"/>
		</linearGradient>
		<path fill="url(#SVGID_9_)" d="M790.136,407.882c2.948,1.597,7.254,3.209,7.254,3.209l-0.896,3.357l-0.132,0.495l-0.897,3.356
			c0,0-4.536-0.75-7.889-0.837c-3.509-0.091-10.737,2.61-10.737,2.61l2.58-9.657l0.133-0.495l2.58-9.657
			C782.131,400.264,787.049,406.21,790.136,407.882z"/>
		
			<ellipse transform="matrix(0.9661 0.2581 -0.2581 0.9661 132.137 -186.9417)" fill="#00414F" cx="778.054" cy="409.786" rx="3.761" ry="11.329"/>
		
			<ellipse transform="matrix(0.9661 0.2583 -0.2583 0.9661 132.2244 -187.0225)" fill="#FFFFFF" cx="777.955" cy="409.76" rx="2.987" ry="10.409"/>
		<g>
			<path fill="#FBB549" d="M775.991,409.943l0.354-1.322c0.487-1.825,2.362-2.909,4.188-2.422l0.479,0.128
				c-0.176,1.257-0.45,2.62-0.827,4.028c-0.376,1.408-0.817,2.727-1.292,3.903l-0.479-0.128
				C776.588,413.644,775.504,411.769,775.991,409.943z"/>
		</g>
		<path fill="#005679" d="M800.721,420.076c0,0-0.5,3.822-1.688,6.302c-1.188,2.48-3.511,3.326-3.511,3.326s-1.054,0.27-1.808-0.238
			c-0.753-0.508-1.72-1.521-2.023-2.278c-0.304-0.756-0.181-1.043,0.816-1.079c0.996-0.035,3.866-2.231,3.609-7.585L800.721,420.076
			z"/>
		<path fill="#00B2CF" d="M797.707,419.117c0.087,0.188,0.005,0.537-0.007,0.74c-0.072,1.229-0.193,2.48-0.633,3.642
			c-0.426,1.126-1.076,2.173-1.846,3.096c-0.664,0.797-1.544,1.443-2.588,1.605c-0.088,0.013-0.181,0.022-0.262-0.015
			c-0.062-0.027-0.108-0.08-0.152-0.132c-0.299-0.358-0.72-0.966-0.674-1.464c0.042-0.451,0.613-0.469,0.962-0.481
			c0.996-0.035,3.866-2.231,3.609-7.585c0.312,0.105,0.622,0.21,0.934,0.314c0.16,0.055,0.457,0.093,0.59,0.194
			C797.669,419.054,797.691,419.082,797.707,419.117z"/>
		<path fill="#EE5758" d="M794.752,418.996l5.563,1.486c1.906,0.51,3.864-0.623,4.373-2.529l0.524-1.961
			c0.509-1.906-0.623-3.864-2.529-4.373l-5.563-1.486c-0.294-0.079-0.597,0.096-0.675,0.391l-2.084,7.797
			C794.282,418.615,794.457,418.917,794.752,418.996z"/>
	</g>
	<path fill="#F6A9A9" d="M798.351,422.164c0.214,0.199,0.438,0.428,0.468,0.719c0.031,0.291-0.257,0.615-0.526,0.502
		c0.313,0.17,0.589,0.467,0.604,0.823c0.015,0.355-0.345,0.715-0.682,0.6c0.279,0.081,0.407,0.446,0.295,0.715
		s-0.401,0.432-0.69,0.465c-0.289,0.034-0.579-0.041-0.855-0.133c0.129,0.36-0.107,0.777-0.45,0.948
		c-0.343,0.17-0.754,0.137-1.119,0.021s-0.701-0.307-1.056-0.451c-0.353-0.144-0.737-0.25-1.009-0.518
		c-0.271-0.267-0.358-0.771-0.061-1.008c0.062-0.049,0.139-0.087,0.17-0.158c0.041-0.094-0.013-0.198-0.051-0.292
		c-0.212-0.516,0.088-1.179,0.615-1.359c-0.309-0.245-0.305-0.755-0.054-1.059c0.25-0.304,0.676-0.418,1.067-0.382
		c-0.29-0.192-0.41-0.604-0.268-0.922C795.371,419.286,797.802,421.65,798.351,422.164z"/>
	<path fill="#DB9195" d="M799.041,422.953c-0.079,0.018-0.235,0.41-0.278,0.472c-0.125,0.178-0.221,0.281-0.411,0.32
		c-0.325,0.066-1.04,0.076-1.334-0.647c-0.252-0.622-0.32-1.487-0.068-2.094c0.003-0.007,0.003-0.014,0.006-0.02
		c0.684,0.431,1.325,0.987,1.579,1.202c0.224,0.188,0.459,0.404,0.505,0.693C799.043,422.904,799.042,422.929,799.041,422.953z"/>
	<path fill="#F6A9A9" d="M797.57,422.226c-0.108,0.237-0.181,0.499-0.145,0.757s0.199,0.509,0.445,0.594
		c0.13,0.045,0.271,0.042,0.408,0.028c0.574-0.057,1.13-0.296,1.566-0.675c0.077-0.067-0.834,0.456-0.036,1.958
		c0.147,0.278,1.271,0.305,1.236-0.764c-0.005-0.157,0.218-1.232,0.276-1.379c0.102-0.255,0.02-0.554-0.141-0.776
		s-0.389-0.385-0.613-0.543C799.406,420.609,798.192,420.867,797.57,422.226z"/>
</g>
<g>
	<path fill="#F6A9A9" d="M453.78,380.767l-0.552-2.009c-0.125-0.401-0.549-1.242-1.186-1.199c-0.135,0.009-0.27,0.028-0.405,0.037
		c0.013,0.678,0.395,3.192,0.479,4.092c0.087,0.933,3.021,5.319,3.021,5.319l-1.196,2.688l4.222,0.912l0.551-2.631l1.207-2.355
		l1.781-5.535l-0.241-0.656c-0.062-0.169-0.174-0.314-0.322-0.417l-0.444-0.308l-0.398-1.136c-0.083-0.236-0.276-0.416-0.518-0.481
		l-0.737-0.175c-0.162-0.038-0.305-0.132-0.403-0.266l-0.429-0.581c-0.076-0.063-0.165-0.113-0.263-0.125
		c-0.532-0.067-1.21,0.201-1.21,0.201l0.586-5.101c0.035-0.335,0.016-0.673-0.057-1.002l-0.093-0.417
		c-0.088-0.399-0.598-0.521-0.857-0.205c-0.404,0.491-0.679,1.075-0.801,1.699l-1.048,5.442
		C454.468,376.556,453.802,378.291,453.78,380.767z"/>
	<path fill="#F48154" d="M452.214,417.994c-0.529-0.487-11.62-2.195-12.649-1.332c-5.503,4.618-29.013,17.735-29.013,17.735
		c-4.292,2.626,0.406,10.156,0.406,10.156c2.544,3.759,2.332,9.464,6.625,6.838l13.755-9.652c0.021-0.013,0.039-0.026,0.059-0.04
		c7.389-4.402,14.887-12.145,18.681-16.854c0.618-0.767,1.054-1.646,1.294-2.587C451.741,420.815,451.954,419.461,452.214,417.994z"
		/>
	<path fill="#F48154" d="M457.838,388.714l-2.4-0.755c-0.805-0.253-1.699,0.101-2.197,0.866
		c-3.465,5.33-10.989,23.252-10.989,23.252c-6.877,10.84-3.767,12.386,0.402,14l1.405,0.545c4.213,1.632,8.383-3.412,10.472-10.899
		c0,0,3.792-17.981,4.666-24.754C459.33,389.938,458.764,389.005,457.838,388.714z"/>
	<path fill="#F6A9A9" d="M381.759,606.845c0,0-0.207,0.504-0.059,1.544c0.149,1.041,2.343,4.433,4.46,5.25
		c2.118,0.817,3.195,2.303,3.195,2.303l-8.321-2.154l-4.346-5.535c0,0-0.767-2.145-0.173-3.928c0.595-1.783,1.403-3.851,1.403-3.851
		l5.668,2.634L381.759,606.845z"/>
	<path fill="#F6A9A9" d="M377.603,601.537c3.766-14.174,17.373-56.51,17.793-57.575c-0.433-3.945-3.776-20.025-2.972-29.722
		c1.061-12.804,30.303-9.126,29.373,0.874c-0.7,7.518-2.355,12.898-4.624,20.882c-1.615,5.682-4.608,15.746-4.643,15.834
		c-0.948,2.432-21.632,40.868-29.811,52.778c0,0-1.467-0.313-3.098-1.245S377.603,601.537,377.603,601.537z"/>
	<path fill="#CC7F7F" d="M407.794,501.541c-2.52,7.457-3.202,15.298-3.365,23.132c-0.165,7.912-1.267,8.011-0.052,15.83
		c0.985,6.344,3.753,13.713,4.395,18.932c3.888-7.132,6.911-13.817,9.528-22.641c2.366-7.973,4.911-22.699,4.944-34.267
		c0.006-2.026-0.108-3.979-0.366-5.817C417.833,498.268,412.804,499.873,407.794,501.541z"/>
	<path fill="#F6A9A9" d="M438.056,530.15c-0.795-9.069-25.163-8.722-23.696-2.078c1.833,8.305,5.99,17.592,7.437,20.261
		c-0.068,2.049-2.623,47.73-1.271,63.937c0,0,3.438,2.753,5.646,1.485c2.533-8.824,6.639-28.182,8.927-44.005
		c0.006-0.04,0.009-0.079,0.012-0.119l3.392-18.387C438.94,548.875,438.427,534.389,438.056,530.15z"/>
	<path fill="#0C232B" d="M394.05,537.739c11.278,2.476,23.099,4.749,34.448,2.312c3.814-0.819,7.646-1.995,11.421-3.299
		c0-5.281-0.337-10.553-0.598-15.039c-0.589-10.172-1.966-17.668-4.762-28.803c-2.429-9.677-6.444-16.677-15.203-14.802
		c0,0-0.202,0.044-0.487,0.104c-1.675-2.719-4.072-4.525-7.396-5.018c0,0-0.328-0.996-2.336-0.347
		c-3.6,1.165-19.348,8.37-20.265,22.699c-0.695,10.853,3.972,24.929,4.722,35.651C393.737,533.266,393.882,535.473,394.05,537.739z"
		/>
	<g>
		<path fill="#CC7F7F" d="M366.735,509.893l-4.251,3.551c-0.132,0.111-0.296,0.179-0.468,0.193l-1.351,0.122
			c-0.132,0.012-0.259,0.054-0.371,0.124l-0.692,0.429c-0.138,0.085-0.297,0.13-0.46,0.127l-1.718-0.026
			c-0.208-0.003-0.407-0.082-0.56-0.223l-0.37-0.339l9.274-5.345c0.411-0.236,0.935-0.091,1.166,0.323l0,0
			C367.131,509.185,367.048,509.631,366.735,509.893z"/>
		<path fill="#F6A9A9" d="M372.351,505.765l-0.813,2.973c-0.04,0.146-0.09,0.287-0.151,0.425l-2.454,5.563
			c-0.08,0.209-0.376,0.208-0.455-0.002l-0.203-0.545c-0.133-0.356-0.173-0.741-0.116-1.118l0.271-1.791l-0.669-0.882
			c-0.308-0.405-0.835-0.56-1.345-0.568l-1.235,0.563l-4.493,1.875c-0.435,0.182-0.9,0.283-1.371,0.298l-0.639,0.021
			c-0.204,0.006-0.295-0.253-0.133-0.377l4.964-3.767l5.666-4.231l2.723-1.173l1.461,1.293L372.351,505.765z"/>
		<path fill="#F48154" d="M401.338,453.514c2.637-5.196,1.717-11.214-2.054-13.44l-1.265-0.746
			c-3.771-2.227-8.967,0.181-11.604,5.377l-2.275,4.482c-0.013,0.025-0.022,0.051-0.035,0.075
			c-6.116,11.766-9.939,29.58-9.887,32.94c0.028,1.834,0.556,2.916,1.191,3.291s1.764,0.271,3.212-0.691
			c2.653-1.764,14.507-14.837,20.402-26.733c0.013-0.024,0.027-0.047,0.04-0.072L401.338,453.514z"/>
		<path fill="#F48154" d="M369.596,505.151l2.438,0.91c1.133,0.423,2.456-0.148,3.145-1.363c2.861-5.039,8.048-16.77,8.048-16.77
			c4.007-7.083,5.103-16.064,1.116-17.737l-1.34-0.563c-4.007-1.681-8.248,4.285-10.38,12.195c0,0-3.538,13.301-4.807,19.596
			C367.481,503.072,368.226,504.64,369.596,505.151z"/>
	</g>
	<path fill="#F6A9A9" d="M423.191,414.53c-0.097,3.077-2.722,9.351-4.458,11.33c-1.754,1.998-3.009,0.705-4.782-0.086
		c-4.229-1.887-7.7-6.162-7.523-11.773c0.177-5.612,5.445-11.616,10.075-11.471C421.131,402.677,423.369,408.918,423.191,414.53z"/>
	<path fill="#F6A9A9" d="M411.951,428.597l10.719-1.25c-3.383-5.052-1.458-10.945-1.458-10.945l-8.913-0.877
		C412.3,415.524,410.1,424.616,411.951,428.597z"/>
	<path fill="#EE3F3A" d="M385.356,612.905c-1.137-0.05-2.241-2.27-2.694-2.651c0.099,0.359-0.466,1.312-0.903,1.107
		c-1.845-1.255-1.551-4.936-1.554-4.979l0.006-0.016c0,0-1.368-2.315-2.26-2.588s-1.121,0.136-1.437,0.545
		c-0.365,0.472-0.55,2.077-0.55,2.077l-2.248,6.244c0,0,0.173,1.659,1.635,0.396l1.869-2.326c0.349,0.818,0.853,1.685,1.333,2.253
		c2.09,2.472,7.257,3.863,8.195,4.094C393.087,618.621,388.722,613.053,385.356,612.905z"/>
	<path fill="#F6A9A9" d="M420.316,608.902c0,0,0,2.217,0.102,4.078c0.103,1.877,1.12,3.49,1.12,3.49l5.342,4.582l8.582,0.49
		c0,0-1.347-1.247-3.583-1.636c-2.236-0.389-5.14-3.183-5.489-4.174s-0.293-1.356-0.293-1.356l1.079-4.345
		C427.176,610.032,421.606,610.412,420.316,608.902z"/>
	<path fill="#EE3F3A" d="M430.86,619.353c-1.125,0.172-3.138-2.231-3.657-2.519c0.167,0.333,0.914,1.463,0.261,1.186
		c-2.055-0.871-2.917-4.019-2.928-4.06l0.002-0.018c0,0-1.793-2.004-2.721-2.098c-0.928-0.093-1.073,0.353-1.302,0.814
		c-0.266,0.534-0.135,2.146-0.135,2.146l-0.987,6.563c0,0,0.494,1.594,1.681,0.069l1.379-2.646c0.502,0.734,1.165,1.486,1.748,1.95
		c2.532,2.017,7.871,2.373,8.836,2.417C439.557,623.45,434.19,618.841,430.86,619.353z"/>
	<path fill="#F48154" d="M390.16,487.627c0,0,11.328,11.933,43.7,1.961c0,0-7.343-30.362-6.338-34.296
		c1.004-3.935,4.171-4.768,3.294-7.792c-1.202-4.144-5.959-16.247-9.544-21.553c-1.674-1.984-7.592-0.478-11.238-1.972
		c0.301,2.131-0.894,3.862-3.015,3.647c-5.437-0.55-6.138-5.112-6.23-5.662c-10.119,3.439-14.272,10.577-13.919,14.083
		c0.857,8.495,7.664,30.018,7.653,33.813C394.511,474.636,390.16,487.627,390.16,487.627z"/>
	<path fill="#23233B" d="M396.116,432.921h11.455c3.137-4.605,8.278-7.714,10.554-12.918c0.482-1.102-0.88-3.568,0.245-3.961
		c-0.806-2.411,0.763-5.483,0.74-8.656c-0.02-2.689,7.369-7.016-3.277-7.403c-10.646-0.388-18.685,10.631-18.049,15.518
		c0.302,2.325-0.62,4.742-1.667,6.643V432.921z"/>
	<path fill="#23233B" d="M416.93,417.114c0,0,3.89-4.756,0.729-8.971c-3.16-4.215-9.108-7.811-19.336,1.483
		c-4.261,2.557-7.856,3.237-10.056,3.608c-2.2,0.372-6.136,1.89-4.216,11.062c1.919,9.173,2.911,11.528-2.776,16.624
		c-5.687,5.097-10.522,10.735,2.01,23.551c12.532,12.815,22.588,9.208,30.646,5.955c8.057-3.252,11.171-11.883,8.507-17.555
		c-2.664-5.671-2.078-9.085,0.624-13.941C425.785,434.034,426.504,423.528,416.93,417.114z"/>
	<path fill="#F6A9A9" d="M416.924,412.801c0.078,2.438,0.182,3.828,1.1,3.903c1.898,0.156,1.853-2.622,1.723-4.259
		c-0.13-1.637-0.873-2.736-1.791-2.664C417.038,409.854,416.866,410.964,416.924,412.801z"/>
</g>
<g>
	<g>
		<path fill="#56B89F" d="M118.299,557.459h42.6c0.98,0,1.775-0.794,1.775-1.774v-37.376c0-0.98-0.795-1.775-1.775-1.775h-42.6
			c-0.98,0-1.775,0.795-1.775,1.775v37.376C116.523,556.665,117.318,557.459,118.299,557.459z"/>
		<path fill="#8DD0BF" d="M116.119,520.356h46.833c0.754,0,1.365-0.611,1.365-1.365v-6.69c0-0.754-0.611-1.365-1.365-1.365h-46.833
			c-0.754,0-1.365,0.611-1.365,1.365v6.69C114.754,519.745,115.365,520.356,116.119,520.356z"/>
		<g>
			<rect x="145.202" y="520.421" fill="#489C9E" width="17.613" height="2.321"/>
			<rect x="116.666" y="520.421" fill="#489C9E" width="17.613" height="2.321"/>
			<rect x="134.279" y="510.354" fill="#8DD0BF" width="10.923" height="10.067"/>
			<rect x="134.279" y="522.742" fill="#56B89F" width="10.923" height="34.717"/>
			<rect x="134.279" y="520.421" fill="#489C9E" width="10.923" height="2.321"/>
		</g>
	</g>
	<g>
		<path fill="#707D83" d="M102.546,527.754l97.453,12.259c2.74,0.345,4.497,3.089,3.665,5.722l-10.666,33.726
			c-1.236,3.909-4.863,6.565-8.962,6.565h-73.116l-10.039-59.296 M98.983,524.253l0.565,3.932l10.203,59.644l1.168,1.226h73.116
			c5.446,0,10.208-3.488,11.85-8.681l10.666-33.726c0.668-2.114,0.366-4.398-0.83-6.266s-3.144-3.098-5.344-3.374l-97.453-12.259
			L98.983,524.253L98.983,524.253z"/>
		<path fill="#707D83" d="M148.136,611.021c-9.294,0-17.544-0.038-21.385-0.153c-5.411-0.161-9.548-2.005-12.294-5.479
			c-2.246-2.841-3.017-6.106-3.478-8.058l-0.061-0.256c-0.374-1.57-1.185-5.474-4.128-22.559
			c-3.982-23.114-8.939-51.881-10.737-60.771c-2.704-13.367-12.205-12.192-12.608-12.136l-0.536-3.578
			c0.14-0.021,3.458-0.503,7.176,1.173c3.373,1.52,7.761,5.151,9.515,13.824c1.808,8.94,6.77,37.735,10.756,60.873
			c2.817,16.348,3.735,20.876,4.083,22.335l0.063,0.262c0.864,3.655,2.471,10.458,12.359,10.753
			c11.378,0.341,61.962,0.003,62.472-0.001l0.024,3.618C189.017,610.871,166.538,611.021,148.136,611.021z"/>
		<circle fill="#0C232B" cx="130.093" cy="616.973" r="6.066"/>
		<circle fill="#0C232B" cx="178.57" cy="616.973" r="6.067"/>
		<path fill="#45565D" d="M85.524,502.156H72.078c-0.946,0-1.714-0.767-1.714-1.713v-1.217c0-0.946,0.768-1.714,1.714-1.714h13.446
			c0.946,0,1.714,0.768,1.714,1.714v1.217C87.238,501.39,86.47,502.156,85.524,502.156z"/>
	</g>
	<path fill="#E95F5C" d="M114.799,585.956h32.708c1.288,0,2.333-1.044,2.333-2.332v-23.833c0-1.287-1.044-2.332-2.333-2.332h-32.708
		c-1.288,0-2.332,1.045-2.332,2.333v23.832C112.467,584.912,113.511,585.956,114.799,585.956z"/>
	<path fill="#C8505A" d="M112.467,568.217v-8.426c0-1.287,1.044-2.332,2.332-2.332h32.708c1.288,0,2.333,1.045,2.333,2.332v8.426
		H112.467z"/>
	<path fill="#00ABC9" d="M157.451,586.025h24.684c1.072,0,1.941-0.869,1.941-1.941V559.4c0-1.072-0.869-1.941-1.941-1.941h-24.684
		c-1.072,0-1.941,0.869-1.941,1.941v24.684C155.509,585.156,156.378,586.025,157.451,586.025z"/>
	<path fill="#0A87B1" d="M183.729,567.729h-28.22V559.4c0-1.072,0.869-1.941,1.941-1.941h24.684c1.072,0,1.941,0.869,1.941,1.941
		v8.328C183.96,567.725,183.845,567.729,183.729,567.729z"/>
	<g>
		<g>
			<path fill="#707D83" d="M125.472,588.396c0.405,0,0.733-0.328,0.733-0.733v-33.177c0-0.405-0.328-0.733-0.733-0.733
				c-0.405,0-0.733,0.328-0.733,0.733v33.177C124.739,588.068,125.067,588.396,125.472,588.396z"/>
			<path fill="#707D83" d="M139.74,588.396c0.405,0,0.733-0.328,0.733-0.733v-33.177c0-0.405-0.328-0.733-0.733-0.733
				c-0.405,0-0.733,0.328-0.733,0.733v33.177C139.007,588.068,139.335,588.396,139.74,588.396z"/>
			<path fill="#707D83" d="M154.009,588.396c0.405,0,0.733-0.328,0.733-0.733v-33.177c0-0.405-0.328-0.733-0.733-0.733
				c-0.405,0-0.733,0.328-0.733,0.733v33.177C153.275,588.068,153.604,588.396,154.009,588.396z"/>
			<path fill="#707D83" d="M168.332,588.396c0.405,0,0.733-0.328,0.733-0.733v-33.177c0-0.405-0.328-0.733-0.733-0.733
				s-0.733,0.328-0.733,0.733v33.177C167.599,588.068,167.927,588.396,168.332,588.396z"/>
			<path fill="#707D83" d="M106.255,563.571h93.209c0.405,0,0.733-0.328,0.733-0.733c0-0.404-0.328-0.733-0.733-0.733h-93.209
				c-0.405,0-0.733,0.329-0.733,0.733C105.522,563.243,105.85,563.571,106.255,563.571z"/>
			<path fill="#707D83" d="M108.648,576.666h87.545c0.405,0,0.733-0.329,0.733-0.733c0-0.405-0.329-0.733-0.733-0.733h-87.545
				c-0.405,0-0.733,0.328-0.733,0.733C107.915,576.337,108.243,576.666,108.648,576.666z"/>
			<path fill="#707D83" d="M181.774,588.396c0.405,0,0.733-0.328,0.733-0.733v-33.177c0-0.405-0.328-0.733-0.733-0.733
				c-0.405,0-0.733,0.328-0.733,0.733v33.177C181.041,588.068,181.369,588.396,181.774,588.396z"/>
		</g>
	</g>
	<circle fill="#42B093" cx="178.57" cy="616.973" r="3.086"/>
	<circle fill="#42B093" cx="130.093" cy="616.973" r="3.086"/>
</g>
<g>
	<path fill="#CC7F7F" d="M314.608,454.061c-0.733,0.114-1.41,0.835-1.768,0.831c-0.256-0.002-0.551-0.054-0.821-0.117
		c-0.042,0.005-0.082,0.019-0.124,0.021c-1.256,0.081-2.554,0.154-3.651,0.395c-0.07,0.041-0.141,0.083-0.212,0.122
		c-0.846,0.957-1.594,2.549-1.594,2.549l-1.321,0.311l1.661,2.382c0,0,0.638-0.346,1.685-0.775c1.257-0.517,3.492-2.1,3.492-2.1
		l2.495-1.509c0.19-0.115,0.345-0.28,0.447-0.478l0.726-1.397c0.049-0.094,0.079-0.197,0.086-0.303l0.173-2.239
		C314.624,451.626,314.608,454.061,314.608,454.061z"/>
	<path fill="#CC7F7F" d="M311.905,465.657c-2.191-0.338-7.46-0.791-13.59-0.334c-0.021,0.001-0.041,0.001-0.062,0.003l-4.194,0.287
		c-1.456,0.1-2.921,0.328-4.307,0.657c-1.165,0.276-2.354-0.318-2.857-1.405c-0.444-0.958-0.951-2.005-1.513-3.119
		c-2.032,3.03-4.611,5.63-7.308,8.125c1.437,1.183,2.72,2.175,3.764,2.928l0.001,0.011c0.401,2.953,7.346,3.383,13.48,1.555
		l4.081-1.216c0.021-0.007,0.04-0.014,0.06-0.02c6.149-1.794,10.952-4.075,12.839-5.146L311.905,465.657z"/>
	<g>
		<path fill="#023149" d="M268.178,608.533l-2.971,11.047c0,0,3.28,2.255,6.384,0.422l2.103-9.858
			C273.693,610.144,268.015,608.281,268.178,608.533z"/>
		<path fill="#023149" d="M271.226,614.489c0,0-1.05,3.068,0.558,4.168c1.608,1.099,3.339,0.848,6.066,0.461
			c3.529-0.5,8.991,4.407,2.098,4.019c-1.021-0.058-6.664-0.5-9.317-2.664c-1.292-1.053-1.106-3.576-0.725-4.288L271.226,614.489z"
			/>
	</g>
	<path fill="#0C232B" d="M278.723,497.669c-7.102-6.959-14.981-10.631-22.24-4.769c0,0-2.059,1.663-2.061,1.664
		c-10.552,8.521,18.486,52.078,24.252,59.655c7.335,9.641,20.581,22.423,24.73,15.928c4.82-7.544,4.191-14.596,4.191-15.928
		c0-10.688-4.774-20.321-9.569-28.979C294.039,518.042,286.896,505.679,278.723,497.669z"/>
	<path fill="#0C232B" d="M273.084,615.452c5.533-6.044,16.435-19.764,22.912-31.956c0.017-0.031,0.036-0.061,0.053-0.092
		l8.488-15.098c3.1-7.463,0.534-11.251-3.331-13.304c0,0-15.391,6.102-15.408,6.133c-6.697,12.159-17.956,45.395-19.946,53.255
		C265.853,614.391,270.067,617.902,273.084,615.452z"/>
	<g>
		<path fill="#023149" d="M243.025,609.174l-4.358,10.576c0,0,2.965,2.656,6.277,1.234l3.345-9.509
			C248.29,611.476,242.896,608.903,243.025,609.174z"/>
		<path fill="#023149" d="M244.617,615.044c0,0-0.87,3.124,0.798,4.128c1.669,1.005,3.383,0.653,6.083,0.108
			c3.493-0.704,9.231,3.879,2.327,3.89c-1.021,0.002-6.681-0.111-9.456-2.118c-1.351-0.977-1.312-3.506-0.972-4.239L244.617,615.044
			z"/>
	</g>
	<path fill="#2E4247" d="M246.486,618.609c6.393-6.786,19.233-22.159,27.411-35.764c0.021-0.034,0.044-0.066,0.066-0.102l3.85-6.314
		c4.463-7.318,5.152-15.036,1.54-17.237l-1.211-0.738c-3.612-2.201-13.437-1.073-13.458-1.038
		c-16.976,27.507-20.988,48.012-24.06,56.743C240.625,614.159,243.891,618.721,246.486,618.609z"/>
	<path fill="#2E4247" d="M273.434,492.186c-4.557-8.837-15.443-6.754-24.176-3.468c0,0-2.477,0.933-2.479,0.934
		c-12.694,4.776-7.922,20.674-3,32.39c3.728,8.874,18.839,44.732,24.835,49.574c2.373,1.915,9.023,1.936,10.269,1.467
		c1.247-0.469,2.623-5.17,3.144-8.174c1.629-9.388,0.591-22.848-0.419-32.693C280.769,524.041,278.679,502.356,273.434,492.186z"/>
	<path fill="#F6A9A9" d="M265.829,413.359c3.546,3.593,5.387,11.553,3.959,12.736c-3.006,2.489-11.146,1.447-14.691-2.146
		c-3.546-3.594-4.018-8.877-1.054-11.802S262.284,409.766,265.829,413.359z"/>
	<path fill="#F6A9A9" d="M266.726,433.257l-6.588,1.718l-2.61-10.006l7.715-1.561C265.243,423.408,264.664,429.17,266.726,433.257z"
		/>
	<path fill="#F6A9A9" d="M264.908,414.237c0,0,3.375,0.69,4.423,0.535c1.004-0.149,1.573,0.104,0.978,1.424
		c-0.595,1.319-2.004,2.137-2.004,2.137L264.908,414.237z"/>
	<path fill="#E5AC48" d="M283.09,468.437c-1.183,0.894-2.402,1.737-3.646,2.542c-4.781-3.793-11.912-10.259-17.222-16.89
		c2.237-5.937,4.525-11.853,6.94-17.717c0.306,0.34,0.605,0.693,0.887,1.075l2.903,3.94c0.016,0.021,0.03,0.044,0.045,0.066
		c5.592,7.444,11.112,17.37,13.949,23.519C285.726,466.199,284.475,467.39,283.09,468.437z"/>
	<path fill="#FCC14B" d="M257.197,430.707c1.076-0.552,0.227-1.469,1.104-1.4l7.26,1.431c2.289,0.127,1.052,1.249,1.397,1.603
		c9.269,9.474,8.321,35.514,10.176,57.777c0.036,0.426,0.047,0.842,0.031,1.243c0.263,0.724,0.332,1.47,0.173,2.229
		c-0.956,4.567-9.923,8.081-20.727,7.823c-9.64-0.229-17.628-3.353-19.457-7.444c-0.005-0.012-0.011-0.023-0.017-0.035
		c-0.041-0.094-0.078-0.188-0.112-0.281c-0.396-1.031-0.511-2.3-0.377-3.627c0.859-8.546,1.153-16.726,2.91-23.851
		C245.687,433.396,256.827,430.609,257.197,430.707z"/>
	<path fill="#E5AC48" d="M277.135,490.117c-0.879-10.56-1.13-21.966-2.138-32.054c-1.867-0.437-3.732-0.875-5.596-1.319
		c-5.279-1.257-7.055-13.564-12.432-14.532c-4.263,16.15,4.593,35.726,13.813,44.478c2.02,1.918,4.204,3.598,6.507,5.088
		c-0.036-0.14-0.072-0.279-0.123-0.417C277.182,490.959,277.17,490.543,277.135,490.117z"/>
	<path fill="#023149" d="M257.001,424.558c0,0,0.949-0.41,0.455-2.149c-0.365-1.282,0.366-2.748,0.935-3.06
		c0.569-0.311,2.149-1.102,1.87-3.628c-0.102-0.913-0.782-2.148-0.329-3.048c0.137-0.271,0.385-0.468,0.639-0.636
		c1.774-1.171,4.197-1.245,5.659-2.909c1.419-1.615,0.401-4.273-1.633-4.393c-2.034-0.119-3.507,3.784-5.336,3.828
		c-0.932,0.022-1.589-0.615-2.411-0.917c-0.98-0.361-2.159-0.254-3.141,0.033c-2.143,0.626-3.953,2-4.479,4.242
		c-0.308,1.314-0.518,2.735-1.76,3.516c-0.655,0.412-1.387,0.687-2.054,1.078c-1.174,0.689-2.148,1.776-2.53,3.083
		c-0.877,3.007,1.879,5.427,4.594,5.98c2.302,0.469,2.366,1.904,2.585,3.062c0.399,2.103,3.703,4.232,6.588,1.124
		c0.908,0.575,2.086-0.097,2.086-0.097l0.226-2.51C258.965,427.158,257.404,425.793,257.001,424.558z"/>
	
		<ellipse transform="matrix(-0.966 0.2584 -0.2584 -0.966 614.2717 759.8869)" fill="#F6A9A9" cx="257.197" cy="420.313" rx="1.498" ry="2.673"/>
	<path fill="#F6A9A9" d="M316.478,474.139c-4.195,0.455-18.062-0.855-18.062-0.855c-2.653-0.34-5.532-0.412-8.256-0.211
		c-3.39,0.25-6.482-1.911-7.324-5.204c-1.865-7.304-4.735-16.28-8.34-23.42c-0.013-0.028-0.024-0.057-0.038-0.084l-2.476-5.019
		c-2.87-5.817-8.526-8.878-12.634-6.837l-1.377,0.684c-4.107,2.041-5.11,8.411-2.24,14.228l2.476,5.019
		c0.014,0.028,0.03,0.054,0.044,0.081c5.549,11.51,15.948,24.366,20.525,29.012c1.508,4.468,13.309,5.063,21.565,2.756l4.76-1.329
		c0.022-0.006,0.043-0.013,0.065-0.02c6.003-1.633,10.371-5.229,11.729-6.045L316.478,474.139z"/>
	<path fill="#FCC14B" d="M269.934,471.01c-4.183-5.531-8.655-12.211-11.682-18.49c-0.014-0.027-0.03-0.053-0.044-0.081l-2.476-5.019
		c-2.87-5.816-1.867-12.187,2.24-14.228l1.377-0.684c4.107-2.041,9.764,1.02,12.634,6.837l2.476,5.019
		c0.014,0.027,0.025,0.056,0.038,0.084c2.531,5.014,4.7,10.936,6.414,16.548C276.817,463.746,273.2,467.279,269.934,471.01z"/>
	<g>
		<path fill="#E95F5C" d="M321.493,471.621h-35.27c-0.812,0-1.47-0.658-1.47-1.47v-30.944c0-0.812,0.658-1.47,1.47-1.47h35.27
			c0.812,0,1.47,0.658,1.47,1.47v30.944C322.963,470.963,322.305,471.621,321.493,471.621z"/>
		<path fill="#C8505A" d="M323.297,440.902h-38.774c-0.625,0-1.131-0.506-1.131-1.13v-5.54c0-0.624,0.506-1.13,1.131-1.13h38.774
			c0.625,0,1.13,0.506,1.13,1.13v5.54C324.428,440.396,323.922,440.902,323.297,440.902z"/>
		<g>
			<rect x="284.636" y="440.956" opacity="0.75" fill="#C8505A" width="14.583" height="1.921"/>
			<rect x="308.263" y="440.956" opacity="0.75" fill="#C8505A" width="14.583" height="1.921"/>
			<g>
				<rect x="299.219" y="433.227" fill="#C8505A" width="9.043" height="7.729"/>
				<rect x="299.219" y="442.877" fill="#E95F5C" width="9.043" height="28.744"/>
				<rect x="299.219" y="440.956" opacity="0.75" fill="#C8505A" width="9.043" height="1.921"/>
			</g>
		</g>
	</g>
	<path fill="#F6A9A9" d="M315.74,474.449c0,0,0.476-2.829,1.372-3.655c0.301-0.277,0.534-0.516,0.721-0.679
		c0.272-0.236,0.471-0.543,0.583-0.885l0.572-1.741c0,0,0.853-0.046,0.91,0.793c0.029,0.422-0.232,1.126-0.375,1.476
		c-0.042,0.104,0.029,0.218,0.142,0.221c0.339,0.012,0.982,0.013,1.444-0.111c0.346-0.093,0.804-0.969,1.479-1.276
		c0,0-0.64-2.349,0.607-2.564l0.436,2.203c0.021,0.104,0.02,0.211-0.002,0.314l-0.324,1.541c-0.045,0.218-0.15,0.419-0.303,0.58
		l-1.997,2.124c0,0-1.728,2.126-2.799,2.961c-0.893,0.695-1.415,1.2-1.415,1.2l-2.24-1.848L315.74,474.449z"/>
</g>
<path fill="#4C98C9" d="M937.642,628.924H95.748c-1.646,0-2.993-1.347-2.993-2.992l0,0c0-1.646,1.347-2.992,2.993-2.992h841.894
	c1.646,0,2.993,1.347,2.993,2.992l0,0C940.635,627.577,939.288,628.924,937.642,628.924z"/>
<g>
	<g>
		<path opacity="0.29" fill="#0488B2" d="M651.219,270.089l-11.33-10.257l-19.935,3.867l-6.674,13.749l8.407,63.979l42.977-6.029
			L651.219,270.089z M632.416,274.626c-2.131,0.414-4.193-0.979-4.606-3.109s0.979-4.193,3.109-4.606
			c2.131-0.414,4.193,0.979,4.606,3.109C635.939,272.15,634.547,274.213,632.416,274.626z"/>
		<g>
			<path fill="#E95F5C" d="M648.403,271.205l-9.17-12.227h-20.306l-9.17,12.227l-3.93,64.409h46.505L648.403,271.205z
				 M629.081,272.078c-2.171,0-3.931-1.759-3.931-3.93c0-2.171,1.76-3.93,3.931-3.93c2.17,0,3.93,1.759,3.93,3.93
				C633.011,270.319,631.251,272.078,629.081,272.078z"/>
		</g>
	</g>
	<g>
		<g>
			<path fill="#FFFFFF" d="M620.836,288.906c3.302,0,5.979,2.677,5.979,5.979c0,3.347-2.678,5.935-5.979,5.935
				c-3.347,0-5.935-2.588-5.935-5.935C614.901,291.583,617.489,288.906,620.836,288.906z M620.836,297.205
				c1.294,0,2.365-0.981,2.365-2.32c0-1.294-1.071-2.365-2.365-2.365c-1.339,0-2.32,1.071-2.32,2.365
				C618.516,296.224,619.497,297.205,620.836,297.205z M623.736,317.73c-0.357,0.714-1.294,0.937-2.053,0.535
				c-0.803-0.357-1.16-1.293-0.803-2.008l12.895-26.325c0.357-0.714,1.339-0.937,2.098-0.535c0.758,0.401,1.115,1.294,0.758,2.008
				L623.736,317.73z M636.631,306.932c3.302,0,5.979,2.677,5.979,5.979c0,3.346-2.678,5.934-5.979,5.934
				c-3.346,0-5.934-2.588-5.934-5.934C630.697,309.609,633.285,306.932,636.631,306.932z M636.631,315.231
				c1.294,0,2.365-0.982,2.365-2.32c0-1.294-1.071-2.365-2.365-2.365c-1.338,0-2.32,1.071-2.32,2.365
				C634.311,314.25,635.293,315.231,636.631,315.231z"/>
		</g>
	</g>
</g>
<path fill="#ECACC4" d="M629.395,266.329L629.395,266.329c0.371,0,0.674-0.303,0.674-0.673v-52.531c0-0.371-0.303-0.673-0.674-0.673
	l0,0c-0.37,0-0.673,0.303-0.673,0.673v52.531C628.722,266.026,629.024,266.329,629.395,266.329z"/>
</svg>
