<?xml version="1.0" encoding="utf-8"?>
<!-- Generator: Adobe Illustrator 16.0.0, SVG Export Plug-In . SVG Version: 6.00 Build 0)  -->
<!DOCTYPE svg PUBLIC "-//W3C//DTD SVG 1.1//EN" "http://www.w3.org/Graphics/SVG/1.1/DTD/svg11.dtd">
<svg version="1.1" id="Layer_1" xmlns="http://www.w3.org/2000/svg" xmlns:xlink="http://www.w3.org/1999/xlink" x="0px" y="0px"
	 width="804px" height="579.5px" viewBox="34.5 0 804 579.5" enable-background="new 34.5 0 804 579.5" xml:space="preserve">
<g id="design">
	<g>
		<path opacity="0.3" fill="#CBB1FF" enable-background="new    " d="M722.544,302.764c-28.417-35.629-82.716-40.792-116.828-70.981
			c-36.941-32.696-46.55-78.891-78.288-116.656c-13.232-15.75-28.315-38.07-46.321-48.376c-16.219-9.283-33.717-17.382-53.18-18.954
			c-24.391-1.969-50.886,7.001-71.092,24.07c-19.882,16.795-34.196,41.096-57.248,52.411c-28.948,14.209-60.048,4.035-88.322,1.968
			c-33.056-2.417-67.349,16.714-78.589,48.951c-5.04,14.453-5.057,30.248-2.741,45.378c2.359,15.41,7.354,31.023,17.123,43.4
			c10.317,13.075,23.938,23.04,32.995,37.266c10.74,16.875,9.876,39.648,6.345,60.945c-3.53,21.301-9.429,42.899-7.665,63.729
			c2.595,30.613,23.06,56.828,51.614,66.115c36.661,11.926,79.527-3.088,118.496-18.578c34.891-13.869,75.193-30.109,111.612-27.51
			c38.413,2.741,70.079,28.153,106.584,36.6c46.718,10.809,103.426-4.643,139.269-43.379
			C742.151,400.426,751.442,338.994,722.544,302.764z"/>
		<g>
			<g>
				<g>
					<g>
						<g>
							<path fill="#D4CCFF" d="M640.188,289.68l-0.52-0.779l5.07-3.463l0.537,0.768C643.625,287.393,641.912,288.563,640.188,289.68
								z"/>
						</g>
						<g>
							<path fill="#D4CCFF" d="M582.546,304.584l2.384-14.412l0.985-2.139c6.245-13.553,12.144-26.354,19.146-37.575l0.996-1.598
								l-0.133,1.878c-0.278,3.935-0.377,7.401-0.296,10.369c0.451-3.9,1.192-9.482,2.244-14.911l0.072-0.173
								c7.522-11.107,15.779-19.687,25.983-27l1.109-0.796l-0.391,1.31c-1.515,5.099-3.864,13.71-4.864,21.041
								c1.85-6.532,5.333-17.819,9.1-24.832l0.062-0.108l0.104-0.065c1.149-0.73,2.05-1.316,2.803-1.804
								c3.521-2.291,3.813-2.477,10.879-5.289l0.952-0.378l-0.338,0.968c-1.721,4.937-3.766,11.382-4.932,17.095
								c1.743-4.922,4.617-12.558,7.746-18.874l0.082-0.166l0.175-0.065c1.544-0.573,3.722-1.422,6.222-2.397
								c7.108-2.771,16.843-6.565,22.096-7.965l0.369-0.098l0.171,0.342c0.205,0.412,4.957,10.376-2.121,33.447l-0.057,0.178
								l-0.159,0.092c-1.558,0.893-3.179,1.952-4.896,3.073c-2.248,1.467-4.645,3.03-7.346,4.539
								c2.764-1.11,6.228-2.569,10.523-4.483l0.987-0.439l-0.354,1.021c-0.706,2.033-1.358,4.133-2.055,6.354
								c-2.457,7.878-4.998,16.023-10.253,22.76l-0.107,0.138l-0.17,0.033c-1.708,0.343-3.385,0.476-5.508,0.644
								c-2.547,0.201-5.735,0.455-10.382,1.186c0.021,0,0.044,0,0.066,0c4.205,0,9.08,0.454,11.813,2.266l0.457,0.303l-0.371,0.402
								c-4.063,4.43-10.832,11.096-20.008,17.708l-0.167,0.076l-11.906,2.783l8.143-0.125l-1.373,0.887
								c-13.102,8.453-26.163,13.395-38.834,14.676L582.546,304.584z M585.806,290.506l-2.152,13.135l17.499-0.121
								c12.028-1.219,24.479-5.809,36.979-13.641l-13.55,0.207l20.288-4.742c8.786-6.342,15.343-12.728,19.399-17.104
								c-5.413-2.98-18.354-1.389-18.488-1.37l-0.152-0.924c9.143-1.877,14.295-2.283,18.063-2.581
								c2.021-0.159,3.63-0.287,5.227-0.596c5.078-6.576,7.576-14.582,9.991-22.324c0.58-1.862,1.135-3.641,1.716-5.367
								c-15.266,6.751-19.443,7.539-19.617,7.569l-0.232-0.902c7.067-2.47,12.218-5.832,16.76-8.796
								c1.67-1.091,3.25-2.122,4.779-3.009c6.162-20.199,3.021-30.285,2.271-32.23c-5.287,1.465-14.688,5.131-21.604,7.825
								c-2.413,0.941-4.527,1.765-6.063,2.338c-4.979,10.101-9.293,23.504-9.336,23.639l-1.313,4.095l0.399-4.28
								c0.601-6.395,3.229-15.093,5.459-21.597c-6.064,2.422-6.478,2.688-9.765,4.825c-0.731,0.476-1.604,1.042-2.707,1.743
								c-5.446,10.208-10.297,29.438-10.347,29.63l-1.037,4.146l0.114-4.271c0.205-7.569,3.054-18.557,4.981-25.211
								c-9.58,7.054-17.422,15.311-24.594,25.879c-1.868,9.678-2.743,19.812-2.752,19.914l-0.357,4.188l-0.572-4.165
								c-0.479-3.492-0.556-8.146-0.224-13.852c-6.546,10.783-12.169,22.985-18.104,35.868L585.806,290.506z"/>
						</g>
					</g>
				</g>
				<g>
					<path fill="#D4CCFF" d="M583.323,304.521l-0.45-0.82c42.921-23.563,88.814-91.291,89.275-91.971l0.774,0.523
						C672.466,212.936,626.444,280.85,583.323,304.521z"/>
				</g>
			</g>
			<g>
				<g>
					<g>
						<g>
							<path fill="#A796FF" d="M295.353,166.112c-0.054,0-0.106-0.01-0.159-0.033c-0.208-0.089-0.308-0.33-0.219-0.539
								c0.268-0.624,0.519-1.252,0.752-1.887c0.079-0.213,0.316-0.321,0.527-0.242c0.213,0.079,0.321,0.315,0.242,0.527
								c-0.24,0.647-0.496,1.288-0.769,1.924C295.664,166.018,295.513,166.112,295.353,166.112z"/>
						</g>
					</g>
					<g>
						<g>
							<path fill="#A796FF" d="M215.205,235.694c-0.946-0.001-1.891-0.009-2.833-0.024c-0.229-0.005-0.407-0.191-0.403-0.418
								c0.004-0.225,0.178-0.41,0.417-0.402c1.361,0.021,2.727,0.029,4.094,0.02c0.001,0,0.003,0,0.003,0
								c0.227,0,0.408,0.182,0.41,0.407c0.001,0.228-0.181,0.411-0.405,0.414C216.059,235.693,215.632,235.694,215.205,235.694z
								 M220.586,235.614c-0.221,0-0.403-0.176-0.41-0.397c-0.006-0.228,0.172-0.416,0.398-0.422
								c1.365-0.039,2.729-0.093,4.094-0.156c0.223-0.029,0.419,0.164,0.43,0.391c0.013,0.227-0.164,0.418-0.391,0.428
								c-1.369,0.066-2.739,0.119-4.109,0.158C220.595,235.614,220.591,235.614,220.586,235.614z M208.276,235.541
								c-0.008,0-0.015,0-0.021-0.001c-1.395-0.063-2.777-0.147-4.109-0.253c-0.226-0.018-0.395-0.215-0.377-0.439
								c0.02-0.227,0.225-0.397,0.441-0.377c1.323,0.104,2.697,0.188,4.083,0.25c0.227,0.011,0.401,0.203,0.391,0.429
								C208.676,235.369,208.495,235.541,208.276,235.541z M228.787,235.228c-0.215,0-0.396-0.166-0.409-0.385
								c-0.014-0.226,0.158-0.42,0.384-0.435c1.368-0.085,2.731-0.181,4.09-0.284c0.229-0.006,0.425,0.154,0.44,0.379
								c0.017,0.225-0.152,0.422-0.378,0.439c-1.361,0.104-2.729,0.197-4.1,0.283C228.804,235.228,228.795,235.228,228.787,235.228z
								 M200.096,234.894c-0.016,0-0.031,0-0.047-0.002c-1.392-0.159-2.766-0.346-4.082-0.553c-0.224-0.037-0.377-0.246-0.342-0.471
								c0.035-0.225,0.244-0.375,0.469-0.341c1.308,0.206,2.668,0.39,4.049,0.549c0.227,0.026,0.389,0.229,0.36,0.455
								C200.479,234.741,200.302,234.894,200.096,234.894z M191.994,233.616c-0.027,0-0.055-0.002-0.083-0.008
								c-1.37-0.281-2.722-0.595-4.019-0.931c-0.22-0.059-0.351-0.281-0.294-0.502c0.059-0.219,0.282-0.349,0.5-0.293
								c1.282,0.332,2.62,0.644,3.978,0.92c0.222,0.047,0.365,0.264,0.317,0.485C192.355,233.482,192.185,233.616,191.994,233.616z
								 M184.058,231.546c-0.042,0-0.084-0.007-0.126-0.021c-1.328-0.429-2.635-0.896-3.887-1.39
								c-0.21-0.084-0.314-0.321-0.23-0.533c0.082-0.211,0.319-0.314,0.531-0.229c1.235,0.487,2.526,0.949,3.837,1.372
								c0.218,0.07,0.334,0.301,0.267,0.516C184.393,231.435,184.23,231.546,184.058,231.546z M176.435,228.53
								c-0.06,0-0.118-0.013-0.177-0.04c-1.251-0.598-2.481-1.241-3.661-1.916c-0.195-0.111-0.265-0.363-0.15-0.559
								c0.111-0.198,0.361-0.267,0.56-0.152c1.16,0.664,2.373,1.299,3.606,1.887c0.205,0.098,0.292,0.342,0.192,0.547
								C176.735,228.443,176.588,228.53,176.435,228.53z M169.324,224.45c-0.08,0-0.161-0.022-0.231-0.071
								c-1.138-0.777-2.254-1.609-3.314-2.473c-0.178-0.143-0.202-0.4-0.062-0.577c0.146-0.175,0.402-0.204,0.577-0.06
								c1.045,0.85,2.142,1.668,3.262,2.432c0.188,0.128,0.235,0.383,0.107,0.571C169.583,224.386,169.455,224.45,169.324,224.45z
								 M162.962,219.282c-0.103,0-0.205-0.038-0.285-0.114c-0.697-0.671-1.385-1.372-2.044-2.084
								c-0.272-0.297-0.546-0.598-0.813-0.901c-0.15-0.17-0.136-0.429,0.034-0.58c0.171-0.15,0.432-0.134,0.579,0.036
								c0.267,0.299,0.532,0.595,0.805,0.888c0.646,0.701,1.323,1.391,2.01,2.05c0.164,0.157,0.168,0.417,0.011,0.581
								C163.177,219.239,163.07,219.282,162.962,219.282z M157.536,213.136c-0.125,0-0.249-0.057-0.33-0.165
								c-0.84-1.127-1.622-2.28-2.321-3.428c-0.118-0.194-0.057-0.447,0.137-0.564c0.192-0.119,0.446-0.057,0.563,0.136
								c0.688,1.127,1.454,2.259,2.279,3.366c0.135,0.182,0.098,0.438-0.084,0.574C157.707,213.11,157.621,213.136,157.536,213.136z
								 M153.286,206.129c-0.154,0-0.301-0.086-0.372-0.234c-0.602-1.271-1.12-2.567-1.546-3.853
								c-0.071-0.215,0.045-0.447,0.261-0.519c0.215-0.073,0.447,0.045,0.52,0.261c0.415,1.253,0.924,2.519,1.51,3.759
								c0.097,0.205,0.009,0.449-0.196,0.546C153.404,206.116,153.344,206.129,153.286,206.129z M150.726,198.355
								c-0.191,0-0.364-0.137-0.4-0.334c-0.254-1.349-0.416-2.738-0.482-4.131c-0.011-0.226,0.164-0.418,0.392-0.429
								c0.216-0.035,0.419,0.163,0.43,0.391c0.063,1.354,0.222,2.706,0.469,4.017c0.042,0.223-0.104,0.438-0.327,0.479
								C150.776,198.353,150.751,198.355,150.726,198.355z M150.327,190.181c-0.011,0-0.023,0-0.034-0.001
								c-0.226-0.019-0.394-0.217-0.375-0.443c0.113-1.356,0.315-2.738,0.601-4.107c0.048-0.222,0.262-0.37,0.485-0.318
								c0.222,0.046,0.364,0.264,0.318,0.485c-0.278,1.337-0.477,2.686-0.586,4.01C150.718,190.019,150.538,190.181,150.327,190.181
								z M151.984,182.161c-0.042,0-0.085-0.007-0.13-0.021c-0.215-0.07-0.331-0.303-0.261-0.518
								c0.427-1.296,0.936-2.595,1.505-3.863c0.095-0.206,0.335-0.299,0.543-0.206c0.206,0.093,0.3,0.337,0.206,0.542
								c-0.56,1.242-1.056,2.515-1.475,3.783C152.317,182.052,152.157,182.161,151.984,182.161z M155.346,174.687
								c-0.067,0-0.14-0.018-0.205-0.054c-0.194-0.114-0.264-0.365-0.149-0.561c0.684-1.185,1.436-2.358,2.234-3.486
								c0.134-0.184,0.389-0.229,0.572-0.096c0.187,0.13,0.229,0.387,0.097,0.572c-0.784,1.105-1.522,2.256-2.193,3.42
								C155.626,174.613,155.487,174.687,155.346,174.687z M160.09,168.002c-0.095,0-0.188-0.033-0.268-0.099
								c-0.171-0.147-0.191-0.406-0.043-0.579c0.896-1.042,1.854-2.056,2.844-3.011c0.163-0.156,0.423-0.153,0.58,0.011
								c0.157,0.163,0.151,0.422-0.01,0.58c-0.974,0.937-1.911,1.931-2.792,2.955C160.32,167.954,160.206,168.002,160.09,168.002z
								 M165.989,162.309c-0.12,0-0.239-0.052-0.32-0.153c-0.142-0.177-0.115-0.435,0.062-0.577c1.06-0.853,2.175-1.683,3.315-2.468
								c0.188-0.128,0.442-0.08,0.571,0.106c0.128,0.187,0.081,0.442-0.106,0.571c-1.125,0.773-2.223,1.59-3.264,2.431
								C166.17,162.279,166.079,162.309,165.989,162.309z M297.364,160.299c-0.036,0-0.072-0.005-0.107-0.015
								c-0.219-0.059-0.348-0.285-0.289-0.503c0.352-1.296,0.647-2.631,0.884-3.969c0.039-0.223,0.251-0.377,0.477-0.333
								c0.223,0.039,0.373,0.252,0.333,0.475c-0.24,1.362-0.543,2.721-0.899,4.041C297.71,160.179,297.544,160.299,297.364,160.299z
								 M172.743,157.661c-0.143,0-0.278-0.073-0.354-0.203c-0.112-0.195-0.049-0.447,0.146-0.562
								c1.168-0.685,2.39-1.346,3.631-1.969c0.204-0.101,0.449-0.021,0.55,0.183c0.104,0.202,0.021,0.449-0.183,0.551
								c-1.227,0.614-2.433,1.268-3.583,1.943C172.885,157.642,172.814,157.661,172.743,157.661z M180.072,153.977
								c-0.159,0-0.312-0.093-0.377-0.249c-0.091-0.208,0.007-0.45,0.215-0.539c1.24-0.532,2.531-1.044,3.835-1.524
								c0.213-0.076,0.449,0.031,0.524,0.244c0.078,0.213-0.029,0.449-0.242,0.527c-1.291,0.474-2.567,0.981-3.793,1.508
								C180.181,153.967,180.127,153.977,180.072,153.977z M298.794,152.226c-0.012,0-0.024,0-0.037-0.001
								c-0.226-0.02-0.392-0.219-0.372-0.445c0.119-1.338,0.185-2.706,0.19-4.065c0.001-0.226,0.185-0.408,0.41-0.408
								c0.001,0,0.002,0,0.002,0c0.227,0.001,0.408,0.186,0.407,0.413c-0.007,1.382-0.07,2.772-0.191,4.133
								C299.184,152.066,299.004,152.226,298.794,152.226z M187.771,151.137c-0.175,0-0.336-0.112-0.392-0.287
								c-0.068-0.216,0.052-0.447,0.271-0.514c1.272-0.401,2.604-0.789,3.955-1.152c0.22-0.06,0.444,0.07,0.505,0.289
								c0.059,0.219-0.071,0.444-0.29,0.502c-1.343,0.361-2.661,0.746-3.926,1.143C187.854,151.131,187.813,151.137,187.771,151.137
								z M195.696,149c-0.188,0-0.356-0.128-0.4-0.319c-0.05-0.221,0.088-0.441,0.309-0.491c1.305-0.299,2.658-0.586,4.027-0.854
								c0.227-0.048,0.438,0.1,0.482,0.324c0.043,0.222-0.104,0.438-0.324,0.48c-1.362,0.267-2.708,0.552-4.002,0.849
								C195.757,148.997,195.726,149,195.696,149z M203.746,147.401c-0.194,0-0.367-0.139-0.403-0.336
								c-0.041-0.223,0.107-0.437,0.33-0.478c1.336-0.244,2.683-0.494,4.025-0.77c0.225-0.044,0.438,0.099,0.482,0.32
								c0.045,0.222-0.098,0.439-0.317,0.485c-1.351,0.275-2.702,0.527-4.043,0.772C203.795,147.398,203.77,147.401,203.746,147.401
								z M211.781,145.713c-0.185,0-0.351-0.123-0.397-0.308c-0.057-0.219,0.075-0.443,0.294-0.5
								c1.424-0.369,2.698-0.753,3.896-1.176c0.214-0.075,0.446,0.037,0.521,0.25c0.076,0.214-0.036,0.448-0.25,0.524
								c-1.218,0.431-2.514,0.822-3.961,1.197C211.85,145.708,211.814,145.713,211.781,145.713z M298.837,144.028
								c-0.212,0-0.392-0.164-0.409-0.379c-0.103-1.344-0.262-2.704-0.473-4.042c-0.036-0.224,0.118-0.434,0.341-0.469
								c0.223-0.035,0.434,0.118,0.469,0.341c0.214,1.36,0.376,2.742,0.481,4.108c0.017,0.226-0.152,0.423-0.378,0.44
								C298.859,144.028,298.848,144.028,298.837,144.028z M219.486,142.927c-0.15,0-0.294-0.082-0.366-0.225
								c-0.104-0.202-0.021-0.449,0.18-0.551c1.251-0.634,2.402-1.345,3.423-2.113c0.184-0.136,0.439-0.1,0.575,0.081
								c0.136,0.181,0.102,0.438-0.081,0.574c-1.06,0.797-2.252,1.535-3.546,2.19C219.612,142.912,219.548,142.927,219.486,142.927z
								 M225.963,137.982c-0.095,0-0.188-0.033-0.268-0.1c-0.171-0.148-0.19-0.407-0.042-0.579c0.176-0.205,0.349-0.414,0.518-0.63
								c0.642-0.819,1.213-1.694,1.745-2.675c0.107-0.199,0.357-0.273,0.556-0.166c0.199,0.108,0.273,0.357,0.165,0.557
								c-0.546,1.007-1.159,1.945-1.818,2.79c-0.179,0.226-0.357,0.445-0.542,0.659
								C226.193,137.934,226.079,137.982,225.963,137.982z M297.56,135.928c-0.185,0-0.354-0.126-0.396-0.313
								c-0.316-1.314-0.688-2.632-1.107-3.917c-0.069-0.215,0.047-0.447,0.264-0.518c0.218-0.068,0.446,0.048,0.518,0.263
								c0.426,1.307,0.805,2.645,1.125,3.98c0.053,0.22-0.083,0.442-0.303,0.495C297.624,135.924,297.592,135.928,297.56,135.928z
								 M229.925,130.851c-0.046,0-0.093-0.008-0.139-0.024c-0.213-0.076-0.324-0.312-0.248-0.525
								c0.402-1.121,0.781-2.357,1.191-3.892c0.061-0.22,0.285-0.348,0.505-0.29c0.219,0.059,0.349,0.284,0.29,0.502
								c-0.421,1.557-0.806,2.813-1.216,3.956C230.252,130.747,230.094,130.851,229.925,130.851z M295.018,128.131
								c-0.159,0-0.313-0.094-0.379-0.252c-0.521-1.251-1.1-2.493-1.717-3.689c-0.104-0.201-0.025-0.449,0.176-0.553
								c0.202-0.106,0.448-0.025,0.555,0.176c0.628,1.216,1.215,2.478,1.744,3.75c0.089,0.209-0.012,0.449-0.221,0.537
								C295.124,128.121,295.07,128.131,295.018,128.131z M232.144,122.949c-0.031,0-0.065-0.004-0.101-0.013
								c-0.22-0.055-0.354-0.278-0.298-0.498c0.321-1.273,0.674-2.637,1.079-3.98c0.063-0.216,0.294-0.34,0.511-0.274
								c0.217,0.065,0.34,0.294,0.274,0.511c-0.4,1.326-0.75,2.679-1.068,3.943C232.494,122.825,232.327,122.949,232.144,122.949z
								 M291.256,120.846c-0.137,0-0.271-0.068-0.349-0.192c-0.723-1.152-1.496-2.28-2.305-3.353
								c-0.136-0.181-0.101-0.438,0.081-0.575c0.184-0.137,0.439-0.099,0.575,0.081c0.821,1.091,1.61,2.239,2.343,3.411
								c0.12,0.192,0.063,0.446-0.13,0.566C291.405,120.826,291.33,120.846,291.256,120.846z M234.596,115.125
								c-0.054,0-0.107-0.011-0.162-0.033c-0.208-0.089-0.305-0.331-0.215-0.538c0.384-0.898,0.787-1.716,1.232-2.499
								c0.229-0.404,0.471-0.798,0.725-1.184c0.125-0.189,0.379-0.242,0.568-0.118c0.188,0.125,0.242,0.379,0.118,0.568
								c-0.244,0.371-0.479,0.751-0.697,1.139c-0.429,0.755-0.819,1.546-1.191,2.415
								C234.907,115.032,234.755,115.125,234.596,115.125z M286.325,114.296c-0.112,0-0.226-0.046-0.307-0.135
								c-0.909-1.012-1.869-1.985-2.854-2.894c-0.166-0.154-0.177-0.414-0.022-0.58c0.153-0.167,0.413-0.176,0.58-0.022
								c1.001,0.926,1.98,1.918,2.907,2.947c0.151,0.169,0.138,0.428-0.031,0.579C286.521,114.262,286.422,114.296,286.325,114.296z
								 M280.306,108.735c-0.087,0-0.175-0.027-0.25-0.084c-1.08-0.827-2.203-1.608-3.338-2.319c-0.19-0.12-0.25-0.374-0.13-0.566
								c0.121-0.192,0.375-0.249,0.566-0.13c1.155,0.726,2.301,1.521,3.399,2.363c0.182,0.138,0.214,0.396,0.076,0.575
								C280.551,108.679,280.429,108.735,280.306,108.735z M239.085,108.316c-0.103,0-0.206-0.039-0.286-0.116
								c-0.163-0.158-0.167-0.417-0.009-0.581c0.954-0.981,2.016-1.899,3.156-2.725c0.184-0.132,0.438-0.092,0.571,0.092
								c0.135,0.184,0.094,0.44-0.091,0.573c-1.102,0.798-2.128,1.684-3.049,2.632C239.299,108.274,239.192,108.316,239.085,108.316
								z M273.359,104.385c-0.063,0-0.124-0.014-0.185-0.043c-1.223-0.609-2.475-1.154-3.723-1.62
								c-0.212-0.08-0.32-0.316-0.241-0.528c0.079-0.212,0.316-0.319,0.527-0.241c1.273,0.476,2.554,1.033,3.802,1.655
								c0.203,0.101,0.286,0.347,0.184,0.55C273.654,104.302,273.509,104.385,273.359,104.385z M245.693,103.507
								c-0.15,0-0.295-0.083-0.367-0.226c-0.104-0.202-0.021-0.449,0.182-0.551c1.231-0.62,2.526-1.154,3.851-1.586
								c0.218-0.068,0.445,0.048,0.517,0.263c0.07,0.216-0.047,0.447-0.263,0.518c-1.283,0.419-2.54,0.937-3.734,1.538
								C245.818,103.492,245.755,103.507,245.693,103.507z M265.68,101.531c-0.033,0-0.064-0.004-0.099-0.012
								c-1.327-0.329-2.667-0.575-3.984-0.73c-0.225-0.026-0.386-0.23-0.357-0.455c0.025-0.225,0.228-0.391,0.456-0.359
								c1.351,0.158,2.725,0.41,4.085,0.748c0.22,0.054,0.354,0.277,0.299,0.497C266.031,101.406,265.863,101.531,265.68,101.531z
								 M253.466,100.962c-0.197,0-0.37-0.142-0.404-0.342c-0.036-0.224,0.113-0.436,0.339-0.473
								c1.313-0.222,2.647-0.351,3.962-0.381l0.184-0.004c0.002,0,0.004,0,0.005,0c0.226,0,0.407,0.18,0.411,0.404
								c0.002,0.227-0.179,0.413-0.405,0.416l-0.172,0.004c-1.277,0.03-2.57,0.154-3.849,0.37
								C253.512,100.96,253.488,100.962,253.466,100.962z"/>
						</g>
					</g>
					<g>
						<g>
							<path fill="#A796FF" d="M237.073,234.607c-0.211,0-0.392-0.161-0.408-0.375c-0.021-0.227,0.146-0.426,0.374-0.444
								c0.683-0.058,1.364-0.118,2.042-0.179c0.227-0.014,0.425,0.146,0.445,0.372s-0.146,0.425-0.373,0.444
								c-0.681,0.062-1.361,0.121-2.045,0.181C237.097,234.606,237.085,234.607,237.073,234.607z"/>
						</g>
					</g>
				</g>
				<g>
					<path fill="#A796FF" d="M253.142,237.626c-1.136,0.573-2.359,0.531-3.375,0.047l-0.161-0.084l-7.444-3.813
						c-0.334-0.171-0.467-0.581-0.296-0.916l3.791-7.424l0.112-0.223c0.581-1.052,1.664-1.836,3.055-1.947
						c1.442-0.114,2.862,0.658,3.561,1.927c0.987,1.796,0.396,3.882-1.11,4.948c-0.145,0.103-0.069,0.332,0.105,0.33
						c1.862-0.017,3.579,1.352,3.803,3.41C255.345,235.412,254.515,236.933,253.142,237.626z"/>
				</g>
			</g>
			<g>
				<g>
					<g>
						<path fill="#F6D6FA" d="M602.555,208.828c1.248-1.624,2.444-3.26,3.584-4.898L602.555,208.828z"/>
					</g>
					<g>
						<path fill="#F6D6FA" d="M592.528,212.707l13.652-8.843c5.658-8.149,9.958-16.326,12.85-23.015
							c-5.942-1.514-18.24,4.754-18.24,4.754c12.169-7.424,16.55-8.318,20.543-10.732c3.489-10.193,2.179-21.42,2.268-31.03
							c-12.644,12.064-16.347,14.188-16.347,14.188c7.997-6.472,12.133-13.433,16.307-18.304c-0.642-23.917-8.27-31.542-8.27-31.542
							c-5.909,4.088-17.997,14.962-22.762,18.973c-1.492,11.245-1.286,25.35-1.286,25.35c-1.488-6.408-1.72-15.916-1.65-22.817
							c-6.793,5.986-5.63,5.089-10.309,11.059c-1.903,11.477-0.355,31.246-0.355,31.246c-2.274-7.533-3.02-19.645-3.26-26.363
							c-7.58,10.859-12.272,21.895-15.437,33.578c1.294,9.799,3.653,19.597,3.653,19.597c-1.935-3.932-3.604-9.366-4.928-14.53
							c-3.104,13.389-4.517,27.687-6.188,43.575l2.184,13.547l16.54-6.076c12.528-5.997,22.875-15.885,30.951-26.353
							L592.528,212.707z"/>
					</g>
				</g>
				<g>
					<path fill="#FEF3F9" d="M573.515,213.246c-2.313,4.334-4.729,8.618-7.37,12.764c-2.631,4.145-5.521,8.146-8.881,11.701
						l-0.152-0.158c3.23-3.64,5.982-7.699,8.478-11.898c2.499-4.199,4.777-8.53,6.948-12.913
						c4.366-8.756,8.328-17.713,12.265-26.685c3.942-8.969,7.658-18.051,11.979-26.877c2.152-4.413,4.369-8.803,6.729-13.115
						c2.351-4.319,4.851-8.56,7.555-12.66l0.188,0.112c-4.352,8.799-8.441,17.671-12.472,26.591
						c-4.009,8.925-8.243,17.764-12.366,26.665C582.27,195.661,578.097,204.552,573.515,213.246z"/>
				</g>
			</g>
			<g>
				<g>
					<g>
						<path fill="#D4CCFF" d="M627.528,374.512c1.509-1.072,2.97-2.176,4.376-3.299L627.528,374.512z"/>
					</g>
					<g>
						<path fill="#D4CCFF" d="M617.192,374.824l14.768-3.656c6.989-5.584,12.687-11.631,16.743-16.773
							c-5.386-3.276-18.357-1.524-18.357-1.524c13.072-2.843,17.436-2.252,21.72-3.166c5.313-8.136,6.235-18.744,8.187-27.438
							c-14.426,6.902-18.377,7.646-18.377,7.646c8.896-3.313,14.202-8.311,19.136-11.396c4.025-21.912-1.787-31.272-1.787-31.272
							c-6.438,1.818-20.104,7.819-25.438,9.938c-3.607,9.729-6.146,22.598-6.146,22.598c-0.181-6.293,1.442-14.998,2.851-21.238
							c-7.655,3.26-6.369,2.816-11.999,6.738c-4.045,9.809-6.398,28.246-6.398,28.246c-0.717-7.566,0.923-18.797,1.996-24.971
							c-9.354,7.43-15.979,15.94-21.269,25.532c-0.662,9.312-0.307,18.957-0.307,18.957c-1.087-4.188-1.632-9.651-1.894-14.767
							c-5.563,11.16-9.688,23.687-14.366,37.57l-0.541,12.996l16.989-0.225c13.14-1.432,24.943-7.096,34.693-14.012L617.192,374.824
							z"/>
					</g>
				</g>
				<g>
					<path fill="#FEF3F9" d="M598.913,369.229c-3.052,3.191-6.194,6.31-9.521,9.228c-3.315,2.918-6.857,5.627-10.759,7.776
						l-0.118-0.192c3.799-2.269,7.218-5.072,10.411-8.086c3.204-3.013,6.225-6.215,9.147-9.496
						c5.871-6.551,11.395-13.414,16.896-20.297c5.508-6.877,10.821-13.933,16.661-20.562c2.916-3.315,5.884-6.592,8.979-9.75
						c3.081-3.17,6.294-6.219,9.674-9.074l0.16,0.162c-5.866,6.595-11.496,13.338-17.078,20.146
						c-5.563,6.815-11.325,13.483-16.991,20.244C610.692,356.068,604.979,362.803,598.913,369.229z"/>
				</g>
			</g>
			<g>
				<g>
					<path fill="#A796FF" d="M616.62,409.066c15.229,4.563,21.346,7.528,26.746,7.752c9.354-7.875,16.62-17.275,22.224-26.813
						c-19.634,3.707-31.111-1.942-31.111-1.942c12.523,3.129,26.442-0.078,33.436-2.189c13.08-24.295,15.893-48.082,15.893-48.082
						c-8.286,0.188-15.932,0.725-23.021,1.584c-7.953,10.24-15.841,24.457-15.841,24.457c2.182-7.379,7.401-17.021,11.436-23.865
						c-10.266,1.498-19.326,3.719-27.456,6.594c-8.498,10.199-18.286,30.957-18.286,30.957c2.032-9.021,8.237-21.604,11.854-28.469
						c-13.854,5.846-24.902,13.766-34.787,23.344c-4.321,10.636-7.569,21.972-7.569,21.972c0.313-5.199,1.749-11.729,3.384-17.755
						c-10.803,11.318-20.428,24.661-31.227,39.419l-5.58,14.961l20.114,4.84c30.989,4.396,53.899-2.598,70.802-14.559
						C632.516,415.838,616.62,409.066,616.62,409.066z"/>
				</g>
				<g>
					<path fill="#7862EC" d="M551.076,428.568c5.339-1.5,10.435-3.74,15.351-6.287c4.922-2.545,9.697-5.367,14.396-8.31
						c9.413-5.862,18.536-12.192,27.642-18.555c9.11-6.354,18.061-12.969,27.464-18.933c4.699-2.983,9.443-5.905,14.293-8.653
						c4.839-2.765,9.785-5.349,14.856-7.658l0.127,0.236c-9.424,5.916-18.627,12.073-27.797,18.319
						c-9.151,6.269-18.48,12.297-27.732,18.466c-9.265,6.143-18.562,12.268-28.155,17.924c-4.813,2.803-9.701,5.483-14.732,7.883
						c-5.023,2.402-10.229,4.49-15.646,5.824L551.076,428.568z"/>
				</g>
			</g>
			<g>
				<g>
					<g>
						<g>
							<path fill="#F6D6FA" d="M273.155,308.09c-0.722-1.92-1.481-3.801-2.276-5.631L273.155,308.09z"/>
						</g>
						<g>
							<path fill="#F6D6FA" d="M270.841,318.951l0.005-16.564c-3.962-9.098-8.727-16.996-12.982-22.896
								c-4.743,4.541-6.247,18.614-6.247,18.614c0.407-14.535,2.127-18.882,2.279-23.643c-7.012-8.181-17.687-12.6-26.131-17.461
								c3.422,17.268,3.18,21.624,3.18,21.624c-1.142-10.346-4.927-17.493-6.841-23.635c-21.508-11.33-32.616-8.329-32.616-8.329
								c0.229,7.298,2.916,23.478,3.731,29.718c9.084,6.926,21.671,13.76,21.671,13.76c-6.517-1.859-15.054-6.387-21.112-9.883
								c1.398,9.029,1.271,7.549,3.868,14.688c9.057,7.406,27.417,15.863,27.417,15.863c-7.963-1.72-19.094-7.084-25.171-10.214
								c5.257,12.154,12.323,21.828,20.839,30.462c9.403,3.723,19.417,6.491,19.417,6.491c-4.583-0.229-10.345-1.444-15.667-2.84
								c10.059,9.426,21.889,17.801,34.975,27.194l13.225,4.798l4.104-17.759c1.876-14.146-0.938-28.282-5.564-40.686
								L270.841,318.951z"/>
						</g>
					</g>
					<g>
						<path fill="#CBB1FF" d="M260.426,336.158c2.507,4.217,4.908,8.502,7.062,12.916c2.155,4.406,4.039,8.975,5.256,13.734
							l-0.229,0.061c-1.362-4.691-3.377-9.164-5.661-13.475c-2.278-4.314-4.804-8.5-7.434-12.615
							c-5.239-8.246-10.888-16.232-16.563-24.203c-5.671-7.977-11.568-15.807-16.896-24.045c-2.667-4.117-5.279-8.271-7.738-12.521
							c-2.473-4.241-4.79-8.579-6.862-13.027l0.208-0.114c5.283,8.256,10.782,16.313,16.358,24.344
							c5.593,8.012,10.98,16.184,16.487,24.283C249.896,319.607,255.365,327.75,260.426,336.158z"/>
					</g>
				</g>
				<g>
					<g>
						<path fill="#A796FF" d="M251.914,371.396c0.158-17.517,1.417-24.894-0.003-30.672c-11.201-7.482-23.374-12.281-35.179-15.285
							c9.941,19.633,7.484,33.508,7.484,33.508c-0.532-14.207-8.195-27.947-12.573-34.695c-29.714-6.383-55.737-2.063-55.737-2.063
							c2.736,8.711,5.648,16.633,8.736,23.871c13.272,5.271,30.73,9.254,30.73,9.254c-8.475-0.043-20.277-2.611-28.753-4.775
							c4.73,10.4,9.858,19.305,15.395,27.023c13.399,5.858,38.357,9.85,38.357,9.85c-10.167,0.617-25.377-2.09-33.748-3.805
							c10.429,12.856,22.198,22.121,35.362,29.639c12.574,1.313,25.564,1.27,25.564,1.27c-5.596,1.267-12.94,1.748-19.818,1.865
							c15.287,7.955,32.354,14.047,51.276,20.941l17.539,1.313l-1.051-22.766c-4.855-34.134-19.282-56.226-37.119-70.435
							C254.202,352.504,251.914,371.396,251.914,371.396z"/>
					</g>
					<g>
						<path fill="#7862EC" d="M292.65,434.752c-3.227-5.188-7.156-9.891-11.36-14.309c-4.201-4.429-8.651-8.613-13.205-12.685
							c-9.089-8.158-18.583-15.866-28.104-23.551c-9.517-7.688-19.261-15.123-28.452-23.246c-4.601-4.055-9.146-8.178-13.539-12.465
							c-4.408-4.271-8.66-8.711-12.659-13.367l0.212-0.207c9.147,8.156,18.486,16.002,27.907,23.785
							c9.437,7.763,18.678,15.778,28.04,23.674c9.341,7.918,18.671,15.873,27.6,24.289c4.44,4.23,8.776,8.582,12.857,13.168
							c4.082,4.578,7.889,9.443,10.96,14.765L292.65,434.752z"/>
					</g>
				</g>
			</g>
			<g>
				<g>
					<path fill="#A796FF" d="M427.039,111.601c0.12-13.369,1.081-19-0.003-23.414c-8.55-5.712-17.843-9.376-26.854-11.669
						c7.593,14.987,5.716,25.58,5.716,25.58c-0.404-10.846-6.257-21.334-9.599-26.485c-22.682-4.874-42.549-1.575-42.549-1.575
						c2.09,6.648,4.313,12.697,6.671,18.222c10.132,4.024,23.458,7.064,23.458,7.064c-6.469-0.033-15.479-1.993-21.948-3.646
						c3.611,7.938,7.526,14.736,11.751,20.628c10.229,4.474,29.28,7.519,29.28,7.519c-7.76,0.471-19.371-1.594-25.762-2.904
						c7.962,9.817,16.943,16.887,26.994,22.626c9.601,1,19.516,0.967,19.516,0.967c-4.271,0.966-9.879,1.334-15.129,1.425
						c11.67,6.073,24.697,10.722,39.143,15.986l13.392,1.003l-0.805-17.376c-3.707-26.056-14.72-42.92-28.335-53.766
						C428.786,97.179,427.039,111.601,427.039,111.601z"/>
				</g>
				<g>
					<path fill="#7862EC" d="M458.136,159.964c-2.462-3.96-5.463-7.551-8.672-10.924c-3.207-3.379-6.604-6.575-10.081-9.68
						c-6.938-6.229-14.186-12.114-21.453-17.977c-7.264-5.869-14.702-11.545-21.72-17.746c-3.511-3.096-6.979-6.243-10.335-9.515
						c-3.365-3.259-6.611-6.649-9.663-10.204l0.161-0.158c6.98,6.226,14.111,12.215,21.304,18.157
						c7.203,5.923,14.258,12.044,21.404,18.071c7.13,6.043,14.252,12.117,21.067,18.541c3.391,3.229,6.697,6.551,9.813,10.052
						c3.116,3.494,6.021,7.208,8.366,11.268L458.136,159.964z"/>
				</g>
			</g>
			<g>
				<g>
					<path fill="#F6D6FA" d="M447.4,149.755l0.158-20.251c1.973-26.598,8.954-47.008,20.762-60.694l0.489-0.57l0.296,0.694
						c1.271,3.007,2.329,8.286,3.094,13.01c-0.064-1.323-0.128-2.548-0.188-3.683c-0.316-6.215-0.514-9.965-0.047-13.172
						l0.023-0.158l0.112-0.111c5.96-5.734,12.958-9.991,20.803-12.655l0.887-0.301l-0.291,0.89
						c-2.386,7.286-3.4,13.706-3.787,18.619c1.389-8.341,4.096-15.621,5.914-19.875l0.089-0.207l0.216-0.06
						c17.479-4.91,33.229-0.689,33.389-0.646l0.418,0.115l-0.083,0.425c-1.425,7.372-3.014,14.296-4.72,20.581l-0.053,0.191
						l-0.173,0.096c-5.016,2.77-11.119,5.06-14.828,6.337c4.416-0.525,9.501-2.024,13.365-3.343l0.852-0.291l-0.251,0.865
						c-2.564,8.81-5.393,16.405-8.635,23.217l-0.06,0.125l-0.118,0.073c-5.579,3.418-14.454,5.873-19.323,7.046
						c5.617-0.123,12.379-1.69,16.339-2.745l1.051-0.28l-0.52,0.955c-5.576,10.276-12.107,18.267-20.555,25.148l-0.105,0.086
						l-0.135,0.016c-4.29,0.505-8.703,0.62-11.674,0.626c2.338,0.505,5.107,0.855,8.291,1.045l1.289,0.077l-1.04,0.767
						c-8.529,6.292-18.244,11.178-28.528,16.351l-1.805,0.869L447.4,149.755z M468.526,70.012
						c-11.367,13.526-18.105,33.549-20.029,59.53l-0.153,19.203l9.814-0.735l1.546-0.778c9.831-4.944,19.14-9.625,27.354-15.512
						c-4.399-0.334-7.985-0.996-10.677-1.968l-2.836-1.026l3.014,0.118c0.077,0.004,7.691,0.289,14.983-0.555
						c8.036-6.569,14.317-14.166,19.694-23.832c-5.067,1.298-13.396,3.049-19.131,2.346l-2.889-0.354l2.854-0.569
						c0.146-0.029,14.634-2.959,22.354-7.631c3.09-6.512,5.799-13.747,8.271-22.089c-4.938,1.638-11.479,3.44-16.326,3.293
						l-2.908-0.08l2.786-0.836c0.102-0.031,10.199-3.088,17.836-7.269c1.646-6.087,3.183-12.774,4.565-19.886
						c-2.584-0.621-16.694-3.617-32.248,0.689c-2.516,5.92-6.62,17.433-6.646,29.477l-0.932,0.066
						c-0.02-0.12-1.644-11.964,3.497-28.256c-7.306,2.615-13.845,6.657-19.451,12.023c-0.425,3.083-0.234,6.777,0.078,12.831
						c0.183,3.555,0.411,7.979,0.577,13.562l-0.936,0.063C472.576,91.679,470.946,76.565,468.526,70.012z"/>
				</g>
				<g>
					<path fill="#F6D6FA" d="M449.808,146.312l-0.399-0.348l0.114-0.306c1.533-4.067,3.581-8.211,6.258-12.667
						c2.099-3.503,4.449-7.063,7.399-11.2c5.032-6.97,10.198-13.428,15.946-20.544c1.882-2.318,3.756-4.649,5.629-6.98
						c3.45-4.294,7.021-8.734,10.579-13.003c4.785-5.766,10.441-12.66,16.108-20.063l0.741,0.569
						c-5.677,7.416-11.342,14.319-16.133,20.093c-3.557,4.263-7.122,8.7-10.566,12.99c-1.873,2.333-3.748,4.665-5.635,6.984
						c-5.734,7.104-10.896,13.551-15.91,20.5c-2.938,4.115-5.273,7.654-7.359,11.136c-2.646,4.407-4.669,8.5-6.186,12.516
						l-0.231-0.088L449.808,146.312z"/>
				</g>
			</g>
			<g>
				<g>
					<path fill="#F6D6FA" d="M292.762,215.087l-16.091-0.275c-21.007-1.75-37.086-7.419-47.821-16.85l-0.564-0.498l0.696-0.287
						c2.04-0.842,5.39-1.547,8.652-2.089c-0.426,0.018-0.837,0.035-1.233,0.052c-4.909,0.208-7.873,0.333-10.409-0.06l-0.158-0.024
						l-0.11-0.116c-4.492-4.757-7.811-10.323-9.858-16.547l-0.293-0.89l0.888,0.3c4.67,1.577,8.891,2.431,12.386,2.877
						c-5.636-1.216-10.468-3.082-13.433-4.381l-0.206-0.09l-0.061-0.217c-3.757-13.857-0.303-26.286-0.268-26.41l0.119-0.417
						l0.425,0.086c5.816,1.179,11.272,2.484,16.217,3.875l0.191,0.054l0.094,0.175c1.94,3.589,3.565,7.873,4.587,10.837
						c-0.467-3.239-1.496-6.808-2.414-9.583l-0.282-0.856l0.861,0.261c6.942,2.092,12.921,4.378,18.278,6.989l0.125,0.06
						l0.071,0.119c2.459,4.097,4.247,10.407,5.211,14.388c-0.196-4.213-1.271-9.022-2.019-11.926l-0.271-1.052l0.95,0.526
						c8.08,4.481,14.352,9.703,19.729,16.431l0.085,0.107l0.016,0.135c0.319,2.954,0.405,5.979,0.411,8.262
						c0.313-1.625,0.542-3.489,0.688-5.576l0.089-1.289l0.758,1.046c4.91,6.785,8.697,14.492,12.707,22.65l0.685,1.469
						L292.762,215.087z M230.061,197.77c10.578,8.99,26.271,14.408,46.658,16.107l15.043,0.257l-0.5-7.625l-0.596-1.211
						c-3.786-7.703-7.372-15-11.881-21.466c-0.305,3.359-0.844,6.103-1.613,8.17l-1.052,2.827l0.146-3.013
						c0.003-0.061,0.282-6.041-0.326-11.787c-5.069-6.315-10.946-11.282-18.423-15.558c0.982,4.033,2.25,10.471,1.661,14.933
						l-0.381,2.881l-0.543-2.855c-0.022-0.115-2.221-11.524-5.834-17.646c-5.057-2.455-10.679-4.623-17.155-6.612
						c1.244,3.894,2.565,8.994,2.43,12.765l-0.105,2.906l-0.813-2.792c-0.021-0.081-2.352-8.032-5.58-14.076
						c-4.749-1.331-9.97-2.58-15.523-3.716c-0.551,2.245-2.896,13.179,0.321,25.273c4.662,2.026,13.68,5.325,23.137,5.431
						l0.058,0.932c-0.095,0.016-9.385,1.2-22.133-2.907c2.006,5.685,5.111,10.792,9.24,15.193c2.413,0.349,5.319,0.226,10.068,0.026
						c2.809-0.119,6.306-0.267,10.718-0.358l0.055,0.934C247.009,194.794,235.317,195.946,230.061,197.77z"/>
				</g>
				<g>
					<path fill="#F6D6FA" d="M289.708,213.494l-0.304-0.118c-3.209-1.245-6.472-2.894-9.971-5.039
						c-2.75-1.679-5.544-3.563-8.793-5.928c-5.49-4.042-10.543-8.16-16.104-12.739c-1.816-1.503-3.645-2.998-5.468-4.493
						c-3.365-2.755-6.846-5.604-10.189-8.446c-4.518-3.819-9.919-8.335-15.717-12.858l0.576-0.739
						c5.811,4.534,11.221,9.057,15.747,12.883c3.339,2.837,6.813,5.684,10.177,8.436c1.827,1.496,3.654,2.992,5.471,4.496
						c5.551,4.568,10.591,8.679,16.063,12.705c3.227,2.347,6.001,4.217,8.729,5.885c3.451,2.116,6.662,3.74,9.818,4.965
						l-0.106,0.275l0.396,0.349L289.708,213.494z"/>
				</g>
			</g>
			<g>
				<g>
					<g>
						<path fill="#FFFFFF" d="M578.572,150.854v259.061c0,18.104-14.673,32.785-32.776,32.785H301.799
							c-18.104,0-32.786-14.683-32.786-32.785V150.854c0.188-17.946,14.794-32.442,32.786-32.442h243.997
							C563.788,118.412,578.387,132.908,578.572,150.854z"/>
					</g>
					<g>
						<path fill="#5065FC" d="M578.572,150.854h-309.56c0.188-17.946,14.794-32.442,32.786-32.442h243.997
							C563.788,118.412,578.387,132.908,578.572,150.854z"/>
					</g>
					<g>
						<g>
							<circle fill="#FFFFFF" cx="302.228" cy="134.633" r="5.988"/>
						</g>
						<g>
							<circle fill="#FFFFFF" cx="320.796" cy="134.633" r="5.987"/>
						</g>
						<g>
							<circle fill="#FFFFFF" cx="339.363" cy="134.633" r="5.987"/>
						</g>
					</g>
					<g>
						<path fill="#FFFFFF" d="M482.393,140.62H369.521c-3.308,0-5.985-2.681-5.985-5.988l0,0c0-3.307,2.681-5.987,5.985-5.987
							h112.871c3.31,0,5.987,2.681,5.987,5.987l0,0C488.38,137.94,485.699,140.62,482.393,140.62z"/>
					</g>
				</g>
				<g>
					<g>
						<path fill="#CCDBFF" d="M538.563,360.238v-11.631c0-7.222-5.854-13.076-13.072-13.076H373.882
							c-7.221,0-13.075,5.855-13.075,13.076v35.807c0,7.221,5.854,13.074,13.075,13.074h151.605c7.221,0,13.071-5.854,13.071-13.074
							v-15.006l16.583,6.164L538.563,360.238z"/>
					</g>
					<g>
						<circle fill="#FFFFFF" cx="457.976" cy="379.427" r="3.138"/>
					</g>
					<g>
						<circle fill="#FFFFFF" cx="471.398" cy="379.427" r="3.136"/>
					</g>
					<g>
						<circle fill="#FFFFFF" cx="484.822" cy="379.427" r="3.138"/>
					</g>
					<g>
						<circle fill="#FFFFFF" cx="498.246" cy="379.427" r="3.136"/>
					</g>
				</g>
				<g>
					<g>
						<path fill="#5065FC" d="M538.563,195.231v-11.632c0-7.221-5.854-13.075-13.072-13.075h-96.519
							c-7.222,0-13.075,5.854-13.075,13.075v35.807c0,7.221,5.854,13.075,13.075,13.075h96.519c7.221,0,13.072-5.854,13.072-13.075
							V204.4l16.582,6.164L538.563,195.231z"/>
					</g>
					<g>
						<g>
							<path fill="#FFFFFF" d="M503.33,221.261h-24.051c-5.086,0-9.209-4.123-9.209-9.208v-24.051c0-5.086,4.123-9.208,9.209-9.208
								h24.051c5.086,0,9.209,4.123,9.209,9.208v24.051C512.539,217.138,508.416,221.261,503.33,221.261z"/>
						</g>
						<g>
							<path fill="#F38346" d="M506.357,195.212c0.392,2.514-0.442,4.819-1.99,6.451l-0.255,0.255l-11.839,11.825
								c-0.531,0.531-1.395,0.531-1.927,0l-11.795-11.782l-0.354-0.355c-1.645-1.752-2.47-4.295-1.825-7.007
								c0.669-2.819,3.011-5.046,5.854-5.592c4.025-0.772,7.632,1.64,8.733,5.16c0.106,0.336,0.588,0.337,0.693,0.001
								c1.111-3.554,4.771-5.979,8.827-5.139C503.498,189.654,505.883,192.172,506.357,195.212z"/>
						</g>
					</g>
				</g>
				<g>
					<g>
						<path fill="#96B3FF" d="M314.554,274.529v-11.631c0-7.223,5.854-13.075,13.075-13.075h135.904
							c7.221,0,13.075,5.854,13.075,13.075v35.807c0,7.221-5.854,13.074-13.075,13.074H327.629c-7.222,0-13.075-5.854-13.075-13.074
							v-15.008l-16.583,6.166L314.554,274.529z"/>
					</g>
					<g>
						<g>
							<path fill="#FFFFFF" d="M378.61,300.947h-24.054c-5.086,0-9.209-4.123-9.209-9.209v-24.051c0-5.086,4.123-9.209,9.209-9.209
								h24.054c5.086,0,9.209,4.123,9.209,9.209v24.051C387.819,296.824,383.696,300.947,378.61,300.947z"/>
						</g>
						<g>
							<path fill="#5065FC" d="M380.318,273.283c-3.237-2.053-13.054,1.067-13.054,1.067c1.681-2.855,1.212-10.819-1.221-10.818
								c-3.907,0.001-2.617,13.367-13.854,18.06v10.486c0,0,25.112,3.762,27.926,0.518
								C382.927,289.352,383.556,275.336,380.318,273.283z"/>
						</g>
					</g>
				</g>
			</g>
			<g>
				<g>
					<g>
						<path fill="#F4D37E" d="M269.684,281.008c0,0,14.915,22.422-0.753,23.322c0,0,0,7.203,1.081,9.186l-14.477-0.947l0.598-7.545
							c0,0-5.211-10.598-6.112-16.36c-0.898-5.762,0.9-10.805,7.024-12.604C263.168,274.254,268.604,275.064,269.684,281.008z"/>
					</g>
					<g>
						<path fill="#222D3C" d="M259.935,290.355c0,0-1.344-5.986,3.178-7.208c4.52-1.223,7.016-1.447,7.016-1.447
							s5.273-16.528-3.89-14.94c-9.162,1.588-21.573,11.256-22.186,17.12c-0.608,5.863,7.265,19.881,9.217,21.469
							c1.955,1.59,6.22,0.066,6.22,0.066l0.333-7.816c0,0-3.917-0.891-5.019-4.313C253.705,289.867,255.781,287.18,259.935,290.355z
							"/>
					</g>
					<g>
						
							<ellipse transform="matrix(0.4657 0.8849 -0.8849 0.4657 398.62 -83.0858)" fill="#1A0845" cx="268.117" cy="288.573" rx="1.796" ry="1.34"/>
					</g>
					<g>
						<path fill="#F38346" d="M273.735,293.859c-0.142,0.092-4.786,1.856-4.927,1.813c-0.139-0.047,1.905,4.367,4.602,3.158
							c1.093-0.492,0.985-1.627,0.985-1.627L273.735,293.859z"/>
					</g>
				</g>
				<g>
					<g>
						<path fill="#D1D3D4" d="M289.509,515.531l-1.105,4.069c0,0,1.105,4.388,4.854,3.986c3.75-0.396,10.531-3.352,10.531-3.352
							l0.319-9.732L289.509,515.531z"/>
					</g>
					<g>
						<path fill="#D1D3D4" d="M258.626,515.531l-1.107,4.069c0,0,1.107,4.388,4.857,3.986c3.75-0.396,10.531-3.352,10.531-3.352
							l0.317-9.732L258.626,515.531z"/>
					</g>
					<g>
						<path fill="#5065FC" d="M254.227,377.002c0,0-7.958,20.465-5.14,33.689c1.38,6.479,9.423,43.401,9.994,48.258
							c0,0-1.713,52.274-2.855,58.975c0,0,16.563,1.582,18.562,0c1.999-1.58,3.712-56.119,3.141-60.115
							c-0.571-3.998,0.111-48.827,0.111-48.827l-3.538-34.552L254.227,377.002z"/>
					</g>
					<g>
						<path fill="#628AEC" d="M264.959,378.428c0,0-3.018,17.104,0,27.162c3.018,10.063,19.115,28.17,23.34,47.285
							c0,0-1.409,64.389,0,64.99c1.408,0.604,17.706-3.621,17.706-3.621s4.227-56.941,3.823-62.375
							c-0.403-5.435-12.877-50.504-16.096-57.748c-3.221-7.244-4.719-16.225-4.719-16.225S267.569,375.566,264.959,378.428z"/>
					</g>
					<g>
						<path fill="#233248" d="M288.402,519.602c0,0-0.24,10.089,0.96,10.81c1.199,0.721,7.806,0.721,7.806,0.721l1.681-3.002
							c0,0,2.522,3.844,4.203,3.844c1.684,0,16.092-1.924,17.774-3.004c1.681-1.078-1.321-9.969-6.005-8.524
							c-4.687,1.44-6.485,2.162-6.485,2.162l-1.441-4.683c0,0-10.445,4.563-13.688,3.603
							C289.963,520.563,288.402,519.602,288.402,519.602z"/>
					</g>
					<g>
						<path fill="#233248" d="M257.537,520.24c0,0-0.211,8.883,0.846,9.518c1.06,0.637,5.235,0.613,5.235,0.613l1.479-2.646
							c0,0,2.147,2.726,3.628,2.726s15.884-1.013,17.363-1.963c1.48-0.951-1.164-8.777-5.288-7.509
							c-4.125,1.271-5.711,1.9-5.711,1.9l-1.269-4.117c0,0-9.044,3.146-11.899,2.297C259.068,520.215,257.537,520.24,257.537,520.24
							z"/>
					</g>
				</g>
				<g>
					<g>
						<path fill="#EAAD00" d="M252.633,310.375c0.135-0.275,22.213,3.07,22.213,3.07l-4.604,2.457h-17.097
							C253.145,315.902,250.483,314.777,252.633,310.375z"/>
					</g>
					<g>
						<path fill="#F4D37E" d="M324.28,283.146c-0.095-0.68-4.035-9.646-3.157-11.449c0.085-0.175,4.142,1.33,4.771,2.91
							c0,0,2.374-6.01,4.229-6.676c1.851-0.668,7.338,3.996,7.77,6.157c0.436,2.158-8.79,11.871-8.79,11.871L324.28,283.146z"/>
					</g>
					<g>
						<path fill="#FCCF17" d="M315.907,316.846c0,0-30.817,15.127-33.27,16.918c0,0,0.011,0.043,0.034,0.117
							c0.438,1.674,5.356,20.895,1.604,29.795c0.324,5.555,4.737,14.219,4.737,14.219s-5.536,1.736-10.677,2.482
							c-1.808,0.258-3.563,0.396-5.013,0.291c-5.854-0.42-9.966,0.609-12.751,0.48c-5.221-0.248-8.783-1.783-8.783-1.783
							s-5.323-36.404-6.938-42.584l6.938,42.584l1.416,0.504l-2.995,10.691c-0.226-0.111-5.674-11.935-9.421-19.461
							c-3.401-12.875-4.308-23.455-4.854-26.439c-1.327-7.26,1.329-17.422,1.329-17.422c4.91-6.871,15.879-11.338,15.879-11.338
							l21.705-2.459l31.581-4.637l16.545-26.689l6.993,4.459L315.907,316.846z"/>
					</g>
					<g>
						<path fill="#EAAD00" d="M289.015,377.895c0,0-5.536,1.736-10.677,2.482l-1.611-2.836c0,0,2.513-10.66,0.411-17.842
							c-2.091-7.18,4.49-25.818,4.49-25.818h1.045c0.438,1.674,5.356,20.895,1.604,29.797
							C284.602,369.23,289.015,377.895,289.015,377.895z"/>
					</g>
					<g>
						<polygon fill="#EAAD00" points="244.853,336.783 251.791,379.367 246.937,357.566 244.537,345.275 						"/>
					</g>
				</g>
			</g>
			<g>
				<g>
					<g>
						<path fill="#D4CCFF" d="M612.869,214.488c-0.114,0-0.229-0.048-0.313-0.142c-0.146-0.171-0.13-0.43,0.041-0.579
							c1.035-0.895,2.063-1.796,3.077-2.706c0.166-0.15,0.429-0.137,0.579,0.033c0.15,0.168,0.137,0.428-0.033,0.58
							c-1.019,0.911-2.048,1.816-3.086,2.714C613.061,214.455,612.965,214.488,612.869,214.488z M618.988,209.018
							c-0.111,0-0.224-0.044-0.305-0.132c-0.15-0.166-0.144-0.426,0.023-0.58c1.005-0.928,2.001-1.862,2.988-2.804
							c0.163-0.155,0.423-0.15,0.58,0.015c0.153,0.164,0.147,0.424-0.018,0.58c-0.99,0.943-1.987,1.881-2.998,2.812
							C619.188,208.982,619.087,209.018,618.988,209.018z M624.929,203.355c-0.104,0-0.212-0.041-0.293-0.123
							c-0.158-0.161-0.155-0.421,0.005-0.58c0.978-0.96,1.939-1.927,2.896-2.899c0.159-0.163,0.419-0.163,0.58-0.005
							c0.162,0.159,0.164,0.419,0.005,0.58c-0.96,0.976-1.928,1.945-2.905,2.909C625.137,203.315,625.033,203.355,624.929,203.355z
							 M630.681,197.5c-0.103,0-0.204-0.038-0.28-0.113c-0.164-0.156-0.174-0.416-0.018-0.58c0.942-0.991,1.875-1.989,2.798-2.992
							c0.153-0.167,0.414-0.177,0.579-0.025c0.168,0.153,0.178,0.413,0.025,0.579c-0.926,1.008-1.862,2.009-2.811,3.004
							C630.896,197.458,630.788,197.5,630.681,197.5z M636.234,191.458c-0.1,0-0.194-0.034-0.272-0.104
							c-0.169-0.15-0.185-0.41-0.034-0.579c0.908-1.022,1.81-2.052,2.695-3.086c0.148-0.17,0.407-0.191,0.579-0.043
							s0.188,0.406,0.043,0.579c-0.89,1.038-1.792,2.07-2.704,3.096C636.461,191.412,636.348,191.458,636.234,191.458z
							 M641.581,185.231c-0.093,0-0.188-0.031-0.263-0.094c-0.177-0.145-0.198-0.403-0.057-0.578
							c0.021-0.024,0.04-0.048,0.063-0.072c-0.943-0.016-1.89-0.038-2.83-0.065c-0.229-0.006-0.404-0.195-0.398-0.422
							c0.007-0.227,0.177-0.401,0.423-0.398c1.158,0.035,2.315,0.059,3.477,0.075c0.625-0.762,1.245-1.526,1.855-2.294
							c0.146-0.176,0.4-0.204,0.577-0.064c0.179,0.142,0.205,0.4,0.064,0.577c-0.521,0.647-1.041,1.293-1.567,1.938
							c0.063,0.072,0.095,0.165,0.094,0.266c-0.002,0.225-0.186,0.406-0.408,0.406c-0.074,0.007-0.154-0.002-0.232-0.002
							c-0.159,0.194-0.319,0.387-0.479,0.581C641.814,185.181,641.698,185.231,641.581,185.231z M646.712,184.512
							c-0.226,0-0.409-0.182-0.41-0.407c-0.002-0.227,0.184-0.412,0.407-0.414c1.365-0.009,2.73-0.032,4.096-0.067
							c0.248-0.004,0.415,0.174,0.421,0.4c0.009,0.226-0.173,0.415-0.397,0.42c-1.369,0.035-2.739,0.058-4.11,0.067
							C646.714,184.512,646.713,184.512,646.712,184.512z M654.916,184.303c-0.219,0-0.4-0.172-0.41-0.393
							c-0.01-0.226,0.165-0.417,0.396-0.428c1.36-0.059,2.727-0.131,4.09-0.216c0.246-0.019,0.421,0.159,0.436,0.384
							c0.017,0.226-0.157,0.421-0.384,0.436c-1.368,0.085-2.736,0.157-4.105,0.217C654.928,184.303,654.921,184.303,654.916,184.303
							z M634.406,184.264c-0.006,0-0.016,0-0.021,0c-1.37-0.065-2.736-0.143-4.104-0.233c-0.229-0.015-0.398-0.211-0.384-0.437
							c0.017-0.227,0.216-0.408,0.438-0.382c1.362,0.09,2.725,0.168,4.089,0.233c0.229,0.011,0.401,0.203,0.394,0.429
							C634.806,184.093,634.625,184.264,634.406,184.264z M663.105,183.795c-0.213,0-0.393-0.163-0.406-0.378
							c-0.021-0.226,0.146-0.424,0.376-0.441c1.358-0.11,2.721-0.231,4.079-0.366c0.236-0.019,0.427,0.141,0.445,0.367
							c0.022,0.226-0.142,0.426-0.364,0.449c-1.362,0.136-2.729,0.258-4.098,0.368C663.128,183.794,663.116,183.795,663.105,183.795
							z M626.22,183.722c-0.012,0-0.021-0.001-0.035-0.002c-1.363-0.116-2.729-0.244-4.093-0.386
							c-0.226-0.023-0.389-0.226-0.365-0.451c0.024-0.225,0.228-0.388,0.45-0.365c1.357,0.14,2.717,0.268,4.076,0.384
							c0.229,0.02,0.394,0.218,0.375,0.443C626.609,183.56,626.431,183.722,626.22,183.722z M671.273,182.988
							c-0.206,0-0.386-0.154-0.407-0.362c-0.026-0.225,0.135-0.43,0.356-0.456c1.356-0.159,2.711-0.331,4.063-0.515
							c0.22-0.03,0.431,0.125,0.462,0.351c0.031,0.224-0.127,0.431-0.354,0.461c-1.354,0.186-2.717,0.358-4.075,0.519
							C671.304,182.987,671.288,182.988,671.273,182.988z M618.06,182.868c-0.019,0-0.035,0-0.055-0.003
							c-1.482-0.197-2.817-0.411-4.078-0.654c-0.224-0.043-0.368-0.258-0.325-0.48c0.042-0.224,0.263-0.368,0.48-0.326
							c1.245,0.241,2.563,0.452,4.03,0.646c0.225,0.031,0.383,0.236,0.354,0.461C618.438,182.718,618.261,182.868,618.06,182.868z
							 M679.402,181.878c-0.198,0-0.373-0.145-0.404-0.347c-0.034-0.225,0.119-0.435,0.342-0.469
							c1.354-0.209,2.698-0.432,4.043-0.666c0.217-0.046,0.438,0.109,0.478,0.333c0.038,0.223-0.111,0.436-0.334,0.474
							c-1.353,0.236-2.701,0.458-4.06,0.669C679.445,181.877,679.424,181.878,679.402,181.878z M610.01,181.277
							c-0.036,0-0.075-0.005-0.11-0.016c-1.423-0.405-2.737-0.872-3.919-1.387c-0.206-0.091-0.302-0.333-0.211-0.54
							c0.094-0.207,0.333-0.3,0.54-0.212c1.146,0.501,2.431,0.955,3.813,1.351c0.218,0.062,0.345,0.289,0.282,0.506
							C610.354,181.158,610.189,181.277,610.01,181.277z M687.486,180.466c-0.192,0-0.363-0.136-0.402-0.333
							c-0.042-0.222,0.104-0.438,0.325-0.48c1.341-0.26,2.68-0.532,4.013-0.818c0.218-0.041,0.439,0.093,0.487,0.315
							c0.048,0.221-0.094,0.439-0.315,0.487c-1.339,0.286-2.682,0.561-4.025,0.822C687.539,180.464,687.513,180.466,687.486,180.466
							z M646.708,178.823c-0.088,0-0.176-0.028-0.251-0.085c-0.18-0.138-0.212-0.396-0.073-0.576
							c0.835-1.083,1.659-2.171,2.476-3.266c0.137-0.182,0.395-0.218,0.571-0.084c0.185,0.135,0.223,0.393,0.085,0.575
							c-0.814,1.097-1.645,2.189-2.48,3.277C646.952,178.767,646.83,178.823,646.708,178.823z M695.513,178.75
							c-0.187,0-0.354-0.127-0.396-0.316c-0.055-0.221,0.085-0.442,0.305-0.493l0.962-0.228c0.218-0.058,0.441,0.083,0.494,0.305
							c0.052,0.22-0.084,0.441-0.305,0.494l-0.964,0.228C695.575,178.746,695.544,178.75,695.513,178.75z M602.566,177.914
							c-0.082,0-0.165-0.025-0.237-0.076c-1.212-0.865-2.233-1.846-3.035-2.918c-0.136-0.182-0.099-0.439,0.083-0.574
							c0.181-0.136,0.438-0.099,0.574,0.083c0.751,1.004,1.711,1.926,2.854,2.741c0.188,0.131,0.229,0.388,0.1,0.572
							C602.821,177.854,602.694,177.914,602.566,177.914z M651.601,172.235c-0.081,0-0.163-0.024-0.232-0.075
							c-0.188-0.131-0.23-0.386-0.104-0.571c0.857-1.22,1.583-2.336,2.222-3.413c0.113-0.196,0.367-0.259,0.562-0.145
							c0.196,0.115,0.261,0.367,0.146,0.562c-0.647,1.096-1.388,2.231-2.256,3.468C651.855,172.174,651.73,172.235,651.601,172.235z
							 M597.839,171.417c-0.182,0-0.348-0.12-0.396-0.304c-0.272-1.013-0.411-2.08-0.411-3.169c0-0.346,0.014-0.692,0.041-1.037
							c0.018-0.227,0.229-0.386,0.438-0.376c0.229,0.018,0.396,0.215,0.376,0.441c-0.021,0.324-0.038,0.647-0.037,0.972
							c0,1.018,0.132,2.013,0.385,2.957c0.06,0.219-0.07,0.444-0.289,0.502C597.909,171.413,597.874,171.417,597.839,171.417z
							 M655.704,165.144c-0.054,0-0.108-0.01-0.16-0.033c-0.208-0.088-0.306-0.33-0.217-0.538c0.563-1.334,0.966-2.621,1.188-3.825
							c0.041-0.224,0.26-0.373,0.479-0.329c0.223,0.041,0.37,0.255,0.328,0.478c-0.234,1.263-0.651,2.607-1.24,3.997
							C656.016,165.05,655.863,165.144,655.704,165.144z M598.401,163.366c-0.052,0-0.102-0.009-0.146-0.027
							c-0.212-0.081-0.317-0.318-0.236-0.53c0.481-1.26,1.143-2.506,1.957-3.704c0.13-0.188,0.385-0.233,0.571-0.107
							c0.188,0.127,0.234,0.383,0.107,0.571c-0.781,1.145-1.411,2.333-1.87,3.534C598.722,163.266,598.566,163.366,598.401,163.366z
							 M657.015,157.151c-0.195,0-0.373-0.144-0.402-0.346c-0.194-1.231-0.622-2.408-1.272-3.496l-0.102-0.167
							c-0.12-0.192-0.063-0.445,0.131-0.565c0.188-0.12,0.443-0.062,0.563,0.13l0.11,0.18c0.703,1.178,1.167,2.453,1.379,3.789
							c0.035,0.224-0.118,0.434-0.342,0.469C657.058,157.149,657.036,157.151,657.015,157.151z M602.939,156.599
							c-0.104,0-0.211-0.04-0.289-0.12c-0.16-0.16-0.16-0.419-0.001-0.58c0.948-0.953,2.015-1.863,3.159-2.707
							c0.183-0.135,0.438-0.097,0.572,0.087c0.135,0.182,0.098,0.439-0.087,0.573c-1.113,0.819-2.145,1.702-3.063,2.626
							C603.148,156.559,603.044,156.599,602.939,156.599z M609.514,151.733c-0.146,0-0.286-0.077-0.357-0.213
							c-0.108-0.199-0.036-0.448,0.163-0.557l0.434-0.233c1.045-0.553,2.158-1.074,3.313-1.548c0.211-0.088,0.447,0.014,0.533,0.223
							c0.086,0.209-0.014,0.45-0.224,0.536c-1.127,0.465-2.218,0.975-3.239,1.515l-0.424,0.228
							C609.648,151.717,609.58,151.733,609.514,151.733z M652.844,150.313c-0.089,0-0.179-0.029-0.254-0.088
							c-0.979-0.772-2.132-1.457-3.432-2.036c-0.207-0.092-0.303-0.335-0.208-0.542c0.093-0.208,0.338-0.3,0.542-0.208
							c1.358,0.607,2.572,1.328,3.604,2.141c0.178,0.14,0.208,0.398,0.068,0.576C653.085,150.26,652.965,150.313,652.844,150.313z
							 M617.077,148.585c-0.175,0-0.337-0.113-0.395-0.289c-0.064-0.217,0.058-0.447,0.271-0.513
							c1.271-0.394,2.615-0.753,3.992-1.068c0.222-0.054,0.438,0.088,0.489,0.309c0.052,0.221-0.089,0.441-0.31,0.491
							c-1.356,0.311-2.679,0.665-3.934,1.052C617.158,148.579,617.117,148.585,617.077,148.585z M645.445,146.902
							c-0.033,0-0.067-0.004-0.104-0.013c-1.243-0.316-2.583-0.567-3.979-0.747c-0.229-0.029-0.387-0.235-0.355-0.459
							s0.236-0.388,0.459-0.355c1.437,0.184,2.808,0.441,4.081,0.766c0.22,0.056,0.354,0.279,0.297,0.499
							C645.795,146.779,645.629,146.902,645.445,146.902z M625.067,146.74c-0.197,0-0.371-0.143-0.404-0.344
							c-0.036-0.224,0.115-0.435,0.339-0.471c1.304-0.214,2.679-0.401,4.087-0.558c0.22-0.025,0.428,0.137,0.452,0.363
							c0.025,0.225-0.138,0.428-0.362,0.453c-1.394,0.155-2.755,0.34-4.044,0.551C625.112,146.739,625.09,146.74,625.067,146.74z
							 M633.223,145.85c-0.219,0-0.397-0.171-0.409-0.392c-0.011-0.226,0.163-0.418,0.394-0.428c1.414-0.065,2.775-0.074,4.134-0.03
							c0.229,0.008,0.404,0.197,0.396,0.424c-0.009,0.222-0.189,0.396-0.41,0.396c-0.004,0-0.009,0-0.017,0
							c-1.335-0.044-2.677-0.034-4.067,0.029C633.234,145.85,633.229,145.85,633.223,145.85z"/>
					</g>
				</g>
				<g>
					<g>
						<polygon fill="#380F8F" points="731.104,165.92 700.551,169.283 702.177,180.393 						"/>
					</g>
					<g>
						<polygon fill="#8550FC" points="731.104,165.92 705.243,172.4 702.177,180.393 						"/>
					</g>
					<g>
						<polygon fill="#A796FF" points="731.104,165.92 693.601,162.571 700.551,169.283 						"/>
					</g>
					<g>
						<polygon fill="#A796FF" points="731.104,165.92 705.243,172.4 714.14,179.82 						"/>
					</g>
				</g>
			</g>
			<g>
				<path fill="#5065FC" d="M585.167,107.038c-6.166,0-8.604,2.547-8.604,8.028c0,0.504-0.959,0.504-0.959,0
					c0-5.48-1.947-8.028-8.603-8.028c-0.497,0-0.497-0.96,0-0.96c6.856,0,8.603-3.175,8.603-8.019c0-0.503,0.959-0.503,0.959,0
					c0,5.769,2.334,8.019,8.604,8.019C585.664,106.078,585.664,107.038,585.167,107.038z"/>
			</g>
		</g>
		<g>
			<path fill="#F4D37E" d="M575.769,252.08l-2.445,3.094l-0.578,0.736l-4.408-0.607l-1.435-0.194l-1.209-2.015l-0.323-0.541
				l-2.104-3.498c-3.507,1.119-7.396,0.293-9.718-1.473c0,0-0.008,0-0.015,0c-1.007-0.781-1.713-1.727-1.96-2.764
				c-0.03-0.12-0.063-0.24-0.094-0.368c-0.522-2.08-1.344-4.468-1.765-7.705c-0.263-1.981-0.368-4.295-0.165-7.044
				c0.405-5.445,8.674-6.855,14.922-5.25c6.256,1.615,8.065,18.354,8.065,18.354l2.088,6l0.909,2.601l0.026,0.099L575.769,252.08z"
				/>
			<path fill="#F38346" d="M555.011,243.4c0.68,2.628-1.438,4.195-1.438,4.195s-0.01,0-0.022-0.015c0,0-0.008,0-0.015,0
				c-1.007-0.78-1.713-1.728-1.96-2.764C552.722,244.453,553.773,244.035,555.011,243.4z"/>
			<path fill="#F4D37E" d="M621.021,282.039c0,0,12.21,16.953,12.563,17.904c0.351,0.951-1.41,4.604-0.073,6.178
				c1.337,1.572,7.472,5.184,9.313,3.527c0.939-0.849,0.269-2.271,0.269-2.271s-3.534-1.203-3.569-3.369
				c-0.034-2.166,0.354-3.818-0.355-5.668c-1.255-3.256-1.148-1.688-2.752-4.221c-4.896-7.732-9.727-16.906-9.727-16.906
				L621.021,282.039z"/>
			<path fill="#F38346" d="M569.484,265.976l41.909,6.813l10.706,10.826l5.194-5.295c0,0-5.649-10.563-7.981-14.116
				c-2.328-3.553-40.146-12.813-44.354-12.745c-4.206,0.065-7.931,4.345-8.057,7.456
				C566.776,262.031,569.484,265.976,569.484,265.976z"/>
			<path fill="#8550FC" d="M562.608,254.647c0,0,5.857-3.923,13.679-3.188c0,0,8.313,3.381,11.977,8.569
				c3.66,5.188,11.916,31.958,20.738,36.298c0,0-10.993,9.281-19.385,11.25c-1.85,0.436-3.813,0.275-3.813,0.275
				s-2.479-10.408-12.106-20.586c-6.473,0.34-9.053-1.498-11.087-4.594C560.993,273.839,563.682,265.489,562.608,254.647z"/>
			<path fill="#F4D37E" d="M523.273,249.433c-3.071-3.063-19.572-22.643-22.275-23.508c-3.196-1.022-6.029,1.332-9.327,1.6
				c-3.297,0.267-5.389-2.17-7.349-2.081c-1.961,0.089-1.267,2.039,1.648,3.358c1.396,0.631,2.997,2.053,5.061,2.22
				c2.062,0.167,6.328,0.339,7.439,0.7c2.229,0.725,18.707,22.787,18.707,22.787L523.273,249.433z"/>
			<path fill="#8550FC" d="M567.934,252.443l-38.961,1.673l-6.899-6.517l-6.71,6.178c0,0,5.354,6.298,8.074,9.563
				c2.724,3.264,40.7,5.758,44.871,5.213c4.172-0.543,6.916-5.414,6.688-8.521c-0.09-1.209-0.594-2.647-1.176-3.957
				C572.795,253.771,570.451,252.345,567.934,252.443z"/>
			<path fill="#F38346" d="M585.805,307.854c0,0,4.5,56.297,10.6,65.681c6.097,9.383,47.012,39.211,47.012,39.211l5.082-6.295
				c0,0-17.558-28.597-26.13-33.313c-4.211-2.316-10.288-5.865-10.288-5.865s4.337-52.508,1.288-60.346
				c-3.048-7.84-4.363-10.598-4.363-10.598L585.805,307.854z"/>
			<path fill="#FC8E53" d="M585.805,307.854c0,0,38.933,46.086,51.539,52.035c12.608,5.949,48.502,11.898,48.502,11.898l1.064-5.779
				c0,0-16.981-12.354-27.607-16.32c-6.092-1.842-13.742-2.407-13.742-2.407s-12.313-28.294-20.954-37.207
				c-8.645-8.912-15.604-13.744-15.604-13.744L585.805,307.854z"/>
			<ellipse fill="#222D3C" cx="552.484" cy="238.699" rx="0.99" ry="1.37"/>
			<path fill="#222D3C" d="M547.23,223.827c-1.234,6.374-2.118,13.7,10.066,16.042c12.188,2.342,12.907,3.16,14.86,7.73
				c1.389,3.248,0.857,13.688,6.688,21.459c5.829,7.77,11.48,2.119,17.663,9.891c3.183,4.416,0.706,16.957,7.771,21.371
				c7.063,4.416,21.726-1.06,32.854-10.771c11.127-9.717,17.241-27.683,8.519-33.64c-13.48-9.205-26.62-2.836-30.948-7.163
				c-4.327-4.328,1.579-12.061-6.895-15.078c-9.026-3.216-19.159,2.625-25.075-3.291c-5.919-5.918-12.074-14.879-22.686-14.879
				C549.438,215.498,547.23,223.827,547.23,223.827z"/>
			<path fill="#232323" d="M684.14,363.041l-0.925,9.99c0,0,5.457-0.187,6.659,0.832c1.203,1.018,4.163,10.637,6.013,11.654
				c1.853,1.018,5.735,1.94,4.72-0.738c-1.02-2.685-7.217-15.818-6.478-21.738l-7.219,1.203L684.14,363.041z"/>
			<path fill="#232323" d="M648.496,404.592l-5.453,8.424c0,0,4.921,2.365,5.515,3.824c0.596,1.459,1.914,12.752,3.081,14.512
				c1.167,1.761,4.183,4.382,4.522,1.531c0.342-2.85-0.71-18.59,0.646-22.686l-6.415-3.256L648.496,404.592z"/>
		</g>
		<path fill="#F6D6FA" d="M326.279,80.572c-7.787,0-10.865,3.218-10.865,10.14c0,0.636-1.211,0.636-1.211,0
			c0-6.922-2.464-10.14-10.866-10.14c-0.628,0-0.628-1.213,0-1.213c8.662,0,10.866-4.01,10.866-10.128c0-0.636,1.21-0.636,1.21,0
			c0,7.287,2.949,10.128,10.866,10.128C326.907,79.359,326.908,80.572,326.279,80.572z"/>
	</g>
</g>
</svg>
