<?xml version="1.0" encoding="utf-8"?>
<!-- Generator: Adobe Illustrator 16.0.0, SVG Export Plug-In . SVG Version: 6.00 Build 0)  -->
<!DOCTYPE svg PUBLIC "-//W3C//DTD SVG 1.1//EN" "http://www.w3.org/Graphics/SVG/1.1/DTD/svg11.dtd">
<svg version="1.1" xmlns="http://www.w3.org/2000/svg" xmlns:xlink="http://www.w3.org/1999/xlink" x="0px" y="0px"
	 width="769.445px" height="540.279px" viewBox="0 0 769.445 540.279" enable-background="new 0 0 769.445 540.279"
	 xml:space="preserve">
<g id="Background">
</g>
<g id="Object">
	<g>
		<path fill="#E9E9E9" d="M269.941,434.548c-39.091,0.318-150.021,6.776-150.021,18.594c0,26,298.988,1.179,258.542,17.425
			c-37.187,14.937-26.202,31.787,87.146,19.604c142.649-15.333,105.683-39.326,153.986-36
			c100.402,6.912,139.374-12.405,64.302-19.622c-51.606-4.962-140.674-10.937-182.812-10.937
			C461.171,423.611,341.486,433.965,269.941,434.548z"/>
		<polygon fill="#1631A4" points="207.884,411.931 621.008,411.931 580.17,75.532 252.918,75.532 		"/>
		<rect x="252.918" y="75.532" fill="#FFFFFF" width="327.252" height="375.789"/>
		<rect x="252.918" y="75.532" fill="#01008A" width="327.252" height="60.046"/>
		<path fill="#FDBC47" d="M324.686,102.552h-1.716c-3.89,0-7.043-3.153-7.043-7.043V57.055c0-3.89,3.153-7.043,7.043-7.043h1.716
			c3.89,0,7.043,3.153,7.043,7.043v38.454C331.729,99.399,328.576,102.552,324.686,102.552z"/>
		<path fill="#FDBC47" d="M417.007,102.552h-1.716c-3.89,0-7.043-3.153-7.043-7.043V57.055c0-3.89,3.153-7.043,7.043-7.043h1.716
			c3.89,0,7.043,3.153,7.043,7.043v38.454C424.05,99.399,420.897,102.552,417.007,102.552z"/>
		<path fill="#FDBC47" d="M517.584,102.552h-1.716c-3.89,0-7.043-3.153-7.043-7.043V57.055c0-3.89,3.153-7.043,7.043-7.043h1.716
			c3.89,0,7.043,3.153,7.043,7.043v38.454C524.627,99.399,521.474,102.552,517.584,102.552z"/>
		<rect x="384.634" y="162.755" fill="#EAEAEA" width="63.03" height="63.031"/>
		<rect x="489.714" y="162.755" fill="#EAEAEA" width="63.031" height="63.031"/>
		<rect x="489.714" y="261.081" fill="#EAEAEA" width="63.031" height="63.031"/>
		<rect x="384.634" y="261.081" fill="#EAEAEA" width="63.03" height="63.031"/>
		<rect x="384.634" y="351.901" fill="#EAEAEA" width="63.03" height="63.03"/>
		<rect x="285.558" y="351.901" fill="#EAEAEA" width="63.03" height="63.03"/>
		<rect x="285.009" y="260.691" fill="#EAEAEA" width="63.03" height="63.031"/>
		<path fill="#FDBC48" d="M172.857,357.498l-28.021-3.753c0,0-3.502,18.765,26.271,20.767L172.857,357.498z"/>
		<path fill="#FED648" d="M227.649,328.476l18.765,5.255c0,0,3.77,13.241-19.992,12.009L227.649,328.476z"/>
		<path fill="#FDBC48" d="M211.887,313.465l-44.034-18.64c0,0-8.256,31.399,28.272,42.157L211.887,313.465z"/>
		<path fill="#01008A" d="M180.363,408.568c0,0-7.506-14.292-3.252-16.293c4.253-2.002,6.255,4.253,8.757,2.001
			s-8.256-15.512-1.251-17.764s4.753,7.302,9.257,6.903s-3.002-31.107,3.753-31.515c6.755-0.408,2.752,15.179,6.505,14.641
			c3.752-0.537,1.251-14.734,6.755-14.641c5.504,0.093,1.251,18.356,4.503,19.357s2.752-11.759,8.006-11.009
			c5.254,0.751-0.751,22.313,3.002,23.166s3.253-8.654,8.007-7.153c4.753,1.501-4.504,18.014-1.752,19.015s1.752-5.004,5.505-3.753
			s-2.002,14.511-2.002,14.511L180.363,408.568z"/>
		<polygon fill="#505CD4" points="209.635,403.309 208.135,403.259 211.12,313.955 197.135,308.035 197.428,307.344 
			212.655,312.974 		"/>
		<polygon fill="#01008A" points="204.43,405.479 172.424,358.198 160.058,356.541 160.158,355.798 173.291,356.799 
			205.673,404.637 		"/>
		<polygon fill="#01008A" points="211.369,405.221 209.903,404.895 227.088,327.539 236.527,330.961 236.325,331.685 
			228.21,329.413 		"/>
		<path fill="#BDCCD3" d="M171.106,414.932c0,0,3.252,28.633,9.257,36.389h53.291c0,0,7.782-17.013,7.506-36.389H171.106z"/>
		<path fill="#90BCC6" d="M171.106,414.932v-12.726h70.33c0,0,0.277,12.726,0,12.726
			C241.16,414.932,171.106,414.932,171.106,414.932z"/>
		<path fill="#505CD4" d="M207.617,402.206l-5.237-60.971C202.38,341.235,180.579,381.363,207.617,402.206z"/>
		<path fill="#6774FF" d="M207.617,402.206c0,0,2.519-37.702,18.781-48.461C226.398,353.745,227.866,387.868,207.617,402.206z"/>
		<path fill="#6774FF" d="M207.617,402.206c0,0-7.739-25.443-20.249-32.448C187.368,369.758,184.332,393.873,207.617,402.206z"/>
		<path fill="#505CD4" d="M207.617,402.206c0,0,8.023-28.772,25.286-30.485C232.903,371.721,230.618,398.626,207.617,402.206z"/>
		<polygon fill="#6774FF" points="217.079,204.068 222.708,200.502 225.71,205.757 224.021,212.324 219.331,212.324 		"/>
		<polygon fill="#FDBC47" points="212.763,157.344 300.956,144.835 310.673,217.463 224.108,232.152 		"/>
		<path fill="#FDBC47" d="M217.574,202.138c0,0,4.946,7.372,3.82,12.626l-34.151,5.441l-13.135-41.469h4.691
			c0,0,2.627,0.375,4.691,5.629s6.567,21.767,8.819,23.08C194.561,208.759,217.574,202.138,217.574,202.138z"/>
		<path fill="#6774FF" d="M224.631,215.092c0,0,4.175-5.02,4.645-5.629c0.469-0.61,3.471-4.457,4.831-5.066s4.832-2.439,5.207-1.642
			c0.376,0.797-1.407,3.096-2.627,3.659s-2.017,2.721-2.017,2.721s4.503-1.923,5.723-2.346s9.617-4.926,10.508-3.894
			c0.892,1.032-7.364,6.662-7.74,6.896c-0.375,0.234-0.281,0.516,0.376,0.281c0.656-0.234,12.29-4.644,13.135-3.659
			c0.845,0.985-4.269,3.799-7.178,5.207c-2.908,1.407-3.611,1.548-3.471,1.97s0.656,0.281,1.876-0.094s8.632-3.002,9.383-1.876
			c0.75,1.125-6.313,3.95-8.96,4.832c-0.845,0.281-0.798,0.657-0.61,0.798s7.506-2.018,8.021-0.61
			c0.517,1.407-6.191,3.378-8.631,3.847c-2.439,0.47-11.682,2.674-13.558,2.674c-1.877,0-5.16,0.142-5.301,0
			C228.103,223.02,224.631,215.092,224.631,215.092z"/>
		<path fill="#FB921B" d="M220.972,215.467l4.902-1.871c0,0,3.636,4.765,3.354,9.627c0,0-2.628,3.269-5.161,2.424L220.972,215.467z"
			/>
		<path fill="#01008A" d="M74.406,335.731c0,0-7.631-6.005-11.008-5.129s-20.516,32.9-18.765,34.651
			c1.751,1.752,24.7-16.063,27.483-16.888c2.783-0.825,3.916-2.002,3.916-2.002L74.406,335.731z"/>
		<path fill="#01008A" d="M134.077,241.284c0,0-9.882,8.757-8.131,19.89c1.751,11.134-5.254,39.155-9.132,41.907
			c-3.878,2.753-44.409,26.896-44.409,26.896s-1.751,14.636,3.378,18.389c0,0,56.293-26.896,58.294-29.147
			s9.257-76.367,9.257-76.367L134.077,241.284z"/>
		<path fill="#6774FF" d="M188.699,164.903c-0.255-0.098-5.239-2.004-8.083,4.076c-0.135,0.277-0.263,0.533-0.383,0.758
			c-1.667,2.987-2.747,1.366-2.747,1.366l-10.756-7.13l6.125-9.502l11.386-0.503l0.255,0.63L188.699,164.903z"/>
		<path fill="#515BD1" d="M188.699,164.903c-0.255-0.098-5.239-2.004-8.083,4.076c-0.135,0.277-0.263,0.533-0.383,0.758
			c-1.727-0.443-3.31-0.848-3.31-0.848s0.653-1.876,3.19-3.663c2.537-1.787-1.659-6.898-1.659-6.898l6.042-3.73L188.699,164.903z"/>
		<path fill="#6774FF" d="M198.877,144.084c0,0-0.25,6.13-1.626,12.135l0.281,0.996c0.312,1.104-0.172,2.278-1.171,2.842
			l-0.737,0.416c0,0-1.376,5.629-3.002,6.13c-1.626,0.5-16.138-9.632-16.138-9.632l-3.628-14.136l17.138-7.255
			C189.995,135.578,199.362,138.608,198.877,144.084z"/>
		<path fill="#515BD1" d="M181.864,148.337c0,0,2.771-3.878,4.013-3.502c1.242,0.375,8.831,1.909,11.124,0
			c0.834-0.694,1.704,1.747,1.704,1.747l2.674-5.75l-18.568-2.212C182.811,138.619,181.864,145.71,181.864,148.337z"/>
		<path fill="#1631A4" d="M181.864,148.337c0,0,0-3.377-3.127-2.877c-3.127,0.5-4.292,9.301,0.75,9.257l-1.032,3.607l-8.4,0.489
			c0,0-3.578-7.599-3.953-10.351c-0.375-2.752,0-10.508,0-10.508l3.252-1.751c0,0-0.5-6.13,0.125-6.505
			c0.625-0.375,0.875,3.127,2.377,3.002c0,0,2.752-9.257,15.512-8.131s14.636,6.88,20.016,6.004
			c5.379-0.875,5.379-0.875,5.379-0.875s-5.224,17.13-14.058,16.884c0,0-0.078-2.248-1.454-2.873c0,0-2.502,1.376-9.883-0.125
			C187.368,143.584,183.607,142.527,181.864,148.337z"/>
		<path fill="#01008A" d="M86.541,366.63c-0.438-0.108-10.133-0.125-10.508,0c-0.375,0.126-10.508,20.892-10.883,23.644
			c-0.375,2.752,1.876,11.634,3.127,11.884c1.251,0.251,3.127-0.125,4.878-9.882L92.92,378.39
			C92.92,378.39,89.111,367.27,86.541,366.63z"/>
		<path fill="#FB921B" d="M162.474,171.544l3.847-8.789c0,0,10.696-0.532,16.419,7.537l-3.345,8.655L162.474,171.544z"/>
		<path fill="#1631A4" d="M136.338,242.39c0,0-7.64,9.902-5.764,19.285c1.876,9.382,3.252,7.381,3.502,12.259
			c0.25,4.879-1.219,41.907-3.799,46.286c-2.581,4.378-46.114,41.406-46.114,41.406s-2.377,14.262,8.506,18.015
			c0,0,53.917-41.782,57.919-49.538c4.003-7.757,18.014-79.062,17.263-81.438C167.853,248.665,140.813,241.155,136.338,242.39z"/>
		<path fill="#FED648" d="M182.867,217.519c-0.518,2.222-1.096,4.271-1.711,6.162c-4.924,15.019-12.429,19.853-12.429,19.853
			s-3.475-0.413-8.099-1.186c-7.476-1.262-17.938-3.483-21.511-6.478c0,0-3.002-1.592-1.036-9.848
			c1.966-8.257,11.792-51.52,24.394-54.477c6.132-1.441,15.327,3.61,16.918,7.4C180.991,182.736,187.491,197.628,182.867,217.519z"
			/>
		<path fill="#FDBC47" d="M181.156,223.681c-4.924,15.019-12.429,19.853-12.429,19.853s-3.475-0.413-8.099-1.186
			c-1.05-0.796-1.914-1.404-2.109-1.457c-0.57-0.143,2.642-1.546,4.894-1.636c2.252-0.083,2.252-2.725,1.689-4.601
			c-0.563-1.877,4.879,0,7.506-2.5c2.627-2.507-17.076-25.647-20.874-32.688c-3.806-7.033,1.103-13.811,1.103-13.811
			S171.263,210.26,181.156,223.681z"/>
		<path fill="#FED648" d="M220.972,215.467c0,0-1.548-2.855-4.315-2.577c-2.768,0.279-25.051,4.642-26.833,3.375
			s-11.024-27.865-14.777-31.899s-9.945-6.38-16.7-4.41c-6.755,1.97-7.694,12.187-4.785,17.915
			c2.908,5.729,27.865,41.1,34.62,41.381c6.755,0.281,33.307-10.039,34.433-11.165s1.454-2.439,1.454-2.439
			S224.693,215.511,220.972,215.467z"/>
		<path fill="#FB921B" d="M139.112,235.873c0,0-4.159-1.094-5.035,5.411c0,0,24.144,12.51,33.776,7.381c0,0,2.752-1.502,0.876-5.13
			L139.112,235.873z"/>
		<path fill="#515BD1" d="M177.714,147.587c0,0,3.774-1.001,2.899,2.377c-0.876,3.377-2.377,2.877-2.377,2.877
			S182.572,147.962,177.714,147.587z"/>
		<path fill="#6774FF" d="M600.624,273.777c0,0,1.063-9.601-0.563-10.977c-1.626-1.376-4.378-2.252-7.255,0
			c-2.878,2.251-5.254,5.379-4.254,6.255c1.001,0.875,8.228-7.62,8.228-7.62s-8.071-8.018-9.666-7.548
			c-1.595,0.469-1.126,1.313-2.533,2.157c-1.407,0.845-1.001,0.345-1.282,1.376c-0.281,1.032-2.449,1.636-2.658,2.096
			c-0.469,1.032-0.366,1.951-1.095,2.658c-0.71,0.689-1.835-0.1-1.938,2.064c-0.12,2.487,4.728,11.38,6.505,12.76
			c1.794,1.393,6.099,2.689,8.913,4.848c2.814,2.157,22.518,24.3,26.552,24.394s21.485-15.95,21.485-15.95l-11.446-11.634
			c0,0-10.039,12.666-10.884,12.385S600.624,273.777,600.624,273.777z"/>
		<path fill="#CBCBCB" d="M626.206,280.054l13.511,16.647l10.007-10.883l-6.505-28.397c0,0-1.376-1-5.254,5.38
			S626.206,280.054,626.206,280.054z"/>
		<circle fill="#FED648" cx="676.995" cy="427.646" r="20.344"/>
		<circle fill="#1631A4" cx="676.995" cy="427.646" r="14.118"/>
		<path fill="#FB921B" d="M651.1,405.035c0,0-0.376,9.663-2.627,10.508c-2.252,0.845-9.852,0.188-9.852,8.068h25.145
			c0,0,2.439-2.439,2.768-2.768s-4.551-20.594-4.551-20.594L651.1,405.035z"/>
		<path fill="#FB931D" d="M683.998,355.249c-1.546,0.713-3.152,0.976-4.767,0.908c-8.563-0.315-17.248-9.795-17.248-9.795
			l-1.749-2.627l10.058-1.749h20.821C691.113,341.986,693.755,350.745,683.998,355.249z"/>
		<path fill="#1631A4" d="M647.095,322.407c0,0-19.701,16.765-20.89,20.705s-2.127,39.968-2.127,39.968l20.829,1.313l0.375-42.97
			l16.7-23.269L647.095,322.407z"/>
		<path fill="#8FBFC5" d="M668.488,358.037c0,0-8.49,26.243-3.761,53.894l6.836-3.89c0,0-1.271-26.023,5.432-46.54
			C676.995,361.501,675.744,357.575,668.488,358.037z"/>
		<path fill="#8FBFC5" d="M626.206,377.29c0,0,25.033,0.893,31.531,24.827c0,0-6.129,4.303-6.637,2.918
			c-0.509-1.386-3.128-17.125-24.895-19.266V377.29z"/>
		<path fill="#01008A" d="M654.29,320.595c0,0-23.455,22.33-23.643,25.332c-0.188,3.003,20.453,59.108,20.453,59.108
			s9.945,1.876,14.073-5.817c-0.751-1.126-14.824-41.845-13.323-45.41c1.501-3.564,18.442-11.821,18.442-11.821
			s22.104,5.1,22.104-23.533l-17.654-7.615L654.29,320.595z"/>
		<path fill="#FED648" d="M653.226,249.069c0,0-4.162,6.837-10.008,8.352c-3.377,0.876-0.25,29.773,1.001,39.28
			c1.251,9.508-2.001,27.021-2.001,27.021s38.529-11.51,56.668-3.253c0,0-14.948-41.72-24.519-56.168
			C664.797,249.853,653.226,249.069,653.226,249.069z"/>
		<path fill="#6774FF" d="M653.224,249.072c-0.398,4.278-4.414,6.5-7.235,7.551c-1.569,0.578-2.771,0.796-2.771,0.796
			c-6.882-10.133-14.133-8.722-14.133-8.722l10.801-5.584l5.96-3.078L653.224,249.072z"/>
		<path fill="#FDBC47" d="M649.723,263.426c-2.564,2.564,6.928,29.171,6.928,29.171h5.848l-6.332,24.245l12.321-3.021l10.743-17.12
			l-18.997-30.758L649.723,263.426z"/>
		<path fill="#6774FF" d="M686.842,300.239c-0.277,4.03-22.232,22.795-23.921,24.483c-1.688,1.689-1.224,4.129-3.28,6.471
			c-2.071,2.349-9.952,5.073-10.98,4.976c-1.028-0.097-0.751-1.028-1.502-2.063c-0.75-1.036-1.876,0-2.439-0.563
			c-0.563-0.563-0.285-1.974-1.313-2.153c-1.029-0.195-1.779-1.224-1.704-2.252c0.075-1.036-0.45-1.036-1.771-1.787
			c-1.306-0.75-0.841-1.786-0.556-2.438c0.278-0.653,5.532-3.378,5.72-3.753c0.188-0.376,0.938-5.532,2.252-6.005
			s8.819,1.688,8.819,1.688s13.135-13.51,14.125-15.762c0.991-2.252-8.309-16.048-8.309-16.048l8.685-10.253l2.762-3.257
			c0,0,1.044,1.884,2.552,4.698C679.929,283.584,687.045,297.319,686.842,300.239z"/>
		<path fill="#515BD1" d="M675.824,295.218l-5.532,5.862c0.991-2.252-8.309-16.048-8.309-16.048l8.685-10.253l5.313,1.441
			c0.24,6.785-10.245,11.725-10.245,11.725C670.352,300.097,675.531,295.488,675.824,295.218z"/>
		<path fill="#FFFFFF" d="M659.262,288.977c0,0,17.639-10.039,17.451-14.823c0,0-13.386-24.395-23.487-19.703
			S659.262,288.977,659.262,288.977z"/>
		<rect x="642.468" y="423.611" fill="#01008A" width="20.453" height="4.034"/>
		<circle fill="#FED648" cx="556.652" cy="393.275" r="63.298"/>
		<circle fill="#1631A4" cx="556.652" cy="393.275" r="51.605"/>
		<path fill="#01008B" d="M617.54,377.29h8.666v21.239h-8.629C617.577,398.529,613.627,386.323,617.54,377.29z"/>
		<path fill="#FDBC48" d="M683.998,355.249c-1.546,0.713-3.152,0.976-4.767,0.908c-6.484-7.07,0.016-14.171,0.016-14.171h11.866
			C691.113,341.986,693.755,350.745,683.998,355.249z"/>
		<path fill="#01008B" d="M670.292,353.09l-1.805,4.947l8.507,3.464l2.236-5.344C679.231,356.157,677.351,352.935,670.292,353.09z"
			/>
		<circle fill="#FED648" cx="556.652" cy="393.275" r="23.518"/>
		<circle fill="#FED648" cx="676.995" cy="427.646" r="6.901"/>
		<path fill="#515BD1" d="M588.551,269.056c0,0,2.002,1.125,5.129-1.502c3.128-2.627,2.878-1.251,2.878-1.251
			s-5.75,4.504-4.001,6.631C592.557,272.934,587.59,272.055,588.551,269.056z"/>
		<path fill="#515BD1" d="M645.989,256.623c-1.569,0.578-2.771,0.796-2.771,0.796c-6.882-10.133-14.133-8.722-14.133-8.722
			l10.801-5.584l0.053,3.438c0,0-1.637,2.611,1.764,5.366C644.24,253.974,645.583,255.617,645.989,256.623z"/>
		<path fill="#6774FF" d="M627.582,225.271c0,0-1.376,5.505-2.377,10.134l-2.509,1.643c-0.537,0.353-0.552,1.136-0.027,1.507
			l1.911,1.354c0,0-1.501,7.881,0,9.007s23.518-4.254,23.518-4.254l5.129-18.014C653.226,226.647,633.586,212.762,627.582,225.271z"
			/>
		<path fill="#515BD1" d="M639.013,234.027c0,0-1.049-3.439-2.862-3.252c-1.814,0.188-5.817-2.188-5.504-4.378
			c0.313-2.189-3.54,0.803-3.54,0.803s-0.901-4.681-0.651-4.868s11.081-3.44,11.081-3.44l4.493,8.194L639.013,234.027z"/>
		<path fill="#1631A4" d="M639.055,235.405c0,0,3.601-4.692,5.664-3.379c2.064,1.313,1.314,3.941,0,6.005
			c-1.313,2.064-5.664,3.003-5.664,3.003l2.102,5.246h9.791l2.278,0.758c0,0-0.125-0.375,0-2.627s13.636-9.194,7.819-22.893
			c-5.817-13.698-18.202-13.135-18.202-13.135s3.19-2.064,2.814-2.815c-0.375-0.75-8.632-0.375-11.259,1.876
			c-2.627,2.252-2.742,6.005-5.312,6.192s-8.386-3.565-9.324-2.439s2.116,14.365,7.344,16.002c0,0,3.164-5.118,4.103-4.181
			c0.938,0.938-0.938,3.378,2.627,5.442C637.402,230.525,639.055,229.776,639.055,235.405z"/>
		<path fill="#515BD1" d="M644.219,234.028c0,0-4.065-0.125-4.378,2.564C639.841,236.593,641.03,234.466,644.219,234.028z"/>
	</g>
</g>
</svg>
