<?xml version="1.0" ?><!DOCTYPE svg  PUBLIC '-//W3C//DTD SVG 1.1//EN'  'http://www.w3.org/Graphics/SVG/1.1/DTD/svg11.dtd'><svg enable-background="new 0 0 512 512" id="Layer_1" version="1.1" viewBox="0 0 512 512" xml:space="preserve" xmlns="http://www.w3.org/2000/svg" xmlns:xlink="http://www.w3.org/1999/xlink"><g><path d="M61.4,481.8h93.5v-202c0-7.8,6.3-14.1,14.1-14.1h174c7.8,0,14.1,6.3,14.1,14.1v202h93.5V163.8H61.4" fill="#FFC10D"/><polygon fill="#56ACE0" points="420.4,30.2 91.6,30.2 38.9,135.6 473.1,135.6  "/><rect fill="#FFFFFF" height="187.9" width="145.8" x="183.1" y="293.9"/><path d="M508.5,143.4L441.8,9.8C439.4,5,434.5,2,429.1,2H82.9c-5.3,0-10.2,3-12.6,7.8L3.5,143.4   c-4.7,9.4,2.1,20.4,12.6,20.4h17v332.1c0,7.8,6.3,14.1,14.1,14.1h417.5c7.8,0,14.1-6.3,14.1-14.1V163.8h17   C506.4,163.8,513.2,152.8,508.5,143.4z M328.9,481.8H183.1V293.9h145.8V481.8z M450.6,481.8h-93.5v-202c0-7.8-6.3-14.1-14.1-14.1   H169c-7.8,0-14.1,6.3-14.1,14.1v202H61.4V295.9h21.2c7.8,0,14.1-6.3,14.1-14.1c0-7.8-6.3-14.1-14.1-14.1H61.4v-28.2h56.4   c7.8,0,14.1-6.3,14.1-14.1c0-7.8-6.3-14.1-14.1-14.1H61.4v-47.4h389.2V481.8z M38.9,135.6L91.6,30.2h328.8l52.6,105.4H38.9z" fill="#194F82"/><path d="M210.9,411c7.8,0,14.1-6.3,14.1-14.1v-18.1c0-7.8-6.3-14.1-14.1-14.1s-14.1,6.3-14.1,14.1v18.1   C196.8,404.7,203.1,411,210.9,411z" fill="#194F82"/><path d="M183.4,75.5c-10.5-2.7-17.4-4.4-17.3-10.2c0.6-5.3,4-7.5,9.4-7.6c7.2,0,14.3,2.6,21.1,7.7l8.8-12.8   c-8-6.6-17.8-10-29.3-10.3c-17.5,0.5-28.1,9-28,23.3c-0.4,14.3,7.6,20.1,26.3,24.8c9.5,2.5,14.5,4.2,14.4,9.8   c-0.1,6.1-5.9,7.7-10.3,7.7c-7.2,0-15-3.7-23.4-11.1l-10.4,12.8c9.9,9.2,21.1,13.8,33.5,13.8c14.8,0,28.4-7.5,28.7-23.6   C207,86.5,199.6,79.9,183.4,75.5z" fill="#194F82"/><path d="M255.6,44.2h-33.9v78.3h17.5v-21.9h16.4c15.6,0,28.2-12.6,28.2-28.2C283.9,56.8,271.2,44.2,255.6,44.2z    M252.8,85.6h-13.6V59.2h13.6c7.3,0,13.2,5.9,13.2,13.2C266,79.7,260.1,85.6,252.8,85.6z" fill="#194F82"/><path d="M316.6,44.2l-33.8,78.3h18.6l7.3-16.9h32.8l7.3,16.9h18.6l-33.8-78.3H316.6z M315.2,90.3l9.9-22.7l9.7,22.7   H315.2z" fill="#194F82"/></g></svg>