<?xml version="1.0" encoding="utf-8"?>
<!-- Generator: Adobe Illustrator 16.0.0, SVG Export Plug-In . SVG Version: 6.00 Build 0)  -->
<!DOCTYPE svg PUBLIC "-//W3C//DTD SVG 1.1//EN" "http://www.w3.org/Graphics/SVG/1.1/DTD/svg11.dtd">
<svg version="1.1" id="Layer_1" xmlns="http://www.w3.org/2000/svg" xmlns:xlink="http://www.w3.org/1999/xlink" x="0px" y="0px"
	 width="17.634px" height="19.871px" viewBox="4 13.066 17.634 19.871" enable-background="new 4 13.066 17.634 19.871"
	 xml:space="preserve">
<path fill="#FFFFFF" d="M287,325h90c2.762,0,5,2.238,5,5v90c0,2.762-2.238,5-5,5h-90c-2.763,0-5-2.238-5-5v-90
	C282,327.238,284.238,325,287,325z"/>
<title>All</title>
<path fill="#4D4D4D" d="M21.471,16.223c-0.683-0.173-1.367-0.34-2.043-0.537c-1.23-0.371-2.423-0.859-3.561-1.461
	c-0.572-0.295-1.145-0.596-1.729-0.859c-0.292-0.116-0.589-0.217-0.893-0.299h-0.858c0.001,0.006,0.001,0.012,0,0.02
	c-0.67,0.154-1.311,0.412-1.902,0.764c-1.088,0.616-2.23,1.135-3.41,1.548c-0.959,0.313-1.94,0.558-2.911,0.823
	c-0.097,0.006-0.17,0.09-0.163,0.186c0.001,0.008,0.002,0.016,0.004,0.024c0.029,0.595,0.045,1.172,0.082,1.758
	c0.029,0.507,0.045,1.015,0.123,1.517c0.115,0.752,0.262,1.507,0.425,2.246c0.268,1.219,0.675,2.4,1.212,3.523
	c0.305,0.637,0.652,1.254,1.01,1.861c0.541,0.912,1.188,1.762,1.923,2.528c0.298,0.313,0.596,0.62,0.917,0.914
	c0.291,0.294,0.604,0.569,0.936,0.82c0.617,0.433,1.264,0.815,1.883,1.233c0.176,0.141,0.424,0.141,0.598,0
	c0.912-0.53,1.763-1.163,2.534-1.883c0.759-0.693,1.455-1.449,2.085-2.26c0.627-0.82,1.188-1.689,1.672-2.601
	c0.539-1.003,0.97-2.06,1.287-3.155c0.215-0.768,0.435-1.541,0.575-2.316c0.155-0.874,0.235-1.761,0.317-2.645
	c0.047-0.514,0.029-1.035,0.047-1.553c0.021-0.086-0.032-0.173-0.117-0.193C21.499,16.225,21.485,16.223,21.471,16.223z
	 M13.364,27.512c0,0.254-0.205,0.459-0.457,0.459l0,0h-0.179c-0.252,0-0.457-0.205-0.457-0.459l0,0v-0.621
	c0-0.252,0.205-0.457,0.457-0.457l0,0h0.179c0.252,0,0.457,0.205,0.457,0.457l0,0V27.512z M13.364,24.521
	c0,0.246-0.199,0.447-0.447,0.448h-0.197c-0.25,0-0.45-0.202-0.45-0.448v-6.037c-0.001-0.248,0.198-0.449,0.444-0.449
	c0.003,0,0.006,0,0.006,0h0.199c0.248-0.002,0.447,0.197,0.449,0.444c0,0.003,0,0.003,0,0.005v6.039L13.364,24.521z"/>
</svg>
