<?xml version="1.0" encoding="utf-8"?>
<!-- Generator: Adobe Illustrator 16.0.0, SVG Export Plug-In . SVG Version: 6.00 Build 0)  -->
<!DOCTYPE svg PUBLIC "-//W3C//DTD SVG 1.1//EN" "http://www.w3.org/Graphics/SVG/1.1/DTD/svg11.dtd">
<svg version="1.1" id="Layer_1" xmlns="http://www.w3.org/2000/svg" xmlns:xlink="http://www.w3.org/1999/xlink" x="0px" y="0px"
	 width="21.66px" height="20.708px" viewBox="0 -2.114 21.66 20.708" enable-background="new 0 -2.114 21.66 20.708"
	 xml:space="preserve">
<path fill="#FFFFFF" d="M285.333,320h90c2.762,0,5,2.236,5,5v90c0,2.762-2.238,5-5,5h-90c-2.763,0-5-2.238-5-5v-90
	C280.333,322.238,282.57,320,285.333,320z"/>
<g>
	<g enable-background="new    ">
		<path fill="#4D4D4D" d="M16.648,10.588l4.666-3.846c0.66-0.546,0.316-1.615-0.547-1.661l-6.005-0.363
			c-0.365-0.023-0.683-0.251-0.82-0.593l-2.205-5.642c-0.319-0.796-1.435-0.796-1.75,0L7.779,4.102
			C7.642,4.444,7.323,4.672,6.96,4.694L0.928,5.06C0.064,5.104-0.278,6.173,0.383,6.718l4.664,3.824
			c0.271,0.229,0.409,0.614,0.316,0.955l-1.522,5.844c-0.206,0.819,0.683,1.481,1.41,1.025l5.074-3.253
			c0.319-0.204,0.706-0.204,1.002,0l5.097,3.253c0.729,0.456,1.615-0.206,1.412-1.025l-1.525-5.821
			C16.239,11.179,16.353,10.815,16.648,10.588z"/>
	</g>
</g>
</svg>
