<?xml version="1.0" encoding="utf-8"?>
<!-- Generator: Adobe Illustrator 16.0.0, SVG Export Plug-In . SVG Version: 6.00 Build 0)  -->
<!DOCTYPE svg PUBLIC "-//W3C//DTD SVG 1.1//EN" "http://www.w3.org/Graphics/SVG/1.1/DTD/svg11.dtd">
<svg version="1.1" xmlns="http://www.w3.org/2000/svg" xmlns:xlink="http://www.w3.org/1999/xlink" x="0px" y="0px" width="264px"
	 height="290px" viewBox="0 0 264 290" enable-background="new 0 0 264 290" xml:space="preserve">
<g id="BACKGROUND">
	<g>
		<rect y="-4" fill="#FFFFFF" width="264" height="264"/>
		<g opacity="0.31">
			<linearGradient id="SVGID_1_" gradientUnits="userSpaceOnUse" x1="231.3242" y1="186.8311" x2="277.6796" y2="365.3487">
				<stop  offset="0" style="stop-color:#1AE5FF"/>
				<stop  offset="0.2589" style="stop-color:#64E8F9"/>
				<stop  offset="0.7043" style="stop-color:#EAEEEE"/>
			</linearGradient>
			<path fill="url(#SVGID_1_)" d="M264,260v-99.307c-14.244,2.953-27.777,8.088-39.896,16.434
				c-10.038,6.912-19.204,16.955-19.948,29.121c-0.705,11.539,6.25,22.108,8.155,33.512c1.158,6.929,0.448,13.673-1.45,20.24H264z"
				/>
			<linearGradient id="SVGID_2_" gradientUnits="userSpaceOnUse" x1="14.9517" y1="228.499" x2="37.4507" y2="315.1443">
				<stop  offset="0" style="stop-color:#1AE5FF"/>
				<stop  offset="0.2589" style="stop-color:#64E8F9"/>
				<stop  offset="0.7043" style="stop-color:#EAEEEE"/>
			</linearGradient>
			<path fill="url(#SVGID_2_)" d="M27.4,236.92C18.885,231.056,9.669,226.781,0,223.73V260h46.263
				C43.443,250.538,35.724,242.651,27.4,236.92z"/>
		</g>
	</g>
</g>
<g id="OBJECTS">
	<g>
		<g opacity="0.32">
			
				<linearGradient id="SVGID_3_" gradientUnits="userSpaceOnUse" x1="-215.0713" y1="195.0586" x2="-150.3999" y2="195.0586" gradientTransform="matrix(-1 0 0 1 -35.1748 0)">
				<stop  offset="0" style="stop-color:#5155D4"/>
				<stop  offset="1" style="stop-color:#45F7FF"/>
			</linearGradient>
			<path fill="url(#SVGID_3_)" d="M116.281,182.611c-1.403,0.81-1.408,2.121-0.017,2.93l46.595,27.077
				c1.394,0.81,3.653,0.81,5.057,0l10.924-5.114c1.4-0.809,1.411-2.119,0.018-2.93l-46.595-27.077c-1.391-0.809-3.657-0.809-5.057,0
				L116.281,182.611z"/>
		</g>
		<g>
			<g>
				<path fill="#1AE5FF" d="M103.451,69.465l0.003,1.164c0.002,0.685,0.745,1.112,1.338,0.768l5.486-3.183
					c0.275-0.16,0.444-0.455,0.444-0.773l-0.003-1.163c-0.002-0.686-0.746-1.112-1.338-0.768l-5.486,3.183
					C103.62,68.852,103.45,69.146,103.451,69.465z"/>
			</g>
			<g>
				<path fill="#1AE5FF" d="M86.096,85.266l0.003,1.166c0.002,0.685,0.744,1.111,1.336,0.769l22.857-13.196
					c0.276-0.16,0.446-0.456,0.445-0.774l-0.003-1.166c-0.002-0.684-0.744-1.111-1.336-0.769L86.542,84.491
					C86.266,84.651,86.096,84.946,86.096,85.266z"/>
			</g>
			<g opacity="0.53">
				<path fill="#1AE5FF" d="M95.553,91.406l0.003,1.166c0.002,0.685,0.744,1.111,1.336,0.769l13.433-7.756
					c0.277-0.16,0.447-0.455,0.446-0.774l-0.003-1.166c-0.002-0.685-0.743-1.112-1.336-0.769l-13.434,7.755
					C95.722,90.792,95.552,91.087,95.553,91.406z"/>
			</g>
			<g>
				<path fill="#1AE5FF" d="M89.657,89.01l0.003,1.166c0.002,0.685,0.744,1.111,1.336,0.769l19.313-11.15
					c0.276-0.16,0.446-0.455,0.445-0.774l-0.003-1.166c-0.001-0.685-0.743-1.111-1.336-0.769l-19.313,11.15
					C89.826,88.396,89.656,88.691,89.657,89.01z"/>
			</g>
		</g>
		<g>
			<g opacity="0.37">
				<g>
					<path fill="#8ED2FF" d="M209.175,87.081c0.251,0.146,0.455,0.498,0.454,0.788l-0.022,7.92
						c-0.001,0.289-0.205,0.406-0.457,0.261l-10.027-5.79c-0.253-0.146-0.456-0.498-0.455-0.787l0.022-7.92
						c0.001-0.29,0.206-0.407,0.458-0.261L209.175,87.081z"/>
				</g>
			</g>
			<g opacity="0.47">
				<g>
					<path fill="#7974F5" d="M212.857,101.172c0.252,0.146,0.456,0.498,0.454,0.788l-0.022,7.92c0,0.289-0.205,0.406-0.456,0.261
						l-10.028-5.79c-0.253-0.145-0.455-0.498-0.455-0.787l0.022-7.92c0.002-0.29,0.206-0.406,0.458-0.261L212.857,101.172z"/>
				</g>
			</g>
		</g>
		<g>
			<g opacity="0.37">
				<g>
					<path fill="#8ED2FF" d="M110.87,108.647c0.163,0.094,0.294,0.321,0.293,0.509l-0.015,5.117c0,0.187-0.133,0.263-0.295,0.169
						l-6.479-3.741c-0.163-0.094-0.294-0.322-0.294-0.508l0.014-5.118c0.001-0.187,0.133-0.262,0.296-0.168L110.87,108.647z"/>
				</g>
			</g>
			<g opacity="0.47">
				<g>
					<path fill="#7974F5" d="M113.25,117.751c0.163,0.094,0.294,0.322,0.293,0.509l-0.014,5.117
						c-0.001,0.187-0.133,0.262-0.295,0.168l-6.479-3.74c-0.163-0.094-0.294-0.322-0.294-0.509l0.015-5.117
						c0-0.188,0.133-0.263,0.295-0.168L113.25,117.751z"/>
				</g>
			</g>
		</g>
		<g>
			<g>
				<linearGradient id="SVGID_4_" gradientUnits="userSpaceOnUse" x1="123.7661" y1="57.6143" x2="192.7891" y2="57.6143">
					<stop  offset="0" style="stop-color:#7F5EFF"/>
					<stop  offset="0.2423" style="stop-color:#8665FF"/>
					<stop  offset="0.5952" style="stop-color:#9978FF"/>
					<stop  offset="0.94" style="stop-color:#B391FF"/>
				</linearGradient>
				<path fill="url(#SVGID_4_)" d="M179.39,65.175c0.036,0.029,0.071,0.058,0.107,0.087c0.309,0.254,0.614,0.521,0.913,0.797
					c0.036,0.033,0.071,0.066,0.107,0.1c0.302,0.285,0.6,0.583,0.89,0.89c0.024,0.026,0.05,0.052,0.074,0.078
					c0.311,0.332,0.613,0.674,0.908,1.028c0.003,0.003,0.007,0.008,0.01,0.012c0.301,0.362,0.594,0.737,0.877,1.12c0,0,0,0,0.001,0
					c0.258,0.352,0.506,0.712,0.748,1.078c0.149,0.227,0.291,0.46,0.435,0.692c0.118,0.193,0.241,0.383,0.355,0.58
					c0.055,0.092,0.105,0.188,0.158,0.281c0.187,0.331,0.369,0.663,0.542,1.001c0.018,0.037,0.037,0.073,0.056,0.109
					c0.207,0.411,0.403,0.826,0.587,1.245c0.009,0.021,0.019,0.043,0.027,0.064c1.143,2.628,1.807,5.379,1.8,7.924l4.804-2.792
					c0.006-2.255-0.522-4.671-1.437-7.021l0.008-0.004c-0.068-0.174-0.139-0.348-0.211-0.522c-0.052-0.125-0.106-0.25-0.161-0.376
					c-0.009-0.021-0.018-0.042-0.026-0.063c-0.012-0.024-0.021-0.049-0.031-0.073c-0.077-0.173-0.155-0.346-0.236-0.519
					c-0.089-0.19-0.181-0.379-0.274-0.567c-0.015-0.029-0.03-0.058-0.045-0.087c-0.019-0.037-0.038-0.072-0.056-0.109
					c-0.076-0.149-0.153-0.3-0.233-0.449c-0.099-0.187-0.205-0.37-0.31-0.554c-0.053-0.093-0.104-0.187-0.157-0.279
					c-0.021-0.037-0.04-0.074-0.062-0.111c-0.094-0.16-0.198-0.313-0.296-0.471c-0.143-0.231-0.283-0.464-0.433-0.69
					c-0.023-0.037-0.045-0.075-0.069-0.11c-0.22-0.329-0.446-0.651-0.68-0.968c0,0-0.001,0-0.001,0c0,0,0,0,0,0
					c-0.155-0.212-0.314-0.421-0.478-0.627c-0.131-0.167-0.264-0.331-0.398-0.494c-0.004-0.004-0.007-0.008-0.01-0.012
					c-0.002-0.002-0.003-0.004-0.006-0.006c-0.136-0.165-0.274-0.326-0.414-0.486c-0.139-0.157-0.277-0.312-0.419-0.463
					c-0.022-0.024-0.046-0.048-0.068-0.072c-0.025-0.027-0.051-0.053-0.075-0.079c-0.098-0.103-0.195-0.208-0.295-0.309
					c-0.15-0.152-0.3-0.301-0.453-0.448c-0.047-0.045-0.095-0.088-0.143-0.132c-0.035-0.034-0.071-0.067-0.107-0.1
					c-0.074-0.069-0.147-0.14-0.222-0.207c-0.158-0.142-0.317-0.281-0.479-0.417c-0.07-0.059-0.142-0.116-0.213-0.173
					c-0.035-0.029-0.071-0.059-0.106-0.087c-0.054-0.043-0.105-0.087-0.159-0.129c-0.156-0.123-0.313-0.243-0.471-0.359
					c-0.114-0.084-0.229-0.165-0.346-0.246c-0.021-0.015-0.041-0.03-0.063-0.045c-0.02-0.014-0.039-0.028-0.059-0.042
					c-0.152-0.104-0.304-0.204-0.456-0.301c-0.151-0.096-0.303-0.189-0.456-0.278c-0.035-0.021-0.069-0.041-0.104-0.062
					l-45.865-26.48c-0.114-0.066-0.228-0.13-0.342-0.191c-0.146-0.08-0.294-0.156-0.439-0.228c-0.096-0.047-0.189-0.089-0.283-0.133
					c-0.023-0.011-0.046-0.022-0.068-0.033c-0.028-0.012-0.057-0.026-0.084-0.039c-0.144-0.064-0.287-0.125-0.43-0.182
					c-0.146-0.059-0.29-0.113-0.434-0.164c-0.025-0.009-0.049-0.016-0.073-0.024c-0.021-0.008-0.044-0.014-0.066-0.022
					c-0.098-0.033-0.194-0.066-0.29-0.095c-0.149-0.045-0.298-0.086-0.444-0.123c-0.071-0.018-0.141-0.031-0.211-0.047
					c-0.03-0.007-0.062-0.014-0.093-0.021c-0.045-0.01-0.092-0.021-0.136-0.03c-0.159-0.031-0.316-0.057-0.471-0.078
					c-0.095-0.013-0.188-0.02-0.283-0.028c-0.033-0.003-0.067-0.008-0.1-0.011c-0.032-0.002-0.064-0.007-0.095-0.009
					c-0.171-0.012-0.339-0.018-0.505-0.017c-0.073,0-0.144,0.007-0.216,0.01c-0.056,0.002-0.112,0.004-0.167,0.008
					c-0.058,0.003-0.117,0.003-0.173,0.008c-0.211,0.02-0.418,0.049-0.619,0.09c-0.004,0.001-0.008,0.003-0.011,0.003
					c-0.045,0.009-0.087,0.026-0.132,0.036c-0.207,0.047-0.413,0.098-0.608,0.167c-0.023,0.008-0.045,0.019-0.068,0.027
					c-0.033,0.012-0.064,0.027-0.097,0.04c-0.244,0.096-0.48,0.205-0.705,0.335l-4.804,2.792c0.225-0.13,0.462-0.239,0.705-0.335
					c0.033-0.013,0.064-0.027,0.097-0.04c0.218-0.081,0.445-0.142,0.676-0.195c0.044-0.01,0.086-0.027,0.131-0.036
					c0.26-0.053,0.528-0.083,0.803-0.101c0.056-0.003,0.111-0.006,0.167-0.008c0.266-0.01,0.538-0.006,0.816,0.017
					c0.033,0.002,0.067,0.007,0.1,0.01c0.291,0.028,0.587,0.073,0.89,0.137c0.031,0.006,0.063,0.014,0.093,0.021
					c0.31,0.069,0.625,0.157,0.946,0.265c0.022,0.007,0.044,0.014,0.066,0.021c0.335,0.115,0.675,0.25,1.02,0.409
					c0.023,0.01,0.046,0.022,0.069,0.032c0.35,0.163,0.705,0.345,1.064,0.552l45.865,26.48c0.363,0.209,0.722,0.439,1.075,0.684
					c0.021,0.014,0.042,0.03,0.063,0.044C178.744,64.671,179.069,64.916,179.39,65.175z"/>
				<linearGradient id="SVGID_5_" gradientUnits="userSpaceOnUse" x1="188.6641" y1="205.001" x2="188.6641" y2="86.3609">
					<stop  offset="0" style="stop-color:#5745FF"/>
					<stop  offset="0.1858" style="stop-color:#5E49FF"/>
					<stop  offset="0.4571" style="stop-color:#7253FF"/>
					<stop  offset="0.7793" style="stop-color:#9164FF"/>
					<stop  offset="0.94" style="stop-color:#A46EFF"/>
				</linearGradient>
				<path fill="url(#SVGID_5_)" d="M192.783,78.985c-0.006-0.173-0.015-0.346-0.025-0.52c-0.011-0.173-0.024-0.348-0.041-0.523
					c-0.018-0.175-0.036-0.35-0.059-0.526c-0.022-0.179-0.049-0.359-0.077-0.54c-0.028-0.181-0.06-0.362-0.094-0.543
					c-0.035-0.187-0.073-0.373-0.113-0.561c-0.041-0.187-0.085-0.375-0.132-0.563c-0.047-0.19-0.097-0.38-0.149-0.57
					c-0.053-0.189-0.108-0.378-0.166-0.567c-0.057-0.185-0.116-0.371-0.179-0.556c-0.061-0.183-0.124-0.365-0.19-0.548
					c-0.063-0.175-0.13-0.351-0.197-0.526l-4.804,2.792c0.068,0.175,0.134,0.351,0.197,0.526c0.066,0.182,0.131,0.365,0.191,0.548
					c0.062,0.185,0.12,0.37,0.178,0.556c0.058,0.188,0.113,0.378,0.166,0.567c0.052,0.19,0.103,0.38,0.149,0.57
					c0.047,0.188,0.091,0.375,0.132,0.563c0.04,0.187,0.078,0.374,0.113,0.56c0.034,0.182,0.064,0.362,0.094,0.543
					s0.055,0.36,0.077,0.54c0.022,0.176,0.042,0.352,0.058,0.526c0.018,0.175,0.031,0.35,0.042,0.523
					c0.011,0.174,0.02,0.347,0.024,0.52c0.005,0.162,0.007,0.324,0.007,0.485l-0.313,110.051c-0.001,0.407-0.021,0.799-0.057,1.177
					c-0.003,0.035-0.006,0.068-0.01,0.103c-0.035,0.348-0.084,0.681-0.146,1.002c-0.008,0.042-0.017,0.085-0.025,0.128
					c-0.064,0.311-0.142,0.607-0.23,0.893c-0.017,0.053-0.034,0.104-0.053,0.157c-0.089,0.269-0.188,0.525-0.3,0.769
					c-0.013,0.026-0.022,0.055-0.034,0.081c-0.131,0.277-0.274,0.539-0.432,0.782c-0.021,0.033-0.047,0.062-0.068,0.096
					c-0.13,0.193-0.269,0.376-0.415,0.548c-0.054,0.063-0.109,0.121-0.165,0.182c-0.129,0.139-0.264,0.268-0.403,0.39
					c-0.058,0.051-0.115,0.103-0.174,0.15c-0.199,0.159-0.404,0.306-0.622,0.434l4.804-2.792c0.219-0.127,0.424-0.274,0.621-0.434
					c0.061-0.047,0.116-0.1,0.175-0.15c0.14-0.121,0.273-0.251,0.402-0.389c0.056-0.06,0.112-0.119,0.166-0.183
					c0.146-0.172,0.285-0.354,0.415-0.548c0.021-0.033,0.046-0.062,0.068-0.096c0.005-0.007,0.01-0.014,0.015-0.021
					c0.146-0.23,0.282-0.476,0.405-0.735c0.004-0.008,0.007-0.018,0.012-0.024c0.012-0.028,0.022-0.057,0.034-0.084
					c0.075-0.163,0.146-0.328,0.212-0.502c0.032-0.086,0.059-0.177,0.088-0.265c0.018-0.053,0.036-0.104,0.053-0.159
					c0.016-0.048,0.033-0.093,0.047-0.142c0.053-0.178,0.101-0.36,0.143-0.549c0.016-0.065,0.027-0.134,0.041-0.2
					c0.009-0.044,0.018-0.086,0.025-0.129c0.013-0.065,0.027-0.129,0.04-0.196c0.028-0.167,0.054-0.339,0.076-0.513
					c0.013-0.096,0.021-0.195,0.03-0.293c0.003-0.034,0.007-0.067,0.011-0.101c0.003-0.042,0.01-0.082,0.013-0.123
					c0.014-0.166,0.024-0.334,0.031-0.506c0.008-0.171,0.012-0.344,0.012-0.52c0-0.01,0-0.021,0-0.03l0.313-110.051
					C192.79,79.309,192.787,79.147,192.783,78.985z"/>
				<g>
					<linearGradient id="SVGID_6_" gradientUnits="userSpaceOnUse" x1="175.2119" y1="238.7549" x2="148.8582" y2="87.4476">
						<stop  offset="0" style="stop-color:#7F5EFF"/>
						<stop  offset="0.2423" style="stop-color:#8665FF"/>
						<stop  offset="0.5952" style="stop-color:#9978FF"/>
						<stop  offset="0.94" style="stop-color:#B391FF"/>
					</linearGradient>
					<path fill="url(#SVGID_6_)" d="M177.276,63.712c5.932,3.424,10.729,11.729,10.709,18.549l-0.313,110.051
						c-0.019,6.814-4.848,9.566-10.778,6.142l-45.866-26.48c-5.931-3.424-10.728-11.732-10.709-18.548l0.312-110.051
						c0.02-6.82,4.848-9.567,10.779-6.143L177.276,63.712z"/>
				</g>
				<g>
					<g>
						<linearGradient id="SVGID_7_" gradientUnits="userSpaceOnUse" x1="154.4443" y1="70.6187" x2="154.4443" y2="79.2467">
							<stop  offset="0" style="stop-color:#7F5EFF"/>
							<stop  offset="0.2423" style="stop-color:#8665FF"/>
							<stop  offset="0.5952" style="stop-color:#9978FF"/>
							<stop  offset="0.94" style="stop-color:#B391FF"/>
						</linearGradient>
						<path fill="url(#SVGID_7_)" d="M160.361,64.528c0.719,0.415,1.3,1.421,1.298,2.247c-0.002,0.83-0.587,1.163-1.305,0.749
							l-11.828-6.829c-0.718-0.415-1.3-1.421-1.297-2.251c0.002-0.825,0.587-1.158,1.305-0.743L160.361,64.528z"/>
					</g>
					<g>
						<linearGradient id="SVGID_8_" gradientUnits="userSpaceOnUse" x1="154.1299" y1="195.9121" x2="154.1299" y2="159.8262">
							<stop  offset="0" style="stop-color:#9A79FF"/>
							<stop  offset="0.94" style="stop-color:#B391FF"/>
						</linearGradient>
						<path fill="url(#SVGID_8_)" d="M154.142,169.37c1.937,1.118,3.502,3.829,3.495,6.056c-0.006,2.225-1.582,3.122-3.519,2.005
							c-1.937-1.119-3.502-3.831-3.495-6.056C150.629,169.15,152.205,168.252,154.142,169.37z"/>
					</g>
					<g>
						<path fill="#F9FBFC" d="M183.276,87.449c0.596,0.344,1.077,1.178,1.075,1.863l-0.261,91.955
							c-0.002,0.685-0.486,0.961-1.083,0.616l-57.71-33.318c-0.596-0.345-1.077-1.179-1.075-1.863l0.261-91.955
							c0.001-0.685,0.486-0.961,1.083-0.617L183.276,87.449z"/>
					</g>
				</g>
				<path fill="#F9FBFC" d="M190.502,119.351L190.502,119.351c-0.376,0-0.681-0.305-0.681-0.682V98.222
					c0-0.376,0.305-0.682,0.681-0.682l0,0c0.377,0,0.682,0.305,0.682,0.682v20.447C191.184,119.045,190.879,119.351,190.502,119.351
					z"/>
				<path fill="#F9FBFC" d="M190.502,144.795L190.502,144.795c-0.376,0-0.681-0.304-0.681-0.681v-20.447
					c0-0.376,0.305-0.682,0.681-0.682l0,0c0.377,0,0.682,0.305,0.682,0.682v20.447C191.184,144.491,190.879,144.795,190.502,144.795
					z"/>
				<path fill="#113C7A" d="M190.502,176.063L190.502,176.063c-0.376,0-0.681-0.306-0.681-0.682v-10.592
					c0-0.377,0.305-0.683,0.681-0.683l0,0c0.377,0,0.682,0.306,0.682,0.683v10.592C191.184,175.757,190.879,176.063,190.502,176.063
					z"/>
			</g>
			<g>
				<path fill="#FFFFFF" d="M153.748,93.886c2.951,1.704,5.344,5.82,5.373,9.224c0,0.028,0.001,0.056,0,0.083
					c-0.123,0.05-2.478,0.988-5.472-0.68c-0.035-0.02-0.07-0.04-0.105-0.06c-2.341-1.352-4.258-4.032-4.941-5.066
					c-0.174-0.265-0.265-0.414-0.269-0.421C148.344,93.545,150.767,92.165,153.748,93.886z"/>
			</g>
			<g>
				<path fill="#CFE3FF" d="M178.042,123.548c0.683,0.394,1.233,1.348,1.231,2.128l-0.016,5.186
					c-0.001,0.784-0.556,1.101-1.239,0.707l-47.427-27.383c-0.683-0.395-1.234-1.349-1.232-2.134l0.015-5.185
					c0.002-0.78,0.557-1.096,1.24-0.701L178.042,123.548z"/>
			</g>
			<linearGradient id="SVGID_9_" gradientUnits="userSpaceOnUse" x1="146.0029" y1="76.2495" x2="161.3383" y2="107.6018">
				<stop  offset="0" style="stop-color:#9A79FF"/>
				<stop  offset="0.3403" style="stop-color:#BA76E8"/>
				<stop  offset="0.94" style="stop-color:#FB6FB9"/>
			</linearGradient>
			<path fill="url(#SVGID_9_)" d="M161.854,92.694c0.277,0.923,0.478,1.848,0.588,2.755c0.065,0.544,0.099,1.082,0.098,1.609
				c0,0.16-0.005,0.317-0.012,0.471c-0.002,0.023-0.003,0.048-0.003,0.071c-0.008,0.147-0.019,0.29-0.031,0.432
				c-0.003,0.027-0.005,0.055-0.009,0.082c-0.014,0.142-0.03,0.281-0.051,0.417c-0.027,0.186-0.051,0.318-0.076,0.447
				c-0.033,0.167-0.063,0.296-0.096,0.422c-0.006,0.022-0.011,0.044-0.018,0.065c-0.032,0.123-0.066,0.243-0.104,0.36
				c-0.007,0.022-0.014,0.043-0.021,0.064c-0.04,0.119-0.081,0.235-0.124,0.348c-0.058,0.141-0.104,0.247-0.151,0.35
				c-0.068,0.146-0.121,0.248-0.176,0.347c-0.011,0.019-0.021,0.038-0.031,0.057c-0.055,0.098-0.112,0.192-0.171,0.283
				c-0.01,0.015-0.02,0.029-0.029,0.044c-0.063,0.095-0.128,0.187-0.195,0.276c-0.07,0.091-0.142,0.176-0.213,0.258
				c-0.011,0.011-0.021,0.023-0.031,0.035c-0.07,0.078-0.142,0.153-0.217,0.224c-0.015,0.014-0.028,0.027-0.043,0.041
				c-0.074,0.07-0.15,0.138-0.229,0.203c-0.012,0.01-0.024,0.019-0.036,0.029c-0.079,0.063-0.159,0.123-0.242,0.18
				c-0.102,0.071-0.188,0.125-0.278,0.176c-0.016,0.01-0.032,0.02-0.05,0.029c-0.086,0.049-0.175,0.094-0.264,0.136
				c-0.019,0.009-0.037,0.018-0.056,0.026c-0.093,0.042-0.186,0.082-0.282,0.117c-0.079,0.029-0.13,0.043-0.179,0.059
				c-0.031-3.404-2.423-7.517-5.373-9.221c-2.981-1.721-5.404-0.341-5.414,3.08c0.004,0.007,0.087,0.144,0.245,0.386
				c-0.07-0.098-0.141-0.195-0.21-0.293c-0.132-0.193-0.223-0.328-0.313-0.463c-0.016-0.025-0.032-0.049-0.049-0.074
				c-0.095-0.146-0.187-0.292-0.278-0.439c-0.02-0.032-0.039-0.063-0.058-0.095c-0.093-0.152-0.185-0.305-0.273-0.458
				c-0.096-0.167-0.181-0.32-0.265-0.474c-0.016-0.029-0.032-0.059-0.049-0.089c-0.082-0.153-0.163-0.308-0.242-0.463
				c-0.014-0.028-0.028-0.057-0.042-0.085c-0.075-0.149-0.149-0.299-0.22-0.45c-0.096-0.202-0.168-0.362-0.238-0.523
				c-0.015-0.034-0.029-0.066-0.043-0.1c-0.069-0.16-0.138-0.321-0.202-0.481c-0.084-0.209-0.143-0.361-0.199-0.515
				c-0.01-0.025-0.02-0.05-0.029-0.076c-0.06-0.161-0.115-0.322-0.17-0.484c-0.012-0.032-0.021-0.064-0.033-0.097
				c-0.109-0.331-0.209-0.662-0.299-0.994c-0.009-0.033-0.018-0.065-0.026-0.099c-0.042-0.16-0.083-0.321-0.12-0.481
				c-0.007-0.029-0.013-0.058-0.02-0.086c-0.034-0.153-0.068-0.305-0.098-0.458c-0.042-0.214-0.07-0.375-0.096-0.536
				c-0.007-0.035-0.012-0.069-0.018-0.104c-0.024-0.161-0.048-0.321-0.066-0.48c-0.024-0.204-0.039-0.354-0.053-0.503
				c-0.002-0.028-0.004-0.054-0.007-0.082c-0.012-0.156-0.021-0.312-0.028-0.466c-0.002-0.033-0.003-0.066-0.003-0.099
				c-0.007-0.159-0.011-0.317-0.01-0.474c0.002-0.527,0.038-1.024,0.106-1.491c0.114-0.778,0.318-1.47,0.601-2.069
				c0.057-0.12,0.116-0.236,0.179-0.349c1.44-2.584,4.483-3.185,7.999-1.155c3.155,1.822,5.918,5.317,7.48,9.078
				c0.103,0.247,0.202,0.496,0.294,0.745C161.619,91.957,161.742,92.325,161.854,92.694z M153.872,92.951
				c1.819,1.05,3.294,0.205,3.301-1.881c0.006-2.09-1.46-4.629-3.279-5.679c-1.814-1.048-3.295-0.209-3.301,1.881
				C150.587,89.356,152.058,91.903,153.872,92.951"/>
			<path fill="none" d="M161.854,92.694c0.277,0.923,0.478,1.848,0.588,2.755c0.065,0.544,0.099,1.082,0.098,1.609
				c0,0.16-0.005,0.317-0.012,0.471c-0.002,0.023-0.003,0.048-0.003,0.071c-0.008,0.147-0.019,0.29-0.031,0.432
				c-0.003,0.027-0.005,0.055-0.009,0.082c-0.014,0.142-0.03,0.281-0.051,0.417c-0.027,0.186-0.051,0.318-0.076,0.447
				c-0.033,0.167-0.063,0.296-0.096,0.422c-0.006,0.022-0.011,0.044-0.018,0.065c-0.032,0.123-0.066,0.243-0.104,0.36
				c-0.007,0.022-0.014,0.043-0.021,0.064c-0.04,0.119-0.081,0.235-0.124,0.348c-0.058,0.141-0.104,0.247-0.151,0.35
				c-0.068,0.146-0.121,0.248-0.176,0.347c-0.011,0.019-0.021,0.038-0.031,0.057c-0.055,0.098-0.112,0.192-0.171,0.283
				c-0.01,0.015-0.02,0.029-0.029,0.044c-0.063,0.095-0.128,0.187-0.195,0.276c-0.07,0.091-0.142,0.176-0.213,0.258
				c-0.011,0.011-0.021,0.023-0.031,0.035c-0.07,0.078-0.142,0.153-0.217,0.224c-0.015,0.014-0.028,0.027-0.043,0.041
				c-0.074,0.07-0.15,0.138-0.229,0.203c-0.012,0.01-0.024,0.019-0.036,0.029c-0.079,0.063-0.159,0.123-0.242,0.18
				c-0.102,0.071-0.188,0.125-0.278,0.176c-0.016,0.01-0.032,0.02-0.05,0.029c-0.086,0.049-0.175,0.094-0.264,0.136
				c-0.019,0.009-0.037,0.018-0.056,0.026c-0.093,0.042-0.186,0.082-0.282,0.117c-0.079,0.029-0.13,0.043-0.179,0.059
				c-0.031-3.404-2.423-7.517-5.373-9.221c-2.981-1.721-5.404-0.341-5.414,3.08c0.004,0.007,0.087,0.144,0.245,0.386
				c-0.07-0.098-0.141-0.195-0.21-0.293c-0.132-0.193-0.223-0.328-0.313-0.463c-0.016-0.025-0.032-0.049-0.049-0.074
				c-0.095-0.146-0.187-0.292-0.278-0.439c-0.02-0.032-0.039-0.063-0.058-0.095c-0.093-0.152-0.185-0.305-0.273-0.458
				c-0.096-0.167-0.181-0.32-0.265-0.474c-0.016-0.029-0.032-0.059-0.049-0.089c-0.082-0.153-0.163-0.308-0.242-0.463
				c-0.014-0.028-0.028-0.057-0.042-0.085c-0.075-0.149-0.149-0.299-0.22-0.45c-0.096-0.202-0.168-0.362-0.238-0.523
				c-0.015-0.034-0.029-0.066-0.043-0.1c-0.069-0.16-0.138-0.321-0.202-0.481c-0.084-0.209-0.143-0.361-0.199-0.515
				c-0.01-0.025-0.02-0.05-0.029-0.076c-0.06-0.161-0.115-0.322-0.17-0.484c-0.012-0.032-0.021-0.064-0.033-0.097
				c-0.109-0.331-0.209-0.662-0.299-0.994c-0.009-0.033-0.018-0.065-0.026-0.099c-0.042-0.16-0.083-0.321-0.12-0.481
				c-0.007-0.029-0.013-0.058-0.02-0.086c-0.034-0.153-0.068-0.305-0.098-0.458c-0.042-0.214-0.07-0.375-0.096-0.536
				c-0.007-0.035-0.012-0.069-0.018-0.104c-0.024-0.161-0.048-0.321-0.066-0.48c-0.024-0.204-0.039-0.354-0.053-0.503
				c-0.002-0.028-0.004-0.054-0.007-0.082c-0.012-0.156-0.021-0.312-0.028-0.466c-0.002-0.033-0.003-0.066-0.003-0.099
				c-0.007-0.159-0.011-0.317-0.01-0.474c0.002-0.527,0.038-1.024,0.106-1.491c0.114-0.778,0.318-1.47,0.601-2.069
				c0.057-0.12,0.116-0.236,0.179-0.349c1.44-2.584,4.483-3.185,7.999-1.155c3.155,1.822,5.918,5.317,7.48,9.078
				c0.103,0.247,0.202,0.496,0.294,0.745C161.619,91.957,161.742,92.325,161.854,92.694z M153.872,92.951
				c1.819,1.05,3.294,0.205,3.301-1.881c0.006-2.09-1.46-4.629-3.279-5.679c-1.814-1.048-3.295-0.209-3.301,1.881
				C150.587,89.356,152.058,91.903,153.872,92.951"/>
			<g>
				<path fill="#FFFFFF" d="M153.894,85.391c1.819,1.05,3.285,3.589,3.279,5.679c-0.007,2.085-1.481,2.931-3.301,1.881
					c-1.814-1.047-3.285-3.594-3.278-5.679C150.599,85.181,152.079,84.343,153.894,85.391z"/>
			</g>
			<g>
				<path fill="#CFE3FF" d="M178.01,134.834c0.683,0.394,1.234,1.348,1.231,2.133l-0.015,5.186c-0.002,0.785-0.558,1.096-1.24,0.701
					l-47.427-27.382c-0.683-0.395-1.234-1.344-1.231-2.128l0.015-5.185c0.002-0.785,0.557-1.101,1.24-0.707L178.01,134.834z"/>
			</g>
			<linearGradient id="SVGID_10_" gradientUnits="userSpaceOnUse" x1="151.8125" y1="126.395" x2="151.8125" y2="159.137">
				<stop  offset="0" style="stop-color:#5155D4"/>
				<stop  offset="1" style="stop-color:#45F7FF"/>
			</linearGradient>
			<path fill="url(#SVGID_10_)" d="M159.496,143.237c1.618,0.934,2.924,3.2,2.919,5.056l-0.003,1.19
				c-0.006,1.86-1.319,2.608-2.938,1.674l-15.34-8.855c-1.618-0.936-2.928-3.199-2.923-5.059l0.003-1.19
				c0.007-1.854,1.324-2.606,2.943-1.672L159.496,143.237z"/>
		</g>
		<linearGradient id="SVGID_11_" gradientUnits="userSpaceOnUse" x1="108.9858" y1="215.2402" x2="143.8457" y2="215.2402">
			<stop  offset="0" style="stop-color:#5155D4"/>
			<stop  offset="1" style="stop-color:#45F7FF"/>
		</linearGradient>
		<ellipse opacity="0.32" fill="url(#SVGID_11_)" cx="126.416" cy="215.24" rx="17.43" ry="10.357"/>
		<g>
			<path fill="#FF9D6F" d="M144.11,144.86c0,0,1.04-0.694,1.301-1.042c0.261-0.347,0.606-2.342,0.261-2.429
				c-0.348-0.087-0.607,1.301-0.607,1.301s-0.087-3.644-0.521-4.164s-1.822,2.082-1.909,2.516c-0.086,0.435-0.434,2.256-0.434,2.256
				S142.722,144.86,144.11,144.86z"/>
			<path fill="#113C7A" d="M117.594,155.32c0,0-2.72,2.727-0.812,6.022c1.909,3.297,14.922-4.858,16.31-6.072
				c1.389-1.215,10.498-9.369,11.019-10.41c0.521-1.042-0.608-2.083-1.996-1.909s-6.94,6.072-11.278,8.85
				C130.836,151.801,120.488,154.156,117.594,155.32z"/>
			<path fill="#113C7A" d="M119.188,213.01c0,0-0.225,1.642,0.074,2.313c0.299,0.599,1.493,1.046,2.314,0.448
				c0.821-0.597,2.24-2.09,2.24-2.09s2.389-1.27,2.613-1.941c0.224-0.672-0.597-1.27-1.27-1.12
				c-0.671,0.149-2.613,1.345-3.508,1.345C120.756,211.965,119.487,212.188,119.188,213.01z"/>
			<linearGradient id="SVGID_12_" gradientUnits="userSpaceOnUse" x1="121.6812" y1="179.9082" x2="117.2464" y2="214.4222">
				<stop  offset="0" style="stop-color:#6851F5"/>
				<stop  offset="1" style="stop-color:#00CFFF"/>
			</linearGradient>
			<path fill="url(#SVGID_12_)" d="M116.727,178.05c0,0,2.089,34.481,2.35,35.48s2.971,1.573,3.473-0.015
				c0.319-1.007,1.105-32.917,1.105-32.917L116.727,178.05z"/>
			<path fill="#113C7A" d="M126.097,215.062c-0.117,0.101-0.182,0.247-0.183,0.401c-0.004,0.474,0.018,1.531,0.286,1.943
				c0.351,0.537,1.447,1.107,2.595,0.484c0.967-0.525,3.943-2.75,4.547-3.243c0.367-0.298,0.529-0.668,0.601-0.951
				c0.065-0.254-0.064-0.519-0.306-0.625c-0.421-0.188-1.143-0.423-1.788-0.205c-0.986,0.331-2.227,1.398-3.569,1.341
				C127.271,214.164,126.446,214.762,126.097,215.062z"/>
			<linearGradient id="SVGID_13_" gradientUnits="userSpaceOnUse" x1="119.3965" y1="196.6299" x2="130.708" y2="196.6299">
				<stop  offset="0" style="stop-color:#6851F5"/>
				<stop  offset="1" style="stop-color:#00CFFF"/>
			</linearGradient>
			<path fill="url(#SVGID_13_)" d="M130.708,178.422c-0.15-1.433-1.865-1.898-3.444-1.411c-3.014-0.162-7.68-0.033-7.843,2.306
				c-0.242,3.463,1.381,5.934,2.947,7.614c1.157,1.242,1.927,3.618,2.251,4.776c0.274,9.145,0.88,22.041,1.259,23.275
				c0.609,1.988,3.609,1.898,3.744-0.038C130.229,208.401,130.708,178.422,130.708,178.422z"/>
			<path fill="#113C7A" d="M130.717,179.502c-0.354,1.77-5.396,2.654-8.346,2.182c-2.949-0.472-6.125-1.918-6.02-5.338
				c0,0,0.56-8.174,0.336-9.63c-0.224-1.456-0.784-4.031-0.784-6.719s1.69-4.677,1.69-4.677s1.651-1.888,6.842-0.826
				c0,0,4.229,0.922,6.175,4.048c0,0,1.343,3.434,0.896,10.601C131.058,176.309,130.717,179.502,130.717,179.502z"/>
			<path fill="#FF7C40" d="M120.383,150.703c0,0,0.448,2.613,0,3.808c-0.075,0.597,2.538,2.612,4.852,2.09
				c1.344-0.299,1.27-0.972,1.27-0.972s-1.12-1.865-0.971-3.657C125.683,150.181,121.95,150.33,120.383,150.703z"/>
			<g>
				<circle fill="#FF9D6F" cx="122.958" cy="145.439" r="6.159"/>
				<path fill="#FF9D6F" d="M129.117,145.85c0,0,0.075,6.17-1.269,7.415c-1.343,1.246-3.406-1.165-6.705-1.938
					c-3.298-0.849,2.674-7.263,2.674-7.263L129.117,145.85z"/>
			</g>
			<path fill="#FF9D6F" d="M142.787,154.967c0,0-0.586-2.407-0.391-2.603s0.977,0.846,0.977,0.846s0.391-2.472,0.715-2.733
				c0.326-0.26,1.627,1.042,1.822,1.757c0.195,0.717-0.781,3.579-1.171,3.645C144.349,155.943,142.982,156.138,142.787,154.967z"/>
			<path fill="#113C7A" d="M128.798,157.829c0,0-2.733,1.302-1.562,4.685c1.171,3.384,9.891,4.686,10.932,3.645
				c1.04-1.042,5.596-6.376,6.896-10.41c0,0-0.521-1.562-2.604-0.911c0,0-4.944,6.246-5.725,6.896
				C135.955,162.384,130.099,157.569,128.798,157.829z"/>
			<path fill="#843837" d="M117.688,140.746c0,0,1.919-2.345,5.224-2.559c3.305-0.213,4.904,0.854,6.184,0.747
				c1.279-0.107,2.452,0.959,2.026,2.559c-0.427,1.6-1.386,3.198-3.519,3.198c-2.133,0-2.666-0.319-2.666-0.319
				s1.706,0.746,1.919,2.239c0.213,1.493,0.213,3.731,0.213,3.731h-0.533c0,0-0.426-2.452-1.279-2.452s-0.853,2.666-0.106,3.092
				c0.746,0.427,0.746,0.427,0.746,0.427s-1.431,2.652-2.208,2.766c-0.777,0.113-3.335-1.807-3.335-1.807s-4.265-2.025-4.692-5.33
				C115.235,143.731,117.688,140.746,117.688,140.746z"/>
		</g>
		<g>
			<g>
				<linearGradient id="SVGID_14_" gradientUnits="userSpaceOnUse" x1="54.0342" y1="198.0801" x2="88.8936" y2="198.0801">
					<stop  offset="0" style="stop-color:#5155D4"/>
					<stop  offset="1" style="stop-color:#45F7FF"/>
				</linearGradient>
				<ellipse opacity="0.32" fill="url(#SVGID_14_)" cx="71.464" cy="198.08" rx="17.43" ry="10.356"/>
				<g>
					<g>
						<path fill="#F5B697" d="M62.635,169.754c0,0,1.171,7.417,2.147,11.516c0,0,0.195,6.832,0.391,9.175
							c0.195,2.342,0.781,7.417,0.781,7.417s0.683,0.586,1.464,0.195c0,0,0.976-14.542,1.171-16.885
							c0.195-2.342,0.878-12.882,0.878-12.882S67.222,166.24,62.635,169.754z"/>
						<path fill="#F5B697" d="M69.955,166.826c0,0,1.171,7.417,2.147,11.516c0,0,0.195,6.832,0.391,9.174
							c0.195,2.343,0.781,7.418,0.781,7.418s0.683,0.586,1.464,0.195c0,0,0.976-14.542,1.171-16.885
							c0.195-2.342,0.293-12.784,0.293-12.784S74.542,163.313,69.955,166.826z"/>
						<path fill="#113C7A" d="M64.099,159.733c0,0-2.765,3.026-1.171,13.273c0.097,1.464,1.073,5.237,1.073,5.237
							s3.611,0.586,7.905-1.073s4.392-2.537,4.392-2.537s0.195-12.851-0.781-16.169C74.542,155.147,64.099,159.733,64.099,159.733z"
							/>
						<path fill="#5167B0" d="M74.786,194.445c0,0-0.098,0.731,0.684,1.317c0.781,0.586,2.245,1.66,2.489,2.294
							c0,0.488-1.854-0.049-2.685-0.487c-0.829-0.439-1.609-1.465-1.609-1.465l0.048,0.439c0,0-0.292,0-0.537-0.244
							s0.049-1.757,0.049-1.757L74.786,194.445z"/>
						<path fill="#5167B0" d="M67.466,197.813c0,0-0.098,0.732,0.683,1.317s2.245,1.659,2.488,2.293
							c0,0.488-1.854-0.049-2.684-0.487c-0.83-0.439-1.61-1.464-1.61-1.464l0.049,0.438c0,0-0.292,0-0.537-0.243
							c-0.244-0.244,0.049-1.757,0.049-1.757L67.466,197.813z"/>
					</g>
					
						<linearGradient id="SVGID_15_" gradientUnits="userSpaceOnUse" x1="463.8711" y1="165.5352" x2="471.157" y2="126.6774" gradientTransform="matrix(-1 0 0 1 549.2031 0)">
						<stop  offset="0" style="stop-color:#7F5EFF"/>
						<stop  offset="0.2423" style="stop-color:#8665FF"/>
						<stop  offset="0.5952" style="stop-color:#9978FF"/>
						<stop  offset="0.94" style="stop-color:#B391FF"/>
					</linearGradient>
					<path fill="url(#SVGID_15_)" d="M74.624,140.339c0,0,2.535,0.4,4.175,5.905c0.982,3.641,2.408,3.97,4.054,4.299
						c1.646,0.329,8.558,0,9.106,0c0.548,0,1.207,1.207,0.438,2.084c-0.768,0.878-10.313,1.756-12.179,1.756
						c-1.865,0-6.144-3.511-7.899-6.363C70.564,145.167,72.319,140.119,74.624,140.339z"/>
					<path fill="#113C7A" d="M73.417,126.625c0,0,2.524,3.237,1.975,6.858c-0.549,3.619-3.73,3.455-4.279,5.431
						c-0.549,1.975,1.536,4.827-1.317,6.692c-2.853,1.864-4.169,1.426-4.938,5.376c-0.768,3.95-3.511,6.034-8.228,6.474
						c-4.718,0.439-8.01-5.267-6.803-9.436c1.207-4.169,5.376-2.853,6.254-6.254c0.877-3.401,0.549-6.089,3.511-7.406
						c2.962-1.316,1.865-6.309,4.828-7.845C67.445,124.946,71.222,124.101,73.417,126.625z"/>
					<g>
						
							<linearGradient id="SVGID_16_" gradientUnits="userSpaceOnUse" x1="475.1289" y1="161.1172" x2="489.8873" y2="131.7871" gradientTransform="matrix(-1 0 0 1 549.2031 0)">
							<stop  offset="0" style="stop-color:#7F5EFF"/>
							<stop  offset="0.2423" style="stop-color:#8665FF"/>
							<stop  offset="0.5952" style="stop-color:#9978FF"/>
							<stop  offset="0.94" style="stop-color:#B391FF"/>
						</linearGradient>
						<path fill="url(#SVGID_16_)" d="M66.846,139.239c0,0-5.427,3.877-5.963,5.167c-0.536,1.29-1.295,5.304,0.467,7.272
							c3.051,3.408,1.214,9.266,1.617,10.988c0.402,1.722,4.543,1.936,7.417,1.38c2.874-0.556,5.535-2.025,5.426-5.376
							c-0.108-3.352,0.778-7.948,0.96-9.458c0.183-1.51-0.016-5.301-0.716-7.843c-0.148-0.536-1.953-1.1-1.953-1.1
							S72.196,139.012,66.846,139.239z"/>
						<path fill="#FF7C40" d="M71.564,138.508c0,0-0.014,0.067,0.002,0.175c0.06,0.398,0.258,1.415,0.295,1.84
							c0.036,0.407-0.427,1.112-1.526,1.091c-1.1-0.022-2.965-0.482-3.586-1.793c0.05-0.232-0.029-2.659-0.183-3.868L71.564,138.508
							z"/>
						<path fill="#FF9D6F" d="M74.613,131.196c-0.588-3.146-3.081-4.932-5.9-4.272c0,0-3.055,0.306-4.412,2.99
							c-1.357,2.683,0.636,4.939,1.913,6.362c0.539,0.585,0.945,1.036,1.202,1.322c0.093,0.108,0.185,0.219,0.282,0.317
							c0.018,0.021,0.027,0.031,0.027,0.031l0.003-0.003c0.872,0.872,1.873,1.365,2.611,1.585c1.229,0.366,2.683,0.157,3.467-0.68
							C74.59,138.013,75.202,134.341,74.613,131.196z"/>
					</g>
					<path fill="#113C7A" d="M75.117,133.317c0,0-2.249,0.22-3.566-1.316c-1.316-1.536-3.182,0-4.718-1.316c0,0,0.659,1.645,0,3.291
						c-0.658,1.646-0.878,4.169-0.878,4.169l-2.853-4.498v-3.95l3.621-3.401l4.828-0.219l2.304,2.194
						C73.855,128.27,75.336,131.671,75.117,133.317z"/>
					
						<linearGradient id="SVGID_17_" gradientUnits="userSpaceOnUse" x1="473.4414" y1="155.9063" x2="486.7686" y2="155.9063" gradientTransform="matrix(-1 0 0 1 549.2031 0)">
						<stop  offset="0" style="stop-color:#FF4F00"/>
						<stop  offset="1" style="stop-color:#FF3D9D"/>
					</linearGradient>
					<path opacity="0.43" fill="url(#SVGID_17_)" d="M62.592,152.484l6.818,2.148l6.352-1.774c-0.093,0.28-1.775,5.418-5.417,6.352
						c-2.619,0.671-5.711-1.645-7.248-3.002c-0.084-0.951-0.288-1.898-0.662-2.78L62.592,152.484z"/>
					<g>
						
							<linearGradient id="SVGID_18_" gradientUnits="userSpaceOnUse" x1="479.3516" y1="133.3896" x2="479.7252" y2="157.4893" gradientTransform="matrix(-1 0 0 1 549.2031 0)">
							<stop  offset="0" style="stop-color:#7F5EFF"/>
							<stop  offset="0.2423" style="stop-color:#8665FF"/>
							<stop  offset="0.5952" style="stop-color:#9978FF"/>
							<stop  offset="0.94" style="stop-color:#B391FF"/>
						</linearGradient>
						<path fill="url(#SVGID_18_)" d="M62.893,146.051c0,0-3.621-0.878-2.085,4.06s6.693,8.558,8.558,8.338s9.436-8.229,9.436-9.216
							c0-0.988-0.878-1.646-1.755-1.427c-0.878,0.22-6.693,6.474-7.242,6.254C69.256,153.84,65.855,148.136,62.893,146.051z"/>
						<path fill="#FF9D6F" d="M77.772,149.593c0,0-1.027-0.302-0.725-1.39c0.302-1.088,2.296-1.934,2.599-1.994
							c0.302-0.06,3.263,0.543,3.383,0.906c0.122,0.363-0.543,0.544-1.268,0.363c-0.726-0.182-1.813-0.242-1.813-0.242
							s0.785,0.846,0.725,1.209c-0.06,0.362-0.483,1.087-1.087,1.39c-0.604,0.302-1.33-0.362-1.33-0.362L77.772,149.593z"/>
					</g>
					<path fill="#FF9D6F" d="M91.048,150.705c0,0,2.393-2.037,2.526-1.672c0.133,0.363-0.817,1.374-0.817,1.374
						s3.203-1.227,3.24-0.811c0.037,0.417-1.69,1.721-2.147,2.029s-2.088,0.751-2.088,0.751S90.866,151.177,91.048,150.705z"/>
				</g>
			</g>
			<g opacity="0.57">
				<path fill="#1AE5FF" d="M80.19,132.525c-0.786,0.453-1.428,1.568-1.425,2.476l0.095,33.639c0.006,2.144,1.53,3.02,3.386,1.948
					l20.038-11.568c0.787-0.454,1.428-1.569,1.425-2.478l-0.095-33.637c-0.006-2.144-1.53-3.02-3.386-1.949L80.19,132.525z"/>
			</g>
			<g>
				<g>
					<g>
						<path fill="#FFFFFF" d="M83.265,144.715c-0.235,0.136-0.425,0.465-0.424,0.733l0.005,1.787
							c0.001,0.27,0.192,0.378,0.427,0.243l16.338-9.433c0.235-0.137,0.425-0.465,0.424-0.735l-0.005-1.787
							c-0.001-0.269-0.192-0.377-0.427-0.24L83.265,144.715z"/>
					</g>
					<g>
						<path fill="#FFFFFF" d="M83.276,148.603c-0.235,0.136-0.425,0.465-0.424,0.735l0.005,1.787c0.001,0.27,0.191,0.376,0.427,0.24
							l16.337-9.432c0.236-0.137,0.425-0.463,0.424-0.733l-0.005-1.786c0-0.271-0.192-0.38-0.427-0.244L83.276,148.603z"/>
					</g>
				</g>
				<path fill="#FFFFFF" d="M89.654,151.497c-0.558,0.322-1.007,1.104-1.005,1.742l0.001,0.41c0.002,0.641,0.454,0.898,1.012,0.576
					l5.284-3.05c0.558-0.322,1.009-1.103,1.007-1.743l-0.001-0.409c-0.001-0.64-0.456-0.898-1.014-0.576L89.654,151.497z"/>
			</g>
		</g>
	</g>
</g>
<g id="DESIGNED_BY_FREEPIK">
</g>
</svg>
