<?xml version="1.0" encoding="utf-8"?>
<!-- Generator: Adobe Illustrator 16.0.0, SVG Export Plug-In . SVG Version: 6.00 Build 0)  -->
<!DOCTYPE svg PUBLIC "-//W3C//DTD SVG 1.1//EN" "http://www.w3.org/Graphics/SVG/1.1/DTD/svg11.dtd">
<svg version="1.1" id="Layer_1" xmlns="http://www.w3.org/2000/svg" xmlns:xlink="http://www.w3.org/1999/xlink" x="0px" y="0px"
	 width="100px" height="100px" viewBox="0 0 100 100" enable-background="new 0 0 100 100" xml:space="preserve">
<g transform="translate(50 50) scale(0.69 0.69) rotate(0) translate(-50 -50)">
	<g>
		<path fill="#28A745" d="M70.782,30.961v-1.384h1.36c1.785,0,3.237-1.449,3.237-3.237c0-1.79-1.452-3.237-3.237-3.237h-9.161
			c-1.785,0-3.237,1.448-3.237,3.237c0,1.788,1.452,3.237,3.237,3.237h1.329v4.392c0,1.788,1.448,3.236,3.237,3.236
			c8.925,0,16.188,7.263,16.188,16.188c0,8.925-7.263,16.185-16.188,16.185c-1.789,0-3.237,1.449-3.237,3.237
			c0,1.789,1.448,3.237,3.237,3.237c12.496,0,22.659-10.166,22.659-22.659C90.206,41.996,81.747,32.539,70.782,30.961z"/>
		<path fill="#28A745" d="M67.547,39.898c-1.789,0-3.237,1.449-3.237,3.238v10.821c0,1.018,0.476,1.976,1.294,2.589
			c0.566,0.425,1.25,0.648,1.943,0.648c0.3,0,0.603-0.042,0.896-0.126l8.507-2.458c1.717-0.491,2.707-2.286,2.214-4.003
			c-0.497-1.72-2.293-2.699-4.011-2.213l-4.37,1.264v-6.522C70.782,41.348,69.336,39.898,67.547,39.898z"/>
		<path fill="#28A745" d="M54.754,30.607H12.28c-1.788,0-3.237,1.449-3.237,3.237c0,1.787,1.449,3.238,3.237,3.238h42.474
			c1.789,0,3.237-1.451,3.237-3.238C57.991,32.056,56.543,30.607,54.754,30.607z"/>
		<path fill="#28A745" d="M54.754,43.595H20.42c-1.789,0-3.236,1.451-3.236,3.238c0,1.789,1.447,3.237,3.236,3.237h34.334
			c1.789,0,3.237-1.448,3.237-3.237C57.991,45.046,56.543,43.595,54.754,43.595z"/>
		<path fill="#28A745" d="M54.754,56.588H32.627c-1.787,0-3.237,1.449-3.237,3.238c0,1.788,1.45,3.233,3.237,3.233h22.127
			c1.789,0,3.237-1.445,3.237-3.233C57.991,58.038,56.543,56.588,54.754,56.588z"/>
		<path fill="#28A745" d="M54.754,69.578H42.8c-1.787,0-3.235,1.449-3.235,3.237c0,1.789,1.448,3.237,3.235,3.237h11.954
			c1.789,0,3.237-1.448,3.237-3.237C57.991,71.027,56.543,69.578,54.754,69.578z"/>
	</g>
</g>
</svg>
