<?xml version="1.0" encoding="utf-8"?>
<!-- Generator: Adobe Illustrator 16.0.0, SVG Export Plug-In . SVG Version: 6.00 Build 0)  -->
<!DOCTYPE svg PUBLIC "-//W3C//DTD SVG 1.1//EN" "http://www.w3.org/Graphics/SVG/1.1/DTD/svg11.dtd">
<svg version="1.1" id="Layer_1" xmlns="http://www.w3.org/2000/svg" xmlns:xlink="http://www.w3.org/1999/xlink" x="0px" y="0px"
	 width="63.05px" height="61.25px" viewBox="0 -0.602 63.05 61.25" enable-background="new 0 -0.602 63.05 61.25"
	 xml:space="preserve">
<g transform="translate(50 50) scale(0.69 0.69) rotate(0) translate(-50 -50)">
	<g display="none">
		
			<rect x="-527.876" y="-246.009" display="inline" fill="#2B80C3" stroke="#2B80C3" stroke-miterlimit="10" width="1388.001" height="1432"/>
	</g>
	<g>
		<path fill="#2B80C3" stroke="#2B80C3" stroke-miterlimit="10" d="M63.144-6.372H22.941c-2.746,0-4.979,2.232-4.979,4.979v28.81
			c0,1.173,0.427,2.24,1.11,3.092c0.512-0.88,1.112-1.698,1.789-2.451c-0.064-0.204-0.108-0.416-0.108-0.643v-28.81
			c0-1.206,0.982-2.191,2.191-2.191h40.203c1.209,0,2.191,0.982,2.191,2.191v41.021l-9.265-9.266
			c-0.487-0.487-1.136-0.756-1.827-0.756h-10.25c0.593,0.868,1.09,1.803,1.489,2.79h8.674l9.56,9.56
			c0.494,0.494,1.152,0.757,1.823,0.757c0.333,0,0.668-0.065,0.989-0.198c0.967-0.399,1.591-1.336,1.591-2.383V-1.393
			C68.125-4.14,65.891-6.372,63.144-6.372z"/>
		<path fill="#2B80C3" stroke="#2B80C3" stroke-miterlimit="10" d="M31.407-11.525v-6.019c0-2.744-2.233-4.976-4.976-4.976h-40.206
			c-2.743,0-4.973,2.232-4.973,4.976v41.525c0,1.043,0.621,1.977,1.585,2.379c0.323,0.136,0.661,0.201,0.996,0.201
			c0.668,0,1.328-0.26,1.826-0.753l9.562-9.563h17.544v-2.791H-4.874c-0.686,0-1.333,0.273-1.823,0.763l-9.263,9.262v-41.026
			c0-1.204,0.979-2.184,2.185-2.184H26.43c1.204,0,2.187,0.979,2.187,2.184v6.018h2.791V-11.525L31.407-11.525z"/>
		<circle fill="#2B80C3" stroke="#2B80C3" stroke-miterlimit="10" cx="31.802" cy="13.424" r="2.889"/>
		<circle fill="#2B80C3" stroke="#2B80C3" stroke-miterlimit="10" cx="43.044" cy="13.424" r="2.889"/>
		<circle fill="#2B80C3" stroke="#2B80C3" stroke-miterlimit="10" cx="54.284" cy="13.424" r="2.889"/>
		<path fill="#2B80C3" stroke="#2B80C3" stroke-miterlimit="10" d="M-14.072,37.918c0,5.5,4.458,9.96,9.958,9.96
			c5.503,0,9.961-4.458,9.961-9.96c0-5.503-4.458-9.961-9.961-9.961C-9.614,27.957-14.072,32.416-14.072,37.918z M2.255,37.918
			c0,3.51-2.856,6.366-6.369,6.366c-3.51,0-6.366-2.856-6.366-6.366c0-3.511,2.856-6.367,6.366-6.367
			C-0.601,31.55,2.255,34.406,2.255,37.918z"/>
		<path fill="#2B80C3" stroke="#2B80C3" stroke-miterlimit="10" d="M-17.988,64.504c0-5.285,4.301-9.583,9.586-9.583h8.58
			c5.286,0,9.587,4.3,9.587,9.583h1.942h1.943c0-6.721-4.955-12.292-11.4-13.294c-0.677-0.106-1.363-0.177-2.072-0.177h-8.58
			c-0.706,0-1.394,0.071-2.073,0.177c-6.445,1.002-11.399,6.573-11.399,13.294h1.943H-17.988z"/>
		<path fill="#2B80C3" stroke="#2B80C3" stroke-miterlimit="10" d="M21.851,37.918c0,5.5,4.46,9.96,9.961,9.96
			c5.5,0,9.96-4.458,9.96-9.96c0-5.503-4.46-9.961-9.96-9.961C26.311,27.957,21.851,32.416,21.851,37.918z M31.812,31.55
			c3.51,0,6.369,2.856,6.369,6.367c0,3.51-2.859,6.366-6.369,6.366c-3.511,0-6.369-2.856-6.369-6.366
			C25.443,34.406,28.301,31.55,31.812,31.55z"/>
		<path fill="#2B80C3" stroke="#2B80C3" stroke-miterlimit="10" d="M14.05,64.504h1.942h1.943c0-5.285,4.3-9.583,9.586-9.583h8.58
			c5.285,0,9.584,4.3,9.584,9.583h1.945h1.943c0-6.721-4.954-12.292-11.399-13.294c-0.678-0.106-1.366-0.177-2.073-0.177h-8.58
			c-0.708,0-1.395,0.071-2.075,0.177C19.002,52.212,14.05,57.783,14.05,64.504z"/>
	</g>
</g>
</svg>
