<?xml version="1.0" encoding="utf-8"?>
<!-- Generator: Adobe Illustrator 16.0.0, SVG Export Plug-In . SVG Version: 6.00 Build 0)  -->
<!DOCTYPE svg PUBLIC "-//W3C//DTD SVG 1.1//EN" "http://www.w3.org/Graphics/SVG/1.1/DTD/svg11.dtd">
<svg version="1.1" xmlns="http://www.w3.org/2000/svg" xmlns:xlink="http://www.w3.org/1999/xlink" x="0px" y="0px"
	 width="345.544px" height="212.904px" viewBox="0 0 345.544 212.904" enable-background="new 0 0 345.544 212.904"
	 xml:space="preserve">
<g id="OBJECTS">
	<rect x="-0.056" y="-0.42" fill="#FFFFFF" width="345.544" height="229.489"/>
	<g>
		<g>
			<line fill="#E3E4F7" x1="345.544" y1="-148.151" x2="55.424" y2="-148.151"/>
		</g>
		<g>
			<g>
				<g>
					<g>
						<path fill="#EAEBFB" d="M94.241,177.46c0,0-38.48-16.142-37.585-48.709c0.895-32.567,36.989-37.665,61.748-17.558
							c24.759,20.106,48.622,14.159,61.449-2.832c12.826-16.992,21.375-59.368,57.272-45.028
							c26.767,10.693,44.734,39.397,50.54,65.269c3.989,17.78-1.793,36.563-15.737,48.294c-0.454,0.382-0.918,0.758-1.394,1.13
							L94.241,177.46z"/>
						<g>
							<defs>
								<path id="SVGID_1_" d="M94.241,177.46c0,0-38.48-16.142-37.585-48.709c0.895-32.567,36.989-42.799,61.748-22.692
									s48.622,14.16,61.449-2.832c12.826-16.991,21.375-54.233,57.272-39.893c26.767,10.693,44.734,39.397,50.54,65.269
									c3.989,17.78-1.793,36.563-15.737,48.294c-0.454,0.382-0.918,0.758-1.394,1.13L94.241,177.46z"/>
							</defs>
							<clipPath id="SVGID_2_">
								<use xlink:href="#SVGID_1_"  overflow="visible"/>
							</clipPath>
							<path clip-path="url(#SVGID_2_)" fill="#E1E2F5" d="M133.399,107.54c0,0-8.434,70.116,44.233,31.776
								c43.225-31.467,104.502-27.904,105.765,47.847c0,0,22.157,0.948,20.189-37.37S283.912,23.922,232.757,33.759
								C181.602,43.597,133.399,107.54,133.399,107.54z"/>
						</g>
					</g>
					<g>
						<g>
							<path fill="#F2F3FF" d="M142.201,49.029l46.67,0.194c6.224,0.026,11.128,5.31,10.69,11.518l-7.577,107.495
								c-0.391,5.548-5.006,9.85-10.568,9.85h-47.444c-6.161,0-11.022-5.237-10.565-11.382l8.019-107.712
								C131.843,53.356,136.549,49.005,142.201,49.029z"/>
							<path fill="#D9DDFB" d="M142.201,49.029l46.67,0.194c6.224,0.026,11.128,5.31,10.69,11.518l-7.577,107.495
								c-0.391,5.548-5.006,9.85-10.568,9.85h-47.444c-6.161,0-11.022-5.237-10.565-11.382l8.019-107.712
								C131.843,53.356,136.549,49.005,142.201,49.029z"/>
							<path fill="#C7CBE8" d="M136.957,49.029l46.67,0.194c6.224,0.026,11.128,5.31,10.69,11.518l-7.576,107.495
								c-0.392,5.548-5.007,9.85-10.569,9.85h-47.443c-6.161,0-11.023-5.237-10.566-11.382l8.019-107.712
								C126.599,53.356,131.306,49.005,136.957,49.029z"/>
							<polygon fill="#FFFFFF" points="133.428,58.875 186.799,58.875 180.379,161.404 126.806,161.806 							"/>
							<path fill="#8992C6" d="M151.221,174.674c-2.922,0-5.3-2.378-5.3-5.3s2.378-5.3,5.3-5.3c2.923,0,5.3,2.378,5.3,5.3
								S154.144,174.674,151.221,174.674z M151.221,164.82c-2.511,0-4.554,2.043-4.554,4.554s2.043,4.554,4.554,4.554
								s4.555-2.043,4.555-4.554S153.732,164.82,151.221,164.82z"/>
							<path fill="#8992C6" d="M165.008,55.077h-8.951c-0.501,0-0.907-0.406-0.907-0.907l0,0c0-0.501,0.406-0.907,0.907-0.907h8.951
								c0.501,0,0.907,0.406,0.907,0.907l0,0C165.916,54.67,165.509,55.077,165.008,55.077z"/>
						</g>
						<g>
							<path fill="#D9DDFB" d="M180.256,85.303h-43.323c-1.127,0-2.025-0.944-1.97-2.07l0.581-11.75
								c0.052-1.05,0.919-1.875,1.97-1.875h43.323c1.127,0,2.025,0.943,1.97,2.07l-0.581,11.75
								C182.174,84.478,181.308,85.303,180.256,85.303z"/>
							<path fill="#C7CBE8" d="M168.302,85.341h11.956c1.045,0,1.907-0.82,1.959-1.864l0.589-11.809
								c0.057-1.12-0.837-2.059-1.959-2.059h-11.955c-1.046,0-1.907,0.82-1.959,1.864l-0.59,11.809
								C166.288,84.401,167.181,85.341,168.302,85.341z"/>
							<path fill="#8992C6" d="M164.268,73.601h-24.645c-0.163,0-0.295-0.132-0.295-0.295c0-0.163,0.132-0.294,0.295-0.294h24.645
								c0.163,0,0.295,0.132,0.295,0.294C164.563,73.469,164.431,73.601,164.268,73.601z"/>
							<path fill="#8992C6" d="M164.074,77.532h-24.645c-0.163,0-0.295-0.131-0.295-0.294s0.132-0.294,0.295-0.294h24.645
								c0.162,0,0.294,0.131,0.294,0.294S164.236,77.532,164.074,77.532z"/>
							<path fill="#8992C6" d="M151.41,81.464h-12.175c-0.163,0-0.294-0.132-0.294-0.295c0-0.163,0.131-0.294,0.294-0.294h12.175
								c0.163,0,0.295,0.132,0.295,0.294C151.705,81.332,151.573,81.464,151.41,81.464z"/>
						</g>
						<g>
							<path fill="#D9DDFB" d="M178.723,107.517H135.4c-1.127,0-2.025-0.943-1.97-2.07l0.581-11.75
								c0.052-1.05,0.918-1.875,1.97-1.875h43.322c1.128,0,2.026,0.944,1.971,2.07l-0.581,11.75
								C180.641,106.691,179.774,107.517,178.723,107.517z"/>
							<path fill="#C7CBE8" d="M166.769,107.555h11.955c1.046,0,1.907-0.82,1.96-1.864l0.589-11.809
								c0.056-1.121-0.837-2.06-1.959-2.06h-11.955c-1.046,0-1.907,0.82-1.959,1.864l-0.59,11.81
								C164.754,106.615,165.647,107.555,166.769,107.555z"/>
							<path fill="#8992C6" d="M162.735,95.814H138.09c-0.163,0-0.295-0.131-0.295-0.294s0.132-0.294,0.295-0.294h24.645
								c0.163,0,0.294,0.131,0.294,0.294S162.898,95.814,162.735,95.814z"/>
							<path fill="#8992C6" d="M162.54,99.746h-24.644c-0.163,0-0.295-0.132-0.295-0.294c0-0.163,0.132-0.295,0.295-0.295h24.644
								c0.163,0,0.295,0.132,0.295,0.295C162.834,99.614,162.703,99.746,162.54,99.746z"/>
							<path fill="#8992C6" d="M149.876,103.678h-12.175c-0.163,0-0.295-0.132-0.295-0.295s0.132-0.295,0.295-0.295h12.175
								c0.163,0,0.295,0.132,0.295,0.295S150.04,103.678,149.876,103.678z"/>
						</g>
						<polygon fill="#ABB0D3" points="133.428,58.875 126.806,161.806 125.726,161.806 132.363,58.875 						"/>
						<g>
							<circle fill="#FFFFFF" cx="173.923" cy="77.532" r="4.906"/>
							<path fill="#C7CBE8" d="M173.044,79.42c-0.102-0.007-0.2-0.049-0.278-0.125l-1.647-1.619
								c-0.174-0.17-0.176-0.449-0.006-0.623c0.171-0.173,0.449-0.176,0.623-0.005l1.368,1.345l3.142-2.53
								c0.188-0.152,0.467-0.123,0.619,0.067c0.153,0.189,0.123,0.466-0.066,0.619l-3.447,2.776
								C173.262,79.396,173.152,79.427,173.044,79.42z"/>
						</g>
						<g>
							<circle fill="#FFFFFF" cx="172.77" cy="99.746" r="4.906"/>
							<path fill="#C7CBE8" d="M171.892,101.633c-0.102-0.007-0.201-0.049-0.278-0.125l-1.648-1.619
								c-0.173-0.17-0.176-0.45-0.005-0.623s0.449-0.176,0.623-0.005l1.368,1.344l3.142-2.53c0.188-0.153,0.466-0.123,0.619,0.066
								c0.152,0.189,0.122,0.467-0.067,0.62l-3.446,2.776C172.109,101.609,171.999,101.641,171.892,101.633z"/>
						</g>
					</g>
					<g>
						<path fill="#95B9FC" d="M76.567,139.851c0,0-0.628-0.978-2.252-7.52c-1.623-6.542-5.871-12.788-12.49-10.467
							c-6.62,2.321-4.719,10.033-1.458,22.488c2.328,8.892-7.179,15.792,5.351,22.703c7.588,4.185,20.773-1.444,18.185-14.101
							c0,0-0.63-3.84-3.213-7.073S76.567,139.851,76.567,139.851z"/>
						<g>
							<path fill="#648DD6" d="M71.328,178.884c-0.146-0.032-0.244-0.173-0.22-0.322c3.011-19.265-5.211-45.143-5.295-45.401
								c-0.048-0.149,0.034-0.311,0.184-0.358c0.149-0.049,0.311,0.034,0.358,0.184c0.084,0.261,8.348,26.268,5.315,45.664
								c-0.024,0.155-0.17,0.262-0.325,0.237C71.339,178.886,71.333,178.885,71.328,178.884z"/>
							<path fill="#648DD6" d="M68.676,143.329c-0.016-0.003-0.032-0.008-0.047-0.015c-0.146-0.06-0.215-0.227-0.156-0.372
								c0.014-0.034,1.412-3.466,1.937-6.375c0.028-0.155,0.176-0.258,0.331-0.23c0.156,0.027,0.258,0.177,0.23,0.331
								c-0.536,2.97-1.956,6.456-1.97,6.49C68.947,143.289,68.809,143.358,68.676,143.329z"/>
							<path fill="#648DD6" d="M69.835,149.091c-0.04-0.009-0.079-0.026-0.113-0.053c-1.47-1.139-5.144-3.253-5.18-3.274
								c-0.137-0.078-0.184-0.252-0.105-0.389c0.078-0.137,0.251-0.186,0.389-0.105c0.152,0.088,3.745,2.155,5.246,3.318
								c0.125,0.096,0.147,0.275,0.051,0.399C70.052,149.077,69.939,149.114,69.835,149.091z"/>
							<path fill="#648DD6" d="M70.824,154.706c-0.02-0.005-0.04-0.012-0.059-0.021c-0.143-0.066-0.205-0.236-0.138-0.379
								l1.881-4.03c0.066-0.143,0.235-0.205,0.378-0.138s0.205,0.236,0.138,0.379l-1.88,4.03
								C71.086,154.671,70.952,154.733,70.824,154.706z"/>
						</g>
					</g>
					<path fill="#EAEBFB" d="M105.504,76.152c0,0-1.309-1.505-2.111-2.195c-1.444-1.243-3.102-3.439-8.401-1.821
						c-0.412,0.126-0.811,0.293-1.208,0.461c-0.467,0.198-1.915,0.203-3.397-0.974c-2.355-1.87-3.276-3.281-6.503-3.325
						c-3.754-0.051-4.345,4.629-7.263,5.827c-1.857,0.763-6.756,1.521-7.77,1.858L105.504,76.152z"/>
					
						<path fill="none" stroke="#EAEBFB" stroke-width="0.9001" stroke-linecap="round" stroke-linejoin="round" stroke-miterlimit="10" d="
						M177.101,21.644c0,0,1.147-1.32,1.851-1.924c1.267-1.089,2.719-3.015,7.363-1.596c0.361,0.11,0.711,0.256,1.059,0.404
						c0.41,0.173,1.679,0.178,2.978-0.854c2.064-1.639,2.872-2.876,5.7-2.915c3.291-0.044,3.809,4.058,6.365,5.108
						c1.628,0.668,5.923,1.333,6.811,1.628L177.101,21.644z"/>
					<path fill="#EAEBFB" d="M234.279,43.661c0,0,2.016-2.318,3.25-3.38c2.225-1.913,4.775-5.294,12.933-2.802
						c0.634,0.193,1.248,0.45,1.858,0.709c0.72,0.305,2.947,0.313,5.229-1.499c3.625-2.878,5.043-5.05,10.01-5.118
						c5.779-0.079,6.688,7.125,11.18,8.97c2.858,1.173,10.399,2.34,11.96,2.86L234.279,43.661z"/>
					<g>
						<path fill="#4747CE" d="M116.212,48.251c1.048-1.259,1.681-2.875,1.681-4.631c0-3.994-3.269-7.262-7.262-7.262H94.897
							c-3.994,0-7.262,3.268-7.262,7.262c0,3.994,3.268,7.261,7.262,7.261h15.734c1.163,0,2.261-0.284,3.238-0.775l3.639,1.994
							L116.212,48.251z"/>
						<g>
							<circle fill="#FFFFFF" cx="108.194" cy="43.621" r="1.582"/>
							<circle fill="#FFFFFF" cx="102.764" cy="43.621" r="1.582"/>
							<circle fill="#FFFFFF" cx="97.335" cy="43.621" r="1.582"/>
						</g>
					</g>
					<g>
						<path fill="#93B7FA" d="M248.718,160.372c-0.499,0.031-13.113-1.484-13.687-13.214s7.466-14.634,5.35-27.692
							s-7.665-16.81,4.772-26.341c0,0,5.546-3.838,5.804-9.221c0.31-6.444,11.434-13.922,18.895-9.624s5.707,10.94-0.682,21.687
							c-6.389,10.746-0.231,12.623,0.996,16.097c1.228,3.475,4.075,7.119-2.446,15.423c-6.521,8.304,1.248,18.442-4.303,26.395
							C263.417,153.881,258.546,159.766,248.718,160.372z"/>
						<g>
							<path fill="#648BD4" d="M250.689,178.351c0.271-0.068,0.444-0.337,0.392-0.615c-6.775-35.802,7.036-84.627,7.176-85.116
								c0.082-0.283-0.082-0.578-0.364-0.659c-0.282-0.082-0.578,0.082-0.659,0.365c-0.141,0.492-14.021,49.561-7.199,85.608
								c0.055,0.289,0.334,0.479,0.623,0.425C250.667,178.356,250.678,178.354,250.689,178.351z"/>
							<path fill="#648BD4" d="M253.517,111.783c0.029-0.007,0.059-0.017,0.087-0.03c0.269-0.119,0.389-0.435,0.269-0.703
								c-0.028-0.063-2.844-6.391-3.999-11.793c-0.062-0.288-0.344-0.471-0.632-0.41c-0.29,0.061-0.471,0.345-0.409,0.632
								c1.179,5.515,4.039,11.941,4.068,12.005C253.007,111.725,253.271,111.847,253.517,111.783z"/>
							<path fill="#648BD4" d="M251.696,122.615c0.074-0.019,0.146-0.054,0.208-0.105c2.678-2.215,9.412-6.384,9.48-6.426
								c0.25-0.154,0.327-0.482,0.172-0.732c-0.153-0.251-0.48-0.331-0.732-0.173c-0.279,0.172-6.865,4.249-9.6,6.51
								c-0.227,0.188-0.258,0.523-0.07,0.75C251.29,122.603,251.502,122.664,251.696,122.615z"/>
							<path fill="#648BD4" d="M250.184,133.161c0.036-0.01,0.073-0.023,0.109-0.041c0.263-0.133,0.367-0.453,0.234-0.716
								l-3.754-7.415c-0.133-0.262-0.452-0.369-0.716-0.234c-0.263,0.133-0.367,0.453-0.234,0.716l3.754,7.415
								C249.692,133.112,249.947,133.222,250.184,133.161z"/>
						</g>
					</g>
					<g>
						<path fill="#4747CE" d="M278.995,165.01c-0.471,0.363-4.69-7.282-5.675-17.006c0,0-0.476-4.782,4.062-2.348
							c0,0-4.693-20.91,7.81-19.349c2.156,0.269,3.385,0.749,4.625,2.111c1.681,1.844,2.605,4.817,0.622,9.094
							c-3.967,8.553-7.451,11.873-5.746,16.402C286.397,158.445,285.821,159.74,278.995,165.01z"/>
						<path fill="#93B7FA" d="M280.214,178.619c0.249-0.051,0.409-0.295,0.358-0.543c-2.882-14.055,1.263-37.729,1.791-38.767
							c0.148-0.207,0.094-0.482-0.113-0.63c-0.206-0.148-0.501-0.089-0.649,0.117c-0.854,1.189-4.726,25.83-1.93,39.464
							C279.722,178.51,279.965,178.67,280.214,178.619z"/>
					</g>
					
						<line fill="none" stroke="#E2E2E2" stroke-width="0.4922" stroke-linecap="round" stroke-linejoin="round" stroke-miterlimit="10" x1="44.153" y1="178.318" x2="304.998" y2="178.318"/>
					<g>
						<g>
							<polygon fill="#3D415B" points="204.891,133.737 203.246,140.291 223.038,141.353 222.369,133.14 							"/>
							<polygon fill="#3D415B" points="213.024,138.004 207.265,157.454 207.379,186.839 200.353,186.986 198.991,157.008 
								203.696,138.524 							"/>
							<polygon opacity="0.44" fill="#C8C8C8" points="212.205,140.771 207.638,140.337 210.992,144.868 							"/>
							<polygon fill="#3D415B" points="222.993,140.016 224.323,158.266 229.883,188.387 222.932,189.814 216.212,159.09 
								213.893,138.04 							"/>
							<g>
								<path fill="#29323D" d="M202.357,186.896l3.827-0.025l0.1,5.483l-10.882,0.072l0,0c0.078-0.861,0.657-1.54,1.497-1.746
									l5.389-1.317L202.357,186.896z"/>
								
									<rect x="195.405" y="192.39" transform="matrix(1 -0.0066 0.0066 1 -1.276 1.338)" fill="#C7CBE8" width="10.882" height="0.847"/>
								<circle fill="#FFFFFF" cx="204.195" cy="189.169" r="0.835"/>
							</g>
							<g>
								<path fill="#29323D" d="M224.944,189.055l3.794-0.502l0.783,5.428l-10.787,1.43l0,0c-0.03-0.864,0.46-1.61,1.268-1.919
									l5.182-1.979L224.944,189.055z"/>
								
									<rect x="218.742" y="194.692" transform="matrix(0.9913 -0.1314 0.1314 0.9913 -23.6922 31.1463)" fill="#C7CBE8" width="10.881" height="0.846"/>
								<circle fill="#FFFFFF" cx="227.051" cy="191.081" r="0.834"/>
							</g>
							<path fill="#4633EA" d="M196.893,123.645c-0.077-0.005-0.154-0.014-0.231-0.025l-17.872-2.655l0.868-5.842l16.011,2.379
								c3.184-4.834,8.052-10.492,8.052-10.492c-0.036,0.072,0.181,0.257,0,0l5.633,0.583c0.252,1.424-0.988,1.435-9.795,14.737
								C198.968,123.22,197.947,123.718,196.893,123.645z"/>
							<path fill="#583BF7" d="M213.712,105.484l0.581,0.096c2.553,0.42,4.609,2.323,5.223,4.837l4.09,23.297
								c-8.697,4.74-19.702,0.051-19.702,0.051l-2.113-21.728c-0.298-2.396,0.953-4.716,3.117-5.784l0,0L213.712,105.484z"/>
							<polygon fill="#DDB28D" points="211.75,107.555 206.853,107.147 207.65,96.031 212.547,96.438 							"/>
							<path fill="#DDB28D" d="M205.652,106.185l7.481-0.654c0,0-0.054,4.371-4.566,4.308
								C204.442,109.78,205.652,106.185,205.652,106.185z"/>
							<g>
								<circle fill="#FFFFFF" cx="175.945" cy="117.499" r="3.175"/>
								<path fill="#FFFFFF" d="M180.82,119.934l-3.256-0.551c-0.851-0.145-1.429-0.958-1.285-1.809l0,0
									c0.145-0.851,0.958-1.429,1.809-1.285l3.256,0.552c0.851,0.144,1.429,0.958,1.285,1.809l0,0
									C182.484,119.5,181.67,120.078,180.82,119.934z"/>
							</g>
							<g>
								<circle fill="#DF7383" cx="179.08" cy="120.138" r="9.128"/>
								<path fill="#F4F8FF" d="M177.446,123.65c-0.188-0.013-0.373-0.091-0.518-0.232l-3.066-3.013
									c-0.322-0.317-0.327-0.837-0.01-1.16c0.317-0.322,0.836-0.327,1.159-0.01l2.546,2.502l5.845-4.708
									c0.352-0.284,0.868-0.229,1.153,0.124c0.283,0.353,0.228,0.869-0.125,1.152l-6.413,5.166
									C177.85,123.605,177.646,123.664,177.446,123.65z"/>
							</g>
							<path fill="#E3BC9A" d="M205.966,103.519L205.966,103.519c-3.327-0.23-5.838-3.114-5.607-6.44l0.518-7.488l12.048,0.833
								l-0.518,7.488C212.176,101.238,209.292,103.748,205.966,103.519z"/>
							<path fill="#282C3C" d="M212.484,95.918l-1.721-0.085c-0.468-0.023-0.796-0.467-0.685-0.922
								c0.301-1.228,0.69-3.344-0.103-3.648c-1.126-0.434-7.362,0.805-9.362-0.914c-2.815-2.421-0.476-5.885,2.191-5.879
								c2.667,0.007,2.094,3.063,5.197,3.188c3.104,0.125,7.88-0.789,5.364,7.307L212.484,95.918z"/>
							<circle fill="#E3BC9A" cx="212.692" cy="96.257" r="1.897"/>
							<g>
								<circle fill="#E0AE76" cx="187.877" cy="125.619" r="3.175"/>
								<path fill="#E0AE76" d="M192.967,127.562l-3.294-0.229c-0.861-0.06-1.517-0.812-1.457-1.673l0,0
									c0.06-0.86,0.813-1.516,1.673-1.456l3.295,0.228c0.86,0.06,1.516,0.813,1.456,1.673l0,0
									C194.581,126.965,193.828,127.62,192.967,127.562z"/>
							</g>
							<path fill="#583BF7" d="M191.168,128.75l0.008-5.906l16.276,0.024l5.595-13.272c0.677-1.483,2.429-2.138,3.912-1.461l0,0
								c1.483,0.677,2.138,2.428,1.461,3.912l-6.385,15.002c-0.48,1.054-1.532,1.729-2.69,1.729L191.168,128.75z"/>
							<rect x="199.444" y="183.914" fill="#535975" width="8.811" height="3.072"/>
							
								<rect x="221.811" y="186.269" transform="matrix(-0.9813 0.1924 -0.1924 -0.9813 484.3438 328.5704)" fill="#535975" width="8.81" height="3.072"/>
						</g>
						<path fill="#FFFFFF" d="M201.534,98.175l5.198,0.248c0,0-0.307,1.991-3.105,1.686
							C201.417,99.868,201.534,98.175,201.534,98.175z"/>
						<path fill="#4633EA" d="M203.418,128.768l5.254,0.01c1.475-0.096,2.78-0.988,3.404-2.328l5.842-13.224
							c-2.264,7.714-5.242,15.568-5.242,15.568c-0.364,1.002-1.332,1.655-2.397,1.616l-6.728-0.271L203.418,128.768z"/>
					</g>
					<g>
						<path opacity="0.12" fill="#B8B8B8" d="M171.04,138.68l-38.847,5.148c-1.057,0.141-2.026-0.603-2.167-1.659l-1.37-10.341
							c-0.141-1.057,0.603-2.027,1.659-2.167l38.847-5.149c1.057-0.14,2.027,0.603,2.167,1.66l1.371,10.341
							C172.839,137.569,172.096,138.539,171.04,138.68z"/>
						<path fill="#D9DDFB" d="M168.265,133.999l-38.847,5.149c-1.057,0.14-2.026-0.604-2.167-1.66l-1.37-10.341
							c-0.141-1.057,0.603-2.026,1.659-2.167l38.847-5.149c1.057-0.14,2.027,0.604,2.167,1.66l1.371,10.341
							C170.065,132.889,169.322,133.858,168.265,133.999z"/>
						<path fill="#8992C6" d="M129.833,128.342c-0.134,0-0.248-0.099-0.266-0.232c-0.021-0.148,0.083-0.282,0.229-0.302
							l22.246-2.949c0.156-0.03,0.282,0.083,0.302,0.229c0.021,0.148-0.083,0.282-0.229,0.302l-22.247,2.949
							C129.857,128.341,129.845,128.342,129.833,128.342z"/>
						<path fill="#8992C6" d="M130.304,131.892c-0.134,0-0.249-0.099-0.266-0.233c-0.021-0.147,0.083-0.282,0.229-0.301l22.246-2.95
							c0.156-0.028,0.282,0.084,0.302,0.23c0.021,0.147-0.083,0.282-0.23,0.301l-22.246,2.95
							C130.327,131.891,130.316,131.892,130.304,131.892z"/>
						<path fill="#8992C6" d="M130.774,135.439c-0.133,0-0.248-0.099-0.266-0.232c-0.02-0.148,0.084-0.282,0.23-0.302l11.007-1.473
							c0.156-0.028,0.282,0.084,0.302,0.229c0.02,0.148-0.084,0.282-0.23,0.302l-11.007,1.473
							C130.797,135.438,130.786,135.439,130.774,135.439z"/>
					</g>
					<g>
						<path fill="#29323D" d="M114.758,183.371l-3.484-0.265l-0.512,5.726l9.925,0.785l0.059-0.771
							c-0.017-0.789-0.501-1.443-1.254-1.684l-4.826-1.54L114.758,183.371z"/>
						<path fill="#29323D" d="M69.615,181.276l-0.346-3.478l-5.727,0.492l0.953,9.911l0.77-0.077
							c0.775-0.153,1.335-0.745,1.441-1.527l0.676-5.021L69.615,181.276z"/>
						<path fill="#583BF7" d="M83.991,155.354l6.318,20.368l-22.039,1.312l0.656,5.246l26.874-0.906
							c2.386-0.077,4.194-1.897,3.708-4.678l-1.507-15.134l14.207-0.219l-2.456,22.467l6.12,0.218l6.003-25.246
							c0.735-3.095-1.566-6.081-4.746-6.156l-14.454-0.362L83.991,155.354z"/>
						<g>
							<g>
								<polygon fill="#DDB28D" points="93.061,131.587 98.493,132.738 100.797,121.216 95.418,120.089 								"/>
								<path fill="#E3BC9A" d="M97.327,127.232L97.327,127.232c3.041,0.637,6.022-1.313,6.659-4.353l1.434-6.843l-11.011-2.307
									l-1.433,6.843C92.338,123.614,94.287,126.595,97.327,127.232z"/>
								<path fill="#282C3C" d="M101.391,118.994l-1.055,5.031c-0.42,2.008-2.299,3.314-4.196,2.917l-0.995-0.209
									c-3.317-0.694-5.411-4.105-4.675-7.617l0.952-4.546l10.346,2.167L101.391,118.994z"/>
								<path fill="#282C3C" d="M101.033,118.25c0,0,2.582,0.684,4.21,0.708c2.123,0.032,3.439-2.403,2.115-4.063
									c-0.059-0.073-0.121-0.146-0.188-0.221c-1.619-1.761-4.445-0.884-4.431-0.708
									C102.752,114.142,101.033,118.25,101.033,118.25z"/>
								<path fill="#282C3C" d="M104.367,115.337c0,0-3.164-4.643-8.634-3.275c0,0-2.099-0.11-4.309,2.509l9.202,4.381
									L104.367,115.337z"/>
								<circle fill="#E3BC9A" cx="100.747" cy="121.555" r="1.645"/>
								<circle fill="#282C3C" cx="91.528" cy="110.292" r="5.319"/>
							</g>
							<path fill="#DF7383" d="M102.823,152.084c-2.026-3.299-1.062-10.914-0.229-15.482c0.409-2.245-0.609-4.511-2.547-5.718l0,0
								l-6.292-1.862c-1.56-0.537-3.601,1.273-4.711,2.494c-9.925,10.907-6.102,24.797-6.102,24.797
								c3.385,0.827,7.548,0.789,9.815,0.507l-0.001,0.003c0.029-0.003,0.057-0.009,0.086-0.012
								c0.042-0.005,0.083-0.011,0.124-0.016C99.02,156.135,102.823,152.084,102.823,152.084z"/>
							<g>
								<g>
									<circle fill="#E3BC9A" cx="129.223" cy="132.253" r="3.4"/>
									<path fill="#E3BC9A" d="M125.697,136.901l2.865-2.073c0.749-0.541,0.918-1.597,0.377-2.346h-0.001
										c-0.541-0.748-1.597-0.918-2.345-0.376l-2.866,2.073c-0.748,0.541-0.918,1.597-0.376,2.346l0,0
										C123.893,137.273,124.949,137.443,125.697,136.901z"/>
								</g>
								<path fill="#DF7383" d="M128.005,136.963l-3.353-5.363l-14.78,9.241l-9.276-9.446c-1.456-0.965-3.418-0.567-4.384,0.889l0,0
									c-0.965,1.455-0.567,3.418,0.888,4.383l10.975,10.572c1.033,0.685,2.372,0.703,3.424,0.046L128.005,136.963z"/>
							</g>
						</g>
						<polygon opacity="0.44" fill="#C8C8C8" points="98.001,161.562 103.96,158.218 103.638,159.765 112.208,161.343 						"/>
					</g>
					<g>
						<path fill="#FFFFFF" d="M229.308,77.081l-0.493-1.412l-0.492,1.412c-0.416,1.19-1.402,2.194-2.738,2.788l0,0l0,0
							c1.336,0.594,2.322,1.598,2.738,2.788l0.492,1.412l0.493-1.412c0.416-1.19,1.402-2.194,2.738-2.788l0,0l0,0
							C230.71,79.275,229.724,78.271,229.308,77.081z"/>
						<path fill="#FFFFFF" d="M81.478,118.062l-0.325-0.932l-0.325,0.932c-0.274,0.785-0.925,1.448-1.806,1.84l0,0l0,0
							c0.881,0.392,1.532,1.054,1.806,1.839l0.325,0.932l0.325-0.932c0.274-0.785,0.925-1.447,1.807-1.839l0,0l0,0
							C82.403,119.51,81.752,118.847,81.478,118.062z"/>
					</g>
				</g>
			</g>
		</g>
	</g>
</g>
<g id="BACKGROUND" display="none">
</g>
<g id="DESIGNED_BY_FREEPIK" display="none">
</g>
</svg>
