<?xml version="1.0" ?><!DOCTYPE svg  PUBLIC '-//W3C//DTD SVG 1.1//EN'  'http://www.w3.org/Graphics/SVG/1.1/DTD/svg11.dtd'><svg enable-background="new 0 0 800 800" height="800px" id="Layer_1" version="1.1" viewBox="0 0 800 800" width="800px" xml:space="preserve" xmlns="http://www.w3.org/2000/svg" xmlns:xlink="http://www.w3.org/1999/xlink"><g><path d="M553.175,188.712c6.246,22.052-7.643,45.279-31.258,50.547c-132.852,29.708-270.64,29.708-403.492,0   c-23.619-5.268-37.509-28.493-31.262-50.547l0,0c6.25-22.086,28.265-35.211,49.388-30.512   c120.917,27.038,246.326,27.037,367.242-0.001C524.912,153.501,546.927,166.626,553.175,188.712L553.175,188.712z" fill="#BF9316"/><path d="M553.175,188.712   c6.246,22.052-7.643,45.279-31.258,50.547c-132.852,29.708-270.64,29.708-403.492,0c-23.619-5.268-37.509-28.493-31.262-50.547l0,0   c6.25-22.086,28.265-35.211,49.388-30.512c120.917,27.038,246.326,27.037,367.242-0.001   C524.912,153.501,546.927,166.626,553.175,188.712L553.175,188.712z" fill="none" stroke="#000000" stroke-miterlimit="10" stroke-width="4"/></g><rect fill="#B7B7B7" height="68.963" stroke="#000000" stroke-miterlimit="10" stroke-width="4" width="698.736" x="61.542" y="524.855"/><rect fill="#FFFFFF" height="70.264" stroke="#000000" stroke-miterlimit="10" stroke-width="4" width="13.012" x="159.13" y="256.812"/><rect fill="#FFFFFF" height="70.264" stroke="#000000" stroke-miterlimit="10" stroke-width="4" width="13.012" x="500.041" y="256.812"/><path d="M703.257,479.697l-62.703-130.502H31.614v248.526  h97.219c1.849-35.132,31.561-64.478,67.941-64.478c36.382,0,66.092,29.346,67.942,64.478h343.024  c1.85-35.132,31.562-64.478,67.944-64.478c36.38,0,66.091,29.346,67.939,64.478h25.761v-93.573L703.257,479.697z" fill="#E4F3F4" stroke="#000000" stroke-miterlimit="10" stroke-width="4"/><path d="M31.614,532.662v65.06h97.219  c1.849-35.132,31.561-64.478,67.941-64.478c36.382,0,66.092,29.346,67.942,64.478h343.024c1.85-35.132,31.562-64.478,67.944-64.478  c36.38,0,66.091,29.346,67.939,64.478h25.761v-65.06H31.614z" fill="#E0634F" stroke="#000000" stroke-miterlimit="10" stroke-width="4"/><rect fill="#E4F3F4" height="229.008" stroke="#000000" stroke-miterlimit="10" stroke-width="4" width="94.986" x="500.041" y="368.713"/><line fill="none" stroke="#000000" stroke-miterlimit="10" stroke-width="4" x1="513.053" x2="513.053" y1="506.639" y2="524.855"/><g><circle cx="677.017" cy="602.42" r="49.359" stroke="#000000" stroke-miterlimit="10" stroke-width="4"/><circle cx="677.017" cy="602.42" fill="#E4F3F4" r="31.35" stroke="#B7B7B7" stroke-miterlimit="10" stroke-width="4"/><circle cx="677.017" cy="602.421" r="13.34"/><circle cx="677.017" cy="581.076" r="4.825" stroke="#B7B7B7" stroke-miterlimit="10"/><circle cx="677.017" cy="622.43" r="4.825" stroke="#B7B7B7" stroke-miterlimit="10"/><circle cx="697.026" cy="602.42" r="4.825" stroke="#B7B7B7" stroke-miterlimit="10"/><circle cx="655.673" cy="602.42" r="4.825" stroke="#B7B7B7" stroke-miterlimit="10"/></g><g><circle cx="196.775" cy="602.42" r="49.358" stroke="#000000" stroke-miterlimit="10" stroke-width="4"/><circle cx="196.775" cy="602.42" fill="#E4F3F4" r="31.35" stroke="#B7B7B7" stroke-miterlimit="10" stroke-width="4"/><circle cx="196.775" cy="602.421" r="13.34"/><circle cx="196.775" cy="581.076" r="4.824" stroke="#B7B7B7" stroke-miterlimit="10"/><circle cx="196.775" cy="622.43" r="4.824" stroke="#B7B7B7" stroke-miterlimit="10"/><circle cx="216.786" cy="602.42" r="4.824" stroke="#B7B7B7" stroke-miterlimit="10"/><circle cx="175.43" cy="602.42" r="4.824" stroke="#B7B7B7" stroke-miterlimit="10"/></g><path d="M33.583,346.736" fill="none" stroke="#000000" stroke-miterlimit="10"/><polygon fill="#BAE1E5" points="639.222,379.123 677.393,463.699   613.244,463.699 613.244,379.123 " stroke="#000000" stroke-miterlimit="10" stroke-width="4"/><line fill="none" stroke="#000000" stroke-miterlimit="10" stroke-width="4" x1="703.025" x2="595.027" y1="479.313" y2="479.313"/><rect fill="#B7B7B7" height="126.215" stroke="#000000" stroke-miterlimit="10" stroke-width="4" width="238.117" x="203.371" y="373.918"/><line fill="none" stroke="#000000" stroke-miterlimit="10" stroke-width="4" x1="441.487" x2="203.371" y1="446.784" y2="446.784"/><rect fill="#BAE1E5" height="126.215" stroke="#000000" stroke-miterlimit="10" stroke-width="4" width="87.179" x="203.371" y="373.918"/><line fill="none" stroke="#96CACC" stroke-miterlimit="10" stroke-width="4" x1="287.948" x2="205.973" y1="446.784" y2="446.784"/><line fill="none" stroke="#000000" stroke-miterlimit="10" stroke-width="4" x1="441.487" x2="203.371" y1="485.819" y2="485.819"/><line fill="none" stroke="#96CACC" stroke-miterlimit="10" stroke-width="4" x1="287.948" x2="205.973" y1="485.819" y2="485.819"/><rect fill="#B7B7B7" height="121.01" stroke="#000000" stroke-miterlimit="10" stroke-width="4" width="80.673" x="58.939" y="379.123"/><rect fill="#B7B7B7" height="31.229" stroke="#000000" stroke-miterlimit="10" stroke-width="4" width="28.626" x="756.374" y="566.493"/><rect fill="#FFFFFF" height="22.12" stroke="#000000" stroke-miterlimit="10" stroke-width="4" width="6.506" x="769.386" y="532.662"/><rect fill="#FFFFFF" height="22.12" stroke="#000000" stroke-miterlimit="10" stroke-width="4" width="6.506" x="25.108" y="532.662"/><rect fill="#B7B7B7" height="31.229" stroke="#000000" stroke-miterlimit="10" stroke-width="4" width="28.626" x="16" y="566.493"/><rect fill="#E4F3F4" height="97.589" stroke="#000000" stroke-miterlimit="10" stroke-width="4" width="5.204" x="667.894" y="396.038"/><line fill="none" stroke="#000000" stroke-miterlimit="10" stroke-width="4" x1="656.183" x2="669.194" y1="396.038" y2="396.038"/><line fill="none" stroke="#000000" stroke-miterlimit="10" stroke-width="4" x1="656.183" x2="669.194" y1="493.627" y2="493.627"/><path d="M647.074,337.709  c0,5.723-2.688,11.486-7.558,11.486H32.678c-4.87,0-10.172-5.763-10.172-11.486v-0.623c0-5.723,5.303-10.012,10.172-10.012h606.839  c4.868,0,7.559,4.288,7.559,10.012v0.623H647.074z" fill="#E4F3F4" stroke="#000000" stroke-miterlimit="10" stroke-width="4"/><polygon enable-background="new    " fill="#FFFFFF" opacity="0.4" points="614.545,461.795 614.545,383.026 637.498,383.026 "/><polygon enable-background="new    " fill="#FFFFFF" opacity="0.4" points="205.973,487.155 205.973,383.026 323.308,383.026 "/><g><g><g id="XMLID_11_"><g><path d="M468.631,370.035c4.535,16.856,9.072,33.01,13.619,49.162h-0.228h-33.526      c-3.579-16.328-7.131-32.658-10.703-48.986v-0.176H468.631L468.631,370.035z" fill="#E0634F"/><path d="M448.498,419.197h-32.961c-2.637-16.328-5.312-32.658-7.967-48.986v-0.176h30.226v0.176      C441.365,386.54,444.918,402.869,448.498,419.197z" fill="#E4F3F4"/><path d="M415.537,419.197h-32.505c-1.768-16.328-3.545-32.658-5.304-48.986v-0.176h29.842v0.176      C410.226,386.54,412.899,402.869,415.537,419.197z" fill="#E0634F"/><path d="M377.728,370.211c1.759,16.329,3.535,32.658,5.304,48.986h-32.245      c-0.879-16.328-1.769-32.658-2.648-48.986c0-0.056-0.009-0.12-0.009-0.176h29.598V370.211z" fill="#E4F3F4"/><path d="M350.786,419.197h-32.106v-49.162h29.449c0,0.056,0.009,0.12,0.009,0.176      C349.017,386.54,349.906,402.869,350.786,419.197z" fill="#E0634F"/><path d="M318.679,370.035v49.162h-32.106c0.879-16.328,1.758-32.658,2.648-48.986c0-0.056,0-0.12,0.009-0.176      H318.679L318.679,370.035z" fill="#E4F3F4"/><path d="M289.229,370.035c-0.01,0.056-0.01,0.12-0.01,0.176c-0.889,16.329-1.767,32.658-2.647,48.986h-32.254      c1.776-16.328,3.544-32.658,5.304-48.986v-0.176H289.229z" fill="#E0634F"/><path d="M259.622,370.035v0.176c-1.759,16.329-3.526,32.658-5.304,48.986h-32.506      c2.639-16.328,5.312-32.658,7.977-48.986v-0.176H259.622z" fill="#E4F3F4"/><path d="M229.789,370.035v0.176c-2.666,16.329-5.338,32.658-7.977,48.986h-32.951      c3.57-16.321,7.123-32.658,10.702-48.986v-0.176H229.789z" fill="#E0634F"/><path d="M168.728,370.035h30.834v0.176c-3.579,16.329-7.132,32.665-10.703,48.986h-33.526h-0.226      C159.654,403.045,164.192,386.891,168.728,370.035z" fill="#E4F3F4"/></g><g><path d="M437.795,370.035h30.836      c4.535,16.856,9.072,33.01,13.619,49.162h-0.228h-33.526h-32.96h-32.505h-32.245h-32.106h-32.106h-32.254h-32.507h-32.951      h-33.526h-0.227c4.545-16.152,9.083-32.307,13.62-49.162h30.834h30.225h29.833h29.608h29.449h29.45h29.598h29.842H437.795z" fill="none" stroke="#000000" stroke-miterlimit="10" stroke-width="4"/><path d="M168.807,370.211      c-4.483,16.329-8.977,32.658-13.471,48.986c-0.017,0.057-0.026,0.105-0.043,0.162" fill="none" stroke="#000000" stroke-miterlimit="10" stroke-width="4"/><path d="M199.563,370.211      c-3.578,16.329-7.132,32.665-10.702,48.986c-0.01,0.057-0.026,0.105-0.035,0.162" fill="none" stroke="#000000" stroke-miterlimit="10" stroke-width="4"/><path d="M229.789,370.211      c-2.666,16.329-5.338,32.658-7.977,48.986c-0.009,0.057-0.018,0.105-0.026,0.162" fill="none" stroke="#000000" stroke-miterlimit="10" stroke-width="4"/><path d="M259.622,370.211      c-1.759,16.329-3.526,32.658-5.304,48.986c-0.009,0.057-0.009,0.105-0.017,0.162" fill="none" stroke="#000000" stroke-miterlimit="10" stroke-width="4"/><path d="M286.565,419.359      c0-0.057,0.008-0.105,0.008-0.162c0.879-16.328,1.758-32.658,2.648-48.986c0-0.056,0-0.12,0.009-0.176      c0-0.184,0.017-0.366,0.035-0.556" fill="none" stroke="#000000" stroke-miterlimit="10" stroke-width="4"/><line fill="none" stroke="#000000" stroke-miterlimit="10" stroke-width="4" x1="318.679" x2="318.679" y1="419.197" y2="370.035"/><path d="M350.793,419.359      c0-0.057-0.008-0.105-0.008-0.162c-0.879-16.328-1.769-32.658-2.648-48.986c0-0.056-0.009-0.12-0.009-0.176      c-0.007-0.184-0.025-0.366-0.043-0.556" fill="none" stroke="#000000" stroke-miterlimit="10" stroke-width="4"/><path d="M383.048,419.359      c-0.009-0.057-0.009-0.105-0.018-0.162c-1.768-16.328-3.545-32.658-5.304-48.986" fill="none" stroke="#000000" stroke-miterlimit="10" stroke-width="4"/><path d="M415.564,419.359      c-0.01-0.057-0.02-0.105-0.028-0.162c-2.637-16.328-5.312-32.658-7.968-48.986" fill="none" stroke="#000000" stroke-miterlimit="10" stroke-width="4"/><path d="M448.532,419.359      c-0.009-0.057-0.028-0.105-0.034-0.162c-3.58-16.328-7.132-32.658-10.703-48.986" fill="none" stroke="#000000" stroke-miterlimit="10" stroke-width="4"/><path d="M482.068,419.359      c-0.02-0.057-0.028-0.105-0.045-0.162c-4.493-16.328-8.995-32.658-13.479-48.986" fill="none" stroke="#000000" stroke-miterlimit="10" stroke-width="4"/></g></g></g><path d="M155.227,418.158v3.848   c0,5.818,5.59,10.466,12.805,10.466h7.834c7.214,0,15.794-4.647,15.794-10.466v-3.848H155.227z" fill="#E4F3F4" stroke="#000000" stroke-miterlimit="10" stroke-width="4"/><path d="M221.587,418.158v3.848   c0,5.818,5.104,10.466,11.977,10.466h7.463c6.873,0,10.488-4.647,10.488-10.466v-3.848H221.587z" fill="#E4F3F4" stroke="#000000" stroke-miterlimit="10" stroke-width="4"/><path d="M191.66,418.158v3.848   c0,5.818,3.682,10.466,10.552,10.466h7.468c6.871,0,11.906-4.647,11.906-10.466v-3.848H191.66z" fill="#E0634F" stroke="#000000" stroke-miterlimit="10" stroke-width="4"/><path d="M251.515,418.158v3.848   c0,5.818,7.696,10.466,14.742,10.466h7.655c7.048,0,14.037-4.647,14.037-10.466v-3.848H251.515z" fill="#E0634F" stroke="#000000" stroke-miterlimit="10" stroke-width="4"/><path d="M287.948,418.158v3.848   c0,5.818,4.049,10.466,10.976,10.466h7.526c6.926,0,10.124-4.647,10.124-10.466v-3.848H287.948z" fill="#E4F3F4" stroke="#000000" stroke-miterlimit="10" stroke-width="4"/><path d="M316.574,418.158v3.848   c0,5.818,7.533,10.466,14.518,10.466h7.583c6.985,0,11.729-4.647,11.729-10.466v-3.848H316.574z" fill="#E0634F" stroke="#000000" stroke-miterlimit="10" stroke-width="4"/><path d="M350.404,418.158v3.848   c0,5.818,4.997,10.466,12.028,10.466h7.637c7.032,0,12.866-4.647,12.866-10.466v-3.848H350.404z" fill="#E4F3F4" stroke="#000000" stroke-miterlimit="10" stroke-width="4"/><path d="M382.934,418.158v3.848   c0,5.818,5.141,10.466,12.081,10.466h7.543c6.942,0,12.906-4.647,12.906-10.466v-3.848H382.934z" fill="#E0634F" stroke="#000000" stroke-miterlimit="10" stroke-width="4"/><path d="M418.066,418.158v3.848   c0,5.818,4.537,10.466,11.139,10.466h7.173c6.602,0,10.315-4.647,10.315-10.466v-3.848H418.066z" fill="#E4F3F4" stroke="#000000" stroke-miterlimit="10" stroke-width="4"/><path d="M446.692,418.158v3.848   c0,5.818,7.583,10.466,14.798,10.466h7.838c7.214,0,13.797-4.647,13.797-10.466v-3.848H446.692z" fill="#E0634F" stroke="#000000" stroke-miterlimit="10" stroke-width="4"/></g><line fill="none" stroke="#000000" stroke-miterlimit="10" stroke-width="4" x1="153.742" x2="178.333" y1="422.006" y2="513.278"/><line fill="none" stroke="#000000" stroke-miterlimit="10" stroke-width="4" x1="481.905" x2="457.313" y1="422.006" y2="513.278"/><rect fill="#E4F3F4" height="10.409" width="33.831" x="70.65" y="438.978"/><rect fill="#E4F3F4" height="10.409" width="57.252" x="69.349" y="410.352"/><rect fill="#E4F3F4" height="10.409" width="27.325" x="86.264" y="396.038"/><rect fill="#E4F3F4" height="10.409" width="13.012" x="114.89" y="438.978"/><rect fill="#E4F3F4" height="10.409" width="33.831" x="70.65" y="455.893"/><rect fill="#E4F3F4" height="10.409" width="13.012" x="114.89" y="455.893"/><rect fill="#E4F3F4" height="10.41" width="33.831" x="70.65" y="472.808"/><rect fill="#E4F3F4" height="10.41" width="13.012" x="114.89" y="472.808"/><path d="M449.295,505.469  c0,3.883-1.664,10.278-3.701,10.278H191.646c-2.038,0-3.89-6.396-3.89-10.278v-0.422c0-3.884,1.852-6.214,3.89-6.214h253.948  c2.036,0,3.701,2.33,3.701,6.214V505.469z" fill="#E4F3F4" stroke="#000000" stroke-miterlimit="10" stroke-width="4"/><path d="M318.247,503.175  c0,1.872-1.519,3.464-3.392,3.464h-15.262c-1.873,0-3.393-1.592-3.393-3.464l3.393-18.91c0-1.872,1.519-3.649,3.392-3.649h8.48  c1.872,0,3.392,1.776,3.392,3.649L318.247,503.175z" fill="#E9B71E" stroke="#000000" stroke-miterlimit="10" stroke-width="4"/><path d="M312.67,480.615v-5.246  c0-1.255,0.107-2.562-1.148-2.562h-7.96c-1.254,0-2.602,1.307-2.602,2.562v5.246H312.67z" fill="#E9B71E" stroke="#000000" stroke-miterlimit="10" stroke-width="4"/><path d="M286.025,503.175  c0,1.872-1.519,3.464-3.393,3.464h-15.264c-1.872,0-3.39-1.592-3.39-3.464l3.39-18.91c0-1.872,1.519-3.649,3.393-3.649h8.479  c1.875,0,3.393,1.776,3.393,3.649L286.025,503.175z" fill="#E0634F" stroke="#000000" stroke-miterlimit="10" stroke-width="4"/><path d="M281.441,480.615v-5.246  c0-1.255-0.887-2.562-2.144-2.562h-7.958c-1.256,0-2.91,1.307-2.91,2.562v5.246H281.441z" fill="#E0634F" stroke="#000000" stroke-miterlimit="10" stroke-width="4"/><g><path d="M606.115,201.177c6.246,22.051-10.566,46.097-37.822,52.177c-153.491,34.32-312.684,34.32-466.175,0   c-27.257-6.079-44.067-30.126-37.821-52.177l0,0c6.249-22.089,31.185-34.393,55.946-28.883   c141.556,31.652,288.371,31.653,429.926,0C574.93,166.784,599.866,179.088,606.115,201.177L606.115,201.177z" fill="#E0634F"/><path d="M606.115,201.177   c6.246,22.051-10.566,46.097-37.822,52.177c-153.491,34.32-312.684,34.32-466.175,0c-27.257-6.079-44.067-30.126-37.821-52.177l0,0   c6.249-22.089,31.185-34.393,55.946-28.883c141.556,31.652,288.371,31.653,429.926,0   C574.93,166.784,599.866,179.088,606.115,201.177L606.115,201.177z" fill="none" stroke="#000000" stroke-miterlimit="10" stroke-width="4"/></g><g><path d="M568.438,239.629c6.246,22.053-7.642,45.278-31.257,50.547c-132.854,29.708-270.641,29.708-403.493,0   c-23.619-5.269-37.509-28.495-31.262-50.548l0,0c6.25-22.086,28.263-35.211,49.387-30.51   c120.916,27.037,246.325,27.036,367.242-0.001C540.176,204.417,562.188,217.544,568.438,239.629L568.438,239.629z" fill="#BF9316"/><path d="M568.438,239.629   c6.246,22.053-7.642,45.278-31.257,50.547c-132.854,29.708-270.641,29.708-403.493,0c-23.619-5.269-37.509-28.495-31.262-50.548   l0,0c6.25-22.086,28.263-35.211,49.387-30.51c120.916,27.037,246.325,27.036,367.242-0.001   C540.176,204.417,562.188,217.544,568.438,239.629L568.438,239.629z" fill="none" stroke="#000000" stroke-miterlimit="10" stroke-width="4"/></g><g><g><g><path d="M558.499,172.691c0.085,0.309-2.406,1.099-2.373,1.409c0.032,0.317,2.632,0.577,2.614,0.891     c-0.021,0.316-2.633,0.262-2.701,0.569c-0.071,0.308,2.307,1.388,2.188,1.681c-0.118,0.293-2.576-0.589-2.74-0.319     c-0.163,0.27,1.761,2.037,1.558,2.28c-0.201,0.241-2.275-1.352-2.515-1.143c-0.236,0.206,1.062,2.475,0.792,2.644     c-0.264,0.167-1.758-1.979-2.05-1.85c-0.286,0.124,0.268,2.679-0.042,2.762c-14.318,3.807-29.313,4.704-43.764,7.752     c-14.491,3.057-28.573,8.292-43.168,10.585c-14.626,2.299-29.633,1.636-44.333,3.17c-14.721,1.535-29.268,5.28-44.032,6.047     c-14.774,0.769-29.633-1.448-44.422-1.448s-29.646,2.217-44.422,1.448c-14.765-0.768-29.313-4.514-44.033-6.047     c-14.699-1.535-29.708-0.871-44.332-3.17c-14.595-2.293-28.677-7.528-43.167-10.585c-14.451-3.048-29.446-3.945-43.764-7.752     c-0.312-0.082,0.244-2.637-0.042-2.762c-0.294-0.127-1.787,2.019-2.051,1.851c-0.269-0.17,1.027-2.441,0.791-2.646     c-0.239-0.208-2.312,1.384-2.514,1.144c-0.205-0.243,1.721-2.009,1.559-2.278c-0.163-0.271-2.625,0.607-2.743,0.316     c-0.118-0.293,2.261-1.373,2.191-1.681c-0.071-0.306-2.683-0.25-2.702-0.567c-0.019-0.313,2.58-0.57,2.614-0.888     c0.033-0.309-2.505-1.102-2.419-1.41l1.209,1.646v-2.603v2.603v-2.603v2.603v-2.603v2.603v-2.603v2.603l-1.209-1.647     c0.085-0.308,2.653,0.285,2.782,0.002c0.133-0.289-1.965-1.83-1.793-2.087c0.176-0.263,2.411,1.102,2.624,0.873     c0.215-0.23-1.304-2.354-1.057-2.546c0.246-0.193,1.941,1.798,2.216,1.646c0.273-0.152-0.519-2.643-0.225-2.75     c0.294-0.108,1.301,2.304,1.61,2.242c0.304-0.061,0.304-2.675,0.621-2.689c0.311-0.014,0.54,2.589,0.856,2.625     c0.307,0.034,1.091-2.461,1.4-2.379c14.12,3.754,27.708,9.664,41.959,12.669c14.29,3.014,29.108,3.095,43.502,5.357     c14.421,2.267,28.551,6.736,43.047,8.248c14.515,1.515,29.261,0.056,43.821,0.813c14.57,0.757,29.086,3.737,43.67,3.737     s29.101-2.98,43.671-3.737c14.558-0.757,29.307,0.7,43.821-0.813c14.497-1.512,28.625-5.981,43.047-8.248     c14.395-2.263,29.212-2.342,43.503-5.357c14.25-3.006,27.839-8.917,41.959-12.669c0.308-0.082,1.093,2.413,1.398,2.379     c0.316-0.034,0.548-2.638,0.859-2.625c0.315,0.015,0.313,2.628,0.619,2.689c0.308,0.061,1.317-2.35,1.608-2.242     c0.298,0.107-0.498,2.599-0.225,2.75c0.274,0.152,1.97-1.839,2.216-1.646c0.248,0.192-1.274,2.317-1.059,2.547     c0.212,0.228,2.442-1.137,2.618-0.874c0.173,0.259-1.938,1.797-1.808,2.086c0.13,0.281,2.698-0.312,2.784-0.004l-1.233,1.646     v-2.603v2.603v-2.603v2.603v-2.603v2.603v-2.603l0.32,2.556C558.24,174.118,558.499,172.691,558.499,172.691z" fill="#E9B71E"/></g><g><path d="M558.499,172.691     c0.085,0.309-2.406,1.099-2.373,1.409c0.032,0.317,2.632,0.577,2.614,0.891c-0.021,0.316-2.633,0.262-2.701,0.569     c-0.071,0.308,2.307,1.388,2.188,1.681c-0.118,0.293-2.576-0.589-2.74-0.319c-0.163,0.27,1.761,2.037,1.558,2.28     c-0.201,0.241-2.275-1.352-2.515-1.143c-0.236,0.206,1.062,2.475,0.792,2.644c-0.264,0.167-1.758-1.979-2.05-1.85     c-0.286,0.124,0.268,2.679-0.042,2.762c-14.318,3.807-29.313,4.704-43.764,7.752c-14.491,3.057-28.573,8.292-43.168,10.585     c-14.626,2.299-29.633,1.636-44.333,3.17c-14.721,1.535-29.268,5.28-44.032,6.047c-14.774,0.769-29.633-1.448-44.422-1.448     s-29.646,2.217-44.422,1.448c-14.765-0.768-29.313-4.514-44.033-6.047c-14.699-1.535-29.708-0.871-44.332-3.17     c-14.595-2.293-28.677-7.528-43.167-10.585c-14.451-3.048-29.446-3.945-43.764-7.752c-0.312-0.082,0.244-2.637-0.042-2.762     c-0.294-0.127-1.787,2.019-2.051,1.851c-0.269-0.17,1.027-2.441,0.791-2.646c-0.239-0.208-2.312,1.384-2.514,1.144     c-0.205-0.243,1.721-2.009,1.559-2.278c-0.163-0.271-2.625,0.607-2.743,0.316c-0.118-0.293,2.261-1.373,2.191-1.681     c-0.071-0.306-2.683-0.25-2.702-0.567c-0.019-0.313,2.58-0.57,2.614-0.888c0.033-0.309-2.505-1.102-2.419-1.41l1.209,1.646     v-2.603v2.603v-2.603v2.603v-2.603v2.603v-2.603v2.603l-1.209-1.647c0.085-0.308,2.653,0.285,2.782,0.002     c0.133-0.289-1.965-1.83-1.793-2.087c0.176-0.263,2.411,1.102,2.624,0.873c0.215-0.23-1.304-2.354-1.057-2.546     c0.246-0.193,1.941,1.798,2.216,1.646c0.273-0.152-0.519-2.643-0.225-2.75c0.294-0.108,1.301,2.304,1.61,2.242     c0.304-0.061,0.304-2.675,0.621-2.689c0.311-0.014,0.54,2.589,0.856,2.625c0.307,0.034,1.091-2.461,1.4-2.379     c14.12,3.754,27.708,9.664,41.959,12.669c14.29,3.014,29.108,3.095,43.502,5.357c14.421,2.267,28.551,6.736,43.047,8.248     c14.515,1.515,29.261,0.056,43.821,0.813c14.57,0.757,29.086,3.737,43.67,3.737s29.101-2.98,43.671-3.737     c14.558-0.757,29.307,0.7,43.821-0.813c14.497-1.512,28.625-5.981,43.047-8.248c14.395-2.263,29.212-2.342,43.503-5.357     c14.25-3.006,27.839-8.917,41.959-12.669c0.308-0.082,1.093,2.413,1.398,2.379c0.316-0.034,0.548-2.638,0.859-2.625     c0.315,0.015,0.313,2.628,0.619,2.689c0.308,0.061,1.317-2.35,1.608-2.242c0.298,0.107-0.498,2.599-0.225,2.75     c0.274,0.152,1.97-1.839,2.216-1.646c0.248,0.192-1.274,2.317-1.059,2.547c0.212,0.228,2.442-1.137,2.618-0.874     c0.173,0.259-1.938,1.797-1.808,2.086c0.13,0.281,2.698-0.312,2.784-0.004l-1.233,1.646v-2.603v2.603v-2.603v2.603v-2.603v2.603     v-2.603l0.32,2.556C558.24,174.118,558.499,172.691,558.499,172.691z" fill="none" stroke="#000000" stroke-miterlimit="10" stroke-width="4"/></g></g></g></svg>