<?xml version="1.0" encoding="utf-8"?>
<!-- Generator: Adobe Illustrator 16.0.0, SVG Export Plug-In . SVG Version: 6.00 Build 0)  -->
<!DOCTYPE svg PUBLIC "-//W3C//DTD SVG 1.1//EN" "http://www.w3.org/Graphics/SVG/1.1/DTD/svg11.dtd">
<svg version="1.1" id="Layer_1" xmlns="http://www.w3.org/2000/svg" xmlns:xlink="http://www.w3.org/1999/xlink" x="0px" y="0px"
	 width="43.977px" height="43.978px" viewBox="0 0 43.977 43.978" enable-background="new 0 0 43.977 43.978" xml:space="preserve">
<g id="XMLID_1449_">
	<path id="XMLID_1451_" fill="#2BA9E0" d="M21.988,43.978L21.988,43.978C9.845,43.978,0,34.133,0,21.988l0,0
		C0,9.845,9.845,0,21.988,0l0,0c12.145,0,21.988,9.845,21.988,21.988l0,0C43.977,34.133,34.133,43.978,21.988,43.978z"/>
	<path id="XMLID_1450_" fill="#FFFFFF" d="M10.273,29.35c2.128,1.364,4.654,2.159,7.369,2.159c8.925,0,13.968-7.538,13.664-14.299
		c0.938-0.678,1.754-1.524,2.398-2.489c-0.862,0.382-1.789,0.641-2.761,0.756c0.992-0.594,1.754-1.536,2.113-2.659
		c-0.93,0.551-1.959,0.951-3.053,1.167c-0.877-0.935-2.126-1.518-3.51-1.518c-3.102,0-5.382,2.895-4.682,5.902
		c-3.995-0.2-7.538-2.114-9.908-5.023c-1.26,2.161-0.653,4.988,1.488,6.418c-0.789-0.025-1.531-0.242-2.178-0.602
		c-0.052,2.228,1.544,4.31,3.855,4.774c-0.677,0.185-1.418,0.226-2.17,0.082c0.61,1.91,2.386,3.299,4.49,3.339
		C15.369,28.943,12.823,29.65,10.273,29.35z"/>
</g>
</svg>
