<?xml version="1.0" encoding="utf-8"?>
<!-- Generator: Adobe Illustrator 16.0.0, SVG Export Plug-In . SVG Version: 6.00 Build 0)  -->
<!DOCTYPE svg PUBLIC "-//W3C//DTD SVG 1.1//EN" "http://www.w3.org/Graphics/SVG/1.1/DTD/svg11.dtd">
<svg version="1.1" id="Layer_1" xmlns="http://www.w3.org/2000/svg" xmlns:xlink="http://www.w3.org/1999/xlink" x="0px" y="0px"
	 width="39.91px" height="30.187px" viewBox="0 0 39.91 30.187" enable-background="new 0 0 39.91 30.187" xml:space="preserve">
<path fill="#FFFFFF" d="M371.8,1236.019h-706.786c-1.65,0-3-1.35-3-3v-2437.021c0-1.65,1.35-3,3-3H371.8c1.65,0,3,1.35,3,3v2437.021
	C374.8,1234.669,373.451,1236.019,371.8,1236.019"/>
<path fill="#BDBEC0" d="M104.664-683.912c0,0.424,0.34,0.774,0.772,0.796c4.663,0.231,8.315,3.987,8.315,8.551
	c0,2.592-1.18,5.018-3.237,6.656c-0.349,0.277-0.401,0.779-0.118,1.12c0.284,0.342,0.797,0.393,1.145,0.115
	c2.44-1.941,3.84-4.817,3.84-7.891c0-5.166-3.945-9.459-9.111-10.079"/>
<path fill="#BDBEC0" d="M86.157-683.91c0-0.016,0-0.032-0.001-0.047c0.012-4.983,4.159-9.034,9.254-9.034
	c5.098,0,9.244,4.051,9.256,9.035c-0.002,0.016-0.002,0.032-0.002,0.044"/>
<path fill="#BDBEC0" d="M106.269-684.644c-0.374-5.542-5.102-9.94-10.859-9.94s-10.486,4.4-10.857,9.944
	c-5.149,0.634-9.081,4.925-9.081,10.075c0,5.607,4.661,10.168,10.392,10.168h15.803c0.45,0,0.814-0.357,0.814-0.797
	c0-0.439-0.364-0.796-0.814-0.796H85.863c-4.832,0-8.764-3.847-8.764-8.575c0-4.55,3.641-8.305,8.288-8.55
	c0.432-0.022,0.77-0.372,0.77-0.795"/>
<path fill="#FFFFFF" d="M376.05,1250.019h-706.786c-1.65,0-3-1.35-3-3v-2437.021c0-1.65,1.35-3,3-3H376.05c1.65,0,3,1.35,3,3
	v2437.021C379.05,1248.669,377.701,1250.019,376.05,1250.019"/>
<path fill="#BDBEC0" d="M106.664-682.912c0,0.424,0.34,0.774,0.772,0.796c4.663,0.231,8.315,3.987,8.315,8.551
	c0,2.592-1.18,5.018-3.237,6.656c-0.349,0.277-0.401,0.779-0.118,1.12c0.284,0.342,0.797,0.393,1.145,0.115
	c2.44-1.941,3.84-4.817,3.84-7.891c0-5.166-3.945-9.459-9.111-10.079"/>
<path fill="#BDBEC0" d="M88.157-682.91c0-0.016,0-0.032-0.001-0.047c0.012-4.983,4.159-9.034,9.254-9.034
	c5.098,0,9.244,4.051,9.256,9.035c-0.002,0.016-0.002,0.032-0.002,0.044"/>
<path fill="#BDBEC0" d="M108.269-683.644c-0.374-5.542-5.102-9.94-10.859-9.94s-10.486,4.4-10.857,9.944
	c-5.149,0.634-9.081,4.925-9.081,10.075c0,5.607,4.661,10.168,10.392,10.168h15.803c0.45,0,0.814-0.357,0.814-0.797
	c0-0.439-0.364-0.796-0.814-0.796H87.863c-4.832,0-8.764-3.847-8.764-8.575c0-4.55,3.641-8.305,8.288-8.55
	c0.432-0.022,0.77-0.372,0.77-0.795"/>
<path fill="#BDBEC0" d="M30.798,9.94C30.423,4.398,25.697,0,19.939,0S9.452,4.4,9.081,9.944C3.932,10.578,0,14.869,0,20.019
	c0,5.607,4.662,10.168,10.392,10.168h15.803c0.45,0,0.814-0.357,0.814-0.797s-0.364-0.796-0.814-0.796H10.392
	c-4.832,0-8.764-3.847-8.764-8.575c0-4.55,3.641-8.306,8.288-8.55c0.432-0.023,0.77-0.372,0.77-0.795c0-0.016,0-0.032-0.001-0.048
	c0.012-4.982,4.159-9.033,9.254-9.033c5.098,0,9.244,4.051,9.255,9.035c-0.001,0.016-0.002,0.032-0.002,0.044
	c0,0.424,0.34,0.774,0.772,0.795c4.664,0.23,8.316,3.988,8.316,8.552c0,2.592-1.18,5.018-3.238,6.656
	c-0.349,0.277-0.4,0.779-0.117,1.119c0.283,0.342,0.797,0.394,1.145,0.115c2.44-1.94,3.84-4.817,3.84-7.891
	C39.91,14.853,35.964,10.56,30.798,9.94"/>
<path fill="#BDBEC0" d="M19.125,14.297v10.158c0,0.438,0.365,0.795,0.813,0.795c0.449,0,0.814-0.356,0.814-0.795V14.297
	c0-0.44-0.365-0.796-0.814-0.796C19.491,13.501,19.125,13.857,19.125,14.297"/>
<path fill="#BDBEC0" d="M24.595,15.774c0.208,0,0.417-0.078,0.576-0.233c0.316-0.311,0.316-0.815,0-1.126l-4.656-4.556
	c-0.318-0.311-0.834-0.311-1.151,0l-4.656,4.556c-0.318,0.311-0.318,0.815,0,1.126c0.318,0.311,0.833,0.311,1.151,0l4.08-3.992
	l4.08,3.992C24.178,15.696,24.387,15.774,24.595,15.774"/>
</svg>
