<?xml version="1.0" encoding="utf-8"?>
<!-- Generator: Adobe Illustrator 16.0.0, SVG Export Plug-In . SVG Version: 6.00 Build 0)  -->
<!DOCTYPE svg PUBLIC "-//W3C//DTD SVG 1.1//EN" "http://www.w3.org/Graphics/SVG/1.1/DTD/svg11.dtd">
<svg version="1.1" id="Layer_1" xmlns="http://www.w3.org/2000/svg" xmlns:xlink="http://www.w3.org/1999/xlink" x="0px" y="0px"
	 width="174.5px" height="100px" viewBox="0 0 174.5 100" enable-background="new 0 0 174.5 100" xml:space="preserve">
<rect x="1.306" y="1" fill="#FFFFFF" stroke="#B3BED8" stroke-width="2" stroke-miterlimit="10" width="172.194" height="98.333"/>
<path fill="#FFFFFF" d="M542,667h90c2.762,0,5,2.238,5,5v90c0,2.762-2.238,5-5,5h-90c-2.762,0-5-2.238-5-5v-90
	C537,669.238,539.238,667,542,667z"/>
<path fill="#B3BED8" d="M168.919,79.768c0,3.472-1.5,5.027-4.847,5.027H10.371c-3.345,0-4.848-1.557-4.848-5.027V20.599
	c0-3.47,1.502-5.028,4.848-5.028h153.701c3.346,0,4.846,1.558,4.846,5.028v54.168L168.919,79.768z"/>
<rect x="1.306" y="1" fill="none" stroke="#B3BED8" stroke-width="2" stroke-miterlimit="10" width="172.194" height="98.333"/>
<rect x="13.78" y="7.659" fill="#E0E0E0" width="83.275" height="2.14"/>
<circle fill="#E0E0E0" cx="8.46" cy="8.222" r="3.602"/>
<rect x="13.78" y="10.585" fill="#E0E0E0" width="129.531" height="2.139"/>
<rect x="13.78" y="4.732" fill="#B3BED8" width="137.638" height="2.139"/>
<rect x="5.902" y="91.078" fill="#E0E0E0" width="78.275" height="2.139"/>
<rect x="5.902" y="94.18" fill="#B3BED8" width="102.627" height="2.139"/>
<rect x="5.902" y="87.979" fill="#B3BED8" width="151.638" height="2.141"/>
<path fill="#FFFFFF" d="M96.516,40.116c-6.188-0.556-12.406-0.556-18.591,0c-2.151,0.215-4.694,2.293-5.203,4.493
	c-0.797,3.549-0.797,7.231,0,10.78c0.509,2.201,3.052,4.277,5.207,4.49c6.185,0.563,12.402,0.563,18.588,0
	c2.149-0.213,4.696-2.289,5.207-4.49c0.791-3.545,0.791-7.229,0-10.78C101.214,42.41,98.667,40.332,96.516,40.116z M83.563,54.229
	V45.77l7.321,4.229L83.563,54.229z"/>
<rect x="55.628" y="15.571" fill="#FFFFFF" width="1.122" height="69.224"/>
<rect x="118.128" y="15.571" fill="#FFFFFF" width="1.122" height="69.224"/>
</svg>
