<?xml version="1.0" encoding="utf-8"?>
<!-- Generator: Adobe Illustrator 16.0.0, SVG Export Plug-In . SVG Version: 6.00 Build 0)  -->
<!DOCTYPE svg PUBLIC "-//W3C//DTD SVG 1.1//EN" "http://www.w3.org/Graphics/SVG/1.1/DTD/svg11.dtd">
<svg version="1.1" id="Layer_1" xmlns="http://www.w3.org/2000/svg" xmlns:xlink="http://www.w3.org/1999/xlink" x="0px" y="0px"
	 width="174.5px" height="100px" viewBox="0 0 174.5 100" enable-background="new 0 0 174.5 100" xml:space="preserve">
<rect x="1" y="1" fill="#FFFFFF" width="172.5" height="98.333"/>
<path fill="#FFFFFF" d="M542,667h90c2.762,0,5,2.238,5,5v90c0,2.762-2.238,5-5,5h-90c-2.762,0-5-2.238-5-5v-90
	C537,669.238,539.238,667,542,667z"/>
<rect x="13.284" y="7.678" fill="#E0E0E0" width="58.276" height="2.139"/>
<circle fill="#E0E0E0" cx="7.963" cy="8.242" r="3.602"/>
<rect x="13.284" y="10.606" fill="#E0E0E0" width="143.532" height="2.139"/>
<rect x="13.284" y="4.751" fill="#B3BED8" width="151.637" height="2.139"/>
<rect x="13.285" y="89.184" fill="#B3BED8" width="108.275" height="2.142"/>
<rect x="13.285" y="92.109" fill="#E0E0E0" width="143.531" height="2.141"/>
<rect x="13.284" y="86.257" fill="#E0E0E0" width="150.625" height="2.14"/>
<path fill="#B3BED8" d="M40.938,42.45c0,2.797-0.987,4.053-3.188,4.053H16.626c-2.2,0-3.188-1.256-3.188-4.053V21.784
	c0-2.797,0.987-4.053,3.188-4.053H37.75c2.2,0,3.188,1.256,3.188,4.053V42.45z"/>
<path fill="#B3BED8" d="M75.013,42.45c0,2.798-0.987,4.053-3.188,4.053H50.341c-2.201,0-3.188-1.255-3.188-4.053V21.784
	c0-2.797,0.986-4.053,3.188-4.053h21.484c2.2,0,3.188,1.256,3.188,4.053V42.45z"/>
<path fill="#B3BED8" d="M75.013,75.968c0,2.798-0.987,4.054-3.188,4.054H50.341c-2.201,0-3.188-1.256-3.188-4.054V55.301
	c0-2.797,0.986-4.053,3.188-4.053h21.484c2.2,0,3.188,1.256,3.188,4.053V75.968z"/>
<path fill="#B3BED8" d="M40.938,75.968c0,2.798-0.986,4.054-3.188,4.054H16.626c-2.201,0-3.187-1.256-3.187-4.054V55.301
	c0-2.797,0.986-4.053,3.187-4.053H37.75c2.201,0,3.188,1.256,3.188,4.053V75.968z"/>
<rect x="1" y="1" fill="none" stroke="#B3BED8" stroke-width="2" stroke-miterlimit="10" width="172.5" height="98.333"/>
<path fill="#B3BED8" d="M108.938,42.45c0,2.797-0.985,4.053-3.188,4.053H84.627c-2.2,0-3.188-1.256-3.188-4.053V21.784
	c0-2.797,0.987-4.053,3.188-4.053h21.124c2.2,0,3.188,1.256,3.188,4.053V42.45H108.938z"/>
<path fill="#B3BED8" d="M143.016,42.45c0,2.798-0.988,4.053-3.188,4.053h-21.484c-2.2,0-3.188-1.255-3.188-4.053V21.784
	c0-2.797,0.986-4.053,3.188-4.053h21.484c2.2,0,3.188,1.256,3.188,4.053V42.45z"/>
<path fill="#B3BED8" d="M143.016,75.968c0,2.798-0.988,4.054-3.188,4.054h-21.484c-2.2,0-3.188-1.256-3.188-4.054V55.301
	c0-2.797,0.986-4.053,3.188-4.053h21.484c2.2,0,3.188,1.256,3.188,4.053V75.968z"/>
<path fill="#B3BED8" d="M108.938,75.968c0,2.798-0.984,4.054-3.188,4.054H84.627c-2.201,0-3.187-1.256-3.187-4.054V55.301
	c0-2.797,0.986-4.053,3.187-4.053h21.124c2.201,0,3.188,1.256,3.188,4.053v20.667H108.938z"/>
<path fill="#B3BED8" d="M172.875,46.503h-21.283c-2.199,0-3.188-1.255-3.188-4.053V21.784c0-2.797,0.986-4.053,3.188-4.053h21.283
	V46.503z"/>
<path fill="#B3BED8" d="M172.916,80.021h-20.324c-2.199,0-3.188-1.256-3.188-4.055V55.301c0-2.797,0.986-4.053,3.188-4.053h20.324
	V80.021z"/>
</svg>
