<?xml version="1.0" encoding="utf-8"?>
<!-- Generator: Adobe Illustrator 16.0.0, SVG Export Plug-In . SVG Version: 6.00 Build 0)  -->
<!DOCTYPE svg PUBLIC "-//W3C//DTD SVG 1.1//EN" "http://www.w3.org/Graphics/SVG/1.1/DTD/svg11.dtd">
<svg version="1.1" id="Layer_1" xmlns="http://www.w3.org/2000/svg" xmlns:xlink="http://www.w3.org/1999/xlink" x="0px" y="0px"
	 width="174.5px" height="100px" viewBox="0 0 174.5 100" enable-background="new 0 0 174.5 100" xml:space="preserve">
<rect x="92.057" fill="#FFFFFF" width="81.389" height="100.333"/>
<rect x="1.056" y="1" fill="#FFFFFF" width="80.388" height="98.333"/>
<path fill="#FFFFFF" d="M542,667h90c2.762,0,5,2.238,5,5v90c0,2.762-2.238,5-5,5h-90c-2.762,0-5-2.238-5-5v-90
	C537,669.238,539.238,667,542,667z"/>
<rect x="12.34" y="7.678" fill="#E0E0E0" width="38.276" height="2.139"/>
<circle fill="#E0E0E0" cx="7.019" cy="8.242" r="3.602"/>
<rect x="12.34" y="10.606" fill="#E0E0E0" width="53.532" height="2.139"/>
<rect x="12.34" y="4.751" fill="#B3BED8" width="61.637" height="2.139"/>
<rect x="12.341" y="89.184" fill="#B3BED8" width="38.275" height="2.142"/>
<rect x="12.341" y="92.109" fill="#E0E0E0" width="53.531" height="2.141"/>
<rect x="12.34" y="86.257" fill="#E0E0E0" width="60.625" height="2.14"/>
<path fill="#B3BED8" d="M39.994,42.45c0,2.797-0.987,4.053-3.188,4.053H15.682c-2.2,0-3.188-1.256-3.188-4.053V21.784
	c0-2.797,0.987-4.053,3.188-4.053h21.124c2.2,0,3.188,1.256,3.188,4.053V42.45z"/>
<path fill="#B3BED8" d="M74.069,42.45c0,2.798-0.987,4.053-3.188,4.053H49.397c-2.201,0-3.188-1.255-3.188-4.053V21.784
	c0-2.797,0.986-4.053,3.188-4.053h21.484c2.2,0,3.188,1.256,3.188,4.053V42.45z"/>
<path fill="#B3BED8" d="M74.069,75.968c0,2.798-0.987,4.054-3.188,4.054H49.397c-2.201,0-3.188-1.256-3.188-4.054V55.301
	c0-2.797,0.986-4.053,3.188-4.053h21.484c2.2,0,3.188,1.256,3.188,4.053V75.968z"/>
<path fill="#B3BED8" d="M39.994,75.968c0,2.798-0.986,4.054-3.188,4.054H15.682c-2.201,0-3.187-1.256-3.187-4.054V55.301
	c0-2.797,0.986-4.053,3.187-4.053h21.124c2.201,0,3.188,1.256,3.188,4.053V75.968z"/>
<path fill="#B3BED8" d="M165.807,72.939c0,4.889-2.113,7.08-6.826,7.08h-50.285c-4.713,0-6.827-2.191-6.827-7.08V24.813
	c0-4.888,2.114-7.083,6.827-7.083h50.285c4.713,0,6.826,2.195,6.826,7.083V72.939z"/>
<path fill="#FFFFFF" d="M143.855,38.334c-6.187-0.556-12.404-0.556-18.59,0c-2.15,0.215-4.693,2.293-5.203,4.493
	c-0.797,3.549-0.797,7.232,0,10.78c0.51,2.201,3.053,4.275,5.207,4.49c6.186,0.563,12.401,0.563,18.59,0
	c2.147-0.215,4.695-2.289,5.205-4.49c0.793-3.544,0.793-7.229,0-10.78C148.555,40.628,146.008,38.55,143.855,38.334z
	 M130.904,52.447v-8.459l7.32,4.229L130.904,52.447z"/>
<rect x="1.056" y="1" fill="none" stroke="#B3BED8" stroke-width="2" stroke-miterlimit="10" width="80.388" height="98.333"/>
<rect x="93.057" y="1" fill="none" stroke="#B3BED8" stroke-width="2" stroke-miterlimit="10" width="80.389" height="98.333"/>
<rect x="104.34" y="7.678" fill="#E0E0E0" width="38.275" height="2.14"/>
<circle fill="#E0E0E0" cx="99.02" cy="8.242" r="3.602"/>
<rect x="104.34" y="10.605" fill="#E0E0E0" width="53.531" height="2.139"/>
<rect x="104.34" y="4.752" fill="#B3BED8" width="61.637" height="2.139"/>
<rect x="102.342" y="88.934" fill="#B3BED8" width="38.273" height="2.142"/>
<rect x="102.342" y="91.859" fill="#E0E0E0" width="53.529" height="2.141"/>
<rect x="102.34" y="86.007" fill="#E0E0E0" width="60.625" height="2.14"/>
</svg>
