<?xml version="1.0" encoding="utf-8"?>
<!-- Generator: Adobe Illustrator 16.0.0, SVG Export Plug-In . SVG Version: 6.00 Build 0)  -->
<!DOCTYPE svg PUBLIC "-//W3C//DTD SVG 1.1//EN" "http://www.w3.org/Graphics/SVG/1.1/DTD/svg11.dtd">
<svg version="1.1" id="Layer_1" xmlns="http://www.w3.org/2000/svg" xmlns:xlink="http://www.w3.org/1999/xlink" x="0px" y="0px"
	 width="337.5px" height="242.213px" viewBox="0 0 337.5 242.213" enable-background="new 0 0 337.5 242.213" xml:space="preserve">
<g display="none">
	<g display="inline">
		<g>
			<g>
				<defs>
					<rect id="SVGID_1_" x="-10.5" y="-46.5" width="303" height="303"/>
				</defs>
				<clipPath id="SVGID_2_">
					<use xlink:href="#SVGID_1_"  overflow="visible"/>
				</clipPath>
				<path clip-path="url(#SVGID_2_)" fill="#C2C2C0" d="M151.634,192.144c-0.547-0.447-0.427-1.074-0.428-1.656
					c-0.006-8.188-0.006-16.377,0-24.564c0.001-0.583-0.118-1.208,0.422-1.656C152.129,173.556,152.221,182.849,151.634,192.144"/>
			</g>
		</g>
	</g>
</g>
<g display="none">
	<g display="inline">
		<g>
			<g>
				<defs>
					<rect id="SVGID_3_" x="-10.5" y="-46.5" width="303" height="303"/>
				</defs>
				<clipPath id="SVGID_4_">
					<use xlink:href="#SVGID_3_"  overflow="visible"/>
				</clipPath>
				<path clip-path="url(#SVGID_4_)" fill="#C2C2C0" d="M5.896,162.461c0.696,0.679,0.402,1.552,0.403,2.337
					c0.019,9.854,0.011,19.708,0.01,29.563c-0.521-0.051-0.506-0.447-0.505-0.813C5.832,183.185,5.864,172.821,5.896,162.461"/>
			</g>
		</g>
	</g>
</g>
<g display="none">
	<g display="inline">
		<g>
			<g>
				<defs>
					<rect id="SVGID_5_" x="-10.5" y="-46.5" width="303" height="303"/>
				</defs>
				<clipPath id="SVGID_6_">
					<use xlink:href="#SVGID_5_"  overflow="visible"/>
				</clipPath>
				<path clip-path="url(#SVGID_6_)" fill="#C2C2C0" d="M140.823,31.506c0.793,1.952,0.769,3.904,0.011,5.858
					C140.57,35.411,140.476,33.459,140.823,31.506"/>
			</g>
		</g>
	</g>
</g>
<g display="none">
	<g display="inline">
		<g>
			<g>
				<defs>
					<rect id="SVGID_7_" x="-10.5" y="-46.5" width="303" height="303"/>
				</defs>
				<clipPath id="SVGID_8_">
					<use xlink:href="#SVGID_7_"  overflow="visible"/>
				</clipPath>
				<path clip-path="url(#SVGID_8_)" fill="#C2C2C0" d="M160.131,165.282c0.076-0.639,0.153-1.276,0.229-1.914
					c0.07,2.105,0.744,4.217-0.115,6.268C160.206,168.185,160.168,166.731,160.131,165.282"/>
			</g>
		</g>
	</g>
</g>
<g display="none">
	<g display="inline">
		<g>
			<g>
				<defs>
					<rect id="SVGID_9_" x="-10.5" y="-46.5" width="303" height="303"/>
				</defs>
				<clipPath id="SVGID_10_">
					<use xlink:href="#SVGID_9_"  overflow="visible"/>
				</clipPath>
				<path clip-path="url(#SVGID_10_)" fill="#C2C2C0" d="M273.214,169.091c-0.983-1.589-0.651-3.203-0.104-4.824
					C273.146,165.873,273.18,167.481,273.214,169.091"/>
			</g>
		</g>
	</g>
</g>
<g display="none">
	<g display="inline">
		<g>
			<g>
				<defs>
					<rect id="SVGID_11_" x="-10.5" y="-46.5" width="303" height="303"/>
				</defs>
				<clipPath id="SVGID_12_">
					<use xlink:href="#SVGID_11_"  overflow="visible"/>
				</clipPath>
				<path clip-path="url(#SVGID_12_)" fill="#C2C2C0" d="M56.71,23.852c-1.189,0.718-2.386,0.683-3.587,0.027
					C54.316,23.589,55.513,23.641,56.71,23.852"/>
			</g>
		</g>
	</g>
</g>
<g display="none">
	<g display="inline">
		<g>
			<g>
				<defs>
					<rect id="SVGID_13_" x="-10.5" y="-46.5" width="303" height="303"/>
				</defs>
				<clipPath id="SVGID_14_">
					<use xlink:href="#SVGID_13_"  overflow="visible"/>
				</clipPath>
				<path clip-path="url(#SVGID_14_)" fill="#C2C2C0" d="M139.897,59.327c0.708,1.192,0.737,2.923,0.069,4.121
					C139.742,62.254,139.662,60.523,139.897,59.327"/>
			</g>
		</g>
	</g>
</g>
<g display="none">
	<g display="inline">
		<g>
			<g>
				<defs>
					<rect id="SVGID_15_" x="-10.5" y="-46.5" width="303" height="303"/>
				</defs>
				<clipPath id="SVGID_16_">
					<use xlink:href="#SVGID_15_"  overflow="visible"/>
				</clipPath>
				<path clip-path="url(#SVGID_16_)" fill="#C2C2C0" d="M206.473,97.817v9.584c-0.072,0.002-0.145,0.004-0.217,0.005V97.72
					C206.33,97.753,206.4,97.785,206.473,97.817"/>
			</g>
		</g>
	</g>
</g>
<g transform="translate(50 50) scale(0.69 0.69) rotate(0) translate(-50 -50)" display="none">
	<title>Profile 3.2</title>
	<desc>Created with Sketch.</desc>
	<g display="inline">
		<g>
			<path fill="#331CBF" d="M467.877,310.701c0,9.395-7.617,17.097-17.023,17.097H194.429c-9.358,0-17.024-7.679-17.024-17.097
				c0-80.2,65.023-145.223,145.234-145.223C402.853,165.478,467.877,230.501,467.877,310.701z M322.641,182.562
				c-70.78,0-128.138,57.384-128.138,128.139c0-0.011,256.35,0,256.35,0C450.78,239.946,393.41,182.562,322.641,182.562z
				 M322.641,148.392c-47.179,0-85.434-38.256-85.434-85.434s38.254-85.422,85.434-85.422s85.435,38.243,85.435,85.422
				C408.076,110.137,369.82,148.392,322.641,148.392z M322.641,131.308c37.749,0,68.341-30.602,68.341-68.35
				c0-37.748-30.59-68.337-68.341-68.337c-37.748,0-68.337,30.59-68.337,68.337C254.304,100.706,284.893,131.308,322.641,131.308z"
				/>
			<path fill="#331CBF" d="M228.671,310.701c0,9.395-7.619,17.097-17.025,17.097H-44.777c-9.359,0-17.024-7.679-17.024-17.097
				c0-80.2,65.025-145.223,145.236-145.223C163.646,165.478,228.671,230.501,228.671,310.701z M83.435,182.562
				c-70.768,0-128.141,57.384-128.141,128.139c0-0.011,256.351,0,256.351,0C211.574,239.946,154.215,182.562,83.435,182.562z
				 M83.435,148.392c-47.179,0-85.434-38.256-85.434-85.434s38.256-85.422,85.434-85.422s85.434,38.243,85.434,85.422
				C168.869,110.137,130.614,148.392,83.435,148.392z M83.435,131.308c37.747,0,68.337-30.602,68.337-68.35
				c0-37.748-30.59-68.337-68.337-68.337c-37.748,0-68.338,30.59-68.338,68.337C15.097,100.706,45.687,131.308,83.435,131.308z"/>
		</g>
	</g>
</g>
<g>
	<g>
		<g>
			<g>
				<g>
					<defs>
						<rect id="SVGID_17_" x="-19" y="-60.5" width="380" height="380"/>
					</defs>
					<clipPath id="SVGID_18_">
						<use xlink:href="#SVGID_17_"  overflow="visible"/>
					</clipPath>
					<path clip-path="url(#SVGID_18_)" fill="#212529" d="M184.334,238.789c0.455,2.137-0.189,2.935-2.582,2.935
						c-59.329-0.059-118.663-0.033-177.991-0.031c-0.561,0-1.122-0.082-1.682-0.123c-0.505-0.973-0.25-2.021-0.253-3.03
						c-0.021-11.312-0.005-22.621-0.025-33.938c-0.002-1.011,0.233-2.057-0.24-3.035c0.146-3.33,1.608-6.187,3.556-8.723
						c4.658-6.068,9.92-11.435,16.749-15.229c10.118-5.627,20.648-10.307,31.38-14.573c1.971-0.783,3.665-1.808,4.985-3.496
						c1.932-2.47,4.242-4.563,7.059-5.946c2.552-1.259,2.018-3.326,1.655-5.345c-0.251-1.385-1.529-0.799-2.339-0.831
						c-10.334-0.396-20.626-1.176-30.631-4c-4.416-1.248-8.794-2.668-12.615-5.39c-1.16-0.824-1.501-1.453-0.323-2.567
						c4.736-4.482,6.982-10.257,8.842-16.373c4.758-15.633,7.171-31.627,8.35-47.886c0.965-13.3,5.667-25.388,13.196-36.332
						c2.274-3.304,5.041-6.332,9.366-7.112c1.503,0.425,3.002,0.475,4.499-0.032c1.226,0.024,2.064-0.68,2.92-1.444
						c5.565-4.975,12.237-7.123,19.557-7.585c7.664-0.483,15.175,0.342,22.558,2.468c18.076,5.205,28.369,18.088,34.573,35
						c2.355,6.421,2.765,13.173,3.403,19.912c1.494,15.711,3.215,31.396,8.998,46.289c1.882,4.844,3.951,9.577,7.528,13.415
						c1.329,1.426,0.668,2.025-0.493,2.77c-3.77,2.399-7.94,3.785-12.232,4.875c-10.057,2.561-20.345,3.408-30.648,4.141
						c-0.855,0.063-2.081-0.473-2.458,0.725c-0.369,1.164,0.178,2.122,1.246,2.857c3.266,2.248,6.211,4.861,8.692,7.979
						c0.916,1.152,2.278,1.626,3.562,2.189c9.104,4.008,18.277,7.867,27.302,12.049c7.487,3.468,14.193,8.104,19.259,14.781
						c3.502,4.619,5.631,9.736,5.273,15.674c-0.71,2.975,0.072,5.941,0.025,8.912c-0.123,7.486,0.297,14.976-0.254,22.455
						C184.016,236.373,183.807,237.619,184.334,238.789"/>
				</g>
			</g>
		</g>
	</g>
	<g>
		<g>
			<g>
				<g>
					<defs>
						<rect id="SVGID_19_" x="-19" y="-60.5" width="380" height="380"/>
					</defs>
					<clipPath id="SVGID_20_">
						<use xlink:href="#SVGID_19_"  overflow="visible"/>
					</clipPath>
					<path clip-path="url(#SVGID_20_)" fill="#212529" d="M336.814,209.877c1.07,4.454,0.656,8.993,0.379,13.446
						c-0.336,5.266-0.396,10.52-0.401,15.773c-0.003,1.846-0.356,2.604-2.448,2.602c-45.867-0.045-91.734-0.02-137.605-0.016
						c-1.021,0-2.312,0.471-2.133-1.539c0.873-9.849,0.182-19.728,0.527-29.584c0.576-2.367-0.002-4.793,0.354-7.17
						c0.063-0.373-0.336-0.211-0.281-0.086c0.259,0.592,0.316,1.252-0.21,1.797c-2.106-20.402-15.063-32.103-32.384-40.233
						c-5.453-2.56-11.251-4.181-17.293-5.757c1.747-1.563,3.852-1.785,5.681-2.564c7.257-3.102,14.513-6.207,21.981-8.771
						c1.184-0.405,2.139-1.09,2.965-2.053c3.35-3.885,7.146-7.229,11.941-9.224c1.176-0.488,1.461-1.229,1.385-2.405
						c-0.092-1.5-0.092-3.013,0.015-4.512c0.397-5.579,0.211-10.902-3.21-15.846c-2.073-3.002-2.799-6.774-2.87-10.5
						c-0.029-1.606-0.524-2.269-2.136-1.959c-1.248,0.244-1.854-0.469-2.377-1.481c-3.705-7.187-6.146-14.876-8.985-22.408
						c0.438-1.498,0.47-2.998-0.021-4.495c-0.023-0.277-0.1-0.561-0.063-0.831c0.632-4.774,1.94-5.471,6.25-3.126
						c-2.56-8.006-5.554-15.782-5.077-24.261c0.533-2.449,0.297-4.897-0.018-7.348c-0.197-2.794,0.369-5.495,1.707-7.882
						c3.076-5.484,6.188-10.972,10.264-15.813c1.393-1.649,2.907-3.083,4.945-4.064c1.798-0.862,2.56-3.051,4.492-4.027
						c5.107-2.566,10.535-4.09,16.123-4.862c11.938-1.649,23.688-0.603,34.908,3.933c13.645,5.517,22.112,15.733,26.03,29.845
						c2.288,8.235,3.655,16.519,1.53,25.002c-0.426,1.719-1.008,3.435-1.783,5.019c-0.689,1.39-0.499,1.822,1.011,2.31
						c3.58,1.157,4.451,2.083,3.435,5.236c-2.627,8.123-3.301,16.766-6.729,24.66c-2.023,4.66-1.997,4.676-6.813,2.744
						c-0.248,5.819-0.965,11.619-4.09,16.488c-3.4,5.304-1.66,10.926-2.121,16.412c-0.086,1.055,0.896,1.354,1.572,1.793
						c4.116,2.684,7.936,5.714,11.1,9.501c1.134,1.364,2.711,1.972,4.271,2.616c10.839,4.496,21.681,8.992,32.525,13.468
						c6.813,2.813,13.104,6.485,18.96,10.979c10.943,8.401,16.096,19.287,14.566,33.137
						C336.36,205.853,336.134,207.874,336.814,209.877"/>
				</g>
			</g>
		</g>
	</g>
</g>
</svg>
