<?xml version="1.0" encoding="utf-8"?>
<!-- Generator: Adobe Illustrator 16.0.0, SVG Export Plug-In . SVG Version: 6.00 Build 0)  -->
<!DOCTYPE svg PUBLIC "-//W3C//DTD SVG 1.1//EN" "http://www.w3.org/Graphics/SVG/1.1/DTD/svg11.dtd">
<svg version="1.1" id="Layer_1" xmlns:sketch="http://www.bohemiancoding.com/sketch/ns"
	 xmlns="http://www.w3.org/2000/svg" xmlns:xlink="http://www.w3.org/1999/xlink" x="0px" y="0px" width="100px" height="100px"
	 viewBox="0 0 100 100" enable-background="new 0 0 100 100" xml:space="preserve">
<g transform="translate(50 50) scale(0.69 0.69) rotate(0) translate(-50 -50)">
	<title>user</title>
	<desc>Created with Sketch.</desc>
	<g sketch:type="MSPage">
		<g sketch:type="MSArtboardGroup">
			<g transform="translate(10.000000, 10.000000)" sketch:type="MSLayerGroup">
				<path sketch:type="MSShapeGroup" fill="none" d="M-13.043,13.913h79.999v79.999h-79.999V13.913z"/>
			</g>
			<path sketch:type="MSShapeGroup" fill="#FFFFFF" d="M-3.043,103.912h79.999v-7.999c0-20.001-15.999-24.001-39.999-24.001
				s-39.999,4-39.999,24.001V103.912L-3.043,103.912z M36.957,63.912c11.999,0,20-7.999,20-20s-8.001-20-20-20
				c-11.999,0-20,7.999-20,20S24.958,63.912,36.957,63.912L36.957,63.912z"/>
		</g>
	</g>
</g>
<rect x="68.833" y="11.167" fill="#FFFFFF" width="7" height="30.667"/>
<rect x="56.999" y="23" fill="#FFFFFF" width="30.667" height="7"/>
</svg>
