<?xml version="1.0" ?><svg height="58px" version="1.1" viewBox="0 0 58 58" width="58px" xmlns="http://www.w3.org/2000/svg" xmlns:xlink="http://www.w3.org/1999/xlink"><title/><desc/><defs/><g fill="none" fill-rule="evenodd" id="Page-1" stroke="none" stroke-width="1"><g id="Icons" transform="translate(-600.000000, -608.000000)"><g id="25--House--(house,-real,-estate,-property,-building,)" transform="translate(600.000000, 608.000000)"><path d="M43,51 C43,48.239 45.239,46 48,46 C50.761,46 53,48.239 53,51 L53,24 L4.992,24 L4.992,51.001 C4.995,51.001 4.997,51 5,51 C5,48.239 7.239,46 10,46 C12.761,46 15,48.239 15,51 C17.761,51 20,53.239 20,56 C20,56.712 19.846,57.387 19.578,58 L38.422,58 C38.154,57.387 38,56.712 38,56 C38,53.239 40.239,51 43,51" fill="#ECF1F1" id="Fill-48"/><path d="M54.7903,24 L3.2333,24 C2.1013,24 1.5693,22.6 2.4163,21.849 L25.3903,1.468 C27.4013,-0.468 30.5823,-0.468 32.5923,1.468 L55.5973,21.875 C56.4333,22.617 55.9083,24 54.7903,24" fill="#556080" id="Fill-477"/><polygon fill="#556080" id="Fill-478" points="5.992 4 17.992 4 17.992 0 5.992 0"/><path d="M35,58 L23,58 L23,40 C23,36.686 25.686,34 29,34 C32.314,34 35,36.686 35,40 L35,58 Z" fill="#25B99A" id="Fill-479"/><polygon fill="#8B9BC1" id="Fill-480" points="9 38 19 38 19 28 9 28"/><polygon fill="#8B9BC1" id="Fill-481" points="39 38 48.992 38 48.992 28 39 28"/><path d="M26.9917,47 L25.9917,47 C25.4397,47 24.9917,46.552 24.9917,46 C24.9917,45.448 25.4397,45 25.9917,45 L26.9917,45 C27.5437,45 27.9917,45.448 27.9917,46 C27.9917,46.552 27.5437,47 26.9917,47" fill="#198D71" id="Fill-482"/><polygon fill="#ECF1F1" id="Fill-483" points="15.9917 9.8058 15.9917 3.9998 7.9917 3.9998 7.9917 16.9028"/><path d="M19.5779,58 C19.8459,57.387 19.9999,56.712 19.9999,56 C19.9999,53.239 17.7619,51 14.9999,51 C14.9999,48.239 12.7619,46 9.9999,46 C7.2389,46 4.9999,48.239 4.9999,51 C2.2389,51 -0.0001,53.239 -0.0001,56 C-0.0001,56.712 0.1539,57.387 0.4219,58 L9.9999,58 L19.5779,58 Z" fill="#42C775" id="Fill-484"/><path d="M12.0005,52.0005 C11.6015,52.0005 11.2235,51.7595 11.0685,51.3655 C11.0645,51.3655 10.8415,51.0005 10.0005,51.0005 C9.2575,51.0005 8.8205,51.5705 8.8165,51.5765 C8.4985,52.0275 7.8745,52.1345 7.4235,51.8165 C6.9725,51.4985 6.8645,50.8745 7.1835,50.4235 C7.5565,49.8945 8.5695,49.0005 10.0005,49.0005 C11.8075,49.0005 12.6925,50.0275 12.9315,50.6345 C13.1325,51.1485 12.8795,51.7295 12.3655,51.9315 C12.2455,51.9785 12.1215,52.0005 12.0005,52.0005" fill="#32A158" id="Fill-485"/><path d="M57.5779,58 C57.8459,57.387 57.9999,56.712 57.9999,56 C57.9999,53.239 55.7619,51 52.9999,51 C52.9999,48.239 50.7619,46 47.9999,46 C45.2389,46 42.9999,48.239 42.9999,51 C40.2389,51 37.9999,53.239 37.9999,56 C37.9999,56.712 38.1539,57.387 38.4219,58 L47.9999,58 L57.5779,58 Z" fill="#42C775" id="Fill-486"/><path d="M50,52.0005 C49.601,52.0005 49.224,51.7595 49.069,51.3655 C49.064,51.3655 48.842,51.0005 48,51.0005 C47.258,51.0005 46.821,51.5705 46.817,51.5765 C46.498,52.0275 45.875,52.1355 45.423,51.8165 C44.972,51.4985 44.865,50.8745 45.183,50.4235 C45.556,49.8945 46.569,49.0005 48,49.0005 C49.807,49.0005 50.692,50.0275 50.931,50.6345 C51.133,51.1485 50.88,51.7295 50.365,51.9305 C50.245,51.9785 50.122,52.0005 50,52.0005" fill="#32A158" id="Fill-487"/><path d="M20,39 L8,39 C7.448,39 7,38.552 7,38 C7,37.448 7.448,37 8,37 L20,37 C20.552,37 21,37.448 21,38 C21,38.552 20.552,39 20,39" fill="#6D7EA4" id="Fill-557"/><path d="M50,39 L38,39 C37.448,39 37,38.552 37,38 C37,37.448 37.448,37 38,37 L50,37 C50.553,37 51,37.448 51,38 C51,38.552 50.553,39 50,39" fill="#6D7EA4" id="Fill-558"/><path d="M14,35 C13.448,35 13,34.552 13,34 L13,32 C13,31.448 13.448,31 14,31 C14.552,31 15,31.448 15,32 L15,34 C15,34.552 14.552,35 14,35" fill="#F0C419" id="Fill-559"/><path d="M44,34 C43.448,34 43,33.552 43,33 L43,32 C43,31.448 43.448,31 44,31 C44.552,31 45,31.448 45,32 L45,33 C45,33.552 44.552,34 44,34" fill="#F0C419" id="Fill-560"/><path d="M11,7 L8,7 C7.997,7 7.995,7.002 7.992,7.002 L7.992,8.998 C7.995,8.998 7.997,9 8,9 L11,9 C11.552,9 12,8.552 12,8 C12,7.448 11.552,7 11,7" fill="#556080" id="Fill-589"/><polygon fill="#E1705C" id="Fill-590" points="9 32 19 32 19 28 9 28"/><polygon fill="#E1705C" id="Fill-591" points="39 32 49 32 49 28 39 28"/></g></g></g></svg>