<?xml version="1.0" encoding="utf-8"?>
<!-- Generator: Adobe Illustrator 16.0.0, SVG Export Plug-In . SVG Version: 6.00 Build 0)  -->
<!DOCTYPE svg PUBLIC "-//W3C//DTD SVG 1.1//EN" "http://www.w3.org/Graphics/SVG/1.1/DTD/svg11.dtd">
<svg version="1.1" id="Layer_1" xmlns="http://www.w3.org/2000/svg" xmlns:xlink="http://www.w3.org/1999/xlink" x="0px" y="0px"
	 width="100px" height="100px" viewBox="0 0 100 100" enable-background="new 0 0 100 100" xml:space="preserve">
<g transform="translate(50 50) scale(0.69 0.69) rotate(0) translate(-50 -50)">
	<g>
		<g>
			<path fill="#4D4D4D" d="M84.415,15.571h-5.201v-2.972c0-1.64-1.332-2.971-2.971-2.971c-1.642,0-2.972,1.331-2.972,2.971v2.972
				H31.666v-2.972c0-1.64-1.332-2.971-2.971-2.971c-1.64,0-2.971,1.331-2.971,2.971v2.972h-5.201c-3.687,0-6.686,1.006-6.686,6.685
				v57.95c0,3.687,3,6.686,6.686,6.686h63.893c3.687,0,6.686-3.002,6.686-6.686v-57.95C91.101,18.57,88.102,15.571,84.415,15.571z
				 M18.875,20.134h6.918v3.125c0,1.725,1.176,3.116,2.901,3.116s2.979-1.439,2.979-3.164v-3.125l41.546,0.048v3.125
				c0,1.725,1.295,3.115,3.019,3.115c1.727,0,2.906-1.391,2.906-3.115v-3.125h6.544c0.996-0.025,1.178,0.382,1.155,1.243v9.582
				H18.094V20.915C18.093,20.485,18.444,20.134,18.875,20.134z M86.062,82.634H18.875c-0.43,0-0.781-0.351-0.781-0.781V35.759
				h68.749v46.094C86.843,82.283,86.492,82.634,86.062,82.634z"/>
			<path fill="#4D4D4D" d="M64.255,45.02c-1.216-0.761-2.821-0.391-3.585,0.828L49.081,64.391l-5.576-3.717
				c-1.194-0.798-2.812-0.474-3.608,0.723c-0.796,1.195-0.473,2.811,0.723,3.606l7.806,5.204c0.429,0.287,0.931,0.436,1.441,0.436
				c0.184,0,0.368-0.018,0.548-0.058c0.689-0.147,1.286-0.569,1.658-1.166l13.01-20.816C65.843,47.388,65.474,45.782,64.255,45.02z"
				/>
		</g>
	</g>
</g>
</svg>
