<?xml version="1.0" encoding="utf-8"?>
<!-- Generator: Adobe Illustrator 16.0.0, SVG Export Plug-In . SVG Version: 6.00 Build 0)  -->
<!DOCTYPE svg PUBLIC "-//W3C//DTD SVG 1.1//EN" "http://www.w3.org/Graphics/SVG/1.1/DTD/svg11.dtd">
<svg version="1.1" id="Layer_1" xmlns="http://www.w3.org/2000/svg" xmlns:xlink="http://www.w3.org/1999/xlink" x="0px" y="0px"
	 width="1699px" height="1062px" viewBox="0 0 1699 1062" enable-background="new 0 0 1699 1062" xml:space="preserve">
<rect y="0" fill="#FFFFFF" width="1699" height="1062"/>
<linearGradient id="SVGID_1_" gradientUnits="userSpaceOnUse" x1="457.9243" y1="817.4297" x2="457.9243" y2="601.334" gradientTransform="matrix(-2.9557 0.0302 0.0522 -0.5164 2177.9243 1307.2704)">
	<stop  offset="0" style="stop-color:#85D0EE"/>
	<stop  offset="0.1897" style="stop-color:#9BD9F1"/>
	<stop  offset="0.5319" style="stop-color:#BDE6F6"/>
	<stop  offset="0.8144" style="stop-color:#D2EEF9"/>
	<stop  offset="1" style="stop-color:#DAF1FA"/>
</linearGradient>
<path opacity="0.4" fill="url(#SVGID_1_)" d="M1519.851,907.779c0,0,12.758,0.434,36.07,0.733
	c4.524-2.489,61.528-8.086,66.079-10.513l-251.788,2.517c0,0-1031.222,3.543-1059.632,4.159
	c-28.553,0.619-199.219,0.065-200.567,17.103c-1.348,17.042,101.373,31.162,101.373,31.162c0.275-2.583,1.409-4.687,3.047-6.398
	c6.036-6.307,16.376-4.33,20.188,3.667c15.041,31.552,178.27,59.093,328.511,62.295c162.753,3.469,262.036-12.257,312.332-22.499
	c49.832-10.146,105.923-14.87,105.923-14.87c-26.695-2.694-45.542-11.291-45.542-11.291s77.413,15.306,233.688,11.949
	c151.769-3.259,259.806-14.438,282.061-24.793c26.768-12.452,21.809-15.932,69.495-23
	C1562.946,919.573,1519.851,907.779,1519.851,907.779z"/>
<g>
	<path fill="#F9EAC0" d="M684.635,111.336v360.782c0,5.332,4.323,9.655,9.655,9.655h266.267c5.332,0,9.654-4.323,9.654-9.655
		V202.293L869.599,101.681H694.29C688.958,101.681,684.635,106.004,684.635,111.336z"/>
	<path fill="#F4CF71" d="M970.211,202.293L869.599,101.681v88.417c0,6.735,5.46,12.195,12.195,12.195H970.211z"/>
</g>
<g>
	<path fill="#F9EAC0" d="M1087.771,93.681v360.781c0,5.332,4.323,9.655,9.655,9.655h266.267c5.332,0,9.655-4.323,9.655-9.655
		V184.638L1272.734,84.026h-175.309C1092.094,84.026,1087.771,88.348,1087.771,93.681z"/>
	<path fill="#F4CF71" d="M1373.348,184.638L1272.734,84.026v88.417c0,6.735,5.461,12.195,12.195,12.195H1373.348z"/>
</g>
<g>
	<path fill="#F9EAC0" d="M352.615,181.252v236.865c0,3.5,2.838,6.338,6.339,6.338h174.813c3.5,0,6.338-2.838,6.338-6.338V240.969
		l-66.055-66.056H358.954C355.453,174.914,352.615,177.751,352.615,181.252z"/>
	<path fill="#F4CF71" d="M540.106,240.969l-66.055-66.056v58.049c0,4.422,3.584,8.007,8.006,8.007H540.106z"/>
</g>
<g>
	<rect x="705.722" y="897.048" fill="#2C4482" width="301.286" height="6.025"/>
	<linearGradient id="SVGID_2_" gradientUnits="userSpaceOnUse" x1="856.3652" y1="897.0479" x2="856.3652" y2="811.1816">
		<stop  offset="0" style="stop-color:#7287B3"/>
		<stop  offset="0.169" style="stop-color:#8599C0"/>
		<stop  offset="0.5173" style="stop-color:#A6B9D7"/>
		<stop  offset="0.8069" style="stop-color:#BBCDE5"/>
		<stop  offset="1" style="stop-color:#C2D4EA"/>
	</linearGradient>
	<path fill="url(#SVGID_2_)" d="M936.795,811.182h-80.43h-80.43c0,0,2.568,77.726-28.559,85.866h108.989h108.988
		C934.227,888.907,936.795,811.182,936.795,811.182z"/>
	<path fill="#2C4482" d="M1257.161,811.699H455.569c-10.828,0-19.687-8.859-19.687-19.688V252.257
		c0-10.828,8.859-19.687,19.687-19.687h801.592c10.827,0,19.687,8.859,19.687,19.687v539.755
		C1276.848,802.84,1267.988,811.699,1257.161,811.699z"/>
	<g>
		<path fill="#486ED1" d="M440.705,733.883v56.893c0,11.508,9.416,20.924,20.924,20.924h789.474
			c11.508,0,20.923-9.416,20.923-20.924v-56.893H440.705z"/>
		<path fill="#2C4482" d="M1272.025,733.883v56.893c0,11.508-9.415,20.924-20.923,20.924H461.628
			c-11.508,0-20.923-9.416-20.923-20.924v-56.893H1272.025 M1276.848,729.061h-4.822H440.705h-4.822v4.822v56.893
			c0,14.196,11.55,25.745,25.746,25.745h789.475c14.196,0,25.745-11.549,25.745-25.745v-56.893V729.061L1276.848,729.061z"/>
	</g>
	<rect x="470.719" y="267.736" fill="#7C9FED" width="771.293" height="430.018"/>
	<g>
		<path fill="#808080" d="M861.086,251.906c-1.603,0-2.907-1.305-2.907-2.907c0-1.603,1.305-2.906,2.907-2.906
			s2.906,1.303,2.906,2.906C863.992,250.602,862.688,251.906,861.086,251.906z M861.086,246.635c-1.305,0-2.366,1.062-2.366,2.364
			c0,1.304,1.062,2.366,2.366,2.366c1.304,0,2.365-1.062,2.365-2.366C863.451,247.696,862.39,246.635,861.086,246.635z"/>
		<circle fill="#808080" cx="850.621" cy="249" r="1.883"/>
	</g>
</g>
<g>
	<polygon fill="#FFFFFF" points="888.86,924.118 911.79,936.853 888.904,949.652 	"/>
	<polygon fill="#092140" points="906.324,933.235 911.79,936.853 906.336,940.488 	"/>
	<path fill="#EF487C" d="M688.795,944.538l-0.025-15.088c-0.005-2.873-2.359-5.22-5.232-5.215l-31.324,0.054
		c-2.873,0.005-5.219,2.359-5.215,5.232l0.026,15.087c0.005,2.873,2.359,5.22,5.232,5.215l31.324-0.054
		C686.454,949.766,688.8,947.41,688.795,944.538z"/>
	<polygon fill="#52517B" points="888.875,932.63 682.2,932.749 682.185,924.237 888.86,924.118 	"/>
	<polygon fill="#45446C" points="888.89,941.141 682.214,941.261 682.2,932.749 888.875,932.63 	"/>
	<polygon fill="#2C2B57" points="888.904,949.652 682.229,949.772 682.214,941.261 888.89,941.141 	"/>
	
		<rect x="670.079" y="934.429" transform="matrix(0.0017 1 -1 0.0017 1618.6862 252.5645)" fill="#F2F2F2" width="25.534" height="5.15"/>
</g>
<g>
	<g>
		<ellipse opacity="0.5" fill="#60C0FD" cx="1157.699" cy="938.524" rx="30.826" ry="16.54"/>
		<g>
			<path fill="#52517B" d="M1123.099,942.701c0-12.004,15.338-21.406,34.919-21.406s34.919,9.402,34.919,21.406
				s-15.338,21.407-34.919,21.407S1123.099,954.705,1123.099,942.701z M1128.564,942.701c0,8.642,13.487,15.941,29.453,15.941
				c15.965,0,29.453-7.3,29.453-15.941c0-8.641-13.488-15.94-29.453-15.94C1142.052,926.761,1128.564,934.061,1128.564,942.701z"/>
			<path fill="#8DB0DA" d="M1123.099,937.925c0-12.004,15.338-21.407,34.919-21.407s34.919,9.403,34.919,21.407
				s-15.338,21.407-34.919,21.407S1123.099,949.929,1123.099,937.925z M1128.564,937.925c0,8.642,13.487,15.941,29.453,15.941
				c15.965,0,29.453-7.3,29.453-15.941c0-8.641-13.488-15.94-29.453-15.94C1142.052,921.984,1128.564,929.284,1128.564,937.925z"/>
			<g>
				<path fill="#7374A4" d="M1199.627,959.139l-12.208-6.733c0,0-1.373-1.053-4.024,1.714c-1.813,1.893,0.521,2.936,0.521,2.936
					l13.146,7.054L1199.627,959.139z"/>
				<path fill="#8DB0DA" d="M1189.455,966.143c-1.948-2.346-0.738-6.563,2.701-9.419c3.44-2.856,6.686-2.857,9.755-0.926
					l28.732,17.224l-11.309,11.445L1189.455,966.143z"/>
				
					<ellipse transform="matrix(-0.6389 -0.7693 0.7693 -0.6389 1254.774 2546.7817)" fill="#52517B" cx="1225.157" cy="978.875" rx="5.52" ry="8.096"/>
			</g>
		</g>
	</g>
	<ellipse fill="#FFFFFF" cx="1167.842" cy="932.816" rx="6.87" ry="2.698"/>
	<ellipse fill="#FFFFFF" cx="1177.084" cy="936.784" rx="3.966" ry="1.558"/>
</g>
<g opacity="0.5">
	<path fill="#C2D4EA" d="M693.539,389.757C693.659,430.761,660.901,464,620.371,464s-73.483-33.24-73.604-74.243
		c-0.121-41.003,32.638-74.243,73.167-74.243S693.418,348.754,693.539,389.757z"/>
	<g>
		<defs>
			<path id="SVGID_3_" d="M684.348,383.855c-1.515,40.845-36.388,73.957-77.892,73.957s-73.92-33.112-72.405-73.957
				c1.515-40.845,36.388-73.957,77.892-73.957S685.863,343.01,684.348,383.855z"/>
		</defs>
		<use xlink:href="#SVGID_3_"  overflow="visible" fill="#C2D4EA"/>
		<clipPath id="SVGID_4_">
			<use xlink:href="#SVGID_3_"  overflow="visible"/>
		</clipPath>
		<g clip-path="url(#SVGID_4_)">
			<path fill="#8DB0DA" d="M588.041,385.115c0.835,2.822,1.962,5.708,4.324,7.668c3.471,2.879,8.703,3.097,13.49,3.164
				c5.519,0.077,11.576-0.008,15.913-3.23c2.451-1.821,4.016-4.435,5.178-7.087c4.015-9.167,3.78-19.673-0.636-28.432
				c-0.802-1.59-1.765-3.159-3.231-4.29c-1.919-1.479-4.514-2.064-7.059-2.283c-6.472-0.555-13.224,1.054-18.679,4.452
				c-5.24,3.264-9.588,8.398-11.328,13.933C584.45,373.987,586.639,380.379,588.041,385.115z"/>
			<path fill="#8DB0DA" d="M618.226,422.555c-2.663,1.72-10.255,0.659-12.791,2.075c-2.522,1.409-10.962,1.838-13.392,1.18
				c0.451-12.214,6.597-24.57,7.122-35.811c4.626,10.334,10.085,4.661,15.44-2.414C614.096,398.569,618.493,411.506,618.226,422.555
				z"/>
			<path fill="#8DB0DA" d="M598.62,398.737c0.374,1.235,1.044,2.445,1.663,3.434c1.263,2.016,3.25,3.414,5.622,4.082
				c2.774,0.782,5.681-0.614,7.854-2.393c0.714-0.584,1.399-1.2,2.069-1.832c-0.797-4.968-1.435-9.875-1.224-14.443
				c-5.354,7.074-10.814,12.748-15.44,2.414c0.29,0.648-0.176,2.303-0.265,3.018c-0.139,1.113-0.376,2.213-0.532,3.323
				C598.26,397.112,598.376,397.93,598.62,398.737z"/>
			<path fill="#8DB0DA" d="M645.521,473.006c-0.409-4.21-0.82-8.427-1.279-12.634c-0.372-3.411-0.768-6.815-1.199-10.201
				c-0.443-3.484-0.858-7.049-1.326-10.637c-1.311-10.054-2.478-22.546-6.434-31.695c-0.121-0.278-0.21-0.563-0.27-0.848
				c-0.21-0.049-14.727-5.3-19.297-5.655c0,3.334-2.928,11.172-9.56,11.11c-4.141-0.039-8.912-6.018-8.915-11.11
				c-6.14,0.546-19.703,5.735-19.75,5.745c-3.283,0.683-6.104,19.543-6.582,21.988c-2.072,10.603-4.34,20.989-6.127,31.599
				c-0.018,0.104-0.037,0.207-0.054,0.311c-0.671,4.007-1.321,8.017-1.961,12.028H645.521z"/>
			<path fill="#8DB0DA" d="M577.493,407.081c0.058-0.012,0.118-0.023,0.175-0.035c-3.65,1.094-10.426,5.224-14.014,7.175
				c-5.899,3.208-10.928,8.354-14.902,14.534c-3.572,5.555-6.315,11.756-8.486,18.252c1.748,3.212,4.109,5.897,7.141,8.02
				c4.272,2.99,12.967,6.157,13.826,6.534c2.088-3.672,3.985-5.9,4.831-7.865c1.466-7.731,3.325-16.835,4.847-24.626
				C571.389,426.624,574.209,407.763,577.493,407.081z"/>
			<path fill="#8DB0DA" d="M662.584,427.931c-3.513-6.264-8.157-11.479-13.817-14.731c-3.778-2.17-13.962-6.258-13.753-6.209
				c0.06,0.286,5.393,22.49,6.704,32.543c0.468,3.588,0.439,3.668,0.882,7.152c0.431,3.387,4.305,11.9,7.089,15.427
				c3.93-1.08,10.227-4.534,13.103-6.332c4.391-2.744,5.18-4.476,6.81-6.538C667.917,442.66,665.741,433.562,662.584,427.931z"/>
			<path fill="#8DB0DA" d="M588.337,376.924c0.61,5.303,1.805,10.648,4.69,15.09c2.886,4.443,7.708,7.88,13.147,8.06
				c6.884,0.227,13.258-4.803,16.563-10.875c3.305-6.072,4.141-13.041,4.78-19.817c0.543-5.761,0.93-11.85-1.656-16.933
				c-0.941-1.85-2.278-3.522-4.021-4.671c-1.237-0.816-2.65-1.352-4.091-1.76c-6.153-1.743-13.126-1.132-18.836,2.061
				C587.714,354.343,587.073,365.937,588.337,376.924z"/>
			<path fill="#8DB0DA" d="M633.122,353.27c1.787-1.806,3.034-4.101,3.171-6.554c0.046-0.816-0.487-1.925-1.249-1.573
				c-0.16,0.514-0.32,1.028-0.48,1.543c-1.125,0.318-2.139-0.602-2.892-1.442c-0.891-0.994-1.783-1.992-2.627-3.025
				c-0.542-0.831-1.131-1.627-1.776-2.378c-0.114-0.168-0.228-0.336-0.337-0.508c-0.991-1.559-1.802-3.25-3.041-4.624
				c-3.506-3.89-9.501-4.372-14.885-4.161c-3.329,0.13-6.72,0.439-9.839,1.695c-3.119,1.256-5.966,3.593-7.116,6.705
				c-0.138,0.375-0.239,0.751-0.319,1.129c-7.418,4.53-11.834,13.856-9.96,22.109c0.634,2.791,1.885,5.618,1.204,8.426
				c0.171,1.631,0.284,3.271,0.358,4.915c1.154,1.321,3.056,1.992,4.357,0.816c0.941-0.85,1.071-2.227,1.136-3.461
				c0.191-3.644,0.382-7.288,0.573-10.932c0.036-0.677,0.08-1.384,0.429-1.98c0.354-0.605,0.972-1.009,1.546-1.422
				c2.348-1.688,4.305-3.904,5.7-6.407c2.375,2.226,5.131,3.961,7.447,4.834c4.936,1.858,10.444,2.006,15.78,1.396
				c1.475-0.169,2.959-0.401,4.412-0.748c0.121,5.059,0.241,10.117,0.361,15.175c0.045,1.868,0.402,4.169,2.206,4.699
				c1.227,0.361,2.608-0.377,3.38-1.426c0.771-1.049,1.066-2.345,1.323-3.601c1.269-6.2,2.072-12.563,1.209-18.755
				C633.171,353.566,633.145,353.418,633.122,353.27z"/>
			<path fill="#8DB0DA" d="M589.646,379.207c-0.118-2.821-0.682-5.807-0.63-8.638c-0.47-0.278-0.679-0.292-1.226-0.35
				c-0.471-0.05-0.97-0.016-1.395,0.236c-0.733,0.433-1.065,1.38-1.288,2.252c-0.719,2.823-0.946,5.841-0.205,8.592
				c0.742,2.751,2.55,5.196,5.029,6.12c0.334,0.125,0.522,0.176,0.868,0.087C590.099,384.762,589.769,382.124,589.646,379.207z"/>
			<path fill="#8DB0DA" d="M630.653,372.707c-0.157-0.872-0.419-1.819-1.12-2.252c-0.406-0.251-0.903-0.286-1.377-0.236
				c-1.087,0.115-2.095,0.713-2.875,1.57c-0.115,0.038-0.221,0.096-0.322,0.163c0.008,1.655-0.071,3.314-0.132,5
				c-0.119,3.28-0.086,5.222-0.681,8.482c-0.059,0.325-0.517,2.051-0.649,2.335c0.314,0.052,0.929-0.238,1.242-0.352
				c2.547-0.924,4.536-3.369,5.482-6.12S631.163,375.53,630.653,372.707z"/>
		</g>
	</g>
</g>
<g>
	<path fill="#B3B3B3" d="M1241.965,166.121c0-15.753-12.771-28.524-28.523-28.524h-2.015c-15.754,0-28.524,12.771-28.524,28.524
		v66.429h59.063V166.121z"/>
	<path fill="#F2F2F2" d="M1211.427,137.597H761.938c-15.753,0-28.524,12.771-28.524,28.524c0,0,4.265,608.634,4.265,611.769h418.522
		c24.917,0,30.769-21.252,30.769-27.786l-4.067-583.982C1182.902,150.368,1195.673,137.597,1211.427,137.597z"/>
	<g>
		<path fill="#C2D4EA" d="M919.62,263.955c0.106,36.06-28.703,65.292-64.346,65.292c-35.644,0-64.624-29.232-64.73-65.292
			c-0.106-36.06,28.703-65.292,64.346-65.292C890.534,198.663,919.515,227.895,919.62,263.955z"/>
		<g>
			<defs>
				<path id="SVGID_5_" d="M911.538,258.765c-1.332,35.92-32.001,65.04-68.501,65.04c-36.5,0-65.008-29.12-63.676-65.04
					c1.333-35.921,32.001-65.041,68.501-65.041C884.362,193.724,912.87,222.844,911.538,258.765z"/>
			</defs>
			<use xlink:href="#SVGID_5_"  overflow="visible" fill="#DDE6F5"/>
			<clipPath id="SVGID_6_">
				<use xlink:href="#SVGID_5_"  overflow="visible"/>
			</clipPath>
			<g clip-path="url(#SVGID_6_)">
				<path fill="#FFC2B0" d="M853.388,292.798c-2.342,1.513-9.019,0.579-11.249,1.825c-2.218,1.239-9.64,1.617-11.777,1.038
					c0.396-10.741,5.801-21.608,6.263-31.494c4.068,9.089,8.869,4.099,13.579-2.123
					C849.756,271.704,853.623,283.082,853.388,292.798z"/>
				<path fill="#F4B7A8" d="M836.146,271.852c0.328,1.085,0.917,2.15,1.462,3.02c1.11,1.773,2.858,3.002,4.944,3.59
					c2.44,0.688,4.996-0.54,6.907-2.104c0.628-0.514,1.231-1.055,1.82-1.61c-0.701-4.369-1.263-8.684-1.076-12.702
					c-4.709,6.221-9.511,11.211-13.579,2.123c0.255,0.57-0.155,2.025-0.233,2.654c-0.123,0.979-0.332,1.946-0.468,2.922
					C835.829,270.423,835.931,271.142,836.146,271.852z"/>
				<path fill="#8DB0DA" d="M877.393,337.167c-0.36-3.703-0.721-7.411-1.125-11.111c-0.327-3-0.675-5.993-1.054-8.971
					c-0.391-3.064-0.755-6.199-1.166-9.354c-1.153-8.842-2.18-19.828-5.658-27.874c-0.106-0.245-0.186-0.495-0.237-0.746
					c-0.185-0.043-12.951-4.661-16.971-4.974c0.001,2.933-2.575,9.826-8.407,9.771c-3.642-0.034-7.837-5.292-7.84-9.771
					c-5.399,0.481-17.327,5.044-17.369,5.053c-2.887,0.6-5.368,17.187-5.788,19.337c-1.822,9.324-3.816,18.458-5.389,27.789
					c-0.015,0.091-0.032,0.182-0.047,0.273c-0.59,3.524-1.162,7.05-1.724,10.578H877.393z"/>
				<path fill="#8DB0DA" d="M817.565,279.19c0.051-0.011,0.104-0.021,0.154-0.031c-3.21,0.962-9.169,4.594-12.325,6.31
					c-5.188,2.821-9.611,7.346-13.106,12.781c-3.142,4.886-5.554,10.339-7.462,16.052c1.537,2.825,3.613,5.186,6.28,7.052
					c3.757,2.63,11.404,5.416,12.159,5.747c1.836-3.229,3.504-5.188,4.248-6.917c1.29-6.799,2.925-14.806,4.263-21.657
					C812.197,296.377,814.678,279.79,817.565,279.19z"/>
				<path fill="#8DB0DA" d="M892.397,297.526c-3.089-5.509-7.174-10.096-12.151-12.955c-3.322-1.909-12.278-5.504-12.094-5.46
					c0.052,0.251,4.742,19.778,5.896,28.62c0.411,3.155,0.386,3.226,0.775,6.29c0.379,2.979,3.787,10.466,6.235,13.567
					c3.456-0.949,8.993-3.988,11.522-5.568c3.861-2.413,4.556-3.936,5.988-5.75C897.087,310.479,895.174,302.478,892.397,297.526z"
					/>
				<path fill="#FFC2B0" d="M827.103,252.669c0.536,4.664,1.586,9.364,4.125,13.271c2.538,3.907,6.779,6.93,11.562,7.087
					c6.054,0.199,11.659-4.224,14.566-9.563c2.907-5.34,3.642-11.469,4.204-17.428c0.478-5.067,0.817-10.421-1.456-14.892
					c-0.828-1.627-2.003-3.098-3.536-4.108c-1.088-0.717-2.331-1.189-3.599-1.548c-5.411-1.533-11.544-0.996-16.565,1.813
					C826.554,232.81,825.991,243.006,827.103,252.669z"/>
				<path fill="#915151" d="M866.487,231.867c1.572-1.588,2.669-3.606,2.79-5.764c0.04-0.718-0.43-1.693-1.099-1.384
					c-0.141,0.452-0.282,0.905-0.423,1.357c-0.989,0.28-1.881-0.529-2.543-1.268c-0.784-0.874-1.568-1.752-2.311-2.661
					c-0.476-0.73-0.994-1.431-1.563-2.091c-0.1-0.148-0.2-0.296-0.296-0.447c-0.872-1.372-1.586-2.858-2.675-4.066
					c-3.083-3.421-8.355-3.845-13.09-3.659c-2.928,0.114-5.91,0.386-8.653,1.49c-2.743,1.104-5.247,3.16-6.258,5.896
					c-0.122,0.329-0.21,0.661-0.281,0.993c-6.524,3.984-10.408,12.185-8.759,19.443c0.558,2.454,1.658,4.94,1.059,7.41
					c0.15,1.435,0.25,2.877,0.315,4.322c1.015,1.162,2.688,1.751,3.832,0.718c0.828-0.748,0.942-1.958,0.999-3.043
					c0.168-3.205,0.336-6.409,0.504-9.614c0.031-0.595,0.07-1.217,0.377-1.741c0.312-0.532,0.854-0.888,1.359-1.25
					c2.065-1.485,3.786-3.434,5.013-5.634c2.089,1.958,4.512,3.484,6.549,4.251c4.341,1.634,9.185,1.764,13.878,1.227
					c1.296-0.148,2.602-0.353,3.88-0.658c0.105,4.449,0.212,8.897,0.317,13.345c0.039,1.644,0.354,3.667,1.94,4.132
					c1.079,0.317,2.294-0.332,2.972-1.254c0.679-0.923,0.938-2.063,1.164-3.167c1.115-5.453,1.822-11.049,1.063-16.494
					C866.531,232.127,866.508,231.997,866.487,231.867z"/>
				<path fill="#F4B7A8" d="M828.254,254.676c-0.104-2.481-0.6-5.107-0.554-7.597c-0.413-0.244-0.598-0.256-1.078-0.307
					c-0.414-0.044-0.853-0.014-1.227,0.208c-0.645,0.381-0.937,1.213-1.132,1.98c-0.632,2.482-0.833,5.137-0.18,7.556
					c0.653,2.419,2.243,4.569,4.422,5.381c0.294,0.109,0.459,0.155,0.763,0.077C828.651,259.562,828.362,257.242,828.254,254.676z"
					/>
				<path fill="#F4B7A8" d="M864.317,248.96c-0.139-0.767-0.369-1.6-0.985-1.98c-0.357-0.221-0.794-0.251-1.212-0.208
					c-0.956,0.101-1.843,0.627-2.528,1.381c-0.102,0.033-0.194,0.084-0.284,0.144c0.007,1.455-0.062,2.915-0.115,4.397
					c-0.104,2.884-0.076,4.592-0.599,7.459c-0.052,0.286-0.454,1.804-0.571,2.053c0.276,0.045,0.816-0.209,1.093-0.309
					c2.239-0.813,3.989-2.962,4.821-5.381C864.769,254.097,864.765,251.443,864.317,248.96z"/>
			</g>
		</g>
		<path fill="#C2D4EA" d="M1125.292,242.369H964.189c-5.338,0-9.718-4.418-9.733-9.818l0,0c-0.016-5.4,4.339-9.818,9.676-9.818
			h161.103c5.338,0,9.718,4.418,9.734,9.818l0,0C1134.984,237.95,1130.63,242.369,1125.292,242.369z"/>
		<path fill="#C2D4EA" d="M1132.737,261.729H983.385c-1.228,0-2.231-1.004-2.231-2.231v-1.219c0-1.227,1.004-2.231,2.231-2.231
			h149.353c1.227,0,2.231,1.004,2.231,2.231v1.219C1134.969,260.726,1133.964,261.729,1132.737,261.729z"/>
		<path fill="#C2D4EA" d="M1132.737,278.263h-176.05c-1.228,0-2.231-1.004-2.231-2.231v-1.219c0-1.227,1.004-2.231,2.231-2.231
			h176.05c1.227,0,2.231,1.004,2.231,2.231v1.218C1134.969,277.259,1133.964,278.263,1132.737,278.263z"/>
		<path fill="#C2D4EA" d="M1114.938,294.797H956.688c-1.228,0-2.231-1.004-2.231-2.231v-1.219c0-1.227,1.004-2.231,2.231-2.231
			h158.252c1.227,0,2.23,1.004,2.23,2.231v1.219C1117.17,293.793,1116.166,294.797,1114.938,294.797z"/>
	</g>
	<g>
		<path fill="#C2D4EA" d="M919.62,454.435c0.106,36.06-28.703,65.292-64.346,65.292c-35.644,0-64.624-29.232-64.73-65.292
			c-0.106-36.06,28.703-65.292,64.346-65.292C890.534,389.143,919.515,418.375,919.62,454.435z"/>
		<g>
			<defs>
				<path id="SVGID_7_" d="M911.538,449.245c-1.332,35.92-32.001,65.04-68.501,65.04c-36.5,0-65.008-29.12-63.676-65.04
					c1.333-35.921,32.001-65.041,68.501-65.041C884.362,384.204,912.87,413.324,911.538,449.245z"/>
			</defs>
			<use xlink:href="#SVGID_7_"  overflow="visible" fill="#DDE6F5"/>
			<clipPath id="SVGID_8_">
				<use xlink:href="#SVGID_7_"  overflow="visible"/>
			</clipPath>
			<g clip-path="url(#SVGID_8_)">
				<path fill="#FFC2B0" d="M853.388,483.278c-2.342,1.513-9.019,0.58-11.249,1.825c-2.218,1.239-9.64,1.617-11.777,1.038
					c0.396-10.741,5.801-21.608,6.263-31.494c4.068,9.089,8.869,4.099,13.579-2.123
					C849.756,462.185,853.623,473.562,853.388,483.278z"/>
				<path fill="#F4B7A8" d="M836.146,462.332c0.328,1.085,0.917,2.15,1.462,3.02c1.11,1.773,2.858,3.002,4.944,3.59
					c2.44,0.688,4.996-0.54,6.907-2.104c0.628-0.514,1.231-1.055,1.82-1.611c-0.701-4.369-1.263-8.684-1.076-12.702
					c-4.709,6.222-9.511,11.211-13.579,2.123c0.255,0.57-0.155,2.025-0.233,2.654c-0.123,0.979-0.332,1.946-0.468,2.922
					C835.829,460.903,835.931,461.622,836.146,462.332z"/>
				<path fill="#C2D4EA" d="M877.393,527.647c-0.36-3.703-0.721-7.411-1.125-11.111c-0.327-3-0.675-5.993-1.054-8.971
					c-0.391-3.064-0.755-6.199-1.166-9.354c-1.153-8.841-2.18-19.828-5.658-27.874c-0.106-0.244-0.186-0.495-0.237-0.746
					c-0.185-0.043-12.951-4.661-16.971-4.974c0.001,2.933-2.575,9.826-8.407,9.771c-3.642-0.034-7.837-5.292-7.84-9.771
					c-5.399,0.481-17.327,5.044-17.369,5.053c-2.887,0.6-5.368,17.187-5.788,19.337c-1.822,9.324-3.816,18.458-5.389,27.789
					c-0.015,0.091-0.032,0.182-0.047,0.273c-0.59,3.524-1.162,7.051-1.724,10.578H877.393z"/>
				<path fill="#8DB0DA" d="M817.565,469.67c0.051-0.011,0.104-0.02,0.154-0.031c-3.21,0.962-9.169,4.594-12.325,6.31
					c-5.188,2.821-9.611,7.346-13.106,12.781c-3.142,4.885-5.554,10.338-7.462,16.052c1.537,2.825,3.613,5.187,6.28,7.053
					c3.757,2.629,11.404,5.415,12.159,5.747c1.836-3.229,3.504-5.189,4.248-6.917c1.29-6.799,2.925-14.806,4.263-21.657
					C812.197,486.857,814.678,470.27,817.565,469.67z"/>
				<path fill="#8DB0DA" d="M892.397,488.006c-3.089-5.509-7.174-10.096-12.151-12.955c-3.322-1.909-12.278-5.503-12.094-5.46
					c0.052,0.251,4.742,19.779,5.896,28.62c0.411,3.155,0.386,3.226,0.775,6.29c0.379,2.979,3.787,10.466,6.235,13.567
					c3.456-0.949,8.993-3.988,11.522-5.568c3.861-2.413,4.556-3.936,5.988-5.75C897.087,500.96,895.174,492.958,892.397,488.006z"/>
				<path fill="#FFC2B0" d="M827.103,443.149c0.536,4.664,1.586,9.364,4.125,13.271c2.538,3.907,6.779,6.93,11.562,7.087
					c6.054,0.199,11.659-4.224,14.566-9.563c2.907-5.34,3.642-11.469,4.204-17.428c0.478-5.066,0.817-10.421-1.456-14.892
					c-0.828-1.627-2.003-3.098-3.536-4.108c-1.088-0.717-2.331-1.189-3.599-1.548c-5.411-1.533-16.731-3.118-21.753-0.31
					C821.366,421.168,825.991,433.486,827.103,443.149z"/>
				<path fill="#915151" d="M825.108,415.234c-0.806,4.194-1.023,8.485-0.978,12.829c0.021,1.987-0.035,4.407-0.024,6.938
					c0.28,1.822,0.575,3.643,0.89,5.461c0.788-0.148,1.623-0.23,2.49-0.259c0.018-0.204,0.036-0.41,0.046-0.609
					c0.168-3.205,0.336-6.409,0.504-9.614c0.031-0.595,0.07-1.217,0.377-1.741c0.041-0.069,0.11-0.116,0.158-0.18
					c-0.207-3.693-0.6-7.828,2.93-10.182c2.785-1.857,6.807-1.463,9.947-1.139c1.239,0.127,2.517,0.176,3.803,0.214
					c4.415-1.32,9.786-1.151,12.81,2.667c3.369,4.255,2.503,10.778,1.433,15.7c-0.043,0.194-0.114,0.354-0.172,0.53
					c0.029,1.224,0.058,2.447,0.087,3.671c0.009,0.366,0.035,0.75,0.082,1.132c1.101,0.011,2.201,0.017,3.302,0.026
					c0.55-5.132,0.993-10.274,0.942-15.437c-0.021-2.195-0.103-4.4-0.288-6.587c-0.059-0.697-0.377-2.003-0.586-3.157
					c-7.314-9.155-22.063-10.424-32.712-4.974c-0.018,0.074-0.046,0.146-0.063,0.22
					C828.169,411.917,826.493,413.463,825.108,415.234z"/>
				<path fill="#F4B7A8" d="M828.254,445.156c-0.104-2.481-0.6-5.107-0.554-7.596c-0.413-0.244-0.598-0.256-1.078-0.308
					c-0.414-0.044-0.853-0.014-1.227,0.208c-0.645,0.381-0.937,1.213-1.132,1.98c-0.632,2.483-0.833,5.137-0.18,7.556
					c0.653,2.419,2.243,4.569,4.422,5.381c0.294,0.109,0.459,0.155,0.763,0.077C828.651,450.042,828.362,447.722,828.254,445.156z"
					/>
				<path fill="#F4B7A8" d="M864.317,439.44c-0.139-0.767-0.369-1.6-0.985-1.98c-0.357-0.221-0.794-0.251-1.212-0.208
					c-0.956,0.101-1.843,0.627-2.528,1.381c-0.102,0.033-0.194,0.084-0.284,0.143c0.007,1.455-0.062,2.915-0.115,4.397
					c-0.104,2.884-0.076,4.593-0.599,7.459c-0.052,0.286-0.454,1.804-0.571,2.053c0.276,0.046,0.816-0.209,1.093-0.309
					c2.239-0.812,3.989-2.962,4.821-5.381C864.769,444.577,864.765,441.923,864.317,439.44z"/>
			</g>
		</g>
		<path fill="#C2D4EA" d="M1125.292,432.849H964.189c-5.338,0-9.718-4.418-9.733-9.818l0,0c-0.016-5.4,4.339-9.818,9.676-9.818
			h161.103c5.338,0,9.718,4.418,9.734,9.818l0,0C1134.984,428.43,1130.63,432.849,1125.292,432.849z"/>
		<path fill="#C2D4EA" d="M1132.737,452.209H983.385c-1.228,0-2.231-1.004-2.231-2.231v-1.219c0-1.228,1.004-2.231,2.231-2.231
			h149.353c1.227,0,2.231,1.004,2.231,2.231v1.219C1134.969,451.206,1133.964,452.209,1132.737,452.209z"/>
		<path fill="#C2D4EA" d="M1132.737,468.743h-176.05c-1.228,0-2.231-1.004-2.231-2.231v-1.219c0-1.228,1.004-2.231,2.231-2.231
			h176.05c1.227,0,2.231,1.004,2.231,2.231v1.219C1134.969,467.739,1133.964,468.743,1132.737,468.743z"/>
		<path fill="#C2D4EA" d="M1114.938,485.277H956.688c-1.228,0-2.231-1.004-2.231-2.231v-1.219c0-1.227,1.004-2.231,2.231-2.231
			h158.252c1.227,0,2.23,1.004,2.23,2.231v1.219C1117.17,484.273,1116.166,485.277,1114.938,485.277z"/>
	</g>
	<g>
		<path fill="#C2D4EA" d="M919.62,631.551c0.106,36.061-28.703,65.293-64.346,65.293c-35.644,0-64.624-29.232-64.73-65.293
			c-0.106-36.06,28.703-65.292,64.346-65.292C890.534,566.259,919.515,595.491,919.62,631.551z"/>
		<g>
			<defs>
				<path id="SVGID_9_" d="M911.538,626.36c-1.332,35.921-32.001,65.04-68.501,65.04c-36.5,0-65.008-29.119-63.676-65.04
					s32.001-65.04,68.501-65.04C884.362,561.32,912.87,590.439,911.538,626.36z"/>
			</defs>
			<use xlink:href="#SVGID_9_"  overflow="visible" fill="#DDE6F5"/>
			<clipPath id="SVGID_10_">
				<use xlink:href="#SVGID_9_"  overflow="visible"/>
			</clipPath>
			<g clip-path="url(#SVGID_10_)">
				<path fill="#FFC2B0" d="M853.388,660.395c-2.342,1.513-9.019,0.579-11.249,1.825c-2.218,1.239-9.64,1.616-11.777,1.037
					c0.396-10.741,5.801-21.608,6.263-31.493c4.068,9.088,8.869,4.099,13.579-2.123
					C849.756,639.301,853.623,650.678,853.388,660.395z"/>
				<path fill="#F4B7A8" d="M836.146,639.448c0.328,1.086,0.917,2.15,1.462,3.02c1.11,1.772,2.858,3.002,4.944,3.59
					c2.44,0.688,4.996-0.54,6.907-2.104c0.628-0.514,1.231-1.055,1.82-1.61c-0.701-4.369-1.263-8.685-1.076-12.702
					c-4.709,6.222-9.511,11.211-13.579,2.123c0.255,0.569-0.155,2.024-0.233,2.653c-0.123,0.979-0.332,1.946-0.468,2.923
					C835.829,638.019,835.931,638.738,836.146,639.448z"/>
				<path fill="#8DB0DA" d="M877.393,704.764c-0.36-3.703-0.721-7.411-1.125-11.111c-0.327-3-0.675-5.993-1.054-8.971
					c-0.391-3.064-0.755-6.199-1.166-9.354c-1.153-8.842-2.18-19.827-5.658-27.874c-0.106-0.244-0.186-0.495-0.237-0.746
					c-0.185-0.043-12.951-4.661-16.971-4.974c0.001,2.933-2.575,9.826-8.407,9.771c-3.642-0.034-7.837-5.293-7.84-9.771
					c-5.399,0.481-17.327,5.044-17.369,5.053c-2.887,0.601-5.368,17.188-5.788,19.337c-1.822,9.324-3.816,18.459-5.389,27.789
					c-0.015,0.091-0.032,0.182-0.047,0.273c-0.59,3.524-1.162,7.051-1.724,10.578H877.393z"/>
				<path fill="#C2D4EA" d="M817.565,646.786c0.051-0.011,0.104-0.021,0.154-0.031c-3.21,0.963-9.169,4.595-12.325,6.311
					c-5.188,2.821-9.611,7.346-13.106,12.781c-3.142,4.885-5.554,10.339-7.462,16.052c1.537,2.825,3.613,5.187,6.28,7.053
					c3.757,2.629,11.404,5.415,12.159,5.746c1.836-3.229,3.504-5.188,4.248-6.917c1.29-6.799,2.925-14.806,4.263-21.657
					C812.197,663.974,814.678,647.386,817.565,646.786z"/>
				<path fill="#C2D4EA" d="M892.397,665.122c-3.089-5.509-7.174-10.095-12.151-12.954c-3.322-1.909-12.278-5.504-12.094-5.461
					c0.052,0.251,4.742,19.778,5.896,28.62c0.411,3.155,0.386,3.226,0.775,6.29c0.379,2.979,3.787,10.466,6.235,13.567
					c3.456-0.949,8.993-3.988,11.522-5.568c3.861-2.413,4.556-3.936,5.988-5.749C897.087,678.076,895.174,670.074,892.397,665.122z"
					/>
				<path fill="#FFC2B0" d="M827.103,620.266c0.536,4.663,1.586,9.364,4.125,13.271c2.538,3.907,6.779,6.931,11.562,7.088
					c6.054,0.199,11.659-4.224,14.566-9.563s3.642-11.469,4.204-17.428c0.478-5.066,0.817-10.421-1.456-14.892
					c-0.828-1.627-2.003-3.098-3.536-4.108c-1.088-0.717-2.331-1.189-3.599-1.548c-5.411-1.532-11.544-0.995-16.565,1.813
					C826.554,600.406,825.991,610.603,827.103,620.266z"/>
				<path fill="#915151" d="M865.35,600.006c-0.318-1.636-0.796-3.255-1.345-4.853c-2.263-4.779-4.829-9.289-9.938-12.271
					c-4.154-2.425-11-2.554-16.941-0.935c-1.292,0.49-2.6,0.936-3.87,1.501c-0.396,0.177-0.766,0.401-1.136,0.623
					c-0.75,0.827-1.367,1.755-1.751,2.796c-0.122,0.33-0.21,0.661-0.281,0.993c-5.459,3.334-9.055,9.62-9.123,15.836
					c1.024,2.983,1.585,6.213,2.33,9.157c0.629,2.484,1.237,4.948,1.736,7.427c0.534,0.026,1.058-0.125,1.502-0.526
					c0.828-0.747,0.942-1.958,0.999-3.043c0.168-3.205,0.336-6.409,0.504-9.614c0.031-0.596,0.07-1.218,0.377-1.741
					c0.05-0.087,0.136-0.146,0.197-0.224c0.252-0.857,0.584-1.652,1.024-2.355c1.171-2.231,2.834-3.947,4.899-5.179
					c0.225-0.511,0.538-1.013,1.001-1.485c4.714-4.805,12.275-2.831,17.555-0.08c2.829,1.475,5.286,3.643,6.461,6.664
					c1.207,3.104,0.547,6.024-0.259,9.024c0.039,1.639,0.078,3.277,0.117,4.916c0.039,1.643,0.354,3.666,1.94,4.132
					c0.822,0.242,1.72-0.081,2.402-0.655c-0.08-3.185-0.158-6.37,0.034-9.546C864.004,606.998,864.68,603.505,865.35,600.006z"/>
				<path fill="#F4B7A8" d="M828.254,622.272c-0.104-2.48-0.6-5.106-0.554-7.597c-0.413-0.244-0.598-0.256-1.078-0.307
					c-0.414-0.045-0.853-0.014-1.227,0.207c-0.645,0.381-0.937,1.214-1.132,1.98c-0.632,2.482-0.833,5.137-0.18,7.556
					c0.653,2.42,2.243,4.569,4.422,5.382c0.294,0.109,0.459,0.154,0.763,0.077C828.651,627.158,828.362,624.838,828.254,622.272z"/>
				<path fill="#F4B7A8" d="M864.317,616.557c-0.139-0.767-0.369-1.6-0.985-1.98c-0.357-0.221-0.794-0.252-1.212-0.207
					c-0.956,0.101-1.843,0.627-2.528,1.381c-0.102,0.032-0.194,0.084-0.284,0.143c0.007,1.456-0.062,2.915-0.115,4.398
					c-0.104,2.884-0.076,4.592-0.599,7.459c-0.052,0.285-0.454,1.804-0.571,2.054c0.276,0.045,0.816-0.21,1.093-0.31
					c2.239-0.813,3.989-2.962,4.821-5.382C864.769,621.693,864.765,619.039,864.317,616.557z"/>
			</g>
		</g>
		<path opacity="0.2" fill="#C2D4EA" d="M1125.292,609.965H964.189c-5.338,0-9.718-4.418-9.733-9.818l0,0
			c-0.016-5.4,4.339-9.818,9.676-9.818h161.103c5.338,0,9.718,4.418,9.734,9.818l0,0
			C1134.984,605.547,1130.63,609.965,1125.292,609.965z"/>
		<path opacity="0.2" fill="#C2D4EA" d="M1132.737,629.326H983.385c-1.228,0-2.231-1.005-2.231-2.231v-1.219
			c0-1.228,1.004-2.231,2.231-2.231h149.353c1.227,0,2.231,1.004,2.231,2.231v1.219
			C1134.969,628.321,1133.964,629.326,1132.737,629.326z"/>
		<path opacity="0.2" fill="#C2D4EA" d="M1132.737,645.859h-176.05c-1.228,0-2.231-1.004-2.231-2.231v-1.219
			c0-1.227,1.004-2.231,2.231-2.231h176.05c1.227,0,2.231,1.005,2.231,2.231v1.219
			C1134.969,644.855,1133.964,645.859,1132.737,645.859z"/>
		<path opacity="0.2" fill="#C2D4EA" d="M1114.938,662.394H956.688c-1.228,0-2.231-1.005-2.231-2.231v-1.219
			c0-1.228,1.004-2.231,2.231-2.231h158.252c1.227,0,2.23,1.004,2.23,2.231v1.219
			C1117.17,661.389,1116.166,662.394,1114.938,662.394z"/>
	</g>
	<path fill="#CCCCCC" d="M1132.407,756.908H697.521c3.312,12.087,14.346,20.981,27.484,20.981h434.886
		C1146.753,777.89,1135.719,768.995,1132.407,756.908z"/>
</g>
<g>
	<g>
		<g>
			<g>
				<polygon fill="#8DB0DA" points="593.929,940.043 646.18,606.707 641.004,605.894 588.625,940.043 				"/>
			</g>
			<g>
				<polygon fill="#8DB0DA" points="529.592,940.043 582.458,606.709 577.288,605.892 524.291,940.043 				"/>
			</g>
			<g>
				<rect x="570.979" y="659.755" fill="#8DB0DA" width="63.824" height="5.237"/>
			</g>
			<g>
				<rect x="561.376" y="715.629" fill="#8DB0DA" width="63.824" height="5.236"/>
			</g>
			<g>
				<rect x="553.687" y="779.349" fill="#8DB0DA" width="63.822" height="5.236"/>
			</g>
			<g>
				<rect x="539.067" y="847.433" fill="#8DB0DA" width="63.824" height="5.237"/>
			</g>
			<g>
				<rect x="529.467" y="911.154" fill="#8DB0DA" width="63.822" height="5.237"/>
			</g>
		</g>
	</g>
	<path fill="#FFAA81" d="M620.972,453.995c-0.373,0.102-0.737,0.276-0.994,0.565c-0.728,0.82-0.321,2.088,0.033,3.126
		c0.451,1.322,0.753,2.694,0.899,4.083c0.241,2.294,2.018,6.936,4.909,7.26c2.05,0.23,2.308-2.178,2.569-3.753
		c0.377-2.271,1.373-6.032,0.062-8.054C627.211,455.312,623.207,453.385,620.972,453.995z"/>
	<g>
		<path fill="#2C4482" d="M624.315,454.596l0.008-23.561h-3.06l-0.007,23.545c-0.389,0.208-0.656,0.616-0.658,1.085l0.022,15.683
			c-0.003,0.68,0.55,1.24,1.231,1.244l1.89,0.01c0.681,0.003,1.24-0.551,1.244-1.231l-0.022-15.682
			C624.964,455.219,624.702,454.807,624.315,454.596z"/>
		<path fill="#2C4482" d="M651.182,401.425c-1.079-14.264-12.421-25.535-26.503-26.319c-14.26-0.794-26.916,9.017-29.499,22.912
			c-1.291,6.938-0.243,13.542,3.379,19.6c4.635,7.752,11.54,12.309,20.506,13.795c0.264,0.044,0.526,0.083,0.785,0.116l-0.002,1.234
			h5.917l0.002-1.191c0.513-0.058,0.808-0.109,0.808-0.109C643.521,428.708,652.163,414.408,651.182,401.425z M622.851,427.481
			c-13.342-0.069-24.102-10.941-24.033-24.283c0.069-13.342,10.941-24.103,24.283-24.033c13.342,0.069,24.102,10.941,24.033,24.283
			C647.064,416.79,636.193,427.55,622.851,427.481z"/>
	</g>
	<path fill="#FFAA81" d="M622.105,457.647c-0.335-0.715-0.87-1.525-1.659-1.486c-0.662,0.033-1.144,0.708-1.2,1.368
		s0.201,1.302,0.449,1.916c0.54,1.333,1.068,2.699,1.164,4.133c0.031,0.469,0.016,0.949,0.153,1.399
		c0.182,0.599,0.613,1.086,1.055,1.529c0.642,0.643,1.333,1.236,2.067,1.773c0.657,0.481,1.56,0.923,2.239,0.473
		c0.604-0.4,0.642-1.255,0.616-1.979c-0.035-0.982-0.073-1.985-0.416-2.906c-0.581-1.566-1.765-1.362-2.717-2.333
		C622.949,460.61,622.652,458.815,622.105,457.647z"/>
	<g>
		<g>
			<path fill="#FFAA81" d="M637.242,489.363c-1.458-5.414-6.527-18.543-8.863-24.755c-1.64,0.206-3.28,0.412-4.92,0.616
				c1.207,4.418,2.854,14.828,4.148,24.536c1.584,11.879,0,14.65-4.355,18.214c-4.355,3.563-29.301,17.422-29.301,17.422
				s-11.878,7.392-11.351,15.838c0.528,8.447,9.239,15.707,9.239,15.707s32.601-30.225,43.027-41.972
				C645.292,503.222,639.089,496.227,637.242,489.363z"/>
			<path fill="#FFD22E" d="M624.241,525.197c-0.049-0.045-0.163-0.172-0.398-0.453c-0.542-0.648-1.093-1.287-1.662-1.912
				c-1.254-1.379-2.583-2.66-3.969-3.904c-0.143-0.121-0.287-0.241-0.43-0.361c-0.052-0.029-0.204-0.133-0.463-0.318
				c-0.653-0.417-1.317-0.814-1.973-1.226c-0.25-0.157-1.353-0.646-1.478-0.734c-0.463-0.148-0.929-0.287-1.396-0.419
				c-0.398-0.113-0.773-0.246-1.142-0.385c-8.196,4.809-17.379,9.911-17.379,9.911s-11.878,7.392-11.351,15.838
				c0.528,8.447,9.239,15.707,9.239,15.707s19.099-17.708,32.736-31.285C624.448,525.482,624.335,525.327,624.241,525.197z"/>
			<g>
				<path fill="#BC9371" d="M559.622,813.021c-0.697,5.628-1.349,13.445-1.234,19.438c0,0,0.47,0.186,1.234,0.498
					c-0.462,3.902-0.62,7.823-0.831,11.743c-3.966-0.578-7.111-1.57-7.111-1.57c-1.803-4.253-2.595-17.884-2.775-29.037
					C552.34,814.962,556.205,813.269,559.622,813.021z"/>
				<path fill="#BC9371" d="M586.604,810.97c-1.162,5.551-2.66,15.158-3.042,21.14c0,0,13.075,6.455,14.593,9.081
					s-0.232,3.638-7.002,4.049c-6.77,0.41-15.16-3.052-15.16-3.052c-1.444-4.387-1.104-18.037-0.359-29.167
					C578.985,814.172,583.179,810.934,586.604,810.97z"/>
				<path fill="#BC9371" d="M585.174,617.227c-4.021-0.004-6.962,1.331-9.122,3.375c-2.048-1.891-4.82-3.151-8.569-3.284
					c-17.448-0.617-23.735,11.8-23.249,25.05c0.054,1.474,0.899,104.438,4.479,171.924c2.672-0.076,8.48-0.151,11.155-0.182
					c1.068-19.877,7.845-79.733,13.738-123.458c1.337,43.751,1.707,103.289,2.05,123.12c2.672,0.128,7.657,0.415,10.325,0.589
					c11.387-60.816,21.408-169.784,21.516-171.255C608.464,629.883,602.633,617.244,585.174,617.227z"/>
				<path fill="#FFAA81" d="M572.263,624.49c0,0-7.34-0.891-15.538-3.404c0.78,2.764,1.142,5.597,1.203,8.464
					c3.34,0.263,6.145,0.37,7.974,0.495c7.383,0.505,15.449,0.6,17.705,0.668c-2.076-2.364-4.201-5.456-5.964-8.078
					C575.285,623.299,572.263,624.49,572.263,624.49z"/>
				<path fill="#FFAA81" d="M563.273,629.894c-0.262-2.649-0.884-5.196-2.008-7.542c-10.456-2.63-24.833-8.046-26.514-18.153
					c-1.721-10.346,9.323-42.241,13.813-55.999c-1.853-0.461-3.733-0.856-5.655-1.174c-4.098-0.675-8.844-0.688-12.996-1.838
					c-3.167,8.578-15.153,42.962-11.218,62.112C522.856,627.553,551.579,629.26,563.273,629.894z"/>
				<path fill="#FFAA81" d="M554.631,514.307c0.049-0.304,0.103-0.611,0.163-0.915c-0.284-0.468-0.549-0.947-0.779-1.444
					c-2.026-4.392-1.752-9.811,0.855-13.883c3.031-4.733,11.874-9.261,16.475-4.121c4.822,5.387,6.437,15.6,3.689,22.117
					c-0.487,1.153-1.122,2.269-2.043,3.116c-1.032,0.948-2.332,1.474-3.716,1.691c-0.259,2.93-0.888,6.063-1.065,8.731
					c-0.213,3.203-0.464,6.991-2.034,8.784c-1.293,1.478-2.877,0.844-4.249,0.155c-3.111-1.562-6.441-3.398-8.188-8.148
					c-0.401-1.091-0.708-2.331-0.773-3.681c-0.078-1.601,0.184-3.247,0.443-4.848C553.817,519.343,554.224,516.825,554.631,514.307z
					"/>
				<path fill="#FFD22E" d="M598.421,559.391c-0.702-2.641-1.55-5.237-2.529-7.753c1.189-0.151-3.428-15.975-5.545-24.002
					c-6.746-0.742-12.876-1.469-15.802-1.476c-0.056-0.023-0.11-0.049-0.166-0.071c0,0-0.282-0.041-0.777-0.103
					c0.252-1.445-0.027-2.596-3.122-2.971c-5.799-0.703-15.464,0.483-18.451,1.186c-1.536,0.361-1.41,1.386-1.021,2.676
					c-0.059-0.057-0.115-0.118-0.174-0.175c-0.222,0.175-0.348,0.28-0.348,0.28s-22.054-0.945-28.079,42.223
					c2.306,5.576,14.331,7.34,17.124,7.564c0.449-0.77,0.816-2.815,1.334-4.56c1.613,10.601,2.39,13.358,4.066,33.154
					c-1.054,15.071-1.555,26.579-0.723,27.174c2.214,1.581,49.373,1.063,59.577-2.896c0.32-0.045,0.644-0.087,0.962-0.135
					c5.271-0.791,1.729-8.457,1.484-9.737C602.434,599.968,603.6,578.875,598.421,559.391z"/>
				<path fill="#F4C42A" d="M605.381,626.658c-15.353-0.407-31.057-6.35-41.755-17.619c-9.957-10.488-15.932-24.531-20.885-37.907
					c-1.194-3.226-2.287-6.522-3.283-9.857c-0.091,0.082-0.183,0.164-0.274,0.245c1.614,10.561,4.087,24.228,5.747,43.844
					c-1.054,15.071-1.555,26.579-0.723,27.174c2.213,1.581,49.373,1.063,59.577-2.896c0.32-0.045,0.644-0.087,0.962-0.135
					c1.867-0.28,2.625-1.424,2.82-2.84C606.839,626.671,606.111,626.678,605.381,626.658z"/>
				<path fill="#45446C" d="M573.602,525.986c0.252-1.446-0.027-2.597-3.122-2.972c-5.799-0.703-15.464,0.483-18.452,1.186
					c-1.438,0.338-1.415,1.263-1.087,2.439C558.374,528.383,573.682,525.996,573.602,525.986z"/>
				<path fill="#230E04" d="M563.572,838.95c-0.443-1.797-1.355-3.437-2.259-5.052c-0.853-1.525-1.72-3.068-2.931-4.328
					c0.011-1.555,0.043-3.096,0.108-4.617c-3.13,0.537-6.198,0.541-9.215,0.146c0.117,2.221,0.127,4.4,0.111,6.457
					c-0.412,1.915-0.602,3.932-0.821,5.841c-0.254,2.214-0.629,4.982,1.047,6.767c1.245,1.325,3.256,1.581,5.069,1.44
					c1.813-0.141,6.761-0.126,7.354-0.396c0.393-0.179,0.683-0.526,0.914-0.892C563.938,842.751,564.015,840.746,563.572,838.95z"/>
				<path fill="#230E04" d="M598.155,841.19c-1.079-1.866-7.992-5.665-11.904-7.707c-0.731-1.301-1.502-2.586-2.501-3.687
					c0.149-1.742,0.322-3.465,0.537-5.159c-3.164,0.277-6.223,0.026-9.196-0.618c-0.061,2.027-0.096,4.015-0.097,5.903
					c-0.046,0.126-0.1,0.243-0.138,0.38c-0.646,2.266-0.849,4.765-1.117,7.094c-0.254,2.214-0.628,4.982,1.048,6.767
					c1.245,1.325,3.256,1.581,5.069,1.44s6.762-0.126,7.355-0.396c0.051-0.023,0.097-0.057,0.145-0.086
					c1.279,0.138,2.565,0.192,3.798,0.118C597.923,844.828,599.673,843.816,598.155,841.19z"/>
			</g>
		</g>
		<path fill="#915151" d="M579.035,495.815c-0.591-1.461-1.758-2.622-2.331-4.076c-0.589-1.498-0.412-2.337-0.369-3.942
			c0.051-1.878-0.178-3.425-0.774-4.61c-0.392-0.778-1.246-1.231-2.113-1.152c-0.004,0-0.008,0.001-0.013,0.001
			c-1.414,0.13-2.765,0.424-4.082,0.794c-1.493-1.496-3.313-2.63-5.417-3.225c-6.677-1.89-13.806,2.155-16.97,9.219
			c-0.775,0.713-1.389,1.465-1.793,2.238c-0.253,0.484-0.442,0.994-0.511,1.514c-0.056,0.428-0.229,0.834-0.519,1.154
			c-0.617,0.681-1.077,1.431-1.287,2.279c-1.174,4.746,5.594,8.912,6.502,13.767c0.213,1.14,0.093,2.29,0.281,3.432
			c0.669,4.063,5.725,7.637,11.231,7.939c5.506,0.302,10.778-2.705,11.711-6.681c0.144-0.614,0.191-1.267-0.119-1.864
			c-0.422-0.817-1.428-1.391-2.152-2.091c-2.303-2.224-1.023-5.844,2.392-6.767c1.263-0.342,2.662-0.352,3.993-0.531
			c0.587-0.079,1.122-0.384,1.487-0.851C579.592,500.559,580.11,498.472,579.035,495.815z"/>
	</g>
	<path fill="#FFAA81" d="M628.472,457.222c-0.167-0.257-0.388-0.515-0.645-0.767c0.034,2.442-0.95,4.903-3.12,6.325
		c-0.52,0.914-1.605,1.561-2.591,1.561c-0.198,0-0.384-0.022-0.563-0.057c0.787,2.173,2.263,4.518,4.288,4.745
		c2.05,0.23,2.308-2.178,2.569-3.753C628.788,463.005,629.783,459.244,628.472,457.222z"/>
</g>
<g>
	<g>
		<g>
			<path fill="#915151" d="M586.881,128.275c0.565,1.723,1.306,3.485,2.77,4.683c2.15,1.759,5.299,1.892,8.179,1.932
				c3.319,0.047,6.957-0.005,9.492-1.973c1.432-1.112,2.315-2.708,2.954-4.328c2.208-5.599,1.833-12.015-1.016-17.364
				c-0.518-0.972-1.131-1.93-2.038-2.62c-1.187-0.904-2.759-1.261-4.293-1.394c-3.902-0.339-7.925,0.644-11.128,2.719
				c-3.076,1.993-5.576,5.129-6.498,8.509C584.474,121.479,585.932,125.382,586.881,128.275z"/>
			<path fill="#FFC2B0" d="M605.858,151.14c-1.562,1.051-6.149,0.402-7.642,1.268c-1.484,0.861-6.547,1.123-8.023,0.721
				c-0.001-7.459,3.417-15.006,3.482-21.871c3.011,6.312,6.166,2.847,9.226-1.474C602.841,136.492,605.772,144.393,605.858,151.14z"
				/>
			<path fill="#FFC2B0" d="M623.436,198.698c1.588-1.133,3.149-2.406,4.233-4.144c2.274-3.646,1.996-8.746,0.295-12.776
				c-1.137-2.696-3.242-8.176-5.095-10.332c2.137-1.039,11.007-5.035,13.648-6.858c1.254,4.409,2.763,10.098,3.49,15.198
				c0.776,5.442,1.235,11.245-0.759,16.271c-1.459,3.677-4.139,6.608-7.184,8.683c-5.816,3.962-12.825,4.952-19.606,5.051
				c-0.265,0.004-0.547,0.001-0.768-0.164c-0.256-0.192-0.366-0.551-0.458-0.884c-0.321-1.164-0.643-2.329-0.964-3.492
				C614.91,203.821,619.364,201.605,623.436,198.698z"/>
			<path fill="#FFC2B0" d="M634.165,168.83c-0.037,0.037-0.084,0.082-0.153,0.145c-2.51,2.301-5.036,4.227-7.918,5.726
				c-0.063,0.046-0.121,0.093-0.184,0.139c-0.005-0.01-0.009-0.021-0.014-0.032c-0.268,0.137-0.549,0.26-0.824,0.39
				c1.106,2.806,2.342,5.84,3.633,8.727c5.584-3.21,9.271-10.491,9.622-12.554c-0.193-0.628-0.763-2.949-1.241-4.787
				C636.119,167.342,635.141,168.085,634.165,168.83z"/>
			<path fill="#FFAA81" d="M593.543,136.594c0.251,0.754,0.681,1.493,1.076,2.097c0.804,1.231,2.03,2.085,3.47,2.493
				c1.685,0.478,3.4-0.375,4.667-1.461c0.417-0.357,0.814-0.733,1.203-1.119c-0.59-3.034-1.083-6.031-1.058-8.821
				c-3.061,4.321-6.215,7.786-9.226,1.474c0.189,0.396-0.054,1.406-0.092,1.843c-0.059,0.68-0.177,1.351-0.246,2.029
				C593.29,135.602,593.378,136.101,593.543,136.594z"/>
			<path fill="#FF5C98" d="M624.816,192.789c-0.818-6.117-1.585-12.354-2.478-18.552c-0.3-2.083-0.613-4.162-0.948-6.23
				c-0.344-2.128-0.673-4.305-1.034-6.496c-1.012-6.14-1.992-13.77-4.574-19.357c-0.079-0.17-0.139-0.344-0.181-0.518
				c-0.127-0.03-8.969-3.237-11.724-3.454c0.075,2.037-1.511,6.824-5.499,6.786c-2.49-0.024-5.49-3.675-5.606-6.786
				c-3.678,0.334-11.714,3.503-11.742,3.509c-1.958,0.417-3.233,11.936-3.466,13.429c-1.009,6.475-2.14,12.818-2.978,19.298
				c-0.008,0.063-0.017,0.126-0.025,0.19c-0.64,4.986-1.229,9.977-1.813,14.969c-1.054,9.01-2.073,18.024-3.072,27.039
				c-0.052,0.469-0.104,0.938-0.156,1.407l58.677,0.154C627.075,209.713,625.947,201.25,624.816,192.789z"/>
			<path fill="#EF487C" d="M624.816,192.789c-0.818-6.117-1.585-12.354-2.478-18.552c-0.3-2.083-0.613-4.162-0.948-6.23
				c-0.344-2.128-0.673-4.305-1.034-6.496c-1.012-6.14-1.992-13.77-4.574-19.357c-0.079-0.17-0.139-0.344-0.181-0.518
				c-0.051-0.012-1.496-0.532-3.387-1.166c0.024,0.122,0.045,0.245,0.058,0.369c0.015,0.133-0.013,0.512,0.073,0.626
				c-0.022-0.03-0.12-0.79-0.022-0.187c0.048,0.298,0.093,0.596,0.145,0.893c0.116,0.67,0.248,1.336,0.387,2.002
				c0.294,1.409,0.625,2.81,0.956,4.211c0.734,3.108,1.481,6.218,1.978,9.375c0.853,5.412,1.333,11.632-1.638,16.534
				c-2.797,4.614-8.377,6.792-13.291,8.303c-2.118,0.651-4.271,1.172-6.408,1.75c-3.387,0.917-6.724,2.028-10.067,3.088
				c-3.906,1.238-7.818,2.427-11.783,3.395c-1.002,8.593-1.973,17.189-2.927,25.787c-0.052,0.469-0.104,0.938-0.156,1.407
				l58.677,0.154C627.075,209.713,625.947,201.25,624.816,192.789z"/>
			<path fill="#FFC2B0" d="M573.98,196.997c-1.588-1.134-3.149-2.406-4.233-4.145c-2.275-3.646-1.996-8.746-0.295-12.776
				c1.138-2.696,3.62-7.732,5.473-9.888c-2.137-1.039-11.385-5.479-14.026-7.302c-1.74,4.858-2.763,10.098-3.49,15.198
				c-0.776,5.442-1.235,11.246,0.759,16.271c1.459,3.677,4.139,6.608,7.185,8.683c5.815,3.962,12.825,4.952,19.606,5.051
				c0.265,0.003,0.547,0,0.768-0.165c0.256-0.191,0.365-0.55,0.457-0.883c0.322-1.164,0.643-2.328,0.965-3.492
				C582.506,202.119,578.053,199.903,573.98,196.997z"/>
			<path fill="#FFC2B0" d="M569.916,199.48c-2.221-0.04-4.419,0.001-6.637,0.098c-0.595,0.026-1.207,0.047-1.822,0.048
				c1.165,1.311,2.491,2.453,3.896,3.411c5.815,3.962,12.825,4.952,19.606,5.051c0.265,0.003,0.547,0,0.768-0.165
				c0.256-0.191,0.365-0.55,0.457-0.883c0.322-1.164,0.643-2.328,0.965-3.492c-3.071-0.945-6.058-2.236-8.907-3.842
				C575.467,199.626,572.691,199.531,569.916,199.48z"/>
			<path fill="#FFAA81" d="M561.292,173.453c0.244,0.364,0.496,0.723,0.757,1.075c0.003-0.005,0.387,0.483,0.383,0.478
				c0.138,0.164,0.277,0.326,0.42,0.485c0.646,0.724,1.521,1.58,2.06,1.943c0.454,0.306,0.918,0.592,1.405,0.844
				c0.235,0.122,0.474,0.238,0.716,0.346c0.043,0.019,0.066,0.03,0.08,0.037c0.034,0.011,0.092,0.029,0.187,0.061
				c0.803,0.271,1.609,0.511,2.43,0.714c1.228-2.791,3.481-7.252,5.196-9.248c-2.137-1.039-11.385-5.479-14.026-7.302
				c-0.771,2.154-1.4,4.383-1.926,6.642C559.694,170.867,560.445,172.189,561.292,173.453z"/>
			<path fill="#F2F2F2" d="M621.301,211.25h-45.724c-0.489,0-0.887-0.397-0.887-0.887v-28.763c0-0.49,0.397-0.887,0.887-0.887
				h45.724c0.49,0,0.887,0.397,0.887,0.887v28.763C622.188,210.854,621.791,211.25,621.301,211.25z"/>
			<path fill="#F2F2F2" d="M620.861,211.077H576.3c-0.314,0-0.569-0.255-0.569-0.569v-28.243c0-0.314,0.254-0.569,0.569-0.569
				h44.561c0.314,0,0.569,0.255,0.569,0.569v28.243C621.43,210.822,621.175,211.077,620.861,211.077z"/>
			<path fill="#D1E7F4" d="M598.689,196.75c-4.439,1.301-8.78,2.97-12.832,5.216c-2.031,1.126-3.919,2.428-5.795,3.791
				c-1.677,1.218-3.351,2.522-4.332,4.391v2.19c0,0.314,0.254,0.568,0.569,0.568h44.561c0.314,0,0.569-0.254,0.569-0.568v-19.409
				C613.738,193.382,606.089,194.582,598.689,196.75z"/>
			<path fill="#45446C" d="M581.031,141.69c0.034-0.007,0.07-0.014,0.104-0.021c-2.169,0.668-6.149,3.19-8.263,4.382
				c-3.475,1.959-6.382,5.102-8.633,8.876c-2.023,3.393-3.534,7.18-4.693,11.147c1.122,1.961,2.601,3.602,4.471,4.897
				c2.635,1.826,7.932,3.761,8.456,3.991c1.173-2.243,2.263-3.604,2.728-4.804c0.708-4.722,1.623-10.282,2.364-15.04
				C577.797,153.626,579.072,142.107,581.031,141.69z"/>
			<path fill="#45446C" d="M632.639,154.424c-2.251-3.826-5.159-7.011-8.633-8.997c-2.319-1.326-8.531-3.822-8.404-3.792
				c0.042,0.174,3.743,13.735,4.755,19.875c0.361,2.191-0.03,3.199,0.314,5.327c0.334,2.068,2.858,6.995,4.61,9.149
				c2.338-0.66,6.512-3.319,8.104-4.552c2.061-1.595,3.014-2.733,3.947-3.993C636.173,163.419,634.662,157.862,632.639,154.424z"/>
			<g>
				<polygon fill="#FFAA81" points="637.833,225.349 632.661,223.956 631.469,230.754 636.59,231.451 641.488,229.979 
					641.846,227.295 				"/>
				<path fill="#492817" d="M637.833,225.349c0.052,0.383,10.616-1.705,11.647-1.93c0.327-0.071,0.648-0.154,0.973-0.233
					c1.664-0.401,3.345-0.822,5.056-0.811c4.194,0.028,7.88,2.597,11.253,5.114c0.115,0.489,0.181,0.969,0.149,1.466
					c-0.038,0.588-0.211,1.169-0.456,1.742c-3.763,3.186-9.271,3.662-14.222,3.037c-5.236-0.661-10.367-2.33-15.644-2.283
					C637.668,229.631,638.11,227.445,637.833,225.349z"/>
				<path fill="#9E7456" d="M530.152,205.113c1.402-3.115,4.705-5.179,8.284-5.826c8.114-1.467,15.908-0.529,23.963,0.835
					c8.412,1.424,65.068,21.684,73.812,24.419c-0.505,2.488-1.011,4.977-1.516,7.465c-0.239,1.177-30.15-2.623-31.968-2.847
					c-22.566-2.776-45.641-4.925-66.829-13.097C530.076,213.817,529.545,206.463,530.152,205.113z"/>
			</g>
			<g>
				<polygon fill="#FFAA81" points="559.044,225.405 564.216,224.011 565.409,230.81 560.288,231.506 555.39,230.034 
					555.032,227.351 				"/>
				<path fill="#492817" d="M559.044,225.405c-0.052,0.382-10.616-1.705-11.647-1.931c-0.327-0.071-0.648-0.154-0.974-0.232
					c-1.664-0.401-3.344-0.822-5.056-0.811c-4.195,0.028-7.88,2.597-11.253,5.113c-0.115,0.489-0.181,0.969-0.149,1.466
					c0.038,0.588,0.21,1.169,0.456,1.741c3.763,3.186,9.271,3.662,14.222,3.037c5.236-0.662,10.366-2.33,15.644-2.283
					C559.209,229.687,558.768,227.5,559.044,225.405z"/>
				<path fill="#CEAB8B" d="M666.726,205.168c-1.402-3.115-4.706-5.179-8.284-5.826c-8.114-1.467-15.908-0.529-23.963,0.835
					c-8.412,1.424-65.068,21.683-73.812,24.419c0.505,2.488,1.011,4.977,1.516,7.465c0.239,1.177,30.15-2.623,31.968-2.847
					c22.566-2.776,45.641-4.925,66.829-13.097C666.802,213.873,667.333,206.519,666.726,205.168z"/>
			</g>
			<ellipse fill="#CCCCCC" cx="597.858" cy="197.23" rx="4.495" ry="3.045"/>
			<path fill="#FFC2B0" d="M586.876,123.272c0.485,3.239,1.322,6.503,3.156,9.216c1.833,2.713,4.809,4.813,8.082,4.922
				c4.143,0.139,7.862-2.933,9.713-6.642s2.198-7.964,2.431-12.103c0.198-3.519,0.295-7.237-1.373-10.342
				c-0.607-1.129-1.448-2.151-2.521-2.853c-0.762-0.498-1.623-0.826-2.499-1.075c-3.737-1.064-7.915-0.691-11.275,1.259
				C585.998,109.481,585.871,116.562,586.876,123.272z"/>
			<path fill="#915151" d="M613.526,108.788c-0.234-1.559-0.645-3.046-1.3-4.378c-1.117-2.269-3.2-5.055-4.921-6.92
				c-2.194-2.376-5.808-2.67-9.04-2.541c-1.998,0.08-4.029,0.268-5.876,1.035c-1.846,0.767-3.506,2.194-4.127,4.095
				c-0.075,0.229-0.127,0.459-0.167,0.69c-4.358,2.767-6.804,8.462-5.494,13.502c0.443,1.704,1.258,3.431,0.912,5.146
				c0.139,0.996,0.244,1.998,0.325,3.001c0.723,0.807,1.881,1.216,2.637,0.499c0.547-0.519,0.594-1.36,0.605-2.113
				c0.034-2.226,0.068-4.451,0.101-6.677c0.006-0.414,0.017-0.845,0.214-1.209c0.199-0.37,0.562-0.617,0.897-0.869
				c1.374-1.031,2.5-2.384,3.283-3.913c1.478,1.36,3.172,2.42,4.584,2.952c3.008,1.135,6.322,1.225,9.516,0.853
				c0.882-0.103,1.77-0.245,2.635-0.457c0.186,3.089,0.371,6.178,0.556,9.268c0.068,1.141,0.334,2.546,1.43,2.87
				c0.746,0.22,1.56-0.23,2-0.871c0.44-0.641,0.589-1.432,0.715-2.199C613.59,117.04,614.111,112.688,613.526,108.788z"/>
			<path fill="#FFAA81" d="M587.714,124.667c-0.134-1.723-0.539-3.547-0.571-5.275c-0.288-0.169-0.415-0.178-0.744-0.214
				c-0.284-0.03-0.583-0.009-0.833,0.144c-0.431,0.265-0.609,0.843-0.724,1.376c-0.369,1.724-0.438,3.567,0.068,5.247
				c0.508,1.68,1.649,3.173,3.159,3.737c0.204,0.076,0.317,0.107,0.523,0.053C588.109,128.06,587.853,126.448,587.714,124.667z"/>
			<path fill="#FFAA81" d="M612.216,120.697c-0.114-0.533-0.292-1.111-0.724-1.376c-0.25-0.153-0.549-0.174-0.833-0.144
				c-0.651,0.07-1.244,0.436-1.693,0.959c-0.068,0.023-0.131,0.059-0.19,0.099c0.042,1.011,0.031,2.024,0.032,3.054
				c0.002,2.003,0.065,3.189-0.22,5.18c-0.028,0.198-0.265,1.252-0.338,1.426c0.19,0.032,0.553-0.145,0.739-0.214
				c1.51-0.564,2.651-2.058,3.159-3.737C612.655,124.264,612.585,122.421,612.216,120.697z"/>
		</g>
		<path fill="#FFC2B0" d="M591.216,108.566c2.054-1.588,4.664-2.311,7.25-2.552c2.121-0.198,4.357-0.071,6.217,0.968
			c0.973,0.543,1.803,1.316,2.514,2.174c1.551,1.87,2.58,4.224,2.619,6.653c0.04,2.429-0.982,4.911-2.894,6.41
			c-1.284,1.007-2.875,1.532-4.447,1.969c-2.284,0.636-4.768,1.12-6.984,0.276c-1.823-0.694-3.203-2.19-4.511-3.637
			C587.505,116.991,586.637,112.106,591.216,108.566z"/>
		<path fill="#915151" d="M598.364,107.343c3.042,0.45,6.188,0.604,9.16-0.187c0.235-0.063,0.48-0.137,0.653-0.31
			c0.181-0.181,0.253-0.44,0.319-0.687c0.261-0.982,0.51-2.079,0.023-2.972c-0.435-0.798-1.339-1.203-2.194-1.513
			c-2.666-0.967-5.469-1.552-8.298-1.732c-0.914-0.058-1.851-0.071-2.723,0.206c-1.359,0.432-2.399,1.508-3.378,2.545
			c-0.925,0.979-3.067,4.222-0.545,4.788c0.888,0.199,2.178-0.486,3.122-0.514C595.796,106.931,597.088,107.154,598.364,107.343z"/>
	</g>
	<path fill="#915151" d="M595.38,112.625c2.922,2.434,5.811,5.011,9.006,6.977c0.867,0.533,7.668,3.915,9.05,2.746
		c0.091-0.509,0.175-1.034,0.244-1.592c0.02-0.159,0.06-0.301,0.096-0.446c-0.067-0.258-0.127-0.519-0.202-0.775
		c-0.029-0.099-0.061-0.197-0.091-0.296c0.865-1.363,1.354-3.015,1.165-4.688c-0.063-0.557-0.503-1.267-0.918-0.969
		c-0.039,0.361-0.077,0.722-0.116,1.083c-0.635,0.303-1.341-0.242-1.883-0.752c-0.641-0.605-1.283-1.212-1.9-1.847
		c-0.415-0.521-0.854-1.015-1.322-1.474c-0.086-0.105-0.173-0.21-0.257-0.318c-0.763-0.98-1.435-2.063-2.324-2.898
		c-2.521-2.365-6.147-2.226-9.333-1.666c-1.97,0.347-3.957,0.818-5.677,1.912c-0.345,0.219-0.673,0.474-0.989,0.748
		C591.785,109.688,593.591,111.135,595.38,112.625z"/>
</g>
<g>
	<g>
		<path fill="#BC9371" d="M1417.825,911.258c3.105-0.616,6.052-1.781,8.245-4.106c-1.885-5.49-3.685-10.192-4.599-12.1
			c-1.281-2.672-2.534-5.356-3.753-8.058c-0.609-1.351-1.211-2.705-1.802-4.063c-0.428-0.981-1.661-2.794-1.645-3.85
			c-4.642-11.082-9.007-22.629-10.896-34.549c-0.768-4.85-1.258-10.159,0.112-14.953c5.733-20.796,10.7-48.647,8.202-78.734
			l-35.018,2.63c0.27,8.764-1.777,74.492,4.401,89.701c5.034,12.39,9.838,24.169,16.839,35.491
			c4.444,7.19,8.96,14.337,13.514,21.458C1413.818,903.864,1415.929,907.52,1417.825,911.258z"/>
		<path fill="#CEAB8B" d="M1356.757,916.17c0.243-0.009,0.485-0.026,0.729-0.03c1.259-0.022,2.4,0.021,3.601-0.452
			c0.396-0.156,0.743-0.336,1.086-0.512c-2.412-20.997-6.128-69.315,2.162-86.486c4.82-9.984,27.23-32.499,34.497-78.791
			l-41.229,2.657c-0.757,36.441-23.596,68.864-22.74,84.868c0.692,12.961,11.74,57.141,17.109,78.003
			C1353.59,915.726,1355.176,916.007,1356.757,916.17z"/>
		<path fill="#FFC2B0" d="M1326.425,618.031c1.931,0.387,2.517,1.384,4.478,2.193c-0.886,2.241-1.271,8.024-1.496,11.976
			c-0.152,2.686-0.251,5.378-0.216,8.068c0.048,3.708,0.05,9.705,1.936,13.024c2.049,3.604,7.637,5.396,11.279,7.051
			c4.344,1.974,8.767,3.778,13.207,5.529c3.838,1.512,7.696,2.974,11.568,4.397c1.037,0.381,4.052,0.871,4.79,1.732
			c0,0.002,5.072,5.924,1.087,10.365c-3.987,4.441-14.167,0.636-14.167,0.636c-4.989-1.48-9.896-3.316-14.694-5.309
			c-12.198-5.064-24.591-10.393-25.283-25.034c-0.286-6.05,0.438-12.102,1.748-18.007
			C1320.9,633.575,1326.275,618.001,1326.425,618.031z"/>
		<path fill="#FFC2B0" d="M1353.19,626.319c0.375-1.089,0.671-1.764,0.82-1.733c1.931,0.388,4.011,1.041,5.972,1.851
			c-1.955,3.562-1.795,7.813-2.02,11.766c-0.153,2.686-0.252,5.378-0.217,8.067c0.048,3.709,0.05,9.706,1.937,13.025
			c2.048,3.604,7.636,5.396,11.278,7.051c4.344,1.973,8.767,3.778,13.207,5.528c3.838,1.513,7.696,2.975,11.568,4.397
			c1.037,0.382,4.053,0.872,4.79,1.733c0.001,0.001,5.073,5.924,1.087,10.364c-3.986,4.442-14.166,0.637-14.166,0.637
			c-4.989-1.48-9.896-3.316-14.695-5.309c-12.197-5.064-24.591-10.393-25.283-25.034c-0.286-6.05,0.438-12.102,1.748-18.008
			C1349.456,639.577,1351.837,630.25,1353.19,626.319z"/>
		<path fill="#FFC2B0" d="M1417.818,911.243c2.262,4.457,4.216,9.034,5.914,14.037c0,0-9.636,8.498-10.323,11.082
			c-0.688,2.583,1.032,3.042,6.884,1.836c5.85-1.206,12.189-6.08,12.189-6.08c0.221-4.065-3.202-15.604-6.391-24.904
			C1423.506,908.964,1420.723,910.426,1417.818,911.243z"/>
		<g>
			<path fill="#FFC2B0" d="M1362.172,915.176c-3.306,0.59-6.98,0.648-10.234,0.122c1.762,6.844,3.074,11.197,3.074,11.197
				l1.034,3.165c0,0-9.219,0.525-18.72,3.17c-9.5,2.645-16.544,6.471,2.694,5.956c19.237-0.515,24.818-1.017,24.841-4.463
				s-1.461-10.018-1.462-10.021C1363.126,922.821,1362.863,919.603,1362.172,915.176z"/>
			<path fill="#492817" d="M1363.246,923.46c-3.12,0.571-6.156,0.696-9.035,0.271c0.459,1.752,1.835,5.93,1.835,5.93
				s-9.219,0.525-18.72,3.17c-9.5,2.645-16.544,6.471,2.694,5.956c19.237-0.515,24.818-1.017,24.841-4.463
				s-1.461-10.018-1.462-10.021C1363.356,924.07,1363.304,923.778,1363.246,923.46z"/>
		</g>
		<path fill="#492817" d="M1421.4,919.089c0.823,2.006,1.606,4.054,2.332,6.191c0,0-9.636,8.498-10.323,11.082
			c-0.688,2.583,1.032,3.042,6.884,1.836c5.85-1.206,12.189-6.08,12.189-6.08c0.15-2.773-1.395-9.024-3.404-15.669
			C1426.697,917.681,1424.154,918.598,1421.4,919.089z"/>
		<path fill="#FFC2B0" d="M1388.139,651.164c0.021-0.267,0.039-0.536,0.051-0.806c0.341-0.336,0.668-0.686,0.968-1.06
			c2.647-3.292,3.542-7.924,2.158-11.898c-1.607-4.619-8.232-10.259-13.241-6.863c-5.248,3.558-8.756,11.849-7.762,17.917
			c0.176,1.073,0.487,2.146,1.1,3.051c0.686,1.012,1.688,1.724,2.827,2.19c-0.389,2.527-0.502,5.302-0.906,7.592
			c-0.484,2.748-1.058,5.998-0.088,7.835c0.8,1.513,2.286,1.304,3.604,1.004c2.987-0.68,6.22-1.546,8.704-5.198
			c0.57-0.839,1.091-1.823,1.428-2.949c0.4-1.336,0.519-2.779,0.631-4.184C1387.787,655.585,1387.963,653.375,1388.139,651.164z"/>
		<path fill="#2C4482" d="M1355.698,696.104c1.45-13.441,7.14-26.356,16.438-31.796c0,0,0.24-0.072,0.665-0.192
			c-0.412-1.207-0.327-2.232,2.313-2.966c4.952-1.375,13.524-1.642,16.22-1.435c1.485,0.113,1.411,1.136,1.212,2.419
			c1.376,0.535,2.753,1.396,3.946,2.008c3.832,1.964,8.645,4.925,9.487,8.054c3.019,11.205,0.328,25.751,2.472,56.275
			c2.949,12.802,4.937,22.618,4.292,23.24c-1.713,1.651-42.828,7.479-52.244,5.436c-0.285,0.004-0.573,0.011-0.856,0.012
			c-4.695,0.022-2.646-7.032-2.604-8.165C1357.675,731.484,1353.816,713.525,1355.698,696.104z"/>
		<path fill="#2C4482" d="M1355.698,696.104c1.361-12.612,6.455-24.761,14.76-30.705c-0.596,4.139,1.736,8.746,6.987,9.045
			c-6.248,18.04-9.626,36.781-13.118,55.483c-1.545,8.275-2.819,16.465-3.728,24.832c-0.087,0.802-0.184,1.598-0.288,2.391
			c-0.224,0.003-0.448,0.008-0.669,0.009c-4.695,0.022-2.646-7.032-2.604-8.165C1357.675,731.484,1353.816,713.525,1355.698,696.104
			z"/>
		<g>
			<polygon fill="#DDE6F5" points="1353.35,623.143 1367.372,633.198 1370.648,628.751 1356.626,618.695 			"/>
			<path fill="#2C4482" d="M1301.382,582.402c3.423-4.583,8.771-6.44,11.944-4.148c0.279,0.201,0.522,0.436,0.75,0.686
				l53.242,46.441c0.365,0.318,0.426,0.865,0.138,1.256l-3.089,4.193c-0.283,0.384-0.809,0.492-1.22,0.253l-61.562-35.836
				c-0.063-0.032-0.122-0.072-0.184-0.107l-0.471-0.274l0.008-0.011c-0.002-0.001-0.004-0.002-0.006-0.004
				C1297.759,592.559,1297.96,586.985,1301.382,582.402z"/>
			<path fill="#DDE6F5" d="M1301.168,582.238c3.435-4.6,8.803-6.464,11.988-4.164c0.28,0.202,0.524,0.438,0.752,0.688l1.666,1.453
				c-3.188-0.939-7.517,0.982-10.444,4.904c-2.917,3.906-3.493,8.521-1.652,11.235l-2.104-1.226
				c-0.063-0.032-0.123-0.072-0.186-0.107l-0.472-0.274l0.008-0.012c-0.002-0.001-0.005-0.002-0.007-0.004
				C1297.531,592.433,1297.732,586.839,1301.168,582.238z"/>
		</g>
		<path fill="#FFC2B0" d="M1336.679,604.12c0.239-0.438,0.686-0.76,1.181-0.854c0.098-0.019,0.2-0.028,0.3-0.021
			c0.116,0.007,0.229,0.036,0.327,0.097c0.153,0.094,0.255,0.256,0.304,0.427c0.047,0.164,0.023,0.334,0.054,0.495
			c0.144-0.083,0.205-0.272,0.334-0.382c0.161-0.136,0.355-0.231,0.565-0.265c0.215-0.035,0.459-0.043,0.626,0.096
			c0.312,0.26,0.188,0.811,0.146,1.155c-0.047,0.389-0.132,0.772-0.249,1.146c0.144-0.101,0.302-0.179,0.477-0.219
			c0.078-0.018,0.16-0.027,0.239-0.014c0.298,0.048,0.447,0.379,0.51,0.671c0.218,1.011-0.011,2.088-0.437,3.017
			c-0.449,0.979-0.782,2.009-1.239,2.985c-0.219,0.466-0.358,0.973-0.649,1.402c-0.33,0.487-0.852,0.805-1.34,1.12
			c-1.715,1.109-3.473,2.131-5.406,2.83c-0.204,0.073-0.403,0.134-0.6,0.186l-1.221,2.966l-4.695-1.734l1.335-3.066
			c-0.012-0.021-0.03-0.041-0.04-0.063c-0.343-0.761-0.333-1.597-0.014-2.364c0.291-0.7,0.768-1.377,1.278-1.938
			c0.255-0.281,0.524-0.565,0.836-0.778c0.68-0.462,1.371-0.909,2.131-1.244c0.336-0.148,0.674-0.294,0.986-0.499
			c0.246-0.162,0.391-0.353,0.44-0.634c0.123-0.687,0.494-1.284,0.724-1.934c0.041-0.117,0.123-0.222,0.195-0.326
			c0.453-0.664,1.085-1.441,1.798-1.846c0.193-0.11,0.416-0.185,0.641-0.185c0.125-0.001,0.229,0.066,0.337-0.036
			C1336.608,604.258,1336.642,604.188,1336.679,604.12z"/>
		<path fill="#FFC2B0" d="M1362.066,622.145c-0.193,0.163-0.419,0.313-0.673,0.321c-0.254,0.01-0.528-0.177-0.526-0.428
			c-0.162,0.274-0.497,0.439-0.816,0.403c-0.32-0.036-0.608-0.271-0.704-0.574c-0.029-0.093-0.053-0.204-0.142-0.244
			c-0.105-0.047-0.219,0.038-0.314,0.104c-0.474,0.325-1.187,0.187-1.553-0.253c-0.366-0.44-0.388-1.105-0.111-1.605
			c-0.383,0.12-0.816-0.122-0.996-0.478c-0.179-0.355-0.143-0.785-0.002-1.157c0.142-0.371,0.377-0.699,0.599-1.03
			c0.327-0.49,0.652-1.021,1.177-1.297c0.525-0.276,1.316-0.155,1.522,0.396c0.39-0.106,0.807-0.191,1.196-0.081
			c0.389,0.111,0.731,0.478,0.676,0.873c0.312-0.29,0.854-0.196,1.156,0.103c0.302,0.3,0.412,0.738,0.459,1.157
			c0.888,0.001,0.673,1.249,0.444,1.742C1363.108,620.851,1362.719,621.6,1362.066,622.145z"/>
		<path fill="#60C0FD" d="M1383.577,679.572c-0.347-1.11,2.066-8.676-3.585-12.127c-6.461-3.946-24.271-5.135-32.743-8.17
			c-5.281,3.87-9.468,9.759-12.271,15.547c8.045,3.244,26.339,9.503,32.345,14.515c0.589,0.491,5.444,0.916,7.248,0.291
			C1380.001,687.746,1382.482,684.095,1383.577,679.572z"/>
	</g>
	<path fill="#915151" d="M1371.232,626.196c0.12-1.533,1.314-2.602,1.216-4.072c-0.1-1.487-0.179-2.758,0.884-3.977
		c1.092-1.251,2.955-1.765,4.533-1.25c-0.037-1.633,1.522-2.981,3.146-3.165c1.624-0.183,3.222,0.546,4.548,1.5
		c0.449,0.322,0.889,0.685,1.152,1.171c-0.085-0.803,0.499-1.568,1.234-1.9c0.736-0.333,1.585-0.307,2.379-0.163
		c2.979,0.541,5.479,2.606,7.363,4.977c0.553,0.696,1.083,1.652,0.635,2.42c2.687-0.295,5.351,1.484,6.503,3.93
		c1.152,2.444,0.937,5.387-0.148,7.861c1.62,0.438,2.653,2.16,2.718,3.837c0.063,1.677-0.661,3.289-1.571,4.698
		c-1.274,1.973-3.165,3.8-5.507,3.979c0.643,1.273-0.049,2.818-0.938,3.934c-1.411,1.77-3.737,3.17-5.881,2.442
		c-0.378-0.129-0.725-0.323-1.04-0.563c-1.761,1.775-4.393,2.724-6.861,2.24c-3.512-0.687-6.248-4.176-6.079-7.75
		c0.026-0.552,0.121-1.121,0.428-1.58c0.42-0.629,1.16-0.949,1.747-1.426c1.867-1.514,1.75-4.843-0.217-6.223
		c-0.928-0.65-2.099-0.872-3.046-1.493c-1.829-1.197-2.452-3.682-2.067-5.833c0.058-0.319,0.141-0.618,0.217-0.922
		c-0.049-0.08-0.113-0.15-0.154-0.235c-0.521,1.27-2.285,1.718-3.49,1.063C1371.728,629.041,1371.124,627.564,1371.232,626.196z"/>
	
		<ellipse transform="matrix(-0.8298 -0.5581 0.5581 -0.8298 2152.7859 1918.5327)" fill="#2C4482" cx="1368.986" cy="630.947" rx="1.122" ry="2.783"/>
	
		<ellipse transform="matrix(-0.8296 -0.5583 0.5583 -0.8296 2148.0703 1912.9733)" fill="#DDE6F5" cx="1365.908" cy="628.744" rx="1.121" ry="2.782"/>
</g>
<g>
	<path fill="#FFC2B0" d="M939.071,647.552c0.599-0.952,2.339,0,2.339,0s-0.099-0.394,0.189-0.734c0.397-0.47,2.176-0.118,3.59,0.371
		c0.917,0.318,3.464,2.038,5.143,3.208c0.964,0.563,1.979,1.103,3.014,1.505c1.958,0.762,2.175,0,1.74-0.979
		s-0.652-2.61-0.544-3.153c0.109-0.544,0.652-0.653,1.849,1.087s3.559,4.923,4.84,6.525c1.522,1.903,1.903,3.372,1.903,3.372
		l2.937,2.393l-3.153,3.371c0,0-1.523-1.305-3.843-2.755c-2.455-1.534-3.807-3.082-6.309-4.278
		c-2.501-1.196-8.302-3.625-10.042-4.604c-0.86-0.484-1.798-1.642-2.375-2.697C939.254,649.077,938.749,648.063,939.071,647.552z"/>
	<path fill="#60C0FD" d="M1032.93,640.811c-7.209-3.319-22.01,13.016-25.097,15.973c-6.288,6.028-13.6,11.774-17.346,13.278
		c-8.516,3.419-20.696-6.18-27.55-12.435c-1.161,1.141-1.719,2.667-2.695,5.14c0.835,1.201,2.48,2.752,3.355,3.925
		c2.132,2.856,4.676,5.017,7.197,7.539c2.65,2.651,5.586,5.081,8.899,6.86c3.193,1.715,6.766,2.771,10.414,2.595
		c1.728-0.084,3.435-0.438,5.062-1.021c6.403-2.293,29.145-22.055,31.589-24.299C1035.412,650.422,1037.64,642.979,1032.93,640.811z
		"/>
	<path fill="#53B8E5" d="M1000.945,670.174c-0.861-2.35-0.27-5.309,0.731-7.858c2.058-1.731,4.159-3.616,6.156-5.532
		c3.087-2.957,17.888-19.292,25.097-15.973c4.71,2.168,2.482,9.611-6.171,17.555c-1.601,1.47-11.906,10.451-20.627,17.121
		C1004.055,674.055,1001.77,672.422,1000.945,670.174z"/>
	<g>
		<g>
			<g>
				<g>
					<path fill="#2C2B57" d="M977.022,934.303c9.227-2.91,15.564-3.529,15.881-3.554c3.067,2.311,7.753,1.979,10.838,0
						c0.903,1.807,0.739,6.166,0.344,7.461c-1.132,3.7-5.325,2.203-24.393,2.781C960.626,941.569,967.606,937.272,977.022,934.303z"
						/>
				</g>
			</g>
		</g>
		<g>
			<g>
				<g>
					<path fill="#2C2B57" d="M1018.068,934.188c9.227-2.91,15.564-3.53,15.881-3.554c3.067,2.311,7.753,1.979,10.838,0
						c0.902,1.806,1.251,6.395,0.854,7.689c-1.132,3.701-5.836,1.975-24.903,2.553
						C1001.672,941.455,1008.652,937.157,1018.068,934.188z"/>
				</g>
			</g>
		</g>
		<path fill="#FFC2B0" d="M1044.744,925.56l0.199,5.417c0,0-6.264,3.228-14.907,4.26c0,0,2.881-3.334-0.989-3.85
			c0,0,10.665-2.859,11.182-6.214C1040.744,921.818,1044.744,925.56,1044.744,925.56z"/>
		<path fill="#FFC2B0" d="M1004.69,924.524l-0.723,6.744c0,0-6.097,3.179-14.741,4.211c0,0,2.946-3.519-0.924-4.035
			c0,0,9.048-0.638,9.277-6.255C997.719,921.799,1004.69,924.524,1004.69,924.524z"/>
		<path fill="#FFC2B0" d="M1053.302,815.896c0,0-7.17,107.44-8.546,111.568c-1.834,2.063-6.248-0.099-6.248-0.099l-2.752-126.263
			l11.01-3.785L1053.302,815.896z"/>
		<path fill="#FFC2B0" d="M997.457,926.739c0,0,6.994-85.927,4.216-125.489l3.687-15.805l16.128,10.937
			c0,0-2.177,72.629-17.383,130.931C1004.104,927.313,999.749,929.108,997.457,926.739z"/>
	</g>
	<path fill="#2A2A4F" d="M1054.145,818.734c-0.106,0.882-0.244,1.825-0.846,2.478c-0.804,0.871-2.136,0.93-3.32,0.928
		c-17.313-0.035-34.625-0.07-51.938-0.105c3.411-32.755,6.821-65.511,10.232-98.266c0.392-3.758,0.795-7.567,2.152-11.093
		c4.181-10.863,17.848-16.96,28.833-12.762c8.955,3.423,11.043,13.089,12.715,21.586
		C1058.193,753.107,1057.996,786.863,1054.145,818.734z"/>
	<path fill="#191935" d="M1023.784,725.491c-0.252-0.131-0.503-0.228-0.749-0.296c-0.728-0.846-1.866-1.268-3.279-0.739
		c-2.377,0.89-5.707-0.988-7.999-1.627c-1.088-0.304-2.188-0.579-3.292-0.843c0.353-3.172,0.817-6.342,1.961-9.311
		c4.181-10.863,17.848-16.96,28.833-12.762c8.955,3.423,11.043,13.089,12.715,21.586c3.267,16.603,4.749,33.798,4.876,51.001
		C1051.437,752.979,1041.756,734.813,1023.784,725.491z"/>
	<path fill="#FF5C98" d="M1011.501,702.02c-0.859-9.814,0.036-16.145,0.271-23.459c-1.987-3.34-7.347-13.049-5.453-17.706
		c1.206-2.965,3.339-6.4,5.105-9.014c4.804-11.821,3.231-13.398,10.881-15.959c8.467-2.835,13.881-2.499,20.762,2.71
		c8.208,6.213,9.763,19.454,6.409,25.478c-2.828,5.08-3.594,11.014-4.309,16.784c-0.473,3.819-0.946,7.658-0.798,11.504
		c0.22,5.687,6.829,18.435,8.038,31.407c0.04,0.438-7.879,4.573-13.395-2.995c-2.053,8.429-25.858,15.998-31.447,6.021
		C1006.606,725.078,1011.672,703.974,1011.501,702.02z"/>
	<path fill="#EF487C" d="M1011.501,702.02c-0.859-9.814,0.036-16.145,0.271-23.459c-1.987-3.34-7.347-13.049-5.453-17.706
		c1.05-2.58,2.801-5.515,4.401-7.956c0.328,2.33,0.942,4.584,1.8,6.613c1.232,2.916,3.179,5.598,5.58,7.746
		c2.389,7.681,6.396,14.849,11.076,21.429c2.599,3.655,5.16,7.337,7.762,10.989c2.891,4.057,6.142,8.261,10.737,10.485
		c0.686,0.332,1.394,0.596,2.111,0.796c1.187,4.068,2.212,8.425,2.621,12.808c0.04,0.438-7.879,4.573-13.395-2.995
		c-2.053,8.429-25.858,15.998-31.447,6.021C1006.606,725.078,1011.672,703.974,1011.501,702.02z"/>
	<g>
		<path fill="#FFC2B0" d="M1022.941,629.639c-1.02-0.019-2.063-0.098-2.996-0.51c-1.174-0.518-2.067-1.514-2.815-2.557
			c-2.647-3.685-3.917-8.234-4.186-12.764s0.414-9.065,1.382-13.499c0.158-0.723,0.328-1.457,0.698-2.099
			c0.502-0.868,1.335-1.5,2.216-1.979c3.769-2.051,8.402-1.587,12.547-0.478c2.075,0.555,4.155,1.28,5.84,2.612
			c1.383,1.093,2.434,2.541,3.425,3.998c1.021,1.502,2.013,3.062,2.525,4.804c0.446,1.518,0.514,3.118,0.509,4.699
			c-0.009,2.925-0.256,5.859-0.933,8.704c-0.314,1.319-0.736,2.648-1.561,3.727c-1.501,1.964-4.906,3.15-7.167,3.897
			C1029.376,629.203,1026.154,629.698,1022.941,629.639z"/>
		<path fill="#FFC2B0" d="M1034.944,636.788c0.166,1.493-9.714,1.316-9.781,0.893c-1.019-6.448-1.448-11.437-3.444-17.138
			c2.642-0.644,9.239-2.298,14.007-1.103C1036.459,619.625,1034.724,634.811,1034.944,636.788z"/>
		<path fill="#2A2A4F" d="M1041.123,635.919c-0.159,1.211-1.426,1.788-2.497,2.168c-5.03,1.787-13.808,4.205-18.328,7.19
			c-1.007-1.67-0.444-7.489,0.066-8.692c0.346-0.815,6.135-2.318,8.554-2.907C1032.368,632.838,1041.276,634.755,1041.123,635.919z"
			/>
		<path fill="#FFC2B0" d="M1038.87,635.341c-0.132,0.925-1.182,1.365-2.069,1.656c-4.169,1.364-11.443,3.211-15.189,5.491
			c-0.835-1.275-0.368-5.72,0.055-6.64c0.287-0.622,5.084-1.77,7.09-2.22C1031.614,632.987,1038.997,634.452,1038.87,635.341z"/>
		<path fill="#915151" d="M1014.706,593.395c4.667-3.166,10.053-5.459,15.684-5.771c5.631-0.313,11.511,1.526,15.414,5.597
			c3.702,3.86,5.293,9.819,3.492,14.82c0.7-0.108,1.418-0.14,2.118-0.114c1.856,0.066,3.729,0.462,5.347,1.375
			c4.059,2.288,4.888,8.46,2.632,12.548c0.01,0.04,0.018,0.078,0.027,0.118c1.778,0.703,3.169,2.281,3.6,5.009
			c0.456,2.886-0.99,6.084-3.646,7.306c-1.729,0.795-3.781,0.684-5.525-0.095c-0.659,2.822-3.368,4.85-6.199,5.583
			c-4.587,1.188-9.794-0.517-12.79-4.188s-3.623-9.114-1.54-13.37c0.929-1.899,2.325-3.531,3.344-5.385
			c2.405-4.376,0.974-6.82-2.209-8.108c-0.02,0.014-0.043,0.021-0.063,0.035c-0.46,0.369-2.924,4.867-2.632,5.134
			c-0.658-0.604-0.698-1.602-0.877-2.477c-0.328-1.613-1.219-2.964-2.32-4.198c-2.871-0.837-5.021-2.072-8.108-4.431
			C1017.388,600.44,1014.14,597.211,1014.706,593.395z"/>
	</g>
	<path fill="#FFC2B0" d="M985.096,738.756c0,0-4.405,2.928-7.104,5.011c-1.329,1.026-1.486,1.754-0.066,1.726
		c1.419-0.028,3.733-0.987,4.146-0.691c0.411,0.297,1.064,2.516,0.072,3.651c-0.991,1.136-3.371,3.922-3.724,6.566
		c-0.354,2.645,0.212,5.575,0.721,5.667c0.51,0.091,1.015-0.021,1.875-2.676c0.859-2.654,5.742-12.186,9.505-16.826
		c3.763-4.64,5.265-5.583,5.265-5.583l-4.218-2.959C991.567,732.642,987.209,737.902,985.096,738.756z"/>
	<path fill="#60C0FD" d="M1027.992,700.596c0.172-0.258,1.166-1.017,1.912-3.429c0.025,0.016,0.05,0.028,0.075,0.044
		c1.345-3.818,5.52-13.438,9.774-22.417h0.001c0.008-0.018,0.016-0.033,0.023-0.051c0.382-0.806,0.764-1.604,1.145-2.394
		c3.836-7.688,7.724-12.151,8.709-16.72c1.889-8.755-2.656-11.156-5.946-11.318c-1.055-0.298-5.149,1.283-5.737,1.908
		c-6.855,8.23-6.868,11.076-11.506,21.583c0.001,0,0.001,0,0.001,0c-4.049,9.331-8.201,19.362-9.371,23.611
		c-3.162,4.46-5.45,10.645-8.18,15.184c-3.122,5.192-19.134,27.387-20.888,29.244c1.031,1.549,1.873,2.304,4.128,3.819
		c1.666-1.004,11.125-11.73,12.508-12.977C1014.526,717.777,1021.447,710.414,1027.992,700.596z"/>
</g>
<g>
	<g>
		<path fill="#BC9371" d="M321.848,728.785c0,0-4.246,71.541-6.216,88.811c-1.969,17.27-5.681,104.308-5.681,104.308l-5.644,1.942
			l-5.126-1.942c0,0-3.638-63.664-5.494-77.505c-1.856-13.842-9.091-92.188-9.606-106.11
			C283.566,724.364,310.446,682.575,321.848,728.785z"/>
		<path fill="#CEAB8B" d="M293.851,733.589c0,0-7.918,64.459-10.902,81.582c-2.984,17.124-12.729,106.362-12.729,106.362
			l-4.257,2.847l-4.265-1.4c0,0-1.22-71.404-2.256-85.331s-1.471-95.803-1.165-109.732
			C258.582,713.986,285.193,686.786,293.851,733.589z"/>
		<path fill="#FFAA81" d="M310.13,917.783c0,1.327-0.134,5.121-0.123,5.45c-2.644,3.403-7.149,2-10.735-0.059
			c-0.015-0.417-0.208-3.244-0.228-3.666C302.67,920.661,306.761,919.841,310.13,917.783z"/>
		<path fill="#FFAA81" d="M270.561,918.423c0.002,0.217-0.344,3.946-0.339,4.165c0,0-3.853,2.924-7.125,2.048
			c-0.463-0.124-0.916-0.288-1.37-0.446c-0.066-0.627-0.025-4.686-0.084-5.347C264.567,919.727,267.907,919.675,270.561,918.423z"/>
		<g>
			<path fill="#BC9371" d="M254.396,930.762c1.372-1.113,3.5-1.61,4.903-2.73c0.688-0.549,2.292-1.479,2.349-2.094
				c0.053-0.578,0.077-1.748,0.043-2.605c3.123,0.371,5.707,0.038,8.561-1.179c-0.007,0.846-0.077,1.363-0.07,2.175
				c0.406,1.89,0.66,2.171,0.876,4.055c0.251,2.184,0.62,4.914-1.033,6.674c-1.228,1.307-3.207,1.433-5,1.421
				c-2-0.014-7.426,0.283-8.066,0.221C255.016,936.509,248.549,935.507,254.396,930.762z"/>
			<path fill="#230E04" d="M270.915,933.591c-0.194,0.533-0.479,1.029-0.889,1.466c-1.228,1.307-3.207,1.433-5,1.421
				c-2-0.014-10.248,0.224-10.888,0.161c-1.362-0.133-2.119-0.607-2.128-2.547C259.144,931.354,262.369,935.359,270.915,933.591z"/>
		</g>
		<g>
			<path fill="#BC9371" d="M299.23,922.864c0.779,0.211,8.384,0.611,10.807-1.024c-0.014,1.164-0.036,2.626-0.036,2.626
				s10.559,1.011,21.348,4.492c10.789,3.481,11.375,7.253-3.308,6.418c-26.446,0.584-28.282,0.668-28.365-5.888
				C299.661,928.287,299.467,924.505,299.23,922.864z"/>
			<path fill="#230E04" d="M335.549,932.726c1.001,0.001,1.768-0.36,2.306-0.913c3.434,2.362,0.804,4.167-9.813,3.563
				c-13.129,0.29-22.18,0.596-25.975-0.112c-2.654-0.495-1.723-1.557-2.136-3.164C311.8,932.366,323.661,932.717,335.549,932.726z"
				/>
		</g>
	</g>
	<path fill="#56B7ED" d="M304.118,627.883c7.755-0.161,17.674,12.118,19.041,23.861c0.12,1.027,1.038,5.475,2.177,9.847
		c3.028,11.234,6.22,22.565,9.679,26.703c7.86,9.404,41.289,3.101,52.593-0.432c0.647,2.077-0.047,2.682-0.461,6.207
		c-1.741,0.887-14.177,5.441-15.948,6.268c-4.314,2.015-8.741,3.815-13.303,5.191c-4.793,1.445-9.784,2.449-14.807,2.449
		c-4.841-0.001-9.713-1.014-13.895-3.528c-1.979-1.189-3.765-2.686-5.311-4.399c-6.359-7.049-12.181-19.283-16.009-30.882
		c-3.253-6.646-6.754-13.007-8.213-17.193C294.497,637.159,297.194,628.025,304.118,627.883z"/>
	<path fill="#FED4C6" d="M287.495,622.674c-1.779,0.331-3.594,0.376-5.293,0.649c-1.69,0.271-3.381,0.548-5.061,0.421
		c-0.001-2.354-0.183-4.928-0.109-7.094c3.428,1.991,7.019,0.897,10.503-0.466C287.466,618.302,287.397,620.545,287.495,622.674z"/>
	<path fill="#60C0FD" d="M260.367,708.396c3.51-13.381,4.682-31.089,1.529-40.986c-6.277-19.7-3.081-33.604,7.223-39.612
		c1.905-1.111,4.026-2.11,6.32-2.88c0.179-0.455,0.354-0.913,0.492-1.381c0.366-1.24,0.583-2.518,0.636-3.775
		c0.027-0.638,1.71-0.032,2.19,0.033c0.894,0.124,1.794,0.199,2.696,0.23c2.343,0.08,4.534-0.396,6.708-0.996
		c0.155,1.544,0.397,3.04,1.101,4.621c0.011,0.024,0.023,0.047,0.034,0.07c4.176-0.221,10.51-0.387,16.343,4.779
		c11.699,10.778,4.454,32.45,10.66,59.615c7.412,32.438,5.611,41.588,5.611,41.588s-43.002,8.771-63.777-0.872
		C258.134,728.831,257.132,720.731,260.367,708.396z"/>
	<path fill="#56B7ED" d="M287.166,732.361c-9.145-8.762-12.691-20.051-13.545-32.39c-0.372-5.375-0.178-10.766-0.3-16.147
		c-0.125-5.493-0.828-8.406-2.643-14.339c-3.502-11.451-7.909-22.519-8.651-34.499c-4.248,7.392-4.588,18.437-0.131,32.424
		c3.153,9.897,1.981,27.605-1.529,40.986c-3.235,12.335-2.233,20.435-2.233,20.435c7.981,3.704,19.242,4.69,30.085,4.501
		C287.866,733.011,287.511,732.693,287.166,732.361z"/>
	<path fill="#FED4C6" d="M295.88,584.734c0,0-0.143,7.077,0.833,12.72c0.976,5.643,3.414,19.688-6.193,20.313
		c-9.606,0.625-14.173-0.204-16.341-2.6c-2.168-2.396-10.493-17.028-6.429-24.605C271.814,582.986,289.044,572.659,295.88,584.734z"
		/>
	<path fill="#915151" d="M264.516,594.075c-0.008-4.223,1.507-9.173,5.537-10.433c0.886-0.277,3.111-4.4,4.125-5.271
		c1.814-1.559,3.937-2.711,6.227-3.396c3.24-0.967,8.462-1.794,11.811-0.758c3.088,0.956,5.364,3.777,5.768,7.054
		c0.731,5.927-4.74,6.785-9.37,6.756c-2.789-0.019-5.634,0.123-8.247,1.101c-2.612,0.979-4.989,2.913-5.897,5.551
		c-0.837,2.43-0.35,5.023,0.133,7.592c0.664,1.875,1.389,3.734,2.396,5.406c1.158,1.104,2.997,1.493,4.637,1.274
		c2.407-0.301,10.139-3.005,14.306-2.287c0.417-0.115,0.834-0.231,1.251-0.347c0.345-0.096,0.731-0.185,1.036,0.023
		c0.936,0.64,0.965,3.544,0.631,4.597c-0.247,0.777-0.896,1.877-1.606,2.694c-1.701,2.829-4.402,3.83-7.692,4.186
		c-2.056,0.223-5.584,1.155-7.548,0.177c-1.264-0.629-1.716-1.691-2.007-2.864c-0.796-0.706-1.604-1.977-1.999-2.461
		c-1.063-1.304-2.083-2.645-3.055-4.018c-0.722-1.019-1.428-2.077-1.786-3.272c-0.215-0.717-0.299-1.465-0.383-2.209
		c-0.036-0.318-0.071-0.637-0.107-0.955c-0.065-0.242-0.119-0.485-0.144-0.719c-0.148-1.406-0.326-3.172-1.663-3.632
		c-1.422,2.388-0.586,5.448,0.496,8.008c0.117,0.277,0.238,0.558,0.358,0.838c0.224,0.083,0.452,0.21,0.685,0.443
		c0.399,0.401,0.664,0.914,0.913,1.422c1.123,2.292,2.06,4.688,2.577,7.188c0.055,0.266,0.094,0.576-0.088,0.776
		c-0.306,0.338-0.856,0.043-1.2-0.257c-1.166-1.016-2.348-2.067-3.288-3.281c-0.083-0.092-0.162-0.184-0.235-0.276
		C266.886,607.482,264.53,600.793,264.516,594.075z"/>
	<path fill="#60C0FD" d="M268.469,637.307c3.664,6.125-1.625,19.651-10.388,26.1c-0.766,0.563-3.901,3.326-6.877,6.229l0,0
		c-7.598,7.543-14.037,17.082-15.767,21.732c-5.744,15.443,22.548,36.987,22.548,36.987s1.318,1.212,2.71,3.217
		c1.776,2.559,1.741,6.103-0.394,4.802c-3.009-1.833-6.922-4.258-10.559-6.688c-7.729-5.166-37.037-22.122-29.937-43.673
		c2.733-8.297,9.856-18.528,17.381-26.878c3.828-5.63,7.315-11.329,9.995-14.404C256.667,633.848,265.197,631.838,268.469,637.307z"
		/>
	<path fill="#FED4C6" d="M274.293,740.38c0.5,0.262,1.118,0.286,1.637,0.064c0.103-0.043,0.203-0.099,0.292-0.167
		c0.103-0.08,0.189-0.178,0.242-0.296c0.083-0.184,0.074-0.399,0.011-0.591c-0.061-0.184-0.19-0.328-0.264-0.499
		c0.185-0.012,0.362,0.128,0.552,0.149c0.235,0.027,0.476-0.005,0.692-0.104c0.222-0.102,0.453-0.247,0.519-0.482
		c0.124-0.438-0.339-0.879-0.596-1.177c-0.29-0.336-0.611-0.644-0.957-0.921c0.198,0.004,0.394-0.021,0.581-0.094
		c0.084-0.032,0.166-0.073,0.231-0.136c0.245-0.231,0.175-0.636,0.048-0.949c-0.439-1.087-1.334-1.955-2.318-2.563
		c-1.038-0.64-1.999-1.399-3.042-2.031c-0.497-0.301-0.949-0.689-1.491-0.912c-0.615-0.252-1.3-0.224-1.952-0.215
		c-2.294,0.029-4.571,0.17-6.807,0.722c-0.237,0.058-0.459,0.125-0.674,0.2l-3.011-2.024l-3.255,4.565l3.181,2.048
		c0.003,0.027-0.002,0.057,0.002,0.084c0.165,0.93,0.704,1.709,1.486,2.231c0.714,0.476,1.584,0.814,2.415,1.023
		c0.415,0.104,0.844,0.203,1.268,0.208c0.923,0.01,1.848-0.003,2.764-0.162c0.406-0.071,0.812-0.146,1.231-0.148
		c0.331-0.002,0.585,0.087,0.81,0.319c0.549,0.568,1.272,0.899,1.896,1.366c0.112,0.083,0.255,0.13,0.388,0.184
		c0.841,0.341,1.92,0.677,2.838,0.611c0.249-0.019,0.502-0.087,0.711-0.228c0.116-0.077,0.17-0.205,0.335-0.178
		C274.142,740.295,274.217,740.341,274.293,740.38z"/>
	<path fill="#2C4482" d="M482.98,551.623c-7.848-44.191-47.785-75.673-93.091-73.519c-44.741,2.128-81.051,37.628-84.842,82.899
		c-3.451,41.204,23.628,86.839,77.37,96.025c0,0,0.934,0.173,2.563,0.368l-0.286,46.404c-2.384,1.28-4.019,3.796-4.027,6.679
		l-1.924,220.907c-0.012,4.18,3.398,7.61,7.578,7.623l11.607,0.033c4.18,0.013,7.61-3.397,7.622-7.578l1.924-220.907
		c0.008-2.883-1.611-5.407-3.988-6.702l0.286-46.445c0.823-0.1,1.655-0.215,2.496-0.349c28.512-4.489,50.558-18.781,65.475-43.282
		C483.401,594.633,486.899,573.69,482.98,551.623z M394.347,644.479c-42.373-0.124-76.622-34.574-76.498-76.946
		s34.574-76.621,76.946-76.497c42.373,0.124,76.622,34.574,76.498,76.946S436.719,644.604,394.347,644.479z"/>
	
		<rect x="387.1" y="658.418" transform="matrix(0.9999 0.0124 -0.0124 0.9999 8.4999 -4.7781)" fill="#2F4D8E" width="2.591" height="45.118"/>
	<polygon fill="#2F4D8E" points="385.254,931.511 382.664,931.479 384.616,709.327 387.208,709.36 	"/>
	<path fill="#FED4C6" d="M409.806,682.119c-0.072-0.448-0.106-1.851-0.572-2.253s-2.046-0.528-2.965-0.474
		c-0.621,0.037-1.434,0.116-1.875,0.244c-1.009,0.294-2.216,0.456-2.648,1.295c-0.227,0.713-0.003,1.041,0.688,1.197
		c-0.806,0.149-1.737,1.87,0.153,2.334c-1.932,0.51-1.75,2.145,0.296,2.669c-1.065-0.273-0.747,1.844,0.211,2.182
		c1.706,0.604,3.064,0.818,4.245,0.389c1.131-0.411,1.288-1.466,1.431-2.146C409.376,686.019,410.02,683.443,409.806,682.119z"/>
	<circle fill="#FFFFFF" cx="394.474" cy="567" r="79"/>
	<path fill="#C2D4EA" d="M427.095,512.089c-2.749-1.372-5.553-2.513-8.389-3.434c24.06,16.884,32.805,49.273,19.282,76.369
		c-7.949,15.927-21.987,26.797-37.885,31.215c1.136,3.399,2.271,6.798,3.407,10.197c20.917-1.193,40.627-13.25,50.654-33.339
		C469.059,563.253,456.94,526.984,427.095,512.089z"/>
</g>
</svg>
