<?xml version="1.0" encoding="utf-8"?>
<!-- Generator: Adobe Illustrator 16.0.0, SVG Export Plug-In . SVG Version: 6.00 Build 0)  -->
<!DOCTYPE svg PUBLIC "-//W3C//DTD SVG 1.1//EN" "http://www.w3.org/Graphics/SVG/1.1/DTD/svg11.dtd">
<svg version="1.1" id="Layer_1" xmlns="http://www.w3.org/2000/svg" xmlns:xlink="http://www.w3.org/1999/xlink" x="0px" y="0px"
	 width="51.68px" height="55.199px" viewBox="0 0 51.68 55.199" enable-background="new 0 0 51.68 55.199" xml:space="preserve">
<path fill="#FFFFFF" d="M267,311h90c2.762,0,5,2.238,5,5v90c0,2.762-2.238,5-5,5h-90c-2.762,0-5-2.238-5-5v-90
	C262,313.238,264.238,311,267,311z"/>
<g>
	<path fill="#4D4D4D" d="M10.149,17.005l14.699,5.131l13.328-11.46c-2.028-1.753-3.54-4.047-4.323-6.641H14.506
		C13.088,8.739,9.261,12.428,4.372,13.8c0.807,13.132,3.885,27.694,19.807,36.927c15.714-9.119,18.93-23.415,19.784-36.408
		L24.756,39.511L10.149,17.005z"/>
	<path fill="#4D4D4D" d="M47.042,10.284H47.03l-1.972,2.606l0.149,0.034l-0.034,0.485c-0.784,13.639-3.862,28.869-20.707,38.484
		l-0.288,0.162l-0.276-0.162C7.058,42.288,3.981,27.047,3.196,13.397l-0.035-0.485c0.116-0.062,8.168-1.429,10.354-9.604
		l0.115-0.427h21.098c0.107,0.25,0.691,3.958,4.323,7.033l2.226-1.914C38.844,6.11,37.288,3.229,37.288,0H11.071
		c0,5.718-4.866,10.341-10.861,10.341c-0.011,0-0.011,0-0.034,0C0.752,27.428,4.118,44.86,24.179,55.34
		C44.24,44.86,47.618,27.428,48.194,10.341h-0.058C47.768,10.342,47.399,10.318,47.042,10.284z"/>
	<polygon fill="#4D4D4D" points="25.214,24.098 14.352,20.304 24.868,36.512 51.679,1.339 	"/>
</g>
</svg>
