<?xml version="1.0" encoding="utf-8"?>
<!-- Generator: Adobe Illustrator 16.0.0, SVG Export Plug-In . SVG Version: 6.00 Build 0)  -->
<!DOCTYPE svg PUBLIC "-//W3C//DTD SVG 1.1//EN" "http://www.w3.org/Graphics/SVG/1.1/DTD/svg11.dtd">
<svg version="1.1" id="Layer_1" xmlns="http://www.w3.org/2000/svg" xmlns:xlink="http://www.w3.org/1999/xlink" x="0px" y="0px"
	 width="234px" height="199px" viewBox="0 0 234 199" enable-background="new 0 0 234 199" xml:space="preserve">
<g>
	<g enable-background="new    ">
		<g>
			<path fill="#2B8FF1" d="M217.035,62.035l-33.966,15.587c-2.558,1.163-4.419,3.954-4.419,6.747v39.085
				c0,2.791,1.628,5.582,4.419,6.743l33.966,15.59c4.887,2.322,10.473-1.398,10.473-6.747V68.782
				C227.508,63.432,221.922,59.941,217.035,62.035z"/>
			<path fill="#2B8FF1" d="M146.549,41.097H22.079c-8.606,0-15.587,6.977-15.587,15.587v94.457c0,8.605,6.981,15.584,15.587,15.584
				h124.47c8.606,0,15.586-6.979,15.586-15.584V56.684C162.365,48.074,155.155,41.097,146.549,41.097z M107.227,108.098
				l-34.428,23.033c-3.489,2.33-7.912-0.232-7.912-4.189V80.879c0-4.187,4.653-6.516,7.912-4.187l34.428,23.03
				C110.254,101.586,110.254,106.234,107.227,108.098z"/>
		</g>
	</g>
</g>
</svg>
