<?xml version="1.0" encoding="utf-8"?>
<!-- Generator: Adobe Illustrator 16.0.0, SVG Export Plug-In . SVG Version: 6.00 Build 0)  -->
<!DOCTYPE svg PUBLIC "-//W3C//DTD SVG 1.1//EN" "http://www.w3.org/Graphics/SVG/1.1/DTD/svg11.dtd">
<svg version="1.1" id="Layer_1" xmlns="http://www.w3.org/2000/svg" xmlns:xlink="http://www.w3.org/1999/xlink" x="0px" y="0px"
	 width="29.399px" height="18.633px" viewBox="33.521 39.371 29.399 18.633" enable-background="new 33.521 39.371 29.399 18.633"
	 xml:space="preserve">
<g transform="translate(50 50) scale(0.69 0.69) rotate(0) translate(-50 -50)">
	<title>46 all</title>
	<title>46 all</title>
	<path fill="#2B8FF1" d="M67.342,35.721c-0.869-0.46-1.892-0.409-2.71,0.102l-8.439,5.37v-0.766c0-3.223-2.608-5.831-5.83-5.831
		H31.949c-3.222,0-5.831,2.608-5.831,5.831V55.77c0,3.223,2.609,5.83,5.831,5.83h18.412c3.222,0,5.83-2.607,5.83-5.83v-0.716
		l8.389,5.32c0.46,0.307,0.921,0.408,1.432,0.408c0.46,0,0.92-0.1,1.278-0.307c0.92-0.46,1.432-1.431,1.432-2.402V38.124
		C68.774,37.102,68.211,36.181,67.342,35.721z M66.522,58.019c0,0.207-0.1,0.359-0.304,0.461c-0.154,0.102-0.307,0.051-0.461,0
		l-9.616-6.087v-8.54l9.616-6.189c0.154-0.102,0.307-0.102,0.461,0c0.153,0.103,0.255,0.256,0.255,0.46L66.522,58.019L66.522,58.019
		z M53.993,40.427V55.77c0,1.994-1.636,3.63-3.631,3.63H31.949c-1.994,0-3.632-1.636-3.632-3.63V40.427
		c0-1.995,1.638-3.632,3.632-3.632h18.412C52.356,36.846,53.993,38.482,53.993,40.427z"/>
</g>
</svg>
