<?xml version="1.0" encoding="utf-8"?>
<!-- Generator: Adobe Illustrator 16.0.0, SVG Export Plug-In . SVG Version: 6.00 Build 0)  -->
<!DOCTYPE svg PUBLIC "-//W3C//DTD SVG 1.1//EN" "http://www.w3.org/Graphics/SVG/1.1/DTD/svg11.dtd">
<svg version="1.1"
	 id="Layer_1" xmlns:dc="http://purl.org/dc/elements/1.1/" xmlns:cc="http://creativecommons.org/ns#" xmlns:rdf="http://www.w3.org/1999/02/22-rdf-syntax-ns#" xmlns:svg="http://www.w3.org/2000/svg" xmlns:sodipodi="http://sodipodi.sourceforge.net/DTD/sodipodi-0.dtd" xmlns:inkscape="http://www.inkscape.org/namespaces/inkscape"
	 xmlns="http://www.w3.org/2000/svg" xmlns:xlink="http://www.w3.org/1999/xlink" x="0px" y="0px" width="100px" height="100px"
	 viewBox="0 0 100 100" enable-background="new 0 0 100 100" xml:space="preserve">
<g transform="translate(50 50) scale(0.69 0.69) rotate(0) translate(-50 -50)" display="none">
	<g display="inline">
		<path fill="#FFFFFF" d="M74.389,61.032c1.533,2.657,4.925,3.565,7.582,2.032l12.848-7.419c1.717-0.994,2.777-2.824,2.777-4.805
			c0-1.984-1.06-3.816-2.777-4.806L33.824,10.819c-1.715-0.993-3.831-0.993-5.548,0c-1.717,0.989-2.775,2.824-2.775,4.805v70.429
			c0,1.986,1.058,3.816,2.775,4.809c0.858,0.494,1.816,0.74,2.773,0.74c0.96,0,1.919-0.246,2.775-0.74l13.801-7.97
			c2.656-1.531,3.565-4.927,2.032-7.58c-1.533-2.657-4.927-3.565-7.582-2.031L36.6,76.444V25.238l44.344,25.603l-4.525,2.61
			C73.766,54.983,72.857,58.379,74.389,61.032z"/>
		<path fill="#FFFFFF" d="M62.349,61.577l-6.2,3.579c-2.654,1.533-3.564,4.928-2.032,7.58c1.029,1.78,2.893,2.777,4.811,2.777
			c0.943,0,1.897-0.239,2.77-0.746l6.203-3.579c2.654-1.533,3.562-4.928,2.032-7.58C68.398,60.953,65.002,60.044,62.349,61.577z"/>
		<path fill="#FFFFFF" d="M93.988,1.206c-2.206,2.128-2.272,5.64-0.146,7.848c10.891,11.313,16.892,26.192,16.892,41.9
			c0,33.311-27.1,60.411-60.411,60.411s-60.411-27.1-60.411-60.411s27.1-60.411,60.411-60.411c3.998,0,7.996,0.391,11.88,1.166
			c3.003,0.599,5.927-1.353,6.526-4.356c0.599-3.008-1.353-5.929-4.356-6.529c-4.6-0.915-9.324-1.38-14.05-1.38
			c-9.652,0-19.018,1.892-27.836,5.622C13.97-11.332,6.321-6.177-0.242,0.389c-6.566,6.563-11.721,14.213-15.324,22.729
			c-3.73,8.817-5.622,18.184-5.622,27.836c0,9.651,1.892,19.017,5.622,27.836c3.603,8.516,8.757,16.164,15.324,22.728
			c6.564,6.567,14.213,11.722,22.729,15.324c8.817,3.731,18.184,5.622,27.836,5.622c9.651,0,19.017-1.891,27.836-5.622
			c8.516-3.602,16.164-8.757,22.728-15.324c6.567-6.564,11.722-14.213,15.324-22.728c3.731-8.819,5.622-18.185,5.622-27.836
			c0-18.595-7.101-36.209-19.998-49.599C99.711-0.853,96.196-0.918,93.988,1.206z"/>
		<path fill="#FFFFFF" d="M87.973-9.853c-2.14-1.328-4.378-2.555-6.643-3.649c-2.763-1.33-6.077-0.171-7.411,2.591
			c-1.329,2.761-0.17,6.076,2.591,7.408c1.916,0.922,3.803,1.961,5.613,3.083c0.911,0.565,1.921,0.834,2.92,0.834
			c1.858,0,3.671-0.93,4.721-2.625C91.379-4.813,90.578-8.236,87.973-9.853z"/>
	</g>
</g>
<g transform="translate(50 50) scale(0.69 0.69) rotate(0) translate(-50 -50)">
	<title>Untitled-1</title>
	<path fill="#FFFFFF" d="M93.92,3.846c-29.226-2.639-58.626-2.639-87.852,0c-10.167,1.015-22.201,10.837-24.6,21.218
		c-3.76,16.781-3.76,34.188,0,50.971c2.399,10.38,14.433,20.202,24.614,21.217c29.223,2.64,58.624,2.64,87.85,0
		c10.166-1.015,22.202-10.837,24.601-21.217c3.756-16.777,3.756-34.178,0-50.956C116.135,14.683,104.099,4.861,93.92,3.846z
		 M32.695,70.539V30.56l34.61,19.989L32.695,70.539z"/>
</g>
</svg>
