<?xml version="1.0" encoding="utf-8"?>
<!-- Generator: Adobe Illustrator 16.0.0, SVG Export Plug-In . SVG Version: 6.00 Build 0)  -->
<!DOCTYPE svg PUBLIC "-//W3C//DTD SVG 1.1//EN" "http://www.w3.org/Graphics/SVG/1.1/DTD/svg11.dtd">
<svg version="1.1" id="Layer_1" xmlns="http://www.w3.org/2000/svg" xmlns:xlink="http://www.w3.org/1999/xlink" x="0px" y="0px"
	 width="35.875px" height="24px" viewBox="243.75 245 35.875 24" enable-background="new 243.75 245 35.875 24"
	 xml:space="preserve">
<g id="形状_1_3_" enable-background="new    ">
	<g id="形状_1">
		<g>
			<path fill="#005BAC" d="M258.859,253.145l-1.418,8.715h2.269l1.419-8.715H258.859L258.859,253.145z M255.533,253.145
				l-2.163,5.994l-0.256-1.29l0,0l-0.056-0.29c-0.262-0.564-0.868-1.636-2.013-2.551c-0.338-0.271-0.68-0.502-1.01-0.699
				l1.966,7.551h2.364l3.61-8.715H255.533L255.533,253.145z M264.388,255.564c0-0.985,2.209-0.858,3.181-0.324l0.323-1.872
				c0,0-0.999-0.38-2.04-0.38c-1.126,0-3.8,0.492-3.8,2.885c0,2.251,3.138,2.28,3.138,3.461c0,1.184-2.814,0.972-3.744,0.226
				l-0.336,1.957c0,0,1.012,0.492,2.562,0.492c1.548,0,3.883-0.802,3.883-2.983C267.554,256.761,264.388,256.549,264.388,255.564z
				 M273.646,253.145h-1.824c-0.844,0-1.048,0.65-1.048,0.65l-3.383,8.065h2.364l0.474-1.294h2.884l0.266,1.294h2.083
				L273.646,253.145z M270.882,258.777l1.193-3.262l0.671,3.262H270.882z"/>
		</g>
	</g>
</g>
<g id="形状_1_2_" enable-background="new    ">
	<g id="形状_1_1_">
		<g>
			<path fill="#F6AC1D" d="M252.382,253.965c0,0-0.094-0.787-1.097-0.787h-3.643l-0.042,0.148c0,0,1.75,0.357,3.43,1.694
				c1.605,1.278,2.129,2.871,2.129,2.871L252.382,253.965z"/>
		</g>
	</g>
</g>
<path fill="none" stroke="#000000" stroke-width="0.8" stroke-linecap="round" stroke-linejoin="round" stroke-miterlimit="10" d="
	M276.738,268.307h-29.976c-1.253,0-2.269-1.016-2.269-2.269v-17.826c0-1.253,1.016-2.269,2.269-2.269h29.976
	c1.252,0,2.268,1.016,2.268,2.269v17.826C279.006,267.291,277.99,268.307,276.738,268.307z"/>
</svg>
