<?xml version="1.0" encoding="utf-8"?>
<!-- Generator: Adobe Illustrator 16.0.0, SVG Export Plug-In . SVG Version: 6.00 Build 0)  -->
<!DOCTYPE svg PUBLIC "-//W3C//DTD SVG 1.1//EN" "http://www.w3.org/Graphics/SVG/1.1/DTD/svg11.dtd">
<svg version="1.1" id="Layer_1" xmlns="http://www.w3.org/2000/svg" xmlns:xlink="http://www.w3.org/1999/xlink" x="0px" y="0px"
	 width="100px" height="100px" viewBox="0 0 100 100" enable-background="new 0 0 100 100" xml:space="preserve">
<g>
	<g enable-background="new    ">
		<g>
			<path fill="#4285F4" d="M97.625,32.565c-12.6-12.099-29.201-18.7-46.9-18.7c-17.601,0-34.2,6.601-46.898,18.7
				c-0.699,0.701-0.699,1.799,0,2.499l5.401,5.399c0.699,0.701,1.8,0.701,2.4,0c10.599-9.999,24.4-15.499,39.1-15.499
				c14.698,0,28.5,5.5,39.1,15.499c0.701,0.701,1.8,0.6,2.4,0l5.399-5.399C98.425,34.464,98.425,33.265,97.625,32.565z"/>
			<path fill="#4285F4" d="M50.725,33.764c-12.2,0-24.1,4.702-32.8,13.001c-0.701,0.699-0.701,1.8,0,2.499l5.5,5.401
				c0.701,0.699,1.7,0.699,2.399,0c6.7-6.2,15.701-9.701,25-9.701c9.4,0,18.201,3.4,25,9.701c0.701,0.601,1.8,0.601,2.4,0
				l5.399-5.401c0.699-0.699,0.699-1.899,0-2.499C74.625,38.365,63.023,33.764,50.725,33.764z"/>
			<path fill="#4285F4" d="M50.725,53.664c-7,0-13.6,2.501-18.801,7.102c-0.798,0.698-0.798,1.799-0.099,2.601l5.401,5.397
				c0.6,0.602,1.599,0.701,2.298,0.102c6.301-5.2,15.901-5.2,22.101,0c0.699,0.6,1.698,0.5,2.298-0.102l5.401-5.397
				c0.699-0.701,0.699-1.901-0.1-2.601C64.324,56.165,57.725,53.664,50.725,53.664z"/>
			<path fill="#4285F4" d="M50.725,73.564c-4.7,0-8.5,3.8-8.5,8.5c0,4.699,3.8,8.5,8.5,8.5c4.7,0,8.5-3.801,8.5-8.5
				C59.225,77.364,55.425,73.564,50.725,73.564z"/>
		</g>
	</g>
</g>
</svg>
