<?xml version="1.0" encoding="utf-8"?>
<!-- Generator: Adobe Illustrator 16.0.0, SVG Export Plug-In . SVG Version: 6.00 Build 0)  -->
<!DOCTYPE svg PUBLIC "-//W3C//DTD SVG 1.1//EN" "http://www.w3.org/Graphics/SVG/1.1/DTD/svg11.dtd">
<svg version="1.1" id="Layer_1" xmlns="http://www.w3.org/2000/svg" xmlns:xlink="http://www.w3.org/1999/xlink" x="0px" y="0px"
	 width="100px" height="100px" viewBox="0 0 100 100" enable-background="new 0 0 100 100" xml:space="preserve">
<g transform="translate(50 50) scale(0.69 0.69) rotate(0) translate(-50 -50)">
	<title>Artboard 5</title>
	<g>
		<path fill="#4285F4" d="M86.022,59.133v0.449h-24.85C56.345,47.116,42.321,40.926,29.855,45.76
			c-6.537,2.533-11.657,7.78-14.028,14.378v-0.556H-8.917V42.006h23.596l3.583-6.309l5.376-9.245h28.791
			c-0.359-2.13-0.539-4.286-0.538-6.449c0-2.041,0.157-4.075,0.467-6.094H20.518c-2.586-0.028-4.993,1.342-6.289,3.586L7.403,29.465
			h-21.605c-3.961-0.051-7.207,3.119-7.258,7.074c0,0.031,0,0.061,0,0.092v66.919c0,3.959,3.208,7.167,7.166,7.167
			c0.03,0,0.061,0,0.091,0H91.307c3.961,0.051,7.207-3.119,7.258-7.075c0-0.031,0-0.061,0-0.092V58.847
			C94.427,59.62,90.192,59.716,86.022,59.133z M38.543,56.536c6.443-0.01,11.675,5.204,11.685,11.645
			c0.008,6.444-5.206,11.672-11.649,11.682c-6.441,0.01-11.67-5.203-11.68-11.647c0-0.01,0-0.023,0-0.035
			C26.909,61.756,32.118,56.547,38.543,56.536z M-8.917,98.265V72.124h23.596c2.143,13.184,14.571,22.135,27.756,19.993
			c10.269-1.671,18.321-9.723,19.993-19.993h23.595v26.141H-8.917z"/>
		<path fill="#4285F4" d="M91.399-10.527C74.577-10.642,60.848,2.9,60.731,19.722c-0.055,8.418,3.373,16.483,9.474,22.284
			c1.506,1.466,3.17,2.764,4.959,3.869c2.171,1.37,4.506,2.455,6.953,3.225l0,0c1.288,0.414,2.607,0.736,3.942,0.967
			c4.162,0.753,8.434,0.626,12.541-0.378c16.443-3.56,26.885-19.774,23.321-36.216C118.831-0.8,106.038-10.872,91.435-10.527H91.399
			z M107.668,23.515H94.981V36.22h-7.166V23.587H75.129V16.42h12.687V3.736h7.166V16.42h12.687V23.515z"/>
	</g>
</g>
</svg>
