<?xml version="1.0" encoding="utf-8"?>
<!-- Generator: Adobe Illustrator 16.0.0, SVG Export Plug-In . SVG Version: 6.00 Build 0)  -->
<!DOCTYPE svg PUBLIC "-//W3C//DTD SVG 1.1//EN" "http://www.w3.org/Graphics/SVG/1.1/DTD/svg11.dtd">
<svg version="1.1" id="Layer_1" xmlns="http://www.w3.org/2000/svg" xmlns:xlink="http://www.w3.org/1999/xlink" x="0px" y="0px"
	 width="100px" height="100px" viewBox="0 0 100 100" enable-background="new 0 0 100 100" xml:space="preserve">
<g transform="translate(50 50) scale(0.69 0.69) rotate(0) translate(-50 -50)">
	<path fill="#4285F4" d="M98.764-6.677l13.104,32.675c0.074,0.245,0.147,0.46,0.217,0.677l0.031,0.048l0.018,0.049
		c0.432,1.272,0.647,2.548,0.647,3.799c-0.045,4.304-2.403,8.274-6.175,10.365c-1.323,0.718-3.272,1.104-5.605,1.104
		c-3.994,0-7.551-1.923-9.763-5.29c-0.481-0.986-1.394-2.644-2.957-4.328c-3.296-3.581-7.862-5.555-12.915-5.555
		c-5.167,0-10.1,2.214-13.178,5.893c-1.27,1.464-2.09,2.887-2.692,4.064c-2.163,3.269-5.674,5.217-9.497,5.241
		c-3.92-0.024-7.406-1.947-9.619-5.266c-0.458-0.937-1.32-2.477-2.625-3.944c-3.17-3.705-8.004-5.816-13.319-5.816
		c-5.192,0-9.904,2.018-12.937,5.554c-1.155,1.297-2.118,2.765-2.908,4.399c-2.189,3.221-5.772,5.123-9.667,5.144
		c-2.284,0-4.186-0.383-5.507-1.081c-3.823-2.021-6.204-5.987-6.204-10.34c0-1.25,0.217-2.527,0.623-3.773
		c0.098-0.242,0.168-0.482,0.217-0.723L1.98-6.677H98.764 M100.376-16.295H0.03c-4.712,0-5.674,2.788-5.959,3.701L-21.082,23.19
		c-0.021,0.167-0.069,0.359-0.118,0.527c-0.795,2.282-1.178,4.666-1.178,6.973c0,7.891,4.328,15.149,11.301,18.855
		c2.715,1.443,6.111,2.189,10.027,2.189c7.381-0.025,14.163-3.799,18.083-10.124c0.289-0.701,0.79-1.708,1.707-2.72
		c1.224-1.487,3.439-2.26,5.698-2.26c2.287,0,4.642,0.819,6.061,2.526c0.722,0.792,1.177,1.732,1.442,2.283
		c3.941,6.349,10.654,10.173,18.035,10.197c7.282-0.024,13.995-3.821,17.89-10.168c0.337-0.696,0.793-1.613,1.611-2.527
		c1.25-1.537,3.435-2.527,5.871-2.527c3.003,0,4.808,1.35,5.84,2.453c0.893,0.963,1.345,1.974,1.639,2.552
		c3.966,6.396,10.72,10.169,18.153,10.169c4.038,0,7.474-0.795,10.223-2.283c6.852-3.774,11.106-10.939,11.178-18.755
		c0-2.332-0.384-4.666-1.178-6.953c-0.072-0.188-0.122-0.432-0.195-0.697L106.844-12.4
		C105.667-15.842,102.324-16.153,100.376-16.295z M104.32,116.296H-4.344c-6.639,0-12.048-5.409-12.048-12.044V64.934
		c0-2.647,2.165-4.809,4.81-4.809s4.809,2.163,4.809,4.809v39.317c0,1.319,1.109,2.423,2.429,2.423H104.32
		c1.326,0,2.43-1.104,2.43-2.423V64.934c0-2.647,2.164-4.809,4.809-4.809c2.648,0,4.811,2.163,4.811,4.809v39.317
		C116.369,110.887,110.981,116.296,104.32,116.296z"/>
	<path fill="#4285F4" d="M86.574,19.412H11.356c-2.593,0-4.687-2.165-4.687-4.859c0-2.69,2.094-4.859,4.687-4.859H86.55
		c2.6,0,4.689,2.169,4.689,4.859C91.289,17.248,89.15,19.412,86.574,19.412z"/>
</g>
</svg>
