<?xml version="1.0" encoding="utf-8"?>
<!-- Generator: Adobe Illustrator 16.0.0, SVG Export Plug-In . SVG Version: 6.00 Build 0)  -->
<!DOCTYPE svg PUBLIC "-//W3C//DTD SVG 1.1//EN" "http://www.w3.org/Graphics/SVG/1.1/DTD/svg11.dtd">
<svg version="1.1" id="Layer_1" xmlns="http://www.w3.org/2000/svg" xmlns:xlink="http://www.w3.org/1999/xlink" x="0px" y="0px"
	 width="100px" height="100px" viewBox="0 0 100 100" enable-background="new 0 0 100 100" xml:space="preserve">
<path fill="#FFFFFF" d="M542,667h90c2.762,0,5,2.238,5,5v90c0,2.762-2.238,5-5,5h-90c-2.762,0-5-2.238-5-5v-90
	C537,669.238,539.238,667,542,667z"/>
<rect x="23" y="20" fill="#FFFFFF" width="54.25" height="57"/>
<path fill="#4D4D4D" d="M50.085,0.085C22.571,0.085,0.17,22.486,0.17,50c0,27.513,22.401,49.915,49.915,49.915
	C77.598,99.915,100,77.513,100,50C100,22.486,77.598,0.085,50.085,0.085z M72.533,48.148l-6.85,6.679
	c-0.43,0.43-0.6,0.941-0.515,1.542l1.627,9.42c0.342,1.971-0.43,3.854-2.056,5.052c-0.941,0.686-1.97,0.944-2.998,0.944
	c-0.855,0-1.626-0.174-2.397-0.6l-8.478-4.455c-0.514-0.258-1.113-0.258-1.626,0l-8.479,4.455c-1.711,0.939-3.767,0.77-5.395-0.429
	c-1.627-1.2-2.397-3.084-2.054-5.052l1.626-9.422c0.084-0.6-0.085-1.114-0.514-1.54l-6.85-6.681
	c-1.457-1.369-1.885-3.425-1.285-5.224c0.599-1.884,2.226-3.254,4.196-3.51l9.504-1.37c0.6-0.086,1.028-0.428,1.285-0.942
	l4.282-8.564c0.428-0.855,1.114-1.626,1.885-2.14c0.771-0.515,1.712-0.771,2.739-0.771c1.97,0,3.769,1.112,4.625,2.911l4.282,8.564
	c0.256,0.514,0.77,0.855,1.282,0.942l9.508,1.37c1.969,0.256,3.51,1.626,4.195,3.51C74.503,44.808,73.988,46.777,72.533,48.148z"/>
</svg>
