<svg xmlns="http://www.w3.org/2000/svg" xmlns:xlink="http://www.w3.org/1999/xlink" width="100" height="100" viewBox="0 0 100 100"><rect width="100%" height="100%" fill="#ffffff" rx="5" ry="5"></rect><g transform="translate(50 50) scale(0.69 0.69) rotate(0) translate(-50 -50)" style="fill:#4d4d4d"><svg fill="#4d4d4d" xmlns="http://www.w3.org/2000/svg" xmlns:xlink="http://www.w3.org/1999/xlink" version="1.1" x="0px" y="0px" viewBox="0 0 500 500" enable-background="new 0 0 500 500" xml:space="preserve"><g><g><path d="M249.8,15.6C120.4,15.6,15.5,120.6,15.5,250c0,129.4,104.9,234.3,234.3,234.3S484.1,379.4,484.1,250    C484.1,120.6,379.2,15.6,249.8,15.6z M123.3,288.2c-21.1,0-38.3-17.1-38.3-38.3c0-21.1,17.1-38.3,38.3-38.3s38.3,17.1,38.3,38.3    C161.6,271.1,144.5,288.2,123.3,288.2z M253.9,288.2c-21.1,0-38.3-17.1-38.3-38.3c0-21.1,17.1-38.3,38.3-38.3    c21.1,0,38.3,17.1,38.3,38.3C292.2,271.1,275.1,288.2,253.9,288.2z M384.6,288.2c-21.1,0-38.3-17.1-38.3-38.3    c0-21.1,17.1-38.3,38.3-38.3c21.1,0,38.3,17.1,38.3,38.3C422.8,271.1,405.7,288.2,384.6,288.2z"></path><g><path d="M384.6,283.2c-13.8-0.2-26.6-8.7-31.3-21.9c-4.7-13.2-0.7-28.2,10.2-37.1c10.6-8.8,26.1-9.9,37.9-3     c12,7,18.6,21.3,15.9,34.9C414.1,271.9,400.4,283,384.6,283.2c-6.4,0.1-6.4,10.1,0,10c18.2-0.3,34.4-11.4,40.7-28.6     c6.3-17.1,0.6-36.9-13.5-48.3c-13.8-11.1-33.6-12.7-49-3.7c-15.8,9.3-23.9,27.7-20.6,45.6c3.7,20.4,22.1,34.7,42.5,35     C391,293.4,391,283.4,384.6,283.2z"></path><path d="M253.9,283.2c-13.8-0.2-26.6-8.7-31.3-21.9c-4.7-13.2-0.7-28.2,10.2-37.1c10.6-8.8,26.1-9.9,37.9-3     c12,7,18.6,21.3,15.9,34.9C283.5,271.9,269.8,283,253.9,283.2c-6.4,0.1-6.4,10.1,0,10c18.2-0.3,34.4-11.4,40.7-28.6     c6.3-17.1,0.6-36.9-13.5-48.3c-13.8-11.1-33.6-12.7-49-3.7c-15.8,9.3-23.9,27.7-20.6,45.6c3.7,20.4,22.1,34.7,42.5,35     C260.4,293.4,260.4,283.4,253.9,283.2z"></path><path d="M123.3,283.2c-13.8-0.2-26.6-8.7-31.3-21.9c-4.7-13.2-0.7-28.2,10.2-37.1c10.6-8.8,26.1-9.9,37.9-3     c12,7,18.6,21.3,15.9,34.9C152.9,271.9,139.2,283,123.3,283.2c-6.4,0.1-6.4,10.1,0,10c18.2-0.3,34.4-11.4,40.7-28.6     c6.3-17.1,0.6-36.9-13.5-48.3c-13.8-11.1-33.6-12.7-49-3.7c-15.8,9.3-23.9,27.7-20.6,45.6c3.7,20.4,22.1,34.7,42.5,35     C129.8,293.4,129.8,283.4,123.3,283.2z"></path><path d="M249.8,10.6C200.3,10.8,151.3,26.1,111,55c-39.2,28-69.3,67.4-86,112.7C7.7,214.6,5.8,267,19.4,315.1     c13.1,46.6,40.7,88.8,78.1,119.5c37.8,31.1,84.5,50.1,133.4,54c49.7,4,100.3-7.9,142.9-33.8c41-24.9,74.2-62.1,94-105.8     c20.7-45.9,26.5-97.6,16.5-147c-9.6-47.4-34.1-91.4-69-124.8C380.2,43.5,335.1,21,287.1,13.6C274.8,11.7,262.3,10.7,249.8,10.6     c-6.4,0-6.4,10,0,10c47.5,0.1,93.9,14.8,132.7,42.2c37.6,26.6,66.9,64.8,82.7,108.1c16.5,45.2,18.4,95.2,5.4,141.5     c-12.6,44.6-38.9,84.6-74.5,114.2c-36,30-81.3,48.3-128,51.9c-47.6,3.7-95.7-7.5-136.6-32.2C91.9,422.6,60.2,387,41,345.1     c-20-43.6-25.6-93.5-16.1-140.5c9.3-45.8,32.6-88.1,66.4-120.4c33.7-32.3,77-53.6,123.1-60.8c11.7-1.8,23.5-2.6,35.3-2.7     C256.2,20.6,256.2,10.6,249.8,10.6z"></path></g></g></g></svg></g></svg>