<?xml version="1.0" encoding="utf-8"?>
<!-- Generator: Adobe Illustrator 16.0.0, SVG Export Plug-In . SVG Version: 6.00 Build 0)  -->
<!DOCTYPE svg PUBLIC "-//W3C//DTD SVG 1.1//EN" "http://www.w3.org/Graphics/SVG/1.1/DTD/svg11.dtd">
<svg version="1.1" id="Layer_1" xmlns="http://www.w3.org/2000/svg" xmlns:xlink="http://www.w3.org/1999/xlink" x="0px" y="0px"
	 width="100px" height="100px" viewBox="0 0 100 100" enable-background="new 0 0 100 100" xml:space="preserve">
<path fill="#FFFFFF" d="M542,667h90c2.762,0,5,2.238,5,5v90c0,2.762-2.238,5-5,5h-90c-2.762,0-5-2.238-5-5v-90
	C537,669.238,539.238,667,542,667z"/>
<rect x="19" y="40.875" fill="#FFFFFF" width="61.375" height="18.25"/>
<g transform="translate(50 50) scale(0.69 0.69) rotate(0) translate(-50 -50)">
	<g>
		<g>
			<path fill="#4D4D4D" d="M50.013-21c-39.2,0-70.976,31.807-70.976,71.007c0,39.199,31.777,70.976,70.976,70.976
				s70.976-31.777,70.976-70.976C120.989,10.807,89.213-21,50.013-21z M21.43,58.731c-4.821,0-8.749-3.906-8.749-8.748
				c0-4.821,3.906-8.749,8.749-8.749c4.842,0,8.748,3.906,8.748,8.749C30.178,54.825,26.272,58.731,21.43,58.731z M51.262,58.731
				c-4.819,0-8.749-3.906-8.749-8.748c0-4.821,3.908-8.749,8.749-8.749c4.821,0,8.749,3.906,8.749,8.749
				C60.012,54.825,56.106,58.731,51.262,58.731z M81.117,58.731c-4.818,0-8.748-3.906-8.748-8.748c0-4.821,3.906-8.749,8.748-8.749
				c4.821,0,8.749,3.906,8.749,8.749C89.844,54.825,85.938,58.731,81.117,58.731z"/>
			<g>
				<path fill="#4D4D4D" d="M81.117,57.59c-3.152-0.045-6.074-1.988-7.147-5.003c-1.073-3.015-0.161-6.441,2.33-8.476
					c2.42-2.011,5.961-2.261,8.656-0.685c2.741,1.6,4.25,4.865,3.633,7.972C87.858,55.007,84.727,57.545,81.117,57.59
					c-1.459,0.024-1.459,2.306,0,2.283c4.16-0.069,7.859-2.604,9.299-6.533c1.439-3.907,0.139-8.428-3.084-11.032
					c-3.152-2.537-7.674-2.902-11.192-0.846c-3.609,2.124-5.462,6.328-4.706,10.417c0.846,4.661,5.047,7.924,9.708,7.994
					C82.58,59.92,82.58,57.636,81.117,57.59z"/>
				<path fill="#4D4D4D" d="M51.262,57.59c-3.152-0.045-6.077-1.988-7.15-5.003s-0.161-6.441,2.331-8.476
					c2.422-2.011,5.961-2.261,8.657-0.685c2.74,1.6,4.249,4.865,3.63,7.972C58.023,55.007,54.894,57.545,51.262,57.59
					c-1.463,0.024-1.463,2.306,0,2.283c4.158-0.069,7.856-2.604,9.296-6.533c1.441-3.907,0.139-8.428-3.081-11.032
					c-3.155-2.537-7.677-2.902-11.195-0.846c-3.608,2.124-5.458,6.328-4.704,10.417c0.845,4.661,5.047,7.924,9.708,7.994
					C52.749,59.92,52.749,57.636,51.262,57.59z"/>
				<path fill="#4D4D4D" d="M21.43,57.59c-3.152-0.045-6.077-1.988-7.152-5.003c-1.074-3.015-0.158-6.441,2.331-8.476
					c2.421-2.011,5.962-2.261,8.657-0.685c2.742,1.6,4.249,4.865,3.632,7.972C28.189,55.007,25.061,57.545,21.43,57.59
					c-1.461,0.024-1.461,2.306,0,2.283c4.157-0.069,7.858-2.604,9.296-6.533c1.44-3.907,0.138-8.428-3.083-11.032
					c-3.151-2.537-7.675-2.902-11.194-0.846c-3.61,2.124-5.459,6.328-4.706,10.417c0.846,4.661,5.048,7.924,9.708,7.994
					C22.914,59.92,22.914,57.636,21.43,57.59z"/>
				<path fill="#4D4D4D" d="M50.013-22.514c-14.995,0.059-29.84,4.695-42.046,13.45C-3.909-0.582-13.029,11.351-18.086,25.075
					c-5.241,14.209-5.816,30.081-1.696,44.653c3.966,14.113,12.329,26.899,23.658,36.198c11.452,9.422,25.598,15.178,40.41,16.36
					c15.056,1.21,30.382-2.395,43.287-10.241c12.421-7.541,22.479-18.811,28.476-32.048c6.271-13.904,8.028-29.565,5-44.53
					c-2.908-14.358-10.332-27.688-20.903-37.804C89.514-12.548,75.852-19.363,61.31-21.605
					C57.585-22.179,53.799-22.484,50.013-22.514c-1.938,0-1.938,3.029,0,3.029c14.389,0.03,28.445,4.483,40.198,12.783
					c11.389,8.06,20.267,19.632,25.051,32.747c5,13.693,5.575,28.838,1.638,42.865c-3.817,13.509-11.785,25.627-22.567,34.594
					c-10.908,9.088-24.629,14.63-38.775,15.721c-14.418,1.12-28.991-2.273-41.381-9.754C2.179,102.29-7.423,91.508-13.239,78.814
					c-6.058-13.206-7.755-28.323-4.879-42.562C-15.298,22.379-8.239,9.566,1.999-0.219c10.208-9.784,23.325-16.236,37.291-18.419
					c3.541-0.545,7.117-0.785,10.693-0.817C51.95-19.485,51.95-22.514,50.013-22.514z"/>
			</g>
		</g>
	</g>
</g>
</svg>
