<svg xmlns="http://www.w3.org/2000/svg" xmlns:xlink="http://www.w3.org/1999/xlink" width="100" height="100" viewBox="0 0 100 100"><rect width="100%" height="100%" fill="#ffffff" rx="5" ry="5"></rect><g transform="translate(50 50) scale(0.69 0.69) rotate(0) translate(-50 -50)" style="fill:#4d4d4d"><svg fill="#4d4d4d" xmlns="http://www.w3.org/2000/svg" xmlns:xlink="http://www.w3.org/1999/xlink" version="1.1" x="0px" y="0px" viewBox="0 0 100 100" style="enable-background:new 0 0 100 100;" xml:space="preserve"><path d="M50,9C27.4,9,9,27.4,9,50s18.4,41,41,41s41-18.4,41-41S72.6,9,50,9z M76.2,48.3l-8,7.8c-0.5,0.5-0.7,1.1-0.6,1.8l1.9,11  c0.4,2.3-0.5,4.5-2.4,5.9c-1.1,0.8-2.3,1.1-3.5,1.1c-1,0-1.9-0.2-2.8-0.7l-9.9-5.2c-0.6-0.3-1.3-0.3-1.9,0l-9.9,5.2  c-2,1.1-4.4,0.9-6.3-0.5c-1.9-1.4-2.8-3.6-2.4-5.9l1.9-11c0.1-0.7-0.1-1.3-0.6-1.8l-8-7.8c-1.7-1.6-2.2-4-1.5-6.1  c0.7-2.2,2.6-3.8,4.9-4.1l11.1-1.6c0.7-0.1,1.2-0.5,1.5-1.1l5-10c0.5-1,1.3-1.9,2.2-2.5s2-0.9,3.2-0.9c2.3,0,4.4,1.3,5.4,3.4l5,10  c0.3,0.6,0.9,1,1.5,1.1l11.1,1.6c2.3,0.3,4.1,1.9,4.9,4.1C78.5,44.4,77.9,46.7,76.2,48.3z M74,43.4c0.2,0.7,0,1.5-0.5,2l-8,7.8  c-1.4,1.4-2.1,3.4-1.7,5.3l1.9,11c0.1,0.8-0.2,1.5-0.8,1.9c-0.6,0.5-1.4,0.5-2.1,0.2l-9.9-5.2c-0.9-0.5-1.8-0.7-2.8-0.7  s-1.9,0.2-2.8,0.7l-9.9,5.2c-0.7,0.4-1.5,0.3-2.1-0.2c-0.6-0.4-0.9-1.2-0.8-1.9l1.9-11c0.3-2-0.3-3.9-1.7-5.3l-8-7.8  c-0.5-0.5-0.7-1.3-0.5-2s0.8-1.2,1.6-1.4l11.1-1.6c2-0.3,3.6-1.5,4.5-3.3l5-10c0.3-0.7,1-1.1,1.8-1.1s1.5,0.4,1.8,1.1l5,10  c0.9,1.8,2.6,3,4.5,3.3l11.1,1.6C73.1,42.2,73.7,42.7,74,43.4z"></path></svg></g></svg>