<?xml version="1.0" encoding="utf-8"?>
<!-- Generator: Adobe Illustrator 16.0.0, SVG Export Plug-In . SVG Version: 6.00 Build 0)  -->
<!DOCTYPE svg PUBLIC "-//W3C//DTD SVG 1.1//EN" "http://www.w3.org/Graphics/SVG/1.1/DTD/svg11.dtd">
<svg version="1.1" id="Layer_1" xmlns="http://www.w3.org/2000/svg" xmlns:xlink="http://www.w3.org/1999/xlink" x="0px" y="0px"
	 width="100px" height="100px" viewBox="0 0 100 100" enable-background="new 0 0 100 100" xml:space="preserve">
<g display="none">
	<polygon display="inline" fill="#DD2323" points="48.587,79.843 28.095,77.468 20.645,44.521 47.33,41.791 	"/>
	<polygon display="inline" fill="#008A83" points="35.597,45.649 28.422,46.519 34.186,78.173 40.095,78.857 	"/>
	<polygon display="inline" fill="#FF4138" points="48.587,79.843 74.846,77.468 82.296,44.521 47.33,41.791 	"/>
	<polygon display="inline" fill="#00C7BD" points="60.225,78.79 67.389,78.143 73.311,43.82 63.686,43.068 	"/>
	<g display="inline">
		<path fill="#008A83" d="M27.882,19.457c0,0-4.332,9.093,13.895,21.944l3.478-2.158c0,0-10.388-9.772-9.969-18.375L27.882,19.457z"
			/>
		<path fill="#00C7BD" d="M53.693,37.197c0,0-7.803-20.942-17.721-23.184l-8.091,5.443c0,0,12.34,5.912,18.11,19.606L53.693,37.197z
			"/>
	</g>
	<g display="inline">
		<path fill="#00534F" d="M24.815,30.823c0,0-1.694,6.151,9.994,9.829l1.818-1.965c0,0-6.879-3.511-7.405-8.574L24.815,30.823z"/>
		<path fill="#00C7BD" d="M41.325,35.767c0,0-6.382-10.505-12.317-9.758l-4.193,4.814c0,0,7.664,0.877,12.223,7.609L41.325,35.767z"
			/>
	</g>
	<polygon display="inline" opacity="0.2" enable-background="new    " points="47.33,41.791 20.645,44.521 21.676,50.377 
		47.75,45.763 	"/>
	<g display="inline">
		<path fill="#008A83" d="M73.406,20.126c0,0,4.332,9.093-13.895,21.944l-3.479-2.158c0,0,10.387-9.772,9.969-18.375L73.406,20.126z
			"/>
		<path fill="#00C7BD" d="M47.595,37.868c0,0,7.803-20.943,17.721-23.185l8.091,5.443c0,0-12.341,5.912-18.108,19.607L47.595,37.868
			z"/>
	</g>
	<circle display="inline" fill="#008A83" cx="51.006" cy="33.146" r="6.002"/>
	<g display="inline">
		<path fill="#00534F" d="M77.506,31.768c0,0,1.693,6.151-9.994,9.829l-1.818-1.964c0,0,6.88-3.512,7.406-8.573L77.506,31.768z"/>
		<path fill="#00C7BD" d="M60.995,36.711c0,0,6.383-10.504,12.317-9.758l4.192,4.814c0,0-7.664,0.877-12.226,7.609L60.995,36.711z"
			/>
	</g>
	<polygon display="inline" opacity="0.2" enable-background="new    " points="82.296,44.521 82.296,44.521 47.793,41.826 
		47.793,45.756 81.188,49.772 	"/>
	<polygon display="inline" fill="#FF4138" points="17.979,49.725 47.33,44.614 47.33,34.303 17.979,39.414 	"/>
	<polygon display="inline" fill="#FF7770" points="84.768,48.752 47.33,44.614 47.33,34.303 84.768,38.44 	"/>
	<polygon display="inline" fill="#50DEDB" points="73.913,37.241 63.902,36.135 63.094,46.212 64.135,46.472 73.009,47.452 	"/>
	<polygon display="inline" fill="#00C7BD" points="28.426,47.906 35.736,46.633 34.882,36.47 27.198,37.808 	"/>
</g>
<g display="none">
	<polygon display="inline" fill="#96B72E" points="67.664,83.646 30.869,83.646 26.326,40.631 74.521,40.631 	"/>
	<polygon display="inline" fill="#768925" points="27.312,49.961 73.033,49.961 74.521,40.631 26.326,40.631 	"/>
	<rect x="21.919" y="34.414" display="inline" fill="#B7DB21" width="57.006" height="11.66"/>
	<rect x="48.004" y="34.414" display="inline" fill="#246AA3" width="4.838" height="49.233"/>
	<path display="inline" fill="#246AA3" d="M39.577,17.441c5.195-2.602,10.896,16.972,10.896,16.972h-2.419
		c0,0-15.241-4.86-15.252-7.73C32.792,23.725,34.382,20.042,39.577,17.441z M48.055,32.989c0,0-8.489-8.744-10.315-8.62
		c-1.826,0.124-2.095,0.812-2.253,1.351C34.897,27.737,48.055,32.989,48.055,32.989z"/>
	<path display="inline" fill="#246AA3" d="M61.319,17.441c-5.195-2.602-10.896,16.972-10.896,16.972h2.419
		c0,0,15.24-4.86,15.252-7.73C68.104,23.725,66.514,20.042,61.319,17.441z M52.842,32.989c0,0,8.488-8.744,10.314-8.62
		c1.826,0.124,2.096,0.812,2.254,1.351C65.999,27.737,52.842,32.989,52.842,32.989z"/>
</g>
<g display="none">
	<rect x="25.077" y="39.851" display="inline" fill="#256299" width="49.298" height="49.3"/>
	<rect x="25.077" y="39.851" display="inline" fill="#184668" width="49.298" height="4.226"/>
	<rect x="20.112" y="29.295" display="inline" fill="#288FCE" width="59.229" height="10.556"/>
	<g display="inline">
		<g>
			<path fill="#D36716" d="M49.727,30.177c-0.266,0-0.517-0.12-0.686-0.326c-0.167-0.206-0.232-0.476-0.178-0.735
				c0.04-0.187,0.97-4.611,2.646-9.377c2.317-6.587,4.868-10.422,7.581-11.401c1.051-0.378,2.688-0.521,4.534,0.949
				c2.384,1.899,3.08,4.519,2.011,7.577C63.374,23.333,53.662,30.177,49.727,30.177z M60.525,9.844c-0.28,0-0.56,0.051-0.839,0.15
				c-4.124,1.489-7.522,12.68-8.817,18.223c3.745-1.099,11.25-6.64,13.102-11.938c0.822-2.35,0.348-4.187-1.445-5.616
				C61.839,10.116,61.178,9.844,60.525,9.844z"/>
			<path fill="#D36716" d="M52.885,30.655c-1.129,0-2.271-0.157-3.424-0.52c-0.464-0.146-0.723-0.642-0.575-1.106
				c0.146-0.465,0.641-0.722,1.104-0.576c4.146,1.307,8.22-0.526,12.531-2.466c4.358-1.959,8.865-3.985,13.513-2.52
				c0.464,0.146,0.722,0.641,0.576,1.105s-0.643,0.721-1.105,0.576c-4.005-1.265-8.016,0.54-12.26,2.447
				C59.888,29.107,56.442,30.655,52.885,30.655z"/>
		</g>
		<g>
			<path fill="#D36716" d="M49.727,30.17c-3.936,0-13.648-6.844-15.911-13.314c-1.068-3.058-0.373-5.678,2.012-7.576
				c1.845-1.471,3.485-1.328,4.535-0.949c2.712,0.979,5.263,4.814,7.58,11.401c1.678,4.766,2.609,9.191,2.648,9.377
				c0.054,0.26-0.012,0.531-0.18,0.736C50.243,30.051,49.992,30.17,49.727,30.17z M38.927,9.838c-0.652,0-1.313,0.272-2.001,0.82
				c-1.793,1.43-2.266,3.266-1.444,5.616c1.852,5.297,9.356,10.837,13.101,11.938c-1.297-5.544-4.695-16.735-8.819-18.223
				C39.486,9.889,39.207,9.838,38.927,9.838z"/>
			<path fill="#D36716" d="M46.566,30.649c-3.556,0-7.001-1.549-10.359-3.058c-4.245-1.909-8.254-3.713-12.26-2.447
				c-0.466,0.145-0.959-0.112-1.105-0.576c-0.147-0.465,0.111-0.959,0.575-1.106c4.647-1.465,9.154,0.562,13.513,2.521
				c4.314,1.939,8.389,3.771,12.531,2.465c0.464-0.146,0.96,0.112,1.107,0.577c0.146,0.464-0.113,0.959-0.577,1.105
				C48.837,30.493,47.697,30.649,46.566,30.649z"/>
		</g>
	</g>
	<rect x="49.021" y="30.13" display="inline" fill="#D36716" width="1.41" height="59.021"/>
</g>
<g>
	<rect x="25.197" y="40.788" fill="#DD7403" width="49.638" height="46.427"/>
	<rect x="25.197" y="26.598" fill="#B76009" width="49.638" height="18.919"/>
	<rect x="20.693" y="26.598" fill="#F4AE00" width="58.647" height="14.189"/>
	<rect x="47.858" y="26.598" fill="#4885ED" width="4.319" height="60.617"/>
	<g>
		<path fill="#4885ED" d="M48.622,26.286c-0.356,0.057-8.167,9.624-8.167,9.624l4.429,1.853l4.43-10.607L48.622,26.286z"/>
		<path fill="#4885ED" d="M52.183,26.286c0.356,0.057,8.167,9.624,8.167,9.624l-4.43,1.853l-4.43-10.607L52.183,26.286z"/>
	</g>
	<g>
		<path fill="#4885ED" d="M49.673,24.89c0.016-0.525,12.419-13.559,12.419-13.559l5.255,9.144l-16.291,5.255L49.673,24.89z"/>
		<path fill="#4885ED" d="M50.36,24.89c-0.016-0.525-12.419-13.559-12.419-13.559l-5.255,9.144l16.291,5.255L50.36,24.89z"/>
	</g>
	<circle fill="#4885ED" cx="50.017" cy="26.598" r="2.159"/>
</g>
<rect x="63.103" y="71.691" fill="#FFFFFF" width="17.253" height="15.871"/>
<g transform="translate(50 50) scale(0.69 0.69) rotate(0) translate(-50 -50)">
	<path fill="#9FC7F7" d="M55.861,81.438c-0.19,0-0.341,0.166-0.341,0.374v4.536c3.315,0.151,5.927,2.88,5.93,6.199
		c-0.001,3.319-2.614,6.05-5.93,6.2v5.316c0,0.208,0.151,0.375,0.341,0.375h45.322c0.187,0,0.338-0.167,0.338-0.375V81.812
		c0-0.209-0.151-0.375-0.338-0.375H71.24v2.458h-1.231v-2.458H55.861V81.438z M91.423,84.79c0.338,0.001,0.614,0.279,0.613,0.62
		c0,0.13-0.042,0.256-0.12,0.361l-10.687,14.995c-0.191,0.28-0.575,0.354-0.855,0.163c-0.282-0.191-0.355-0.576-0.164-0.856
		c0.006-0.008,0.01-0.016,0.016-0.023l10.687-14.994C91.028,84.889,91.219,84.787,91.423,84.79L91.423,84.79z M83.134,85.422
		c1.306,0,2.365,1.057,2.365,2.364s-1.059,2.366-2.365,2.366l0,0c-1.306,0-2.366-1.06-2.365-2.366l0,0
		C80.769,86.48,81.827,85.422,83.134,85.422L83.134,85.422z M70.01,86.362h1.233v2.464H70.01V86.362z M70.01,91.29h1.233v2.465
		H70.01V91.29z M89.123,95.74c1.306,0,2.365,1.059,2.365,2.364c0,1.306-1.059,2.366-2.365,2.366l0,0
		c-1.306,0-2.365-1.06-2.365-2.366l0,0C86.758,96.799,87.817,95.74,89.123,95.74z M70.01,96.221h1.233v2.465H70.01V96.221z
		 M70.01,101.152h1.233v2.464H70.01V101.152z"/>
</g>
</svg>
