<?xml version="1.0" encoding="utf-8"?>
<!-- Generator: Adobe Illustrator 16.0.0, SVG Export Plug-In . SVG Version: 6.00 Build 0)  -->
<!DOCTYPE svg PUBLIC "-//W3C//DTD SVG 1.1//EN" "http://www.w3.org/Graphics/SVG/1.1/DTD/svg11.dtd">
<svg version="1.1" id="Layer_1" xmlns="http://www.w3.org/2000/svg" xmlns:xlink="http://www.w3.org/1999/xlink" x="0px" y="0px"
	 width="100px" height="100px" viewBox="0 0 100 100" enable-background="new 0 0 100 100" xml:space="preserve">
<g transform="translate(50 50) scale(0.69 0.69) rotate(0) translate(-50 -50)">
	<path fill="#4885ED" d="M51.408,0.725c-28.582,0-51.752,23.17-51.752,51.752c0,28.578,23.17,51.752,51.752,51.752
		c28.581,0,51.751-23.171,51.751-51.752C103.159,23.895,79.989,0.725,51.408,0.725z M13.707,71.97
		c0-16.166,14.2-16.163,17.351-20.39l0.359-1.928c-4.426-2.244-7.55-7.652-7.55-13.978c0-8.333,5.42-15.091,12.106-15.091
		c5.264,0,9.732,4.196,11.399,10.048c-6.697,2.126-11.652,9.388-11.652,18.02c0,5.943,2.344,11.406,6.19,14.879
		c-0.616,0.317-1.305,0.637-1.894,0.916c-3.102,1.455-7.401,3.477-10.502,7.525H13.707V71.97z M51.565,84.945H51.25H29.143
		c0-16.167,14.2-16.161,17.35-20.39l0.359-1.928C42.427,60.384,39.3,54.976,39.3,48.65c0-8.334,5.422-15.09,12.108-15.09
		c6.685,0,12.105,6.756,12.105,15.09c0,6.273-3.068,11.648-7.436,13.927l0.409,2.191c3.458,4.022,17.183,4.287,17.183,20.179H51.565
		V84.945z M73.3,71.97c-3.101-4.048-7.401-6.07-10.503-7.524c-0.61-0.287-1.288-0.604-1.891-0.916
		c3.841-3.476,6.186-8.953,6.186-14.881c0-8.63-4.952-15.89-11.648-18.02c1.666-5.849,6.135-10.047,11.4-10.047
		c6.686,0,12.107,6.758,12.107,15.092c0,6.271-3.071,11.644-7.436,13.924l0.408,2.191c3.456,4.021,17.186,4.283,17.186,20.179H73.3
		V71.97z"/>
</g>
</svg>
