<?xml version="1.0" encoding="utf-8"?>
<!-- Generator: Adobe Illustrator 16.0.0, SVG Export Plug-In . SVG Version: 6.00 Build 0)  -->
<!DOCTYPE svg PUBLIC "-//W3C//DTD SVG 1.1//EN" "http://www.w3.org/Graphics/SVG/1.1/DTD/svg11.dtd">
<svg version="1.1" id="Layer_1" xmlns="http://www.w3.org/2000/svg" xmlns:xlink="http://www.w3.org/1999/xlink" x="0px" y="0px"
	 width="100px" height="100px" viewBox="0 0 100 100" enable-background="new 0 0 100 100" xml:space="preserve">
<g>
	<g>
		<polygon fill="#FFC22D" points="46.461,86.416 38.691,86.483 28.467,58.494 26.261,52.453 34.604,52.381 38.593,63.83 		"/>
		<path fill="#F2B41B" d="M38.593,63.83c-3.136-3.401-8.16-4.87-10.126-5.336l-2.206-6.041l8.344-0.072L38.593,63.83z"/>
	</g>
	<g>
		<path fill="#FFC22D" d="M25.223,48.823c0,0-3.141,0.729-5.496,0.884c-0.906,0.061-1.69,0.039-2.144-0.144
			c-1.586-0.639-3.231-8.371-0.349-10.067c0.083-0.049,0.169-0.092,0.261-0.131c3.239-1.37,6.786-0.059,6.786-0.059L25.223,48.823z"
			/>
		<path fill="#F2B41B" d="M19.727,49.707c1.094-5.657-0.916-8.735-2.492-10.211c0.083-0.049,0.169-0.092,0.261-0.131
			c3.239-1.37,6.786-0.059,6.786-0.059l0.942,9.518C25.223,48.823,22.082,49.552,19.727,49.707z"/>
	</g>
	<g>
		<path fill="#FFC22D" d="M72.197,12.983l0.532,61.456c0.001,0.092-0.025,0.176-0.072,0.243c-0.108,0.159-0.323,0.234-0.519,0.145
			c-10.99-5.076-25.043-17.969-32.282-25.038c-1.47-1.433-2.659-2.628-3.485-3.467l-0.039-4.47c1.49-1.536,3.464-3.539,5.77-5.79
			c0.634-0.618,1.292-1.256,1.973-1.908c8.02-7.684,19.037-17.334,27.655-21.468C71.947,12.583,72.195,12.742,72.197,12.983z"/>
		<path fill="#F2B41B" d="M72.657,74.683c-0.108,0.159-0.323,0.234-0.519,0.145c-10.99-5.076-25.043-17.969-32.282-25.038
			l2.246-13.728c0.634-0.618,1.292-1.256,1.973-1.908c2.547,9.667,10.433,32.742,27.632,32.55L72.657,74.683z"/>
		<path fill="#FFCE73" d="M71.778,74.663c-1.324-0.626-2.687-1.332-4.084-2.113c-2.518-6.136-4.236-16.689-4.34-28.686
			c-0.104-11.999,1.427-22.576,3.838-28.759c1.373-0.796,2.72-1.529,4.028-2.168c-3.877,2.579-6.731,15.454-6.598,30.917
			C64.757,59.345,67.844,72.182,71.778,74.663z"/>
	</g>
	<g>
		<path fill="#59114D" d="M44.166,53.713c-1.821,0.544-3.534,0.941-5.138,1.225c-6.645,1.18-11.386,0.382-13.888-0.318
			c-1.319-0.368-2.385-1.352-2.865-2.632c-2.36-6.323-1.004-12.333-0.041-15.238c0.412-1.249,1.363-2.237,2.595-2.7
			c0.396-0.149,0.852-0.303,1.365-0.452c3.406-0.992,9.355-1.73,17.208,1.151L44.166,53.713z"/>
		<path fill="#6B145D" d="M39.028,54.938c-6.645,1.18-11.386,0.382-13.888-0.318c-1.319-0.368-2.385-1.352-2.865-2.632
			c-2.36-6.323-1.004-12.333-0.041-15.238c0.412-1.249,1.363-2.237,2.595-2.7c0.396-0.149,0.852-0.303,1.365-0.452
			C25.587,38.78,25.402,52.163,39.028,54.938z"/>
	</g>
	<path fill="#FFC22D" d="M81.204,43.708c0.15,17.294-3.439,31.344-8.019,31.384c-3.828,0.033-7.136-9.73-8.205-23.038
		c-0.211-2.614-0.333-5.367-0.357-8.202c-0.025-2.861,0.052-5.635,0.219-8.267c0.844-13.297,3.978-23.09,7.801-23.123
		C77.222,12.422,81.054,26.414,81.204,43.708z"/>
	<path fill="#59114D" d="M69.328,43.784c0.042,4.826-1.403,8.751-3.231,8.768c-0.39,0.002-0.764-0.172-1.116-0.497
		c-0.211-2.614-0.333-5.367-0.357-8.202c-0.025-2.861,0.052-5.635,0.219-8.267c0.344-0.331,0.713-0.509,1.104-0.512
		C67.773,35.057,69.286,38.958,69.328,43.784z"/>
</g>
</svg>
