<?xml version="1.0" encoding="utf-8"?>
<!-- Generator: Adobe Illustrator 16.0.0, SVG Export Plug-In . SVG Version: 6.00 Build 0)  -->
<!DOCTYPE svg PUBLIC "-//W3C//DTD SVG 1.1//EN" "http://www.w3.org/Graphics/SVG/1.1/DTD/svg11.dtd">
<svg version="1.1" id="Layer_1" xmlns="http://www.w3.org/2000/svg" xmlns:xlink="http://www.w3.org/1999/xlink" x="0px" y="0px"
	 width="100px" height="100px" viewBox="0 0 100 100" enable-background="new 0 0 100 100" xml:space="preserve">
<path fill="#FFFFFF" d="M542,667h90c2.762,0,5,2.238,5,5v90c0,2.762-2.238,5-5,5h-90c-2.762,0-5-2.238-5-5v-90
	C537,669.238,539.238,667,542,667z"/>
<g transform="translate(50 50) scale(0.69 0.69) rotate(0) translate(-50 -50)">
	<path fill="#4285F4" d="M81.001,9H18.999C13.491,9,9,13.491,9,18.999V21h82v-2.001C91,13.491,86.509,9,81.001,9z M22.959,15.39
		c-0.028,0.13-0.059,0.249-0.109,0.379c-0.05,0.12-0.12,0.231-0.191,0.34c-0.069,0.11-0.15,0.211-0.249,0.3
		c-0.371,0.381-0.88,0.592-1.41,0.592c-0.13,0-0.26-0.011-0.391-0.041c-0.13-0.02-0.249-0.059-0.379-0.109
		c-0.12-0.051-0.231-0.11-0.34-0.19c-0.11-0.071-0.211-0.15-0.311-0.252c-0.089-0.089-0.17-0.19-0.239-0.3
		c-0.081-0.109-0.14-0.219-0.191-0.34c-0.048-0.13-0.079-0.249-0.109-0.379c-0.03-0.13-0.041-0.26-0.041-0.391
		c0-0.529,0.211-1.039,0.58-1.41c0.1-0.099,0.201-0.18,0.311-0.249C20,13.27,20.11,13.199,20.23,13.15
		c0.13-0.05,0.249-0.089,0.379-0.109c0.651-0.13,1.34,0.079,1.8,0.549c0.099,0.091,0.18,0.19,0.249,0.3
		c0.071,0.11,0.142,0.221,0.191,0.34c0.05,0.13,0.081,0.25,0.109,0.381C22.99,14.739,23,14.869,23,14.999
		C23,15.13,22.99,15.26,22.959,15.39z M30.421,16.409C30.04,16.79,29.529,17.001,29,17.001s-1.039-0.211-1.41-0.592
		c-0.099-0.089-0.18-0.19-0.249-0.3C27.27,16,27.199,15.89,27.15,15.761c-0.05-0.122-0.081-0.241-0.109-0.371
		C27.01,15.26,27,15.13,27,14.999c0-0.13,0.01-0.26,0.041-0.389c0.028-0.13,0.059-0.26,0.109-0.381
		c0.05-0.119,0.12-0.229,0.191-0.34c0.069-0.11,0.15-0.209,0.249-0.3c0.74-0.75,2.081-0.75,2.831,0c0.369,0.371,0.58,0.88,0.58,1.41
		C31.001,15.53,30.79,16.04,30.421,16.409z M38.41,16.409c-0.369,0.381-0.88,0.592-1.411,0.592c-0.529,0-1.039-0.211-1.41-0.592
		c-0.379-0.369-0.589-0.879-0.589-1.41c0-0.529,0.209-1.039,0.589-1.41c0.742-0.75,2.081-0.75,2.821,0
		c0.381,0.371,0.59,0.88,0.59,1.41C39,15.53,38.791,16.04,38.41,16.409z M9,81.001C9,86.509,13.491,91,18.999,91h62.002
		C86.509,91,91,86.509,91,81.001V25H9V81.001z M21,46h52c1.1,0,2,0.9,2,2s-0.9,2-2,2H21c-1.101,0-2.001-0.9-2.001-2S19.899,46,21,46
		z M21,56.001h36c1.1,0,2,0.899,2,1.998c0,1.101-0.9,2.001-2,2.001H21c-1.101,0-2.001-0.9-2.001-2.001
		C18.999,56.9,19.899,56.001,21,56.001z M21,66h43.999c1.101,0,2.001,0.9,2.001,2c0,1.101-0.9,2-2.001,2H21
		c-1.101,0-2.001-0.899-2.001-2C18.999,66.9,19.899,66,21,66z"/>
</g>
</svg>
