<?xml version="1.0" encoding="utf-8"?>
<!-- Generator: Adobe Illustrator 16.0.0, SVG Export Plug-In . SVG Version: 6.00 Build 0)  -->
<!DOCTYPE svg PUBLIC "-//W3C//DTD SVG 1.1//EN" "http://www.w3.org/Graphics/SVG/1.1/DTD/svg11.dtd">
<svg version="1.1" id="Layer_1" xmlns="http://www.w3.org/2000/svg" xmlns:xlink="http://www.w3.org/1999/xlink" x="0px" y="0px"
	 width="100px" height="100px" viewBox="0 0 100 100" enable-background="new 0 0 100 100" xml:space="preserve">
<g display="none">
	<path display="inline" fill="#FF8343" d="M52.791,38.437c0.404,0.089,0.805,0.197,1.193,0.323c10.264-32.855-18.038-32.855-7.775,0
		c0.39-0.126,0.788-0.234,1.194-0.323C47.937,33.079,52.259,33.079,52.791,38.437z"/>
	<path display="inline" fill="#FF8343" d="M47.403,63.078c-0.406-0.089-0.804-0.196-1.194-0.324
		c-10.262,32.855,18.039,32.855,7.775,0c-0.389,0.128-0.789,0.235-1.193,0.324C52.259,68.436,47.937,68.436,47.403,63.078z"/>
	<path display="inline" fill="#FF8343" d="M37.545,51.995c-0.039-0.405-0.061-0.815-0.061-1.229
		c-34.419,0.396-25.671,27.313,2.409,7.394c-0.24-0.33-0.465-0.673-0.673-1.025C33.943,58.293,32.598,54.158,37.545,51.995z"/>
	<path display="inline" fill="#FF8343" d="M40.674,59.129c-0.271-0.306-0.528-0.625-0.77-0.955
		c-27.621,20.551-4.723,37.189,6.288,4.574c-0.391-0.128-0.774-0.273-1.148-0.438C41.455,66.352,37.936,63.791,40.674,59.129z"/>
	<path display="inline" fill="#FF8343" d="M62.648,49.52c0.039,0.404,0.062,0.814,0.062,1.228
		c34.419-0.394,25.67-27.311-2.409-7.392c0.239,0.331,0.467,0.673,0.674,1.026C66.251,43.22,67.598,47.355,62.648,49.52z"/>
	<path display="inline" fill="#FF8343" d="M39.221,44.381c0.208-0.354,0.433-0.696,0.673-1.026
		c-28.08-19.919-36.829,6.999-2.409,7.392c0-0.413,0.022-0.824,0.061-1.228C32.598,47.355,33.943,43.22,39.221,44.381z"/>
	<path display="inline" fill="#FF8343" d="M45.043,39.204c0.374-0.164,0.757-0.31,1.148-0.438
		C35.181,6.15,12.283,22.79,39.904,43.34c0.242-0.332,0.499-0.65,0.77-0.955C37.936,37.722,41.455,35.163,45.043,39.204z"/>
	<path display="inline" fill="#FF8343" d="M62.71,50.766c0,0.414-0.021,0.824-0.062,1.229c4.947,2.163,3.603,6.298-1.674,5.138
		c-0.209,0.354-0.436,0.695-0.675,1.025C88.38,78.078,97.129,51.16,62.71,50.766z"/>
	<path display="inline" fill="#FF8343" d="M55.15,62.311c-0.373,0.164-0.756,0.311-1.146,0.438
		c11.01,32.615,33.908,15.977,6.286-4.574c-0.241,0.33-0.497,0.649-0.771,0.955C62.258,63.791,58.738,66.352,55.15,62.311z"/>
	<path display="inline" fill="#FF8343" d="M59.521,42.385c0.271,0.305,0.527,0.624,0.77,0.955
		c27.622-20.551,4.723-37.189-6.286-4.575c0.392,0.128,0.772,0.274,1.146,0.438C58.738,35.163,62.258,37.722,59.521,42.385z"/>
	<circle display="inline" fill="#FF8343" cx="50.098" cy="50.757" r="10.277"/>
</g>
<g display="none">
	<path display="inline" fill="#EF3D5A" d="M50.079,85.689c36.251,0,11.101-48.636,33.282-54.183c-2.457-0.655-4.76-0.956-6.93-0.956
		c-13.856,0-17.984,12.263-26.354,22.79c-8.368-10.527-12.495-22.79-26.352-22.79c-2.17,0-4.474,0.301-6.93,0.956
		C38.98,37.053,13.829,85.689,50.079,85.689z"/>
	<path display="inline" fill="#EF3D5A" d="M47.084,43.278c0.969,1.434,1.958,2.896,2.995,4.341c1.037-1.445,2.024-2.907,2.995-4.341
		c2.467-3.648,4.973-7.351,8.07-10.333c-2.25-5.372-6.162-10.063-11.065-13.612c-4.904,3.549-8.816,8.24-11.065,13.612
		C42.112,35.927,44.618,39.629,47.084,43.278z"/>
	<circle display="inline" fill="#EF3D5A" cx="50.078" cy="9.98" r="4.188"/>
	<circle display="inline" fill="#EF3D5A" cx="68.548" cy="21.591" r="4.188"/>
	<circle display="inline" fill="#EF3D5A" cx="31.611" cy="21.591" r="4.188"/>
</g>
<g>
	<path fill="#762B99" d="M63.708,23.153c-1.71-6.976-9.525-8.324-13.474-1.797c-3.949-6.527-11.764-5.179-13.474,1.797
		c-1.956,7.978,10.154,20.35,13.474,20.35C53.554,43.503,65.663,31.13,63.708,23.153z"/>
	<path fill="#762B99" d="M28.557,29.113c-7.163-0.529-10.859,6.486-5.872,12.259c-7.428,1.739-8.561,9.587-2.455,13.37
		c6.983,4.325,22.492-3.369,23.518-6.525C44.773,45.058,36.749,29.719,28.557,29.113z"/>
	<path fill="#762B99" d="M23.363,64.385c-2.717,6.649,2.813,12.332,9.845,9.373c-0.642,7.602,6.473,11.104,11.956,6.466
		c6.271-5.304,3.747-22.432,1.062-24.383S26.471,56.781,23.363,64.385z"/>
	<path fill="#762B99" d="M55.305,80.224c5.483,4.639,12.598,1.136,11.957-6.466c7.03,2.959,12.561-2.724,9.844-9.373
		c-3.107-7.604-20.177-10.495-22.862-8.544S49.033,74.92,55.305,80.224z"/>
	<path fill="#762B99" d="M80.238,54.741c6.106-3.782,4.974-11.631-2.454-13.37c4.986-5.772,1.29-12.788-5.872-12.259
		c-8.192,0.606-16.217,15.945-15.191,19.103C57.747,51.372,73.255,59.066,80.238,54.741z"/>
	<circle fill="#762B99" cx="50.234" cy="50.323" r="5.003"/>
</g>
</svg>
