<?xml version="1.0" encoding="utf-8"?>
<!-- Generator: Adobe Illustrator 16.0.0, SVG Export Plug-In . SVG Version: 6.00 Build 0)  -->
<!DOCTYPE svg PUBLIC "-//W3C//DTD SVG 1.1//EN" "http://www.w3.org/Graphics/SVG/1.1/DTD/svg11.dtd">
<svg version="1.1" id="Layer_1" xmlns="http://www.w3.org/2000/svg" xmlns:xlink="http://www.w3.org/1999/xlink" x="0px" y="0px"
	 width="100px" height="100px" viewBox="0 0 100 100" enable-background="new 0 0 100 100" xml:space="preserve">
<g id="_x32_">
	<g>
		<g>
			<rect x="19.148" y="34.887" fill="#2067BC" width="62.605" height="39.555"/>
			<rect x="20.153" y="34.887" fill="#4885ED" width="60.432" height="39.557"/>
			<g>
				<g>
					<rect x="22.161" y="46.828" fill="#2067BC" width="18.92" height="25.016"/>
					<g>
						<polygon fill="#62C8D7" points="39.676,48.685 25.542,48.685 39.676,62.82 						"/>
						<polygon fill="#62C8D7" points="39.676,66.713 23.565,50.602 23.565,53.609 39.676,69.721 						"/>
						<polygon fill="#8AD1E2" points="39.676,69.986 39.676,69.721 23.565,53.609 23.565,55.025 38.527,69.986 						"/>
						<polygon fill="#62C8D7" points="38.527,69.986 23.565,55.025 23.565,69.986 						"/>
						<polygon fill="#8AD1E2" points="39.676,62.82 25.542,48.685 23.565,48.685 23.565,50.602 39.676,66.713 						"/>
					</g>
				</g>
			</g>
			<g>
				<g>
					<rect x="60.229" y="46.828" fill="#2067BC" width="18.92" height="25.016"/>
					<g>
						<polygon fill="#62C8D7" points="77.744,48.685 63.609,48.685 77.744,62.82 						"/>
						<polygon fill="#62C8D7" points="77.744,66.713 61.633,50.602 61.633,53.609 77.744,69.721 						"/>
						<polygon fill="#8AD1E2" points="77.744,69.986 77.744,69.721 61.633,53.609 61.633,55.025 76.595,69.986 						"/>
						<polygon fill="#62C8D7" points="76.595,69.986 61.633,55.025 61.633,69.986 						"/>
						<polygon fill="#8AD1E2" points="77.744,62.82 63.609,48.685 61.633,48.685 61.633,50.602 77.744,66.713 						"/>
					</g>
				</g>
			</g>
			<rect x="16.753" y="74.442" fill="#155BA0" width="67.395" height="2.879"/>
			<g>
				<rect x="42.356" y="46.201" fill="#2067BC" width="15.317" height="27.863"/>
				<g>
					<polygon fill="#62C8D7" points="56.234,48.351 46.175,48.351 56.234,58.41 					"/>
					<polygon fill="#8AD1E2" points="56.234,58.41 46.175,48.351 43.795,48.351 43.795,48.644 56.234,61.083 					"/>
					<polygon fill="#62C8D7" points="56.234,61.083 43.795,48.644 43.795,57.483 52.69,66.379 56.234,66.379 					"/>
					<polygon fill="#8AD1E2" points="52.69,66.379 43.795,57.483 43.795,66.379 					"/>
				</g>
			</g>
			<linearGradient id="SVGID_1_" gradientUnits="userSpaceOnUse" x1="19.1479" y1="62.8359" x2="84.1475" y2="62.8359">
				<stop  offset="0" style="stop-color:#BCBEC0"/>
				<stop  offset="1" style="stop-color:#FFFFFF"/>
			</linearGradient>
			<polygon opacity="0.49" fill="url(#SVGID_1_)" points="19.148,51.394 42.197,74.442 45.075,77.321 84.147,77.321 84.147,74.442 
				81.753,74.442 81.753,48.351 19.148,48.351 			"/>
			<g>
				<g>
					<polygon fill="#F15A29" points="20.511,36.073 15.761,45.329 21.098,45.329 25.117,36.073 					"/>
					<polygon fill="#FFFFFF" points="25.117,36.073 21.105,45.311 26.441,45.311 29.723,36.073 					"/>
					<polygon fill="#F15A29" points="29.723,36.073 26.438,45.32 31.773,45.32 34.329,36.073 					"/>
					<polygon fill="#FFFFFF" points="34.329,36.073 31.779,45.301 37.113,45.301 38.935,36.073 					"/>
					<polygon fill="#F15A29" points="38.935,36.073 37.112,45.311 42.447,45.311 43.541,36.073 					"/>
					<polygon fill="#FFFFFF" points="43.541,36.073 42.449,45.292 47.783,45.292 48.147,36.073 					"/>
					<polygon fill="#F15A29" points="48.147,36.073 47.783,45.301 53.117,45.301 52.753,36.073 					"/>
					<polygon fill="#FFFFFF" points="52.753,36.073 53.117,45.283 58.45,45.283 57.359,36.073 					"/>
					<polygon fill="#F15A29" points="57.359,36.073 58.451,45.292 63.785,45.292 61.965,36.073 					"/>
					<polygon fill="#FFFFFF" points="61.965,36.073 63.781,45.274 69.114,45.274 66.571,36.073 					"/>
					<polygon fill="#F15A29" points="66.571,36.073 69.116,45.283 74.449,45.283 71.178,36.073 					"/>
					<polygon fill="#FFFFFF" points="71.178,36.073 74.443,45.265 79.774,45.265 75.783,36.073 					"/>
					<polygon fill="#F15A29" points="75.783,36.073 79.779,45.274 85.111,45.274 80.39,36.073 					"/>
				</g>
				<g>
					<path fill="#E44C1B" d="M15.761,45.237v2.277c0,0.941,1.195,1.705,2.668,1.705s2.668-0.763,2.668-1.705v-2.277H15.761z"/>
					<path fill="#F4F2ED" d="M21.098,45.237v2.274c0,0.941,1.194,1.704,2.668,1.704c1.474,0,2.669-0.763,2.669-1.704v-2.274H21.098z
						"/>
					<path fill="#E44C1B" d="M26.435,45.237v2.275c0,0.941,1.194,1.705,2.668,1.705c1.474,0,2.668-0.763,2.668-1.705v-2.275H26.435z
						"/>
					<path fill="#F4F2ED" d="M31.771,45.237v2.272c0,0.941,1.195,1.704,2.668,1.704c1.474,0,2.668-0.763,2.668-1.704v-2.272H31.771z
						"/>
					<path fill="#E44C1B" d="M37.108,45.237v2.274c0,0.941,1.195,1.704,2.668,1.704s2.668-0.763,2.668-1.704v-2.274H37.108z"/>
					<path fill="#F4F2ED" d="M42.445,45.237v2.27c0,0.941,1.195,1.705,2.668,1.705s2.668-0.763,2.668-1.705v-2.27H42.445z"/>
					<path fill="#E44C1B" d="M47.781,45.237v2.272c0,0.941,1.195,1.704,2.669,1.704s2.668-0.763,2.668-1.704v-2.272H47.781z"/>
					<path fill="#F4F2ED" d="M53.118,45.237v2.268c0,0.941,1.195,1.705,2.669,1.705s2.668-0.763,2.668-1.705v-2.268H53.118z"/>
					<path fill="#E44C1B" d="M58.455,45.237v2.27c0,0.941,1.195,1.705,2.669,1.705s2.668-0.763,2.668-1.705v-2.27H58.455z"/>
					<path fill="#F4F2ED" d="M63.792,45.237v2.267c0,0.941,1.195,1.704,2.669,1.704s2.668-0.763,2.668-1.704v-2.267H63.792z"/>
					<path fill="#E44C1B" d="M69.129,45.237v2.268c0,0.941,1.195,1.705,2.669,1.705s2.668-0.763,2.668-1.705v-2.268H69.129z"/>
					<path fill="#F4F2ED" d="M74.466,45.237v2.265c0,0.941,1.194,1.704,2.669,1.704c1.474,0,2.668-0.763,2.668-1.704v-2.265H74.466z
						"/>
					<path fill="#E44C1B" d="M79.803,45.237v2.267c0,0.941,1.194,1.704,2.668,1.704c1.475,0,2.669-0.763,2.669-1.704v-2.267H79.803z
						"/>
				</g>
			</g>
			<rect x="19.148" y="34.848" fill="#4885ED" width="62.604" height="2.225"/>
		</g>
		<rect x="54.335" y="55.285" fill="#2067BC" width="1.239" height="6.512"/>
		<g>
			<polygon fill="#8AD1E2" points="43.795,67.593 43.795,72.526 50.408,72.526 45.475,67.593 			"/>
			<polygon fill="#62C8D7" points="45.475,67.593 50.408,72.526 52.67,72.526 47.736,67.593 			"/>
			<polygon fill="#8AD1E2" points="56.234,67.593 47.736,67.593 52.67,72.526 56.234,72.526 			"/>
		</g>
		<g>
			<g>
				<path fill="#A53205" d="M28.72,66.591h-3.316v0.937l2.824,2.824l0,0c0.272,0,0.493-0.221,0.493-0.493V66.591z"/>
				<path fill="#BD3D00" d="M25.404,67.527v2.331c0,0.272,0.221,0.493,0.493,0.493h2.331L25.404,67.527z"/>
			</g>
			<g>
				<path fill="#016200" d="M31.084,65.077c0-0.546-0.353-1.009-0.843-1.175c-0.027-0.483-0.332-0.894-0.758-1.072
					c-0.099-0.586-0.608-1.031-1.222-1.031c-0.261,0-0.503,0.08-0.704,0.219c-0.222-0.334-0.602-0.555-1.033-0.555
					c-0.56,0-1.033,0.371-1.187,0.881c-0.018,0-0.035-0.001-0.053-0.001c-0.685,0-1.24,0.556-1.24,1.239
					c0,0.088,0.009,0.174,0.026,0.256c-0.009,0-0.018,0-0.026,0c-0.685,0-1.24,0.555-1.24,1.239s0.555,1.239,1.24,1.239
					c0.018,0,0.035,0,0.052-0.001c-0.034,0.113-0.052,0.233-0.052,0.358c0,0.684,0.555,1.238,1.24,1.238
					c0.255,0,0.492-0.076,0.689-0.209c0.22,0.348,0.606,0.577,1.047,0.577c0.538,0,0.996-0.343,1.167-0.822
					c0.218,0.19,0.503,0.306,0.815,0.306c0.685,0,1.24-0.555,1.24-1.239c0-0.091-0.011-0.179-0.029-0.264
					C30.719,66.104,31.084,65.633,31.084,65.077z"/>
				<g>
					<circle fill="#0D720A" cx="24.046" cy="65.213" r="0.84"/>
					<circle fill="#0D720A" cx="25.286" cy="63.837" r="0.84"/>
					<circle fill="#0D720A" cx="26.525" cy="62.634" r="0.84"/>
					<circle fill="#0D720A" cx="25.685" cy="66.054" r="0.841"/>
					<circle fill="#0D720A" cx="28.605" cy="66.168" r="0.84"/>
					<circle fill="#0D720A" cx="29.004" cy="64.22" r="0.84"/>
					<circle fill="#0D720A" cx="27.022" cy="64.521" r="0.841"/>
				</g>
				<g>
					<circle fill="#F15A29" cx="24.886" cy="64.753" r="0.493"/>
					<circle fill="#F15A29" cx="26.125" cy="62.782" r="0.493"/>
					<circle fill="#F15A29" cx="27.765" cy="63.68" r="0.493"/>
					<circle fill="#F15A29" cx="26.182" cy="66.524" r="0.493"/>
					<circle fill="#F15A29" cx="29.445" cy="65.434" r="0.493"/>
					<path fill="#F15A29" d="M28.262,66.031c-0.272,0-0.493,0.221-0.493,0.493s0.221,0.493,0.493,0.493s0.493-0.016,0.493-0.287
						C28.755,66.457,28.534,66.031,28.262,66.031z"/>
				</g>
			</g>
		</g>
		<g>
			<rect x="21.644" y="70.467" fill="#155BA0" width="19.735" height="1.39"/>
			<linearGradient id="SVGID_2_" gradientUnits="userSpaceOnUse" x1="59.8213" y1="71.1621" x2="79.5557" y2="71.1621">
				<stop  offset="0" style="stop-color:#BCBEC0"/>
				<stop  offset="1" style="stop-color:#FFFFFF"/>
			</linearGradient>
			<rect x="59.821" y="70.467" opacity="0.49" fill="url(#SVGID_2_)" width="19.734" height="1.39"/>
		</g>
		<g>
			<g>
				<path fill="#A53205" d="M75.753,66.653h-3.316v0.937l2.823,2.824l0,0c0.272,0,0.493-0.221,0.493-0.493V66.653z"/>
				<path fill="#BD3D00" d="M72.437,67.59v2.331c0,0.272,0.221,0.493,0.493,0.493h2.33L72.437,67.59z"/>
			</g>
			<g>
				<path fill="#016200" d="M78.117,65.14c0-0.546-0.354-1.009-0.843-1.175c-0.027-0.483-0.332-0.894-0.758-1.072
					c-0.1-0.586-0.608-1.031-1.222-1.031c-0.262,0-0.504,0.08-0.704,0.219c-0.222-0.334-0.602-0.555-1.033-0.555
					c-0.56,0-1.033,0.371-1.187,0.881c-0.018,0-0.035-0.001-0.053-0.001c-0.685,0-1.239,0.556-1.239,1.239
					c0,0.088,0.009,0.174,0.026,0.256c-0.009,0-0.018,0-0.026,0c-0.686,0-1.24,0.555-1.24,1.239s0.555,1.239,1.24,1.239
					c0.018,0,0.034,0,0.052-0.001c-0.033,0.113-0.052,0.233-0.052,0.358c0,0.684,0.555,1.238,1.239,1.238
					c0.255,0,0.492-0.076,0.689-0.209c0.22,0.348,0.606,0.577,1.047,0.577c0.538,0,0.996-0.343,1.168-0.822
					c0.218,0.19,0.503,0.306,0.814,0.306c0.685,0,1.24-0.555,1.24-1.239c0-0.091-0.011-0.179-0.029-0.265
					C77.752,66.166,78.117,65.695,78.117,65.14z"/>
				<g>
					<circle fill="#0D720A" cx="71.079" cy="65.276" r="0.84"/>
					<circle fill="#0D720A" cx="72.318" cy="63.9" r="0.84"/>
					<circle fill="#0D720A" cx="73.558" cy="62.696" r="0.841"/>
					<circle fill="#0D720A" cx="72.718" cy="66.116" r="0.841"/>
					<circle fill="#0D720A" cx="75.638" cy="66.23" r="0.84"/>
					<circle fill="#0D720A" cx="76.037" cy="64.283" r="0.84"/>
					<circle fill="#0D720A" cx="74.055" cy="64.583" r="0.841"/>
				</g>
				<g>
					<circle fill="#F15A29" cx="71.919" cy="64.815" r="0.493"/>
					<circle fill="#F15A29" cx="73.158" cy="62.845" r="0.493"/>
					<circle fill="#F15A29" cx="74.798" cy="63.742" r="0.493"/>
					<circle fill="#F15A29" cx="73.215" cy="66.587" r="0.493"/>
					<circle fill="#F15A29" cx="76.479" cy="65.496" r="0.493"/>
					<circle fill="#F15A29" cx="75.295" cy="66.587" r="0.493"/>
				</g>
			</g>
		</g>
	</g>
	<g>
		<path fill="#4885ED" d="M61.104,27.931v-0.29c0-2.719-2.204-4.923-4.924-4.923H44.721c-2.72,0-4.924,2.204-4.924,4.923v0.29
			H24.863v7.092h51.174v-7.092H61.104z"/>
		<path fill="#FFFFFF" d="M59.555,29.67v-0.315c0-2.719-2.204-4.924-4.924-4.924H46.27c-2.72,0-4.924,2.205-4.924,4.924v0.315
			H26.922v5.207h47.056V29.67H59.555z"/>
	</g>
</g>
</svg>
