<?xml version="1.0" encoding="utf-8"?>
<!-- Generator: Adobe Illustrator 16.0.0, SVG Export Plug-In . SVG Version: 6.00 Build 0)  -->
<!DOCTYPE svg PUBLIC "-//W3C//DTD SVG 1.1//EN" "http://www.w3.org/Graphics/SVG/1.1/DTD/svg11.dtd">
<svg version="1.1" id="Layer_1" xmlns="http://www.w3.org/2000/svg" xmlns:xlink="http://www.w3.org/1999/xlink" x="0px" y="0px"
	 width="100px" height="100px" viewBox="0 0 100 100" enable-background="new 0 0 100 100" xml:space="preserve">
<path display="none" fill="#FFFFFF" d="M542,667h90c2.762,0,5,2.238,5,5v90c0,2.762-2.238,5-5,5h-90c-2.762,0-5-2.238-5-5v-90
	C537,669.238,539.238,667,542,667z"/>
<rect x="39.25" y="20.875" display="none" fill="#DB3236" width="33" height="41.875"/>
<g transform="translate(50 50) scale(0.69 0.69) rotate(0) translate(-50 -50)" display="none">
	<g display="inline">
		<path fill="#4D4D4D" d="M79.787,2.344H28.964v72.462h56.778l2.792,0.004V11.093C88.535,6.261,84.617,2.344,79.787,2.344z
			 M74.997,45.143L58.749,65.571L42.496,45.133c-2.879-3.637-4.464-8.196-4.464-12.831c0-11.426,9.293-20.717,20.717-20.717
			c11.422,0,20.717,9.292,20.717,20.717C79.465,36.937,77.882,41.495,74.997,45.143z"/>
		<path fill="#FFFFFF" d="M58.749,19.318c-7.16,0-12.984,5.824-12.984,12.984c0,7.157,5.824,12.984,12.984,12.984
			c7.159,0,12.984-5.827,12.984-12.984C71.733,25.142,65.908,19.318,58.749,19.318z"/>
		<path fill="#4D4D4D" d="M85.742,92.071H20.925c-2.139,0-3.875-1.418-3.875-3.165c0-0.226,0.03-0.447,0.086-0.662
			c0.371-1.427,1.929-2.501,3.789-2.501h64.817c0.481,0,0.937-0.123,1.333-0.338c0.076-0.042,0.153-0.091,0.224-0.139
			c0.003,0,0.003,0,0.003,0c0.075-0.051,0.147-0.105,0.214-0.161h0.001c0.139-0.115,0.26-0.238,0.376-0.376c0,0-0.001,0,0,0
			c0.057-0.068,0.11-0.14,0.161-0.215c0,0,0,0,0-0.001c0.048-0.072,0.096-0.149,0.139-0.225c0.215-0.399,0.337-0.852,0.337-1.333
			c0-1.54-1.251-2.791-2.791-2.791H28.964h-5.585V2.344h-3.163c-4.823,0-8.751,3.925-8.751,8.749v77.814
			c0,4.823,3.925,8.749,8.751,8.749h65.527c1.541,0,2.792-1.251,2.792-2.792S87.282,92.071,85.742,92.071z"/>
	</g>
</g>
<g transform="translate(50 50) scale(0.69 0.69) rotate(0) translate(-50 -50)">
	<g transform="translate(0,-952.36218)">
		<g transform="translate(18.996063,959.32871)">
			<path fill="#4D4D4D" d="M4.004,0.036C1.772,0.036,0,1.807,0,4.039v77.989c0,2.232,1.772,4.003,4.004,4.003h54
				c2.198,0,4.004-1.771,4.004-4.003V4.039c0-2.232-1.806-4.002-4.004-4.002H4.004z M31.004,7.017
				c13.216,0,23.988,10.771,23.988,24.023c0,12.967-10.347,23.562-23.244,23.953c-0.249,0.034-0.497,0.034-0.744,0.034
				s-0.495,0-0.744-0.034C17.363,54.602,7.016,44.007,7.016,31.04C7.016,17.787,17.751,7.017,31.004,7.017L31.004,7.017z
				 M28.984,11.622c-1.383,0.78-2.764,2.304-3.969,4.713c-0.568,1.098-1.028,2.338-1.454,3.685h5.422V11.622z M32.988,11.622v8.398
				h5.457c-0.426-1.347-0.923-2.587-1.454-3.685C35.788,13.926,34.37,12.402,32.988,11.622z M22.252,13.111
				c-3.224,1.558-6.024,3.932-7.972,6.91h5.139c0.531-1.984,1.203-3.827,2.018-5.457C21.686,14.068,21.969,13.571,22.252,13.111
				L22.252,13.111z M39.756,13.111c0.283,0.46,0.566,0.957,0.815,1.452c0.815,1.63,1.487,3.473,2.018,5.457h5.139
				C45.744,17.043,42.98,14.669,39.756,13.111L39.756,13.111z M12.295,24.023c-0.602,1.595-1.028,3.261-1.204,4.996h6.98
				c0.071-1.7,0.212-3.366,0.461-4.996H12.295z M22.605,24.023c-0.283,1.595-0.46,3.261-0.531,4.996h6.91v-4.996H22.605z
				 M32.988,24.023v4.996h6.945c-0.071-1.735-0.248-3.401-0.531-4.996H32.988z M43.476,24.023c0.249,1.63,0.391,3.296,0.461,4.996
				h6.98c-0.177-1.735-0.603-3.401-1.204-4.996H43.476z M11.091,33.024c0.177,1.771,0.603,3.436,1.204,4.996h6.237
				c-0.249-1.595-0.391-3.261-0.461-4.996H11.091z M22.075,33.024c0.071,1.735,0.248,3.436,0.531,4.996h6.379v-4.996H22.075z
				 M32.988,33.024v4.996h6.414c0.283-1.56,0.46-3.261,0.531-4.996H32.988z M43.937,33.024c-0.071,1.735-0.212,3.401-0.461,4.996
				h6.237c0.602-1.56,1.027-3.225,1.204-4.996H43.937z M14.279,42.023c1.984,3.012,4.748,5.422,8.008,7.017
				c-0.318-0.497-0.602-1.027-0.851-1.56c-0.815-1.63-1.487-3.473-2.018-5.457H14.279z M23.562,42.023
				c0.426,1.347,0.886,2.587,1.454,3.65c1.204,2.444,2.586,4.004,3.969,4.784v-8.434H23.562z M32.988,42.023v8.434
				c1.381-0.78,2.799-2.34,4.004-4.784c0.531-1.063,1.028-2.303,1.454-3.65H32.988z M42.59,42.023
				c-0.531,1.984-1.203,3.827-2.018,5.457c-0.283,0.532-0.568,1.063-0.851,1.56c3.259-1.595,6.024-4.005,8.008-7.017H42.59z
				 M10.984,63.035h40.004c1.134,0,2.02,0.886,2.02,1.984c0,1.135-0.886,2.021-2.02,2.021H10.984C9.886,67.04,9,66.154,9,65.019
				C9,63.921,9.886,63.035,10.984,63.035z M10.984,74.02h40.004c1.134,0,2.02,0.92,2.02,2.018c0,1.1-0.886,1.984-2.02,1.984H10.984
				C9.886,78.023,9,77.138,9,76.038C9,74.94,9.886,74.02,10.984,74.02z"/>
		</g>
	</g>
</g>
</svg>
