<?xml version="1.0" encoding="utf-8"?>
<!-- Generator: Adobe Illustrator 16.0.0, SVG Export Plug-In . SVG Version: 6.00 Build 0)  -->
<!DOCTYPE svg PUBLIC "-//W3C//DTD SVG 1.1//EN" "http://www.w3.org/Graphics/SVG/1.1/DTD/svg11.dtd">
<svg version="1.1" id="Layer_1" xmlns="http://www.w3.org/2000/svg" xmlns:xlink="http://www.w3.org/1999/xlink" x="0px" y="0px"
	 width="50px" height="50px" viewBox="0 0 50 50" enable-background="new 0 0 50 50" xml:space="preserve">
<g>
	<g>
		<path fill="#D53E32" d="M28.351,13.821l-9.168,1.765c-0.211,0.041-0.412-0.096-0.455-0.301c-0.567-2.681-3.119-4.398-5.814-3.912
			c-0.076,0.016-0.149,0.005-0.215-0.025c-0.119-0.046-0.211-0.15-0.237-0.284l0-0.004c-0.041-0.21,0.1-0.411,0.309-0.452
			l9.108-1.753c3.09-0.595,6.128,1.426,6.78,4.501c0,0.005,0,0.005,0.002,0.009c0.02,0.099-0.005,0.203-0.06,0.289
			C28.541,13.739,28.453,13.801,28.351,13.821z"/>
		<path fill="#C63027" d="M28.118,13.865l-8.936,1.721c-0.211,0.041-0.412-0.096-0.455-0.301c-0.567-2.681-3.119-4.398-5.814-3.912
			c-0.076,0.016-0.149,0.005-0.215-0.025l8.717-1.679C24.395,9.096,27.335,10.961,28.118,13.865z"/>
	</g>
	<g>
		<path fill="#D53E32" d="M36.271,21.742l-1.764,9.168c-0.041,0.21,0.095,0.41,0.301,0.455c2.679,0.566,4.396,3.118,3.909,5.813
			c-0.014,0.075-0.004,0.15,0.026,0.216c0.046,0.117,0.149,0.211,0.284,0.236h0.005c0.21,0.042,0.41-0.099,0.452-0.309l1.753-9.108
			c0.594-3.09-1.427-6.128-4.501-6.779c-0.006,0-0.006,0-0.009-0.001c-0.1-0.02-0.203,0.003-0.289,0.06
			C36.352,21.55,36.29,21.639,36.271,21.742z"/>
		<path fill="#C63027" d="M36.227,21.974l-1.72,8.936c-0.041,0.21,0.095,0.41,0.301,0.455c2.679,0.566,4.396,3.118,3.909,5.813
			c-0.014,0.075-0.004,0.15,0.026,0.216l1.679-8.718C40.996,25.697,39.13,22.756,36.227,21.974z"/>
	</g>
	<path fill="#F26D62" d="M25.542,30.805c-0.883-0.885-3.414,0.117-6.381,2.319c0.202-0.75,0.19-1.349-0.081-1.723
		c-0.375-0.271-0.973-0.282-1.724-0.082c2.202-2.968,3.204-5.498,2.321-6.381c-1.265-1.264-5.914,1.333-10.382,5.8
		c-4.469,4.471-5.802,10.384-5.802,10.384s1.232-0.282,2.989-1.005c-2.19,3.18-3.143,6.34-3.392,7.274
		c0.933-0.25,4.092-1.203,7.273-3.394c-0.723,1.757-1.005,2.989-1.005,2.989s5.913-1.334,10.383-5.803
		C24.208,36.717,26.807,32.069,25.542,30.805z"/>
	<path fill="#F58C80" d="M29.787,26.558c-0.883-0.883-3.413,0.118-6.379,2.321c0.2-0.752,0.189-1.351-0.083-1.723
		c-0.374-0.273-0.973-0.284-1.723-0.084c2.201-2.966,3.203-5.498,2.32-6.38c-1.265-1.264-5.914,1.333-10.382,5.801
		C9.072,30.962,7.74,36.875,7.74,36.875s1.232-0.281,2.989-1.003c-2.191,3.18-3.145,6.339-3.394,7.273
		c0.934-0.25,4.092-1.203,7.273-3.395c-0.722,1.758-1.004,2.99-1.004,2.99s5.912-1.333,10.382-5.802
		C28.454,32.471,31.052,27.821,29.787,26.558z"/>
	<path fill="#40C1E6" d="M34.402,31.827L24.095,42.134L8.047,26.086l10.307-10.307c4.57-4.57,10.462-7.023,15.467-8.34
		C39.502,5.95,44.049,5.922,44.25,5.926c0.007-0.001,0.01-0.004,0.01-0.004s-0.003,0.003-0.003,0.01
		c0.003,0.202-0.029,4.757-1.52,10.441C41.419,21.378,38.969,27.26,34.402,31.827z"/>
	<path fill="#4EC8EF" d="M30.204,27.628L19.896,37.936l-7.65-7.65l10.307-10.308c4.316-4.315,9.007-7.542,12.916-9.813
		c4.899-2.838,8.58-4.168,8.781-4.239c0.007-0.001,0.01-0.004,0.01-0.004s-0.003,0.003-0.003,0.01
		c-0.072,0.202-1.402,3.881-4.243,8.784C37.749,18.625,34.519,23.313,30.204,27.628z"/>
	<path fill="#B5C5C6" d="M23.518,39.921c-0.821,0.821-2.155,0.821-2.978,0L9.955,29.335c-0.822-0.823-0.822-2.156,0-2.978l0,0
		c0.823-0.823,2.157-0.824,2.979-0.002L23.52,36.94C24.341,37.764,24.341,39.098,23.518,39.921L23.518,39.921z"/>
	<g>
		<path fill="#C63027" d="M7.333,31.808c-0.292,0.017-0.565-0.025-0.807-0.146c-0.144-0.075-0.274-0.166-0.393-0.285
			c-1.32-1.32-0.878-5.284-0.07-6.921l4.215-8.576c0.877-1.778,3.036-2.516,4.819-1.632c0.366,0.18,0.685,0.411,0.957,0.684
			c0.212,0.211,0.398,0.45,0.543,0.71c0.606,1.01,0.698,2.287,0.138,3.42l-4.215,8.576C11.76,29.172,9.169,31.71,7.333,31.808z"/>
		<path fill="#D53E32" d="M7.333,31.808c-0.221-0.054-0.415-0.151-0.582-0.282c-0.041-0.03-0.072-0.062-0.107-0.097
			c-1.364-1.363,0.032-5.531,1.254-7.035l6.013-7.424c0.687-0.848,1.675-1.297,2.686-1.329c0.606,1.01,0.698,2.287,0.138,3.42
			l-4.215,8.576C11.76,29.172,9.169,31.71,7.333,31.808z"/>
	</g>
	<g>
		<path fill="#C63027" d="M17.784,42.257c-0.018,0.292,0.026,0.565,0.146,0.809c0.076,0.144,0.167,0.273,0.287,0.393
			c1.319,1.319,5.283,0.878,6.92,0.071l8.576-4.215c1.777-0.879,2.515-3.038,1.632-4.82c-0.18-0.366-0.409-0.685-0.684-0.958
			c-0.211-0.21-0.449-0.396-0.71-0.543c-1.01-0.605-2.287-0.696-3.42-0.138l-8.576,4.215C20.418,37.831,17.881,40.422,17.784,42.257
			z"/>
		<path fill="#D53E32" d="M17.784,42.257c0.053,0.222,0.15,0.416,0.283,0.584c0.03,0.039,0.061,0.07,0.096,0.105
			c1.364,1.363,5.532-0.031,7.036-1.253l7.423-6.013c0.848-0.688,1.298-1.677,1.329-2.688c-1.01-0.605-2.287-0.696-3.42-0.138
			l-8.576,4.215C20.418,37.831,17.881,40.422,17.784,42.257z"/>
	</g>
	<g>
		<path fill="#C63027" d="M16.479,38.232l-0.043,0.045c-1.153,1.153-4.418,2.695-5.566,1.595c-0.045-0.046-0.089-0.089-0.125-0.143
			c-0.918-1.235,0.459-4.414,1.532-5.53l5.35-5.579l0.04-0.039c1.116-1.117,2.926-1.143,4.078-0.045
			c0.031,0.031,0.066,0.066,0.092,0.103c1.064,1.116,1.077,2.887-0.008,4.017L16.479,38.232z"/>
		<path fill="#D53E32" d="M16.479,38.232l-0.043,0.045c-1.153,1.153-4.418,2.695-5.566,1.595c-0.045-0.046-0.089-0.089-0.125-0.143
			l11.091-11.091c1.064,1.116,1.077,2.887-0.008,4.017L16.479,38.232z"/>
	</g>
	<g>
		<path fill="#C63027" d="M24.862,25.319c-2.714-2.714-2.712-7.127,0-9.841c2.712-2.712,7.127-2.715,9.842-0.001
			c2.715,2.715,2.712,7.13,0,9.842C31.989,28.032,27.576,28.032,24.862,25.319z M33.19,16.991c-1.879-1.878-4.937-1.877-6.814,0.001
			c-1.878,1.878-1.879,4.935,0,6.814c1.878,1.879,4.936,1.878,6.814,0C35.068,21.927,35.068,18.87,33.19,16.991z"/>
		<circle fill="#D5E5E5" cx="29.783" cy="20.398" r="5.354"/>
		<circle fill="#FFFFFF" cx="31.995" cy="20.108" r="1.771"/>
	</g>
	<path fill="#D53E32" d="M42.737,16.373c-0.91-0.443-1.825-0.998-2.724-1.658c-0.835-0.604-1.65-1.301-2.433-2.083
		c-0.791-0.792-1.498-1.623-2.112-2.467c-0.656-0.9-1.211-1.817-1.647-2.726C39.502,5.95,44.049,5.922,44.25,5.926
		c0.007-0.001,0.01-0.004,0.01-0.004s-0.003,0.003-0.003,0.01C44.26,6.133,44.228,10.689,42.737,16.373z"/>
</g>
</svg>
