<?xml version="1.0" encoding="utf-8"?>
<!-- Generator: Adobe Illustrator 16.0.0, SVG Export Plug-In . SVG Version: 6.00 Build 0)  -->
<!DOCTYPE svg PUBLIC "-//W3C//DTD SVG 1.1//EN" "http://www.w3.org/Graphics/SVG/1.1/DTD/svg11.dtd">
<svg version="1.1" id="Layer_1" xmlns="http://www.w3.org/2000/svg" xmlns:xlink="http://www.w3.org/1999/xlink" x="0px" y="0px"
	 width="100px" height="100px" viewBox="0 0 100 100" enable-background="new 0 0 100 100" xml:space="preserve">
<g transform="translate(50 50) scale(0.69 0.69) rotate(0) translate(-50 -50)">
	<g transform="translate(-1022 -298)">
		<path fill="#4285F4" d="M1072,350.794h34.679v34.679H1072V350.794z M1126.917,407.16v-99.738h-109.834v99.738H1126.917z
			 M1118.238,292.997h11.562c6.385,0,11.559,5.175,11.559,11.56v104.038c0,6.386-5.174,11.557-11.559,11.557h-115.598
			c-6.384,0-11.56-5.172-11.56-11.557V304.557c0-6.385,5.176-11.56,11.56-11.56h11.56v-17.34h17.34v17.34h57.798v-17.34h17.339
			V292.997L1118.238,292.997z"/>
	</g>
</g>
</svg>
