<?xml version="1.0" encoding="utf-8"?>
<!-- Generator: Adobe Illustrator 16.0.0, SVG Export Plug-In . SVG Version: 6.00 Build 0)  -->
<!DOCTYPE svg PUBLIC "-//W3C//DTD SVG 1.1//EN" "http://www.w3.org/Graphics/SVG/1.1/DTD/svg11.dtd">
<svg version="1.1" xmlns="http://www.w3.org/2000/svg" xmlns:xlink="http://www.w3.org/1999/xlink" x="0px" y="0px"
	 width="316.26px" height="247.89px" viewBox="0 0 316.26 247.89" enable-background="new 0 0 316.26 247.89" xml:space="preserve">
<g id="OBJECTS">
	<g>
		<g>
			<defs>
				<path id="XMLID_9_" d="M25.065,121.225c-7.274,0.616-13.438,5.751-17.772,11.625c-3.367,4.565-5.974,9.793-6.858,15.396
					c-1.658,10.51,1.561,21.343,7.37,30.256c1.761,2.701,4.969,5.048,7.363,7.207c8.003,7.217,21.331,7.542,29.676,0.724"/>
			</defs>
			<use xlink:href="#XMLID_9_"  overflow="visible" fill="#3BC1FF"/>
			<clipPath id="XMLID_11_">
				<use xlink:href="#XMLID_9_"  overflow="visible"/>
			</clipPath>
			<path opacity="0.3" clip-path="url(#XMLID_11_)" fill="#3780D8" d="M-19.568,154.362c2.297,7.073,8.184,12.453,14.609,16.199
				c13.409,7.818,30.151,9.678,44.949,4.992c6.853-2.17,13.33-5.675,20.436-6.766c5.06-0.776,11.063,0.162,13.762,4.512
				c3.267,5.265-0.103,12.101-4.006,16.913c-15.312,18.88-40.167,29.588-64.406,27.744c-4.149-0.315-8.324-0.989-12.138-2.652
				c-7.699-3.357-13.241-10.496-16.471-18.25c-3.229-7.753-4.427-16.176-5.596-24.493"/>
		</g>
		<g>
			<defs>
				<path id="XMLID_3_" d="M78.327,179.231c0,0,30.538,62.59,34.678,66.119c4.139,3.528,26.575,2.5,29.32,2.028
					c1.877-0.322,7.807-3.984,11.369-6.268c1.547-0.992,1.981-3.051,0.977-4.59l-41.339-63.304L78.327,179.231z"/>
			</defs>
			<use xlink:href="#XMLID_3_"  overflow="visible" fill="#3780D8"/>
			<clipPath id="XMLID_12_">
				<use xlink:href="#XMLID_3_"  overflow="visible"/>
			</clipPath>
			<g clip-path="url(#XMLID_12_)">
				<defs>
					<polygon id="XMLID_8_" points="98.915,172.544 145.331,251.964 169.739,236.586 123.231,164.205 					"/>
				</defs>
				<use xlink:href="#XMLID_8_"  overflow="visible" opacity="0.3" fill="#3780D8"/>
				<clipPath id="XMLID_13_">
					<use xlink:href="#XMLID_8_"  overflow="visible" opacity="0.3"/>
				</clipPath>
				<path opacity="0.3" clip-path="url(#XMLID_13_)" fill="#3780D8" d="M148.405,193.036c-10.377,4.013-20.473,8.753-30.189,14.176
					c-1.997,1.114-4.281,3.394-2.969,5.267c0.996,1.422,3.16,1.067,4.817,0.552c12.722-3.958,25.354-8.204,37.883-12.735
					c-13.089,8.828-29.431,12.644-41.023,23.361c16.831-0.878,31.998-10.348,48.532-13.615c0.872,0.785-0.028,2.189-0.93,2.939
					c-11.959,9.938-28.485,12.634-41.154,21.649c-0.031,1.66,2.453,1.77,4.037,1.269c11.3-3.574,22.601-7.147,33.901-10.722
					c3.324-1.052,6.69-2.122,9.638-3.983"/>
			</g>
			<path opacity="0.3" clip-path="url(#XMLID_12_)" fill="#3780D8" d="M71.841,195.519c3.009-3.22,7.382-4.753,11.646-5.869
				c13.857-3.628,28.708-4.15,41.528-10.541c2.061-1.027,4.088-2.229,5.604-3.963c1.517-1.733,2.469-4.081,2.078-6.35
				c-0.543-3.149-3.446-5.354-6.392-6.592c-4.939-2.073-10.463-2.327-15.8-1.877c-11.259,0.95-22.244,4.963-31.465,11.492"/>
			
				<ellipse transform="matrix(0.9073 -0.4205 0.4205 0.9073 -88.8818 71.0887)" clip-path="url(#XMLID_12_)" fill="#9BEFFF" cx="116.768" cy="237.103" rx="4.358" ry="6.664"/>
		</g>
		<g>
			<defs>
				<path id="XMLID_4_" d="M105.001,176.181c0,0,9.924,17.402,12.567,18.648c2.831,1.335,7.674,0.763,11.326,0.118
					c1.254-0.221,2.51-0.401,3.595-1.068l0.387-0.237c2.087-1.281,2.662-4.057,1.255-6.062l-9.459-13.479L105.001,176.181z"/>
			</defs>
			<use xlink:href="#XMLID_4_"  overflow="visible" fill="#DA0D67"/>
			<clipPath id="XMLID_14_">
				<use xlink:href="#XMLID_4_"  overflow="visible"/>
			</clipPath>
			<path opacity="0.3" clip-path="url(#XMLID_14_)" fill="#3780D8" d="M113.648,168.704c6.42,11.91,17.291,28.25,22.288,33.113
				c0.316,0.308,2.151,0.385,2.579,0.276c0.282-0.071,0.487-0.311,0.663-0.542c2.556-3.354,3.271-7.843,2.731-12.024
				c-0.541-4.183-2.226-8.127-4.09-11.909c-1.139-2.309-2.381-4.623-4.227-6.417c-2.038-1.98-4.674-3.199-7.069-4.728
				c-2.395-1.528-4.698-3.579-5.387-6.335"/>
			<path opacity="0.3" clip-path="url(#XMLID_14_)" fill="#3780D8" d="M92.007,167.248c0.763,7.036,9.982,14.244,16.282,17.471
				c1.141,0.585,10.912-0.621,17.459-3.311c4.792-1.969,9.485-5.252,11.083-10.18c1.179-3.635,0.442-7.762-1.634-10.97
				s-5.395-5.516-9.026-6.704c-4.479-1.465-9.6-1.398-13.401-4.186"/>
		</g>
		<g>
			<defs>
				<path id="XMLID_1_" d="M183.567,22.652c0,0-55.848,73.897-131.585,85.495c-23.016,22.327-18.687,63.98,23.052,76.596
					c68.928-22.44,157.037,13.3,157.037,13.3L183.567,22.652z"/>
			</defs>
			<use xlink:href="#XMLID_1_"  overflow="visible" fill="#3BC1FF"/>
			<clipPath id="XMLID_15_">
				<use xlink:href="#XMLID_1_"  overflow="visible"/>
			</clipPath>
			<path opacity="0.3" clip-path="url(#XMLID_15_)" fill="#3780D8" d="M40.193,181.441c11.42-9.634,21.202-16.245,42.854-19.98
				c13.469-2.323,42.507-4.579,54.674-10.806c20.785-10.637,33.58-35.576,42.58-48.299c7.843,10.208,11.846,32.085,21.773,40.28
				c9.929,8.193,19.682,17.166,25.393,28.702c5.711,11.537,6.643,26.229-0.714,36.792c-6.657,9.559-18.533,13.955-29.95,16.268
				c-18.479,3.742-37.766,3.44-56.12-0.876c-26.045-6.127-51.595-20.303-77.938-15.618"/>
			<path opacity="0.3" clip-path="url(#XMLID_15_)" fill="#3780D8" d="M54.878,192.109c11.419-9.634,21.202-16.245,42.854-19.98
				c13.468-2.323,42.507-4.579,54.674-10.806c20.784-10.637,33.58-35.576,42.58-48.3c7.843,10.208,11.845,32.086,21.773,40.279
				c9.928,8.194,19.682,17.166,25.392,28.703c5.711,11.537,6.644,26.229-0.714,36.792c-6.657,9.559-18.533,13.955-29.949,16.267
				c-18.479,3.742-37.767,3.441-56.12-0.876c-26.045-6.126-51.594-20.302-77.937-15.617"/>
			<path opacity="0.42" clip-path="url(#XMLID_15_)" fill="#FFFFF9" d="M196.042,209.35c-10.095-3.647-11.09-6.547-19.666-14.769
				c-5.852-5.61-16.505-20.392-21.695-31.606c-2.828-6.11-7.388-18.402-9.214-24.943c-0.966-3.461-2.778-9.597-3.419-15.442
				c0,0,22.164,60.928,46.242,69.275c12.942,4.486,1.468,11.642,14.04,18.14"/>
			<path clip-path="url(#XMLID_15_)" fill="#FFFFF9" d="M47.396,126.088c-1.155,4.075-0.892,8.656,1.283,12.291
				c0.802,1.339,1.909,2.576,3.375,3.113c2.094,0.769,4.493-0.064,6.223-1.473c1.73-1.408,2.956-3.323,4.285-5.115
				c5.796-7.816,14.093-13.749,23.366-16.703c2.346-0.748,12.629-5.665,14.427-7.347l-0.343-13.808c0,0-9.938,4.132-12.844,5.35
				c-8.848,3.708-12.485,5.345-21.672,8.109c-3.395,1.021-9.909,2.929-12.352,5.573C50.578,118.855,48.426,122.452,47.396,126.088z"
				/>
			<path opacity="0.42" clip-path="url(#XMLID_15_)" fill="#FFFFF9" d="M61.225,81.967c-13.927,10.504-23.883,26.151-27.497,43.218
				c-0.936,4.422-1.122,9.825,2.447,12.599c2.467,1.916,6.03,1.837,8.917,0.646c2.887-1.192,5.265-3.324,7.629-5.364
				c16.113-13.898,34.412-25.257,54.017-33.529c12.562-5.3,25.775-9.405,37.181-16.875c14.104-9.238,24.574-23.078,33.268-37.523
				c8.693-14.445,15.909-29.771,25.188-43.846c-50.153,30.613-100.307,61.227-150.461,91.84"/>
		</g>
		
			<ellipse transform="matrix(0.9856 -0.1693 0.1693 0.9856 -13.5619 40.6905)" fill="#590D67" cx="231.811" cy="99.866" rx="83.92" ry="100.286"/>
		
			<ellipse transform="matrix(0.9856 -0.1693 0.1693 0.9856 -13.4894 40.9686)" fill="#FFFFFF" cx="233.477" cy="99.58" rx="76.192" ry="92.565"/>
		<g>
			<defs>
				
					<ellipse id="XMLID_5_" transform="matrix(0.9856 -0.1693 0.1693 0.9856 -13.3965 41.3248)" cx="235.612" cy="99.214" rx="69.754" ry="87.375"/>
			</defs>
			<use xlink:href="#XMLID_5_"  overflow="visible" fill="#9BEFFF"/>
			<clipPath id="XMLID_16_">
				<use xlink:href="#XMLID_5_"  overflow="visible"/>
			</clipPath>
			<path opacity="0.42" clip-path="url(#XMLID_16_)" fill="#FFFFF9" d="M202.988,150.29c8.586,9.582,21.05,15.999,33.916,15.873
				c12.866-0.125,25.779-7.382,31.307-19.001c3.076-6.467,3.808-13.764,4.428-20.898c0.619-7.134,1.207-14.422,4.036-21
				c2.83-6.578,8.378-12.441,15.438-13.636c5.517-0.934,11.17,1.079,15.888,4.086c16.104,10.266,22.683,31.692,19.118,50.454
				c-3.566,18.762-15.66,34.95-29.951,47.618c-15.549,13.783-34.536,24.357-55.141,27.03c-20.605,2.674-63.489-18.637-77.833-33.669
				"/>
			<path opacity="0.3" clip-path="url(#XMLID_16_)" fill="#3780D8" d="M208.876,99.025c-3.711-18.344,2.589-39.028,18.549-52.128
				c15.959-13.1,41.717-16.806,59.111-6.617c8.817,5.165,15.18,13.335,24.82,17.271c8.984,3.667,20.252,3.002,29.027-1.713
				c8.775-4.715,14.792-13.339,15.501-22.215c1.212-15.18-12.102-27.861-26.868-35.106c-24.112-11.832-53.529-14.057-81.537-10.419
				c-37.034,4.809-73.638,20.184-98.066,45.87c-24.428,25.687-34.965,62.176-22.419,92.517"/>
			<g clip-path="url(#XMLID_16_)">
				<defs>
					<path id="XMLID_6_" d="M165.627,62.606l69.612-2.32l12.938,72.354l-62.462,35.082
						C185.715,167.723,131.786,111.712,165.627,62.606z"/>
				</defs>
				<use xlink:href="#XMLID_6_"  overflow="visible" fill="#3780D8"/>
				<clipPath id="XMLID_17_">
					<use xlink:href="#XMLID_6_"  overflow="visible"/>
				</clipPath>
				<path opacity="0.3" clip-path="url(#XMLID_17_)" fill="#3780D8" d="M139.567,103.761c3.787,7.829,13.471,10.535,22.085,11.73
					c36.146,5.016,73.255-1.608,107.298-14.751c4.115-1.589,8.335-3.299,12.745-3.207c2.87,0.06,6.034,1.167,7.242,3.772
					c1.219,2.63,0.021,5.71-1.344,8.268c-6.377,11.957-16.402,21.562-27.006,29.999c-15.767,12.546-33.402,23.086-52.735,28.762
					c-19.333,5.677-40.486,6.261-59.442-0.567"/>
				<path opacity="0.3" clip-path="url(#XMLID_17_)" fill="#3780D8" d="M125.969,125.124c2.639,3.541,6.679,5.751,10.738,7.486
					c22.239,9.507,47.956,7.597,71.039,0.379s44.243-19.373,65.77-30.397c3.151-1.614,6.563-3.25,10.073-2.781
					c1.328,0.178,2.673,0.703,3.509,1.75c1.454,1.819,0.924,4.493,0.051,6.652c-1.798,4.451-4.713,8.367-7.906,11.953
					c-7.753,8.712-17.226,15.709-26.891,22.236c-31.048,20.97-66.066,38.123-103.471,40.275"/>
				<path opacity="0.42" clip-path="url(#XMLID_17_)" fill="#FFFFF9" d="M260.864,78.089c-5.6-0.864-11.2-1.728-16.8-2.592
					c-14.859-2.292-30.636-1.471-45.659-2.076c-24.362-0.98-47.799-0.62-72.176-0.146c-0.735,0.015-1.631-0.068-1.944-0.733
					c-0.286-0.607,0.116-1.308,0.55-1.82c3.091-3.66,8.188-4.819,12.942-5.41c8.762-1.09,17.625-0.983,26.452-0.812
					c34.146,0.664,68.274,2.27,102.332,4.816"/>
			</g>
			
				<ellipse transform="matrix(0.9856 -0.1693 0.1693 0.9856 -12.9591 42.0406)" clip-path="url(#XMLID_16_)" fill="#590D67" cx="240.026" cy="97.006" rx="27.981" ry="37.801"/>
			<g clip-path="url(#XMLID_16_)">
				<defs>
					
						<ellipse id="XMLID_7_" transform="matrix(0.9856 -0.1693 0.1693 0.9856 -12.9163 42.2055)" cx="241.012" cy="96.837" rx="22.113" ry="29.875"/>
				</defs>
				<use xlink:href="#XMLID_7_"  overflow="visible" fill="#FFFFFF"/>
				<clipPath id="XMLID_18_">
					<use xlink:href="#XMLID_7_"  overflow="visible"/>
				</clipPath>
				<path opacity="0.3" clip-path="url(#XMLID_18_)" fill="#3780D8" d="M218.5,127.497c1.83,1.958,4.371,3.914,6.936,3.138
					c2.575-0.779,4.722-3.963,3.904-6.526c-3.036-9.525-2.922-21.689,0.725-31.684c4.858-13.313,16.733-16.084,26.997-12.21
					c5.424,2.047,9.728,6.216,14.604,9.351c0.754,0.484,1.631,0.964,2.501,0.75c0.731-0.18,1.258-0.809,1.678-1.434
					c3.155-4.688,3.219-10.779,2.554-16.392c-0.814-6.867-2.608-13.753-6.392-19.542s-9.76-10.383-16.603-11.379
					c-17.664-2.571-30.24,14.738-40.608,26.2c-8.653,9.565-10.931,18.815-9.203,31.696
					C206.984,109.85,211.311,119.803,218.5,127.497z"/>
			</g>
		</g>
		<g>
			<defs>
				<path id="XMLID_2_" d="M51.982,108.147c0,0-6.316-3.861-19.69,0.556c-13.374,4.417-27.525,27.44-20.337,54.372
					c5.95,22.297,27.531,33.116,39.549,32.777c9.845-0.278,23.53-11.109,23.53-11.109s-22.242-6.071-31.077-32.819
					C35.123,125.177,51.982,108.147,51.982,108.147z"/>
			</defs>
			<use xlink:href="#XMLID_2_"  overflow="visible" fill="#590D67"/>
			<clipPath id="XMLID_19_">
				<use xlink:href="#XMLID_2_"  overflow="visible"/>
			</clipPath>
			<path opacity="0.3" clip-path="url(#XMLID_19_)" fill="#3780D8" d="M7.358,176.528c4.008,4.619,10.467,6.217,16.556,6.785
				c18.966,1.773,38.548-4.335,53.142-16.577c4.061,6.414,7.164,13.433,9.174,20.753c1.435,5.223,2.281,10.943,0.199,15.943
				c-2.594,6.232-9.027,9.837-15.088,12.809c-7.118,3.491-14.344,6.762-21.665,9.805c-6.42,2.67-13.243,5.211-20.146,4.387
				c-7.144-0.854-13.474-5.291-18.076-10.822s-7.707-12.126-10.709-18.664c-1.195-2.603-2.265-6.003-0.254-8.042"/>
			<path clip-path="url(#XMLID_19_)" fill="#FFFFF9" d="M30.383,145.175c0.929,3.705,4.696,10.865,5.8,9.578
				s-1.786-9.485-1.293-16.625c0.401-5.821,2.186-11.888,4.851-17.079c1.191-2.322,5.748-10.917,0.11-8.765
				c-4.237,1.618-7.411,9.883-8.676,13.795C29.189,132.216,28.809,138.9,30.383,145.175z"/>
			<path opacity="0.2" clip-path="url(#XMLID_19_)" fill="#FFFFF9" d="M3.878,155.723c3.134-9.942,11.297-17.689,20.539-22.511
				c9.243-4.822,19.579-7.078,29.807-9.095c1.215-0.239,2.473-0.494,3.481-1.213c0.923-0.657,1.552-1.645,2.097-2.639
				c2.675-4.878,3.863-10.558,3.37-16.099c-0.274-3.077-1.163-6.29-3.451-8.365c-3.404-3.088-8.676-2.686-13.121-1.518
				c-19.243,5.058-33.934,20.186-47.574,34.67"/>
		</g>
		<path fill="#FFFFF9" d="M237.037,179.201c0,0,26.359,5.836,46.755-17.657s11.019-57.604,11.019-57.604s-0.76,41.015-18.848,57.284
			C256.886,178.382,237.037,179.201,237.037,179.201z"/>
	</g>
</g>
<g id="DESIGNED_BY_FREEPIK">
</g>
</svg>
