<?xml version="1.0" encoding="utf-8"?>
<!-- Generator: Adobe Illustrator 16.0.0, SVG Export Plug-In . SVG Version: 6.00 Build 0)  -->
<!DOCTYPE svg PUBLIC "-//W3C//DTD SVG 1.1//EN" "http://www.w3.org/Graphics/SVG/1.1/DTD/svg11.dtd">
<svg version="1.1" id="Layer_1" xmlns="http://www.w3.org/2000/svg" xmlns:xlink="http://www.w3.org/1999/xlink" x="0px" y="0px"
	 width="100px" height="100px" viewBox="0 0 100 100" enable-background="new 0 0 100 100" xml:space="preserve">
<g transform="translate(50 50) scale(0.69 0.69) rotate(0) translate(-50 -50)">
	<title>66</title>
	<path fill="#4285F4" d="M21.777,85.751c8.061-1.025,16.171-1.605,24.294-1.73v36.083C35.859,117.319,26.928,104.096,21.777,85.751z
		 M46.071-19.713C35.859-16.929,26.928-3.705,21.777,14.641c8.061,1.024,16.171,1.604,24.294,1.728V-19.713z M54.089-19.713v36.082
		c8.127-0.124,16.236-0.702,24.298-1.728C73.234-3.705,64.305-16.929,54.089-19.713L54.089-19.713z M13.72,86.978
		c-7.444,1.228-14.752,3.172-21.825,5.808c9.574,13.063,23.253,22.537,38.848,26.905C23.448,112.368,17.52,100.974,13.72,86.978z
		 M-8.105,7.602c7.073,2.64,14.382,4.583,21.825,5.811c3.8-13.997,9.728-25.391,17.023-32.714
		C15.147-14.933,1.468-5.459-8.105,7.602z M108.268,7.602c-9.573-13.06-23.254-22.535-38.849-26.903
		c7.294,7.323,13.223,18.717,17.021,32.714C93.887,12.184,101.196,10.241,108.268,7.602z M54.089,84.021v36.083
		c10.216-2.785,19.145-16.009,24.298-34.354C70.325,84.725,62.216,84.146,54.089,84.021z M69.419,119.691
		c15.595-4.368,29.276-13.842,38.849-26.904c-7.072-2.638-14.381-4.581-21.828-5.81C82.643,100.974,76.714,112.368,69.419,119.691
		L69.419,119.691z M122.113,46.194H106.21c0.519,2.642,0.519,5.361,0,8.002h15.902c-0.614,11.164-3.831,22.029-9.395,31.727
		c-7.89-3.091-16.084-5.351-24.444-6.738c0.526-2.623,0.961-5.339,1.345-8.101c-1.434,0.299-2.893,0.449-4.356,0.449h-3.84
		c-0.337,2.174-0.703,4.321-1.135,6.404c-8.691-1.153-17.439-1.802-26.204-1.938v-4.467H46.08v4.467
		c-8.765,0.136-17.514,0.784-26.204,1.938c-0.433-2.083-0.8-4.23-1.136-6.404H14.9c-1.463,0-2.922-0.15-4.356-0.449
		c0.383,2.763,0.818,5.479,1.346,8.101c-8.362,1.387-16.554,3.647-24.445,6.738c-5.564-9.698-8.781-20.563-9.395-31.727h15.902
		c-0.519-2.641-0.519-5.361,0-8.002H-21.95c0.614-11.164,3.831-22.029,9.395-31.726c7.891,3.09,16.083,5.351,24.445,6.738
		c-0.528,2.621-0.963,5.338-1.346,8.101c1.434-0.299,2.894-0.449,4.356-0.449h3.84c0.335-2.175,0.703-4.323,1.136-6.404
		c8.691,1.153,17.439,1.8,26.204,1.937v4.467h8.003v-4.467c8.765-0.137,17.513-0.784,26.204-1.937
		c0.432,2.081,0.798,4.23,1.135,6.404h3.84c1.463,0,2.923,0.15,4.356,0.449c-0.384-2.763-0.818-5.48-1.345-8.101
		c8.36-1.386,16.553-3.648,24.444-6.738C118.282,24.165,121.499,35.03,122.113,46.194z M85.262,66.73
		c9.132-0.001,16.535-7.405,16.534-16.536c-0.003-9.133-7.402-16.532-16.534-16.534H14.9C5.768,33.662-1.635,41.066-1.633,50.197
		C-1.631,59.33,5.768,66.729,14.9,66.73H85.262z M43.679,54.999h12.805v-9.607H43.679V54.999z M67.689,54.999h12.806v-9.607H67.689
		V54.999z M19.669,54.999h12.805v-9.607H19.669V54.999z"/>
</g>
</svg>
