<svg height='100px' width='100px'  fill="#ffffff" xmlns:dc="http://purl.org/dc/elements/1.1/" xmlns:cc="http://creativecommons.org/ns#" xmlns:rdf="http://www.w3.org/1999/02/22-rdf-syntax-ns#" xmlns:svg="http://www.w3.org/2000/svg" xmlns="http://www.w3.org/2000/svg" xmlns:sodipodi="http://sodipodi.sourceforge.net/DTD/sodipodi-0.dtd" xmlns:inkscape="http://www.inkscape.org/namespaces/inkscape" version="1.1" x="0px" y="0px" viewBox="0 0 100 100"><g transform="translate(0,-952.36218)"><path style="color:#000000;enable-background:accumulate;" d="m 50,962.36219 c -22.091391,0 -40.0000005,17.9086 -40.0000005,40.00001 0,5.632 1.1806905,10.9828 3.2812505,15.8437 L 35.5,991.08089 c 1.13459,-1.0619 2.15845,-0.6399 3.15625,0.094 l 6.25,8.40629 2.40625,-4.2187 c 1.09013,-1.35539 2.33428,-1.03499 3.40625,-0.125 l 3.15625,4.7187 7.34375,-13.46869 c 1.123829,-1.3941 2.22092,-1.0965 3.375,-0.2188 L 87.0625,1017.3312 C 88.93378,1012.703 90,1007.6613 90,1002.3625 90,980.27109 72.091389,962.36249 50,962.36249 z m -11,10 c 3.290019,0 6,2.7098 6,6 0,3.2901 -2.709981,6 -6,6 -3.290031,0 -6,-2.7099 -6,-6 0,-3.2902 2.709969,-6 6,-6 z m 0,4 c -1.128421,0 -2,0.8716 -2,2 0,1.1283 0.871579,2 2,2 1.12841,0 2,-0.8715 2,-2 0,-1.1284 -0.87159,-2 -2,-2 z m 24.1875,14.8437 -15.90625,29.18751 c -1.63506,2.3037 -4.48171,0.01 -3.53125,-1.9062 l 4.3125,-7.9063 L 37,995.61218 15.25,1022.1746 c 6.89177,12.0494 19.874569,20.1876 34.75,20.1876 15.14736,0 28.33529,-8.4293 35.125,-20.8438 z m -14,8.93751 -1.6875,2.9375 2.6875,3.625 1.53125,-2.8125 z" fill="#ffffff" stroke="none" marker="none" visibility="visible" display="inline" overflow="visible"></path></g></svg>